<?xml version="1.0" encoding="utf-8" ?>
<svg baseProfile="full" height="130mm" version="1.1" viewBox="0,0,100,130" width="100mm" xmlns="http://www.w3.org/2000/svg" xmlns:ev="http://www.w3.org/2001/xml-events" xmlns:xlink="http://www.w3.org/1999/xlink"><defs /><rect fill="#FAF9F5" height="130" width="100" x="0" y="0" /><text fill="#5A5A5A" style="font-size:6px; font-family:Arial; font-weight:bold;color:#0ed45e;" x="5" y="10">MY TRACKS</text><text fill="#5A5A5A" style="font-size:4px; font-family:Arial" x="5" y="121">Runner</text><text fill="#5A5A5A" style="font-size:6px; font-family:Arial" x="2" y="128">蓝皮书</text><text fill="#5A5A5A" style="font-size:4px; font-family:Arial" x="25" y="121">WORKOUTS INFO</text><text fill="#5A5A5A" style="font-size:3px; font-family:Arial" x="25" y="125">Type: Run</text><text fill="#5A5A5A" style="font-size:3px; font-family:Arial" x="22" y="129">Date: 2022-06-15</text><text fill="#5A5A5A" style="font-size:3px; font-family:Arial" x="47" y="125">Distance: 5.97 km</text><text fill="#5A5A5A" style="font-size:3px; font-family:Arial" x="47" y="129">Duration: 40:40min</text><text fill="#5A5A5A" style="font-size:3px; font-family:Arial" x="75" y="125">Pace: 6:49/km</text><text fill="#5A5A5A" style="font-size:3px; font-family:Arial" x="75" y="129">Elevation: 0m</text><polyline fill="none" points="24.958015266805887,53.05038384348154 26.675572518724948,53.05038384348154 28.46183206094429,53.75849090726115 30.11068702256307,54.46659716818249 31.89694656478241,54.55511039425619 33.61450381670147,54.201057414582465 35.46946564875543,53.315924086549785 36.774809160036966,52.165248884179164 38.21755725191906,51.45714001310989 39.79770992370322,50.74903033929877 41.515267175389454,49.952405995631125 43.232824427308515,49.50983647670364 44.950381679227576,49.15578063559951 46.049618320539594,48.35915425908752 47.08015267155133,46.765898456738796 48.86641221353784,46.500355427735485 50.65267175529152,46.3233266788302 52.026717556873336,46.500355427735485 53.74427480902523,46.500355427735485 55.736641220981255,46.765898456738796 57.24809160269797,46.94292708003195 59.03435114515014,47.56252686615335 60.75190839660354,48.005097765417304 60.95801526727155,48.80172459379537 62.81297709885985,49.6868643219932 64.53053435101174,50.04091986187268 66.1106870227959,50.66051657346543 67.89694656454958,50.66051657346543 69.75190839683637,50.394975200644694 71.40076335845515,50.8375440921518 72.98091603023931,51.280112669977825 74.69847328215837,51.81119454925647 76.48473282437772,52.165248884179164 78.4083969462663,52.430789503850974 80.12595419841819,53.13889727037167 81.43129770969972,54.2895706781419 82.94274809141643,55.35172886477085 84.2480916029308,56.41388524399372 85.69083969434723,57.21050134272082 87.06488549616188,58.44967992010061 88.23282442707568,60.21993076405488 89.19465648801997,61.72464003483765 89.53816793882288,63.671905472758226 89.67557251895778,65.53065317915753 89.40076335868798,67.21237252652645 89.53816793882288,68.89408734400058 89.9503816794604,70.48728667653631 89.67557251895778,72.16899267246481 89.0572519081179,73.93920461670496 87.82061068690382,75.44388082291698 86.44656488555484,76.8600433516549 85.55343511421233,78.45322235685308 83.69847328215837,78.80726158368634 82.0496183205396,78.89577135897707 81.29389312956482,80.40043561981292 81.15648854942992,82.25913352420321 81.36259541963227,84.02931686019292 81.22519083949737,85.71098638052354 80.88167938916013,87.56966847565491 80.81297709885985,89.42834503739141 80.67557251895778,91.28701606625691 80.26335877832025,93.05717380676651 78.95801526703872,94.11926604196196 77.30916030495428,93.67672783031594 75.59160305326805,93.67672783031594 73.94274809141643,93.58822015009355 72.15648854942992,93.85374315234367 70.50763358757831,94.11926604196196 68.92748091579415,93.76523549755802 67.20992366387509,93.67672783031594 65.21755725168623,93.85374315234367 63.63740457990207,93.14568156196037 62.057251908117905,92.96866603905801 60.270992366131395,93.23418930458138 58.484732824144885,93.41120475239586 56.767175572225824,93.76523549755802 55.18702290044166,93.85374315234367 53.33206106862053,93.58822015009355 51.75190839660354,93.23418930458138 50.10305343498476,92.79165046539856 48.3854961830657,92.7031426600879 46.59923664107919,92.61463484191336 45.3625954198651,91.64104801567737 45.29389312979765,89.87088626029436 45.843511450337246,88.10071948636323 45.912213740637526,86.15353023825446 45.843511450337246,84.29484392754966 45.980916030239314,82.52466134453425 45.6374045801349,80.75447374256328 44.88167938916013,79.2498103347607 44.46946564875543,77.39110347157111 42.75190839660354,76.59451312228339 40.96564885461703,76.59451312228339 39.11068702256307,76.77153328753775 38.561068702023476,75.08983968867688 38.0801526713185,73.40814156027045 37.11832061037421,71.90346044802573 35.950381679227576,70.48728667653631 34.43893129751086,69.24813199118944 32.92748091602698,68.36301999626448 30.93511450360529,68.00897484674351 29.28625954198651,67.03534965065774 27.6374045801349,67.38939535216196 26.125954198185354,66.41576918988721 24.82061068667099,66.68130374827888 23.652671755524352,68.00897484674351 22.20992366410792,69.24813199118944 21.04198473272845,70.48728667653631 19.32442748080939,71.19537396368105 17.53816793882288,71.01835221715737 16.50763358757831,69.86770964146126 14.79007633542642,69.77919858612586 13.00381679367274,70.04473171400605 11.561068702256307,69.42515423963778 10.461832060944289,68.09748615307035 9.5,66.59279224142665 9.706106869969517,64.91107122518588 11.011450381716713,63.671905472758226 12.2480916029308,62.698273512825835 13.690839694580063,61.990176588646136 14.652671755524352,60.48546795762377 15.614503816468641,59.157780859735794 17.263358778553084,58.2726545597543 18.56870228983462,57.12198849301785 19.667938931146637,55.8828072801698 21.04198473272845,54.46659716818249 22.484732824144885,53.49295085249469 24.270992366364226,53.05038384348154 25.988549618050456,52.96187040396035 27.774809160036966,53.315924086549785 29.14885496161878,54.64362360793166 30.522900763200596,55.17470262560528 32.24045801511966,55.086189487425145 33.88931297697127,54.64362360793166 35.53816793882288,53.669977568381 37.18702290067449,52.607816520670895 38.561068702023476,51.280112669977825 40.14122137380764,50.57200279523386 41.9961832058616,50.4834890041966 43.64503816771321,49.598350405693054 45.5,49.06726664415328 46.53053435101174,47.73955526360078 47.835877862526104,46.500355427735485 49.416030534077436,46.94292708003195 51.202290076063946,46.677384126291145 53.057251908117905,45.969269030727446 54.56870228983462,46.765898456738796 55.9427480911836,47.29698417597683 57.522900762967765,47.38549841847271 58.553435114445165,45.969269030727446 60.06488549592905,47.20846992073348 61.370229007676244,48.44766835134942 63.156488549662754,48.53618243068922 64.87404580134898,48.62469649751438 66.59160305303521,48.89023862313479 68.37786259525456,49.2442946145311 70.09541984717362,49.33280858123908 71.81297709885985,49.4213225353742 73.46183206094429,49.86389211675851 75.2480916029308,49.77537822560407 77.03435114515014,50.21794755652081 78.82061068690382,50.394975200644694 80.81297709885985,51.014571560837794 82.0496183205396,52.165248884179164 82.46183206094429,53.93551754782675 83.28625954175368,55.35172886477085 84.79770992347039,56.502398194163106 85.96564885484986,57.564552615454886 87.1335877859965,58.892243101785425 88.50763358757831,59.954393457388505 89.4694656485226,61.547615602903534 89.88167938916013,63.40636963408906 89.9503816794604,65.26511813135585 90.5,66.85832672467222 90.15648854966275,68.71706494485261 89.81297709885985,70.48728667653631 89.33206106862053,72.34601409273455 88.64503816748038,74.11622553499183 87.06488549616188,74.82430870673852 85.89694656454958,76.32898277969798 84.59160305326805,77.83365322678583 82.94274809141643,78.71875179558992 81.49999999953434,80.22341648320435 81.63740457990207,81.90509625477716 81.84351145010442,83.76378967956407 81.77480915980414,85.44545991532505 81.84351145010442,87.12712562159868 81.84351145010442,88.80878679832676 81.9122137404047,90.57895156485029 81.43129770969972,92.26060344435973 80.53816793882288,93.67672783031594 78.88931297673844,93.76523549755802 77.30916030495428,93.41120475239586 75.45419847290032,93.05717380676651 73.73664122098126,92.79165046539856 72.08778625936247,92.61463484191336 70.37022900744341,92.88015825825278 68.79007633589208,93.58822015009355 67.00381679390557,93.41120475239586 65.42366412212141,93.85374315234367 63.7748091602698,93.76523549755802 62.125954198418185,93.14568156196037 60.47709923633374,93.67672783031594 58.622137404512614,93.58822015009355 56.835877862526104,93.41120475239586 55.18702290044166,93.14568156196037 53.40076335845515,93.14568156196037 51.54580152663402,93.14568156196037 49.553435114445165,93.05717380676651 47.973282442661,92.43761916848598 46.18702290044166,92.43761916848598 45.980916030239314,90.75596776546445 46.53053435101174,89.1628201531712 47.14885496185161,87.56966847565491 47.767175572225824,85.71098638052354 47.90458015236072,84.02931686019292 47.973282442661,82.25913352420321 47.698473282391205,80.57745470642112 46.39312977087684,79.16130060958676 45.5,77.56812341121258 44.125954198418185,76.683023211197 42.339694656431675,76.06345232448075 40.89694656454958,76.32898277969798 39.17938931286335,76.06345232448075 37.53053435077891,75.6209013145417 36.019083969295025,75.44388082291698 35.33206106885336,73.76218364812667 33.68320610676892,73.14260986284353 32.309160305187106,71.99197120196186 30.866412213770673,71.19537396368105 29.011450381716713,70.66430857370142 27.49999999976717,71.46090648928657 26.675572518724948,72.87707805249374 25.64503816771321,74.29324640333652 25.507633587811142,76.24047264043475 25.57633587741293,77.92216313997051 25.919847328215837,79.60384910972789 26.46946564875543,80.84298324160045 27.774809160036966,82.17062422563322 29.423664121888578,82.70167982875137 31.14122137380764,83.05571664642775 32.10305343498476,84.02931686019292 33.13358778622933,82.43615208368283 34.50763358757831,81.28553055017255 35.33206106885336,79.8693780595786 36.843511450104415,78.5417321822024 36.70610686996952,76.32898277969798 35.74427480902523,74.82430870673852 34.71374045801349,73.58516262931516 33.339694656431675,72.61154612893006 32.5839694654569,72.25750338891521" stroke="#4DD2FF" stroke-linecap="round" stroke-linejoin="round" stroke-width="0.5"><title>2022-06-15 5.97km</title><desc>355649234</desc></polyline></svg>