<?xml version="1.0" encoding="utf-8" ?>
<svg baseProfile="full" height="130mm" version="1.1" viewBox="0,0,100,130" width="100mm" xmlns="http://www.w3.org/2000/svg" xmlns:ev="http://www.w3.org/2001/xml-events" xmlns:xlink="http://www.w3.org/1999/xlink"><defs /><rect fill="#FAF9F5" height="130" width="100" x="0" y="0" /><text fill="#5A5A5A" style="font-size:6px; font-family:Arial; font-weight:bold;color:#0ed45e;" x="5" y="10">MY TRACKS</text><text fill="#5A5A5A" style="font-size:4px; font-family:Arial" x="5" y="121">Runner</text><text fill="#5A5A5A" style="font-size:6px; font-family:Arial" x="2" y="128">蓝皮书</text><text fill="#5A5A5A" style="font-size:4px; font-family:Arial" x="25" y="121">WORKOUTS INFO</text><text fill="#5A5A5A" style="font-size:3px; font-family:Arial" x="25" y="125">Type: Run</text><text fill="#5A5A5A" style="font-size:3px; font-family:Arial" x="22" y="129">Date: 2022-04-29</text><text fill="#5A5A5A" style="font-size:3px; font-family:Arial" x="47" y="125">Distance: 4.13 km</text><text fill="#5A5A5A" style="font-size:3px; font-family:Arial" x="47" y="129">Duration: 25:49min</text><text fill="#5A5A5A" style="font-size:3px; font-family:Arial" x="75" y="125">Pace: 6:15/km</text><text fill="#5A5A5A" style="font-size:3px; font-family:Arial" x="75" y="129">Elevation: 0m</text><polyline fill="none" points="34.687459299806505,58.396335169207305 34.687459299806505,58.396335169207305 34.327164224814624,57.93214507610537 35.58819698821753,57.351907089643646 36.75915598263964,57.11981177987764 37.93011497799307,57.11981177987764 38.92092643445358,56.887716404220555 40.181959197856486,56.53957321762573 41.53306573070586,56.655620962847024 42.884172262623906,56.423525455989875 44.14520502649248,56.307477677532006 45.316164021380246,56.07538207154721 46.577196784783155,55.959334243729245 47.658082011155784,55.727238539315294 48.91911477409303,55.727238539315294 50.0900737689808,55.61119066213723 51.35110653238371,55.61119066213723 52.43199175829068,55.61119066213723 53.69302452169359,55.61119066213723 54.86398351658136,55.61119066213723 55.944868742488325,55.61119066213723 57.115827737376094,55.61119066213723 58.2867867317982,55.84328639967134 59.45774572668597,55.959334243729245 60.71877849055454,55.959334243729245 61.88973748497665,56.19142988260137 62.97062271088362,56.423525455989875 64.14158170577139,56.53957321762573 65.2224669312127,56.655620962847024 66.30335215711966,57.11981177987764 67.38423738349229,57.351907089643646 68.46512260939926,57.467954719788395 69.72615537280217,57.93214507610537 70.80704059870914,57.93214507610537 71.97799959313124,58.280287670495454 73.05888481950387,58.62843011674704 74.22984381392598,58.86052499921061 75.22065527085215,59.32471456553321 76.30154049675912,59.78890386893181 77.56257326016203,60.36914012802299 78.55338471755385,60.83332883880939 79.54419617494568,61.5296114119119 80.80522893788293,62.10984643676784 81.70596662629396,63.03822162107099 82.69677808322012,63.618455576943234 83.41736823413521,64.54682905011578 84.13795838458464,65.3591549754492 84.76847476651892,66.28752647474175 85.39899114798754,67.21589692111593 86.02950752992183,68.14426631433889 86.56995014287531,69.30472657509381 87.1103927558288,70.34913940314436 87.65083536878228,71.39355089853052 88.28135175071657,72.32191555335885 88.3714255192317,73.59841523505747 88.3714255192317,74.7588677633903 88.10120421275496,76.03536364395404 87.92105667525902,77.07976788451197 88.10120421275496,78.12417079211446 88.19127798173577,79.40066142502474 87.83098290627822,80.5611057273345 87.2905402937904,81.72154838463757 86.66002391185611,82.64990132628009 86.29972883639857,83.6942971268436 85.75928622344509,84.73869159497553 85.21884361002594,85.66704111464787 84.49825345957652,86.595389581169 83.41736823413521,87.40769362589344 82.69677808322012,88.45208335598 81.70596662629396,88.91625614173245 80.71515516936779,89.38042866438627 79.54419617494568,89.96064394718269 78.55338471755385,90.54085881914943 77.56257326016203,91.1210732794716 76.9320568786934,91.93337283312576 76.30154049675912,92.86171419289894 76.03131919028237,94.02213941252558 76.21146672824398,95.29860525374534 76.12139295879751,96.34298491617665 76.12139295879751,97.50340520060854 75.94124542176723,98.77986561344005 75.94124542176723,99.94028244313085 75.76109788380563,100.98465618357295 75.58095034630969,102.14506988826906 75.40080280834809,103.30548194737639 75.13058150187135,104.46589236176806 75.31072903983295,105.74234191782307 75.40080280834809,107.0187894833507 75.49087657779455,108.06315419275779 75.94124542176723,109.2235578627442 75.13058150187135,110.15187961462652 73.95962250744924,109.91979927540524 72.87873728107661,109.57167864288203 71.79785205610096,109.80375908117276 70.4467455232516,110.03583945310675 69.36586029734462,109.80375908117276 68.28497507143766,109.68771887064213 67.02394230803475,109.68771887064213 65.85298331361264,109.45563839934766 64.50187678076327,109.33959813945694 63.24084401736036,109.10751756990794 62.15995879145339,109.10751756990794 61.07907356554642,108.99147726059891 59.998188340105116,109.10751756990794 58.827229344751686,109.10751756990794 58.827229344751686,107.94711373513564 59.00737688224763,106.67066761746537 59.09745065122843,105.51026032835944 59.18752442020923,104.23381041060202 59.18752442020923,103.18944081553491 59.18752442020923,102.02902859181631 59.18752442020923,100.86861472250894 59.18752442020923,99.70819920912618 59.09745065122843,98.66382383991731 59.27759818919003,97.50340520060854 59.45774572668597,96.34298491617665 59.54781949520111,95.29860525374534 59.27759818919003,94.1381818439695 58.10663919430226,94.02213941252558 56.93568019988015,93.79005449987017 55.764721204992384,94.02213941252558 54.50368844112381,93.90609696443425 53.512876984197646,93.67401201935718 52.34191798977554,93.5579695221968 51.08088522590697,93.2098419314134 49.90992623148486,93.44192700844724 48.82904100511223,93.44192700844724 47.658082011155784,93.32588447828311 46.487123015802354,93.32588447828311 45.67645909683779,94.1381818439695 46.03675417182967,95.41464750427986 46.12682794081047,96.45902701874729 46.03675417182967,97.61944713850971 46.03675417182967,98.66382383991731 45.76653286535293,99.8242408343358 45.586385327391326,100.86861472250894 45.13601648341864,102.02902859181631 45.226090252399445,103.18944081553491 45.13601648341864,104.34985139465425 44.9558689459227,105.62630113115301 44.77572140842676,106.90274887759006 44.68564763944596,108.06315419275779 44.8657951769419,109.33959813945694 43.874983720015734,109.80375908117276 42.613950956147164,109.68771887064213 41.442991961725056,109.80375908117276 40.36210673581809,109.68771887064213 39.28122150991112,109.91979927540524 38.29041005298495,110.2679197593825 37.209524827077985,110.2679197593825 36.21871336968616,110.38395988778211 35.04775437526405,110.38395988778211 33.96686914935708,110.38395988778211 32.79591015446931,110.5 31.715024928562343,110.38395988778211 30.814287240151316,109.80375908117276 29.643328245729208,109.68771887064213 29.553254476748407,108.64335623342777 29.553254476748407,107.36691120115574 29.73340201471001,106.20650489901891 30.09369708970189,104.93005606700899 30.183770859148353,103.8856873603072 30.363918396178633,102.60923490935238 30.363918396178633,101.44882186281029 30.90436100959778,100.40444871486397 30.814287240151316,99.12799083517166 30.814287240151316,97.73548906017095 30.724213472101837,96.45902701874729 30.814287240151316,95.41464750427986 30.363918396178633,94.25422425905708 29.643328245729208,93.09379936842015 28.832664326298982,92.39754364447435 27.931926637887955,91.35315894847736 27.30141025641933,90.54085881914943 26.400672567542642,89.61251482693478 25.77015618653968,88.68416978185996 24.68927096016705,88.45208335598 23.608385734260082,88.21999686473282 22.887795583810657,87.40769362589344 22.797721815295517,86.24725902936189 22.527500508818775,84.97077907348284 22.167205433361232,83.9263849016279 21.80691035836935,82.88198939710855 21.086320207454264,81.83759256015765 20.45580382598564,80.79319439048413 19.735213675070554,79.98088378156535 18.924549755640328,79.16857236676151 18.203959605190903,78.47230479842983 17.213148147799075,77.6599918861757 16.40248422883451,76.84767816815292 15.411672771442682,76.26745359034976 15.681894077919424,75.10700320085743 15.952115384396166,73.94655116618378 15.411672771442682,72.7860974863288 14.330787545535713,72.08982448861934 13.88041870109737,71.04541388136568 13.88041870109737,70.00100194150582 14.510935083031654,68.95658866956364 15.501746540423483,68.26031241426244 16.31241045985371,67.44798936799634 16.49255799734965,66.40357283811318 15.501746540423483,65.82334085699404 14.330787545535713,65.82334085699404 13.339976088609546,66.05543369869702 12.259090862702578,66.05543369869702 11.628574480768293,65.12706193659687 11.898795787245035,63.96659575263038 11.988869556225836,62.69008105061948 12.078943324740976,61.645658449677285 12.61938593769446,60.601234516187105 13.159828550647944,59.67285656789318 13.970492470543832,58.86052499921061 14.871230158489197,57.93214507610537 15.0513776964508,56.887716404220555 14.150640008039773,56.307477677532006 13.970492470543832,55.146998989454005 14.871230158489197,54.450710987031925 16.042189153376967,54.10256676416611 17.033000610303134,53.40627787314588 17.573443223256618,52.47789176367223 17.9337382982485,51.20135914400453 17.84366452973336,50.04087321663974 19.10469729360193,49.692727117741015 20.45580382598564,49.808775834040716 21.446615282911807,49.576678385259584 22.617574277799577,49.576678385259584 22.887795583810657,48.41619015444303 23.33816442778334,47.371749339974485 23.878607040736824,46.44335638632765 24.32897588517517,45.282863712986 24.32897588517517,44.23841890017502 24.238902116194367,42.96187343029305 24.238902116194367,41.685325969650876 24.238902116194367,40.524826550274156 24.238902116194367,39.36432548559969 24.058754579164088,38.31987312005367 24.058754579164088,37.15936892927857 23.788533272221684,35.88281241845107 23.968680809717625,34.722304772003554 23.698459503240883,33.677846483304165 24.058754579164088,32.51733571017394 25.139639804605395,32.16918215760961 26.040377493016422,31.47287460771622 27.21133648743853,31.2407719597104 28.382295481860638,31.12472061079461 29.643328245729208,31.008669245406054 30.724213472101837,30.89261786377756 31.985246235504746,30.660515051102266 33.156205229926854,31.008669245406054 34.41723799332976,30.89261786377756 35.49812321923673,30.544463620113675 36.57900844560936,30.312360708543565 37.84004120901227,30.312360708543565 39.10107397241518,30.196309228020255 40.27203296730295,30.196309228020255 41.53306573070586,30.312360708543565 42.79409849457443,30.080257731024176 43.874983720015734,30.196309228020255 45.045942714903504,29.964206217671745 46.21690170932561,30.080257731024176 47.29778693523258,30.312360708543565 48.46874593058601,30.080257731024176 49.459557387046516,30.080257731024176 50.540442612953484,30.428412172710523 51.62132783886045,30.544463620113675 52.61213929578662,30.196309228020255 53.78309829067439,30.312360708543565 54.77390974806622,30.196309228020255 55.854794973973185,29.964206217671745 57.02575396839529,29.964206217671745 58.1967129628174,30.080257731024176 59.27759818919003,29.5 60.35848341463134,29.964206217671745 61.439368641003966,30.196309228020255 62.700401404406875,30.196309228020255 63.69121286133304,30.660515051102266 64.95224562473595,30.428412172710523 66.12320462008938,30.196309228020255 67.11401607701555,29.964206217671745 68.28497507143766,30.312360708543565 69.36586029734462,30.196309228020255 70.5368192922324,30.544463620113675 71.79785205610096,30.660515051102266 73.05888481950387,30.660515051102266 74.31991758290678,30.660515051102266 75.40080280834809,31.12472061079461 75.31072903983295,32.40128454257501 75.40080280834809,33.56179548020009 75.31072903983295,34.60625391674694 75.22065527085215,35.76676172798034 75.13058150187135,36.92726789339213 73.8695487389341,37.391469898982905 72.96881105052307,36.81121735071065 72.87873728107661,35.65071102097863 72.33829466858879,34.722304772003554 71.07726190565154,34.83835561061278 69.81622914131731,34.83835561061278 68.735343915876,35.18650802789489 67.65445868996903,35.30255880084587 67.02394230803475,34.490203044901136 65.85298331361264,34.25810125301359 64.86217185622081,33.677846483304165 63.69121286133304,34.25810125301359 63.06069647986442,33.32969342393335 61.70958994748071,33.32969342393335 60.4485571840778,33.445744460390415 59.36767195770517,32.98154021665687 58.1967129628174,33.213642371527385 58.01656542532146,34.25810125301359 57.56619658134878,35.418609557207674 56.93568019988015,36.347015016363 55.764721204992384,36.579116216744296 54.50368844112381,36.11491375026526 53.332729446701705,35.99886309244903 52.071696683298796,35.65071102097863 50.720590150915086,35.418609557207674 49.549631155561656,35.07045723905321 48.46874593058601,35.18650802789489 47.29778693523258,35.418609557207674 46.12682794081047,35.418609557207674 44.9558689459227,35.534660297387745 43.784909951500595,35.534660297387745 42.70402472559363,34.95440643298207 41.442991961725056,35.418609557207674 40.27203296730295,35.18650802789489 39.19114774139598,35.534660297387745 38.11026251548901,35.30255880084587 36.93930352013558,35.418609557207674 35.67827075673267,35.418609557207674 34.687459299806505,34.83835561061278 33.336352767422795,35.534660297387745 32.25546754151583,35.30255880084587 31.17458231607452,35.418609557207674 30.544065934140235,36.347015016363 30.453992165159434,37.62357080320362 30.363918396178633,38.784074335882906 30.09369708970189,39.712475977663416 30.09369708970189,40.872976548736915 30.183770859148353,41.917425655876286 30.09369708970189,43.07792310084915 30.363918396178633,44.122369394404814 30.544065934140235,45.282863712986 30.634139702655375,46.55940556334099 30.814287240151316,47.71989642607514 30.814287240151316,48.880385644501075 30.453992165159434,50.15692188363755 30.363918396178633,51.31740764650749 30.363918396178633,52.59394008509116 31.534877391066402,52.82603667821968 32.52568884845823,53.63837423588848 33.426426536403596,54.450710987031925 34.14701668731868,55.61119066213723 34.687459299806505,56.655620962847024 35.49812321923673,57.58400233334396 35.49812321923673,57.58400233334396" stroke="#4DD2FF" stroke-linecap="round" stroke-linejoin="round" stroke-width="0.5"><title>2022-04-29 4.13km</title><desc>352738072</desc></polyline></svg>