<?xml version="1.0" encoding="utf-8" ?>
<svg baseProfile="full" height="130mm" version="1.1" viewBox="0,0,100,130" width="100mm" xmlns="http://www.w3.org/2000/svg" xmlns:ev="http://www.w3.org/2001/xml-events" xmlns:xlink="http://www.w3.org/1999/xlink"><defs /><rect fill="#FAF9F5" height="130" width="100" x="0" y="0" /><text fill="#5A5A5A" style="font-size:6px; font-family:Arial; font-weight:bold;color:#0ed45e;" x="5" y="10">MY TRACKS</text><text fill="#5A5A5A" style="font-size:4px; font-family:Arial" x="5" y="121">Runner</text><text fill="#5A5A5A" style="font-size:6px; font-family:Arial" x="2" y="128">蓝皮书</text><text fill="#5A5A5A" style="font-size:4px; font-family:Arial" x="25" y="121">WORKOUTS INFO</text><text fill="#5A5A5A" style="font-size:3px; font-family:Arial" x="25" y="125">Type: Run</text><text fill="#5A5A5A" style="font-size:3px; font-family:Arial" x="22" y="129">Date: 2022-07-04</text><text fill="#5A5A5A" style="font-size:3px; font-family:Arial" x="47" y="125">Distance: 3.14 km</text><text fill="#5A5A5A" style="font-size:3px; font-family:Arial" x="47" y="129">Duration: 23:43min</text><text fill="#5A5A5A" style="font-size:3px; font-family:Arial" x="75" y="125">Pace: 7:33/km</text><text fill="#5A5A5A" style="font-size:3px; font-family:Arial" x="75" y="129">Elevation: 0m</text><polyline fill="none" points="24.80974188190885,57.878853798494674 24.80974188190885,57.878853798494674 25.821398834697902,57.444393762154505 26.765611990354955,57.53128579404438 27.5749375524465,57.79196181579027 28.316819317638874,58.052637726883404 29.058701082598418,58.40020543540595 29.935470441589132,58.83466479444178 30.812239800347015,59.00844845181564 31.6890091591049,59.26912384526804 32.63322231476195,59.26912384526804 33.509991673985496,59.26912384526804 34.45420482964255,59.44290737929987 35.3984179852996,59.44290737929987 36.207743547391146,59.44290737929987 37.1519567030482,59.52979912777664 37.96128226490691,59.61669086414622 38.83805162389763,59.703582588233985 39.71482098265551,59.703582588233985 40.524146544747055,59.61669086414622 41.26602830993943,59.35601561842486 42.07535387179814,59.1822320598294 43.019567027688026,59.095340262167156 43.82889258954674,58.83466479444178 44.705661948537454,58.57398921623826 45.51498751039617,58.40020543540595 46.32431307248771,58.13952967239311 47.13363863481209,57.96574576897547 48.07785179046914,57.79196181579027 48.819733555428684,57.618177813477814 49.6965029144194,57.444393762154505 50.50582847651094,57.18371759238653 51.315154038369656,57.00993341777939 52.1244796004612,56.74925706360955 52.933805162785575,56.662364920717664 53.74313072464429,56.57547276542755 54.61990008340217,56.488580598146655 55.361781848594546,56.31479622621555 56.23855120781809,56.31479622621555 57.047876769676805,56.22790402197279 57.92464612866752,56.05411957605975 58.80141548719257,56.14101180515718 59.543297252384946,55.96722733473871 60.35262281447649,55.88033508101944 61.161948376568034,55.96722733473871 62.03871773555875,55.96722733473871 62.9829308912158,55.88033508101944 63.859700249973685,55.88033508101944 64.7364696089644,55.79344281507656 65.4783513743896,55.79344281507656 66.42256452981383,55.88033508101944 67.23189009167254,55.88033508101944 68.10865945089608,55.88033508101944 68.9179850127548,55.88033508101944 69.72731057484634,56.05411957605975 70.6715237305034,56.14101180515718 71.61573688616045,56.31479622621555 72.49250624491833,56.488580598146655 73.36927560414188,56.662364920717664 74.17860116576776,56.74925706360955 74.9879267278593,56.92304131196579 75.86469608661719,57.09682551125297 76.74146544584073,57.3575017178664 77.61823480459861,57.444393762154505 78.42756036645733,57.618177813477814 79.2368859287817,57.79196181579027 80.04621149087325,58.13952967239311 80.9229808493983,58.31331352685811 81.73230641148984,58.66088108776603 82.54163197381422,59.00844845181564 83.35095753567293,59.44290737929987 83.9579517072998,60.05114936060272 84.69983347202651,60.485607548907865 85.44171523768455,61.00695696863113 85.98126561241224,61.61519739771029 86.52081598690711,62.2234372231178 87.12781015853398,62.831676444853656 87.5999167363625,63.43991506291786 88.20691090775654,64.04815307748504 88.54412989201955,64.83017249515979 89.08368026674725,65.52530002855929 89.62323064147495,66.39420833654003 89.82556203193963,67.26311541278847 90.0953372195363,68.13202125695534 90.23022481310181,69.0009258693899 90.29766860976815,69.95671952003613 90.5,70.82562154548941 90.5,71.69452233921038 90.43255620333366,72.65031178935897 90.23022481310181,73.51920999621507 90.16278101596981,74.38810697116423 89.8930058288388,75.2570027144975 89.62323064147495,76.12589722574921 89.35345545387827,76.99479050538503 89.01623646984808,77.68990424223011 88.47668609535322,78.47190625360236 87.93713572062552,79.25390726752812 87.46502914256416,79.8621295884368 86.85803497117013,80.47035130579025 86.25104079954326,80.99168372602435 85.57660283125006,81.51301570254145 84.83472106605768,81.86057010735385 84.02539550396614,82.29501283646096 83.35095753567293,82.7294552573585 82.60907577048056,82.99012056208448 81.79975020838901,83.33767412928864 80.9904246465303,83.51145083876327 80.18109908443876,83.51145083876327 79.30432972544804,83.51145083876327 78.42756036645733,83.68522749922704 77.48334721080028,83.77211581112351 76.74146544584073,83.94589239760535 75.79725229018368,83.94589239760535 74.9879267278593,83.94589239760535 74.11115736886859,83.94589239760535 73.3018318072427,83.94589239760535 72.35761865158565,84.1196689347853 71.54829308926128,84.03278067230713 70.6715237305034,84.03278067230713 69.72731057484634,84.20655718492344 68.85054121585563,84.1196689347853 68.04121565399691,84.20655718492344 67.09700249810703,84.20655718492344 66.28767693624832,84.1196689347853 65.34346378035843,84.1196689347853 64.39925062470138,84.1196689347853 63.58992506260984,84.1196689347853 62.71315570385195,84.1196689347853 61.83638634462841,84.03278067230713 61.027060783002526,84.03278067230713 60.15029142401181,84.03278067230713 59.27352206525393,84.1196689347853 58.464196503162384,84.03278067230713 57.65487094107084,84.03278067230713 56.84554537944496,83.94589239760535 55.90133222308941,83.94589239760535 55.02456286456436,84.03278067230713 54.080349708907306,84.1196689347853 53.20358034991659,84.1196689347853 52.39425478805788,83.94589239760535 51.584929225966334,83.94589239760535 50.77560366387479,83.77211581112351 49.966278101783246,83.42456249013776 49.42672772705555,82.7294552573585 48.752289758762345,82.20812431519153 48.01040799356997,81.68679292954039 47.335970025276765,81.16546110081254 46.45920066628605,80.9047950199456 45.58243130752817,80.9047950199456 44.84054954233579,80.9047950199456 44.03122398024425,80.81790630187606 43.221898418152705,80.99168372602435 42.34512905939482,80.81790630187606 41.40091590350494,80.9047950199456 41.19858451327309,80.12279611261329 40.99625312257558,79.16701831517275 40.86136552901007,78.29812811530428 40.456702748080716,77.60301506816177 40.05203996691853,76.82101194805 39.71482098265551,76.12589722574921 39.242714404826984,75.34389222110622 38.56827643630095,74.73566541657783 38.16361365560442,73.95365863793995 37.55661948421039,73.43232023110613 36.94962531258352,72.82409152947366 36.477518734754995,72.12897227413487 35.66819317289628,71.69452233921038 34.926311407471076,71.34696216956945 34.1844296422787,70.99940180289559 33.37510408018716,70.73873139848001 32.63322231476195,70.56495106726652 31.75645295600407,70.47806088341167 30.947127393912524,70.39117068675114 30.07035803515464,70.39117068675114 29.261032473295927,70.21739025699208 28.58659450453706,69.69604867201997 27.979600332910195,69.17470664391294 27.23771856818348,68.82714504527394 26.360949209192768,68.47958324977662 25.484179850202054,68.47958324977662 24.67485428834334,68.91403546353104 23.865528726251796,69.17470664391294 23.12364696105942,69.60915836517233 22.314321398967877,70.04360977798933 21.504995836876333,70.47806088341167 20.69567027501762,70.99940180289559 19.886344713158906,71.34696216956945 19.07701915106736,71.60763231525198 18.200249792076647,71.78141235077055 17.458368026651442,72.21586222428596 16.783930058591068,72.73720166558633 15.974604496499524,73.34543045336613 15.165278934175149,73.69298948982032 14.423397169215605,74.21432767488295 13.54662781022489,74.3012173291645 12.872189841931686,73.7798792180838 12.467527060769498,72.99787122022826 11.927976686274633,72.21586222428596 11.927976686274633,71.4338522303733 12.467527060769498,70.65184123913059 12.872189841931686,70.04360977798933 12.534970857901499,69.17470664391294 12.534970857901499,68.30580227775499 12.467527060769498,67.43689667998115 13.074521232396364,66.74177131487522 13.81640299782157,66.2204267734196 14.490840965881944,65.61219091468956 15.09783513750881,65.00395445234608 15.569941715337336,64.22193525655894 16.176935886964202,63.613697414519265 16.918817652156577,63.092350212391466 17.66069941711612,62.74478516459931 18.200249792076647,62.136545856599696 18.807243963470683,61.441414479748346 19.34679433843121,60.74628231435781 19.953788509825245,60.13804102281574 20.56078268121928,59.61669086414622 21.167776852846146,59.00844845181564 21.90965861803852,58.40020543540595 22.651540382998064,57.878853798494674 23.39342214819044,57.70506982086226 24.202747710514814,57.96574576897547 24.47252289787866,58.83466479444178 23.932972523383796,59.703582588233985 23.52830974222161,60.398715935996734 23.32597835175693,61.26763151213527 23.39342214819044,62.136545856599696 23.730641132453457,63.00545896880794 24.270191507413983,63.613697414519265 25.079517069272697,64.1350441732211 26.02373022516258,64.39571738644736 26.833055787021294,63.961261969583575 27.5749375524465,63.52680624491768 28.114487926941365,62.831676444853656 28.451706910971552,61.96276308607776 28.384263114305213,61.180740009993315 27.979600332910195,60.398715935996734 27.5074937553145,59.790474299748894 26.765611990354955,59.35601561842486 26.02373022516258,59.00844845181564 25.214404663071036,58.66088108776603 24.944629475474358,57.79196181579027 24.135303913615644,57.70506982086226 23.32597835175693,57.878853798494674 22.584096586564556,58.22642160585383 21.84221482113935,58.66088108776603 21.167776852846146,59.35601561842486 20.49333888455294,59.87736599892378 19.886344713158906,60.485607548907865 19.34679433843121,61.180740009993315 18.807243963470683,61.87587168236496 18.335137385874987,62.571002566837706 17.66069941711612,63.17924144369317 16.918817652156577,63.70058857178083 16.176935886964202,64.1350441732211 15.704829308902845,64.91706348006846 15.165278934175149,65.52530002855929 14.558284763013944,66.0466451610555 13.883846794487908,66.65488058864139 13.344296419993043,67.26311541278847 12.534970857901499,67.61067789798835 11.523313905112445,67.69756848865654 10.646544546587393,67.69756848865654 9.769775187363848,67.35000605252571 9.5,68.13202125695534 9.70233139093034,69.08781626261771 10.309325562324375,69.86982924985932 10.713988343020901,70.56495106726652 11.186094921082258,71.34696216956945 11.658201498677954,72.12897227413487 12.130308076739311,72.91098138090456 12.669858451467007,73.60609974933323 13.141965029528365,74.38810697116423 14.018734388053417,74.47499660099857 14.693172356812283,73.95365863793995 15.435054121771827,73.43232023110613 16.109492090297863,72.99787122022826 16.783930058591068,72.56342190102441 17.458368026651442,72.21586222428596 18.13280599541031,71.69452233921038 19.00957535393536,71.26007209648378 19.886344713158906,71.17318201082526 19.886344713158906,71.17318201082526" stroke="#4DD2FF" stroke-linecap="round" stroke-linejoin="round" stroke-width="0.5"><title>2022-07-04 3.14km</title><desc>356725527</desc></polyline></svg>