<?xml version="1.0" encoding="utf-8" ?>
<svg baseProfile="full" height="130mm" version="1.1" viewBox="0,0,100,130" width="100mm" xmlns="http://www.w3.org/2000/svg" xmlns:ev="http://www.w3.org/2001/xml-events" xmlns:xlink="http://www.w3.org/1999/xlink"><defs /><rect fill="#FAF9F5" height="130" width="100" x="0" y="0" /><text fill="#5A5A5A" style="font-size:6px; font-family:Arial; font-weight:bold;color:#0ed45e;" x="5" y="10">MY TRACKS</text><text fill="#5A5A5A" style="font-size:4px; font-family:Arial" x="5" y="121">Runner</text><text fill="#5A5A5A" style="font-size:6px; font-family:Arial" x="2" y="128">蓝皮书</text><text fill="#5A5A5A" style="font-size:4px; font-family:Arial" x="25" y="121">WORKOUTS INFO</text><text fill="#5A5A5A" style="font-size:3px; font-family:Arial" x="25" y="125">Type: Run</text><text fill="#5A5A5A" style="font-size:3px; font-family:Arial" x="22" y="129">Date: 2022-06-01</text><text fill="#5A5A5A" style="font-size:3px; font-family:Arial" x="47" y="125">Distance: 6.01 km</text><text fill="#5A5A5A" style="font-size:3px; font-family:Arial" x="47" y="129">Duration: 01:02:40</text><text fill="#5A5A5A" style="font-size:3px; font-family:Arial" x="75" y="125">Pace: 10:25/km</text><text fill="#5A5A5A" style="font-size:3px; font-family:Arial" x="75" y="129">Elevation: 0m</text><polyline fill="none" points="9.771084337262437,45.901818668906344 9.60843373509124,47.15917752782116 9.771084337262437,48.48638617544202 9.825301204808056,49.883444046776276 9.662650602404028,51.28049795658444 10.042168674757704,52.467990665114485 10.259036144474521,53.79518501088023 10.692771084140986,55.05252372464747 11.18072289135307,56.30985922977561 11.560240963939577,57.63704322595731 12.319277108414099,58.614965988032054 12.807228915626183,59.94214377476601 13.295180722838268,61.2693179861526 14.108433734858409,62.386935601825826 14.86746987956576,63.50455068220617 15.246987951919436,63.99350648265681 16.168674698797986,65.60007212482742 16.81927710864693,66.71767991641536 17.524096385343,66.43827820601291 18.662650602404028,65.80962377873948 19.638554216828197,66.71767991641536 20.614457831252366,67.62573438015534 21.3192771084141,68.67348745136405 22.13253012020141,69.79108827144955 23.162650602404028,70.62928722272045 24.518072289181873,70.90868655615486 25.76506024110131,71.32778525934555 27.120481927646324,71.81673329588375 28.36746987956576,72.30568084705737 29.614457831252366,72.93432698579272 30.807228915626183,73.35342396600754 31.837349397595972,73.56297232231009 33.03012048196979,73.00417650735471 34.222891566110775,72.23583122671698 37.692771084140986,73.07402601875947 38.885542168747634,73.63282175472705 39.96987951803021,74.33131553325802 41.325301204808056,74.75041132513434 42.62650602427311,75.16950676057604 43.8192771084141,75.728300119692 44.74096385529265,76.63633797696093 45.5,77.68407188655692 46.15060240961611,78.87150095708785 46.53012048196979,80.1287756774982 47.12650602404028,81.31619885648252 48.481927710585296,81.59559212980093 49.72891566273756,81.59559212980093 50.54216867452487,82.71316363848746 51.192771084140986,83.90058058896102 51.84337349398993,85.08799467803328 52.00602409639396,86.34525353545905 52.114457831252366,87.67235662674648 52.00602409639396,88.99945614353055 52.06024096393958,90.39639914201689 52.00602409639396,91.72349132178351 52.277108433656394,93.19027325697243 52.222891566110775,94.44751144031761 52.92771084327251,95.00628293634509 54.174698795191944,94.93643653410254 55.6385542168282,94.93643653410254 56.99397590337321,94.86659012196469 58.29518072260544,94.7967436996696 59.86746987933293,95.00628293634509 61.168674698797986,95.00628293634509 62.52409638557583,94.51735791194369 62.46987951779738,93.12042659707367 62.52409638557583,91.65364445422892 62.63253012020141,90.32655208613141 63.120481927646324,89.20899784608628 63.28313253005035,87.88189889347996 62.84939759038389,86.48494876603945 62.3614457831718,85.15784247638658 63.66265060240403,84.73875553690596 64.9096385538578,84.73875553690596 66.31927710818127,84.73875553690596 67.72891566250473,84.8086033850268 69.1385542168282,84.87845122322324 70.16867469856516,85.57692905934528 70.11445783125237,87.04372929219971 69.68072289112024,88.30098315945361 69.51807228894904,89.62808098306414 69.19277108414099,90.95517523225863 69.24698795145378,92.212419118674 69.57228915649466,93.53950640745461 70.16867469856516,94.7967436996696 71.57831325312145,94.7967436996696 72.93373493943363,94.7967436996696 74.23493975889869,94.65705082556815 75.53614457836375,94.65705082556815 76.83734939759597,94.58720437379088 78.19277108414099,94.58720437379088 79.54819277115166,94.58720437379088 80.63253012043424,94.02843240223592 80.63253012043424,92.70134643052006 80.52409638557583,91.37425688424264 80.57831325288862,89.97731665836181 80.52409638557583,88.65021977535798 80.57831325288862,87.25327182628098 80.68674698774703,85.99601528578205 81.12048192787915,84.59905981150223 82.0963855420705,83.48149258032208 83.07228915649466,82.57346733857412 84.15662650601007,81.66544042326859 85.24096385529265,80.75741183475475 86.10843373462558,79.7096844604821 86.86746987956576,78.52225740987342 87.40963855409063,77.26497858998482 87.73493975913152,75.93784746606252 88.00602409639396,74.54086347369594 88.06024096393958,73.21372501217411 87.8433734937571,71.81673329588375 87.40963855409063,70.55943736439804 86.92168674687855,69.30213822470978 86.32530120480806,68.04483587612049 86.86746987956576,67.83528517276864 87.89759036130272,68.74333757703425 88.71084337332286,69.79108827144955 89.19879518053494,71.18808573140996 89.41566265048459,72.58507923022262 89.524096385343,73.98206876780023 89.41566265048459,75.37905434449203 88.98192771081813,76.63633797696093 88.49397590360604,77.89361840105266 88.3855421685148,79.15089561673813 89.30722891562618,80.05892716615926 90.5,80.61771498000599 89.25301204808056,80.26847267063567 88.22289156611077,79.36044150748057 88.49397590360604,78.03331602786784 88.92771084327251,76.63633797696093 89.14457831322215,75.30920515989419 89.25301204808056,73.84236999225686 89.14457831322215,72.4453800583724 88.92771084327251,71.0483861635148 88.43975903606042,69.79108827144955 87.89759036130272,68.60363731606049 86.75903614447452,67.90513541724067 85.78313252981752,66.99708146817284 84.8614457831718,66.08902584560565 83.77710843342356,65.3905203815084 82.6385542168282,64.7618646172341 81.44578313222155,64.20305882013054 80.25301204808056,63.644252389116446 78.95180722884834,63.294998047786066 77.65060240961611,62.73619058672921 76.40361445769668,62.456786618568 75.04819277115166,62.17738249208196 73.80120481923223,61.82812711101724 72.33734939759597,61.54872262766003 70.65662650577724,61.4788714821334 69.08433734928258,61.2693179861526 67.72891566250473,61.2693179861526 66.31927710818127,61.2693179861526 64.9096385538578,61.40902032679878 63.60843373462558,61.4788714821334 62.3614457831718,61.54872262766003 60.95180722884834,61.61857376334956 59.54216867452487,61.897978206921834 58.13253012043424,62.03768036933616 56.8855421685148,62.386935601825826 55.53012048173696,62.59648862242466 54.28313253005035,63.01559439644916 53.036144578363746,63.57440154039068 51.73493975889869,63.644252389116446 50.433734939666465,63.85380487493239 49.18674698774703,64.27290957936202 47.831325301202014,64.4126110682264 46.53012048196979,64.62216322749737 45.120481927646324,64.62216322749737 43.8192771084141,64.69201392732793 42.51807228894904,64.90156596750603 41.21686746994965,65.11111791880103 39.96987951803021,65.46037097251974 38.722891566343606,65.80962377873948 37.909638554090634,66.64782950357767 37.09638554207049,67.76543491848861 35.903614457696676,68.04483587612049 34.60240963846445,67.55588409636403 33.301204819232225,67.4860338025901 31.94578313268721,67.4860338025901 31.07831325288862,66.5779790811066 30.26506024110131,65.46037097251974 29.018072289181873,64.7618646172341 28.042168674524873,64.27290957936202 27.337349397595972,63.155296241893666 26.361445783171803,62.17738249208196 25.006024096161127,62.456786618568 23.650602409616113,62.73619058672921 22.403614457696676,63.22514714987483 21.26506024086848,63.85380487493239 20.072289156727493,64.48246179777198 19.042168674524873,64.27290957936202 18.012048192787915,63.43469981398084 17.144578313454986,62.456786618568 16.331325301202014,61.33916916148155 15.626506023807451,60.22154916886939 14.975903614657,59.03407514910214 14.433734939666465,57.84659826691495 13.891566265141591,56.589266683819005 13.457831325009465,55.331931892054854 13.07831325312145,54.00474168607616 12.753012048080564,52.6775479047792 12.427710843272507,51.35035054796026 12.265060240868479,49.95329683626187 12.10240963846445,48.55623916303739 11.993975903606042,47.15917752782116 12.048192771151662,45.762111930846004 12.15662650601007,45.901818668906344 12.15662650601007,47.22903070360189 12.15662650601007,48.62609214070835 12.373493976192549,49.95329683626187 12.536144578363746,51.210645355284214 12.698795180534944,52.60769550150144 13.024096385575831,53.86503724587965 13.512048192787915,55.262079865060514 14.0,56.589266683819005 13.94578313245438,56.589266683819005 13.457831325009465,55.331931892054854 13.024096385575831,54.07459389124415 12.753012048080564,52.74740029807435 12.427710843272507,51.35035054796026 12.21084337355569,50.0930023859255 12.048192771151662,48.76579806650989 11.939759036060423,47.438590171863325 12.048192771151662,45.97167202294804 12.21084337355569,45.97167202294804 12.15662650601007,47.368737025681185 12.319277108414099,48.62609214070835 12.373493976192549,50.02314961599768 12.481927710818127,51.35035054796026 12.753012048080564,52.60769550150144 13.13253012043424,53.93488947089645 13.512048192787915,55.262079865060514 14.0,56.519414834998315 14.487951807212085,57.84659826691495 15.030120481736958,59.03407514910214 15.680722891585901,60.22154916886939 16.385542168747634,61.2693179861526 17.198795180534944,62.24723353871377 18.44578313245438,62.386935601825826 17.144578313454986,62.386935601825826 16.71084337355569,61.82812711101724 15.951807229081169,60.640656963252695 15.192771084140986,59.45318395338836 14.596385542070493,58.19585647044005 14.0,57.00837756789406 13.512048192787915,55.68119187821867 13.07831325312145,54.28415044772555 12.698795180534944,52.956957418995444 12.427710843272507,51.69961335702101 12.10240963846445,50.30256063581328 12.048192771151662,48.905503952963045 11.993975903606042,47.57829643445439 12.048192771151662,46.251085340452846 11.993975903606042,44.92387067095842 12.10240963846445,46.251085340452846 12.21084337355569,47.6481495508051 12.319277108414099,48.97535688109929 12.265060240868479,50.30256063581328 12.427710843272507,51.629760814947076 12.861445783171803,52.956957418995444 13.186746987747028,54.35400261316681 13.674698795191944,55.68119187821867 14.162650602404028,57.00837756789406 13.512048192787915,55.7510438458703 13.07831325312145,54.56355905055534 12.753012048080564,53.236366774566704 12.536144578363746,51.909170923550846 12.21084337355569,50.512118796410505 12.048192771151662,49.18491560628172 11.993975903606042,47.78785575396614 11.939759036060423,46.46064522457891 11.993975903606042,45.133431119757006" stroke="#4DD2FF" stroke-linecap="round" stroke-linejoin="round" stroke-width="0.5"><title>2022-06-01 6.01km</title><desc>354785857</desc></polyline></svg>