<?xml version="1.0" encoding="utf-8" ?>
<svg baseProfile="full" height="130mm" version="1.1" viewBox="0,0,100,130" width="100mm" xmlns="http://www.w3.org/2000/svg" xmlns:ev="http://www.w3.org/2001/xml-events" xmlns:xlink="http://www.w3.org/1999/xlink"><defs /><rect fill="#FAF9F5" height="130" width="100" x="0" y="0" /><text fill="#5A5A5A" style="font-size:6px; font-family:Arial; font-weight:bold;color:#0ed45e;" x="5" y="10">MY TRACKS</text><text fill="#5A5A5A" style="font-size:4px; font-family:Arial" x="5" y="121">Runner</text><text fill="#5A5A5A" style="font-size:6px; font-family:Arial" x="2" y="128">蓝皮书</text><text fill="#5A5A5A" style="font-size:4px; font-family:Arial" x="25" y="121">WORKOUTS INFO</text><text fill="#5A5A5A" style="font-size:3px; font-family:Arial" x="25" y="125">Type: Run</text><text fill="#5A5A5A" style="font-size:3px; font-family:Arial" x="22" y="129">Date: 2022-04-24</text><text fill="#5A5A5A" style="font-size:3px; font-family:Arial" x="47" y="125">Distance: 4.00 km</text><text fill="#5A5A5A" style="font-size:3px; font-family:Arial" x="47" y="129">Duration: 27:20min</text><text fill="#5A5A5A" style="font-size:3px; font-family:Arial" x="75" y="125">Pace: 6:49/km</text><text fill="#5A5A5A" style="font-size:3px; font-family:Arial" x="75" y="129">Elevation: 0m</text><polyline fill="none" points="47.274346793070436,57.15222702012397 47.274346793070436,57.15222702012397 48.236342042451724,56.98697419289965 49.134204275207594,56.739094864809886 49.967933491570875,56.98697419289965 50.737529690843076,56.82172131934203 51.44299287372269,56.49121543124784 52.27672209008597,56.739094864809886 52.91805225634016,56.40858892991673 53.75178147223778,56.07808280765312 54.71377672161907,56.40858892991673 55.35510688810609,55.830203092773445 56.25296912086196,55.66494989109924 57.15083135361783,55.66494989109924 57.856294536497444,55.33444334717933 58.690023752860725,55.08656331594102 59.7161520186346,55.33444334717933 60.61401425139047,55.25181668170262 61.44774346752092,55.08656331594102 62.153206650400534,55.33444334717933 62.79453681665473,54.921309903496876 63.62826603301801,55.003936615539715 64.5902612823993,55.003936615539715 65.42399049829692,55.003936615539715 66.12945368140936,54.921309903496876 67.02731591416523,54.921309903496876 67.86104513052851,54.921309903496876 68.69477434665896,55.003936615539715 69.65676959604025,54.921309903496876 70.55463182879612,55.16919000481721 71.38836104469374,55.417070000839885 72.22209026128985,55.417070000839885 73.11995249381289,55.58232327265432 74.01781472656876,55.417070000839885 74.72327790944837,55.66494989109924 75.42874109232798,55.91282967617735 76.26247030869126,55.9954562477069 77.09619952458888,56.24333589209709 77.99406175734475,56.57384192099562 78.76365795708261,56.24333589209709 79.14845605683513,56.98697419289965 79.91805225657299,56.82172131934203 80.68764845584519,56.98697419289965 81.58551068860106,57.40010617248481 82.22684085485525,57.97849045146722 83.0605700709857,57.97849045146722 83.76603325386532,58.47424794820836 84.53562945360318,59.052631161292084 85.24109263624996,59.46576167619787 85.94655581912957,60.04414390522288 86.58788598538376,60.539899644849356 87.2933491684962,61.035654962586705 87.80641330126673,61.77928714826703 88.2553444178775,62.44029273930937 88.76840855064802,63.01867201633286 89.15320665063336,63.679676201718394 89.53800475038588,64.67118107370334 89.98693586699665,65.4148086211062 90.11520190001465,66.07581008848501 90.3717339662835,66.902060868626 90.5,67.64568556949962 90.3717339662835,68.47193412401248 90.3717339662835,69.21555682149483 90.30760094965808,70.04180315037956 90.17933491664007,70.7854238448781 89.85866983328015,71.52904359059175 89.40973871713504,72.27266238752054 89.40973871713504,73.01628023578087 89.08907363400795,73.75989713513991 88.89667458413169,74.75138485856587 88.44774346775375,75.49499954393832 87.9346793347504,76.07336586562451 87.2933491684962,76.48648431553738 86.90855106874369,77.23009678721428 86.2672209024895,77.7258379078703 85.62589073600248,78.22157860692823 84.98456056998111,78.63469553424511 84.27909738686867,79.04781216854462 83.44536817050539,79.37830526498146 82.67577197100036,79.70879817439709 82.034441804979,80.28716031444492 81.45724465535022,80.7828988347901 81.13657957222313,81.60912876512157 80.94418052234687,82.4353575243149 80.94418052234687,83.26158511207905 81.00831353897229,84.17043410585029 81.13657957222313,84.9140367739601 80.55938242259435,85.74026084807701 80.62351543921977,86.56648375076475 80.8159144888632,87.31008336209925 80.49524940596893,88.05368202424143 80.75178147247061,88.87990164768416 80.68764845584519,89.87136364949401 80.49524940596893,90.69758069620002 80.49524940596893,91.52379657147685 80.55938242259435,92.35001127584837 80.55938242259435,93.1762248086161 79.72565320623107,93.25884609745117 78.95605700695887,93.34146737499395 78.12232779082842,93.25884609745117 77.22446555807255,93.1762248086161 76.32660332508385,93.34146737499395 75.42874109232798,93.42408864031313 74.59501187619753,93.01098219573032 73.69714964344166,93.1762248086161 72.86342042731121,93.01098219573032 71.90142517792992,92.84573953622021 71.13182897819206,92.84573953622021 70.29809976206161,93.01098219573032 69.65676959604025,92.68049682938727 68.9513064129278,92.92836087185424 69.20783847942948,92.10214698739583 69.33610451268032,91.44117503683083 69.52850356278941,90.44971570506459 69.46437054616399,89.70612009958131 69.46437054616399,88.87990164768416 69.07957244641148,88.13630403939169 69.20783847942948,87.31008336209925 68.63064132980071,86.73172819096362 69.01543942978606,86.15337244590046 69.33610451268032,85.24452654406196 69.33610451268032,84.41830176737858 69.40023752930574,83.67469846695894 69.65676959604025,82.93109421763802 69.592636579182,82.18748901959043 68.88717339653522,81.69175169389928 67.98931116377935,81.69175169389928 67.21971496404149,81.52650582481874 66.32185273128562,81.77437461080262 65.42399049829692,81.77437461080262 64.5902612823993,81.77437461080262 63.6923990494106,81.77437461080262 62.85866983351298,81.85699751600623 62.089073634007946,82.10486616112757 61.255344417877495,81.93962040939368 60.485748218372464,82.02224329090677 59.65201900200918,82.35273470118409 59.39548693574034,83.0963396881707 59.587885985616595,83.83994372660527 59.65201900200918,84.66616932337638 59.78028503526002,85.40977135900175 59.78028503526002,86.15337244590046 59.65201900200918,86.9795947628445 59.78028503526002,87.80581590894144 59.523752968758345,88.6320358836092 59.39548693574034,89.37563285930082 59.523752968758345,90.11922888667323 59.459619952132925,90.94544558168855 59.587885985616595,91.77166110585677 59.97268408536911,92.51525407592999 59.84441805211827,93.25884609745117 59.39548693574034,93.91981598699931 58.49762470298447,93.83719479170395 57.59976246999577,93.75457358488347 56.830166270490736,93.83719479170395 56.060570070985705,93.67195236636326 55.162707838229835,93.67195236636326 54.39311163849197,93.67195236636326 53.559382422594354,93.50670989399077 52.72565320623107,93.58933113596868 52.14845605683513,92.92836087185424 51.31472684047185,93.01098219573032 50.48099762457423,93.25884609745117 49.77553444146179,92.7631181886536 49.005938241956756,93.1762248086161 48.300475059309974,93.25884609745117 47.97980997595005,92.59787545859581 48.36460807570256,91.93690406990936 48.4928741089534,91.11068878031801 48.55700712557882,90.20185060874792 48.62114014243707,89.2930110199959 49.005938241956756,88.6320358836092 49.58313539158553,88.05368202424143 49.7114014250692,87.22746122983517 49.77553444146179,86.48386151326122 49.32660332531668,85.74026084807701 49.64726840821095,84.9140367739601 49.39073634170927,84.08781152870506 49.198337292065844,83.34420780651271 49.198337292065844,82.6006031355937 48.74940617545508,81.85699751600623 48.300475059309974,81.19601394655183 47.91567695955746,80.36978343053488 47.274346793070436,79.70879817439709 46.69714964320883,79.13043546007248 46.31235154368915,78.46944879856892 45.606888360809535,78.05633175431285 44.83729216107167,78.13895518652862 44.13182897819206,78.3868254130357 43.875296911923215,77.56059091462521 43.55463182879612,76.89960247243289 43.23396674543619,76.07336586562451 43.105700712418184,75.32975191809237 42.977434678934515,74.50351308571408 42.52850356255658,73.67727308219764 42.143705462804064,73.01628023578087 41.75890736305155,72.27266238752054 41.245843230048195,71.69429229426896 40.66864608041942,70.95067275926704 39.89904988091439,70.62017488363199 39.38598574814387,70.04180315037956 38.616389548406005,69.62868013227126 37.97505938215181,69.21555682149483 37.07719714939594,68.88505796185927 36.37173396651633,68.71980846178485 35.6021377670113,68.55455891485326 34.83254156727344,68.14143484266242 34.12707838462666,68.05880999291549 33.357482185121626,67.72831047727959 32.39548693597317,67.72831047727959 31.561757719377056,67.56306064949604 31.17695961962454,66.902060868626 30.53562945360318,66.32368544541532 30.086698336992413,65.6626842590631 29.3812351541128,65.24955813674023 28.54750593798235,65.24955813674023 27.77790973847732,66.15843521914212 27.200712588848546,66.902060868626 26.431116389343515,67.31518581928685 25.789786223322153,67.8109353738837 25.08432304020971,68.30668450641679 24.25059382384643,68.80243321758462 23.673396674217656,69.46343084302498 22.903800474945456,69.62868013227126 22.262470308458433,70.04180315037956 21.68527315882966,70.45492587558692 20.979809975950047,70.7854238448781 20.274346793303266,71.19854604289867 19.633016626816243,71.69429229426896 18.799287410685793,71.85954095091438 18.09382422757335,72.35528663994046 17.19596199481748,72.35528663994046 16.554631828563288,71.77691662852885 15.977434678934515,71.28117044753162 15.46437054593116,70.53755038534291 14.887173396302387,70.04180315037956 14.56650831317529,69.29818150697974 14.181710213422775,68.55455891485326 13.668646080652252,67.89356025872985 13.283847980666906,67.14993587415665 12.83491686428897,66.32368544541532 12.450118764769286,65.58005905803293 12.00118764815852,64.91905702842632 11.552256531780586,64.25805424869759 11.039192398544401,63.514425225614104 10.590261282632127,62.8534208527999 10.013064132770523,62.109790037735365 9.628266033018008,61.36615827336209 9.5,60.37464777834248 9.948931116145104,59.71363984461641 10.013064132770523,58.7221265383414 10.461995249381289,58.061116730154026 11.10332541540265,57.40010617248481 11.808788598282263,56.90434776205802 12.321852731285617,56.325962416944094 13.091448930790648,56.16070935578318 13.79691211390309,55.66494989109924 14.438242280157283,55.08656331594102 15.079572446178645,54.59080293745501 15.656769595807418,54.09504213737091 16.298099762527272,53.599280915397685 16.747030878672376,53.020892290223856 17.580760094802827,52.52513015444856 18.22209026105702,52.02936759730801 18.863420427544042,51.53360461833654 19.568883610423654,51.120468480105046 20.146080760052428,50.624704727728385 20.85154394269921,50.04631315055303 21.55700712581165,49.7984308701125 22.262470308458433,49.30266599304741 22.839667458320037,48.72427310363855 23.48099762457423,48.393762623600196 24.12232779082842,47.980624259391334 24.827790973708034,47.484857836097945 25.404988123336807,46.98909099091543 26.11045130621642,46.57595163118094 26.75178147247061,46.08018401294248 27.521377671975642,46.41069580515614 26.94418052211404,46.90646314242622 26.366983372718096,47.40223005792359 25.661520189838484,47.81536883179797 24.95605700672604,48.393762623600196 24.18646080745384,48.72427310363855 23.48099762457423,49.30266599304741 22.839667458320037,49.7984308701125 22.070071258582175,50.211567945370916 21.42874109209515,50.789959358633496 20.72327790944837,51.120468480105046 20.01781472656876,51.94674046331784 19.248218526830897,52.35987601586385 18.671021377434954,52.85563829203602 17.96555819432251,53.35140014649369 17.26009501167573,53.68190781516023 16.618764845421538,54.17766896658577 16.875296911923215,54.921309903496876 16.875296911923215,55.74757649784442 16.169833728810772,56.16070935578318 15.59263657941483,56.65646839881083 14.887173396302387,57.23485341574997 14.309976246906444,57.81323785893619 13.73277909704484,58.39162172796205 13.283847980666906,59.052631161292084 12.96318289777264,59.79626587743405 12.96318289777264,60.62252556026215 13.219714964274317,61.36615827336209 13.283847980666906,62.192415730736684 13.73277909704484,62.936046440619975 14.181710213422775,63.514425225614104 14.63064133003354,64.1754288484808 15.015439429553226,64.91905702842632 15.52850356278941,65.6626842590631 16.36223277868703,65.58005905803293 16.875296911923215,65.0016823229962 17.452494061551988,64.25805424869759 18.02969121118076,63.762301672191825 18.606888360809535,63.18392313318327 19.248218526830897,62.68816964281723 19.88954869331792,62.109790037735365 20.595011876197532,61.61403563368367 21.108076009200886,61.035654962586705 21.74940617568791,60.62252556026215 22.262470308458433,59.961517907853704 22.839667458320037,59.30050950549776 23.35273159132339,58.7221265383414 23.929928740952164,57.97849045146722 24.571258906973526,57.56535888230428 25.27672209008597,57.0696006125072 25.91805225634016,56.739094864809886 26.81591448909603,56.40858892991673 27.521377671975642,56.16070935578318 28.355106888338923,56.07808280765312 29.252969121094793,55.91282967617735 29.958432303974405,56.24333589209709 30.856294536497444,56.40858892991673 31.690023752860725,56.82172131934203 32.65201900200918,56.82172131934203 33.421615201747045,57.15222702012397 34.319477434502915,57.23485341574997 35.153206650633365,57.31747980002547 36.115201900014654,57.56535888230428 36.884798099519685,57.40010617248481 37.782660332275555,57.40010617248481 38.488123515155166,57.482732533128 39.32185273128562,57.64798521978082 40.15558194741607,57.730611545208376 40.98931116331369,57.81323785893619 41.75890736305155,57.89586416102247 42.52850356255658,58.22636925266124 43.29809976229444,57.97849045146722 43.29809976229444,57.97849045146722" stroke="#4DD2FF" stroke-linecap="round" stroke-linejoin="round" stroke-width="0.5"><title>2022-04-24 4.00km</title><desc>352476152</desc></polyline></svg>