<?xml version="1.0" encoding="utf-8" ?>
<svg baseProfile="full" height="130mm" version="1.1" viewBox="0,0,100,130" width="100mm" xmlns="http://www.w3.org/2000/svg" xmlns:ev="http://www.w3.org/2001/xml-events" xmlns:xlink="http://www.w3.org/1999/xlink"><defs /><rect fill="#FAF9F5" height="130" width="100" x="0" y="0" /><text fill="#5A5A5A" style="font-size:6px; font-family:Arial; font-weight:bold;color:#0ed45e;" x="5" y="10">MY TRACKS</text><text fill="#5A5A5A" style="font-size:4px; font-family:Arial" x="5" y="121">Runner</text><text fill="#5A5A5A" style="font-size:6px; font-family:Arial" x="2" y="128">蓝皮书</text><text fill="#5A5A5A" style="font-size:4px; font-family:Arial" x="25" y="121">WORKOUTS INFO</text><text fill="#5A5A5A" style="font-size:3px; font-family:Arial" x="25" y="125">Type: Run</text><text fill="#5A5A5A" style="font-size:3px; font-family:Arial" x="22" y="129">Date: 2022-04-17</text><text fill="#5A5A5A" style="font-size:3px; font-family:Arial" x="47" y="125">Distance: 4.37 km</text><text fill="#5A5A5A" style="font-size:3px; font-family:Arial" x="47" y="129">Duration: 43:22min</text><text fill="#5A5A5A" style="font-size:3px; font-family:Arial" x="75" y="125">Pace: 9:56/km</text><text fill="#5A5A5A" style="font-size:3px; font-family:Arial" x="75" y="129">Elevation: 0m</text><polyline fill="none" points="25.958635703660548,52.73395552835427 27.25181422336027,52.05236562457867 28.427431059302762,50.992112934356555 29.779390420764685,50.08332323934883 30.073294629808515,50.38625330949435 30.955007256940007,51.7494364992599 31.248911465751007,53.11261620995356 31.190130623988807,54.6272562527447 31.190130623988807,56.14189200056717 31.190130623988807,57.807986362604424 31.8367198840715,58.64103159477236 33.24746008706279,58.943956811504904 34.77576197381131,58.71676291525364 36.245283018564805,58.86822552367812 37.65602322202176,59.24688185675768 38.89042089972645,60.07992484472925 40.18359941942617,60.837235524784774 41.594339622650295,61.21589046204463 43.12264150916599,60.76150450500427 44.53338171262294,61.36735236190725 46.12046444090083,61.443083295598626 47.648766328115016,61.59454513102537 49.23584905662574,61.897468672832474 50.88171262689866,61.74600692355307 52.292452830122784,61.518814218754414 53.644412191584706,61.140159496048 55.17271407833323,60.912966533680446 56.64223512331955,60.610042433370836 58.17053700983524,60.38284924556501 59.698838896816596,60.07992484472925 61.22714078356512,59.85273143136874 62.75544267031364,59.77700027223909 64.22496371529996,59.77700027223909 65.75326560204849,59.77700027223909 67.34034833102487,59.85273143136874 68.80986937577836,60.00419371778844 70.33817126275972,59.77700027223909 71.74891146575101,59.85273143136874 73.15965166897513,60.30711816158146 74.68795355595648,60.68577347462997 76.15747460070997,61.06442851934116 77.4506531204097,61.67027603241149 78.86139332363382,62.12466121657053 80.21335268509574,62.503315241250675 81.68287372984923,63.033430424984545 82.91727140778676,63.79073691763915 84.21044992725365,64.47231184277916 85.32728592166677,65.30534668179462 86.38534107385203,66.3655709613231 87.44339622650295,67.50152321124915 88.50145137868822,68.56174313172232 89.38316400581971,69.6976907113567 89.73584905639291,71.21228372660698 90.02975326543674,72.72687244735425 89.85341074015014,74.0899986239383 89.73584905639291,75.6803081005346 89.26560232229531,77.11915545200463 88.73657474596985,78.4065419024555 89.08925979677588,79.54246854688972 90.5,80.07256682094885 89.26560232229531,79.46674017916666 89.26560232229531,78.17935628379928 89.79462989838794,76.74051178788068 89.97097242390737,75.22593444766244 90.26487663271837,73.78708199644461 90.38243831624277,72.4239550466882 90.4412191582378,70.98509504797403 90.08853410743177,69.54623117373558 89.26560232229531,68.18309340171982 88.26632801163942,67.19860284740571 87.2082728589885,66.06264995306265 87.2082728589885,67.42579313641181 87.91364296083339,68.63747304567369 88.38388969516382,70.00060965807643 88.61901306221262,71.43947230861522 88.67779390397482,72.95406038488727 88.50145137868822,74.46864416694734 88.26632801163942,76.05895251611946 87.85486211907119,77.42207019007765 87.2082728589885,78.63372742454521 86.326560231857,79.76965358579764 85.38606676342897,80.82984915707493 84.32801161077805,81.73858654330252 83.03483309131116,82.57159445603611 81.80043541360646,83.17741757648764 80.80116110271774,84.38906175654847 80.44847605214454,85.75215817394201 80.38969521038234,87.26670566952089 80.62481857766397,88.70552181301173 80.44847605214454,90.14433408109471 79.86066763405688,91.50741581316106 79.86066763405688,93.02194699156098 79.97822931758128,94.53647387609817 79.33164005796425,95.3694618322188 77.86211901297793,95.29373570816824 76.45137880952097,94.99083110428182 74.98185776476748,94.76365253841504 73.45355587778613,94.46074763376964 72.04281567502767,94.15784255741164 70.57329462980852,94.2335688425228 69.39767779363319,93.6277582605835 69.39767779363319,92.18895537452772 69.33889695210382,90.59869504481321 69.33889695210382,89.08415699604666 69.51523947762325,87.64534187252866 69.69158200290985,86.13079545053188 69.51523947762325,84.61624473403208 68.16328011616133,84.5405170856975 66.69375907094218,84.31333407579223 65.28301886771806,84.16187868197449 63.872278664726764,84.31333407579223 62.34397677774541,84.31333407579223 61.05079825804569,84.69197237194749 60.99201741674915,86.2065228735446 60.87445573275909,87.72106908092974 60.81567489122972,89.08415699604666 60.58055152371526,90.52296824456425 60.46298984042369,91.96177561738295 60.52177068195306,93.40057911520125 60.34542815666646,94.91510492609814 58.934687953442335,95.06655727128964 57.52394775021821,95.14228342758724 56.05442670523189,95.14228342758724 54.58490566024557,95.06655727128964 53.232946299016476,95.52091404836392 51.88098693755455,95.3694618322188 50.3526850505732,95.21800957317464 50.3526850505732,93.70348462072434 50.64658925984986,92.26468193897745 51.17561683594249,90.90160213940544 51.52830188674852,89.46279191103531 51.46952104498632,87.9482506417553 51.41074020322412,86.5094324584934 50.94049346889369,85.07061039994005 49.58853410743177,84.16187868197449 48.82438316382468,82.95023398683406 47.942670536926016,81.73858654330252 46.767053700983524,80.9813054954866 45.53265602327883,80.37547988421284 45.23875181400217,78.93664130376419 44.65094339614734,77.57352749462007 44.41582002886571,76.89196928573074 43.53410740196705,75.6803081005346 42.76995645859279,74.46864416694734 41.653120464412495,73.63562361826189 40.418722786707804,72.87833108316408 39.18432510877028,72.19676688365871 37.77358490554616,71.96957862365525 36.42162554431707,71.8181197301019 35.06966618262231,71.51520181412343 33.71770682116039,70.83363587548956 32.48330914368853,70.07633936777711 31.131349782226607,70.75790627294919 30.602322205901146,70.15206906705862 29.544267053483054,69.16758214158472 28.251088534016162,68.48601320729358 27.1342525400687,67.42579313641181 25.899854861898348,66.74422197957756 24.606676342431456,65.83545908465749 24.077648766338825,64.77523375261808 24.018867924343795,63.33635315095307 23.489840348018333,61.97319953155238 22.608127721352503,60.912966533680446 21.25616835989058,60.458580318896566 20.021770681953058,61.29162141744746 18.669811320491135,61.82173780363519 17.259071117732674,62.048930379445665 16.02467343956232,62.88196899765171 14.849056603619829,63.639275704859756 14.026124818483368,63.4120838054223 13.320754716871306,62.2003920431016 12.439042089972645,61.06442851934116 11.322206095559523,60.07992484472925 10.616835994180292,58.79249422473367 9.85268505080603,57.580791982705705 10.793178519466892,56.67201349779498 12.145137880695984,56.066160315065645 12.380261248210445,55.914696912281215 12.086357039166614,55.233111067384016 11.792452829889953,53.79420476098312 11.204644412035123,52.58249118033564 10.08780841785483,51.59797187242657 9.5,50.61345074954443 10.616835994180292,49.78039299749071 12.086357039166614,49.70466041000327 13.497097242157906,49.78039299749071 14.731494920095429,48.94733394595096 15.43686502194032,47.65987649303861 15.78955007228069,46.29668286629021 16.671262699412182,45.16068551922217 17.905660377349705,44.55481927993242 19.375181422336027,44.70628590421984 20.55079825827852,45.61508474795846 21.55007256893441,46.75108112837188 22.373004354070872,47.962807937699836 23.666182873770595,48.56867031136062 25.076923076761886,48.3414720017463 26.54644412174821,48.3414720017463 27.83962264144793,48.94733394595096 29.074020319152623,49.856125574035104 28.721335268346593,50.46198580006603 28.544992742827162,50.61345074954443" stroke="#4DD2FF" stroke-linecap="round" stroke-linejoin="round" stroke-width="0.5"><title>2022-04-17 4.37km</title><desc>352028116</desc></polyline></svg>