<?xml version="1.0" encoding="utf-8" ?>
<svg baseProfile="full" height="130mm" version="1.1" viewBox="0,0,100,130" width="100mm" xmlns="http://www.w3.org/2000/svg" xmlns:ev="http://www.w3.org/2001/xml-events" xmlns:xlink="http://www.w3.org/1999/xlink"><defs /><rect fill="#FAF9F5" height="130" width="100" x="0" y="0" /><text fill="#5A5A5A" style="font-size:6px; font-family:Arial; font-weight:bold;color:#0ed45e;" x="5" y="10">MY TRACKS</text><text fill="#5A5A5A" style="font-size:4px; font-family:Arial" x="5" y="121">Runner</text><text fill="#5A5A5A" style="font-size:6px; font-family:Arial" x="2" y="128">蓝皮书</text><text fill="#5A5A5A" style="font-size:4px; font-family:Arial" x="25" y="121">WORKOUTS INFO</text><text fill="#5A5A5A" style="font-size:3px; font-family:Arial" x="25" y="125">Type: Run</text><text fill="#5A5A5A" style="font-size:3px; font-family:Arial" x="22" y="129">Date: 2022-04-09</text><text fill="#5A5A5A" style="font-size:3px; font-family:Arial" x="47" y="125">Distance: 4.01 km</text><text fill="#5A5A5A" style="font-size:3px; font-family:Arial" x="47" y="129">Duration: 30:35min</text><text fill="#5A5A5A" style="font-size:3px; font-family:Arial" x="75" y="125">Pace: 7:37/km</text><text fill="#5A5A5A" style="font-size:3px; font-family:Arial" x="75" y="129">Elevation: 0m</text><polyline fill="none" points="10.225206611445174,44.3422761533875 10.05785123957321,45.0610157707124 9.946280991658568,45.77975436922861 10.00206611561589,46.42661823617527 9.890495867701247,47.21722850861261 9.5,48.151584513427224 9.55578512372449,48.798445353633724 9.611570247914642,49.51717865274986 9.611570247914642,50.23591093288269 9.890495867701247,50.954642193741165 9.834710743976757,51.60149945731973 10.00206611561589,52.24835589551367 10.225206611445174,52.96708430320723 10.336776859359816,53.613938998722006 10.615702479146421,54.188920257322025 10.783057851251215,54.979518423147965 11.006198346847668,55.626370550715365 11.229338842909783,56.273221852839924 11.396694215014577,56.991944553970825 11.61983471061103,57.638794113649055 11.954545454354957,58.3575148783857 12.345041322289035,59.00436269567581 12.62396694207564,59.57933784031775 13.014462809776887,60.15431233274285 13.293388429796323,60.8730295310379 13.572314049582928,61.44800255616428 14.018595041241497,61.951103418075945 14.297520661028102,62.597946649591904 14.520661156857386,63.172917718300596 14.911157024558634,63.81975939119002 15.301652892492712,64.46660023822915 15.636363636236638,65.18531132279895 16.082644627895206,65.68840847566025 16.528925619786605,66.26337603916181 16.8636363632977,66.91021376819117 17.533057851018384,67.12582616129657 17.533057851018384,67.12582616129657 18.202479338739067,66.69460128375795 18.92768595041707,66.19150512915803 19.485537189990282,65.760279456852 20.154958677710965,65.54466648289235 20.712809917284176,64.96969810430892 21.270661157090217,64.53847139258869 21.828512396663427,64.03537309839157 22.38636363646947,63.67601686832495 23.05578512395732,63.24478905583965 23.669421487487853,62.8135608768207 24.11570247914642,62.310460870852694 24.67355371871963,61.80736036563758 25.17561983456835,61.44800255616428 25.733471074607223,61.01677284849575 26.17975206603296,61.59174571040785 26.514462810009718,60.9449011948891 26.737603305839002,60.36992759921122 27.407024793326855,60.15431233274285 27.964876032900065,59.651209687581286 28.578512396430597,59.2918503494584 29.024793388321996,58.645002899109386 29.582644627895206,58.0700266949716 30.25206611584872,57.7825383481686 30.86570247914642,57.27943334914744 31.36776859499514,56.848200095351785 31.981404958758503,56.416966474673245 32.539256198331714,55.98573248711182 33.152892561862245,55.626370550715365 33.710743801668286,55.12326341168955 33.98966942168772,55.84198774327524 34.32438016519882,56.488838770077564 34.603305785218254,57.06381676817546 35.216942148748785,57.35130552237388 35.83057851227932,57.7825383481686 35.88636363646947,58.501258909353055 36.05371900834143,59.14810654311441 36.05371900834143,59.8668251678464 35.83057851227932,60.58554277411895 36.10950413206592,61.23238774808124 36.778925619786605,61.44800255616428 37.5599173551891,61.73548882402247 38.17355371871963,61.73548882402247 38.95454545458779,61.73548882402247 39.67975206603296,61.37613096361747 40.349173553520814,61.23238774808124 41.0185950412415,61.01677284849575 41.79958677710965,60.9449011948891 42.524793388321996,61.08864449179964 43.19421487604268,61.37613096361747 43.86363636353053,61.51987413835013 44.30991735542193,62.16671792027773 44.92355371895246,62.45420378068229 44.92355371895246,63.24478905583965 45.25826446292922,63.81975939119002 45.87190082645975,64.03537309839157 46.541322314180434,64.2509867142071 47.210743801668286,64.39472907379968 47.93595041311346,64.39472907379968 48.60537190083414,64.53847139258869 49.10743801645003,64.03537309839157 49.721074379980564,64.17911551904399 50.223140495829284,63.604145591845736 51.00413223146461,63.53227430500556 51.72933884290978,63.172917718300596 52.45454545458779,63.172917718300596 53.17975206603296,63.10104637040058 53.960743801668286,63.02917501219781 54.63016528915614,62.95730364404153 55.07644628081471,62.45420378068229 55.85743801645003,62.382332330802456 56.58264462812804,62.16671792027773 57.30785123957321,62.09484642971074 57.977272727293894,61.80736036563758 58.70247933873907,61.66361727239564 59.37190082645975,61.37613096361747 60.097107437904924,61.37613096361747 60.76652892539278,61.304259360884316 61.54752066126093,61.37613096361747 62.161157025024295,61.51987413835013 62.83057851227932,61.51987413835013 63.5,61.59174571040785 64.22520661144517,61.44800255616428 64.89462809916586,61.37613096361747 65.56404958665371,61.37613096361747 66.34504132228903,61.37613096361747 67.01446280977689,61.66361727239564 67.73966942168772,61.44800255616428 68.40909090917557,61.37613096361747 69.19008264434524,61.44800255616428 69.85950413206592,61.23238774808124 70.75206611584872,61.304259360884316 71.42148760310374,61.23238774808124 72.03512396663427,61.08864449179964 72.76033057854511,61.1605161249754 73.42975206626579,61.37613096361747 74.09917355375364,61.37613096361747 74.7685950412415,61.44800255616428 75.4938016529195,61.59174571040785 76.10743801668286,61.951103418075945 76.8326446278952,62.09484642971074 77.61363636353053,62.382332330802456 78.28305785125121,62.597946649591904 79.06404958665371,62.66981806891272 79.78925619833171,62.8854322656407 80.40289256209508,63.02917501219781 81.18388429749757,63.24478905583965 81.85330578521825,63.53227430500556 82.57851239666343,63.81975939119002 83.24793388438411,64.10724431386916 83.9173553721048,64.39472907379968 84.58677685959265,64.75408479437465 85.0888429749757,65.18531132279895 85.70247933873907,65.47279547114158 86.31611570273526,65.90402138826903 86.87396694207564,66.33524693863001 87.37603305792436,66.76647212204989 87.93388429749757,67.19769693876151 88.54752066126093,67.70079209445976 88.88223140477203,68.34762798942393 89.21694214874879,68.9944630592945 89.66322314064018,69.56942687300034 89.83057851227932,70.21626038389513 90.10950413229875,70.93496331683127 90.27685950393789,71.58179508551257 90.38842975208536,72.3004960824619 90.44421487627551,72.94732610863866 90.5,73.66602516971761 90.5,74.38472321198788 90.38842975208536,75.10342023521662 90.27685950393789,75.75024668499827 90.16528925625607,76.54081122518983 90.0537190081086,77.18763584108092 89.77479338855483,77.90632889070548 89.49586776876822,78.55315176444128 89.2727272727061,79.27184287825366 88.7148760331329,79.70305705757346 88.32438016519882,80.2780087259016 87.93388429749757,80.85295974230394 87.43181818164885,81.35604134667665 86.76239669439383,81.78725375322392 86.09297520667315,82.29033443052322 85.53512396663427,82.64967746566981 84.86570247937925,83.00902024639072 84.25206611584872,83.44023124675732 83.69421487604268,83.94331028364832 83.19214876019396,84.51825714309234 82.91322314040735,85.16507158073364 82.69008264457807,85.7400170545443 82.63429752062075,86.45869798021158 82.57851239666343,87.10550994199002 82.57851239666343,87.8241889316123 82.57851239666343,88.54286690277513 82.5227272727061,89.26154385466361 82.57851239666343,89.98021978815086 82.63429752062075,90.77076213806868 82.63429752062075,91.48943593201693 82.57851239666343,92.13624147546943 82.57851239666343,92.85491333366372 82.57851239666343,93.57358417322394 82.63429752062075,94.3641209199559 82.35537190083414,95.08278961997712 81.57438016519882,95.29839003126835 80.84917355375364,95.22652323776856 80.12396694207564,95.29839003126835 79.34297520667315,95.22652323776856 78.61776859499514,95.29839003126835 77.94834710727446,95.29839003126835 77.16735537187196,95.22652323776856 76.49793388438411,95.22652323776856 75.7727272727061,95.29839003126835 75.0475206610281,95.29839003126835 74.32231404958293,95.29839003126835 73.59710743790492,95.29839003126835 72.92768595041707,95.29839003126835 72.14669421501458,95.29839003126835 71.75619834731333,94.79532226209994 71.81198347103782,94.07665315462509 71.81198347103782,93.28611595957773 71.75619834731333,92.5674447126803 71.70041322312318,91.84877244685777 71.70041322312318,91.0582317780354 71.64462809916586,90.41142485907767 71.5888429749757,89.69274953700369 71.53305785101838,88.90220550604863 71.53305785101838,88.11166024231352 71.64462809916586,87.39298166002845 71.70041322312318,86.6024340428412 71.75619834731333,85.88375332124997 71.5888429749757,85.16507158073364 70.91942148748785,85.02133511018474 70.19421487604268,84.87759859929793 69.524793388322,84.87759859929793 68.85537190083414,84.9494668598636 68.13016528915614,84.9494668598636 67.46074380143546,84.9494668598636 66.67975206603296,84.9494668598636 65.95454545458779,84.9494668598636 65.22933884290978,85.02133511018474 64.55991735542193,85.02133511018474 63.89049586793408,85.16507158073364 63.778925619786605,85.81188519310672 63.89049586793408,86.45869798021158 63.834710743743926,87.17737788672093 63.834710743743926,88.03979242988862 63.778925619786605,88.6866023746552 63.66735537187196,89.40527912275866 63.66735537187196,90.19582236954011 63.723140495829284,90.91449697833741 63.723140495829284,91.63317056850065 63.89049586793408,92.42371034104144 63.89049586793408,93.14238179166568 64.00206611561589,93.78918522631284 64.00206611561589,94.50785474147415 64.00206611561589,95.22652323776856 63.221074380213395,95.44212358817458 62.4400826448109,95.44212358817458 61.714876032900065,95.37025681481464 61.04545454541221,95.44212358817458 60.26446281000972,95.44212358817458 59.595041322289035,95.51399035105715 58.86983471061103,95.58585710381158 58.14462809916586,95.6577238466707 57.41942148748785,95.51399035105715 56.63842975208536,95.58585710381158 55.913223140640184,95.51399035105715 55.2438016529195,95.51399035105715 54.57438016519882,95.51399035105715 53.849173553753644,95.37025681481464 53.62603305769153,94.65158852230525 53.62603305769153,93.86105222377228 53.62603305769153,93.14238179166568 53.57024793373421,92.42371034104144 53.62603305769153,91.70503787137568 53.57024793373421,91.0582317780354 53.68181818188168,90.26768987614196 53.57024793373421,89.54901435039937 53.68181818188168,88.90220550604863 53.62603305769153,88.18352804461028 53.57024793373421,87.53671745798783 53.57024793373421,86.81803806079552 53.51446281000972,86.1712257321924 53.402892562095076,85.52441257837927 53.17975206603296,84.73386204743292 52.900826446246356,84.01517867663642 52.56611570250243,83.36836277222028 52.11983471061103,82.72154604212847 51.67355371895246,82.21846579271369 51.17148760310374,81.78725375322392 50.50206611561589,81.71538504411001 49.83264462812804,81.71538504411001 49.44214876019396,81.21230379643384 49.44214876019396,80.49361543351552 49.219008264364675,79.84679503564257 48.99586776853539,79.12810473691206 48.772727272706106,78.40941341919824 48.43801652896218,77.83445963164559 48.0475206610281,77.18763584108092 47.712809917284176,76.61268066783668 47.154958677710965,76.18146385985892 46.597107437904924,75.67837712034816 46.150826446246356,75.10342023521662 45.537190082482994,74.8878112352686 45.035123966867104,74.31285345350625 44.42148760333657,73.88163468940184 43.6962809918914,73.594155309489 42.971074379980564,73.45041555835633 42.24586776876822,73.3066757665365 41.57644628104754,73.1629359338549 40.907024793326855,73.1629359338549 40.237603305839,73.23480585543439 39.512396694161,73.09106600214727 38.7314049587585,73.01919606048614 38.17355371871963,73.3066757665365 37.61570247937925,73.594155309489 36.89049586770125,73.88163468940184 36.33264462812804,74.2409836849547 35.774793388321996,74.67220214364352 35.216942148748785,75.10342023521662 34.77066115709022,75.60650754522067 34.5475206610281,76.25333335320465 34.101239669369534,76.90015833586222 33.487603305839,77.11576648015762 32.81818181811832,77.2595051919925 32.20454545458779,77.47511318331817 31.479338843142614,77.4032438629074 30.86570247914642,77.04389710887335 30.419421487487853,76.39707230956992 30.19628099165857,75.75024668499827 29.471074379980564,75.39089875924401 28.913223140407354,75.75024668499827 28.299586776876822,76.03772484237561 27.74173553707078,76.46894177241484 27.18388429749757,76.90015833586222 26.514462810009718,76.46894177241484 26.012396694160998,75.89398578403052 25.62190082622692,75.247159517603 25.00826446269639,75.10342023521662 24.729338842909783,74.45659296010854 24.338842974975705,73.88163468940184 23.94834710750729,73.23480585543439 23.50206611584872,72.73171619162895 23.167355371871963,72.01301580603467 22.94421487580985,71.36618458753219 23.223140495829284,70.79122281173477 23.94834710750729,70.79122281173477 24.61776859499514,70.93496331683127 24.61776859499514,70.21626038389513 24.227272727293894,69.56942687300034 23.94834710750729,68.92259253683733 23.61363636353053,68.2038867509109 23.44628099165857,67.48517994582653 23.334710743743926,66.76647212204989 23.334710743743926,66.04776327917352 23.55785123957321,65.40092444937909 23.836776859359816,64.75408479437465 24.338842974975705,64.10724431386916 24.56198347103782,63.38853170099901 24.952479338739067,62.8135608768207 25.62190082622692,62.45420378068229 26.235537190223113,62.16671792027773 26.235537190223113,62.16671792027773" stroke="#4DD2FF" stroke-linecap="round" stroke-linejoin="round" stroke-width="0.5"><title>2022-04-09 4.01km</title><desc>351584222</desc></polyline></svg>