<?xml version="1.0" encoding="utf-8" ?>
<svg baseProfile="full" height="130mm" version="1.1" viewBox="0,0,100,130" width="100mm" xmlns="http://www.w3.org/2000/svg" xmlns:ev="http://www.w3.org/2001/xml-events" xmlns:xlink="http://www.w3.org/1999/xlink"><defs /><rect fill="#FAF9F5" height="130" width="100" x="0" y="0" /><text fill="#5A5A5A" style="font-size:6px; font-family:Arial; font-weight:bold;color:#0ed45e;" x="5" y="10">MY TRACKS</text><text fill="#5A5A5A" style="font-size:4px; font-family:Arial" x="5" y="121">Runner</text><text fill="#5A5A5A" style="font-size:6px; font-family:Arial" x="2" y="128">蓝皮书</text><text fill="#5A5A5A" style="font-size:4px; font-family:Arial" x="25" y="121">WORKOUTS INFO</text><text fill="#5A5A5A" style="font-size:3px; font-family:Arial" x="25" y="125">Type: Run</text><text fill="#5A5A5A" style="font-size:3px; font-family:Arial" x="22" y="129">Date: 2022-08-09</text><text fill="#5A5A5A" style="font-size:3px; font-family:Arial" x="47" y="125">Distance: 2.50 km</text><text fill="#5A5A5A" style="font-size:3px; font-family:Arial" x="47" y="129">Duration: 16:58min</text><text fill="#5A5A5A" style="font-size:3px; font-family:Arial" x="75" y="125">Pace: 6:46/km</text><text fill="#5A5A5A" style="font-size:3px; font-family:Arial" x="75" y="129">Elevation: 0m</text><polyline fill="none" points="9.5,66.02772189798998 10.12360992282629,65.40283691819059 10.74721984565258,64.77795131818857 11.301539777778089,63.97452606429579 11.647989734774455,63.17109978484223 12.133019674569368,62.456942231801804 12.96449957205914,62.27840271714376 13.934559452347457,62.01059334981255 14.488879383774474,61.296434480231255 15.112489306833595,60.582274800981395 15.80538922152482,60.0466545096715 16.290419161319733,59.243223218712956 16.914029084611684,58.70760178862838 17.537639007670805,58.26125024858629 18.09195893909782,57.63635756104486 18.715568862156942,57.10073476389516 19.547048759646714,56.56511151109589 20.51710863993503,56.297299713944085 21.279298545559868,55.76167577790329 22.249358425848186,56.297299713944085 23.219418306369334,56.02948780282168 23.981608212227002,56.38657032576157 24.81308810925111,56.56511151109589 25.78314798953943,56.92219373048283 26.545337895397097,57.36854621930979 27.3768177931197,57.457816679554526 28.20829769014381,57.63635756104486 29.03977758763358,57.63635756104486 29.87125748512335,57.90416878880933 30.702737382380292,57.72562798304716 31.67279726266861,57.547087126702536 32.15782720269635,58.439790902484674 32.989307100186124,58.35052058182191 33.95936698024161,58.439790902484674 34.860136869130656,58.52906121034175 35.7609067580197,58.6183315058006 36.59238665550947,58.6183315058006 37.42386655230075,58.6183315058006 38.324636441422626,58.35052058182191 39.086826347280294,58.082709544338286 39.918306244770065,57.90416878880933 40.68049615062773,57.63635756104486 41.581266039051116,57.457816679554526 42.48203592817299,57.27927574701607 43.382805816829205,57.10073476389516 44.214285714318976,56.83292319456814 45.11505560297519,56.65438208496198 46.08511548326351,56.56511151109589 46.847305389354005,56.208029089611955 47.74807527777739,56.11875845247414 48.71813515806571,55.94021714042174 49.61890504718758,55.67240507772658 50.5889649274759,55.58313436456956 51.42044482450001,55.40459290059516 52.321214713389054,55.40459290059516 53.152694610878825,54.86896820482798 54.192044482333586,54.69042653834913 54.95423438819125,55.04750982072437 55.8550042770803,54.511884821462445 56.68648417457007,54.511884821462445 57.448674080427736,54.77969737793319 58.41873396048322,54.60115568625042 59.250213857972994,54.60115568625042 60.15098374662921,54.77969737793319 61.05175363575108,54.60115568625042 62.02181351557374,54.77969737793319 62.922583404462785,54.77969737793319 63.754063301952556,54.69042653834913 64.5855431992095,54.69042653834913 65.41702309646644,54.69042653834913 66.24850299372338,55.04750982072437 67.14927288284525,55.04750982072437 68.05004277150147,55.22605138592189 68.95081266039051,55.315322149544954 69.78229255741462,55.315322149544954 70.82164242910221,55.40459290059516 71.72241231822409,55.58313436456956 72.41531223268248,56.02948780282168 73.3160821213387,56.297299713944085 74.14756201882847,56.11875845247414 75.2562018816825,56.02948780282168 76.22626176220365,56.38657032576157 77.12703165085986,56.65438208496198 78.0278015397489,57.01146425359184 78.85928143700585,57.10073476389516 79.41360136843286,57.90416878880933 80.31437125732191,57.993439172860235 81.14585115481168,58.439790902484674 82.04662104393356,58.975412560626864 82.73952095792629,59.51103376277024 83.50171086378396,59.95738441700814 84.26390076964162,60.40373475442175 85.02609067573212,61.028624695318285 85.71899059019051,61.38570438337047 86.27331052161753,62.0998631514376 86.75834046211094,62.992560472746845 87.65911035053432,63.3496390467044 88.21343028196134,64.15306509810034 88.76775021385401,64.77795131818857 89.18349016248249,65.49210623884574 89.46065012831241,66.47406793257687 89.46065012831241,67.36675905220909 89.7378100939095,68.0809110365808 89.94568006834015,69.06286869285395 90.22284003417008,69.86628745443886 90.4307100083679,70.66970519087045 90.5,71.4731219021487 90.4307100083679,72.45507426833501 90.15355004253797,73.43702510325238 90.01497005973943,74.32970635150559 89.87639007694088,75.3116542630014 89.39136013691314,76.11506505159196 89.46065012831241,77.18627784197452 88.975620187819,77.9004186897073 88.28272027359344,78.52529126708396 87.86698032496497,79.4179653020692 87.24337040190585,80.04283637349727 86.61976047884673,80.66770682478091 85.92686056438833,81.29257665592013 85.23396065016277,81.82817887503188 84.54106073570438,82.27451370941708 83.84816082101315,82.98864878673339 82.87810094072483,82.98864878673339 82.11591103486717,83.34571602131473 81.56159110344015,84.05984988377895 81.14585115481168,84.77398293610895 80.66082121431828,85.48811517853756 79.76005132589489,85.30958219367312 79.20573139423504,84.50618313619634 78.58212147117592,83.88131649396382 77.75064157368615,83.70278305374086 76.98845166806132,83.25644923181972 75.9491017961409,83.34571602131473 75.18691189028323,82.98864878673339 74.35543199302629,83.25644923181972 73.66253207856789,83.79204978019698 72.76176218944602,83.97058319509961 71.86099230102263,83.97058319509961 71.02951240353286,83.70278305374086 70.19803250627592,83.97058319509961 69.2279726259876,83.79204978019698 68.39649272873066,83.88131649396382 67.49572283984162,83.97058319509961 66.52566295978613,84.05984988377895 65.55560307949781,83.88131649396382 64.5855431992095,83.79204978019698 63.546193327521905,83.79204978019698 62.64542343863286,83.88131649396382 61.74465355020948,83.88131649396382 60.705303678289056,83.88131649396382 59.73524379800074,83.88131649396382 58.90376390051097,83.88131649396382 58.07228400348686,83.97058319509961 57.17151411436498,83.70278305374086 56.201454234076664,83.88131649396382 55.369974337052554,83.97058319509961 54.53849443979561,83.97058319509961 53.63772455067374,83.88131649396382 52.736954662017524,83.97058319509961 51.83618477336131,83.88131649396382 50.935414884472266,83.79204978019698 50.103934986982495,83.79204978019698 49.27245508949272,83.6135163147701 48.16381522663869,83.6135163147701 47.263045337982476,83.16718242916977 46.57014542329125,82.72084822756005 45.87724550906569,82.09597981360275 45.253635585773736,81.47111077961745 44.630025662947446,80.84624112560414 44.35286569711752,80.04283637349727 43.382805816829205,79.77503456152044 42.41274593654089,80.13210361887468 41.51197604765184,80.04283637349727 40.68049615062773,79.86430184484925 39.64114627870731,79.77503456152044 38.74037639028393,79.59649995714426 37.77031650976278,79.59649995714426 36.80025662947446,79.9535691156052 36.17664670641534,78.9716284427559 36.17664670641534,77.98968623869587 35.96877673221752,77.18627784197452 35.7609067580197,76.38286842015805 35.275876817526296,75.57945797307184 35.13729683496058,74.77604650129797 34.652266894467175,74.06190210999921 33.820786997210234,73.43702510325238 33.197177074383944,72.72287919325754 32.57356715132482,71.83019566716393 31.603507271269336,71.4731219021487 30.772027373779565,71.4731219021487 29.87125748512335,71.20531644573202 28.901197604369372,71.02677941130241 28.139007698511705,70.84824232634855 27.307527801487595,70.75897376483772 26.40675791259855,70.93751087511191 25.505988023942336,70.84824232634855 24.743798117619008,70.49116800463526 24.743798117619008,70.49116800463526 24.120188194792718,69.50921257573646 23.496578271966428,68.88433105131844 22.94225834053941,68.25944890640676 22.31864841748029,67.54529712407384 21.417878528591245,67.90237311640522 20.378528656903654,67.99164208292495 19.547048759646714,68.17017997789662 18.507698887726292,68.25944890640676 17.745508981868625,68.52725561551051 16.914029084611684,68.88433105131844 16.42899914458394,69.59848131425679 15.666809238493443,70.2233621305204 14.835329341469333,70.75897376483772 14.211719418410212,71.29458494385472 13.518819503486156,71.83019566716393 12.618049615062773,72.09800085780444 11.855859709205106,72.72287919325754 11.162959794513881,73.1692204818828 11.162959794513881,73.1692204818828" stroke="#4DD2FF" stroke-linecap="round" stroke-linejoin="round" stroke-width="0.5"><title>2022-08-09 2.50km</title><desc>358835598</desc></polyline></svg>