<?xml version="1.0" encoding="utf-8" ?>
<svg baseProfile="full" height="130mm" version="1.1" viewBox="0,0,100,130" width="100mm" xmlns="http://www.w3.org/2000/svg" xmlns:ev="http://www.w3.org/2001/xml-events" xmlns:xlink="http://www.w3.org/1999/xlink"><defs /><rect fill="#FAF9F5" height="130" width="100" x="0" y="0" /><text fill="#5A5A5A" style="font-size:6px; font-family:Arial; font-weight:bold;color:#0ed45e;" x="5" y="10">MY TRACKS</text><text fill="#5A5A5A" style="font-size:4px; font-family:Arial" x="5" y="121">Runner</text><text fill="#5A5A5A" style="font-size:6px; font-family:Arial" x="2" y="128">蓝皮书</text><text fill="#5A5A5A" style="font-size:4px; font-family:Arial" x="25" y="121">WORKOUTS INFO</text><text fill="#5A5A5A" style="font-size:3px; font-family:Arial" x="25" y="125">Type: Run</text><text fill="#5A5A5A" style="font-size:3px; font-family:Arial" x="22" y="129">Date: 2022-07-27</text><text fill="#5A5A5A" style="font-size:3px; font-family:Arial" x="47" y="125">Distance: 7.89 km</text><text fill="#5A5A5A" style="font-size:3px; font-family:Arial" x="47" y="129">Duration: 55:20min</text><text fill="#5A5A5A" style="font-size:3px; font-family:Arial" x="75" y="125">Pace: 7:00/km</text><text fill="#5A5A5A" style="font-size:3px; font-family:Arial" x="75" y="129">Elevation: 0m</text><polyline fill="none" points="46.49264705879614,90.63210692827124 45.830882352776825,89.26804651913699 45.830882352776825,87.64822076493874 46.22794117615558,85.85788196098292 46.22794117615558,84.15279243089026 46.294117646990344,82.3624432212091 46.55882352916524,80.82785394211533 46.426470587961376,78.95223950588843 45.56617647060193,77.50289707107004 44.705882352776825,76.22406261065044 43.84558823518455,75.03048132709228 42.25735294097103,74.17792181740515 41.13235294120386,73.0695926475455 40.801470588194206,71.4497232636786 40.073529411805794,69.91510613815626 39.21323529374786,68.29522825748427 38.08823529374786,67.1016312376596 36.698529411805794,65.99328902648995 35.176470587961376,64.97020209528273 33.58823529398069,64.28814317443175 31.867647058563307,64.03237087983871 30.147058823378757,63.861855955794454 28.492647058563307,62.92402301187394 27.03676470578648,61.98618860525312 25.3161764703691,61.81567310116952 24.058823529165238,62.66825013671769 22.602941176388413,63.435568435525056 21.213235293980688,64.37340058176778 19.823529411572963,65.31123126571765 18.235294117359444,66.16380334558198 16.647058823378757,66.93111718428554 15.323529411572963,68.03945766709512 14.59558823518455,69.57407957845135 15.654411764349788,68.55099873925792 16.91176470578648,67.44265919947065 18.433823528932407,66.50483183941105 19.823529411572963,65.31123126571765 21.080882352776825,64.45865797722945 22.801470588194206,63.69134098413633 24.323529411572963,63.094538201461546 25.77941176458262,62.15670406038407 27.830882353009656,61.98618860525312 28.823529411340132,63.265053342387546 29.948529411340132,64.62917273171479 31.669117646990344,64.71443009068025 33.25735294097103,64.88494477258064 34.77941176458262,65.39648852829123 36.36764705879614,65.99328902648995 37.49264705879614,67.44265919947065 38.68382352916524,68.72151233337354 39.27941176458262,70.34138906595763 40.00735294097103,71.79074875963852 40.53676470578648,73.3253610987449 41.52941176458262,74.77471360121854 43.051470588194206,75.1157372117741 44.30882352916524,76.30931832600618 45.301470587961376,77.58815260510892 45.830882352776825,79.20800545514794 45.69852941157296,80.91310900490498 45.764705882407725,82.70346252905438 45.89705882337876,84.32330160139827 45.830882352776825,85.9431363104959 45.89705882337876,87.56296665716218 46.02941176434979,89.18279264093144 46.82352941157296,90.63210692827124 48.676470587961376,90.80261426174548 50.46323529421352,90.20583838253515 52.31617647060193,90.37634583725594 54.10294117638841,90.46159954619361 55.6911764703691,90.29109211592004 57.34558823495172,90.29109211592004 58.40441176481545,89.43855423951754 58.073529411805794,87.56296665716218 58.139705882174894,86.02839064825093 58.40441176481545,84.40855616843328 58.272058823145926,82.70346252905438 58.272058823145926,81.08361909398809 58.205882353009656,79.2932607474504 59.0,78.01443009375362 60.72058823518455,78.18494100496173 62.4411764703691,78.27019644225948 64.16176470578648,78.27019644225948 65.94852941157296,78.27019644225948 67.60294117638841,78.4407072806498 67.73529411735944,80.06055783445481 67.47058823518455,81.85091389663285 67.53676470601931,83.6412646289682 67.53676470601931,85.51686444162624 67.73529411735944,87.22195010451833 67.53676470601931,88.9270309334388 67.8014705881942,90.5468532430823 69.38970588240772,90.63210692827124 71.04411764699034,90.46159954619361 72.6985294118058,90.37634583725594 74.35294117638841,90.63210692827124 76.20588235277683,90.5468532430823 77.86029411759228,90.46159954619361 79.58088235300966,90.37634583725594 80.705882352544,89.09753875044407 80.63970588240772,87.22195010451833 80.57352941157296,85.51686444162624 80.83823529421352,83.89702858432429 80.705882352544,82.2771883639507 80.83823529421352,80.48683357069967 80.97058823518455,78.78172881249338 81.83088235277683,77.16187481436646 83.28676470555365,76.1388068832457 84.47794117615558,75.28624894440873 86.0,74.4336897971225 87.12499999976717,73.15484881022712 88.18382352939807,71.79074875963852 89.04411764675751,70.17087593092583 89.97058823541738,68.63625554245664 90.36764705879614,66.93111718428554 90.43382352939807,65.31123126571765 90.36764705879614,63.60608347982634 89.97058823541738,61.9009308591485 89.50735294097103,60.451547330245376 88.77941176481545,58.83164395793574 87.78676470578648,57.21173622232163 86.72794117638841,55.84760000795359 85.20588235300966,54.99501330230851 83.8823529407382,53.9719076603069 82.29411764699034,53.28983626503032 80.77205882337876,52.35198683384806 79.11764705879614,51.925691154028755 77.59558823518455,51.41413593949983 76.00735294120386,50.98783959512366 74.48529411735944,50.56154294882435 72.89705882361159,50.135245999728795 71.1764705881942,49.79420822300017 69.45588235277683,49.538429763691965 67.66911764699034,49.36791073024506 65.94852941157296,49.11213208944537 64.16176470578648,49.28265119536081 62.50735294120386,49.19739164848579 60.91911764675751,49.11213208944537 59.39705882337876,49.28265119536081 57.87499999976717,49.708948748593684 56.08823529398069,50.135245999728795 54.49999999976717,50.135245999728795 52.91176470578648,49.96472713560797 51.19117647060193,50.47628358309157 49.669117646990344,51.073098888329696 48.080882352543995,51.66991360124666 46.426470587961376,52.09620946220821 44.705882352776825,52.18146859796252 42.985294117592275,52.18146859796252 41.13235294120386,52.010950314230286 39.544117647223175,51.84043198195286 38.02205882337876,50.81732097279746 36.5,51.3288766949554 34.97794117638841,52.09620946220821 33.32352941157296,52.522505021013785 31.602941176155582,52.437245933339 29.948529411340132,52.010950314230286 28.492647058563307,51.3288766949554 26.97058823495172,50.90258029004326 25.3161764703691,50.732061643502675 23.66176470578648,51.41413593949983 22.272058823378757,52.35198683384806 20.948529411572963,53.375095231866 19.823529411572963,54.739237055007834 18.830882352776825,56.103375783714 17.5073529407382,57.21173622232163 15.985294117592275,58.23483635246521 14.727941176155582,59.598967151890974 13.47058823518455,60.87783696630504 12.080882352776825,61.3893841302488 10.426470588194206,60.963094857055694 10.360294117359444,61.13361060246825 11.948529411572963,61.304126299743075 13.47058823518455,60.87783696630504 14.860294117359444,59.76948328438448 15.852941176155582,58.064319785218686 17.37499999976717,57.041219364793506 18.764705882407725,56.27389290748397 19.62499999976717,54.65397828188725 21.014705882407725,53.460354186594486 22.47058823518455,52.26672772213351 23.860294117592275,51.41413593949983 25.3161764703691,50.90258029004326 26.97058823495172,51.073098888329696 28.62499999976717,51.41413593949983 30.213235293980688,52.18146859796252 31.801470588194206,52.522505021013785 33.52205882337876,52.60776409646496 35.176470587961376,52.693023159808945 36.830882352776825,53.034059292578604 38.551470588194206,53.545613129099365 40.27205882361159,53.460354186594486 41.926470588194206,53.034059292578604 43.514705882407725,52.60776409646496 45.301470587961376,52.60776409646496 46.889705882174894,52.437245933339 48.610294117592275,52.010950314230286 50.264705882407725,51.755172797769774 51.985294117592275,51.41413593949983 53.573529411805794,51.073098888329696 55.360294117592275,50.90258029004326 57.014705882174894,50.56154294882435 58.66911764675751,50.56154294882435 60.25735294120386,50.22050541365752 62.04411764675751,50.135245999728795 63.764705882174894,50.135245999728795 65.35294117638841,50.22050541365752 66.94117647060193,50.30576481559547 68.66176470555365,50.47628358309157 70.4485294118058,50.732061643502675 72.16911764722317,50.98783959512366 73.6911764703691,51.3288766949554 75.27941176458262,51.58465439279098 77.13235294097103,51.925691154028755 78.9852941178251,52.437245933339 80.50735294120386,53.034059292578604 82.16176470578648,53.71613097784575 83.74999999976717,54.56871949654305 85.13970588240772,55.76234139187727 86.33088235277683,56.87070245901123 87.3897058821749,58.064319785218686 88.25,59.51370906759985 88.77941176481545,61.04835273575736 89.2426470585633,62.582992487819865 89.30882352939807,64.20288575498853 89.30882352939807,65.73751745698974 89.04411764675751,67.35740222706227 88.71323529398069,69.23305282561341 87.91911764699034,70.68241519038565 86.92647058796138,72.04651775490493 85.73529411759228,73.49587333918316 84.41176470555365,74.51894576638006 83.08823529421352,75.54201645299327 81.6323529407382,76.3945740290801 80.30882352939807,76.73559672111878 78.45588235277683,76.47982972027967 76.53676470578648,76.56508539925562 74.81617647060193,76.73559672111878 73.02941176458262,76.73559672111878 71.30882352916524,76.65034106635721 69.65441176458262,76.65034106635721 67.8676470585633,76.73559672111878 66.27941176458262,76.65034106635721 64.4926470585633,76.56508539925562 62.705882353009656,76.65034106635721 60.91911764675751,76.73559672111878 59.19852941134013,77.07661921990803 57.74264705856331,77.41764152498217 56.02205882337876,77.33238596678711 54.36764705879614,76.99136361316778 52.77941176434979,76.82085236377316 50.99264705879614,76.65034106635721 49.60294117638841,75.79778385267127 48.014705882407725,75.03048132709228 47.28676470578648,73.75164160924032 47.15441176434979,72.13177406229079 47.551470587961376,70.51190215250244 48.74264705879614,69.23305282561341 50.264705882407725,68.29522825748427 51.58823529421352,67.35740222706227 52.24999999976717,65.73751745698974 51.65441176434979,64.20288575498853 50.39705882337876,62.83876539871562 49.07352941157296,61.9009308591485 47.8161764703691,60.70732114784187 47.35294117638841,58.916902139084414 48.41176470601931,57.72328650491545 47.94852941157296,56.18863435165258 46.49264705879614,55.421306806092616 44.97058823518455,54.48346069891704 46.82352941157296,53.9719076603069 48.544117646990344,53.545613129099365 50.264705882407725,53.375095231866 51.85294117638841,52.948800277663395 53.705882352776825,52.522505021013785 55.62499999976717,52.18146859796252 57.21323529398069,51.925691154028755 59.0,51.755172797769774 60.72058823518455,51.66991360124666 62.375,51.49939517228631 63.89705882337876,51.58465439279098 65.61764705879614,51.41413593949983 67.27205882314593,51.66991360124666 68.9264705881942,51.66991360124666 70.58088235277683,51.925691154028755 72.3676470585633,52.18146859796252 74.02205882361159,52.522505021013785 75.6764705881942,53.034059292578604 77.39705882337876,53.034059292578604 79.05147058796138,53.460354186594486 80.705882352544,53.28983626503032 82.16176470578648,54.2276842338033 83.81617647060193,54.90975456533488 85.13970588240772,55.9328586118645 86.46323529398069,56.95596091798507 87.52205882337876,58.23483635246521 88.44852941157296,59.684225224133115 89.11029411759228,61.21886845707195 89.4411764703691,63.094538201461546 89.77205882361159,64.79968743777135 89.70588235300966,66.50483183941105 89.17647058842704,68.12471454258775 88.64705882361159,69.74459288269281 87.91911764699034,71.193954014685 86.92647058796138,72.47279917140258 85.73529411759228,73.92215372878127 84.34558823518455,75.03048132709228 82.95588235300966,76.05355114379199 81.43382352939807,76.90610799472779 80.705882352544,78.4407072806498 80.11029411759228,80.06055783445481 80.30882352939807,81.76565896696411 80.17647058796138,83.47075526521076 80.04411764699034,85.17584672919475 80.11029411759228,86.79567914217478 80.50735294120386,88.50076117948629 80.50735294120386,90.20583838253515 78.91911764699034,90.46159954619361 77.19852941157296,90.5468532430823 75.6764705881942,90.37634583725594 73.8235294118058,90.37634583725594 72.16911764722317,90.37634583725594 70.4485294118058,90.29109211592004 68.79411764699034,90.5468532430823 68.72794117638841,90.63210692827124 70.58088235277683,90.88786791055463 72.3014705881942,90.71736060088733 74.02205882361159,90.46159954619361 75.74264705879614,90.46159954619361 77.33088235300966,90.46159954619361 79.11764705879614,90.37634583725594 79.05147058796138,90.46159954619361 77.19852941157296,90.5468532430823 75.41176470578648,90.37634583725594 73.6911764703691,90.37634583725594 71.90441176458262,90.37634583725594 70.25,90.63210692827124 68.52941176458262,90.80261426174548 68.86029411735944,90.63210692827124 70.5147058821749,90.80261426174548 72.3676470585633,90.37634583725594 74.15441176458262,90.37634583725594 75.875,90.5468532430823 77.52941176458262,90.5468532430823 79.18382352939807,90.5468532430823 79.18382352939807,90.37634583725594 79.24999999976717,90.5468532430823 79.24999999976717,90.63210692827124" stroke="#4DD2FF" stroke-linecap="round" stroke-linejoin="round" stroke-width="0.5"><title>2022-07-27 7.89km</title><desc>358077715</desc></polyline></svg>