<?xml version="1.0" encoding="utf-8" ?>
<svg baseProfile="full" height="130mm" version="1.1" viewBox="0,0,100,130" width="100mm" xmlns="http://www.w3.org/2000/svg" xmlns:ev="http://www.w3.org/2001/xml-events" xmlns:xlink="http://www.w3.org/1999/xlink"><defs /><rect fill="#FAF9F5" height="130" width="100" x="0" y="0" /><text fill="#5A5A5A" style="font-size:6px; font-family:Arial; font-weight:bold;color:#0ed45e;" x="5" y="10">MY TRACKS</text><text fill="#5A5A5A" style="font-size:4px; font-family:Arial" x="5" y="121">Runner</text><text fill="#5A5A5A" style="font-size:6px; font-family:Arial" x="2" y="128">蓝皮书</text><text fill="#5A5A5A" style="font-size:4px; font-family:Arial" x="25" y="121">WORKOUTS INFO</text><text fill="#5A5A5A" style="font-size:3px; font-family:Arial" x="25" y="125">Type: Hike</text><text fill="#5A5A5A" style="font-size:3px; font-family:Arial" x="22" y="129">Date: 2023-07-03</text><text fill="#5A5A5A" style="font-size:3px; font-family:Arial" x="47" y="125">Distance: 4.38 km</text><text fill="#5A5A5A" style="font-size:3px; font-family:Arial" x="47" y="129">Duration: 44:17min</text><text fill="#5A5A5A" style="font-size:3px; font-family:Arial" x="75" y="125">Pace: 10:07/km</text><text fill="#5A5A5A" style="font-size:3px; font-family:Arial" x="75" y="129">Elevation: 0m</text><polyline fill="none" points="17.84545454569161,59.36717942717951 18.827272727387026,58.18131429201458 20.238636363763362,57.786025352892466 21.220454545225948,56.67921483347891 22.202272727154195,55.493343982088845 23.245454545598477,54.30747060838621 24.411363636376336,53.27971164486371 25.761363636236638,52.64724364853464 27.295454545179382,52.410067965101916 28.768181818071753,52.72630218730774 30.240909090964124,53.2006531842635 31.65227272710763,53.75406217115233 33.186363636516035,53.991237282927614 34.78181818197481,54.07029563107062 36.31590909091756,54.30747060838621 37.7886363635771,54.46558720403118 39.26136363623664,54.781820260337554 40.79545454564504,54.93993672163924 42.32954545482062,54.62370375468163 43.80227272724733,54.14935396803776 45.213636363623664,53.6750037780148 46.625,53.2006531842635 48.09772727289237,53.04253623029217 49.57045454531908,52.72630218730774 51.04318181821145,52.48912653734442 52.51590909087099,52.093833563441876 54.11136363632977,51.93571629549842 55.645454545738176,51.69854030961869 57.118181818164885,51.54042292921804 58.65227272710763,51.382305504288524 60.18636363605037,51.30324677500175 61.72045454569161,51.14512928278418 63.25454545463435,51.30324677500175 64.91136363637634,51.46136422245763 66.32272727275267,51.54042292921804 67.79545454541221,51.69854030961869 69.26818181783892,51.85665764467558 70.67954545468092,52.251950786681846 72.2136363638565,52.48912653734442 73.68636363651603,52.80536071502138 75.09772727265954,53.04253623029217 76.63181818183511,53.59594537381781 78.04318181797862,54.30747060838621 79.51590909087099,54.93993672163924 80.8659090907313,55.730518353986554 81.84772727289237,56.916388701298274 83.01363636367023,57.94414096220862 84.11818181816489,59.05094897118397 85.0999999998603,60.078697297896724 85.65227272734046,61.501730315736495 85.65227272734046,62.9247597020003 85.71363636362366,64.42684233700857 85.52954545477405,65.9289209258859 85.34545454569161,67.51005191134755 84.79318181821145,69.01212219533045 85.1613636361435,70.51418843312422 86.08181818178855,71.93719482125016 87.49318181816489,72.33247372909682 89.02727272710763,72.4905852136435 90.5,72.64869665377773 89.2727272727061,72.0162506250781 87.79999999981374,71.62097149342299 86.51136363623664,70.98852429940598 85.52954545477405,69.88173998391721 84.42500000004657,70.83041238883743 83.44318181811832,71.93719482125016 82.39999999990687,73.20208634011215 81.29545454564504,74.38791953306645 80.00681818160228,75.17847359424923 78.77954545454122,76.12713698850712 77.92045454541221,77.31296396162361 77.42954545468092,78.73595300101442 77.12272727256641,80.31704767490737 77.12272727256641,81.7400290488149 76.87727272720076,83.24206100415904 76.63181818183511,84.74408891407074 76.75454545463435,86.3251665540156 77.18409090884961,87.74813259730581 76.07954545435496,88.22245380480308 74.42272727261297,88.06434678053483 73.07272727275267,87.66907902335515 71.66136363637634,87.74813259730581 70.12727272743359,87.59002543840325 68.65454545454122,87.59002543840325 67.18181818164885,87.66907902335515 65.70909090922214,87.82718615978956 65.95454545458779,86.4042203182471 66.26136363646947,84.98125084582716 66.1386363634374,83.40016939566704 66.26136363646947,81.81908346293494 66.26136363646947,80.23799304757267 66.26136363646947,78.65689814952202 65.77045454550534,77.39201900351327 64.23636363632977,77.07579876866657 62.76363636367023,77.07579876866657 61.29090909077786,76.99674368201522 59.81818181835115,76.91768858412979 58.22272727265954,76.99674368201522 57.17954545468092,77.70823905902216 56.99545454536565,79.28933664673241 56.19772727275267,80.71232064301148 55.70681818178855,82.29340971348574 55.15454545430839,83.63733189896448 55.27727272757329,85.13935874425806 55.70681818178855,86.64138154382817 56.19772727275267,87.98529325169511 55.58409090922214,89.0129882543115 54.35681818192825,88.22245380480308 52.76136363646947,88.06434678053483 51.16590909077786,87.90623971109744 49.69318181811832,87.82718615978956 48.159090908942744,87.90623971109744 46.686363636283204,87.98529325169511 46.13409090926871,86.87854266888462 46.44090909091756,85.29746659792727 46.686363636283204,83.87449430144625 46.563636363716796,82.29340971348574 46.37954545440152,80.71232064301148 46.19545454555191,79.21028187370393 46.13409090926871,77.62918406183599 45.58181818178855,76.12713698850712 45.33636363619007,74.62508586910553 44.354545454494655,73.4392531804624 42.759090909035876,73.4392531804624 41.286363636376336,73.51830877130851 41.1636363635771,71.85813900612993 40.79545454564504,70.35607638809597 39.506818181602284,69.72362775972579 38.40227272734046,68.77495347202057 37.2363636365626,67.747221172438 36.07045454531908,66.79854352254188 34.72045454545878,66.00797758164117 33.37045454559848,65.53363747894764 31.95909090922214,64.98024018254364 30.48636363632977,65.21741051960271 29.197727272752672,66.08703422610415 27.786363636609167,66.71948697906919 26.620454545365646,67.6681647633086 25.393181818304583,68.45872835098999 23.85909090912901,68.37967204255983 22.447727272519842,68.85400972445495 21.159090909175575,68.37967204255983 20.545454545412213,67.114769585256 19.072727272985503,67.19382607284933 17.538636363577098,67.51005191134755 16.065909091150388,67.19382607284933 14.838636363856494,66.32420409255428 14.102272727293894,64.82212656841148 13.304545454448089,63.63627303362591 12.629545454634354,62.21324546280084 11.831818181788549,60.94832901802147 10.97272727289237,59.683409704244696 10.297727272845805,58.33942978887353 9.561363636516035,57.074504557065666 9.5,55.493343982088845 10.359090908896178,54.30747060838621 11.586363636190072,53.43782853160519 12.997727272799239,52.56818509864388 14.224999999860302,51.619481625035405 15.574999999953434,50.987011745688505 15.943181818118319,52.093833563441876 14.593181818025187,52.88441923126811 13.672727272612974,54.07029563107062 12.997727272799239,55.493343982088845 12.752272727433592,57.074504557065666 12.875,58.655660648830235 13.6113636365626,59.999639801564626 14.34772727265954,61.343615715391934 15.574999999953434,61.659844871319365 16.618181818164885,60.71115686534904 17.661363636376336,59.683409704244696 18.520454545505345,58.418487520713825 19.870454545365646,57.54885185544845 21.09772727265954,56.67921483347891 22.018181818304583,55.572402117133606 23.184090909082443,54.46558720403118 24.411363636376336,53.43782853160519 25.884090909035876,52.80536071502138 26.129545454401523,53.991237282927614 25.20909090898931,55.098053137538955 25.024999999906868,56.600156855362 26.006818181835115,57.70696753170341 27.172727272612974,58.57660295057576 28.70681818178855,58.26037204603199 29.62727272720076,57.15356246812735 29.811363636283204,55.572402117133606 29.074999999720603,54.30747060838621 27.7249999998603,53.59594537381781 26.25227272720076,53.6750037780148 26.375,53.75406217115233 27.11136363632977,52.64724364853464 28.58409090898931,52.410067965101916 30.05681818188168,52.80536071502138 31.590909090824425,53.3587700939388 33.125,53.75406217115233 34.659090909175575,53.833120553113986 36.25454545440152,54.07029563107062 37.727272727293894,54.228412293770816 39.26136363623664,54.544645484827925 40.91818181821145,54.70276201312663" stroke="#4DD2FF" stroke-linecap="round" stroke-linejoin="round" stroke-width="0.5"><title>2023-07-03 4.38km</title><desc>373364085</desc></polyline></svg>