<?xml version="1.0" encoding="utf-8" ?>
<svg baseProfile="full" height="130mm" version="1.1" viewBox="0,0,100,130" width="100mm" xmlns="http://www.w3.org/2000/svg" xmlns:ev="http://www.w3.org/2001/xml-events" xmlns:xlink="http://www.w3.org/1999/xlink"><defs /><rect fill="#FAF9F5" height="130" width="100" x="0" y="0" /><text fill="#5A5A5A" style="font-size:6px; font-family:Arial; font-weight:bold;color:#0ed45e;" x="5" y="10">MY TRACKS</text><text fill="#5A5A5A" style="font-size:4px; font-family:Arial" x="5" y="121">Runner</text><text fill="#5A5A5A" style="font-size:6px; font-family:Arial" x="2" y="128">蓝皮书</text><text fill="#5A5A5A" style="font-size:4px; font-family:Arial" x="25" y="121">WORKOUTS INFO</text><text fill="#5A5A5A" style="font-size:3px; font-family:Arial" x="25" y="125">Type: Run</text><text fill="#5A5A5A" style="font-size:3px; font-family:Arial" x="22" y="129">Date: 2023-05-28</text><text fill="#5A5A5A" style="font-size:3px; font-family:Arial" x="47" y="125">Distance: 3.63 km</text><text fill="#5A5A5A" style="font-size:3px; font-family:Arial" x="47" y="129">Duration: 51:16min</text><text fill="#5A5A5A" style="font-size:3px; font-family:Arial" x="75" y="125">Pace: 14:06/km</text><text fill="#5A5A5A" style="font-size:3px; font-family:Arial" x="75" y="129">Elevation: 0m</text><polyline fill="none" points="82.58807045593858,51.24303898814833 79.34547638101503,52.66343741386663 78.567253802903,52.49633189442102 77.72417934355326,52.24567352666054 77.01080864691176,51.82790934277 76.102882305393,51.7443564706482 75.25980784604326,51.57725069037406 74.48158526793122,51.24303898814833 73.76821457152255,50.992380086914636 72.86028823046945,50.90882709628204 72.08206565235741,50.992380086914636 71.43354683741927,50.65816805313807 70.65532425930724,50.0732965375646 69.74739791825414,50.0732965375646 68.9691753401421,49.98974341643043 68.25580464326777,49.65553081390681 67.41273018391803,49.48842444154434 66.634507605806,49.32131802145159 65.79143314645626,49.40487123746425 64.94835868687369,48.90355176490266 64.10528422729112,48.987105039996095 63.262209767708555,49.070658303331584 63.00280224182643,49.82263713871362 62.15972778201103,50.0732965375646 62.48398718959652,49.23776479397202 61.70576461171731,49.65553081390681 60.99239391484298,50.0732965375646 60.4087269816082,50.57461501512444 59.63050440326333,50.32395582954632 58.852281825384125,50.32395582954632 58.20376301021315,50.74172107951017 57.425540432333946,50.825274093600456 56.64731785422191,50.90882709628204 55.80424339440651,50.825274093600456 54.961168935056776,51.159486033022404 54.18294635694474,50.90882709628204 53.33987189736217,50.74172107951017 52.6265012009535,50.90882709628204 51.91313050407916,50.49106196500361 51.07005604472943,50.40750890300842 50.22698158514686,50.32395582954632 49.38390712556429,50.32395582954632 48.540832665981725,50.49106196500361 47.69775820639916,50.74172107951017 46.78983186534606,50.90882709628204 46.011609287466854,50.992380086914636 45.16853482788429,50.57461501512444 44.26060848683119,50.57461501512444 43.35268214554526,50.65816805313807 42.50960768596269,50.825274093600456 41.666533226612955,51.24303898814833 40.88831064850092,51.660803586419206 40.174939951626584,52.1621207135031 39.46156925545074,52.74699015595252 38.94275420322083,53.33185901795514 38.229383506579325,53.41541166527895 37.45116092870012,53.83317472325871 36.60808646911755,54.083832416217774 35.89471577247605,54.75225240923464 35.05164131266065,54.835804855043534 34.20856685331091,54.4180425076629 33.49519615690224,54.00027986400528 32.97638110490516,53.24830635887338 32.45756605290808,52.57988466008101 31.873899119440466,52.0785678884713 30.965972778154537,52.1621207135031 30.1228983188048,52.0785678884713 29.21497197751887,52.1621207135031 28.307045636465773,51.99501505185617 27.788230584468693,52.74699015595252 27.13971176906489,53.16475368797546 26.361489191418514,53.33185901795514 25.388710968894884,53.74962213548133 24.74019215349108,54.16738495690515 24.026821457082406,54.6686999516096 23.443154523614794,55.170014519942924 22.989191353088245,55.92198557278607 22.535228182328865,56.75750783953117 21.951561248861253,57.342372721468564 21.36789431539364,57.92723702278454 20.719375500222668,58.428548819269054 20.20056044845842,59.01341204269556 19.552041633287445,59.43117113254266 18.968374699819833,60.09958506078692 18.38470776635222,60.68444662587717 17.80104083265178,61.18575607670937 17.087670136243105,61.603513626731 16.633706965483725,62.43902783864178 16.4391513208393,63.107438355043996 15.855484387138858,62.43902783864178 15.271817453904077,61.77061656396836 14.88270616484806,61.0186529737548 14.493594876024872,60.35024008806795 13.845076060853899,59.93248164962279 13.650520416209474,59.09696388442535 13.585668534971774,58.34499688266078 13.45596477179788,57.509476866573095 13.45596477179788,56.673955666075926 13.45596477179788,55.92198557278607 13.845076060853899,55.170014519942924 14.299039231147617,54.4180425076629 14.753002401674166,53.66606953571318 15.336669335374609,53.16475368797546 16.30944755789824,52.914095604326576 16.957966373069212,52.329226327710785 16.89311449159868,51.49369778257096 15.985188150312752,51.57725069037406 15.142113690730184,51.91146220319206 14.558446757029742,52.49633189442102 13.974779823794961,52.99764831067296 13.196557245915756,53.33185901795514 12.48318654927425,53.66606953571318 11.704963971162215,54.25093748565996 10.926741393050179,54.5851474822266 10.213370696641505,55.08646212157328 9.694555644644424,55.75488097721245 9.5,56.59040348074632 9.564851881470531,57.425924799987115 9.95396317052655,58.26144493435277 10.47277822275646,59.01341204269556 10.926741393050179,59.76537819119403 11.380704563576728,60.51734338054666 11.769815852632746,61.18575607670937 12.158927141688764,61.85416801489191 12.677742193685845,62.689681871037465 13.196557245915756,63.52519454312278 13.715372297680005,64.19360382761806 14.234187349677086,64.94556336663663 14.688150520436466,65.69752194633475 15.142113690730184,66.28237795602763 15.725780624430627,67.11788553465158 16.244595676427707,67.86984134255908 16.76341072889045,68.53824569948483 17.541633306769654,68.95599803770892 18.44955964735709,68.87244759383611 19.29263410740532,68.7053466704092 20.26541232992895,68.87244759383611 21.173338670982048,68.7053466704092 21.951561248861253,68.87244759383611 22.016413130331784,69.62440116301877 22.79463570867665,70.12570300954394 23.76741393096745,70.12570300954394 24.480784627608955,69.87505213957047 25.323859087191522,69.54085081402445 26.102081665303558,69.0395484699402 26.685748599004,68.28759415447712 27.13971176906489,67.70274013472954 27.72337870276533,66.95078411343275 28.436749399174005,66.53303035389399 29.15012009604834,66.19882713310653 29.993194555630907,65.94817459303886 30.901120896684006,65.61397104046773 31.679343474796042,65.3633182515623 32.52241793414578,65.02911436732393 33.300640512257814,64.94556336663663 34.338270616251975,65.02911436732393 35.11649319436401,65.02911436732393 35.95956765417941,65.11266535625327 36.802642113529146,65.53042012266815 37.58086469164118,66.11527629819466 38.42393915099092,66.36592876707437 39.202161729335785,66.70013189327437 39.85068054427393,67.28498690814013 40.4991993594449,67.95339192845859 41.01801441120915,68.62179619079689 41.40712570026517,69.37375008000527 42.185348278610036,69.9586024414748 42.704163330374286,70.71055462490767 43.158126501366496,71.2954056597082 43.41753402701579,72.2144561134046 43.612089671427384,73.13350513367914 43.54723779018968,73.88545326632448 43.676941553130746,74.72095006611198 44.195756605127826,75.3057971210801 45.16853482788429,75.47289617318893 45.8170536425896,75.89064359583426 46.27101681334898,76.55903885653242 46.78983186534606,77.3945318661863 47.50320256175473,78.23002369137248 47.89231385104358,78.98196532134898 47.89231385104358,79.73390599200502 48.21657325862907,80.6529432865791 48.605684547452256,81.32133314601379 48.80024019186385,82.0732708320138 48.994795836508274,82.90875602466986 49.31905524409376,83.6606916852761 49.44875900703482,84.4961746277404 49.31905524409376,85.24810826289468 49.44875900703482,86.00004093890311 49.64331465191208,86.83552056492772 49.64331465191208,87.75454678572714 49.44875900703482,88.50647626403952 49.1893514811527,89.25840478297323 48.67053642915562,89.92678488325328 48.67053642915562,90.84580628375988 49.44875900703482,90.92935361282434 50.29183346661739,90.76225894299569 51.26461168937385,90.59516422601882 52.17253803042695,90.51161684928229 53.14531625295058,90.51161684928229 54.05324259400368,90.34452206129208 54.831465172348544,90.1774272256298 55.73939151340164,90.2609746492235 56.64731785422191,90.1774272256298 57.55524419527501,90.1774272256298 58.52802241803147,90.1774272256298 59.24139311444014,90.1774272256298 60.14931945549324,90.1774272256298 60.4087269816082,89.4254998791148 60.60328262578696,88.59002392448019 60.66813450749032,87.83809455303708 60.60328262578696,87.00261634815251 60.279023218434304,86.25068495119922 60.08446757378988,85.41520449606469 60.01961569255218,84.4961746277404 59.825060047907755,83.57714332576143 59.69535628473386,82.74165908084251 59.371096877381206,81.98972224770114 59.04683747002855,81.15423575241584 58.852281825384125,80.40229689376429 58.72257806244306,79.5668081480544 59.24139311444014,78.89841629873263 60.01961569255218,78.64776915963739 60.99239391484298,78.64776915963739 61.770616492955014,78.81486726424191 62.61369095277041,78.89841629873263 63.58646917529404,79.14906333078397 64.62409927952103,79.23261231801007 65.40232185716741,79.39971025678096 66.18054443527944,79.14906333078397 66.95876701362431,78.98196532134898 67.86669335444458,79.06551433209097 68.58006405108608,79.14906333078397 69.35828662919812,79.23261231801007 70.13650920731016,79.65035707585048 70.00680544390343,80.48584570322419 69.94195356289856,81.32133314601379 69.8771016811952,82.24036796548171 69.6825460367836,83.15940135141136 69.6825460367836,83.99488500441657 69.81224979972467,84.74681927938946 69.81224979972467,85.49875259492546 69.6825460367836,86.25068495119922 69.74739791825414,87.16971208376344 69.74739791825414,88.08873778325506 69.6825460367836,88.92421444848878 69.55284227384254,89.67614243453136 69.94195356289856,90.59516422601882 70.65532425930724,91.09644823509734 71.43354683741927,91.09644823509734 72.21176941529848,91.01290092983982 72.98999199341051,90.92935361282434 73.96277021593414,90.92935361282434 74.87069655698724,90.92935361282434 75.77862289827317,90.67871159041533 76.68654923909344,90.59516422601882 77.59447558037937,90.51161684928229 78.37269815825857,90.42806946113706 79.15092073637061,90.09387979016174 79.99399519572034,89.75968992919661 80.83706965576857,89.92678488325328 81.74499599658884,90.09387979016174 82.52321857493371,89.92678488325328 82.45836669323035,89.09130963945063 82.26381104858592,88.33938090736046 82.19895916711539,87.58745121577522 81.93955164123327,86.75197265582392 82.0044035227038,85.83294487162493 81.93955164123327,85.08101198251825 81.87469975976273,84.24552986898925 81.74499599658884,83.41004657180747 81.55044035217725,82.57456208980875 81.48558847070672,81.65552779159043 81.48558847070672,80.82004082261119 81.61529223364778,80.06810153770493 81.74499599658884,79.23261231801007 82.13410728587769,78.48067100782646 82.65292233764194,77.89582710328978 83.49599679699168,77.3945318661863 84.07966373092495,76.97678550926503 84.72818254609592,76.30839072272647 85.37670136103407,75.80709413514705 85.89551641303115,75.13869802193949 86.67373899091035,75.05514845444122 87.38710968731903,74.47030115057714 87.97077662101947,73.88545326632448 88.42473979154602,73.04995528201107 89.13811048818752,72.4651059883181 89.46236989577301,71.54605592554435 89.52722177724354,70.62700442946516 89.7866293033585,69.7915018259082 90.17574059218168,68.87244759383611 90.24059247388504,67.95339192845859 90.5,67.20143622718751 90.11088871071115,66.36592876707437 90.3054443555884,65.61397104046773 90.24059247388504,64.77846132981358 89.7866293033585,64.11005270841997 90.04603682924062,63.107438355043996 89.6569255401846,62.355476470896974 89.26781425112858,61.77061656396836 88.68414731742814,61.26930761052063 87.97077662101947,60.51734338054666 87.38710968731903,60.016033361142036 86.73859087261371,59.43117113254266 86.15492393891327,58.84630832367111 85.83066453156061,58.09434100211365 85.57125700521283,57.258820630726404 85.11729383491911,56.59040348074632 84.59847878292203,55.92198557278607 84.01481184922159,55.33711928129196 83.30144115281291,55.170014519942924 82.9123298637569,54.25093748565996 82.58807045593858,53.41541166527895 82.0044035227038,52.914095604326576 81.68014411488548,52.1621207135031" stroke="#4DD2FF" stroke-linecap="round" stroke-linejoin="round" stroke-width="0.5"><title>2023-05-28 3.63km</title><desc>371564201</desc></polyline></svg>