<?xml version="1.0" encoding="utf-8" ?>
<svg baseProfile="full" height="130mm" version="1.1" viewBox="0,0,100,130" width="100mm" xmlns="http://www.w3.org/2000/svg" xmlns:ev="http://www.w3.org/2001/xml-events" xmlns:xlink="http://www.w3.org/1999/xlink"><defs /><rect fill="#FAF9F5" height="130" width="100" x="0" y="0" /><text fill="#5A5A5A" style="font-size:6px; font-family:Arial; font-weight:bold;color:#0ed45e;" x="5" y="10">12 月好—溜达走大象</text><text fill="#5A5A5A" style="font-size:4px; font-family:Arial" x="5" y="121">Runner</text><text fill="#5A5A5A" style="font-size:6px; font-family:Arial" x="2" y="128">蓝皮书</text><text fill="#5A5A5A" style="font-size:4px; font-family:Arial" x="25" y="121">WORKOUTS INFO</text><text fill="#5A5A5A" style="font-size:3px; font-family:Arial" x="25" y="125">Type: Hike</text><text fill="#5A5A5A" style="font-size:3px; font-family:Arial" x="22" y="129">Date: 2024-12-01</text><text fill="#5A5A5A" style="font-size:3px; font-family:Arial" x="47" y="125">Distance: 8.01 km</text><text fill="#5A5A5A" style="font-size:3px; font-family:Arial" x="47" y="129">Duration: 01:14:53</text><text fill="#5A5A5A" style="font-size:3px; font-family:Arial" x="75" y="125">Pace: 9:20/km</text><text fill="#5A5A5A" style="font-size:3px; font-family:Arial" x="75" y="129">Elevation: 0m</text><polyline fill="none" points="15.122107969596982,60.17526327926316 13.976863753516227,60.84594196858234 13.039845758816227,61.44955197587842 12.46722365077585,61.583687428501435 11.946658097906038,62.254364120803075 10.228791774250567,63.193309892725665 9.5,64.66879234023509 11.634318766184151,68.55867855148972 14.185089974664152,72.4485327769944 14.549485861323774,73.18626014245092 15.486503856256604,74.39344789541792 16.63174807233736,76.13715809985297 17.15231362497434,77.00901079198229 17.776992288185284,77.94792727881577 18.870179948862642,79.89281978801591 19.85925449896604,81.43531505804276 20.848329049069434,82.57541702507297 21.264781491365284,83.58138706715545 22.045629820320755,84.85561271649203 22.826478149509057,85.99570644070627 23.242930591572076,86.46515599920531 24.284061696846038,88.20882170950063 25.22107969177887,90.0195446832804 25.637532134074718,90.35486299198237 26.106041131541133,91.56200693556457 27.0951156814117,93.10446415861952 28.55269922898151,93.90922245258116 29.541773779084906,93.8421593135281 31.5199228792917,93.70803300736588 32.61311054020189,93.8421593135281 33.446015424327925,93.97628558176802 35.736503856256604,93.70803300736588 36.517352185212076,93.3727170752245 38.18316195369698,93.50684347658535 39.17223650403321,93.43978028051788 42.19151670974679,93.57390666307765 42.816195372957736,93.64096983990748 44.53406169684604,93.64096983990748 45.21079691522755,93.57390666307765 48.49035989725962,93.3727170752245 50.468508997466415,93.57390666307765 53.80012853466906,93.57390666307765 58.120822622207925,93.64096983990748 59.00578406173736,93.70803300736588 59.89074550126679,93.43978028051788 61.97300771204755,93.30565386038506 66.65809768624604,92.97033764299704 68.16773778945208,93.17152740200981 69.05269922874868,92.76914779862273 70.45822622114792,93.03740090539213 70.66645244229585,93.10446415861952 72.80077120824717,93.10446415861952 73.89395886892453,92.90327437128872 74.83097686362453,93.30565386038506 75.61182519281283,93.43978028051788 77.12146529578604,93.03740090539213 79.46401028265245,93.10446415861952 80.24485861184075,93.23859063585405 81.07776349596679,92.16557775207912 81.23393316217698,90.42192662533489 80.97365038562566,86.5322201839299 81.18187660654075,84.85561271649203 81.39010282768868,83.78258081886452 81.8586118251551,80.49640549262404 82.37917737779208,79.4233637075813 83.10796915157698,77.41140380033175 83.47236503846943,76.13715809985297 83.88881748053245,74.66171142214444 84.77377892006189,72.4485327769944 85.50257069407962,71.04014097552863 85.91902313614264,69.69881155193434 86.54370179958642,66.41253839043202 86.2834190230351,66.21133725129766 86.75192802050151,65.94306893245084 86.49164524418302,58.76683493680321 87.22043701796792,57.62667558825342 87.0642673522234,56.35237659353879 87.58483290486038,55.01100552207208 88.88624678668566,53.0660107122676 88.88624678668566,52.1941138911061 89.7191516708117,50.78566178519395 90.5,46.895629420585465 89.61503856047057,46.090791144175455 88.26156812347472,46.023721225967165 85.50257069407962,46.22493095207028 83.94087403593585,46.8285596165515 82.06683804630302,46.359070721722674 80.14074550126679,46.15786105298321 78.8913881748449,46.493210453452775 71.08290488435887,46.56028030515881 70.25,46.15786105298321 69.05269922874868,46.090791144175455 68.5841902315151,46.22493095207028 68.32390745496377,45.95665129821282 67.33483290509321,46.22493095207028 64.8361182520166,45.95665129821282 63.43059125961736,46.023721225967165 62.59768637549132,46.15786105298321 61.71272493596189,46.359070721722674 60.515424164710566,46.42614059240441 58.32904884335585,46.56028030515881 55.77827763510868,46.090791144175455 54.16452442179434,46.292000841669505 51.821979434462264,46.023721225967165 50.36439588689245,46.359070721722674 48.23007712094113,46.090791144175455 47.29305912624113,46.292000841669505 45.93958868901245,46.22493095207028 43.649100257083774,46.493210453452775 42.39974293089472,46.292000841669505 40.73393316217698,46.6273501473479 38.59961439599283,46.76148980285507 37.350257069570944,47.029769000277156 36.04884318774566,47.029769000277156 34.0186375323683,47.767536008002935 32.092544987099245,48.57237143145176 31.311696658376604,49.17599710053764 30.478791773784906,49.712552604061784 27.563624678878114,51.590492073475616 25.637532134074718,53.40135521546472 17.776992288185284,58.56563054560684 16.111182519467548,59.4375156230235 15.070051414193586,60.64473846158944 16.319408740615472,60.98007759239408 16.423521851189435,61.38248423530604 13.768637532368302,63.32744485078729 13.143958869157359,65.07119584546308 13.196015424327925,67.01614129490918 13.560411311453208,67.82094396933098 14.705655527301133,69.96707774099195 16.007069409126416,69.43054521078011 17.516709511866793,67.95507761545014 19.911311054369435,65.60773331995006 21.99357326515019,63.39451231568819 24.336118252249435,61.919025893497746 25.012853470630944,62.65676967983018 24.23200514144264,63.52864721685182 23.815552699379623,65.74186759343138 25.22107969177887,66.68080644315341 27.043059126008302,66.21133725129766 27.61568123404868,65.07119584546308 27.407455013133585,63.79691690474283 26.41838046303019,62.99210738448892 24.960796915460378,62.85797233102494 24.54434447339736,61.784890536015155 27.0951156814117,61.784890536015155 30.062339331721887,62.9250398624863 32.92544987145811,62.72383723978419 37.14203084865585,63.32744485078729 39.84897172241472,62.85797233102494 44.32583547569811,61.784890536015155 50.624678663443774,60.51060274275369 52.082262211013585,60.37646698599565 55.62210796936415,60.37646698599565 58.90167095139623,60.51060274275369 62.025064267683774,61.04714538992266 63.58676092536189,61.44955197587842 70.0417737790849,63.32744485078729 74.51863753213547,67.284409005224 75.40359897189774,68.89401207232731 76.08033419027925,71.91200306135579 75.55976863764226,76.0030267740367 76.39267352200113,78.2832541440439 79.20372750656679,78.61858077137731 77.01735218497925,78.5515154650202 75.71593830315396,77.94792727881577 75.09125964017585,76.80781415954698 73.89395886892453,78.35031948846881 71.23907454987057,80.69760055633378 69.00064267357811,82.30715798577876 68.5841902315151,86.19689916583593 68.5321336761117,90.95843534870073 67.95951156807132,92.50089453984401 66.03341902326792,92.366767853091 64.52377892052755,92.23264112867764 59.994858612073585,92.2997044956137 58.641388174612075,92.16557775207912 58.53727506427094,89.88541729332064 58.48521850910038,86.73341268062359 58.58933161967434,85.59332073407131 58.7455012856517,82.57541702507297 57.13174807210453,82.17302840921911 54.372750642709434,82.03889879462076 53.435732648009434,82.24009320221376 51.665809768717736,82.10596360673662 51.09318766067736,82.7095464875456 50.83290488435887,86.06277069204953 50.83290488435887,88.7453329426935 51.04113110573962,92.23264112867764 45.627249357290566,92.70208449830534 43.70115681248717,92.43383120119688 41.98329048859887,92.366767853091 41.25449871504679,91.09256243452546 41.04627249366604,82.4412875243579 39.328406169777736,79.82575466210255 38.33933161967434,79.6916243818414 37.55848329071887,78.2832541440439 36.257069408893585,75.46650108959875 33.55012853513472,72.78386354024406 31.051413881825283,72.04613554722164 28.760925450129434,71.64373797507142 26.991002570837736,71.91200306135579 24.700514138909057,72.98506188407191 22.982647815253586,73.78985440396355 21.212724936194718,72.98506188407191 19.598971722647548,73.92398635760765 17.933161954162642,74.86290896727587 16.21529563004151,74.59464555463637 13.768637532368302,70.90600820429972 13.40424164547585,70.83894180424977 11.842544987564906,68.08921122326865 10.020565552869812,64.93706138175912 10.437017995165661,63.66278207988944 15.382390745682642,59.974059487343766 14.549485861323774,62.388499345222954 13.300128534901887,64.86999413577723 14.86182519281283,69.16227871744195" stroke="#4DD2FF" stroke-linecap="round" stroke-linejoin="round" stroke-width="0.5"><title>2024-12-01 8.01km</title><desc>13020436146</desc></polyline></svg>