<?xml version="1.0" encoding="utf-8" ?>
<svg baseProfile="full" height="130mm" version="1.1" viewBox="0,0,100,130" width="100mm" xmlns="http://www.w3.org/2000/svg" xmlns:ev="http://www.w3.org/2001/xml-events" xmlns:xlink="http://www.w3.org/1999/xlink"><defs /><rect fill="#222222" height="130" width="100" x="0" y="0" /><text fill="#FFFFFF" style="font-size:6px; font-family:Arial; font-weight:bold;color:#0ed45e;" x="5" y="10">邯郸村跑 赵苑公园村跑恢复</text><text fill="#FFFFFF" style="font-size:4px; font-family:Arial" x="5" y="121">Runner</text><text fill="#FFFFFF" style="font-size:6px; font-family:Arial" x="2" y="128">蓝皮书</text><text fill="#FFFFFF" style="font-size:4px; font-family:Arial" x="25" y="121">WORKOUTS INFO</text><text fill="#FFFFFF" style="font-size:3px; font-family:Arial" x="25" y="125">Type: Run</text><text fill="#FFFFFF" style="font-size:3px; font-family:Arial" x="22" y="129">Date: 2024-09-08</text><text fill="#FFFFFF" style="font-size:3px; font-family:Arial" x="47" y="125">Distance: 21.63 km</text><text fill="#FFFFFF" style="font-size:3px; font-family:Arial" x="47" y="129">Duration: 02:25:51</text><text fill="#FFFFFF" style="font-size:3px; font-family:Arial" x="75" y="125">Pace: 6:44/km</text><text fill="#FFFFFF" style="font-size:3px; font-family:Arial" x="75" y="129">Elevation: 0m</text><polyline fill="none" points="29.669272389030084,60.3889236143732 29.915109482361004,60.81774380870047 30.50511850602925,61.36908348632278 30.357616250170395,61.491603327478515 30.50511850602925,61.2465636137058 31.045960111077875,61.062783744884655 31.14429494831711,60.75648380469647 31.930973646929488,60.08262323695817 32.86515460116789,58.8574197414855 33.405996206216514,58.48985807277495 33.45516362506896,58.12229611817747 33.20932653173804,56.958348041487625 33.11099169426598,56.10070025426103 33.20932653173804,55.610615105280885 33.602665880927816,55.12052944759489 34.04517264873721,54.99800795363262 34.24184232321568,54.81422565327375 35.07768844044767,53.77279126647045 35.66769746411592,52.79261562798638 35.91353455744684,52.24126593730762 35.962701976066455,51.812437955115456 35.81519971997477,51.13856462488184 35.07768844044767,49.913337924401276 34.88101876573637,48.68810804525856 35.07768844044767,48.13675356225576 35.37269295216538,47.70792185291066 35.76603230135515,47.27908975403989 36.3560413250234,47.03404266553116 36.454376162495464,46.85025726578897 36.405208743875846,46.66647179448046 35.32352553354576,45.747543364879675 35.274358114926144,45.134923418285325 34.83185134711675,44.767351069051074 34.782683928497136,44.33851629967103 34.4876794165466,43.603370075055864 33.99600523011759,43.1132719560992 33.7501681370195,42.561910964519484 33.405996206216514,42.25559902412351 33.25849395035766,41.64297454760526 32.963489438639954,41.397924534394406 32.963489438639954,41.27539948010235 33.20932653173804,40.78529894517851 33.11099169426598,40.29519790149061 33.160159113118425,39.98888449088554 33.30766136897728,39.682570881646825 32.76681976392865,38.5798402428627 32.471815251978114,37.41584399732528 32.52098267083056,36.6806869955326 32.76681976392865,35.88426561860251 32.7176523450762,35.2103695582482 31.980141065549105,33.556256968993694 31.980141065549105,33.2499391870806 32.07847590278834,33.2499391870806 31.88180622807704,33.06614842239651 32.02930848416872,33.67878402621136 31.980141065549105,33.740047542814864 32.17681074002758,33.67878402621136 32.02930848416872,33.67878402621136 32.12764332140796,33.740047542814864 32.27514557726681,33.2499391870806 32.471815251978114,33.06614842239651 32.6193175080698,32.45351202387246 32.52098267083056,32.085929803201 32.07847590278834,31.53455593579565 31.930973646929488,31.044445290783187 31.980141065549105,31.35076450346969 32.57015008921735,32.208457241911674 33.356828787596896,31.840874830522807 33.50433104368858,31.59581973060267 33.602665880927816,31.105709149327595 33.50433104368858,31.044445290783187 33.45516362506896,30.73812587937573 33.5534984623082,30.43180626918911 33.848502974025905,30.00295848120004 34.24184232321568,29.574110303772613 34.24184232321568,29.267789938516216 34.43851199792698,29.206525841582334 34.340177160687745,29.206525841582334 34.29100974206813,29.329054027446546 34.094340067356825,29.390318108547945 33.7501681370195,29.022733503312338 33.79933555563912,28.90020523799467 33.99600523011759,28.83894109344692 34.14350748597644,28.593884435569635 34.094340067356825,28.103770738322055 34.19267490482889,27.981242234731326 33.897670392878354,27.91997797085787 33.5534984623082,27.552392221143236 33.602665880927816,27.552392221143236 33.45516362506896,27.36859923886368 33.45516362506896,27.18480618519243 33.50433104368858,26.939748668897664 33.602665880927816,26.87848426986602 33.5534984623082,26.817219863005448 33.848502974025905,26.87848426986602 34.782683928497136,27.552392221143236 35.12685585906729,27.674920836056117 35.274358114926144,27.613656532601453 35.520195208024234,27.062277442921186 36.06103681330569,26.510897709289566 36.3560413250234,26.449633254727814 36.700213255826384,26.633426594751654 36.94605034892447,26.57216215596418 37.29022227949463,26.082046360330423 37.388557116966695,25.714459179871483 37.585226791212335,25.653194621874718 37.831063884543255,25.653194621874718 38.6177425829228,26.020781850151252 39.011081932112575,25.836988271941664 39.7485932118725,26.020781850151252 40.97777867806144,25.95951733205584 41.076113515300676,25.95951733205584 41.22361577139236,26.143310862709768 41.27278319001198,26.69469102541916 41.46945286449045,27.12354181794217 41.51862028311007,27.42986357427435 41.22361577139236,27.79744941930403 41.32195060886443,27.91997797085787 41.51862028311007,28.042506490513915 43.09197767986916,28.042506490513915 44.32116314629093,28.16503497841768 45.4520137750078,27.001013059925754 46.09119021752849,26.87848426986602 46.28785989200696,26.939748668897664 46.53369698533788,27.246070544264512 46.63203182280995,27.674920836056117 46.87786891590804,27.858713699155487 48.156221800716594,28.287563434569165 49.287072429666296,28.471356058958918 49.63124436000362,28.716412780369865 49.87708145333454,28.77767694083741 50.024583709426224,28.41009185864823 50.12291854666546,27.246070544264512 50.31958822114393,26.143310862709768 50.467090477235615,24.121578090940602 50.56542531447485,23.876518984907307 50.61459273309447,23.01881111221155 50.56542531447485,22.467426657123724 50.61459273309447,22.161101681704167 50.221253383904696,21.36465581532684 50.17208596528508,20.935799792496255 50.36875563976355,20.32314765546471 50.76209498895332,19.955555991793517 51.20460175676271,19.771760052710306 51.647108524804935,19.833025373634882 52.089615292614326,20.016821289085783 52.38461980456486,20.38441290499759 52.2862849670928,20.200617132824846 52.6796243165154,20.32314765546471 53.023796246852726,20.690739033016143 53.17129850271158,20.813269428617787 54.35131655051373,21.05833012450603 54.64632106246427,21.24212556279963 54.74465589947067,21.24212556279963 54.203814294422045,21.05833012450603 54.05631203856319,20.935799792496255 55.48216717946343,21.119595278491033 56.17051104037091,20.8745346145879 57.252194250700995,20.8745346145879 57.79303585574962,20.690739033016143 57.940538111608475,20.506943380110897 58.08804036770016,19.833025373634882 58.08804036770016,19.465433328296058 57.5471987624187,19.465433328296058 57.498031343799084,18.423920979344985 57.252194250700995,18.17885891647893 57.30136166932061,17.93379672599258 57.694701018510386,17.75 58.13720778631978,17.87253115864587 58.23554262355901,18.056327837111894 58.72721680998802,18.11759338073898 58.874719066079706,18.423920979344985 59.317225833656266,18.607717443315778 59.66139776445925,18.485186475212686 60.15307195088826,17.995062285626773 60.69391355593689,17.995062285626773 60.792248393408954,18.11759338073898 60.743080974556506,18.73024837928824 60.93975064926781,18.91404472402064 61.480592254316434,18.423920979344985 61.97226644074544,18.36265547547373 62.414773208554834,18.546451963222353 62.95561481360346,19.15910640533548 63.49645641888492,19.220371805946343 64.18480028002523,19.649229386850493 65.16814865288325,19.587964041915257 66.54483637516387,18.97531015641289 67.0856779802125,18.97531015641289 67.7740218413528,19.15910640533548 67.92152409721166,19.281637198408134 68.11819377192296,20.078086578228977 68.36403086525388,20.629473823384615 68.80653763283044,20.752004234906053 68.95403988892213,20.690739033016143 69.44571407535113,21.42592092975974 69.54404891259037,21.793511448893696 69.54404891259037,22.344896690745372 69.44571407535113,22.835016365424963 69.29821181925945,23.263870663387934 69.74071858730167,23.876518984907307 70.33072761120275,24.182842847512802 69.88822084316052,24.244107596139656 69.88822084316052,24.48916651136824 69.98655568039976,24.48916651136824 69.78988600592129,24.97928396044881 69.93738826178014,25.653194621874718 69.49488149397075,26.265839843428694 69.19987698225304,27.001013059925754 68.90487247030251,27.307334895507665 69.10154214478098,27.613656532601453 69.05237472616136,27.91997797085787 68.85570505145006,28.042506490513915 68.7082027955912,28.348827650537714 68.36403086525388,28.716412780369865 67.82318925997242,29.083997624053154 67.18401281745173,29.329054027446546 66.69233863125555,29.022733503312338 66.24983186321333,29.329054027446546 65.80732509540394,29.329054027446546 65.56148800230585,29.206525841582334 65.46315316460095,29.022733503312338 65.11898123426363,28.655148612044286 64.3814699545037,28.16503497841768 63.69312609336339,27.981242234731326 62.95561481360346,27.981242234731326 62.21810353407636,28.16503497841768 61.52975967293605,28.716412780369865 61.13642032374628,28.83894109344692 59.95640227640979,28.655148612044286 59.51389550836757,28.716412780369865 58.72721680998802,29.022733503312338 58.38304487941787,29.329054027446546 57.89137069298886,29.45158218150027 57.4488639254123,29.206525841582334 57.006357157370076,28.77767694083741 56.71135264541954,28.90020523799467 55.826339109800756,28.593884435569635 56.514682970708236,28.77767694083741 56.66218522679992,28.716412780369865 57.252194250700995,28.96146937450976 57.5471987624187,29.206525841582334 57.989705530460924,29.390318108547945 58.53054713550955,29.267789938516216 59.563062926987186,28.655148612044286 60.054737113416195,28.593884435569635 60.49724388145842,28.655148612044286 61.234755161218345,29.14526173681952 61.57892709155567,33.31120275927242 61.13642032374628,34.352682272321545 60.84141581179574,34.16889193683164 60.39890904398635,34.107628475903766 60.054737113416195,34.29141883511329 59.858067438937724,34.9653162068862 59.41556067112833,35.88426561860251 59.366393252508715,36.496897566335974 58.923886484699324,37.1095287190692 58.77638422860764,37.23205485424842 58.28471004241146,38.028473958023824 57.940538111608475,39.682570881646825 57.79303585574962,40.78529894517851 57.743868437130004,40.969086705415975 57.15385941346176,41.7042370311392 57.05552457598969,42.01054932898842 57.39969650655985,42.806960373651236 58.03887294908054,43.297058810450835 58.23554262355901,43.603370075055864 58.33387746079825,44.5223026771273 58.28471004241146,45.19618544867262 58.33387746079825,45.87006725880201 58.28471004241146,46.17637685453519 58.4813797166571,46.7277336261468 58.82555164746009,47.15656622569077 59.26805841526948,47.34035150636919 59.66139776445925,47.40161325063673 60.10390453226864,47.83044523818535 60.300574206747115,48.50432328906027 60.2514067881275,49.239461884164484 60.49724388145842,49.54576929434552 61.1855877423659,49.97459933508071 61.52975967293605,51.261087120103184 61.28392257960513,52.363788146467414 61.431424835696816,53.2214427201252 61.431424835696816,53.589008489245316 60.743080974556506,54.87548642791808 59.858067438937724,55.85565774329007 59.66139776445925,56.16196086228592 59.563062926987186,56.897087536839535 59.41556067112833,57.08086902659852 59.66139776445925,57.50969222499407 60.054737113416195,57.75473387751845 60.054737113416195,58.06103576475289 59.71056518307887,58.42859776710975 59.75973260169849,58.796159483201336 60.00556969479658,58.55111837084405 60.34974162536673,58.6123786609387 60.546411300078034,58.8574197414855 60.93975064926781,59.53128205728717 61.13642032374628,60.75648380469647 60.93975064926781,61.2465636137058 60.15307195088826,61.98168237353093 60.054737113416195,63.880733873316785 59.808900020318106,64.860886498529 57.940538111608475,64.92214597013663 57.20302683208138,65.16718377661891 56.90802232013084,65.4122214562085 56.514682970708236,66.02481509881909 56.36718071508221,67.25" stroke="#4DD2FF" stroke-linecap="round" stroke-linejoin="round" stroke-width="0.5"><title>2024-09-08 3.24km</title><desc>12354820878</desc></polyline><polyline fill="none" points="74.52026831038529,110.07485013447877 74.30489485131693,110.31637024084921 74.10387962291134,110.41476707866968 73.84543147208751,110.45949286763062 72.66805656271754,110.12852134233981 72.27320522116497,110.11957614392304 71.86399564903695,110.19113769870455 71.42606961567071,110.11063094436395 71.12454677303322,109.94067193204683 70.88045685281395,109.66336948628305 70.8948150833894,109.1087612488991 70.80148658447433,108.96563581829105 70.32048585932353,108.67043867935718 70.09793328499654,108.41996738851594 69.70308194341487,108.31262227101979 68.1236765772046,108.63465712207835 67.8939448875899,108.74200173816644 67.23346627992578,109.25188638239342 66.59452501812484,109.47551880870014 66.24992748367367,109.49340937147645 65.90532994925161,109.43973766922863 65.16588107324787,109.03719857073156 64.90025380710722,108.72411098045268 64.58437273383606,108.06214968031418 64.51976069615921,106.9976310181446 64.3402828136459,106.55929502698564 64.1895213923417,106.41616430383147 63.95978970269789,106.23725048205961 63.71569978244952,106.12095624890935 62.20808556926204,105.85258419297315 61.38966642494779,105.58421109233313 60.40612762872479,104.97589486314973 59.97538071064628,104.55543786175258 60.57842639592127,103.79503038935218 60.7866207396728,103.58927163148473 61.102501812943956,103.4014044031428 61.19583031182992,103.24037494283402 61.15275562001625,102.7214996785915 60.81533720085281,101.6658448440212 60.82969543148647,101.2185285971791 60.915844815113815,100.91435189129697 61.037889775208896,99.80499017811235 61.820413342968095,99.16978309462866 61.748622190003516,98.758237352391 61.885025380703155,98.38247605052311 61.856308919523144,97.72041543928208 61.942458303121384,97.3357016223672 61.87784626544453,97.1030829239171 61.885025380703155,96.61994927252817 61.497353154438315,96.51258577898989 61.14557650469942,96.3246992628774 60.95891950689838,95.85945425678801 60.82969543148647,95.78787782326253 60.51381435821531,95.72524838295794 60.334336475702,95.24210507347016 60.20511240029009,95.13473943365534 59.5518129079137,95.36736477519298 59.15696156633203,95.68946010583022 57.72831762145506,96.03839501539915 56.76631617115345,96.11891820520395 56.04122552575427,95.86840130577184 55.452538071083836,95.5820951628848 55.165373459021794,95.41210032781237 55.064865844818996,95.3136820737709 55.050507614185335,95.09000370103604 54.971537345903926,95.01842646844307 54.10286439448828,94.67843359853578 53.786983321246225,94.47264762565464 53.083430021768436,93.42581381602213 53.00445975342882,93.37212960229226 52.85369833212462,93.07686567938072 52.451667875255225,92.55791390091326 52.308085569238756,92.28054152028926 52.23629441624507,92.20001384587522 51.9922044959967,92.11948607736122 51.70503988399287,91.94948270147142 51.61171138504869,92.0479057596749 51.41787527195993,92.19106632067997 51.11635242929333,92.52212397904077 50.979949238564586,92.79054793998512 50.92969543146319,93.15739232926717 50.326649746188195,93.79265482393384 49.860007251641946,94.74106399006268 49.74514140680549,94.83948306176899 49.57284263960901,94.84843024315342 49.429260333563434,94.92895482319 49.15645395213505,95.33157631223003 48.531870920967776,95.77893076385226 48.31649746189942,95.78787782326253 48.00061638868647,95.6536718100906 47.813959390856326,95.52841262867878 47.69909354604897,95.38525899974775 47.533973894111114,94.81264151070354 47.39757070338237,94.64264477783581 47.297063089179574,94.40106975194794 47.23245105147362,93.75686554324784 47.332958665676415,93.25581366246479 47.28988397386274,93.05897085549805 47.332958665676415,91.88684977307275 47.533973894111114,91.2068314579301 47.26116751268273,91.0547211796511 47.17501812908449,90.9384013285453 47.22527193618589,90.43732895622088 47.21091370555223,89.47096480672917 46.85195794055471,88.85355839440308 46.722733865113696,88.73723482788773 46.4714648295776,88.69249494232645 46.205837563436944,88.75513077399228 46.11250906452187,88.84461043470947 45.78226976067526,88.97882970797946 45.301269035524456,89.30990279764956 45.10025380708976,89.49780843830376 44.834626540978206,89.92730512154958 44.15978970268043,90.0436266792749 43.65725163160823,90.29416475210746 43.42751994196442,90.62523152276844 43.27675852066022,91.16209317563334 43.047026831045514,91.63631749026536 42.8675489485031,91.75263616338634 42.40808556924458,91.70789823542145 42.04912980418885,91.61842229235481 41.711711385054514,91.42157480865717 41.130203045671806,90.91155825808528 41.07994923857041,90.80418587175518 40.87893401016481,90.63417925127578 40.62766497459961,90.17784361726808 40.36921682380489,89.85572252688871 40.290246555465274,89.66781786215142 40.30460478606983,89.42622539751756 39.92411167512182,88.66565099702711 39.766171138500795,88.50458710578823 39.25645395214087,88.17351014709857 38.84724437998375,87.76189873714611 38.41649746190524,87.48450705232972 38.00010877446039,87.4039737734347 37.461675126920454,87.3860774764471 37.23194343727664,87.43976635346917 37.13861493836157,87.78874303447083 37.15297316896613,88.03034123987891 37.55500362580642,89.3188506969309 37.51910804930958,89.65887000820658 36.6935097896785,92.58475633008493 36.53556925308658,92.98739151359041 36.40634517764556,93.08581308955763 36.22686729513225,93.47055062883737 36.11200145029579,93.55107681874506 36.14071791150491,93.50634005819302 35.8607324147888,93.47949798790069 35.458701957948506,93.34528747975855 35.19307469180785,93.33634010326205 34.76232777372934,93.20212931631977 34.20235678026802,93.13949752630288 33.49880348079023,92.94265438713774 32.73063814357738,92.87107492440555 31.632233502547024,92.66528355497576 31.10815808555344,92.47738655057765 30.77791878170683,92.40580660461274 29.011856417695526,91.6900030560937 28.387273386499146,91.70789823542145 27.28886874546879,91.9136924636623 25.88176214651321,92.25369897262863 25.77407541696448,92.00316802337329 25.745358955755364,91.59157948676147 25.616134880343452,91.22472676271718 25.422298767225584,90.15100025056745 25.25,89.56939140474424 25.25,89.48886056226911 25.47973168961471,89.29200699564535 25.48691080493154,88.79092265221698 25.551522842637496,88.83566247386625 25.565881073242053,88.98777765024715 25.752538071072195,89.1935800014544 25.86022480056272,89.4441211646772 26.176105873804772,89.63202643937257 26.355583756347187,89.6051828600539 26.6355692530924,89.38148595927487 26.78633067436749,89.32779859504808 27.99242204494658,89.4530690465399 28.207795503985835,89.34569438777544 28.717512690345757,88.880402266499 28.990319071803242,88.79092265221698 29.45696156634949,88.76407874529104 29.62208121828735,88.67459897996741 29.808738216088386,88.43300303328579 29.959499637421686,88.32562678511022 30.74202320520999,88.16456209911121 30.950217548932415,88.03928930530674 31.21584481507307,88.01244510555989 31.36660623640637,87.74400253310887 31.44557650468778,87.44871449556376 31.409680928190937,87.01920236396109 31.244561276311288,86.71496298428247 31.28045685280813,86.59863580764795 31.675308194331592,86.38387742715713 32.106055112410104,85.90961696584418 33.089593908604,85.20269437018578 33.742893401009496,85.09531308825535 34.43208846991183,84.71947728364466 34.884372733853525,84.54050713237666 34.95616388684721,84.56735268468765 35.04231327047455,84.6926317905818 35.25050761422608,85.26533337402361 35.48023930384079,85.39061121088889 35.72432922406006,85.65011457700166 36.06892675854033,86.41072226130927 36.37044960114872,86.74180768945371 36.56428571426659,86.73285945553653 37.12425670772791,86.40177398440574 37.1960478607798,86.52704975517554 37.160152284253854,86.82234174221958 37.1960478607798,86.93866854121006 37.48321247281274,87.14447701222525 38.445213923143456,87.52924772220285 38.789811457594624,87.75295063568774 39.859499637415865,88.62985905374808 40.275888324860716,89.4083296257013 40.275888324860716,89.69466141706653 40.72099347351468,90.3389035978471 40.893292240740266,90.67891787626286 41.51069615664892,91.296307935394 41.7835025380773,91.5110510072991 42.06348803482251,91.66316027841822 42.70960841188207,91.77947890625364 42.939340101525886,91.74368858013622 43.1188179840392,91.5736842772385 43.49213197969948,90.62523152276844 43.67878897752962,90.34785136352002 44.210043509781826,90.06152228610881 44.81308919505682,89.93625294063531 45.20076142132166,89.4083296257013 46.05507614213275,88.82671451187343 46.521718636679,88.69249494232645 46.658121827378636,88.71039090003615 46.78016678750282,88.79092265221698 47.2037345902645,89.39043384926481 47.23245105147362,90.39259017436416 47.153480783163104,90.92945363953913 47.51243654824793,91.21577911091299 47.347316896310076,91.81526921378827 47.304242204496404,93.30055058560538 47.23963016679045,93.73897089597449 47.26116751268273,94.40106975194794 47.49089920229744,94.80369432469888 47.64166062363074,95.37631188804517 47.78524292964721,95.5820951628848 47.993437273369636,95.70735424672603 48.194452501804335,95.80577193863428 48.531870920967776,95.8147189945521 49.106200145033654,95.40315321962407 49.465155910060275,94.9557963289626 49.752320522093214,94.86632460240071 49.931798404606525,94.6694863951052 50.34100797679275,93.84633871010737 50.678426395956194,93.49739270260761 50.90097897025407,93.34528747975855 51.008665699802805,93.11265531314712 51.123531544581056,92.60265127709863 51.57581580855185,92.11053854171041 51.75529369106516,92.03001066866273 52.1932197244314,92.21790889276599 52.315264684555586,92.31633156763564 52.97574329224881,93.40791908275423 53.80134155182168,94.52633098217484 54.3110587381816,94.80369432469888 54.92128353880253,95.01842646844307 55.00743292237166,95.11684514411172 55.021791153005324,95.25999933051207 55.165373459021794,95.4299945407256 55.92635968091781,95.82366604934214 56.75913705583662,96.10997118877276 57.52012327773264,96.11891820520395 58.25957215370727,95.96681876769435 59.12824510515202,95.70735424672603 59.695395213901065,95.3136820737709 60.197933285002364,95.1615808593051 60.31997824512655,95.25105220257683 60.49945612763986,95.72524838295794 60.94456127626472,95.87734835355513 61.102501812943956,96.35154022512143 61.38966642494779,96.52153274317243 61.734263959369855,96.59310841482511 61.8706671500986,96.68257789986092 61.920920957199996,97.3535953358878 61.849129804206314,97.67568138485512 61.885025380703155,98.2035413772901 61.741443074686686,98.63298381269124 61.84195068891859,99.0892634688571 61.798875997104915,99.21451617944695 61.210188542405376,99.62605919750058 61.080964466993464,99.76920401914685 60.86559100798331,101.16485045249283 60.87277012330014,101.8805556115476 61.13839738941169,102.78412276252493 61.174292965908535,103.15986007159518 61.07378535170574,103.38351225945371 60.7363669325714,103.57137953655183 60.492277012293926,103.79503038935218 60.13332124729641,104.26916779772728 59.97538071064628,104.60911336643039 60.327157360414276,104.95800312809297 61.60503988398705,105.72734354266868 63.514684554043924,106.1388476821594 63.90953589559649,106.28197898102371 64.19670050760033,106.48772970254504 64.38335750543047,106.71137109472329 64.45514865842415,106.87239244791999 64.51976069615921,107.26599861693103 64.5412980420515,108.06214968031418 64.63462654096656,108.41102196843713 64.77102973169531,108.733056359888 65.18023930382333,109.171378531355 65.7761058738106,109.49340937147645 66.19249456128455,109.56497157614649 66.58016678754939,109.55602630460635 67.14013778101071,109.38606592523138 68.03034807831864,108.75989249129634 68.54006526467856,108.6525479030388 68.64057287888136,108.58098475136649 69.76769398114993,108.38418570125941 70.07639593907516,108.46469447147683 70.27023205222213,108.69727483513998 70.66508339374559,109.0193078895827 70.87327773749712,109.72598626506806 71.18915881073917,110.03906930602534 71.51221899929806,110.17324731696863 71.85681653372012,110.20902807576931 72.57472806383157,110.11063094436395 73.12751994200516,110.24480881605996 73.62287889773143,110.43265739773778 73.99619289339171,110.45054771213472 74.18284989122185,110.38793159135821 74.43411892675795,110.20008288782265 74.75,109.77965774448967 74.73564176939544,109.66336948628305" stroke="#FFFF00" stroke-linecap="round" stroke-linejoin="round" stroke-width="0.5"><title>2024-09-08 21.63km</title><desc>12354043507</desc></polyline></svg>