<?xml version="1.0" encoding="utf-8" ?>
<svg baseProfile="full" height="130mm" version="1.1" viewBox="0,0,100,130" width="100mm" xmlns="http://www.w3.org/2000/svg" xmlns:ev="http://www.w3.org/2001/xml-events" xmlns:xlink="http://www.w3.org/1999/xlink"><defs /><rect fill="#222222" height="130" width="100" x="0" y="0" /><text fill="#FFFFFF" style="font-size:6px; font-family:Arial; font-weight:bold;color:#0ed45e;" x="5" y="10">热身塞天马 天马行空安全完赛</text><text fill="#FFFFFF" style="font-size:4px; font-family:Arial" x="5" y="121">Runner</text><text fill="#FFFFFF" style="font-size:6px; font-family:Arial" x="2" y="128">蓝皮书</text><text fill="#FFFFFF" style="font-size:4px; font-family:Arial" x="25" y="121">WORKOUTS INFO</text><text fill="#FFFFFF" style="font-size:3px; font-family:Arial" x="25" y="125">Type: Run</text><text fill="#FFFFFF" style="font-size:3px; font-family:Arial" x="22" y="129">Date: 2024-10-20</text><text fill="#FFFFFF" style="font-size:3px; font-family:Arial" x="47" y="125">Distance: 2.88 km</text><text fill="#FFFFFF" style="font-size:3px; font-family:Arial" x="47" y="129">Duration: 27:51min</text><text fill="#FFFFFF" style="font-size:3px; font-family:Arial" x="75" y="125">Pace: 9:40/km</text><text fill="#FFFFFF" style="font-size:3px; font-family:Arial" x="75" y="129">Elevation: 0m</text><polyline fill="none" points="25.948528524924768,48.78015053548734 25.518664817296667,48.04172220371038 25.35746592693613,47.56481523112234 25.25,46.795601602596435 25.285821975645376,46.510989795762725 25.261940658529056,45.41098958598013 25.285821975645376,44.6340529205263 25.363436256157,43.78017899809129 25.363436256157,43.51862934187375 25.339554939069785,43.00321897527465 25.41119889038964,41.34156415065809 25.40522856111056,40.83382613445792 25.452991195284994,40.53379689089343 25.46493185381405,39.902960760577116 25.54254613435478,39.56446030014558 25.56045712219202,38.51817279340685 25.626130744203692,38.07195580561893 25.697774695436237,37.895006673246826 25.78135930528515,37.510332654699596 25.805240622343263,37.21797857594356 25.86494391510496,37.04102665740356 25.870914244354935,36.83329975552624 25.918676878558472,36.67942746340486 25.89479556144215,36.5563293153682 25.954498854174744,36.41784356490098 25.9962911590992,36.18703319492852 25.9962911590992,35.83312205317634 26.115697744535282,35.117598994584114 26.139579061651602,34.85600756288113 26.055994451831793,33.89426351103975 26.139579061651602,33.786547115134454 26.408243878919166,33.586501812274946 26.867959232913563,33.178714871137345 27.33961524546612,32.96327902282792 27.75156796525698,32.89403160410802 27.83515257507679,32.83247826881052 27.882915209251223,32.74784231866579 27.54260644072201,31.69372896306959 27.49484380654758,31.455204120062263 27.429170184535906,31.347482879322342 27.351555903966073,31.016623444797006 27.12468339165207,30.40876015257527 26.945573513425188,29.83166844324296 26.778404293814674,29.216097183700185 26.724671330332058,29.139150284881907 26.551531781442463,28.60051893590571 26.497798818018055,28.338896064396977 26.533620793634327,28.12344098707399 26.473917500901734,27.538630033075606 26.533620793634327,27.453985819825903 26.682879025436705,27.35395157927269 27.554547099251067,26.94611776549209 28.294867929071188,26.676791867063002 28.396363526728237,26.669096821718995 29.35161621036241,26.26895295977738 29.536696417810163,26.22278232413737 29.739687613066053,26.107355563042802 30.06208539378713,26.015013977223134 30.044174405978993,25.984233413670154 30.145670003606938,25.930367385408317 30.28895790615934,25.899586773823103 30.50986008925247,25.78415932466305 30.712851284537464,25.745683453671518 30.832257869973546,25.668731629764807 31.190477626339998,25.56099889284451 31.739747919433285,25.314751833127957 31.894976480514742,25.222408897410787 32.02632372453809,25.09928473846594 32.21737426123582,25.03772255414151 32.283047883276595,24.95307443654383 32.36066216378822,24.92229327012319 32.492009407811565,24.79916842961393 32.539772041986,24.814559049995296 32.95769509105594,24.50674581284693 33.32785550595145,24.168149233522854 33.524876371986466,24.060413514805987 33.65025328670163,23.937286716987728 33.76368954288773,23.898809535352484 33.9726510673936,24.09889058177214 34.16967193342862,24.422096866248467 34.28310818961472,24.583699285954935 34.569683994719526,24.92998856338454 34.868200458353385,25.230104148071405 34.96969605595223,25.28397087204212 35.047310336492956,25.468656376502622 35.148805934150005,25.522522863466293 35.18462790976628,25.614865288058354 35.26224219033611,25.676426817062747 35.34582680015592,25.78415932466305 35.42344108069665,25.930367385408317 35.52493667832459,25.99962369764762 35.56075865396997,26.068879921382177 36.04435532508069,26.56906113309742 36.14585092267953,26.74604722584263 36.30107948379009,26.89225269282906 36.6712398986856,27.35395157927269 36.778705825592624,27.446290884818154 37.32200578940683,28.169610004290007 37.62052225304069,28.615908477277117 37.66828488721512,28.646687546919566 37.79366180195939,28.877530012228817 38.06232661922695,29.239181232031115 38.253377155953785,29.64699779912189 38.53995296105859,30.077894990423374 38.641448558686534,30.30103683305424 38.73100349778542,30.385676602127205 38.74891448559356,30.470316239072417 39.07728259562282,31.008929015333706 39.21460016886704,31.17051180499402 39.49520564469276,31.59370254375608 39.65043420577422,31.87069832990528 39.841484742530156,32.13999843221609 40.20567482811748,32.59395843454695 40.5161319503095,33.147938373793295 40.58777590160025,33.247961926357675 40.67136051142006,33.30182068593422 40.96987697502482,33.8019351848161 41.519147268118104,34.5174756017841 41.978862622141605,34.979109570296714 42.23558678085101,35.294557188801264 42.4087263297406,35.417658200738515 42.755005427548895,35.77157205363619 43.41771197685739,36.49478013658154 44.23564708721824,37.402623440608295 44.45654927028227,37.60265466797864 45.1073151610326,38.36430528126584 45.39986129538738,38.67203986903769 45.45956458809087,38.69511989273815 45.50135689301533,38.779746562264336 45.674496441934025,38.93361289586028 45.77002171028289,39.07978550849293 45.90733928355621,39.19518466122099 46.05659751538769,39.410595756129624 46.39093595466693,39.702938016547705 46.420787601033226,39.78756311367033 46.65363044265541,40.095289626518934 46.86259196719038,40.326083365464 47.2029007357487,40.810747020794224 47.34021830902202,40.94922155547465 47.51335785794072,41.28002040181673 47.608883126289584,41.60312430419435 47.84172596791177,42.0646979690282 47.90142926064436,42.31856181051262 47.961132553376956,42.38010438104902 48.11636111448752,42.80320766332443 48.28950066337711,43.62632641185701 48.39696659028414,43.94172374400296 48.623839102627244,45.0494461852868 48.74324568812153,45.21098715146218 48.67757206608076,45.33406565995392 48.659661078301724,45.51099052673453 48.659661078301724,45.887915492679895 48.695483053918,46.210991950545576 48.72533470028429,46.241761036664684 48.73727535884245,46.67252640991501 48.70742371247616,47.087904066229385 48.659661078301724,47.49558645117213 48.785037993016886,48.02633817325841 48.92235556629021,48.27248213705752 49.388041249563685,48.8724533702989 49.65073573755217,49.12628535626936 49.83581594499992,49.36473250374547 49.87760824992438,49.380116154698044 50.03283681103494,49.526260621136316 50.14627306719194,49.67240469393073 50.58210710409912,50.06468420598321 50.98211916536093,50.39542747316955 52.48067181283841,51.34918746521362 53.597123386804014,52.09526222367276 54.45685080208932,52.695191186056036 54.779248582810396,52.841326723511884 54.79118924133945,52.88747470618182 55.43598480281071,53.187435636969894 55.79420455917716,53.44124743707289 56.01510674224119,53.541233577816456 56.25989024245064,53.756587716688955 56.40317814500304,53.82580850841987 56.52258473043912,53.94117629833636 56.89871547461371,54.20267571408476 58.49876371969003,55.02562153432882 58.97639006152167,55.225587792774604 59.13161862260313,55.31787966352567 59.28684718371369,55.34864358557388 59.3704317935335,55.41017137732342 60.140604269719915,55.617827159399894 61.376462429150706,55.86393668692472 62.60037993005244,56.15619030112066 63.310849113506265,56.28693482948802 63.57951393080293,56.371534062345745 64.63626221206505,56.46382398411515 64.8213424195128,56.44844234135962 65.92585333497846,56.502278071850014 66.03331926185638,56.45613316327581 66.23631045717048,56.47151480383036 66.4870642866008,56.51765969929693 66.69602581116487,56.502278071850014 66.98260161621147,56.65609415031577 67.72292244606069,56.84067286903519 67.84232903149677,56.848363635348505 68.77370039804373,57.14830267168509 68.83340369077632,57.20213770783812 68.85728500786354,57.32518901854564 68.65429381257854,57.92506016254265 68.47518393440987,58.786402003799594 68.42742130023544,58.870997340225586 68.27219273912488,59.85536974185379 68.21248944639228,60.439832407533686 68.19457845861325,60.83972428906418 68.2065191171423,61.10119046464388 68.24831142203766,61.03197895252379 68.29010372696212,60.370620051991864 68.37368833678192,59.63234943397765 68.43339162948541,59.27090078179026 68.64235315402038,58.9171401954045 68.8095223736891,58.27882721603601 68.87519599570078,58.14808748665382 69.11997949585202,57.34826110823269 69.10803883732297,57.27904480973302 69.1856531178637,57.14830267168509 69.22744542275905,56.948343498323084 69.27520805693348,56.88681745059148 69.25729706912534,56.81760056351777 69.53193221567199,56.10235422729966 69.7886563744105,55.14867778058397 69.89612230131752,54.441100553664 69.94388493549195,54.325733826626674 70.25434205768397,54.24113140424015 70.85734531420167,54.179602286916634 71.2215353998763,54.11038194654975 72.41560125438264,54.03347035369734 73.18577373056905,54.018088022035954 73.64548908456345,54.03347035369734 73.83056929204031,54.071926163749595 74.26640332894749,54.04116151787821 74.75,54.071926163749595 74.65447473165113,54.03347035369734 74.61268242672668,53.9796321738213 74.55894946330227,54.010396854562714 73.93206488966825,53.94117629833636 73.68131106020883,53.96424982690587 73.59175612110994,53.933485119981924 71.56184416837641,53.99501451636024 71.23944638765533,54.05654384299123 70.99466288747499,54.05654384299123 70.94092992402148,54.087308480138745 69.76477505729417,54.19498457279042 69.59163550840458,54.24882253898613 68.3796586660319,54.39495389227886 66.81543239660095,54.51801156875081 66.72587745750207,54.556467035392416 65.94973465206567,54.571849214451504 65.89003135933308,54.59492247484741 64.60641056569875,54.54877594426216 63.119798576808535,54.43340944614465 62.37947774695931,54.41802722787179 61.18541189242387,54.29496932465554 60.510764684615424,54.18729343040832 60.122693281882675,54.071926163749595 60.06298998917919,54.087308480138745 59.919702086626785,54.00270568599808 59.71671089134179,53.9796321738213 59.400283439899795,53.85657327636363 59.32863948857994,53.85657327636363 58.32562417082954,53.44124743707289 57.35246049935813,52.90285735836369 57.167380291910376,52.74903064038517 56.60616934025893,52.37215333823406 56.48676275482285,52.34138772863662 56.30168254734599,52.187559418856836 55.615094681008486,51.7645293182577 55.57330237608403,51.71838038046917 55.48971776626422,51.69530589687565 55.459866119897924,51.641465396958665 55.1792606440722,51.46456052110079 55.0658243879152,51.46456052110079 55.05388372938614,51.44148592953934 55.00015076590353,51.44917746114879 54.79118924133945,51.29534662185324 53.93743215536233,50.92615082805787 53.44189482572256,50.61848574750911 52.90456519118743,50.16467656916211 52.88665420335019,50.08006765846949 52.81501025208854,50.00315035244057 52.31947292247787,49.64932934017634 52.00901580028585,49.32627335729558 51.525419129175134,48.887837160811614 51.49556748283794,48.818610069094575 51.238843324099435,48.56477664360136 51.16719937280868,48.410937625933 51.0477927873726,48.28017411792098 50.7313653359015,47.68019633473523 50.55225545773283,47.21097831659063 50.36717525028507,46.54945093798597 50.134332408662885,45.86483852921447 50.14030273791286,45.72637654224309 50.038807140284916,45.24944921536007 50.014925823168596,44.87251981323061 49.97313351830235,44.78021017266292 49.668646725360304,42.82628592927358 49.626854420494055,42.66473786150527 49.25072367629036,41.741596816045785 48.99399951758096,41.31848525303576 48.74921601737151,41.00307266793243 48.71339404172613,40.918449467200844 48.355174285388784,40.5645691973732 48.337263297551544,40.503024566929525 48.170094077911926,40.326083365464 48.11039078520844,40.187607239946374 48.050687492475845,40.16452785130605 48.02083584610955,40.0568239078857 47.91336991920252,39.94911975059949 47.79993366301642,39.67216522124727 47.65067543121404,39.51060775937003 47.54320950427791,39.31827682020594 47.50141719938256,39.31827682020594 47.435743577370886,39.24134425358352 47.35812929683016,39.12594519904451 47.322307321213884,39.04131906965995 47.20887106502778,38.972079411058075 46.82079966229503,38.50278606183565 46.71930406469619,38.441239091891475 46.641689784126356,38.33353172645366 46.402876613195986,38.11811635388949 46.03271619830048,37.70267000501917 45.50135689301533,37.18720437070806 45.250603063585004,36.925622921258764 45.22075141724781,36.856380561694095 45.06552285613725,36.71789557733791 44.98790857556742,36.62557205803023 44.81476902664872,36.34090688404831 44.253558075026376,35.617696749188326 43.907278977218084,35.286863366287434 43.84160535520641,35.26378189215757 43.79384272103198,35.14837437421011 43.72219876977033,35.109905146960955 43.519207574485335,34.87908921057533 43.1848691352061,34.602108790160855 43.11322518394445,34.47131198880379 42.713213122682646,34.025061704149266 42.50425159811857,33.809629217987094 42.14603184175212,33.33259709595586 41.90721867085085,32.94789071520063 41.829604390310124,32.87864327682837 41.84751537811826,32.755536501405004 41.757960439048475,32.64781784365914 41.6922868170368,32.61704104497403 41.340037389978534,32.07844424103678 41.31018574358313,31.978418531325588 41.244512121600565,31.916864156715747 41.22063080445514,31.839921090195276 40.922114340850385,31.416732272959052 40.522102279617684,30.87812354723428 40.414636352681555,30.708845414261305 40.42657701121061,30.670373037624813" stroke="#FFFF00" stroke-linecap="round" stroke-linejoin="round" stroke-width="0.5"><title>2024-10-20 21.71km</title><desc>12697158938</desc></polyline><polyline fill="none" points="25.40412558382377,76.17068240357912 25.30137519456912,76.30307191885368 25.25,76.46855870740546 25.27568759722635,77.1305046883499 25.429813181050122,77.59386575798271 25.378437986481003,78.35509980405914 25.352750389254652,78.88465245864063 25.40412558382377,79.21562225776142 25.327062791911885,79.48039775915095 25.378437986481003,79.81136671338754 25.327062791911885,80.04304470216448 25.40412558382377,80.27472246105026 25.352750389254652,80.44020643358817 25.40412558382377,80.6387870459148 25.352750389254652,81.0028510629927 25.429813181050122,82.4260049539298 25.352750389254652,82.82316263059329 25.40412558382377,83.35270514845615 25.30137519456912,84.21320917744015 25.352750389254652,84.27940166371991 25.327062791911885,84.77584471199953 25.378437986481003,84.97442163572123 25.327062791911885,85.07371003419394 25.327062791911885,85.43776713398984 25.558251167531125,86.09968767884129 25.994940321776085,86.59612685565662 26.09769071091432,86.82779811024375 26.200441100168973,86.89398985497246 26.45731707313098,87.32423573853157 26.688505448866636,87.55590627033962 26.81694343534764,87.88686377418344 27.099507005768828,88.15162943932228 27.150882200337946,88.28401215927443 27.382070576073602,88.48258609848563 27.45913336786907,88.64806425210554 27.690321743604727,88.87973347009392 27.87013492465485,89.14449800904549 28.024260508595034,89.27688016592583 28.075635703164153,89.40926224766008 28.25544888433069,89.74021712371905 28.409574468038045,89.83950349499355 28.666450441000052,90.13736235552642 29.07745199801866,90.83236488534021 29.385703165549785,91.13022247892513 29.411390762776136,91.29569875558082 29.514141152147204,91.36188923336158 29.82239231967833,91.79212688168627 30.259081473806873,92.28855395194842 30.567332641337998,92.85117002211337 30.901271406328306,93.28140492548118 31.158147379406728,93.51306954494794 31.72327451989986,94.37353611881554 32.262714063283056,94.96924188868434 32.64802802284248,95.33328355528647 32.67371562006883,95.43256754771573 32.930591593147255,95.73041927142185 32.930591593147255,95.82970309483062 33.084717176971026,95.99517604002904 33.3672807472758,96.39231063010811 33.4957187337568,96.49159417198098 33.57278152566869,96.69016112909594 33.77828230406158,96.95491680927807 33.93240788776893,97.05420011200476 34.00947067968082,97.28586098724918 34.08653347170912,97.31895537920354 34.24065905553289,97.58371034625452 34.497535028494895,97.81537069601472 34.677348209545016,98.11321937937464 35.21678775304463,98.77510398173763 35.422288531437516,99.13913971312286 35.80760249099694,99.60245709557785 35.987415672047064,99.96649153664475 36.167228853097185,100.13196154954494 36.835106382961385,101.09168531112664 37.16904514783528,101.45571742989705 37.70848469110206,102.21687366202241 37.96536066418048,102.54781038017245 38.11948624800425,102.61399766743125 38.17086144257337,102.71327856331482 38.402049818309024,103.11040172424691 38.556175402132794,103.24277596118918 38.58186299947556,103.34205658952123 39.09561494551599,103.90464601945132 39.63505448878277,104.66579426680983 39.81486766994931,104.8312609486602 39.917618059087545,105.06291410626727 40.27724442142062,105.5262197319098 40.354307213332504,105.72477900418744 40.71393357543275,106.08880389817932 40.79099636746105,106.08880389817932 40.842371562030166,106.25426957149466 41.047872340423055,106.48592131701298 41.17631032678764,106.75066588750633 41.45887389720883,107.0485031705175 41.69006227282807,107.44561895672814 42.229501816327684,108.07438423678104 42.35793980269227,108.3722198309406 42.48637778928969,108.47149827798421 42.48637778928969,108.53768388576282 42.92306694353465,109.00098261535459 43.4111312921159,109.69592898567498 43.770757654332556,110.12613284493273 43.95057083538268,110.42396582153742 44.31019719783217,110.78798338795605 44.490010378765874,111.08581552024407 44.66982355993241,111.21818523477123 45.02944992214907,111.81384802160028 45.5432018681895,112.4426015366771 45.620264660101384,112.60806270655303 45.77439024380874,112.7073393521714 45.87714063306339,112.87280033447314 46.18539180071093,113.00516903586686 46.57070576027036,113.33609046087076 46.776206538663246,113.33609046087076 46.95601971971337,113.40227468960802 47.98352361167781,112.87280033447314 48.497275557834655,112.37641703589179 50.1926569796633,111.38364727245062 51.01466009335127,110.68870592612075 51.75960041512735,110.15922541660257 52.29903995851055,109.82829948824656 52.68435391795356,109.49737309092598 52.73572911263909,109.43118775513722 52.73572911263909,109.36500240060559 53.686170212808065,108.63696226231696 54.045796575024724,108.40531265124446 54.66229891020339,107.94201273958606 54.81642449402716,107.94201273958606 54.893487285939045,107.80964116741961 55.76686559419613,107.08159617852652 56.12649195629638,106.81685198325431 56.383367929491214,106.6844797731028 56.563181110541336,106.4528282245301 56.71730669424869,106.38664202560904 57.02555786189623,106.1218970422342 57.1283082512673,105.95643127510266 57.38518422411289,105.85715175859514 57.667747794417664,105.59240617479372 57.7191229891032,105.59240617479372 57.74481058632955,105.69168580387486 57.7191229891032,105.69168580387486 57.770498183672316,105.72477900418744 57.975998962065205,105.72477900418744 58.69525168649852,106.58520056611451 59.1833160353126,107.37943303932843 59.56862999475561,107.87582696283062 60.26219512196258,109.00098261535459 60.673196678748354,109.46428042543994 60.87869745714124,109.92757731603342 61.03282304096501,110.09304026843165 61.135573430219665,110.32468820482609 61.36676180595532,110.52324339588813 61.495199792436324,110.75489090540214 61.520887389662676,110.88726080763445 61.72638816817198,111.18509281310253 61.88051375199575,111.2512776517251 62.13738972495776,111.58220156290918 62.317202906124294,111.48292443880928 62.342890503350645,111.74766334262677 62.317202906124294,111.81384802160028 62.419953295146115,111.84694035415305 62.47132848983165,111.91312500502681 62.72820446291007,111.94621732337691 62.70251686545089,112.01240194616548 62.805267254821956,112.04549425047298 62.959392838645726,112.37641703589179 63.26764400629327,112.7073393521714 63.42176959011704,113.07135335840576 63.93552153604105,113.79937966789294 64.0382719252957,113.79937966789294 64.24377270357218,113.99793190372293 64.5006486766506,114.52740370713582 64.60339906590525,114.62667953659547 64.65477426059078,114.82523106888402 64.6290866631316,114.89141487547022 64.6290866631316,114.82523106888402 64.60339906590525,114.82523106888402 64.65477426059078,114.85832297446905 64.6290866631316,114.79213915862783 64.65477426059078,114.79213915862783 64.68046185770072,114.89141487547022 64.73183705250267,114.89141487547022 64.91165023343638,114.9906905500975 65.01440062269103,115.15614991403709 65.2969641929958,115.42088465249981 65.50246497138869,115.7848944276775 65.52815256873146,115.9172614779527 65.88777893094812,116.38054556280258 66.06759211211465,116.81073710418423 66.35015568241943,117.14165313499689 66.73546964186244,117.73730080854148 67.0950960040791,118.13439841334184 67.12078360142186,118.23367270897143 67.48040996363852,118.49840395771025 67.63453554746229,118.73004355408193 67.81434872851241,118.79622625368938 68.14828749350272,118.82931759642088 69.22716658003628,118.26676413144742 70.25467047223356,117.50566022719431 70.69135962624568,117.04237837498658 70.92254800198134,116.91001196265279 71.10236118314788,116.77764547530387 71.23079916962888,116.77764547530387 71.38492475356907,116.7114622033987 72.79774260509294,115.65252730235807 73.49130773218349,115.25542547619261 73.8252464971738,115.1892417727795 73.85093409440015,115.12305805066717 74.39037363778334,114.72595532389823 74.54449922160711,114.49431175460631 74.75,114.4281278354465" stroke="#4DD2FF" stroke-linecap="round" stroke-linejoin="round" stroke-width="0.5"><title>2024-10-20 2.88km</title><desc>12696523217</desc></polyline></svg>