<?xml version="1.0" encoding="utf-8" ?>
<svg baseProfile="full" height="130mm" version="1.1" viewBox="0,0,100,130" width="100mm" xmlns="http://www.w3.org/2000/svg" xmlns:ev="http://www.w3.org/2001/xml-events" xmlns:xlink="http://www.w3.org/1999/xlink"><defs /><rect fill="#FAF9F5" height="130" width="100" x="0" y="0" /><g id="tracks"><polyline fill="none" points="9.5,65.85759032791975 10.016026279132348,66.01343348675437 10.290165239886846,65.58746140047879 10.282102329307236,65.0368108864568 10.225661954988027,64.52771521919203 10.048277921567205,64.0497854544301 9.903145530581241,63.53029304278607 10.104718295828206,63.12508640399028 10.54817837945302,62.75104751709296 11.064204658585368,62.35622661979869 11.515727652789792,61.95101348598837 11.975313557632035,61.58735876491119 12.394584909430705,61.1613609382257 12.870296635490377,60.714580067848146 13.378260003984906,60.35091920795094 13.878160461841617,60.028818081264035 14.20067688630661,59.582030302386556 14.490941668336745,59.13523979802994 14.861835556454025,58.69883713932359 15.248855265788734,58.2728225119572 15.660063706949586,57.87797747395962 16.151901254226686,57.56625620340492 16.587298427213682,57.244142830102646 17.038821421476314,56.828510577601264 17.50647023692727,56.496003077314526 18.038622337277047,56.319357853746624 18.594963169423863,56.163494067390275 19.175492733425926,55.99723899632227 19.69958192316699,55.71668270802911 20.17529364922666,55.36338807542779 20.651005375257228,55.0204828315691 21.102528369490756,54.7191405342528 21.489548078825464,54.37623227386939 21.828190324478783,53.98136622747552 22.231335855089128,53.66962837115716 22.763487955438904,53.420237130645546 23.255325502657797,53.233193142936216 23.81972924550064,53.13967096993292 24.43251045193756,53.03575730427838 24.98078837347566,52.81753812649549 25.521003384463256,52.62010116724559 26.045092574175214,52.48501241471968 26.5288672108436,52.24600862672378 26.964264383830596,51.84073955133499 27.46416484171641,51.612125237312284 27.93181365719647,51.32116053270147 28.45590284690843,51.11332789304288 28.939677483576816,50.853536263988644 29.41538920966559,50.63531058330409 29.883038025087444,50.37551725839148 30.326498108683154,50.07415584685077 30.761895281728357,49.74161767750047 31.17310372288921,49.440253657150606 31.60043798526749,49.45064554055716 31.95520605216734,49.75200951813167 32.261596655414905,50.178073715025675 32.5357356161403,50.63531058330409 32.785685845126864,51.08215294620459 33.06788771651918,51.5393841695477 33.35815249852021,51.913480319752125 33.60003981686896,52.39148928619397 33.8983675094787,52.81753812649549 34.22088393388549,53.26436717405886 34.46277125226334,53.74236732299323 34.744973123655654,54.15801709036896 34.986860441975296,54.64640255260747 35.34162850887515,55.11400260278606 35.623830380267464,55.63355471251998 35.930220983485924,56.0699756363465 36.107605016906746,56.58952096433495 36.44624726261827,57.07789021212375 36.80101532948902,57.38961356123036 37.050965558417374,57.83641471450392 37.429922357201576,58.262431880306394 37.82500497708679,58.68844656815054 38.23621341830585,59.083287236899196 38.534541110886494,59.509297150201746 38.9699382839317,59.872962188892416 39.38114672509255,60.24701577345695 39.74397770257201,60.61067714924866 40.09068285886315,61.04706841686857 40.49382838938618,61.51462760403956 40.88084809874999,61.86789256605698 41.31624527176609,62.314666401543946 41.654887517448515,62.782217497282545 42.033844316145405,63.19781596575194 42.37248656182783,63.582242449730984 42.83207246667007,63.97705673860037 43.219092175975675,64.45498697788571 43.64642643838306,64.91213472370873 43.97700577342766,65.35888999149756 44.29145928728394,65.74330513403402 44.58978697989369,66.23161335215991 44.9768066892284,66.65758169264882 45.315448934881715,67.16666255773453 45.54927334265085,67.74846492870711 45.78309775033267,68.27831663907273 46.02498506871052,68.77699710092566 46.26687238703016,69.29645230558526 46.35556440372602,69.84707080107182 46.5087597053498,70.46001859805983 46.62970336450962,71.02101717155892 46.782898666133406,71.60278893254872 46.895779414713616,72.11183543360676 47.0005972526269,72.55854679618642 46.98447143143858,73.10914077456982 47.202170017932076,73.46234982729948 47.34730240891804,73.9609950028098 47.47630897871568,74.5115784416048 47.694007565209176,75.04138124053861 47.879454509267816,75.59195656041993 48.11327891700785,76.14252774289344 48.29872586103738,76.630766651062 48.5244873581687,77.05667453102069 48.24228548674728,76.56843846099218 47.90364324109396,76.33990131032624 47.379554051382,76.54766238584125 47.54887517419411,77.01512265171186 47.895580330485245,77.39947663611383 48.16165638066013,77.83576790481311 48.54867608999484,78.19934197752445 48.919569978141226,78.56291424620576 49.29852677680901,78.87454618344054 49.68554648614372,79.05113702623203 50.08062910611625,79.40431743502268 50.54021501095849,79.79904646558134 50.975612183945486,80.08989807480975 51.402946446381975,80.38074852949649 51.8544694405864,80.65082291801082 52.289866613573395,80.94167114620359 52.71720087598078,81.23251821998565 53.16066095960559,81.50258946904796 53.587995221983874,81.8245961958819 54.02339239502908,82.10505251469294 54.442663746740436,82.41666938781418 54.918375472858315,82.66596193213627 55.41827593074413,82.9568021619707 55.902050567412516,83.22686705608066 56.37776229347219,83.50731800802168 56.85347401953186,83.85008993608062 57.24855663947528,84.17208634739654 57.66782799124485,84.52524207485112 58.09516225362313,84.79530118866387 58.61118853275548,85.02381196915667 59.11915190127911,85.24193523127178 59.61098944855621,85.44967106777767 60.07057535336935,85.78204718130291 60.594664543139515,86.04171497109928 61.06231335856137,86.25983520346927 61.58640254824422,86.22867521001172 61.77184949233197,86.29099518366274 62.30400159268174,86.39486168863368 62.82002787181409,86.46756815452682 63.36024288274348,86.6233674813775 63.84401751944097,86.83109940192662 64.31166633486282,86.97651139598747 64.88413298825617,86.97651139598747 65.40822217796813,87.1634692500811 65.91618554649176,87.34004011876095 66.44833764684154,87.38158614368149 66.67409914394375,87.61008885977208 67.22237706548185,87.70356703825382 67.76259207646945,87.75549930812122 68.22217798131169,87.70356703825382 68.75433008166146,87.75549930812122 69.30260800319957,87.82820442411321 69.83476010354934,87.6827941199881 70.35078638268169,87.6827941199881 70.8506868405384,87.73472640459659 71.39896476213471,87.75549930812122 71.85048775633913,87.90090946797136 72.17300418077502,87.80743154118682 72.52777224767487,87.90090946797136 73.01960979495198,88.1086377672691 73.5195102528669,88.11902416676458 73.97103324710042,88.42022911222011 74.51931116863852,88.52409259944397 75.0514632689592,88.64872858982562 75.47073462078697,88.79413697740529 76.00288672107854,88.96031763845531 76.54310173206613,89.00186274486623 77.09944256424205,89.09533914816711 77.60740593273658,89.26151912622299 78.09118056940497,89.41731251347665 78.64752140158089,89.42769872753706 79.26836551862652,89.49001598086033 79.84083217201987,89.59387795201474 80.39717300419579,89.63542269925529 80.90513637269032,89.67696742293629 81.30828190327156,89.91584912715916 81.84849691420095,89.9366214124675 82.43708938884083,89.87430453887646 82.99343022098765,89.90546298227855 83.52558232133742,89.9366214124675 84.08192315351334,89.95739369186776 84.54150905835559,90.12357171529584 84.95271749951644,90.00932436467701 85.46874377864879,90.071641123468 86.05733625325956,90.1027994829492 86.55723671114538,90.30013545230031 87.08132590085734,90.38322412251728 87.12970336456783,90.38322412251728 87.6618554648885,90.3624519638106 88.22625920767314,90.35206588225265 88.76647421860253,90.37283804389153 89.37119251445984,90.37283804389153 89.93559625721537,90.26897717668908 90.48387417878257,90.23781888778467 90.08879155881004,90.61171747997287 89.52438781605451,90.60133143372514 88.95998407326988,90.53901512534503 88.43589488355792,90.49747089031007 87.89567987259943,90.46631269858335 87.39577941471362,90.43515449359984 86.88781604618998,90.40399627538864 86.33953812462278,90.38322412251728 85.79932311369339,90.34167979919584 85.23491937093786,90.28974936190207 84.69470435995026,90.24820498557528 84.09804897473077,90.27936327004863 83.54170814252575,90.21704668788152 82.99343022098765,90.1027994829492 82.34839737208677,90.06125500066264 81.70336452318588,89.98855209996691 81.14702369103907,89.94700755290978 80.59874576944276,89.87430453887646 80.05046784790466,89.83275992704148 79.5263786581927,89.76005679964874 78.9861636472342,89.67696742293629 78.44594863627572,89.57310556955781 77.89767071473761,89.47962977563293 77.38164443557616,89.38615386253514 76.87368106711074,89.28229159703915 76.38184351983364,89.16804293492169 75.85775433009258,89.02263528922776 75.28528767667012,88.85645476946229 74.71282102330588,88.6798875543027 74.10003981683985,88.49293356874114 73.54369898466393,88.31636547775997 73.0357356161403,88.19172892210918 72.51164642642834,88.08786496383254 72.01174596857163,88.01516010544583 71.503782600048,87.99438727551023 70.9555046785099,87.93206875042961 70.43141548876883,87.93206875042961 69.88313756723073,87.86975017229997 69.31067091380828,87.84897730114608 68.78658172406722,87.84897730114608 68.24636671313783,87.80743154118682 67.75452916583163,87.78665865240328 67.1901254230761,87.73472640459659 66.68216205452336,87.6204753299171 66.13388413298526,87.46467812285846 65.63398367507034,87.39197264622635 65.13408321718452,87.29849407028087 64.64224566996563,87.1634692500811 64.10203065897804,87.04921728481713 63.59406729048351,86.96612483455101 63.102229743177304,86.84148598252796 62.610392195900204,86.7168469184835 62.086303006188245,86.60259425693948 61.578339637693716,86.46756815452682 61.094565000996226,86.34292845454911 60.6430420067918,86.12480846950348 60.19958192316699,85.90668783525325 59.69968146525207,85.61585931295122 59.183655186148826,85.36657680382632 58.6756918176543,85.15884073178313 58.23223173402948,84.89916981360147 57.76458291860763,84.597950395706 57.27274537127232,84.25518196577468 56.86959984074929,83.94357291092456 56.426139757124474,83.58002733886678 55.94236512045609,83.33073790416529 55.377961377671454,83.07106050784205 54.66842524387175,82.68673627253884 54.20883933908772,82.36473333429603 53.78956798728905,82.0738907545092 53.35417081427295,81.80382161107264 52.90264782003942,81.47142745266319 52.45112482580589,81.14941917384567 52.02379056339851,80.84818434160115 51.57226756919408,80.58849814745918 51.1449333068158,80.29764851737855 50.67728449133574,79.99641018347029 50.20963567591389,79.71594579377415 49.758112681651255,79.39392980025877 49.314652598055545,79.01997396726802 48.95182162054698,78.6564039665318 48.55673900060356,78.24089318524784 48.145530559442705,77.84615576048236 47.75851085007889,77.40986455365055 47.403742783208145,76.94240680622897 47.081226358772255,76.46455802632408 46.895779414713616,75.90360113410134 46.93609396775719,75.37380457007384 47.47630897871568,75.21798132213007 47.44405733628082,74.70895640272647 47.12154091181583,74.68817980027961 47.58112681665807,74.85439245484304 47.468246068106964,74.31419994874886 47.30698785587447,73.79478032144834 47.14572964364197,73.24419149581081 47.12154091181583,72.76631859489135 46.895779414713616,72.25727664138685 46.847401951032225,71.76900858708541 46.75064702369855,71.27034849197662 46.56520007963991,70.77168500261178 46.44425642048009,70.2522402583927 46.291061118856305,69.71201381731225 46.14592872784124,69.14061613093509 45.920167230739025,68.66271646157838 45.69440573363681,68.112089064045 45.484770057722926,67.5718468402556 45.26707147125853,67.06276879097277 44.863925940706395,66.50173990417534 44.53334660563269,66.0965497025827 44.27533346606651,65.61863017370342 43.872187935514376,65.27577293866489 43.53354568983195,64.81862746232218 43.16265180174378,64.41342795045057 42.80788373484393,63.99783637906512 42.42892693608883,63.64458168944111 42.04190722675412,63.22898575584986 41.7032649811008,62.83416743479029 41.34849691420095,62.43934698556404 41.001791757909814,62.034134311557864 40.59058331674896,61.6808701513437 40.300318534777034,61.27565328126366 39.9536133784859,60.8392633756157 39.53434202668723,60.48599345238472 39.18763687039609,60.10155071753252 38.79255425045267,59.80022932560678 38.397471630509244,59.43656392578123 37.978200278710574,59.05211568257073 37.639558033057256,58.66766542135156 37.268664144939976,58.2728225119572 36.962273541721515,57.867586786269385 36.67200875974959,57.43117657419498 36.36561815650202,57.01554538313212 36.04310173203703,56.57913009390177 35.809277324297,56.10114845996577 35.543201274151215,55.64394571711455 35.26906231339672,55.207522254517244 34.91429424646776,54.771096191230754 34.59984073264059,54.33466752713866 34.22088393388549,54.324276336774346 33.7371092972171,54.61522910976055 33.317837945447536,54.885398506812635 32.874377861851826,55.15556690717494 32.43898068886483,55.43612534500426 32.01970933706616,55.76863765730377 31.60043798526749,56.09075752024364 31.11666334857,56.381703275408654 30.592574158858042,56.56873922199884 30.06042205853737,56.63108443138481 29.560521600651555,56.71421129464579 28.996117857896024,56.78694722261571 28.423651204473572,56.84929224625375" stroke="#89CFF0" stroke-linecap="round" stroke-linejoin="round" stroke-width="0.5"><title>2023-09-24 21.24km</title><desc>377492089</desc></polyline></g><text fill="#5A5A5A" style="font-size:6px; font-family:Arial; font-weight:bold;color:#0ed45e;" x="5" y="10">MY TRACKS</text><text fill="#5A5A5A" style="font-size:4px; font-family:Arial" x="5" y="121">Runner</text><text fill="#5A5A5A" style="font-size:6px; font-family:Arial" x="2" y="128">蓝皮书</text><text fill="#5A5A5A" style="font-size:4px; font-family:Arial" x="25" y="121">WORKOUTS INFO</text><text fill="#5A5A5A" style="font-size:3px; font-family:Arial" x="25" y="125">Type: Ride</text><text fill="#5A5A5A" style="font-size:3px; font-family:Arial" x="22" y="129">Date: 2023-09-24</text><text fill="#5A5A5A" style="font-size:3px; font-family:Arial" x="47" y="125">Distance: 21.24 km</text><text fill="#5A5A5A" style="font-size:3px; font-family:Arial" x="47" y="129">Duration: 02:33:38</text><text fill="#5A5A5A" style="font-size:3px; font-family:Arial" x="75" y="125">Pace: 7:14/km</text><text fill="#5A5A5A" style="font-size:3px; font-family:Arial" x="75" y="129">Elevation: 0m</text></svg>