<?xml version="1.0" encoding="utf-8" ?>
<svg baseProfile="full" height="130mm" version="1.1" viewBox="0,0,100,130" width="100mm" xmlns="http://www.w3.org/2000/svg" xmlns:ev="http://www.w3.org/2001/xml-events" xmlns:xlink="http://www.w3.org/1999/xlink"><defs /><rect fill="#FAF9F5" height="130" width="100" x="0" y="0" /><g id="tracks"><polyline fill="none" points="17.29585197236156,52.01501393072249 17.405652704357635,51.9159640554426 17.383692557981703,51.774464062931656 15.923342822236009,49.66609039485775 15.429239528253675,48.76046654487436 15.571980479871854,48.88782039563375 15.780601870676037,49.199129124128376 15.901382675860077,49.60948914511391 16.285685237904545,50.232101125176996 17.098210654745344,51.39241308052442 17.25193167955149,51.434863261943974 17.449572997167706,51.774464062931656 18.273078487138264,52.5244117356051 19.502846685645636,53.981841085151245 19.61264741764171,54.03843985358253 19.799308662011754,53.89694287221937 19.777348515635822,53.95354168883932 20.99613664089702,52.80740939192765 21.11691744608106,52.849858971145295 21.874542496923823,53.613948307262035 23.181171207805164,55.05721219399129 23.444692964607384,55.509996560780564 23.466653111041524,55.69393962268077 25.036803578666877,57.406008772726636 25.596787311893422,58.155914104383555 25.71756811713567,58.18421230840613 25.83834892231971,58.566237276856555 26.606954046350438,59.21709126073256 27.276738511573058,59.9528341288169 27.715941439615563,60.320703527875594 27.979463196417782,60.688571570281056 28.22102480684407,60.85835636308184 28.473566490400117,61.579938508388295 28.912769418442622,62.089287468319526 29.01159007725073,62.329812462041446 28.96766978444066,62.598633827517915 29.286091907299124,62.924048195440264 29.879015860089567,63.16457117643586 30.406059373752214,63.673912045313045 31.174664497782942,64.67843780340627 31.690727938141208,65.66880540901911 31.92130947537953,65.92346977562556 32.44835298898397,67.43729453653941 32.47031313547632,67.94661359065503 32.34953233017586,68.55496349762689 32.667954453034326,69.36137509818946 32.67893452622229,69.7292098038888 32.85461569746258,70.25266454686789 32.942456282966305,70.87514769318659 32.85461569746258,71.31371303233755 32.942456282966305,71.37030196796695 33.12911752745276,72.0776609546374 33.293818625446875,73.23771883626614 33.50244001625106,73.88847710811388 33.75498169986531,74.3411760112358 33.89772265148349,75.04851393534773 34.32594550633803,76.25097689787071 35.05063033750048,76.91586196116987 35.16043106955476,77.21293683401018 35.50081333873095,77.2695224237832 35.66551443678327,77.66562065363541 35.77531516877934,77.65147431538207 35.85217568121152,77.75049864119501 35.88511590077542,77.9485469979918 35.97295648633735,78.1041561454258 36.23647824313957,78.0617173110877 36.42313948762603,78.17488749582844 36.74156161042629,78.58512833950954 36.45607970718993,79.02365979002207 36.774501829990186,79.4338971440302 38.09211061405949,80.77776631886081 38.05917039443739,80.69289090642269 38.02623017487349,80.749474522745 38.24583163886564,80.87678754211811 39.98068320454331,82.2772200343752 41.26535176904872,82.7581721137758 41.48495323304087,82.95621053155628 41.68259455059888,83.01279286444333 41.759455063031055,83.12595743392012 41.8802358682733,83.09766630360537 41.95709638064727,83.22497632697196 42.22061813744949,83.33814065586193 42.26453843025956,83.49374139851716 42.44021960144164,83.64934189853375 43.26372509152861,83.98883305636991 44.822895485966,84.78097459975834 46.54676697845571,86.03990090019215 47.95221634814516,86.88860629736155 49.74196827982087,87.65243498348718 52.05876372510102,88.44454744568793 52.541886945895385,88.6567193590381 53.67283448553644,88.78402229051426 54.48535990243545,88.75573276421346 55.29788531921804,88.88303556938627 57.37311915413011,88.9537592798224 58.119764131784905,89.06691711239546 58.87738918262767,89.05277239027782 60.00833672226872,89.15178540252964 60.579300528683234,89.15178540252964 61.04046360310167,89.0103382121597 61.75416836113436,88.96790401591716 62.13847092312062,88.84060131905426 62.75335502240341,88.96790401591716 62.863155754399486,88.9396145417777 62.97295648639556,88.78402229051426 63.082757218391635,88.74158799806901 63.17059780401178,88.82645656490058 63.54392029281007,88.60014022624819 64.60898739326512,88.43040263540752 65.39955266367178,88.51527146692388 66.08031720214058,88.48698186442925 66.98068320454331,88.35967855407944 67.60654737701407,88.11921630244615 67.90300935343839,88.23237508123566 68.69357462384505,88.24651991957944 69.52806018711999,88.14750600914704 69.659821065492,88.06263686489547 71.99857665720629,87.9777676484664 72.58052053680876,87.85046368847543 73.36010573402746,87.8221738975335 74.90829605533509,88.06263686489547 75.86356242373586,88.03434713411843 77.24705164704937,88.10507144605072 77.6423342822236,88.04849200050376 78.02663684426807,88.11921630244615 78.57564050430665,88.11921630244615 82.72610817407258,88.60014022624819 86.18483123223996,89.25079831651965 88.97376982512651,90.0994764068164 89.01769011799479,90.02875350828253 88.96278975193854,90.0994764068164 88.99572997161886,90.04289809198235 89.06161041074665,90.0853318310983 88.99572997161886,90.0994764068164 90.31333875562996,90.50966822994087 90.42313948762603,90.76426920317317 90.11569743801374,92.56060205621179 89.79727531521348,101.76806837445474 89.86315575439949,101.8529258649869 90.28039853600785,101.81049712873937 90.37921919481596,99.4203158609962 90.32431882887613,99.08087719340256 90.4341195608722,98.16155833830999 90.5,96.71891783428873 90.44509963400196,96.63405597878591 90.19255795038771,96.63405597878591 89.74237494921545,96.2097456189149 83.47275315172737,95.8844397881112 78.33407889388036,95.31868799153744 77.96075640502386,95.38940714146884 77.34587230585748,95.17724954127334 75.01809678733116,94.95094760398206 72.03151687677018,94.47005428345437 71.22997153317556,94.31447065424436 71.22997153317556,94.2154627638738 71.18605124036549,94.30032667588239 71.26291175273946,94.25789472892939 69.7586417243001,93.91843850359874 68.12261081743054,93.45168430855847 67.90300935343839,93.29609909177088 65.57523383491207,92.73033262246463 63.57686051243218,92.48988090182684 63.225498170009814,92.65961158829305 62.896095973963384,92.51816936957766 62.70943472953513,92.73033262246463 62.48983326560119,92.75862102209794 62.23729158192873,92.56060205621179 62.03965026437072,92.56060205621179 61.578487189894076,92.3767269504242 60.85380235873163,92.3767269504242 59.87657584383851,92.32014992662153 59.60207401384832,92.39087120139448 58.17466449778294,92.22114005781623 57.05469703132985,92.00897572248505 56.879015860147774,91.90996554490994 55.144164294411894,91.58464569860371 54.28771858481923,91.61293442295573 54.112037413578946,91.47149072086177 53.90341602277476,91.4573463396082 53.464213094790466,91.2310359671319 53.343432289606426,91.2451803804579 53.17873119155411,91.0613028510561 52.76148840994574,91.13202501781052 52.36620577471331,90.99058063409757 51.894062627106905,90.9622917332963 51.828182187862694,91.13202501781052 51.69642130949069,91.21689155182685 51.586620577494614,91.16031387053226 51.564660431060474,91.31590241695085 51.421919479442295,91.35833561481559 51.27917852788232,91.2310359671319 51.158397722640075,90.9340028244842 50.74115494103171,90.75012472169328 50.609394062601496,90.82084710904019 50.14823098818306,90.17019925521163 49.917649451002944,90.24092205353372 49.69804798695259,90.19848838054168 49.44550630339654,89.87316295508936 48.99532330216607,89.76000603676948 48.797681984549854,89.64684899015992 48.64396095974371,89.42053451196261 48.5451403009356,89.44882384983794 47.06283041887218,88.64257457882923 46.854209028068,88.45869225397473 46.52480683202157,88.37382337434246 46.26128507521935,88.45869225397473 45.5695404636208,88.1757957078953 45.70130134205101,88.16165085951798 45.53660024399869,87.94947789361322 44.98759658401832,87.553420483644 44.954656364396214,87.38368111242744 44.72407482715789,87.24223141590483 44.75701504678,87.17150649245741 44.53741358272964,87.07249151538417 44.3507523383596,86.83202616210474 44.05429036193527,86.84617119897302 43.219804798660334,86.49254467697756 42.50610004068585,86.05404604929208 42.56100040662568,86.08233634151111 42.44021960144164,85.85601377939747 42.22061813744949,85.79943305870984 41.19947132986272,85.26191461180133 40.946929646190256,84.95071839811135 40.540666937828064,84.66781190714391 40.52968686458189,84.51221299522877 40.39792598615168,84.55464908615977 40.255185034591705,84.38490461412584 40.255185034591705,84.1868690317715 39.892842618981376,83.87566946544393 39.61834078899119,83.79079668800841 37.49918666126905,82.53184201226395 37.38938592921477,82.34794842674455 37.45526636845898,82.17820020084037 37.33448556321673,82.19234589733969 37.246644977654796,81.89528584936488 36.67568117118208,81.20214229808334 36.56588043924421,81.21628813296411 36.510980073187966,81.13141309353523 35.34709231398301,80.55143172528915 35.07259048393462,80.25436679213453 35.05063033750048,80.32509661829681 34.97376982518472,80.12705297856155 35.02867019112455,79.81584075054707 34.633387555892114,79.1651211371136 34.83102887350833,79.20755950208695 34.17222448147368,79.05195207548968 33.601260675059166,78.59927454545686 33.39263928425498,78.65585934898263 33.38165921106702,78.54268970975681 33.83184221229749,78.55683592169225 33.87576250504935,78.4436661701402 33.83184221229749,78.23147254008654 33.623220821493305,78.13244869161281 33.557340382249095,78.00513217054686 33.54636030906113,77.53830353694502 33.436559577065054,77.46757173528022 33.27185847907094,77.51001082228322 32.73383489222033,77.41098625780432 31.383285888587125,76.19439073043031 30.72448149655247,75.2890076871845 30.735461569740437,73.94506458329852 30.65860105730826,73.520657736859 30.77938186255051,73.2518658003246 30.51586010574829,72.23327925873309 30.63664091093233,71.97863099841925 30.614680764556397,71.72398208821687 30.197437982889824,70.4365804261688 29.84607564052567,69.82824199294555 29.802155347715598,68.8237680887687 29.450793005293235,67.90417043547495 29.209231394866947,67.55047677325638 29.34099227329716,67.32411217135814 29.31903212686302,67.154338382883 29.0555103700608,66.92797288211295 28.74806832044851,65.25851145104389 28.44062627083622,64.15495381135406 28.05632370884996,63.50413204461802 27.34261895081727,62.782563818094786 26.925376169208903,62.0751389212237 26.12383082555607,61.113033010362415 25.728548190323636,60.83005891764333 24.98190321266884,60.13676899793791 24.8611224074848,59.924536426580744 24.377999186632223,59.44347425972228 24.19133794226218,59.33028282443411 22.92862952419091,57.73144008080999 21.204758031701203,55.86373291718337 20.721634810906835,55.49584708041948 20.44713298091665,55.09966081567836 19.75538836925989,54.43463033354783 19.601667344453745,54.03843985358253 19.71146807639161,53.9252422845675 20.820455469714943,52.9347580753456 20.93025620165281,52.793259528203635 20.886335908900946,52.63761089450418 19.316185441217385,50.89715962883929 18.262098414008506,49.58118850824394 17.482513216789812,48.44915644718276 17.460553070355672,48.27935052977409 14.737494916596916,44.119015237578424 14.111630744184367,43.29824832230952 13.694387962576002,42.54823126887641 13.48576657177182,42.40671798466792 13.134404229349457,42.03878250607522 12.848922326113097,41.28875598015293 12.179137860890478,40.283994624129264 12.135217568080407,40.55287541569851 12.091297275270335,40.49626899349096 12.212078080512583,40.6094818057245 11.706994713284075,39.732079148918274 11.41053273685975,39.434892627832596 10.949369662441313,38.47256829165417 10.806628710881341,38.302745385983144 10.685847905697301,38.33104922367784 10.521146807644982,38.161226076954335 10.4113460755907,38.1470741350131 10.345465636462905,38.23198575658171 10.554087027267087,38.47256829165417 10.576047173643019,38.430112592359364 10.663887759204954,38.48672018744401 10.488206588022877,38.614087158843176 10.729768198390957,38.69899838275887 10.850549003633205,38.89712429064821 10.86152907682117,38.72730210795271 10.61996746645309,38.430112592359364 10.641927612829022,38.543327750354365 10.49918666126905,38.458416393914376 10.510166734398808,38.57163151980785 10.43330622202484,38.57163151980785 10.488206588022877,38.68484651711333 10.235664904408623,38.599935281185026 10.268605124030728,38.68484651711333 9.730581537180115,39.06694618410984 9.5,39.477347899352026 9.708621390804183,39.9726580649658 10.092923952790443,40.283994624129264 10.707808052073233,41.133089390568784 11.322692151239607,42.06708528341551 11.41053273685975,42.3359612672939 11.55327368847793,42.420869322129874 11.95953639689833,43.10013115825859 11.981496543274261,43.26994589440437 12.113257421704475,43.397306756720354 12.091297275270335,43.6095744991253 12.563440422934946,44.34543250819115 13.035583570541348,45.32185109931743 13.749288328574039,46.354863259679405 13.91398942656815,46.29826013070124 13.968889792624395,46.34071248042892 14.858275721780956,47.69917813055508 15.154737698263489,48.30765153606626 15.011996746645309,48.18029694446159 15.264538430259563,48.364253524603555 15.220618137449492,48.40670499490079 15.626880845869891,49.1708283707776 15.890402602672111,49.48213621586183 16.088043920288328,50.090598743721785 16.230784871906508,50.133049479249166 17.142130947497208,51.434863261943974 17.29585197236156,51.420713203457126 17.548393655917607,51.87351407873939 18.108377389144152,52.34046282838244 18.613460756430868,52.87815868057078 18.723261488426942,53.09040624530462 18.85502236679895,53.13285570406879 18.71228141518077,53.35925251227309 18.723261488426942,53.45830095427664 19.59068727120757,54.01014047339413 18.503660024376586,53.00550727359223 17.691134607593995,52.0716138153075 16.20882472547237,50.06229824337788 16.01118340785615,49.97739669402654 15.901382675860077,49.58118850824394" stroke="#89CFF0" stroke-linecap="round" stroke-linejoin="round" stroke-width="0.5"><title>2024-10-04 21.24km</title><desc>12569792959</desc></polyline></g><text fill="#5A5A5A" style="font-size:6px; font-family:Arial; font-weight:bold;color:#0ed45e;" x="5" y="10">海河蓝丝带骑行</text><text fill="#5A5A5A" style="font-size:4px; font-family:Arial" x="5" y="121">Runner</text><text fill="#5A5A5A" style="font-size:6px; font-family:Arial" x="2" y="128">蓝皮书</text><text fill="#5A5A5A" style="font-size:4px; font-family:Arial" x="25" y="121">WORKOUTS INFO</text><text fill="#5A5A5A" style="font-size:3px; font-family:Arial" x="25" y="125">Type: Ride</text><text fill="#5A5A5A" style="font-size:3px; font-family:Arial" x="22" y="129">Date: 2024-10-04</text><text fill="#5A5A5A" style="font-size:3px; font-family:Arial" x="47" y="125">Distance: 21.24 km</text><text fill="#5A5A5A" style="font-size:3px; font-family:Arial" x="47" y="129">Duration: 01:39:12</text><text fill="#5A5A5A" style="font-size:3px; font-family:Arial" x="75" y="125">Pace: 4:40/km</text><text fill="#5A5A5A" style="font-size:3px; font-family:Arial" x="75" y="129">Elevation: 0m</text></svg>