<?xml version="1.0" encoding="utf-8" ?>
<svg baseProfile="full" height="130mm" version="1.1" viewBox="0,0,100,130" width="100mm" xmlns="http://www.w3.org/2000/svg" xmlns:ev="http://www.w3.org/2001/xml-events" xmlns:xlink="http://www.w3.org/1999/xlink"><defs /><rect fill="#FAF9F5" height="130" width="100" x="0" y="0" /><g id="tracks"><polyline fill="none" points="74.75,19.519210984842175 74.7313519186282,19.64855715039903 74.59815133739176,19.988748383492748 74.59815133739176,20.125176433401975 74.65409558151441,20.374995057540218 74.65143156988779,20.57342870363391 74.68606372101203,20.72756677751113 74.59415531995182,20.933081016403776 74.54220709327637,21.36890086290714 74.5035789247122,21.437992746307827 74.43431462246372,21.491140068294044 74.17457348905737,21.549601840649302 74.11063721005485,21.609834873052023 74.10131316936895,21.981855480271406 74.01340078574867,22.43357871690023 74.00540875088336,22.656776633421032 73.9681125881325,22.74357466109177 73.5591868037227,22.918940119186118 73.31143372262159,23.15629923567849 73.15026101932744,23.18109766858106 73.11829287982982,23.207667359173684 73.11429686238989,23.779786571281875 73.07167267639306,24.033068711388296 72.82525160109799,24.15882212125871 72.6707389268704,24.194245370455974 72.3004413110175,24.137568119723255 71.775631020937,24.103915870836317 71.69038264895062,24.319997029911065 71.68905064313003,24.71495462914754 71.62911038157472,24.90268759864648 71.577162154892,24.971758397021404 71.3094289865985,25.069165233015156 71.15491631236364,25.081562407915953 70.81658683601563,25.05853907254277 70.49823744686,25.13292199110765 70.18521608095034,25.16125821536116 69.95477907540044,25.060310099968774 69.47525698294339,24.969987356052116 69.21684785534308,24.801737229170612 69.02770302997669,24.59629165402839 68.72666971637955,24.373131123474195 68.72400570475293,24.00295853735861 68.74931381519855,23.793956347802123 68.72933372800617,23.63808785225956 68.76130186750379,23.49992993154774 68.6427533501992,22.61426307632246 68.65074538507906,22.40523581641264 68.71468166406703,22.134203326057104 68.6320973037,21.859621456680543 68.30175986223185,21.22540101810955 68.20452343792567,21.14213486045537 68.01671061837988,21.035836767508044 67.94211829288543,20.862214449671228 67.82490178139415,20.685046134570257 67.7889376244566,20.66024235405166 67.49989236317197,20.56279841597825 67.25347128788417,20.43877767194408 67.12293471826706,20.311212091651214 66.90315375922364,20.213765215028616 66.78060922447912,20.192503969278732 66.46758785857674,20.231482889986182 66.2038507077159,20.139350684026795 65.75230073731655,19.795620212579706 65.63375222001196,19.719431148590047 65.5391798073324,19.68576605357066 65.43794736559357,19.7247466809622 65.4219632958484,19.774358198662412 65.44327538884681,19.717659303928485 63.72898390829505,21.05709646419018 63.12558527528745,21.15985111437203 62.983060653357825,21.241345533157983 62.79657983962534,21.40078947571783 62.44093428771885,21.544287146273746 62.01735643937718,21.613377982846032 61.79624347452045,21.786989034234466 61.57646251547703,21.907452315274895 61.42727786448813,21.932253423411566 61.08761638233409,21.910995333974824 60.734634842046944,21.921624383572635 60.50952585975756,21.87202206862912 60.24712071471731,21.880879640452804 60.05131586029165,21.845449312474557 59.94209138367296,21.815333448434103 59.847518970993406,21.698412292535977 59.720978418823506,21.60097709382717 59.449249233090086,21.47519589732201 59.40129702384729,21.469881168780375 59.08294763468439,21.755101485300656 58.75127818740293,22.134203326057104 58.55547333297727,22.242262791979556 58.47022496099089,22.245805708213993 58.28774016469106,22.311349462915132 57.81221408966667,22.860485261631766 57.73229374092625,22.929568243398535 57.648377374745905,22.950824462546734 57.303387869331345,22.913626053420558 57.16219525322231,22.87111343950528 57.051638770790305,22.810886969227795 56.833189817560196,22.607177468288683 56.650705021260364,22.554035269844462 56.4082799634125,22.07043005318792 56.34967170766322,22.001341944463093 56.196491039241664,21.887965693041224 55.74094505140238,21.71967077235422 55.082934180078155,21.52302834436614 54.80720897691208,21.386616769756984 54.49685162262904,21.29803696435556 54.22778644852224,21.36890086290714 53.94406921049085,21.58326151504025 53.69898014100909,21.721442310579732 53.19814595554635,21.81710497201948 53.17150583930197,21.804704301246602 53.12888165331242,21.721442310579732 52.88778860126331,21.66298140607796 52.68132770033844,21.549601840649302 52.38429040418123,21.335240565183994 52.16051342769788,21.269691283459906 51.87679618965922,21.147449739476542 51.59973898067983,21.06595465962073 51.413258166947344,21.046466620727188 51.146857004467165,21.05709646419018 50.495506162209495,21.119103689820804 50.193140842806315,21.232487471950662 49.98667994188145,21.395474713019212 49.64435444809351,21.482282198240682 49.404593401864986,21.450393809932393 49.242088692757534,21.45748012603326 49.0009956407157,21.507084217308147 48.89443517572363,21.549601840649302 48.69996232711128,21.57794683611519 48.53479360638448,21.625778858580816 48.26306442065106,21.783445977578594 48.12187180453475,21.833048672062432 48.02197136860195,21.84190627371663 47.96336311285995,21.820648018368047 47.76489424681495,21.666524499604748 47.66632581669546,21.624007305717896 47.44254884021211,21.760416082889606 47.35197244497249,21.77104527074789 47.19745977073762,21.73029999762639 46.98300683494017,21.772816801108092 46.79386200958106,21.698412292535977 46.64334535278613,21.666524499604748 46.4515365158004,21.538972449455287 46.07191485926887,21.310438177917604 45.80551369679597,21.212999713439785 45.69362520855066,21.228944245573985 45.17281093591009,21.175795719716916 45.1248587266673,21.15985111437203 44.98766212798364,21.046466620727188 44.87843765136495,21.005718797032387 44.44420375653135,21.035836767508044 44.22708680911455,21.007490444522773 43.79018890264706,20.894104458389847 43.71826058877923,20.848041084256693 43.40790323449619,20.543309529924954 43.33064689736784,20.26868991910942 43.28802271137829,20.20313459703266 43.18013024057291,20.17124268446969 43.060249717462284,20.236798187183922 42.95368925247021,20.360821095498977 42.87510090953583,20.623036583603607 42.46084710188734,21.42382008588993 42.43553899144899,21.508855788068104 42.470171142573236,21.664752952979143 42.73257628761348,22.146603643871458 42.85245681072411,22.31312091059226 42.9030730316008,22.497349989290342 42.90040901997418,22.596549048117595 42.86044884559669,22.639062670271414 42.76720843873045,22.67094778443152 42.69661213067593,22.669176391501423 42.5341074215612,22.63729127246279 42.2770302997742,22.88528432815383 41.994645067548845,23.005736181385146 41.7815241375647,23.067732970281213 41.60569937033142,23.2430935184575 41.34995425435045,23.586721638363088 41.28202195792255,23.809897325665588 41.14482535924617,24.031297526845265 40.9383644583213,24.452831806668655 40.90506431301037,24.794652959669293 40.98898067919072,25.150632139389018 40.96633658038627,25.52076804031367 40.80649588289816,25.880266705183203 40.78518378989975,26.17423268935272 40.542758732044604,26.595688974750374 40.44818631936505,26.675374363581795 40.10719283139042,26.855992548641552 39.89273989560024,26.932134665054946 39.78884344222752,26.994110436800838 39.703595070241136,27.112748846303475 39.66363489586365,27.3287738741501 39.61967870406079,27.40668355140042 38.92303966417967,27.92370722295891 38.64731446101359,28.00869520710512 38.2916689091071,28.07243578602538 38.014611700127716,28.183980955214793 37.553737689042464,28.57526583440813 37.27135245681711,28.708051817035994 37.00894731176959,28.916965348739723 36.79715838760603,28.918735786295656 36.55073731231096,29.012568589828334 36.26302405683964,28.9683079281358 35.82479414455884,29.13826794700981 35.767517894630146,29.210854278588158 35.57171304021176,29.646362718348428 35.15213120931003,30.110178909223578 35.120163069812406,30.168597189253887 35.22405952317786,30.6819572868244 35.41986437759624,31.198834820876982 35.52109681934235,31.57939772075224 35.768849900443456,32.21482140633816 35.77684193531604,32.34579577407112 35.707577633074834,32.590041316890165 35.72755772025266,32.843130905747785 35.842110220124596,33.26257490825901 36.0019509176127,33.535116883979754 35.82879016199877,34.50312002376177 35.8913944351807,34.92427348585079 35.9726467897417,35.14900037563257 36.064555190794636,35.61082700205861 36.00061891179939,35.89923813063342 36.0205989989845,37.05281091023426 36.09785533610557,37.25980492435701 36.24970399871381,37.505716087604924 36.462824928697955,37.72331658111398 36.578709434375924,37.905531739462276 36.654633765683684,37.93383674987035 36.92103492815659,37.88076479868869 36.97831117808528,37.90199360830411 37.011611323403486,37.93737487131057 37.023599375716,38.31417862611215 37.11817178838828,38.62375001503551 37.05157149777369,39.23048596921308 36.88107475378638,39.5948660691638 36.94367902696831,39.87787184122317 36.94367902696831,39.99637845723464 36.90638286421745,40.079509241455526 36.67727786449541,40.36780926037136 36.65596577148972,40.43678795723736 36.81447446317179,40.836502587232644 36.83711856197624,40.9567680106411 36.79982239922538,41.283954396853005 36.6439777191772,41.84457124014352 36.654633765683684,42.10453263349791 36.73322210861079,42.604986127118536 36.687933910994616,42.94450412315837 36.70391798073979,43.131942094003534 36.67061783542886,43.494431466936476 36.62666164361872,43.68539692403465 36.73721812605072,44.007201973388874 36.769186265541066,44.272419207270104 36.687933910994616,44.59420797948769 36.39888864970271,44.993779421613 36.36026048113854,45.14582511821391 36.42419676014106,45.68504089180624 36.50411710888147,45.93254138370685 36.50012109144154,46.19594682456864 36.6053495506203,46.56894698894848 36.57204940530937,47.05683432589103 36.79715838760603,47.88584223613634 36.8224664980371,48.11385322181559 36.789166352733446,48.19869337576256 36.534753242565785,48.35423204788731 36.48413702169637,48.414325976814325 36.442844841505575,48.617582548979044 36.461492922884645,48.93925089633558 36.41487271945516,49.264445002483626 36.370916527637746,49.329836195779535 36.14314353372174,49.45001364481777 35.96731876648846,49.584328145449945 35.76352187719749,49.64441570856161 35.487796674031415,49.66208846206791 35.23205155804317,49.77519344762368 35.0708788547563,49.782262472644106 34.62732091922226,49.6744593735184 34.47946827404667,49.6744593735184 33.977302082777896,49.78579698354224 33.886725687538274,49.84058176486997 33.74020504816872,49.98549510173234 33.521756094945886,50.07915763782876 33.399211560201366,50.091528104991085 32.95831763630122,50.07208879353493 32.13247403262358,50.218766430979485 32.02324955599761,50.25411016301405 31.911361067766848,50.37957954303238 31.81945266670664,50.582801719279814 31.73420429471298,51.37268371040591 31.739532317966223,51.64126669020516 31.7075641784686,51.71017842725996 31.666271998285083,51.736682832643055 31.683588073843566,51.69957664817048 31.666271998285083,51.73138195640513 31.52774339379539,51.749051534458886 31.2307060976309,51.674839125998915 30.823112319041684,51.757886313405834 30.376890371888294,51.77378889857664 30.046552930420148,51.8886402561493 29.42450621603348,52.06179861769033 28.931664065450605,52.29149450184741 28.86772778645536,52.351568060706086 28.545382379852526,52.78267507434157 28.446813949740317,52.931085262324814 28.3762176416858,53.203165682695726 28.29096926969214,53.40103834967613 27.851407351598027,53.77380716530661 27.586338194938435,54.20486140479352 27.28264086971467,54.482211619739246 27.22003659652546,54.64296571992236 27.156100317530218,55.05102383202393 27.201388515160943,55.33365308526572 27.16942037566332,55.503227337570934 26.9656234863578,55.83000407381769 26.639282062329585,56.227422855768054 26.418169097472855,56.570075250254376 26.311608632480784,56.84207047366817 26.178408051244332,57.10169633971964 26.178408051244332,57.15468049776155 26.24767235348554,57.35425199135079 26.21703621980123,57.619164609672225 26.089163661810744,57.875241068105424 25.780138313341013,58.38207921757203 25.586997470541974,58.821791973302425 25.560357354290318,59.099032028624606 25.6096415693537,59.42041031486042 25.47510898229666,60.137299093899856 25.351232441753382,60.52927377260494 25.25,60.998919724152074 25.29528819762345,61.23550110128144 25.284632151124242,61.634500578675215 25.451132877671625,63.800511059136625 25.425824767240556,64.27532008437447 25.539045261291903,64.81541385133096 25.532385232232627,65.15781325116859 25.391192616116314,65.48078901515782" stroke="#89CFF0" stroke-linecap="round" stroke-linejoin="round" stroke-width="0.5"><title>2024-07-09 62.96km</title><desc>11842739278</desc></polyline><polyline fill="none" points="36.296610169811174,81.69069268350722 36.576271186582744,81.96969251771225 37.415254237363115,81.8766925871023 37.694915254367515,82.06269243377028 38.0444915255066,81.8766925871023 37.974576271139085,81.8766925871023 38.32415254274383,81.7836926424643 38.394067796645686,81.8766925871023 38.81355932215229,81.7836926424643 39.09322033915669,82.06269243377028 39.44279661029577,82.15569233585848 40.00211864430457,82.06269243377028 40.281779661308974,81.8766925871023 40.56144067784771,80.94669249997241 40.841101695084944,80.38869176415028 41.1906779659912,80.01669098855928 41.74999999976717,79.83069051569328 42.58898305078037,79.83069051569328 43.49788135616109,80.01669098855928 43.77754237316549,80.20269140478922 43.77754237316549,80.48169192229398 45.105932203587145,80.85369241290027 46.15466101723723,78.80768689571414 46.15466101723723,79.08668805391062 47.06355932215229,79.36568908364279 47.76271186443046,80.1096912038629 48.671610169811174,80.29569159151288 48.88135593221523,80.57469206611859 49.5805084744934,80.76069231150905 50.069915254367515,81.13269263098482 51.11864406755194,81.22569267544895 51.39830508478917,81.50469272321789 52.72669491544366,81.96969251771225 53.355932203354314,82.52769180136966 55.033898304915056,83.27169004880125 55.313559321919456,83.55068915651646 55.59322033892386,83.64368883095449 55.87288135616109,83.4576894682832 56.22245762730017,83.55068915651646 56.641949152806774,83.82968813658226 57.6906779659912,84.01568738522474 58.180084745865315,84.38768571143737 58.739406779641286,84.29468615114456 59.158898305147886,83.82968813658226 60.0677966105286,84.8526832992793 60.27754237293266,84.8526832992793 60.48728813533671,85.22468111343915 61.9555084744934,85.78267740708543 63.144067796645686,86.06167536170688 63.42372881365009,86.24767392699141 63.63347457628697,85.78267740708543 63.98305084742606,85.59667869942496 64.19279661029577,85.59667869942496 64.26271186443046,85.41067993477918 64.40254237293266,85.59667869942496 64.33262711856514,85.78267740708543 64.40254237293266,85.78267740708543 64.40254237293266,85.41067993477918 64.47245762706734,85.3176805312396 64.75211864407174,85.22468111343915 65.17161016957834,84.8526832992793 65.59110169508494,84.8526832992793 65.59110169508494,84.66668430698337 65.24152542371303,85.03868223488098 65.24152542371303,85.3176805312396 65.59110169508494,87.27066501812078 65.45127118634991,87.45666321332101 65.73093220335431,87.82865943270735 65.73093220335431,88.66565009346232 65.59110169508494,89.03764557256363 65.31144067784771,89.22364322649082 64.96186440670863,89.13064440665767 64.75211864407174,88.9446467240341 64.61228813580237,89.13064440665767 64.82203389843926,89.03764557256363 65.59110169508494,89.13064440665767 66.49999999976717,90.71162240946433 66.84957627113909,92.10659958334872 67.12923728814349,92.47859295527451 67.33898305078037,92.47859295527451 67.40889830491506,92.29259629768785 67.12923728814349,92.38559463375714 67.33898305078037,93.1295808084542 67.26906779664569,93.50157355389092 67.54872881365009,93.8735660717357 67.4788135595154,94.2455583618721 68.03813559329137,96.4775073188357 68.38771186419763,96.75650036183652 68.59745762730017,97.12849088641815 69.43644067784771,97.03549327666406 71.25423728791066,98.15146365517285 72.02330508478917,98.43045592942508 73.14194915257394,99.36042925179936 73.63135593221523,100.01140973035945 73.77118644071743,100.38339826173615 74.12076271185651,100.75538656587014 74.75,102.15034067688975 74.26059322035871,103.26630165963434 74.26059322035871,103.82428138219984 74.12076271185651,104.38226059236331 73.56144067808054,105.49821747507667 73.35169491521083,105.59121378936106 73.14194915257394,105.40522114629857 73.21186440670863,105.77720637538005 73.07203389820643,105.77720637538005 73.14194915257394,105.31222480360884 73.00211864430457,105.68421008961741 71.88347457605414,106.14919137669494 71.11440677964129,106.61417230789084 70.7648305085022,106.52117615018506 70.69491525413468,106.70716845133575 69.78601694921963,107.17214895563666 69.5063559319824,107.6371291038813 67.6186440680176,109.2180589461932 66.01059322012588,109.7760332020116 65.66101694921963,110.05502013815567 65.5211864404846,110.427002519893 65.24152542371303,110.61299362569116 64.54237288143486,110.61299362569116 63.56355932215229,112.1009204199072 62.864406779408455,112.37990628834814 62.584745762869716,112.56589679582976 62.305084745632485,112.56589679582976 61.326271186582744,112.93787764036097 59.158898305147886,112.75188724679174 56.57203389820643,113.21686312422389 56.01271186443046,113.0308728159871 55.45338983065449,113.0308728159871 54.96398305078037,113.3098582571838 53.076271186815575,113.3098582571838 52.37711864407174,113.58884357038187 51.81779661029577,113.58884357038187 51.04872881365009,114.05381880752975 49.5805084744934,113.7748337078956 47.55296610179357,113.86782875505742 47.13347457628697,113.49584848014638 46.4343220340088,113.3098582571838 46.15466101723723,113.0308728159871 45.525423728860915,112.75188724679174 45.385593220358714,112.56589679582976 45.03601694921963,112.56589679582976 45.03601694921963,112.1939157237066 44.89618644095026,112.1939157237066 44.75635593244806,112.47290154942311 44.54661016934551,113.86782875505742 44.75635593244806,114.79777844657656 45.45550847472623,116.09970562328817 46.29449152573943,118.33157429168932 46.084745762869716,119.07552869262872 45.87500000023283,119.26151715044398 45.03601694921963,119.54049973044312 44.47669491544366,120.19145858567208 44.12711864407174,120.37744670186657 43.42796610179357,121.02840466034831 41.74999999976717,121.58636806951836 40.841101695084944,121.67936192144407 40.701271186815575,121.58636806951836 40.841101695084944,121.58636806951836 40.77118644095026,121.58636806951836 40.63135593221523,120.93541070906213 40.63135593221523,120.37744670186657 40.21186440670863,120.09846450627083 39.93220338993706,119.44750555127393 38.4639830510132,114.33280377899064 38.32415254274383,112.75188724679174 36.436440678080544,105.68421008961741 35.45762711879797,101.40636554954108 35.17796610179357,99.45342650567181 34.61864406778477,97.77947375678923 34.269067796645686,96.01251862890786 34.3389830510132,95.45453173131682 33.709745762869716,94.1525603106129 33.2203389829956,91.36261215590639 32.94067796645686,90.71162240946433 32.730932203587145,89.22364322649082 32.591101694852114,88.75864898442524 31.96186440694146,88.66565009346232 30.983050847658888,88.29365438653622 28.745762712089345,86.71267009101575 28.605932203587145,86.89866845723009 28.605932203587145,87.08466676599346 29.444915254367515,87.92165845184354 29.305084746098146,88.01465745695168 28.605932203587145,87.17766589933308 28.67584745772183,86.6196708867792 27.97669491567649,85.59667869942496 27.277542372932658,84.01568738522474 26.578389830654487,83.27169004880125 26.2288135595154,83.36468976584729 26.718220339156687,82.99269081256352 26.648305085022002,82.62069163197884 26.0889830510132,82.34169209678657 26.0889830510132,81.96969251771225 25.599576271604747,81.13269263098482 25.25,79.73769025789807 25.319915254367515,78.80768689571414 25.879237288376316,77.04067658522399 26.019067796878517,73.59964175708592 26.578389830654487,73.32063807861414 28.186440678080544,73.6926429545274 28.885593220591545,74.15764872904401 30.074152542511,74.43665202276316 30.563559322152287,75.73866569931852 30.843220338923857,77.04067658522399 30.983050847658888,78.52868560951902 31.192796610295773,79.08668805391062 31.192796610295773,80.01669098855928 31.332627118565142,80.48169192229398 32.311440678313375,80.57469206611859 32.171610169811174,80.57469206611859 32.870762712089345,80.29569159151288 33.77966101723723,80.20269140478922 34.3389830510132,80.01669098855928" stroke="#4DD2FF" stroke-linecap="round" stroke-linejoin="round" stroke-width="0.5"><title>2024-07-09 2.17km</title><desc>11841564307</desc></polyline></g><text fill="#5A5A5A" style="font-size:6px; font-family:Arial; font-weight:bold;color:#0ed45e;" x="5" y="10">草原天路山路跑 草原天路自驾游</text><text fill="#5A5A5A" style="font-size:4px; font-family:Arial" x="5" y="121">Runner</text><text fill="#5A5A5A" style="font-size:6px; font-family:Arial" x="2" y="128">蓝皮书</text><text fill="#5A5A5A" style="font-size:4px; font-family:Arial" x="25" y="121">WORKOUTS INFO</text><text fill="#5A5A5A" style="font-size:3px; font-family:Arial" x="25" y="125">Type: Run</text><text fill="#5A5A5A" style="font-size:3px; font-family:Arial" x="22" y="129">Date: 2024-07-09</text><text fill="#5A5A5A" style="font-size:3px; font-family:Arial" x="47" y="125">Distance: 2.17 km</text><text fill="#5A5A5A" style="font-size:3px; font-family:Arial" x="47" y="129">Duration: 21:04min</text><text fill="#5A5A5A" style="font-size:3px; font-family:Arial" x="75" y="125">Pace: 9:43/km</text><text fill="#5A5A5A" style="font-size:3px; font-family:Arial" x="75" y="129">Elevation: 0m</text></svg>