<?xml version="1.0" encoding="utf-8" ?>
<svg baseProfile="full" height="130mm" version="1.1" viewBox="0,0,100,130" width="100mm" xmlns="http://www.w3.org/2000/svg" xmlns:ev="http://www.w3.org/2001/xml-events" xmlns:xlink="http://www.w3.org/1999/xlink"><defs /><rect fill="#222222" height="130" width="100" x="0" y="0" /><text fill="#FFFFFF" style="font-size:6px; font-family:Arial; font-weight:bold;color:#0ed45e;" x="5" y="10">平谷越野赛 15KM</text><text fill="#FFFFFF" style="font-size:4px; font-family:Arial" x="5" y="121">Runner</text><text fill="#FFFFFF" style="font-size:6px; font-family:Arial" x="2" y="128">蓝皮书</text><text fill="#FFFFFF" style="font-size:4px; font-family:Arial" x="25" y="121">WORKOUTS INFO</text><text fill="#FFFFFF" style="font-size:3px; font-family:Arial" x="25" y="125">Type: Run</text><text fill="#FFFFFF" style="font-size:3px; font-family:Arial" x="22" y="129">Date: 2024-07-07</text><text fill="#FFFFFF" style="font-size:3px; font-family:Arial" x="47" y="125">Distance: 14.63 km</text><text fill="#FFFFFF" style="font-size:3px; font-family:Arial" x="47" y="129">Duration: 05:34:52</text><text fill="#FFFFFF" style="font-size:3px; font-family:Arial" x="75" y="125">Pace: 22:53/km</text><text fill="#FFFFFF" style="font-size:3px; font-family:Arial" x="75" y="129">Elevation: 0m</text><polyline fill="none" points="70.48507579567377,64.18017853723723 69.43666750111151,64.44982743808941 68.42937325721141,64.82733522813942 67.9360046479851,65.55538375492324 68.10046085098293,66.58003971076687 68.61438648565672,67.49683225509943 68.98441294254735,68.46754873935424 69.86836503411178,69.00683343797573 70.8551022525644,69.41129591327626 71.80072542023845,69.84272156296356 72.66412048635539,70.4089661763428 73.54807257791981,71.00217292948219 73.93865606025793,71.6762691657641 73.0547039686935,71.27181172357814 72.02685269946232,70.92128121331916 70.99900143023115,70.70556979460525 70.38229066866916,70.97520902803808 70.67008902411908,71.81108811343438 70.52618984633591,72.78178158885567 69.68335180566646,72.97052694113518 69.14886914566159,72.83570885230438 68.28547407954466,72.78178158885567 67.46319306408986,72.35036290554854 67.01093850575853,71.43359480831714 66.31199964263942,70.8673533826659 65.40749052562751,70.65164189995266 64.74966571328696,71.32573943446914 65.09913514484651,71.83805189095438 65.18136324652005,72.32339920382947 64.17406900261994,72.53910870525579 63.26955988572445,72.29643549821049 62.18003754026722,76.85324504990422 62.63229209871497,77.68909714190522 63.063989631831646,78.4979826087656 63.8040425456129,79.11812569892209 64.09184090106282,80.00789252927643 64.72910868795589,80.52018054950167 65.26359134796076,81.30209106388793 65.69528888107743,82.08399821950297 65.98308723641094,82.94678842439316 65.94197318563238,83.94438450098096 65.40749052562751,84.32185186096467 66.06531533796806,85.10374604533718 66.1269864141941,86.18221527135756 66.80536825186573,86.88321684200491 66.928710404085,87.3146010821074 67.4220790133113,87.85382994469546 68.22380300331861,88.39305720996344 68.16213192720897,89.06708904533298 68.67605756176636,89.66023499595758 69.0460840187734,89.90288505508215 69.39555345033295,90.630833291827 70.07393528788816,91.22397414737497 70.40284769411664,91.9249563030462 71.10178655723576,92.43721078672388 71.88295352167916,91.9249563030462 72.1707518772455,91.19701324122434 72.76690561336,91.8440738843492 73.60974365414586,92.32936785738275 73.8769849841483,92.9494638289907 74.65815194870811,93.46171542983211 75.52154701482505,93.9200445877359 76.0765867002774,94.75581831675663 76.40549910638947,95.67246896242432 76.75496853783261,96.56215488101589 77.04276689328253,97.53271637884609 77.20722309639677,98.53023252627463 77.18666607094929,99.52774320801836 77.28945119783748,100.49828889561468 77.96783303562552,101.19923534108966 78.8928991779685,101.68450437617139 79.83852234564256,101.98105703874899 80.7019174117595,102.35848700143106 80.82525956409518,103.35597670762218 80.61968931020238,104.3534609485796 80.45523310708813,105.32398091058712 80.33189095475245,106.29449569889402 80.24966285331175,107.26500531361671 79.53016696486156,107.85809197594062 78.72844297485426,108.50509340400458 78.15284626395442,109.12513428175589 77.96783303562552,109.58342400804395 77.45390740106814,109.42167482456716 76.42605613183696,109.25992549740477 75.74767429404892,108.82859325577738 74.74038005014881,109.23296726227272 73.83587093325332,109.3677583981771 73.01358991791494,108.80163495680608 72.00629567401484,108.53205174689356 71.0606725064572,108.3163848916447 70.07393528788816,108.47813505704107 69.08719806943554,108.58596842088446 68.20324597798754,109.09817602661496 67.44263603864238,109.79908936242282 67.27817983564455,110.2843354758079 66.70258312486112,109.47559123511019 66.3325566679705,109.15209253286594 65.83918805874418,108.63988507876638 65.73640293173958,107.85809197594062 64.93467894184869,107.29196384019451 64.77022273873445,106.32145436912833 64.95523596717976,105.37789853455615 65.26359134796076,104.38041990625788 65.01690704340581,103.43685401178664 64.42075330717489,102.65503856597934 63.70125741872471,101.95409772571293 63.00231855572201,101.28011360343953 62.323936717933975,100.5252484241937 61.48109867726453,99.9860570942401 61.06995816947892,99.09638790832832 61.316642474150285,98.1258347468538 61.54276975337416,97.10135635195184 62.13892348960508,96.31951369802118 61.851125134155154,95.29502513790794 61.33719949948136,94.40533302660333 60.80271683947649,93.51563656712824 59.98043582425453,93.13818827073555 59.13759778335225,92.59897506108973 58.8909134787973,91.57446556258947 58.97314158035442,90.60387229797198 58.39754486957099,89.95680724659178 58.04807543812785,89.06708904533298 57.328579549561255,88.33913455531001 56.52685555955395,87.96167552548286 55.82791669643484,87.26067810798122 55.601789417210966,86.23613856497104 55.14953485876322,85.3194404017413 55.35510511265602,84.32185186096467 54.86173650342971,83.51299227394338 53.957227386534214,83.00071267642488 52.97049016796518,82.70412909262814 52.250994279515,82.08399821950297 51.77818269573618,81.16727914586954 51.38759921339806,80.25055545534997 50.79144547728356,79.46864042403467 50.133620665059425,79.01027487847023 50.15417769027408,77.98568889712624 50.81200250261463,77.20376413645863 50.54476117272861,76.34094670924242 49.948607436497696,75.50508842644922 49.68136610649526,74.588336218716 49.51690990338102,73.96817769520567 48.83852806582581,73.67157939358731 48.13958920259029,73.05141774650838 47.502321415697224,72.16161691003072 46.70059742568992,71.51448629678634 45.77553128346335,71.32573943446914 46.02221558813471,70.38200218704878 45.837202359572984,69.35736763522436 45.302719699568115,68.49451301219233 44.768237039563246,67.71254747679632 44.39821058267262,66.82272053950874 44.336539506562985,65.8519952827919 43.94595602422487,64.93519445297716 43.49370146577712,63.991424068954075 42.69197747576982,63.69480950891739 41.82858240965288,63.18247413028439 41.02685841964558,62.88585825187329 40.04012120119296,63.047648790932726 39.21784018573817,63.64087953696435 38.35444511973765,64.09928378902259 37.449936002725735,64.34196792566217 37.943304611952044,63.452124509363784 38.31333106884267,62.58924189012032 38.97115588118322,61.80725098265975 39.89622202352621,61.321875626104884 40.84184519108385,60.91739517339738 41.37632785108872,60.02753501322877 40.82128816586919,59.16463615730754 40.01956417574547,58.67925375292543 39.032826957292855,58.868013730680104 38.31333106884267,58.32869898916397 39.27951126196422,58.08600683401164 39.87566499807872,57.33096250402741 40.47181873419322,56.54894900275394 41.479112978093326,56.68377915651945 40.71850303874817,56.14445794218045 39.75232284585945,56.06355962221278 39.115055058849975,55.20064197128522 38.580572398845106,54.31075385851727 37.73773435805924,53.74445915741671 37.30603682505898,52.82759733396233 36.73044011427555,52.01859777132631 35.96983017504681,52.288264691786026 35.702588845044374,52.773664141626796 35.2708913119277,53.31299534528807 34.73640865192283,53.42086139424646 33.74967143347021,53.36692837777082 32.762934215017594,53.286028823131346 31.920096174348146,53.79839206203178 31.015587057336234,53.74445915741671 31.138929209671915,53.42086139424646 31.87898212345317,52.773664141626796 32.59847801201977,51.96466433920432 33.585215230472386,51.452295937604504 33.955241687363014,50.5893564215221 34.962535931146704,50.29272001782374 35.49701859115157,49.53764335376036 35.291448337375186,48.620760335499654 34.79807972814888,47.784774733838276 34.777522702817805,46.78698044003977 33.975798712694086,46.32853257887473 33.15351769735571,46.54427289268642 32.228451555012725,46.94878529178095 31.26227136189118,47.11058999960369 30.25497711810749,47.24542714630661 29.268239899771288,47.29936197702773 28.260945655871183,47.515101139841136 27.253651411971077,47.569035890628584 26.246357168070972,47.62297062539437 25.280176975065842,47.89264405949507 24.334553807391785,47.89264405949507 23.63561494438909,48.647727549032425 22.8133339289343,48.97133379969455 22.134952091262676,49.69944575976115 21.723811583593488,50.53542256588116 21.148214872693643,51.425329139630776 20.65484626358375,52.07253118738299 20.346490882802755,51.29049509005563 19.729780121240765,51.18262777842756 19.62699499435257,50.64329026118503 19.791451197466813,49.78034690883942 19.791451197466813,48.89043229098024 19.647552019683644,47.946578698421945 19.606437968905084,46.975752753030974 19.174740435904823,46.03188922976551 19.421424740576185,45.007117575689335 19.688666070462205,43.955372245807666 19.750337146571837,42.903620837285416 19.33919663890265,41.98670439308626 19.688666070462205,41.06978332872677 20.140920628909953,40.17982611255138 20.86041651747655,39.424707485493855 21.312671075807884,38.534742223710055 21.88826778670773,37.72567911770602 22.381636395817623,36.78176761401119 22.998347157496028,35.97269671371032 23.306702538160607,35.19059142393235 22.443307471927255,35.460283282911405 22.97779013204854,34.73211434634868 23.882299248944037,34.24666676968627 24.68402323895134,33.57243187597487 25.033492670510896,32.682437990704784 25.547418305068277,32.385772394918604 26.081900965073146,31.54971220449079 26.760282802861184,30.713648172517424 27.41810761508532,29.98546024042298 28.01426135119982,30.25515981433273 28.05537540197838,31.199105174906435 28.918770468211733,31.468802949937526 29.042112620431,30.49788908904884 29.227125848876312,29.5 30.008292813552544,30.1203100772982 30.645560600445606,30.902437160693808 31.056701108114794,31.792439752316568 31.652854844229296,32.70940756628988 32.022881301119924,33.68030962681223 32.269565605791286,34.65120650678 32.6601490881294,35.59512906249438 33.09184662124608,36.5390467216057 33.68800035736058,37.402052867983 34.55139542359393,37.752647945831995 35.57924669270869,37.779616769970744 36.54542688583024,37.72567911770602 37.20325169805437,37.10539496684214 38.04608973884024,36.70086068584351 38.97115588118322,36.5390467216057 39.4028534142999,35.67603648226941 39.731765820411965,35.83785121393157 39.91677904885728,36.862674506162875 40.204577404190786,37.83355440630112 40.78017411509063,38.696554413225385 40.697946013417095,39.4786446342041 40.12234930275008,40.3146683947416 40.204577404190786,41.17765663488535 40.49237575964071,42.12154533629655 40.67738898808602,43.14633324032184 40.57460386119783,44.17111537317396 40.924073292757384,45.14195628093148 41.95192456187215,45.08802081081376 42.95921880577225,44.84531099750893 42.79476260265801,45.68131010273646 41.972481587319635,46.24762989523879 41.458555952762254,47.08362255831889 41.72579728264827,48.10838251905807 42.65086342499126,48.56682589644333 42.897547729546204,49.29493947495939 42.69197747576982,50.26575304806465 42.91810475499369,51.29049509005563 43.37035931344144,52.23433133965591 44.08985520189162,52.98939681494085 44.871022166567855,53.55569386550633 44.70656596345361,54.33772022888297 44.788794065010734,55.335473123937845 45.179377547232434,56.279288395598996 45.446618877351284,57.27703064630623 45.77553128346335,58.274767427064944 46.02221558813471,59.272498737977 46.453913121134974,60.18932809321268 47.008952806470916,61.07918746229552 47.5434354665922,61.96904248057399 47.97513299959246,62.93978844760568 48.30404540582094,63.91052923681855 48.57128673570696,64.93519445297716 48.79741401493084,65.9328892519261 49.08521237038076,66.9036140772514 49.352453700383194,67.90129808604252 49.49635287804995,68.95290503991419 49.80470825871453,69.8966496972862 50.62698927416932,70.4898581202142 51.5520554165123,70.8673533826659 52.57990668574348,71.00217292948219 53.3610736503033,71.54145011826768 53.66942903108429,72.4851813538844 53.916113335755654,73.48283476820507 54.45059599576052,74.31870233762311 55.45789023954421,74.42655593801464 56.30072828033008,73.91425076722226 57.12300929566845,73.2940899469977 57.96584733645432,72.70089066357468 58.74701430113055,72.45821767221787 59.610409367247485,71.94590696123487 60.28879120491911,71.21788399673824 59.42539613880217,71.75716054638906 58.60311512334738,72.37732660314941 57.67804898112081,72.80874522255908 58.62367214879487,72.32339920382947 59.44595316424966,71.6762691657641 60.186006078030914,71.00217292948219 60.80271683947649,70.22021816759661 61.48109867726453,69.38433177626575 62.36505076882895,68.89897662603471 63.31067393650301,68.44058446248528 64.21518305328209,68.06308416674437 65.03746406873688,67.44290340979933 65.90085913497023,66.9036140772514 66.59979799797293,66.17557094361109" stroke="#FFFF00" stroke-linecap="round" stroke-linejoin="round" stroke-width="0.5"><title>2024-07-07 14.63km</title><desc>6661720314738014630</desc></polyline></svg>