<?xml version="1.0" encoding="utf-8" ?>
<svg baseProfile="full" height="130mm" version="1.1" viewBox="0,0,100,130" width="100mm" xmlns="http://www.w3.org/2000/svg" xmlns:ev="http://www.w3.org/2001/xml-events" xmlns:xlink="http://www.w3.org/1999/xlink"><defs /><rect fill="#FAF9F5" height="130" width="100" x="0" y="0" /><text fill="#5A5A5A" style="font-size:6px; font-family:Arial; font-weight:bold;color:#0ed45e;" x="5" y="10">2024 保定半马</text><text fill="#5A5A5A" style="font-size:4px; font-family:Arial" x="5" y="121">Runner</text><text fill="#5A5A5A" style="font-size:6px; font-family:Arial" x="2" y="128">蓝皮书</text><text fill="#5A5A5A" style="font-size:4px; font-family:Arial" x="25" y="121">WORKOUTS INFO</text><text fill="#5A5A5A" style="font-size:3px; font-family:Arial" x="25" y="125">Type: Run</text><text fill="#5A5A5A" style="font-size:3px; font-family:Arial" x="22" y="129">Date: 2024-04-21</text><text fill="#5A5A5A" style="font-size:3px; font-family:Arial" x="47" y="125">Distance: 20.95 km</text><text fill="#5A5A5A" style="font-size:3px; font-family:Arial" x="47" y="129">Duration: 02:24:03</text><text fill="#5A5A5A" style="font-size:3px; font-family:Arial" x="75" y="125">Pace: 6:52/km</text><text fill="#5A5A5A" style="font-size:3px; font-family:Arial" x="75" y="129">Elevation: 0m</text><polyline fill="none" points="84.10540872774436,84.17227287552305 84.11094038106967,84.1935892536676 84.17732022129348,84.17227287552305 84.23263675477938,84.1935892536676 84.33220651507145,84.17937833591714 84.49262446220382,84.1935892536676 84.89643515672651,84.18648379529986 85.11770129072829,84.17227287552305 86.01382913338603,84.1935892536676 86.51167793484638,84.16516741415398 87.39674247082439,84.17937833591714 87.5792870313744,84.15806195178084 87.73417332515237,84.16516741415398 87.89459127228474,84.14385102401502 88.61370620774687,84.16516741415398 88.88475722190924,84.1509564883927 89.20559311617399,84.16516741415398 89.59280885066255,84.1509564883927 89.90811309160199,84.11542915648897 90.02427781192819,84.04437441768096 90.14044253228349,83.90937013853181 90.23448063922115,83.76725998106485 90.29532882606145,83.55409399496784 90.3285187461588,82.61615296568561 90.31745543947909,82.43140495159605 90.3285187461588,82.33192497170967 90.31192378609558,82.27507918093397 90.36170866625616,81.77056998342596 90.33958205283852,81.03866739805017 90.35064535957645,80.43466212870408 90.38936693299911,80.0438313394734 90.37277197296498,79.78090710639299 90.39489858635352,79.56772429068224 90.3838352796738,79.47534479098977 90.38936693299911,79.2621606851244 90.40596189306234,79.14135595888365 90.38936693299911,79.08450657595677 90.41702519977116,78.7078777971692 90.40043023970793,78.67945286967006 90.43362015980529,78.4449466070655 90.4391518131597,77.80537853650458 90.47234173325705,77.61350653546106 90.47234173325705,76.853117730745 90.5,76.46936576133157 90.49446834664559,76.22063607499149 90.47787338661146,76.17088999065527 90.41149354641675,76.07139767495755 90.31192378609558,75.97901177767199 90.14044253228349,75.96479854769132 89.86385986479581,75.97901177767199 89.04517516904161,75.94347869524063 88.01075599264004,75.97190516317642 87.4631223110191,75.93637207575375 86.9320835894323,75.9505853137307 86.67209588200785,75.9150522112759 86.406576521229,75.9292654552446 85.38875230486155,75.90083896329816 85.27811923786066,75.9150522112759 84.50368776888354,75.87951908381365 84.02796558084083,75.90083896329816 83.51352181931725,75.89373233780861 83.09864781808574,75.92215883376412 82.92716656424454,75.89373233780861 82.3186846957833,75.86530582584237 81.93146896129474,75.87241245533369 81.33958205286763,75.8439859313803 80.84173325140728,75.8581991953688 80.06730178243015,75.81555939139434 79.40903503383743,75.81555939139434 79.12692071296624,75.79423947590112 78.97756607254269,75.80845275390675 78.92224953905679,75.78713283540492 78.85033804547857,75.80845275390675 78.49631223111646,75.78002619390463 78.3414259373094,75.79423947590112 78.04271665643319,75.7658129079282 77.4065765211999,75.78002619390463 76.98617086664308,75.7658129079282 76.84234787954483,75.73738632392997 75.96281499692122,75.71606637541481 75.62538414262235,75.63078649139061 75.29348494161968,75.55971981132097 74.92286416716524,75.51707975526006 74.64628149970667,75.45311960363688 74.56883835283224,75.41758615105937 74.15396435157163,75.32519905730442 73.77228027046658,75.25413194703651 73.57314074985334,75.211491632861 73.1416717885586,75.06935699218229 72.76551936077885,74.98407601569852 72.64935464045266,74.93432871288678 72.5553165334859,74.77087294420926 72.49446834664559,74.62873706296887 72.17916410570615,74.14547207331634 71.98555623844732,73.61245385185612 71.47664413030725,72.03468693068135 71.19452980949427,71.30975045944433 71.16133988939691,71.30975045944433 71.10049170255661,71.16049754061169 71.00645359558985,70.85488304414685 70.87369391520042,70.5350519384483 70.8073140749766,70.30761525259368 70.70774431468453,70.10149987086334 70.61923786110128,69.7958789624754 70.51966810080921,69.55422391090178 70.29287031348213,69.19884673335036 70.17117393977242,69.05669516174021 69.90565457899356,68.82214419329466 69.7562999385409,68.72263739255868 69.64566687154002,68.6231303956265 69.55716041798587,68.50940787322179 69.45205900431029,68.43122349043551 69.3414259373094,68.3175005356461 69.14228641672526,68.1966696154268 69.15334972340497,68.10426930477843 69.0482483097876,68.07583840591906 68.90995697604376,67.96922239261039 68.8214505224314,67.84128287938438 68.82698217578582,67.80574406813685 68.76613398894551,67.72755859533936 68.61677934849286,67.45035457948688 68.49508297481225,67.28687457438355 68.1742470805184,66.94569720589061 67.8257529194816,66.51922225198723 67.6487400123151,66.33441531948847 67.33896742470097,65.94347534776534 67.18961278427741,65.78709851116582 66.99047326369327,65.53120809706888 66.68623232943355,65.06207230141808 66.592194222525,64.99099073982143 66.45390288875205,64.92701724879589 66.15519360784674,64.71377169303742 66.02243392748642,64.66401426704033 65.87307928706286,64.57160748861497 65.29778733866988,64.27306135576873 64.8995082975016,64.0384881552709 64.79440688382601,64.00294666616901 64.60633066992159,63.8963220485748 63.85955746774562,63.55512175849799 63.30639213277027,63.313436823984375 62.73110018437728,63.036208561985404 62.57621389059932,62.94379880288034 62.52642901046784,62.93669035287894 62.42685925017577,62.90114808775979 61.91241548862308,62.638134548007656 61.64689612784423,62.56704957222246 61.57498463432421,62.53150704678774 61.50860479410039,62.53861555389085 61.30393362016184,62.48885598320703 59.79379225568846,62.076560510224226 59.622311001847265,62.04812621548626 59.50061462816666,62.005474743382365 58.93638598648249,61.849085703870514 58.58236017212039,61.777999616570014 58.37215734482743,61.70691342918508 58.21727105102036,61.68558755343474 57.53134603565559,61.500762919422414 57.21604179471615,61.43678500375245 56.81223110019346,61.30172024878266 56.46373693915666,61.20930731342014 56.03779963121633,61.07424194960913 55.95482483095839,61.06713323622898 55.67824216349982,61.00315477080585 55.44591272281832,60.917850024048676 54.92593730794033,60.80411013742196 54.3229870928335,60.63349982675936 54.112784265511436,60.61217349737126 53.75322679779492,60.51975929918626 53.32175783650018,60.434453735273564 53.205593116173986,60.39180089922593 52.93454210204072,60.327821577560826 52.70221266133012,60.2851686513859 52.586047941003926,60.27805982686186 52.364781807002146,60.214080360980006 52.07160417950945,60.157209656539635 51.960971112479456,60.14299197043874 51.50737553779618,60.02214147663835 51.29164105717791,59.99370602427007 51.23079287033761,60.00081488887372 50.98740012291819,59.922617323241866 50.6997541487508,59.87996405456579 50.61677934852196,59.83731074982643 50.41210817458341,59.82309297356551 50.39551321452018,59.80887519331736 50.41210817458341,59.80176630166898 49.89213275970542,59.70935061928685 49.831284572865115,59.716459523951926 49.53810694528511,59.638261517677165 49.178549477568595,59.60271692929018 48.774738783045905,59.5103008823462 48.3045482482994,59.43210255660597 48.149661954521434,59.424993611875834 47.59096496619168,59.346795153909625 47.425015365704894,59.35390410965192 47.08205285802251,59.29703243574477 46.09741856175242,59.19750685218605 45.92040565458592,59.140635001997 45.588506453612354,59.105090063094394 45.14044253225438,59.041109109963145 44.75322679779492,58.96291005707462 44.205593116173986,58.891819903812575 43.72433927474776,58.80651158771798 43.5141364474548,58.79229352100447 43.08819913951447,58.81362061957407 42.938844499061815,58.80651158771798 42.440995697601466,58.81362061957407 42.214197910245275,58.785184486165235 41.77166564229992,58.80651158771798 41.013829133386025,58.80651158771798 40.73171481254394,58.79229352100447 40.57129686541157,58.80651158771798 39.78027043637121,58.785184486165235 39.42624462200911,58.80651158771798 39.249231714813504,58.849165763804194 39.01690227413201,58.83494770911784 38.87861094035907,58.849165763804194 38.57437000612845,58.79229352100447 38.4858635525452,58.80651158771798 38.14290104486281,58.77807545031101 37.14720344191301,58.77807545031101 36.83743085432798,58.79229352100447 36.53318992009736,58.79229352100447 36.22341733251233,58.770966413438146 35.44345421020989,58.77807545031101 34.93454210201162,58.74253025599319 34.447756607230986,58.76385737559394 34.3979717270995,58.73542121413266 34.392440073774196,57.97474794713344 34.359250153647736,57.804128069692524 34.375845113710966,57.541087961632 34.3371235402592,57.406012778657896 34.281807006773306,57.34202967101737 34.2209588199039,57.31359270826215 34.18223724645213,57.31359270826215 33.67332513828296,57.17140765403019 33.49078057776205,57.150079861330596 33.20313460356556,57.0292221991258 32.96527350952965,56.97234790496441 32.849108789203456,56.96523861369133 32.62784265517257,56.901254947119014 32.52274124152609,56.851489817032416 30.769207129691495,56.36094519384278 30.60325752920471,56.32539829669622 30.415181315300288,56.24719503480446 30.13859864778351,56.18321045767152 29.933927473903168,56.11922579937527 29.88414259374258,56.11922579937527 29.56883835280314,55.991256239358336 29.513521819288144,55.984146809831145 29.23693915180047,55.88461469140384 28.93269821756985,55.8064107463324 28.611862323276,55.84906745866101 28.589735709916567,55.84195800910311 28.468039336177753,55.87750524685907 28.41272280269186,55.85617690722211 28.32974800246302,55.87750524685907 27.876152427779743,56.133444619350485 27.428088506450877,56.35383581640417 26.99661954518524,56.60266343027615 26.858328211441403,56.65242880580263 26.205593116173986,57.02211291585263 24.9277811923821,57.711708728536905 24.341425937309396,58.01740282634637 23.98740012291819,58.23067668150907 23.81591886904789,58.30176776625012 23.550399508269038,58.31598597118864 23.395513214491075,58.28044045134084 23.21850030729547,58.21645845256353 22.228334357700078,57.93209303187541 21.221573448070558,57.590852411572996 20.956054087291704,57.4842142444395 20.834357713581994,57.46999580512784 20.712661339872284,57.49132346260376 19.595267363241874,57.98896624421468 19.440381069434807,58.06716680651516 19.10848186846124,58.188021982608916 18.444683466485003,58.515040419475554 17.803011677926406,58.8704928383122 17.515365703729913,58.99134609031171 17.06730178243015,59.26859657474779 16.790719114942476,59.389448873280344 15.717578365089139,59.958161686285166 15.579287031345302,60.0079237524551 15.319299323891755,60.14299197043874 15.048248309729388,60.306495118973544 14.738475722173462,60.434453735273564 14.345728334359592,60.63349982675936 13.964044253196334,60.87519759661882 13.637676705577178,61.031589654347044 13.023663183761528,61.38702434661536 12.321143208362628,61.95571464701425 11.95052243390819,62.28981720990123 11.74585125996964,62.43198784238484 11.596496619516984,62.57415807431971 11.55777504609432,62.64524304010047 11.502458512579324,62.85849733659052 11.507990165933734,63.10729287690265 11.54118008603109,63.27789482418666 11.55224339273991,63.853672138491675 11.6628764597408,64.42233464293895 11.685003073129337,64.68533888418096 11.690534726454644,65.15447818181565 11.828826060227584,66.71113642722048 11.84542102026171,67.2229039934864 11.96158574061701,68.45254651594587 12.044560540874954,69.22016943456038 12.099877074389951,70.00199559221437 12.088813767652027,70.22943365514584 12.144130301167024,70.4284411195622 12.149661954521434,70.49240763790658 12.127535341132898,70.52083717561618 12.232636754750274,71.42346667281527 12.35433312843088,73.12917913312049 12.387523048528237,73.93226546007281 12.448371235397644,74.41553249074786 12.45943454207736,74.65716427121879 12.420712968654698,74.84194073475373 12.47049784878618,75.36783927543365 12.45943454207736,75.53839978777978 12.553472649044124,77.42874021566604 12.586662569141481,77.8195912483352 12.619852489267942,77.93329279877798 12.653042409365298,78.46626540321085 12.664105716045015,78.9921261921445 12.691763982787961,79.30479757831199 12.691763982787961,79.66720971670657 12.724953902885318,79.95855876525457 12.713890596176498,80.11489170798086 12.747080516273854,80.20016401819521 12.874308543337975,80.32096621114033 13.106637984019471,80.49150999147241 13.222802704345668,80.53414584655911 13.322372464666842,80.58388763197945 13.455132145056268,80.74732458192375 13.621081745543052,80.88944323881879 13.770436385966605,80.93207875788721 14.019360786740435,80.94629058957435 14.152120467100758,80.96760832960354 14.212968653970165,80.99603196898533 14.235095267358702,81.04577329938184 14.190842040552525,81.09551458078568 14.080208973580739,81.1239381481646 13.919791026419261,81.14525581318958 13.648740012285998,81.13104403752368 13.239397664408898,81.14525581318958 13.101106330665061,81.13814992585685 13.051321450504474,81.10262047412834 12.216041794687044,81.17367935257425 11.55777504609432,81.15946758487553 10.84972341734101,81.18789111625665 10.340811309142737,81.19499699658991 10.21911493546213,81.18078523491931 9.970190534717403,81.20210287594091 9.533189920068253,81.19499699658991 9.50553165335441,81.20920875427691 9.5,81.23763225766015 9.59956976029207,81.31579680944196 9.78764597416739,81.36553782482952 10.30208973569097,81.37264368018805 10.584204056533054,81.3442202528131 10.799938537180424,81.35843196849964 10.855255070666317,81.37974953452795 10.910571604181314,81.3513261111475 11.1373693915084,81.36553782482952 11.303318991995184,81.3513261111475 12.846650276565924,81.33000853312478 13.051321450504474,81.31579680944196 13.17301782418508,81.32290267178905 13.654271665640408,81.28737335006736 15.12569145669113,81.29447921641258 15.479717271024128,81.26605574503628 16.85709895513719,81.24473813099394 17.205593116144883,81.21631463163794 17.2719729563687,81.25184400334547 17.43239090347197,81.18078523491931 17.498770743695786,81.18789111625665 17.570682237274013,81.23763225766015" stroke="#89CFF0" stroke-linecap="round" stroke-linejoin="round" stroke-width="0.5"><title>2024-04-21 20.95km</title><desc>11228004375</desc></polyline></svg>