<?xml version="1.0" encoding="utf-8" ?>
<svg baseProfile="full" height="130mm" version="1.1" viewBox="0,0,100,130" width="100mm" xmlns="http://www.w3.org/2000/svg" xmlns:ev="http://www.w3.org/2001/xml-events" xmlns:xlink="http://www.w3.org/1999/xlink"><defs /><rect fill="#FAF9F5" height="130" width="100" x="0" y="0" /><text fill="#5A5A5A" style="font-size:6px; font-family:Arial; font-weight:bold;color:#0ed45e;" x="5" y="10">晨间跑步Run</text><text fill="#5A5A5A" style="font-size:4px; font-family:Arial" x="5" y="121">Runner</text><text fill="#5A5A5A" style="font-size:6px; font-family:Arial" x="2" y="128">蓝皮书</text><text fill="#5A5A5A" style="font-size:4px; font-family:Arial" x="25" y="121">WORKOUTS INFO</text><text fill="#5A5A5A" style="font-size:3px; font-family:Arial" x="25" y="125">Type: Run</text><text fill="#5A5A5A" style="font-size:3px; font-family:Arial" x="22" y="129">Date: 2025-10-27</text><text fill="#5A5A5A" style="font-size:3px; font-family:Arial" x="47" y="125">Distance: 5.36 km</text><text fill="#5A5A5A" style="font-size:3px; font-family:Arial" x="47" y="129">Duration: 40:34min</text><text fill="#5A5A5A" style="font-size:3px; font-family:Arial" x="75" y="125">Pace: 7:34/km</text><text fill="#5A5A5A" style="font-size:3px; font-family:Arial" x="75" y="129">Elevation: 0m</text><polyline fill="none" points="73.84142114385031,52.14516134187579 68.31975736562163,54.3131554168649 59.56932409014553,58.046897122840164 56.761698440182954,59.01043805642985 49.97660311963409,62.02148942509666 44.68890814576298,64.06899219733896 43.238301559817046,64.7314174574276 33.73916811100207,68.46506783887162 27.328422877006233,71.1749548765074 23.912478336133063,72.4395629275532 19.373483535367996,74.54723466929863 9.827556325588375,78.46145452107885 9.546793760731816,78.64210995350732 9.5,78.94320217089262 9.874350086553022,79.90669583587442 10.623050259891897,80.87018732153228 11.652512998087332,83.39934210281353 12.026863084873185,84.48326098357211 13.85181975737214,88.81890892554657 14.647313691442832,91.04693306374247 15.48960138647817,92.85343056707643 15.817157712066546,93.75667644580244 16.004332755692303,93.9373253917147 16.19150779861957,93.9373253917147 16.659445407334715,93.69646011362784 16.799826689762995,93.51581106541562 16.799826689762995,93.03407989593688 14.647313691442832,87.85543541875086 13.243500866461545,84.06173730213777 11.792894280748442,80.5088782699313 11.652512998087332,80.02713239085278 11.605719237355515,79.78625924693188 11.699306759051979,79.60560429972247 12.073656845605,79.3647309174994 13.009532062103972,79.06363899805001 21.947140381205827,75.63117607543245 28.264298093505204,72.9815366572002 35.470537261804566,70.1512217996933 36.68717504339293,69.54902472268441 38.13778162910603,69.0672664483136 42.20883882162161,67.26066806598101 43.89341421145946,66.65846690215403 44.26776429801248,66.65846690215403 44.40814558067359,66.71868705691304 44.45493934140541,67.14022790116724 42.957538994727656,78.76254686614266 42.39601386478171,83.94130188794225 42.48960138647817,84.30260802822886 43.00433275545947,84.24239035948995 43.47227036394179,84.00151959923096 43.6126516466029,83.51977767012431 45.81195840542205,66.11648512718966 46.04592720977962,65.75516356056323 48.19844020786695,64.9120787132997 48.2452339688316,65.03251950800768 48.2452339688316,65.27340099512367 47.77729636034928,68.1639682148234 47.44974003476091,71.41583288999391 47.075389947975054,73.58372888129088 46.74783362215385,76.05270809974172 46.74783362215385,77.19686434825417 46.42027729633264,79.00342058876413 46.32668977463618,80.5088782699313 46.13951473147608,81.47236839338439 45.718370883958414,84.48326098357211 45.76516464469023,84.66391386213945 46.09272097051144,84.84456666425103 49.508665511151776,85.14565449714428 49.6958405545447,85.0252193895576 49.83622183697298,84.60369624447776 49.929809358902276,82.97781734875753 50.16377816279419,81.71324058392202 50.8188908144366,76.83555218062247 51.146447140490636,73.76438638271065 52.22270363941789,66.2369255812664 52.40987868281081,63.82811002901872 52.55025996547192,63.286124652426224 52.6906412479002,63.10546270690975 56.8084922011476,61.178397187410155 59.9904679376632,60.034197910135845 62.751299826661125,58.64911046173074 67.89861351810396,56.90268943324918 72.11005199304782,54.9153740349866 73.46707105729729,54.43359920865623 90.5,47.38758010842139 89.9852686310187,46.30356682400452 89.79809358762577,46.12289767508628 89.56412478350103,46.062674608285306 88.7686308491975,46.30356682400452" stroke="#4DD2FF" stroke-linecap="round" stroke-linejoin="round" stroke-width="0.5"><title>2025-10-27 5.36km</title><desc>16267361161</desc></polyline></svg>