<?xml version="1.0" encoding="utf-8" ?>
<svg baseProfile="full" height="130mm" version="1.1" viewBox="0,0,100,130" width="100mm" xmlns="http://www.w3.org/2000/svg" xmlns:ev="http://www.w3.org/2001/xml-events" xmlns:xlink="http://www.w3.org/1999/xlink"><defs /><rect fill="#222222" height="130" width="100" x="0" y="0" /><text fill="#FFFFFF" style="font-size:6px; font-family:Arial; font-weight:bold;" x="5" y="10">2025-01-30 Workouts</text><text fill="#FFFFFF" style="font-size:4px; font-family:Arial" x="5" y="121">Runner</text><text fill="#FFFFFF" style="font-size:6px; font-family:Arial" x="2" y="128">蓝皮书</text><text fill="#FFFFFF" style="font-size:4px; font-family:Arial" x="25" y="121">STATISTICS</text><text fill="#FFFFFF" style="font-size:3px; font-family:Arial" x="25" y="125">Number: 1</text><text fill="#FFFFFF" style="font-size:3px; font-family:Arial" x="25" y="129">Weekly: 1.0</text><text fill="#FFFFFF" style="font-size:3px; font-family:Arial" x="48" y="125">Total: 2.1 km</text><text fill="#FFFFFF" style="font-size:3px; font-family:Arial" x="48" y="129">Avg: 2.1 km</text><text fill="#FFFFFF" style="font-size:3px; font-family:Arial" x="75" y="125">Min: 2.1 km</text><text fill="#FFFFFF" style="font-size:3px; font-family:Arial" x="75" y="129">Max: 2.1 km</text><polyline fill="none" points="75.0997762447223,103.33693126996513 74.81044164765626,103.70426905574277 73.0744340699166,103.52060017501935 73.2191013675183,103.52060017501935 72.06176298111677,100.58189467957709 71.48309378884733,99.47987846354954 69.89175350870937,98.74520048545673 65.84106915723532,98.56153092824388 64.68373077083379,98.92887001729105 62.51372129749507,98.56153092824388 59.76504263095558,98.92887001729105 58.607704245485365,99.29620900680311 44.285641718655825,99.47987846354954 42.98363603465259,100.03088668477722 41.97096494678408,101.31657165545039 40.66895926184952,103.52060017501935 40.66895926184952,104.07160674128681 40.52429196424782,104.80628181120846 40.813626560382545,106.82663618470542 41.82629764825106,108.66331934637856 42.2602995429188,108.84698752441909 42.83896873611957,109.58165998663753 43.85163982398808,109.94899606739637 47.61298957839608,110.31633204780519 49.20432985946536,109.76532803964801 53.399681507609785,109.39799190883059 55.42502368427813,109.58165998663753 69.74708621017635,109.2143238055287 70.75975729711354,108.84698752441909 72.06176298111677,107.56130975030828 72.92976677138358,106.09196221840102 73.36376866605133,103.70426905574277 73.0744340699166,101.68390999303665 71.9170956844464,99.66354789584875 71.04909189417958,98.92887001729105 68.58974782470614,98.56153092824388 57.595033157616854,99.47987846354954 53.97835070081055,99.29620900680311 52.24234312213957,99.47987846354954 45.73231470119208,99.47987846354954 42.98363603465259,100.21455604175571 41.10296115744859,102.60225539747626 40.52429196424782,104.80628181120846 40.52429196424782,106.27563074743375 41.392295754514635,108.4796511430759 42.2602995429188,109.39799190883059 44.57497631479055,110.5 46.88965308666229,110.31633204780519 47.902324174530804,109.94899606739637 50.506335543468595,109.58165998663753 54.991021789610386,109.76532803964801 64.53906347323209,108.66331934637856 66.70907294750214,108.84698752441909 68.87908242084086,108.66331934637856 71.9170956844464,107.37764139659703 72.92976677138358,104.80628181120846 73.0744340699166,103.70426905574277 72.64043217524886,101.68390999303665 71.9170956844464,100.76556396135129 70.75975729711354,99.66354789584875 69.02374971937388,98.92887001729105 61.79038480576128,99.47987846354954 45.008978210389614,99.66354789584875 43.27297063078731,100.21455604175571 41.53696305118501,102.05124823004007 40.66895926184952,104.43894432589877 40.813626560382545,105.72462508431636 41.392295754514635,107.56130975030828 42.83896873611957,108.84698752441909 43.9963071225211,109.39799190883059 45.44298010505736,109.58165998663753 58.46303694602102,109.39799190883059 69.60241891164333,108.4796511430759 70.90442459564656,107.92864638241008 71.48309378884733,107.37764139659703 72.64043217524886,104.98995051591191 72.92976677138358,103.15326233941596 72.49576487671584,101.50024083652534 71.62776108738035,99.84721730311867 70.32575540337712,98.92887001729105 70.03642080631107,98.37786134541966 70.32575540337712,97.09217356622685 69.74708621017635,96.35749428370036 68.44508052524179,95.9901544918539 66.56440564803779,95.80648455792107 64.68373077083379,95.0718045735266 63.092390490695834,95.43914461613167 61.93505210522562,95.25547460780945 60.488379121758044,94.70446443080436 59.76504263095558,94.15345402865205 59.620375332422554,92.50042146758642 60.77771371882409,90.66371623950545 60.488379121758044,86.99029826105107 60.19904452562332,86.07194219890516 60.488379121758044,84.96991409745533 60.19904452562332,84.2352281952044 57.595033157616854,84.96991409745533 53.399681507609785,85.52092826156877 52.53167771920562,84.78624265955295 53.255014210008085,84.41889970819466 53.83368340320885,81.66382437583525 53.83368340320885,79.82710435322952 53.399681507609785,78.72507113555912 53.54434880614281,75.051620557555 51.22967203427106,74.1332563458709 51.66367392987013,73.94958342867903 51.08500473573804,73.21489150740672 50.506335543468595,71.74550646136049 49.49366445560008,70.64346662396565 48.770327964797616,68.99040517455433 48.625660666264594,67.88836307974998 47.75765687599778,67.5210155142704 47.46832227986306,66.7863200820284 43.12830333318561,66.96999397815671 40.3796246657148,65.50060211063828 40.09029006958008,64.94957974704448 40.2349573681131,62.561813562060706 39.51162087637931,62.1944645420881 39.51162087637931,62.01078999438323 38.3542824909091,60.174043138627894 38.49894978944212,59.80669346661307 38.06494789477438,59.43934369424824 37.196944104507565,59.07199382141698 36.76294220983982,58.15361870091874 36.328940315172076,57.96994360187091 36.328940315172076,56.50054190389346 35.60560382436961,53.74540939531289 36.03960571810603,53.56173369428143 36.6182749113068,50.43924293573946 38.06494789477438,48.23512744915206 37.63094599917531,46.21468508022372 34.592932735569775,43.459531504893675 32.8569251568988,42.17379123880528 32.42292326223105,41.4390819639666 29.963579191826284,38.50024084979668 27.93823701608926,35.56139331625309 26.491564034484327,35.01035868853796 25.768227542750537,34.091967141255736 25.04489105194807,31.52046747331042 24.90022375434637,29.5" stroke="#4DD2FF" stroke-linecap="round" stroke-linejoin="round" stroke-width="0.5"><title>2025-01-30 2.1km</title><desc>13491562127</desc></polyline></svg>