<?xml version="1.0" encoding="utf-8" ?>
<svg baseProfile="full" height="130mm" version="1.1" viewBox="0,0,100,130" width="100mm" xmlns="http://www.w3.org/2000/svg" xmlns:ev="http://www.w3.org/2001/xml-events" xmlns:xlink="http://www.w3.org/1999/xlink"><defs /><rect fill="#FAF9F5" height="130" width="100" x="0" y="0" /><text fill="#5A5A5A" style="font-size:6px; font-family:Arial; font-weight:bold;" x="5" y="10">2025-05-10 Workouts</text><text fill="#5A5A5A" style="font-size:4px; font-family:Arial" x="5" y="121">Runner</text><text fill="#5A5A5A" style="font-size:6px; font-family:Arial" x="2" y="128">蓝皮书</text><text fill="#5A5A5A" style="font-size:4px; font-family:Arial" x="25" y="121">STATISTICS</text><text fill="#5A5A5A" style="font-size:3px; font-family:Arial" x="25" y="125">Number: 3</text><text fill="#5A5A5A" style="font-size:3px; font-family:Arial" x="25" y="129">Weekly: 3.0</text><text fill="#5A5A5A" style="font-size:3px; font-family:Arial" x="48" y="125">Total: 18.3 km</text><text fill="#5A5A5A" style="font-size:3px; font-family:Arial" x="48" y="129">Avg: 6.1 km</text><text fill="#5A5A5A" style="font-size:3px; font-family:Arial" x="75" y="125">Min: 3.9 km</text><text fill="#5A5A5A" style="font-size:3px; font-family:Arial" x="75" y="129">Max: 8.9 km</text><polyline fill="none" points="46.769196692388505,45.3120124675479 46.6974305966869,44.814053154565045 46.769196692388505,44.93854309126618 47.17587123461999,44.96966556420375 47.75,44.75180815902422 47.72607796813827,44.72068565443624 47.75,44.53395053229178 47.72607796813827,44.06711201494909 47.654311872436665,43.84925369208213 47.70215593627654,43.538027132395655 47.75,43.41353638189321 47.678233904298395,43.382413683022605 47.70215593627654,43.382413683022605 45.286030714865774,40.79921391341486 44.16169521561824,39.64765699200507 43.5636444183765,39.70990347024053 43.42011222697329,39.61653374604066 43.18089190789033,39.61653374604066 42.98951565276366,39.492040717072086 42.89382752508391,39.30530103800993 42.91774955706205,39.27417774236528 42.72637330193538,38.9940678779094 42.51107501483057,38.90069784177467 42.20008860016242,38.86957448729663 42.08047844062094,38.93182119165431 42.03263437689748,39.11856119625736 41.88910218549427,39.211931137469946 41.745569994091056,39.211931137469946 41.48242764326278,39.27417774236528 40.908298877766356,39.24305444219499 40.64515652693808,39.211931137469946 40.405936207971536,39.08743787338608 40.33417011226993,39.08743787338608 39.99926166574005,39.46091744858131 39.80788541061338,39.89664279669523 39.401210868381895,40.4568597994803 39.377288836520165,41.452797520993045 39.257678676978685,41.546166445084964 38.68354991148226,41.390551548989606 38.18118724168744,41.32830555901455 37.29607206140645,41.82627297315048 37.05685174255632,42.16862489891355 36.8415534554515,42.324239229928935 36.53056704078335,42.29311637273349 36.19565859425347,42.44873061332328 35.86075014772359,43.25792284209456 35.66937389248051,43.44465907625272 35.45407560537569,43.724763122503646 35.59760779689532,44.2227249671123 35.57368576491717,44.25384754393599 35.47799763735384,44.25384754393599 35.45407560537569,44.2227249671123 35.52584170119371,44.28497011621948 35.50191966933198,44.28497011621948 35.28662138222717,44.16047979982977 34.92779090371914,43.78700841637328 34.5450383934658,43.25792284209456 34.21012994681951,43.07118644511502 34.11444181925617,42.97781818563817 33.99483165983111,42.7910815445357 33.89914353226777,42.417607774128555 33.8512994684279,42.324239229928935 33.707767277024686,42.16862489891355 33.492468990036286,42.01301045501896 33.516391021898016,41.82627297315048 33.492468990036286,41.79515004361747 33.46854695817456,41.79515004361747 33.516391021898016,41.888518818464945 33.03795038408134,41.82627297315048 32.822652096976526,41.82627297315048 32.15283520380035,41.577289410619414 31.96145894867368,41.390551548989606 31.88969285308849,41.359428556257626 32.009303012513556,41.390551548989606 31.985380980651826,41.26605955087871 32.033225044375286,41.20381352462573 31.985380980651826,41.17269050471077 32.009303012513556,41.20381352462573 31.913614884833805,41.20381352462573 31.913614884833805,41.29718255715852 31.77008269354701,41.32830555901455 31.985380980651826,41.017075337455026 31.96145894867368,41.017075337455026 31.93753691681195,40.861460057174554 31.841848789248616,40.79921391341486 31.841848789248616,40.4568597994803 31.74616066168528,40.332367258743034 31.674394565983675,40.11450513849559 31.77008269354701,39.42979417546303 31.626550502260216,39.24305444219499 31.4112522151554,38.77620439686871 31.243797991774045,38.5583406942751 30.93281157722231,38.496093881331035 30.95673360908404,38.30935333430534 30.717513290117495,38.09148915698461 30.35868281160947,38.12261262444372 30.21515062020626,38.02924220851855 29.999852333101444,38.06036568499985 30.071618428919464,38.12261262444372 30.143384524504654,38.40272362822725 30.11946249275934,38.589464093893184 30.1673065564828,38.807327764938236 30.143384524504654,39.14968451450113 30.071618428919464,39.27417774236528 30.071618428919464,39.42979417546303 29.83239810995292,39.89664279669523 29.904164205654524,40.08338196041586 29.664943886571564,40.11450513849559 29.40180153574329,40.48798292336869 29.138659184915014,40.612475373607595 29.042971057235263,40.39461353815568 28.444920259993523,39.990012398848194 29.186503248638473,39.61653374604066 28.56453041941859,39.89664279669523 28.397076196153648,40.021135590577614 28.157855877187103,40.11450513849559 27.846869462518953,40.332367258743034 27.583727111690678,40.4568597994803 27.200974601437338,40.8303369875066 27.081364441895857,40.79921391341486 26.698611931526102,40.36349040066125 26.459391612675972,40.021135590577614 26.339781453134492,39.64765699200507 26.268015357432887,39.08743787338608 26.244093325571157,38.30935333430534 26.148405197891407,37.9047482572787 25.933106910903007,37.37564815755468 25.478588304831646,36.877670399451745 25.598198464373127,36.939917682582745 25.69388659193646,36.90879404329462 26.124483166029677,36.34856776341621 26.579001772101037,35.07249132427387 26.579001772101037,34.76125201539253 26.674689899664372,34.60563219145115 26.674689899664372,34.48113625089172 26.794300059089437,34.41888825350907 27.248818665160798,33.36066953056434 27.344506792724133,33.2672970394633 27.368428824585862,33.08055193499604 27.320584760862403,33.08055193499604 27.511961015989073,32.92493089022173 27.775103366817348,32.39581849271781 27.942557590082288,31.991202248245827 27.966479621944018,31.83558041222568 27.918635558220558,31.679958463239018 27.799025398679078,31.679958463239018 27.559805079712532,31.83558041222568 27.272740697022527,31.46208754464169 27.320584760862403,31.119718510875828 27.296662728884257,30.995220544777112 27.009598346194252,30.746224395436002 26.770378027227707,30.621726212266367 25.933106910903007,31.150842991133686 25.646042528096586,31.05746953684138 25.598198464373127,30.964096041905577 25.57427643239498,30.839597985337605 25.598198464373127,29.936984911604668 25.550354400649667,29.71911222061317 25.21544595400337,29.687987532437546 25.09583579446189,29.750236904379562 25.04799173073843,29.87473559389764 25.04799173073843,29.99923421118001 24.88053750747349,30.372729628914385 24.42601890140213,30.746224395436002 23.851890135905705,31.399838670171448 23.684435912640765,31.493211975190206 23.636591848917305,31.617709652055055 23.636591848917305,31.555460822666646 23.58874778507743,31.52433640122763 23.229917306569405,31.493211975190206 23.158151210984215,31.43096310974215 23.062463083304465,30.995220544777112 23.062463083304465,30.839597985337605 22.9428529238794,30.434978801815305 22.9428529238794,30.185982001406956 22.84716479619965,30.030358854142833 22.775398700498044,29.99923421118001 22.679710573051125,30.123732756095706 22.44049025408458,30.279355835504248 21.89028352033347,30.46610338159371 21.866361488588154,30.46610338159371 21.89028352033347,30.434978801815305 21.914205552311614,30.434978801815305 21.770673360908404,30.528352527340758 20.909480212721974,30.746224395436002 20.072209096397273,30.839597985337605 19.474158298922703,31.026345043093897 19.019639692967758,31.24421640468063 18.445510927471332,31.306465324465535 18.0149143532617,31.2753408668068 17.775694034411572,31.306465324465535 16.914500886108726,31.119718510875828 16.651358535164036,31.150842991133686 16.19683992920909,31.306465324465535 15.263880685321055,31.36871422616241 14.354843473178335,31.306465324465535 14.019935026648454,31.24421640468063 14.043857058510184,31.2753408668068 13.4218842292903,31.24421640468063 13.063053750782274,31.119718510875828 12.895599527517334,30.995220544777112 12.919521559495479,31.05746953684138 12.704223272390664,31.05746953684138 12.823833431815729,31.026345043093897 12.895599527517334,30.87072250620986 12.775989368092269,31.05746953684138 12.799911399953999,30.964096041905577 12.728145304252394,31.088594026179635 12.704223272390664,30.964096041905577 12.632457176689059,31.05746953684138 12.441080921562389,31.026345043093897 12.393236857722513,31.088594026179635 12.225782634457573,31.119718510875828 12.058328411192633,31.088594026179635 11.866952156065963,30.964096041905577 10.981836975784972,30.87072250620986 10.766538688796572,30.777348929957952 10.766538688796572,30.87072250620986 10.623006497393362,30.90184702264378 10.431630242266692,31.088594026179635 10.383786178426817,31.05746953684138 9.809657412930392,31.617709652055055 9.450826934538782,31.928953527414706 9.402982870815322,31.928953527414706 9.187684583710507,32.1779483021819 8.73316597752273,32.458067077895976 8.54178972239606,32.64481272494595 8.159037212026305,32.8315582092182 7.36961015954148,33.57853851847176 7.273922031978145,33.76528318889905 7.25,33.98315176530741 7.36961015954148,34.26326818090456 7.321766095701605,34.48113625089172 7.345688127563335,34.63675616533146 7.58490844652988,35.63272094076092 7.58490844652988,35.81946382069145 7.752362669911236,36.5664337129856 7.824128765612841,36.659804766401066 7.943738925037906,37.15778303085244 8.159037212026305,37.40677172898722 9.235528647433966,37.65576013782993 9.666125221527182,37.68688366857532 9.857501476770267,37.78025423374493 10.024955699918792,37.99811872752616 10.072799763875082,38.40272362822725 10.216331955278292,38.77620439686871 10.312020082725212,39.492040717072086 10.312020082725212,39.8343963726511 10.288098050863482,40.08338196041586 10.048877731896937,40.985952290386194 10.048877731896937,41.546166445084964 10.144565859460272,42.23087064488209 10.431630242266692,42.82220432932081 11.077525103464723,43.60027248050028 11.627731837099418,44.06711201494909 11.986562315491028,44.25384754393599 12.441080921562389,44.40946036053356 12.847755463793874,44.440582910203375 13.326196101610549,44.3160926841083 14.11562315421179,43.94262157191406 14.90505020681303,43.66251781047322 15.19211458961945,43.63139514773502 15.646633195574395,43.60027248050028 16.41213821619749,43.75588577166491 16.794890726567246,43.75588577166491 17.68000590673182,43.41353638189321 17.919226225698367,43.22680012052297 18.349822799791582,42.82220432932081 18.971795629127882,41.91964173440647 19.115327820531093,41.82627297315048 19.306704075657763,41.79515004361747 19.641612522187643,41.98188755262527 20.50280567049049,42.29311637273349 21.914205552311614,42.54209910334612 22.12950383941643,42.6354675526818 22.416568222106434,42.85332710965304 23.397371529834345,43.16455466399202 23.708357944502495,43.00894094329851 23.851890135905705,42.82220432932081 23.75620200834237,42.47985344781773 23.87581216788385,42.38648493056826 25.239367985981517,42.47985344781773 26.531157708261162,42.69771316302649 26.842144122929312,42.728835961432196 27.320584760862403,42.88444988547417 27.416272888425738,42.97781818563817 27.320584760862403,42.946695423466736 28.660218546981923,43.351290979611804 29.44964559946675,43.538027132395655 29.85632014181465,43.56914980872534 30.21515062020626,43.506904451569426 30.93281157722231,43.538027132395655 31.578706438303925,43.75588577166491 31.77008269354701,43.75588577166491 32.4638216184685,44.00486680251197 32.846574128838256,44.06711201494909 33.707767277024686,44.440582910203375 33.75561134086456,44.502827996067936 33.80345540470444,44.814053154565045 33.99483165983111,45.15640030655777" stroke="#4DD2FF" stroke-linecap="round" stroke-linejoin="round" stroke-width="0.5"><title>2025-05-10 3.9km</title><desc>14432551149</desc></polyline><polyline fill="none" points="85.68259823357221,22.358611895200738 85.32570894126548,21.87098577155848 85.2275643859175,21.580730713438243 85.17403099208605,21.290474600806192 84.9777418813319,20.95377618902421 84.74576384137617,20.477751875238027 84.40671901364112,20.024945627432317 84.22827436751686,19.792736299721582 83.96952963061631,19.583747327655146 83.89815177221317,19.54891577915987 83.85354061063845,19.60696835154522 83.576951409108,19.839178219248424 83.39850676298374,19.932061977342528 83.23790658143116,20.013335177092813 83.13976202608319,20.26876469513809 83.5947958737379,20.001724725050735 83.42527345992858,19.94367243949091 82.88101728918264,20.291985519914306 82.68472817842849,20.361647953788633 82.53305022919085,20.54741414711316 82.37245004763827,20.59385562792886 82.14939423999749,20.512583018753503 81.81927164463559,20.651907440995274 81.43561565544223,20.5590245198473 81.15902645391179,20.373258353502024 81.01627073704731,20.257154280225222 80.90028171701124,19.94367243949091 80.7486037677736,19.781125815599808 80.75752600014675,19.68824188200233 80.77537046471843,19.47925263660727 80.72183707088698,19.24704172271595 80.51662572781788,19.15415716818825 80.40063670784002,18.979998337323195 80.36494777858024,18.82906037680368 80.37387001089519,18.58523691506707 79.58871356787859,17.98148037849751 79.48164678021567,17.876983591639146 79.41919115401106,17.5867140220289 79.26751320483163,17.5170491684039 78.98200177098624,17.296443397739495 78.69649033719907,17.261610851957812 78.5180456910748,17.377719278854784 78.35744550952222,17.505438353553473 78.23253425722942,17.784097444113286 77.92917835875414,17.993091124146304 77.48306674341438,17.946648131415714 77.1975553096272,18.213694971047516 77.04587736038957,18.387855472457886 76.76036592654418,18.875502856571984 76.5997657449916,19.142546591261635 76.4748544926988,19.235431159322616 76.34102100809105,19.293483959503646 76.24287645274308,19.386368352061254 75.8324537666631,19.583747327655146 75.40418661589501,19.781125815599808 75.19005304051097,19.908841047908936 75.0294528590166,19.955282900002203 74.09261846676236,19.839178219248424 73.87848489137832,19.74629435314273 73.64650685136439,19.68824188200233 73.54836229601642,19.72307336977974 73.03979505453026,19.734683862305246 72.73643915605498,19.734683862305246 72.21002744999714,19.560526297027536 71.89774931920692,19.44442104252812 71.59439342078986,19.363147264019062 71.49624886544188,19.25865228445764 71.46055993618211,19.223820594233985 71.29103752237279,19.130936012647 70.8806148362346,19.02644072934345 70.59510340238921,19.02644072934345 70.40773652395,18.956777131184936 70.0151583024417,18.805839126791398 69.45305766706588,18.817449752627 69.1675462332787,19.130936012647 68.86419033480342,19.25865228445764 68.6946679209941,19.37475780888053 68.52514550718479,19.44442104252812 68.40023425489198,19.45603157561709 68.21286737645278,19.560526297027536 68.09687835641671,19.60696835154522 67.97196710418211,19.734683862305246 67.60615557956044,19.92045151347702 67.56154441798571,20.245543863638886 67.15112173184752,20.12943960470875 67.01728824729798,20.21071260364988 66.89237699500518,20.315206337989366 66.71393234888092,20.245543863638886 66.59794332884485,20.315206337989366 66.48195430886699,20.338427149246854 66.34812082425924,20.384868751578324 66.14290948119015,20.570634890893416 66.06260939041385,20.663517798529938 66.0090759966406,20.651907440995274 65.05439713975647,21.418187420284085 64.92056365514873,21.54590003557678 64.69750784744974,21.580730713438243 64.563674362842,21.65039202355547 64.34954078751616,21.708443068921042 64.28708516131155,21.88259595190175 64.18894060596358,22.0219179850028 63.97480703057954,22.230900579066656 63.823129081341904,22.265730958257336 62.73461673990823,22.718524506031827 61.708560024620965,23.682153514309903 61.44981528772041,23.101655503633083 61.35167073231423,22.834625002346 61.12861492467346,22.439882626473263 60.84310349082807,21.88259595190175 60.655736612388864,21.78971446154901 59.9419580277754,21.011827740556328 59.549379806325305,20.54741414711316 59.317401766369585,20.814452293190698 59.64752436167328,21.302084865543293 60.539747592411004,22.544373445191013 61.02154813701054,23.29902530050458 61.262448409223,23.728593172992987 61.431970823032316,23.96079106131947 61.55688207538333,24.285866971309588 61.744248953822535,24.599331774727034 62.17251610459061,24.924405086640036 62.27066065988038,25.00567320796108 62.52940539683914,25.14498979508062 62.65431664913194,25.261086765429354 63.08258379990002,25.49328020003304 63.653606667532586,25.78352104433725 64.08187381824246,25.899617086826765 64.20678507053526,25.96927463137399 64.57259659515694,26.131808665784774 64.80457463517087,26.35239004079631 65.02763044281164,26.491704279687838 65.16146392741939,26.57297080684657 65.42913089657668,26.70067518252472 65.64326447201893,26.66584673665784 65.8663202796597,26.770332028667326 65.82170911814319,26.85159827242751 66.41057645040564,26.979302202773397 66.51764323806856,27.1070059290505 66.6068655611598,27.188271830353187 66.66039895499125,27.257928251448902 66.9191436918918,27.478506517552887 67.28495521651348,27.559772041029646 67.49016655958258,27.536553328463924 68.59652336564614,27.942879824186093 69.06047944561578,28.140237662228174 70.14006955473451,28.592997919367917 70.2828252716572,28.546561087976443 70.14006955473451,28.43046889148536 69.80102472705767,28.418859662553587 69.70288017165149,28.68587150116946 69.63150231324835,29.092192152238567 69.54227999015711,29.42885626932548 69.4352132024942,29.788737032722565 69.24784632405499,30.102180247966317 68.94449042557972,30.984458252423792 68.8374236379168,31.797074111884285 68.70359015330905,32.15694420936779 68.52514550718479,32.632898945885245 68.51622327486984,32.79541942613287 68.51622327486984,32.934722431818955 68.4448454164085,33.2365447777629 68.40023425489198,33.41067253568326 68.0522671949002,33.81696916195506 67.91843371029245,33.87501136848732 68.04334496258525,34.11878817561228 67.96304487186717,35.04745491376525 67.85597808414605,35.535000631032744 67.86490031646099,35.73233971858281 67.16004396416247,37.22977926869498 67.11543280264596,37.380682473223715 66.97267708578147,37.79856678334909 66.9815993180382,37.879821812108275 66.95483262115158,38.18162548134569 66.87453253037529,38.58789785164845 66.82099913654383,38.85487571322301 66.28566519811284,39.934385798660514 66.09829831967363,40.70048088420299 65.8663202796597,41.26924369783228 65.79494242119836,41.88443157209986 65.79494242119836,42.232649024765124 65.80386465357151,42.4996147110578 65.70572009816533,42.998722080286825 65.82170911814319,43.25407813367201 65.68787563353544,43.7183597769108 65.5361976842978,43.85764374395512 65.50050875509623,44.0085344343679 65.17038615973433,44.98351356666535 64.97409704898018,45.366537828958826 64.51906320132548,46.52720620309992 64.4209186459193,46.75933785536472 64.10864051518729,47.97801796942076 63.87666247523157,48.25657081510872 63.77851791982539,48.63957939294778 63.74282899056561,48.7556422359994 63.76959568756865,49.01097989753907 63.68929559679236,49.2082857136993 63.457317556778435,49.335953923422494 63.19857281987788,49.428803402450285 63.11827272910159,49.89304917971458 63.17180612293305,50.15998928070621 63.18965058756294,50.31086807389511 62.8506057599443,52.13299716528127 62.966594779863954,51.100075581991405 62.9130613860907,51.28577033388865 62.797072366054635,51.587523385598615 62.70785004302161,51.784822841960704 62.84168352757115,52.098179801199876 62.74353897222318,52.19102607171226 62.484794235322624,52.44635275963083 62.35096075065667,53.46765135590249 62.24389396299375,54.07113984782336 62.12790494301589,54.69783461338375 61.99407145840814,55.324524465999275 61.940538064576685,55.521814699117385 61.958382529206574,55.823551760899136 61.976226993778255,56.03244598265883 62.01191592303803,56.55467914892506 61.83347127691377,56.78678168332408 61.68179332767613,56.99567338816996 61.458737520035356,57.668765168389655" stroke="#4DD2FF" stroke-linecap="round" stroke-linejoin="round" stroke-width="0.5"><title>2025-05-10 8.9km</title><desc>14430762664</desc></polyline><polyline fill="none" points="23.486941740149632,93.58294730662601 23.390820584259927,93.83065871696454 23.72724462999031,94.7595752539637 24.015608097659424,98.47522164043039 24.11172925354913,99.0325658712245 24.159789831610397,101.69542293346603 24.015608097659424,102.0669830928673 23.246638850541785,103.18166167443269 23.006335960468277,103.42936763947364 22.669911914737895,103.553220569127 22.669911914737895,103.73899989810889 22.57379075908102,103.98670554702403 21.131973419804126,105.72064115467947 20.218822438735515,107.33071805367945 19.449853191385046,108.25960587192094 19.1614897234831,108.87886331963819 19.305671457666904,109.18849171427428 20.12270128284581,109.5600454978121 20.555246484233066,110.17930110145244 20.651367640355602,110.48892857381725 20.69942821841687,112.53246438587666 20.795549374073744,112.84209018977708 20.603307062294334,115.19523912487784 20.69942821841687,116.55758271267405 20.651367640355602,118.72493875178043 20.45912532834336,119.46802977475454 20.555246484233066,119.59187815559562 20.603307062294334,120.33496770297643 20.50718590663746,121.32575179959531 20.555246484233066,122.00691456184722 20.45912532834336,122.19268603998353 20.50718590663746,122.75 20.69942821841687,122.13076222268865 20.69942821841687,121.44959965365706 20.84360995213501,120.89228403399466 20.651367640355602,120.39689177498803 20.747488796245307,120.02534721203847 20.69942821841687,116.99105478107231 20.84360995213501,115.19523912487784 20.747488796245307,114.14251616870752 20.795549374073744,113.8948162807792 20.795549374073744,113.3374910192797 20.89167053019628,113.02786556669162 20.795549374073744,111.91321211933973 20.89167053019628,111.17010824044701 20.747488796245307,109.9935245126544 20.69942821841687,108.32153165628552 20.89167053019628,107.7641992813733 21.324215731816366,106.89723639562726 21.80482151126489,106.15412398069748 22.237366713117808,105.78256729891291 23.198578272247687,104.60596905444982 23.438881162088364,104.17248469151673 25.121001390973106,102.0669830928673 26.130273528164253,100.45688678498846 26.322515839943662,100.39495988530689 26.899242775514722,99.0325658712245 27.71627260092646,98.16558564914158 29.78287745337002,96.3696925699769 30.647967856843024,95.93620003052638 33.483541956404224,94.01644218232832 34.060268892208114,93.89258654759033 34.63699582754634,93.39716365654022 34.781177561497316,93.39716365654022 35.30984391923994,92.96366816622321 35.88657085434534,92.59210026022629 37.18420645967126,91.35353829030646 37.088085303781554,91.04389724889188 36.75166125781834,91.04389724889188 36.17493432224728,91.78703537941328 32.906815020833164,94.3260811160144 31.12857363629155,95.37885184731567 30.647967856843024,95.81234494014643 30.31154381087981,95.93620003052638 28.677484160056338,97.11282163660508 28.100757224485278,97.36053104425082 27.812393756816164,97.73209489244618 27.283727399306372,98.22751286480343 25.938031216152012,99.83761739332112 25.64966774871573,99.8995443721069 25.361304280580953,99.7756904058042 24.83263792307116,99.21834712356213 24.83263792307116,98.6610031297023 24.736516767181456,98.22751286480343 24.784577345242724,97.36053104425082 24.64039561129175,96.92703948842245 24.49621387734078,96.12198260010337 24.400092721451074,95.13114131547627 24.44815329951234,94.63571982985013 24.255910987732932,94.20222556876251 24.207850409671664,93.14945200050715 24.352032143622637,92.15860397039796 24.544274455169216,90.98196901433403 24.736516767181456,90.48654282098869 24.976819657022133,89.0002608684008 25.121001390973106,88.31904661585577 25.313243702752516,88.00940342259128 25.361304280580953,87.51397385649034 25.745788904372603,86.46118416220997 25.841910060495138,85.84189492074074 26.034152372274548,85.84189492074074 26.322515839943662,85.90382388452417 27.33178797713481,87.2043300922378 27.812393756816164,87.57590258304845 28.004636068595573,87.63783130070078 28.29299953649752,87.57590258304845 28.6294235822279,87.26625886277179 28.869726472068578,87.2043300922378 29.01390820601955,87.26625886277179 29.302271673921496,87.26625886277179 29.734816875308752,87.51397385649034 30.407664966769516,86.95661492287763 30.599907278781757,86.46118416220997 30.840210168622434,86.3373263841786 31.368876526132226,86.27539748192066 31.705300571862608,85.96575283931452 32.37814866332337,85.71803696721327 32.37814866332337,85.53224997076904 31.945603461470455,85.22260480120894 31.801421727752313,84.97488850733498 31.561118837911636,84.91295941203134 31.08051305846311,85.09874667183612 30.792149590561166,84.85103030773462 30.69602843443863,84.60331380311982 30.55184670072049,84.54138465502183 30.023180342977867,84.41752633239958 29.254211095860228,83.92209269091836 29.01390820601955,83.9840219267935 27.71627260092646,83.1170118242153 27.235666821245104,82.9312237209815 26.995363931404427,82.68350612733047 26.658939885674044,82.55964727752144 25.64966774871573,82.43578839296242 25.505486014531925,82.62157670682063 25.361304280580953,83.2408705157577 25.072940812679008,83.42665848700562 25.169061969034374,83.48858779313741 25.169061969034374,83.79823419247987 24.928759078960866,85.34646289536613 24.736516767181456,85.71803696721327 24.784577345242724,85.96575283931452 24.592335033230484,86.95661492287763 24.49621387734078,87.94747475755867 24.352032143622637,88.31904661585577 24.207850409671664,89.12411789080943 24.207850409671664,89.55761719340808 23.823365786112845,90.17690116469748 23.72724462999031,90.9200407708413 23.390820584259927,92.59210026022629 23.67918405192904,94.5737921045511 23.67918405192904,95.25499659887282 23.87142636370845,96.92703948842245 23.87142636370845,97.48438569551217 24.06366867572069,98.7848574121017 24.06366867572069,101.07615529830218 24.159789831610397,101.63349620939698 23.91948694200255,102.12890975546907 21.949003245215863,104.60596905444982 21.372276309877634,105.47293648938648 21.131973419804126,105.72064115467947 20.45912532834336,107.08301430169377 19.786277237115428,107.88805098165176 18.921186833642423,109.2504173667694 17.431308916769922,110.6127795012435 18.82506567775272,109.00271470373264 19.113429145654663,108.9407890161674 19.978519548894837,109.5600454978121 20.555246484233066,110.24122661340516 20.69942821841687,111.85128684443771 20.651367640355602,112.40861400280846 20.555246484233066,112.53246438587666 20.69942821841687,113.02786556669162 20.603307062294334,115.00946466985624 20.651367640355602,115.25716392570757 20.603307062294334,115.5667877975211 20.651367640355602,118.16761965493788 20.651367640355602,121.07805598634877 20.84360995213501,120.89228403399466 20.939731108257547,120.64458797487896 20.84360995213501,119.40610557116452 20.939731108257547,114.0805912099895 20.89167053019628,112.71823989451514 20.69942821841687,112.03706264283392 20.795549374073744,111.60358565679053 20.69942821841687,111.35588432871737 20.795549374073744,111.04625747096725 20.651367640355602,109.37426864556619 20.747488796245307,108.69308617751813 20.69942821841687,108.19768007894163 20.84360995213501,107.7641992813733 21.42033688770607,106.64953239777242 22.621851336909458,105.22523168340558 24.159789831610397,103.24358817894245 24.592335033230484,102.62432273934246 24.64039561129175,102.37661631772062 25.072940812679008,102.0669830928673 25.45742543670349,101.32386245779344 26.466697573894635,99.8995443721069 26.56281872978434,99.58990939077921 26.803121619625017,99.34220124775311 27.091485087526962,98.72293027522392 27.235666821245104,98.59907597536221 28.677484160056338,97.23667635806487 28.965847627958283,97.174749001686 29.302271673921496,96.86511208830052 31.368876526132226,95.44077945832396 32.330088085494936,94.88343064277433 33.00293617672287,94.3260811160144 34.10832947003655,93.83065871696454 35.742389120627195,92.53017224511132 36.22299490030855,92.34438814726309 36.75166125781834,91.84896349991322 37.424509349279106,91.35353829030646 37.52063050540164,91.10582547471859 37.56869108323008,90.73425598777249 37.47256992734037,90.54847112580319 37.13614588160999,90.67232770926785 36.75166125781834,91.22968190009124 36.75166125781834,91.47739464542246 36.36717663425952,91.9108916115074 35.59820738690905,92.53017224511132 35.02148045110516,92.77788425263134 34.588935249717906,93.14945200050715 34.204450625926256,93.3352357558033 33.38742080074735,94.14029778217082 32.66651213122532,94.38800887620891 30.69602843443863,95.81234494014643 29.686756297480315,96.24583760256064 28.773605315946043,96.92703948842245 28.533302426338196,97.23667635806487 27.52403028914705,97.91787669798941 26.899242775514722,98.59907597536221 26.274455261882395,99.52798236822127 25.841910060495138,99.9614713419578 25.313243702752516,99.71376340975985 24.976819657022133,99.34220124775311 24.976819657022133,98.97063876959146 24.784577345242724,98.53714881226188 24.64039561129175,96.98896687998786 24.44815329951234,96.3696925699769 24.49621387734078,95.87427248983295 24.400092721451074,94.88343064277433 24.49621387734078,94.69764754618518 24.352032143622637,94.14029778217082 24.352032143622637,93.70680302940309 24.255910987732932,93.52101943214075 24.544274455169216,92.22053203827818 24.68845618912019,91.97281971437042 24.736516767181456,91.04389724889188 24.83263792307116,90.362686184817 24.976819657022133,90.11497280705953 25.121001390973106,89.0002608684008 25.313243702752516,88.44290383183397 25.313243702752516,88.13326072631753 25.505486014531925,87.69976000973838 25.505486014531925,87.2043300922378 26.034152372274548,85.96575283931452 25.98609179444611,85.84189492074074 26.130273528164253,85.90382388452417 26.610879307612777,85.84189492074074 26.851182197686285,85.90382388452417 27.091485087526962,86.3373263841786 27.572090867208317,86.58504190502572 27.427909133024514,86.3373263841786 27.427909133024514,86.15153965138597 27.620151445036754,85.65610797717818 27.90851491270587,84.41752633239958 27.90851491270587,84.16980958185741 27.47596971108578,83.48858779313741 27.187606243416667,83.42665848700562 26.899242775514722,83.55051709071267 26.851182197686285,83.86016344607924 26.899242775514722,84.0459511540248 26.899242775514722,84.47945549819269 26.610879307612777,85.28453385262401 26.610879307612777,86.15153965138597 26.995363931404427,86.64697076324956 27.235666821245104,86.83275728538865 27.427909133024514,87.26625886277179 27.620151445036754,87.45204512125929 27.90851491270587,87.51397385649034 28.725544738117605,87.2043300922378 29.542574563529342,87.3281876243127 30.263483233051375,86.95661492287763 30.599907278781757,86.27539748192066 31.46499768202193,86.2134685710189 31.609179415972903,85.96575283931452 32.137845773482695,85.90382388452417 32.37814866332337,85.71803696721327 32.330088085494936,85.34646289536613 31.609179415972903,85.34646289536613 30.93633132451214,85.16067574097542 30.7440890124999,84.91295941203134 30.215422654990107,84.72717207297683 29.97511976538226,84.54138465502183 28.43718127044849,83.61244637926575 27.620151445036754,82.9312237209815 27.1395456653554,82.80736494177836 26.70700046350248,82.43578839296242 25.98609179444611,82.25 25.64966774871573,82.37385893735336 25.45742543670349,82.74543553893454 25.313243702752516,83.92209269091836 25.121001390973106,84.41752633239958 24.976819657022133,85.03681759393658 24.976819657022133,85.90382388452417 24.784577345242724,86.39925527761807 24.592335033230484,87.39011637723888 24.49621387734078,87.69976000973838 24.400092721451074,88.69061815811438 23.91948694200255,90.67232770926785 23.775305208051577,91.53932280969457 23.486941740149632,92.28246009716531 23.438881162088364,92.65402826658101 23.438881162088364,93.3352357558033 23.631123474100605,94.01644218232832 23.87142636370845,97.23667635806487 24.11172925354913,99.0325658712245 23.967547519830987,100.02339830313576 24.06366867572069,100.82844799829763 24.015608097659424,101.8812030525587 22.76603307086043,103.61514702095883 22.42960902513005,103.98670554702403 22.093184979166836,104.5440427431895 21.516458043828607,105.10137922799913 21.372276309877634,105.47293648938648 21.035852264147252,105.78256729891291 20.795549374073744,106.21605006349273 20.651367640355602,106.64953239777242 19.786277237115428,107.7641992813733 19.065368567360565,109.00271470373264 17.431308916769922,110.67470495184534 18.4405810541939,109.43619427183876 19.113429145654663,108.38345743174432 20.363004172686487,106.71145841054386 20.50718590663746,106.40182825940428 20.69942821841687,106.27797613773146 21.85288208955899,104.5440427431895 22.38154844706878,103.92477914787014 23.294699428370222,102.50046954600839 23.67918405192904,102.12890975546907 23.91948694200255,101.63349620939698 24.015608097659424,100.82844799829763 23.823365786112845,99.34220124775311 23.87142636370845,99.09449296418461 23.775305208051577,98.35136727007921 23.72724462999031,97.23667635806487 23.5350023182109,96.24583760256064 23.390820584259927,93.76873087743297" stroke="#4DD2FF" stroke-linecap="round" stroke-linejoin="round" stroke-width="0.5"><title>2025-05-10 5.5km</title><desc>14429623797</desc></polyline></svg>