<?xml version="1.0" encoding="utf-8" ?>
<svg baseProfile="full" height="130mm" version="1.1" viewBox="0,0,100,130" width="100mm" xmlns="http://www.w3.org/2000/svg" xmlns:ev="http://www.w3.org/2001/xml-events" xmlns:xlink="http://www.w3.org/1999/xlink"><defs /><rect fill="#222222" height="130" width="100" x="0" y="0" /><text fill="#FFFFFF" style="font-size:6px; font-family:Arial; font-weight:bold;color:#0ed45e;" x="5" y="10">蓝色星期五</text><text fill="#FFFFFF" style="font-size:4px; font-family:Arial" x="5" y="121">Runner</text><text fill="#FFFFFF" style="font-size:6px; font-family:Arial" x="2" y="128">蓝皮书</text><text fill="#FFFFFF" style="font-size:4px; font-family:Arial" x="25" y="121">WORKOUTS INFO</text><text fill="#FFFFFF" style="font-size:3px; font-family:Arial" x="25" y="125">Type: Run</text><text fill="#FFFFFF" style="font-size:3px; font-family:Arial" x="22" y="129">Date: 2025-06-13</text><text fill="#FFFFFF" style="font-size:3px; font-family:Arial" x="47" y="125">Distance: 6.26 km</text><text fill="#FFFFFF" style="font-size:3px; font-family:Arial" x="47" y="129">Duration: 39:21min</text><text fill="#FFFFFF" style="font-size:3px; font-family:Arial" x="75" y="125">Pace: 6:16/km</text><text fill="#FFFFFF" style="font-size:3px; font-family:Arial" x="75" y="129">Elevation: 73m</text><polyline fill="none" points="14.409090910106897,62.20933450991288 9.5,69.77744294446893 10.551948053762317,77.79071508254856 16.51298701390624,82.2425244289916 27.0324675347656,83.57806604728103 41.759740261361,83.13288556784391 49.123376624658704,83.57806604728103 58.24025974050164,84.02324646455236 67.00649350881577,83.57806604728103 75.07142857275903,83.57806604728103 85.24025974236429,80.90698226238601 90.5,72.00335384672508 88.39610389620066,62.65451784594916 83.83766233921051,58.64786563999951 73.3181818202138,55.97676143376157 60.344155844300985,55.97676143376157 52.629870131611824,56.86712974589318 39.65584415756166,57.31231380975805 26.681818183511496,58.20268175797537 19.31818181835115,57.75749781425111 10.551948053762317,64.8804336101748 10.201298700645566,72.89371778233908 14.058441558852792,80.46180142019875 25.629870131611824,83.57806604728103 37.90259740315378,83.57806604728103 49.474025974050164,83.13288556784391 62.09740259684622,82.68770502903499 79.27922077849507,82.68770502903499 84.53896103985608,79.57143955072388 87.69480519555509,76.45517109404318 89.79870129935443,67.1063478551805 84.18831169046462,59.09304946218617 67.70779220946133,55.53157718782313 50.87662337906659,56.42194562102668 38.25324675254524,56.42194562102668 28.435064936056733,57.75749781425111 25.279220778495073,57.75749781425111 13.707792209461331,59.538233222672716 9.5,67.1063478551805 10.201298700645566,74.67444492480718 12.65584415756166,79.57143955072388 20.720779221504927,83.13288556784391 44.56493506580591,82.68770502903499 57.88961039111018,83.13288556784391 67.00649350881577,83.13288556784391 83.83766233921051,80.46180142019875 89.09740259684622,72.44853584514931 88.0454545468092,63.54488433408551 79.27922077849507,56.86712974589318 67.70779220946133,56.42194562102668 61.0454545468092,56.86712974589318 49.824675327166915,57.31231380975805 40.70779220946133,56.86712974589318 25.980519481003284,57.31231380975805 23.525974025949836,57.75749781425111 13.00649350695312,59.98341692169197 9.5,73.33889965992421 12.65584415756166,80.01662051538005 26.681818183511496,83.57806604728103 37.55194805376232,84.02324646455236 44.91558441706002,83.57806604728103 60.344155844300985,82.2425244289916 69.46103896200657,84.02324646455236 80.6818181835115,82.2425244289916 89.09740259684622,72.89371778233908 88.74675324745476,65.77079949062318 83.83766233921051,59.09304946218617 70.16233766265213,55.97676143376157 54.032467532902956,56.42194562102668 42.811688313260674,57.75749781425111 32.993506494909525,57.75749781425111 22.123376624658704,58.64786563999951 15.110389612615108,60.42860056133941 10.201298700645566,69.77744294446893 13.707792209461331,80.46180142019875 24.2272727265954,84.02324646455236 33.69480519555509,82.68770502903499 44.21428571455181,83.13288556784391 51.57792207971215,82.68770502903499 71.91558441706002,83.13288556784391 79.98051948100328,82.68770502903499 89.44805194810033,72.89371778233908 89.44805194810033,67.1063478551805 82.08441558480263,57.75749781425111 66.65584415756166,55.97676143376157 52.98051947914064,55.97676143376157 34.0454545468092,56.86712974589318 21.071428572759032,56.42194562102668 15.110389612615108,61.764151114271954 11.603896105661988,66.21598233981058 10.551948053762317,74.22926322929561 16.863636365160346,82.68770502903499 28.084415584802628,83.57806604728103 42.11038961075246,83.57806604728103 50.87662337906659,83.13288556784391 60.344155844300985,81.79734376748092 79.62987013161182,82.68770502903499 84.18831169046462,80.01662051538005 89.09740259684622,72.00335384672508 89.09740259684622,65.32561658043414 79.98051948100328,57.75749781425111 67.35714285820723,55.08639288041741 58.59090909175575,55.08639288041741 53.33116883225739,55.97676143376157 48.7727272734046,55.53157718782313 41.4090909101069,57.31231380975805 31.941558443009853,57.75749781425111 23.17532467469573,57.75749781425111 16.162337662652135,59.09304946218617 11.954545456916094,62.65451784594916 9.85064935311675,71.11298966803588 13.00649350695312,79.12625852506608 20.019480518996716,82.68770502903499 31.590909091755748,83.13288556784391 48.07142857462168,83.57806604728103 61.0454545468092,83.57806604728103 75.07142857275903,83.57806604728103 85.59090909175575,80.46180142019875 88.0454545468092,76.00998964370228 89.79870129935443,65.77079949062318 77.87662337906659,56.42194562102668 72.26623376645148,56.42194562102668 58.24025974050164,55.97676143376157 33.69480519555509,56.42194562102668 28.78571428731084,56.86712974589318 15.811688313260674,59.538233222672716 11.954545456916094,63.99006748665124 9.85064935311675,72.44853584514931 11.603896105661988,76.45517109404318 19.668831169605255,83.57806604728103 40.357142858207226,83.13288556784391 54.73376623541117,83.13288556784391 70.51298701390624,82.68770502903499 79.98051948100328,82.68770502903499 87.34415584616363,77.34553381428123 88.74675324745476,64.43525057961233 81.0324675347656,57.31231380975805 75.7727272734046,57.75749781425111 69.46103896200657,55.53157718782313 45.26623376645148,57.31231380975805 37.90259740315378,57.75749781425111 31.941558443009853,57.75749781425111 24.2272727265954,57.31231380975805 12.305194806307554,62.20933450991288 9.85064935311675,71.11298966803588 12.65584415756166,78.68107743817382 18.96753246895969,83.13288556784391 38.60389610566199,84.46842682291754 55.43506493605673,82.68770502903499 81.38311688415706,82.68770502903499 88.0454545468092,77.34553381428123 89.44805194810033,71.11298966803588 88.0454545468092,61.764151114271954 77.87662337906659,55.97676143376157 65.95454545505345,56.86712974589318 58.24025974050164,56.86712974589318 42.11038961075246,57.75749781425111 31.240259740501642,58.20268175797537 19.31818181835115,57.75749781425111 13.00649350695312,63.099701119353995 10.201298700645566,70.66780748777092 14.759740261361003,80.90698226238601 23.525974025949836,84.02324646455236 30.538961039856076,83.13288556784391 37.55194805376232,84.02324646455236 43.162337662652135,83.13288556784391 52.629870131611824,84.02324646455236 63.14935065060854,84.02324646455236 85.59090909175575,80.90698226238601 89.44805194810033,75.1196265576873 88.39610389620066,63.099701119353995 81.0324675347656,58.64786563999951 70.51298701390624,57.75749781425111 58.59090909175575,57.75749781425111 36.5,57.31231380975805 21.071428572759032,57.75749781425111 15.110389612615108,59.09304946218617 9.85064935311675,71.55817178823054 14.759740261361003,82.68770502903499 25.980519481003284,84.02324646455236 37.55194805376232,83.57806604728103 51.57792207971215,84.02324646455236 58.94155844300985,84.02324646455236 80.6818181835115,81.79734376748092 87.69480519555509,74.22926322929561 89.79870129935443,65.77079949062318 85.24025974236429,60.42860056133941 73.66883116960526,56.42194562102668 60.344155844300985,56.42194562102668 50.87662337906659,56.86712974589318 35.44805194810033,56.86712974589318 25.629870131611824,57.31231380975805 14.759740261361003,59.98341692169197 10.551948053762317,66.21598233981058 11.603896105661988,79.12625852506608 19.31818181835115,83.57806604728103 60.69480519555509,83.13288556784391 85.24025974236429,80.01662051538005 89.09740259684622,67.1063478551805 87.34415584616363,62.20933450991288 69.11038961075246,57.75749781425111 60.69480519555509,56.42194562102668 55.78571428544819,55.97676143376157 39.305194806307554,57.31231380975805 23.876623379066586,57.75749781425111 16.162337662652135,59.98341692169197 10.902597403153777,67.9967131279409 12.305194806307554,79.12625852506608 34.74675324745476,84.02324646455236 66.65584415756166,83.13288556784391 76.82467532530427,82.68770502903499 86.64285714365542,80.01662051538005 89.44805194810033,67.9967131279409 85.24025974236429,61.31896765786223 65.95454545505345,57.75749781425111" stroke="#4DD2FF" stroke-linecap="round" stroke-linejoin="round" stroke-width="0.5"><title>2025-06-13 6.26km</title><desc>14781525780</desc></polyline></svg>