<?xml version="1.0" encoding="utf-8" ?>
<svg baseProfile="full" height="130mm" version="1.1" viewBox="0,0,100,130" width="100mm" xmlns="http://www.w3.org/2000/svg" xmlns:ev="http://www.w3.org/2001/xml-events" xmlns:xlink="http://www.w3.org/1999/xlink"><defs /><rect fill="#FAF9F5" height="130" width="100" x="0" y="0" /><text fill="#5A5A5A" style="font-size:6px; font-family:Arial; font-weight:bold;color:#0ed45e;" x="5" y="10">迷路跑 迷路跑2</text><text fill="#5A5A5A" style="font-size:4px; font-family:Arial" x="5" y="121">Runner</text><text fill="#5A5A5A" style="font-size:6px; font-family:Arial" x="2" y="128">蓝皮书</text><text fill="#5A5A5A" style="font-size:4px; font-family:Arial" x="25" y="121">WORKOUTS INFO</text><text fill="#5A5A5A" style="font-size:3px; font-family:Arial" x="25" y="125">Type: Run</text><text fill="#5A5A5A" style="font-size:3px; font-family:Arial" x="22" y="129">Date: 2025-09-27</text><text fill="#5A5A5A" style="font-size:3px; font-family:Arial" x="47" y="125">Distance: 6.27 km</text><text fill="#5A5A5A" style="font-size:3px; font-family:Arial" x="47" y="129">Duration: 43:37min</text><text fill="#5A5A5A" style="font-size:3px; font-family:Arial" x="75" y="125">Pace: 6:57/km</text><text fill="#5A5A5A" style="font-size:3px; font-family:Arial" x="75" y="129">Elevation: 6m</text><polyline fill="none" points="74.75,42.16598506629816 74.10974130942486,41.03310080859228 73.52950687136035,40.13193784459145 73.06932093761861,39.38525658236176 72.72918350831605,38.94754545384785 72.40905416326132,38.66432004541275 71.42865804361645,38.07212004106259 70.38823767169379,37.608657824937836 69.40784155204892,37.27393437984574 68.30739692796487,36.83621817738458 68.1073160872329,36.73322597684455 68.0672999189701,36.50149331272405 68.0873080031015,36.11527155061776 68.32740501197986,35.52306325813697 68.827607113868,34.62187303137034 69.18775262718555,33.643432879282045 69.28779304749332,33.07696512545226 69.30780113162473,32.458998293834156 69.10772029089276,31.326053656594013 68.80759902985301,30.656583058225806 68.827607113868,30.605085218019667 68.24737267568707,29.88411392531998 67.84721099422313,29.497878130277968 67.40703314449638,29.163139778596815 66.78678253828548,28.80265163486183 66.48666127712931,28.67390569637064 66.02647534350399,28.570908880021307 65.86641067091841,28.49366122952779 65.78637833462562,28.416413546248805 65.8864187549334,27.824180219467962 65.84640258678701,27.772681578353513 65.66632983018644,27.849929534626426 65.44624090532307,28.287667334763682 65.1661277282983,28.46791200543521 64.18573160865344,28.339165830257116 63.545472918311134,28.287667334763682 62.3049717056565,28.339165830257116 60.60428455937654,28.596658089591074 59.283751010429114,28.982895795968943 59.04365400155075,28.982895795968943 58.76354082452599,29.137390649091685 58.70351657224819,29.060143238923047 58.50343573151622,28.67390569637064 58.183306386345066,28.23616882461647 58.32336297479924,28.622407295450103 58.36337914306205,28.82840081170434 58.32336297479924,29.008644947229186 58.22332255449146,29.137390649091685 57.963217461598106,29.343383582876413 57.182902182568796,29.755368751342758 57.022837510099635,29.755368751342758 56.80274858511984,30.038608014030615 55.86236863373779,30.682331972944667 55.30214227968827,31.12006296531763 54.461802748497576,31.918275596166495 53.761519805993885,32.69073610143096 52.981204526964575,33.823672249607625 52.34094583662227,34.87935640824435 51.680679062148556,36.42424902577477 51.460590137401596,37.35117830641684 51.4005658851238,38.81880668645317 51.500606305431575,39.33376121005858 51.70068714627996,39.95170471673191 52.38096200488508,40.98160590225598 52.701091349939816,41.34206994136912 53.28132578812074,41.831269996240735 54.22170573961921,42.34621600306127 54.261721907765605,42.39771052368451 54.261721907765605,42.603688460512785 54.441794664482586,42.70667734165909 54.70189975737594,42.78391896416724 55.22210994339548,42.629435686263605 56.4626111559337,42.70667734165909 57.66309620044194,42.603688460512785 59.18371059000492,42.320468737292686 60.504244138952345,41.96000663442828 60.704324979684316,41.96000663442828 60.74434114783071,42.03724857370253 60.52425222308375,44.14851556235226 60.484236054937355,44.8694303927623 60.36418755049817,46.131024480229826 60.38419563439675,46.5172250050673 60.264147129957564,47.77880767978786 60.1641067097662,48.39672253666504 60.12409054150339,49.16911316003825 59.92400970077142,51.30604348590714 59.803961196448654,52.07842177305429 59.763945028185844,53.21123733672721 59.32376717857551,58.46329017849348 59.34377526270691,58.28307518782094 59.423807598883286,58.18009511308628 59.74393694405444,58.23158515772957 59.78395311231725,58.205840137263294 59.82396928034723,58.07711498015851 59.84397736447863,57.43348783029069 60.18411479378119,54.781719987731776 60.34417946636677,52.38737217088055 60.46422797080595,51.4605194053438 60.60428455937654,48.9373963168473 60.784357315977104,47.289623598218895 60.80436540010851,46.69745163641346 60.8443815682549,46.46573164912115 60.8243734841235,46.208264650718775 60.984438156709075,44.328744537429884 61.00444624084048,43.710815880433074 61.10448666114826,43.015643635444576 61.14450282929465,42.320468737292686 61.20452708157245,41.831269996240735 61.24454324960243,41.67678591038566 61.32457558601163,41.651038549956866 61.28455941786524,41.62529118586099 61.264551333733834,41.702533267089166 61.14450282929465,41.882764662470436 61.20452708157245,41.77977531551733 61.184518997441046,41.67678591038566 61.044462408986874,41.49655431120482 60.92441390454769,41.44505953574844 60.66430881153792,41.47080692529562 59.86398544861004,41.702533267089166 59.10367825382855,41.599543818243546 58.88358932896517,41.702533267089166 58.88358932896517,41.85701733118913 58.82356507668737,41.90851199005556 58.10327405005228,42.06299587947433 56.18249797890894,42.217479637867655 55.82235246559139,42.29472146788612 55.10206143883988,42.217479637867655 54.58185125293676,42.1144904801622 54.441794664482586,42.217479637867655 54.301738075912,42.55219399818452 54.16168148734141,42.70667734165909 54.261721907765605,42.52644676157797 54.201697655487806,42.42345777848095 53.36135812441353,41.96000663442828 52.941188358934596,41.62529118586099 52.561034761485644,41.23908028868027 52.1408649958903,40.672636158022215 52.020816491451114,40.646888655697694 50.6802748584887,40.9558584435581 49.85994341142941,41.08459570044943 47.959175424301066,41.54804907197831 44.11762328213081,42.217479637867655 42.09680679056328,42.629435686263605 40.81628940976225,42.938402111118194 38.83548908645753,43.24736801194376 36.57457558612805,43.710815880433074 33.973524656379595,44.354491519363364 33.33326596603729,44.53472029064142 33.23322554572951,44.61196113799815 33.23322554572951,44.81793657086382 33.1932093774667,44.8694303927623 33.15319320943672,44.637708079812 32.5729587712558,42.80966616446676 32.09276475338265,41.54804907197831 31.97271624894347,41.44505953574844 31.41248989489395,41.599543818243546 31.352465642616153,41.57379644687171 31.21240905416198,41.47080692529562 31.27243330643978,41.44505953574844 31.27243330643978,41.3678173453809 30.95230396115221,40.41516097080603 30.412085691234097,39.12777957531216 29.75181891664397,37.737397447708645 29.47170573961921,36.939210319615086 28.531325788237154,34.69911808273173 28.051131770480424,33.38594775504316 27.510913500445895,32.04701924111578 27.050727566704154,31.094314112575375 26.81063055782579,30.39909371131216 25.97029102675151,28.287667334763682 25.41006467246916,26.974450778056053 25.25,26.53670982150652" stroke="#4DD2FF" stroke-linecap="round" stroke-linejoin="round" stroke-width="0.5"><title>2025-09-27 6.34km</title><desc>15948198174</desc></polyline><polyline fill="none" points="25.25,91.2664005731931 25.368990384682547,91.35390908569389 25.538976648414973,91.8133279641188 25.606971153931227,91.85708207187417 26.830872252816334,91.41954043757869 27.646806318778545,91.02575190873176 28.598729395656846,90.67571681941627 30.434581043955404,89.88813497305091 31.250515109859407,89.6037294321286 31.65848214289872,89.40683298217482 32.93337912095012,88.90365202717658 33.69831730774604,88.53173461736878 35.05820741766365,88.02855081621965 38.04996565938927,86.73776749511308 38.74690934072714,86.49711178652069 41.330700549529865,85.38133951916825 43.20054945058655,84.63748687038606 43.727506868191995,84.41870599887625 44.13547390111489,84.11241225905542 44.594436813204084,83.91550882042793 45.053399725293275,83.80611791281262 45.78434065944748,83.54357941912895 47.39921016484732,82.84347459110722 48.07915521977702,82.62469118255831 48.41912774724187,82.58093446370913 48.65710851649055,82.42778585036285 48.7760989011731,82.40590746469388 48.81009615387302,82.29651548963739 48.92908653849736,82.18712343732477 49.96600274724187,81.83706835006888 51.733859890082385,80.94004857356776 52.24381868133787,80.72126247323467 53.53571428573923,80.06490231564385 56.918440934096,78.20520007958112 57.53039148350945,77.81137791411311 57.71737637365004,77.7676198338304 57.88736263732426,77.83325694967061 61.20209478016477,80.17429586862272 61.678056318778545,80.6118693069875 61.7800480768783,80.76501971801918 61.79704670328647,81.07132008521876 61.52506868139608,82.47154261251853 61.47407280217158,83.93738699263486 61.40607829671353,84.374949787496 61.35508241754724,84.90002350779832 61.236092032981105,85.60011902937549 61.236092032981105,86.0595549937716 61.27008928573923,86.23457785935898 61.33808379119728,86.3002113829134 61.984031593368854,86.58462299659732 62.375,86.47523397626355 62.76596840657294,86.25645570362394 62.935954670247156,86.10331072867848 63.20793269231217,85.73138658695098 63.632898351643234,85.44697340467246 63.870879120833706,85.0969256934477 64.75480769231217,84.19992481809459 64.94179258239456,83.95926516174222 65.24776785715949,83.78423972206656 65.51974587910809,83.52170119118819 65.57074175821617,83.49982296017697 65.68973214284051,83.54357941912895 66.57366071420256,84.17804668296594 67.01562499994179,84.46246219800378 67.47458791208919,84.83438939019106 68.00154532969464,85.31570560579712 68.51150412089191,85.88453193004534 69.378434065904,86.56274519870931 69.76940247253515,86.89091184204153 70.27936126373243,87.39409934316063 70.73832417576341,87.96291802589258 71.57125686807558,88.81614212882414 71.91122939554043,89.12242655655427 72.2002060438972,89.31932336841419 72.50618131866213,89.6037294321286 73.40710851649055,90.65383960003965 73.71308379119728,91.17889201125945 74.08705357136205,91.98834432091098 74.25703983515268,92.27274547844718 74.63100961537566,93.58535943104653 74.73300137359183,94.35104576092272 74.75,96.10117171487946 74.71600274718367,96.9762272684311 74.64800824178383,97.56688696946367 74.6140109890257,100.23576565516123 74.5630151098594,100.38889664234011 74.46102335170144,100.43264832514978 73.71308379119728,100.14826216586516 73.0671359889675,100.03888273466146 71.29927884618519,100.17013804287126 71.01030219777022,100.21388978752657 69.15745192306349,100.84828869468765 68.78348214289872,101.00141907570651 66.4716689561028,101.65769042073225 64.24484890111489,102.40146124694729 63.66689560440136,102.554590090891 63.496909340668935,102.72959429846378 63.27592719788663,103.18897940152965 62.8339629121474,103.9546182093327 62.86796016484732,103.9764935481362 63.27592719788663,103.88899217425205 63.95587225269992,103.67023852294369 65.50274725275813,103.25460573346936 66.8286401098594,102.8389718276594 67.50858516478911,102.64209221946658 67.89955357142026,102.57646562768787 68.17153159342706,102.44521236068977 68.78348214289872,102.27020783154876 71.16328983515268,101.5920634114882 71.72424450545805,101.48268500089762 72.42118818685412,101.41705791740969 72.57417582423659,101.43893361500523 72.59117445052834,101.48268500089762 72.50618131866213,101.61393908438913 72.23420329677174,101.78894435572147 71.94522664835677,101.85457128145208 71.53725961537566,101.83269564267539 71.28228021971881,101.85457128145208 71.02730082417838,101.9420738058543 70.56833791208919,102.2045810820855 69.1064560439554,102.75146981050784 68.4265109889675,102.94834927958436 67.72956730768783,103.07960211978934 67.01562499994179,103.29835660604294 66.43767170328647,103.49523537927598 65.46874999994179,103.91086752233969 65.17977335170144,103.9764935481362 64.68681318673771,104.02024421656097 64.44883241754724,104.08587019602419 64.22785027470673,104.21712207129167 63.93887362640817,104.54525127258967 63.853880494541954,104.72025322874833 63.81988324172562,104.8515045660024 63.70089285715949,105.02650617579638 63.80288461537566,105.11400690655864 65.43475274724187,105.77026080957148 66.0127060439554,106.05463663651608 66.45467032969464,106.38276194143691 66.84563873626757,106.8202612655441 67.44059065938927,107.69525620303466 67.91655219777022,108.54837150337698 68.68149038462434,109.81709838009556 69.58241758239456,111.41392949182773 70.22836538462434,112.3107726162707 70.31335851643234,112.48576579058135 70.48334478022298,112.57326230351464 70.55133928568102,112.66075876702962 70.87431318685412,113.44822471235238 71.12929258239456,113.82008223814773 71.50326236267574,114.52004692149058 72.23420329677174,115.6793564640102 72.76116071431898,116.59804842415906 73.16912774718367,117.23238016618416" stroke="#4DD2FF" stroke-linecap="round" stroke-linejoin="round" stroke-width="0.5"><title>2025-09-27 6.27km</title><desc>15948193006</desc></polyline></svg>