<?xml version="1.0" encoding="utf-8" ?>
<svg baseProfile="full" height="130mm" version="1.1" viewBox="0,0,100,130" width="100mm" xmlns="http://www.w3.org/2000/svg" xmlns:ev="http://www.w3.org/2001/xml-events" xmlns:xlink="http://www.w3.org/1999/xlink"><defs /><rect fill="#FAF9F5" height="130" width="100" x="0" y="0" /><text fill="#5A5A5A" style="font-size:6px; font-family:Arial; font-weight:bold;color:#0ed45e;" x="5" y="10">冬日浓雾下漫跑</text><text fill="#5A5A5A" style="font-size:4px; font-family:Arial" x="5" y="121">Runner</text><text fill="#5A5A5A" style="font-size:6px; font-family:Arial" x="2" y="128">蓝皮书</text><text fill="#5A5A5A" style="font-size:4px; font-family:Arial" x="25" y="121">WORKOUTS INFO</text><text fill="#5A5A5A" style="font-size:3px; font-family:Arial" x="25" y="125">Type: Run</text><text fill="#5A5A5A" style="font-size:3px; font-family:Arial" x="22" y="129">Date: 2025-11-10</text><text fill="#5A5A5A" style="font-size:3px; font-family:Arial" x="47" y="125">Distance: 5.06 km</text><text fill="#5A5A5A" style="font-size:3px; font-family:Arial" x="47" y="129">Duration: 37:00min</text><text fill="#5A5A5A" style="font-size:3px; font-family:Arial" x="75" y="125">Pace: 7:18/km</text><text fill="#5A5A5A" style="font-size:3px; font-family:Arial" x="75" y="129">Elevation: 10m</text><polyline fill="none" points="66.28684568288736,38.10121216761763 66.28684568288736,39.281753367511556 66.08477563713677,40.12499452009797 66.08477563713677,41.642823216010584 65.84229158237576,43.10442949802382 65.76146356388927,44.903320733923465 65.47856550011784,46.30869775291649 65.43815149087459,48.557288651383715 65.03401139960624,50.63722171948757 65.03401139960624,51.64907635463169 65.11483941762708,52.26743045178591 65.15525342687033,53.110638734768145 64.83194135385565,55.021902941312874 64.75111333560199,56.03374425845686 64.62987130810507,56.42723727427074 64.71069932635874,57.72013962449273 64.46821527159773,59.462739200971555 64.1044891893398,60.98047979242983 64.02366117108613,61.93609069145168 63.94283315259963,63.9035162643122 63.49827905208804,65.9271418749413 63.37703702482395,67.3324302060646 63.05372495180927,69.46845711630885 63.05372495180927,70.42404366855044 62.811240896815434,73.2907868802431 62.48792882380076,76.1012954939797 62.40710080554709,77.1692825507489 61.760476659284905,81.94707746664062 61.841304677538574,83.52092431881465 61.720062650041655,84.64509609004017 61.5179926045239,85.60063911331235 61.07343850377947,88.74829086559475 61.03302449500188,90.04106779204449 60.588470394257456,95.04350516025443 60.38640034850687,95.77419197239215 60.3055723302532,96.50487718195654 60.22474431199953,98.75312931489316 59.53770615672693,103.86784640260157 59.53770615672693,105.5539996624866 59.29522210196592,107.46496304185712 59.25480809272267,108.53284956826246 59.09315205621533,109.43211977812462 59.21439408347942,109.82554973167134 57.597833717940375,109.65693695127266 57.35534966317937,109.7131412208837 56.627897498663515,110.38759171665879 55.90044533414766,110.5 48.22178359795362,109.54452838370344 44.342038720613346,108.92628058374976 39.81566969724372,108.53284956826246 35.41054270090535,107.85839531823876 33.95563837187365,107.68978154225624 33.67274030786939,107.57737231109058 33.30901422561146,107.01532558546751 33.228186207590625,106.11604885282577 33.83439634460956,98.30348010206944 34.31936445413157,94.42523045209236 34.40019247261807,93.02005639442359 34.56184850912541,92.1769491150335 34.72350454563275,91.10901016517892 35.53178472840227,82.62158417093451 35.77426878316328,81.49740557197947 36.05716684716754,77.90000856434926 36.46130693866871,74.63983397386619 36.82503302092664,70.98615212496952 37.148345093941316,68.5128678229521 37.269587121438235,65.98335352196591 37.43124315794557,65.08396603094297 37.63331320369616,63.17275955071091 38.239523340715095,58.84439845898305 38.320351358968765,57.60771353234304 38.56283541372977,56.876943008595845 38.80531946849078,52.88578340128879 39.16904555098154,49.90643590508262 39.330701587488875,46.0838378284534 40.1389817702584,39.45040176864131 40.74519190727733,32.98548528927495 40.826019925531,32.25466075036093 41.02808997104876,31.69248693701229 41.310988035285845,30.11839521242655 41.63430010830052,29.724871119251475 42.321338263573125,29.5 47.453917424194515,29.94974208655185 48.464267652714625,29.893524358951254 52.70773861231282,30.399483566026902 54.00098690460436,30.680571682285517 56.38541344390251,30.79300686257193 57.84031777270138,30.96165956146433 59.25480809272267,31.0178771087958 60.87136845826171,31.186529693863122 63.53869306133129,31.355182193627115 64.83194135385565,31.580052060482558 66.28684568288736,31.63626950341859 66.7718137926422,31.861139180517057 66.73139978339896,33.547656920331065 66.28684568288736,36.69580052240053 65.84229158237576,42.09254890878219 65.64022153662518,43.27307596398168 65.47856550011784,45.63411752379034 64.8723553630989,50.693435946595855 64.8723553630989,51.480434128810884 65.03401139960624,52.15500251945923 65.03401139960624,52.379858346190304 64.5490432898514,55.75267753424123 64.5490432898514,56.93315618275665 64.7915273446124,54.45976754828007 64.95318338111974,50.80586437220336 65.236081445124,47.208135933760786 65.80187757313251,43.216860484768404 65.9231196003966,40.518506327527575 66.40808771015145,34.72821425762959 66.61015775590204,33.77252530719852" stroke="#4DD2FF" stroke-linecap="round" stroke-linejoin="round" stroke-width="0.5"><title>2025-11-10 5.06km</title><desc>16409972003</desc></polyline></svg>