<?xml version="1.0" encoding="utf-8" ?>
<svg baseProfile="full" height="130mm" version="1.1" viewBox="0,0,100,130" width="100mm" xmlns="http://www.w3.org/2000/svg" xmlns:ev="http://www.w3.org/2001/xml-events" xmlns:xlink="http://www.w3.org/1999/xlink"><defs /><rect fill="#FAF9F5" height="130" width="100" x="0" y="0" /><text fill="#5A5A5A" style="font-size:6px; font-family:Arial; font-weight:bold;color:#0ed45e;" x="5" y="10">Morning Run Evening Run</text><text fill="#5A5A5A" style="font-size:4px; font-family:Arial" x="5" y="121">Runner</text><text fill="#5A5A5A" style="font-size:6px; font-family:Arial" x="2" y="128">蓝皮书</text><text fill="#5A5A5A" style="font-size:4px; font-family:Arial" x="25" y="121">WORKOUTS INFO</text><text fill="#5A5A5A" style="font-size:3px; font-family:Arial" x="25" y="125">Type: Run</text><text fill="#5A5A5A" style="font-size:3px; font-family:Arial" x="22" y="129">Date: 2025-09-11</text><text fill="#5A5A5A" style="font-size:3px; font-family:Arial" x="47" y="125">Distance: 5.01 km</text><text fill="#5A5A5A" style="font-size:3px; font-family:Arial" x="47" y="129">Duration: 30:52min</text><text fill="#5A5A5A" style="font-size:3px; font-family:Arial" x="75" y="125">Pace: 6:09/km</text><text fill="#5A5A5A" style="font-size:3px; font-family:Arial" x="75" y="129">Elevation: 0m</text><polyline fill="none" points="42.45815450605005,53.01913320401218 49.89377682469785,51.670534951845184 58.391630901023746,52.749413627316244 64.12768240272999,52.47969401336741 67.9517167378217,53.288852743571624 70.0761802578345,51.94025467522442 73.26287553552538,47.894454946392216 73.90021459199488,46.006412238115445 74.32510729599744,44.118367724935524 73.05042918492109,38.9936663802946 71.56330472044647,36.83589341538027 60.51609442010522,33.86895174148958 57.32939914241433,33.59922955033835 49.25643776822835,33.59922955033835 39.90879828296602,35.757006049505435 35.02253218833357,35.757006049505435 32.89806867018342,36.566171629703604 30.986051502637565,38.4542233600514 29.711373390629888,40.88171579095069 28.011802575550973,45.73669170390349 28.224248928017914,49.24305577715859 30.13626609556377,51.400815190398134 31.623390558175743,52.47969401336741 33.74785407818854,52.749413627316244 38.63412017188966,52.47969401336741 46.4946351936087,53.288852743571624 54.780042918398976,52.47969401336741 60.72854077257216,53.288852743571624 67.9517167378217,52.749413627316244 69.438841201365,52.209974362980574 70.50107296090573,51.400815190398134 73.26287553552538,48.1641751867719 73.90021459199488,46.545853196061216 74.1126609435305,41.960600358317606 73.68776823952794,39.802830633940175 70.92596566490829,37.914780192426406 65.6148068672046,35.757006049505435 53.08047210238874,33.59922955033835 36.08476394973695,33.0597850572085 34.1727467821911,33.86895174148958 33.32296137325466,34.67811809503473 30.348712447099388,40.34227328596171 28.436695279553533,47.894454946392216 29.28648068755865,49.78249585151207 30.773605151101947,49.512775832554325 35.02253218833357,50.05221583310049 42.24570815451443,52.209974362980574 51.16845493577421,53.288852743571624 67.52682403381914,52.749413627316244 69.65128755290061,52.209974362980574 71.98819742444903,50.32193577790167 73.05042918492109,48.70361555553973 74.53755364753306,44.118367724935524 74.53755364753306,42.500042420462705 74.1126609435305,41.69087927124929 67.52682403381914,36.29644980689045 64.55257510766387,36.02672794647515 61.790772531181574,35.217562146135606 57.32939914241433,35.217562146135606 49.04399141576141,34.1386738960864 45.219957081601024,33.0597850572085 42.03326180204749,30.6322830155259 38.84656652342528,29.553392261383124 37.35944206081331,30.362560381763615 34.597639485262334,32.790062755695544 31.835836910642684,36.29644980689045 30.986051502637565,38.4542233600514 29.92381974309683,44.118367724935524 28.011802575550973,48.70361555553973 28.649141632020473,50.05221583310049 30.348712447099388,51.670534951845184 38.421673820354044,52.749413627316244 44.795064377598464,52.47969401336741 49.89377682469785,53.828291713260114 55.204935622401536,54.09801114350557 59.45386266056448,53.55857224739157 62.428111587651074,54.09801114350557 64.9774678107351,53.828291713260114 68.16416309028864,53.288852743571624 70.92596566490829,51.94025467522442 72.83798283245414,50.05221583310049 73.90021459199488,47.62473467050586 73.90021459199488,46.006412238115445 73.26287553552538,43.039484336040914 71.77575107291341,40.34227328596171 70.50107296090573,38.9936663802946 65.8272532178089,38.72394488879945 62.00321888457984,37.645058552967384 58.179184548556805,37.105615165433846 54.1427038628608,35.757006049505435 50.956008583307266,35.757006049505435 47.3444206006825,34.408396013546735 43.73283261805773,34.1386738960864 40.97103004343808,33.0597850572085 37.996781116351485,32.790062755695544 33.5354077257216,34.408396013546735 30.986051502637565,37.375336877652444 29.28648068755865,40.88171579095069 28.436695279553533,44.65780919860117 28.436695279553533,46.81557362002786 29.07403433509171,47.894454946392216 32.47317596618086,48.70361555553973 37.14699570834637,51.131095392862335 41.395922747440636,52.47969401336741 51.80579399224371,53.288852743571624 58.179184548556805,54.3677305362653 62.215665236115456,53.828291713260114 66.25214592274278,54.09801114350557 70.0761802578345,52.749413627316244 72.41309012845159,51.400815190398134 73.68776823952794,49.24305577715859 74.53755364753306,46.545853196061216 74.53755364753306,44.118367724935524 73.68776823952794,40.88171579095069 72.20064377598464,38.4542233600514 69.22639484982938,36.83589341538027 66.88948497828096,36.29644980689045 55.62982832547277,36.02672794647515 42.24570815451443,33.59922955033835 38.63412017188966,33.32950732274912 35.65987124480307,33.86895174148958 32.68562231771648,34.94784013857134 30.56115879956633,36.83589341538027 28.224248928017914,39.53310925292317 26.524678112007678,42.500042420462705 25.25,45.73669170390349 25.46244635246694,47.355014357483014 26.31223176047206,48.97333568520844 28.861587983556092,50.86137555819005 38.84656652342528,53.55857224739157 44.795064377598464,53.288852743571624 55.204935622401536,54.09801114350557 62.00321888457984,53.55857224739157 68.37660944182426,52.749413627316244 71.13841201737523,51.131095392862335 74.1126609435305,47.08529400685802 74.75,44.92752987984568 74.32510729599744,42.76976339670364 72.62553648091853,39.53310925292317 70.92596566490829,38.184501794865355 66.67703862581402,36.02672794647515 62.428111587651074,36.29644980689045 57.966738197021186,37.375336877652444 50.10622317716479,37.645058552967384 40.54613733943552,35.757006049505435 36.72210300434381,35.48728411633056 34.81008583679795,36.29644980689045 31.198497855104506,38.9936663802946 28.861587983556092,42.76976339670364 28.011802575550973,45.19725052488502 28.224248928017914,47.08529400685802 30.13626609556377,50.86137555819005 32.26072961464524,52.749413627316244 33.5354077257216,53.288852743571624 40.97103004343808,53.288852743571624 45.85729613620788,54.3677305362653 52.86802575085312,54.63744989223778 58.179184548556805,54.3677305362653 63.27789699565619,53.55857224739157 68.37660944182426,53.288852743571624 71.56330472044647,51.94025467522442 73.90021459199488,47.355014357483014 74.1126609435305,44.92752987984568 73.26287553552538,39.53310925292317 69.86373390536755,36.566171629703604 67.52682403381914,35.757006049505435 65.40236051473767,35.757006049505435 62.215665236115456,37.105615165433846 56.26716738101095,37.645058552967384 49.25643776822835,36.566171629703604 34.385193133726716,38.184501794865355 31.835836910642684,38.72394488879945 29.711373390629888,40.34227328596171 26.31223176047206,45.46697113313712 26.09978540800512,46.276132735656574 26.94957081694156,48.4338953893166 31.198497855104506,51.670534951845184 33.110515020787716,53.828291713260114 35.23497854080051,53.01913320401218 37.78433476481587,53.288852743571624 39.90879828296602,52.47969401336741 42.45815450605005,52.749413627316244 45.219957081601024,52.209974362980574 48.406652360223234,52.749413627316244 55.417381974868476,52.47969401336741 60.72854077257216,53.01913320401218 63.70278969965875,52.47969401336741 68.80150214582682,52.47969401336741 70.92596566490829,51.94025467522442 71.98819742444903,50.86137555819005 74.32510729599744,46.545853196061216 74.32510729599744,42.76976339670364 74.1126609435305,41.151436987333 72.83798283245414,38.72394488879945 70.50107296090573,37.375336877652444 66.25214592274278,36.29644980689045 61.790772531181574,37.645058552967384 58.179184548556805,37.645058552967384 53.08047210238874,36.29644980689045 46.06974248960614,36.566171629703604 41.82081545051187,35.48728411633056 35.44742489326745,36.02672794647515 31.623390558175743,38.184501794865355 29.711373390629888,39.802830633940175 26.94957081694156,43.57892610388808 25.46244635246694,47.08529400685802 25.67489270493388,48.1641751867719 27.374463520012796,50.591655686614104 34.385193133726716,52.749413627316244 39.27145922835916,54.90716921084095 42.670600859448314,55.44660773873329 48.19420600961894,54.63744989223778 49.89377682469785,54.09801114350557 53.50536480732262,54.90716921084095 56.47961373347789,54.63744989223778 59.87875536456704,55.1768884928897 64.76502145826817,55.1768884928897 65.6148068672046,54.90716921084095 67.73927038535476,53.01913320401218 70.0761802578345,52.749413627316244 72.62553648091853,49.512775832554325 73.90021459199488,45.46697113313712 74.32510729599744,43.039484336040914 73.68776823952794,41.151436987333 71.56330472044647,38.184501794865355 70.50107296090573,37.645058552967384 67.52682403381914,36.83589341538027 62.85300429072231,36.83589341538027 59.66630901303142,37.105615165433846 56.26716738101095,36.566171629703604 52.65557939838618,37.105615165433846" stroke="#4DD2FF" stroke-linecap="round" stroke-linejoin="round" stroke-width="0.5"><title>2025-09-11 4.13km</title><desc>15775175961</desc></polyline><polyline fill="none" points="31.864224137738347,106.98093673808035 50.00000000093132,106.710054391413 59.60129310376942,105.89740713115316 67.70905172545463,106.710054391413 72.40301724243909,103.73034614278004 74.75,101.02151657943614 74.75,98.58356681035366 73.68318965565413,95.8747302199481 71.97629310470074,93.70765828550793 69.84267241507769,91.81146840110887 64.93534482829273,90.45704594557174 59.174568966031075,89.37350731517654 55.760775863192976,88.01908319571521 50.64008620660752,87.20642827975098 44.23922413866967,89.9152767045889 42.959051724523306,90.18616134324111 40.18534482829273,89.9152767045889 35.49137931037694,88.56085295486264 32.717672415077686,89.6443920279853 29.943965517915785,91.54058398422785 26.956896552816033,95.0620785219362 25.463362069800496,99.12533368472941 25.25,100.47975022287574 25.67672413866967,101.8341658366844 27.810344828292727,105.08475953806192 29.303879312239587,106.16828958841506 31.010775863192976,106.43917200854048 57.68103448394686,105.89740713115316 61.521551724523306,106.43917200854048 66.64224138017744,107.52270131907426 68.98922413866967,107.25181904644705 71.3362068971619,106.16828958841506 73.04310344904661,104.54299429105595 74.32327586226165,101.02151657943614 74.32327586226165,97.22914897790179 73.04310344904661,95.0620785219362 70.05603448394686,92.08235278073698 67.70905172545463,90.99881503824145 65.14870689623058,90.72793051053304 57.467672414146364,90.72793051053304 49.78663793206215,89.10262256511487 42.959051724523306,89.9152767045889 38.05172413866967,89.10262256511487 34.63793103583157,88.01908319571521 33.57112069055438,88.01908319571521 31.437500000931323,89.10262256511487 30.370689656585455,90.18616134324111 28.450431034900248,93.16588993184268 27.810344828292727,95.0620785219362 27.59698275849223,97.22914897790179 27.810344828292727,101.02151657943614 28.66379310376942,103.73034614278004 30.370689656585455,105.62652463663835 33.57112069055438,106.710054391413 50.85344827640802,105.62652463663835 58.961206898093224,106.98093673808035 67.28232758678496,105.89740713115316 69.20258620753884,105.08475953806192 70.90948275942355,103.18858052557334 73.04310344904661,98.04179978801403 73.04310344904661,96.14561404590495 72.61637931037694,95.0620785219362 70.4827586216852,92.35323712450918 59.60129310376942,90.45704594557174 51.920258620753884,88.56085295486264 49.3599137943238,87.47731328802183 39.545258620753884,86.6646581516834 32.290948275476694,88.83173777826596 29.943965517915785,91.54058398422785 28.0237068971619,94.24942649132572 27.38362069055438,95.8747302199481 26.743534483015537,99.12533368472941 27.170258621685207,102.10504884866532 29.303879312239587,106.16828958841506 31.650862069800496,106.98093673808035 40.18534482829273,107.25181904644705 45.30603448301554,108.3353479137877 54.69396551884711,105.62652463663835 57.25431034527719,105.62652463663835 63.44181034527719,106.710054391413 67.28232758678496,106.710054391413 70.05603448394686,106.16828958841506 71.76293103490025,104.54299429105595 73.46982758678496,99.66710041114129 73.04310344904661,97.22914897790179 71.97629310470074,95.33296245872043 69.62931034527719,93.16588993184268 67.70905172545463,92.08235278073698 61.308189656585455,93.43677412741818 57.68103448394686,92.35323712450918 51.06681034620851,90.72793051053304 45.94612069055438,90.72793051053304 35.064655172638595,88.28996809339151 31.864224137738347,89.10262256511487 29.09051724243909,90.99881503824145 28.0237068971619,92.62412143032998 27.170258621685207,94.52031053812243 26.956896552816033,96.41649783367757 27.170258621685207,100.20886698877439 28.877155172638595,104.27211161248852 30.370689656585455,105.62652463663835 33.784482759423554,107.52270131907426 36.9849137943238,108.06446575268637 54.05387931037694,106.16828958841506 59.174568966031075,107.52270131907426 67.70905172545463,107.52270131907426 70.4827586216852,106.710054391413 71.54956896603107,105.62652463663835 73.46982758678496,101.8341658366844 73.68318965565413,99.66710041114129 73.04310344904661,96.95826529990882 71.54956896603107,94.24942649132572 69.20258620753884,92.62412143032998 66.64224138017744,92.08235278073698 61.73491379339248,91.81146840110887 58.107758620753884,89.9152767045889 51.49353448301554,88.28996809339151 47.866379311308265,86.93554323387798 42.53232758771628,86.12288787472062 36.9849137943238,86.93554323387798 35.27801724243909,87.74819826055318 30.79741379339248,91.81146840110887 28.237068966031075,95.0620785219362 26.956896552816033,97.77091622131411 26.743534483015537,100.75063341995701 27.810344828292727,103.18858052557334 29.51724138017744,105.62652463663835 31.437500000931323,106.98093673808035 35.70474138017744,108.06446575268637 38.47844827640802,108.06446575268637 45.51939655281603,106.98093673808035 51.49353448301554,107.52270131907426 55.54741379339248,108.8771121253958 56.61422413960099,108.8771121253958 62.80172413866967,107.79358355421573 68.98922413866967,105.08475953806192 70.90948275942355,103.18858052557334 73.68318965565413,98.8544502655277 73.46982758678496,96.68738158571068 71.12284482922405,93.70765828550793 65.36206896603107,91.26969952962827 54.69396551884711,89.37350731517654 48.506465517915785,88.83173777826596 42.10560344811529,88.83173777826596 35.064655172638595,89.6443920279853 31.864224137738347,90.45704594557174 30.370689656585455,91.26969952962827 29.303879312239587,92.62412143032998 28.237068966031075,94.24942649132572 27.38362069055438,99.93798371846788 27.810344828292727,103.18858052557334 28.877155172638595,105.08475953806192 30.79741379339248,105.62652463663835 35.91810344904661,105.62652463663835 41.89224138017744,106.43917200854048 47.22629310376942,107.79358355421573 53.413793104700744,106.98093673808035 60.66810344904661,107.79358355421573 66.64224138017744,107.25181904644705 69.20258620753884,106.16828958841506 70.90948275942355,104.00122889596969 72.82974138017744,100.47975022287574 73.04310344904661,98.04179978801403 72.18965517356992,95.33296245872043 69.62931034527719,92.8950056991307 67.49568965658545,92.62412143032998 60.45474138017744,92.62412143032998 53.413793104700744,92.35323712450918 41.252155172638595,89.10262256511487 38.05172413866967,89.10262256511487 31.22413793206215,90.99881503824145 29.09051724243909,93.16588993184268 27.59698275849223,96.14561404590495 27.170258621685207,99.39621706597973 27.59698275849223,102.10504884866532 28.66379310376942,103.73034614278004 30.15732758678496,104.54299429105595 32.07758620753884,104.54299429105595 35.70474138017744,103.18858052557334 43.59913793206215,101.56328278803267 47.65301724150777,101.02151657943614 52.7737068971619,102.37593182327691 58.534482759423554,104.54299429105595 61.308189656585455,105.08475953806192 64.08189655188471,104.81387693295255 70.05603448394686,103.73034614278004 72.18965517356992,102.37593182327691 73.46982758678496,100.20886698877439 73.68318965565413,97.77091622131411 72.82974138017744,95.6038463577861 67.49568965658545,92.62412143032998 64.50862069055438,91.54058398422785 59.38793103490025,90.45704594557174 52.34698275849223,90.99881503824145 38.69181034527719,90.45704594557174 34.424568966031075,91.26969952962827 31.650862069800496,92.35323712450918 29.09051724243909,94.24942649132572 26.530172414146364,98.04179978801403 26.10344827733934,99.12533368472941 26.10344827733934,101.02151657943614 26.956896552816033,102.9176976622548 28.66379310376942,104.27211161248852 33.997844827361405,105.08475953806192 39.75862069055438,106.710054391413 51.06681034620851,106.16828958841506 56.1875,106.98093673808035 62.37500000093132,107.52270131907426 65.57543103583157,106.710054391413 68.98922413866967,105.62652463663835 70.4827586216852,104.00122889596969 71.76293103490025,101.8341658366844 73.04310344904661,98.31268331769388 73.04310344904661,96.41649783367757 71.97629310470074,94.79119454871397 69.20258620753884,92.8950056991307 67.49568965658545,92.35323712450918 59.60129310376942,92.35323712450918 43.38577586226165,91.26969952962827 39.545258620753884,91.54058398422785 34.21120689623058,91.54058398422785 31.864224137738347,92.35323712450918 29.730603449046612,93.9785424071597 27.38362069055438,97.50003261794336 26.10344827733934,98.31268331769388 26.316810344345868,98.8544502655277 27.170258621685207,99.93798371846788 29.943965517915785,101.29239970212802 35.27801724243909,101.8341658366844 41.252155172638595,104.00122889596969 45.51939655281603,104.54299429105595 51.920258620753884,106.43917200854048 60.66810344904661,107.52270131907426 66.42887931130826,107.25181904644705 68.98922413866967,106.43917200854048 71.54956896603107,104.27211161248852 72.61637931037694,101.56328278803267 73.25646551884711,98.8544502655277 72.82974138017744,96.41649783367757 71.54956896603107,94.52031053812243 68.7758620698005,92.35323712450918 58.534482759423554,90.45704594557174 51.70689655188471,90.18616134324111 48.07974138110876,89.6443920279853 41.89224138017744,89.6443920279853 38.26508620753884,90.45704594557174 32.93103448301554,90.72793051053304 28.877155172638595,92.62412143032998 25.463362069800496,95.0620785219362 25.25,95.6038463577861 26.316810344345868,98.31268331769388 27.170258621685207,99.66710041114129 33.35775862168521,103.18858052557334 41.03879310376942,105.89740713115316 46.37284482829273,106.43917200854048 55.54741379339248,108.06446575268637 65.78879310376942,106.98093673808035 71.76293103490025,102.9176976622548 73.25646551884711,100.75063341995701 73.25646551884711,98.31268331769388 73.04310344904661,96.95826529990882 70.69612068962306,93.43677412741818 68.98922413866967,92.35323712450918 66.64224138017744,92.08235278073698" stroke="#4DD2FF" stroke-linecap="round" stroke-linejoin="round" stroke-width="0.5"><title>2025-09-11 5.01km</title><desc>15769279873</desc></polyline></svg>