<?xml version="1.0" encoding="utf-8" ?>
<svg baseProfile="full" height="130mm" version="1.1" viewBox="0,0,100,130" width="100mm" xmlns="http://www.w3.org/2000/svg" xmlns:ev="http://www.w3.org/2001/xml-events" xmlns:xlink="http://www.w3.org/1999/xlink"><defs /><rect fill="#FAF9F5" height="130" width="100" x="0" y="0" /><text fill="#5A5A5A" style="font-size:6px; font-family:Arial; font-weight:bold;color:#0ed45e;" x="5" y="10">晨间跑步Run</text><text fill="#5A5A5A" style="font-size:4px; font-family:Arial" x="5" y="121">Runner</text><text fill="#5A5A5A" style="font-size:6px; font-family:Arial" x="2" y="128">蓝皮书</text><text fill="#5A5A5A" style="font-size:4px; font-family:Arial" x="25" y="121">WORKOUTS INFO</text><text fill="#5A5A5A" style="font-size:3px; font-family:Arial" x="25" y="125">Type: Run</text><text fill="#5A5A5A" style="font-size:3px; font-family:Arial" x="22" y="129">Date: 2025-10-15</text><text fill="#5A5A5A" style="font-size:3px; font-family:Arial" x="47" y="125">Distance: 5.12 km</text><text fill="#5A5A5A" style="font-size:3px; font-family:Arial" x="47" y="129">Duration: 36:37min</text><text fill="#5A5A5A" style="font-size:3px; font-family:Arial" x="75" y="125">Pace: 7:09/km</text><text fill="#5A5A5A" style="font-size:3px; font-family:Arial" x="75" y="129">Elevation: 2m</text><polyline fill="none" points="78.08947368431836,50.40181792280055 76.66842105262913,50.8285521157959 75.76842105272226,51.31624781936989 72.68947368417867,52.59644641628256 68.66315789474174,54.0595258725225 66.86315789469518,54.791063738957746 65.91578947380185,55.034909418493044 63.5,56.071252018387895 61.178947368171066,57.473358629707946 58.62105263140984,58.32681259553647 56.726315789623186,59.119304051302606 55.2105263157282,59.850833332777256 52.79473684215918,60.70428259274922 51.6105263158679,61.31388817258994 50.09473684220575,61.80157201594557 46.63684210530482,63.38654069733457 45.689473684411496,63.75230187337729 44.22105263150297,64.48382329446031 40.384210526477545,66.00782226904994 37.68421052629128,67.22701757046161 34.98421052633785,67.8366139284044 33.75263157906011,68.56812842015643 32.47368421033025,68.99484463391127 26.552631578873843,71.85992827554583 25.226315789390355,72.16472328742384 23.37894736835733,72.89623043636675 21.057894736994058,73.8715713712736 19.73157894751057,74.60307562482194 17.74210526328534,75.09074443759164 16.747368421172723,75.57841269878554 15.563157894648612,75.94416353281122 13.289473684504628,77.16333073875285 11.868421052582562,77.65099665615708 10.115789473755285,78.44345259515103 9.547368420986459,78.56536876421887 9.5,78.9920750845049 9.594736842205748,79.90644434894784 10.021052631782368,81.06464263377711 10.163157894741744,82.10092267257278 10.684210526524112,83.74677408608841 10.826315789716318,84.78304767922964 11.015789473662153,85.45357632415835 12.105263157747686,88.19663719556411 12.626315789530054,89.84246534272097 13.952631579013541,92.40262997493846 14.473684210563079,93.80461845116224 14.80526315793395,94.10939795171726 15.373684210469946,94.10939795171726 15.894736842019483,93.92653027718188 16.131578947184607,93.6217506477551 16.08421052643098,92.89027865751996 14.900000000139698,90.02533474916709 14.04736842121929,87.343242349918 13.336842105258256,85.69740466363146 11.96315789455548,81.12560035201022 11.96315789455548,80.75985391298309 12.105263157747686,80.6379383643216 12.76842105248943,80.39410716376733 13.384210526477545,80.3331493420992 15.421052631689236,79.72357065122924 16.08421052643098,79.60165480946307 17.64736842107959,79.60165480946307 18.642105263192207,79.23590707799303 19.115789473522455,79.11399109847844 20.631578947417438,79.90644434894784 22.0999999998603,80.94272717132117 22.52631578943692,80.88176942715654 23.521052631782368,80.21123367283144 24.65789473685436,79.17494909244124 26.978947368450463,77.65099665615708 28.068421052535996,76.85853926060372 31.289473684038967,75.09074443759164 32.7105263157282,73.56677756624413 33.65789473685436,72.83527155464981 35.31578947347589,72.04280530838878 37.73157894727774,71.06746023677988 39.05789473676123,70.39690922008594 41.663157894741744,69.36060105258366 43.226315789623186,68.44620942437905 43.79473684215918,68.38524991361191 43.84210526314564,68.44620942437905 43.699999999953434,68.56812842015643 43.36842105281539,69.78731648204848 43.41578947356902,71.18937849137001 43.226315789623186,73.62773634438054 42.98947368422523,74.78595149421017 42.61052631563507,76.4318308289512 42.421052631689236,79.29686505487189 42.13684210530482,80.69889614303247 41.994736842112616,82.64954050836968 41.7105263157282,83.92964607776958 41.7105263157282,84.1734752789198 42.042105263099074,84.66113326809136 42.94210526323877,84.72209047790966 43.226315789623186,84.417304342438 43.652631578966975,83.19815764625673 44.457894736900926,78.32153639168246 44.884210526244715,76.4318308289512 45.1684210523963,75.45649568529916 45.78421052638441,69.84827579456032 45.83157894737087,68.1414117841341 46.02105263154954,67.89757351676235 47.6789473684039,66.86125934208394 47.8210526315961,66.92221906830673 47.48947368422523,67.59277548865066 47.44210526300594,68.44620942437905 47.25263157906011,69.90923509863205 46.589473684318364,71.85992827554583 46.494736842112616,72.5304770169314 45.5,77.04141417334904 45.40526315802708,79.84548645821633 45.1684210523963,81.67421942861984 45.35789473680779,84.60017604954191 45.40526315802708,84.84400487178937 45.5,84.84400487178937 47.44210526300594,85.20974784658756 49.2894736842718,85.45357632415835 49.431578947464004,85.39261921762954 49.57368421042338,85.08783355614287 50.42631578934379,81.91804990553646 50.568421052535996,80.69889614303247 50.80526315793395,78.01674573184573 50.947368420893326,77.10237246053293 51.042105263099074,76.18799724979908 51.32631578925066,74.66403425650788 51.373684210469946,73.50581877920195 51.32631578925066,72.34760019092937 51.51578947342932,70.15307222842239 51.32631578925066,68.44620942437905 52.08421052619815,65.70302290510153 52.8894736841321,64.72766349240555 54.87894736835733,63.508461123739835 57.3894736841321,62.35021568040247 60.042105263099074,61.43580918511725 62.884210526244715,59.302186487970175 64.68421052629128,58.50969536844059 65.63157894741744,57.90008582387236 66.72105263150297,57.473358629707946 68.37894736835733,56.61990297437296 69.23157894727774,56.376058191322954 70.46315789455548,56.376058191322954 73.44736842089333,55.095870816818206 74.77368421037681,54.303371965972474 76.33684210525826,53.69375647389097 77.89999999990687,52.657408159342594 79.22631578939036,52.16971397298039 79.65263157896698,52.04779034011881 80.69473684183322,52.291637571383035 81.02631578943692,52.23067577640177 83.11052631563507,51.07240003652987 84.15263157896698,50.34085586076253 85.57368421042338,50.036045421118615 88.1789473684039,48.511989990685834 89.88421052624471,47.902366310183425 90.3105263155885,47.71947903779801 90.5,47.4146667450259 90.40526315779425,46.866004074778175 90.02631578920409,45.95156473966199 89.88421052624471,45.89060204825364" stroke="#4DD2FF" stroke-linecap="round" stroke-linejoin="round" stroke-width="0.5"><title>2025-10-15 5.12km</title><desc>16143786682</desc></polyline></svg>