<?xml version="1.0" encoding="utf-8" ?>
<svg baseProfile="full" height="130mm" version="1.1" viewBox="0,0,100,130" width="100mm" xmlns="http://www.w3.org/2000/svg" xmlns:ev="http://www.w3.org/2001/xml-events" xmlns:xlink="http://www.w3.org/1999/xlink"><defs /><rect fill="#FAF9F5" height="130" width="100" x="0" y="0" /><text fill="#5A5A5A" style="font-size:6px; font-family:Arial; font-weight:bold;color:#0ed45e;" x="5" y="10">来来回回</text><text fill="#5A5A5A" style="font-size:4px; font-family:Arial" x="5" y="121">Runner</text><text fill="#5A5A5A" style="font-size:6px; font-family:Arial" x="2" y="128">蓝皮书</text><text fill="#5A5A5A" style="font-size:4px; font-family:Arial" x="25" y="121">WORKOUTS INFO</text><text fill="#5A5A5A" style="font-size:3px; font-family:Arial" x="25" y="125">Type: Run</text><text fill="#5A5A5A" style="font-size:3px; font-family:Arial" x="22" y="129">Date: 2025-12-15</text><text fill="#5A5A5A" style="font-size:3px; font-family:Arial" x="47" y="125">Distance: 6.30 km</text><text fill="#5A5A5A" style="font-size:3px; font-family:Arial" x="47" y="129">Duration: 47:53min</text><text fill="#5A5A5A" style="font-size:3px; font-family:Arial" x="75" y="125">Pace: 7:36/km</text><text fill="#5A5A5A" style="font-size:3px; font-family:Arial" x="75" y="129">Elevation: 0m</text><polyline fill="none" points="53.0117423592601,32.70042307989206 49.253972076345235,34.122826801321935 46.54616701952182,35.47410661086906 40.46742097311653,37.82105765189044 33.83606165042147,40.66583211143734 19.191809811862186,46.56868778675562 18.14184458577074,47.13763407134684 18.418151224032044,48.13328852073755 18.473412551917136,48.8444690637989 18.14184458577074,50.622416022233665 17.920799274928868,52.1870041473303 17.644492636434734,55.17393159982748 17.42344732582569,56.45403793564765 17.147140687331557,58.87200768227922 16.152436788892373,65.91250045847846 15.87613015039824,69.04157672962174 15.655084839556366,70.32164777611615 15.544562184251845,71.74394511856372 14.605119613464922,78.49980257969582 14.328812974970788,81.62880055670394 13.886722353287041,84.4733272837475 13.665677042677999,86.96227497584186 13.223586420994252,89.5223226128146 12.892018455080688,92.36680470767897 12.726234471658245,95.28238216380123 12.007837211946025,100.04682603030233 11.897314556641504,101.89570254262071 11.56574659049511,103.67346201249165 11.234178624348715,106.51786409755005 11.234178624348715,107.65562042867532 10.90261065796949,109.00670273019932 10.847349330084398,110.42889070673846 10.957871985854581,110.5 11.399962607305497,110.3577814035234 14.384074302623048,108.4378264140687 16.926095376489684,107.015632809198 21.01543362578377,105.23788514919579 23.17062540561892,104.81122477614554 26.09947577328421,104.38456404133467 36.10177608556114,103.95790294458857 41.351602216484025,103.53124148584902 44.61202055029571,103.38902091950877 47.20930295181461,103.53124148584902 58.75892043928616,102.53569667541888 69.86644730577245,100.18904754146934 74.06630821013823,99.19349611736834 88.76582137634978,96.27794132760027 89.1526506699156,96.06460738700116 89.1526506699156,95.56682784028817 88.71056004846469,93.6468164032558 88.60003739316016,93.43348134669941 88.15794677147642,93.29125792550622 73.12686563935131,96.56238644121913 63.511394620873034,98.55349773302441 59.36679504415952,99.76238288677996 56.21689936541952,99.97571525961393 53.23278767010197,99.97571525961393 46.76721233013086,99.33571787021356 44.50149789499119,99.40682873135665 43.61731665185653,99.54905042372411 39.5832397302147,100.68682251503924 35.16233351477422,101.3268181856256 27.536270293407142,101.54014989489224 24.717942581046373,101.82459203322651 20.29703636560589,103.1045796656399 16.539266082458198,104.52678432653192 16.152436788892373,104.52678432653192 16.04191413335502,104.31345388357295 15.434039528714493,101.3979287656257 15.102471562568098,100.18904754146934 15.102471562568098,98.9090524915373 15.489300856599584,95.78016199200647 15.489300856599584,94.78460184304276 17.25766334286891,80.84655288700014 17.47870865324512,79.42428128037136 17.589231308549643,76.93529629299883 18.197105913655832,73.37958209123462 18.307628568727523,72.09951882599853 18.63919653510675,69.75272771320306 18.970764501253143,66.4814248647308 19.799684416502714,61.14773329690797 21.236478936625645,49.057823030569125 21.6233082304243,48.63111500639934 23.391670716693625,47.70657971233595 26.375782412011176,46.639806107617915 30.520381988724694,44.64848932548193 31.57034721504897,44.43513348832494 34.7202428933233,43.15499656565953 36.82017334573902,42.08821330778301 41.68317018263042,40.1679977424792 48.59083614428528,37.180981181387324 54.945888828719035,34.62066715344554 62.62721337773837,31.34913581906585 62.958781343884766,31.064653827808797 62.848258688813075,30.56680995604256 62.29564541182481,29.64224145829212 61.7982934624888,29.5 58.04052317957394,31.13577434059698 46.490905691636726,35.82970595738152 50.41445995797403,34.05170671083033 53.23278767010197,32.913783894793596" stroke="#4DD2FF" stroke-linecap="round" stroke-linejoin="round" stroke-width="0.5"><title>2025-12-15 6.30km</title><desc>16745142745</desc></polyline></svg>