<?xml version="1.0" encoding="utf-8" ?>
<svg baseProfile="full" height="130mm" version="1.1" viewBox="0,0,100,130" width="100mm" xmlns="http://www.w3.org/2000/svg" xmlns:ev="http://www.w3.org/2001/xml-events" xmlns:xlink="http://www.w3.org/1999/xlink"><defs /><rect fill="#222222" height="130" width="100" x="0" y="0" /><text fill="#FFFFFF" style="font-size:6px; font-family:Arial; font-weight:bold;color:#0ed45e;" x="5" y="10">6 月收官跑</text><text fill="#FFFFFF" style="font-size:4px; font-family:Arial" x="5" y="121">Runner</text><text fill="#FFFFFF" style="font-size:6px; font-family:Arial" x="2" y="128">蓝皮书</text><text fill="#FFFFFF" style="font-size:4px; font-family:Arial" x="25" y="121">WORKOUTS INFO</text><text fill="#FFFFFF" style="font-size:3px; font-family:Arial" x="25" y="125">Type: Run</text><text fill="#FFFFFF" style="font-size:3px; font-family:Arial" x="22" y="129">Date: 2025-06-30</text><text fill="#FFFFFF" style="font-size:3px; font-family:Arial" x="47" y="125">Distance: 6.03 km</text><text fill="#FFFFFF" style="font-size:3px; font-family:Arial" x="47" y="129">Duration: 46:18min</text><text fill="#FFFFFF" style="font-size:3px; font-family:Arial" x="75" y="125">Pace: 7:40/km</text><text fill="#FFFFFF" style="font-size:3px; font-family:Arial" x="75" y="129">Elevation: 9m</text><polyline fill="none" points="42.40323216840625,59.96765962365316 42.78307056054473,63.76074675115524 42.97298975614831,67.06438969419105 42.59315136447549,67.67617403558688 41.73851498356089,69.51152445899788 40.97883820021525,70.61273283872288 39.74436342762783,72.44807701464742 35.47118152305484,77.831730741309 34.52158554363996,80.27883496630238 32.33751479256898,82.35886810027296 33.8568683587946,81.50238447583979 35.75606031669304,80.27883496630238 36.420777501538396,80.89060993806925 36.23085830593482,82.84828693245072 36.135898707900196,83.70476922072703 36.32581790396944,86.88598170503974 36.420777501538396,89.08835270744748 36.70565629564226,91.65777843876276 36.32581790396944,93.37072467512917 36.23085830593482,97.89778050041059 36.135898707900196,99.73306663602125 36.135898707900196,101.20129273354542 36.800615893211216,102.30246066715335 36.32581790396944,104.1377374336007 36.32581790396944,108.052981487941 36.04093911033124,110.37764923932264 36.895575491245836,109.88824602239765 36.990535088814795,108.90943875652738 36.61069669760764,108.2976836511516 37.1804542853497,104.8718470473541 37.275413882452995,103.5259789453703 37.560292676091194,102.18010874418542 37.370373480487615,99.6107143482077 37.560292676091194,98.02013303077547 37.275413882452995,96.06249046098674 38.225009861867875,95.32837335235672 37.845171469729394,93.73778414010303 37.940131068229675,92.51425198209472 37.75021187169477,90.06718245986849 37.465333078522235,88.35422966466285 37.465333078522235,85.17302259418648 37.655252274591476,83.94947828986915 37.560292676091194,81.74709416960832 37.845171469729394,80.52354500704678 38.98468664474785,78.93292850151192 40.40908061340451,77.09759812016273 41.45363618992269,75.38461957551772 43.44778774539009,72.5704331540619 44.39738372480497,71.46922727342462 45.821777692530304,69.38916788547067 46.961292867548764,67.9208876513294 48.10080804210156,66.33024791104253 49.4302424127236,64.61724798806245 49.4302424127236,63.026602156984154 50.75967678334564,62.04774172621546 51.32943437015638,60.94652241456788 52.37398994760588,60.33473330014385 53.6084647201933,59.35586981562665 55.792535471729934,58.009930710250046 55.98245466733351,57.27578122279374 57.31188903748989,57.27578122279374 58.26148501690477,56.54163111024536 59.68587898556143,55.31804620125331 61.30019214935601,54.09445955674164 62.344747725874186,53.36030673701316 63.104424509219825,52.8708711770596 64.33889928180724,52.01435827871319 65.28849526075646,51.769640151178464 67.47256601182744,50.42368921148591 69.84655595943332,49.32245506218169 70.51127314474434,48.58829818171216 69.65663676336408,47.487061689724214 66.99776802258566,48.8330172112328 65.57337405439466,49.81189263542183 64.24393968377262,50.178970633016434 60.44555576844141,52.5037943245261 59.40100019145757,53.605024413380306 57.88164662476629,54.706253095762804 56.077414265368134,55.562763321970124 54.842939492780715,56.052197355020326 52.08911115350202,58.009930710250046 51.51935356622562,58.74407957342919 49.24032321712002,60.0900175331044 48.0058484445326,61.3135956741753 46.77137367147952,63.883104122651275 45.441939301323146,63.026602156984154 44.77722211647779,59.722943752480205 45.062100909650326,58.13228889758466 44.77722211647779,55.68512185610598 44.20746452873573,53.48266558389878 44.11250493070111,52.748512243735604 44.39738372480497,49.444814481714275 44.87218171404675,47.85414067679085 45.441939301323146,45.52930445532547 46.201616084203124,44.79514434718294 46.106656486634165,44.305703927529976 46.77137367147952,41.98085814435035 47.24617166118696,40.390170577389654 47.81592924846336,38.55475820181891 47.62601005285978,36.719341921794694 47.81592924846336,36.841703128418885 48.57560603134334,36.964064318162855 49.7151212063618,38.92184098949656 50.0,40.390170577389654 52.37398994760588,40.14544915291481 55.98245466733351,40.02308841474587 57.40684863552451,39.04420188412769 58.26148501690477,38.06531424255809 59.21108099538833,37.82059215859044 60.25563657190651,37.20878664503107 59.21108099538833,35.61809027940035 57.40684863552451,35.251006085949484 54.937899090349674,33.04849764687242 53.323585926089436,32.31432691740338 51.61431316426024,30.968345624103677 49.62016160832718,29.86708664044272 48.76552522787824,30.11181098065572 47.151212063618004,29.5 46.391535280272365,29.86708664044272 45.062100909650326,33.90502937469864 44.39738372480497,35.251006085949484 44.49234332237393,36.964064318162855 43.82762613706291,39.04420188412769 43.73266653949395,39.65600609598914 44.39738372480497,40.51253126375377 43.25786854978651,43.93862343102228 42.68811096251011,46.263463938841596 41.83347458159551,47.609421369212214 41.73851498356089,48.8330172112328 41.54859578795731,49.93425198533805 42.02339377719909,52.626153292891104 41.64355538552627,53.48266558389878 41.54859578795731,54.46153573243646 42.87803015857935,57.15342291392153 43.16290895175189,59.4782278118073 43.63770694145933,63.393674532242585 43.73266653949395,67.30910348292673 42.87803015857935,69.38916788547067 37.370373480487615,76.85288710781606 35.85101991472766,78.81057326390874 35.85101991472766,79.78941467660479 36.420777501538396,81.25767471297877 36.895575491245836,89.57776772254147 36.990535088814795,93.73778414010303 36.70565629564226,101.5683488677605 36.70565629564226,103.40362719551194 36.800615893211216,104.62714391201735 36.61069669760764,108.17533257813193 36.70565629564226,109.64354431029642 37.1804542853497,109.15414067712845 37.370373480487615,105.72830747324042 37.1804542853497,103.03657184238546 37.085494686849415,100.58953216299415 37.085494686849415,100.10012339457171 36.990535088814795,99.121305024717 37.085494686849415,96.30719602515455 37.275413882452995,94.71660861757118 37.1804542853497,93.86013726046076 37.275413882452995,92.26954534172546 37.1804542853497,90.18953610071912 36.990535088814795,88.23187576350756 36.895575491245836,86.51891932444414 36.70565629564226,82.23651334893657 36.800615893211216,81.50238447583979 38.794767449144274,77.58701993670547 44.77722211647779,69.87859407503856 46.486494878306985,67.55381720216246 48.48064643377438,64.12781881383853 49.4302424127236,62.53717208042508 50.66471718531102,60.94652241456788 51.23447477305308,60.45709115761565 53.513505121693015,58.13228889758466 55.222777883987874,57.39813951391261 59.68587898556143,54.583894422859885 64.148980085738,51.40256283042254 65.0036164666526,51.40256283042254 67.37760641425848,49.689533268043306 68.8969599804841,48.34357908263337 69.94151555700228,47.9765003042412 69.56167716579512,46.99762279778952 67.85240440350026,48.8330172112328 66.23809123924002,49.689533268043306 64.62377807497978,50.54604847438168 61.964909334201366,52.38143533933908 61.20523255132139,53.115588992019184 56.17237386293709,56.17455581977265 54.842939492780715,57.27578122279374 53.70342431822792,57.88757250586059 52.08911115350202,58.988795722369105 51.51935356622562,59.4782278118073 49.81008080439642,61.06888018513564 46.961292867548764,64.25017613364616 45.157060507684946,63.14895963249728 44.587302919942886,55.44040477013914 44.20746452873573,53.115588992019184 44.11250493070111,51.28020368894795 44.39738372480497,49.81189263542183 44.87218171404675,47.609421369212214 45.441939301323146,45.406944480666425 45.346979703288525,44.55042417231016 45.536898899357766,42.715020647621714 45.821777692530304,40.75725258409511 46.296575682237744,39.28892362077022 46.486494878306985,37.94295320927631 47.24617166118696,36.22989692079136 48.2907272381708,36.719341921794694 49.7151212063618,36.964064318162855 50.75967678334564,36.59698069765 51.1395151745528,34.883921736618504 51.42439396865666,33.66030611039605 50.0,31.82487941737054 48.95544442301616,33.04849764687242 48.95544442301616,34.272114140563644 48.48064643377438,35.862812987936195 48.57560603134334,37.453508902632166 50.18991919606924,39.65600609598914 51.04455557651818,40.26780987391248 52.08911115350202,39.28892362077022 54.273181905038655,39.65600609598914 55.792535471729934,38.92184098949656 56.45725265657529,37.82059215859044 57.88164662476629,37.57587000512285 58.64132340811193,37.33114778227173 60.16067697480321,36.719341921794694 59.59091938706115,35.862812987936195 57.50180823309347,35.49572889902629 54.178222307469696,33.29322108445922 48.57560603134334,30.60125945258187 47.056252465583384,29.86708664044272 46.106656486634165,30.60125945258187 45.821777692530304,32.55905056325719 44.96714131208137,37.08642549009528 44.302424126304686,38.67711914842948 43.92258573509753,41.61377665848704 43.06794935418293,45.52930445532547 42.21331297280267,49.689533268043306 42.21331297280267,53.115588992019184 42.21331297280267,54.46153573243646 42.97298975614831,57.15342291392153 43.16290895175189,60.94652241456788 43.44778774539009,65.22903406515252 43.44778774539009,68.77738475828664 39.17460584035143,74.52812902769074 37.465333078522235,76.85288710781606 35.47118152305484,80.15647991973674 29.488726855721325,86.39656516315881 31.103040019981563,84.56125065911328 35.2812623269856,80.27883496630238 36.135898707900196,80.27883496630238 36.04093911033124,81.74709416960832 36.32581790396944,84.07183279813034 36.515737099573016,86.64127346879104 36.800615893211216,90.06718245986849 36.800615893211216,91.90248525183415 36.420777501538396,94.71660861757118 36.895575491245836,102.91422002308536 36.800615893211216,104.99419858830515 36.515737099573016,108.17533257813193 36.515737099573016,109.76589517493267 36.990535088814795,106.70711834810209 36.990535088814795,104.62714391201735 36.800615893211216,102.05775680340594 36.895575491245836,95.81778482778464 37.275413882452995,92.75895855214912 37.085494686849415,89.94482880143914 36.990535088814795,87.25304392917315 36.990535088814795,85.78479409532156 36.895575491245836,80.76825497817481 40.69395940657705,75.26226383511676 42.87803015857935,71.95865228265757 45.346979703288525,68.89974141825223 45.916737290564924,67.43146035127575" stroke="#4DD2FF" stroke-linecap="round" stroke-linejoin="round" stroke-width="0.5"><title>2025-06-30 6.03km</title><desc>14957417933</desc></polyline></svg>