<?xml version="1.0" encoding="utf-8" ?>
<svg baseProfile="full" height="130mm" version="1.1" viewBox="0,0,100,130" width="100mm" xmlns="http://www.w3.org/2000/svg" xmlns:ev="http://www.w3.org/2001/xml-events" xmlns:xlink="http://www.w3.org/1999/xlink"><defs /><rect fill="#222222" height="130" width="100" x="0" y="0" /><text fill="#FFFFFF" style="font-size:6px; font-family:Arial; font-weight:bold;color:#0ed45e;" x="5" y="10">anyway 这也算一次吧</text><text fill="#FFFFFF" style="font-size:4px; font-family:Arial" x="5" y="121">Runner</text><text fill="#FFFFFF" style="font-size:6px; font-family:Arial" x="2" y="128">蓝皮书</text><text fill="#FFFFFF" style="font-size:4px; font-family:Arial" x="25" y="121">WORKOUTS INFO</text><text fill="#FFFFFF" style="font-size:3px; font-family:Arial" x="25" y="125">Type: Hike</text><text fill="#FFFFFF" style="font-size:3px; font-family:Arial" x="22" y="129">Date: 2025-06-16</text><text fill="#FFFFFF" style="font-size:3px; font-family:Arial" x="47" y="125">Distance: 1.17 km</text><text fill="#FFFFFF" style="font-size:3px; font-family:Arial" x="47" y="129">Duration: 13:18min</text><text fill="#FFFFFF" style="font-size:3px; font-family:Arial" x="75" y="125">Pace: 11:23/km</text><text fill="#FFFFFF" style="font-size:3px; font-family:Arial" x="75" y="129">Elevation: 0m</text><polyline fill="none" points="38.71758744539693,29.5 37.00997905852273,31.048811426153407 37.6198391970247,31.358573457575403 37.25392311438918,30.58416822005529 36.64406297635287,30.119524824316613 36.88800703175366,29.964643649873324 36.27814689371735,30.739049309981056 36.0342028378509,33.21714386914391 36.0342028378509,33.526905307895504 36.15617486555129,33.37202459922992 36.40011892095208,33.526905307895504 35.668286754749715,36.62451504508499 35.912230810616165,37.24403597705532 35.058426617179066,39.722116320510395 34.93645458901301,41.270913785439916 35.42434269981459,42.35507075197529 35.302370672579855,43.439226682065055 35.668286754749715,43.90386462060269 35.058426617179066,46.536809342564084 35.42434269981459,46.69168825307861 35.79025878291577,47.001446011592634 35.668286754749715,48.39535487710964 35.912230810616165,50.873410851927474 36.40011892095208,52.57707119337283 36.27814689371735,53.81609528884292 35.54631472798064,55.20999577746261 35.54631472798064,56.44901699607726 36.40011892095208,59.85631836683024 36.15617486555129,61.40508833248168 36.40011892095208,65.74163298413623 35.912230810616165,66.82576655596495 35.54631472798064,68.68427883903496 35.912230810616165,68.83915472531226 35.79025878291577,69.76840959757101 35.668286754749715,69.92328533588443 36.0342028378509,70.23303674848285 35.912230810616165,70.69766370858997 36.27814689371735,70.38791242300067 36.15617486555129,73.1756709490437 35.912230810616165,73.79517191264313 36.27814689371735,74.10492226784118 36.0342028378509,75.18904784473125 35.42434269981459,75.65367277385667 35.058426617179066,76.73779686982743 35.302370672579855,77.35729588835966 35.1803986444138,77.66704527009279 35.54631472798064,78.1316691848915 35.302370672579855,79.06091644265689 35.54631472798064,79.21579091181047 35.54631472798064,79.68041419168003 36.0342028378509,79.9901629392989 36.88800703175366,81.38403125642799 36.88800703175366,82.46814987447578 36.64406297635287,82.77789786050562 37.00997905852273,83.55226745596156 36.766035003587604,84.79125770833343 37.25392311438918,86.64974054915365 36.64406297635287,89.74720518267713 37.00997905852273,91.1410615069326 36.88800703175366,91.29593432636466 37.00997905852273,92.38004346867092 36.64406297635287,93.30927905184217 36.522090948652476,94.08364145539235 36.64406297635287,94.70313099841587 37.13195108668879,95.16774793283548 36.88800703175366,97.02621376910247 37.13195108668879,97.49082975252531 36.766035003587604,98.26518930087332 37.00997905852273,98.42006114753895 36.64406297635287,99.9687784477137 36.88800703175366,100.43339322519023 36.522090948652476,101.67236503469758 37.00997905852273,101.98210777598433 36.88800703175366,102.75646425818559 37.25392311438918,104.46004665759392 37.49786716932431,104.76978863752447 37.25392311438918,107.40259204793256 37.375895142089576,108.95129708154127 41.766888136509806,108.79642667318694 42.62069232901558,108.48668579338118 44.08435666048899,108.64155624364503 44.450272743590176,108.48668579338118 45.669993019197136,108.79642667318694 45.42604896426201,108.79642667318694 46.157881129998714,109.41590817924589 48.10943357273936,109.41590817924589 49.085209792945534,108.79642667318694 51.28070628968999,109.26103783457074 51.89056642819196,109.57077850250062 52.378454538527876,110.19025958550628 52.74437062162906,110.03538934653625 52.866342649329454,110.34512980352156 53.23225873243064,110.03538934653625 53.96409089770168,110.19025958550628 54.330006980802864,109.72564880480058 54.57395103573799,110.03538934653625 54.81789509067312,109.57077850250062 55.30578320194036,109.72564880480058 55.67169928457588,109.41590817924589 55.91564333951101,109.41590817924589 57.379307670518756,109.10616746835876 58.35508389212191,109.57077850250062 58.96494402969256,110.19025958550628 58.84297200292349,110.5 59.696776195429265,109.88051908626221 62.014244720339775,110.03538934653625 62.258188775740564,109.57077850250062 64.33171324525028,110.03538934653625 64.0877691898495,109.72564880480058 65.06354541098699,109.72564880480058 63.23396499687806,106.47336801257916 58.96494402969256,94.54825864429586 59.20888808509335,94.39338626910467 59.574804168660194,95.01287564251106 56.403531450312585,81.84865364793222" stroke="#4DD2FF" stroke-linecap="round" stroke-linejoin="round" stroke-width="0.5"><title>2025-06-16 1.17km</title><desc>14816380081</desc></polyline></svg>