<?xml version="1.0" encoding="utf-8" ?>
<svg baseProfile="full" height="130mm" version="1.1" viewBox="0,0,100,130" width="100mm" xmlns="http://www.w3.org/2000/svg" xmlns:ev="http://www.w3.org/2001/xml-events" xmlns:xlink="http://www.w3.org/1999/xlink"><defs /><rect fill="#FAF9F5" height="130" width="100" x="0" y="0" /><text fill="#5A5A5A" style="font-size:6px; font-family:Arial; font-weight:bold;color:#0ed45e;" x="5" y="10">Morning Walk</text><text fill="#5A5A5A" style="font-size:4px; font-family:Arial" x="5" y="121">Runner</text><text fill="#5A5A5A" style="font-size:6px; font-family:Arial" x="2" y="128">蓝皮书</text><text fill="#5A5A5A" style="font-size:4px; font-family:Arial" x="25" y="121">WORKOUTS INFO</text><text fill="#5A5A5A" style="font-size:3px; font-family:Arial" x="25" y="125">Type: Hike</text><text fill="#5A5A5A" style="font-size:3px; font-family:Arial" x="22" y="129">Date: 2025-10-28</text><text fill="#5A5A5A" style="font-size:3px; font-family:Arial" x="47" y="125">Distance: 4.61 km</text><text fill="#5A5A5A" style="font-size:3px; font-family:Arial" x="47" y="129">Duration: 01:05:43</text><text fill="#5A5A5A" style="font-size:3px; font-family:Arial" x="75" y="125">Pace: 14:14/km</text><text fill="#5A5A5A" style="font-size:3px; font-family:Arial" x="75" y="129">Elevation: 0m</text><polyline fill="none" points="14.49079320114106,58.48460164171411 16.154390934621915,62.39739232737338 17.301699716597795,65.5718990759342 17.8179886683356,66.67928061058046 18.104815863771364,67.71283459075494 18.621104815742,68.89403663447592 18.506373937707394,69.11551172012696 18.27691218117252,69.26316172519 18.449008498340845,69.92758623085683 18.621104815742,70.29671059094835 19.36685552401468,70.81348425662145 20.57152974489145,73.69264246115927 22.636685552308336,78.71267520653782 23.152974504046142,80.33679311530432 23.95609065121971,82.03472916438477 24.644475920358673,84.02795139484806 27.51274787541479,90.67197054997087 28.086402266053483,92.44369471480604 28.832152974326164,93.92012692708522 30.438385269138962,97.98029398790095 30.610481586074457,98.27557763352524 31.126770538045093,99.75199335790239 31.470963172381744,100.04727600200567 33.13456090632826,99.67817267088685 33.47875354089774,99.97345535672503 34.39660056633875,102.11424983473262 35.658640226582065,106.10053340956802 35.88810198288411,107.13400936929975 36.23229461745359,108.09366378642153 36.461756373755634,108.3889417136088 38.58427762030624,108.09366378642153 50.28682719543576,105.50997479987564 60.72733711032197,103.59065470652422 63.8250708214473,102.85245279269293 66.29178470233455,102.48335144412704 68.93059490062296,101.74514796462609 70.53682719520293,101.5975071437424 71.16784702520818,101.37604583392385 73.3477337108925,101.00694344186923 73.80665722372942,100.78548188129207 74.95396600523964,100.564020227117 77.13385269092396,99.8996347010252 79.14164305943996,99.75199335790239 84.13243626058102,98.64468195597874 86.88597733713686,98.20175673783524 90.5,97.09444204875035 90.5,96.94679991301382 89.9837110482622,95.83948256267468 89.29532577912323,94.6583414679626 88.83640226582065,93.32955454301555 88.37747875321656,93.55101926543284 87.05807365430519,93.62484081881121 86.7712464586366,93.55101926543284 86.88597733713686,92.66515981283737 86.88597733713686,89.1955291540944 86.82861189800315,88.60495142679429 86.88597733713686,86.61174666660372 86.71388101973571,85.43058470002143 86.42705382406712,84.76617991994135 85.22237960319035,83.5111908063991 84.82082152948715,83.28972182626603 83.21458923514001,83.14207578735659 81.37889518402517,83.65883674100041 78.79745042487048,85.20911653409712 77.99433427746408,86.02116601745365 77.7648725209292,86.46410156687489 77.47804532572627,87.20232664805371 77.36331444745883,88.67877367942128 77.53541076485999,92.29605126386741 77.87960339919664,93.77248389378656 78.74008498550393,94.87980562681332 80.40368271945044,95.69184007204603 80.46104815858416,95.83948256267468 80.40368271945044,95.91330379241845 80.51841359771788,95.76566132262815 80.86260623205453,95.76566132262815 83.09985835687257,96.06094622059027 84.01770538231358,95.91330379241845 85.10764872515574,95.47037625772646 85.79603399406187,94.87980562681332 86.82861189800315,93.47719770186814 87.00070821517147,92.3698729944881 87.00070821517147,90.96725832810625 87.00070821517147,87.34997153887525 86.88597733713686,85.947343389038 86.65651558060199,85.28293926647166 85.96813031146303,84.17559718334815 84.8781869688537,83.28972182626603 84.82082152948715,81.37032006372465 84.47662889491767,80.04149932583096 84.30453257774934,79.74620536935981 81.26416430599056,80.04149932583096 78.74008498550393,78.4912041912321 78.16643059486523,78.34355679556029 77.13385269092396,78.4173804987222 75.92917847004719,79.15561695536599 75.24079320114106,79.89385236852104 74.83923512720503,80.55826334777521 74.38031161460094,82.18237551639322 73.63456090632826,82.92060665047029 73.11827195435762,82.99442970659584 71.68413597717881,82.47766809526365 70.8236543906387,82.55149121390423 70.07790368259884,82.77296050731093 68.29957507061772,83.95412848482374 67.89801699691452,83.80648263392504 67.78328611887991,83.43736782332417 67.78328611887991,82.99442970659584 67.4390934840776,82.62531432224205 67.20963172800839,82.47766809526365 65.94759206753224,83.28972182626603 64.39872521231882,84.32324293011334 59.58002832857892,87.12850418675225 59.350566572044045,87.20232664805371 58.89164305943996,87.05468171526445 57.97379603376612,87.34997153887525 57.62960339942947,87.34997153887525 56.88385269115679,85.79969810158946 56.59702549572103,84.91382549959235 56.13810198288411,84.101774294395 55.39235127461143,81.96090597257717 53.269830028060824,76.9409044542117 52.524079320020974,75.0953035277198 51.95042492891662,73.91411551169585 51.37677053804509,72.2161530572921 49.88526912173256,68.82021158491261 47.877478753449395,63.726257966132835 47.992209631484,62.692696095095016 47.1890934840776,60.6255662154872 45.75495750689879,57.967815774376504 45.52549575059675,57.229549362149555 45.181303116027266,57.00806923501659 44.32082152971998,54.79326279624365 43.86189801711589,53.98116474808194 41.62464589206502,48.51792686787667 41.16572237946093,47.26285063184332 41.16572237946093,47.1151944057201 41.28045325772837,46.74605365784373 41.22308781859465,46.45074087171815 39.55949008488096,42.316344326303806 39.38739376747981,42.021029034862295 39.043201132910326,42.021029034862295 38.871104815742,41.79954245639965 38.41218130290508,40.54445007123286 35.42917847004719,33.45681291836081 35.14235127461143,33.23532270709984 34.68342776177451,33.30915278807515 34.56869688350707,32.7923420026782 34.05240793176927,31.6110582863912 33.82294617546722,31.6110582863912 31.70042492891662,32.34936092240969 27.39801699691452,34.195112944289576 15.695467422017828,38.846379100577906 12.884560906328261,40.32296286633937 11.622521246317774,40.76593718182994 10.819405099144205,41.13508215761976 10.303116147173569,41.13508215761976 9.5,40.618279118440114" stroke="#4DD2FF" stroke-linecap="round" stroke-linejoin="round" stroke-width="0.5"><title>2025-10-28 4.61km</title><desc>16276926125</desc></polyline></svg>