<?xml version="1.0" encoding="utf-8" ?>
<svg baseProfile="full" height="130mm" version="1.1" viewBox="0,0,100,130" width="100mm" xmlns="http://www.w3.org/2000/svg" xmlns:ev="http://www.w3.org/2001/xml-events" xmlns:xlink="http://www.w3.org/1999/xlink"><defs /><rect fill="#FAF9F5" height="130" width="100" x="0" y="0" /><text fill="#5A5A5A" style="font-size:6px; font-family:Arial; font-weight:bold;color:#0ed45e;" x="5" y="10">晨间行走Walk</text><text fill="#5A5A5A" style="font-size:4px; font-family:Arial" x="5" y="121">Runner</text><text fill="#5A5A5A" style="font-size:6px; font-family:Arial" x="2" y="128">蓝皮书</text><text fill="#5A5A5A" style="font-size:4px; font-family:Arial" x="25" y="121">WORKOUTS INFO</text><text fill="#5A5A5A" style="font-size:3px; font-family:Arial" x="25" y="125">Type: Hike</text><text fill="#5A5A5A" style="font-size:3px; font-family:Arial" x="22" y="129">Date: 2025-10-14</text><text fill="#5A5A5A" style="font-size:3px; font-family:Arial" x="47" y="125">Distance: 4.56 km</text><text fill="#5A5A5A" style="font-size:3px; font-family:Arial" x="47" y="129">Duration: 01:06:09</text><text fill="#5A5A5A" style="font-size:3px; font-family:Arial" x="75" y="125">Pace: 14:30/km</text><text fill="#5A5A5A" style="font-size:3px; font-family:Arial" x="75" y="129">Elevation: 3m</text><polyline fill="none" points="63.39076070091687,34.43474501388846 64.39359300001524,37.16781504446408 64.68854367616586,38.078835296677426 66.98915895097889,43.31717175018275 67.166129356483,44.30409898381913 67.57906030328013,45.36694166867528 68.64088273770176,47.34078678715741 69.64371503703296,49.99787452729652 70.8825078769587,52.199451551481616 71.35442895884626,53.33819474594202 71.70836977032013,54.85651524888817 71.64937963546254,55.387926410650834 71.88534017605707,56.526662843709346 72.35726125794463,57.058072352432646 72.94716261071153,58.576382337429095 73.24211328686215,59.031874495209195 73.83201463916339,61.23341448022984 75.8376792378258,64.64957934548147 76.07363977865316,65.48463856254239 76.25061018462293,66.31969648099039 76.25061018462293,66.92701051506447 76.84051153692417,68.06572247785516 77.07647207798436,68.67303453735076 77.60738329496235,69.50808749755379 77.96132410643622,70.19131168077001 78.19728464772925,71.10227590659633 78.84617613535374,72.46871934720548 79.3180972172413,73.7592460711603 80.6158801924903,76.34029021416791 80.85184073378332,77.55489492975175 81.08780127461068,78.23810887540458 81.67770262714475,79.14905945037026 81.79568289755844,79.90818374906667 82.20861384435557,80.66730697470484 82.3855842500925,81.5023412835435 83.91932776663452,84.38699526863638 84.0373080370482,86.13296252134023 83.97831790172495,86.74025414820062 84.56821925425902,87.04389970388729 85.27610087720677,88.33439140126575 85.57105155335739,89.39714694069698 85.92499236483127,89.92852392187342 86.04297263524495,90.83945466612931 87.39974574605003,94.78680336952675 87.7536865575239,96.22909661970334 88.16661750385538,96.98819677456049 88.22560763941146,97.21592661191244 88.16661750385538,97.59547612571623 88.57954845088534,98.65821333799977 88.75651885662228,98.27866457524942 88.63853858597577,98.35457434918499 88.52055831556208,99.1136714995373 88.28459777450189,99.64503886632156 87.87166682817042,99.87276757700602 87.39974574605003,99.56912927469239 86.86883452860638,99.49321967246942 86.16095290565863,99.72094844729872 84.9221600657329,99.79685801762389 83.80134749598801,100.10049619094934 82.97548560239375,99.87276757700602 81.02881113928743,100.25231521332171 79.9669887048658,100.17640570737422 77.66637343051843,100.55595312925288 76.95849180733785,100.93550028273603 76.07363977865316,101.23913781234296 74.18595545110293,101.46686584717827 72.1213007173501,101.99823088559788 68.93583341408521,103.28868664725451 66.93016881565563,103.74414088140475 64.62955354107544,104.04777682345593 61.857017184374854,105.0345924483263 60.500244073802605,105.26231887319591 58.19962879898958,105.33822766016237 55.427092442521825,106.32504091388546 53.89334892597981,106.17322360823164 52.71354622137733,106.24913226632634 51.82869419245981,106.02140625962056 49.764039458939806,106.85640114551643 48.17130580707453,106.70458399003837 45.10381877445616,106.93230970721925 44.33694701618515,107.23594384622993 43.15714431134984,107.3877608513576 41.80037120054476,106.93230970721925 40.44359808997251,106.93230970721925 39.55874606128782,107.16003532765899 38.437933491542935,106.85640114551643 36.668229434173554,107.23594384622993 36.078328081639484,107.23594384622993 35.37044645869173,107.00821825797902 34.01367334811948,107.00821825797902 32.774880508193746,107.23594384622993 31.65406793844886,107.16003532765899 29.766383610665798,107.53957781364443 27.406778200762346,107.61548627866432 26.46293603652157,107.84321160946274 24.752222114475444,107.76730317657348 23.04150819266215,107.84321160946274 21.861705487361178,107.6913947329158 20.91786332335323,107.84321160946274 19.856040889164433,107.61548627866432 19.4431099423673,107.76730317657348 18.499267778592184,107.76730317657348 18.08633683179505,107.84321160946274 16.434613044839352,108.67820366262458 15.844711692538112,108.8300202600658 14.900869528530166,109.43728622113122 13.66207668860443,109.89273524092278 12.482273983303457,110.5 12.246313442476094,110.5 11.479441684205085,108.981836814899 11.243481143377721,108.22275361279026 11.361461413558573,107.91912003175821 12.423283848213032,107.61548627866432 13.072175335837528,107.31185235403245 13.780056959018111,107.31185235403245 15.254810340004042,106.85640114551643 17.49643547949381,105.94549756945344 18.67623818409629,105.94549756945344 19.62008034810424,105.6418627006351 21.09483372909017,105.41413643630221 21.920695622917265,105.41413643630221 22.628577245632187,105.6418627006351 23.395449004136026,105.6418627006351 24.3982813032344,105.26231887319591 25.342123467009515,105.18641007557744 25.8730346839875,105.33822766016237 27.111827524378896,105.26231887319591 27.701728876912966,105.33822766016237 29.353452663635835,105.18641007557744 30.47426523314789,104.95868361828616 31.65406793844886,105.33822766016237 32.36194956116378,105.11050126707414 32.951850913930684,105.26231887319591 33.60074240155518,105.26231887319591 33.8956930777058,104.95868361828616 34.19064375408925,104.42732150905067 35.07549578254111,104.19959472963819 35.84236754104495,103.82004988315748 36.31428862293251,103.89595887402538 37.78904200391844,103.44050476833945 39.44076579087414,102.5295953983441 39.794706602348015,102.45368621434318 41.62340079480782,102.5295953983441 42.50825282372534,102.37777701969026 43.68805552856065,102.45368621434318 46.342611614614725,103.06095938524231 46.932512967381626,103.13686848327052 48.3482762130443,102.75732288561994 48.70221702451818,102.5295953983441 49.174138106638566,102.07414013374364 49.58706905320287,101.39095651294338 49.646059188526124,100.55595312925288 49.469088782789186,99.1136714995373 49.469088782789186,98.05093518854119 49.764039458939806,97.51956624450395 49.58706905320287,97.29183653602377 49.70504932361655,97.06410673091887 50.58990135253407,96.38091673649615 51.53374351654202,96.00136636401294 52.35960540967062,95.39408521022415 54.01132919662632,94.40725187037606 57.13780636480078,93.79996891372139 57.90467812283896,93.95178971724818 58.37659920472652,94.17952084203716 58.730540016433224,94.10361047793413 60.02832299191505,94.55907250207383 60.73620461462997,95.5459055628744 60.97216515569016,95.69772587303305 61.26711583184078,95.62181572336704 62.26994813117199,94.55907250207383 63.09581002453342,94.17952084203716 63.56773110665381,93.79996891372139 64.51157327042893,93.26859576348215 65.5144055695273,93.0408642521943 66.39925759844482,92.88904319133144 67.5200701681897,93.11677476664772 68.28694192622788,93.42041671735933 69.52573476638645,93.26859576348215 69.17179395491257,93.34450624574674 69.17179395491257,93.0408642521943 69.28977422555909,92.88904319133144 69.23078409023583,93.34450624574674 69.4667446310632,93.42041671735933 70.82351774163544,92.96495372720528 71.76735990564339,92.96495372720528 72.29827112308703,93.0408642521943 73.59605409833603,92.7372220872785 74.95282720890827,92.66131151915761 75.66070883208886,92.35766913974658 76.19162004929967,92.28175851784181 76.48657072545029,91.97811592370272 76.42758059012704,90.30807858641492 76.48657072545029,88.7139471922419 78.6692057296168,87.95483534154482 80.08496897527948,87.87892409745837 82.68053492624313,87.1198110661935 83.62437709001824,87.19572241744027 84.15528830722906,86.9679883311619 83.86033763107844,85.82931645051576 83.86033763107844,84.91837720724288 83.74235736089759,84.38699526863638 83.034475737717,83.09649408538826 82.91649546730332,82.6410223391722 82.3855842500925,81.8059898011852 82.20861384435557,81.04686818516348 81.79568289755844,80.28774549614172 80.85184073378332,77.47898221557261 80.37991965189576,76.79576730454573 80.02597884018905,75.50524787820177 79.3180972172413,74.36655169137521 79.08213667618111,73.3796797094983 79.08213667618111,72.92419972154312 78.5512254589703,71.93732508900575 78.31526491814293,70.87453499494586 77.96132410643622,70.4190528820036 77.54839316010475,69.58400133863324 77.31243261881173,68.74894849641714 76.72253126651049,68.293464580609 76.54556086030789,68.06572247785516 76.42758059012704,67.23066727479454 76.0146496433299,66.92701051506447 76.30960031971335,66.47152505401755 76.30960031971335,66.09195354121039 75.36575815570541,64.34592112631071 75.07080747955479,63.131286532909144 74.48090612725355,62.448053366621025 73.83201463916339,60.702009103493765 73.5370639632456,58.880043818906415 72.88817247538827,57.58948133554077 72.29827112308703,56.90624111780198 71.76735990564339,55.84342127369018 71.53139936481602,54.93243116152007 70.29260652442463,51.66803723410703 70.11563611892052,50.75704003794817 69.82068544253707,49.84604129631771 69.4667446310632,49.23870794317918 69.34876436041668,48.63137390324846 68.64088273770176,47.0371187797864 68.22795179090463,45.74652783171041 67.63805043860339,44.98735523712821 67.46108003263362,44.607768537069205 67.22511949180625,44.380016388429794 66.98915895097889,43.46900682739215 66.63521813927218,42.70983101229649 66.45824773376808,41.95065412402619 65.98632665164769,41.41922966350103 65.57339570508339,40.73596886981977 65.2784450284671,39.59719894872978 65.2784450284671,38.686181272612885 64.92450421745889,38.1547535812133 64.74753381125629,37.47148863383336 64.0986423236318,36.18087469378952 63.98066205345094,35.49760723445797 63.68571137706749,35.193932528898586 62.97782975388691,33.90331311459886 62.741869213292375,32.764528702013195 62.741869213292375,32.081256894918624 61.97499745502137,31.246145728160627 61.73903691372834,30.259194492478855 61.03115529101342,29.5 61.090145426103845,29.575919497467112 61.090145426103845,29.651838984224014" stroke="#4DD2FF" stroke-linecap="round" stroke-linejoin="round" stroke-width="0.5"><title>2025-10-14 4.56km</title><desc>16132866457</desc></polyline></svg>