<?xml version="1.0" encoding="utf-8" ?>
<svg baseProfile="full" height="130mm" version="1.1" viewBox="0,0,100,130" width="100mm" xmlns="http://www.w3.org/2000/svg" xmlns:ev="http://www.w3.org/2001/xml-events" xmlns:xlink="http://www.w3.org/1999/xlink"><defs /><rect fill="#FAF9F5" height="130" width="100" x="0" y="0" /><text fill="#5A5A5A" style="font-size:6px; font-family:Arial; font-weight:bold;color:#0ed45e;" x="5" y="10">惠水玩</text><text fill="#5A5A5A" style="font-size:4px; font-family:Arial" x="5" y="121">Runner</text><text fill="#5A5A5A" style="font-size:6px; font-family:Arial" x="2" y="128">蓝皮书</text><text fill="#5A5A5A" style="font-size:4px; font-family:Arial" x="25" y="121">WORKOUTS INFO</text><text fill="#5A5A5A" style="font-size:3px; font-family:Arial" x="25" y="125">Type: Hike</text><text fill="#5A5A5A" style="font-size:3px; font-family:Arial" x="22" y="129">Date: 2025-11-19</text><text fill="#5A5A5A" style="font-size:3px; font-family:Arial" x="47" y="125">Distance: 3.31 km</text><text fill="#5A5A5A" style="font-size:3px; font-family:Arial" x="47" y="129">Duration: 28:11min</text><text fill="#5A5A5A" style="font-size:3px; font-family:Arial" x="75" y="125">Pace: 8:31/km</text><text fill="#5A5A5A" style="font-size:3px; font-family:Arial" x="75" y="129">Elevation: 6m</text><polyline fill="none" points="18.98793370788917,39.480611158302054 22.786540870787576,39.093769264931325 24.567137978505343,39.093769264931325 26.46644155983813,38.62955862021772 29.19669045857154,38.55219013983151 30.2650487232022,37.54639886831865 31.095994040137157,36.076392808230594 30.977287566056475,35.68954843078973 30.32440195977688,35.07059683953412 30.146342249354348,34.606382671918254 30.027635775273666,34.219537221768405 30.146342249354348,33.677953117352445 30.62116814451292,33.13636845955625 31.63017317233607,32.20793633052381 32.57982496311888,31.975828044174705 33.47012351709418,32.20793633052381 34.77589472918771,33.21373773016967 35.31007386138663,33.3684762379271 36.022312704706565,33.21373773016967 36.79390478460118,32.74952193675563 37.62485010130331,32.362675131706055 38.39644218166359,32.362675131706055 39.168034261558205,32.67215259827208 39.82091986760497,33.21373773016967 40.41445223707706,34.606382671918254 40.82992489519529,35.14796582807321 42.07634287071414,36.076392808230594 43.500820556655526,36.540605688642245 44.09435292612761,36.85008071619086 44.92529824306257,38.24271610548021 45.57818384910934,38.93903242825763 46.11236298154108,39.557979503064416 47.536840667482466,40.486398760054726 48.901965117082,40.641135144920554 50.504502513678744,40.02218933484983 51.39480106765404,39.94482105766656 53.41281112306751,40.56376695813378 54.659229098353535,40.56376695813378 55.43082117824815,40.25429409823846 55.9650003106799,39.635347836709116 56.26176649518311,38.86166399315698 56.677239153767005,38.1653475688654 56.795945627614856,37.46903022984043 56.914652101229876,35.84428621572442 55.9650003106799,33.91006065852707 55.727587362751365,32.981629884277936 55.727587362751365,31.975828044174705 55.90564707363956,31.356872117205057 56.26176649518311,30.73791546735447 57.38947799662128,29.88684889418073 58.22042331378907,29.57736980135087 59.11072186776437,29.5 59.882313947658986,29.654739591525868 61.36614487064071,30.27369750593789 63.74027434759773,31.04739388258895 66.05505058751442,31.43424164748285 68.78529948601499,31.356872117205057 69.55689156590961,31.74371965613682 69.9723642244935,32.28530573664466 70.09107069834135,32.67215259827208 70.03171746153384,34.91585882898653 70.26913040899672,36.772711976314895 70.09107069834135,38.70692708902061 69.79430451360531,39.24850605602842 69.20077214436606,39.557979503064416 65.63957792893052,40.4090305507998 63.68092111055739,41.1827121359529 62.849975793622434,41.33744831738295 62.13773695076816,41.33744831738295 61.0693786861375,41.10534402815392 58.16107007698156,39.94482105766656 56.2024132583756,39.7127161588287 56.08370678452775,39.635347836709116 56.08370678452775,39.480611158302054 56.2024132583756,39.790084469655994 56.617885916726664,39.94482105766656 57.745597418164834,39.94482105766656 61.24743839702569,41.26008023234317 62.37514989823103,41.569552505156025 63.26544845220633,41.414816391363274 66.17375706112944,40.09955760074081 66.58922971971333,40.02218933484983 66.76728943060152,40.176925855106674 67.36082180007361,41.33744831738295 68.07306064292789,41.87902459705947 68.42918006447144,42.26586445828434 68.84465272305533,42.96217549685389 69.20077214436606,43.116911159071606 69.9723642244935,43.27164677606197 72.28714046417736,43.116911159071606 74.48321023047902,43.27164677606197 75.72962820599787,43.116911159071606 77.39151883963495,43.27164677606197 79.64694184297696,43.58111787436064 80.7746533441823,43.65848562086467 81.01206629211083,43.89058879209915 80.95271305507049,45.205838177818805 80.7746533441823,46.67581892356975 81.01206629211083,51.00837004376808 80.89335981826298,52.01413577585481 80.83400658145547,54.644590977346525 80.89335981826298,56.11454555246746 80.7746533441823,59.82809685176471 80.83400658145547,62.226418241800275 80.7746533441823,64.31526996765751 80.5372403964866,65.32101045612944 80.83400658145547,66.86829978972673 80.83400658145547,67.95139963639667 80.65594687056728,79.5559020008659 80.83400658145547,82.18622056016466 80.95271305507049,87.29209580796305 80.65594687056728,103.69245338486508 80.83400658145547,109.03019619686529 80.7746533441823,109.88113573758164 80.59659363352694,110.19056795898359 80.24047421198338,110.42264200682985 79.35017565847374,110.5 77.15410589193925,110.42264200682985 75.96704115369357,110.11320992058609 72.10908075375482,110.11320992058609 68.07306064292789,110.42264200682985 64.74927937518805,110.03585187072167 58.99201539368369,110.34528400225099 58.33912978763692,110.26792598632164 57.923657129053026,110.11320992058609 57.15206504915841,110.03585187072167 54.54052262427285,110.26792598632164 53.11604493833147,110.26792598632164 49.614203959703445,109.88113573758164 46.70589535101317,110.03585187072167 46.527835639892146,109.72641955886502 46.05300974426791,109.64906145265559" stroke="#4DD2FF" stroke-linecap="round" stroke-linejoin="round" stroke-width="0.5"><title>2025-11-19 3.31km</title><desc>16500623818</desc></polyline></svg>