<?xml version="1.0" encoding="utf-8" ?>
<svg baseProfile="full" height="130mm" version="1.1" viewBox="0,0,100,130" width="100mm" xmlns="http://www.w3.org/2000/svg" xmlns:ev="http://www.w3.org/2001/xml-events" xmlns:xlink="http://www.w3.org/1999/xlink"><defs /><rect fill="#222222" height="130" width="100" x="0" y="0" /><text fill="#FFFFFF" style="font-size:6px; font-family:Arial; font-weight:bold;color:#0ed45e;" x="5" y="10">星期一的飞天马</text><text fill="#FFFFFF" style="font-size:4px; font-family:Arial" x="5" y="121">Runner</text><text fill="#FFFFFF" style="font-size:6px; font-family:Arial" x="2" y="128">蓝皮书</text><text fill="#FFFFFF" style="font-size:4px; font-family:Arial" x="25" y="121">WORKOUTS INFO</text><text fill="#FFFFFF" style="font-size:3px; font-family:Arial" x="25" y="125">Type: Run</text><text fill="#FFFFFF" style="font-size:3px; font-family:Arial" x="22" y="129">Date: 2025-06-09</text><text fill="#FFFFFF" style="font-size:3px; font-family:Arial" x="47" y="125">Distance: 5.03 km</text><text fill="#FFFFFF" style="font-size:3px; font-family:Arial" x="47" y="129">Duration: 34:50min</text><text fill="#FFFFFF" style="font-size:3px; font-family:Arial" x="75" y="125">Pace: 6:55/km</text><text fill="#FFFFFF" style="font-size:3px; font-family:Arial" x="75" y="129">Elevation: 8m</text><polyline fill="none" points="43.09456583764404,54.41444372409023 43.57080267649144,56.50084242149023 43.57080267649144,58.096320383716375 43.95179214794189,60.67362472496461 43.57080267649144,61.16453896689927 43.761297411751,62.637280022958294 43.66605004435405,65.95093823433854 43.95179214794189,67.54639877390582 43.856544779613614,68.03730911778985 40.618134276010096,72.70094349124702 39.379918495658785,73.5600312925526 37.855960610788316,75.52365734992782 34.80804484244436,80.9236060337862 30.14092382322997,85.83262105222093 30.712408029474318,85.58717096253531 32.61735538439825,83.50084239052376 33.47458169423044,82.88721538282698 35.665271152276546,83.99174368334934 36.617744830437005,84.97354543412803 36.90348693355918,85.58717096253531 36.99873430142179,86.07807107217377 36.712992197833955,86.69169581745518 36.90348693355918,87.1825953006628 36.80823956569657,88.53256744297687 37.09398166881874,91.60067811718909 36.712992197833955,96.141461952182 37.189229036681354,98.4732065552962 36.99873430142179,100.92766777123325 36.80823956569657,101.41855917911744 36.90348693355918,102.76850911503425 36.52249746257439,103.75028956361348 36.617744830437005,104.85479123773985 36.42725009471178,106.3274579430581 36.52249746257439,107.06379035621649 36.23675535898656,107.55467828328256 36.617744830437005,109.02734039450297 36.712992197833955,110.5 37.189229036681354,110.37727846205235 37.09398166881874,108.65917510166764 37.189229036681354,107.06379035621649 36.99873430142179,106.57290215010289 37.09398166881874,105.95929150143638 36.99873430142179,104.73206889891298 37.37972377240658,102.03217304730788 37.189229036681354,100.55949903244618 37.37972377240658,98.3504833119805 37.284476404543966,97.00052648450946 37.57021850766614,94.91422542766668 37.37972377240658,92.09157481545117 37.47497114026919,89.75981301773572 37.37972377240658,87.30532012757612 37.47497114026919,86.81442071456695 36.99873430142179,83.13266623800155 37.189229036681354,81.90541126503376 37.09398166881874,81.04633174848277 37.47497114026919,79.69634792796569 38.14170271437615,78.34636200132081 39.57041323091835,76.87364767974941 40.71338164387271,75.15547780354973 41.38011321797967,74.66457149811322 41.570607953704894,74.05093822430354 42.04684479255229,73.5600312925526 42.6183289992623,72.70094349124702 45.95198687072843,68.77367411059095 46.142481605987996,67.91458155785222 46.71396581269801,67.1782158340211 48.333171064499766,65.70548250636784 48.61891316762194,65.09184287965763 49.19039737433195,64.23274667159421 48.99990263860673,63.74183417012682 49.09515000646934,63.3736496110796 49.76188158104196,61.90090980834793 51.571581568568945,60.91908188094385 54.429002600722015,58.34177827113308 57.00068153021857,56.74630076094763 58.238897311035544,55.64173768443288 60.04859729902819,55.02809092210373 61.096318343654275,53.92352565238252 63.38225517002866,52.696229255059734 64.62047095084563,51.83712074125651 65.66819199640304,50.85528139513917 66.8111604093574,50.60982138453983 67.85888145444915,49.75071079953341 68.52561302855611,48.891599361319095 70.24006564868614,47.78702625905862 69.9543235450983,47.05064340744866 69.00184986833483,46.80518231791211 68.23987092543393,47.05064340744866 67.85888145444915,47.41883491142653 67.47789198346436,48.523408484004904 67.00165514508262,49.25979008234572 65.57294462854043,50.73255139886169 63.76324464101344,51.46893111692043 63.191760434769094,51.959850581071805 61.85829728608951,52.573499519668985 61.667802550364286,52.941688673978206 60.23909203428775,53.678066512104124 59.09612362086773,54.659902655519545 58.42939204676077,54.78263209486613 54.905239439569414,56.991759030672256 53.857518394012004,58.096320383716375 52.14306577434763,58.709964970941655 49.476139477454126,61.04181043274002 49.2856447417289,61.778181378380395 47.38069738680497,64.23274667159421 46.90446054795757,64.47820281836903 46.33297634171322,64.35547475365456 45.570997399743646,63.61910600127885 45.1900079282932,62.514551697531715 44.999513193033636,61.28726748412009 45.28525529615581,60.182710203924216 45.666244766674936,59.937252839212306 45.666244766674936,59.691795404825825 44.61852372158319,57.60540440102341 44.428028986323625,55.02809092210373 44.14228688320145,53.432607302616816 44.23753425106406,52.45076976675773 43.95179214794189,50.60982138453983 44.428028986323625,49.137059859291185 44.428028986323625,48.2779478119337 44.999513193033636,46.68245174677577 45.1900079282932,45.20968353713397 46.142481605987996,42.141408383322414 46.42822370957583,40.6686324448674 46.42822370957583,39.68678042688407 47.285450018942356,36.004825436742976 47.856934225186706,36.004825436742976 48.333171064499766,35.63662907615071 48.904655270744115,36.12755752232624 48.52366579975933,38.21400031080702 48.809407903347164,38.82765899732476 49.85712894843891,39.564048846194055 51.47633420024067,39.80951198999537 52.714549981057644,39.68678042688407 53.09553945204243,39.31858563271817 53.47652892349288,39.073122349742334 54.23850786546245,39.564048846194055 55.19098154315725,39.564048846194055 56.048207852523774,39.19585400004871 56.33394995611161,38.704927294689696 56.33394995611161,38.45946383749833 58.810381517745554,36.12755752232624 58.905628885142505,36.373021640931256 59.28661835612729,36.25028959021438 60.23909203428775,36.863949669059366 60.23909203428775,36.25028959021438 59.57236045971513,35.26843255897984 59.09612362086773,35.14570035150973 59.00087625347078,35.39116474875482 58.42939204676077,35.5138969210675 56.90543416235596,34.9002358847647 54.14326049759984,32.93651764426613 53.09553945204243,32.445587387657724 50.33336578728631,30.481863576744217 49.57138684531674,30.35913069063099 47.761686858255416,29.5 46.99970791582018,29.5 46.52347107697278,29.86819897184614 45.95198687072843,33.18198266800027 45.47575003141537,34.409306742367335 45.1900079282932,36.61848568962887 44.904265825171024,37.23214550776174 44.904265825171024,37.723073048575316 44.428028986323625,38.58219557494158 44.7137710894458,39.31858563271817 44.7137710894458,39.93224353570258 44.428028986323625,40.6686324448674 44.14228688320145,42.87779541237978 43.761297411751,43.8596438098466 42.808823734521866,47.41883491142653 42.90407110238448,47.78702625905862 42.42783426307142,49.50525047554402 42.33258689567447,50.73255139886169 43.09456583764404,56.00992553331889 43.09456583764404,57.60540440102341 43.2850605729036,58.096320383716375 43.761297411751,63.12819315143861 43.761297411751,68.03730911778985 43.189813205972314,69.01912896911381 41.38011321797967,71.35094665212091 39.951402702368796,72.82367037225049 39.379918495658785,74.17366491368739 37.95120797911659,75.40093085163971 36.80823956569657,76.99637396872276 34.90329221077263,80.80088030145271 32.61735538439825,83.50084239052376 29.75993435177952,86.32352102262666 30.14092382322997,86.44624597148504 30.80765539687127,86.07807107217377 32.14111854555085,84.23719422583235 33.18883959110826,83.0099408190581 33.66507642995566,82.88721538282698 34.23656063666567,82.88721538282698 35.665271152276546,83.74629307194846 36.617744830437005,84.85082027642056 36.90348693355918,85.34172080358258 37.189229036681354,89.02346588182263 37.284476404543966,93.6869871620438 37.09398166881874,96.264185509237 36.90348693355918,96.87780303199543 36.99873430142179,99.33226877270499 36.712992197833955,101.90945030818693 36.90348693355918,104.48662416951265 36.712992197833955,106.69562422775198 36.90348693355918,108.65917510166764 36.712992197833955,110.13183533359552 37.47497114026919,110.25455690640956 37.37972377240658,110.00911374331918 37.37972377240658,109.64094886818202 37.09398166881874,108.90461864770623 37.37972377240658,106.45018005557358 37.189229036681354,102.76850911503425 37.284476404543966,99.94588412030134 37.47497114026919,98.718652990181 37.189229036681354,96.63235607539536 37.189229036681354,95.52784390741726 37.57021850766614,93.56426323979395 37.284476404543966,91.84612650092458 37.37972377240658,90.4961595274508 37.189229036681354,88.28711811924586 37.284476404543966,87.55076973029645 37.47497114026919,87.30532012757612 37.37972377240658,86.93714559386717 37.09398166881874,86.56897090334678 36.80823956569657,84.35991947061848 37.189229036681354,81.41450878843898 38.04645534604788,78.714540189947 41.094371114857495,75.15547780354973 41.28486585011706,74.78729810041841 41.76110268943012,74.4191182407667 41.95159742468968,73.92821151745738 45.76149213500321,69.01912896911381 46.618718444835395,67.30094349815045 47.285450018942356,66.68730500288075 48.04742896091193,65.33729878248414 48.809407903347164,64.60093086533016 49.85712894843891,62.26909499417525 51.85732367122546,60.4281674993108 52.33356051007286,59.691795404825825 55.571971014142036,57.85086242703255 56.42919732397422,56.991759030672256 59.953349930699915,54.78263209486613 60.14384466642514,54.41444372409023 61.2868130793795,53.92352565238252 62.04879202134907,53.30987767135957 63.66799727315083,52.573499519668985 64.14423411199823,51.959850581071805 66.14442883478478,50.85528139513917 66.90640777675435,50.118901154841296 69.38283933885396,48.155217449588235 70.24006564868614,47.66429582744604 70.04957091296092,46.92791287135333 69.57333407411352,46.68245174677577 69.09709723526612,46.92791287135333 68.04937619017437,47.78702625905862 67.47789198346436,48.646138793672435 64.71571831870824,50.73255139886169 61.572555182967335,52.696229255059734 60.620081504806876,53.06441835704027 59.8581025628373,53.5553369159461 58.810381517745554,54.78263209486613 56.619692059233785,55.887196267955005 54.429002600722015,57.48267536167987 52.61930261366069,58.464507188415155 50.523860523011535,60.30543886026135 48.99990263860673,62.14636661618715 48.333171064499766,62.637280022958294 47.47594475466758,63.987290455785114 46.52347107697278,64.60093086533016 46.047234238125384,64.47820281836903 45.38050266401842,63.49637781456113 45.1900079282932,60.796353311801795 44.80901845730841,59.937252839212306 44.904265825171024,59.20088032720378 44.7137710894458,57.48267536167987 44.428028986323625,56.74630076094763 44.428028986323625,54.659902655519545 44.23753425106406,54.0462551965029 44.332781618926674,53.06441835704027 44.04703951533884,52.328039996209554 43.95179214794189,51.10074133618036 43.761297411751,50.73255139886169 43.856544779613614,50.24163123843027 43.66605004435405,49.75071079953341 43.761297411751,49.137059859291185 44.52327635418624,47.9097566732089 45.1900079282932,44.96422192530008 45.95198687072843,43.49145079142181 46.90446054795757,37.84580489026848 46.90446054795757,37.10941357869888 47.09495528321713,36.74121768824989 47.47594475466758,36.12755752232624 48.237923696637154,36.49575367406942 48.71416053548455,36.49575367406942 49.66663421317935,37.23214550776174 50.2381184194237,37.10941357869888 51.000097361858934,36.74121768824989 51.38108683237806,35.88209333381383 51.76207630382851,34.04110970289912 51.28583946451545,32.32285478018457 50.33336578728631,31.340993292280473 49.76188158104196,31.218260528112296 49.380892110057175,31.463726039452013 48.99990263860673,32.445587387657724 49.19039737433195,34.28657441341784 48.809407903347164,35.022968126810156 48.71416053548455,35.63662907615071 48.71416053548455,36.004825436742976 48.99990263860673,36.863949669059366 50.04762368416414,37.47760931268567 51.28583946451545,37.23214550776174 51.571581568568945,36.61848568962887 51.28583946451545,35.88209333381383 51.38108683237806,35.39116474875482 51.85732367122546,34.28657441341784 51.47633420024067,32.93651764426613 50.61910789087415,31.5864587687538 50.33336578728631,31.340993292280473 49.476139477454126,31.709191480651498 49.2856447417289,32.32285478018457 49.476139477454126,33.55018007289618 49.19039737433195,34.53203905414557 48.809407903347164,35.022968126810156 48.71416053548455,35.5138969210675 48.904655270744115,37.60034118941985 48.71416053548455,38.58219557494158 48.904655270744115,39.19585400004871 49.19039737433195,39.44131724833278 51.095344729255885,40.17770657502115 55.381476278882474,39.31858563271817 56.33394995611161,38.82765899732476 57.00068153021857,37.47760931268567 58.334144678898156,36.98668163269758 59.28661835612729,36.98668163269758 59.57236045971513,36.61848568962887 60.71532887266949,36.74121768824989 61.2868130793795,36.49575367406942 61.096318343654275,36.004825436742976 60.23909203428775,34.9002358847647 59.191370989196,33.918377321679145 56.33394995611161,34.16384206677321 55.47672364581376,33.672912506735884 54.905239439569414,33.672912506735884 53.286034187767655,32.445587387657724 52.14306577434763,31.218260528112296 51.571581568568945,31.095527746190783 51.1905920971185,30.72732929670019 50.80960262613371,30.972794947272632 50.14287105202675,30.481863576744217 49.380892110057175,30.35913069063099 49.476139477454126,30.113664865668397 48.99990263860673,30.113664865668397 50.90484999353066,30.72732929670019 52.809797348920256,32.077389512676746 51.76207630382851,31.709191480651498 51.38108683237806,31.218260528112296" stroke="#4DD2FF" stroke-linecap="round" stroke-linejoin="round" stroke-width="0.5"><title>2025-06-09 5.03km</title><desc>14738839951</desc></polyline></svg>