<?xml version="1.0" encoding="utf-8" ?>
<svg baseProfile="full" height="130mm" version="1.1" viewBox="0,0,100,130" width="100mm" xmlns="http://www.w3.org/2000/svg" xmlns:ev="http://www.w3.org/2001/xml-events" xmlns:xlink="http://www.w3.org/1999/xlink"><defs /><rect fill="#FAF9F5" height="130" width="100" x="0" y="0" /><text fill="#5A5A5A" style="font-size:6px; font-family:Arial; font-weight:bold;color:#0ed45e;" x="5" y="10">晨间漫步</text><text fill="#5A5A5A" style="font-size:4px; font-family:Arial" x="5" y="121">Runner</text><text fill="#5A5A5A" style="font-size:6px; font-family:Arial" x="2" y="128">蓝皮书</text><text fill="#5A5A5A" style="font-size:4px; font-family:Arial" x="25" y="121">WORKOUTS INFO</text><text fill="#5A5A5A" style="font-size:3px; font-family:Arial" x="25" y="125">Type: Hike</text><text fill="#5A5A5A" style="font-size:3px; font-family:Arial" x="22" y="129">Date: 2025-12-04</text><text fill="#5A5A5A" style="font-size:3px; font-family:Arial" x="47" y="125">Distance: 2.63 km</text><text fill="#5A5A5A" style="font-size:3px; font-family:Arial" x="47" y="129">Duration: 29:29min</text><text fill="#5A5A5A" style="font-size:3px; font-family:Arial" x="75" y="125">Pace: 11:13/km</text><text fill="#5A5A5A" style="font-size:3px; font-family:Arial" x="75" y="129">Elevation: 14m</text><polyline fill="none" points="11.034090909175575,69.25044795544818 13.565340909175575,69.7502223206684 14.25568181835115,70.24999632127583 15.482954545412213,72.24908868089551 17.09375,73.4485412981594 18.78125,74.24817521014484 20.622159091290087,74.24817521014484 22.309659090824425,73.9483126027626 23.383522727526724,73.4485412981594 24.99431818211451,72.24908868089551 25.684659091290087,71.24954323028214 27.065340909175575,70.15004155033967 28.676136363763362,69.05053810705431 29.9801136367023,68.45080821297597 33.20170454541221,68.15094306872925 34.42897727293894,68.25089813151862 37.11363636376336,68.95058316114591 39.2613636367023,68.55076323158573 40.028409090824425,68.65071823599283 41.02556818211451,68.95058316114591 41.71590909129009,69.35040285758441 43.25,71.3494978408562 43.78693181835115,72.74886086001061 43.940340909175575,74.7479459316819 43.940340909175575,75.74748628097586 44.17045454541221,76.44716365850763 44.784090909175575,77.34674780827481 46.24147727293894,78.44623794412473 47.39204545458779,78.8460521014058 48.61931818211451,78.94600560417166 55.82954545505345,79.04595909273485 59.20454545458779,78.44623794412473 60.43181818211451,78.94600560417166 61.045454545877874,78.74609858373879 62.272727272473276,77.5466552368598 63.039772727526724,77.44670152995968 63.576704545877874,77.64660892944084 63.96022727293894,78.0464235531399 64.57386363623664,79.54572631587507 65.26420454541221,80.14544650277821 67.10511363623664,80.64521292428253 69.02272727247328,81.5447915646946 71.3238636367023,82.04455696576042 82.13920454587787,82.04455696576042 84.05681818211451,82.2444630243117 86.12784090917557,82.04455696576042 87.04829545458779,81.44483844080241 87.50852272752672,80.74516616464825 87.58522727293894,80.24539981607813 87.35511363623664,79.14591256639687 87.58522727293894,78.34628436813364 88.27556818164885,77.64660892944084 89.42613636376336,77.14684032165678 89.8863636367023,76.84697898186278 90.34659090917557,76.04734810144873 90.5,75.24771628848976 90.42329545458779,74.54803768685088 90.11647727293894,73.84835837088758 88.58238636376336,72.54895203217166 88.1988636367023,71.24954323028214 87.20170454541221,69.85017714987043 86.74147727293894,69.55031261802651 86.05113636422902,69.25044795544818 85.51420454541221,67.65116753743496 85.05397727293894,66.95148118131328 84.44034090917557,66.65161538159009 83.44318181881681,66.35174945037579 82.36931818211451,66.45170477544889 80.98863636376336,66.7515706626582 80.29829545458779,66.65161538159009 77.92045454541221,64.8524178272346 77.07670454541221,64.45259550737683 75.92613636376336,64.35263989074156 74.23863636376336,65.05232890002662 72.62784090917557,66.7515706626582 71.78409090917557,67.05143641895847 70.09659090870991,67.45125722285593 68.86931818211451,68.15094306872925 68.40909090917557,68.85062820051098 68.33238636422902,70.05008676490979 68.17897727293894,70.649815259967 67.71875,71.3494978408562 67.25852272706106,71.74931613792432 66.18465909129009,71.94922519871034 64.26704545458779,71.54940701829037 63.039772727526724,71.84927067562239 62.34943181835115,72.24908868089551 61.27556818164885,73.54849558818387 59.28125,74.8479000320076 58.74431818164885,75.6475323116756 58.821022727526724,76.94693277624901 59.5113636367023,78.44623794412473 60.04829545458779,78.94600560417166 58.97443181788549,78.64614505181089 55.752840909175575,79.04595909273485 49.846590909175575,79.04595909273485 47.39204545458779,78.8460521014058 46.625,78.54619150533108 45.627840909175575,77.84651627053972 44.63068181835115,76.74702517298283 44.01704545458779,75.5475783275906 43.86363636376336,75.34767031605588 42.78977272706106,75.24771628848976 42.55965909129009,75.04780818964355 42.17613636376336,74.04826681950362 41.63920454541221,73.9483126027626 40.79545454541221,74.04826681950362 40.33522727293894,74.4480835426948 40.10511363623664,75.04780818964355 39.87500000046566,76.2472559090238 39.721590909175575,76.64707134925993 39.33806818164885,76.74702517298283 38.11079545458779,76.54711751115974 36.73011363623664,75.6475323116756 36.11647727293894,74.94785411813064 34.88920454541221,73.1486783408327 34.50568181835115,71.84927067562239 34.58238636376336,70.34995107812574 36.11647727293894,66.85152592917439 36.11647727293894,66.35174945037579 35.96306818164885,65.55210632609669 35.732954545877874,65.05232890002662 35.34943181835115,64.75246226921445 33.66193181835115,64.45259550737683 33.20170454541221,64.15272861416452 33.27840909129009,63.55299443425611 33.66193181835115,62.853303894691635 35.42613636376336,62.35352450091159 35.34943181835115,61.75378874671878 34.73579545458779,61.15405246784212 34.58238636376336,60.75422799040098 35.502840909175575,59.45479682809673 36.576704545877874,58.85505853756331 36.73011363623664,58.55518919590395 34.73579545458779,57.85549355420517 33.89204545458779,57.75553697574651 31.74431818211451,57.75553697574651 29.1363636367023,58.75510210497305 28.2926136367023,58.95501495618373 26.835227272473276,58.85505853756331 23.767045454587787,58.155363202269655 22.232954545412213,58.455232719366904 21.082386363763362,58.75510210497305 18.704545454587787,60.45435947936494 17.247159090824425,61.15405246784212 17.09375,63.45303868671181 17.247159090824425,64.8524178272346 17.170454545412213,65.35219539952232 16.25,66.15183875674848 14.25568181835115,66.95148118131328 13.872159091290087,67.25134684989462 13.795454545412213,67.75112267304212 14.102272727526724,68.95058316114591 14.025568182114512,69.7502223206684 13.872159091290087,69.85017714987043 12.338068182114512,69.85017714987043 10.803977272938937,69.35040285758441 9.5,70.15004155033967" stroke="#4DD2FF" stroke-linecap="round" stroke-linejoin="round" stroke-width="0.5"><title>2025-12-04 2.63km</title><desc>16643599434</desc></polyline></svg>