<?xml version="1.0" encoding="utf-8" ?>
<svg baseProfile="full" height="130mm" version="1.1" viewBox="0,0,100,130" width="100mm" xmlns="http://www.w3.org/2000/svg" xmlns:ev="http://www.w3.org/2001/xml-events" xmlns:xlink="http://www.w3.org/1999/xlink"><defs /><rect fill="#FAF9F5" height="130" width="100" x="0" y="0" /><text fill="#5A5A5A" style="font-size:6px; font-family:Arial; font-weight:bold;color:#0ed45e;" x="5" y="10">毕业了，老爹来打个卡</text><text fill="#5A5A5A" style="font-size:4px; font-family:Arial" x="5" y="121">Runner</text><text fill="#5A5A5A" style="font-size:6px; font-family:Arial" x="2" y="128">蓝皮书</text><text fill="#5A5A5A" style="font-size:4px; font-family:Arial" x="25" y="121">WORKOUTS INFO</text><text fill="#5A5A5A" style="font-size:3px; font-family:Arial" x="25" y="125">Type: Run</text><text fill="#5A5A5A" style="font-size:3px; font-family:Arial" x="22" y="129">Date: 2025-07-13</text><text fill="#5A5A5A" style="font-size:3px; font-family:Arial" x="47" y="125">Distance: 1.13 km</text><text fill="#5A5A5A" style="font-size:3px; font-family:Arial" x="47" y="129">Duration: 06:36min</text><text fill="#5A5A5A" style="font-size:3px; font-family:Arial" x="75" y="125">Pace: 5:50/km</text><text fill="#5A5A5A" style="font-size:3px; font-family:Arial" x="75" y="129">Elevation: 12m</text><polyline fill="none" points="20.06521739438176,91.93298238422722 24.760869562625885,97.22711196867749 32.97826086729765,100.2523265122436 42.95652173832059,102.52123629674315 54.695652175694704,100.2523265122436 64.08695651963353,100.2523265122436 68.19565217196941,97.22711196867749 75.23913043737411,97.22711196867749 81.6956521756947,92.68928693328053 88.73913043737411,79.83209502603859 88.73913043737411,77.56317559070885 87.56521739065647,72.26902648247778 88.1521739140153,66.97487212112173 86.97826087102294,63.19333007372916 88.1521739140153,55.630237934645265 82.28260869905353,44.28557961154729 78.17391304671764,42.77295667864382 76.41304348036647,39.747709524817765 73.47826087102294,38.23508530575782 70.54347826167941,37.47877303417772 65.26086956635118,39.747709524817765 60.56521739065647,37.47877303417772 50.58695651963353,39.747709524817765 45.304347828030586,38.99139746883884 21.239130433648825,42.77295667864382 18.304347824305296,47.31082419119775 16.54347826167941,54.11761821946129 12.434782605618238,58.655476077925414 10.086956519633532,68.48748819204047 10.673913042992353,75.29425518773496 9.5,80.58840129012242 10.673913042992353,82.85731944069266 15.956521738320589,85.88254213845357 16.54347826167941,92.68928693328053 30.04347826167941,99.49602303793654 37.67391304299235,100.2523265122436 39.43478260934353,98.73971945839003 42.36956521496177,98.73971945839003 44.13043478131294,102.52123629674315 45.89130434766412,103.27753934497014 57.04347826167941,95.71450405195355 59.39130434766412,95.71450405195355 62.91304348036647,96.47080806456506 72.3043478243053,93.44559137383476 81.6956521756947,88.15145803475752 86.39130435138941,82.1010134969838 90.5,73.78164105163887 90.5,60.168094504624605 79.93478260934353,43.52926819957793 75.82608695700765,40.50402147509158 68.19565217196941,37.47877303417772 62.32608695700765,36.72246065502986 43.54347825795412,38.99139746883884 27.695652171969414,43.52926819957793 15.956521738320589,54.87392812920734 13.02173912897706,63.19333007372916 11.260869566351175,64.70594721427187 11.260869566351175,67.73118021059781 11.847826082259417,76.05056209582835 13.02173912897706,78.31948217609897 13.608695648610592,82.1010134969838 14.782608695328236,83.61362527683377 21.826086957007647,92.68928693328053 25.93478260934353,96.47080806456506 30.630434781312943,98.73971945839003 41.782608695328236,101.00862988224253 48.826086953282356,100.2523265122436 61.15217391401529,97.22711196867749 66.43478260934353,97.98341576661915 77.0,92.68928693328053 79.93478260934353,88.9077631207183 84.63043478131294,85.88254213845357 89.32608695700765,76.05056209582835 89.91304347664118,63.94963869918138 88.73913043737411,56.386547630652785 85.21739130467176,50.3360670520924 82.28260869905353,46.55451320577413 72.89130434766412,39.747709524817765 65.26086956635118,37.47877303417772 46.47826087102294,39.747709524817765 32.39130434766412,42.77295667864382 24.760869562625885,45.798202116042376 16.54347826167941,53.36130820168182 12.434782605618238,63.94963869918138 12.434782605618238,70.00010382942855 13.02173912897706,79.83209502603859 15.369565214961767,85.88254213845357 20.652173910290003,92.68928693328053 30.04347826167941,98.73971945839003 35.91304347664118,101.00862988224253 39.43478260934353,101.00862988224253" stroke="#4DD2FF" stroke-linecap="round" stroke-linejoin="round" stroke-width="0.5"><title>2025-07-13 1.13km</title><desc>15096713678</desc></polyline></svg>