<?xml version="1.0" encoding="utf-8" ?>
<svg baseProfile="full" height="130mm" version="1.1" viewBox="0,0,100,130" width="100mm" xmlns="http://www.w3.org/2000/svg" xmlns:ev="http://www.w3.org/2001/xml-events" xmlns:xlink="http://www.w3.org/1999/xlink"><defs /><rect fill="#FAF9F5" height="130" width="100" x="0" y="0" /><text fill="#5A5A5A" style="font-size:6px; font-family:Arial; font-weight:bold;color:#0ed45e;" x="5" y="10">大刀阔斧 饭后消食走</text><text fill="#5A5A5A" style="font-size:4px; font-family:Arial" x="5" y="121">Runner</text><text fill="#5A5A5A" style="font-size:6px; font-family:Arial" x="2" y="128">蓝皮书</text><text fill="#5A5A5A" style="font-size:4px; font-family:Arial" x="25" y="121">WORKOUTS INFO</text><text fill="#5A5A5A" style="font-size:3px; font-family:Arial" x="25" y="125">Type: Run</text><text fill="#5A5A5A" style="font-size:3px; font-family:Arial" x="22" y="129">Date: 2025-12-29</text><text fill="#5A5A5A" style="font-size:3px; font-family:Arial" x="47" y="125">Distance: 5.83 km</text><text fill="#5A5A5A" style="font-size:3px; font-family:Arial" x="47" y="129">Duration: 42:00min</text><text fill="#5A5A5A" style="font-size:3px; font-family:Arial" x="75" y="125">Pace: 7:12/km</text><text fill="#5A5A5A" style="font-size:3px; font-family:Arial" x="75" y="129">Elevation: 12m</text><polyline fill="none" points="49.16134751774371,42.67866808769759 49.980496453819796,42.88252855988685 50.68262411351316,42.780598338868 51.38475177320652,42.98445875113248 51.61879432643764,42.933493659162195 52.00886524817906,42.576737806695746 52.35992907802574,42.42384232915356 52.78900709212758,41.965155492624035 53.6081560284365,41.40453742508544 53.959219858050346,41.200676085281884 54.66134751774371,41.14971073163906 55.67553191492334,40.385229529085336 56.02659574477002,40.283298574911896 56.41666666674428,40.07943657692522 57.00177304958925,39.31495301818359 57.35283687943593,38.70336495951051 58.01595744676888,37.73501499686972 58.32801418425515,37.37825380367576 58.71808510646224,37.37825380367576 59.14716312056407,37.480185610591434 59.26418439717963,37.37825380367576 59.42021276592277,37.02149224394816 59.459219858050346,36.51183223701082 59.18617021269165,36.05313759119599 59.14716312056407,35.44154378771782 58.95212765969336,34.982847728184424 58.87411347520538,34.62608370746602 58.64007092197426,34.26931932012667 58.56205673748627,33.75965527378139 58.79609929071739,32.94419124381966 58.83510638284497,31.873891798284603 58.60106382984668,30.4977876637422 58.67907801410183,29.886184075614437 58.64007092197426,29.376513596012956 58.52304964559153,29.01974381520995 58.28900709212758,28.61200647399528 58.56205673748627,28.408137623715447 58.56205673748627,28.306203153857496 58.48404255323112,28.459104847570416 58.48404255323112,28.713940854067914 58.71808510646224,29.172645194688812 58.79609929071739,29.427480677579297 59.14716312056407,29.682315973594086 59.26418439717963,29.98811808184837 59.42021276592277,30.70165528706275 59.69326241128147,31.771958345692838 59.732269503641874,32.02679192117648 59.42021276592277,32.74032493706909 59.30319148930721,33.504822970193345 59.03014184394851,33.963520982099 58.99113475182094,34.880915188230574 59.18617021269165,35.44154378771782 59.03014184394851,36.104103692952776 59.06914893607609,36.46086619514972 59.342198581434786,37.37825380367576 59.732269503641874,37.684049134666566 60.39539007097483,37.88791253892123 60.86347517743707,37.785980851826025 62.1507092199754,37.938878371351166 62.73581560282037,37.83694669906981 63.24290780141018,37.58211738758837 63.4769503546413,37.6330832648091 63.98404255323112,37.276321966870455 65.81737588648684,36.817628330900334 66.71453900728375,36.25700195305399 67.29964539012872,36.05313759119599 69.60106382984668,35.69637467007851 71.04432624112815,34.3202856835851 71.31737588648684,34.422218388092006 72.09751773066819,36.104103692952776 72.2925531915389,36.307968024746515 72.56560283713043,36.409900145983556 72.99468085099943,36.409900145983556 73.46276595746167,36.51183223701082 74.35992907802574,36.409900145983556 74.75,36.56279827142134 74.63297872338444,36.86859432037454 74.4769503546413,37.07245820344542 72.91666666674428,37.83694669906981 72.13652482279576,37.73501499686972 72.13652482279576,37.327287889056606 71.86347517743707,36.71569632954197 71.78546099294908,36.155069787142565 71.7464539008215,36.104103692952776 71.55141843971796,36.05313759119599 71.23936170223169,36.155069787142565 70.14716312056407,36.71569632954197 69.87411347520538,36.71569632954197 69.36702127661556,36.91956030239817 69.21099290787242,36.91956030239817 68.62588652479462,36.66473031765781 68.31382978730835,36.51183223701082 68.04078014194965,36.20603587376536 67.88475177320652,36.20603587376536 67.29964539012872,36.35893408913398 66.48049645405263,36.409900145983556 66.05141843971796,36.56279827142134 65.31028368789703,36.97052627700032 64.56914893607609,37.07245820344542 63.86702127661556,37.480185610591434 63.28191489377059,37.58211738758837 61.52659574477002,37.531151502771536 61.40957446815446,37.6330832648091 60.47340425546281,38.55046777642565 59.22517730505206,39.00915912340861 57.46985815605149,39.92653999978211 55.67553191492334,41.40453742508544 55.05141843971796,41.7612944819557 54.11524822702631,42.11805117217591 53.37411347520538,42.62770295096561 52.86702127638273,43.29024914524052 51.50177304958925,44.25858361678547 51.3067375884857,44.76823225419503 51.11170212761499,44.92112669945345 49.39539007097483,45.22691538828076 49.04432624112815,45.532703807839425 48.22517730505206,45.78752728496329 47.21099290763959,46.45006745052524 46.70390070928261,46.95971287167049 46.46985815605149,47.571286389778834 46.43085106369108,47.877072744769976 46.50886524817906,48.59057319306885 46.46985815605149,48.89635865058517 46.31382978707552,49.355036331980955 46.274822695180774,50.47624589211773 45.767730496358126,50.9858854044287 45.45567375887185,51.03684931449243 44.7925531915389,50.9349214869726 44.12943262420595,51.08781321707647 43.73936170223169,51.29166875293595 43.03723404253833,52.412872060143854 42.80319148930721,52.56576313992264 42.14007092197426,52.871545097237686 41.98404255323112,53.024435974890366 41.04787234030664,55.266827781073516 40.77482269494794,55.572607359994436 40.61879432620481,55.62357059709029 40.07269503548741,55.674533826473635 38.7074468084611,55.266827781073516 37.81028368789703,54.75719455105718 37.38120567379519,54.349487428640714 36.64007092197426,53.890816343715414 36.5230496453587,53.941779827466235 36.67907801410183,53.941779827466235 36.71808510622941,54.094670233957004 36.171985815512016,54.604304436245 35.54787234030664,54.655267815309344 35.23581560282037,54.55334104964277 34.767730496358126,54.655267815309344 33.94858156028204,54.604304436245 33.36347517743707,54.80815790765337 32.81737588648684,55.16490119480295 32.38829787238501,55.21586449164897 31.80319148930721,55.06297457878827 30.98404255299829,54.70623118695221 30.789007092127576,54.502377655531745 30.671985815512016,53.99274330388289 30.437943262280896,53.788889353570994 30.242907801410183,53.73792584738112 29.852836879435927,53.941779827466235 29.423758865101263,54.45141425402835 28.87765957438387,54.75719455105718 28.604609928792343,55.16490119480295 27.980496453819796,55.470680863567395 27.512411347590387,56.184165710175876 27.044326241128147,56.69379684617161 26.88829787238501,56.69379684617161 26.693262411281466,56.388018254510825 26.65425531915389,55.72549704861012 25.83510638284497,55.72549704861012 25.679078014101833,55.62357059709029 25.562056737486273,55.368754337367136 25.406028368743137,54.55334104964277 25.48404255299829,53.024435974890366 25.25,52.92250873055309" stroke="#4DD2FF" stroke-linecap="round" stroke-linejoin="round" stroke-width="0.5"><title>2025-12-29 2.66km</title><desc>16870440160</desc></polyline><polyline fill="none" points="25.25,85.36222825906589 25.604362415964715,86.6932851097663 25.670805369038135,87.41668180351553 25.892281879205257,88.54517534650222 25.80369127506856,88.97920960492047 25.80369127506856,89.18175859855546 26.6895973153878,93.14588987723982 26.75604026846122,93.14588987723982 27.17684563761577,92.97227995702997 27.619798657717183,92.97227995702997 27.84127516776789,93.14588987723982 28.040604026871733,93.55097909663164 28.23993288585916,93.75352339427627 28.32852348999586,93.75352339427627 28.57214765099343,93.46417433409079 28.68288590607699,93.49310925920145 29.147986577125266,93.84032802963338 29.87885906046722,94.0139371856203 30.454697986599058,94.47689418768277 30.72046979854349,94.53476373649028 31.14127516769804,94.56369850457122 31.384899328812025,94.67943753425789 31.539932885905728,94.88198067279882 31.606375838979147,95.08452360334923 31.73926174500957,95.8657586723275 31.916442953050137,96.32871132687433 31.916442953050137,96.64699064628803 32.160067114047706,96.5891217173048 32.82449664431624,96.84953176394629 33.06812080531381,96.99420386354905 33.178859060280956,97.08100707228004 33.22315436240751,97.19674462459807 33.201006711344235,97.63075984055467 33.22315436240751,97.7175627691613 33.31174496631138,97.8043656594964 34.751342281815596,98.18051107620704 34.950671140803024,98.29624798319128 34.9728187918663,98.41198482215987 34.950671140803024,98.55665577547916 34.773489932878874,98.99066799839784 34.751342281815596,99.45361331681488 34.83993288583588,99.7140195807442 35.10570469801314,99.97442550076812 35.72583892615512,100.14802925649565 37.23187919461634,100.75564119790215 38.47214765101671,101.13178098533535 41.72785234893672,102.31806330772815 43.76543624151964,102.98353563246201 44.69563758384902,103.35967117054679 45.670134228188545,103.64900571158796 46.55604026839137,103.9962066005537 47.951342281885445,104.3434068782226 48.925838926108554,104.69060654458008 49.54597315425053,104.8352728918835 52.58020134223625,105.76113500133215 53.42181208054535,105.96366675832542 54.17483221471775,106.10833217167237 56.34530201344751,106.91845652554184 59.202348993276246,107.75751038368617 60.42046979861334,108.19150235778943 63.43255033553578,109.03055079975456 67.48557046975475,110.2746505394025 68.30503355700057,110.44824522800627 70.3426174496999,111.11369011864008 71.76006711402442,111.48981015061145 73.84194630861748,112.15525152679766 74.75,112.29991239850642 73.81979865778703,112.12631933977536 72.91174496640451,111.77913276394247 71.67147651012056,111.4608778659167 70.36476510053035,110.99796073371544 68.77013422816526,110.53504251502454 67.44127516786102,110.07212320961116 63.72046979854349,109.00161815424508 59.047315436182544,107.52604760693794 55.968791946186684,106.65805977473792 54.949999999953434,106.22406442598731 54.17483221471775,105.9925998494582 52.53590604022611,105.61646933319571 46.64463087241165,103.82260623248294 43.72114093962591,102.78100081485172 43.078859060420655,102.63633296063927 41.30704697978217,102.02872681387817 40.17751677846536,101.56578754082147 38.38355704699643,100.9292442658043 37.80771812074818,100.75564119790215 37.25402684567962,100.52417020287248 35.127852348960005,99.82975558770704 34.79563758394215,99.7140195807442 34.884228187962435,98.84599736361997 35.061409395886585,98.35411641119572 35.03926174493972,98.26731376282987 34.9063758389093,98.151576838849 33.86543624161277,97.89116851169092 33.71040268451907,97.92010278723319 33.666107382508926,97.97797132561391 33.666107382508926,98.09370835145819 33.688255033572204,98.73026077923714 33.688255033572204,99.01960211269034 33.55536912754178,99.22214079349942 33.31174496631138,99.2800089497614 27.79697986575775,97.42821952525992 27.708389261737466,97.42821952525992 27.66409395961091,97.48608820808295 27.66409395961091,97.63075984055467 27.46476510062348,96.90740061659017 27.398322147666477,96.15510420876672 26.911073825438507,93.26162973915052 26.93322147638537,93.17482484904758 26.99966442945879,93.08801992089138 27.42046979861334,92.97227995702997 28.284228187869303,93.03014994750265 28.638590603950433,93.17482484904758 28.948657718137838,93.05908493629249 29.21442953008227,93.08801992089138 29.74597315432038,93.46417433409079 30.631879194639623,93.81139315548353 31.074832214741036,93.75352339427627 31.16342281876132,93.81139315548353 31.362751677748747,94.15861136553576 31.517785234958865,94.30328543926589 31.69496644299943,94.3611550390633 32.18221476499457,94.33222024123825 32.82449664431624,94.39008983259555 33.00167785224039,94.33222024123825 33.13456375838723,94.18754618879757 33.33389261737466,94.21648100775201 33.42248322139494,95.37387028608646 33.488926174584776,95.51854346824985 33.62181208038237,95.51854346824985 33.4667785235215,95.77895492862444 33.267449664417654,96.38658033221145 33.201006711344235,96.64699064628803 33.201006711344235,96.84953176394629 33.267449664417654,96.44444932061015 33.3781879193848,96.0972351354576 33.42248322139494,95.8078895140934 33.5332214764785,95.57641271139437 33.77684563759249,95.43173957169347 33.97617449669633,95.37387028608646 34.28624161076732,95.37387028608646 34.396979865734465,95.2870663258218 34.44127516774461,94.73730702366447 34.419127516797744,93.95606748388673 34.507718120818026,92.45144927935326 34.640604026732035,91.55445988742576 34.507718120818026,90.54172502472647 34.640604026732035,89.96301705361111 35.03926174493972,89.12388747873774 35.061409395886585,88.97920960492047 34.950671140803024,88.71878916455898 34.9728187918663,88.22688294989348 34.950671140803024,88.08220441793674 34.66275167779531,87.59029661516252 34.59630872483831,87.24306683898612 34.57416107377503,86.23030983288481 34.61845637590159,85.68052527983673 34.59630872483831,84.81244128553953 34.707046979805455,83.94435346937098 34.72919463086873,83.45243534381734 34.37483221467119,83.51030812818499 34.109060402726755,83.48137173814757 33.998322147643194,83.42349894528161 33.754697986645624,83.1920076039969 33.488926174584776,82.96051599095517 33.201006711344235,82.96051599095517 33.04597315425053,82.87370656600979 32.38154362409841,82.87370656600979 31.761409395956434,82.72902410615643 31.384899328812025,82.70008760149358 29.790268456330523,82.70008760149358" stroke="#4DD2FF" stroke-linecap="round" stroke-linejoin="round" stroke-width="0.5"><title>2025-12-29 5.83km</title><desc>16869467114</desc></polyline></svg>