<?xml version="1.0" encoding="utf-8" ?>
<svg baseProfile="full" height="130mm" version="1.1" viewBox="0,0,100,130" width="100mm" xmlns="http://www.w3.org/2000/svg" xmlns:ev="http://www.w3.org/2001/xml-events" xmlns:xlink="http://www.w3.org/1999/xlink"><defs /><rect fill="#FAF9F5" height="130" width="100" x="0" y="0" /><text fill="#5A5A5A" style="font-size:6px; font-family:Arial; font-weight:bold;color:#0ed45e;" x="5" y="10">Evening Run</text><text fill="#5A5A5A" style="font-size:4px; font-family:Arial" x="5" y="121">Runner</text><text fill="#5A5A5A" style="font-size:6px; font-family:Arial" x="2" y="128">蓝皮书</text><text fill="#5A5A5A" style="font-size:4px; font-family:Arial" x="25" y="121">WORKOUTS INFO</text><text fill="#5A5A5A" style="font-size:3px; font-family:Arial" x="25" y="125">Type: Run</text><text fill="#5A5A5A" style="font-size:3px; font-family:Arial" x="22" y="129">Date: 2025-08-11</text><text fill="#5A5A5A" style="font-size:3px; font-family:Arial" x="47" y="125">Distance: 5.01 km</text><text fill="#5A5A5A" style="font-size:3px; font-family:Arial" x="47" y="129">Duration: 37:20min</text><text fill="#5A5A5A" style="font-size:3px; font-family:Arial" x="75" y="125">Pace: 7:27/km</text><text fill="#5A5A5A" style="font-size:3px; font-family:Arial" x="75" y="129">Elevation: 54m</text><polyline fill="none" points="12.628755364567041,62.938251831103116 10.542918452993035,66.46914629708044 10.195278970524669,74.41364474501461 11.585836909711361,80.15132592734881 17.495708152651787,84.5649199062027 19.233905578032136,85.00627897400409 22.01502146013081,84.12356078019366 32.444206008687615,84.5649199062027 34.18240343220532,83.24084234563634 35.920600859448314,84.5649199062027 38.7017167378217,83.68220159225166 50.8690987136215,83.68220159225166 52.259656650945544,82.79948303825222 53.99785407632589,83.24084234563634 60.950643775984645,82.3581236700993 68.59871244430542,83.24084234563634 77.98497853986919,82.79948303825222 83.89484978467226,80.15132592734881 86.67596566490829,77.94452667771839 89.10944205895066,71.76548076467589 89.45708154328167,66.9105078340508 86.67596566490829,62.05552761303261 83.19957081414759,59.40735350968316 78.3326180242002,56.75917723658495 75.89914163015783,57.200540100224316 74.16094420477748,56.317814314505085 69.29399141483009,56.75917723658495 67.9034334756434,57.200540100224316 61.645922746509314,56.317814314505085 58.51716738194227,56.75917723658495 56.431330470368266,56.317814314505085 49.82618025690317,57.200540100224316 48.78326180204749,57.641902901930735 45.65450643748045,56.75917723658495 43.56866952776909,57.641902901930735 38.35407725162804,57.641902901930735 35.57296137325466,58.524628326063976 29.663090128451586,57.200540100224316 27.924892703071237,58.08326564356685 24.796137338504195,57.200540100224316 22.362660944461823,58.524628326063976 17.843347638845444,58.524628326063976 13.671673819422722,61.1728031525854 11.585836909711361,64.26233770838007 10.195278970524669,67.79323072708212 9.847639484331012,72.64820233243518 10.195278970524669,76.17908619344234 11.585836909711361,77.50316664692946 12.28111588023603,81.03404520568438 14.36695278994739,83.68220159225166 20.276824032887816,85.44763798033819 41.13519313186407,83.24084234563634 48.08798283338547,83.68220159225166 55.388412015512586,82.3581236700993 58.169527895748615,82.79948303825222 64.77467811107635,81.91676424210891 69.64163090102375,82.3581236700993 72.42274678125978,81.47540475311689 76.24678111448884,82.3581236700993 82.85193132795393,80.59268559608608 85.63304721005261,79.26860640803352 88.41416309028864,75.73772592144087 89.45708154328167,70.88275895663537 89.10944205895066,69.11731461621821 89.45708154328167,66.02778469957411 87.37124463543296,62.496889752103016 84.59012875333428,59.84871601127088 83.54721030034125,58.08326564356685 79.37553648091853,57.641902901930735 75.89914163015783,55.43508828734048 71.03218884021044,56.75917723658495 69.98927038535476,55.876451331656426 68.59871244430542,55.876451331656426 62.34120171517134,57.641902901930735 55.388412015512586,56.317814314505085 44.959227468818426,57.641902901930735 43.56866952776909,58.08326564356685 41.13519313186407,57.200540100224316 34.530042918398976,57.641902901930735 33.13948497734964,56.75917723658495 31.40128755196929,57.200540100224316 30.706008583307266,56.317814314505085 21.319742489606142,57.641902901930735 16.10515021532774,59.40735350968316 14.714592274278402,60.73144083167426 12.28111588023603,63.8209758088924 10.542918452993035,68.67595337959938 10.195278970524669,70.44139796146192 11.585836909711361,77.50316664692946 13.32403433509171,80.59268559608608 16.800429183989763,83.24084234563634 18.886266093701124,84.12356078019366 25.839055793359876,84.5649199062027 31.053648069500923,83.24084234563634 35.57296137325466,84.12356078019366 38.7017167378217,82.3581236700993 44.61158798262477,83.24084234563634 46.34978540614247,84.12356078019366 49.47854077257216,83.24084234563634 51.21673819795251,84.12356078019366 60.60300429165363,81.91676424210891 66.16523605212569,81.91676424210891 69.29399141483009,82.79948303825222 72.77038626559079,82.3581236700993 78.68025751039386,82.79948303825222 83.19957081414759,81.03404520568438 87.71888411976397,77.94452667771839 88.761802572757,74.85500519676134 88.41416309028864,72.20684157893993 89.45708154328167,69.55867579113692 88.41416309028864,63.8209758088924 84.59012875333428,59.84871601127088 78.68025751039386,54.99372518318705 69.98927038535476,55.43508828734048 69.29399141483009,57.200540100224316 66.16523605212569,56.317814314505085 59.90772532299161,56.317814314505085 58.864806866273284,55.43508828734048 56.431330470368266,55.876451331656426 55.7360514998436,57.200540100224316 52.259656650945544,56.75917723658495 45.65450643748045,58.524628326063976 40.78755364753306,58.08326564356685 39.39699570648372,56.75917723658495 34.18240343220532,58.08326564356685 32.09656652249396,57.641902901930735 30.706008583307266,58.08326564356685 26.5343347620219,57.200540100224316 25.143776824697852,57.641902901930735 24.796137338504195,56.75917723658495 19.581545064225793,57.641902901930735 12.976394848898053,62.938251831103116 10.195278970524669,68.23459208430722 10.890557939186692,76.62044640560634 13.671673819422722,81.47540475311689 18.1909871250391,84.12356078019366 42.52575107291341,82.3581236700993 52.259656650945544,82.79948303825222 53.99785407632589,81.91676424210891 57.47424892708659,82.3581236700993 63.38412017002702,81.47540475311689 65.46995708160102,82.3581236700993 74.16094420477748,81.47540475311689 79.72317596524954,81.91676424210891 83.54721030034125,79.70996619784273 85.98068669438362,77.50316664692946 88.06652360409498,73.53092365921475 88.761802572757,67.35186931118369 87.37124463543296,62.938251831103116 84.93776823952794,60.29007845185697 80.41845493577421,56.75917723658495 74.50858369097114,54.99372518318705 72.77038626559079,55.43508828734048 64.77467811107635,55.43508828734048 62.688841201364994,55.876451331656426 60.950643775984645,55.43508828734048 47.04506437666714,57.641902901930735 36.61587982811034,57.200540100224316 32.79184549301863,58.08326564356685 28.272532189264894,57.641902901930735 26.186695277690887,56.317814314505085 19.233905578032136,58.08326564356685 17.843347638845444,59.84871601127088 14.714592274278402,61.61416541249491 10.890557939186692,68.23459208430722 10.542918452993035,75.29636559006758 11.933476394042373,78.38588664773852 14.36695278994739,81.91676424210891 16.800429183989763,83.68220159225166 22.362660944461823,84.5649199062027 25.143776824697852,83.68220159225166 43.56866952776909,82.3581236700993 51.21673819795251,83.68220159225166 63.731759656220675,82.3581236700993 72.07510729506612,83.24084234563634 75.55150214582682,81.91676424210891 78.68025751039386,81.91676424210891 84.93776823952794,79.70996619784273 88.761802572757,76.17908619344234 90.5,68.23459208430722 88.761802572757,63.8209758088924 86.67596566490829,60.73144083167426 82.15665235929191,57.641902901930735 73.81330471858382,54.552362019661814 67.20815450511873,54.99372518318705 65.81759656593204,56.317814314505085 64.07939914055169,56.75917723658495 59.90772532299161,56.317814314505085 47.392703860998154,58.08326564356685 43.9163090121001,57.200540100224316 35.225321888923645,57.641902901930735 22.01502146013081,57.200540100224316 18.1909871250391,58.524628326063976 13.671673819422722,62.938251831103116 10.890557939186692,67.79323072708212 10.542918452993035,74.85500519676134 11.933476394042373,78.38588664773852 13.32403433509171,80.59268559608608 18.1909871250391,83.68220159225166 33.48712446168065,82.3581236700993 35.225321888923645,83.24084234563634 39.74463519267738,82.3581236700993 50.52145922742784,82.79948303825222 55.040772531181574,81.91676424210891 57.126609440892935,82.3581236700993 58.51716738194227,81.03404520568438 66.86051502265036,83.24084234563634 69.98927038535476,82.3581236700993 79.37553648091853,81.91676424210891 85.28540772385895,78.82724655745551 87.71888411976397,76.62044640560634 89.10944205895066,73.53092365921475 89.10944205895066,66.02778469957411 87.0236051492393,61.1728031525854 84.24248926900327,58.08326564356685 75.20386265963316,54.552362019661814 71.7274678107351,55.876451331656426 67.55579399131238,55.876451331656426 66.16523605212569,54.99372518318705 62.34120171517134,56.75917723658495 52.6072961371392,57.641902901930735 48.78326180204749,56.75917723658495 47.04506437666714,57.641902901930735 44.61158798262477,57.641902901930735 40.78755364753306,56.75917723658495 38.35407725162804,57.641902901930735 28.967811159789562,56.75917723658495 27.924892703071237,57.641902901930735 24.796137338504195,57.200540100224316 19.581545064225793,58.9659909484908 15.757510729134083,60.73144083167426 13.32403433509171,63.379613851197064 11.933476394042373,64.26233770838007 9.847639484331012,69.11731461621821 10.195278970524669,74.41364474501461 12.28111588023603,77.94452667771839 16.45278969965875,83.24084234563634 19.929184548556805,84.12356078019366 36.963519314303994,82.79948303825222 41.83047210238874,81.47540475311689 47.392703860998154,82.79948303825222 59.212446350604296,81.91676424210891 62.34120171517134,81.03404520568438 65.46995708160102,82.3581236700993 82.15665235929191,81.47540475311689 85.28540772385895,79.70996619784273 89.10944205895066,74.41364474501461 90.5,70.88275895663537 90.15236051380634,68.67595337959938 90.5,66.9105078340508 86.67596566490829,60.73144083167426 82.85193132795393,57.200540100224316 74.50858369097114,54.99372518318705 71.7274678107351,55.43508828734048 67.55579399131238,54.99372518318705 60.255364805459976,57.200540100224316 51.21673819795251,55.876451331656426 47.392703860998154,57.200540100224316 40.4399141613394,55.876451331656426 36.61587982811034,57.641902901930735 30.358369098976254,56.317814314505085 23.753218883648515,57.200540100224316 22.362660944461823,56.75917723658495 19.581545064225793,57.641902901930735 15.06223176047206,60.73144083167426 10.195278970524669,66.46914629708044 9.5,70.0000369057525 9.847639484331012,72.64820233243518 11.933476394042373,78.82724655745551 16.10515021532774,83.24084234563634 17.843347638845444,84.12356078019366 22.01502146013081,83.68220159225166 23.753218883648515,83.24084234563634 30.706008583307266,83.68220159225166 41.13519313186407,82.79948303825222 51.91201716661453,83.68220159225166 81.11373390443623,81.91676424210891 86.67596566490829,78.82724655745551 88.761802572757,75.73772592144087 90.15236051380634,71.3241198908072 89.80472102947533,65.14506132504903 88.06652360409498,61.61416541249491 85.98068669438362,59.40735350968316 79.02789699472487,55.876451331656426 60.255364805459976,54.99372518318705 58.864806866273284,55.876451331656426 55.388412015512586,56.75917723658495 51.91201716661453,55.876451331656426 48.435622315853834,56.75917723658495 44.61158798262477,55.876451331656426 38.7017167378217,57.200540100224316 33.48712446168065,55.876451331656426 27.924892703071237,56.75917723658495 22.710300428792834,56.75917723658495 18.1909871250391,58.08326564356685 14.36695278994739,62.05552761303261 12.976394848898053,63.379613851197064 10.890557939186692,73.08956302632578 11.585836909711361,76.17908619344234 13.671673819422722,79.70996619784273 19.581545064225793,83.24084234563634 29.663090128451586,82.3581236700993 37.311158798635006,82.79948303825222 39.74463519267738,82.3581236700993 44.61158798262477,83.24084234563634 71.03218884021044,82.3581236700993 74.50858369097114,82.79948303825222 80.41845493577421,82.3581236700993 83.54721030034125,80.59268559608608 86.67596566490829,78.38588664773852 89.45708154328167,73.97228423296474 89.80472102947533,69.11731461621821 89.10944205895066,65.14506132504903 86.67596566490829,60.73144083167426 80.76609442196786,57.200540100224316 77.28969956934452,55.876451331656426 72.07510729506612,57.200540100224316 68.25107295997441,55.43508828734048 66.5128755364567,56.317814314505085 62.688841201364994,55.876451331656426 60.950643775984645,56.75917723658495 58.169527895748615,56.317814314505085 52.259656650945544,57.200540100224316 47.392703860998154,56.75917723658495 43.9163090121001,58.08326564356685 42.52575107291341,56.75917723658495 35.57296137325466,56.75917723658495 34.530042918398976,55.876451331656426 26.186695277690887,55.876451331656426 17.843347638845444,57.200540100224316 15.409871246665716,58.08326564356685 11.933476394042373,62.05552761303261 10.195278970524669,66.9105078340508 9.847639484331012,69.55867579113692 10.195278970524669,71.76548076467589 12.28111588023603,77.50316664692946 14.019313305616379,80.59268559608608 18.886266093701124,83.24084234563634 23.405579397454858,84.12356078019366 32.444206008687615,83.68220159225166 35.920600859448314,84.12356078019366 44.61158798262477,82.79948303825222 53.302575105801225,82.79948303825222 59.56008583679795,82.3581236700993 76.94206008315086,82.79948303825222 81.8090128749609,81.47540475311689 85.28540772385895,79.70996619784273 88.761802572757,74.85500519676134 90.15236051380634,71.3241198908072 89.80472102947533,65.58642304223031 89.45708154328167,63.8209758088924 87.71888411976397,61.1728031525854 84.93776823952794,58.9659909484908 81.46137339062989,57.641902901930735 73.81330471858382,57.200540100224316 66.16523605212569,55.43508828734048 58.169527895748615,56.317814314505085 50.52145922742784,55.876451331656426 42.17811158671975,58.08326564356685 39.049356224015355,56.75917723658495 36.963519314303994,57.200540100224316 35.57296137325466,56.317814314505085 31.40128755196929,56.75917723658495 30.358369098976254,55.876451331656426 28.620171673595905,56.75917723658495 21.667381973937154,56.75917723658495 18.538626609370112,58.524628326063976 14.36695278994739,59.84871601127088 12.628755364567041,61.61416541249491 9.847639484331012,68.23459208430722 9.847639484331012,70.44139796146192 10.890557939186692,71.3241198908072 12.628755364567041,76.17908619344234 15.757510729134083,80.15132592734881 19.929184548556805,80.59268559608608 22.362660944461823,81.47540475311689 24.44849785231054,81.03404520568438" stroke="#4DD2FF" stroke-linecap="round" stroke-linejoin="round" stroke-width="0.5"><title>2025-08-11 5.01km</title><desc>15420383328</desc></polyline></svg>