<?xml version="1.0" encoding="utf-8" ?>
<svg baseProfile="full" height="130mm" version="1.1" viewBox="0,0,100,130" width="100mm" xmlns="http://www.w3.org/2000/svg" xmlns:ev="http://www.w3.org/2001/xml-events" xmlns:xlink="http://www.w3.org/1999/xlink"><defs /><rect fill="#FAF9F5" height="130" width="100" x="0" y="0" /><text fill="#5A5A5A" style="font-size:6px; font-family:Arial; font-weight:bold;color:#0ed45e;" x="5" y="10">节气跑—立冬：新疆天津路</text><text fill="#5A5A5A" style="font-size:4px; font-family:Arial" x="5" y="121">Runner</text><text fill="#5A5A5A" style="font-size:6px; font-family:Arial" x="2" y="128">蓝皮书</text><text fill="#5A5A5A" style="font-size:4px; font-family:Arial" x="25" y="121">WORKOUTS INFO</text><text fill="#5A5A5A" style="font-size:3px; font-family:Arial" x="25" y="125">Type: Run</text><text fill="#5A5A5A" style="font-size:3px; font-family:Arial" x="22" y="129">Date: 2025-11-07</text><text fill="#5A5A5A" style="font-size:3px; font-family:Arial" x="47" y="125">Distance: 3.68 km</text><text fill="#5A5A5A" style="font-size:3px; font-family:Arial" x="47" y="129">Duration: 27:39min</text><text fill="#5A5A5A" style="font-size:3px; font-family:Arial" x="75" y="125">Pace: 7:30/km</text><text fill="#5A5A5A" style="font-size:3px; font-family:Arial" x="75" y="129">Elevation: 9m</text><polyline fill="none" points="66.56472795503214,50.552443728316575 65.34896810515784,50.552443728316575 64.0572232643608,51.18662768183276 63.14540337724611,51.292324945156 59.72607879922725,51.08093040098902 56.3827392118983,49.9182591328281 54.78705440904014,49.17837629298447 53.19136960618198,49.81256163760554 51.67166979378089,50.76383845083183 50.91181988758035,50.975233102042694 49.54409005655907,50.552443728316575 48.480300187598914,49.81256163760554 46.884615384740755,49.9182591328281 44.605065666139126,49.389771478949115 43.16135084419511,49.495469045301434 42.55347091937438,48.861283379548695 41.41369605995715,49.389771478949115 40.50187617260963,49.389771478949115 40.197936210315675,49.28407389484346 39.43808630411513,48.64988801482832 37.84240150079131,48.64988801482832 36.550656660227105,48.22709707159083 35.25891181989573,48.22709707159083 31.231707317056134,47.804305842728354 30.395872420165688,47.06442050519399 29.863977486034855,46.9587225287687 29.332082551671192,46.853024534357246 26.216697936411947,47.592910121253226 22.037523452425376,46.853024534357246 20.593808630481362,46.218836192565504 19.530018761521205,46.00743993604556 15.730769230984151,46.218836192565504 14.818949343403801,46.53593044355512 13.527204502839595,47.592910121253226 13.147279549855739,48.75558570591966 12.843339587096125,53.089175689499825 12.615384615492076,54.674627947912086 12.311444653198123,58.47969699295936 12.235459662275389,61.22778803796973 11.77954971860163,64.08156212983886 11.77954971860163,67.569490584312 11.095684802858159,71.16309352469398 11.095684802858159,72.43141905177617 10.715759849874303,75.70791477523744 10.563789868960157,79.40716354100732 9.72795497183688,85.64299057418248 9.5,88.17958041775273 9.575984990457073,88.49665342574008 9.95590994367376,89.34218066278845 10.6397748591844,90.18770675820997 11.399624765617773,90.71615998854395 12.843339587096125,91.0332317125285 13.907129455823451,90.9275411554845 15.654784240061417,91.24461277277442 17.09849906200543,91.77306511136703 21.27767354575917,92.61858792527346 22.341463414486498,93.14703910442768 23.937148217810318,93.2527292870218 25.988742964342237,93.78117993078195 29.02814258914441,93.99256006395444 31.38367729820311,93.67548983776942 90.5,53.089175689499825 89.96810506563634,52.77208475628868 89.2082551594358,52.666387742734514 85.40900562843308,52.56069071160164 82.59756097570062,52.666387742734514 80.62195121939294,52.13790240808157 78.26641651033424,51.92650814936496 77.20262664160691,51.92650814936496 76.3667917449493,52.13790240808157 74.84709193254821,52.03220528777456 71.95966228889301,51.60941662726691 70.89587242016569,51.08093040098902 69.68011257052422,51.08093040098902 69.30018761730753,50.76383845083183 66.10881801112555,50.44674634037074 65.12101313332096,50.552443728316575 63.905253283446655,51.18662768183276 62.15759849920869,51.39802219043486 59.65009380853735,50.975233102042694 58.206378987059,50.23535151075339 56.61069418396801,50.023956609889865 55.47091932478361,49.495469045301434 54.40712945582345,49.28407389484346 52.27954971860163,50.65814109862549 51.82363977469504,50.76383845083183 50.37992495321669,50.65814109862549 48.63227016897872,50.129654069198295 47.18855534703471,50.129654069198295 46.200750469230115,49.70686412480427 43.921200750628486,49.389771478949115 40.12195121939294,49.81256163760554 37.918386491714045,48.861283379548695 36.24671669793315,48.438492578978185 31.61163227027282,48.121399290976115 28.420262664090842,48.438492578978185 22.64540337724611,47.06442050519399 16.566604127641767,47.17011846421519 15.046904315240681,46.9587225287687 14.059099437203258,47.06442050519399 13.527204502839595,47.48721223359462 13.223264540545642,48.544190305809025 12.995309568475932,52.666387742734514 12.235459662275389,59.32526475249324 12.235459662275389,60.91070122498786 11.855534709291533,62.707524375233334 11.55159474676475,65.98407096753363 11.475609756074846,69.04921193915652 11.095684802858159,70.84601174184354 9.95590994367376,84.69176673452603 9.5,87.33405161113478 9.575984990457073,88.39096244092798 9.803939962293953,89.23648982064333 10.259849906200543,89.87063460616628 10.867729831021279,90.2933974400512 13.451219511916861,91.0332317125285 16.946529080625623,91.0332317125285 19.302063789917156,91.45599376165774 28.420262664090842,91.56168422923656 30.319887429708615,92.09013630030677 31.763602251652628,92.1958266608417 34.65103189507499,91.87875552545302 37.462476547807455,92.51289763575187 39.43808630411513,92.3015170036233 41.26172607881017,91.66737467894563 41.71763602271676,91.66737467894563 46.12476547854021,92.40720732876798 47.796435272321105,92.82996845053276 48.936210131272674,93.3584194513387 50.53189493436366,93.67548983776942 51.59568480285816,93.2527292870218 53.41932457801886,91.98444592166925 54.17917448398657,90.50477875000797 54.63508442766033,89.23648982064333 54.711069418583065,88.28527143836254 55.3189493434038,85.00884150812635 56.078799249837175,82.68362277327105 56.3827392118983,80.99254918046063 56.68667917465791,78.13885213970207 56.68667917465791,76.23638022248633 57.218574108788744,74.01682234846521 57.14258911809884,72.43141905177617 57.44652908062562,70.63462379726116 57.44652908062562,69.26060041872552 58.51031894958578,63.65878160321154 58.51031894958578,61.7562657026574 58.28236397728324,59.53665651404299 58.662288930499926,56.89425436680904 58.58630394004285,54.78032462229021 58.73827392142266,53.30056955583859 58.434333958663046,52.349296595319174 57.37054409016855,50.65814109862549 55.01500938087702,49.389771478949115 51.975609756074846,49.81256163760554 50.60787992505357,49.389771478949115 50.15196998137981,49.389771478949115 47.18855534703471,50.129654069198295 46.35272045037709,50.129654069198295" stroke="#4DD2FF" stroke-linecap="round" stroke-linejoin="round" stroke-width="0.5"><title>2025-11-07 3.68km</title><desc>16379570374</desc></polyline></svg>