<?xml version="1.0" encoding="utf-8" ?>
<svg baseProfile="full" height="130mm" version="1.1" viewBox="0,0,100,130" width="100mm" xmlns="http://www.w3.org/2000/svg" xmlns:ev="http://www.w3.org/2001/xml-events" xmlns:xlink="http://www.w3.org/1999/xlink"><defs /><rect fill="#222222" height="130" width="100" x="0" y="0" /><text fill="#FFFFFF" style="font-size:6px; font-family:Arial; font-weight:bold;" x="5" y="10">2025-01-09 Workouts</text><text fill="#FFFFFF" style="font-size:4px; font-family:Arial" x="5" y="121">Runner</text><text fill="#FFFFFF" style="font-size:6px; font-family:Arial" x="2" y="128">蓝皮书</text><text fill="#FFFFFF" style="font-size:4px; font-family:Arial" x="25" y="121">STATISTICS</text><text fill="#FFFFFF" style="font-size:3px; font-family:Arial" x="25" y="125">Number: 1</text><text fill="#FFFFFF" style="font-size:3px; font-family:Arial" x="25" y="129">Weekly: 1.0</text><text fill="#FFFFFF" style="font-size:3px; font-family:Arial" x="48" y="125">Total: 6.8 km</text><text fill="#FFFFFF" style="font-size:3px; font-family:Arial" x="48" y="129">Avg: 6.8 km</text><text fill="#FFFFFF" style="font-size:3px; font-family:Arial" x="75" y="125">Min: 6.8 km</text><text fill="#FFFFFF" style="font-size:3px; font-family:Arial" x="75" y="129">Max: 6.8 km</text><polyline fill="none" points="60.38461538404226,85.38162246369757 66.9615384619683,84.06320389243774 81.84615384601057,84.06320389243774 90.15384615398943,73.51583589287475 89.46153846010566,65.60528721194714 86.69230769202113,61.21052954602055 68.0,56.37628918257542 62.80769230797887,56.37628918257542 46.88461538404226,57.25524251628667 32.0,58.13419560948387 14.692307692021132,59.8921010766644 11.230769230052829,65.16581171564758 11.230769230052829,73.95531024900265 16.423076923936605,81.86583840940148 26.807692306116223,84.94214966683649 39.26923076994717,85.82109519978985 52.42307692207396,84.94214966683649 68.69230769202113,84.50267681037076 83.23076923005283,83.6237309165299 88.4230769239366,77.03162906575017 90.5,67.36318859853782 85.65384615398943,60.33157729241066 66.26923076994717,55.49733561067842 59.69230769202113,56.815765880281106 51.73076923005283,57.25524251628667 41.0,56.37628918257542 34.07692307792604,56.815765880281106 26.461538461968303,56.37628918257542 15.730769231915474,59.45262480038218 10.884615384042263,66.92371334251948 11.230769230052829,72.63688699901104 18.846153846010566,83.18425787892193 32.346153846010566,84.50267681037076 38.576923076063395,84.50267681037076 50.0,84.50267681037076 59.346153846010566,84.06320389243774 76.30769230797887,84.06320389243774 87.73076923005283,77.91057675890625 90.15384615398943,69.12108902540058 86.34615384601057,60.77105344948359 81.15384615398943,57.69471909222193 72.15384615212679,55.9368124268949 57.61538461595774,55.49733561067842 52.42307692207396,56.37628918257542 47.576923076063395,56.37628918257542 41.34615384414792,55.9368124268949 24.73076923005283,55.9368124268949 15.038461538031697,59.45262480038218 10.884615384042263,70.43951371614821 13.653846153989434,78.78952421247959 21.26923076994717,84.06320389243774 34.769230768084526,85.82109519978985 47.923076923936605,84.94214966683649 58.653846153989434,84.06320389243774 64.19230769202113,83.18425787892193 79.42307692207396,84.06320389243774 88.0769230760634,77.03162906575017 90.15384615398943,70.8789884923026 89.46153846010566,63.84738486609422 80.80769230797887,56.37628918257542 74.92307692207396,55.49733561067842 66.26923076994717,55.05785873322748 61.076923076063395,54.61838179617189 54.153846153989434,55.49733561067842 44.11538461409509,55.9368124268949 30.961538461968303,56.37628918257542 12.615384615957737,62.089481559349224 10.884615384042263,69.12108902540058 15.730769231915474,81.42636513290927 23.692307690158486,84.06320389243774 40.30769230797887,85.38162246369757 62.80769230797887,84.50267681037076 66.61538461595774,84.94214966683649 72.84615384601057,84.50267681037076 84.9615384619683,80.54741839994676 89.80769230797887,65.60528721194714 84.9615384619683,58.5736720666755 76.30769230797887,55.49733561067842 61.42307692207396,55.9368124268949 56.576923076063395,56.815765880281106 46.88461538404226,56.815765880281106 36.499999998137355,56.37628918257542 26.807692306116223,56.815765880281106 19.19230769202113,57.69471909222193 13.307692307978868,62.52895747567527 9.846153846010566,70.0000388789922 16.076923076063395,82.30531162652187 25.769230768084526,84.50267681037076 36.153846153989434,84.94214966683649 48.9615384619683,84.94214966683649 58.30769230611622,84.50267681037076 72.5,83.18425787892193 81.84615384601057,83.18425787892193 89.80769230797887,71.7579378655646 88.76923076808453,63.407909128582105 83.57692307792604,59.01314846309833 65.23076923005283,56.815765880281106 56.23076923005283,56.815765880281106 36.153846153989434,56.37628918257542 22.653846153989434,56.815765880281106 12.615384615957737,62.52895747567527 9.846153846010566,70.0000388789922 11.576923076063395,77.03162906575017 16.423076923936605,81.86583840940148 45.499999998137355,84.94214966683649 58.653846153989434,84.06320389243774 77.34615384601057,84.06320389243774 85.65384615398943,80.10794494254515 89.80769230797887,71.7579378655646 89.11538461409509,66.48423802573234 82.5384615380317,58.13419560948387 66.61538461595774,54.61838179617189 44.11538461409509,55.05785873322748 32.346153846010566,55.9368124268949 24.384615385904908,55.9368124268949 15.384615385904908,59.8921010766644 10.192307692021132,66.0447626488749 11.576923076063395,77.03162906575017 15.730769231915474,81.86583840940148 44.46153846010566,84.94214966683649 77.69230769202113,83.18425787892193 84.61538461409509,79.66847142623737 87.38461538404226,77.4711029427126 89.11538461409509,68.2421389319934 81.84615384601057,56.815765880281106 73.88461538217962,55.05785873322748 63.5,54.61838179617189 44.11538461409509,55.9368124268949 35.4615384619683,55.49733561067842 18.153846153989434,55.9368124268949 12.269230769947171,62.089481559349224 10.192307692021132,70.43951371614821 17.115384615957737,82.74478478287347 27.500000001862645,83.18425787892193 39.61538461409509,83.6237309165299 64.19230769202113,84.06320389243774 71.4615384619683,84.06320389243774 83.9230769239366,80.98689179541543 88.76923076808453,73.51583589287475 89.46153846010566,65.16581171564758 84.26923076808453,57.69471909222193 74.92307692207396,55.05785873322748 61.076923076063395,55.49733561067842 51.73076923005283,55.9368124268949 33.0384615380317,55.49733561067842 20.23076923005283,56.37628918257542 12.961538460105658,60.77105344948359 10.538461539894342,70.8789884923026 17.115384615957737,81.86583840940148 28.884615384042263,83.6237309165299 36.499999998137355,84.06320389243774 43.07692307792604,84.50267681037076 63.846153846010566,84.50267681037076 74.57692307792604,84.06320389243774 85.30769230797887,79.66847142623737 89.46153846010566,71.31846320885234 88.0769230760634,65.60528721194714 86.69230769202113,61.6500055831857 80.80769230797887,55.49733561067842 62.46153846010566,55.05785873322748 52.76923076994717,55.05785873322748 35.4615384619683,55.49733561067842 27.846153846010566,55.49733561067842 16.76923076994717,57.25524251628667 11.923076923936605,62.52895747567527 10.884615384042263,72.19741246197373 18.5,81.86583840940148 37.19230769202113,84.94214966683649 50.69230769202113,84.94214966683649 69.38461538404226,84.50267681037076 75.26923076808453,83.6237309165299 86.34615384601057,79.22899784939364 89.80769230797887,66.0447626488749 85.30769230797887,58.5736720666755 74.57692307792604,55.05785873322748 56.923076923936605,55.49733561067842 51.38461538404226,54.17890480021015 27.153846153989434,55.05785873322748 16.076923076063395,57.69471909222193 10.192307692021132,65.16581171564758 10.884615384042263,74.39478454482742 18.846153846010566,82.30531162652187 38.576923076063395,83.18425787892193 45.153846153989434,83.18425787892193 62.11538461409509,83.18425787892193 66.9615384619683,82.74478478287347 82.19230769202113,81.86583840940148 88.4230769239366,74.83425878267735 89.46153846010566,64.72633615974337 79.76923076808453,55.9368124268949 60.38461538404226,54.61838179617189 42.38461538404226,55.05785873322748 30.26923076994717,55.9368124268949 19.884615384042263,56.37628918257542 11.230769230052829,64.72633615974337 10.884615384042263,73.51583589287475 15.038461538031697,80.10794494254515 32.0,84.50267681037076 51.38461538404226,84.06320389243774 82.88461538404226,81.42636513290927 88.76923076808453,74.39478454482742 89.80769230797887,67.80266379611567 87.73076923005283,60.77105344948359 74.57692307792604,54.61838179617189 63.846153846010566,55.05785873322748 39.26923076994717,55.9368124268949 25.076923076063395,55.49733561067842 13.653846153989434,60.33157729241066 10.192307692021132,69.56056398153305 13.653846153989434,79.22899784939364 27.846153846010566,83.6237309165299 37.19230769202113,84.50267681037076" stroke="#4DD2FF" stroke-linecap="round" stroke-linejoin="round" stroke-width="0.5"><title>2025-01-09 6.8km</title><desc>13306768748</desc></polyline></svg>