<?xml version="1.0" encoding="utf-8" ?>
<svg baseProfile="full" height="130mm" version="1.1" viewBox="0,0,100,130" width="100mm" xmlns="http://www.w3.org/2000/svg" xmlns:ev="http://www.w3.org/2001/xml-events" xmlns:xlink="http://www.w3.org/1999/xlink"><defs /><rect fill="#FAF9F5" height="130" width="100" x="0" y="0" /><text fill="#5A5A5A" style="font-size:6px; font-family:Arial; font-weight:bold;" x="5" y="10">2025-05-24 Workouts</text><text fill="#5A5A5A" style="font-size:4px; font-family:Arial" x="5" y="121">Runner</text><text fill="#5A5A5A" style="font-size:6px; font-family:Arial" x="2" y="128">蓝皮书</text><text fill="#5A5A5A" style="font-size:4px; font-family:Arial" x="25" y="121">STATISTICS</text><text fill="#5A5A5A" style="font-size:3px; font-family:Arial" x="25" y="125">Number: 1</text><text fill="#5A5A5A" style="font-size:3px; font-family:Arial" x="25" y="129">Weekly: 1.0</text><text fill="#5A5A5A" style="font-size:3px; font-family:Arial" x="48" y="125">Total: 13.7 km</text><text fill="#5A5A5A" style="font-size:3px; font-family:Arial" x="48" y="129">Avg: 13.7 km</text><text fill="#5A5A5A" style="font-size:3px; font-family:Arial" x="75" y="125">Min: 13.7 km</text><text fill="#5A5A5A" style="font-size:3px; font-family:Arial" x="75" y="129">Max: 13.7 km</text><polyline fill="none" points="17.717022613156587,49.23666007319116 18.8618090453092,49.00720133652794 20.337311557726935,48.97442149845301 20.973304020124488,48.712182626040885 21.787374371895567,48.6794027461292 23.720791457337327,48.35160369073856 24.534861809108406,48.2532638834964 24.789258794044144,48.31882375967689 25.908605527714826,48.08936411171453 27.384108040248975,47.663224161209655 28.91048994974699,47.564884061095654 29.21576633164659,47.79434422968188 29.317525125690736,48.31882375967689 29.444723618100397,51.137880842536106 29.64824120607227,51.46567594623775 30.02983668341767,51.62957332386577 30.665829145698808,51.36733746396203 31.5562185930321,50.18727241276065 32.19221105519682,49.66279712271353 34.45634422113653,48.2532638834964 36.51695979910437,46.74538159935037 36.87311557785142,46.614260935923085 37.356469849240966,46.97484258156328 37.356469849240966,49.59723762777867 37.20383165823296,49.9250349165377 37.407349246321246,50.84286485162738 37.407349246321246,52.41627911828982 37.68718592973892,54.02246180093789 38.0687814069679,54.940275465574814 38.984610552783124,55.136949348132475 39.28988693468273,55.07139140588697 40.99434673367068,55.268065176787786 46.260364321642555,56.38254671805771 47.88850502518471,56.513661840115674 48.168341708602384,56.2842103275907 48.626256281509995,56.54644060910505 50.483354271389544,56.54644060910505 50.686871859245,56.61199813298299 51.19566582911648,56.480883066527895 51.37374371860642,56.677555638263584 52.21325376885943,56.513661840115674 52.77292713569477,56.644776887915214 52.77292713569477,57.69369459268637 52.543969849240966,58.61149367960752 52.645728643168695,61.16820049166563 52.44221105531324,64.01987857396307 52.46765075379517,66.64208024501568 52.34045226126909,66.90429877613497 52.46765075379517,67.0354079301469 52.493090452160686,67.82206129246333 52.34045226126909,68.08427848498104 52.264133165823296,68.77259720026632 52.416771356831305,69.52646772716253 52.569409547839314,69.82145987277909 52.518530150759034,70.57532697923307 52.645728643168695,70.83754104856052 53.536118090501986,71.09975482053414 53.51067839190364,72.01750068007095 53.790515075437725,73.95131038530963 54.553706030128524,76.9011584372638 55.34233668341767,78.31051699601812 56.02920854266267,79.06435641901044 56.46168341720477,80.01484610080661 58.293341708602384,82.96461678178457 60.074120603036135,85.75047675457608 60.633793969871476,85.84880061086733 60.68467336683534,85.68492749378493 61.04082914569881,85.71770212655247 61.9312185930321,85.35718091123272 62.05841708544176,85.38995559033356 62.2364949749317,85.97989902089466 62.694409547839314,86.17654649654287 62.9996859296225,86.11099735659081 63.27952261304017,85.94712442538003 63.53391959797591,85.29163153894478 64.06815326632932,85.09498331056966 65.2638190954458,84.24283905483026 65.82349246228114,84.14451451545756 67.27355527621694,84.24283905483026 68.54554020101205,84.63613679390983 69.23241206025705,85.09498331056966 70.3263190954458,86.43874287046492 70.70791457290761,88.07746347077773 71.39478643215261,88.14301205317315 72.36149497481529,89.68339838956308 72.51413316570688,93.87844105713884 72.66677135671489,94.30449582010624 77.32223618088756,94.30449582010624 77.5003140703775,93.71457363147056 77.29679648228921,92.2069878665643 77.42399497481529,91.94479803433933 77.32223618088756,89.78172057318443 77.75471105531324,89.58507616404677 79.25565326632932,89.51952799050196 80.5276381908916,89.55230207950808 80.90923366835341,89.8472686723835 80.90923366835341,90.60107047742349 80.55307788937353,92.89523476138129 80.55307788937353,93.68180013245728 80.75659547722898,94.4355894352484 81.31626884418074,94.30449582010624 85.18310301518068,94.4355894352484 85.86997487430926,94.14062869643385 85.8190954773454,92.46917740140634 85.86997487430926,90.14223488880089 86.12437185936142,89.38843158763484 87.7016331658233,88.27410916214285 88.6174623115221,87.25810462262598 89.15169597987551,86.89758580947819 89.15169597987551,87.25810462262598 89.22801507543772,87.38920223341847 89.63505025126506,87.4219766244496 90.5,87.84804328592145 90.14384422102012,87.78249461996893 89.813128140755,87.52029976990889 89.40609296481125,87.48752539280395 89.10081658291165,86.83203687392233 89.38065326632932,85.97989902089466 89.60961055278312,84.53781242182595 89.3043341707671,83.09571682727255 88.6937814069679,81.71916264068568 87.57443467329722,80.67035394925915 86.30244974873494,79.85096884833183 85.46293969848193,79.52321399466018 85.53925879392773,79.62154049948731 84.16551507543772,79.22823422914371 80.90923366835341,78.63827356888214 79.53548994974699,78.50717099549365 78.2635050250683,78.63827356888214 77.29679648228921,78.60549793255632 77.14415829139762,78.70382482772402 76.50816582911648,78.60549793255632 75.18530150747392,78.96602967720537 74.34579145722091,79.06435641901044 73.53172110544983,79.4248874479963 72.66677135671489,79.4576629682706 71.57286432164256,79.71986696263775 70.8605527637992,79.94929521375161 70.22456030151807,80.21149865054758 69.13065326632932,80.04762153733463 68.64729899505619,80.17872323717165 67.09547738695983,80.01484610080661 65.64541457290761,79.58876500258339 65.28925879404414,79.35933639363793 64.62782663316466,79.32656085943745 64.32255025126506,79.35933639363793 64.32255025126506,79.91651976328285 63.915515075437725,80.60480324804666 63.89007537683938,81.0964330540155 64.11903266329318,81.52251137344865 64.39886934671085,81.75193783557916 65.06030150747392,81.81748821155634 65.44189698493574,81.62083702802192 65.74717336671893,81.16198361587885 65.74717336671893,80.60480324804666 65.54365577886347,80.17872323717165 65.1875,79.91651976328285 64.8059045226546,79.85096884833183 63.99183417088352,80.27704946319864 63.81375628139358,80.96533187468594 64.01727386924904,81.42418567724235 64.44974874367472,81.78471302590333 65.13662060303614,81.81748821155634 65.64541457290761,81.45696091397258 65.84893216076307,80.80145529596484 65.54365577886347,80.14594781924097 65.23837939708028,79.91651976328285 64.75502512557432,79.78541791475436 64.24623115570284,80.04762153733463 63.94095477391966,80.44092641376483 63.915515075437725,81.16198361587885 64.32255025126506,81.75193783557916 64.85678391961847,81.88303856896528 65.5690954773454,81.55528659634001 65.7980527637992,81.19475888983288 65.84893216076307,80.76867996629153 65.51821608038153,80.11317239663913 65.21293969848193,79.88374430814292 64.62782663316466,79.75264244095888 64.44974874367472,79.35933639363793 64.32255025126506,79.29378532069677 63.12688442203216,80.11317239663913 62.33825376897585,81.19475888983288 61.778580401907675,81.71916264068568 60.58291457290761,83.16126682219328 59.921482412028126,83.4562415692053 59.590766331530176,83.09571682727255 58.980213567847386,82.01413922781649 58.87845477380324,81.2603094236838 59.00565326632932,80.44092641376483 59.33636934671085,79.81819338380592 60.226758794044144,79.03158084307506 60.2013190954458,78.73660045015276 59.896042713546194,78.63827356888214 59.463567839120515,78.80215168117138 58.0135050250683,79.81819338380592 57.40295226138551,80.30982486264838 56.995917085325345,80.73590463188884 56.1055276383413,79.35933639363793 55.13881909556221,80.27704946319864 55.03706030151807,80.60480324804666 54.45194723608438,80.89978125710331 53.56155778898392,81.68638744115015 51.70445979910437,82.83351666174713 47.4305904522771,85.97989902089466 44.02167085430119,88.33965768880444 41.55402010062244,90.10946088338096 41.019786432152614,90.63384441316884 40.2565954773454,91.15822675374511 39.90043969848193,91.25654831013526 39.824120603036135,91.48596511252981 39.4934045226546,91.58428652954171 37.20383165823296,93.35406488642911 35.90640703518875,94.17340213047282 33.43875628139358,96.23811910738004 32.95540201012045,96.40198474435601 31.072864321642555,97.81122442803462 30.564070351887494,98.13895335599955 29.928077889606357,98.3028176456719 28.80873115581926,96.7624887367856 28.681532663409598,96.72971566984779 28.65609296481125,96.43475785785995 27.689384422032163,95.45156243319798 27.61306532670278,95.15660299053707 26.926193467341363,94.27172240460641 26.188442211132497,93.45238550900831 25.88316582911648,92.89523476138129 25.348932160879485,92.17421415376884 24.992776381899603,91.97757177967287 24.636620603036135,91.48596511252981 24.45854271366261,91.45319129759446 24.331344221136533,90.99435740012268 24.051507537718862,90.63384441316884 24.000628140754998,90.2405568773247 23.720791457337327,90.10946088338096 23.517273869365454,89.78172057318443 22.855841708602384,89.19178684407962 20.795226130634546,86.43874287046492 20.108354271389544,85.71770212655247 20.108354271389544,85.1933074456465 19.82851758808829,85.09498331056966 19.090766331763007,84.27561389195034 17.76790201012045,82.472990948605 17.615263819228858,82.11246467332239 16.08888190961443,80.53925252838235 15.17305276391562,79.06435641901044 14.33354271366261,78.11386282919557 14.13002512557432,77.58945089984627 13.875628140754998,77.26169283993659 13.51947236189153,77.03226192151487 13.366834170883521,76.60617532594188 12.832600502530113,75.81955185550032 11.789572864421643,74.47573056792316 11.458856784040108,74.21352062534424 11.280778894550167,73.7874288342573 10.87374371860642,73.42688901307702 9.55087939708028,71.65695809843601 9.652638191008009,70.01812109412276 9.5,68.08427848498104 9.652638191008009,66.08486487876507 9.576319095562212,63.46265688654967 9.754396985052153,62.21709766962158 9.678077889606357,60.57819373735401 9.830716080381535,59.36539734623511 9.703517587971874,57.66091598638741 9.856155778979883,57.20201501113479 9.703517587971874,54.25191555880883 10.085113065317273,52.481837813553284 10.085113065317273,50.9084239933145 10.186871859361418,50.482289240375394 10.415829145815223,50.18727241276065 10.797424623160623,50.25283174030483 11.611494974931702,50.056153701778385 11.891331658349372,50.15449274201819 12.29836683429312,49.99059431841306 14.435301507590339,49.85947549594857 14.689698492642492,49.69557686323242 15.910804020240903,49.53167811421736 16.165201005060226,49.69557686323242 16.648555276566185,49.367779249019804 17.309987437329255,49.43333880910359 17.666143216076307,49.26943987415871 17.971419598092325,49.302219670425984 18.12405778898392,49.17110045735899 19.014447236200795,49.17110045735899 19.497801507473923,49.20388026765431 22.474246231256984,48.58106307836715 23.619032663409598,48.384383617245476 23.87342964822892,48.449943456129404 24.50942211051006,48.28604382388585 24.84013819100801,48.023804170574294 26.570037688477896,47.99102419288829 26.849874371895567,47.8599042360147 27.129711055313237,47.92546422382293 28.121859296574257,47.63044413254829 28.32537688454613,47.72878420482448 28.9868090453092,47.63044413254829 29.24120603024494,47.79434422968188 29.21576633164659,48.87608195612847 29.470163316698745,50.71174651263573 29.3684045226546,52.25238229853858 28.885050251265056,53.039085973083274 27.86746231163852,54.219136464453186 27.155150753911585,55.464738780472544 26.4937185930321,56.21865271071147 25.730527638224885,56.939785473485244 25.832286432152614,56.743113124903175 26.951633165823296,56.021979748635204 27.104271356831305,56.25143152150849 27.485866834176704,56.38254671805771 27.71482412063051,56.644776887915214 27.71482412063051,60.61097192985471 27.511306532775052,62.1515417353512 27.5621859296225,63.331545706125326 27.791143216076307,62.80710024056316 27.81658291455824,60.1520768115588 27.99466080404818,59.660402459441684 27.86746231163852,59.03761344551458 27.943781407084316,57.69369459268637 27.76570351771079,55.89086434755882 28.04554020089563,54.90749646880431 30.30967336683534,52.12126475908735 31.327261306578293,50.35117069687112 32.37028894480318,49.5644578733627 33.947550251265056,48.6794027461292 34.25282663316466,48.384383617245476 35.72832914569881,47.53210401846445 35.88096733670682,47.30264358955901 36.695037688477896,46.581480758366524 36.59327889443375,46.45036000183609 36.38976130657829,46.45036000183609 36.237123115570284,46.64704110873572 35.70288944733329,47.073182932814234 34.65986180899199,47.76156421958876 34.40546482417267,47.82712423524936 33.820351758855395,48.28604382388585 33.46419597999193,48.384383617245476 32.929962311522104,48.908861808246 31.759736180887558,49.59723762777867 31.27638190961443,50.023374012467684 30.818467336706817,50.71174651263573 30.411432160879485,51.137880842536106 30.20791457290761,51.105101306631695 29.75,50.613407709563035 29.851758794044144,49.72835659905104 30.080716080381535,49.793916056805756 30.106155778863467,49.53167811421736 29.75,48.48272336871014 29.64824120607227,47.36820373538649 30.157035175943747,45.56529294967186 30.614949748734944,43.50012331400649 30.99654522619676,43.66402634016413 31.02198492467869,43.95905149448663 30.97110552759841,43.893490381582524 31.327261306578293,43.598465143702924 31.632537688477896,42.94285215556738 31.352701005060226,42.28723730768252 31.149183417204767,42.25445651639893 30.94566582911648,42.45114119397476 30.99654522619676,42.87729075446259 30.767587939742953,43.303439529190655 30.716708542662673,44.12295419513248 30.818467336706817,44.38519827456912 31.200062814168632,44.54910067310266 31.22550251253415,44.6802225082356 31.96325376885943,44.48353972767654 32.42116834176704,44.48353972767654 32.67556532670278,44.64744205646275 33.108040201012045,44.05739312883816 33.46419597999193,43.893490381582524 33.71859296481125,43.95905149448663 34.02386934671085,43.66402634016413 33.56595477380324,43.270658882072894 33.057160803931765,43.20509757394029 32.42116834176704,42.680606439564144 31.68341708544176,42.18889491999289 31.098304020124488,41.92664834846801 30.99654522619676,42.090552490597474 30.46231155784335,41.69718235434266 30.258793969871476,41.89386750616541 30.258793969871476,42.320018094193074 29.08856783923693,47.204303335922305 29.139447236200795,48.05658414347272 29.063128140754998,47.72878420482448 28.85961055289954,47.63044413254829 27.30778894480318,47.8599042360147" stroke="#89CFF0" stroke-linecap="round" stroke-linejoin="round" stroke-width="0.5"><title>2025-05-24 13.7km</title><desc>14574391100</desc></polyline></svg>