<?xml version="1.0" encoding="utf-8" ?>
<svg baseProfile="full" height="130mm" version="1.1" viewBox="0,0,100,130" width="100mm" xmlns="http://www.w3.org/2000/svg" xmlns:ev="http://www.w3.org/2001/xml-events" xmlns:xlink="http://www.w3.org/1999/xlink"><defs /><rect fill="#FAF9F5" height="130" width="100" x="0" y="0" /><text fill="#5A5A5A" style="font-size:6px; font-family:Arial; font-weight:bold;" x="5" y="10">2025-02-15 Workouts</text><text fill="#5A5A5A" style="font-size:4px; font-family:Arial" x="5" y="121">Runner</text><text fill="#5A5A5A" style="font-size:6px; font-family:Arial" x="2" y="128">蓝皮书</text><text fill="#5A5A5A" style="font-size:4px; font-family:Arial" x="25" y="121">STATISTICS</text><text fill="#5A5A5A" style="font-size:3px; font-family:Arial" x="25" y="125">Number: 1</text><text fill="#5A5A5A" style="font-size:3px; font-family:Arial" x="25" y="129">Weekly: 1.0</text><text fill="#5A5A5A" style="font-size:3px; font-family:Arial" x="48" y="125">Total: 12.3 km</text><text fill="#5A5A5A" style="font-size:3px; font-family:Arial" x="48" y="129">Avg: 12.3 km</text><text fill="#5A5A5A" style="font-size:3px; font-family:Arial" x="75" y="125">Min: 12.3 km</text><text fill="#5A5A5A" style="font-size:3px; font-family:Arial" x="75" y="129">Max: 12.3 km</text><polyline fill="none" points="90.1275060637854,34.88364034262486 89.14205650426447,34.88364034262486 88.86613062745892,36.10256654320983 88.82671264512464,36.61045123569784 88.70845869812183,37.42306524567539 89.22089246893302,38.794347206829116 89.1026385219302,39.302228082262445 88.94496659236029,39.65774426673306 89.06322053959593,39.911684182152385 88.7478766804561,40.9782298617356 88.23544290964492,41.181381059635896 87.52591922669671,42.55264863165212 86.54046966717578,42.4510734359792 85.20025826618075,42.40028582737432 84.05713677708991,42.4510734359792 83.38703107670881,42.857374045823235 82.95343327056617,43.212886701279785 80.15475652157329,43.31446168082766 77.1984078430105,43.77154873270774 76.09470433625393,43.7207613112696 74.55740302358754,44.02548573160311 72.23174206283875,44.3302098926215 71.28571048588492,44.685721086134436 70.0637530318927,45.09201916112215 69.78782715531997,47.580584812909365 69.63015522575006,50.272279216267634 69.11772145493887,58.347241061448585 68.92063154303469,59.21059098956175 68.28994382475503,66.3204524438188 67.89576400117949,73.68408875266323 67.81692803604528,74.44583559338935 67.42274821246974,78.15298042763607 66.9891504063271,84.19605209343717 66.634388564853,90.54370666859904 66.319044705946,94.65692677823245 65.57010304066353,102.68010911397869 65.21534119918942,106.18384756433079 64.54523549880832,109.58599558868445 63.79629383329302,110.5 61.312960943439975,110.5 58.90846401825547,110.5 54.21772411465645,110.29688811002416 49.40873026428744,110.04299808564247 44.83624430838972,109.78910788157373 40.46084826393053,109.43366129344213 38.52936712722294,109.33210506051546 32.49841582309455,109.078214352543 30.133336880244315,108.92587984146667 25.955030747922137,108.72276705910917 16.100535152712837,108.31654114898993 11.133869372773916,107.75797977077309 10.26667376048863,107.25019594366313 10.227255777921528,104.05114128414425 9.872493936447427,101.91842230776092 10.148419813252985,97.80528557073558 10.424345689825714,92.9303956934018 10.345509725157171,91.71166285892832 10.424345689825714,89.88355583319208 10.463763672392815,79.67645348334918 10.582017619395629,71.50040549814003 10.582017619395629,66.3712366609252 10.542599637061357,64.3906468601781 10.503181654727086,59.10902051781886 10.503181654727086,55.604821603687014 10.542599637061357,49.81520046040532 10.582017619395629,46.463271761196665 11.25212332000956,45.85382680926705 12.710588668007404,45.85382680926705 15.312175505096093,45.803039683174575 16.84947681799531,45.803039683174575 20.239423302700743,45.4983167751343 20.8306930384133,45.90461392811267 22.565084263216704,45.752252549806144 24.33889347058721,45.70146540919086 27.098152237012982,44.53335918948869 27.886511884629726,43.77154873270774 28.32010969077237,35.79783538196352 28.32010969077237,32.19183028701809 28.63545354967937,30.61736597144045 32.734923717565835,30.566576684766915 35.375928536755964,30.312630143220304 36.046034237369895,30.26184081324027 40.1849223873578,30.26184081324027 44.79682632605545,30.160262131743366 47.556085092714056,30.007894055597717 51.734391225036234,29.906315302068833 54.375396044459194,29.906315302068833 56.54338507540524,29.753947117802454 61.943648661719635,29.70315770866 64.42698155157268,29.70315770866 65.64893900533207,29.5 69.94549908488989,29.65236829238711 70.49735083803535,31.125258442305494 69.90608110255562,40.9782298617356 69.86666311998852,41.48610764052137 69.0783034726046,44.07627310985117 68.60528768412769,45.447529598663095 69.0783034726046,47.225076492730295 68.84179557813331,47.73294541359064 68.28994382475503,48.139240031829104 67.69867408904247,49.154974561039126 68.0140179481823,52.65923657594249 67.61983812437393,55.604821603687014 66.79206049442291,59.82001321541611 66.35846268828027,65.76182558090659 66.55555260018446,67.79319181558094 66.6738065474201,69.36749272388988 66.2796267233789,77.23889348417288 66.08253681147471,78.8639353265753 61.70714076724835,79.4733241169015 58.75079208868556,80.38740535872057 56.97698288154788,81.09835582305095 55.87327937479131,77.08654543344164 55.47909955098294,75.35992966411868 52.95634867879562,75.46149552796851 51.734391225036234,75.41071259966702 49.29047631728463,75.56306136306375 46.29470965638757,71.39883851114428 45.585185973439366,68.14867972218781 43.614286854630336,64.746138143586 41.80105966492556,62.20690695013036 41.09153598221019,59.61687258875463 39.8301605458837,56.468178141949465 38.48994914488867,55.90953591358266 36.16428818460554,53.97967423897353 35.61243643122725,50.88171665003756 36.16428818460554,50.67857095395448 38.17460528574884,50.72935738883098 39.317726774839684,50.526211606309516 39.79074256354943,49.358121121127624 39.39656273974106,47.27586341713322 40.06666844012216,44.8380829183443 41.13095396454446,44.177847844490316 41.919313612161204,43.669973882613704 44.244974572444335,43.31446168082766 44.95449825539254,43.06052417791216 45.34867807943374,41.13059327105293 45.191006149863824,39.251440027030185 45.50635000877082,38.43883016551263 47.31957719824277,38.03252454320318 49.448148246854544,38.184889205527725 51.37962938356213,39.65774426673306 52.36507894308306,39.759320254583145 52.759258766891435,39.759320254583145 53.23227455536835,37.473853560048155 54.060052185319364,37.37227692408487 55.12433770974167,37.727795024140505 56.661639022640884,37.930948065652046 58.47486621211283,38.13410099199973 59.657405683537945,38.743559079710394 60.682273225393146,37.88015981594799 61.23412497877143,37.62621846009279 62.02248462638818,39.2006519647839 64.26930962200277,41.5368953787256 64.70290742814541,42.4510734359792 65.6095210229978,43.7207613112696 66.43729865294881,44.73650837081368 67.61983812437393,44.73650837081368 68.56586970156059,44.99044468556531 68.64470566622913,46.26012355904095 69.23597540194169,47.63137168693356 68.32936180732213,48.24081361439312 67.93518198351376,49.154974561039126 67.97459996584803,55.75717879089643 67.3439122478012,58.44881174908369 67.06798637099564,60.53100450191414 66.94973242376,62.00376767714624 66.47671663528308,65.76182558090659 66.91031444165856,67.33613541704835 66.75264251208864,69.87533025056473 66.39788067061454,72.6684237785521 66.2796267233789,76.78184913779842 66.39788067061454,77.4420241175394 65.84602891723625,79.01628262136364 64.70290742814541,79.06706503845635 62.18015655595809,79.4733241169015 59.42089778929949,79.98114731692476 58.317194282542914,81.70774081244599 56.740474987309426,81.14913794514723 56.18862323393114,79.01628262136364 56.18862323393114,78.20376296719769 56.1097872692626,76.27402140220511 55.47909955098294,75.20758081437089 54.65132192126475,75.30914672135259 53.27169253770262,75.56306136306375 50.94603157741949,75.30914672135259 49.64523815875873,75.30914672135259 48.73862456413917,75.41071259966702 46.33412763872184,71.70353938569315 45.900529832579195,69.5706278209691 45.03333422006108,67.03143082748284 43.45661492506042,64.64456924141268 41.603969753254205,61.902197997347685 39.90899651078507,56.97603395715123 40.06666844012216,55.90953591358266 41.012700017308816,55.198535453761 43.614286854630336,52.45609188795788 45.191006149863824,51.948229664121754 46.09761974448338,51.08486223089858 46.885979392100126,50.3230657086533 48.89629649347626,49.81520046040532 49.60582017642446,49.91677356773289 50.35476184170693,49.764413895929465 51.69497324246913,49.51048096574959 54.69073990336619,49.05340123773203 57.1346548111178,48.79946780344471 58.8690460359212,48.39317393413512 60.9187811196316,48.139240031829104 63.48094997438602,48.139240031829104 64.70290742814541,47.326650334493024 66.35846268828027,46.10776233187062 68.56586970156059,44.93965743709123 69.47248329641297,44.07627310985117 69.66957320808433,44.685721086134436 70.45793285570107,44.73650837081368 71.56163636245765,44.888870181370294 72.54708592174575,44.380997227621265" stroke="#89CFF0" stroke-linecap="round" stroke-linejoin="round" stroke-width="0.5"><title>2025-02-15 12.3km</title><desc>13631223186</desc></polyline></svg>