<?xml version="1.0" encoding="utf-8" ?>
<svg baseProfile="full" height="130mm" version="1.1" viewBox="0,0,100,130" width="100mm" xmlns="http://www.w3.org/2000/svg" xmlns:ev="http://www.w3.org/2001/xml-events" xmlns:xlink="http://www.w3.org/1999/xlink"><defs /><rect fill="#FAF9F5" height="130" width="100" x="0" y="0" /><text fill="#5A5A5A" style="font-size:6px; font-family:Arial; font-weight:bold;color:#0ed45e;" x="5" y="10">体能测试2</text><text fill="#5A5A5A" style="font-size:4px; font-family:Arial" x="5" y="121">Runner</text><text fill="#5A5A5A" style="font-size:6px; font-family:Arial" x="2" y="128">蓝皮书</text><text fill="#5A5A5A" style="font-size:4px; font-family:Arial" x="25" y="121">WORKOUTS INFO</text><text fill="#5A5A5A" style="font-size:3px; font-family:Arial" x="25" y="125">Type: Run</text><text fill="#5A5A5A" style="font-size:3px; font-family:Arial" x="22" y="129">Date: 2025-09-12</text><text fill="#5A5A5A" style="font-size:3px; font-family:Arial" x="47" y="125">Distance: 6.42 km</text><text fill="#5A5A5A" style="font-size:3px; font-family:Arial" x="47" y="129">Duration: 41:02min</text><text fill="#5A5A5A" style="font-size:3px; font-family:Arial" x="75" y="125">Pace: 6:23/km</text><text fill="#5A5A5A" style="font-size:3px; font-family:Arial" x="75" y="129">Elevation: 0m</text><polyline fill="none" points="10.570484582334757,71.8121380333323 11.640969162806869,74.983325203415 15.209251103922725,79.96661320468411 18.420704847201705,81.77871607779525 22.345814978703856,82.68476714310236 53.03303964622319,81.77871607779525 67.30616740323603,82.23174164071679 80.86563876643777,80.87266476498917 84.79074889980257,79.0605613978114 87.6453744508326,76.34240449080244 89.0726872254163,72.71819181996398 89.42951541952789,68.64094783295877 88.35903083905578,64.56369883636944 86.21806167438626,61.39250170858577 83.36343612521887,59.1273590461351 79.79515418596566,58.22130155027844 65.5220264326781,59.1273590461351 48.03744493611157,58.22130155027844 31.266519824042916,58.22130155027844 16.993392070755363,59.58038770291023 13.781938327476382,61.39250170858577 11.9977973587811,64.56369883636944 10.570484582334757,68.64094783295877 10.927312776446342,72.26516495808028 12.35462555103004,76.79543079761788 14.495594715699553,79.51358733256347 18.777533039450645,82.23174164071679 22.345814978703856,83.13779258169234 61.240088107064366,81.77871607779525 81.93612334877253,79.96661320468411 85.50440528616309,78.1545093441382 88.00220264494419,74.53029865049757 89.42951541952789,70.45305689051747 89.0726872254163,66.82883778586984 88.00220264494419,63.65764282294549 85.14757709391415,60.03341629751958 83.00660792924464,58.22130155027844 79.79515418596566,57.315243805292994 27.341409692540765,59.1273590461351 15.209251103922725,60.939473300473765 12.711453745141625,63.20461472426541 10.927312776446342,66.82883778586984 10.213656388223171,70.45305689051747 10.570484582334757,72.26516495808028 11.640969162806869,76.34240449080244 14.138766521587968,79.51358733256347 19.491189427673817,82.23174164071679 30.55286343768239,81.77871607779525 47.32378854602575,82.68476714310236 81.93612334877253,79.96661320468411 85.86123348213732,78.1545093441382 88.35903083905578,75.43635169556364 90.14317180588841,71.8121380333323 90.5,67.28186539001763 89.0726872254163,63.20461472426541 86.93171806260943,59.58038770291023 83.36343612521887,57.315243805292994 79.43832599371672,56.40918581280857 75.15638766624033,56.40918581280857 52.31938325986266,58.22130155027844 20.561674010008574,58.67433032928966 16.993392070755363,59.58038770291023 13.781938327476382,62.298558339709416 11.640969162806869,65.46975460182875 10.213656388223171,70.90608399943449 10.927312776446342,74.53029865049757 13.068281939253211,78.1545093441382 16.636563876643777,80.87266476498917 20.561674010008574,82.68476714310236 79.43832599371672,81.3256904524751 83.36343612521887,79.96661320468411 86.93171806260943,77.70148322312161 89.42951541952789,74.53029865049757 90.5,70.0000297180377 90.5,67.73489293293096 89.78634361177683,63.65764282294549 87.28854625672102,60.03341629751958 84.0770925115794,57.315243805292994 80.15198238007724,55.956156723666936 46.61013215966523,58.67433032928966 20.91850220412016,59.1273590461351 14.852422907948494,61.39250170858577 12.35462555103004,64.56369883636944 10.927312776446342,68.18792041367851 10.570484582334757,71.8121380333323 12.35462555103004,77.24845704087056 17.350220266729593,81.3256904524751 21.98898678459227,82.23174164071679 54.460352424532175,80.87266476498917 78.36784141138196,80.41963901510462 82.6497797369957,79.0605613978114 87.6453744508326,74.983325203415 89.78634361177683,71.35911104688421 90.5,67.73489293293096 89.78634361177683,63.65764282294549 87.28854625672102,60.03341629751958 83.72026431746781,57.768272707704455 79.43832599371672,56.40918581280857 74.79955947212875,56.40918581280857 63.73788546398282,57.768272707704455 45.53964757733047,58.67433032928966 20.91850220412016,59.1273590461351 15.209251103922725,61.39250170858577 12.711453745141625,64.56369883636944 10.927312776446342,68.18792041367851 10.570484582334757,70.0000297180377 11.284140970557928,73.62424535909668 13.781938327476382,78.1545093441382 16.993392070755363,80.41963901510462 20.561674010008574,81.77871607779525 29.83920704945922,82.23174164071679 81.222466962412,80.41963901510462 85.14757709391415,79.0605613978114 86.93171806260943,77.24845704087056 88.35903083905578,75.43635169556364 89.78634361177683,70.90608399943449 89.78634361177683,65.92278239130974 88.35903083905578,61.84553005453199 85.86123348213732,58.22130155027844 81.93612334877253,56.40918581280857 77.65418502129614,55.956156723666936 50.89207048714161,58.22130155027844 28.055066080763936,58.22130155027844 17.707048458978534,59.58038770291023 14.138766521587968,61.84553005453199 11.640969162806869,64.56369883636944 10.213656388223171,68.64094783295877 9.856828194111586,72.71819181996398 10.927312776446342,76.34240449080244 13.068281939253211,79.51358733256347 16.636563876643777,82.23174164071679 21.275330398231745,83.13779258169234 44.11233480088413,82.68476714310236 68.73348017595708,80.41963901510462 79.08149779774249,80.87266476498917 83.00660792924464,79.96661320468411 86.21806167438626,77.24845704087056 88.71585903130472,74.07727203541435 89.78634361177683,70.0000297180377 88.71585903130472,64.11067085992545 86.5748898703605,60.486444829497486 83.00660792924464,58.22130155027844 78.72466960549355,57.315243805292994 33.76431718096137,58.67433032928966 19.848017621785402,59.58038770291023 14.138766521587968,62.298558339709416 10.570484582334757,67.28186539001763 9.856828194111586,73.62424535909668 11.9977973587811,78.60753540159203 15.209251103922725,81.3256904524751 20.91850220412016,83.59081796044484 65.5220264326781,82.68476714310236 78.72466960549355,80.87266476498917 83.00660792924464,79.96661320468411 87.28854625672102,76.34240449080244 89.78634361177683,72.26516495808028 90.14317180588841,67.73489293293096 89.42951541952789,65.46975460182875 87.28854625672102,61.39250170858577 83.72026431746781,58.67433032928966 81.93612334877253,57.768272707704455 77.2973568290472,57.768272707704455 45.53964757733047,59.58038770291023 17.707048458978534,60.486444829497486 13.425110133364797,62.75158656248823 10.927312776446342,65.92278239130974 9.856828194111586,70.0000297180377 10.213656388223171,74.07727203541435 11.640969162806869,77.70148322312161 14.852422907948494,80.87266476498917 18.777533039450645,83.13779258169234 23.416299561038613,84.04384327633306 56.95814978145063,82.23174164071679 79.79515418596566,80.87266476498917 84.0770925115794,79.51358733256347 87.28854625672102,76.79543079761788 89.0726872254163,73.17121862014756 89.78634361177683,69.09397518937476 89.42951541952789,65.01672674901783 87.28854625672102,61.39250170858577 84.43392070569098,58.67433032928966 80.50881057418883,56.86221484071575 76.22687224857509,56.86221484071575 59.09911894239485,57.315243805292994 18.06387665309012,60.03341629751958 14.138766521587968,61.84553005453199 11.640969162806869,65.01672674901783 9.856828194111586,69.09397518937476 9.856828194111586,73.17121862014756 10.927312776446342,76.79543079761788 14.852422907948494,80.87266476498917 18.06387665309012,82.68476714310236 22.345814978703856,83.13779258169234 71.94493392109871,81.77871607779525 81.93612334877253,79.96661320468411 85.50440528616309,77.70148322312161 88.00220264494419,74.53029865049757 89.42951541952789,70.90608399943449 89.78634361177683,66.82883778586984 88.71585903130472,63.20461472426541 86.21806167438626,60.03341629751958 82.6497797369957,57.768272707704455 78.72466960549355,56.86221484071575 74.44273127615452,56.40918581280857 63.73788546398282,57.768272707704455 16.636563876643777,60.486444829497486 13.425110133364797,62.75158656248823 10.927312776446342,65.92278239130974 9.856828194111586,70.0000297180377 9.856828194111586,73.62424535909668 11.640969162806869,77.24845704087056 14.495594715699553,80.41963901510462 18.777533039450645,82.68476714310236 23.059471366927028,83.13779258169234 47.680616741999984,81.77871607779525 79.43832599371672,81.77871607779525 85.50440528616309,79.51358733256347 86.93171806260943,78.1545093441382 89.42951541952789,74.07727203541435 90.14317180588841,69.54700248548761 89.78634361177683,64.56369883636944 87.6453744508326,60.939473300473765 84.43392070569098,58.22130155027844 80.15198238007724,56.86221484071575 61.59691629931331,56.86221484071575 42.32819383405149,58.67433032928966 21.275330398231745,58.67433032928966 16.993392070755363,60.03341629751958 13.425110133364797,61.84553005453199 10.927312776446342,65.46975460182875 9.5,71.8121380333323 10.213656388223171,75.88937812414952 11.284140970557928,77.70148322312161 14.495594715699553,80.87266476498917 20.561674010008574,82.68476714310236 78.36784141138196,81.3256904524751 83.00660792924464,79.96661320468411 86.93171806260943,77.24845704087056 89.42951541952789,73.17121862014756 90.14317180588841,69.09397518937476 89.0726872254163,64.56369883636944 86.5748898703605,60.486444829497486 82.6497797369957,57.768272707704455 77.65418502129614,56.86221484071575 20.91850220412016,58.22130155027844 16.279735684394836,59.58038770291023 12.711453745141625,61.84553005453199 10.570484582334757,65.92278239130974 9.856828194111586,70.45305689051747 10.213656388223171,74.53029865049757 11.9977973587811,77.70148322312161 14.495594715699553,80.41963901510462 18.777533039450645,82.68476714310236 24.12995594739914,83.13779258169234 43.3986784145236,82.23174164071679 69.09030837006867,82.23174164071679 79.79515418596566,81.77871607779525 83.72026431746781,80.87266476498917 86.5748898703605,78.60753540159203 89.0726872254163,75.43635169556364 90.14317180588841,71.35911104688421 89.78634361177683,67.28186539001763 88.00220264494419,62.298558339709416 85.50440528616309,59.58038770291023 80.15198238007724,57.315243805292994 66.23568282090127,58.22130155027844 19.848017621785402,59.1273590461351 14.852422907948494,60.939473300473765 11.9977973587811,63.65764282294549 10.213656388223171,66.82883778586984 9.856828194111586,72.71819181996398 12.35462555103004,78.60753540159203 16.636563876643777,82.23174164071679 20.561674010008574,83.13779258169234 75.15638766624033,82.23174164071679 81.222466962412,81.3256904524751 86.21806167438626,78.60753540159203 88.35903083905578,75.43635169556364 89.42951541952789,70.0000297180377 89.42951541952789,65.92278239130974 88.00220264494419,62.298558339709416 83.72026431746781,58.22130155027844" stroke="#4DD2FF" stroke-linecap="round" stroke-linejoin="round" stroke-width="0.5"><title>2025-09-12 6.42km</title><desc>15780650615</desc></polyline></svg>