<?xml version="1.0" encoding="utf-8" ?>
<svg baseProfile="full" height="130mm" version="1.1" viewBox="0,0,100,130" width="100mm" xmlns="http://www.w3.org/2000/svg" xmlns:ev="http://www.w3.org/2001/xml-events" xmlns:xlink="http://www.w3.org/1999/xlink"><defs /><rect fill="#222222" height="130" width="100" x="0" y="0" /><text fill="#FFFFFF" style="font-size:6px; font-family:Arial; font-weight:bold;color:#0ed45e;" x="5" y="10">介像不像个 6</text><text fill="#FFFFFF" style="font-size:4px; font-family:Arial" x="5" y="121">Runner</text><text fill="#FFFFFF" style="font-size:6px; font-family:Arial" x="2" y="128">蓝皮书</text><text fill="#FFFFFF" style="font-size:4px; font-family:Arial" x="25" y="121">WORKOUTS INFO</text><text fill="#FFFFFF" style="font-size:3px; font-family:Arial" x="25" y="125">Type: Run</text><text fill="#FFFFFF" style="font-size:3px; font-family:Arial" x="22" y="129">Date: 2025-06-06</text><text fill="#FFFFFF" style="font-size:3px; font-family:Arial" x="47" y="125">Distance: 6.69 km</text><text fill="#FFFFFF" style="font-size:3px; font-family:Arial" x="47" y="129">Duration: 43:04min</text><text fill="#FFFFFF" style="font-size:3px; font-family:Arial" x="75" y="125">Pace: 6:26/km</text><text fill="#FFFFFF" style="font-size:3px; font-family:Arial" x="75" y="129">Elevation: 72m</text><polyline fill="none" points="23.951627866365016,33.570456795045175 24.272223215550184,34.1810243553482 24.272223215550184,39.06555583619047 24.91341391392052,42.32190126401838 25.39430693909526,45.17119767796248 26.195795312523842,47.61344741261564 25.87519996240735,49.44513208698481 25.87519996240735,51.683854743721895 26.035497636534274,56.161289970506914 25.554604613222182,57.58592563122511 26.035497636534274,60.028155024629086 26.195795312523842,68.37240859516896 26.356092986650765,70.20406776154414 26.035497636534274,74.47793039586395 25.87519996240735,76.71661545673851 26.035497636534274,78.34474793460686 25.87519996240735,80.99045941862278 26.356092986650765,85.26429112744518 26.195795312523842,88.5205356326187 26.83698601089418,93.20137464837171 26.83698601089418,95.23651746183168 31.966511599719524,95.64354569104034 35.3327627684921,97.27165749704 34.691572070121765,102.15598224464338 39.17990696057677,104.3946257388452 41.744669754989445,109.07541490893345 53.286102331243455,109.88946369860787 58.41562792100012,109.27892714797053 62.58336746226996,109.27892714797053 71.39973956905305,109.27892714797053 75.72777678444982,105.81921530270483 75.56747911125422,100.73138917947654 73.96450236439705,99.30679475318175 70.11735817138106,96.8646297120722 61.78187908884138,97.67868517071474 51.52282790932804,98.28922647237778 47.996279067359865,98.08571273251437 44.46973022446036,98.08571273251437 40.14169300813228,100.73138917947654 40.301990683190525,107.24380350590218 42.38586045335978,109.4824393595336 58.575925595127046,109.68595154315699 66.91140467859805,108.87190264160745 72.5218232916668,108.46487802453339 75.0865860870108,105.81921530270483 75.72777678444982,101.95246903295629 74.28509771358222,98.89976752467919 63.064260485582054,97.27165749704 51.52282790932804,97.88219896552619 43.507944175973535,98.08571273251437 39.98139533307403,102.15598224464338 39.660799983888865,105.2086770851165 41.26377673074603,108.26136567431968 45.1109209228307,109.88946369860787 51.843423259444535,109.88946369860787 56.011162801645696,110.0929758270504 64.98783258255571,109.07541490893345 71.5600372441113,109.27892714797053 74.92628841195256,106.63326587178744 75.40718143526465,103.78408693755046 75.40718143526465,100.93490255821962 72.20122794248164,97.88219896552619 68.03348840028048,97.06814361875877 63.064260485582054,97.67868517071474 56.9729488492012,98.08571273251437 43.8285395251587,98.08571273251437 41.42407440580428,99.91733538883273 39.98139533307403,101.95246903295629 39.50050230976194,105.81921530270483 41.744669754989445,109.68595154315699 49.59925581328571,110.0929758270504 56.1714604748413,110.0929758270504 61.62158141378313,109.27892714797053 70.75854887068272,109.07541490893345 73.96450236439705,107.24380350590218 75.88807445950806,103.98759989941027 74.44539538770914,99.71382187120616 70.27765584550798,97.67868517071474 67.07170235272497,97.67868517071474 61.46128373965621,97.47517134726513 57.133246523328125,98.28922647237778 48.31687441654503,98.08571273251437 43.34764650184661,98.08571273251437 41.103479055687785,100.12084887805395 39.50050230976194,103.78408693755046 42.065265104174614,109.27892714797053 46.55359999462962,110.0929758270504 60.82009304035455,109.88946369860787 72.04093026835471,108.6683903473895 75.24688376113772,105.41218985256273 75.56747911125422,102.15598224464338 73.8042046893388,98.89976752467919 68.19378607533872,97.67868517071474 63.22455816157162,97.88219896552619 57.133246523328125,98.08571273251437 50.72133953589946,98.28922647237778 45.75211162213236,98.08571273251437 42.38586045335978,99.30679475318175 39.660799983888865,102.97003481327556 39.660799983888865,106.22624064271804 42.54615812841803,109.4824393595336 46.3933023205027,109.88946369860787 53.286102331243455,109.88946369860787 62.74366513732821,109.4824393595336 70.91884654480964,109.27892714797053 74.12480003852397,107.85434089018963 75.72777678444982,104.80165146756917 75.56747911125422,100.93490255821962 73.32331166509539,98.69625386828557 68.83497677370906,97.47517134726513 64.66723723243922,97.47517134726513 61.9421767629683,97.47517134726513 54.08759070467204,98.28922647237778 51.68312558438629,98.28922647237778 48.6374697657302,98.28922647237778 43.98883720021695,98.69625386828557 39.82109765894711,102.35949542862363 39.50050230976194,104.19111283298116 40.78288370743394,107.85434089018963 44.30943254940212,109.88946369860787 51.202232560142875,109.88946369860787 71.72033491823822,109.07541490893345 74.76599073689431,106.83677844400518 74.92628841195256,100.32436233956832 72.20122794248164,97.88219896552619 65.62902328185737,97.67868517071474 61.9421767629683,97.88219896552619 58.2553302468732,98.49274018441793 55.53026977740228,98.49274018441793 53.12580465711653,98.08571273251437 47.35508836898953,98.49274018441793 42.706455803476274,98.89976752467919 40.301990683190525,101.74895579344593 40.301990683190525,106.83677844400518 42.22556277923286,109.07541490893345 50.72133953589946,110.0929758270504 57.133246523328125,109.88946369860787 69.79676282219589,109.68595154315699 73.48360934015363,108.46487802453339 75.72777678444982,105.2086770851165 75.0865860870108,100.12084887805395 71.39973956905305,97.47517134726513 67.23200002778322,97.06814361875877 61.14068838953972,97.47517134726513 56.81265117414296,98.08571273251437 51.68312558438629,98.69625386828557 47.996279067359865,98.89976752467919 42.8667534776032,98.89976752467919 39.98139533307403,101.95246903295629 41.26377673074603,108.0578532962827 44.46973022446036,109.88946369860787 73.8042046893388,108.0578532962827 75.56747911125422,103.17354788642842 74.76599073689431,100.52787577384152 69.15557212382555,97.47517134726513 65.62902328185737,97.88219896552619 62.74366513732821,97.88219896552619 59.537711643613875,97.88219896552619 53.92729302961379,97.88219896552619 51.68312558438629,98.08571273251437 48.79776744078845,97.88219896552619 41.26377673074603,99.510308326222 39.50050230976194,103.17354788642842 40.62258603237569,107.24380350590218 44.79032557364553,109.88946369860787 49.59925581328571,110.5 55.85086512565613,110.0929758270504 71.23944189399481,109.27892714797053 74.92628841195256,106.63326587178744 75.88807445950806,102.15598224464338 73.8042046893388,98.89976752467919 68.51438142545521,97.27165749704 62.90396281145513,97.67868517071474 59.858306992799044,98.49274018441793 57.774437222629786,98.08571273251437 53.44640000537038,98.49274018441793 47.83598139230162,98.69625386828557 42.706455803476274,98.69625386828557 39.82109765894711,102.76652171311434 39.82109765894711,106.0227279869141 41.90496743004769,108.87190264160745 48.6374697657302,110.29648792697117 59.217116293497384,109.68595154315699 64.5069395583123,109.68595154315699 68.35408375039697,108.87190264160745 73.0027163149789,108.26136567431968 75.72777678444982,105.41218985256273 75.56747911125422,101.34192923177034 72.36152561753988,97.88219896552619 66.10991630516946,97.27165749704 59.05681861937046,97.47517134726513 52.96550698205829,97.67868517071474 42.065265104174614,99.10328115301672 40.62258603237569,100.93490255821962 39.50050230976194,105.2086770851165 41.90496743004769,108.6683903473895 53.44640000537038,109.88946369860787 68.35408375039697,109.68595154315699 71.72033491823822,109.27892714797053 76.0483721345663,105.41218985256273 74.44539538770914,99.10328115301672 70.91884654480964,97.27165749704 66.10991630516946,97.27165749704 61.62158141378313,97.27165749704 59.05681861937046,97.47517134726513 53.76699535455555,97.88219896552619 49.9198511634022,98.28922647237778 44.95062324870378,98.69625386828557 40.78288370743394,101.34192923177034 36.13425114098936,104.19111283298116 35.01216741837561,102.97003481327556 34.691572070121765,96.45760181639344 28.119367407634854,96.45760181639344 27.798772058449686,94.82948912191205 27.31787903420627,93.60840343334712 26.83698601089418,91.57325839693658 26.195795312523842,87.50295998947695 25.554604613222182,83.83968191884924 25.554604613222182,80.58342718833592 25.39430693909526,67.55833713279571 25.234009264037013,62.673899019137025 25.07371158991009,58.19648335466627 25.39430693909526,54.73665294784587 25.234009264037013,50.46273371134885 25.234009264037013,47.61344741261564 24.592818564735353,45.78176048700698 25.234009264037013,44.1535924411146 24.7531162397936,40.6937294396339 24.11192554142326,34.58806925674435 24.11192554142326,31.942275410401635 25.554604613222182,29.5" stroke="#4DD2FF" stroke-linecap="round" stroke-linejoin="round" stroke-width="0.5"><title>2025-06-06 6.69km</title><desc>14709098004</desc></polyline></svg>