<?xml version="1.0" encoding="utf-8" ?>
<svg baseProfile="full" height="130mm" version="1.1" viewBox="0,0,100,130" width="100mm" xmlns="http://www.w3.org/2000/svg" xmlns:ev="http://www.w3.org/2001/xml-events" xmlns:xlink="http://www.w3.org/1999/xlink"><defs /><rect fill="#FAF9F5" height="130" width="100" x="0" y="0" /><text fill="#5A5A5A" style="font-size:6px; font-family:Arial; font-weight:bold;color:#0ed45e;" x="5" y="10">无题热身</text><text fill="#5A5A5A" style="font-size:4px; font-family:Arial" x="5" y="121">Runner</text><text fill="#5A5A5A" style="font-size:6px; font-family:Arial" x="2" y="128">蓝皮书</text><text fill="#5A5A5A" style="font-size:4px; font-family:Arial" x="25" y="121">WORKOUTS INFO</text><text fill="#5A5A5A" style="font-size:3px; font-family:Arial" x="25" y="125">Type: Run</text><text fill="#5A5A5A" style="font-size:3px; font-family:Arial" x="22" y="129">Date: 2025-07-18</text><text fill="#5A5A5A" style="font-size:3px; font-family:Arial" x="47" y="125">Distance: 2.89 km</text><text fill="#5A5A5A" style="font-size:3px; font-family:Arial" x="47" y="129">Duration: 18:32min</text><text fill="#5A5A5A" style="font-size:3px; font-family:Arial" x="75" y="125">Pace: 6:24/km</text><text fill="#5A5A5A" style="font-size:3px; font-family:Arial" x="75" y="129">Elevation: 35m</text><polyline fill="none" points="10.54291845485568,65.58642216818407 9.847639484331012,69.11731277685612 10.195278968662024,74.8550017925445 9.5,77.50316251884215 12.281115878373384,77.50316251884215 15.409871244803071,81.47539954143576 17.148068668320775,82.3581182169728 19.929184548556805,85.0062727977056 30.358369098976254,82.79947746358812 39.74463519267738,83.24083665153012 42.87339055724442,81.91675890958868 43.9163090121001,82.3581182169728 54.69313304685056,81.91675890958868 58.864806866273284,82.3581182169728 64.07939914241433,81.91675890958868 65.12231759540737,81.03404011344537 73.1180257499218,81.03404011344537 81.11373390629888,82.79947746358812 84.93776823952794,80.15132107702084 89.80472102947533,73.53092061635107 90.5,69.55867383256555 90.15236051566899,65.58642216818407 89.80472102947533,63.37961357925087 88.06652360595763,61.17280348413624 83.8948497865349,57.641904197167605 79.02789699658751,55.435090185375884 69.9892703872174,55.876453107455745 68.25107296183705,55.435090185375884 65.12231759540737,56.317815971095115 61.645922746509314,55.876453107455745 58.864806866273284,56.759178773034364 56.083690986037254,55.876453107455745 49.82618025690317,56.759178773034364 44.95922746695578,55.876453107455745 37.65879828296602,56.317815971095115 28.620171673595905,55.435090185375884 17.495708154514432,58.0832668193616 13.32403433509171,60.2900790234562 12.281115878373384,62.055527702206746 10.890557937324047,70.88275663601235 12.281115878373384,75.7377222769428 14.019313303753734,79.70996146742254 15.409871244803071,81.03404011344537 20.27682403475046,83.24083665153012 31.7489270363003,82.3581182169728 40.43991416320205,82.79947746358812 63.731759656220675,80.59268062445335 79.02789699658751,81.91675890958868 84.24248927086592,79.70996146742254 87.37124463543296,76.62044251803309 89.45708154514432,71.76547820377164 89.80472102947533,70.000034827739 88.7618025764823,65.58642216818407 87.37124463543296,62.055527702206746 83.8948497865349,57.641904197167605 80.76609442010522,55.876453107455745 64.07939914241433,56.759178773034364 60.25536480732262,55.876453107455745 50.17381974309683,57.200541514437646 45.654506435617805,56.759178773034364 39.74463519267738,57.641904197167605 35.92060085758567,56.317815971095115 32.09656652249396,55.876453107455745 28.272532189264894,57.200541514437646 20.27682403475046,57.200541514437646 13.32403433509171,61.17280348413624 11.238197423517704,64.26233719615266 10.54291845485568,70.000034827739 10.54291845485568,72.2068388974294 14.36695278994739,79.70996146742254 17.495708154514432,81.91675890958868 22.015021458268166,83.24083665153012 30.706008583307266,81.47539954143576 33.13948497734964,81.91675890958868 36.96351931244135,83.24083665153012 48.78326180204749,81.47539954143576 59.56008583679795,82.3581182169728 68.59871244616807,81.47539954143576 69.64163090102375,82.3581182169728 71.7274678107351,81.91675890958868 77.63733905553818,82.3581182169728 83.19957081414759,81.03404011344537 84.93776823952794,79.70996146742254 88.7618025764823,76.17908242740668 90.5,71.32411745027639 90.15236051566899,65.58642216818407 86.32832617871463,58.52462938055396 80.07081544958055,55.876453107455745 72.07510729692876,56.759178773034364 65.81759656593204,55.876453107455745 61.645922746509314,56.317815971095115 59.907725321128964,55.876453107455745 51.56437768228352,56.759178773034364 50.521459225565195,57.200541514437646 41.135193133726716,54.993727202527225 37.311158798635006,55.876453107455745 35.57296137325466,55.435090185375884 31.401287553831935,55.876453107455745 30.358369098976254,55.435090185375884 26.881974248215556,56.317815971095115 20.972103003412485,56.317815971095115 13.32403433509171,60.2900790234562 11.933476394042373,62.49688972206786 10.54291845485568,68.23459048732184 11.238197423517704,73.53092061635107 13.671673819422722,78.38588227936998 17.8433476369828,81.47539954143576 19.929184548556805,82.3581182169728 26.534334763884544,82.79947746358812 37.65879828296602,81.91675890958868 51.21673819795251,82.79947746358812 54.69313304685056,81.91675890958868 57.12660944275558,82.3581182169728 66.86051502078772,81.47539954143576 79.02789699658751,82.3581182169728 82.50429184548557,80.59268062445335 85.63304721005261,77.50316251884215 88.41416309028864,73.97228106786497 89.45708154514432,70.44139576191083 88.7618025764823,65.14506057044491 86.32832617871463,60.73144128336571 84.93776823952794,59.4073543229606 79.37553647905588,56.759178773034364 77.28969956934452,57.200541514437646 70.33690987154841,55.876453107455745 66.16523605026305,56.759178773034364 65.12231759540737,55.876453107455745 61.99356223270297,55.876453107455745 55.73605150170624,56.317815971095115 51.91201716661453,57.200541514437646 48.43562231771648,56.759178773034364 42.52575107291341,57.200541514437646 35.92060085758567,55.876453107455745 27.924892703071237,57.200541514437646 23.057939913123846,56.317815971095115 15.062231758609414,60.2900790234562 12.281115878373384,62.49688972206786 11.933476394042373,64.7036989131011 11.585836907848716,70.44139576191083 12.628755364567041,75.7377222769428 15.757510730996728,80.15132107702084 19.233905578032136,81.91675890958868 39.04935622215271,82.79947746358812 65.46995707973838,82.3581182169728 67.20815450698137,81.47539954143576 69.29399141483009,82.3581182169728 79.72317596524954,82.3581182169728 83.54721030034125,80.15132107702084 87.71888411976397,76.62044251803309 89.10944205895066,74.41364146117121 89.80472102947533,72.64819953031838 89.80472102947533,66.46914518228732 87.37124463543296,61.614165623206645 85.2854077257216,59.4073543229606 81.80901287682354,57.641904197167605 78.33261802606285,56.759178773034364 69.29399141483009,57.200541514437646 68.94635193049908,56.759178773034364 63.38412017188966,57.200541514437646 60.60300429165363,56.759178773034364 49.13090128824115,58.0832668193616 40.09227467700839,57.641904197167605 40.09227467700839,57.200541514437646 20.27682403475046,58.0832668193616 18.190987123176455,58.52462938055396 12.976394848898053,63.37961357925087 11.933476394042373,66.91050659818575 11.585836907848716,71.76547820377164 12.628755364567041,76.17908242740668 16.45278969965875,80.59268062445335 24.448497854173183,83.24083665153012 29.663090128451586,81.91675890958868 39.74463519267738,83.24083665153012 46.34978540800512,82.3581182169728 48.78326180204749,83.24083665153012 56.083690986037254,81.91675890958868 63.731759656220675,82.79947746358812 81.11373390629888,81.03404011344537 84.93776823952794,79.26860179868527 88.06652360595763,76.17908242740668 89.45708154514432,72.2068388974294 89.45708154514432,66.46914518228732 88.7618025764823,64.26233719615266 85.98068669624627,60.73144128336571 84.59012875519693,59.4073543229606 78.33261802606285,57.200541514437646 77.28969956934452,56.317815971095115 69.64163090102375,57.641904197167605 63.38412017188966,55.876453107455745 53.99785407632589,55.876453107455745 41.48283261619508,57.641904197167605 34.87768240272999,57.641904197167605 31.053648067638278,56.759178773034364 25.491416309028864,58.0832668193616 21.319742489606142,57.641904197167605" stroke="#4DD2FF" stroke-linecap="round" stroke-linejoin="round" stroke-width="0.5"><title>2025-07-18 2.89km</title><desc>15149223239</desc></polyline></svg>