<?xml version="1.0" encoding="utf-8" ?>
<svg baseProfile="full" height="130mm" version="1.1" viewBox="0,0,100,130" width="100mm" xmlns="http://www.w3.org/2000/svg" xmlns:ev="http://www.w3.org/2001/xml-events" xmlns:xlink="http://www.w3.org/1999/xlink"><defs /><rect fill="#222222" height="130" width="100" x="0" y="0" /><text fill="#FFFFFF" style="font-size:6px; font-family:Arial; font-weight:bold;color:#0ed45e;" x="5" y="10">方寸之间</text><text fill="#FFFFFF" style="font-size:4px; font-family:Arial" x="5" y="121">Runner</text><text fill="#FFFFFF" style="font-size:6px; font-family:Arial" x="2" y="128">蓝皮书</text><text fill="#FFFFFF" style="font-size:4px; font-family:Arial" x="25" y="121">WORKOUTS INFO</text><text fill="#FFFFFF" style="font-size:3px; font-family:Arial" x="25" y="125">Type: Run</text><text fill="#FFFFFF" style="font-size:3px; font-family:Arial" x="22" y="129">Date: 2025-06-18</text><text fill="#FFFFFF" style="font-size:3px; font-family:Arial" x="47" y="125">Distance: 7.18 km</text><text fill="#FFFFFF" style="font-size:3px; font-family:Arial" x="47" y="129">Duration: 49:02min</text><text fill="#FFFFFF" style="font-size:3px; font-family:Arial" x="75" y="125">Pace: 6:49/km</text><text fill="#FFFFFF" style="font-size:3px; font-family:Arial" x="75" y="129">Elevation: 4m</text><polyline fill="none" points="87.57581227459013,54.452566244639456 89.18411552347243,54.452566244639456 89.7689530691132,57.42288617149461 89.98826714837924,64.84862920228625 90.28068592073396,69.76813928672345 90.35379061382264,72.36711137305247 90.35379061382264,74.03787389554782 90.5,75.98709164821776 90.1344765345566,80.53524466807721 89.54963898938149,83.59826934966259 88.16064981976524,83.8767254545237 86.77166065014899,83.69108806387521 84.94404332153499,83.96954413084313 83.9205776178278,84.2480000834912 81.94675090257078,83.96954413084313 80.19223826751113,84.15518144518137 78.14530685963109,84.34081870905356 76.61010830337182,84.06236279429868 74.78249097475782,84.61927450972144 70.83483754564077,84.71209308458492 69.08032491011545,84.61927450972144 67.32581227459013,84.61927450972144 64.69404332153499,84.43363732181024 62.13537906203419,84.61927450972144 59.79602888133377,84.71209308458492 58.11462093889713,85.0833672574372 56.50631768954918,84.99054873309797 54.38628158858046,84.89773019630229 50.2193140797317,84.80491164699197 47.66064981976524,84.89773019630229 46.052346570882946,85.36182275391184 41.446750903036445,85.82591499469709 40.56949458504096,85.7330965718138 37.060469314455986,85.64027813624125 35.59837545175105,85.7330965718138 34.28249097475782,85.454641227494 33.551444043405354,85.54745968821226 31.504512635525316,85.54745968821226 29.823104693554342,85.64027813624125 26.825812274590135,85.7330965718138 25.363718411885202,85.82591499469709 23.09747292427346,85.91873340465827 20.83122743666172,86.10437018692028 16.22563176928088,86.01155180198839 14.909747292287648,86.01155180198839 12.570397112052888,86.01155180198839 10.157942238263786,85.26900426775683 9.865523465909064,82.02034926757915 9.938628158997744,80.99934020393994 9.865523465909064,79.42141408892348 10.011732852086425,72.83121248573298 9.719314079731703,70.88198568322696 9.792418772820383,69.86095988954185 10.45036101108417,67.4476200985373 10.45036101108417,64.66298661543988 9.573104693554342,62.71373638958903 9.719314079731703,60.67165872937767 10.45036101108417,56.49466258875327 15.640794224105775,56.49466258875327 19.222924187779427,56.40184016065905 23.02436823118478,56.40184016065905 24.19404332153499,56.30901771999197 26.38718411559239,56.12337280041538 28.214801444206387,56.12337280041538 32.82039711205289,55.937727830547374 35.08664259966463,56.12337280041538 38.88808664260432,56.216195266577415 40.496389891486615,56.12337280041538 41.81227436847985,55.6592602803139 44.590252708178014,55.6592602803139 47.44133574003354,55.47361518332036 51.608303249347955,55.380792615993414 56.87184115545824,55.1951474432135 57.82220216607675,55.56643773813266 60.673285198863596,55.75208280963125 61.98916967539117,55.380792615993414 64.91335740080103,55.10232483764412 66.00992779806256,55.1951474432135 68.12996389949694,55.0095022196183 70.76173285208642,54.916679588437546 71.7120938631706,54.916679588437546 72.8817689535208,55.10232483764412 80.19223826751113,54.452566244639456 83.40884476574138,54.17409808578668 85.89440433261916,53.988452583318576 87.57581227459013,54.2669208177831 88.45306859211996,54.35974353749771 89.84205776173621,55.84490532655036 89.98826714837924,59.00086335337255 89.7689530691132,61.13576782727614 90.06137184146792,62.528093219792936 90.28068592073396,66.05530478269793 90.06137184146792,70.88198568322696 90.35379061382264,74.50197386747459 90.42689530691132,76.35837058647303 90.28068592073396,82.20598711445928 88.5261732856743,84.2480000834912 86.77166065014899,83.96954413084313 83.40884476574138,84.2480000834912 82.16606498230249,84.15518144518137 80.04602888133377,84.15518144518137 79.0956678702496,84.43363732181024 77.04873646236956,83.8767254545237 74.41696750931442,84.71209308458492 73.02797833969817,84.52645592211047 71.85830324934795,84.61927450972144 65.71750902524218,84.99054873309797 64.91335740080103,84.89773019630229 63.962996390182525,84.99054873309797 63.37815884500742,85.0833672574372 62.50090252747759,84.71209308458492 61.03880866477266,84.89773019630229 59.64981949515641,84.61927450972144 58.18772563152015,84.99054873309797 53.50902527105063,85.0833672574372 51.754512635525316,84.80491164699197 51.24277978390455,84.52645592211047 50.731046931352466,83.96954413084313 47.148916967678815,84.80491164699197 43.859205776359886,85.36182275391184 43.5667870035395,85.36182275391184 41.95848375465721,85.54745968821226 39.253610108513385,85.64027813624125 36.47563176928088,85.36182275391184 35.23285198584199,85.54745968821226 30.99277978343889,85.454641227494 28.214801444206387,85.7330965718138 26.898916967678815,85.82591499469709 19.149819494690746,86.01155180198839 16.444945848546922,85.82591499469709 14.324909747578204,85.82591499469709 11.035198556259274,85.91873340465827 10.157942238263786,84.52645592211047 10.084837545175105,79.32859479170293 10.231046931818128,76.72964932193281 10.377256317995489,74.22351392218843 10.084837545175105,72.45993162115337 10.084837545175105,70.04660105705261 10.304151624441147,68.09736626973609 10.304151624441147,66.5194102046662 10.45036101108417,65.40555665938882 9.938628158997744,61.22858960897429 9.5,57.60853073594626 10.304151624441147,56.86595217400463 13.155234657227993,56.587485003925394 15.494584837928414,56.587485003925394 17.468411552719772,56.77312979660928 18.63808664260432,56.77312979660928 22.220216606743634,56.77312979660928 25.1444043321535,56.587485003925394 27.33754512667656,56.0305503217387 28.50722021702677,56.0305503217387 30.334837545175105,56.0305503217387 32.527978339698166,56.216195266577415 37.79151624580845,56.216195266577415 40.13086642604321,55.84490532655036 41.592960288748145,55.75208280963125 42.90884476574138,55.75208280963125 44.15162454918027,55.937727830547374 45.83303249115124,56.12337280041538 49.12274368247017,55.84490532655036 55.994584837928414,55.1951474432135 60.527075812686235,55.75208280963125 62.50090252747759,55.75208280963125 64.62093862798065,55.1951474432135 66.66787003632635,54.916679588437546 67.25270758150145,55.0095022196183 68.20306859211996,55.0095022196183 70.54241877282038,55.1951474432135 72.44314079452306,55.287970035977196 74.92870036140084,54.823856945033185 77.99909747298807,54.73103428899776 78.7301444048062,55.0095022196183 79.89981949469075,55.0095022196183 81.1425992785953,54.916679588437546 81.87364620994776,55.380792615993414 84.57851985609159,54.638211620331276 87.57581227459013,54.54538893868448 89.33032491011545,55.0095022196183 90.06137184146792,59.37215156975435 90.06137184146792,60.95012422616128 89.98826714837924,63.177844093355816 90.1344765345566,64.66298661543988 90.42689530691132,73.75941376044648 90.1344765345566,78.86449811526109 89.9151624548249,83.31981313065626 86.47924187779427,84.43363732181024 84.79783393535763,83.78390676545678 81.72743682330474,83.78390676545678 77.04873646236956,84.2480000834912 75.87906137201935,84.52645592211047 73.61281588487327,84.80491164699197 72.44314079452306,84.52645592211047 69.81137184146792,84.71209308458492 69.00722021656111,84.71209308458492 67.03339350223541,84.61927450972144 65.05956678744406,84.80491164699197 62.13537906203419,84.61927450972144 61.40433213021606,84.52645592211047 58.407039711251855,84.99054873309797 56.79873646236956,84.89773019630229 55.044223826844245,84.99054873309797 53.43592057796195,85.0833672574372 51.462093863170594,84.15518144518137 51.535198556259274,82.76290035079 51.608303249347955,79.6998719049734 51.462093863170594,77.47220618429128 51.462093863170594,76.63682965689804 51.462093863170594,74.59479382372228 51.24277978390455,72.45993162115337 50.80415162490681,67.91172456962522 51.09657039726153,66.983515310043 51.02346570417285,64.29170128901023 50.511732852086425,57.23724155622767 51.24277978390455,55.56643773813266 53.50902527105063,55.56643773813266 58.11462093889713,55.380792615993414 60.527075812686235,55.6592602803139 62.57400722010061,55.380792615993414 63.37815884500742,55.380792615993414 65.49819494597614,55.287970035977196 67.4720216607675,55.0095022196183 70.17689530737698,55.10232483764412 71.12725631752983,55.287970035977196 74.27075812313706,55.0095022196183 76.02527075866237,55.1951474432135 77.4873646213673,54.73103428899776 78.94945848407224,55.287970035977196 70.54241877282038,54.638211620331276 67.6913357404992,54.73103428899776 66.59476534323767,54.916679588437546 65.64440433261916,54.916679588437546 64.0361010832712,54.916679588437546" stroke="#4DD2FF" stroke-linecap="round" stroke-linejoin="round" stroke-width="0.5"><title>2025-06-18 7.18km</title><desc>14833180406</desc></polyline></svg>