<?xml version="1.0" encoding="utf-8" ?>
<svg baseProfile="full" height="130mm" version="1.1" viewBox="0,0,100,130" width="100mm" xmlns="http://www.w3.org/2000/svg" xmlns:ev="http://www.w3.org/2001/xml-events" xmlns:xlink="http://www.w3.org/1999/xlink"><defs /><rect fill="#FAF9F5" height="130" width="100" x="0" y="0" /><text fill="#5A5A5A" style="font-size:6px; font-family:Arial; font-weight:bold;" x="5" y="10">2025-01-31 Workouts</text><text fill="#5A5A5A" style="font-size:4px; font-family:Arial" x="5" y="121">Runner</text><text fill="#5A5A5A" style="font-size:6px; font-family:Arial" x="2" y="128">蓝皮书</text><text fill="#5A5A5A" style="font-size:4px; font-family:Arial" x="25" y="121">STATISTICS</text><text fill="#5A5A5A" style="font-size:3px; font-family:Arial" x="25" y="125">Number: 2</text><text fill="#5A5A5A" style="font-size:3px; font-family:Arial" x="25" y="129">Weekly: 2.0</text><text fill="#5A5A5A" style="font-size:3px; font-family:Arial" x="48" y="125">Total: 8.2 km</text><text fill="#5A5A5A" style="font-size:3px; font-family:Arial" x="48" y="129">Avg: 4.1 km</text><text fill="#5A5A5A" style="font-size:3px; font-family:Arial" x="75" y="125">Min: 3.0 km</text><text fill="#5A5A5A" style="font-size:3px; font-family:Arial" x="75" y="129">Max: 5.2 km</text><polyline fill="none" points="43.03789340192452,63.71438925876282 44.21934179402888,63.5001093079336 44.38812013575807,63.60724929079879 44.4725093068555,63.928669151093345 44.894455160945654,63.928669151093345 45.4007901865989,64.14294898486696 45.48517935723066,64.46436862583505 45.48517935723066,65.10720751289045 45.738346870522946,65.42862675880315 45.48517935723066,65.75004587334115 46.07590355351567,66.71430242649512 46.41346023743972,66.92858149966924 46.75101692089811,66.92858149966924 47.426130287814885,67.14286051457748 48.860746193211526,66.71430242649512 50.80169712333009,66.82144197059097 51.47681049071252,67.14286051457748 52.48948054155335,67.14286051457748 54.008485617116094,66.82144197059097 53.92409644694999,66.92858149966924 54.09287478821352,66.28574410476722 54.34604230104014,66.28574410476722 56.45577157335356,66.39288370712893 57.21527411136776,66.6071628681384 58.31233333284035,66.6071628681384 58.98744670022279,66.82144197059097 58.98744670022279,67.03572101460304 59.156225041951984,66.17860448756255 60.000116750597954,66.07146485615522 61.01278680143878,66.39288370712893 61.35034348489717,66.17860448756255 62.194235193543136,66.6071628681384 62.953737732023,66.50002329499694 63.628851098939776,65.32148702489212 64.21957529522479,64.89292794233188 64.38835363695398,64.3572287602583 64.6415211497806,64.14294898486696 64.30396446585655,62.53584880527342 64.55713197868317,62.00014801422367 64.13518612412736,62.00014801422367 64.13518612412736,61.678727363818325 63.79762944066897,61.03588566859253 62.86934856045991,60.285903025069274 61.51912182662636,59.8573411925463 59.83133840886876,60.285903025069274 57.974776649381965,61.35730658198008 57.55283079482615,61.46444685739698 56.286993231158704,61.89300781185739 55.61187986377627,62.00014801422367 53.83970727585256,61.03588566859253 53.080204737372696,61.143025987548754 52.827037225011736,60.92874533490976 52.32070219935849,61.143025987548754 50.97047546552494,61.03588566859253 50.71730795269832,60.92874533490976 50.80169712333009,60.71446462342283 50.632918782066554,60.500183853146154 49.62024873122573,60.500183853146154 49.36708121886477,60.821604986384045 46.582238579168916,61.57158711791271 45.2320118448697,62.85726910439553 45.06323350314051,63.928669151093345 44.72567681968212,64.3572287602583 44.81006599031389,64.67864831339102 45.31640101550147,65.21434727613814 45.2320118448697,65.32148702489212 45.56956852832809,65.9643252097303 45.90712521178648,66.07146485615522 45.991514382883906,66.39288370712893 48.270021996926516,67.14286051457748 50.042194585781544,67.03572101460304 51.729978003539145,67.14286051457748 53.417761421296746,66.71430242649512 57.384052453096956,67.03572101460304 57.80599830718711,66.92858149966924 58.22794416220859,66.6071628681384 59.662560067139566,66.82144197059097 61.85667851055041,66.71430242649512 62.953737732023,66.28574410476722 63.8820186117664,65.53576647810405 64.55713197868317,64.25008887972217 64.6415211497806,63.28582929860568 64.55713197868317,62.2144283746602 63.54446192830801,61.25016629212769 62.10984602291137,60.39304344647098 61.097175972536206,60.39304344647098 60.42206260515377,60.17876258864999 59.24061421258375,60.39304344647098 58.56550084520131,60.285903025069274 55.27432318078354,60.71446462342283 55.189934010151774,60.39304344647098 54.17726395931095,60.607324245618656 53.50215059192851,60.500183853146154 51.56119966134429,60.92874533490976 48.016854484099895,60.92874533490976 47.0885736043565,61.143025987548754 45.991514382883906,61.89300781185739 45.31640101550147,62.96440917509608 45.147622673772275,63.60724929079879 45.31640101550147,64.7857881350792 45.738346870522946,65.75004587334115 46.1602927246131,66.28574410476722 47.51051945891231,66.92858149966924 58.22794416220859,66.39288370712893 59.915727579500526,66.39288370712893 60.844008459709585,66.71430242649512 62.44740270636976,66.71430242649512 63.713240270037204,65.8571855489281 64.30396446585655,65.00006773509085 64.6415211497806,64.03580907522701 64.47274280758575,63.71438925876282 64.47274280758575,62.96440917509608 64.30396446585655,62.42870867624879 63.79762944066897,61.25016629212769 63.03812690312043,60.92874533490976 61.941067681182176,60.607324245618656 59.409392554312944,60.500183853146154 54.599209813866764,60.92874533490976 52.911426396109164,60.821604986384045 48.016854484099895,60.92874533490976 47.00418443325907,61.143025987548754 46.07590355351567,61.89300781185739 45.4007901865989,63.28582929860568 45.2320118448697,64.3572287602583 45.4007901865989,65.00006773509085 45.991514382883906,66.07146485615522 46.919795262627304,66.6071628681384 47.679297800175846,66.82144197059097 57.21527411136776,66.6071628681384 57.974776649381965,66.50002329499694 58.14355499111116,66.28574410476722 61.60351099772379,66.17860448756255 62.70057021919638,65.9643252097303 63.46007275721058,65.42862675880315 63.966407782863826,64.7857881350792 64.38835363695398,63.60724929079879 64.30396446585655,62.53584880527342 63.79762944066897,61.57158711791271 62.86934856045991,60.71446462342283 62.194235193543136,60.39304344647098 59.32500338368118,60.607324245618656 57.974776649381965,60.607324245618656 55.443101522512734,60.71446462342283 54.76798815559596,60.607324245618656 52.573869712185115,60.821604986384045 51.89875634526834,60.607324245618656 50.4641404398717,61.03588566859253 50.12658375641331,60.821604986384045 50.12658375641331,60.607324245618656 49.36708121886477,61.03588566859253 49.19830287666991,60.71446462342283 48.607578680850565,60.821604986384045 48.69196785101667,60.71446462342283 48.52318950928748,60.607324245618656 48.35441116755828,60.607324245618656 48.10124365519732,60.500183853146154 47.51051945891231,60.92874533490976 47.172962775453925,60.92874533490976 46.582238579168916,61.46444685739698 46.41346023743972,61.35730658198008 45.82273604068905,62.10728820157237 45.147622673772275,64.57150847668527 45.31640101550147,65.42862675880315 45.738346870522946,66.17860448756255 46.329071066342294,66.50002329499694 46.582238579168916,66.92858149966924 46.835406091529876,66.71430242649512 47.76368697127327,67.03572101460304 51.2236429778859,66.39288370712893 52.06753468653187,66.28574410476722 52.573869712185115,66.39288370712893 53.164593908470124,66.17860448756255 53.83970727585256,66.50002329499694 54.17726395931095,67.03572101460304 54.68359898449853,67.03572101460304 54.68359898449853,67.25 55.27432318078354,66.82144197059097 56.37138240225613,67.03572101460304 56.87771742744371,66.92858149966924 57.130884940270334,66.71430242649512 57.384052453096956,66.6071628681384 58.90305752912536,66.71430242649512 60.000116750597954,67.03572101460304 60.5064517762512,66.82144197059097 61.097175972536206,66.92858149966924 62.0254568522796,66.92858149966924 62.86934856045991,66.71430242649512 63.375683586578816,66.17860448756255 64.6415211497806,64.25008887972217 64.30396446585655,63.71438925876282 64.21957529522479,62.2144283746602 62.70057021919638,60.607324245618656 62.70057021919638,59.42877912608674 62.194235193543136,59.2144980050507 61.51912182662636,59.2144980050507 61.01278680143878,58.78593558788998 60.33767343405634,58.57165429129964 57.55283079482615,58.57165429129964 56.96210659854114,58.035950794117525 56.87771742744371,57.607387732598 56.96210659854114,56.75026090844767 56.96210659854114,52.5717542336788 56.62454991461709,52.46461274451576 55.52749069361016,52.786037168698385 53.58653976302594,52.893178614089265 52.74264805391431,52.67889570823172 52.911426396109164,49.893212611670606 52.74264805391431,48.07179908687249 52.911426396109164,47.75037273176713 52.827037225011736,47.00037739123218 50.4641404398717,46.46466599503765 47.93246531346813,46.57180830358993 47.25735194608569,46.35752367193345 44.303730965126306,46.57180830358993 42.362780034542084,45.607527000422124 40.92816412914544,45.178957151889335 39.4935482237488,44.42895935405977 38.81843485683203,43.67896083928645 38.64965651510283,43.25038993713679 38.64965651510283,40.46467337128706 38.39648900274187,39.82181429787306 38.64965651510283,38.64323796227109 38.73404568620026,37.03608556074323 38.56526734493673,36.50036736228503 38.39648900274187,30.178864999616053 37.97454314818606,27.178812161379028 37.89015397708863,24.60732917144196 37.55259729363024,23.85731171182124 36.7930947560817,23.107293535606004 36.033592217601836,21.60725503246067 35.94920304650441,20.32150546152843 35.35847885068506,18.928607716283295 35.527257192414254,18.285730999545194 36.371148901060224,17.75" stroke="#4DD2FF" stroke-linecap="round" stroke-linejoin="round" stroke-width="0.5"><title>2025-01-31 3.0km</title><desc>13500159189</desc></polyline><polyline fill="none" points="49.95611702115275,110.34352125020814 50.0,111.06784763865289 49.73670212761499,111.90360725854407 49.73670212761499,112.07075897709001 49.95611702115275,112.46077938738745 49.91223404253833,112.57221372201457 50.08776595746167,113.24081908981316 50.04388297861442,114.85661087254994 49.91223404253833,115.24662862007972 49.56117021292448,115.52521249727579 48.7273936169222,115.91522960577277 48.55186170199886,115.80379618422012 47.89361702091992,115.80379618422012 46.44547872338444,115.91522960577277 45.74335106392391,115.85951289889636 44.99734042561613,115.9709463051986 44.51462765969336,115.85951289889636 43.81249999976717,116.02666299694101 43.24202127638273,115.91522960577277 42.89095744676888,116.02666299694101 42.1449468084611,115.9709463051986 41.22340425522998,116.13809635763755 41.04787234030664,116.02666299694101 40.78457446815446,116.13809635763755 40.30186170199886,116.08237968114554 39.55585106369108,116.24952968789148 38.72207446815446,116.3052463416534 36.74734042561613,116.13809635763755 36.3523936169222,116.24952968789148 34.94813829776831,116.24952968789148 34.24601063830778,116.19381302647525 32.18351063807495,116.4166796260979 31.21808510646224,116.3052463416534 30.12101063830778,116.3609629876737 29.46276595746167,116.47239625707152 28.40957446815446,116.4166796260979 28.05851063807495,116.52811288027442 27.7074468084611,116.4166796260979 27.61968085099943,116.47239625707152 26.91755319130607,116.47239625707152 26.30319148930721,116.08237968114554 26.12765957438387,115.58092924990342 26.08377659576945,115.30234541071695 26.25930851069279,114.91232771638897 26.17154255299829,113.79798939276952 26.0398936169222,113.29653615431744 26.12765957438387,112.79508229962084 26.0398936169222,112.57221372201457 26.08377659576945,112.29362782867975 26.0398936169222,112.12647620146163 26.12765957438387,111.79217274143593 26.0398936169222,111.01213026969344 26.12765957438387,110.28780378238298 26.0398936169222,108.39340535167139 26.12765957438387,107.89194547146326 25.99601063830778,107.22333133895881 25.95212765946053,105.99753591732588 26.12765957438387,103.49021563061979 25.95212765946053,102.71015728800558 25.95212765946053,102.37584611319471 25.82047872338444,101.595785640151 25.95212765946053,100.59284855489386 25.90824468061328,99.64562793294317 25.77659574453719,99.19987629106618 25.86436170223169,98.97700028764666 25.82047872338444,98.47552883456228 25.73271276592277,98.25265243544709 25.82047872338444,97.75118009207654 25.73271276592277,97.52830329738208 25.77659574453719,97.30542638074257 25.73271276592277,96.9153914838098 25.82047872338444,96.63679490060895 25.68882978707552,96.41391749700415 25.73271276592277,95.6338456258236 25.82047872338444,95.46668717361172 25.82047872338444,95.29952865300584 25.77659574453719,94.57517427220591 25.73271276592277,94.51945465133758 25.68882978707552,93.18218146418803 25.60106382984668,92.7921426256944 25.64494680869393,92.56926312213182 25.55718085099943,91.95634385902667 25.64494680869393,91.28770361322677 25.60106382984668,90.953383079177 25.68882978707552,90.28474118947634 25.55718085099943,89.17033560498385 25.42553191469051,89.00317450481816 25.38164893607609,87.83304488571594 25.46941489353776,87.61016267319792 25.38164893607609,87.27583912585396 25.33776595746167,86.66291191085475 25.29388297861442,86.55147050021333 25.38164893607609,85.65993811856606 25.33776595746167,85.49277558017639 25.46941489353776,85.26989208901068 25.29388297861442,84.48979891120689 25.38164893607609,84.09975176304579 25.38164893607609,82.539559441444 25.46941489353776,82.14951042883331 25.33776595746167,81.20224698865786 25.33776595746167,80.25498134904774 25.25,80.0878165961185 25.33776595746167,79.97637338927598 25.38164893607609,79.41915689932648 25.55718085099943,79.30771351000294 26.52260638284497,79.14054836900323 27.66356382961385,79.08482664014446 27.88297872338444,79.25199180384516 28.9800531915389,79.30771351000294 29.15558510646224,79.1962700902368 29.41888297861442,79.1962700902368 29.90159574453719,79.30771351000294 30.42819148930721,79.14054836900323 30.55984042561613,78.9733831595513 30.77925531915389,79.02910490357317 31.30585106369108,79.08482664014446 32.18351063807495,78.80621788138524 32.71010638284497,78.86193964828271 33.28058510646224,79.08482664014446 34.15824468061328,78.9733831595513 34.68484042561613,79.08482664014446 36.39627659576945,78.9733831595513 37.40558510646224,78.80621788138524 37.625,78.9176614077005 38.94148936169222,78.80621788138524 40.78457446815446,78.86193964828271 41.31117021269165,78.69477432474378 41.79388297861442,78.80621788138524 42.97872340423055,78.63905253491248 44.25132978730835,78.63905253491248 45.91888297861442,78.47188711972558 48.59574468084611,78.69477432474378 48.81515957438387,78.75049610689166 48.90292553207837,78.9176614077005 49.12234042561613,79.53060025829473 49.21010638284497,80.70075368857943 49.16622340423055,81.4251327017555 49.25398936169222,82.14951042883331 49.21010638284497,82.59528069852968 49.34175531915389,82.98532928494387 49.34175531915389,83.59826202460681 49.38563829800114,83.93258858541958 49.34175531915389,84.15547280712053 49.6050531915389,84.48979891120689 49.73670212761499,85.54849643385387 49.56117021292448,86.32858758734073 49.64893617015332,86.8857946410717 49.56117021292448,87.10867724946002 49.6050531915389,87.55444210101268 49.56117021292448,88.167367976479 49.64893617015332,88.78029293136206 49.6050531915389,90.34046138872509 49.69281914876774,90.8419428402558 49.56117021292448,91.90062388038496 49.56117021292448,92.6249830093875 49.42952127661556,92.84786248253658 49.47340425522998,94.3522957424866 49.56117021292448,94.51945465133758 49.56117021292448,95.80100400943775 49.47340425522998,96.19103997165803 49.56117021292448,96.41391749700415 49.56117021292448,96.85967218244332 49.51728723407723,97.02683006387088 49.56117021292448,97.24970713266521 49.42952127661556,97.47258407971822 49.29787234030664,97.52830329738208 48.81515957438387,97.58402250756626 47.67420212761499,97.41686485422542 45.56781914876774,97.24970713266521 45.34840425522998,97.36114562119474 44.95345744676888,97.30542638074257 43.59308510646224,97.52830329738208 38.98537234053947,97.47258407971822 37.66888297861442,97.69546090479707 37.18617021269165,97.69546090479707 36.74734042561613,97.52830329738208 35.43085106369108,97.80689927196363 35.16755319130607,97.69546090479707 34.72872340423055,97.80689927196363 33.67553191469051,97.69546090479707 31.30585106369108,97.86261844396358 29.81382978707552,97.69546090479707 28.71675531915389,97.80689927196363 27.75132978730835,97.63974171000882 27.44414893607609,97.80689927196363 26.91755319130607,97.86261844396358 25.90824468061328,97.75118009207654 25.68882978707552,97.63974171000882 25.55718085099943,97.36114562119474 25.64494680869393,97.19398787681712 25.55718085099943,97.02683006387088 25.68882978707552,96.63679490060895 25.64494680869393,95.85672345539206 25.55718085099943,95.1880896013754 25.55718085099943,94.1294170912006 25.73271276592277,93.01502200763207 25.68882978707552,91.56630384884193 25.73271276592277,90.78622270937194 25.46941489353776,87.94448594655842 25.60106382984668,86.55147050021333 25.51329787215218,86.16142532296362 25.60106382984668,85.82710058850353 25.73271276592277,84.266914872278 25.64494680869393,84.04403071149136 25.68882978707552,83.82114642907982 25.46941489353776,82.14951042883331 25.42553191469051,79.80920852240524 25.33776595746167,80.03209499650984 25.25,80.86791819051723 25.29388297861442,81.0908040862414 25.25,81.53657551275683 25.29388297861442,82.87388686969643 25.42553191469051,84.04403071149136 25.33776595746167,84.266914872278 25.33776595746167,85.43705471875728 25.42553191469051,85.82710058850353 25.25,87.22011850803392 25.25,88.167367976479 25.42553191469051,90.50762194112758 25.38164893607609,90.8419428402558 25.46941489353776,91.39914373020292 25.42553191469051,91.84490389420534 25.46941489353776,92.17922369757434 25.42553191469051,92.6807028890762 25.51329787215218,93.40506063311477 25.55718085099943,93.5722199298325 25.51329787215218,94.68661349144531 25.42553191469051,95.4109676744556 25.46941489353776,96.07960116348113 25.46941489353776,96.46963685937226 25.55718085099943,96.52535621405696 25.60106382984668,96.74823355671833 25.55718085099943,97.52830329738208 25.82047872338444,98.08549505611882 25.95212765946053,98.19693331667804 26.39095744676888,98.02977591456147 25.99601063830778,97.86261844396358 25.99601063830778,98.08549505611882 25.77659574453719,98.58696698860149 25.77659574453719,99.03271929992479 25.60106382984668,99.25559527301812 25.68882978707552,99.31131424737396 25.60106382984668,99.7570657672477 25.73271276592277,100.81572367582703 25.90824468061328,101.54006697790464 25.90824468061328,102.71015728800558 25.99601063830778,103.10018664572272 25.99601063830778,103.76880753441947 25.90824468061328,103.93596258532489 25.73271276592277,104.66030034833238 25.86436170223169,105.38463682550355 25.77659574453719,106.220408086112 25.86436170223169,106.38756213273155 25.95212765946053,107.0004597180232 25.86436170223169,107.27904922509333 25.95212765946053,108.33768761760439 25.86436170223169,108.56055850803386 25.90824468061328,109.45204085303703 25.86436170223169,109.61919357583974 25.99601063830778,110.62210847483948 25.95212765946053,110.95641289331252 25.99601063830778,111.79217274143593 25.90824468061328,112.07075897709001 26.12765957438387,113.29653615431744 26.25930851069279,115.1909118219337 26.34707446815446,115.41377896926133 26.74202127661556,115.58092924990342 26.87367021269165,115.80379618422012 27.48803191492334,116.19381302647525 28.14627659576945,116.3609629876737 29.50664893607609,116.3052463416534 30.20877659576945,116.4166796260979 31.39361702115275,116.4166796260979 31.56914893607609,116.52811288027442 37.01063829800114,116.3052463416534 37.75664893630892,116.4166796260979 38.80984042561613,116.3609629876737 40.12632978730835,116.4166796260979 43.28590425522998,116.24952968789148 45.08510638284497,116.3052463416534 45.39228723407723,116.19381302647525 46.00664893630892,116.13809635763755 47.41090425522998,116.19381302647525 48.42021276592277,116.08237968114554 48.85904255323112,116.19381302647525 49.56117021292448,116.13809635763755 49.78058510646224,116.02666299694101 49.91223404253833,115.80379618422012 50.04388297861442,114.80089402096928 49.95611702115275,114.46659275220009 49.95611702115275,113.96514033529093 50.04388297861442,113.74227239677566 50.08776595746167,112.96223365311744 49.91223404253833,112.57221372201457 49.91223404253833,112.34934502260876 49.91223404253833,111.12356499995803 50.04388297861442,110.28780378238298 49.95611702115275,109.95349881608854 50.0,109.2848880616657 49.91223404253833,109.06201756687369 49.91223404253833,108.83914695016574 50.17553191492334,108.44912307799677 50.57047872338444,108.11481660534628 50.65824468084611,108.44912307799677 50.65824468084611,108.83914695016574 50.74601063830778,109.45204085303703 50.61436170223169,110.06493383520865 50.65824468084611,110.90069550927728 50.83377659576945,111.29071703800582 50.7898936169222,111.62502090880298 50.8776595746167,112.18219341806252 50.8776595746167,112.62793087781756 51.09707446815446,113.63083838176681 50.96542553184554,114.1880081523268 51.05319148930721,114.52230964929913 50.92154255299829,114.91232771638897 50.92154255299829,115.1909118219337 51.00930851069279,115.24662862007972 51.14095744700171,115.63664599487674 51.36037234053947,115.85951289889636 51.71143617015332,115.80379618422012 52.01861702115275,115.9709463051986 53.11569148930721,115.91522960577277 54.95877659576945,116.02666299694101 55.44148936169222,115.91522960577277 55.88031914900057,115.91522960577277 56.01196808530949,116.02666299694101 56.23138297861442,116.08237968114554 56.5824468084611,115.85951289889636 56.9773936169222,115.80379618422012 57.50398936169222,115.91522960577277 58.16223404253833,115.85951289889636 58.60106382984668,115.91522960577277 58.68882978707552,116.02666299694101 59.43484042561613,115.85951289889636 61.36569148930721,115.7480794620933 64.21808510646224,115.7480794620933 64.4375,115.85951289889636 64.87632978730835,115.7480794620933 66.01728723407723,115.69236273239949 66.23670212761499,115.58092924990342 67.07047872338444,115.58092924990342 67.55319148930721,115.41377896926133 68.51861702138558,115.35806219378719 68.9574468084611,115.41377896926133 69.79122340423055,115.24662862007972 70.84441489353776,115.1909118219337 72.24867021292448,115.30234541071695 73.91622340423055,115.1909118219337 74.17952127661556,115.13519501598785 74.26728723407723,115.02376138139516 74.3550531915389,114.74517716193805 74.75,114.5780265389185 73.87234042561613,115.30234541071695 72.64361702138558,115.58092924990342" stroke="#4DD2FF" stroke-linecap="round" stroke-linejoin="round" stroke-width="0.5"><title>2025-01-31 5.2km</title><desc>13496860897</desc></polyline></svg>