<?xml version="1.0" encoding="utf-8" ?>
<svg baseProfile="full" height="130mm" version="1.1" viewBox="0,0,100,130" width="100mm" xmlns="http://www.w3.org/2000/svg" xmlns:ev="http://www.w3.org/2001/xml-events" xmlns:xlink="http://www.w3.org/1999/xlink"><defs /><rect fill="#FAF9F5" height="130" width="100" x="0" y="0" /><text fill="#5A5A5A" style="font-size:6px; font-family:Arial; font-weight:bold;color:#0ed45e;" x="5" y="10">屋外凉快跑</text><text fill="#5A5A5A" style="font-size:4px; font-family:Arial" x="5" y="121">Runner</text><text fill="#5A5A5A" style="font-size:6px; font-family:Arial" x="2" y="128">蓝皮书</text><text fill="#5A5A5A" style="font-size:4px; font-family:Arial" x="25" y="121">WORKOUTS INFO</text><text fill="#5A5A5A" style="font-size:3px; font-family:Arial" x="25" y="125">Type: Run</text><text fill="#5A5A5A" style="font-size:3px; font-family:Arial" x="22" y="129">Date: 2025-06-12</text><text fill="#5A5A5A" style="font-size:3px; font-family:Arial" x="47" y="125">Distance: 7.72 km</text><text fill="#5A5A5A" style="font-size:3px; font-family:Arial" x="47" y="129">Duration: 52:37min</text><text fill="#5A5A5A" style="font-size:3px; font-family:Arial" x="75" y="125">Pace: 6:49/km</text><text fill="#5A5A5A" style="font-size:3px; font-family:Arial" x="75" y="129">Elevation: 87m</text><polyline fill="none" points="9.5,70.88275699852966 14.019313303753734,81.91676379041746 32.44420600682497,82.35812327940948 38.70171673595905,82.35812327940948 55.38841201737523,81.91676379041746 80.07081544958055,81.47540424298495 88.41416309028864,74.85500378231518 88.7618025764823,66.91050533414818 81.80901287682354,57.20053627341986 69.64163090102375,56.759173351339996 40.78755364753306,56.759173351339996 32.44420600682497,56.759173351339996 11.585836907848716,62.93824878917076 12.976394848898053,79.70996544533409 17.8433476369828,82.79948270739987 40.09227467700839,82.35812327940948 60.95064377784729,82.35812327940948 68.59871244616807,82.35812327940948 79.72317596524954,82.35812327940948 89.45708154514432,73.08956136973575 87.0236051492393,62.49688665010035 79.02789699658751,56.31781036849134 63.38412017188966,55.87644732417539 55.38841201737523,56.31781036849134 49.13090128824115,57.20053627341986 30.010729612782598,57.20053627341986 16.800429183989763,58.52462468040176 11.238197423517704,64.26233484596014 12.281115878373384,77.06180544290692 18.886266093701124,82.35812327940948 35.92060085758567,82.35812327940948 52.259656650945544,81.47540424298495 63.03648068755865,82.79948270739987 85.98068669624627,78.82724568480626 90.5,70.44139594282024 82.15665236115456,56.31781036849134 72.07510729692876,56.31781036849134 66.86051502078772,55.87644732417539 59.56008583679795,56.31781036849134 51.91201716661453,54.993721056496724 44.611587980762124,55.87644732417539 31.7489270363003,57.20053627341986 27.924892703071237,57.64189913705923 12.976394848898053,59.40734998532571 9.5,69.11731241666712 11.933476394042373,77.5031655933708 17.495708154514432,83.24084207555279 36.61587982624769,82.79948270739987 41.135193133726716,82.35812327940948 50.17381974309683,83.24084207555279 60.95064377784729,83.24084207555279 77.98497854173183,81.91676379041746 86.67596566490829,77.5031655933708 88.06652360595763,64.26233484596014 80.41845493577421,56.31781036849134 71.37982832454145,56.759173351339996 64.42703862674534,56.31781036849134 53.99785407632589,55.87644732417539 40.43991416320205,56.31781036849134 26.534334763884544,57.64189913705923 19.581545064225793,57.20053627341986 12.628755364567041,62.93824878917076 10.890557937324047,71.76547892787494 17.495708154514432,82.35812327940948 80.41845493577421,81.47540424298495 89.10944205895066,73.53092206339352 87.71888411976397,63.37961086817086 79.37553647905588,55.87644732417539 67.90343347750604,55.87644732417539 56.431330470368266,55.87644732417539 44.611587980762124,56.31781036849134 36.61587982624769,58.52462468040176 32.79184549301863,58.083261938998476 19.929184548556805,57.64189913705923 14.714592274278402,60.29007504833862 11.238197423517704,64.70369674521498 11.585836907848716,75.73772462713532 18.190987123176455,82.35812327940948 25.143776822835207,83.68220138293691 38.70171673595905,83.24084207555279 79.37553647905588,81.47540424298495 86.32832617871463,77.5031655933708 88.06652360595763,62.93824878917076 74.50858369097114,56.759173351339996 55.04077253304422,56.31781036849134 49.47854077257216,57.20053627341986 19.581545064225793,57.64189913705923 10.195278968662024,68.67595112137496 15.409871244803071,81.47540424298495 24.79613733664155,83.24084207555279 31.7489270363003,83.24084207555279 44.611587980762124,82.79948270739987 64.42703862674534,83.24084207555279 82.15665236115456,81.47540424298495 87.71888411976397,76.17908495850861 89.45708154514432,67.35186687111855 81.80901287682354,57.64189913705923 69.9892703872174,55.87644732417539 60.60300429165363,56.31781036849134 40.09227467700839,56.31781036849134 25.491416309028864,57.20053627341986 15.409871244803071,59.84871254651807 11.238197423517704,65.58642036211677 12.976394848898053,78.82724568480626 23.057939913123846,83.68220138293691 36.268240343779325,83.24084207555279 47.3927038628608,82.79948270739987 56.083690986037254,82.79948270739987 65.12231759540737,82.35812327940948 81.11373390629888,81.91676379041746 88.06652360595763,77.06180544290692 89.80472102947533,67.79322834825143 84.93776823952794,59.40734998532571 69.64163090102375,55.43508422002196 51.56437768228352,56.31781036849134 45.30686695314944,56.31781036849134 29.315450644120574,56.759173351339996 20.27682403475046,58.083261938998476 12.628755364567041,62.05552444932982 10.54291845485568,70.88275699852966 14.36695278994739,80.1513252351433 21.319742489606142,83.24084207555279 44.611587980762124,82.35812327940948 59.907725321128964,81.91676379041746 82.85193133167922,81.47540424298495 89.45708154514432,73.08956136973575 89.80472102947533,66.91050533414818 82.50429184548557,57.64189913705923 75.2038626614958,56.31781036849134 57.8218884114176,56.759173351339996 48.08798283338547,56.759173351339996 37.65879828296602,58.083261938998476 31.7489270363003,58.52462468040176 19.233905578032136,58.083261938998476 10.890557937324047,66.91050533414818 11.933476394042373,76.62044523051009 17.495708154514432,81.47540424298495 43.22103004343808,83.24084207555279 64.07939914241433,82.79948270739987 77.28969956934452,82.35812327940948 85.63304721005261,78.82724568480626 90.15236051566899,70.00003482820466 83.54721030034125,58.083261938998476 75.89914163202047,57.20053627341986 65.46995707973838,55.43508422002196 51.21673819795251,57.20053627341986 42.1781115885824,58.083261938998476 24.79613733664155,58.52462468040176 14.36695278994739,61.172799868742004 11.238197423517704,73.97228269628249 16.105150213465095,81.47540424298495 25.839055793359876,82.35812327940948 35.92060085758567,83.24084207555279 61.645922746509314,83.24084207555279 79.72317596524954,82.35812327940948 87.37124463543296,77.06180544290692 89.80472102947533,69.11731241666712 85.63304721005261,60.73143748892471 77.28969956934452,55.87644732417539 61.2982832621783,56.31781036849134 39.04935622215271,57.64189913705923 26.881974248215556,57.20053627341986 12.628755364567041,62.49688665010035 11.933476394042373,75.73772462713532 19.581545064225793,82.79948270739987 52.259656650945544,82.79948270739987 60.25536480732262,82.79948270739987 73.81330472044647,82.79948270739987 84.24248927086592,80.59268496464938 89.80472102947533,73.53092206339352 88.41416309028864,63.820972888031974 80.07081544958055,56.759173351339996 56.431330470368266,55.87644732417539 37.65879828296602,57.64189913705923 28.272532189264894,57.20053627341986 13.32403433509171,60.29007504833862 10.195278968662024,67.79322834825143 14.36695278994739,80.59268496464938 45.30686695314944,84.12356062955223 64.77467811107635,83.68220138293691 77.63733905553818,82.35812327940948 86.67596566490829,78.38588571501896 87.71888411976397,63.37961086817086 76.94206008501351,56.31781036849134 67.90343347750604,57.64189913705923 32.09656652249396,58.96598736313172 28.967811157926917,57.20053627341986 23.75321888178587,57.20053627341986 18.886266093701124,58.52462468040176 14.714592274278402,60.73143748892471 11.585836907848716,66.91050533414818 11.933476394042373,77.5031655933708 16.800429183989763,81.91676379041746 27.229613734409213,84.56491981749423 36.61587982624769,84.12356062955223 43.22103004343808,84.56491981749423 48.43562231771648,85.00627894350328 75.2038626614958,83.68220138293691 85.63304721005261,80.59268496464938 90.5,66.91050533414818 81.11373390629888,57.20053627341986 74.50858369097114,56.31781036849134 63.731759656220675,56.31781036849134 42.1781115885824,58.52462468040176 18.538626609370112,58.96598736313172 14.714592274278402,61.61416218942031 11.585836907848716,72.6482006162405 15.062231758609414,81.91676379041746 48.43562231771648,83.24084207555279 64.42703862674534,83.24084207555279 74.8562231771648,83.24084207555279 83.54721030034125,82.79948270739987 89.10944205895066,75.73772462713532 89.10944205895066,64.70369674521498 81.11373390629888,56.759173351339996 64.42703862674534,58.083261938998476 56.77896995656192,57.64189913705923 42.52575107291341,58.083261938998476 27.577253218740225,58.96598736313172 17.8433476369828,58.96598736313172 12.628755364567041,64.26233484596014 10.195278968662024,73.08956136973575 16.800429183989763,81.91676379041746 40.43991416320205,82.35812327940948 62.34120171517134,82.35812327940948 79.72317596524954,82.79948270739987 87.0236051492393,79.70996544533409 89.80472102947533,70.88275699852966 85.2854077257216,60.29007504833862 76.94206008501351,56.759173351339996 63.38412017188966,58.083261938998476 53.99785407632589,59.40734998532571 46.00214592181146,60.29007504833862" stroke="#4DD2FF" stroke-linecap="round" stroke-linejoin="round" stroke-width="0.5"><title>2025-06-12 7.72km</title><desc>14771019749</desc></polyline></svg>