<?xml version="1.0" encoding="utf-8" ?>
<svg baseProfile="full" height="130mm" version="1.1" viewBox="0,0,100,130" width="100mm" xmlns="http://www.w3.org/2000/svg" xmlns:ev="http://www.w3.org/2001/xml-events" xmlns:xlink="http://www.w3.org/1999/xlink"><defs /><rect fill="#FAF9F5" height="130" width="100" x="0" y="0" /><text fill="#5A5A5A" style="font-size:6px; font-family:Arial; font-weight:bold;color:#0ed45e;" x="5" y="10">anyway 这也算是雪后跑了</text><text fill="#5A5A5A" style="font-size:4px; font-family:Arial" x="5" y="121">Runner</text><text fill="#5A5A5A" style="font-size:6px; font-family:Arial" x="2" y="128">蓝皮书</text><text fill="#5A5A5A" style="font-size:4px; font-family:Arial" x="25" y="121">WORKOUTS INFO</text><text fill="#5A5A5A" style="font-size:3px; font-family:Arial" x="25" y="125">Type: Run</text><text fill="#5A5A5A" style="font-size:3px; font-family:Arial" x="22" y="129">Date: 2025-12-18</text><text fill="#5A5A5A" style="font-size:3px; font-family:Arial" x="47" y="125">Distance: 5.77 km</text><text fill="#5A5A5A" style="font-size:3px; font-family:Arial" x="47" y="129">Duration: 45:54min</text><text fill="#5A5A5A" style="font-size:3px; font-family:Arial" x="75" y="125">Pace: 7:57/km</text><text fill="#5A5A5A" style="font-size:3px; font-family:Arial" x="75" y="129">Elevation: 4m</text><polyline fill="none" points="13.66299559501931,70.15511468949262 15.566079295706004,70.7752978868084 16.755506608169526,70.93034363002516 19.372246696148068,70.00006883312017 23.892070484813303,72.63584530784283 28.17400881042704,73.72116313246079 30.077092511113733,73.10098165413365 33.2885462557897,72.79089077934623 35.07268722495064,71.55052637483459 36.02422907529399,71.39548072265461 37.09471365669742,71.70557200477924 38.04625550657511,72.32575429754797 39.592511013615876,74.96152500226162 43.160792951937765,78.83764651231468 45.0638766521588,80.07800240907818 46.25330396508798,80.54313549702056 47.323788546957076,80.54313549702056 50.059471365995705,79.14773562224582 51.24889867845923,78.99269107892178 53.03303964762017,78.99269107892178 55.41189427347854,79.76791357062757 56.60132158640772,79.92295800102875 58.74229074921459,79.61286911764182 61.834801762364805,78.37251267803367 63.61894273152575,78.21746802132111 64.92731277598068,78.52755731239449 69.56607929524034,80.54313549702056 73.6101321587339,81.6284452433465 76.22687224671245,81.31835685751867 81.57929515419528,79.4578246420715 83.95814978005365,79.30278014345095 87.76431718049571,78.37251267803367 88.71585903083906,77.75233391509391 89.42951541859657,76.82206509204116 90.26211453787982,74.96152500226162 90.5,73.56611779658124 89.66740088164806,67.82942447310779 90.02422907482833,63.79821603780147 89.31057268707082,62.4027941696113 87.76431718049571,61.62755900621414 84.31497797416523,61.78260608448181 82.1740088108927,61.62755900621414 77.29735682811588,60.38718156819232 71.82599118957296,58.37156514276285 69.56607929524034,57.906422347645275 67.42511013196781,57.906422347645275 64.68942731292918,58.6816602263134 63.02422907529399,59.45689753931947 61.834801762364805,60.85232327738777 61.002202643081546,63.02298189292196 61.002202643081546,65.03858949348796 61.24008810566738,65.96886863477994 62.548458150122315,68.29456292360555 63.2621145369485,70.15511468949262 63.38105726847425,71.24043504777364 63.2621145369485,72.79089077934623 63.02422907529399,73.87620844517369 61.002202643081546,77.90737863979302 59.693832599092275,79.30278014345095 58.14757709251717,80.07800240907818 56.0066079297103,79.92295800102875 53.98458149796352,79.14773562224582 52.31938326032832,78.68260192370508 50.8920704848133,78.99269107892178 47.204845814965665,80.38809115695767 46.13436123356223,80.38809115695767 44.70704845804721,79.76791357062757 42.68502202630043,78.21746802132111 39.83039647573605,75.11657013429794 38.284140969160944,72.9459362277994 37.09471365669742,72.01566319644917 34.59691629977897,71.24043504777364 32.812775330618024,70.00006883312017 31.62334801768884,68.75970117026009 30.552863436285406,66.74410062970128 29.48237885441631,65.34868263069075 28.649779736064374,64.72849626536481 27.103524229023606,64.10830953740515 24.962555066216737,64.10830953740515 21.870044053066522,65.50372916564811 20.442731278017163,65.81382216757629 19.372246696148068,65.34868263069075 16.3986784145236,63.488122447859496 15.328193832654506,63.02298189292196 14.138766520656645,63.178028767113574 11.997797357384115,64.10830953740515 10.332599119283259,65.34868263069075 9.737885462585837,66.27896150050219 9.5,67.51933205977548 9.975770925637335,68.91474720754195 10.451541850343347,69.53493112954311 12.35462555103004,70.93034363002516 13.66299559501931,70.62025212158915 15.209251101594418,71.24043504777364 16.3986784145236,71.24043504777364 18.658590308390558,70.15511468949262 19.729074889793992,70.15511468949262 22.583700440824032,72.48079981398769 24.7246696036309,73.56611779658124 26.03303964715451,75.11657013429794 29.60132158640772,76.97710995236412 35.31057268753648,77.90737863979302 40.5440528630279,79.4578246420715 46.25330396508798,80.54313549702056 47.68061674013734,80.38809115695767 51.24889867845923,79.4578246420715 52.914096916560084,79.4578246420715 55.88766519865021,80.38809115695767 57.43392070522532,80.54313549702056 58.62334801768884,80.2330467941938 61.121145374607295,78.99269107892178 63.02422907529399,78.52755731239449 66.23568281996995,79.4578246420715 71.94493392109871,81.78348940226715 75.39427312836051,81.9385335383704 77.53524229116738,81.47340106160846 81.22246696054935,79.92295800102875 85.50440528662875,79.14773562224582 87.52643171837553,78.52755731239449 88.47797356825322,78.06242334190756 89.54845815012231,76.82206509204116 90.02422907482833,74.65143467043526 89.19162995601073,69.2248392138863 89.54845815012231,65.50372916564811 89.07268722448498,63.95326279930305 88.24008810613304,63.02298189292196 86.45594713650644,62.4027941696113 82.53083700500429,62.5578411341412 80.27092510974035,62.4027941696113 77.65418502222747,61.62755900621414 70.63656387710944,58.99175521975849 68.49559471383691,58.52661269600503 66.35462555056438,58.52661269600503 63.97577092517167,59.30185012205038 61.95374449342489,60.542228827252984 61.002202643081546,62.092700172099285 60.526431718375534,63.79821603780147 60.526431718375534,65.50372916564811 60.88325991248712,66.58905427611899 62.31057268707082,68.75970117026009 62.78634361270815,70.00006883312017 63.02422907529399,71.70557200477924 62.90528634376824,73.87620844517369 62.31057268707082,75.89179545454681 61.002202643081546,78.68260192370508 59.93171806214377,79.76791357062757 58.385462555103004,80.38809115695767 56.0066079297103,80.38809115695767 53.27092511020601,79.30278014345095 52.200440528802574,79.14773562224582 51.01101321587339,79.30278014345095 47.56167400907725,80.54313549702056 46.13436123356223,80.54313549702056 45.0638766521588,80.2330467941938 44.11233480181545,79.4578246420715 40.06828193832189,75.89179545454681 37.570484581403434,72.63584530784283 36.61894273106009,72.01566319644917 34.24008810566738,71.08538935019169 32.57488986803219,70.00006883312017 31.385462555103004,68.6046551107429 29.72026431746781,65.81382216757629 27.817180616781116,64.57344961725175 25.200440528802574,64.26335625327192 22.345814977772534,65.65877567778807 20.68061674013734,65.96886863477994 19.491189427673817,65.50372916564811 16.279735682997853,63.33307561883703 14.37665198277682,63.02298189292196 12.592511013150215,63.643169254180975 10.689427312929183,65.03858949348796 9.618942731525749,66.43400789971929 9.618942731525749,67.51933205977548 10.332599119283259,69.06979322212283 11.997797357384115,70.62025212158915 12.473568282090127,70.7752978868084 14.138766520656645,70.62025212158915 15.209251101594418,71.08538935019169 16.3986784145236,71.24043504777364 17.469162995927036,70.93034363002516 19.015418502036482,70.00006883312017 19.491189427673817,70.00006883312017 23.059471365530044,72.63584530784283 24.605726872570813,73.41107243858278 25.795154185034335,73.72116313246079 29.839207048527896,73.41107243858278 32.33700440544635,73.41107243858278 33.88325991248712,72.9459362277994 35.19162995554507,71.86061761167366 36.26211453741416,71.70557200477924 37.3325991188176,72.17070875852369 38.284140969160944,73.10098165413365 39.711453744675964,75.11657013429794 42.80396475782618,78.83764651231468 44.58810572698712,80.07800240907818 46.372246695682406,80.69817981438246 48.037444934248924,80.54313549702056 50.8920704848133,79.30278014345095 52.08149779681116,79.14773562224582 53.03303964762017,79.14773562224582 55.530837004538625,80.2330467941938 57.671806167345494,80.2330467941938 59.099118942860514,79.92295800102875 61.59691630024463,78.83764651231468 63.856828194111586,78.68260192370508 65.04625550657511,78.83764651231468 71.82599118957296,81.78348940226715 75.15638766530901,82.09357765247114 77.41629955964163,81.6284452433465 81.34140969160944,79.92295800102875 87.76431718049571,78.52755731239449 88.71585903083906,77.90737863979302 89.66740088164806,76.51197530375794 90.14317180588841,74.49638947076164 89.31057268707082,68.91474720754195 89.66740088164806,64.88354289042763 89.19162995601073,63.79821603780147 88.35903083765879,62.86793499626219 87.16960352426395,62.4027941696113 85.98017621180043,62.092700172099285 82.88766519818455,62.5578411341412 79.91409691656008,62.24774718179833 74.91850220318884,60.69727606349625 70.75550660816953,58.99175521975849 69.09030837006867,58.52661269600503 66.83039647573605,58.52661269600503 63.856828194111586,59.45689753931947 62.07268722495064,60.542228827252984 61.002202643081546,61.937653139582835 60.526431718375534,63.643169254180975 60.526431718375534,65.34868263069075 60.88325991248712,66.43400789971929 62.548458150122315,69.68997705332004 62.90528634376824,71.39548072265461 62.90528634376824,72.9459362277994 62.429515418596566,75.27161524340045 61.24008810566738,78.06242334190756 60.16960352426395,79.4578246420715 58.62334801768884,80.2330467941938 57.43392070522532,80.54313549702056 56.363436123821884,80.38809115695767 53.627753304317594,79.14773562224582 52.55726872291416,78.83764651231468 50.8920704848133,79.14773562224582 48.27533039683476,80.2330467941938 47.085903083439916,80.38809115695767 46.13436123356223,80.38809115695767 43.874449339695275,79.4578246420715 42.20925110159442,79.4578246420715 36.7378854630515,76.97710995236412 30.19603524217382,75.11657013429794 26.508810572791845,72.79089077934623 25.676211453974247,71.86061761167366 25.676211453974247,71.24043504777364 26.27092511067167,70.93034363002516 32.93171806167811,71.70557200477924 34.121145374607295,71.39548072265461 36.14317180681974,70.15511468949262 36.97577092517167,70.31016052269842 38.759911893866956,71.86061761167366 40.1872246703133,74.34134424838703 43.755506608169526,79.14773562224582 44.82599118957296,80.07800240907818 46.491189427208155,80.54313549702056 48.15638766530901,80.2330467941938 50.29735682858154,79.30278014345095 51.486784141510725,79.14773562224582 53.50881057232618,79.4578246420715 56.363436123821884,80.54313549702056 57.552863435819745,80.54313549702056 61.715859030839056,78.83764651231468 64.3325991188176,78.52755731239449 71.70704845851287,81.6284452433465 73.49118942720816,82.09357765247114 75.51321585895494,82.09357765247114 76.82158590340987,81.78348940226715 81.34140969160944,79.92295800102875 87.52643171837553,78.52755731239449 88.8348017623648,77.90737863979302 89.42951541859657,76.97710995236412 89.90528634376824,75.89179545454681 90.02422907482833,74.80647984775715 90.02422907482833,73.56611779658124 89.19162995601073,69.53493112954311 89.42951541859657,66.43400789971929 89.42951541859657,65.03858949348796 88.95374449389055,63.79821603780147 88.00220264308155,62.86793499626219 86.21806167438626,62.4027941696113 82.41189427301288,62.712888076435775 80.98458149749786,62.5578411341412 75.98898678412661,61.007370468229055 70.1607929514721,58.83670773438644 68.49559471383691,58.52661269600503 66.11674008797854,58.6816602263134 64.5704845818691,59.14680268219672 62.07268722495064,60.69727606349625 61.121145374607295,62.092700172099285 60.64537444990128,63.643169254180975 60.64537444990128,65.50372916564811 61.121145374607295,66.58905427611899 62.429515418596566,68.6046551107429 62.90528634376824,69.84502295451239 63.143171806354076,71.24043504777364 63.143171806354076,73.25602705788333 62.429515418596566,76.04684045061003 61.47797356871888,78.06242334190756 60.407488986849785,79.4578246420715 58.62334801768884,80.38809115695767 56.60132158640772,80.54313549702056 51.96255506621674,79.30278014345095 50.773127753753215,79.4578246420715 47.91850220318884,80.54313549702056 46.13436123356223,80.69817981438246 41.733480176422745,79.61286911764182 36.38105726893991,77.90737863979302 30.19603524217382,77.1321547901025 28.88766519818455,76.66702020901721 26.15198237914592,74.96152500226162 24.605726872570813,73.25602705788333 22.583700440824032,72.17070875852369 19.729074889793992,70.15511468949262 18.777533039916307,70.15511468949262 17.588105726521462,71.08538935019169 16.51762114558369,71.39548072265461" stroke="#4DD2FF" stroke-linecap="round" stroke-linejoin="round" stroke-width="0.5"><title>2025-12-18 5.77km</title><desc>16772055113</desc></polyline></svg>