<?xml version="1.0" encoding="utf-8" ?>
<svg baseProfile="full" height="130mm" version="1.1" viewBox="0,0,100,130" width="100mm" xmlns="http://www.w3.org/2000/svg" xmlns:ev="http://www.w3.org/2001/xml-events" xmlns:xlink="http://www.w3.org/1999/xlink"><defs /><rect fill="#222222" height="130" width="100" x="0" y="0" /><text fill="#FFFFFF" style="font-size:6px; font-family:Arial; font-weight:bold;color:#0ed45e;" x="5" y="10">获奖了，高低得轱泳一圈</text><text fill="#FFFFFF" style="font-size:4px; font-family:Arial" x="5" y="121">Runner</text><text fill="#FFFFFF" style="font-size:6px; font-family:Arial" x="2" y="128">蓝皮书</text><text fill="#FFFFFF" style="font-size:4px; font-family:Arial" x="25" y="121">WORKOUTS INFO</text><text fill="#FFFFFF" style="font-size:3px; font-family:Arial" x="25" y="125">Type: Run</text><text fill="#FFFFFF" style="font-size:3px; font-family:Arial" x="22" y="129">Date: 2025-06-03</text><text fill="#FFFFFF" style="font-size:3px; font-family:Arial" x="47" y="125">Distance: 3.04 km</text><text fill="#FFFFFF" style="font-size:3px; font-family:Arial" x="47" y="129">Duration: 23:28min</text><text fill="#FFFFFF" style="font-size:3px; font-family:Arial" x="75" y="125">Pace: 7:43/km</text><text fill="#FFFFFF" style="font-size:3px; font-family:Arial" x="75" y="129">Elevation: 2m</text><polyline fill="none" points="89.8414634144865,54.99596492404817 90.06097560981289,56.017935242678504 90.13414634158835,57.41152865829645 89.98780487803742,59.64127218496287 90.13414634158835,60.941952534078155 89.9146341457963,62.70715760241728 90.06097560981289,62.98587377363583 90.13414634158835,64.37945291597862 90.28048780513927,64.84397866239306 90.06097560981289,65.6801242067595 90.20731707289815,67.16660263738595 90.06097560981289,68.3743639709428 90.28048780513927,68.83888698974624 90.13414634158835,69.21050517668482 90.35365853644907,69.76793207623996 90.20731707289815,70.04664535471238 90.28048780513927,70.60407156933798 90.20731707289815,71.34730581153417 90.35365853644907,71.71892262838082 90.28048780513927,72.18344336352311 90.5,73.85571538488148 90.42682926822454,74.598946075188 90.42682926822454,75.43507963104639 90.28048780513927,77.1073436603765 90.13414634158835,77.57186071679462 90.06097560981289,78.87250678765122 90.06097560981289,79.98734429804608 90.28048780513927,80.26605339028174 90.13414634158835,80.73056829028064 90.35365853644907,81.65959713881603 90.13414634158835,82.03120832302375 90.20731707289815,82.30991657782579 90.13414634158835,82.68152740690857 89.7682926831767,83.33184586919378 88.74390243878588,83.9821637099376 88.59756097570062,83.88926119945245 88.08536585327238,84.07506620779168 87.79268292710185,83.88926119945245 87.5,84.16796869313112 85.8902439023368,83.7963586760452 84.20731707289815,84.35377362545114 83.40243902429938,84.16796869313112 82.67073170701042,84.44667607272277 81.93902439018711,84.07506620779168 78.42682926822454,84.26087116572307 78.06097560934722,84.35377362545114 76.8902439023368,83.9821637099376 76.15853658504784,84.26087116572307 74.25609756074846,84.16796869313112 73.67073170747608,84.44667607272277 72.71951219486073,84.44667607272277 72.06097560934722,84.81828573468374 71.1097560976632,84.72538333846023 70.37804878037423,84.44667607272277 68.8414634144865,84.53957850730512 67.37804878037423,84.44667607272277 66.86585365841165,84.72538333846023 63.71951219486073,84.53957850730512 62.98780487803742,84.6324809290818 62.62195121916011,84.81828573468374 61.304878048598766,85.09699284791714 61.01219512196258,84.9111881183926 60.86585365841165,84.72538333846023 59.768292682711035,84.72538333846023 59.25609756121412,84.53957850730512 59.03658536588773,84.72538333846023 58.890243902336806,84.53957850730512 57.426829267758876,84.6324809290818 56.91463414626196,85.09699284791714 56.03658536588773,84.72538333846023 55.231707316823304,84.72538333846023 54.79268292663619,84.9111881183926 54.353658536449075,84.81828573468374 53.98780487803742,85.00409048964502 52.890243902336806,85.00409048964502 52.59756097570062,84.81828573468374 51.20731707289815,84.53957850730512 51.28048780467361,84.6324809290818 49.231707316823304,84.81828573468374 47.62195121962577,84.72538333846023 47.25609756074846,84.81828573468374 46.01219512196258,84.81828573468374 43.597560975234956,85.2827975267428 42.13414634112269,85.18989519373281 40.74390243878588,85.37569984717993 39.49999999953434,85.18989519373281 37.96341463411227,85.37569984717993 37.74390243925154,85.2827975267428 36.79268292663619,85.56150444963714 36.353658536449075,85.2827975267428 36.060975609347224,85.46860215475317 35.8414634144865,85.2827975267428 35.109756097663194,85.56150444963714 34.304878048598766,85.37569984717993 33.79268292710185,85.56150444963714 32.69512195093557,85.46860215475317 32.18292682943866,85.65440673206467 31.45121951214969,85.46860215475317 30.353658536449075,85.56150444963714 30.060975609812886,85.46860215475317 29.03658536542207,85.74730900174472 28.74390243878588,85.46860215475317 27.5,85.74730900174472 27.280487804673612,85.56150444963714 25.15853658504784,85.56150444963714 24.426829268224537,85.74730900174472 21.353658536449075,86.11891795304837 19.158536585513502,86.11891795304837 18.5,86.02601573430002 17.62195121916011,86.21182015922386 16.012195121962577,86.02601573430002 15.353658536449075,86.21182015922386 11.402439024299383,86.21182015922386 10.451219512149692,85.74730900174472 9.939024390187114,85.00409048964502 10.012195121496916,83.23894326970913 9.939024390187114,82.30991657782579 10.085365853272378,80.73056829028064 10.304878048598766,80.73056829028064 10.012195121496916,79.61573199770646 10.012195121496916,78.87250678765122 9.939024390187114,78.68670035840478 10.158536585047841,77.57186071679462 10.231707317288965,77.47895733074984 10.231707317288965,76.27121215953957 10.451219512149692,75.80669421510538 10.524390243925154,75.1563685600413 10.231707317288965,74.41313847870333 10.304878048598766,73.39119579130784 9.939024390187114,72.74086782743689 9.939024390187114,72.09053924190812 9.5,71.71892262838082 9.646341463085264,70.78988020581892 9.573170731775463,69.58212316047866 9.719512194860727,68.93179155571852 9.646341463085264,68.28145932900952 9.865853658411652,67.90984063484939 9.79268292663619,67.35241221316392 10.231707317288965,65.7730292037595 10.085365853272378,63.729116338072345 9.939024390187114,62.521346758294385 9.719512194860727,62.33553586341441 9.573170731775463,61.03485817834735 9.719512194860727,59.548366350645665 9.573170731775463,57.318622519262135 9.865853658411652,56.57537295133807 10.524390243925154,56.29665415431373 12.5,56.389560432813596 13.231707316823304,56.2037478631828 14.768292682711035,56.29665415431373 15.20731707336381,56.2037478631828 16.231707316823304,56.389560432813596 19.74390243878588,56.29665415431373 20.475609756074846,56.11084155930439 21.353658536449075,56.29665415431373 21.719512194860727,56.29665415431373 22.012195121496916,56.017935242678504 23.03658536542207,56.2037478631828 23.987804878037423,56.017935242678504 24.49999999953434,56.11084155930439 25.597560975700617,56.017935242678504 26.256097560748458,55.55340347008314 26.91463414626196,55.92502891359618 27.353658536449075,55.64630984998075 28.817073170561343,55.274684254138265 29.03658536542207,55.274684254138265 29.62195121916011,55.64630984998075 32.475609756074846,55.64630984998075 33.20731707289815,55.36759067198727 33.86585365841165,55.64630984998075 34.231707316823304,55.46049707737984 34.96341463411227,55.46049707737984 35.91463414626196,55.83212257188279 36.79268292663619,55.64630984998075 37.15853658504784,55.73921621742193 38.03658536542207,55.64630984998075 38.768292682711035,55.46049707737984 39.71951219486073,55.64630984998075 41.32926829298958,55.55340347008314 42.57317073177546,55.36759067198727 43.1585365855135,55.55340347008314 44.768292682711035,55.46049707737984 45.353658536449075,55.64630984998075 46.37804878037423,55.46049707737984 47.62195121962577,54.99596492404817 48.42682926822454,55.274684254138265 50.03658536542207,55.36759067198727 52.67073170701042,55.18177782354178 53.768292682711035,54.99596492404817 55.67073170747608,55.088871380197816 56.03658536588773,54.90305845538387 56.475609755609185,55.088871380197816 57.5,54.717245479580015 58.96341463411227,54.81015197362285 60.353658536449075,55.088871380197816 61.01219512196258,54.99596492404817 61.1585365855135,55.088871380197816 61.52439024345949,54.81015197362285 62.18292682943866,55.088871380197816 63.28048780467361,54.99596492404817 64.01219512149692,55.274684254138265 65.32926829252392,54.99596492404817 66.35365853644907,54.99596492404817 67.45121951214969,54.81015197362285 68.98780487803742,54.717245479580015 69.35365853644907,54.531432453601155 70.15853658504784,54.717245479580015 70.37804878037423,54.624338972964324 70.8902439023368,54.717245479580015 71.25609756074846,54.624338972964324 72.64634146308526,54.81015197362285 72.93902439018711,54.624338972964324 74.69512195093557,55.18177782354178 75.93902439018711,54.81015197362285 77.47560975607485,54.717245479580015 77.91463414626196,54.438525921315886 78.64634146308526,54.531432453601155 80.182926828973,54.34561937657418 80.54878048738465,54.624338972964324 81.64634146308526,54.438525921315886 82.45121951168403,54.438525921315886 82.8902439023368,54.159806248382665 84.06097560981289,54.438525921315886 86.47560975607485,54.066899665631354 88.37804878037423,53.973993070132565 88.81707317056134,53.78817984077614 88.96341463411227,53.78817984077614 88.96341463411227,53.973993070132565 86.54878048785031,54.159806248382665 86.18292682943866,54.066899665631354 84.5,54.252712818735745 83.40243902429938,54.066899665631354 83.18292682943866,54.252712818735745 82.59756097570062,54.252712818735745 82.01219512149692,54.438525921315886 81.57317073177546,54.252712818735745 79.45121951214969,54.34561937657418 78.79268292663619,54.159806248382665 78.28048780467361,54.34561937657418 77.54878048785031,54.252712818735745 76.52439024392515,54.438525921315886 76.01219512149692,54.34561937657418 73.30487804859877,54.90305845538387 70.30487804859877,54.717245479580015 68.40243902429938,54.81015197362285 67.52439024392515,54.99596492404817 67.1585365855135,54.90305845538387 65.69512195140123,54.81015197362285 65.54878048785031,54.717245479580015 65.1097560976632,54.81015197362285" stroke="#4DD2FF" stroke-linecap="round" stroke-linejoin="round" stroke-width="0.5"><title>2025-06-03 3.04km</title><desc>14683136535</desc></polyline></svg>