<?xml version="1.0" encoding="utf-8" ?>
<svg baseProfile="full" height="130mm" version="1.1" viewBox="0,0,100,130" width="100mm" xmlns="http://www.w3.org/2000/svg" xmlns:ev="http://www.w3.org/2001/xml-events" xmlns:xlink="http://www.w3.org/1999/xlink"><defs /><rect fill="#FAF9F5" height="130" width="100" x="0" y="0" /><text fill="#5A5A5A" style="font-size:6px; font-family:Arial; font-weight:bold;color:#0ed45e;" x="5" y="10">晨间跑步Run</text><text fill="#5A5A5A" style="font-size:4px; font-family:Arial" x="5" y="121">Runner</text><text fill="#5A5A5A" style="font-size:6px; font-family:Arial" x="2" y="128">蓝皮书</text><text fill="#5A5A5A" style="font-size:4px; font-family:Arial" x="25" y="121">WORKOUTS INFO</text><text fill="#5A5A5A" style="font-size:3px; font-family:Arial" x="25" y="125">Type: Run</text><text fill="#5A5A5A" style="font-size:3px; font-family:Arial" x="22" y="129">Date: 2025-10-16</text><text fill="#5A5A5A" style="font-size:3px; font-family:Arial" x="47" y="125">Distance: 5.15 km</text><text fill="#5A5A5A" style="font-size:3px; font-family:Arial" x="47" y="129">Duration: 36:39min</text><text fill="#5A5A5A" style="font-size:3px; font-family:Arial" x="75" y="125">Pace: 7:06/km</text><text fill="#5A5A5A" style="font-size:3px; font-family:Arial" x="75" y="129">Elevation: 0m</text><polyline fill="none" points="90.5,45.76089629725902 78.41896652965806,50.168230378010776 75.23223722842522,51.57611930917483 73.75778038753197,52.37188059280743 69.28684674110264,53.840974504244514 67.95507927192375,54.63673162495252 65.62448620097712,55.61612299634726 61.201115678297356,57.023994210903766 58.87052260711789,58.30943784303963 54.78009395184927,59.90093419517507 46.21873165015131,63.63480651812279 44.55402231379412,64.18570298724808 43.07956547290087,64.92023052225704 39.22695243684575,66.02201948821312 38.08543746336363,66.57291291991714 37.134174985578284,66.81775421989732 35.42190252523869,67.55227728944737 34.375513799255714,68.16437889562803 33.233998825540766,68.65405955724418 32.377862595487386,69.14373966530547 29.14357017027214,70.42914731340716 25.290957134682685,72.20422779204091 23.00792718748562,72.99995116112405 20.582207868574187,74.10171956571867 19.678508514305577,74.28534736076836 17.871109806466848,75.32590339373564 15.77833235473372,75.93799400984426 13.305049911839887,76.91733719551121 10.689078097697347,78.26393045875011 9.928068115143105,78.7535996978404 9.5951262479648,79.18205982778454 9.5,79.73293651474523 9.5,80.03897881571902 9.690252495696768,80.58985441253753 10.070757486857474,81.14072930833208 12.115971814608201,87.13909947339562 12.876981796929613,88.975318625191 13.257486788323149,89.64859702982358 13.733118026982993,91.30118503872654 14.446564885554835,93.13738653977634 15.01732237264514,94.17789726724732 15.160011744126678,94.23910370274098 15.921021726448089,94.05548437012476 16.301526717608795,93.74945197650231 16.349089841358364,93.3210062617145 16.253963593859226,92.77014686251641 15.921021726448089,91.42359871426015 15.445390487555414,89.03652579619666 15.207574867876247,88.24083189896191 14.684380505001172,87.01668458635686 13.875807398697361,84.50717177565093 13.447739283554256,83.46663780792733 13.162360540125519,82.12006072566146 12.591603053500876,80.95710442087147 12.544039929751307,80.46743767376756 12.639166177483276,80.28381250082748 14.351438637822866,80.10018724988913 16.58690546103753,79.30447692994494 17.918672930216417,79.36568546810304 18.48943041707389,79.18205982778454 19.250440399395302,79.30447692994494 20.724897240521386,79.12085126384045 22.674985320074484,78.0803043510241 24.339694656664506,77.59063435043208 26.147093364736065,76.30524796410464 28.28743394021876,75.0810669051425 29.14357017027214,74.89743944772636 31.711978861130774,73.73446374235209 34.89870816213079,72.99995116112405 35.89753376413137,72.6939038845594 37.18173810932785,72.63269440332078 39.702583676204085,71.2248739451461 41.462419260060415,70.55156689064461 42.413681738078594,70.30672770182719 44.173517322633415,69.57220930536278 43.46007046406157,71.34729329714901 43.60275983577594,72.63269440332078 43.364944216329604,74.16292883947608 43.364944216329604,75.57073974399827 43.07956547290087,77.65184313096688 42.74662360548973,78.81480831370573 42.60393423377536,80.58985441253753 41.93805049918592,84.07871691533364 42.03317674691789,84.69079515742487 42.12830299488269,84.81321070203558 42.8417498532217,84.75200293411035 43.222254844382405,84.56837957815151 43.50763358781114,84.20113263287931 43.93570170272142,83.40542984951753 44.268643570365384,82.36489323407295 45.74310041102581,75.75436691578943 45.980916030472144,72.5714849132928 46.17116852616891,70.98003513741423 46.837052260758355,67.67469768007868 47.02730475645512,67.42985686450265 48.45419847336598,66.3280714811408 48.97739283624105,66.08322990417946 49.02495596022345,66.26686109992443 48.549324721097946,67.12380565033527 48.26394597766921,68.04195864358917 47.740751614794135,70.30672770182719 47.5504991193302,71.53092226016452 47.21755725191906,72.63269440332078 46.979741632472724,73.97930099256337 46.837052260758355,76.36645692613092 46.59923664131202,77.46821676389663 46.50411039334722,78.69239107330213 45.838226658757776,82.05885257702903 45.60041103931144,84.62958737221197 45.64797416329384,84.81321070203558 45.933352906722575,84.93562621204183 47.4553728713654,85.24166483563022 48.92982971225865,85.73132618330419 49.500587199116126,85.73132618330419 49.78596594231203,85.48649557869066 50.16647093347274,84.69079515742487 50.64210217283107,83.22180592268705 50.83235466829501,82.30368511989946 51.21285965945572,79.42689399750088 51.64092777459882,77.34579914258211 51.78361714631319,76.06041202903725 52.354374632937834,72.81632282116334 52.44950088090263,70.61277666603564 53.258073987206444,65.16507275702315 53.30563711095601,64.43054563747137 53.258073987206444,64.12449230314814 52.92513211979531,64.92023052225704 52.211685261223465,68.28679911285872 51.59336465061642,69.93946865943144 51.307985907187685,71.83697035902878 50.87991779204458,73.85688238492003 50.451849676901475,78.0190956312872 50.16647093347274,79.18205982778454 50.0237815619912,80.46743767376756 49.690839694812894,81.50797884934582 49.40546095138416,83.1605979296146 49.500587199116126,84.38475614454364 49.548150323098525,84.69079515742487 49.78596594231203,85.05804168741452 50.546975924866274,85.60891089827055 51.07017028797418,85.67011854521115 51.59336465061642,85.60891089827055 52.259248385205865,84.93562621204183 52.78244274808094,83.77267746964935 53.44832648267038,80.89589610768599 53.73370522609912,78.87601692098542 54.114210217492655,75.14227604030748 54.44715208467096,73.79567306797253 54.82765707583167,71.7145511454728 54.922783323563635,70.00067852137727 55.44597768643871,67.06259538145969 55.731356429867446,64.06328161025885 55.68379330588505,63.45117420589668 55.778919553849846,63.32875262136804" stroke="#4DD2FF" stroke-linecap="round" stroke-linejoin="round" stroke-width="0.5"><title>2025-10-16 5.15km</title><desc>16154847454</desc></polyline></svg>