<?xml version="1.0" encoding="utf-8" ?>
<svg baseProfile="full" height="130mm" version="1.1" viewBox="0,0,100,130" width="100mm" xmlns="http://www.w3.org/2000/svg" xmlns:ev="http://www.w3.org/2001/xml-events" xmlns:xlink="http://www.w3.org/1999/xlink"><defs /><rect fill="#FAF9F5" height="130" width="100" x="0" y="0" /><text fill="#5A5A5A" style="font-size:6px; font-family:Arial; font-weight:bold;color:#0ed45e;" x="5" y="10">路过</text><text fill="#5A5A5A" style="font-size:4px; font-family:Arial" x="5" y="121">Runner</text><text fill="#5A5A5A" style="font-size:6px; font-family:Arial" x="2" y="128">蓝皮书</text><text fill="#5A5A5A" style="font-size:4px; font-family:Arial" x="25" y="121">WORKOUTS INFO</text><text fill="#5A5A5A" style="font-size:3px; font-family:Arial" x="25" y="125">Type: Hike</text><text fill="#5A5A5A" style="font-size:3px; font-family:Arial" x="22" y="129">Date: 2025-12-26</text><text fill="#5A5A5A" style="font-size:3px; font-family:Arial" x="47" y="125">Distance: 3.33 km</text><text fill="#5A5A5A" style="font-size:3px; font-family:Arial" x="47" y="129">Duration: 49:58min</text><text fill="#5A5A5A" style="font-size:3px; font-family:Arial" x="75" y="125">Pace: 14:59/km</text><text fill="#5A5A5A" style="font-size:3px; font-family:Arial" x="75" y="129">Elevation: 81m</text><polyline fill="none" points="22.764433004893363,93.1890328945592 23.255163942463696,93.83018349308986 24.073048836551607,100.45538982492872 23.582317899912596,106.22570626565721 24.073048836551607,110.28628561098594 24.40020279493183,110.5 26.853857478126884,110.28628561098594 27.835319352336228,109.85885673924349 28.816781226545572,108.79028401139658 29.143935183994472,107.29428087547421 29.961820079013705,106.01199124951381 31.10685893148184,105.37084601353854 34.37839851062745,102.59254672774114 35.68701434135437,99.38681019691285 36.177745278924704,98.95937812665943 37.159207152202725,99.17309417750221 38.46782298386097,100.6691056562122 39.612861837260425,101.31025296275038 43.047978394664824,100.45538982492872 43.702286310493946,101.95139998628292 44.68374818470329,102.37883117841557 46.155940995551646,102.16511559812352 49.59105755202472,100.6691056562122 53.68048202712089,101.73768434335943 56.78844462707639,101.31025296275038 59.07852233201265,100.6691056562122 61.04144607950002,100.6691056562122 63.98583170026541,100.02795806794893 64.64013961609453,98.95937812665943 66.43948638439178,97.24964858940803 71.01964179519564,99.60052618500777 75.10906626842916,100.02795806794893 76.90841303765774,98.95937812665943 77.23556699510664,95.11248384520877 78.70775980595499,94.25761706987396 81.48856844753027,89.55584083218127 82.47003032173961,86.77751137595624 82.79718427918851,84.8540494160261 82.79718427918851,81.43455521482974 81.81572240591049,75.02298194554169 82.47003032173961,73.0995044602314 82.47003032173961,71.38974456244614 81.48856844753027,70.10742332180962 80.01637563761324,69.03882142540533 76.2541051208973,68.39765991154127 74.61833533272147,68.39765991154127 72.6554115852341,69.46626227826346 71.01964179519564,69.89370300550945 70.0381799209863,70.96230427455157 70.2017569001764,74.80926235055085 70.52891085855663,75.23670150863472 71.18321877438575,75.02298194554169 71.34679575357586,74.80926235055085 70.85606481600553,73.95438365580048 70.52891085855663,72.45834473357536 69.7110259635374,71.60346465941984 67.91167919524014,71.38974456244614 65.78517846949399,72.88578458235133 65.45802451111376,75.23670150863472 64.31298565864563,79.29736726114061 64.64013961609453,80.79339915770106 65.78517846949399,83.14430331927724 67.4209482576698,81.86199242901057 71.51037273183465,81.86199242901057 72.32825762685388,81.43455521482974 73.47329647932202,79.51108619722072 74.94548929017037,79.51108619722072 76.58125907927752,80.3659616302466 77.72629793174565,80.1522428188473 77.72629793174565,79.08364829327911 78.3806058485061,79.51108619722072 78.87133678421378,79.29736726114061 78.70775980595499,79.08364829327911 78.3806058485061,79.08364829327911 80.01637563761324,79.7248051026836 79.198490742594,79.51108619722072 78.3806058485061,80.1522428188473 77.23556699510664,79.93852397659793 77.07199001684785,81.64827383705415 75.9269511634484,80.3659616302466 74.45475835260004,79.51108619722072 72.16468064766377,80.57968040951528 67.74810221605003,80.57968040951528 64.47656263690442,81.64827383705415 65.45802451111376,82.50314801500645 66.275909406133,83.78545834030956 67.25737128034234,86.56379350554198 66.275909406133,91.47929658286739 66.6030633635819,95.53991704492364 66.11233242694288,96.18106660968624 64.14940867945552,97.03593225637451 60.22356118541211,96.82221589155961 58.09706045780331,96.18106660968624 53.84405900537968,93.83018349308986 53.189751089550555,91.47929658286739 50.24536546878517,89.55584083218127 50.081788489595056,88.70097079523839 50.40894244797528,87.84610025573056 52.20828921627253,86.35007560427766 53.189751089550555,84.8540494160261 53.189751089550555,83.99917661817744 54.17121296282858,82.07571098883636 53.84405900537968,80.57968040951528 54.33478994295001,81.00711787480395 54.8255208786577,81.22083656082395 55.970559732057154,80.79339915770106 57.2791755637154,79.7248051026836 58.26063743699342,80.79339915770106 59.569253268651664,80.79339915770106 59.405676290392876,79.29736726114061 57.76990650035441,75.66414054273628 57.44275254290551,73.74066390423104 57.76990650035441,72.45834473357536 59.07852233201265,71.60346465941984 59.569253268651664,69.89370300550945 61.36860003694892,70.10742332180962 62.513638890348375,69.03882142540533 63.98583170026541,69.67998265731148 66.11233242694288,71.81718472484499 69.0567180486396,71.38974456244614 71.51037273183465,68.82510095241014 72.32825762685388,66.2604528258089 72.16468064766377,64.97812706860714 71.51037273183465,65.405569112394 67.91167919524014,64.55068489850964 60.87786910030991,61.13114302174654 59.569253268651664,61.77230773563497 59.242099311202765,62.413472166401334 61.36860003694892,63.26835763582494 66.9302173210308,67.11533603607677 67.58452523779124,67.11533603607677 68.07525617443025,66.2604528258089 69.54744898434728,65.83301103184931 70.85606481600553,66.47417367529124 71.18321877438575,67.54277745343279 69.7110259635374,69.67998265731148 67.25737128034234,69.67998265731148 65.94875544775277,70.10742332180962 62.840792847797275,67.32905676029623 59.732830247841775,66.68789449357428 59.07852233201265,65.83301103184931 59.07852233201265,64.97812706860714 58.751368374563754,64.3369637663709 56.461290668696165,62.413472166401334 53.189751089550555,60.91742138797417 54.17121296282858,59.84881274832878 54.98909785877913,58.13903729291633 54.98909785877913,56.21553750743624 54.66194390039891,54.71948036109097 52.699020152911544,53.43714444176294 49.59105755202472,52.79597605811432 48.77317265793681,52.15480739250779 48.2824417212978,50.658746075001545 47.9552877638489,50.445022904430516 46.810248910449445,50.87246921437327 44.52017120551318,52.79597605811432 43.211555373854935,52.79597605811432 41.57578558474779,52.3685303122038 40.757900688797235,51.299915399285965 37.64993808977306,43.60586487548426 36.668476215563715,42.75096786348149 35.68701434135437,46.38427669845987 36.014168300665915,47.88034240761772 37.97709204722196,51.513638444128446 38.14066902641207,53.43714444176294 37.81351506803185,56.85670438490342 38.30424600560218,57.497870980296284 42.0665165213868,60.48997802671511 42.884401416406035,63.26835763582494 43.86586328968406,64.3369637663709 45.66521005798131,65.61929008795414 45.99236401543021,67.9702187452931 48.2824417212978,70.5348638612777 48.44601870048791,71.17602443438955 48.11886474210769,72.24462476221379 46.973825889639556,73.0995044602314 45.99236401543021,73.0995044602314 43.86586328968406,72.67206467397045 42.7208244362846,73.0995044602314 42.3936704788357,73.52694412088022 42.0665165213868,74.59554272377864 42.3936704788357,76.73273757717106 42.0665165213868,77.37389542185701 40.26716975308955,79.08364829327911 39.2857078788802,82.28942951723002 38.14066902641207,83.14430331927724 36.832053194753826,82.71686648135073 36.341322258114815,81.86199242901057 36.177745278924704,80.3659616302466 36.668476215563715,79.08364829327911 36.995630173012614,75.87786001199856 35.03270642645657,71.81718472484499 34.86912944726646,70.74858408351429 35.35986038390547,70.5348638612777 34.86912944726646,68.61138044740073 35.19628340471536,66.04673194466159 34.21482153143734,63.26835763582494 35.03270642645657,56.85670438490342 35.68701434135437,54.71948036109097 35.68701434135437,53.65086717309896 34.70555246900767,50.445022904430516 34.05124455317855,47.23917157726828 32.74262872058898,45.10193343902938 33.560513615608215,42.10979477525689 33.560513615608215,39.75882436928805 34.37839851062745,36.980399905354716 34.37839851062745,34.20197014010046 35.03270642645657,32.492164573050104 35.03270642645657,31.637261036550626 34.21482153143734,30.996083054924384 33.069782678969204,30.568630910362117 29.143935183994472,30.568630910362117 22.11012508906424,29.5 21.78297113161534,29.713726244401187 22.27370206825435,30.782356997951865 22.43727904651314,32.06471286760643 22.60085602570325,35.69804836448748 22.27370206825435,38.690200202865526 21.292240194045007,41.04117233410943 20.801509257405996,43.3921406698646 20.147201342508197,44.46076138573699 19.983624363318086,46.59800046531018 19.00216248910874,49.162683220696636 19.00216248910874,52.3685303122038 18.020700614899397,58.13903729291633 18.34785457327962,59.42136907251552 19.00216248910874,60.276256298297085 17.202815720811486,60.062534538679756 19.00216248910874,59.635090925730765 19.820047383196652,59.207647188100964 20.310778320766985,57.92531522049103 20.637932279147208,55.360647897352464 21.619394153356552,53.86458987323567 23.745894879102707,54.933202904998325 25.545241647399962,55.14692541665863 25.70881862565875,55.78809276490938 25.87239560484886,57.497870980296284 24.89093373157084,60.062534538679756 25.218087689951062,64.3369637663709 23.745894879102707,71.17602443438955 22.27370206825435,74.38182306557428 20.801509257405996,81.00711787480395 21.12866321578622,82.71686648135073 20.965086236596107,85.9226397073362 21.619394153356552,87.6323825425934 21.78297113161534,91.69301373127382 21.292240194045007,94.68505052034743 21.292240194045007,94.89876719843596 21.45581717416644,94.25761706987396 21.946548110805452,94.04390029713977 23.418740920722485,94.68505052034743 23.582317899912596,97.03593225637451 23.909471857361495,97.03593225637451 24.89093373157084,95.53991704492364 26.199549563229084,95.11248384520877 29.961820079013705,90.41071036888752 30.452551015652716,88.05981793743558 30.943281952291727,87.20494702202268 31.10685893148184,86.13635767181404 32.08832080569118,85.06776753684971 31.92474382556975,82.93058491568081 33.72409059479833,81.00711787480395 34.05124455317855,78.65621026372537 33.887667573057115,77.16017617168836 34.54197548981756,74.1681033767527 35.19628340471536,73.0995044602314 35.850591321475804,70.5348638612777 36.832053194753826,69.46626227826346 37.81351506803185,70.10742332180962 38.46782298386097,70.32114360725973 37.64993808977306,70.32114360725973 37.81351506803185,68.61138044740073 39.122130900621414,66.04673194466159 39.776438815519214,65.61929008795414 38.14066902641207,65.405569112394 37.32278413232416,67.54277745343279 36.341322258114815,66.68789449357428 35.68701434135437,64.76440599898342 34.86912944726646,63.48207892489154 34.54197548981756,62.199750721105374" stroke="#4DD2FF" stroke-linecap="round" stroke-linejoin="round" stroke-width="0.5"><title>2025-12-26 3.33km</title><desc>16840657726</desc></polyline></svg>