<?xml version="1.0" encoding="utf-8" ?>
<svg baseProfile="full" height="130mm" version="1.1" viewBox="0,0,100,130" width="100mm" xmlns="http://www.w3.org/2000/svg" xmlns:ev="http://www.w3.org/2001/xml-events" xmlns:xlink="http://www.w3.org/1999/xlink"><defs /><rect fill="#222222" height="130" width="100" x="0" y="0" /><text fill="#FFFFFF" style="font-size:6px; font-family:Arial; font-weight:bold;" x="5" y="10">2025-05-27 Workouts</text><text fill="#FFFFFF" style="font-size:4px; font-family:Arial" x="5" y="121">Runner</text><text fill="#FFFFFF" style="font-size:6px; font-family:Arial" x="2" y="128">蓝皮书</text><text fill="#FFFFFF" style="font-size:4px; font-family:Arial" x="25" y="121">STATISTICS</text><text fill="#FFFFFF" style="font-size:3px; font-family:Arial" x="25" y="125">Number: 1</text><text fill="#FFFFFF" style="font-size:3px; font-family:Arial" x="25" y="129">Weekly: 1.0</text><text fill="#FFFFFF" style="font-size:3px; font-family:Arial" x="48" y="125">Total: 2.6 km</text><text fill="#FFFFFF" style="font-size:3px; font-family:Arial" x="48" y="129">Avg: 2.6 km</text><text fill="#FFFFFF" style="font-size:3px; font-family:Arial" x="75" y="125">Min: 2.6 km</text><text fill="#FFFFFF" style="font-size:3px; font-family:Arial" x="75" y="129">Max: 2.6 km</text><polyline fill="none" points="19.38010628707707,36.863807279849425 19.721275019459426,37.51355333963875 19.721275019459426,39.029626444214955 21.085949948988855,39.46278992248699 21.59770304709673,40.32911652396433 21.938871778547764,41.1954426523298 21.768287412822247,43.14467471069656 22.280040511861444,43.57783706509508 22.6212092442438,44.877323418157175 22.6212092442438,48.342615156434476 22.962377975694835,50.2918384319637 22.6212092442438,53.757118341862224 23.30354670714587,57.00581138196867 22.962377975694835,57.65554919105489 23.30354670714587,58.955024011898786 23.30354670714587,66.53527258336544 23.644715439528227,69.13420661177952 23.47413107380271,78.88017129641958 24.156468538567424,87.97635097964667 24.32705290429294,88.40950109215919 24.156468538567424,90.35867513448466 24.32705290429294,92.74099571176339 24.49763727001846,92.74099571176339 24.32705290429294,95.3398868063232 25.17997473385185,95.7730349083431 25.691727832891047,95.12331271125004 25.691727832891047,95.55646087252535 26.715234029106796,95.55646087252535 31.15042754728347,94.90673858625814 34.5621148692444,95.55646087252535 36.43854289595038,95.12331271125004 38.826724021695554,95.55646087252535 39.33847711980343,95.12331271125004 40.53256768267602,95.3398868063232 40.873736415058374,95.98960891517345 40.70315204933286,97.72219990298618 41.044320781715214,98.80506831000093 40.873736415058374,99.23821546509862 40.19139895122498,99.4547889988171 38.826724021695554,100.7542295785388 37.97380219120532,102.70338845264632 37.80321782454848,104.86911772657186 38.65613965597004,107.68456136190798 39.33847711980343,108.33427841425873 40.36198331601918,109.41713957651518 42.06782697699964,110.28342797479127 54.520485701970756,110.06685591978021 57.42041992582381,109.63371172070038 63.9026258373633,109.41713957651518 67.14372879266739,108.98399520036764 69.02015681937337,108.98399520036764 70.89658484701067,110.06685591978021 71.57892231084406,110.06685591978021 73.7965190699324,108.98399520036764 75.33177836518735,107.68456136190798 76.3552845614031,105.51883593189996 76.52586892712861,102.4868153630523 74.82002526614815,99.67136250261683 74.13768780231476,99.02164190250915 70.89658484701067,97.72219990298618 63.561457104980946,98.37192103592679 53.667563871480525,98.58849468757398 50.767629648558795,99.02164190250915 45.99126739799976,98.58849468757398 42.920748808421195,98.80506831000093 41.38548951316625,99.23821546509862 39.16789275407791,100.53765622293577 38.4855552893132,101.62052270735148 37.97380219120532,103.56968051707372 38.14438655693084,105.735408608336 39.33847711980343,108.11770609265659 41.044320781715214,109.85028383485042 43.43250190652907,110.5 50.767629648558795,110.28342797479127 62.19678217545152,109.41713957651518 64.07321020308882,109.63371172070038 68.67898808792233,108.98399520036764 72.4318441413343,109.41713957651518 74.99060963280499,107.90113374206703 75.6729470975697,106.6016990164062 76.18470019474626,105.51883593189996 76.3552845614031,104.65254493209068 76.01411582995206,102.05366909422446 75.50236273091286,100.53765622293577 74.3082721689716,98.58849468757398 72.77301287371665,97.72219990298618 70.89658484701067,97.50562613317743 67.48489752411842,97.50562613317743 66.12022259552032,97.2890523331007 59.46743231918663,98.37192103592679 59.46743231918663,98.80506831000093 50.426460915245116,98.37192103592679 41.89724261127412,99.23821546509862 40.53256768267602,99.88793597731274 38.826724021695554,101.18737620220054 38.31497092358768,102.70338845264632 38.14438655693084,104.21939925511833 38.14438655693084,105.3022632264765 38.826724021695554,107.25141651253216 39.8502302179113,108.76742296817247 40.873736415058374,109.63371172070038 43.26191753987223,110.28342797479127 48.03827979043126,109.85028383485042 58.1027573896572,110.06685591978021 59.80860105063766,109.63371172070038 62.02619781065732,109.85028383485042 67.99665062315762,108.98399520036764 70.72600048128515,108.98399520036764 72.60242850799114,108.55085070594214 74.64944090135396,107.4679889518302 75.84353146329522,105.51883593189996 76.18470019474626,103.13653454405721 75.84353146329522,101.40394946991 74.82002526614815,99.67136250261683 72.4318441413343,97.72219990298618 72.60242850799114,94.4735902484972 78.40229695476592,93.60729321592953 79.5963875176385,93.60729321592953 80.44930934812874,93.17414452321827 80.61989371292293,91.6581231658347 80.10814061574638,83.86141901242081 80.2787249814719,82.77854040439706 79.93755625002086,79.52990014664829 80.2787249814719,78.44701858237386 79.76697188336402,76.93098314991221 79.93755625002086,75.19836945342831 79.5963875176385,68.70105123601388 79.42580315098166,62.85344208765309 79.93755625002086,61.55397045996506 79.42580315098166,60.47107662411872 79.42580315098166,55.70633496402297 79.76697188336402,54.40685748215765 79.25521878525615,48.55919563851785 79.5963875176385,46.826550952740945 79.08463441859931,44.877323418157175 79.08463441859931,40.97886116465088 78.57288132049143,40.112534917658195 78.91405005287379,39.679371617385186 78.91405005287379,37.94671723165084 78.57288132049143,33.615072988322936 78.74346568621695,31.016080764005892 78.40229695476592,29.71658305474557 77.89054385665804,29.5 69.19074118603021,29.933166079921648 66.12022259552032,29.71658305474557 39.16789275407791,30.366332042147405 23.815299806185067,31.232663611648604 22.791793609037995,31.665829218924046 22.45062487758696,35.78089658822864 22.962377975694835,37.29697134939488 22.962377975694835,41.84518693748396 23.30354670714587,42.49493095767684 23.132962341420352,44.877323418157175 23.30354670714587,47.04313164181076 23.132962341420352,48.12603464454878 23.30354670714587,49.642097606207244 22.791793609037995,48.342615156434476 22.962377975694835,47.47629293159116 22.45062487758696,46.17680870718323 22.280040511861444,44.66074243350886 21.938871778547764,43.57783706509508 22.109456145204604,40.97886116465088 21.768287412822247,40.54569810000248 21.59770304709673,35.56431436142884" stroke="#4DD2FF" stroke-linecap="round" stroke-linejoin="round" stroke-width="0.5"><title>2025-05-27 2.6km</title><desc>14610229950</desc></polyline></svg>