<?xml version="1.0" encoding="utf-8" ?>
<svg baseProfile="full" height="130mm" version="1.1" viewBox="0,0,100,130" width="100mm" xmlns="http://www.w3.org/2000/svg" xmlns:ev="http://www.w3.org/2001/xml-events" xmlns:xlink="http://www.w3.org/1999/xlink"><defs /><rect fill="#FAF9F5" height="130" width="100" x="0" y="0" /><text fill="#5A5A5A" style="font-size:6px; font-family:Arial; font-weight:bold;color:#0ed45e;" x="5" y="10">Morning Run</text><text fill="#5A5A5A" style="font-size:4px; font-family:Arial" x="5" y="121">Runner</text><text fill="#5A5A5A" style="font-size:6px; font-family:Arial" x="2" y="128">蓝皮书</text><text fill="#5A5A5A" style="font-size:4px; font-family:Arial" x="25" y="121">WORKOUTS INFO</text><text fill="#5A5A5A" style="font-size:3px; font-family:Arial" x="25" y="125">Type: Run</text><text fill="#5A5A5A" style="font-size:3px; font-family:Arial" x="22" y="129">Date: 2025-09-09</text><text fill="#5A5A5A" style="font-size:3px; font-family:Arial" x="47" y="125">Distance: 6.53 km</text><text fill="#5A5A5A" style="font-size:3px; font-family:Arial" x="47" y="129">Duration: 41:54min</text><text fill="#5A5A5A" style="font-size:3px; font-family:Arial" x="75" y="125">Pace: 6:24/km</text><text fill="#5A5A5A" style="font-size:3px; font-family:Arial" x="75" y="129">Elevation: 2m</text><polyline fill="none" points="10.195278968662024,65.807124390034 9.5,70.22074608691037 9.5,73.31027768994682 11.933476395905018,80.81341357552446 13.671673821285367,83.90293505671434 16.10515021532774,86.10973430634476 26.53433476574719,87.87517262110487 44.26394849829376,87.87517262110487 58.51716738194227,89.64060997124761 69.29399141855538,87.87517262110487 77.63733905740082,82.5788547846023 80.41845493763685,79.48933203797787 84.24248927086592,72.42755467584357 84.93776824139059,69.77938418765552 84.59012875705957,67.1312115311157 82.85193133167922,64.04167402209714 80.41845493763685,62.27622269303538 74.50858369283378,60.06940717436373 65.12231759727001,55.21440772921778 60.25536480918527,53.448951579164714 35.225321888923645,52.566223142202944 28.967811159789562,53.00758739118464 22.01502146013081,55.655771617311984 15.062231762334704,62.27622269303538 13.671673821285367,66.2484868306201 13.671673821285367,71.9861930781044 19.23390557989478,83.90293505671434 20.27682403475046,85.22701478702947 23.405579399317503,86.99245358468033 27.92489270493388,88.31653204909526 38.70171673968434,90.52332828519866 55.38841201737523,88.75789141724817 66.16523605212569,86.55109397508204 72.07510729692876,86.99245358468033 76.24678111635149,85.66837457683869 79.72317596711218,83.90293505671434 83.19957081787288,80.37205312401056 86.67596566677094,74.6343617583625 87.3712446372956,71.10346970381215 86.32832618057728,68.01393599179573 83.19957081787288,64.04167402209714 73.11802575178444,57.421226562932134 66.86051502265036,55.21440772921778 52.95493562333286,54.33167977514677 40.78755364753306,51.68349446402863 28.272532189264894,51.68349446402863 21.6673819757998,53.448951579164714 16.10515021532774,57.421226562932134 13.32403433509171,61.39349666587077 11.585836909711361,67.1312115311157 11.23819742538035,71.10346970381215 11.933476395905018,76.8411673353985 12.628755366429687,79.9306926119607 15.062231762334704,83.90293505671434 18.538626609370112,86.10973430634476 23.405579399317503,87.43381313211285 40.43991416506469,88.75789141724817 50.17381974309683,87.43381313211285 76.24678111635149,86.10973430634476 80.41845493763685,84.34429502650164 83.8948497865349,81.2547739688307 86.32832618057728,77.28252826957032 87.71888412162662,73.31027768994682 87.71888412162662,69.77938418765552 87.02360515110195,67.1312115311157 81.80901287682354,62.27622269303538 77.63733905740082,60.06940717436373 69.9892703872174,57.86259014857933 59.21244635246694,56.09713544440456 49.82618025690317,51.68349446402863 43.22103004343808,49.918036384740844 36.963519314303994,49.47667171480134 28.62017167545855,49.918036384740844 24.448497854173183,51.68349446402863 19.929184548556805,55.655771617311984 16.45278969965875,60.51077039819211 14.714592276141047,65.807124390034 14.714592276141047,70.66210792493075 16.10515021532774,74.6343617583625 22.710300428792834,83.90293505671434 25.143776824697852,86.10973430634476 36.61587982997298,88.75789141724817 43.9163090121001,89.64060997124761 75.55150214768946,89.1992507246323 80.41845493763685,87.87517262110487 82.1566523630172,86.55109397508204 85.98068669624627,81.2547739688307 87.3712446372956,77.28252826957032 87.71888412162662,72.86891621281393 87.02360515110195,69.77938418765552 85.63304721005261,66.68984921043739 82.85193133167922,63.60031128069386 73.11802575178444,58.30395367438905 66.86051502265036,56.53849921072833 60.60300429351628,56.97986291768029 42.52575107477605,55.21440772921778 27.57725322060287,52.124858832452446 23.057939913123846,53.00758739118464 21.319742489606142,54.33167977514677 15.757510730996728,60.06940717436373 12.976394850760698,65.36576188821346 11.933476395905018,71.9861930781044 12.28111588023603,77.72388914367184 14.019313305616379,82.5788547846023 16.80042918585241,85.22701478702947 28.62017167545855,87.43381313211285 47.392703864723444,87.87517262110487 59.5600858386606,90.08196915918961 72.42274678125978,89.1992507246323 77.98497854173183,87.43381313211285 81.46137339249253,84.78565493621863 84.24248927086592,80.81341357552446 86.32832618057728,76.39980634022504 87.02360515110195,72.42755467584357 86.67596566677094,70.66210792493075 81.46137339249253,63.60031128069386 79.02789699658751,61.39349666587077 72.07510729692876,59.18668054509908 59.21244635246694,56.09713544440456 49.478540774434805,51.24213003506884 38.70171673968434,49.47667171480134 26.8819742500782,52.566223142202944 22.362660944461823,54.33167977514677 18.1909871250391,57.86259014857933 15.062231762334704,61.83485971018672 13.32403433509171,66.68984921043739 13.32403433509171,74.6343617583625 14.019313305616379,79.9306926119607 16.80042918585241,84.78565493621863 21.319742489606142,86.10973430634476 26.186695279553533,86.10973430634476 33.139484979212284,84.78565493621863 49.478540774434805,83.90293505671434 66.51287553831935,87.43381313211285 72.42274678125978,87.43381313211285 80.0708154514432,83.90293505671434 81.80901287682354,82.5788547846023 84.24248927086592,79.48933203797787 86.32832618057728,74.6343617583625 85.28540772758424,69.33802222972736 81.80901287682354,64.92439932702109 63.73175965808332,55.655771617311984 48.783261803910136,54.77304378268309 41.48283261992037,55.655771617311984 21.6673819757998,53.448951579164714 17.84334764070809,55.655771617311984 15.062231762334704,60.06940717436373 12.976394850760698,64.92439932702109 12.28111588023603,70.22074608691037 12.976394850760698,75.95844528451562 14.714592276141047,81.2547739688307 17.495708154514432,84.78565493621863 20.62446352094412,86.10973430634476 31.748927038162947,87.87517262110487 52.6072961371392,86.55109397508204 66.51287553831935,88.75789141724817 74.16094420850277,88.75789141724817 80.76609442196786,86.55109397508204 84.59012875705957,83.90293505671434 89.80472103133798,76.8411673353985 90.5,73.31027768994682 88.7618025764823,69.77938418765552 86.32832618057728,66.68984921043739 81.80901287682354,62.71758561511524 77.98497854173183,60.952133561717346 67.20815450884402,59.18668054509908 58.51716738194227,59.18668054509908 51.91201716661453,57.421226562932134 41.48283261992037,52.566223142202944 35.225321888923645,52.566223142202944 21.6673819757998,53.00758739118464 19.929184548556805,53.89031570823863 16.45278969965875,57.421226562932134 14.019313305616379,62.27622269303538 13.32403433509171,68.01393599179573 14.714592276141047,78.60661071143113 16.10515021532774,82.5788547846023 17.495708154514432,83.46157502569258 23.057939913123846,83.46157502569258 31.053648067638278,85.22701478702947 36.61587982997298,85.22701478702947 44.611587984487414,86.55109397508204 64.42703862674534,87.87517262110487 74.8562231771648,86.10973430634476 81.46137339249253,83.46157502569258 84.24248927086592,80.81341357552446 87.3712446372956,74.6343617583625 87.3712446372956,71.5448314207606 86.67596566677094,69.77938418765552 84.24248927086592,66.2484868306201 82.85193133167922,65.36576188821346 73.46566523611546,64.04167402209714 67.55579399317503,62.27622269303538 58.51716738194227,61.83485971018672 49.478540774434805,59.6280438893009 43.22103004343808,60.06940717436373 34.182403434067965,61.83485971018672 25.491416309028864,62.27622269303538 19.929184548556805,64.4830367048271 15.757510730996728,67.1312115311157 13.32403433509171,71.10346970381215 12.28111588023603,75.51708416990004 12.28111588023603,79.48933203797787 14.714592276141047,83.90293505671434 17.148068668320775,85.66837457683869 20.97210300527513,86.55109397508204 31.401287553831935,87.43381313211285 40.43991416506469,86.99245358468033 46.34978540800512,85.66837457683869 54.69313304871321,85.22701478702947 63.73175965808332,86.55109397508204 75.55150214768946,86.10973430634476 80.0708154514432,84.34429502650164 81.46137339249253,83.02021493506618 84.24248927086592,78.60661071143113 86.67596566677094,72.86891621281393 87.02360515110195,69.77938418765552 85.98068669624627,66.68984921043739 83.8948497865349,63.15894847875461 80.76609442196786,61.39349666587077 64.42703862674534,57.421226562932134 36.61587982997298,55.655771617311984 24.79613734036684,56.53849921072833 18.1909871250391,58.30395367438905 14.714592276141047,61.83485971018672 10.890557939186692,68.45529813086614 9.5,72.86891621281393 10.195278968662024,76.39980634022504 12.628755366429687,79.9306926119607 14.36695278994739,81.2547739688307 18.88626609556377,83.02021493506618 24.79613734036684,83.90293505671434 30.010729614645243,88.31653204909526 34.182403434067965,89.1992507246323 71.7274678107351,85.66837457683869 80.76609442196786,83.46157502569258 84.24248927086592,80.81341357552446 87.3712446372956,71.5448314207606 87.3712446372956,69.77938418765552 86.32832618057728,66.68984921043739 83.8948497865349,64.04167402209714 72.07510729692876,60.51077039819211 64.77467811107635,57.86259014857933 56.0836909878999,58.30395367438905 49.82618025690317,57.421226562932134 43.9163090121001,57.86259014857933 24.448497854173183,54.77304378268309 22.01502146013081,55.21440772921778 17.84334764070809,57.421226562932134 14.019313305616379,61.39349666587077 11.585836909711361,66.68984921043739 10.890557939186692,75.95844528451562 12.28111588023603,79.9306926119607 15.062231762334704,82.5788547846023 28.62017167545855,86.99245358468033 33.48712446540594,87.87517262110487 43.22103004343808,87.43381313211285 65.81759656779468,85.22701478702947 77.98497854173183,84.34429502650164 82.50429184548557,81.696134300204 86.32832618057728,78.16524995793588 88.41416309028864,74.19300046307035 88.7618025764823,72.42755467584357 88.41416309028864,70.66210792493075 86.32832618057728,66.68984921043739 83.19957081787288,64.04167402209714 76.94206008687615,60.952133561717346 70.68454935587943,60.06940717436373 57.12660944275558,62.27622269303538 44.611587984487414,61.83485971018672 32.444206008687615,63.60031128069386 22.01502146013081,63.60031128069386 18.1909871250391,65.36576188821346 14.36695278994739,69.77938418765552 12.28111588023603,73.75163910584524 12.628755366429687,79.0479714050889 13.671673821285367,81.696134300204 16.80042918585241,85.66837457683869 20.97210300527513,87.43381313211285 25.491416309028864,87.87517262110487 34.87768240459263,86.55109397508204 43.22103004343808,86.10973430634476 48.783261803910136,85.22701478702947 61.645922746509314,86.99245358468033 74.16094420850277,85.22701478702947 78.68025751039386,83.02021493506618 81.80901287682354,79.9306926119607 85.28540772758424,73.75163910584524 85.98068669624627,68.45529813086614 84.59012875705957,66.68984921043739 82.1566523630172,65.36576188821346 76.24678111635149,63.60031128069386 74.50858369283378,63.15894847875461 63.73175965808332,65.36576188821346 56.77896995656192,64.92439932702109 36.963519314303994,60.51077039819211 22.710300428792834,59.6280438893009 18.538626609370112,60.51077039819211 14.714592276141047,62.71758561511524 11.933476395905018,67.1312115311157 10.195278968662024,71.9861930781044 10.890557939186692,75.95844528451562 12.976394850760698,79.0479714050889 28.62017167545855,85.66837457683869 41.48283261992037,86.10973430634476 55.73605150170624,89.1992507246323 60.95064377784729,89.1992507246323 75.20386266335845,86.55109397508204 81.46137339249253,83.46157502569258 88.06652360782027,76.39980634022504 88.41416309028864,74.6343617583625 86.67596566677094,68.45529813086614 83.5472103022039,64.04167402209714 80.76609442196786,61.39349666587077 77.63733905740082,60.952133561717346 75.20386266335845,63.15894847875461 77.63733905740082,62.71758561511524 81.11373390816152,66.2484868306201 83.5472103022039,70.22074608691037 84.93776824139059,75.07572299498133 83.8948497865349,79.48933203797787 83.19957081787288,81.696134300204 78.33261802792549,85.22701478702947 59.5600858386606,86.55109397508204 50.17381974309683,90.08196915918961 38.00643776729703,90.08196915918961 32.096566524356604,89.64060997124761 29.315450644120574,87.87517262110487 24.79613734036684,83.90293505671434 21.6673819757998,80.37205312401056 19.929184548556805,77.72388914367184 19.581545066088438,75.07572299498133 19.581545066088438,73.31027768994682 21.6673819757998,70.66210792493075 20.62446352094412,62.71758561511524 20.97210300527513,60.952133561717346 23.75321888551116,59.18668054509908 26.8819742500782,58.74531713919714 37.65879828296602,60.952133561717346 44.26394849829376,61.39349666587077 52.25965665280819,63.60031128069386 59.90772532299161,64.04167402209714 73.11802575178444,69.33802222972736 75.89914163202047,72.42755467584357 77.98497854173183,77.28252826957032 77.98497854173183,81.696134300204 75.89914163202047,83.02021493506618 68.94635193236172,81.696134300204 57.12660944275558,80.81341357552446 51.56437768228352,79.48933203797787 45.30686695314944,79.0479714050889 41.135193133726716,79.48933203797787 47.392703864723444,79.48933203797787 51.56437768228352,81.696134300204" stroke="#4DD2FF" stroke-linecap="round" stroke-linejoin="round" stroke-width="0.5"><title>2025-09-09 6.53km</title><desc>15745613279</desc></polyline></svg>