<?xml version="1.0" encoding="utf-8" ?>
<svg baseProfile="full" height="130mm" version="1.1" viewBox="0,0,100,130" width="100mm" xmlns="http://www.w3.org/2000/svg" xmlns:ev="http://www.w3.org/2001/xml-events" xmlns:xlink="http://www.w3.org/1999/xlink"><defs /><rect fill="#FAF9F5" height="130" width="100" x="0" y="0" /><text fill="#5A5A5A" style="font-size:6px; font-family:Arial; font-weight:bold;color:#0ed45e;" x="5" y="10">吵着朝阳出发 独探朝阳公园</text><text fill="#5A5A5A" style="font-size:4px; font-family:Arial" x="5" y="121">Runner</text><text fill="#5A5A5A" style="font-size:6px; font-family:Arial" x="2" y="128">蓝皮书</text><text fill="#5A5A5A" style="font-size:4px; font-family:Arial" x="25" y="121">WORKOUTS INFO</text><text fill="#5A5A5A" style="font-size:3px; font-family:Arial" x="25" y="125">Type: Run</text><text fill="#5A5A5A" style="font-size:3px; font-family:Arial" x="22" y="129">Date: 2025-12-10</text><text fill="#5A5A5A" style="font-size:3px; font-family:Arial" x="47" y="125">Distance: 1.51 km</text><text fill="#5A5A5A" style="font-size:3px; font-family:Arial" x="47" y="129">Duration: 10:17min</text><text fill="#5A5A5A" style="font-size:3px; font-family:Arial" x="75" y="125">Pace: 6:49/km</text><text fill="#5A5A5A" style="font-size:3px; font-family:Arial" x="75" y="129">Elevation: 6m</text><polyline fill="none" points="56.44098397332709,67.13664195440651 55.55437079485273,67.09129871297046 55.119756491621956,67.13664195440651 54.51129646715708,67.09129871297046 53.97237473126734,67.2046567916841 53.62468328868272,67.25 53.24222270178143,67.2046567916841 52.8249929707963,67.09129871297046 52.28607123484835,67.13664195440651 51.50376548914937,67.09129871297046 49.243771112465765,67.11397033529647 48.843925953493454,67.15931357018417 48.531003655225504,67.13664195440651 48.13115849625319,67.06862708731205 47.88777448650217,66.86458230705466 47.853005342243705,66.79656732064905 47.853005342243705,66.70588062585739 47.9051590586314,66.61519387795124 48.044235635665245,66.50183536855911 48.079004779981915,66.41114850148733 47.93992820288986,66.27511810144642 47.60962133243447,66.29778984308359 47.540083043975756,66.22977460824768 47.540083043975756,66.1617593436822 47.60962133243447,66.09374404921255 48.061620207794476,65.79901076227543 49.13946367969038,65.20954250887735 49.31330940092448,65.05083913495764 49.400232261628844,64.84679170147865 49.4350014058291,64.55205604605726 49.46977055002935,63.14638598775491 49.12207910756115,61.83139279221359 49.087309963360894,61.513978971983306 49.10469453543192,61.287254417155054 49.19161739607807,61.08320203454059 49.747923704155255,60.33500766918587 49.85223113693064,60.06293609645218 49.85223113693064,59.81353673564445 49.73053913196782,59.08800904318923 49.747923704155255,58.65722537061083 49.904384853318334,57.79565443760657 49.939153997576796,57.3648671770934 50.130384290998336,56.54863540355291 50.26946086803218,56.23121077645919 50.460691161453724,55.95913200780342 51.2429969071527,55.142892839285196 51.78191864310065,53.26099172708928 51.81668778741732,52.44473836435645 51.799303215229884,52.01393624724005 51.74714949884219,51.673828467697604 51.64284206612501,51.401741707348265 51.43422720057424,51.1069805117877 51.103920330118854,50.7215227187844 50.373768300691154,50.33606396820687 50.28684544010321,50.245367652358254 50.252076295844745,50.154671283613425 50.32161458430346,49.97327838695492 50.84315174818039,49.17968197065056 51.138689474377315,48.45410455198726 51.27776605141116,48.43143020301068 51.4168426283868,48.49945324007422 51.27776605141116,48.31805840828747 51.2429969071527,48.22736091281695 51.20822776289424,47.88724483267288 51.19084319076501,48.113988968965714 51.15607404644834,48.20468653064745 51.08653575798962,48.25003529168316 50.84315174818039,48.31805840828747 50.58238316630013,48.31805840828747 50.35638372867834,48.25003529168316 49.69576998776756,47.88724483267288 49.921769425447565,48.068640168217826 50.28684544010321,48.25003529168316 51.03438204160193,48.22736091281695 51.22561233502347,48.29538403937477 51.468996344774496,48.47677889770421 51.72976492671296,48.81689368549269 51.955764364334755,48.95293939180556 51.955764364334755,48.998287934140535 51.834072359488346,49.56514359411085 51.834072359488346,50.041300748096546 52.42514781182399,51.22035026860249 52.66853182163322,51.583132933912566 52.894531259313226,52.03661007269693 52.877146687183995,52.64880210762203 52.790223826421425,53.17029712103249 52.84237754292553,53.60109602745797 52.98145411995938,53.87317893106956 53.53776042803656,54.37199634849094 53.74637529352913,54.712098213654826 53.902836442692205,54.8708121622476 54.09406673605554,54.984179168968694 54.32006617379375,55.02952594848466 54.65037304419093,54.984179168968694 55.32837135711452,54.75744507262425 55.64129365544068,54.780118497190415 56.128061675000936,54.89348557018093 56.51052226184402,54.8708121622476 56.71913712733658,54.82546533634013 56.858213704428636,54.7347716447548 56.94513656507479,54.57605755703116 56.997290281404275,54.37199634849094 57.08421314205043,53.895852484813076 57.08421314205043,53.69179038169386 57.049443997850176,53.419707160035614 56.979905709275045,53.21564443067473 56.91036742069991,53.17029712103249 56.26713825209299,52.9208866811241 55.7629856604035,52.78484445405775 55.53698622266529,52.64880210762203 55.432678789889906,52.46741212689085 55.27621764072683,52.10463152914599 55.22406392439734,51.923240912205074 55.2066793522099,51.53778514712758 55.119756491621956,51.1750023758359 55.13714106375119,50.630826628315845 55.119756491621956,50.200019474636065 55.17191020800965,50.018626630990184 55.310986785101704,49.85990771887009 55.780370232474525,49.54246940750454 56.19759996357607,48.97561366461741 56.30190739635145,48.7261964816571 56.284522824164014,48.47677889770421 56.128061675000936,48.29538403937477 55.88467766524991,48.15933775641315 55.67606279969914,48.1366633643338 55.102371919492725,48.27270966715878 54.70252676057862,48.18201214520377 54.5808347556158,48.113988968965714 54.52868103928631,48.045965762852575 54.49391189502785,47.75119819190877 54.54606561141554,47.45643006086175 55.0328336309758,46.32270126072399 55.06760277523426,46.118629196920665 55.06760277523426,44.145918740701745 55.05021820310503,44.05521880624292 54.80683419335401,43.71509357968171 54.77206504903734,43.511018085861 54.78944962116657,43.442992861615494 54.980679914646316,43.35229251621058 55.36314050137298,43.306942323601106 56.5626759781735,43.35229251621058 57.10159771417966,43.32961742153566 57.292828007542994,43.23891700989043 57.32759715185966,43.17089166629012 57.310212579672225,43.057516027387464 57.13636685843812,42.62668784399284 57.10159771417966,42.42261091842374 57.0668285699212,41.51559911269578 56.997290281404275,40.92603859532392 57.049443997850176,40.4271779461269 57.36236629605992,39.42945183523989 57.50144287321018,38.681153041135985 57.4666737288353,38.00087827806419 57.397135440434795,37.5700360518822 56.8929828486871,36.345530560196494 56.52790683397325,35.55186443091952 56.04113881441299,34.64481245400384 55.69344737182837,33.82846114024869 55.55437079485273,33.442960415413836 54.80683419335401,31.83291762092267 54.32006617379375,31.47008876844484 53.920221014821436,31.28867402402102 53.41606842313195,31.197966572231962 51.76453407102963,31.084582182913437 51.38207348418655,30.92584389865806 50.98222832521424,30.63104379690776 50.68669059907552,30.313566137716407 50.599767738429364,30.13215004072117 50.651921454875264,29.49719203048153 50.634536882687826,29.134357714880025 50.80838260392193,28.612781899384572 50.80838260392193,28.52207288284262 50.634536882687826,28.227268212925992 50.1129997188109,27.683011965593323 50.060846002423204,27.61497980049171 50.060846002423204,27.501592792279553 50.095615146739874,27.4335605474771 50.252076295844745,27.297495968465228 50.53022944991244,27.161431270142202 50.89530546462629,27.116076344173052 50.964843753143214,27.161431270142202 51.103920330118854,27.38820570104872 51.4168426283868,27.61497980049171 51.6949957824545,27.909785634066793 51.955764364334755,28.000495008614962 52.30345580697758,27.909785634066793 52.92930040351348,27.524270200461615 53.38129927893169,27.184108728150022 53.555145000107586,26.957333998841932 53.57252957223682,26.86662401429203 53.555145000107586,26.685203886023373 53.29437641822733,26.254330231109634 53.224838129710406,26.027554142463487 53.24222270178143,25.755422398549854 53.363914706744254,25.596678660804173 53.555145000107586,25.52864558060537 54.65037304419093,25.596678660804173 54.82421876548324,25.52864558060537 55.15452563588042,25.165801982177072 55.34575592930196,25.09776871302165 55.60652451124042,25.09776871302165 56.110677102871705,25.165801982177072 56.45836854551453,25.301868431051844 56.80605998809915,25.619356347538996 57.20590514695505,26.231652637114166 57.36236629605992,26.367718151042936 57.65790402231505,26.39039572508773 58.07513375335839,26.299685409030644 58.40544062375557,26.27700782174361 58.579286345106084,26.208975039888173 58.61405548930634,26.140942228244967 58.63144006137736,25.93684361418127 58.579286345106084,25.09776871302165 58.49236348440172,24.689568471323582 57.970826320583,24.09994400345022 57.81436517141992,23.623707220191136 57.710057738702744,23.46496130086598 56.71913712733658,22.96604449665756 56.58006055036094,22.875332178009558 56.44098397332709,22.693907381632016 56.162830819317605,22.10427532781614 55.74560108821606,20.834290983737446 55.4848325062776,20.176616433192976 55.25883306871401,19.723046152910683 54.92852619825862,19.13340280565899 54.51129646715708,18.45304231205955 53.9549901590799,17.795357664697804 53.885451870562974,17.75 53.78114443778759,17.75 53.589914144424256,17.863394136860734 51.85145693161758,19.31483176664915 50.40853744506603,20.562150128622307 49.4350014058291,22.14963171922136 49.226386540336534,22.444447940113605 48.94823338626884,22.716585492773447 48.61792651587166,22.96604449665756 48.11377392418217,23.260859165835427 46.131932701624464,24.145299811381847 45.88854869181523,24.304045034456067 45.436549816513434,24.66689064858656 44.880243508378044,24.98437986476347 44.376090916630346,25.211157478464884 43.76763089222368,25.50596788052644 43.10701715137111,26.004876515406067 42.65501827606931,26.617171283243806 42.133481112192385,27.070721404947108 42.06394282373367,27.2294636341976 42.09871196793392,27.4335605474771 42.22040397289675,27.909785634066793 42.255173117097,28.431363813302596 42.28994226141367,28.703490862841136 42.5333262711647,29.383806398051092 42.68978742026957,30.177504084873362 42.7593257088447,30.313566137716407 42.88101771380752,30.381597119368962 43.08963257930009,30.40427410657867 43.559016026731115,30.15482706448529 44.184860623267014,30.04144191267551 44.5673212101683,29.814671360494685 45.03670465754112,29.45183778750652 45.819010403356515,29.089003365807002 46.58393157692626,28.884908630599966 47.2271607456496,28.81687699255417 47.31408360629575,28.839554208607296 47.366237322683446,28.90758583669958 47.34885275049601,29.06632618625008 46.966392163711134,30.26821213332005 46.79254644236062,30.85781315564236 46.21885556221241,32.62660277697432 45.69731839839369,34.30466659532976 45.48870353290113,35.098339105417836 45.33224238373805,35.48383571660088 45.31485781160882,35.66524555510841 45.29747323947959,36.02806459572457 45.17578123457497,36.14144537190441 44.35870634455932,36.45891110437515 43.559016026731115,36.52693939108576 43.48947773815598,36.572291565607884 43.43732402176829,36.7310240722436 43.59378517093137,37.38862844074902 43.73286174790701,38.749180353435804 43.97624575783266,39.58818141843949 44.13270690693753,39.70155959270778 44.7933206477901,39.724235217654496 45.1931658067042,39.79226207251486 46.827315586735494,40.38182689846144 47.08808416867396,40.540555507235695 47.43577561114216,40.88068769357051 47.59223676036345,41.03941579192178 47.661775048822165,41.19814372793189 47.870389914372936,41.94643038166396 47.9051590586314,42.241208981577074 47.88777448650217,42.331909976521274 47.835620770056266,42.3999356879649 47.4531601833296,42.4679613695771 47.29669903416652,42.58133743923099 47.175007029261906,42.74006379771163 47.08808416867396,42.921465151404846 47.01854588009883,43.216241898640874 46.89685387525242,44.123243762005586 46.87946930312319,44.84884143489762 46.93162301951088,46.027930415657465 47.24454531783704,46.93491584171716 47.33146817848319,47.11631229068735 47.731313337397296,47.615151431789855 47.9051590586314,47.70584928506287 48.09638935199473,47.70584928506287 48.58315737155499,47.45643006086175 48.896079669881146,47.45643006086175 49.17423282394884,47.54712800699053 49.99130771396449,48.00061694219767 49.27854025666602,47.56980248520267 48.913464242068585,47.45643006086175 48.67008023231756,47.45643006086175 48.33977336186217,47.56980248520267 47.97469734714832,47.77387264027493 47.81823619798524,47.90991926124843 47.71392876520986,48.09131457026524 47.522698471846525,49.02096220028761 47.157622457132675,49.51979521752219 47.10546874074498,49.701188644365175 47.001161308027804,50.33606396820687 46.827315586735494,50.67617468016397 46.70562358183088,50.789544751882204 46.51439328840934,50.880240749480436 45.85377954755677,51.038958617835306 45.784241259039845,51.08430655043048 45.69731839839369,51.22035026860249 45.662549254193436,51.35639386747789 45.645164682064205,51.56045904221537 45.662549254193436,52.46741212689085 45.69731839839369,52.671475840281346 45.76685668696882,52.73949701846868 45.958086980332155,52.78484445405775 46.688239009759855,52.73949701846868 48.11377392418217,52.71682329577743 51.468996344774496,52.73949701846868 51.660226638254244,52.78484445405775 51.71238035452552,52.87553928539273 51.71238035452552,52.988907749939244 51.138689474377315,55.02952594848466 50.99961289734347,55.23358629227732 50.68669059907552,55.528339648313704 50.35638372867834,55.91378550002992 50.19992257951526,56.140517906533205 50.1129997188109,56.34457678925537 49.86961570911808,57.16080963626155 49.81746199273039,57.79565443760657 49.66100084356731,58.407823750399984 49.62623169919243,59.01999064809934 49.713154559955,59.76819135424739 49.69576998776756,59.972245466167806 49.41761683381628,60.44837068376364 49.035156246856786,60.992512000579154 48.930848814197816,61.26458194342558 48.930848814197816,61.46863408756326 48.98300253058551,61.786048000562005 49.243771112465765,62.80630260898033 49.27854025666602,63.01035272568697 49.261155684594996,64.18930370171438 49.2090019682073,65.6629798256181 49.27854025666602,65.20954250887735 49.261155684594996,65.11885488650296 49.2090019682073,65.05083913495764 49.13946367969038,65.05083913495764 48.687464804330375,65.41358946537366 47.540083043975756,66.07107227781671 47.47054475545883,66.1617593436822 47.4531601833296,66.29778984308359 47.487929327529855,66.41114850148733 47.644390476634726,66.456491941688 47.97469734714832,66.50183536855911 48.14854306844063,66.61519387795124 48.16592764056986,66.70588062585739 48.13115849625319,66.77389565193153 47.9051590586314,66.86458230705466 47.43577561114216,66.95526890913607 46.91423844732344,66.95526890913607 46.41008585569216,67.02328382596897 45.645164682064205,67.06862708731205 43.80240003648214,67.11397033529647 42.18563482869649,67.11397033529647 41.36855993862264,67.15931357018417 42.724556564644445,67.11397033529647 44.32393720024265,67.11397033529647 45.819010403356515,67.06862708731205 47.05331502429908,67.06862708731205 49.052540819044225,67.15931357018417 49.73053913196782,67.11397033529647 48.374542506062426,67.11397033529647 48.1833122127573,67.0459554582485 47.88777448650217,66.81923898604873 47.62700590462191,66.68320894381031 47.47054475545883,66.61519387795124 47.26192988990806,66.61519387795124 46.51439328840934,66.75122397985251 46.01024069666164,67.06862708731205 45.83639497542754,67.11397033529647" stroke="#89CFF0" stroke-linecap="round" stroke-linejoin="round" stroke-width="0.5"><title>2025-12-10 10.21km</title><desc>16698885764</desc></polyline><polyline fill="none" points="49.9686799349729,122.25 49.84339967556298,121.0656963828078 49.874719740240835,120.57563824643148 50.03132006479427,120.20809408064815 50.03132006479427,119.71803444126272 49.686799350893125,119.26881235078326 49.436238831607625,119.18713552950067 49.37359870178625,119.0646202529606 49.59283915616106,118.57455860971822 49.59283915616106,118.41120453760959 49.561519091250375,118.04365752695594 49.37359870178625,117.1452072445245 49.561519091250375,116.85933609475615 49.71811941580381,116.45094823100953 49.874719740240835,115.59333177577355 49.90603980526794,115.02158601087285 49.874719740240835,111.30521004411275 49.9686799349729,110.69261585711502 50.40716084383894,109.46742345686653 50.53244110348169,108.44642568932613 50.59508123318665,97.01099597822758 50.53244110348169,94.51964388947817 50.56376116827596,93.78448657234549 50.501121038454585,90.06782832444878 50.56376116827596,83.94136073405389 50.501121038454585,83.0019571663288 50.438480908749625,81.28651641964098 50.501121038454585,80.30625983857317 50.59508123318665,79.85697442371747 50.68904142791871,79.04009000133374 50.65772136312444,77.8147588923166 50.501121038454585,76.95702392069506 50.46980097366031,75.1190115486097 50.34452071401756,73.89366325398441 50.28188058419619,73.44436753346235 50.06264012970496,72.95422592418618 49.937359870178625,72.83169038759661 49.62415922107175,72.75 49.310958571964875,72.83169038759661" stroke="#4DD2FF" stroke-linecap="round" stroke-linejoin="round" stroke-width="0.5"><title>2025-12-10 1.51km</title><desc>16698368344</desc></polyline></svg>