<?xml version="1.0" encoding="utf-8" ?>
<svg baseProfile="full" height="130mm" version="1.1" viewBox="0,0,100,130" width="100mm" xmlns="http://www.w3.org/2000/svg" xmlns:ev="http://www.w3.org/2001/xml-events" xmlns:xlink="http://www.w3.org/1999/xlink"><defs /><rect fill="#222222" height="130" width="100" x="0" y="0" /><text fill="#FFFFFF" style="font-size:6px; font-family:Arial; font-weight:bold;color:#0ed45e;" x="5" y="10">慢也是快</text><text fill="#FFFFFF" style="font-size:4px; font-family:Arial" x="5" y="121">Runner</text><text fill="#FFFFFF" style="font-size:6px; font-family:Arial" x="2" y="128">蓝皮书</text><text fill="#FFFFFF" style="font-size:4px; font-family:Arial" x="25" y="121">WORKOUTS INFO</text><text fill="#FFFFFF" style="font-size:3px; font-family:Arial" x="25" y="125">Type: Run</text><text fill="#FFFFFF" style="font-size:3px; font-family:Arial" x="22" y="129">Date: 2025-07-02</text><text fill="#FFFFFF" style="font-size:3px; font-family:Arial" x="47" y="125">Distance: 6.78 km</text><text fill="#FFFFFF" style="font-size:3px; font-family:Arial" x="47" y="129">Duration: 51:56min</text><text fill="#FFFFFF" style="font-size:3px; font-family:Arial" x="75" y="125">Pace: 7:39/km</text><text fill="#FFFFFF" style="font-size:3px; font-family:Arial" x="75" y="129">Elevation: 78m</text><polyline fill="none" points="11.882352940738201,65.46309921424836 12.563025210052729,76.69740477646701 18.00840336084366,81.88245543139055 24.815126050263643,84.47497757314704 32.98319327645004,83.61080376151949 41.491596637293696,83.17871676804498 56.466386552900076,83.61080376151949 62.93277310952544,83.61080376151949 79.6092436965555,82.74662971496582 86.75630252063274,77.56158047472127 88.79831932671368,68.05563480523415 84.37394957989454,60.27802165900357 78.92857142724097,58.1175701697357 72.80252100899816,55.957117206417024 64.29411764629185,56.389207917964086 56.806722689419985,57.685479695675895 48.97899159602821,57.25338916108012 45.575630251318216,58.1175701697357 37.747899159789085,58.54966058465652 18.689075630158186,58.54966058465652 10.521008402109146,68.9198128641583 14.605042016133666,80.58619356364943 33.3235294111073,84.47497757314704 50.34033613279462,83.17871676804498 59.52941176481545,83.61080376151949 79.26890756189823,81.88245543139055 85.73529411666095,77.56158047472127 88.45798319205642,67.6235456878785 85.39495798200369,60.71011177939363 77.56722689047456,55.5250264366623 68.03781512565911,56.389207917964086 60.21008403226733,56.389207917964086 54.424369748681784,56.82129856920801 50.0,58.54966058465652 42.51260504126549,58.1175701697357 32.98319327645004,58.54966058465652 21.41176470555365,59.84593147877604 14.605042016133666,61.14220184041187 10.180672269314528,71.51234562508762 13.924369746819139,81.45036820042878 16.647058822214603,83.61080376151949 25.836134454235435,84.90706439153291 37.40756302513182,83.61080376151949 52.722689075395465,82.74662971496582 64.63445378094912,83.61080376151949 73.14285714179277,82.31454260251485 81.99159663915634,81.45036820042878 86.41596638597548,76.69740477646701 86.75630252063274,61.574291843455285 77.56722689047456,57.25338916108012 69.39915966428816,57.25338916108012 67.01680672168732,55.957117206417024 59.18907562829554,56.389207917964086 51.36134453676641,58.1175701697357 46.59663865342736,57.685479695675895 32.30252100713551,57.685479695675895 26.85714285634458,57.685479695675895 21.752100840210915,57.25338916108012 15.966386554762721,61.14220184041187 11.201680671423674,65.46309921424836 12.563025210052729,77.12949265469797 16.306722689419985,82.31454260251485 25.155462183058262,83.17871676804498 39.78991596587002,83.17871676804498 43.53361344523728,82.74662971496582 54.084033612161875,82.31454260251485 61.911764703691006,83.17871676804498 68.03781512565911,82.74662971496582 73.8235294111073,82.31454260251485 85.05462184920907,80.15410615690053 88.45798319205642,75.833228840027 87.43697478808463,63.3026512642391 79.26890756189823,56.389207917964086 64.97478991374373,56.82129856920801 51.36134453676641,58.981750942068174 46.59663865342736,57.685479695675895 43.53361344523728,57.25338916108012 30.260504201054573,57.685479695675895 27.197478991001844,58.1175701697357 19.369747899472713,58.1175701697357 11.542016804218292,64.59892021119595 12.903361344709992,79.72201869054697 19.369747899472713,84.04289069771767 30.9411764703691,83.61080376151949 56.12605041824281,82.74662971496582 72.46218487247825,81.88245543139055 76.54621848650277,83.17871676804498 86.41596638597548,77.99366823607124 89.81932773068547,70.64816827420145 84.7142857145518,59.413841240340844 73.14285714179277,55.957117206417024 65.99579831957817,55.957117206417024 61.57142857089639,55.5250264366623 50.34033613279462,56.389207917964086 39.78991596587002,57.25338916108012 30.600840335711837,57.685479695675895 17.668067226186395,59.84593147877604 11.201680671423674,66.75936727505177 14.605042016133666,80.15410615690053 34.004201678559184,84.47497757314704 50.34033613279462,83.61080376151949 67.35714285634458,83.17871676804498 77.2268907558173,82.74662971496582 86.07563025131822,78.42575593758374 89.47899159602821,70.21607950958423 87.09663865529001,62.006381787126884 76.54621848650277,56.82129856920801 67.69747899100184,56.82129856920801 54.7647058814764,57.25338916108012 46.93697478994727,56.82129856920801 25.155462183058262,57.685479695675895 14.264705881476402,61.574291843455285 11.201680671423674,68.05563480523415 12.563025210052729,79.72201869054697 22.773109244182706,83.17871676804498 31.621848739683628,83.61080376151949 38.088235292583704,83.61080376151949 46.93697478994727,82.74662971496582 55.105042016133666,81.88245543139055 62.252100840210915,83.61080376151949 71.10084033571184,83.17871676804498 76.54621848650277,82.74662971496582 81.65126050263643,81.88245543139055 90.15966386348009,68.9198128641583 86.07563025131822,59.413841240340844 76.2058823518455,56.389207917964086 57.1470588222146,57.25338916108012 47.95798319391906,57.685479695675895 40.47058823518455,58.54966058465652 34.68487394973636,57.25338916108012 13.924369746819139,61.574291843455285 10.86134453676641,71.08025697967969 12.563025210052729,77.99366823607124 20.050420166924596,84.04289069771767 32.98319327645004,83.61080376151949 47.617647057399154,82.74662971496582 57.827731093391776,82.74662971496582 61.911764703691006,83.61080376151949 77.56722689047456,82.74662971496582 85.05462184920907,80.15410615690053 90.5,68.05563480523415 83.35294117592275,57.25338916108012 78.5882352925837,55.09293560846709 72.80252100899816,55.957117206417024 66.6764705888927,55.957117206417024 47.27731092274189,57.685479695675895 43.193277310580015,58.1175701697357 37.747899159789085,57.25338916108012 32.642857141792774,57.685479695675895 16.647058822214603,59.84593147877604 10.86134453676641,69.35190180595964 15.285714285448194,80.58619356364943 21.752100840210915,84.04289069771767 30.600840335711837,84.47497757314704 34.68487394973636,84.04289069771767 42.85294117592275,83.61080376151949 62.252100840210915,82.74662971496582 67.35714285634458,82.74662971496582 84.7142857145518,81.0182809124235 88.79831932671368,75.833228840027 89.13865546137094,71.08025697967969 88.45798319205642,64.1668306204956 81.99159663915634,57.685479695675895 75.52521008439362,56.82129856920801 62.59243697486818,58.1175701697357 55.105042016133666,58.54966058465652 50.68067226745188,56.389207917964086 43.53361344523728,58.54966058465652 36.72689075395465,57.685479695675895 31.962184872478247,57.685479695675895 18.00840336084366,58.54966058465652 12.903361344709992,62.43847167259082 11.882352940738201,76.26531683746725 26.85714285634458,84.47497757314704 35.025210082530975,84.47497757314704 38.76890756189823,83.61080376151949 53.06302520819008,83.17871676804498 63.61344537883997,83.17871676804498 80.63025210052729,82.74662971496582 88.11764705739915,75.833228840027 88.79831932671368,64.59892021119595 80.28991596773267,57.685479695675895 56.806722689419985,57.25338916108012 47.617647057399154,58.1175701697357 39.109243696555495,59.413841240340844 26.516806721687317,57.685479695675895 14.605042016133666,61.14220184041187 11.201680671423674,69.35190180595964 11.882352940738201,76.69740477646701 22.09243697486818,83.61080376151949 36.04621848650277,84.04289069771767 64.63445378094912,83.61080376151949 78.24789915978909,81.88245543139055 83.01260504126549,81.0182809124235 88.45798319205642,72.37652274011634 85.73529411666095,61.574291843455285 72.80252100899816,56.82129856920801 58.168067226186395,56.82129856920801 51.701680671423674,57.25338916108012 44.554621847346425,57.25338916108012 31.962184872478247,57.25338916108012 13.584033612161875,62.87056149775162 11.201680671423674,73.67278796993196 15.966386554762721,81.45036820042878 30.9411764703691,83.61080376151949 63.95378151163459,83.17871676804498 75.86554621718824,83.61080376151949 84.03361344337463,80.58619356364943 88.79831932671368,69.35190180595964 85.39495798200369,60.27802165900357 72.80252100899816,56.82129856920801 69.05882352776825,57.25338916108012 57.827731093391776,56.82129856920801 41.15126050449908,58.1175701697357 34.34453781507909,57.685479695675895 22.773109244182706,58.1175701697357 19.02941176481545,58.981750942068174 10.86134453676641,65.46309921424836 12.563025210052729,78.85784358042292 17.668067226186395,82.74662971496582 33.663865545764565,83.61080376151949 53.06302520819008,83.17871676804498 78.92857142724097,83.17871676804498 86.41596638597548,78.85784358042292 88.45798319205642,62.87056149775162 81.65126050263643,57.25338916108012 77.2268907558173,56.82129856920801 71.78151260316372,57.25338916108012 63.27310924232006,56.389207917964086 50.0,57.25338916108012 38.42857142724097,57.25338916108012 22.432773107662797,58.1175701697357 11.882352940738201,67.19145651091821 12.903361344709992,77.99366823607124 19.02941176481545,83.17871676804498 47.617647057399154,83.61080376151949 79.6092436965555,83.17871676804498 87.09663865529001,75.40114078461193 86.41596638597548,64.1668306204956 78.5882352925837,58.1175701697357" stroke="#4DD2FF" stroke-linecap="round" stroke-linejoin="round" stroke-width="0.5"><title>2025-07-02 6.78km</title><desc>14977917647</desc></polyline></svg>