<?xml version="1.0" encoding="utf-8" ?>
<svg baseProfile="full" height="130mm" version="1.1" viewBox="0,0,100,130" width="100mm" xmlns="http://www.w3.org/2000/svg" xmlns:ev="http://www.w3.org/2001/xml-events" xmlns:xlink="http://www.w3.org/1999/xlink"><defs /><rect fill="#FAF9F5" height="130" width="100" x="0" y="0" /><text fill="#5A5A5A" style="font-size:6px; font-family:Arial; font-weight:bold;color:#0ed45e;" x="5" y="10">轻松拿捏</text><text fill="#5A5A5A" style="font-size:4px; font-family:Arial" x="5" y="121">Runner</text><text fill="#5A5A5A" style="font-size:6px; font-family:Arial" x="2" y="128">蓝皮书</text><text fill="#5A5A5A" style="font-size:4px; font-family:Arial" x="25" y="121">WORKOUTS INFO</text><text fill="#5A5A5A" style="font-size:3px; font-family:Arial" x="25" y="125">Type: Run</text><text fill="#5A5A5A" style="font-size:3px; font-family:Arial" x="22" y="129">Date: 2025-07-09</text><text fill="#5A5A5A" style="font-size:3px; font-family:Arial" x="47" y="125">Distance: 5.79 km</text><text fill="#5A5A5A" style="font-size:3px; font-family:Arial" x="47" y="129">Duration: 35:41min</text><text fill="#5A5A5A" style="font-size:3px; font-family:Arial" x="75" y="125">Pace: 6:09/km</text><text fill="#5A5A5A" style="font-size:3px; font-family:Arial" x="75" y="129">Elevation: 4m</text><polyline fill="none" points="86.71563342306763,54.47621255775448 89.33557951496914,54.75342966086464 89.77223719656467,56.32432443177095 89.9177897577174,58.54205201781588 89.8450134769082,60.48255769320531 89.6994609166868,61.683820322621614 89.8450134769082,63.62431698839646 89.99056603759527,65.84202064981218 90.13611859828234,67.59769756085007 90.2816711589694,70.36980972462334 90.3544474397786,71.5710548022762 90.20889487862587,72.77229774720035 90.20889487862587,74.89756850368576 89.8450134769082,77.85445584385889 89.55390835553408,82.93657577305567 87.73450134741142,84.32260185695486 85.4056603773497,83.95299517893 82.34905660385266,84.13779854302993 79.80188679276034,84.13779854302993 78.20080862520263,84.04539686726639 76.4541778974235,83.95299517893 71.7964959568344,84.32260185695486 69.83153638849035,84.50740512029734 68.5943396226503,84.32260185695486 66.70215633418411,84.32260185695486 60.80727762775496,84.87701149570057 59.93396226409823,85.1542161446414 58.987870620097965,84.96941305790097 57.022911050822586,85.1542161446414 53.60242587607354,85.1542161446414 50.76415094360709,84.5998067331384 48.14420485170558,85.24661766918143 45.74258760130033,85.06181460776133 44.14150943374261,85.1542161446414 42.758760107681155,85.43142068031011 39.70215633418411,85.61622364068171 36.354447439312935,85.70862510218285 35.190026954282075,85.80102655105293 32.71563342306763,85.80102655105293 29.149595687631518,85.8934279870009 26.38409703504294,85.8934279870009 24.05525606451556,85.80102655105293 16.923180592712015,86.07823082146933 13.138814016245306,85.98582941043423 10.882749326061457,85.98582941043423 10.227762803435326,84.96941305790097 10.0822102422826,83.21378121699672 9.863881401717663,82.38216454454232 9.79110512137413,80.71892813389422 9.936657682061195,80.07211286999518 9.863881401717663,79.14808999240631 10.009433962404728,78.31646832358092 10.154986522626132,76.93042993784184 10.227762803435326,74.98997142881854 10.227762803435326,73.04950735508464 9.936657682061195,70.27740616857773 9.863881401717663,69.26096622162731 9.936657682061195,68.33692858135328 10.154986522626132,67.32048571965424 10.227762803435326,66.39644542959286 10.154986522626132,65.19519116613083 9.5,61.49901082611177 9.79110512137413,59.18888786120806 9.572776280343533,57.617999740468804 9.936657682061195,56.97116239531897 13.357142856810242,56.509135341621004 15.977088948711753,56.509135341621004 17.578167115803808,56.693946200830396 20.343665768392384,56.32432443177095 22.454177897423506,56.416729893069714 26.456873315386474,56.23191895784112 27.912398921791464,56.13951347145485 29.440700808539987,56.04710797255393 32.78840970341116,55.862296936509665 34.38948787096888,55.954702460963745 36.063342317938805,55.954702460963745 37.95552560640499,55.769891399657354 40.28436657693237,55.67748584999936 41.81266846368089,55.40026912582107 43.340970350429416,55.49267471313942 44.723719676956534,55.67748584999936 46.10646900255233,55.49267471313942 48.289757412392646,55.40026912582107 51.200808625202626,55.49267471313942 55.13072776328772,55.40026912582107 57.67789757391438,55.67748584999936 59.20619946112856,56.04710797255393 60.51617250684649,55.769891399657354 61.68059299187735,55.67748584999936 62.62668463634327,55.585080287768506 65.53773584868759,55.67748584999936 67.1388140162453,55.30786352587165 67.64824797865003,55.40026912582107 69.24932614574209,55.49267471313942 70.55929919146001,55.67748584999936 73.39757412392646,55.03064664977137 75.21698113204911,55.30786352587165 77.76415094314143,55.12305228802143 79.00134770898148,54.84583533642581 80.16576819401234,54.75342966086464 82.85849056625739,54.56861827155808 83.87735849060118,54.383806831378024 85.6239892183803,54.198995341488626 86.49730458203703,54.383806831378024 88.53504043119028,54.29140109277796 89.8450134769082,55.862296936509665 89.99056603759527,58.726862321724184 89.99056603759527,61.961034472857136 90.0633423179388,63.809125904459506 90.20889487862587,66.02682896022452 90.20889487862587,67.96731317194644 90.20889487862587,71.94066824327456 90.20889487862587,73.60392622934887 90.13611859828234,77.66965076362249 90.13611859828234,78.6860780803836 90.20889487862587,81.18093865789706 89.6994609166868,82.84417393308831 87.22506738547236,84.32260185695486 85.69676549872383,84.04539686726639 82.2035040431656,84.13779854302993 79.14690026966855,84.50740512029734 76.67250673891976,84.04539686726639 72.74258760130033,84.32260185695486 69.68598382780328,84.32260185695486 65.90161725087091,84.50740512029734 63.79110512137413,84.96941305790097 62.11725067393854,85.1542161446414 60.443396226502955,85.24661766918143 57.823450134601444,85.3390191810322 52.947439352981746,85.06181460776133 50.545822102576494,85.1542161446414 48.43530997307971,85.3390191810322 46.68867924530059,85.1542161446414 35.99056603759527,85.80102655105293 34.17115902947262,85.8934279870009 33.07951482478529,85.8934279870009 29.367924528662115,85.8934279870009 26.02021563332528,85.98582941043423 24.56469002692029,85.70862510218285 21.43530997307971,86.07823082146933 19.761455525644124,86.17063221958233 16.41374663077295,86.26303360523889 11.756064690183848,86.26303360523889 10.300539083778858,85.24661766918143 10.227762803435326,83.12137941480614 10.0822102422826,81.27334072487429 9.79110512137413,80.34931948734447 9.863881401717663,78.59367566020228 10.227762803435326,77.48484563286183 10.37331536365673,72.95710416493239 10.300539083778858,71.0166342619923 9.936657682061195,69.44577359850518 9.718328840564936,69.07615879474906 9.936657682061195,68.79894755937858 10.227762803435326,66.85846573242452 10.37331536365673,65.93442481127568 10.227762803435326,64.08633918390842 10.154986522626132,63.25469900510507 9.79110512137413,61.77622505184263 9.79110512137413,60.48255769320531 9.79110512137413,57.24837847601157 11.53773584915325,56.60154077765765 17.28706199489534,56.87875700974837 21.65363881411031,56.87875700974837 23.254716981202364,56.78635161143029 23.76415094314143,56.60154077765765 25.001347708981484,56.60154077765765 27.985175202134997,56.416729893069714 29.149595687631518,56.32432443177095 29.950134770944715,56.416729893069714 34.316711590625346,56.32432443177095 36.936657682061195,56.13951347145485 39.33827493293211,56.13951347145485 40.721024258993566,55.954702460963745 42.394878706429154,55.67748584999936 44.14150943374261,55.954702460963745 45.2331536388956,56.04710797255393 47.707547169644386,55.862296936509665 48.94474393548444,56.04710797255393 49.59973045811057,56.04710797255393 53.747978436760604,55.30786352587165 55.494609164539725,55.03064664977137 58.26010781666264,54.93824099935591 59.861185983754694,55.67748584999936 61.17115902947262,55.769891399657354 62.62668463634327,55.585080287768506 64.37331536412239,55.954702460963745 66.62938005384058,55.585080287768506 67.50269541796297,55.585080287768506 69.90431266836822,55.862296936509665 73.0336927222088,55.862296936509665 75.58086253376678,56.13951347145485 76.01752021582797,56.04710797255393 77.90970350429416,55.67748584999936 79.36522911069915,55.12305228802143 81.69407008076087,55.21545791311655 82.49460916453972,55.03064664977137 84.16846361197531,54.66102397238137 88.09838274959475,54.198995341488626 87.51617250684649,54.29140109277796 84.67789757391438,53.921778011485 82.93126684660092,53.73696639476111 78.85579514829442,53.829372209496796 74.70754716964439,54.014183800667524 71.57816711580381,54.29140109277796 69.83153638849035,54.29140109277796 67.3571428572759,54.29140109277796 61.898921832907945,54.47621255775448 59.35175202134997,55.67748584999936" stroke="#4DD2FF" stroke-linecap="round" stroke-linejoin="round" stroke-width="0.5"><title>2025-07-09 5.79km</title><desc>15051060853</desc></polyline></svg>