<?xml version="1.0" encoding="utf-8" ?>
<svg baseProfile="full" height="130mm" version="1.1" viewBox="0,0,100,130" width="100mm" xmlns="http://www.w3.org/2000/svg" xmlns:ev="http://www.w3.org/2001/xml-events" xmlns:xlink="http://www.w3.org/1999/xlink"><defs /><rect fill="#FAF9F5" height="130" width="100" x="0" y="0" /><text fill="#5A5A5A" style="font-size:6px; font-family:Arial; font-weight:bold;" x="5" y="10">2025-01-23 Workouts</text><text fill="#5A5A5A" style="font-size:4px; font-family:Arial" x="5" y="121">Runner</text><text fill="#5A5A5A" style="font-size:6px; font-family:Arial" x="2" y="128">蓝皮书</text><text fill="#5A5A5A" style="font-size:4px; font-family:Arial" x="25" y="121">STATISTICS</text><text fill="#5A5A5A" style="font-size:3px; font-family:Arial" x="25" y="125">Number: 1</text><text fill="#5A5A5A" style="font-size:3px; font-family:Arial" x="25" y="129">Weekly: 1.0</text><text fill="#5A5A5A" style="font-size:3px; font-family:Arial" x="48" y="125">Total: 10.3 km</text><text fill="#5A5A5A" style="font-size:3px; font-family:Arial" x="48" y="129">Avg: 10.3 km</text><text fill="#5A5A5A" style="font-size:3px; font-family:Arial" x="75" y="125">Min: 10.3 km</text><text fill="#5A5A5A" style="font-size:3px; font-family:Arial" x="75" y="129">Max: 10.3 km</text><polyline fill="none" points="78.03846153989434,82.30531078670174 87.73076923191547,77.47110078297555 87.73076923191547,63.40790312946774 78.38461538404226,57.25523483636789 52.769230768084526,57.694711534073576 28.538461539894342,59.01314126327634 16.07692307792604,60.33157045417465 11.57692307792604,70.87898453278467 15.384615384042263,80.1079435031861 38.92307692207396,84.0632035327144 56.230769231915474,83.18425728031434 78.73076923005283,83.18425728031434 87.38461538404226,78.78952241269872 89.11538461595774,66.48423286573961 84.61538461595774,59.8920941168908 74.5769230760634,56.37628126447089 43.769230768084526,56.37628126447089 22.30769230797887,57.694711534073576 11.923076923936605,65.16580619616434 11.923076923936605,78.35004859650508 20.57692307792604,84.50267657032236 59.0,84.0632035327144 79.0769230760634,82.74478406319395 90.15384615212679,69.12108458578587 81.5,56.815758080687374 33.38461538590491,58.13418817007914 13.653846153989434,62.52895123697817 10.884615384042263,73.0763581157662 18.153846153989434,82.74478406319395 56.923076923936605,84.0632035327144 69.73076923005283,83.18425728031434 89.11538461595774,76.59215272963047 86.69230769202113,61.21052294620313 73.88461538590491,55.93680438701995 18.846153846010566,58.5736647460144 10.538461538031697,68.68160944990814 12.615384615957737,78.78952241269872 27.846153846010566,84.94214954623021 32.346153846010566,84.50267657032236 51.73076923005283,84.50267657032236 61.07692307792604,83.62373043666594 87.38461538404226,80.1079435031861 90.5,72.1974088626448 86.69230769202113,61.21052294620313 76.30769230611622,57.25523483636789 55.5384615380317,58.13418817007914 33.73076923005283,58.13418817007914 19.538461538031697,57.694711534073576 11.923076923936605,62.968427213141695 10.884615384042263,75.27373019861989 17.80769230797887,82.74478406319395 60.0384615380317,84.0632035327144 76.65384615398943,82.74478406319395 89.4615384619683,73.51583265280351 85.30769230611622,61.21052294620313 77.69230769202113,57.25523483636789 52.42307692207396,58.13418817007914 20.23076923005283,58.5736647460144 10.538461538031697,67.80265899631195 12.269230768084526,79.22899616882205 26.461538461968303,84.50267657032236 40.30769230797887,84.0632035327144 81.84615384601057,82.30531078670174 87.38461538404226,78.35004859650508 88.76923076808453,66.92370830266736 83.5769230760634,58.5736647460144 75.61538461595774,59.01314126327634 52.769230768084526,58.5736647460144 34.076923076063395,59.45261772046797 13.307692307978868,62.08947519981302 11.923076923936605,77.91057471954264 19.19230769202113,82.74478406319395 57.26923076994717,83.62373043666594 82.5384615380317,81.8658374492079 88.42307692207396,76.59215272963047 86.34615384601057,62.52895123697817 68.34615384414792,57.694711534073576 54.846153846010566,58.5736647460144 19.884615384042263,56.37628126447089 9.846153847873211,67.80265899631195 16.07692307792604,81.8658374492079 80.11538461595774,82.74478406319395 87.0384615380317,78.78952241269872 89.4615384619683,67.36318367952481 78.03846153989434,56.37628126447089 56.576923076063395,55.93680438701995 42.0384615380317,56.815758080687374 12.615384615957737,61.21052294620313 10.538461538031697,74.83425590279512 19.884615384042263,83.62373043666594 73.88461538590491,82.74478406319395 84.9615384619683,80.98689059633762 89.80769230797887,70.43950963532552 83.92307692207396,59.45261772046797 70.42307692207396,55.49732744996436 45.846153846010566,58.5736647460144 20.57692307792604,58.5736647460144 13.307692307978868,63.40790312946774 11.57692307792604,73.51583265280351 14.692307693883777,80.1079435031861 26.115384614095092,84.0632035327144 88.76923076808453,77.03162678703666 88.76923076808453,64.28685478237458 80.11538461595774,56.815758080687374 57.26923076994717,56.815758080687374 43.076923076063395,58.13418817007914 27.5,57.694711534073576 17.115384614095092,59.8920941168908 10.884615384042263,70.00003467919305 14.346153846010566,80.54741708002985 29.57692307792604,83.18425728031434 42.38461538590491,82.74478406319395 79.76923076994717,82.30531078670174 89.80769230797887,71.31845936994068 85.65384615398943,61.21052294620313 48.26923076994717,58.5736647460144 19.19230769202113,58.13418817007914 10.192307692021132,71.31845936994068 14.346153846010566,80.1079435031861 29.57692307792604,83.18425728031434 48.9615384619683,82.30531078670174 86.34615384601057,78.78952241269872 89.4615384619683,70.00003467919305 86.0,60.771046730456874 62.11538461595774,56.815758080687374 33.0384615380317,57.694711534073576 14.346153846010566,60.771046730456874 10.884615384042263,70.87898453278467 13.307692307978868,79.66846986627206 20.57692307792604,83.62373043666594 53.80769230797887,81.42636405373923 78.38461538404226,81.8658374492079 87.38461538404226,76.15267861261964 88.42307692207396,63.847378986887634 77.69230769202113,56.37628126447089 67.30769230797887,56.815758080687374 21.269230768084526,58.13418817007914 11.230769231915474,66.92370830266736 11.923076923936605,77.03162678703666 29.23076923005283,84.0632035327144 81.84615384601057,82.30531078670174 88.76923076808453,74.39478154666722 87.38461538404226,63.40790312946774 79.76923076994717,57.694711534073576 57.61538461409509,58.13418817007914 28.538461539894342,58.5736647460144 14.0,61.64999910327606 10.192307692021132,73.95530712907203 13.307692307978868,80.98689059633762 35.11538461595774,84.50267657032236 42.38461538590491,84.50267657032236 64.88461538404226,84.0632035327144 84.9615384619683,80.98689059633762 89.11538461595774,65.16580619616434 83.23076923191547,58.5736647460144 58.653846153989434,56.37628126447089 42.38461538590491,57.25523483636789 24.038461538031697,57.25523483636789 13.307692307978868,62.08947519981302 9.846153847873211,72.63688351935707 17.80769230797887,84.0632035327144 44.80769230611622,83.62373043666594 66.9615384619683,83.62373043666594 84.9615384619683,80.54741708002985 88.76923076808453,66.92370830266736 76.65384615398943,56.37628126447089 61.42307692207396,56.815758080687374 20.57692307792604,59.01314126327634 9.846153847873211,68.24213425233029 13.307692307978868,80.98689059633762 50.0,84.0632035327144 60.38461538404226,82.74478406319395 84.9615384619683,80.54741708002985 88.76923076808453,68.24213425233029 85.30769230611622,60.33157045417465 75.61538461595774,57.25523483636789 71.46153846010566,57.694711534073576 45.153846153989434,58.5736647460144 34.42307692207396,57.694711534073576 12.269230768084526,63.40790312946774 10.538461538031697,73.51583265280351 15.384615384042263,81.8658374492079 37.88461538404226,82.74478406319395 51.73076923005283,84.0632035327144 79.76923076994717,82.74478406319395 87.0384615380317,78.78952241269872 89.80769230797887,69.12108458578587 84.9615384619683,59.01314126327634 71.11538461595774,56.815758080687374 59.69230769202113,56.815758080687374 43.42307692207396,57.25523483636789 32.69230769202113,57.694711534073576 21.615384615957737,57.694711534073576 14.692307693883777,61.21052294620313 10.192307692021132,75.27373019861989 16.423076923936605,83.62373043666594 38.57692307792604,82.74478406319395 68.0,81.42636405373923 85.30769230611622,79.66846986627206 90.5,68.68160944990814 79.42307692207396,57.694711534073576 66.26923076994717,57.694711534073576 57.61538461409509,57.694711534073576 51.38461538404226,57.694711534073576 20.57692307792604,57.694711534073576 12.269230768084526,63.40790312946774 11.230769231915474,76.15267861261964 20.57692307792604,84.50267657032236 34.76923076994717,83.18425728031434 77.0,82.30531078670174 87.73076923191547,76.15267861261964 85.65384615398943,60.33157045417465 75.96153846010566,55.49732744996436 67.30769230797887,55.93680438701995 58.30769230797887,57.694711534073576" stroke="#89CFF0" stroke-linecap="round" stroke-linejoin="round" stroke-width="0.5"><title>2025-01-23 10.3km</title><desc>13430688716</desc></polyline></svg>