<?xml version="1.0" encoding="utf-8" ?>
<svg baseProfile="full" height="130mm" version="1.1" viewBox="0,0,100,130" width="100mm" xmlns="http://www.w3.org/2000/svg" xmlns:ev="http://www.w3.org/2001/xml-events" xmlns:xlink="http://www.w3.org/1999/xlink"><defs /><rect fill="#222222" height="130" width="100" x="0" y="0" /><text fill="#FFFFFF" style="font-size:6px; font-family:Arial; font-weight:bold;" x="5" y="10">2025-04-07 Workouts</text><text fill="#FFFFFF" style="font-size:4px; font-family:Arial" x="5" y="121">Runner</text><text fill="#FFFFFF" style="font-size:6px; font-family:Arial" x="2" y="128">蓝皮书</text><text fill="#FFFFFF" style="font-size:4px; font-family:Arial" x="25" y="121">STATISTICS</text><text fill="#FFFFFF" style="font-size:3px; font-family:Arial" x="25" y="125">Number: 1</text><text fill="#FFFFFF" style="font-size:3px; font-family:Arial" x="25" y="129">Weekly: 1.0</text><text fill="#FFFFFF" style="font-size:3px; font-family:Arial" x="48" y="125">Total: 5.1 km</text><text fill="#FFFFFF" style="font-size:3px; font-family:Arial" x="48" y="129">Avg: 5.1 km</text><text fill="#FFFFFF" style="font-size:3px; font-family:Arial" x="75" y="125">Min: 5.1 km</text><text fill="#FFFFFF" style="font-size:3px; font-family:Arial" x="75" y="129">Max: 5.1 km</text><polyline fill="none" points="27.387500002980232,62.287243467522785 49.662500001490116,61.43026513699442 51.01250000111759,62.287243467522785 51.350000001490116,59.71630777535029 49.662500001490116,58.43083913857117 44.26250000111759,58.002349477261305 42.57500000111759,57.14536997699179 36.162500001490116,57.573859757045284 34.475000001490116,58.43083913857117 28.40000000037253,59.71630777535029 21.65000000037253,60.14479720406234 14.900000002235174,64.00119942426682 14.900000002235174,66.14364305557683 13.550000000745058,67.85759690729901 12.200000001117587,72.57096517435275 13.550000000745058,75.99886492267251 14.900000002235174,78.56978727597743 17.600000001490116,82.4261668594554 21.312500001862645,84.14011181890965 24.687500001862645,84.56859791371971 39.537500001490116,85.4255699259229 44.600000001490116,84.14011181890965 50.337500002235174,83.7116256672889 53.71250000037253,82.85465318709612 57.42499999888241,83.28313945559785 64.85000000149012,81.56919402838685 67.21250000223517,81.99768047290854 72.94999999925494,81.56919402838685 78.35000000149012,82.85465318709612 87.46250000223517,78.99827413097955 89.48750000074506,76.85583927482367 90.5,73.42794046225026 90.5,67.00062009878457 88.13750000111759,61.43026513699442 85.43750000186265,58.859328743070364 79.02500000037253,56.28839024435729 68.56250000186265,55.859900288749486 54.05000000074506,58.43083913857117 43.587500002235174,58.002349477261305 36.5,59.28781828889623 28.062500001862645,58.43083913857117 21.65000000037253,59.71630777535029 16.587500002235174,62.71573254419491 13.212500000372529,67.85759690729901 12.537500001490116,71.28550180373713 13.550000000745058,75.14189033675939 13.212500000372529,76.85583927482367 16.587500002235174,81.56919402838685 20.637500002980232,84.14011181890965 21.312500001862645,85.4255699259229 23.0,85.4255699259229 25.699999999254942,84.56859791371971 28.40000000037253,85.4255699259229 40.55000000074506,83.7116256672889 56.412500001490116,84.14011181890965 61.47499999962747,83.28313945559785 68.56250000186265,84.14011181890965 71.59999999962747,83.28313945559785 74.30000000074506,83.7116256672889 80.375,82.85465318709612 86.1125000026077,78.56978727597743 88.47499999962747,75.57037765858695 89.82499999925494,72.14247744274326 89.82499999925494,65.71515444666147 89.15000000037253,63.57271052361466 86.44999999925494,60.14479720406234 82.40000000037253,57.573859757045284 79.02500000037253,56.28839024435729 70.92500000074506,55.00292020407505 63.5,54.5744300740771 53.71250000037253,56.716880140127614 47.63750000298023,56.28839024435729 38.8625000026077,57.14536997699179 30.762500001117587,57.14536997699179 29.075000001117587,57.573859757045284 27.050000000745058,57.14536997699179 21.312500001862645,57.573859757045284 17.600000001490116,59.28781828889623 12.875000001862645,64.00119942426682 10.850000001490116,69.14306168304756 10.512500001117587,71.71398965222761 11.862500002607703,77.28432636288926 14.225000001490116,80.28373434278183 18.27500000037253,83.28313945559785 22.325000001117587,84.56859791371971 46.287500001490116,84.56859791371971 68.56250000186265,83.7116256672889 70.58750000223517,83.28313945559785 80.03750000149012,83.28313945559785 83.41249999962747,81.56919402838685 86.1125000026077,76.85583927482367 88.47499999962747,70.857013897039 88.13750000111759,67.42910853284411 87.125,64.00119942426682 84.08750000223517,60.14479720406234 83.75,59.28781828889623 80.375,57.14536997699179 78.68750000186265,57.14536997699179 77.33750000037253,56.28839024435729 75.31250000186265,56.716880140127614 73.625,56.28839024435729 70.25,56.716880140127614 53.037500001490116,55.00292020407505 47.30000000074506,56.716880140127614 33.80000000074506,55.859900288749486 24.350000001490116,57.14536997699179 19.96250000037253,58.43083913857117 16.587500002235174,61.43026513699442 13.887500001117587,64.85817705257796 12.200000001117587,72.14247744274326 12.537500001490116,75.57037765858695 15.575000001117587,80.71222096355632 18.950000001117587,83.28313945559785 22.325000001117587,84.14011181890965 25.699999999254942,84.56859791371971 31.100000001490116,83.7116256672889 35.48750000074506,84.14011181890965 38.52500000037253,83.7116256672889 55.062500001862645,84.56859791371971 79.02500000037253,83.28313945559785 84.42500000074506,81.1407075242605 87.125,77.71281339298002 89.15000000037253,73.8564280194696 89.48750000074506,68.71457348251715 88.81250000186265,65.28666577953845 87.46250000223517,62.71573254419491 84.08750000223517,59.28781828889623 80.375,57.14536997699179 73.28750000149012,56.28839024435729 70.25,55.00292020407505 64.51250000111759,55.431410275166854 60.46250000037253,56.28839024435729 51.01250000111759,56.28839024435729 48.65000000037253,58.002349477261305 43.92500000074506,58.002349477261305 38.8625000026077,59.71630777535029 30.425000000745058,60.14479720406234 24.350000001490116,58.43083913857117 18.612500002607703,58.859328743070364 13.887500001117587,60.573286573635414 10.512500001117587,66.57213160651736 9.5,72.99945284775458 11.525000000372529,76.85583927482367 13.887500001117587,79.85524766426533 20.975000001490116,83.28313945559785 38.8625000026077,83.28313945559785 43.92500000074506,84.14011181890965 63.5,83.28313945559785 66.19999999925494,84.14011181890965 79.69999999925494,82.85465318709612 84.08750000223517,80.71222096355632 86.78750000149012,78.14130036369897 88.47499999962747,75.14189033675939 89.82499999925494,69.14306168304756 88.47499999962747,64.85817705257796 85.09999999962747,60.14479720406234 81.05000000074506,57.14536997699179 75.65000000037253,55.431410275166854 74.63749999925494,55.859900288749486 66.875,56.28839024435729 65.18750000186265,55.431410275166854 61.812500001862645,56.716880140127614 55.40000000037253,56.28839024435729 48.65000000037253,57.14536997699179 42.57500000111759,56.28839024435729 18.612500002607703,58.859328743070364 14.900000002235174,61.85875433101319 12.537500001490116,64.85817705257796 11.525000000372529,67.85759690729901 12.200000001117587,72.57096517435275 13.550000000745058,76.42735212878324 16.925000000745058,80.28373434278183 19.625000001862645,81.99768047290854 22.66249999962747,82.85465318709612 53.037500001490116,79.85524766426533 71.26250000111759,81.99768047290854 77.33750000037253,81.99768047290854 82.06250000186265,80.28373434278183 86.44999999925494,76.42735212878324 88.47499999962747,72.14247744274326 88.81250000186265,67.00062009878457 87.80000000074506,63.57271052361466 84.76250000111759,59.71630777535029 79.02500000037253,56.28839024435729 72.27500000037253,56.716880140127614 68.22499999962747,55.859900288749486 53.037500001490116,57.573859757045284 42.91249999962747,57.14536997699179 39.537500001490116,56.28839024435729 36.5,56.716880140127614 25.699999999254942,56.716880140127614 21.65000000037253,57.14536997699179 19.287500001490116,58.002349477261305 13.887500001117587,62.71573254419491 11.525000000372529,67.85759690729901 10.850000001490116,72.57096517435275 11.862500002607703,76.42735212878324 14.225000001490116,79.42676092707552 18.27500000037253,82.85465318709612 23.0,84.14011181890965 53.037500001490116,84.56859791371971 62.82500000111759,83.7116256672889 68.56250000186265,81.1407075242605 73.28750000149012,81.56919402838685 77.33750000037253,82.4261668594554 80.03750000149012,81.99768047290854 84.08750000223517,80.28373434278183 87.125,78.14130036369897 90.16250000149012,72.57096517435275 89.82499999925494,67.85759690729901 88.47499999962747,62.287243467522785 85.43750000186265,58.859328743070364 78.68750000186265,56.28839024435729 72.27500000037253,55.431410275166854 49.32500000111759,56.716880140127614 46.287500001490116,56.28839024435729 43.92500000074506,57.14536997699179 32.1125000026077,57.14536997699179 21.65000000037253,58.43083913857117 17.600000001490116,60.573286573635414 14.225000001490116,63.14422156265937 11.525000000372529,68.28608522494324 11.187500001862645,72.57096517435275 11.862500002607703,76.42735212878324 14.225000001490116,79.85524766426533 18.612500002607703,83.28313945559785 21.987500000745058,84.14011181890965 24.687500001862645,83.7116256672889 41.562500001862645,83.7116256672889 46.96250000037253,82.85465318709612 54.72499999962747,83.28313945559785 57.08750000037253,82.4261668594554 64.85000000149012,83.28313945559785 71.9375,80.28373434278183 75.65000000037253,79.85524766426533 80.03750000149012,80.71222096355632 87.125,76.42735212878324 89.48750000074506,71.28550180373713 89.48750000074506,67.85759690729901 88.81250000186265,64.42968826834112 86.78750000149012,60.573286573635414 84.76250000111759,58.002349477261305 82.06250000186265,56.28839024435729 77.67499999888241,55.00292020407505 72.27500000037253,56.28839024435729 70.25,55.859900288749486 65.86250000074506,56.716880140127614 61.812500001862645,55.859900288749486 52.02500000037253,56.716880140127614 50.67500000074506,56.28839024435729 45.61250000074506,57.14536997699179 38.8625000026077,56.28839024435729 25.699999999254942,57.573859757045284 20.637500002980232,58.859328743070364 18.612500002607703,60.573286573635414 15.575000001117587,65.28666577953845 12.537500001490116,71.28550180373713 12.875000001862645,76.42735212878324 14.225000001490116,78.99827413097955 17.600000001490116,81.56919402838685 20.975000001490116,82.85465318709612 32.787500001490116,82.85465318709612 42.23750000074506,81.99768047290854 46.96250000037253,82.85465318709612 56.07500000111759,82.85465318709612 58.77500000037253,81.99768047290854 67.55000000074506,82.85465318709612 79.3625000026077,82.4261668594554 83.41249999962747,80.71222096355632 86.78750000149012,77.28432636288926 88.81250000186265,74.28491551661864 89.15000000037253,68.28608522494324 88.47499999962747,65.28666577953845 86.78750000149012,61.43026513699442 83.07500000111759,58.002349477261305 78.68750000186265,56.716880140127614 73.625,56.716880140127614 67.21250000223517,56.28839024435729 50.0,57.14536997699179 48.98750000074506,58.859328743070364 49.32500000111759,60.573286573635414 48.98750000074506,58.43083913857117 48.312500001862645,57.573859757045284 42.91249999962747,58.002349477261305 39.875,57.14536997699179 33.46250000037253,59.71630777535029 21.65000000037253,60.14479720406234 16.925000000745058,62.287243467522785 14.562500001862645,64.85817705257796 12.875000001862645,69.14306168304756 12.875000001862645,71.71398965222761 14.225000001490116,75.14189033675939 17.262500001117587,79.42676092707552 20.975000001490116,81.56919402838685 24.687500001862645,81.99768047290854 41.90000000037253,80.28373434278183 63.5,80.28373434278183 71.59999999962747,78.99827413097955 80.03750000149012,78.99827413097955 85.43750000186265,75.99886492267251 87.46250000223517,71.28550180373713 88.13750000111759,68.71457348251715 87.80000000074506,66.14364305557683 86.78750000149012,63.14422156265937 84.76250000111759,60.573286573635414 82.40000000037253,58.859328743070364 78.01250000111759,58.002349477261305 55.7375000026077,58.859328743070364 53.375,58.43083913857117 52.02500000037253,57.573859757045284 51.350000001490116,58.43083913857117 45.61250000074506,57.573859757045284 38.52500000037253,58.859328743070364" stroke="#4DD2FF" stroke-linecap="round" stroke-linejoin="round" stroke-width="0.5"><title>2025-04-07 5.1km</title><desc>14105598784</desc></polyline></svg>