<?xml version="1.0" encoding="utf-8" ?>
<svg baseProfile="full" height="130mm" version="1.1" viewBox="0,0,100,130" width="100mm" xmlns="http://www.w3.org/2000/svg" xmlns:ev="http://www.w3.org/2001/xml-events" xmlns:xlink="http://www.w3.org/1999/xlink"><defs /><rect fill="#FAF9F5" height="130" width="100" x="0" y="0" /><text fill="#5A5A5A" style="font-size:6px; font-family:Arial; font-weight:bold;" x="5" y="10">2025-03-14 Workouts</text><text fill="#5A5A5A" style="font-size:4px; font-family:Arial" x="5" y="121">Runner</text><text fill="#5A5A5A" style="font-size:6px; font-family:Arial" x="2" y="128">蓝皮书</text><text fill="#5A5A5A" style="font-size:4px; font-family:Arial" x="25" y="121">STATISTICS</text><text fill="#5A5A5A" style="font-size:3px; font-family:Arial" x="25" y="125">Number: 1</text><text fill="#5A5A5A" style="font-size:3px; font-family:Arial" x="25" y="129">Weekly: 1.0</text><text fill="#5A5A5A" style="font-size:3px; font-family:Arial" x="48" y="125">Total: 5.3 km</text><text fill="#5A5A5A" style="font-size:3px; font-family:Arial" x="48" y="129">Avg: 5.3 km</text><text fill="#5A5A5A" style="font-size:3px; font-family:Arial" x="75" y="125">Min: 5.3 km</text><text fill="#5A5A5A" style="font-size:3px; font-family:Arial" x="75" y="129">Max: 5.3 km</text><polyline fill="none" points="10.867088608443737,76.07479699049145 13.601265823468566,79.97999416920356 15.310126582160592,81.28172549651936 20.778481010347605,83.45127652329393 25.563291139900684,83.45127652329393 32.74050633050501,84.3190965198446 40.9430379755795,83.01736643561162 54.27215189859271,83.45127652329393 62.81645569577813,82.14954608515836 79.90506329201162,81.7156358200591 84.68987341783941,79.97999416920356 87.42405063286424,77.37652991642244 89.4746835436672,73.90524092759006 90.15822784602642,70.00003628386185 89.13291139155626,65.66091438475996 86.74050632864237,60.88787345471792 82.29746835306287,57.41656645736657 78.53797468170524,55.68091153795831 69.65189873427153,55.68091153795831 63.841772152110934,56.98265281668864 55.29746835306287,56.98265281668864 53.58860759437084,57.41656645736657 43.677215188741684,56.548739115241915 40.9430379755795,57.41656645736657 35.13291139155626,56.98265281668864 29.664556961506605,58.2843935622368 27.61392405256629,57.850480038672686 22.145569620653987,58.71830702619627 20.436708860099316,57.850480038672686 14.28481012582779,60.45396028691903 12.917721519246697,61.75569961220026 10.867088608443737,65.22700186935253 9.5,69.56612435984425 11.55063291080296,76.94261899986304 14.626582279801369,80.41390467155725 15.993670888245106,82.14954608515836 23.51265822723508,83.88518655020744 26.930379746481776,83.45127652329393 35.4746835436672,83.88518655020744 37.86708860658109,83.01736643561162 58.0316455680877,83.88518655020744 66.23417721502483,82.14954608515836 79.22151898778975,81.7156358200591 82.98101265914738,79.97999416920356 87.0822784807533,76.50870802463032 89.81645569764078,71.73568338458426 90.5,67.83047607541084 88.4493670873344,63.057438403135166 87.0822784807533,61.321786562679335 79.90506329201162,56.548739115241915 76.14556961879134,56.11482535651885 74.43670886009932,56.548739115241915 70.67721518874168,56.11482535651885 66.91772151738405,56.98265281668864 59.0569620244205,56.98265281668864 55.6392405051738,57.41656645736657 53.930379746481776,56.548739115241915 50.170886075124145,56.98265281668864 48.46202531643212,56.548739115241915 45.72784810140729,57.41656645736657 37.18354430422187,57.850480038672686 31.373417722061276,56.98265281668864 24.196202531456947,58.71830702619627 20.778481010347605,57.850480038672686 14.968354430049658,61.75569961220026 12.917721519246697,64.79308929527178 10.525316456332803,69.13221237785183 10.867088608443737,72.6035065795295 12.575949367135763,77.8104407726787 16.335443038493395,81.7156358200591 22.829113924875855,83.88518655020744 34.79113923944533,84.75300642894581 59.0569620244205,84.3190965198446 72.38607594929636,82.58345629018731 77.51265822723508,83.01736643561162 80.93037974648178,81.7156358200591 85.71518987417221,78.67826230940409 88.79113923944533,73.47132953815162 89.4746835436672,69.56612435984425 89.81645569764078,66.52873923885636 87.76582278497517,61.321786562679335 85.03164556995034,58.71830702619627 83.32278480939567,57.850480038672686 75.80379746854305,56.11482535651885 65.55063291080296,55.2469976588618 54.613924050703645,55.68091153795831 51.879746835678816,54.81308372109197 47.436708860099316,56.11482535651885 41.626582277938724,55.68091153795831 27.95569620281458,56.548739115241915 22.145569620653987,55.68091153795831 20.436708860099316,56.11482535651885 13.259493669494987,60.45396028691903 11.55063291080296,62.62352553126402 9.841772152110934,66.52873923885636 10.525316456332803,76.50870802463032 12.575949367135763,79.97999416920356 17.018987342715263,83.45127652329393 23.854430379346013,83.88518655020744 26.930379746481776,83.45127652329393 30.689873417839408,83.88518655020744 38.892405062913895,83.45127652329393 44.01898734085262,84.75300642894581 50.170886075124145,83.01736643561162 67.25949367135763,82.58345629018731 74.09493670985103,81.28172549651936 79.56329113803804,81.7156358200591 83.32278480939567,80.84781511267647 87.76582278497517,77.37652991642244 89.13291139155626,76.07479699049145 89.81645569764078,71.73568338458426 89.4746835436672,66.96265157684684 87.42405063286424,62.18961260118522 86.0569620244205,60.45396028691903 81.61392405070364,58.71830702619627 79.22151898778975,56.548739115241915 73.06962025351822,56.98265281668864 69.65189873427153,56.11482535651885 55.29746835306287,56.98265281668864 54.613924050703645,56.548739115241915 50.85443038120866,56.548739115241915 47.09493670798838,55.68091153795831 35.4746835436672,57.850480038672686 29.664556961506605,56.98265281668864 20.778481010347605,58.2843935622368 19.411392405629158,58.71830702619627 14.626582279801369,61.75569961220026 11.55063291080296,65.66091438475996 10.183544304221869,68.26438823482022 10.183544304221869,73.47132953815162 11.208860758692026,77.37652991642244 15.651898734271526,82.14954608515836 21.803797468543053,84.75300642894581 34.79113923944533,83.88518655020744 45.386075949296355,84.3190965198446 50.51265822723508,83.45127652329393 62.47468354552984,83.01736643561162 67.60126582346857,81.7156358200591 82.29746835306287,81.7156358200591 85.37341772019863,79.97999416920356 87.0822784807533,77.37652991642244 88.10759493522346,74.77306353044696 89.13291139155626,66.09482684149407 87.42405063286424,60.88787345471792 82.98101265914738,57.850480038672686 78.19620253331959,56.11482535651885 76.14556961879134,56.548739115241915 72.04430379718542,56.548739115241915 70.33544303663075,56.11482535651885 54.613924050703645,56.548739115241915 51.19620253145695,57.41656645736657 46.75316455774009,56.548739115241915 33.0822784807533,56.548739115241915 29.322784811258316,58.71830702619627 20.436708860099316,57.850480038672686 15.993670888245106,60.45396028691903 12.575949367135763,64.79308929527178 10.867088608443737,73.90524092759006 13.943037973716855,79.97999416920356 19.411392405629158,83.01736643561162 23.170886075124145,83.88518655020744 29.322784811258316,83.45127652329393 31.373417722061276,84.75300642894581 42.651898734271526,83.01736643561162 57.348101265728474,83.01736643561162 61.44936708919704,82.58345629018731 64.18354430422187,83.01736643561162 67.94303797371686,81.7156358200591 73.75316455587745,81.7156358200591 76.82911392301321,82.58345629018731 82.98101265914738,80.41390467155725 86.0569620244205,77.37652991642244 89.4746835436672,74.77306353044696 90.15822784602642,70.86785995261744 89.81645569764078,68.26438823482022 88.4493670873344,63.92526396736503 85.71518987417221,60.88787345471792 81.61392405070364,57.850480038672686 78.53797468170524,56.548739115241915 74.09493670985103,56.98265281668864 67.25949367135763,55.2469976588618 60.76582278497517,54.81308372109197 54.27215189859271,57.41656645736657 48.80379746854305,56.548739115241915 46.069620253518224,57.850480038672686 33.0822784807533,56.98265281668864 27.95569620281458,58.2843935622368 25.563291139900684,57.41656645736657 23.854430379346013,57.850480038672686 21.46202531643212,56.98265281668864 16.67721519060433,59.58613377576694 11.208860758692026,67.83047607541084 11.208860758692026,73.47132953815162 12.575949367135763,78.67826230940409 20.09493670798838,83.88518655020744 28.981012657284737,84.75300642894581 37.86708860658109,83.88518655020744 45.72784810140729,84.3190965198446 56.66455696336925,83.01736643561162 64.52531645447016,82.58345629018731 71.01898734085262,81.7156358200591 77.17088607698679,82.14954608515836 80.93037974648178,81.7156358200591 84.00632911361754,80.84781511267647 86.74050632864237,79.1121729889419 89.4746835436672,76.07479699049145 90.5,72.6035065795295 88.79113923944533,63.057438403135166 88.10759493522346,61.75569961220026 85.37341772019863,58.71830702619627 82.6392405051738,59.58613377576694 77.51265822723508,57.41656645736657 65.20886075869203,56.11482535651885 50.85443038120866,57.850480038672686 43.677215188741684,56.548739115241915 36.499999998137355,57.41656645736657 32.0569620244205,56.98265281668864 24.196202531456947,58.2843935622368 19.411392405629158,58.2843935622368 17.360759492963552,59.58613377576694 15.993670888245106,59.152220430318266 14.28481012582779,60.45396028691903 13.601265823468566,62.62352553126402 12.234177215024829,64.79308929527178 11.208860758692026,66.52873923885636 10.867088608443737,70.86785995261744 10.867088608443737,76.50870802463032 12.575949367135763,79.97999416920356 15.310126582160592,82.58345629018731 18.386075949296355,83.88518655020744 20.778481010347605,84.75300642894581 36.499999998137355,85.18691627890803 53.24683544225991,83.01736643561162 55.98101265728474,83.45127652329393 64.18354430422187,81.28172549651936 69.99367088638246,82.58345629018731 81.27215189859271,82.14954608515836 83.6645569615066,81.28172549651936 86.74050632864237,79.1121729889419 89.81645569764078,74.77306353044696 90.15822784602642,69.56612435984425 89.13291139155626,65.66091438475996 86.0569620244205,60.45396028691903 84.00632911361754,59.152220430318266 81.27215189859271,58.2843935622368 79.90506329201162,59.58613377576694 77.85443037934601,57.850480038672686 76.14556961879134,58.2843935622368 73.06962025351822,56.98265281668864 68.28481012582779,58.2843935622368 65.8924050629139,57.850480038672686 58.715189872309566,58.71830702619627 55.29746835306287,57.850480038672686 53.24683544225991,58.2843935622368 49.487341770902276,58.2843935622368 40.60126582160592,56.11482535651885 35.13291139155626,57.850480038672686 33.42405063286424,57.41656645736657 29.322784811258316,57.41656645736657 28.297468354925513,58.2843935622368 23.854430379346013,57.850480038672686 22.829113924875855,56.98265281668864 19.753164555877447,57.41656645736657 11.892405062913895,65.66091438475996 10.867088608443737,69.56612435984425 10.867088608443737,73.47132953815162 11.892405062913895,76.50870802463032 13.601265823468566,79.54608360887505 14.968354430049658,80.84781511267647 20.436708860099316,83.88518655020744 32.398734176531434,84.75300642894581 43.677215188741684,83.45127652329393 59.0569620244205,84.75300642894581 69.65189873427153,82.14954608515836 78.87974683567882,81.28172549651936 79.56329113803804,81.7156358200591 86.74050632864237,78.67826230940409 89.4746835436672,73.47132953815162 89.4746835436672,68.69830033672042 87.42405063286424,61.75569961220026 82.98101265914738,58.71830702619627 78.19620253331959,59.152220430318266 66.91772151738405,56.548739115241915 63.5,57.41656645736657 58.0316455680877,56.98265281668864 50.85443038120866,58.2843935622368 38.208860758692026,57.850480038672686 31.031645569950342,59.152220430318266 26.930379746481776,59.152220430318266 25.22151898778975,58.2843935622368 18.72784810140729,59.152220430318266 15.651898734271526,61.321786562679335 14.28481012582779,62.62352553126402 11.892405062913895,67.83047607541084 11.208860758692026,71.30177169805393 12.575949367135763,75.20697474223562 12.575949367135763,77.37652991642244 17.018987342715263,82.14954608515836 22.829113924875855,84.75300642894581 35.13291139155626,84.75300642894581 46.75316455774009,83.88518655020744 54.613924050703645,83.88518655020744 57.348101265728474,83.45127652329393 60.42405063286424,83.88518655020744 62.47468354552984,83.01736643561162 66.57594936899841,83.45127652329393 82.6392405051738,81.7156358200591 88.79113923944533,76.50870802463032 89.81645569764078,72.6035065795295 89.81645569764078,71.30177169805393 90.15822784602642,67.39656385499984 89.4746835436672,65.22700186935253 87.76582278497517,63.057438403135166 87.76582278497517,61.75569961220026 83.6645569615066,58.2843935622368 81.95569620281458,58.71830702619627 75.80379746854305,56.98265281668864 72.38607594929636,57.850480038672686 57.68987341783941,56.548739115241915 51.53797468356788,57.850480038672686 38.55063291080296,57.850480038672686 36.499999998137355,59.152220430318266 33.76582278497517,59.152220430318266 32.74050633050501,58.2843935622368 28.639240507036448,58.2843935622368 21.120253164321184,56.98265281668864 17.018987342715263,57.850480038672686 14.626582279801369,59.152220430318266 11.892405062913895,63.057438403135166 10.183544304221869,66.96265157684684 9.841772152110934,70.86785995261744 10.183544304221869,74.77306353044696 11.55063291080296,78.24435157002881 14.626582279801369,81.28172549651936 21.803797468543053,84.75300642894581 27.27215189859271,84.75300642894581 50.51265822723508,83.88518655020744 55.98101265728474,83.01736643561162 63.841772152110934,84.3190965198446 80.58860759437084,83.01736643561162 85.71518987417221,79.54608360887505 88.4493670873344,75.20697474223562 89.13291139155626,69.56612435984425 87.42405063286424,65.22700186935253 86.39873417839408,63.92526396736503 85.71518987417221,61.75569961220026 81.27215189859271,58.71830702619627" stroke="#4DD2FF" stroke-linecap="round" stroke-linejoin="round" stroke-width="0.5"><title>2025-03-14 5.3km</title><desc>13875954977</desc></polyline></svg>