<?xml version="1.0" encoding="utf-8" ?>
<svg baseProfile="full" height="130mm" version="1.1" viewBox="0,0,100,130" width="100mm" xmlns="http://www.w3.org/2000/svg" xmlns:ev="http://www.w3.org/2001/xml-events" xmlns:xlink="http://www.w3.org/1999/xlink"><defs /><rect fill="#222222" height="130" width="100" x="0" y="0" /><text fill="#FFFFFF" style="font-size:6px; font-family:Arial; font-weight:bold;color:#0ed45e;" x="5" y="10">迎夏至致中考</text><text fill="#FFFFFF" style="font-size:4px; font-family:Arial" x="5" y="121">Runner</text><text fill="#FFFFFF" style="font-size:6px; font-family:Arial" x="2" y="128">蓝皮书</text><text fill="#FFFFFF" style="font-size:4px; font-family:Arial" x="25" y="121">WORKOUTS INFO</text><text fill="#FFFFFF" style="font-size:3px; font-family:Arial" x="25" y="125">Type: Hike</text><text fill="#FFFFFF" style="font-size:3px; font-family:Arial" x="22" y="129">Date: 2025-06-21</text><text fill="#FFFFFF" style="font-size:3px; font-family:Arial" x="47" y="125">Distance: 7.64 km</text><text fill="#FFFFFF" style="font-size:3px; font-family:Arial" x="47" y="129">Duration: 01:28:10</text><text fill="#FFFFFF" style="font-size:3px; font-family:Arial" x="75" y="125">Pace: 11:32/km</text><text fill="#FFFFFF" style="font-size:3px; font-family:Arial" x="75" y="129">Elevation: 17m</text><polyline fill="none" points="42.6356951209018,52.5416934833338 42.10967334371526,51.90919864550233 41.61871968512423,51.41223753531813 41.09269790793769,50.01170660034404 40.49653989402577,49.4243853444932 39.514632576843724,48.06902446888853 38.63792961509898,46.80401578420424 37.86643100879155,45.99079326391802 37.37547735008411,45.17756866841228 36.53384250670206,44.63541778517538 35.2363221233245,42.69270287966356 34.53495975385886,42.19572739698924 32.99196254089475,42.557164188532624 31.624305920675397,43.144498100475175 31.06321602500975,43.551113251858624 29.835831878590398,44.22880401753355 27.696676651830785,44.816134848748334 26.293951912783086,45.539002078119665 25.03149964788463,45.62936036652536 23.839183619827963,45.99079326391802 23.663843027548864,48.24973958526971 23.453434316674247,49.69545682796161 23.733979264390655,52.40615898091346 23.839183619827963,53.44525535980938 24.4704097523354,54.39399257313926 24.715886581572704,54.89094903387013 25.17177212180104,55.523437954019755 25.76793013594579,56.33663614979014 26.01340696506668,56.69805690416251 26.434224386815913,56.92394466744736 26.81997368996963,57.19500977214193 27.030382400844246,57.46607464621775 28.327902784221806,58.73104101009085 29.415014456841163,60.17671070701908 30.291717418585904,61.080250937491655 30.677466721856035,62.842147019197 31.168420380563475,64.15226856077788 31.8697827499127,66.77249548767577 32.25553205318283,66.99837611083058 32.78155383025296,68.850591181661 33.34264372580219,70.11551236134255 33.86866550263949,72.05806011302047 34.464823516784236,73.68437005576561 35.4817989525618,76.44004296002095 35.6571395448409,77.29836244124454 36.919591809855774,79.78295843600063 37.37547735008411,81.1833585530112 37.58588606095873,81.40922896348638 38.532725259661674,83.44205545424484 38.56779337802436,84.07448771846248 39.44449634000193,85.3845219881332 39.68997316912282,85.97177698189626 39.61983693228103,86.55903089375352 39.90038187999744,87.37214990850771 40.11079059087206,88.04974750295514 40.847221078700386,89.22424658786622 41.16283414501231,90.17287730480894 41.86419651447795,91.97978514598799 42.28501393611077,92.7477178768604 42.7759675947018,94.23840554375784 43.126648779492825,95.14184922166169 43.86307926743757,95.68391419929685 44.354032926028594,97.3552754111879 44.5995097552659,98.1231951918453 44.774850347545,98.52974020928377 45.125531532336026,99.74937215031241 45.61648519092705,100.87865682379925 46.52825627126731,102.36930646694964 47.44002735160757,105.35058484176989 47.790708536165766,105.71195002296008 48.281662194873206,106.61536118350341 48.80768397182692,108.06081371501205 49.15836515661795,109.00938837692956 49.368773867492564,109.37074941035826 50.1753405922791,110.5 51.788474041968584,110.40966010009288 54.20817421656102,109.82245012623025 54.90953658602666,109.596599848388 55.22514965233859,109.41591951079317 57.434441116056405,108.55768650892423 58.872233973350376,108.28666508098831 59.53852822445333,108.24149482051143 60.48536742303986,107.74462153378408 61.81795592501294,107.2477474725165 63.71163432253525,106.70570215862244 66.2716069710441,105.75712064167601 67.56912735430524,105.21507279318757 67.84967230225448,105.26024348245119 71.25127979391254,103.95029089573654 72.61893641448114,103.31789806523011 73.49563937610947,102.86618813229143 75.73999895853922,102.1434509086539 76.02054390625563,101.64656811655732 77.5635411189869,100.69797154478147 76.68683815712575,99.74937215031241 75.77506707678549,98.25871025529341 73.53070749470498,94.3739222586737 72.47866394044831,92.43151050593588 70.26937247684691,89.17907362611732 70.0940318844514,88.68217062490294 69.60307822574396,87.59801593341399 68.90171585639473,87.19145697320346 68.3406259608455,85.65556288891821 67.63926359149627,85.47486898067291 67.49899111746345,84.48105065419804 66.44694756343961,83.44205545424484 65.99106202309486,83.12583885181812 65.46504024602473,82.49340470531024 65.07929094298743,82.35788293924998 64.41299669200089,81.36405489416211 64.5182010474382,81.27370673642145 63.71163432253525,80.4153979604016 63.501225611777045,80.32504953385796 62.940135716227815,79.15051765670069 62.764795123715885,78.83429679649998 61.81795592501294,78.06633054406848 61.327002266421914,77.16283846634906 60.73084425239358,76.62074199030758 60.59057177847717,76.30451862025075 60.16975435684435,75.62689605649211 59.117710802704096,74.63304702346795 58.13580348552205,73.0970924225694 57.574713589739986,72.41946303972509 57.11882804974448,71.06419995179749 56.382397561799735,70.61244430852821 55.330354007775895,69.347525100864 54.45365104591474,67.5856649815687 53.29640313622076,67.17908049392281 52.805449477629736,66.27555755333742 52.52490452991333,65.82379512264743 51.89367839740589,64.8299155208515 51.15724790946115,64.33297455770662 50.561089895432815,63.24873703945195 49.929863763041794,62.119319035700755 49.053160801297054,60.944720066239825 49.018092682701536,60.76401214819634 48.35179843183141,59.81529389755451 47.36989111453295,59.04728181663086 46.49318815267179,57.28536475560395 45.82689390180167,56.20110326126451 45.16059965081513,55.83968194332556 44.28389668907039,54.30363676970592 43.16171689797193,53.40007732677623 42.144741462310776,51.72848560428247 41.443379092845134,51.36705921406974 40.882289197295904,49.69545682796161 39.65490505064372,48.15938203979749 38.77820208889898,47.481699632597156 38.63792961509898,46.84919475216884 37.51574982388411,45.40346459753346 36.95465992845129,45.04203103412874 36.25329755898565,44.002907255722675 34.815504701575264,42.24090701818932 34.35961916157976,42.06018849433167 33.6231886735186,41.11141456250334 33.6231886735186,40.524076903326204 33.097166896564886,39.8011982984317 32.50100888230372,39.07831805371097 31.203488498926163,37.045208573923446 30.36185365577694,36.45786342036445 29.6604912863113,35.10244739599875 29.099401390529238,34.650640773557825 27.83694912563078,32.88858882492059 27.766812888672575,32.707864997093566 26.995314282248728,31.66870099902735 26.258883794536814,30.855439853912685 25.80299825419206,30.358445910329465 25.136704003321938,29.680725646874635 24.715886581572704,29.5 24.85615905560553,30.313264604250435 23.874251738307066,31.487976479373174 24.330137278418988,31.804244321247097 24.22493292298168,32.481960068515036 22.78714006568771,33.02413162836456 22.436458881013095,33.70184478114243 22.57673135481309,34.96690547661274 22.717003828729503,37.22592994169099 22.78714006568771,39.30421830629348 23.137821250478737,42.87342104493291 23.24302560579963,43.325216009659925 23.207957487320527,43.95772788420436 23.55863867199514,45.35828542456147 23.24302560579963,45.539002078119665 23.59370679059066,46.352225751266815 25.066567766363733,46.035972347192 27.100518637802452,45.448643764219014 27.977221599663608,45.17756866841228 28.99419703509193,44.86131409864174 30.642398603493348,44.22880401753355 31.589237802196294,43.91254850613768 32.60621323774103,43.00895960157504 32.88675818569027,42.8282415131398 33.58812055492308,42.331266241846606 34.39468727982603,42.24090701818932 34.88564093853347,42.42162543977611 36.28836567734834,43.95772788420436 37.44561358704232,45.31310624507023 38.63792961509898,47.34616297815228 39.65490505064372,48.65634822260472 40.18092682783026,49.37920674151974 41.96940087003168,51.5929507559631 42.67076323914807,52.76758419271209 43.51239808264654,53.71632342328667 44.91512282146141,55.65897113076062 45.86196202028077,56.38181376643479 46.70359686354641,58.14373582278495 47.580299825407565,59.1828134948737 48.84275209042244,60.312241904844996 50.84163484338205,63.15838374654413 50.91177108022384,63.20356039624312 50.0350681184791,62.75179361100891 49.754523170762695,61.757904429221526 49.088228919543326,60.89954309625318 48.49207090563141,59.67976248834748 47.36989111453295,58.821395558450604 46.98414181137923,58.14373582278495 46.31784756039269,56.969122200855054 45.02032717689872,55.794504249846796 44.28389668907039,54.258458858384984 43.196785016334616,53.35489928742754 42.74089947633911,52.903118541406 42.390218291431665,52.22544622136047 41.443379092845134,51.14116751210531 41.12776602653321,50.01170660034404 40.636812367942184,49.33402813205612 39.97051811707206,48.746705627127085 39.58476881380193,48.02384567365516 38.81327020737808,47.481699632597156 38.74313397030346,47.61723622930003" stroke="#4DD2FF" stroke-linecap="round" stroke-linejoin="round" stroke-width="0.5"><title>2025-06-21 7.64km</title><desc>14865395068</desc></polyline></svg>