<?xml version="1.0" encoding="utf-8" ?>
<svg baseProfile="full" height="130mm" version="1.1" viewBox="0,0,100,130" width="100mm" xmlns="http://www.w3.org/2000/svg" xmlns:ev="http://www.w3.org/2001/xml-events" xmlns:xlink="http://www.w3.org/1999/xlink"><defs /><rect fill="#FAF9F5" height="130" width="100" x="0" y="0" /><text fill="#5A5A5A" style="font-size:6px; font-family:Arial; font-weight:bold;color:#0ed45e;" x="5" y="10">晨间跑步Run</text><text fill="#5A5A5A" style="font-size:4px; font-family:Arial" x="5" y="121">Runner</text><text fill="#5A5A5A" style="font-size:6px; font-family:Arial" x="2" y="128">蓝皮书</text><text fill="#5A5A5A" style="font-size:4px; font-family:Arial" x="25" y="121">WORKOUTS INFO</text><text fill="#5A5A5A" style="font-size:3px; font-family:Arial" x="25" y="125">Type: Run</text><text fill="#5A5A5A" style="font-size:3px; font-family:Arial" x="22" y="129">Date: 2025-10-20</text><text fill="#5A5A5A" style="font-size:3px; font-family:Arial" x="47" y="125">Distance: 5.11 km</text><text fill="#5A5A5A" style="font-size:3px; font-family:Arial" x="47" y="129">Duration: 36:39min</text><text fill="#5A5A5A" style="font-size:3px; font-family:Arial" x="75" y="125">Pace: 7:10/km</text><text fill="#5A5A5A" style="font-size:3px; font-family:Arial" x="75" y="129">Elevation: 0m</text><polyline fill="none" points="85.09356376645155,48.81648743952974 83.64541120408103,49.375612413772615 80.60429082275368,50.30748578970088 78.57687723496929,51.363606559694745 76.88736591185443,52.046977470075944 75.43921334925108,52.79247179621598 70.61203814065084,54.469829405483324 68.00536352815107,55.650188328902004 66.89511322998442,56.02293259339058 65.9779499405995,56.45780050221947 64.14362336113118,57.07903962544515 62.79201430291869,57.7002778701717 58.20619785459712,59.439740282599814 56.8545887961518,60.12309863205883 54.392729439772666,61.05494921398349 52.36531585245393,61.98679781964165 50.91716328961775,62.54590603429824 49.710369487525895,62.794398345955415 44.30393325374462,65.46568181930343 42.46960667450912,65.9626629994018 41.2628128726501,66.58388868405018 39.766388557851315,66.9566236732062 37.01489868876524,68.38543820250197 30.49821215751581,71.05668768598116 28.084624553099275,71.80214975966373 27.21573301544413,72.17488032238907 25.043504171539098,73.41731324765715 20.650774731766433,74.72186403829255 18.526817640289664,75.71580489820917 16.1132300356403,76.58550130651565 14.278903456637636,77.39307500128052 12.975566150154918,77.64155891668634 12.251489868853241,77.82792176061776 11.479141835588962,77.8900426912005 9.741358760511503,78.38700981909642 9.596543504158035,78.57337234704755 9.5,79.25670094028465 9.596543504158035,80.2506315424107 9.837902264436707,80.87183702725451 9.837902264436707,81.6794028445438 9.934445768827572,82.11424536220147 10.320619785459712,83.29453002681839 11.141239570686594,85.22025083113112 11.479141835588962,86.33840742576285 12.348033373011276,87.70503939932678 13.023837902350351,88.57471207875642 14.95470798574388,92.36398009458208 15.72705601900816,93.23364355356898 15.485697258729488,93.1094060218893 14.56853396887891,90.81100535125006 13.072109654312953,88.82318967118044 12.83075089380145,88.32623434608104 11.527413587551564,84.84753133406048 11.382598331430927,84.16421143509797 10.513706793775782,82.2384860025195 10.417163289850578,82.05212502897484 10.561978545971215,81.74152323050657 11.04469606676139,81.55516204616288 12.782479141838849,81.49304163371562 14.616805721074343,80.93395752753713 16.1132300356403,80.93395752753713 18.67163289617747,80.2506315424107 21.95411203801632,78.88397638476454 23.88498212164268,78.69761398856645 25.719308700645342,78.0764054301253 27.746722288429737,77.76580082142027 29.436233611544594,76.95822781149764 29.9672228845302,76.89610674939468 30.93265792634338,76.46125906784437 32.766984505346045,75.9642897619924 34.35995232430287,75.34307733937749 34.890941597288474,75.03247079849825 36.870083432644606,74.41125705855666 39.13885578070767,73.47943480178947 43.72467222879641,72.42336718848674 45.221096543595195,71.9263933157199 45.607270560227334,71.86427154217381 45.70381406438537,71.98851508047665 45.800357568543404,71.61578435986303 45.414183551911265,72.85821886587655 45.028009535279125,76.33701679413207 45.028009535279125,77.51731697644573 44.40047675813548,81.80364360785461 44.15911799762398,82.67332796691335 43.77294398099184,84.53693151182961 43.53158522048034,85.96568887706962 43.57985697267577,86.15204819082282 43.96603098930791,86.46264687160146 45.607270560227334,87.08384357465548 47.007151370635256,87.39444159681443 47.48986889142543,87.39444159681443 48.744934445712715,86.46264687160146 49.22765196696855,85.28237071671174 49.66209773556329,83.48089047335088 50.14481525635347,80.3748727098573 50.675804529339075,78.01428452585242 51.255065554287285,74.47337847197196 51.54469606699422,72.42336718848674 51.49642431479879,71.36729703706806 51.59296781872399,70.68395617470378 51.93087008362636,69.31727126223268 52.075685339747,68.13694905303419 52.3170441002585,67.1429910492443 52.654946364695206,66.70813371549593 53.52383790211752,66.08690820660559 55.551251489901915,65.27931373208412 59.075089392252266,63.47775147808716 60.76460071536712,63.35350553301396 61.392133492277935,62.85652140181628 62.21275327773765,62.42165982592269 63.46781883202493,61.365565635380335 64.62634088215418,60.806455918675056 65.44696066738106,60.06097518969909 65.92967818840407,59.688234350673156 66.60548271751031,59.439740282599814 68.00536352815107,59.31549319595797 68.34326579258777,58.8806281152938 70.08104886789806,64.40959494537674 71.14302741363645,66.89450119697722 71.48092967830598,68.82029387619696 72.01191895129159,69.25514911965001 72.25327771157026,69.31727126223268 72.44636472011916,69.25514911965001 72.63945172843523,68.50968272474711 72.68772348039784,67.20511349034496 72.54290822404437,65.03082282564719 72.39809296792373,64.47171777300537 72.01191895129159,63.78836618657806 71.81883194274269,62.6701522077783 71.52920143050142,61.67618183721788 69.9362336115446,58.010896663181484 69.98450536374003,57.57603029141319 70.08104886789806,57.38965885763173 71.14302741363645,56.89266798063181 72.25327771157026,56.644172331521986 73.36352800950408,56.271428594045574 74.9082240764983,55.89868454038515 76.7908224076964,54.6562020778365 77.90107270563021,53.662213578179944 79.1561382599175,53.1030940588098 80.89392133499496,52.1091020454769 82.92133492277935,51.61210519546876 86.68653158517554,49.99686155075324 87.94159713946283,49.74836200135178 89.63110846257769,49.06498751594336 90.5,48.133111504721455 90.1620977355633,47.38760927281692 89.96901072724722,47.263358777796384 89.58283671038225,47.13910824767663 87.94159713946283,47.263358777796384 86.2038140646182,47.88461090141209 84.75566150201485,48.6922373486741 84.03158522048034,48.940737495198846 83.11442193109542,49.313487451843685 82.0524433851242,49.561987247143406 80.74910607887432,50.05898641602835 80.65256257448345,50.18323612041422 80.89392133499496,50.55598502268549 81.28009535185993,50.55598502268549 84.46603098930791,49.68623709198437 86.3003575685434,48.63011229006224 87.21752085816115,47.88461090141209 88.18295590020716,47.32548402962857 88.3760429082904,47.201233517203946 88.3760429082904,47.014857682428556 88.2794994043652,46.82848176872358 87.98986889165826,46.76635644643102 87.07270560204051,46.76635644643102 86.78307508956641,46.89060708202305 86.92789034568705,47.014857682428556 87.41060786671005,47.07698296956369 88.0864123958163,46.952732386707794" stroke="#4DD2FF" stroke-linecap="round" stroke-linejoin="round" stroke-width="0.5"><title>2025-10-20 5.11km</title><desc>16196471574</desc></polyline></svg>