<?xml version="1.0" encoding="utf-8" ?>
<svg baseProfile="full" height="130mm" version="1.1" viewBox="0,0,100,130" width="100mm" xmlns="http://www.w3.org/2000/svg" xmlns:ev="http://www.w3.org/2001/xml-events" xmlns:xlink="http://www.w3.org/1999/xlink"><defs /><rect fill="#FAF9F5" height="130" width="100" x="0" y="0" /><text fill="#5A5A5A" style="font-size:6px; font-family:Arial; font-weight:bold;color:#0ed45e;" x="5" y="10">节气跑—迎霜降</text><text fill="#5A5A5A" style="font-size:4px; font-family:Arial" x="5" y="121">Runner</text><text fill="#5A5A5A" style="font-size:6px; font-family:Arial" x="2" y="128">蓝皮书</text><text fill="#5A5A5A" style="font-size:4px; font-family:Arial" x="25" y="121">WORKOUTS INFO</text><text fill="#5A5A5A" style="font-size:3px; font-family:Arial" x="25" y="125">Type: Run</text><text fill="#5A5A5A" style="font-size:3px; font-family:Arial" x="22" y="129">Date: 2025-10-23</text><text fill="#5A5A5A" style="font-size:3px; font-family:Arial" x="47" y="125">Distance: 5.61 km</text><text fill="#5A5A5A" style="font-size:3px; font-family:Arial" x="47" y="129">Duration: 39:37min</text><text fill="#5A5A5A" style="font-size:3px; font-family:Arial" x="75" y="125">Pace: 7:03/km</text><text fill="#5A5A5A" style="font-size:3px; font-family:Arial" x="75" y="129">Elevation: 2m</text><polyline fill="none" points="86.23936170223169,39.47394135512877 84.61170212761499,40.15166239999235 82.88829787238501,40.767771525948774 81.73936170223169,41.322268994525075 78.57978723407723,42.061597854975844 77.76595744676888,42.67770428050426 76.85638297861442,43.23219931864878 75.32446808507666,43.909914518124424 73.21808510622941,44.58762866334291 70.44148936169222,46.004663924948545 68.47872340423055,46.80559486045968 64.64893617015332,48.03779342502821 63.21276595722884,48.77711089118384 59.52659574453719,50.37896109803114 57.51595744676888,51.179883993347175 56.22340425522998,51.79597752628615 54.40425531915389,52.35046096146107 53.15957446792163,53.028161979222205 50.2872340423055,54.13712500795373 48.18085106369108,55.184476387890754 47.46276595746167,55.369302840845194 46.40957446815446,55.92378172875033 45.54787234030664,56.108607868052786 44.11170212738216,56.53986855476978 42.67553191492334,57.40238864766434 40.85638297861442,58.264907033444615 36.35638297861442,59.86672236319282 34.25,60.79084391347715 32.86170212761499,61.22209996639867 31.28191489353776,61.96139506396139 26.68617021269165,63.37837382851285 25.53723404253833,63.93284252585727 24.34042553207837,64.36409546918003 20.98936170199886,65.96588837952004 19.26595744676888,66.39713931083679 16.15425531915389,67.75249660239206 14.23936170199886,68.30695973406546 11.36702127638273,69.8471313980699 10.1223404253833,70.40159186456003 9.8351063830778,70.64801851197262 9.5,71.26408452144824 9.69148936169222,72.74263939005323 10.93617021269165,73.17388361523626 12.32446808530949,73.17388361523626 14.3351063830778,72.18818190216552 15.10106382961385,72.00336258285097 17.39893617015332,71.20247795956675 18.88297872338444,70.46319853956811 20.31914893607609,70.15516507753637 22.18617021292448,69.10784967872314 24.24468085099943,68.49178062126157 28.4574468084611,66.02749568142463 30.08510638284497,65.34981487994082 31.52127659576945,65.16499266031315 32.47872340423055,64.61052553079207 36.78723404253833,62.577473353914684 39.7074468084611,61.5917476718605 41.38297872338444,60.91405997224501 44.39893617015332,59.928330527589424 44.97340425522998,59.62028961876058 45.64361702138558,59.12742371193599 47.27127659576945,58.388123806216754 47.27127659576945,58.57294890025514 47.07978723407723,59.00420714810025 46.84042553184554,60.17476309786434 46.17021276592277,61.65335559245432 45.26063829776831,64.7337405096041 44.87765957438387,66.88999699550914 44.73404255323112,68.49178062126157 44.25531914900057,70.21677178749815 43.92021276592277,71.75693670165492 43.82446808507666,73.78994605361368 43.5851063830778,75.39170431764796 43.20212765946053,79.70410115047707 43.34574468084611,82.84596340067219 43.01063829800114,84.63250242135837 42.14893617015332,86.9734735006059 42.14893617015332,87.71272491329 42.05319148930721,88.57518330958555 41.67021276592277,90.36169884409173 41.28723404253833,92.94905318616657 41.19148936169222,94.67394754715497 40.95212765969336,95.96761383771081 41.19148936169222,98.67814028059365 41.09574468084611,100.34140952440794 40.95212765969336,101.08063826180296 40.90425531915389,101.51185444646399 41.23936170199886,101.63505899207667 42.57978723407723,101.26544525034842 45.64361702138558,100.15660214409581 46.17021276592277,99.54057697727694 46.64893617015332,98.3701267610304 46.69680851069279,97.32287916634232 46.69680851069279,96.15242299437523 46.98404255299829,95.28997959310072 47.17553191469051,93.99631129085901 47.79787234030664,91.34735945239663 48.08510638284497,88.39037093965453 48.46808510622941,85.86459403060144 48.85106382984668,84.26287425932242 48.94680851045996,83.03077812187257 48.85106382984668,81.12102222442627 49.13829787238501,79.27286338753765 49.42553191469051,77.9791475381935 49.42553191469051,77.36309102200903 49.85638297838159,74.09797694612644 49.95212765969336,71.57211719942279 50.52659574453719,68.86142216034932 50.76595744653605,66.95160416682484 50.86170212761499,65.41142226904049 51.05319148954004,64.24088038603077 51.19680851045996,62.88551217218628 51.53191489353776,61.34531590298866 51.81914893607609,58.14169022574788 52.10638297861442,57.217563057201914 52.25,57.03273738839198 53.35106382984668,56.53986855476978 54.30851063830778,55.985390450572595 57.18085106392391,53.95229803241091 57.85106382984668,53.64425289921928 59.38297872338444,53.212989346764516 60.19680851045996,52.658507009153254 62.35106382961385,51.73436821225914 63.02127659576945,51.549540217762114 64.69680851045996,50.6870085397386 66.32446808507666,50.25574206051533 68.09574468084611,49.57803673075978 68.23936170223169,49.639646349678515 68.6223404253833,51.118274592154194 68.6702127661556,51.98080541647505 68.81382978730835,52.658507009153254 68.81382978730835,53.76747097863699 68.95744680822827,54.938040995708434 70.15425531915389,58.14169022574788 70.39361702115275,58.57294890025514 71.06382978707552,59.435464968992164 71.73404255299829,60.72923587120022 72.1648936169222,61.03727599608828 72.45212765946053,61.16049198486144 73.1223404253833,61.09888399482588 73.36170212761499,60.97566798844491 73.55319148930721,60.5444116917497 73.40957446815446,59.55868141076644 72.59574468084611,57.71043112434563 71.35106382984668,54.56838764582062 70.96808510646224,52.8433345334488 70.29787234053947,51.611149557866156 69.77127659576945,50.37896109803114 69.57978723407723,49.57803673075978 69.34042553207837,49.02354976767674 69.38829787215218,48.71550115014543 70.20212765946053,48.22262290911749 71.59042553184554,47.72974411043106 73.69680851069279,46.86720487137791 76.80851063830778,45.7582233408757 78.05319148930721,45.45017241491587 79.72872340399772,44.77245961106382 83.46276595722884,43.29380983480951 85.85638297884725,42.061597854975844 86.90957446815446,41.81515504079289 88.58510638284497,41.075825762265595 89.97340425522998,40.64454977042624 90.45212765946053,40.27488429474761 90.5,40.02844047007966 90.26063829776831,39.042663777800044 90.02127659553662,38.54977459521615 89.63829787238501,38.36494100789423 88.8723404253833,38.42655221244786 87.2446808507666,38.857830399560044 85.95212765946053,39.47394135512877 84.99468085099943,39.65877447184175 83.60638297861442,40.33649522921769 81.69148936169222,41.014214932511095 80.39893617038615,41.6303228388424 76.28191489353776,42.800925461022416 75.13297872315161,43.0473677177506 74.27127659576945,43.54025181266479" stroke="#4DD2FF" stroke-linecap="round" stroke-linejoin="round" stroke-width="0.5"><title>2025-10-23 5.61km</title><desc>16227716656</desc></polyline></svg>