<?xml version="1.0" encoding="utf-8" ?>
<svg baseProfile="full" height="130mm" version="1.1" viewBox="0,0,100,130" width="100mm" xmlns="http://www.w3.org/2000/svg" xmlns:ev="http://www.w3.org/2001/xml-events" xmlns:xlink="http://www.w3.org/1999/xlink"><defs /><rect fill="#222222" height="130" width="100" x="0" y="0" /><text fill="#FFFFFF" style="font-size:6px; font-family:Arial; font-weight:bold;color:#0ed45e;" x="5" y="10">Evening Run</text><text fill="#FFFFFF" style="font-size:4px; font-family:Arial" x="5" y="121">Runner</text><text fill="#FFFFFF" style="font-size:6px; font-family:Arial" x="2" y="128">蓝皮书</text><text fill="#FFFFFF" style="font-size:4px; font-family:Arial" x="25" y="121">WORKOUTS INFO</text><text fill="#FFFFFF" style="font-size:3px; font-family:Arial" x="25" y="125">Type: Run</text><text fill="#FFFFFF" style="font-size:3px; font-family:Arial" x="22" y="129">Date: 2025-07-23</text><text fill="#FFFFFF" style="font-size:3px; font-family:Arial" x="47" y="125">Distance: 5.17 km</text><text fill="#FFFFFF" style="font-size:3px; font-family:Arial" x="47" y="129">Duration: 38:43min</text><text fill="#FFFFFF" style="font-size:3px; font-family:Arial" x="75" y="125">Pace: 7:29/km</text><text fill="#FFFFFF" style="font-size:3px; font-family:Arial" x="75" y="129">Elevation: 56m</text><polyline fill="none" points="12.293103447183967,63.12944514956325 10.547413792461157,71.10819692909718 12.99137930944562,78.2004042728804 19.974137930199504,83.96281133242883 35.33620689623058,84.40607298980467 55.237068966031075,83.96281133242883 60.125,83.51954961428419 77.58189655281603,83.96281133242883 86.31034482829273,81.30324011412449 89.1034482754767,76.4273538889829 89.1034482754767,73.76777649857104 89.45258620753884,66.23229539347813 87.70689655281603,61.79965128004551 79.67672413773835,56.923735765973106 68.50431034341455,54.70740811130963 63.616379311308265,56.923735765973106 57.68103448301554,56.923735765973106 55.93534482829273,57.36700111441314 48.603448275476694,56.48047035629861 41.271551724523306,57.36700111441314 29.051724137738347,56.037204885156825 20.672413792461157,56.923735765973106 15.086206896230578,58.696796799078584 11.594827586784959,62.24291596375406 9.849137930199504,68.00535134482197 10.896551724523306,75.09756546630524 16.831896550953388,83.51954961428419 26.60775862261653,84.40607298980467 41.62068965472281,83.51954961428419 54.887931033968925,83.96281133242883 61.87068965472281,83.96281133242883 82.81896551884711,82.18976409500465 88.05603448487818,77.31387920305133 89.80172413960099,66.675559471827 87.00862069055438,60.46985686686821 81.0732758641243,56.923735765973106 74.43965517356992,54.70740811130963 66.40948276035488,56.037204885156825 59.42672413960099,54.70740811130963 47.20689655281603,56.923735765973106 37.78017241321504,57.36700111441314 32.19396551698446,57.810266404179856 26.25862069055438,58.696796799078584 21.71982758678496,58.25353163201362 15.435344828292727,58.696796799078584 10.198275862261653,67.56208744761534 12.293103447183967,79.97345368820243 18.577586205676198,84.40607298980467 30.797413792461157,83.51954961428419 38.47844827733934,83.51954961428419 44.762931033968925,83.51954961428419 60.125,84.40607298980467 85.26293103583157,80.41671589086764 90.15086207166314,69.33514267229475 88.40517241321504,62.68618058762513 85.96120689809322,58.696796799078584 74.09051724337041,54.26414239848964 63.96551724150777,56.923735765973106 56.982758620753884,56.037204885156825 52.79310344718397,56.48047035629861 48.95258620753884,56.037204885156825 38.12931034527719,56.48047035629861 31.49568965472281,57.36700111441314 25.90948275849223,56.48047035629861 17.181034483015537,60.46985686686821 12.293103447183967,62.68618058762513 10.198275862261653,70.22166992165148 13.340517241507769,80.85997803299688 22.068965516984463,84.40607298980467 42.66810344904661,83.96281133242883 72.34482758678496,83.07628783513792 81.0732758641243,83.07628783513792 89.45258620753884,76.4273538889829 89.45258620753884,69.33514267229475 86.31034482829273,60.46985686686821 75.48706896603107,55.15067376289517 70.5991379301995,56.037204885156825 65.36206896603107,56.48047035629861 60.82327586226165,57.36700111441314 52.79310344718397,56.923735765973106 44.41379310376942,57.810266404179856 34.288793101906776,57.810266404179856 26.60775862261653,58.25353163201362 19.624999998137355,58.25353163201362 16.482758620753884,57.36700111441314 10.198275862261653,68.89187895739451 11.24568965472281,76.4273538889829 12.99137930944562,81.30324011412449 19.27586206793785,84.84933458804153 31.84482758678496,83.96281133242883 52.09482758678496,84.40607298980467 59.07758620753884,84.40607298980467 64.66379310376942,84.40607298980467 83.51724138110876,82.18976409500465 90.15086207166314,72.4379869857803 88.05603448487818,64.01597409392707 79.67672413773835,56.923735765973106 73.04310344904661,55.15067376289517 57.68103448301554,57.36700111441314 46.50862069055438,57.36700111441314 39.875,56.48047035629861 36.03448275849223,57.36700111441314 30.797413792461157,56.923735765973106 22.76724137738347,57.36700111441314 18.577586205676198,60.913121731719 11.943965515121818,67.56208744761534 10.198275862261653,70.66493345494382 14.038793101906776,80.85997803299688 21.37068965472281,84.40607298980467 39.875,83.51954961428419 53.491379311308265,84.40607298980467 71.99568965658545,83.51954961428419 86.65948276035488,79.97345368820243 89.45258620753884,75.09756546630524 89.80172413960099,66.23229539347813 84.21551724150777,58.25353163201362 77.23275862261653,56.037204885156825 63.96551724150777,55.15067376289517 56.28448276035488,55.15067376289517 51.396551724523306,57.36700111441314 49.30172413960099,56.037204885156825 43.017241379246116,57.36700111441314 35.68534482643008,58.25353163201362 30.099137930199504,57.36700111441314 22.76724137738347,56.923735765973106 16.482758620753884,59.140061907004565 9.849137930199504,67.56208744761534 11.24568965472281,78.2004042728804 21.02155172266066,85.2925961241126 37.78017241321504,84.84933458804153 45.461206898093224,83.51954961428419 58.728448275476694,84.84933458804153 73.74137931130826,83.96281133242883 83.86637931130826,82.18976409500465 89.80172413960099,71.55146034248173 86.65948276035488,60.913121731719 78.97844827733934,55.593939353944734 73.74137931130826,55.15067376289517 61.1724137943238,56.923735765973106 54.18965517356992,56.923735765973106 47.55603448487818,56.923735765973106 43.36637930944562,57.810266404179856 39.17672413773835,58.25353163201362 32.892241379246116,56.923735765973106 21.37068965472281,56.923735765973106 15.086206896230578,59.58332695439458 10.198275862261653,71.10819692909718 18.228448275476694,84.40607298980467 37.43103448301554,83.51954961428419 63.96551724150777,83.07628783513792 72.34482758678496,82.63302599568851 85.26293103583157,81.30324011412449 89.45258620753884,73.32451338786632 90.5,68.44861518056132 86.31034482829273,60.46985686686821 78.97844827733934,56.48047035629861 68.50431034341455,56.48047035629861 57.33189655281603,55.593939353944734 53.491379311308265,57.36700111441314 50.34913793206215,55.593939353944734 45.81034482643008,56.037204885156825 39.17672413773835,58.25353163201362 21.71982758678496,57.36700111441314 15.784482758492231,59.140061907004565 10.198275862261653,67.11882349010557 10.547413792461157,78.2004042728804 18.577586205676198,84.84933458804153 34.987068966031075,83.07628783513792 47.20689655281603,83.07628783513792 53.491379311308265,83.07628783513792 63.26724138110876,82.63302599568851 70.25,83.96281133242883 85.61206896603107,79.53019142430276 89.45258620753884,71.55146034248173 88.40517241321504,63.57270965143107 78.28017241507769,55.593939353944734 72.34482758678496,55.593939353944734 63.616379311308265,56.923735765973106 56.633620688691735,57.36700111441314 43.71551723964512,57.810266404179856 35.33620689623058,58.25353163201362 29.75,56.923735765973106 15.435344828292727,60.0265919403173 9.849137930199504,68.89187895739451 11.594827586784959,78.64366671768948 16.831896550953388,82.63302599568851 28.353448275476694,83.51954961428419 49.30172413960099,83.96281133242883 60.125,83.07628783513792 86.31034482829273,79.0869291012641 89.80172413960099,71.994723694399 89.45258620753884,67.56208744761534 82.81896551884711,57.36700111441314 74.43965517356992,55.593939353944734 68.50431034341455,56.037204885156825 45.81034482643008,57.810266404179856 34.288793101906776,57.810266404179856 19.974137930199504,58.25353163201362 10.198275862261653,67.11882349010557 10.198275862261653,74.65430253813975 16.831896550953388,82.63302599568851 48.95258620753884,84.40607298980467 69.9008620698005,83.96281133242883" stroke="#4DD2FF" stroke-linecap="round" stroke-linejoin="round" stroke-width="0.5"><title>2025-07-23 5.17km</title><desc>15208608392</desc></polyline></svg>