<?xml version="1.0" encoding="utf-8" ?>
<svg baseProfile="full" height="130mm" version="1.1" viewBox="0,0,100,130" width="100mm" xmlns="http://www.w3.org/2000/svg" xmlns:ev="http://www.w3.org/2001/xml-events" xmlns:xlink="http://www.w3.org/1999/xlink"><defs /><rect fill="#222222" height="130" width="100" x="0" y="0" /><text fill="#FFFFFF" style="font-size:6px; font-family:Arial; font-weight:bold;color:#0ed45e;" x="5" y="10">anyway 还是得跑步</text><text fill="#FFFFFF" style="font-size:4px; font-family:Arial" x="5" y="121">Runner</text><text fill="#FFFFFF" style="font-size:6px; font-family:Arial" x="2" y="128">蓝皮书</text><text fill="#FFFFFF" style="font-size:4px; font-family:Arial" x="25" y="121">WORKOUTS INFO</text><text fill="#FFFFFF" style="font-size:3px; font-family:Arial" x="25" y="125">Type: Run</text><text fill="#FFFFFF" style="font-size:3px; font-family:Arial" x="22" y="129">Date: 2025-08-05</text><text fill="#FFFFFF" style="font-size:3px; font-family:Arial" x="47" y="125">Distance: 3.18 km</text><text fill="#FFFFFF" style="font-size:3px; font-family:Arial" x="47" y="129">Duration: 21:56min</text><text fill="#FFFFFF" style="font-size:3px; font-family:Arial" x="75" y="125">Pace: 6:53/km</text><text fill="#FFFFFF" style="font-size:3px; font-family:Arial" x="75" y="129">Elevation: 36m</text><polyline fill="none" points="13.707792207598686,61.09637632430531 12.305194806307554,62.43192669469863 9.85064934939146,67.32894003996626 9.5,72.22594603151083 10.551948050037026,78.90366962295957 11.603896103799343,80.23921270016581 14.409090908244252,82.91029721382074 16.8636363632977,84.24583864933811 21.772727271541953,85.13619930413552 30.18831168860197,84.69101900770329 51.92857142910361,84.69101900770329 59.99350649304688,84.24583864933811 61.74675324559212,83.35547775262967 79.62987012788653,83.35547775262967 84.18831168860197,82.01993595226668 88.04545454494655,78.01330726733431 89.79870129749179,73.56149184470996 90.5,69.10967034264468 89.09740259684622,63.76747651887126 86.64285714179277,59.76082540745847 82.43506493419409,57.089721930678934 76.82467532344162,55.30898506520316 71.56493506394327,54.863800695864484 64.55194805189967,55.754169372608885 61.39610389620066,55.754169372608885 60.694805193692446,56.19935361854732 57.53896103799343,56.19935361854732 51.22727272845805,57.534905994543806 37.90259740315378,56.64453780581243 30.538961039856076,57.534905994543806 27.733766233548522,56.64453780581243 21.772727271541953,57.089721930678934 18.266233766451478,58.42527394276112 13.35714285634458,61.98674329905771 11.954545455053449,63.76747651887126 9.85064934939146,68.66448785900138 10.201298702508211,74.89703710959293 11.954545455053449,78.45848847483285 14.409090908244252,81.12957444717176 19.66883116774261,83.80065823206678 29.1363636367023,83.80065823206678 30.889610389247537,82.91029721382074 47.37012987025082,84.24583864933811 79.27922078035772,83.35547775262967 82.7857142854482,82.01993595226668 85.59090909175575,79.79403173550963 88.04545454494655,76.67776327882893 89.09740259684622,73.56149184470996 89.44805194623768,70.44521743175574 89.09740259684622,66.43857452459633 86.99350649304688,61.98674329905771 84.53896103985608,59.315641646971926 81.03246753290296,57.534905994543806 61.74675324559212,55.754169372608885 44.91558441519737,57.534905994543806 42.11038961075246,57.089721930678934 35.79870129749179,57.534905994543806 32.99350649304688,56.64453780581243 22.12337662279606,57.534905994543806 13.35714285634458,61.98674329905771 10.551948050037026,66.88375731301494 9.85064934939146,70.44521743175574 10.551948050037026,76.23258182848804 14.058441558852792,81.57475523045287 16.162337662652135,82.91029721382074 21.071428570896387,84.24583864933811 37.90259740315378,83.80065823206678 42.81168831139803,84.24583864933811 63.85064934939146,83.35547775262967 78.92857142910361,83.35547775262967 81.73376623354852,82.91029721382074 84.88961038924754,80.6843936049845 88.74675324559212,75.7874003155157 89.79870129749179,72.22594603151083 89.79870129749179,68.21930531272665 89.09740259684622,64.65784276439808 86.99350649304688,61.541559842647985 82.08441558480263,57.98008999903686 77.8766233753413,56.64453780581243 71.21428571268916,56.64453780581243 67.70779220759869,55.754169372608885 64.20129870250821,56.64453780581243 55.78571428544819,56.64453780581243 54.032467532902956,57.98008999903686 44.91558441519737,57.089721930678934 34.04545454494655,57.98008999903686 32.99350649304688,57.534905994543806 20.370129868388176,57.534905994543806 13.00649350695312,61.09637632430531 10.551948050037026,65.99339167540893 9.85064934939146,71.33558185282163 10.551948050037026,75.7874003155157 12.655844155699015,79.34885070985183 18.967532467097044,83.35547775262967 43.512987012043595,84.69101900770329 78.57792207784951,82.91029721382074 84.18831168860197,80.6843936049845 86.99350649304688,78.01330726733431 89.09740259684622,74.45185541408136 89.79870129749179,70.89039967255667 89.09740259684622,66.43857452459633 86.99350649304688,62.43192669469863 79.98051948100328,57.089721930678934 69.81168831139803,56.19935361854732 67.35714285820723,55.30898506520316 63.5,56.64453780581243 62.09740259684622,56.19935361854732 60.694805193692446,57.089721930678934 52.27922077849507,56.64453780581243 51.57792207784951,57.534905994543806 43.162337662652135,56.64453780581243 39.305194806307554,57.534905994543806 32.64285714365542,57.534905994543806 30.538961039856076,57.98008999903686 20.72077921964228,57.98008999903686 17.214285714551806,58.87045782478526 13.35714285634458,62.43192669469863 11.253246752545238,65.99339167540893 10.551948050037026,70.44521743175574 10.902597403153777,74.45185541408136 13.35714285634458,79.79403173550963 20.019480518996716,83.35547775262967 37.20129870250821,83.80065823206678 50.175324676558375,82.46511661377735 71.91558441519737,82.91029721382074 81.03246753290296,82.01993595226668 84.18831168860197,80.6843936049845 86.99350649304688,78.01330726733431 89.79870129749179,73.11630996712483 89.79870129749179,68.66448785900138 88.74675324559212,64.65784276439808 86.99350649304688,61.09637632430531 79.98051948100328,56.64453780581243 72.61688311584294,55.754169372608885 63.85064934939146,56.64453780581243 58.94155844114721,56.19935361854732 45.967532467097044,56.64453780581243 41.75974025949836,56.19935361854732 37.90259740315378,57.089721930678934 35.79870129749179,56.64453780581243 33.694805193692446,57.98008999903686 31.240259740501642,56.64453780581243 20.370129868388176,57.534905994543806 18.266233766451478,57.98008999903686 13.35714285634458,61.541559842647985 11.603896103799343,64.212659671437 9.85064934939146,70.89039967255667 10.551948050037026,74.45185541408136 13.00649350695312,79.34885070985183 17.214285714551806,82.91029721382074 19.66883116774261,83.35547775262967 30.889610389247537,83.80065823206678 32.64285714365542,83.35547775262967 79.62987012788653,82.91029721382074 82.7857142854482,81.57475523045287 87.69480519555509,77.56812599906698 89.79870129749179,71.33558185282163 89.79870129749179,69.10967034264468 89.44805194623768,65.5482087652199 86.64285714179277,60.65119274612516 82.43506493419409,57.089721930678934 80.68181818164885,56.64453780581243 72.61688311584294,55.754169372608885 64.20129870250821,56.64453780581243 59.642857141792774,55.30898506520316 56.48701298609376,55.754169372608885 55.43506493419409,56.64453780581243 53.68181818164885,56.64453780581243 47.019480518996716,56.19935361854732 44.21428571268916,57.98008999903686 40.707792207598686,56.64453780581243 39.305194806307554,57.534905994543806 32.64285714365542,57.089721930678934 31.240259740501642,57.98008999903686 27.032467532902956,57.089721930678934 18.967532467097044,57.089721930678934 13.35714285634458,61.09637632430531 11.603896103799343,64.65784276439808 10.551948050037026,68.66448785900138 10.551948050037026,71.78076397301629 11.954545455053449,75.7874003155157 15.461038962006569,81.12957444717176 18.616883117705584,82.91029721382074 22.824675323441625,83.80065823206678 57.88961038924754,82.91029721382074 63.85064934939146,83.35547775262967 74.01948051899672,82.01993595226668 79.98051948100328,82.91029721382074 81.73376623354852,82.46511661377735 85.59090909175575,78.45848847483285 87.69480519555509,75.34221874247305" stroke="#4DD2FF" stroke-linecap="round" stroke-linejoin="round" stroke-width="0.5"><title>2025-08-05 3.18km</title><desc>15346216402</desc></polyline></svg>