<?xml version="1.0" encoding="utf-8" ?>
<svg baseProfile="full" height="130mm" version="1.1" viewBox="0,0,100,130" width="100mm" xmlns="http://www.w3.org/2000/svg" xmlns:ev="http://www.w3.org/2001/xml-events" xmlns:xlink="http://www.w3.org/1999/xlink"><defs /><rect fill="#FAF9F5" height="130" width="100" x="0" y="0" /><text fill="#5A5A5A" style="font-size:6px; font-family:Arial; font-weight:bold;color:#0ed45e;" x="5" y="10">节气跑—7.22迎大暑</text><text fill="#5A5A5A" style="font-size:4px; font-family:Arial" x="5" y="121">Runner</text><text fill="#5A5A5A" style="font-size:6px; font-family:Arial" x="2" y="128">蓝皮书</text><text fill="#5A5A5A" style="font-size:4px; font-family:Arial" x="25" y="121">WORKOUTS INFO</text><text fill="#5A5A5A" style="font-size:3px; font-family:Arial" x="25" y="125">Type: Run</text><text fill="#5A5A5A" style="font-size:3px; font-family:Arial" x="22" y="129">Date: 2025-07-22</text><text fill="#5A5A5A" style="font-size:3px; font-family:Arial" x="47" y="125">Distance: 7.23 km</text><text fill="#5A5A5A" style="font-size:3px; font-family:Arial" x="47" y="129">Duration: 48:39min</text><text fill="#5A5A5A" style="font-size:3px; font-family:Arial" x="75" y="125">Pace: 6:44/km</text><text fill="#5A5A5A" style="font-size:3px; font-family:Arial" x="75" y="129">Elevation: 85m</text><polyline fill="none" points="9.5,71.09872501087375 12.615384615957737,79.44873550720513 20.92307692207396,83.84346917364746 41.0,83.84346917364746 79.42307692207396,82.52504970412701 89.46153846010566,74.61452154372819 89.11538461409509,64.50659616081975 78.73076923005283,56.15654690540396 71.80769230797887,57.03550047730096 62.11538461595774,58.35393038694747 57.9615384619683,58.35393038694747 44.46153846010566,57.91445381101221 31.30769230797887,57.47497717500664 27.15384615212679,57.47497717500664 16.76923076994717,57.91445381101221 10.538461538031697,67.58292463724501 12.269230769947171,79.44873550720513 19.19230769202113,84.28294221125543 39.96153846010566,82.96452292124741 79.07692307792604,82.52504970412701 87.0384615380317,78.13031423743814 89.80769230611622,67.14344932045788 87.0384615380317,61.430264744209126 80.46153846010566,57.03550047730096 70.42307692207396,56.15654690540396 61.769230768084526,57.03550047730096 57.9615384619683,57.47497717500664 49.30769230797887,55.717070027953014 39.61538461595774,57.03550047730096 33.73076923005283,57.03550047730096 18.846153846010566,57.47497717500664 11.230769230052829,64.06712042330764 11.230769230052829,77.6908403604757 17.80769230797887,83.403996077599 27.5,83.84346917364746 45.153846153989434,83.84346917364746 80.46153846010566,82.96452292124741 88.42307692207396,76.81189242796972 88.76923076994717,63.18816877040081 80.46153846010566,56.15654690540396 68.34615384601057,55.277593090897426 52.769230768084526,57.03550047730096 49.653846153989434,56.59602372162044 29.23076923005283,56.59602372162044 20.92307692207396,57.03550047730096 11.230769230052829,64.50659616081975 12.269230769947171,78.56978805363178 19.884615384042263,83.84346917364746 30.269230768084526,83.84346917364746 47.92307692207396,83.403996077599 55.88461538404226,83.84346917364746 81.15384615398943,82.52504970412701 89.46153846010566,75.49347007740289 89.11538461409509,63.18816877040081 82.5384615380317,56.59602372162044 77.69230769202113,56.59602372162044 68.69230769202113,56.15654690540396 61.769230768084526,57.47497717500664 41.346153846010566,56.15654690540396 33.73076923005283,57.91445381101221 18.846153846010566,57.91445381101221 12.269230769947171,64.50659616081975 10.538461538031697,71.53819978702813 14.0,80.32768272096291 20.23076923005283,84.28294221125543 44.80769230611622,83.84346917364746 56.23076923005283,83.84346917364746 76.99999999813735,82.52504970412701 87.38461538404226,77.6908403604757 89.80769230611622,67.58292463724501 85.30769230797887,59.232883361401036 75.61538461409509,56.15654690540396 67.30769230797887,54.39863903867081 60.0384615380317,54.838116094935685 54.846153846010566,56.15654690540396 48.61538461595774,56.59602372162044 37.5384615380317,57.03550047730096 25.76923076994717,57.47497717500664 15.730769231915474,60.55131237138994 10.538461538031697,69.34082530415617 11.576923076063395,76.37241837056354 24.038461536169052,84.72241518716328 35.11538461409509,84.28294221125543 49.653846153989434,84.72241518716328 65.92307692207396,84.28294221125543 85.65384615398943,79.44873550720513 89.80769230611622,71.53819978702813 89.11538461409509,64.9460718370974 78.73076923005283,56.15654690540396 65.23076923005283,58.35393038694747 56.23076923005283,57.47497717500664 53.46153846010566,57.03550047730096 45.5,57.47497717500664 33.38461538404226,57.47497717500664 25.76923076994717,58.35393038694747 20.23076923005283,58.793406904209405 11.92307692207396,68.4618750908412 12.269230769947171,72.85662375669926 14.692307692021132,81.64610309014097 21.961538461968303,84.72241518716328 51.0384615380317,84.72241518716328 60.38461538590491,82.52504970412701 72.49999999813735,82.96452292124741 79.42307692207396,83.403996077599 86.34615384414792,80.32768272096291 89.46153846010566,66.70397394360043 84.61538461409509,59.67235975782387 75.9615384619683,56.59602372162044 56.23076923005283,56.15654690540396 47.23076923005283,58.35393038694747 36.153846153989434,58.35393038694747 22.653846153989434,58.793406904209405 11.92307692207396,64.50659616081975 11.230769230052829,75.05399583955295 19.19230769202113,84.72241518716328 30.269230768084526,84.72241518716328 46.19230769202113,84.72241518716328 52.076923076063395,84.28294221125543 83.5769230760634,81.2066296946723 90.5,71.09872501087375 87.0384615380317,60.990788587136194 71.80769230797887,54.838116094935685 56.576923076063395,55.717070027953014 52.076923076063395,56.15654690540396 46.88461538404226,57.03550047730096 38.23076923005283,58.35393038694747 34.423076923936605,56.15654690540396 29.92307692207396,56.15654690540396 13.653846153989434,61.86974084074609 11.92307692207396,75.05399583955295 15.730769231915474,81.64610309014097 29.92307692207396,84.28294221125543 44.80769230611622,84.28294221125543 58.65384615212679,82.52504970412701 79.76923076808453,82.96452292124741 88.76923076994717,75.05399583955295 89.11538461409509,64.50659616081975 82.5384615380317,58.35393038694747 68.69230769202113,55.277593090897426 61.42307692207396,57.03550047730096 56.23076923005283,56.59602372162044 48.96153846010566,56.59602372162044 36.153846153989434,56.59602372162044 26.115384614095092,57.47497717500664 20.23076923005283,58.793406904209405 14.0,62.74869285407476 11.92307692207396,73.29609829373658 17.80769230797887,83.403996077599 51.73076923005283,83.84346917364746 61.076923076063395,82.96452292124741 77.69230769202113,82.96452292124741 86.0,80.32768272096291 89.80769230611622,69.34082530415617 86.34615384414792,60.990788587136194 81.84615384601057,57.03550047730096 75.61538461409509,57.47497717500664 71.11538461409509,57.47497717500664 53.80769230611622,58.35393038694747 41.692307690158486,58.793406904209405 34.423076923936605,59.232883361401036 26.80769230797887,59.67235975782387 19.538461538031697,60.11183609510772 14.0,63.6276446278207 11.576923076063395,75.05399583955295 16.76923076994717,82.0855764276348 28.884615384042263,84.72241518716328 41.0,84.72241518716328 52.076923076063395,84.28294221125543 78.73076923005283,83.84346917364746 88.0769230760634,78.56978805363178 89.46153846010566,73.29609829373658 83.9230769239366,57.91445381101221 68.69230769202113,57.91445381101221 52.42307692207396,58.35393038694747 38.92307692207396,59.232883361401036 34.076923076063395,59.232883361401036 24.038461536169052,59.67235975782387 13.653846153989434,63.18816877040081 11.230769230052829,72.85662375669926 15.038461538031697,81.64610309014097 29.23076923005283,83.403996077599 53.80769230611622,83.403996077599 64.88461538404226,83.403996077599 82.19230769202113,82.0855764276348 89.11538461409509,75.05399583955295 89.46153846010566,64.9460718370974 84.61538461409509,58.793406904209405 74.5769230760634,56.59602372162044 57.9615384619683,57.91445381101221 52.769230768084526,58.35393038694747 42.0384615380317,58.793406904209405 29.92307692207396,58.793406904209405 24.730769231915474,59.67235975782387 14.346153846010566,63.6276446278207 10.884615385904908,71.09872501087375 15.038461538031697,80.76715623727068 24.384615384042263,84.28294221125543 39.96153846010566,83.403996077599 48.26923076994717,83.403996077599 53.80769230611622,83.403996077599 59.69230769202113,83.403996077599 71.11538461409509,82.96452292124741 81.84615384601057,81.64610309014097 88.76923076994717,75.49347007740289 86.34615384414792,61.86974084074609 77.34615384414792,56.59602372162044 64.88461538404226,57.03550047730096 59.346153846010566,58.35393038694747 45.153846153989434,57.91445381101221 27.5,58.35393038694747 14.346153846010566,62.30921687791124 10.884615385904908,71.97767450357787 17.80769230797887,82.96452292124741 37.88461538404226,83.403996077599 59.69230769202113,83.403996077599 80.80769230797887,82.52504970412701 89.46153846010566,72.85662375669926 88.76923076994717,62.30921687791124 80.80769230797887,57.03550047730096 75.26923076808453,56.15654690540396 57.9615384619683,57.47497717500664 48.96153846010566,57.03550047730096 36.153846153989434,57.03550047730096 30.961538461968303,57.91445381101221 18.15384615212679,58.793406904209405 11.230769230052829,64.9460718370974 12.269230769947171,78.13031423743814 20.92307692207396,84.28294221125543 51.73076923005283,84.72241518716328 57.9615384619683,83.84346917364746 78.0384615380317,83.403996077599 88.76923076994717,76.81189242796972 87.38461538404226,62.30921687791124 78.0384615380317,55.717070027953014 71.11538461409509,56.15654690540396 65.5769230760634,57.47497717500664" stroke="#4DD2FF" stroke-linecap="round" stroke-linejoin="round" stroke-width="0.5"><title>2025-07-22 7.23km</title><desc>15196608561</desc></polyline></svg>