<?xml version="1.0" encoding="utf-8" ?>
<svg baseProfile="full" height="130mm" version="1.1" viewBox="0,0,100,130" width="100mm" xmlns="http://www.w3.org/2000/svg" xmlns:ev="http://www.w3.org/2001/xml-events" xmlns:xlink="http://www.w3.org/1999/xlink"><defs /><rect fill="#FAF9F5" height="130" width="100" x="0" y="0" /><text fill="#5A5A5A" style="font-size:6px; font-family:Arial; font-weight:bold;" x="5" y="10">2025-02-09 Workouts</text><text fill="#5A5A5A" style="font-size:4px; font-family:Arial" x="5" y="121">Runner</text><text fill="#5A5A5A" style="font-size:6px; font-family:Arial" x="2" y="128">蓝皮书</text><text fill="#5A5A5A" style="font-size:4px; font-family:Arial" x="25" y="121">STATISTICS</text><text fill="#5A5A5A" style="font-size:3px; font-family:Arial" x="25" y="125">Number: 1</text><text fill="#5A5A5A" style="font-size:3px; font-family:Arial" x="25" y="129">Weekly: 1.0</text><text fill="#5A5A5A" style="font-size:3px; font-family:Arial" x="48" y="125">Total: 5.2 km</text><text fill="#5A5A5A" style="font-size:3px; font-family:Arial" x="48" y="129">Avg: 5.2 km</text><text fill="#5A5A5A" style="font-size:3px; font-family:Arial" x="75" y="125">Min: 5.2 km</text><text fill="#5A5A5A" style="font-size:3px; font-family:Arial" x="75" y="129">Max: 5.2 km</text><polyline fill="none" points="24.669225169811398,54.278735702857375 27.01195579022169,53.77562105184188 29.64752773847431,53.14672733627958 35.0162854087539,52.89516972564161 37.359016029164195,52.01471752510406 44.87527676858008,51.38582256087102 47.12039361288771,51.00848536804551 48.77982780197635,51.637380600092 48.77982780197635,54.40451432118425 48.77982780197635,57.04586118255975 48.975055353716016,62.202753811201546 48.68221402587369,64.59252315416234 48.975055353716016,68.49160667898832 47.60846249200404,69.87514832499437 46.92516606114805,70.50403017824283 41.16595328645781,78.67945368780056 38.62799511477351,82.07537668431178 39.604132873471826,82.83002447336912 41.654022166039795,84.71664113673614 41.654022166039795,85.84860920783831 41.751635941676795,87.60944555845344 41.751635941676795,90.87956093531102 41.84924971777946,94.65275600308087 41.84924971777946,96.28780221409397 41.751635941676795,99.30634114553686 41.84924971777946,101.31869472621474 41.9468634929508,103.45681540272199 41.84924971777946,105.59493092499906 41.654022166039795,107.98458335001487 42.04447726905346,109.99691724055447 42.63015992427245,109.24229256663239 42.92300125211477,104.33721653599059 43.020615027751774,100.43829059635755 43.21584257949144,96.03625683893915 43.020615027751774,92.64038729766617 43.118228803388774,89.62182567903074 42.92300125211477,87.60944555845344 42.532546148169786,84.71664113673614 42.434932372532785,82.83002447336912 42.434932372532785,80.18875440262491 46.24186963029206,75.53506894898601 50.14642066368833,70.00092473154655 51.024944646283984,68.86893643281655 51.61062730103731,67.86272339895368 54.050971697084606,63.83785984694259 56.100860989652574,61.0707555586705 58.345977833960205,59.561422308324836 63.12905284995213,56.4169697862817 67.22883143508807,53.39828487596242 69.76678960677236,52.01471752510406 73.96418196801096,49.12179699767148 74.06179574364796,48.61867942113895 72.40236155455932,49.12179699767148 71.23099624412134,49.75069356703898 67.52167276246473,51.51160158915445 65.37416969425976,53.14672733627958 61.46961866086349,55.662299521965906 55.80801966227591,59.68720017751912 55.417564558796585,60.19031147484202 54.050971697084606,61.69964365515625 53.46528904233128,62.58008624083595 51.90346862887964,63.71208256640239 51.024944646283984,63.08319589722669 50.63448954280466,61.82542122085579 50.73210331890732,59.05831065395614 50.24403443932533,55.913856348081026 50.43926199153066,54.65607150411233 50.04880688758567,53.27250611514319 49.95119311194867,52.266275385569315 49.75596556067467,51.51160158915445 49.85357933631167,49.75069356703898 49.95119311194867,47.10932497814065 50.43926199153066,45.47418809944065 50.43926199153066,44.0906083859154 51.90346862887964,41.4492229387979 52.29392373235896,39.0593912313343 52.586765059735626,37.55002051900374 52.586765059735626,36.54377195023699 53.367675266228616,35.78908477455843 54.050971697084606,38.3047061964171 54.83188190404326,38.807829624507576 57.07699874835089,39.93985629384406 58.443591609597206,38.55626794620184 60.88393600611016,38.3047061964171 62.055301315616816,38.55626794620184 64.49564571166411,37.04689637728734 64.69087326340377,37.04689637728734 66.05746612511575,36.41799079894554 66.05746612511575,35.28595963382395 63.03143907431513,33.77658249926753 61.37200488476083,32.77032964868704 57.95552273094654,30.883602476795204 57.07699874835089,30.883602476795204 56.3937023174949,30.128910484490916 55.22233700752258,29.87734634417575 53.07483393885195,29.5 51.805854852776974,30.003128423006274 50.92733087018132,33.0218929683906 50.73210331890732,34.78283420758089 50.341648215427995,37.29845848388504 49.46312423283234,42.707026514050085 48.877441578079015,43.71326808951562 48.09653137112036,46.731985965860076 47.70607626764104,47.98978204844752 47.02277983678505,50.25381050159922 47.9013038193807,54.027178412885405 48.48698647459969,58.052086489333306 48.48698647459969,59.68720017751912 48.48698647459969,68.49160667898832 45.265731872525066,72.26489699434023 42.63015992427245,76.03817125642672 41.751635941676795,78.05057763203513 40.189815528225154,80.18875440262491 39.01845021825284,81.44650303648086 40.09220175258815,83.20734812703449 41.556408390402794,84.71664113673614 41.84924971777946,86.6032537863939 41.84924971777946,87.60944555845344 41.9468634929508,89.74759928468848 41.9468634929508,91.63420123315882 41.84924971777946,93.26925300870789 41.9468634929508,99.05479662690777 41.84924971777946,101.69601051422069 41.654022166039795,102.95372864825185 41.751635941676795,105.97224489378277 41.751635941676795,107.73304129258031 41.751635941676795,110.37422933673952 42.532546148169786,109.99691724055447 42.72777370037511,105.84647358843358 42.532546148169786,102.32486980414251 42.532546148169786,98.55170737562003 42.63015992427245,96.16202953533502 42.532546148169786,94.27543721836992 42.63015992427245,93.5207991678617 42.532546148169786,92.1372944082832 42.63015992427245,88.74140993831679 42.63015992427245,85.9743833488319 42.337318596895784,82.07537668431178 42.532546148169786,80.31452934641857 46.14425585465506,75.91239570622565 50.14642066368833,70.62980649527162 51.122558421920985,68.99471298157005 52.29392373235896,67.23383967281552 53.17244771448895,65.8502939058817 56.3937023174949,60.9449778861017 59.029274264816195,58.93253269593697 62.4457564195618,56.92008293909021 63.71473550470546,56.16541310289176 65.86223857384175,54.278735702857375 75.33077482972294,47.360884230351076 74.94031972624362,47.98978204844752 72.20713400281966,49.12179699767148 65.47178347036242,53.77562105184188 61.957687539979815,56.16541310289176 56.00324721401557,60.56764476094395 55.22233700752258,61.44808847020613 54.14858547318727,62.70586368144723 52.39153750799596,64.21519158076262 50.73210331890732,62.95741851005005 50.63448954280466,60.19031147484202 50.04880688758567,57.54897397849709 49.85357933631167,55.28496414911933 50.04880688758567,53.27250611514319 49.85357933631167,52.266275385569315 49.75596556067467,51.51160158915445 49.75596556067467,50.63114801509073 50.24403443932533,49.49913499300601 50.43926199153066,47.360884230351076 50.63448954280466,44.97106845327653 51.31778597412631,42.95858701469842 52.0986961806193,42.45546594139887 52.1963099562563,38.807829624507576 52.78199261147529,35.78908477455843 54.34381302492693,35.41174094582675 55.90563343791291,35.66330351593206 56.881771196145564,33.90236402506707 57.36984007572755,33.0218929683906 56.00324721401557,30.63203855068423 54.92949568014592,31.26094823254971 54.44142680009827,34.405489950906485 54.636654352303594,37.17267743963748 57.07699874835089,39.562514231249224 58.248364058323205,38.68204879411496 60.395867126528174,38.68204879411496 61.76245998824015,38.1789252947201 64.69087326340377,36.29220962995896 66.05746612511575,35.41174094582675 65.47178347036242,34.78283420758089 63.421894177328795,34.405489950906485 59.12688804091886,31.88985746819526 55.417564558796585,29.5 52.78199261147529,29.5 52.00108240451664,29.87734634417575 51.024944646283984,35.16017830418423 50.341648215427995,38.68204879411496 49.85357933631167,41.952344582998194 48.77982780197635,46.48042653541779 48.194145147223026,48.99601763027022 47.80369004327804,51.51160158915445 46.14425585465506,50.882706268457696 41.36118083866313,51.637380600092 37.944698684383184,52.266275385569315 36.578105822671205,52.392054289521184 31.99025835795328,53.14672733627958 26.719114462845027,54.027178412885405 24.57161139464006,54.78185006859712" stroke="#4DD2FF" stroke-linecap="round" stroke-linejoin="round" stroke-width="0.5"><title>2025-02-09 5.2km</title><desc>13577566479</desc></polyline></svg>