<?xml version="1.0" encoding="utf-8" ?>
<svg baseProfile="full" height="130mm" version="1.1" viewBox="0,0,100,130" width="100mm" xmlns="http://www.w3.org/2000/svg" xmlns:ev="http://www.w3.org/2001/xml-events" xmlns:xlink="http://www.w3.org/1999/xlink"><defs /><rect fill="#FAF9F5" height="130" width="100" x="0" y="0" /><text fill="#5A5A5A" style="font-size:6px; font-family:Arial; font-weight:bold;color:#0ed45e;" x="5" y="10">养精蓄锐</text><text fill="#5A5A5A" style="font-size:4px; font-family:Arial" x="5" y="121">Runner</text><text fill="#5A5A5A" style="font-size:6px; font-family:Arial" x="2" y="128">蓝皮书</text><text fill="#5A5A5A" style="font-size:4px; font-family:Arial" x="25" y="121">WORKOUTS INFO</text><text fill="#5A5A5A" style="font-size:3px; font-family:Arial" x="25" y="125">Type: Run</text><text fill="#5A5A5A" style="font-size:3px; font-family:Arial" x="22" y="129">Date: 2025-07-17</text><text fill="#5A5A5A" style="font-size:3px; font-family:Arial" x="47" y="125">Distance: 7.19 km</text><text fill="#5A5A5A" style="font-size:3px; font-family:Arial" x="47" y="129">Duration: 46:52min</text><text fill="#5A5A5A" style="font-size:3px; font-family:Arial" x="75" y="125">Pace: 6:31/km</text><text fill="#5A5A5A" style="font-size:3px; font-family:Arial" x="75" y="129">Elevation: 89m</text><polyline fill="none" points="9.5,73.07635484612547 20.92307692207396,84.06319576362148 27.153846153989434,83.62372284568846 39.26923076994717,83.18424986978061 47.576923076063395,82.30530373612419 60.03846153989434,81.4263573626522 69.73076923191547,80.98688408615999 80.4615384619683,80.54741074866615 87.38461538404226,76.1526740824338 89.80769230797887,68.6816079786513 87.0384615380317,59.89209624566138 76.30769230797887,56.81576146953739 70.42307692207396,56.81576146953739 60.38461538404226,55.93680813582614 55.88461538404226,56.37628483353183 52.076923076063395,57.69471456273459 42.38461538404226,57.69471456273459 32.346153846010566,57.69471456273459 19.19230769202113,58.57366741634905 12.615384615957737,64.28685511299409 10.884615384042263,74.39477773592807 18.5,83.62372284568846 29.230769231915474,82.74477683217265 36.153846153989434,82.30530373612419 71.4615384619683,81.4263573626522 82.5384615380317,80.98688408615999 88.0769230760634,75.27372602908872 90.15384615398943,65.16580616519786 84.61538461409509,58.57366741634905 77.34615384601057,56.81576146953739 71.80769230797887,56.81576146953739 58.30769230611622,56.37628483353183 48.61538461409509,56.81576146953739 39.26923076994717,56.81576146953739 18.846153846010566,58.13419101992622 12.269230769947171,62.968428081832826 10.538461539894342,68.6816079786513 16.076923076063395,81.86583057977259 33.38461538404226,82.74477683217265 44.46153846010566,82.74477683217265 60.73076923005283,81.86583057977259 79.42307692207396,81.4263573626522 86.34615384601057,76.59214801900089 90.5,67.80265788524412 85.65384615398943,59.89209624566138 74.92307692207396,58.57366741634905 56.23076923005283,57.25523804547265 51.03846153989434,56.37628483353183 32.0,57.69471456273459 20.23076923005283,57.69471456273459 11.923076923936605,64.7263306688983 11.576923076063395,74.83425191207789 17.461538461968303,81.86583057977259 41.69230769202113,82.30530373612419 61.76923076994717,82.30530373612419 76.65384615212679,81.86583057977259 84.9615384619683,80.10793735319749 90.15384615398943,68.24213296268135 85.30769230797887,59.89209624566138 80.4615384619683,58.13419101992622 75.61538461595774,58.13419101992622 66.26923076994717,57.69471456273459 30.26923076994717,58.13419101992622 13.307692307978868,62.968428081832826 10.538461539894342,70.00003266939893 12.961538460105658,79.2289903794881 20.576923076063395,83.62372284568846 41.0,82.74477683217265 48.26923076994717,82.30530373612419 60.73076923005283,80.98688408615999 71.4615384619683,80.54741074866615 83.57692307792604,81.4263573626522 89.80769230797887,72.63688042853028 86.69230769202113,59.89209624566138 79.76923076808453,56.81576146953739 72.15384615212679,55.93680813582614 61.076923076063395,56.81576146953739 43.07692307792604,57.69471456273459 30.615384615957737,58.57366741634905 14.692307692021132,62.08947642892599 12.269230769947171,76.59214801900089 18.153846153989434,83.18424986978061 36.499999998137355,83.18424986978061 47.923076923936605,82.30530373612419 68.69230769202113,80.54741074866615 81.84615384601057,80.98688408615999 88.0769230760634,76.1526740824338 90.15384615398943,69.56055783224292 87.38461538404226,61.210524536436424 73.88461538217962,55.93680813582614 66.26923076994717,56.81576146953739 61.42307692207396,56.81576146953739 47.23076923005283,58.13419101992622 32.0,58.13419101992622 23.0,58.13419101992622 18.5,59.452620029915124 12.615384615957737,65.60528160212561 11.923076923936605,73.95530349807814 17.461538461968303,81.86583057977259 34.42307692207396,82.30530373612419 74.23076923005283,80.98688408615999 85.30769230797887,79.66846389579587 89.80769230797887,71.31845681881532 87.73076923005283,61.650000512599945 74.23076923005283,55.497331380145624 61.42307692207396,58.13419101992622 52.42307692207396,58.57366741634905 39.9615384619683,57.25523804547265 23.0,57.69471456273459 11.923076923936605,69.56055783224292 14.346153846010566,78.78951680264436 20.576923076063395,82.74477683217265 36.499999998137355,82.74477683217265 66.26923076994717,81.86583057977259 78.0384615380317,81.86583057977259 82.88461538404226,81.4263573626522 87.0384615380317,77.9105694682803 89.46153846010566,66.4842322957702 84.61538461409509,59.89209624566138 78.0384615380317,57.25523804547265 61.76923076994717,56.81576146953739 55.19230769202113,56.81576146953739 46.19230769388378,56.81576146953739 42.0384615380317,56.81576146953739 35.80769230797887,59.452620029915124 26.115384615957737,57.69471456273459 24.038461538031697,57.25523804547265 11.576923076063395,66.92370755178854 12.269230769947171,74.83425191207789 21.26923076994717,83.62372284568846 29.230769231915474,83.62372284568846 47.923076923936605,82.30530373612419 66.26923076994717,80.98688408615999 84.26923076808453,80.54741074866615 89.11538461409509,74.83425191207789 88.0769230760634,62.528952286345884 83.57692307792604,59.0131437536329 71.11538461409509,57.25523804547265 62.46153846010566,57.25523804547265 21.615384615957737,58.57366741634905 12.269230769947171,64.7263306688983 11.230769230052829,75.71320008649491 15.384615385904908,80.98688408615999 42.0384615380317,83.62372284568846 53.80769230797887,82.30530373612419 70.76923076808453,80.54741074866615 80.11538461409509,81.4263573626522 86.34615384601057,77.03162189596333 89.46153846010566,70.87898216210306 88.4230769239366,63.40790381934494 80.80769230797887,56.37628483353183 58.30769230611622,56.81576146953739 51.03846153989434,56.37628483353183 41.34615384414792,56.81576146953739 27.846153846010566,58.13419101992622 19.884615384042263,58.13419101992622 10.884615384042263,68.24213296268135 13.307692307978868,79.66846389579587 40.653846153989434,82.30530373612419 50.0,83.18424986978061 63.153846153989434,82.30530373612419 83.57692307792604,80.54741074866615 89.46153846010566,69.56055783224292 85.65384615398943,59.452620029915124 78.38461538404226,55.93680813582614 64.88461538404226,56.37628483353183 59.346153846010566,57.25523804547265 45.846153846010566,56.81576146953739 29.230769231915474,57.25523804547265 20.576923076063395,57.69471456273459 11.230769230052829,68.6816079786513 13.307692307978868,78.78951680264436 19.884615384042263,83.18424986978061 27.153846153989434,83.18424986978061 53.11538461409509,82.74477683217265 62.46153846010566,82.30530373612419 82.5384615380317,81.4263573626522 88.0769230760634,75.71320008649491 89.46153846010566,67.80265788524412 87.38461538404226,61.210524536436424 78.38461538404226,56.37628483353183 68.0,55.93680813582614 56.923076923936605,55.93680813582614 45.153846153989434,55.93680813582614 32.69230769202113,55.497331380145624 21.615384615957737,56.81576146953739 14.692307692021132,60.771048499271274 11.923076923936605,66.04475697898306 13.653846153989434,78.78951680264436 23.0,83.18424986978061 28.538461538031697,82.74477683217265 33.73076923005283,83.62372284568846 49.30769230797887,82.74477683217265 67.65384615398943,82.74477683217265 81.15384615398943,81.86583057977259 89.46153846010566,73.07635484612547 87.73076923005283,62.08947642892599 80.4615384619683,56.81576146953739 71.11538461409509,55.93680813582614 63.5,55.93680813582614 50.34615384414792,56.81576146953739 24.384615385904908,58.13419101992622 15.730769231915474,60.33157240273431 11.923076923936605,65.16580616519786 10.884615384042263,72.63688042853028 15.384615385904908,80.54741074866615 26.115384615957737,84.5026686200872 51.73076923005283,83.62372284568846 65.23076923005283,83.18424986978061 79.0769230760634,81.86583057977259 89.80769230797887,74.39477773592807 89.80769230797887,67.36318274936639 85.30769230797887,59.89209624566138 76.65384615212679,57.25523804547265 58.30769230611622,58.13419101992622 47.923076923936605,57.69471456273459 38.23076923005283,58.13419101992622 26.115384615957737,58.57366741634905 14.346153846010566,62.528952286345884 11.576923076063395,70.00003266939893 14.346153846010566,79.2289903794881 19.538461538031697,83.62372284568846 31.30769230797887,83.62372284568846 48.9615384619683,82.74477683217265 62.11538461409509,81.86583057977259 83.9230769239366,80.10793735319749 89.80769230797887,71.31845681881532 87.73076923005283,62.528952286345884 79.0769230760634,56.81576146953739 65.5769230760634,56.37628483353183 50.0,57.69471456273459 39.26923076994717,57.25523804547265" stroke="#4DD2FF" stroke-linecap="round" stroke-linejoin="round" stroke-width="0.5"><title>2025-07-17 7.19km</title><desc>15138520493</desc></polyline></svg>