<?xml version="1.0" encoding="utf-8" ?>
<svg baseProfile="full" height="130mm" version="1.1" viewBox="0,0,100,130" width="100mm" xmlns="http://www.w3.org/2000/svg" xmlns:ev="http://www.w3.org/2001/xml-events" xmlns:xlink="http://www.w3.org/1999/xlink"><defs /><rect fill="#FAF9F5" height="130" width="100" x="0" y="0" /><text fill="#5A5A5A" style="font-size:6px; font-family:Arial; font-weight:bold;color:#0ed45e;" x="5" y="10">大 F 新赛道</text><text fill="#5A5A5A" style="font-size:4px; font-family:Arial" x="5" y="121">Runner</text><text fill="#5A5A5A" style="font-size:6px; font-family:Arial" x="2" y="128">蓝皮书</text><text fill="#5A5A5A" style="font-size:4px; font-family:Arial" x="25" y="121">WORKOUTS INFO</text><text fill="#5A5A5A" style="font-size:3px; font-family:Arial" x="25" y="125">Type: Run</text><text fill="#5A5A5A" style="font-size:3px; font-family:Arial" x="22" y="129">Date: 2025-09-25</text><text fill="#5A5A5A" style="font-size:3px; font-family:Arial" x="47" y="125">Distance: 5.06 km</text><text fill="#5A5A5A" style="font-size:3px; font-family:Arial" x="47" y="129">Duration: 40:04min</text><text fill="#5A5A5A" style="font-size:3px; font-family:Arial" x="75" y="125">Pace: 7:54/km</text><text fill="#5A5A5A" style="font-size:3px; font-family:Arial" x="75" y="129">Elevation: 0m</text><polyline fill="none" points="88.38695652177557,45.55642151256325 88.80956521746702,47.12768805757514 89.74869565223344,49.36371125813457 90.12434782623313,50.93496380618308 90.0304347826168,51.23712709537358 89.84260869561695,51.5392901711748 87.72956521739252,52.32491316809319 86.46173913031816,52.6875079103047 83.08086956525221,54.19831602522754 76.88260869588703,56.615597900992725 74.25304347812198,57.8242337120173 69.65130434767343,59.6371810202254 65.61304347822443,61.45012063824106 62.37304347823374,62.77960480414913 60.494782608700916,63.32348349809763 58.522608695784584,64.22994645038852 56.597391304327175,64.89468472686713 53.59217391326092,66.52631065875175 52.04260869557038,67.07018458526 51.19739130442031,67.4931971609185 45.750434782588854,69.48739366335212 42.886086956597865,70.63556318663177 41.9000000001397,71.1190020632348 34.85652173939161,73.83833555559977 29.73826086963527,76.25550635822583 26.35739130433649,77.46408663355396 23.868695652112365,78.61223472977872 21.14521739142947,79.63952251762385 19.548695652280003,80.42509386586607 14.383478260831907,82.41923003504053 12.317391304299235,83.38608058620594 11.284347826149315,84.05078907185816 9.546956521924585,84.77592442254536 9.5,84.95720806790632 9.640869565308094,85.56148633093107 9.875652173999697,86.1053360371443 10.298260869691148,86.46790212363703 10.533043478382751,86.77004029403906 11.566086956765503,89.4892742173688 12.411304347915575,91.8459296252986 13.773043478373438,94.68598426342942 14.853043478215113,97.58644612005446 15.74521739128977,99.5805022304121 15.933043478289619,99.94305688751047 16.214782608672976,99.94305688751047 16.919130434747785,99.64092802806408 17.06000000028871,99.45965060970047 17.06000000028871,99.27837311464828 14.806086956523359,93.84001251467271 14.007826087065041,91.7250758180744 11.800869565224275,86.7096126769029 11.613043478224427,86.04490832609008 11.660000000149012,85.86362514196662 11.75391304353252,85.7427696431696 15.933043478289619,83.74864897926454 24.666956521803513,80.30423682933906 28.00086956517771,78.85394972571521 31.100000000093132,77.70580227862229 32.18000000016764,77.16194188513327 34.105217391159385,76.37636453937739 35.04434782615863,76.07421902223723 40.6791304347571,73.59661772361142 43.77826086967252,72.38802651272272 45.0930434782058,71.96501878160052 46.45478260866366,71.30029150104383 47.81652173912153,70.6959930761368 48.004347826121375,70.6959930761368 48.14521739142947,70.75642295717262 48.14521739142947,70.87728269331274 48.004347826121375,71.72329989005812 47.81652173912153,72.99232254526578 47.76956521742977,74.20091204743949 47.1591304349713,78.85394972571521 47.06521739135496,80.48552237136755 46.50173913035542,84.65506861614995 46.40782608697191,86.1053360371443 46.173043478280306,87.61602603498613 45.89130434789695,90.45610877711442 46.12608695658855,90.81867117321235 46.45478260866366,90.87909820923232 49.225217391503975,91.12080626815441 49.647826087195426,91.12080626815441 49.835652173962444,90.99995225583552 50.44608695642091,87.3743159940932 50.63391304365359,84.65506861614995 50.82173913042061,83.50693675153889 50.962608695728704,81.99623223111848 51.15043478272855,80.84809322463116 51.385217391187325,78.85394972571521 51.62000000011176,77.52451555756852 51.80782608687878,75.59078575015883 52.089565217494965,73.53618824415025 52.13652173918672,71.96501878160052 52.512173913186416,69.1852432762098 52.699999999953434,68.8226625296229 53.733043478336185,68.27879083307926 55.564347826177254,67.55362749457709 57.25478260871023,66.70760204462567 62.18521739146672,64.83425401730346 62.79565217392519,64.47166957965237 64.25130434776656,64.04865401380812 65.84782608691603,63.20262162599829 67.3034782607574,62.65874277811963 67.96086956514046,62.29615649493644 70.35565217398107,61.26882702251896 73.64260869566351,59.93933815724449 75.66173913050443,59.274592173751444 76.69478260865435,58.791139899985865 78.94869565218687,57.94509710522834 83.83217391325161,55.7695507996832 84.77130434801802,55.46739071479533 85.61652173916809,55.04436623683432 87.07217391300946,54.56090917822439 90.40608695661649,53.17096708822646 90.5,52.98966996051604 90.45304347830825,52.6875079103047 90.07739130430855,51.78102047773427 90.07739130430855,50.39106934709707 89.6547826086171,48.94068073912058 88.71565217408352,47.067254835768836 88.34000000008382,45.7981552031124 87.82347826100886,44.52905180200469 87.3069565219339,43.924715524422936 87.11913043470122,43.562113347812556 85.9452173912432,40.05694311251864" stroke="#4DD2FF" stroke-linecap="round" stroke-linejoin="round" stroke-width="0.5"><title>2025-09-25 5.06km</title><desc>15927047279</desc></polyline></svg>