<?xml version="1.0" encoding="utf-8" ?>
<svg baseProfile="full" height="130mm" version="1.1" viewBox="0,0,100,130" width="100mm" xmlns="http://www.w3.org/2000/svg" xmlns:ev="http://www.w3.org/2001/xml-events" xmlns:xlink="http://www.w3.org/1999/xlink"><defs /><rect fill="#222222" height="130" width="100" x="0" y="0" /><text fill="#FFFFFF" style="font-size:6px; font-family:Arial; font-weight:bold;color:#0ed45e;" x="5" y="10">坚持再坚持</text><text fill="#FFFFFF" style="font-size:4px; font-family:Arial" x="5" y="121">Runner</text><text fill="#FFFFFF" style="font-size:6px; font-family:Arial" x="2" y="128">蓝皮书</text><text fill="#FFFFFF" style="font-size:4px; font-family:Arial" x="25" y="121">WORKOUTS INFO</text><text fill="#FFFFFF" style="font-size:3px; font-family:Arial" x="25" y="125">Type: Run</text><text fill="#FFFFFF" style="font-size:3px; font-family:Arial" x="22" y="129">Date: 2025-06-20</text><text fill="#FFFFFF" style="font-size:3px; font-family:Arial" x="47" y="125">Distance: 6.26 km</text><text fill="#FFFFFF" style="font-size:3px; font-family:Arial" x="47" y="129">Duration: 42:36min</text><text fill="#FFFFFF" style="font-size:3px; font-family:Arial" x="75" y="125">Pace: 6:48/km</text><text fill="#FFFFFF" style="font-size:3px; font-family:Arial" x="75" y="129">Elevation: 72m</text><polyline fill="none" points="10.534042553976178,68.6872176208999 9.844680851325393,77.00170296966098 13.980851063504815,79.62732544005848 25.699999999254942,84.44096105149947 45.00212765857577,84.00335811218247 51.20638297684491,83.56575511442497 62.925531912595034,84.00335811218247 71.88723404146731,83.12815205636434 80.84893616847694,82.6905489382334 89.81063829734921,75.68889092677273 89.46595744602382,71.31284690299071 90.5,65.6239807405509 84.64042553119361,58.18467898480594 75.33404255285859,56.4342525342945 67.06170212849975,56.871859236387536 57.75531915016472,56.4342525342945 38.79787234030664,57.74707246222533 27.42340425401926,57.309465878177434 16.39361702091992,58.622285447781906 10.534042553976178,69.56242762086913 11.223404254764318,77.00170296966098 14.6702127661556,79.18972184346057 16.048936169594526,81.8153425224591 21.563829785212874,84.44096105149947 31.90425531938672,83.56575511442497 44.31276595778763,82.6905489382334 59.82340425439179,83.12815205636434 66.71702127531171,83.56575511442497 74.30000000074506,83.12815205636434 79.12553191371262,82.6905489382334 89.81063829734921,72.62566073704511 85.3297872338444,58.622285447781906 78.09148936159909,56.871859236387536 74.64468084834516,55.99664577119984 46.03617021255195,56.871859236387536 41.210638297721744,57.309465878177434 31.90425531938672,57.74707246222533 23.63191489316523,58.622285447781906 14.6702127661556,62.99834679812193 11.223404254764318,70.87524217157625 16.048936169594526,81.37773922667839 39.48723404109478,83.56575511442497 50.86170212738216,83.12815205636434 72.57659574598074,83.12815205636434 83.95106382854283,80.06492897635326 88.43191489391029,74.37607834720984 88.0872340425849,63.43595260404982 83.60638297721744,59.935104480944574 79.47021276690066,56.871859236387536 59.134042551741004,58.18467898480594 47.07021276652813,56.871859236387536 23.287234041839838,59.497498196782544 15.359574468806386,62.5607409325894 12.946808511391282,66.49919157568365 11.912765955552459,73.06326522887684 14.6702127661556,80.94013586896472 19.8404255323112,83.12815205636434 29.146808510646224,84.00335811218247 43.96808510646224,83.56575511442497 72.57659574598074,82.6905489382334 84.985106382519,79.62732544005848 89.81063829734921,72.62566073704511 89.46595744602382,69.12482265010476 88.77659574337304,63.87355835153721 81.53829787299037,57.74707246222533 75.33404255285859,57.309465878177434 66.02765957266092,57.74707246222533 58.789361702278256,57.74707246222533 51.89574468135834,56.4342525342945 44.65744680725038,58.622285447781906 19.8404255323112,59.05989185231738 13.636170214042068,63.43595260404982 11.912765955552459,67.81200738204643 13.29148936085403,78.75211818818934 21.219148935750127,84.00335811218247 32.24893617071211,83.12815205636434 41.55531914718449,82.25294576073065 56.7212765943259,82.6905489382334 79.47021276690066,82.25294576073065 87.39787233993411,76.56409901450388 90.15531914867461,70.00003253039904 88.77659574337304,62.99834679812193 81.19361702166498,57.309465878177434 73.61063829809427,56.871859236387536 59.82340425439179,56.4342525342945 53.27446808479726,56.871859236387536 45.00212765857577,57.309465878177434 43.278723403811455,55.55903894873336 33.62765957415104,57.74707246222533 18.461702128872275,59.497498196782544 16.738297874107957,62.5607409325894 14.325531914830208,65.18637523218058 12.602127658203244,69.12482265010476 13.29148936085403,78.75211818818934 16.738297874107957,82.6905489382334 32.24893617071211,83.56575511442497 47.41489361599088,83.12815205636434 58.789361702278256,83.56575511442497 67.4063829779625,83.56575511442497 70.85319148935378,82.25294576073065 83.95106382854283,80.06492897635326 86.70851063728333,78.3145144735463 90.5,70.87524217157625 85.3297872338444,60.37271070596762 78.43617021292448,57.74707246222533 73.61063829809427,55.99664577119984 64.99361702054739,56.871859236387536 53.619148936122656,58.18467898480594 40.52127659507096,58.18467898480594 33.62765957415104,57.74707246222533 25.010638296604156,59.497498196782544 19.151063829660416,59.05989185231738 12.602127658203244,67.81200738204643 13.29148936085403,77.87691069813445 20.52978723309934,83.56575511442497 36.0404255297035,83.56575511442497 45.00212765857577,83.56575511442497 56.7212765943259,83.12815205636434 66.71702127531171,82.6905489382334 86.70851063728333,78.75211818818934 88.77659574337304,75.2512867921032 90.15531914867461,67.81200738204643 83.60638297721744,57.74707246222533 77.74680850841105,57.309465878177434 72.92127659544349,56.871859236387536 65.33829787187278,56.4342525342945 60.512765957042575,56.871859236387536 54.653191490098834,58.18467898480594 42.93404255248606,59.05989185231738 38.79787234030664,57.309465878177434 31.214893616735935,57.74707246222533 23.976595744490623,59.05989185231738 19.49574468098581,59.497498196782544 15.014893615618348,64.31116403732449 12.946808511391282,69.56242762086913 12.257446808740497,73.93847403372638 15.704255318269134,81.37773922667839 25.355319149792194,84.44096105149947 38.1085106395185,84.00335811218247 53.9638297855854,83.56575511442497 65.33829787187278,81.8153425224591 69.12978723272681,81.8153425224591 71.54255319014192,83.12815205636434 85.67446808516979,79.62732544005848 90.15531914867461,70.87524217157625 86.01914893649518,62.123135006055236 78.78085106424987,57.309465878177434 73.26595744676888,58.18467898480594 62.580851063132286,56.4342525342945 49.827659575268626,57.309465878177434 38.45319148898125,57.309465878177434 32.938297871500254,56.871859236387536 22.942553190514445,57.309465878177434 15.359574468806386,61.24792297487147 11.223404254764318,68.6872176208999 11.223404254764318,78.3145144735463 19.151063829660416,83.12815205636434 31.214893616735935,83.12815205636434 38.79787234030664,83.12815205636434 58.444680850952864,82.25294576073065 62.580851063132286,82.6905489382334 74.30000000074506,82.6905489382334 84.29574468173087,80.50253245281056 89.46595744602382,75.2512867921032 90.15531914867461,68.24961253069341 86.01914893649518,59.05989185231738 77.4021276589483,56.871859236387536 70.16382978670299,56.4342525342945 60.16808510571718,56.4342525342945 53.619148936122656,57.74707246222533 48.448936169967055,57.74707246222533 43.278723403811455,58.622285447781906 33.97234042547643,58.622285447781906 18.806382976472378,58.18467898480594 12.946808511391282,62.99834679812193 11.223404254764318,69.12482265010476 14.325531914830208,80.06492897635326 28.112765956670046,84.44096105149947 45.00212765857577,84.00335811218247 62.580851063132286,83.56575511442497 70.16382978670299,83.56575511442497 77.74680850841105,82.25294576073065 87.05319148860872,78.3145144735463 90.5,69.56242762086913 83.95106382854283,57.74707246222533 74.9893617015332,57.309465878177434 60.85744681023061,57.309465878177434 55.34255319274962,57.309465878177434 45.346808509901166,58.18467898480594 30.52553191408515,57.309465878177434 17.08297872170806,60.37271070596762 12.257446808740497,66.06158618768677 11.912765955552459,74.37607834720984 13.29148936085403,78.75211818818934 19.151063829660416,83.12815205636434 30.180851064622402,82.25294576073065 37.76382978633046,83.56575511442497 49.48297872208059,81.8153425224591 64.64893617108464,81.37773922667839 74.64468084834516,81.37773922667839 82.9170212764293,81.8153425224591 90.5,72.18805618514307 89.46595744602382,65.6239807405509 82.9170212764293,57.309465878177434 63.95957446843386,57.74707246222533 49.13829787261784,59.05989185231738 45.00212765857577,59.935104480944574 33.282978722825646,59.497498196782544 23.976595744490623,59.05989185231738 20.874468084424734,59.05989185231738 12.946808511391282,64.74876966513693 12.946808511391282,77.00170296966098 20.52978723309934,83.12815205636434 33.97234042547643,83.56575511442497 39.14255318976939,84.00335811218247 46.3808510620147,83.12815205636434 55.34255319274962,82.25294576073065 68.09574468061328,82.6905489382334 72.92127659544349,82.6905489382334 85.67446808516979,80.50253245281056 90.15531914867461,73.06326522887684 89.46595744602382,65.18637523218058 78.78085106424987,56.4342525342945 67.75106383115053,57.309465878177434 60.16808510571718,57.74707246222533 52.92978723347187,58.622285447781906 47.75957446731627,58.622285447781906 34.66170212626457,58.622285447781906 17.77234042622149,59.497498196782544 13.636170214042068,63.43595260404982 12.257446808740497,73.93847403372638 18.461702128872275,82.25294576073065 33.62765957415104,82.6905489382334 43.62340425513685,83.56575511442497 58.444680850952864,82.25294576073065 62.23617021180689,81.8153425224591 72.57659574598074,80.06492897635326 80.84893616847694,80.94013586896472 88.77659574337304,76.12649499997497 90.5,67.37440217309631 86.36382978782058,60.8103168704547 80.84893616847694,58.622285447781906 69.8191489353776,56.4342525342945 63.614893617108464,56.871859236387536 48.10425531864166,58.18467898480594" stroke="#4DD2FF" stroke-linecap="round" stroke-linejoin="round" stroke-width="0.5"><title>2025-06-20 6.26km</title><desc>14854759138</desc></polyline></svg>