<?xml version="1.0" encoding="utf-8" ?>
<svg baseProfile="full" height="130mm" version="1.1" viewBox="0,0,100,130" width="100mm" xmlns="http://www.w3.org/2000/svg" xmlns:ev="http://www.w3.org/2001/xml-events" xmlns:xlink="http://www.w3.org/1999/xlink"><defs /><rect fill="#FAF9F5" height="130" width="100" x="0" y="0" /><text fill="#5A5A5A" style="font-size:6px; font-family:Arial; font-weight:bold;" x="5" y="10">端午冰醇Run</text><text fill="#5A5A5A" style="font-size:4px; font-family:Arial" x="5" y="121">Runner</text><text fill="#5A5A5A" style="font-size:6px; font-family:Arial" x="2" y="128">蓝皮书</text><text fill="#5A5A5A" style="font-size:4px; font-family:Arial" x="25" y="121">WORKOUTS INFO</text><text fill="#5A5A5A" style="font-size:3px; font-family:Arial" x="25" y="125">Type: Run</text><text fill="#5A5A5A" style="font-size:3px; font-family:Arial" x="22" y="129">Date: 2025-05-31</text><text fill="#5A5A5A" style="font-size:3px; font-family:Arial" x="47" y="125">Distance: 5.51 km</text><text fill="#5A5A5A" style="font-size:3px; font-family:Arial" x="47" y="129">Duration: 40:04min</text><text fill="#5A5A5A" style="font-size:3px; font-family:Arial" x="75" y="125">Pace: 7:16/km</text><text fill="#5A5A5A" style="font-size:3px; font-family:Arial" x="75" y="129">Elevation: 9m</text><polyline fill="none" points="78.15228296117857,50.09573790291324 77.86683522490785,50.831287872220855 78.36636876314878,53.68153612228343 78.79454036662355,58.462569570110645 78.65181649895385,60.02559208963066 78.08092102687806,62.508031877398025 77.65274942293763,65.63405364716891 77.0818539513275,67.47288294299506 76.93913008319214,68.66811918915482 76.2968726772815,70.41499897057656 76.4395965449512,71.05858507216908 75.94006300717592,75.56366989953676 76.01142494101077,76.4830711207469 75.86870107334107,77.49441095878137 75.58325333707035,79.0573876061244 75.51189140276983,81.2639364595525 75.86870107334107,83.9301729738363 75.94006300717592,86.87221433682134 75.44052946940064,91.10137541219592 75.36916753510013,91.37718930712435 75.01235786499456,93.95144666783744 74.79827206302434,97.72087650984759 75.15508173312992,102.40964890731266 75.58325333707035,103.6967569689732 75.58325333707035,104.61611830577021 74.86963399732485,105.25967046612641 72.72877597715706,105.44354239467066 70.15974635351449,105.99515786755364 67.01982125779614,106.45483706973027 65.16441097389907,106.91451594617683 64.80760130379349,107.09838740545092 64.093981964048,106.91451594617683 62.95219101989642,107.28225881268736 61.9531239438802,107.3741944966605 61.31086653796956,107.92580832733074 60.954056868329644,108.84516366902972 61.025418802164495,109.3048408512841 60.81133300019428,110.13225895818323 60.311799462419,110.5 59.812265924178064,110.5 58.099579508416355,109.67258236254565 57.81413177214563,109.48871163278818 57.88549370644614,109.21290544077056 57.45732210204005,108.84516366902972 57.45732210204005,108.66129270487 57.528684036340564,108.38548616104526 57.17187436670065,106.73064443463227 57.3859601682052,106.08709373394959 56.957788564264774,104.79999041673727 56.74370276276022,102.96126696077408 56.386893092654645,101.85803038493032 56.10144535638392,99.83542512136046 55.53054988477379,98.82412012392888 54.53148280875757,98.4563724611653 53.10424412880093,98.36443551280536 51.96245318464935,98.54830939642852 51.03474804293364,99.00799387693405 50.392490637023,98.91605700697983 46.11077459715307,98.82412012392888 44.46945011522621,98.91605700697983 43.82719270931557,99.2838044090895 43.042211435269564,98.91605700697983 42.471315963193774,98.36443551280536 41.971782425418496,97.62893945741234 41.82905855728313,97.16925399901811 41.54361082101241,96.98537972464692 40.6159056792967,94.77888436365174 39.83092440571636,93.49175860296236 39.18866699934006,92.2965681089554 38.1895999237895,90.73362337023718 37.761428319849074,88.98679832229391 37.190532847773284,85.76895038975636 37.11917091347277,84.84956233354751 36.83372317813337,84.11405095021473 36.0487419036217,82.91884317283984 34.69286515796557,81.17199707397958 34.336055487859994,80.43648151960224 34.05060775158927,80.16066297137877 33.90788388391957,79.70096513070166 31.410216194111854,76.57501117134234 30.553872986231,74.36844636313617 30.268425250425935,74.00068483134964 30.05433944799006,73.35710164968623 30.125701382290572,72.9893395449617 29.91161558032036,72.16187404614175 29.626167844049633,71.70217053539818 29.269358174409717,70.23111710988451 28.198929164092988,67.74870688759256 27.05713822040707,64.53075356665067 26.55760468216613,64.07104464579606 25.558537606615573,63.79521913692588 23.845851190853864,63.24356776708737 21.704993170686066,61.680553003796376 20.563202226534486,60.20947684405837 20.13503062259406,59.29005254950607 19.63549708481878,56.89954328275053 19.706859019119292,56.53177184407832 19.350049349013716,55.42845627682982 19.350049349013716,54.417082023923285 19.49277321714908,53.95736593316542 20.27775449072942,53.77347940555774 24.91628020023927,53.49764951644465 25.772623408585787,53.58959282608703 26.414880814496428,53.31376285851002 27.12850015424192,52.57821570511442 27.05713822040707,51.47489341086475 27.271224022377282,50.73934417159762 27.19986208854243,50.3715692392434 27.271224022377282,49.81990644935286 26.985776286572218,47.42936227028258 26.843052418436855,47.15352968231309 26.843052418436855,46.78575271635782 26.985776286572218,44.30325273802737 26.914414352271706,43.47575063293334 26.985776286572218,43.016026785131544 27.62803369248286,42.83213715464808 28.769824636168778,42.0046331724152 28.98391043813899,42.0046331724152 29.126634305808693,41.72879827715224 30.62523492006585,41.72879827715224 31.33885425981134,40.901292886876035 32.552007138263434,40.809347778442316 35.83465610165149,39.79795072361594 36.690999309532344,39.06238823872991 36.90508511150256,37.59126076544635 36.690999309532344,34.28121174656553 36.90508511150256,33.17785831884248 37.261894782073796,32.166449360898696 37.832790253683925,31.246985302539542 38.1895999237895,30.971145830873866 39.33139086747542,30.69530624174513 40.116372141521424,30.69530624174513 40.687267613597214,30.511413116997574 41.11543921753764,30.603359685803298 41.82905855728313,30.419466535327956 42.61403983132914,30.511413116997574 43.25629723723978,30.143626711622346 44.184002379421145,30.327519940561615 46.82439393689856,32.07450301357312 48.322994550690055,33.453696851967834 50.17840483505279,33.63758914184291 50.606576438993216,33.453696851967834 51.177471910603344,32.993965898349416 51.39155771257356,32.258395694894716 51.53428158070892,30.143626711622346 51.60564351454377,29.77584009739803 52.10517705278471,29.5 55.173740214668214,30.051680077507626 55.60191181814298,29.867786770511884 57.45732210204005,30.143626711622346 59.45545625407249,30.051680077507626 61.096780735999346,30.603359685803298 62.02448587818071,31.063092334428802 62.38129554782063,31.063092334428802 63.66581035964191,31.246985302539542 64.02262002974749,31.246985302539542 64.37942969985306,30.87919931410579 65.37849677586928,29.77584009739803 66.30620191805065,29.683893411362078 67.09118319163099,30.419466535327956 67.3052689936012,30.7872527842992 67.51935479557142,31.98255665344186 68.0188883333467,32.71812716987915 71.44426116533577,36.39596723555587 71.8724327692762,37.59126076544635 72.22924243938178,38.142933959141374 72.30060437321663,38.78655209176941 72.65741404378787,39.338224268343765 73.08558564726263,40.71740265673725 74.58418626105413,42.64824747241801 74.9409959311597,42.92408197623445 78.22364489501342,42.92408197623445 79.43679777299985,43.47575063293334 79.65088357497007,43.84352947660955 79.72224550880492,44.211308111669496 79.43679777299985,44.671031112084165 79.57952164066955,45.406587234698236 79.79360744263977,45.77436498331372 79.93633131124079,46.509919854521286 80.64995065052062,48.16491526394384 79.22271197056398,48.900467423314694 78.93726423522457,49.176299268205184 78.79454036662355,49.54407487862045 78.43773069698364,49.81990644935286 78.08092102687806,50.3715692392434 77.86683522490785,51.382949801452924 78.00955909304321,51.84266771771945 78.15228296117857,54.233195626875386 78.58045456465334,56.255943128082436 78.58045456465334,57.727028256922495 78.72317843325436,58.278684319753665 78.79454036662355,59.5658799749217 78.50909263081849,60.11753447330557 77.9381971587427,63.79521913692588 77.72411135677248,64.16298645589268 77.43866362096742,65.26628716220148 76.36823461111635,70.23111710988451 76.36823461111635,71.70217053539818 76.01142494101077,73.26516114320839 75.65461527137086,79.24126696411986 75.51189140276983,80.3445420167991 75.29780560126528,80.71229995012982 75.29780560126528,81.17199707397958 75.58325333707035,82.09139034425607 75.94006300717592,86.68833714269567 75.79733913904056,89.90618051297497 75.58325333707035,90.91749941720627 75.51189140276983,92.11269245290896 75.15508173312992,94.04338424169691 75.01235786499456,95.9740702828858 74.72691012918949,96.70956821518485 74.9409959311597,98.54830939642852 74.86963399732485,99.3757412272389 74.79827206302434,99.46767803200055 74.9409959311597,100.84672854148084 74.79827206302434,101.94996683794307 75.01235786499456,102.31771251966711 75.22644366743043,103.23707581148483 75.22644366743043,104.52418223052518 75.01235786499456,105.0757984854863 73.58511918550357,105.5354783392977 69.73157474957407,106.17902958730701 68.661145739723,106.17902958730701 66.80573545536026,106.63870865938952 66.59164965385571,106.54677287099184 65.87803031411022,107.00645168218762 63.52308649197221,107.28225881268736 61.9531239438802,107.74193710257532 61.52495233993977,107.92580832733074 61.025418802164495,108.56935720337788 60.597247197758406,110.04032366489992 60.24043752811849,110.40806475910358 59.09864658396691,110.2241942381952 57.88549370644614,109.58064700412797 57.528684036340564,108.38548616104526 57.45732210204005,107.65000147058163 56.88642663042992,104.89192645251751 56.88642663042992,103.78869316121563 56.52961696032435,102.68545799265848 56.31553115835413,101.21447484905366 56.31553115835413,100.47898202581564 56.03008342254907,99.46767803200055 55.45918795047328,98.54830939642852 54.031949270516634,98.27249855158152 52.8187963925302,98.54830939642852 51.8910912508145,98.54830939642852 51.60564351454377,98.91605700697983 51.32019577873871,99.00799387693405 50.74930030666292,98.91605700697983 50.035680966917425,99.09993073402438 48.75116615509614,98.82412012392888 46.6816700687632,99.00799387693405 46.11077459715307,98.91605700697983 44.826259785331786,98.91605700697983 43.75583077548072,99.3757412272389 43.32765917107463,99.2838044090895 43.042211435269564,99.09993073402438 42.471315963193774,97.81281354953535 41.68633468961343,96.89344256772893 41.54361082101241,96.34181935334345 40.97271534940228,95.5143836516072 40.829991481266916,94.8708218204556 39.11730506550521,91.74494098417927 38.61777152772993,91.28525135514792 37.904152187518775,90.27393302414566 37.904152187518775,89.17067486455198 37.69006638554856,88.52710673771799 37.4046186497435,85.6770116428379 36.97644704580307,84.48180674604373 33.90788388391957,79.79290472506545 31.26749232597649,76.4830711207469 30.696596854366362,74.46038671309361 30.125701382290572,73.0812800906715 30.05433944799006,72.71351782925194 29.697529777884483,71.88605197856668 29.41208204207942,70.23111710988451 29.055272372439504,69.5875301869819 28.127567230258137,67.19705888093449 28.056205296423286,66.36958599102218 27.342585956677794,64.80657876265468 27.271224022377282,64.16298645589268 29.626167844049633,61.312784276902676 30.411149118095636,59.6578224239056 30.767958788201213,58.55451217544032 30.982044589705765,58.18674167530844 32.623369071632624,57.267314512922894 34.83558902563527,56.71565758949146 35.33512256387621,56.16400019678986 36.762361243832856,55.70428534434177 38.1895999237895,54.784854662255384 38.90321926353499,53.86542267596815 40.04501020768657,53.0379327738774 41.11543921753764,52.94598938629497 42.68540176562965,52.30238530784845 45.896688795182854,51.65878059028182 47.82346101338044,51.56683700700523 48.53708035312593,51.19906254403759 49.89295709878206,50.92323155963095 51.39155771257356,51.01517523423536 52.46198672289029,50.73934417159762 53.532415732741356,50.73934417159762 56.458255026489496,50.279625473427586 58.52775111235678,50.187681694864295 60.88269493402913,49.91185028018663 64.59351550182328,48.99241138465004 64.73623936995864,49.36018709948985 65.94939224794507,48.99241138465004 70.58791795745492,48.53269144811202 73.08558564726263,47.06158546009101 73.65648111933842,46.509919854521286 75.72597720520571,45.22269828221761 76.22551074298099,44.671031112084165 76.79640621505678,44.48714195098728 77.01049201702699,44.211308111669496" stroke="#4DD2FF" stroke-linecap="round" stroke-linejoin="round" stroke-width="0.5"><title>2025-05-31 5.51km</title><desc>14645942359</desc></polyline></svg>