<?xml version="1.0" encoding="utf-8" ?>
<svg baseProfile="full" height="130mm" version="1.1" viewBox="0,0,100,130" width="100mm" xmlns="http://www.w3.org/2000/svg" xmlns:ev="http://www.w3.org/2001/xml-events" xmlns:xlink="http://www.w3.org/1999/xlink"><defs /><rect fill="#FAF9F5" height="130" width="100" x="0" y="0" /><text fill="#5A5A5A" style="font-size:6px; font-family:Arial; font-weight:bold;color:#0ed45e;" x="5" y="10">中考第二天</text><text fill="#5A5A5A" style="font-size:4px; font-family:Arial" x="5" y="121">Runner</text><text fill="#5A5A5A" style="font-size:6px; font-family:Arial" x="2" y="128">蓝皮书</text><text fill="#5A5A5A" style="font-size:4px; font-family:Arial" x="25" y="121">WORKOUTS INFO</text><text fill="#5A5A5A" style="font-size:3px; font-family:Arial" x="25" y="125">Type: Hike</text><text fill="#5A5A5A" style="font-size:3px; font-family:Arial" x="22" y="129">Date: 2025-06-22</text><text fill="#5A5A5A" style="font-size:3px; font-family:Arial" x="47" y="125">Distance: 7.72 km</text><text fill="#5A5A5A" style="font-size:3px; font-family:Arial" x="47" y="129">Duration: 01:28:19</text><text fill="#5A5A5A" style="font-size:3px; font-family:Arial" x="75" y="125">Pace: 11:26/km</text><text fill="#5A5A5A" style="font-size:3px; font-family:Arial" x="75" y="129">Elevation: 16m</text><polyline fill="none" points="42.06150147563312,51.71609672051272 41.360530303558335,51.08395278608077 40.133830752572976,49.232666903786594 38.73188840819057,47.60713872051565 37.54023741558194,45.43975490448065 36.27848930575419,44.085132529988186 34.94664407870732,42.50473247788614 33.96528443763964,41.60164321292541 33.6498474101536,40.69855138740968 32.52829353499692,39.16328940715175 31.30159398377873,37.17646880017128 29.89965163951274,35.46056830146699 29.163631908711977,34.78323661253671 28.672952088410966,33.789814196294174 27.235961185419,32.43514227139531 26.04431019281037,30.76437229491421 24.992853434639983,29.5 22.995085594127886,33.33825752825942 24.046542352298275,32.796388681425015 26.605087130563334,32.209363056957955 26.359747220179997,32.389986441412475 24.502173614222556,32.796388681425015 22.92498847702518,33.24794611783 22.995085594127886,35.77665593003621 23.03013415285386,37.85379539945279 23.065182711347006,40.38246864348184 23.310522621613927,43.136893439717824 23.450716856052168,43.99482416675892 23.240425504511222,44.67213626636658 23.345571180223487,45.71067868813407 23.696056766202673,46.38798713881988 24.361979379784316,46.20737169281347 24.747513524373062,46.071910040976945 25.37838757922873,45.84614049343509 26.605087130563334,45.43975490448065 27.551398212788627,45.30429292633198 27.726641005952843,44.98821475316072 29.338874701759778,44.852752582897665 29.89965163951274,44.62698217111756 30.530525694368407,43.99482416675892 30.95110839768313,43.72389892369392 31.792273804196157,43.498127711733105 32.493244976270944,43.09173912694678 33.43955605884548,42.77565875806613 34.45596425817348,41.782261270825984 33.96528443763964,41.782261270825984 33.19421614846215,42.188651526434114 32.423147859051824,42.6853500236175 31.546933894162066,43.09173912694678 30.88101128046401,43.63359045807738 30.25013722560834,43.81420736364089 29.5842146120267,44.2205950266507 28.49770929524675,44.53667396158562 27.551398212788627,44.58182806961122 26.8854755993234,44.852752582897665 26.359747220179997,45.0785228345776 24.607319290051237,45.259138920751866 23.73110532492865,45.57521682517836 23.766153883421794,47.65229239311884 23.906348117860034,48.6456715723325 23.66100820770953,49.86481451243162 23.941396676469594,51.03879959983169 24.081590910907835,54.06404892160208 25.69382460671477,56.45713623953634 26.53499001346063,56.908660132292425 27.20091262680944,57.40533567513921 27.796738123171963,57.54079250706127 28.25236938521266,58.66959719869192 29.7594574050745,60.02415754823596 30.495477135758847,61.514167279645335 31.476836776710115,64.71992216305807 32.1077108316822,66.25506096470053 32.843730562366545,68.69320738472743 33.22926470718812,70.00257461192086 33.6498474101536,71.26678613809054 33.86013876181096,72.07949089829344 34.5260613753926,73.25339411362074 35.437323899241164,76.00753467687173 35.71771236800123,76.68477870878996 36.38363498158287,78.4907557546685 36.66402345034294,79.66463534408831 37.29489750531502,81.15455320884939 37.82062588434201,82.2832742249011 38.69683984958101,83.81832838864648 39.36276246304624,85.08248508712859 39.64315093192272,85.48882010346279 39.958587959292345,87.24959918501554 40.34412210423034,88.24285488625173 40.86985048302449,89.46184628724586 41.71101588977035,91.40319333336083 42.02645291725639,92.08040463612997 42.37693850311916,92.71246721973876 42.867618323653005,93.79600016001496 43.35829814407043,94.7892354511132 44.129366433480754,96.41452288455912 45.0406289572129,98.31068107733154 45.531308777746744,100.02624305096106 46.19723139121197,101.24518936587265 46.898202563403174,102.64471456868341 46.933251121779904,103.6379222732503 47.42393094243016,104.04423362360103 47.80946508713532,105.39860104920808 48.12490211450495,106.30150946744834 48.755776169360615,107.15927009485313 48.966067521017976,108.24275390230468 49.3866502243327,108.82963942617062 50.19276707235258,110.00340723060071 50.92878680303693,110.00340723060071 52.716263291891664,110.27427610987797 53.41723446419928,110.5 54.57383689796552,109.68739324712078 55.800536449300125,109.41652386885835 56.04587635945063,109.05536433972884 57.06228455901146,109.05536433972884 58.849761047866195,108.3781891191029 62.28451979137026,107.06897961124196 63.89675348729361,106.48209084413247 68.34792043012567,105.17287354465225 73.18462151766289,103.27675619354704 74.37627251038793,102.68986044067424 77.25025431602262,100.79372831154615 76.51423458533827,98.58155989795341 75.77821485465392,98.35582756338408 73.81549557251856,94.92467638733797 73.07947584195063,93.3445285493508 71.71258205641061,90.9968658607977 70.97656232560985,90.31965225478052 70.62607673939783,89.82302802882623 69.89005700871348,88.19770696701016 69.0138430435909,87.20445112496964 68.52316322305705,86.30148858117172 67.64694925793447,85.53396840652567 66.94597808585968,84.54070425927057 66.17490979656577,83.59258559314185 65.8945213278057,83.09595088005881 65.43889006576501,82.50901794811944 64.59772465925198,81.69633979562786 64.28228763188235,80.88365956998314 63.44112222525291,80.7030636825948 63.47617078397889,79.80008271051338 62.03917988098692,78.35530783128343 61.05782024003565,76.91052639935515 60.70733465417288,76.23328284744639 60.251703392132185,75.82693602528889 59.48063510283828,74.6078924483445 58.88480960659217,73.79519413871458 58.25393555162009,73.38884420637623 57.69315861398354,72.21494149017963 56.992187441908754,71.04103444781504 56.25616771110799,70.45407930447254 56.32626482832711,69.86712307942798 55.3098566288827,69.32531637325883 54.92432248406112,68.42230314848712 53.73267149145249,67.47413650745875 53.171894553815946,66.66141999722458 52.36577770579606,65.4423413441109 50.78859256859869,63.636290319118416 50.017524279188365,61.92053236038191 49.35160166572314,61.01749814359937 48.82587328669615,60.249917046545306 48.12490211450495,59.43718210395309 47.10849391494412,58.66959719869192 46.02198859816417,56.59259347454645 44.54994913667906,55.01225548129878 43.77888084738515,53.70282663262333 42.762472647824325,52.93522790828138 40.58946201426443,55.46378142238245 38.62674273236189,56.908660132292425 36.83926624362357,58.03746706421953 36.24344074714463,58.805053492833395 35.99810083687771,58.759901401237585 35.01674119592644,59.392030101967975 33.96528443763964,59.93385370413307 33.36945894150995,60.34022080095019 31.827322362922132,60.92719458110514 30.530525694368407,61.107801680482225 30.635671370080672,61.469015572045464 30.635671370080672,61.15295343939215 32.598390652099624,60.385372668650234 32.983924796804786,60.34022080095019 33.895187320536934,59.84354983450612 34.98169263731688,59.34687809360912 35.507421016460285,59.34687809360912 35.262081106193364,59.392030101967975 35.64761525078211,59.392030101967975 36.62897489173338,58.443836580438074 37.4000431811437,58.21807580199675 38.03091723611578,57.49564023609855 38.73188840819057,56.998964834201615 39.99363651801832,56.32167894690065 40.58946201426443,55.779849200247554 41.39557886228431,55.10256072066841 41.746064448263496,54.92195021623047 42.41198706172872,54.19950717446045 42.972763999481685,53.88343782839365 43.91907508193981,54.01889615791151 44.5149005780695,55.05740810412681 46.54771697719116,57.49564023609855 46.898202563403174,58.624445087771164 48.12490211450495,59.617790048214374 48.68567905225791,60.34022080095019 48.93101896264125,60.74658737934078 49.6319901344832,61.6496223641152 49.842281486140564,61.55931898081326 48.79082472808659,60.114461366756586 47.80946508713532,59.34687809360912 46.47761986008845,57.67624928109581 45.601405894965865,56.18622159655206 44.584997695405036,55.05740810412681 43.42839526152238,53.70282663262333 42.37693850311916,52.48369838288636 41.88625868270174,51.580637411621865 41.430627420777455,51.309718620963395 42.06150147563312,51.71609672051272 42.587229854776524,52.25793337999494" stroke="#4DD2FF" stroke-linecap="round" stroke-linejoin="round" stroke-width="0.5"><title>2025-06-22 7.72km</title><desc>14875964216</desc></polyline></svg>