<?xml version="1.0" encoding="utf-8" ?>
<svg baseProfile="full" height="130mm" version="1.1" viewBox="0,0,100,130" width="100mm" xmlns="http://www.w3.org/2000/svg" xmlns:ev="http://www.w3.org/2001/xml-events" xmlns:xlink="http://www.w3.org/1999/xlink"><defs /><rect fill="#FAF9F5" height="130" width="100" x="0" y="0" /><text fill="#5A5A5A" style="font-size:6px; font-family:Arial; font-weight:bold;color:#0ed45e;" x="5" y="10">2026 吉象如意</text><text fill="#5A5A5A" style="font-size:4px; font-family:Arial" x="5" y="121">Runner</text><text fill="#5A5A5A" style="font-size:6px; font-family:Arial" x="2" y="128">蓝皮书</text><text fill="#5A5A5A" style="font-size:4px; font-family:Arial" x="25" y="121">WORKOUTS INFO</text><text fill="#5A5A5A" style="font-size:3px; font-family:Arial" x="25" y="125">Type: Run</text><text fill="#5A5A5A" style="font-size:3px; font-family:Arial" x="22" y="129">Date: 2025-12-24</text><text fill="#5A5A5A" style="font-size:3px; font-family:Arial" x="47" y="125">Distance: 8.37 km</text><text fill="#5A5A5A" style="font-size:3px; font-family:Arial" x="47" y="129">Duration: 01:00:36</text><text fill="#5A5A5A" style="font-size:3px; font-family:Arial" x="75" y="125">Pace: 7:14/km</text><text fill="#5A5A5A" style="font-size:3px; font-family:Arial" x="75" y="129">Elevation: 8m</text><polyline fill="none" points="56.901929260464385,50.99316376418574 55.729903537081555,50.90830882015871 54.10209003207274,51.247728522110265 52.60450160759501,50.823453863558825 49.413987138308585,50.4840339141665 47.4606109324377,50.6537439134554 44.85610932484269,50.6537439134554 41.86093247612007,50.05975869850954 38.475080385571346,49.89004852576181 37.2379421221558,49.63548317353707 36.06591639854014,49.805193420674186 35.219453376252204,49.550628031254746 34.11254019290209,49.63548317353707 30.596463022520766,50.823453863558825 27.731511254096404,52.26598644029582 23.17363344063051,55.235895189107396 21.415594855090603,56.67841682571452 18.15996784577146,59.56344936863752 17.313504823250696,59.30888824927388 12.690514469519258,59.4785956745618 9.565112540032715,58.630058052542154 9.5,58.375496524735354 9.63022508029826,58.12093488551909 10.67202572338283,56.16929195052944 12.169614147860557,54.387351379264146 12.430064308922738,54.30249693029327 12.690514469519258,54.47220581601141 12.820739549817517,54.89647781389067 12.885852089850232,55.914729346113745 12.755627009551972,58.96947324991925 12.820739549817517,59.224034517945256 13.146302250912413,59.4785956745618 15.099678456317633,59.393741968029644 17.573954983847216,58.799765675968956 17.964630225207657,58.799765675968956 18.094855305273086,58.88461946928874 16.33681672019884,61.09081374667585 13.927652733400464,65.24861868371954 12.690514469519258,67.87905135989422 11.909163987031206,70.67917630198644 11.453376205870882,72.80047410429688 10.932475884445012,75.00661561469315 10.606913183350116,78.40066314244177 10.216237942222506,81.03103635838488 10.216237942222506,84.08564839611063 10.476688102819026,86.80084563337732 10.476688102819026,88.83723524631932 10.67202572338283,89.85542738006916 11.258038585307077,90.10997513501206 12.169614147860557,89.94027664419264 13.341639871476218,89.85542738006916 13.667202572338283,89.68572881497676 13.732315112603828,89.51603020000039 12.950964630348608,89.1766328223166 12.690514469519258,88.58268693456193 12.755627009551972,85.1886988019105 12.950964630348608,82.38864368840586 13.146302250912413,82.13409255520673 13.667202572338283,81.87954131077277 16.401929260231555,81.45528898964403 16.59726688079536,81.28558797418373 16.72749196132645,80.94618579512462 16.72749196132645,76.44908823323203 16.792604501591995,75.17631846136646 16.59726688079536,73.64899105991935 16.141479099867865,73.22473273688229 15.881028938805684,73.13988103502197 14.839228295953944,73.30958442616975 14.513665594859049,73.39443610305898 13.992765273200348,74.6672097731498 13.211414790945128,74.32780373317655 13.862540192902088,74.41265526181087 14.12299035396427,74.32780373317655 15.03456591651775,73.4792877677246 15.81591639877297,73.05502932099625 16.141479099867865,73.05502932099625 16.401929260231555,73.22473273688229 16.46704180072993,73.5641394201084 16.20659163990058,75.00661561469315 16.46704180072993,78.40066314244177 16.46704180072993,81.7946908713784 16.20659163990058,81.96439173811814 13.667202572338283,82.04924215283245 13.081189710414037,82.30379332293523 12.625401929486543,84.59474884334486 12.495176848722622,86.37659690034343 12.690514469519258,88.75238582125166 12.755627009551972,89.09178344672546 13.016077170614153,89.34633153607138 20.308681671973318,88.92208465881413 20.95980707416311,88.66753638419323 21.09003215422854,88.41298799793003 21.09003215422854,88.66753638419323 21.22025723475963,88.83723524631932 21.87138263671659,88.92208465881413 26.950160771375522,88.75238582125166 27.405948553001508,88.58268693456193 27.536173633299768,88.07358997676056 27.27572347270325,84.76444889319828 27.340836012968794,79.75827660999494 27.27572347270325,76.10968323296402 27.405948553001508,75.34602125844685 27.14549839240499,73.73384268721566 26.559485530713573,73.4792877677246 21.61093247612007,73.64899105991935 20.95980707416311,73.90354590513743 20.634244373068213,74.58235828165198 20.43890675273724,77.38245096307946 20.43890675273724,78.4855140770087 20.634244373068213,80.7764846313512 20.829581993399188,85.8674980122014 20.764469453366473,88.41298799793003 20.829581993399188,88.66753638419323 20.95980707416311,88.83723524631932 21.676045016152784,89.00693405879429 24.020096462918445,88.75238582125166 33.72186495177448,88.497837472416 33.98231511283666,88.32813851122046 34.04742765263654,87.73419175727759 33.72186495177448,82.13409255520673 33.85209003207274,81.45528898964403 34.11254019290209,81.20073744782712 34.89389067515731,81.03103635838488 36.97749196155928,81.20073744782712 38.01929260464385,81.54013947834028 39.51688102912158,81.03103635838488 40.4935691319406,80.86133521958254 40.4935691319406,79.41887353989296 40.75401929253712,78.4855140770087 40.75401929253712,77.29759986756835 40.88424437306821,76.36423700180603 40.68890675273724,74.58235828165198 40.68890675273724,73.4792877677246 40.55868167197332,73.13988103502197 40.36334405140951,72.97017759468872 35.219453376252204,73.05502932099625 34.307877813698724,73.22473273688229 33.65675241174176,73.5641394201084 35.15434083621949,73.05502932099625 38.40996784553863,72.88532585563371 39.71221864968538,72.63077056471957 40.23311897111125,72.71562234085286 40.42845659167506,72.97017759468872 40.4935691319406,73.30958442616975 40.36334405140951,74.75206125201657 40.36334405140951,76.1945345014683 40.29823151160963,77.0430465072277 40.42845659167506,80.26738084340468 40.29823151160963,80.52193279314088 40.03778135054745,80.69163403107086 38.93086816719733,80.94618579512462 38.01929260464385,81.37043848802568 37.693729903548956,81.45528898964403 36.58681672019884,81.11588690942153 35.870578778209165,81.11588690942153 34.43810289376415,81.28558797418373 33.91720257233828,81.54013947834028 33.72186495177448,82.21894294541562 33.72186495177448,87.73419175727759 33.98231511283666,88.41298799793003 34.43810289376415,88.58268693456193 42.837620578939095,88.07358997676056 42.967845659004524,87.90389089181554 43.0329581995029,87.22509405715391 42.837620578939095,85.44324859854532 42.577170417876914,73.30958442616975 42.707395498640835,73.05502932099625 43.29340836009942,72.80047410429688 48.762861736351624,72.46106697584037 49.4790996783413,72.54591877647908 49.804662379436195,73.13988103502197 49.34887459827587,72.54591877647908 48.56752411578782,72.37621516286163 42.577170417876914,73.05502932099625 42.446945337578654,73.30958442616975 42.316720257047564,74.07324907375732 42.316720257047564,80.097679481667 42.38183279754594,80.43708215543302 42.64228295814246,80.52193279314088 48.372186495224014,80.43708215543302 49.674437299137935,80.52193279314088 49.804662379436195,80.7764846313512 49.73954983940348,82.21894294541562 50.065112540265545,87.73419175727759 49.60932475863956,87.98874044034164 42.51205787807703,88.24328901217086 47.330385852372274,87.98874044034164 48.95819935691543,88.07358997676056 50.39067524112761,87.90389089181554 55.40434083598666,87.73419175727759 55.990353697678074,87.90389089181554 56.641479099867865,88.41298799793003 56.381028939038515,88.75238582125166 55.14389067515731,88.92208465881413 45.11655948520638,89.34633153607138 21.545819935621694,90.02512589580147 12.755627009551972,90.44937196874525 10.997588424477726,90.36452277889475 10.867363343946636,90.27967357658781 10.997588424477726,89.85542738006916 11.388263665605336,89.77057810378028 12.299839228391647,89.85542738006916 13.667202572338283,90.36452277889475 14.513665594859049,90.44937196874525 19.071543408324942,89.94027664419264 29.945337620330974,89.68572881497676 38.21463022520766,89.26148218521848 44.98633440490812,89.1766328223166 51.627813504775986,88.83723524631932 55.53456591651775,88.83723524631932 61.45980707369745,88.41298799793003 63.54340836033225,88.497837472416 68.2315112540964,88.24328901217086 68.62218649522401,87.90389089181554 68.75241157552227,87.30994370463304 68.49196141492575,85.1886988019105 68.16639871359803,77.72185522067593 68.03617363329977,74.32780373317655 68.10128617379814,73.5641394201084 68.29662379436195,73.30958442616975 69.07797427685,73.05502932099625 79.49598070723005,72.29136333713541 80.14710610941984,72.37621516286163 80.4726688102819,72.71562234085286 80.53778135054745,73.22473273688229 80.40755627024919,75.0914670440834 80.73311897134408,75.60057536134264 81.77491961419582,75.77027803478995 82.49115755641833,75.60057536134264 82.75160771724768,75.34602125844685 82.8167202572804,74.75206125201657 82.62138263694942,73.73384268721566 82.42604501615278,73.5641394201084 81.51446945336647,73.4792877677246 80.66800643084571,73.64899105991935 80.4726688102819,73.90354590513743 80.40755627024919,74.49750677798875 80.53778135054745,75.51572400610894 80.79823151114397,76.10968323296402 80.99356913170777,76.36423700180603 82.10048231529072,76.61879065888934 83.14228295837529,76.61879065888934 86.267684887629,76.27938575786538 86.59324758849107,76.5339394522016 86.59324758849107,83.15229641931364 86.46302250819281,83.57654750341317 86.20257234713063,84.00079827819718 86.00723472679965,84.25534859462641 83.66318327980116,84.67959887447068 82.03536977502517,84.84929889981868 81.90514469472691,85.01899887539912 81.84003215446137,85.52809850592166 81.90514469472691,87.14024439721834 82.03536977502517,87.39479334000498 82.62138263694942,87.6493421717314 89.45819935714826,87.22509405715391 90.04421221860684,86.97054503997788 90.23954983917065,86.71599591139238 90.5,85.35839867877075 90.5,84.25534859462641 90.36977491970174,80.0128287821426 90.04421221860684,77.0430465072277 89.00241157552227,73.5641394201084 88.0908360129688,72.206511499302 87.17926045018248,71.01858446997358 86.85369774908759,70.42462004581466 86.85369774908759,70.00035937171197 87.17926045018248,69.32154164928943 87.70016077160835,68.89728017075686 88.93729903572239,68.30331358098192 89.00241157552227,68.04875628522132 88.93729903572239,67.62449387856759 88.41639871359803,66.52141017321264 86.78858520905487,63.63641213293886 84.18408360122703,60.07257127360208 83.33762057870626,59.13918077404378 81.18890675227158,57.1026872145012 78.12861736351624,54.81162343901815 75.91479099704884,53.623660892480984 72.6591639870312,52.43569592019776 70.51045016059652,51.92656733241165 66.53858520882204,51.332583416835405 62.566720257280394,51.162873615161516 58.8553054665681,51.247728522110265 58.725080385804176,51.41743829892948 58.725080385804176,52.18113168212585 58.98553054663353,52.52055064146407 59.37620578799397,52.60540535033215 59.96221864968538,52.60540535033215 59.37620578799397,52.690260047034826 58.98553054663353,53.284242576453835 59.11575562693179,58.71491187054198 59.245980707230046,59.81801037664991 59.63665594859049,60.4968391872826 60.41800643084571,61.17566720570903 61.19935691333376,61.5999343150761 62.696945337811485,62.1090544378967 63.738745980663225,62.278761046298314 68.03617363329977,62.1090544378967 70.9662379422225,62.1090544378967 73.24517684895545,61.85449443204561 74.74276527343318,61.26052065228578 74.93810289399698,61.09081374667585 75.13344051456079,60.581692732986994 74.87299035349861,58.799765675968956 74.74276527343318,54.98133217624854 74.61254019313492,54.641914652253035 73.96141479094513,54.30249693029327 71.61736334417947,53.45395175903104 69.59887459804304,53.02967870963039 65.88745980733074,52.52055064146407 59.70176848885603,52.52055064146407 58.98553054663353,52.35084118647501 58.79019292606972,52.18113168212585 58.59485530550592,52.01142212789273 58.52974276500754,51.247728522110265 58.073954983847216,51.07801869593095" stroke="#4DD2FF" stroke-linecap="round" stroke-linejoin="round" stroke-width="0.5"><title>2025-12-24 8.37km</title><desc>16824563161</desc></polyline></svg>