<?xml version="1.0" encoding="utf-8" ?>
<svg baseProfile="full" height="130mm" version="1.1" viewBox="0,0,100,130" width="100mm" xmlns="http://www.w3.org/2000/svg" xmlns:ev="http://www.w3.org/2001/xml-events" xmlns:xlink="http://www.w3.org/1999/xlink"><defs /><rect fill="#FAF9F5" height="130" width="100" x="0" y="0" /><text fill="#5A5A5A" style="font-size:6px; font-family:Arial; font-weight:bold;color:#0ed45e;" x="5" y="10">晨间跑步Run</text><text fill="#5A5A5A" style="font-size:4px; font-family:Arial" x="5" y="121">Runner</text><text fill="#5A5A5A" style="font-size:6px; font-family:Arial" x="2" y="128">蓝皮书</text><text fill="#5A5A5A" style="font-size:4px; font-family:Arial" x="25" y="121">WORKOUTS INFO</text><text fill="#5A5A5A" style="font-size:3px; font-family:Arial" x="25" y="125">Type: Run</text><text fill="#5A5A5A" style="font-size:3px; font-family:Arial" x="22" y="129">Date: 2025-10-18</text><text fill="#5A5A5A" style="font-size:3px; font-family:Arial" x="47" y="125">Distance: 11.74 km</text><text fill="#5A5A5A" style="font-size:3px; font-family:Arial" x="47" y="129">Duration: 01:17:56</text><text fill="#5A5A5A" style="font-size:3px; font-family:Arial" x="75" y="125">Pace: 6:38/km</text><text fill="#5A5A5A" style="font-size:3px; font-family:Arial" x="75" y="129">Elevation: 2m</text><polyline fill="none" points="71.28412256273441,41.254892725264654 68.91504178289324,42.36801042716252 66.05710306414403,43.52952069119783 63.7256267410703,44.3522547436005 60.79247910878621,45.852529394993326 58.00974930380471,46.868840745213674 56.76880222861655,47.49798435441335 54.55013927584514,48.078731275047176 53.19637883012183,48.85305896989303 51.84261838439852,49.482198932091706 50.15041782730259,50.0145472275035 47.74373259069398,51.07924133480992 45.18662952654995,51.99874721688684 42.29108635126613,53.402198800846236 41.61420612828806,53.64417263033101 40.41086350986734,54.22490912300418 38.38022284116596,54.950828353408724 37.02646239567548,55.24119561450789 36.19916434539482,55.72514050221071 35.59749303618446,56.16069031620282 34.80779944290407,56.54784524120623 33.45403899718076,56.9349997282261 31.49860724247992,57.80609572309186 30.29526462382637,58.09646056211204 28.86629526480101,58.53200735867722 26.83565459633246,59.45149322063662 25.93314763251692,59.64506887688185 24.88022284139879,60.032219860877376 21.87186629534699,61.387244856508914 21.19498607236892,61.822787465993315 19.46518105873838,62.6938710223767 17.84818941517733,63.03262514009839 16.72005571052432,63.41977229277836 12.43314763228409,65.45228766050423 10.51532033435069,66.08139711411786 9.65041782730259,66.56532667629654 9.5,66.80729120096657 9.7256267410703,67.87193307705456 9.98885793890804,68.69460862281267 9.95125348190777,69.3721046463761 9.98885793890804,69.90442200991674 10.25208913674578,71.35619243053952 10.74094707542099,72.71117260152823 10.81615598895587,73.38866067575873 10.96657381625846,73.87257990794023 11.94428969384171,76.19538269983605 12.28272980521433,77.93747445062036 12.47075208928436,78.3729960032797 12.80919220065698,78.9536905446148 13.52367688040249,79.63116626473493 13.97493036231026,80.35703161970014 14.38857938721776,81.22806801414117 14.61420612805523,82.2442743399879 15.17827298049815,83.30886820773594 15.44150417833589,84.76058178307721 16.11838440131396,86.16389905405231 17.28412256273441,89.01890609049588 17.73537604464218,89.93831006786786 18.63788300845772,91.09965893087792 19.08913649036549,91.8738893175614 19.95403899741359,92.98684243083699 20.51810584962368,93.90623575210338 22.02228412264958,95.6482373791805 22.32311977725476,96.13212514689076 23.2256267410703,97.05151002155617 24.50417827325873,98.5999421242741 24.91782729816623,98.74510727476445 25.29387186630629,98.64833051455207 26.57242339826189,97.97089242725633 29.24233983294107,95.79340378125198 30.25766016729176,95.1643489273556 31.19777158787474,94.2933479907515 32.32590529276058,93.56751218417776 32.58913649036549,93.27717743063113 32.62674094713293,93.13200996158412 32.66434540390037,92.59972871490754 33.26601671311073,90.51898499182425 33.60445682448335,87.22848073279602 33.83008356555365,85.97033839320648 34.13091922015883,82.19588363097864 34.13091922015883,81.3248496989836 34.35654596122913,79.4859930089442 34.65738161583431,77.98586576170055 35.03342618397437,76.63090646863566 34.99582172720693,76.05020798725309 35.37186629534699,73.38866067575873 35.48467966588214,72.17885960265994 35.52228412264958,70.72709267082973 35.82311977725476,68.59782336710487 35.82311977725476,68.11389667817275 36.01114206132479,67.33961255301256 36.27437325916253,65.88782509759767 36.38718662969768,63.661739040806424 36.53760445700027,62.98423171523609 36.61281337076798,61.53242578788195 36.87604456837289,59.93543215590762 37.06406685244292,59.35470535146305 37.10167130921036,58.773977561853826 37.40250696381554,58.290036984486505 38.11699164356105,57.660913211148 38.60584958223626,57.322153777320636 39.13231197767891,56.838211147492984 39.5083565460518,56.59623957599979 39.88440111419186,56.54784524120623 40.03481894149445,56.644633903953945 40.03481894149445,56.838211147492984 39.73398328688927,58.53200735867722 39.5083565460518,59.54828106239438 39.09470752091147,60.516157975042006 38.90668523684144,61.14527650072705 38.53064066870138,63.03262514009839 38.30501392763108,64.43603148515103 37.81615598872304,66.0330041203124 37.62813370488584,67.00086269748863 37.06406685244292,71.11423112128978 36.42479108623229,74.55006568366662 35.97353760455735,78.61495218190248 35.63509749318473,79.77633945870912 35.33426183857955,81.3248496989836 34.39415041776374,83.50243037345354 33.75487465201877,85.97033839320648 33.67966573825106,86.74458038018201 33.71727019525133,88.72856747935293 33.64206128125079,89.40602385543752 33.37883008364588,90.22864765286795 33.34122562687844,90.4222059060412 33.45403899718076,90.66415356885409 33.52924791094847,90.7125430808228 34.39415041776374,90.51898499182425 34.95821727020666,90.56737452425295 36.23676880216226,90.03508929011878 38.11699164356105,89.45441354540526 38.869080780074,89.1156855726149 39.16991643467918,88.77695726489765 39.5083565460518,87.71238040152821 39.65877437335439,87.08331069882843 39.84679665742442,85.67999719659565 40.07242339826189,85.00253344705561 40.14763231226243,83.74438292669947 40.3732590530999,82.63139976575621 40.3732590530999,81.95392998319585 40.52367688016966,81.13128630205756 40.56128133716993,79.8247305098048 40.93732590554282,77.06642968353117 41.05013927584514,75.42111685388954 41.20055710314773,74.3564984560071 41.27576601668261,72.32403595710639 41.57660167128779,70.43673854556982 41.68941504182294,69.27531958220061 41.83983286912553,68.7430012403347 42.14066852373071,66.95246983354446 42.21587743749842,65.88782509759767 42.32869080780074,63.71013236994622 42.44150417833589,62.5486905836151 42.44150417833589,61.387244856508914 42.55431754887104,60.85491424790234 42.59192200563848,59.98382601173944 42.74233983294107,59.11273555885418 42.81754874670878,57.128576807590434 42.96796657377854,56.40266219561454 43.00557103077881,55.72514050221071 43.1559888580814,55.38637915265281 43.38161559891887,55.14440655481303 44.54735376057215,54.466882370761596 45.75069637899287,54.128119775909 46.08913649036549,54.1765144529345 46.12674094713293,54.273303786321776 46.01392757659778,54.75725004239939 45.86350974929519,55.870323835115414 45.48746518115513,57.2737595452345 45.26183844031766,58.62879546053591 44.81058495817706,60.32258281161194 44.73537604464218,61.096882808953524 44.50974930380471,61.7260002673429 44.13370473543182,62.50029709027149 43.98328690812923,63.03262514009839 43.94568245136179,63.51655901258346 44.05849582166411,64.48442470480222 44.09610027866438,65.21032217817265 43.83286908082664,67.00086269748863 43.49442896945402,68.3558601080731 43.41922005568631,69.90442200991674 43.08077994431369,72.22725172757055 42.96796657377854,74.3081066320301 42.55431754887104,76.38894888790674 42.62952646240592,78.22782221392845 42.36629526480101,78.90529937038082 42.32869080780074,79.92151259133243 41.95264623966068,81.27645886008395 41.91504178266041,82.19588363097864 41.76462395559065,83.11530593267526 41.6518105850555,85.0993140648352 41.20055710314773,86.889750557777 41.20055710314773,87.56721057265531 41.27576601668261,87.71238040152821 41.6518105850555,87.80916025306215 41.99025069642812,87.71238040152821 47.29247910878621,86.35745960564236 50.00000000023283,85.77677762284293 51.88022284116596,85.14770436342224 53.2339832871221,85.00253344705561 54.73816155991517,84.61541070244857 60.19080779957585,83.55082089774078 61.50696378829889,83.066915346717 62.33426183857955,83.01852475389023 64.92896935925819,82.43783710766002 67.48607242316939,82.14749291501357 69.2910863510333,81.66358538030181 69.47910863510333,81.5668037912983 69.55431754863821,81.42163135646842 69.55431754863821,81.17967716147541 69.25348189426586,80.35703161970014 68.42618384421803,79.43760191008914 67.93732590530999,78.51816973095993 67.22284122556448,77.93747445062036 66.92200557119213,77.55034371669171 66.43314763228409,76.29216580747743 66.32033426198177,75.66307511879131 66.05710306414403,75.03398327410105 65.49303621170111,74.06614740929217 65.11699164356105,73.19509279140038 64.81615598895587,71.8885067088413 64.74094707518816,70.92066195080406 64.25208913651295,69.3721046463761 63.53760445700027,67.38800536215422 63.38718662969768,66.80729120096657 63.12395543162711,66.32336198084522 63.01114206132479,65.79103904843214 62.8607242340222,65.5006807364116 62.48467966564931,64.72639070026344 62.03342618397437,64.09727875626413 61.61977715883404,63.27459216193529 61.16852367692627,62.01636178125045 60.64206128148362,61.048489110486116 60.0779944290407,59.83864442358026 59.55153203336522,58.290036984486505 59.13788300869055,57.41894222132396 59.02506963792257,56.45105655104271 58.64902506978251,55.918718265747884 58.23537604464218,55.14440655481303 57.74651810596697,53.59577787804301 57.25766016729176,52.434301772445906 57.18245125352405,51.70837720518466 56.95682451268658,51.12763644277584 56.95682451268658,50.35331389360363 56.80640668515116,49.7241755326977 56.84401114215143,49.57898959275917 57.14484679675661,49.24022216038429 57.89693593326956,48.85305896989303 58.31058495817706,48.51429081900278 58.87465181061998,48.22391785134096 59.96518105850555,47.78835793797043 60.90529247908853,47.49798435441335 63.19916434539482,46.53007063033874 64.3649025070481,46.23969597945688 65.79387186630629,45.562154169310816 68.83983286912553,44.54583893911331 71.24651810596697,43.287539711396676 72.63788300845772,42.80357723811176 73.84122562687844,42.22282136694412 74.02924791094847,42.22282136694412 74.17966573825106,42.319614080683095 74.29247910855338,42.46480309974868 74.48050139285624,43.04555856026127 74.55571030639112,43.819897641427815 75.45821727020666,45.99771691538626 75.83426183857955,47.304401828558184 75.98467966588214,48.46589534141822 76.02228412264958,49.046640619810205 76.77437325916253,51.75677222420927 76.81197771592997,52.53109159859014 76.92479108623229,53.015040317957755 77.11281337053515,53.45059358031722 78.20334261818789,55.04761746767326 79.10584958223626,56.30587346438551 79.78272980521433,57.03178828157252 80.30919220065698,57.70930738869356 80.8732590530999,58.67718950114795 81.02367688016966,59.16112953101401 81.24930362123996,60.46776419447269 81.77576601668261,62.30672304882319 82.00139275775291,63.56495236221235 82.26462395559065,64.43603148515103 82.67827298049815,66.56532667629654 83.35515320347622,68.1622893778258 84.2952646240592,69.32371211764985 85.23537604464218,70.33995378264808 86.55153203359805,72.61438848156831 86.85236768820323,73.43705262982985 87.19080779957585,75.56629183338373 87.79247910878621,78.03425706591224 87.83008356555365,79.58277518625255 87.94289693585597,80.26024966142722 88.20612813369371,80.88933190191165 88.8077994431369,81.85714847641066 90.23676880216226,83.55082089774078 90.5,83.98633530901861 90.5,84.13150665623834 90.23676880216226,84.22828752011992 88.92061281343922,84.32506835678942 87.60445682448335,84.80897212951095 84.25766016705893,85.72838741308078 83.76880222838372,85.72838741308078 82.45264623966068,85.87355802158709 79.93314763228409,86.55102004751097 79.1434540390037,86.55102004751097 77.03760445700027,86.98653064199607 72.82590529252775,88.2446692470985 71.66016713087447,88.38983878860017 69.62952646263875,88.87373681575991 67.33565459609963,88.68017768696882 66.32033426198177,88.53500826863456 65.83147632307373,88.38983878860017 62.672701950185,88.38983878860017 61.31894150422886,88.58339808153687 60.15320334257558,89.01890609049588 57.89693593326956,89.21246502775466 56.6559888580814,89.5511929046188 55.90389972156845,89.64797223647474 54.28690807824023,89.69636189207085 52.1434540390037,89.88992044629413 50.11281337053515,89.93831006786786 47.33008356555365,90.08347889102879 44.32172701973468,90.95449053830816 42.10306406696327,91.7771106150758 41.05013927584514,92.30939314060379 39.95961002795957,92.50295021751663 39.28272980521433,92.69650718496996 39.01949860737659,92.79328562764567 38.94428969360888,92.93845324032009 38.869080780074,92.11583595437696 39.16991643467918,89.8415308179683 39.43314763228409,88.68017768696882 39.47075208928436,87.8575501687883 39.77158774365671,85.67999719659565 40.14763231226243,84.32506835678942 40.18523676902987,81.80875771256979 40.52367688016966,80.50220450598863 40.56128133716993,79.34081969168619 40.93732590554282,77.3083867856476 41.12534818938002,75.66307511879131 41.31337047345005,74.79202456449275 41.6518105850555,70.58191563907894 41.83983286912553,69.6140671869216 41.87743732589297,69.08174937180593 42.06545961019583,68.59782336710487 42.17827298049815,67.58157653018134 42.17827298049815,66.75889830978122 42.5167130921036,65.64585992318462 42.55431754887104,64.91996337354067 42.7047353759408,63.46816565602785 42.81754874670878,62.83905139955459 43.1559888580814,61.822787465993315 43.30640668515116,59.064341579854954 43.49442896945402,58.53200735867722 43.72005571052432,58.33843107309076 44.47214484703727,57.95127817330649 45.75069637899287,57.03178828157252 46.91643454041332,56.644633903953945 48.23259052936919,56.01550710640731 50.37604456837289,54.80564463054179 51.46657381625846,54.612066237517865 52.369080780074,54.32169844265445 52.55710306414403,54.03133040154353 52.89554317574948,52.918250628805254 53.15877437335439,52.482696688966826 53.38440111419186,52.28911698216689 54.13649025070481,52.09553716593655 54.39972144854255,51.805167236336274 54.88857938721776,51.03084622003371 55.1518105850555,50.69208022457315 56.09192200563848,49.91775668991613 56.46796657401137,49.7241755326977 56.50557103077881,49.57898959275917 56.58077994431369,49.67578022618545 56.69359331484884,49.91775668991613 56.80640668515116,50.30491867620731 56.8816155991517,51.90195724039222" stroke="#89CFF0" stroke-linecap="round" stroke-linejoin="round" stroke-width="0.5"><title>2025-10-18 11.74km</title><desc>16175272377</desc></polyline></svg>