<?xml version="1.0" encoding="utf-8" ?>
<svg baseProfile="full" height="130mm" version="1.1" viewBox="0,0,100,130" width="100mm" xmlns="http://www.w3.org/2000/svg" xmlns:ev="http://www.w3.org/2001/xml-events" xmlns:xlink="http://www.w3.org/1999/xlink"><defs /><rect fill="#FAF9F5" height="130" width="100" x="0" y="0" /><text fill="#5A5A5A" style="font-size:6px; font-family:Arial; font-weight:bold;color:#0ed45e;" x="5" y="10">零下10度跑</text><text fill="#5A5A5A" style="font-size:4px; font-family:Arial" x="5" y="121">Runner</text><text fill="#5A5A5A" style="font-size:6px; font-family:Arial" x="2" y="128">蓝皮书</text><text fill="#5A5A5A" style="font-size:4px; font-family:Arial" x="25" y="121">WORKOUTS INFO</text><text fill="#5A5A5A" style="font-size:3px; font-family:Arial" x="25" y="125">Type: Run</text><text fill="#5A5A5A" style="font-size:3px; font-family:Arial" x="22" y="129">Date: 2025-12-31</text><text fill="#5A5A5A" style="font-size:3px; font-family:Arial" x="47" y="125">Distance: 5.35 km</text><text fill="#5A5A5A" style="font-size:3px; font-family:Arial" x="47" y="129">Duration: 39:28min</text><text fill="#5A5A5A" style="font-size:3px; font-family:Arial" x="75" y="125">Pace: 7:22/km</text><text fill="#5A5A5A" style="font-size:3px; font-family:Arial" x="75" y="129">Elevation: 5m</text><polyline fill="none" points="9.5369694205001,52.13016502413666 9.5369694205001,52.46826478870935 9.869694203604013,54.78665381891187 10.387266088509932,57.5397195831174 10.904837973648682,58.795496319420636 11.274532177019864,60.67915244112373 11.385440438054502,61.983215749205556 11.348471018020064,63.86685362877324 11.459379279054701,64.73622132232413 11.644226380623877,65.5089906778012 11.792104062158614,65.79877871845383 12.198767685797065,66.08856650383677 15.932679141871631,67.48920387064572 17.9659972616937,68.11707385908812 21.108397991862148,69.37281024290132 21.47809219523333,69.37281024290132 21.884755819337443,69.08302534875111 22.06960292113945,68.60004995806958 22.143541761673987,67.8272878593416 22.365358283976093,67.58579933131114 22.808991328114644,67.48920387064572 23.99201277946122,67.58579933131114 24.250798722030595,67.77899016792071 24.10292104072869,69.37281024290132 24.250798722030595,70.09727136223228 24.54655408486724,70.53194726834772 25.43382017337717,70.96662260065204 28.095618438906968,71.73937732962077 31.090141487773508,73.09169374033809 34.195572797907516,73.86444348061923 37.96645367401652,75.31334435430472 40.44340483820997,76.03779239967116 42.51369237783365,76.9071279494965 45.43427658593282,77.53497997444356 48.61364673660137,78.64579216198763 50.49908717465587,79.03216073979274 51.31241442239843,79.27364087072783 52.90209949784912,79.75660060090013 55.04632587870583,80.62592633001623 55.93359196721576,80.77081372827524 59.51962574175559,82.02650184227969 61.18324965774082,82.41286645227228 63.03172067552805,83.18559431185713 63.99292560480535,83.28218516660854 65.10200821538456,83.71684366289992 66.10018256492913,83.95832035728381 67.50502053857781,84.44127321473206 69.27955271559767,84.87593018059852 72.56983112730086,86.13160263607278 74.19648562301882,86.46966747875558 74.93587402999401,86.5662573700829 76.3037425831426,86.85602687383653 77.2279780919198,87.53215472420561 78.15221360092983,87.91851287242025 80.59219534462318,88.44975458574481 82.2558192606084,89.1258791628643 83.62368781375699,89.27076282017515 84.9545869466383,89.60882443920127 87.50547695113346,90.47812415112276 89.94545869459398,91.00936173388618 90.38909173896536,91.1059502933349 90.5,91.00936173388618 90.24121405743062,90.8161845302966 89.46485622995533,90.62300721326028 88.42971245991066,90.18835783551913 87.09881332726218,89.75370788393775 86.10063897748478,89.27076282017515 84.62186216330156,88.83611165705952 84.03035143762827,88.73952243162785 82.51460520294495,88.25657588004833 81.77521679596975,88.06339706102153 79.81583751714788,87.33897548014647 78.2631218621973,87.00091153019457 76.89525330881588,86.32478258854826 73.01346417167224,85.40717680400121 72.16316750342958,85.31058657259564 71.05408489261754,84.92422536356025 70.35166590614244,84.53786370123271 68.87288909172639,84.054910985491 66.69169329083525,83.18559431185713 64.06686444533989,82.50945753403357 62.218393427552655,81.92991061907378 60.92446371517144,81.68843243664014 57.44933820166625,80.72251793585019 56.56207211338915,80.3361513420532 55.82268370594829,80.23955962283071 53.45664080325514,79.66000871165306 51.16453674132936,78.79068043164443 50.31424007285386,78.59749605777324 49.242126882774755,78.21112696966156 48.42879963503219,78.11453462691861 48.05910543119535,78.01794225571211 47.13486992241815,77.53497997444356 42.51369237783365,75.74801337291137 41.51551802828908,75.60312376380898 40.36946599720977,75.2650477613206 39.03856686456129,74.78208144119708 38.188270196318626,74.3957078748208 36.45070743956603,73.96103707060684 35.230716567719355,73.42977197485743 32.97558192606084,72.89850602173829 32.49497946142219,72.70531818983727 30.49863076233305,72.07745695312042 29.278639890486374,71.8842686394637 27.615015974268317,71.30470301790047 26.321086261887103,70.72513637592783 25.43382017337717,70.24216339472332 25.101095390273258,69.95237926585833 24.99018712900579,69.71089229697827 24.95321770873852,69.08302534875111 25.212003651307896,68.26196676306427 25.212003651307896,68.02047855404089 24.91624828847125,67.8272878593416 23.47444089478813,67.24771509459242 22.217480602674186,66.5715455794998 22.03263350063935,66.37835403424106 22.03263350063935,65.75048072935897 21.884755819337443,65.5089906778012 21.625969876768067,65.31579850899288 21.03445915109478,65.12260622676695 20.258101323619485,64.54302870007814 19.99931538105011,64.01174840374733 19.814468279248103,62.90088683189242 19.703560018213466,62.5627977832919 19.370835235109553,61.983215749205556 19.07507987227291,61.6934243493597 18.668416248168796,61.45193132138229 17.48539479682222,61.21043811610434 16.635098128579557,60.58255495337653 15.821770881069824,60.38935989316087 14.084208124084398,58.84379532904131 12.346645367564633,58.4091039878258 11.939981743460521,58.457403054024326 11.607256960356608,58.65059924812522 11.49634869908914,58.98869231506251 11.459379279054701,59.61657851812197 11.903012322960421,63.33557224125252 12.087859424995258,64.54302870007814 12.235737106297165,64.78451946011046 12.420584208099172,64.73622132232413 13.233911456074566,64.3498359641817 13.49269739841111,64.44643234621617 13.603605659678578,64.68792317726184 13.862391602015123,64.88111571461195 15.045413053361699,64.88111571461195 16.376312186243013,65.36409656188334 18.298722044564784,65.79877871845383 18.779324509436265,65.79877871845383 19.296896394342184,65.2675004490884 19.55568233667873,64.44643234621617 19.51871291641146,63.5287655723514 19.592651757178828,62.46620084843016 19.777498858980834,61.9349172001821 19.777498858980834,61.74172293380252 19.740529438713565,61.548528553772485 19.259926974074915,60.92064603595645 18.816293929703534,60.19616471952759 18.261752624297515,59.664877407310996 17.633272478356957,59.47168180855806 16.782975810114294,59.51998071887647 15.858740301337093,59.03699129651068 15.230260155163705,58.892094331473345 14.675718849757686,58.505702113267034 14.45390232768841,57.92611293529626 13.751483340980485,57.39482195896562 13.159972615074366,57.153325777180726 12.420584208099172,57.20162502783933 11.681195801123977,56.815230825013714 11.385440438054502,56.57373421799275 11.200593336485326,56.187339278141735 11.126654495717958,55.84924333373783 11.237562756752595,55.46284754341468 11.644226380623877,54.83495341669186 11.718165221391246,54.496856083133025 11.089685075217858,53.5791615700291 10.683021451346576,52.51656472671311 10.313327247742563,51.79206491226796 10.091510725673288,50.343060498911655 9.832724783103913,49.521955166594125 9.5,48.894049706694204" stroke="#4DD2FF" stroke-linecap="round" stroke-linejoin="round" stroke-width="0.5"><title>2025-12-31 5.35km</title><desc>16889043499</desc></polyline></svg>