<?xml version="1.0" encoding="utf-8" ?>
<svg baseProfile="full" height="130mm" version="1.1" viewBox="0,0,100,130" width="100mm" xmlns="http://www.w3.org/2000/svg" xmlns:ev="http://www.w3.org/2001/xml-events" xmlns:xlink="http://www.w3.org/1999/xlink"><defs /><rect fill="#FAF9F5" height="130" width="100" x="0" y="0" /><text fill="#5A5A5A" style="font-size:6px; font-family:Arial; font-weight:bold;color:#0ed45e;" x="5" y="10">再度惠水湾</text><text fill="#5A5A5A" style="font-size:4px; font-family:Arial" x="5" y="121">Runner</text><text fill="#5A5A5A" style="font-size:6px; font-family:Arial" x="2" y="128">蓝皮书</text><text fill="#5A5A5A" style="font-size:4px; font-family:Arial" x="25" y="121">WORKOUTS INFO</text><text fill="#5A5A5A" style="font-size:3px; font-family:Arial" x="25" y="125">Type: Run</text><text fill="#5A5A5A" style="font-size:3px; font-family:Arial" x="22" y="129">Date: 2025-12-09</text><text fill="#5A5A5A" style="font-size:3px; font-family:Arial" x="47" y="125">Distance: 6.17 km</text><text fill="#5A5A5A" style="font-size:3px; font-family:Arial" x="47" y="129">Duration: 44:25min</text><text fill="#5A5A5A" style="font-size:3px; font-family:Arial" x="75" y="125">Pace: 7:12/km</text><text fill="#5A5A5A" style="font-size:3px; font-family:Arial" x="75" y="129">Elevation: 9m</text><polyline fill="none" points="85.13884892035276,82.53360655496363 84.4395683449693,81.4701624228619 84.20647481968626,80.10287551325746 84.78920863289386,77.97598119499162 85.60503597045317,76.45676830748562 87.81942446017638,74.63370991568081 88.28561150981113,73.87410131026991 88.40215827291831,72.65872638858855 88.28561150981113,69.62028287618887 87.7028776970692,66.2779847694328 88.05251798499376,63.847215769579634 87.9359712228179,62.479905713000335 87.23669064650312,61.112593860249035 85.83812949620187,60.20105162728578 80.24388489127159,60.20105162728578 78.02949640247971,59.89720403926913 74.76618704991415,58.98566074192058 69.9877697834745,57.01064752647653 66.95755395619199,56.40295039862394 65.092805754859,56.40295039862394 63.228057553991675,56.706799006904475 61.36330935219303,57.618344299378805 60.43093525106087,58.5298887938261 59.73165467567742,60.352975387941115 59.49856115086004,62.176058789598756 59.84820143831894,64.1510622050846 61.36330935219303,66.88567613251507 61.829496402759105,68.25298040243797 61.9460431644693,70.0760499688331 61.596402877010405,73.11449215037283 61.712949640117586,74.02602307579946 62.06258992757648,74.93755320250057 63.57769784145057,76.15292546397541 68.82230215799063,78.43174462916795 71.26978417253122,79.19134990882594 73.71726618660614,79.34327089844737 75.58201438793913,79.03942889731843 80.94316546665505,77.21637502871454 86.42086330894381,75.8490825316403 87.81942446017638,74.78563157015014 88.28561150981113,73.72217952262145 88.51870503555983,71.74719426606316 87.9359712228179,66.12606187351048 88.28561150981113,63.54336924536619 88.16906474763528,62.176058789598756 87.9359712228179,61.72028823872097 87.00359712168574,60.80874653789215 85.72158273309469,60.352975387941115 77.67985611455515,60.20105162728578 74.76618704991415,59.441432490129955 69.05539568280801,57.1625717531424 67.19064748147503,56.858723277575336 64.16043165419251,57.1625717531424 61.829496402759105,58.07411664642859 60.78057553898543,58.98566074192058 60.08129496360198,60.049127844395116 59.61510791350156,61.112593860249035 59.38201438821852,62.93567593116313 59.61510791350156,64.45490855176467 61.01366906380281,66.88567613251507 61.596402877010405,68.70874809310772 61.9460431644693,70.8356613451615 61.712949640117586,72.81064833130222 60.66402877680957,75.08947481296491 59.61510791350156,76.76061106252018 58.33309352491051,77.52021756162867 56.235251798294485,78.12790236203 50.05827338062227,76.91253240639344 46.67841726588085,77.82406000618357 44.813669064082205,77.82406000618357 43.64820143813267,77.52021756162867 42.249640287365764,76.45676830748562 39.33597122319043,73.41833588096779 37.937410071492195,71.59527216828428 37.0050359708257,70.6837391143199 32.459712230134755,68.55682555178646 30.828057553619146,66.73375332483556 28.96330935228616,63.847215769579634 27.797841725870967,62.78375254734419 26.399280575104058,62.176058789598756 24.53453237377107,62.176058789598756 21.620863309130073,63.3914459500229 19.639568344689906,63.54336924536619 18.357553956564516,63.08759929332882 15.910071942023933,61.26451748807449 14.97769784135744,61.112593860249035 13.69568345323205,60.960670210421085 12.530215826816857,61.41644109378103 10.89856115076691,62.63182914117351 9.966187050100416,63.847215769579634 9.733093525283039,64.45490855176467 9.616546762175858,65.06260097923223 9.966187050100416,66.2779847694328 10.665467625949532,67.3414444217924 12.064028777182102,68.40490298799705 14.394964028615505,68.70874809310772 16.026618705131114,69.16451558459084 17.192086330614984,69.01259310962632 18.707194244489074,68.10105779464357 19.28992805723101,68.10105779464357 23.019424460362643,70.53181686101016 24.76762589951977,71.13950574118644 32.22661870485172,70.98758355423342 34.79064748156816,69.62028287618887 36.07266187015921,69.77220526221208 37.5877697840333,70.98758355423342 38.86978417215869,73.41833588096779 40.967625899240375,75.69716103223618 42.59928057529032,77.21637502871454 44.11438848916441,78.12790236203 46.79496402805671,78.12790236203 50.8741007191129,76.76061106252018 54.25395683431998,77.67213879479095 56.46834532311186,77.97598119499162 57.98345323652029,77.52021756162867 60.66402877680957,76.45676830748562 61.829496402759105,76.3048468970228 62.994964027777314,76.60868969582953 68.23956834431738,78.88750786345918 71.26978417253122,79.64711281063501 73.01798561075702,79.95095463423058 74.64964028680697,79.64711281063501 81.05971222976223,77.06445372861344 85.3719424456358,76.00100400904194 86.53741007205099,75.54523951071315 87.46978417178616,74.78563157015014 88.16906474763528,73.2664140269626 88.28561150981113,71.44335004780442 87.46978417178616,67.03759891807567 87.81942446017638,63.08759929332882 87.7028776970692,62.479905713000335 87.12014388479292,61.26451748807449 86.53741007205099,60.80874653789215 85.25539568299428,60.352975387941115 81.87553956825286,60.656822843360715 79.8942446038127,60.5048991269432 76.86402877699584,59.745280211558565 69.87122302129865,57.1625717531424 68.12302158214152,56.858723277575336 64.97625899175182,56.858723277575336 61.47985611483455,58.22604071802925 60.08129496360198,59.89720403926913 59.73165467567742,60.656822843360715 59.61510791350156,61.87221177772153 59.73165467567742,64.1510622050846 61.13021582690999,67.3414444217924 61.47985611483455,68.55682555178646 61.47985611483455,70.53181686101016 61.13021582690999,73.2664140269626 60.547482014168054,74.48178823897615 59.0323740998283,76.76061106252018 57.98345323652029,77.36829630623106 56.118705035652965,77.82406000618357 54.603597121778876,77.82406000618357 52.27266187034547,76.91253240639344 51.10719424393028,76.76061106252018 46.095683452673256,77.97598119499162 44.813669064082205,77.82406000618357 43.99784172605723,77.52021756162867 42.4827338126488,76.3048468970228 37.23812949610874,70.37989458569791 36.18920863280073,69.62028287618887 33.50863309297711,68.8606706126593 32.459712230134755,68.10105779464357 31.061151079367846,66.73375332483556 28.96330935228616,63.54336924536619 28.030935251619667,62.63182914117351 26.865467626135796,62.176058789598756 25.00071942433715,62.024135295068845 21.038129496388137,63.3914459500229 19.756115107797086,63.54336924536619 18.590647481847554,63.08759929332882 15.910071942023933,61.112593860249035 13.928776978049427,60.80874653789215 12.646762589924037,61.26451748807449 10.89856115076691,62.479905713000335 10.082733813207597,63.3914459500229 9.5,64.60683169180993 9.733093525283039,65.67029305140022 9.966187050100416,66.2779847694328 11.830935251433402,68.10105779464357 16.25971222994849,69.01259310962632 18.707194244489074,67.94913516414817 19.28992805723101,68.10105779464357 23.135971223004162,70.6837391143199 24.068345323670655,71.13950574118644 27.21510791312903,71.44335004780442 30.128776978235692,74.63370991568081 35.256834532134235,75.69716103223618 40.967625899240375,77.36829630623106 44.34748201398179,77.97598119499162 46.445323740597814,77.97598119499162 50.75755395600572,76.76061106252018 55.18633093498647,78.12790236203 56.35179856047034,78.12790236203 57.517266186885536,77.82406000618357 60.78057553898543,76.3048468970228 62.41223021550104,76.15292546397541 63.81079136673361,76.45676830748562 71.03669064678252,79.34327089844737 73.48417266178876,79.64711281063501 76.16474820114672,79.03942889731843 79.19496402796358,77.82406000618357 85.3719424456358,76.45676830748562 86.77050359686837,75.8490825316403 87.58633093489334,74.93755320250057 88.05251798499376,73.87410131026991 88.28561150981113,72.65872638858855 87.7028776970692,66.88567613251507 87.9359712228179,62.78375254734419 87.58633093489334,61.87221177772153 87.12014388479292,61.112593860249035 85.48848920827731,60.5048991269432 80.01079136645421,60.5048991269432 75.58201438793913,59.137584680109285 72.08561151009053,57.618344299378805 69.52158273337409,56.706799006904475 66.49136690609157,56.40295039862394 63.92733812890947,56.858723277575336 61.24676259001717,58.22604071802925 60.547482014168054,58.833736781263724 59.73165467567742,59.89720403926913 59.0323740998283,61.72028823872097 59.0323740998283,62.93567593116313 59.61510791350156,64.75875480950344 61.36330935219303,68.10105779464357 61.47985611483455,69.16451558459084 61.24676259001717,72.35488243645523 60.78057553898543,74.02602307579946 59.49856115086004,76.3048468970228 58.33309352491051,77.52021756162867 57.28417266206816,77.82406000618357 55.53597122291103,77.82406000618357 51.923021581955254,76.76061106252018 50.05827338062227,76.91253240639344 47.02805755380541,77.97598119499162 45.86258992785588,78.12790236203 35.72302158176899,75.39331796718761 28.497122301720083,74.32986654038541 23.835251797921956,74.02602307579946 24.65107913641259,71.89911634207238 24.417985611129552,71.2914279056713 23.951798561029136,70.6837391143199 19.28992805723101,67.94913516414817 18.590647481847554,67.94913516414817 16.14316546730697,69.16451558459084 12.29712230199948,68.10105779464357 10.782014388591051,66.73375332483556 10.082733813207597,65.67029305140022 9.849640286993235,64.91067790554371 10.082733813207597,63.69529251847416 10.89856115076691,62.479905713000335 12.530215826816857,61.112593860249035 13.69568345323205,60.656822843360715 15.676978416740894,60.960670210421085 19.05683453241363,63.23952263267711 20.105755395721644,63.54336924536619 21.387769783847034,63.3914459500229 24.53453237377107,62.024135295068845 26.632374100387096,62.327982262242585 27.914388488978148,62.78375254734419 29.546043165028095,64.30298538936768 31.177697841078043,67.3414444217924 31.99352518003434,68.40490298799705 33.15899280551821,69.01259310962632 35.72302158176899,69.77220526221208 36.88848920818418,70.53181686101016 40.38489208603278,74.78563157015014 42.249640287365764,76.60868969582953 43.99784172605723,77.82406000618357 45.279856115113944,78.12790236203 46.445323740597814,78.12790236203 49.59208633098751,77.06445372861344 51.4568345323205,76.76061106252018 52.27266187034547,76.91253240639344 54.836690647061914,77.97598119499162 56.46834532311186,78.12790236203 57.86690647434443,77.82406000618357 59.265467626042664,76.91253240639344 61.13021582690999,74.02602307579946 61.829496402759105,71.59527216828428 61.829496402759105,69.46836046758108 61.596402877010405,67.94913516414817 59.84820143831894,64.45490855176467 59.49856115086004,62.93567593116313 59.61510791350156,60.656822843360715 60.31438848935068,58.6818127988372 61.24676259001717,57.618344299378805 62.994964027777314,56.858723277575336 65.32589928014204,56.55487471376546 67.65683453157544,56.706799006904475 78.61223021475598,60.20105162728578 82.4582733809948,60.352975387941115 84.90575539460406,60.352975387941115 86.07122302101925,60.656822843360715 86.53741007205099,60.960670210421085 87.23669064650312,62.176058789598756 87.58633093489334,63.3914459500229 87.3532374096103,67.49336714087985 88.05251798499376,72.202960427152 87.7028776970692,74.02602307579946 86.77050359686837,75.54523951071315 85.25539568299428,76.60868969582953 78.61223021475598,78.43174462916795 75.69856115058064,79.64711281063501 73.95035971142352,79.95095463423058 71.5028776973486,79.7990337338997 67.0741007188335,78.12790236203 63.92733812890947,76.45676830748562 61.9460431644693,74.78563157015014 61.47985611483455,74.63370991568081 60.78057553898543,75.24139640142675 60.547482014168054,76.15292546397541 60.78057553898543,76.45676830748562 64.04388489155099,76.91253240639344 70.33741007186472,79.34327089844737 72.66834532329813,79.7990337338997 74.29999999981374,79.64711281063501 79.77769784117118,77.67213879479095 80.82661870494485,77.67213879479095 85.25539568299428,82.83744753676001 86.42086330894381,83.29320884216577 90.5,83.59704960137606" stroke="#4DD2FF" stroke-linecap="round" stroke-linejoin="round" stroke-width="0.5"><title>2025-12-09 6.17km</title><desc>16689177449</desc></polyline></svg>