<?xml version="1.0" encoding="utf-8" ?>
<svg baseProfile="full" height="130mm" version="1.1" viewBox="0,0,100,130" width="100mm" xmlns="http://www.w3.org/2000/svg" xmlns:ev="http://www.w3.org/2001/xml-events" xmlns:xlink="http://www.w3.org/1999/xlink"><defs /><rect fill="#222222" height="130" width="100" x="0" y="0" /><text fill="#FFFFFF" style="font-size:6px; font-family:Arial; font-weight:bold;color:#0ed45e;" x="5" y="10">水上拉伸</text><text fill="#FFFFFF" style="font-size:4px; font-family:Arial" x="5" y="121">Runner</text><text fill="#FFFFFF" style="font-size:6px; font-family:Arial" x="2" y="128">蓝皮书</text><text fill="#FFFFFF" style="font-size:4px; font-family:Arial" x="25" y="121">WORKOUTS INFO</text><text fill="#FFFFFF" style="font-size:3px; font-family:Arial" x="25" y="125">Type: Run</text><text fill="#FFFFFF" style="font-size:3px; font-family:Arial" x="22" y="129">Date: 2025-08-10</text><text fill="#FFFFFF" style="font-size:3px; font-family:Arial" x="47" y="125">Distance: 3.93 km</text><text fill="#FFFFFF" style="font-size:3px; font-family:Arial" x="47" y="129">Duration: 29:45min</text><text fill="#FFFFFF" style="font-size:3px; font-family:Arial" x="75" y="125">Pace: 7:34/km</text><text fill="#FFFFFF" style="font-size:3px; font-family:Arial" x="75" y="129">Elevation: 0m</text><polyline fill="none" points="72.02010942436755,34.0113826317247 70.15267965011299,31.805821386224125 69.45239348430187,30.302025682816748 68.12963072769344,30.101519347343128 66.65124882292002,30.803291272663046 64.62819990050048,30.903544348024298 62.44953182991594,30.70303818298271 61.67143609048799,30.70303818298271 61.12676907284185,30.101519347343128 60.27086375979707,30.00126615812769 59.337148872669786,29.600253259995952 57.236290376167744,29.5 55.60228932322934,29.700506505847443 54.979812731966376,29.90101295505883 54.512955288402736,29.800759737670887 52.645525513682514,30.101519347343128 51.55619147885591,30.502531961363275 50.85590531304479,31.003797409066465 49.76657127821818,31.404809511033818 49.06628511240706,32.10658014297951 48.521618095226586,32.10658014297951 45.40923513751477,33.10910840856377 42.296852179802954,33.30961389077129 40.974089422728866,33.91112999728648 39.41789794433862,34.211887858691625 37.78389689140022,34.31214045052184 36.92799157835543,34.61289814097108 33.5043703247793,34.81340319715673 32.181607567705214,35.21441313868854 31.948178845923394,35.31466558837565 31.714750124141574,35.81592762446962 31.014463958796114,36.01643233909272 30.46979694114998,36.11668467533309 29.691701202187687,35.71567524562124 29.458272479940206,35.81592762446962 28.913605462759733,36.41744159825612 28.057700149249285,36.41744159825612 27.04617568757385,36.718198393355124 25.956841652747244,37.92122429446317 25.17874591378495,38.12172841193387 24.47845974797383,39.02399623877136 24.634078895673156,39.224500043550506 24.634078895673156,40.828528437356 24.47845974797383,41.53028971492313 24.556269322056323,41.93129584664712 24.47845974797383,45.23958775558276 24.71188846975565,47.04410409042612 24.556269322056323,48.54786418436561 24.01160230441019,49.0491168385488 23.700364008545876,49.0491168385488 22.144172529689968,48.748365288600326 20.58798105083406,49.149367326521315 17.475598093587905,49.0491168385488 16.775311928242445,49.750869956973474 16.46407363237813,51.05412390077254 17.16435979772359,55.364869830722455 17.39778851950541,56.16686617396772 17.63121724128723,56.46761456812965 17.78683638945222,56.868612228077836 18.48712255479768,57.57035758544225 19.265218293759972,57.971354619949125 19.576456590089947,58.372351427038666 20.510171477217227,58.973846211330965 24.400650173891336,60.47758093266748 24.867507617454976,60.878576318442356 25.023126765619963,61.27957147650886 25.17874591378495,62.58280417014612 25.723412930965424,63.284543856279925 26.11246080091223,64.48752455535578 26.501508670393378,65.08901413728017 27.74646185338497,68.29694993235171 28.135509722866118,70.00115990347695 28.135509722866118,70.70289222715655 28.291128871031106,71.20412917505018 29.147034184541553,73.30932047509123 30.547606515232474,75.31425874319393 31.63694055052474,76.51721897500101 31.948178845923394,77.21894483210053 34.749323507770896,81.12854757154128 35.449609673116356,82.6322351769777 35.838657543063164,84.23616509797284 36.072086264844984,84.3364105973742 36.3833245607093,85.03812869434478 36.538943708408624,87.14327880629571 36.772372430190444,88.14572903799126 36.61675328249112,89.0479330313392 36.69456285657361,89.54915697488468 37.239229874219745,90.2508698986494 38.0173256136477,91.55404919525608 38.32856390904635,91.75453810452018 39.02885007439181,93.05771462986013 39.65132666612044,93.55893573083449 40.195993683766574,94.96235292369965 41.44094686629251,96.4660111105186 42.063423458021134,96.86698608705774 42.45247132796794,97.66893535805866 42.530280901584774,98.17015319032362 42.68590004974976,98.47088371921564 43.463995788712054,99.07234439341119 44.00866280682385,99.17258778930409 44.631139398086816,99.27283117087791 45.79828300746158,98.87185755878454 46.10952130286023,98.97210098343203 47.04323618998751,98.57112720032455 47.821331929881126,98.57112720032455 48.83285639062524,98.97210098343203 49.37752340827137,98.87185755878454 50.155619147699326,99.07234439341119 50.70028616534546,98.97210098343203 52.80114466138184,97.66893535805866 53.50143082719296,97.36820448783692 54.979812731966376,97.36820448783692 55.75790847139433,97.86942253349116 55.91352761909366,97.86942253349116 56.3025754885748,98.06990965234581 56.69162335852161,98.97210098343203 57.002861654385924,102.07964008999988 58.403433985542506,104.98668043944053 58.403433985542506,105.48789308499545 58.0143861155957,106.39007495134138 58.0143861155957,107.3924978976138 58.24781483737752,108.49516149703413 58.55905313324183,108.89612965250853 58.55905313324183,109.29709758021636 59.88181588985026,109.99879090697505 61.51581694278866,110.5 61.98267438681796,110.39975820976542 62.29391268175095,109.79830717050936 62.21610310859978,109.59782337717479 62.60515097808093,109.09661364462227 63.6166754392907,107.79346667829668 64.31696160463616,107.49274011421949 66.0287722311914,106.9915288896882 68.12963072769344,106.89128660224378 69.14115518843755,106.18959019187605 70.61953709367663,106.18959019187605 71.7088711289689,105.88886294548865 72.95382431196049,105.88886294548865 74.8990636607632,105.48789308499545 75.05468280846253,105.2874080693 75.28811153024435,105.48789308499545 76.99992215679958,104.88643786782632 77.85582746984437,104.38522479584208 77.93363704392686,104.08449678239413 77.93363704392686,102.3803689564229 77.54458917444572,101.27769582165638 77.77801789576188,100.37550743238535 77.38897002628073,99.67380455607781 77.46677960036322,97.86942253349116 77.15554130449891,97.1677171701449 77.07773173088208,95.86454821936786 77.2333508785814,95.3633287527482 77.15554130449891,95.16284086660016 77.38897002628073,93.85966822085902 77.77801789576188,92.75698179885512 78.0114466175437,92.6567374933511 77.77801789576188,92.35600449168123 77.93363704392686,91.85478253779002 77.93363704392686,91.15307120571379 78.08925619162619,91.05282667302527 78.0114466175437,89.95013587351423 78.24487533979118,89.24842265131883 78.32268491340801,87.8449941178551 78.63392320927233,86.04058191023069 78.63392320927233,85.53935547993751 78.478304061573,85.03812869434478 78.63392320927233,85.13837407977553 78.55611363518983,84.7373924520798 78.4004944874905,82.73248090344714 78.478304061573,82.13100633036811 78.32268491340801,81.32903943705605 78.32268491340801,80.82780966674909 77.93363704392686,79.32411822403083 78.32268491340801,78.32165548589546 78.16706576570868,78.02091638703132 78.32268491340801,77.21894483210053 78.24487533979118,75.91573911503656 78.4004944874905,75.51475225749891 78.32268491340801,75.21401196485385 78.55611363518983,74.31179031979991 78.63392320927233,74.21154339920031 78.63392320927233,73.40956752368947 78.78954235743731,72.70783788600238 78.63392320927233,71.60511847748421 78.71173278288916,70.4021498883958 78.94516150513664,69.60016969178105 79.10078065330163,69.29942688340088 79.10078065330163,67.79571092379047 79.02297107921913,67.69546307926066 79.17859022691846,67.09397571487352 79.17859022691846,66.4924878384918 79.33420937461779,66.09149563655956 79.33420937461779,65.69050320744282 79.41201894870028,65.28951055067591 80.03449553996325,64.18677957257023 79.80106681864709,63.18429537239717 79.95668596634641,62.88354983530007 80.19011468812823,62.683052739477716 79.80106681864709,62.08156111097196 80.11230511404574,61.680566407507285 80.50135298352689,61.680566407507285 80.50135298352689,60.67807865404757 80.8904008534737,59.374842449615244 80.8904008534737,58.973846211330965 81.59068701881915,55.66561856621411 81.51287744520232,54.8636216543382 81.27944872295484,54.1618736103992 81.35725829703733,53.760874415631406 81.27944872295484,51.65562491049059 81.12382957525551,51.25462429394247 81.12382957525551,49.65061955404235 80.8904008534737,48.848615819297265 80.96821042755619,47.94636053038994 80.81259127985686,47.54535781044979 81.04602000163868,46.743351687677205 80.81259127985686,46.342348285310436 81.12382957525551,45.23958775558276 81.59068701881915,44.537830159359146 82.29097318416461,43.836071866739076 83.30249764537439,43.13431287748972 83.53592636762187,42.5328046180075 82.99125934997573,41.32978656399064 82.68002105364576,41.02903173066443 82.36878275871277,40.32726995530538 82.36878275871277,39.52525564475218 82.5244019064121,38.42248448228929 82.36878275871277,37.8209722142783 82.29097318416461,37.52021588815842 81.51287744520232,37.21945943433093 80.03449553996325,37.52021588815842 78.478304061573,39.12424814829137 78.16706576570868,39.12424814829137 76.29963599098846,40.62802508712048 73.88753919908777,42.03154734423151 72.64258601609617,42.43255319184391 71.39763283310458,43.23456420423463 68.98553604073822,43.63556936971145 68.20744030131027,43.63556936971145 67.5849637100473,43.53531809960259 67.04029669240117,43.735820625326596 65.17286691768095,43.735820625326596 63.461056291125715,44.136825505876914 62.44953182991594,44.537830159359146 59.72619674215093,44.93883458536584 56.069146767258644,45.23958775558276 51.55619147885591,46.04159558407264 48.988475538324565,46.743351687677205 47.43228405946866,46.743351687677205 42.45247132796794,47.44510709482711 41.05189899681136,48.04661117505748 40.273803257383406,48.14686180528952 39.49570751795545,48.44761361100245 38.0173256136477,49.65061955404235 36.61675328249112,50.953873682476114 36.46113413479179,51.25462429394247 35.916467116679996,51.65562491049059 30.314177793450654,53.760874415631406 29.380462906323373,54.362373123003636 28.913605462759733,55.06412096787244 28.913605462759733,55.56536900205538 28.368938444647938,57.06911097263219 27.27960440982133,58.973846211330965 26.57931824447587,59.57534048362868 25.956841652747244,59.67558947933139 25.87903207866475,60.076585319591686 25.256555486936122,60.37733205087716 25.100936339236796,60.57782980025513 25.100936339236796,61.48006897052983 25.87903207866475,63.6855376502499 26.423699096310884,64.587772854371 26.657127818092704,65.79075133608421 26.890556539874524,66.09149563655956 26.96836611442268,66.69298385409638 27.357413983903825,67.39471946103731 27.435223557520658,68.19670215912629 27.90208100154996,69.80066482623806 28.991415036842227,72.50734357594047 30.080749071668833,74.41203722608043 30.7032256629318,75.01351836544927 30.858844811096787,75.51475225749891 31.714750124141574,76.6174655687646 32.57065543765202,77.41943780588917 33.19313202938065,78.52214814693434 33.348751177079976,79.32411822403083 33.65998947247863,79.62485676864162 33.73779904656112,80.02584129519528 34.982752229552716,81.22879351122538 35.52741924719885,81.52953124570195 35.683038394898176,81.93051469215425 35.76084796898067,82.43174368096516 36.149895838461816,83.1334636679967 36.22770541300997,83.93542851472739 36.305514987092465,84.3364105973742 36.305514987092465,85.53935547993751 36.85018200427294,87.8449941178551 36.85018200427294,88.24597398319747 37.39484902191907,89.24842265131883 36.072086264844984,89.0479330313392 35.99427669076249,88.74719849490793 36.305514987092465,88.84744335454889 36.61675328249112,88.64695362106431 36.538943708408624,88.84744335454889 36.46113413479179,88.74719849490793 36.538943708408624,88.74719849490793 36.46113413479179,88.74719849490793 36.305514987092465,89.0479330313392 36.149895838461816,88.84744335454889 36.46113413479179,88.84744335454889 36.3833245607093,88.54670873278519 36.3833245607093,88.64695362106431 36.538943708408624,88.54670873278519 36.538943708408624,88.84744335454889 36.072086264844984,88.84744335454889 36.3833245607093,88.84744335454889 36.538943708408624,88.64695362106431 36.46113413479179,88.84744335454889 36.61675328249112,89.14817784825573 36.61675328249112,88.54670873278519 36.46113413479179,88.04548407893162 36.3833245607093,88.64695362106431 35.99427669076249,88.64695362106431" stroke="#4DD2FF" stroke-linecap="round" stroke-linejoin="round" stroke-width="0.5"><title>2025-08-10 3.93km</title><desc>15404194516</desc></polyline></svg>