<?xml version="1.0" encoding="utf-8" ?>
<svg baseProfile="full" height="130mm" version="1.1" viewBox="0,0,100,130" width="100mm" xmlns="http://www.w3.org/2000/svg" xmlns:ev="http://www.w3.org/2001/xml-events" xmlns:xlink="http://www.w3.org/1999/xlink"><defs /><rect fill="#FAF9F5" height="130" width="100" x="0" y="0" /><text fill="#5A5A5A" style="font-size:6px; font-family:Arial; font-weight:bold;color:#0ed45e;" x="5" y="10">Morning Run</text><text fill="#5A5A5A" style="font-size:4px; font-family:Arial" x="5" y="121">Runner</text><text fill="#5A5A5A" style="font-size:6px; font-family:Arial" x="2" y="128">蓝皮书</text><text fill="#5A5A5A" style="font-size:4px; font-family:Arial" x="25" y="121">WORKOUTS INFO</text><text fill="#5A5A5A" style="font-size:3px; font-family:Arial" x="25" y="125">Type: Run</text><text fill="#5A5A5A" style="font-size:3px; font-family:Arial" x="22" y="129">Date: 2025-08-12</text><text fill="#5A5A5A" style="font-size:3px; font-family:Arial" x="47" y="125">Distance: 3.06 km</text><text fill="#5A5A5A" style="font-size:3px; font-family:Arial" x="47" y="129">Duration: 21:55min</text><text fill="#5A5A5A" style="font-size:3px; font-family:Arial" x="75" y="125">Pace: 7:09/km</text><text fill="#5A5A5A" style="font-size:3px; font-family:Arial" x="75" y="129">Elevation: 37m</text><polyline fill="none" points="66.65584415569901,82.01993194129318 68.75974025763571,82.01993194129318 71.56493506394327,83.35547374165617 77.17532467283309,82.91029320284724 88.39610389433801,78.90366561198607 90.14935064688325,73.56148783373646 90.5,68.21930130175315 85.94155843928456,60.65118873515166 77.17532467283309,56.644533794838935 72.96753246709704,56.19934960757382 70.86363636143506,57.089717919705436 69.81168830953538,56.19934960757382 67.70779220573604,56.19934960757382 61.39610389433801,57.089717919705436 55.43506493233144,55.75416536163539 46.66883116774261,57.089717919705436 42.461038960143924,57.089717919705436 38.9545454531908,57.980085988063365 31.941558441147208,57.53490198357031 19.318181816488504,57.980085988063365 11.954545453190804,64.2126556604635 10.201298700645566,67.32893602899276 9.5,71.7807599620428 10.902597401291132,77.56812198809348 14.409090908244252,81.57475121947937 21.422077920287848,84.24583463836461 31.590909089893103,84.24583463836461 40.35714285634458,83.35547374165617 42.11038960888982,84.24583463836461 54.383116882294416,83.80065422109328 57.188311686739326,84.24583463836461 58.94155843928456,83.35547374165617 60.694805193692446,83.80065422109328 67.70779220573604,82.46511260280386 75.77272727154195,83.35547374165617 82.78571428358555,81.57475121947937 88.0454545430839,78.01330325636081 89.79870129749179,72.67112401896156 89.79870129749179,69.10966633167118 88.39610389433801,64.2126556604635 87.34415584243834,62.87710601976141 79.62987012788653,57.53490198357031 68.75974025763571,56.19934960757382 65.9545454531908,57.089717919705436 55.43506493233144,56.19934960757382 52.27922077849507,57.980085988063365 39.30519480444491,57.089717919705436 37.90259739942849,57.53490198357031 28.78571428358555,57.53490198357031 27.383116882294416,58.870453813811764 23.175324672833085,59.31563763599843 20.72077921964228,58.425269931787625 18.266233764588833,59.31563763599843 15.110389608889818,62.87710601976141 13.707792205736041,63.32228929316625 12.305194804444909,66.88375330204144 11.253246752545238,67.77411869657226 10.551948050037026,70.89039566158317 10.551948050037026,75.7873963045422 12.65584415383637,79.34884669887833 15.461038960143924,82.01993194129318 18.61688311584294,83.80065422109328 22.82467532157898,84.24583463836461 36.5,83.35547374165617 38.9545454531908,82.46511260280386 53.331168830394745,83.80065422109328 74.01948051713407,82.01993194129318 77.8766233753413,82.46511260280386 81.73376623168588,81.57475121947937 85.94155843928456,78.90366561198607 88.0454545430839,75.34221473149955 89.44805194623768,70.00003111828119 88.74675324372947,66.43857051362284 86.29220779053867,62.43192268372513 81.38311688229442,59.31563763599843 76.12337662093341,56.644533794838935 69.81168830953538,57.089717919705436 68.05844155699015,56.19934960757382 64.20129870064557,57.089717919705436 58.240259738639,56.644533794838935 42.811688309535384,58.425269931787625 36.5,57.980085988063365 34.74675324559212,57.089717919705436 30.53896103799343,57.089717919705436 18.9675324652344,59.31563763599843 18.266233764588833,60.65118873515166 16.863636361435056,60.65118873515166 14.058441556990147,62.43192268372513 11.603896103799343,65.99338766443543 10.902597401291132,69.5548487547785 10.902597401291132,73.56148783373646 11.603896103799343,77.12294065812603 16.16233766078949,81.57475121947937 18.9675324652344,82.91029320284724 30.188311686739326,84.24583463836461 42.11038960888982,83.80065422109328 60.34415584243834,83.80065422109328 62.09740259498358,82.91029320284724 65.6038961019367,83.35547374165617 78.92857142537832,83.35547374165617 82.43506493419409,81.57475121947937 86.64285714179277,78.01330325636081 88.39610389433801,74.89703309861943 89.44805194623768,71.7807599620428 89.09740259498358,66.43857051362284 87.34415584243834,62.43192268372513 84.88961038924754,60.206005095504224 83.13636363483965,59.76082139648497 80.33116883039474,57.980085988063365 69.46103896014392,57.089717919705436 64.90259739942849,57.980085988063365 60.694805193692446,56.644533794838935 51.2272727265954,57.980085988063365 45.9675324652344,57.53490198357031 43.51298701018095,57.980085988063365 35.798701295629144,56.19934960757382 28.78571428358555,57.53490198357031 24.577922077849507,56.644533794838935 22.123376620933414,57.089717919705436 17.915584415197372,58.425269931787625 15.110389608889818,60.65118873515166 12.305194804444909,64.2126556604635 10.551948050037026,71.33557784184813 10.902597401291132,74.45185140310787 12.65584415383637,79.79402772453614 14.409090908244252,81.57475121947937 19.318181816488504,83.35547374165617 25.629870127886534,84.24583463836461 42.461038960143924,82.91029320284724 47.370129868388176,83.80065422109328 67.00649350509048,82.91029320284724 68.05844155699015,82.01993194129318 77.52597402594984,82.46511260280386 82.78571428358555,80.68438959401101 86.64285714179277,77.56812198809348 87.69480519369245,74.45185140310787 88.39610389433801,66.88375330204144 86.64285714179277,62.43192268372513 81.38311688229442,57.980085988063365 74.37012986838818,56.644533794838935 67.00649350509048,56.644533794838935 63.5,57.53490198357031 60.34415584243834,56.644533794838935 52.98051947914064,57.53490198357031 48.07142856903374,56.644533794838935 42.11038960888982,57.53490198357031 40.70779220573604,57.089717919705436 38.9545454531908,57.980085988063365 35.09740259498358,58.425269931787625 27.733766231685877,57.089717919705436 21.071428569033742,57.53490198357031 18.9675324652344,58.870453813811764 16.863636361435056,61.541555831674486 15.461038960143924,61.98673928808421 12.305194804444909,65.5482047542464 10.902597401291132,71.33557784184813 11.253246752545238,75.7873963045422 12.65584415383637,78.01330325636081 13.006493505090475,79.79402772453614 14.058441556990147,81.12957043619826 21.071428569033742,83.35547374165617 26.68181818164885,83.80065422109328 51.2272727265954,82.91029320284724 54.73376623168588,81.57475121947937 60.34415584243834,83.35547374165617 62.44805194623768,83.35547374165617 63.5,82.46511260280386 79.27922077849507,81.57475121947937 85.5909090898931,78.45848446385935 87.69480519369245,75.7873963045422 89.44805194623768,70.44521342078224 89.09740259498358,66.88375330204144 87.34415584243834,64.2126556604635 84.88961038924754,61.09637231333181 78.2272727265954,56.644533794838935 72.61688311584294,57.089717919705436 69.46103896014392,55.75416536163539 64.55194805003703,56.644533794838935 59.993506491184235,56.19934960757382 51.2272727265954,57.980085988063365 48.77272727154195,56.644533794838935 43.863636361435056,57.089717919705436 41.40909090824425,57.089717919705436 40.35714285634458,58.870453813811764 28.084415582939982,57.53490198357031 25.279220778495073,57.53490198357031 24.2272727265954,57.980085988063365 20.01948051713407,57.53490198357031 15.110389608889818,60.65118873515166 10.902597401291132,66.43857051362284 9.850649347528815,72.22594202053733 10.201298700645566,74.89703309861943 10.551948050037026,76.23257781751454 15.110389608889818,82.01993194129318 24.577922077849507,83.35547374165617 30.53896103799343,82.91029320284724 34.74675324559212,82.01993194129318 40.006493505090475,81.57475121947937 44.21428571268916,82.46511260280386 47.72077922150493,82.01993194129318 51.2272727265954,82.91029320284724 54.383116882294416,81.57475121947937 62.44805194623768,81.12957043619826 65.25324675254524,81.12957043619826 70.16233766078949,82.46511260280386 79.98051947914064,82.46511260280386 85.240259738639,79.34884669887833 88.39610389433801,75.34221473149955 89.44805194623768,71.7807599620428 88.39610389433801,65.5482047542464 84.18831168673933,60.65118873515166" stroke="#4DD2FF" stroke-linecap="round" stroke-linejoin="round" stroke-width="0.5"><title>2025-08-12 3.06km</title><desc>15426387029</desc></polyline></svg>