<?xml version="1.0" encoding="utf-8" ?>
<svg baseProfile="full" height="130mm" version="1.1" viewBox="0,0,100,130" width="100mm" xmlns="http://www.w3.org/2000/svg" xmlns:ev="http://www.w3.org/2001/xml-events" xmlns:xlink="http://www.w3.org/1999/xlink"><defs /><rect fill="#FAF9F5" height="130" width="100" x="0" y="0" /><text fill="#5A5A5A" style="font-size:6px; font-family:Arial; font-weight:bold;color:#0ed45e;" x="5" y="10">赶大集</text><text fill="#5A5A5A" style="font-size:4px; font-family:Arial" x="5" y="121">Runner</text><text fill="#5A5A5A" style="font-size:6px; font-family:Arial" x="2" y="128">蓝皮书</text><text fill="#5A5A5A" style="font-size:4px; font-family:Arial" x="25" y="121">WORKOUTS INFO</text><text fill="#5A5A5A" style="font-size:3px; font-family:Arial" x="25" y="125">Type: Run</text><text fill="#5A5A5A" style="font-size:3px; font-family:Arial" x="22" y="129">Date: 2025-10-12</text><text fill="#5A5A5A" style="font-size:3px; font-family:Arial" x="47" y="125">Distance: 5.03 km</text><text fill="#5A5A5A" style="font-size:3px; font-family:Arial" x="47" y="129">Duration: 32:36min</text><text fill="#5A5A5A" style="font-size:3px; font-family:Arial" x="75" y="125">Pace: 6:28/km</text><text fill="#5A5A5A" style="font-size:3px; font-family:Arial" x="75" y="129">Elevation: 2m</text><polyline fill="none" points="9.546672428725287,35.35958080935234 9.5,35.99032755092776 9.5,38.66347152067465 9.780034572118893,40.10515317891259 10.24675885902252,41.66696393217717 10.713483146042563,43.49907344674284 11.670267934328876,45.871781954323524 11.926966292085126,46.77280355767289 12.323681936017238,47.403516405727714 12.463699222076684,48.2144301727094 12.697061365586706,48.9652734928095 13.093777009635232,49.686080583007424 13.210458081332035,49.95638261116983 13.303802938666195,50.46695217030356 13.490492653334513,50.9474871049315 13.583837510785088,51.578187556704506 13.793863439932466,52.23891935472784 13.910544511629269,52.95971533576085 13.933880725991912,53.320112408997375 13.9805531547172,53.6504758556257 14.190579083864577,54.16103653528262 14.563958513434045,54.73166172490164 14.820656871190295,55.3323181632004 14.890665514278226,55.66267848016287 15.170700086397119,56.17323432331614 15.33405358681921,56.62372375385894 15.940795159898698,57.4946672773367 16.384183232439682,58.425671922348556 16.500864304136485,58.906188852372 16.967588591156527,59.687026545230765 17.20095073466655,60.01738008960092 17.92437337944284,61.96945872831566 18.157735522952862,62.47999941292801 18.36776145210024,62.84038033382967 18.577787381131202,63.50107710096927 18.997839239425957,64.46208691208449 19.137856525485404,65.1227786353993 19.301210025907494,65.45312372634362 19.674589455476962,66.5342495233781 20.584701815037988,68.06583498380496 21.121434745029546,69.50731709471438 21.26145203120541,70.37820779679168 21.378133102785796,70.64848349565 21.58815903204959,70.97881999393576 21.751512532355264,71.3391864970763 21.798184961196966,71.57943049297319 21.84485738980584,72.05991766955412 21.89152981841471,72.33019122884434 22.00821089022793,72.66052511210728 22.21823681925889,73.02088876251946 22.42826274840627,73.68155386745639 22.638288677553646,74.22209651584853 22.824978392454796,75.18305782822426 23.221694036270492,76.17404462897684 23.315038893721066,76.92478912777733 23.735090751899406,78.12597480762633 23.828435609233566,78.51635869126767 24.015125324134715,78.93677130216383 24.085133967222646,79.38721246203932 24.085133967222646,79.98779918966466 24.20181503891945,80.70850102163968 24.318496110616252,81.09888015971228 24.34183232486248,81.66943299444392 24.668539325823076,82.90062073277659 24.668539325823076,83.50119752823957 24.59853068285156,84.04171519269585 24.668539325823076,84.31197350910224 24.785220397636294,86.23380051195272 24.69187554018572,86.71425454627024 24.878565254970454,87.10462264924718 25.0185825410299,87.19470749425818 24.92523768369574,88.39583511075762 24.995246326667257,89.05645240542071 24.94857389794197,90.04737449595996 24.62186689709779,91.78898394049611 24.575194468488917,92.50964574166574 24.668539325823076,94.43139859460643 24.715211754548363,94.58153480420879 24.831892826245166,94.6716164790414 25.438634399324656,94.97188845266646 25.531979256658815,95.06196996202925 25.718668971559964,95.4222956175654 25.998703543678857,95.54240403350559 26.628781331004575,95.54240403350559 27.398876404506154,95.45232272788417 27.748919619596563,95.48234983391012 28.145635263528675,95.27216000198678 28.5423509075772,95.3922685028665 28.96240276575554,95.4222956175654 29.685825410531834,95.60245821607532 30.17588591191452,95.63248530104465 30.92264477093704,95.72256653029763 31.739412273047492,95.93275591672864 32.71953327569645,95.99280998887843 33.4196197061101,95.9027288742218 33.88634399313014,96.05286404413346 34.84312878130004,96.41318801921443 35.61322385480162,96.59334977764229 36.733362143393606,96.59334977764229 36.896715643815696,96.65340366310556 37.57346586009953,96.59334977764229 38.50691443379037,96.77351138318772 39.463699222076684,96.62337672249123 40.18712186696939,96.71345753163041 40.77052722545341,96.6834305995144 41.26058772683609,96.74348445955548 41.63396715640556,96.71345753163041 42.1707000862807,96.80353830267268 42.52074330160394,96.77351138318772 43.01080380298663,96.65340366310556 43.5008643042529,96.59334977764229 44.62100259284489,96.23302610806422 45.81114952464122,95.96278295494267 47.117977528017946,95.4222956175654 49.311581676709466,95.06196996202925 49.918323249788955,95.09199712332338 51.08513396710623,95.00191562673717 51.52852203976363,94.88180690514855 51.90190146921668,94.85177971418307 52.368625756236725,94.91183409192308 53.348746758769266,95.27216000198678 54.23552290396765,95.06196996202925 55.0989628349198,95.15205143316416 55.30898876406718,95.06196996202925 55.42566983576398,95.18207858176902 55.68236819352023,95.2421328661876 56.56914433883503,95.27216000198678 57.26923076924868,95.45232272788417 58.249351771897636,95.63248530104465 58.85609334486071,95.87270182742213 59.9762316334527,96.1129180824355 60.74632670695428,96.38316104460682 61.79645635257475,96.59334977764229 63.313310285215266,97.01372661977075 63.92005185817834,97.07378038640309 64.50345721689519,97.31399528347538 65.76361279166304,97.61426352293347 66.55704407952726,98.00461159981205 67.51382886769716,98.12471855606418 68.35393258428667,98.30487886312767 69.52074330160394,98.72525231914187 70.52420051849913,98.90541211712116 71.85436473635491,99.35581094375812 72.43777009495534,99.41586404848204 72.99783923942596,99.65607629767328 75.33146067417692,100.16652642567351 75.40146931714844,100.19655286555644 76.03154710459057,100.91718615086575 76.47493517724797,101.03729146074329 77.22169403627049,101.00726513963309 77.82843560934998,101.12737039869535 78.31849611061625,101.48768576838484 78.6918755400693,101.69786945184751 79.9753673291998,101.96810531092342 80.67545375961345,102.05818385418388 81.91227312013507,102.44852376711788 83.10242005181499,102.65870650025317 83.94252376828808,102.95896718678705 84.92264477093704,103.22920144192176 85.38936905784067,103.31927945057396 85.90276577346958,103.28925345194875 86.85955056163948,103.40935742112924 87.32627484877594,103.6495651556761 87.79299913567957,103.949824442112 89.0998271391727,104.43023841784452 89.40319792553782,104.52031591733976 90.24330164212734,104.64041919064766 90.45332757127471,104.64041919064766 90.5,104.58036756247748 90.35998271382414,104.37018673027342 90.14995678467676,104.19003156579856 89.6132238546852,104.12997981025546 88.86646499566268,103.88977261880063" stroke="#4DD2FF" stroke-linecap="round" stroke-linejoin="round" stroke-width="0.5"><title>2025-10-12 5.03km</title><desc>16111621041</desc></polyline></svg>