<?xml version="1.0" encoding="utf-8" ?>
<svg baseProfile="full" height="130mm" version="1.1" viewBox="0,0,100,130" width="100mm" xmlns="http://www.w3.org/2000/svg" xmlns:ev="http://www.w3.org/2001/xml-events" xmlns:xlink="http://www.w3.org/1999/xlink"><defs /><rect fill="#FAF9F5" height="130" width="100" x="0" y="0" /><text fill="#5A5A5A" style="font-size:6px; font-family:Arial; font-weight:bold;color:#0ed45e;" x="5" y="10">Morning Run</text><text fill="#5A5A5A" style="font-size:4px; font-family:Arial" x="5" y="121">Runner</text><text fill="#5A5A5A" style="font-size:6px; font-family:Arial" x="2" y="128">蓝皮书</text><text fill="#5A5A5A" style="font-size:4px; font-family:Arial" x="25" y="121">WORKOUTS INFO</text><text fill="#5A5A5A" style="font-size:3px; font-family:Arial" x="25" y="125">Type: Run</text><text fill="#5A5A5A" style="font-size:3px; font-family:Arial" x="22" y="129">Date: 2025-09-04</text><text fill="#5A5A5A" style="font-size:3px; font-family:Arial" x="47" y="125">Distance: 5.00 km</text><text fill="#5A5A5A" style="font-size:3px; font-family:Arial" x="47" y="129">Duration: 29:53min</text><text fill="#5A5A5A" style="font-size:3px; font-family:Arial" x="75" y="125">Pace: 5:58/km</text><text fill="#5A5A5A" style="font-size:3px; font-family:Arial" x="75" y="129">Elevation: 61m</text><polyline fill="none" points="9.5,70.44910174747929 10.207423580810428,75.3888716287911 11.97598253376782,78.98142688372172 18.34279476106167,83.47211543377489 25.4170305673033,84.37025240832008 51.59170305728912,82.57397821499035 73.16812227107584,82.12490951293148 82.01091703027487,81.22677192487754 86.96288209594786,78.08328843745403 88.02401746809483,75.837941250531 89.43886462971568,72.2453825622797 89.79257641918957,67.30560795916244 88.37772925943136,61.91675447812304 86.25545851513743,60.12046802206896 85.548034934327,58.773252537008375 82.71834061294794,56.97696436429396 79.1812227088958,56.07881990983151 75.64410480484366,55.629747591679916 70.33842794969678,56.52789216837846 64.67903930135071,56.07881990983151 63.971615720540285,56.52789216837846 59.72707423567772,56.52789216837846 50.53056768514216,57.42603649850935 45.578602619469166,56.97696436429396 37.79694323241711,58.32418058603071 32.49126637727022,57.42603649850935 27.89301310107112,57.42603649850935 26.831877728924155,56.97696436429396 17.635371178388596,58.32418058603071 11.97598253376782,63.26396867563017 10.207423580810428,68.20374934817664 10.207423580810428,73.14352260204032 11.97598253376782,78.08328843745403 14.098253274336457,80.77770304027945 17.989082969725132,82.57397821499035 21.172489082440734,83.47211543377489 27.185589522123337,83.47211543377489 30.015283843502402,82.57397821499035 36.02838428132236,83.47211543377489 38.858078602701426,83.0230468553491 40.62663755379617,83.47211543377489 51.23799126781523,83.92118395236321 62.20305676944554,81.67584074987099 79.53493450023234,81.67584074987099 83.42576419375837,81.22677192487754 88.37772925943136,77.18514974671416 89.79257641918957,74.93980194651522 90.14628821052611,66.4074663259089 89.43886462971568,63.713039953261614 87.3165938872844,60.12046802206896 81.30349345132709,57.87510857312009 58.665938863530755,56.52789216837846 48.054585153236985,57.87510857312009 46.28602620214224,58.773252537008375 37.79694323241711,58.32418058603071 34.25982532836497,58.773252537008375 27.539301309734583,57.87510857312009 19.757641922682524,59.222324427450076 13.39082969352603,61.91675447812304 10.914847161620855,67.7546786852181 10.207423580810428,72.69445261312649 13.037117904052138,78.98142688372172 17.989082969725132,83.0230468553491 21.52620087377727,83.47211543377489 48.76200873404741,83.0230468553491 53.36026200838387,83.92118395236321 66.80131004564464,82.12490951293148 69.98471615836024,83.0230468553491 78.12008733674884,82.57397821499035 84.13318777270615,80.77770304027945 88.37772925943136,77.6342191232834 90.14628821052611,74.0416623968631 90.5,68.20374934817664 89.08515283837914,61.91675447812304 86.60917030647397,59.671396255725995 80.59606986865401,56.52789216837846 76.35152838565409,56.07881990983151 75.29039301350713,56.52789216837846 65.38646288216114,55.629747591679916 55.83624454215169,57.42603649850935 46.28602620214224,56.97696436429396 38.858078602701426,58.32418058603071 32.49126637727022,58.32418058603071 30.368995632976294,56.97696436429396 28.24672489054501,57.87510857312009 26.831877728924155,57.42603649850935 19.757641922682524,57.87510857312009 13.744541484862566,61.91675447812304 11.622270742431283,66.4074663259089 10.561135372146964,71.34724227711558 10.914847161620855,75.3888716287911 12.32969432324171,78.08328843745403 14.451965065672994,80.77770304027945 20.465065501630306,83.0230468553491 34.96724890731275,83.47211543377489 50.884279476478696,82.12490951293148 55.83624454215169,83.0230468553491 67.15502183511853,82.12490951293148 71.75327510945499,81.22677192487754 80.59606986865401,81.67584074987099 86.25545851513743,78.98142688372172 89.43886462971568,73.59259253088385 89.79257641918957,69.10189049155451 89.43886462971568,66.4074663259089 86.60917030647397,60.569539728341624 82.3646288216114,56.97696436429396 73.16812227107584,56.52789216837846 69.63100436516106,57.42603649850935 66.09388646297157,56.07881990983151 63.2641921415925,56.07881990983151 56.54366812109947,57.87510857312009 54.421397380530834,56.97696436429396 46.993449782952666,57.42603649850935 45.9323144108057,56.52789216837846 43.81004366837442,57.87510857312009 38.150655021891,58.32418058603071 28.24672489054501,57.42603649850935 20.818777292966843,58.773252537008375 15.159388648346066,62.36582593852654 13.037117904052138,64.61118232319131 11.268558952957392,68.65281995129772 10.914847161620855,72.69445261312649 11.97598253376782,77.6342191232834 13.037117904052138,78.98142688372172 15.866812227293849,81.67584074987099 20.818777292966843,83.47211543377489 36.382096068933606,83.92118395236321 42.395196506753564,83.0230468553491 55.12882096134126,83.92118395236321 72.10698690079153,81.22677192487754 73.87554585188627,81.67584074987099 81.65720524266362,81.22677192487754 85.548034934327,79.87956508458592 88.02401746809483,77.18514974671416 90.5,71.34724227711558 90.5,67.30560795916244 89.08515283837914,63.713039953261614 86.60917030647397,60.569539728341624 82.01091703027487,57.87510857312009 78.82751091755927,57.42603649850935 66.09388646297157,56.52789216837846 59.37336244620383,57.87510857312009 54.77510917186737,56.97696436429396 39.21179039403796,57.87510857312009 35.32096069864929,59.222324427450076 30.368995632976294,57.42603649850935 24.709606986492872,56.97696436429396 18.34279476106167,59.671396255725995 15.513100435957313,61.91675447812304 13.037117904052138,65.06025341525674 11.268558952957392,69.10189049155451 11.268558952957392,74.0416623968631 13.744541484862566,79.43049601488747 18.34279476106167,83.0230468553491 21.172489082440734,83.47211543377489 38.858078602701426,83.0230468553491 51.945414846763015,83.47211543377489 63.617903931066394,82.12490951293148 77.7663755454123,82.57397821499035 82.01091703027487,81.67584074987099 85.90174672566354,79.43049601488747 88.37772925943136,76.28701081150211 90.14628821052611,69.55096097080968 88.37772925943136,63.26396867563017 85.90174672566354,60.12046802206896 81.65720524266362,56.97696436429396 78.12008733674884,56.07881990983151 75.29039301350713,56.97696436429396 67.50873362645507,57.42603649850935 64.32532751187682,56.97696436429396 58.31222707591951,57.42603649850935 55.48253275081515,56.52789216837846 51.23799126781523,56.97696436429396 46.28602620214224,56.07881990983151 40.62663755379617,57.42603649850935 35.67467248812318,57.42603649850935 33.552401745691895,57.87510857312009 27.539301309734583,57.42603649850935 25.06331877782941,57.87510857312009 22.58733624406159,57.42603649850935 19.403930131345987,58.773252537008375 13.39082969352603,64.16211116826162 11.622270742431283,68.20374934817664 10.914847161620855,73.59259253088385 11.97598253376782,77.18514974671416 14.451965065672994,80.77770304027945 16.574235808104277,81.22677192487754 19.403930131345987,83.0230468553491 22.941048035398126,83.92118395236321 46.993449782952666,82.57397821499035 48.40829694457352,83.0230468553491 52.65283842757344,83.0230468553491 56.18995633162558,83.47211543377489 58.665938863530755,82.57397821499035 66.80131004564464,82.57397821499035 68.56986899673939,81.22677192487754 77.7663755454123,81.22677192487754 84.48689956404269,78.98142688372172 86.25545851513743,77.18514974671416 88.37772925943136,73.14352260204032 89.08515283837914,67.30560795916244 88.02401746809483,63.26396867563017 84.13318777270615,58.773252537008375 79.53493450023234,56.52789216837846 71.04585152864456,57.42603649850935 69.27729257568717,56.97696436429396 67.86244541406631,58.32418058603071 65.03275109268725,56.97696436429396 62.55676855891943,56.97696436429396 60.78820960596204,57.87510857312009 58.31222707591951,56.97696436429396 56.18995633162558,57.87510857312009 52.65283842757344,57.42603649850935 44.87117904052138,57.87510857312009 43.10262008756399,58.32418058603071 35.67467248812318,58.32418058603071 30.368995632976294,56.97696436429396 25.4170305673033,56.97696436429396 20.11135371029377,58.773252537008375 14.098253274336457,63.26396867563017 12.32969432324171,65.50932444655336 11.622270742431283,67.7546786852181 11.622270742431283,74.0416623968631 13.744541484862566,79.87956508458592 18.69650655053556,83.0230468553491 32.49126637727022,83.92118395236321 51.59170305728912,82.12490951293148 55.12882096134126,83.0230468553491 68.92358078621328,82.12490951293148 77.05895196460187,82.57397821499035 84.48689956404269,80.77770304027945 86.60917030647397,78.98142688372172 89.79257641918957,73.59259253088385 89.79257641918957,69.55096097080968 89.43886462971568,65.50932444655336 86.96288209594786,61.46768295671791 81.65720524266362,57.42603649850935 75.99781659431756,57.42603649850935 73.16812227107584,56.97696436429396 69.63100436516106,57.87510857312009 67.15502183511853,57.42603649850935 50.53056768514216,57.42603649850935 45.578602619469166,56.97696436429396 39.91921397484839,58.32418058603071 39.21179039403796,59.222324427450076 34.96724890731275,57.87510857312009 22.58733624406159,58.32418058603071 18.69650655053556,59.222324427450076 15.513100435957313,61.46768295671791 11.97598253376782,66.4074663259089 10.561135372146964,70.00003138999455 11.268558952957392,75.3888716287911 13.744541484862566,79.43049601488747 17.28165938705206,82.12490951293148 21.52620087377727,83.47211543377489 38.150655021891,83.0230468553491 40.62663755379617,83.47211543377489 42.748908296227455,83.0230468553491 61.49563318863511,83.0230468553491 78.82751091755927,82.12490951293148 83.77947598136961,80.77770304027945 87.3165938872844,78.08328843745403 89.08515283837914,75.837941250531 90.5,71.79631245066412 90.5,69.10189049155451 89.43886462971568,64.16211116826162 86.60917030647397,60.12046802206896 83.07205240242183,57.87510857312009 78.47379912808537,56.52789216837846 63.617903931066394,56.07881990983151 59.72707423567772,57.42603649850935 49.46943231485784,56.97696436429396 42.04148471727967,57.42603649850935 40.62663755379617,56.97696436429396 28.24672489054501,59.222324427450076 21.879912665113807,58.32418058603071 18.34279476106167,60.12046802206896 13.39082969352603,64.16211116826162 11.622270742431283,67.30560795916244 11.268558952957392,71.34724227711558 11.622270742431283,75.837941250531 13.744541484862566,80.32863409258425 16.927947599440813,82.12490951293148 22.58733624406159,83.92118395236321 36.382096068933606,84.37025240832008 46.28602620214224,82.57397821499035 50.884279476478696,83.47211543377489 58.665938863530755,82.57397821499035 61.49563318863511,83.47211543377489 66.09388646297157,82.57397821499035 81.65720524266362,82.12490951293148 87.67030567675829,78.53235769062303 88.73144104890525,76.28701081150211 90.14628821052611,72.2453825622797 90.5,68.65281995129772 89.79257641918957,65.06025341525674 85.548034934327,59.222324427450076 80.59606986865401,56.52789216837846 78.82751091755927,56.52789216837846 77.7663755454123,56.97696436429396 75.29039301350713,56.07881990983151 70.33842794969678,56.07881990983151 61.49563318863511,57.42603649850935 57.251091703772545,56.52789216837846 47.70087336190045,56.97696436429396 42.395196506753564,58.32418058603071 36.382096068933606,57.87510857312009 21.52620087377727,58.773252537008375 18.69650655053556,60.12046802206896 13.39082969352603,64.16211116826162 11.97598253376782,65.95839541684836 10.561135372146964,69.55096097080968 10.561135372146964,73.59259253088385 13.037117904052138,79.43049601488747 14.80567685700953,81.67584074987099 19.05021834000945,83.92118395236321 26.124454148113728,83.47211543377489 32.137554585933685,84.37025240832008 33.552401745691895,83.47211543377489 39.56550218351185,83.92118395236321 46.63973799161613,83.47211543377489 56.54366812109947,83.92118395236321 61.141921397298574,82.57397821499035 63.617903931066394,83.47211543377489 67.86244541406631,82.12490951293148 70.69213973917067,83.0230468553491 74.22925764322281,82.12490951293148 80.59606986865401,82.12490951293148 84.48689956404269,81.67584074987099 86.25545851513743,80.32863409258425 88.73144104890525,75.837941250531 89.43886462971568,71.79631245066412" stroke="#4DD2FF" stroke-linecap="round" stroke-linejoin="round" stroke-width="0.5"><title>2025-09-04 5.00km</title><desc>15688544238</desc></polyline></svg>