<?xml version="1.0" encoding="utf-8" ?>
<svg baseProfile="full" height="130mm" version="1.1" viewBox="0,0,100,130" width="100mm" xmlns="http://www.w3.org/2000/svg" xmlns:ev="http://www.w3.org/2001/xml-events" xmlns:xlink="http://www.w3.org/1999/xlink"><defs /><rect fill="#FAF9F5" height="130" width="100" x="0" y="0" /><text fill="#5A5A5A" style="font-size:6px; font-family:Arial; font-weight:bold;color:#0ed45e;" x="5" y="10">雪后逛天坛</text><text fill="#5A5A5A" style="font-size:4px; font-family:Arial" x="5" y="121">Runner</text><text fill="#5A5A5A" style="font-size:6px; font-family:Arial" x="2" y="128">蓝皮书</text><text fill="#5A5A5A" style="font-size:4px; font-family:Arial" x="25" y="121">WORKOUTS INFO</text><text fill="#5A5A5A" style="font-size:3px; font-family:Arial" x="25" y="125">Type: Run</text><text fill="#5A5A5A" style="font-size:3px; font-family:Arial" x="22" y="129">Date: 2025-12-23</text><text fill="#5A5A5A" style="font-size:3px; font-family:Arial" x="47" y="125">Distance: 7.56 km</text><text fill="#5A5A5A" style="font-size:3px; font-family:Arial" x="47" y="129">Duration: 51:10min</text><text fill="#5A5A5A" style="font-size:3px; font-family:Arial" x="75" y="125">Pace: 6:46/km</text><text fill="#5A5A5A" style="font-size:3px; font-family:Arial" x="75" y="129">Elevation: 9m</text><polyline fill="none" points="65.79695024085231,51.27785196912009 67.29213483142667,51.447288992407266 68.91733547346666,51.955599766399246 71.06260032090358,52.379191738087684 74.11797752813436,53.48052941908827 74.31300160521641,53.81940213160124 74.31300160521641,54.8360190828098 74.57303370791487,55.25960895419121 74.70304975938052,55.68319851625711 74.8330658103805,57.208118383190595 74.8330658103805,58.39416440075729 74.96308186161332,59.156621276109945 74.89807383646257,59.83435988065321 74.37800963083282,60.512097694328986 73.5329052968882,60.76624917052686 72.16773675754666,60.59681486559566 69.76243980741128,60.08851165341912 67.87720706244,59.91907715058187 65.99197431793436,59.91907715058187 64.95184590667486,59.58020799647784 62.741573033388704,58.39416440075729 58.971107544377446,59.326056001358666 58.38603531313129,56.27622338454239 58.191011235816404,51.786162891134154 58.06099518458359,51.53200748574454 57.80096308188513,51.27785196912009 57.410914927721024,51.27785196912009 53.900481540942565,51.786162891134154 50.84510433371179,51.70144443487516 48.17977528087795,51.87088133505313 40.37881219899282,51.955599766399246 36.478330658050254,52.12503659212962 33.68298555375077,52.5486284403014 31.53772070631385,52.97221997985616 30.36757624382153,53.395811209979 29.06741573032923,54.24299274414079 27.052166934125125,54.66658304777229 25.491974317701533,55.17489100457169 22.696629213169217,56.86924764740979 20.551364365965128,58.73303424671758 18.86115569807589,60.08851165341912 18.34109149267897,60.59681486559566 18.146067415829748,60.93568342656363 18.146067415829748,61.02040053578094 18.991171749541536,60.93568342656363 19.44622792932205,61.44398589717457 19.70626003202051,62.20643876923714 19.186195826390758,64.49379138083896 19.056179775157943,64.74794111488154 18.731139646843076,64.8326576683321 17.951043338747695,64.66322454914916 17.30096308188513,64.2396415352705 17.04093097918667,63.646624796965625 17.30096308188513,62.968890640477184 18.731139646843076,61.02040053578094 17.365971107501537,62.63002326589776 16.390850722324103,64.07020824338542 14.505617977818474,68.39074175240239 13.79052969510667,70.76278570038266 13.27046548947692,75.42212954122806 13.27046548947692,76.26927895197878 13.53049759240821,76.0151342584868 13.400481540942565,77.03171236481285 13.335473515326157,79.2342921589734 13.075441412394866,81.18272116937442 12.945425361162052,85.50312740163645 13.140449438244104,88.46809347876115 13.335473515326157,88.72223272395786 13.79052969510667,89.06108487799065 14.310593900736421,89.73878859321121 15.025682182982564,89.99292728252476 19.44622792932205,89.65407567215152 21.00642054551281,89.65407567215152 21.201444622827694,89.4846497925464 21.33146067429334,89.06108487799065 21.201444622827694,85.6725544424844 21.201444622827694,80.58972172765061 21.136436597211286,77.87885942769935 20.74638844304718,73.38896591583034 21.136436597211286,72.7959585179342 22.046548956772313,72.54181230464019 25.752006420632824,72.54181230464019 26.792134831193835,72.37238143448485 27.18218298535794,72.37238143448485 27.24719101120718,72.54181230464019 27.18218298535794,73.64311175810872 27.312199036823586,73.98197270836681 27.052166934125125,75.50684453808935 27.24719101120718,79.14957770623732 27.052166934125125,80.75915020133834 27.312199036823586,82.0298621787806 27.50722311390564,87.02796898863744 27.637239165371284,87.62096185807604 27.832263242220506,87.79038828075863 28.54735152493231,87.87510147382272 33.09791332250461,87.53624862787547 33.87800963083282,87.45153538568411 34.073033707914874,87.28210886387387 34.20304975891486,86.60440228250809 34.008025682065636,84.99484598339768 33.813001605216414,81.6910059232614 33.68298555375077,80.16615032724803 33.61797752813436,75.676274494268 33.487961476668715,73.55839648976689 33.55296950251795,72.9653892647475 33.813001605216414,72.54181230464019 34.13804173376411,72.2876659805188 34.91813804162666,72.03351954527898 41.8739967898,71.69465745834168 42.19903691811487,71.77937299880432 42.39406099496409,72.11823503603227 42.4590690205805,72.54181230464019 42.39406099496409,75.42212954122806 42.589085072046146,77.03171236481285 42.654093098128214,84.6559914573445 43.04414125159383,87.02796898863744 43.23916532890871,87.28210886387387 44.01926163700409,87.36682213103632 49.349919743137434,87.02796898863744 50.19502407708205,86.85854234331055 50.32504012808204,86.60440228250809 50.390048154164106,85.84198143379763 50.19502407708205,82.3687182366848 50.19502407708205,79.57314984762343 50.0,77.37057133833878 49.93499197438359,73.81254225788871 50.06500802584924,72.20295051438734 49.869983948767185,70.59335431118961 50.130016051232815,69.23790141707286 50.06500802584924,73.30425061035203 49.93499197438359,74.06668791506672 50.06500802584924,78.38714707264444 50.19502407708205,78.98014876281377 50.455056180013344,79.31900659977691 50.84510433371179,79.48843544407282 53.70545746386051,79.40372102800757 55.98073836276308,79.14957770623732 58.451043338747695,79.14957770623732 58.90609951829538,79.31900659977691 59.231139646610245,80.25086463225307 59.29614767245948,84.40185043291422 59.491171749541536,86.01140837540152 59.751203852239996,87.36682213103632 59.94622792908922,87.70567507558735 60.53130016033538,87.79038828075863 63.32664526463486,87.45153538568411 67.35714285681024,87.36682213103632 68.13723916513845,87.28210886387387 68.65730337053537,86.77382900199154 68.78731942200102,86.01140837540152 68.3322632422205,79.31900659977691 68.3322632422205,76.26927895197878 68.13723916513845,72.62652772158617 68.26725521637127,72.2876659805188 68.46227929368615,72.03351954527898 69.24237560178153,71.77937299880432 71.32263242360204,71.86408852651948 74.96308186161332,71.52522634086199 80.22873194213025,71.35579517384758 80.48876404482871,71.52522634086199 80.55377207044512,71.86408852651948 80.4237560192123,73.64311175810872 80.55377207044512,74.49026376288384 80.68378812191077,74.74440912349382 81.33386837877333,74.99855437281076 82.17897271271795,74.74440912349382 82.50401284103282,74.49026376288384 82.6990369183477,74.1514031093102 82.6990369183477,73.55839648976689 82.50401284103282,71.35579517384758 82.37399678956717,71.10164833074668 81.78892455832101,71.01693269168027 81.00882825045846,71.18636395770591 80.61878009629436,71.60994190565543 80.87881219875999,71.69465745834168 82.17897271271795,71.60994190565543 82.6990369183477,71.44051076343749 82.8940609949641,71.10164833074668 82.82905296958052,70.93221704027383 82.6990369183477,71.01693269168027 82.56902086688206,71.35579517384758 82.6990369183477,74.06668791506672 82.50401284103282,74.57497889566002 81.78892455832101,74.91383930220036 81.6589085070882,75.59155952220317 81.78892455832101,76.7775680050836 81.85393258417025,75.84570440102834 82.11396468710154,75.676274494268 84.12921348307282,75.59155952220317 86.20947030512616,75.25269951112568 86.53451043344103,75.42212954122806 86.72953451052308,75.676274494268 86.72953451052308,76.09984916850226 86.66452648467384,79.99672168039251 86.85955056152306,82.28400424087886 86.59951845905744,83.04642975953175 86.27447833050974,83.38528522459092 84.9743178167846,83.30057137674885 82.63402889249846,83.63942669343669 82.30898876395077,83.63942669343669 81.9839486356359,83.9782818123931 81.72391653293744,84.06299556116574 81.9839486356359,84.23242302192375 82.0489566612523,84.57127779501025 82.0489566612523,86.01140837540152 82.17897271271795,86.35026211076183 82.43900481541641,86.51968890428543 83.2841091491282,86.68911564856535 87.89967897254974,86.43497551389737 89.71990369190462,86.18083526776172 90.23996789730154,85.6725544424844 90.43499197438359,85.33370031171944 90.5,84.57127779501025 90.36998394853435,78.89543427282479 90.23996789730154,77.20114187628496 89.7849117172882,74.8291242189589 87.96468699816614,74.99855437281076 87.57463884400204,74.91383930220036 87.37961476691999,74.57497889566002 87.31460674153641,74.23611829115544 87.37961476691999,72.88067389762728 87.18459068983793,69.83091244730167 87.24959871568717,69.66148078616243 87.83467094693333,69.91562825924484 88.61476725502871,71.10164833074668 89.39486356335692,72.71124312578468 89.97993579460308,74.23611829115544 90.1099518458359,74.8291242189589 89.06982343480922,72.20295051438734 88.41974317817949,71.18636395770591 87.18459068983793,68.56017378397519 87.11958266468719,66.86585124203702 86.92455858713947,65.84925534477225 87.05457463860512,66.35755351593252 87.44462279276922,66.78113498538733 88.02969502401538,66.95056748657953 88.67977528064512,66.86585124203702 88.93980738357641,66.69641871622298 88.61476725502871,65.59510609257268 86.85955056152306,62.375872604956385 85.03932584263384,59.66492530348478 84.25922953430563,58.64831680362113 82.63402889249846,56.86924764740979 81.33386837877333,55.76791639154544 77.69341894052923,53.226374754856806 73.85794542520307,51.53200748574454 71.9077046548482,50.93897777382517 68.9823434993159,50.43066611024551 67.35714285681024,50.17651011177804 63.65168539318256,50.00707271753345 59.03611556952819,50.00707271753345 58.77608346682973,50.26122879021568 58.711075441213325,51.10841489606537 58.32102728728205,51.362570486962795 55.07062600320205,51.786162891134154 50.32504012808204,51.955599766399246 49.869983948767185,51.955599766399246 51.495184590574354,51.61672596668359 55.85072231129743,51.447288992407266 58.32102728728205,50.854259194107726 58.90609951829538,50.43066611024551 58.90609951829538,50.26122879021568 58.25601926166564,50.00707271753345 54.09550561802462,50.09179142076755 51.69020866765641,50.00707271753345 49.54494382021949,50.09179142076755 46.099518459057435,50.09179142076755 35.50321027263999,50.600103380624205 29.197431781794876,51.955599766399246 25.81701444624923,53.14165650884388 22.956661316100508,54.66658304777229 20.48635634011589,56.445658950309735 18.731139646843076,58.05529435718199 13.075441412394866,58.73303424671758 12.230337078683078,58.64831680362113 10.735152487875894,58.14001188671682 9.5,58.224729403620586 10.735152487875894,55.25960895419121 11.320224719122052,54.07355653611012 11.90529695013538,53.565247615857515 12.230337078683078,53.48052941908827 12.555377206997946,53.649965800053906 12.750401284079999,53.98883841355564 12.750401284079999,54.327710829733405 12.555377206997946,57.631706524582114 12.815409309929237,58.39416440075729 13.53049759240821,58.56359934818465 16.45585874794051,57.97057681513252 18.08105938974768,57.88585926103406 18.471107543911785,58.14001188671682 16.910914927721024,59.91907715058187 15.805778491077945,61.95228792290436 15.740770465461537,62.29115569341229 16.000802568159997,62.884173815429676 15.870786516694352,62.375872604956385 16.000802568159997,61.613419955188874 17.430979133350775,59.326056001358666 19.251203852239996,57.29283603618387 21.59149277675897,55.34432689129608 22.956661316100508,54.41242890281137 25.29695024085231,53.226374754856806 30.887640449218452,51.53200748574454 35.69823434972204,50.684821997536346 39.01364365941845,50.43066611024551 39.79373996774666,50.51538475177949 45.319422150729224,50.17651011177804 52.795345104299486,50.09179142076755 54.680577849270776,50.26122879021568 58.451043338747695,50.17651011177804" stroke="#4DD2FF" stroke-linecap="round" stroke-linejoin="round" stroke-width="0.5"><title>2025-12-23 7.56km</title><desc>16815540435</desc></polyline></svg>