<?xml version="1.0" encoding="utf-8" ?>
<svg baseProfile="full" height="130mm" version="1.1" viewBox="0,0,100,130" width="100mm" xmlns="http://www.w3.org/2000/svg" xmlns:ev="http://www.w3.org/2001/xml-events" xmlns:xlink="http://www.w3.org/1999/xlink"><defs /><rect fill="#222222" height="130" width="100" x="0" y="0" /><text fill="#FFFFFF" style="font-size:6px; font-family:Arial; font-weight:bold;color:#0ed45e;" x="5" y="10">节气跑—立秋</text><text fill="#FFFFFF" style="font-size:4px; font-family:Arial" x="5" y="121">Runner</text><text fill="#FFFFFF" style="font-size:6px; font-family:Arial" x="2" y="128">蓝皮书</text><text fill="#FFFFFF" style="font-size:4px; font-family:Arial" x="25" y="121">WORKOUTS INFO</text><text fill="#FFFFFF" style="font-size:3px; font-family:Arial" x="25" y="125">Type: Run</text><text fill="#FFFFFF" style="font-size:3px; font-family:Arial" x="22" y="129">Date: 2025-08-07</text><text fill="#FFFFFF" style="font-size:3px; font-family:Arial" x="47" y="125">Distance: 5.02 km</text><text fill="#FFFFFF" style="font-size:3px; font-family:Arial" x="47" y="129">Duration: 37:00min</text><text fill="#FFFFFF" style="font-size:3px; font-family:Arial" x="75" y="125">Pace: 7:21/km</text><text fill="#FFFFFF" style="font-size:3px; font-family:Arial" x="75" y="129">Elevation: 53m</text><polyline fill="none" points="9.841772152110934,68.4813429529313 9.5,71.08481502602808 10.867088608443737,76.72566386824474 11.208860760554671,80.63086104718968 13.259493671357632,82.36650269804522 18.72784810140729,84.9699633975979 32.39873417839408,84.53605342819355 34.107594937086105,84.9699633975979 41.284810127690434,84.10214340128005 48.12025316618383,84.53605342819355 54.95569620281458,83.66823331359774 77.51265823096037,83.23432316817343 84.34810126759112,79.76303986669518 87.76582278683782,75.8578416199889 90.15822785161436,69.34916721447371 90.15822785161436,66.31178126251325 87.76582278683782,62.40656648972072 82.29746835678816,58.06743333488703 78.53797468543053,56.76569223403931 71.70253164693713,55.89786453638226 61.79113924317062,55.89786453638226 60.08227848261595,56.76569223403931 46.41139240562916,56.331778415245935 44.70253164507449,57.19960599276237 34.44936708919704,57.6335196942091 20.778481014072895,57.6335196942091 18.72784810140729,58.50134691596031 15.310126584023237,58.93526043952443 12.575949367135763,61.97265344019979 10.867088608443737,69.78307925560512 11.208860760554671,73.68828496569768 11.89240506477654,75.8578416199889 14.968354431912303,80.63086104718968 17.702531646937132,82.80041296291165 21.12025316618383,83.66823331359774 51.87974683754146,83.23432316817343 57.006329115480185,82.80041296291165 58.71518987417221,83.23432316817343 65.5506329126656,82.80041296291165 66.57594936899841,81.93259237427264 78.53797468543053,82.80041296291165 81.95569620467722,81.06477154931054 86.39873417839408,77.59348587761633 88.44936709105968,73.68828496569768 88.79113924130797,69.34916721447371 88.44936709105968,65.87786874710582 86.05696202814579,61.538740332238376 79.90506329201162,57.6335196942091 77.51265823096037,56.76569223403931 73.06962025351822,56.76569223403931 69.31012658402324,55.89786453638226 58.373417722061276,56.76569223403931 54.95569620281458,55.89786453638226 50.170886078849435,56.331778415245935 48.12025316618383,55.89786453638226 41.284810127690434,57.19960599276237 32.39873417839408,56.331778415245935 20.778481014072895,57.19960599276237 18.044303799048066,58.06743333488703 13.9430379755795,61.104827164439484 11.550632912665606,65.01004353794269 10.183544306084514,72.82046188926324 11.208860760554671,77.59348587761633 12.234177216887474,79.32912918715738 14.626582277938724,81.49868199066259 19.069620253518224,83.66823331359774 79.2215189896524,82.36650269804522 85.03164557181299,78.8952184477821 89.47468354552984,72.82046188926324 89.13291139528155,68.0474307325203 88.44936709105968,64.57613084488548 86.39873417839408,61.538740332238376 83.32278481125832,58.50134691596031 78.53797468543053,56.331778415245935 75.46202531643212,56.76569223403931 69.99367088638246,55.46395059861243 59.74050633050501,56.76569223403931 54.95569620281458,55.46395059861243 48.462025318294764,56.331778415245935 20.778481014072895,57.19960599276237 14.284810127690434,61.104827164439484 12.234177216887474,63.70830528065562 10.525316454470158,68.4813429529313 10.183544306084514,70.6509031613823 11.550632912665606,76.2917527735699 13.601265823468566,79.32912918715738 15.993670888245106,81.49868199066259 21.12025316618383,83.66823331359774 33.42405063472688,83.23432316817343 34.44936708919704,82.36650269804522 49.14556962251663,83.23432316817343 78.87974683567882,82.36650269804522 82.29746835678816,81.06477154931054 84.68987341783941,78.46130765043199 87.42405063286424,74.55610780534334 88.44936709105968,69.34916721447371 87.76582278683782,64.14221809152514 85.37341772392392,60.67091393889859 81.95569620467722,58.06743333488703 78.53797468543053,57.19960599276237 74.43670886196196,57.19960599276237 68.62658227980137,55.46395059861243 64.18354430422187,55.89786453638226 62.81645569764078,56.76569223403931 56.66455696336925,55.89786453638226 52.90506329201162,57.19960599276237 49.48734177276492,57.19960599276237 46.41139240562916,58.06743333488703 42.99367088638246,57.6335196942091 41.284810127690434,58.06743333488703 37.86708860844374,56.76569223403931 19.753164557740092,57.6335196942091 16.335443038493395,58.93526043952443 13.601265823468566,61.97265344019979 10.867088608443737,66.74569371901453 10.183544306084514,71.08481502602808 10.867088608443737,74.99001913540997 13.9430379755795,80.63086104718968 18.72784810140729,83.66823331359774 36.15822784975171,84.10214340128005 44.01898734271526,83.66823331359774 47.09493670985103,82.36650269804522 49.48734177276492,83.23432316817343 64.18354430422187,83.23432316817343 67.9430379755795,83.66823331359774 77.85443038120866,83.23432316817343 84.34810126759112,79.76303986669518 86.39873417839408,77.59348587761633 87.42405063286424,75.42393040820025 89.13291139528155,75.42393040820025 88.79113924130797,74.12219641590491 89.13291139528155,67.61351845460013 88.1075949370861,64.57613084488548 86.05696202814579,61.538740332238376 79.90506329201162,57.19960599276237 77.17088607698679,56.76569223403931 63.500000001862645,55.030036602402106 53.24683544412255,56.76569223403931 48.12025316618383,56.331778415245935 45.044303799048066,57.19960599276237 37.18354430422187,57.6335196942091 34.791139241307974,56.76569223403931 27.61392405256629,58.06743333488703 24.53797468356788,57.6335196942091 17.702531646937132,58.50134691596031 15.310126584023237,59.80308730760589 13.259493671357632,62.40656648972072 11.208860760554671,65.87786874710582 10.183544306084514,71.51872683037072 10.867088608443737,75.42393040820025 12.575949367135763,78.46130765043199 15.993670888245106,82.36650269804522 24.87974683754146,84.53605342819355 47.436708863824606,82.80041296291165 50.85443038120866,84.10214340128005 55.63924050703645,82.80041296291165 56.66455696336925,83.66823331359774 59.74050633050501,84.10214340128005 65.20886076241732,82.80041296291165 67.60126582346857,82.80041296291165 69.31012658402324,82.36650269804522 78.19620253331959,81.93259237427264 82.29746835678816,80.63086104718968 85.03164557181299,78.02739679417573 88.1075949370861,73.25437345728278 88.79113924130797,66.31178126251325 87.08227848261595,63.27439240878448 86.05696202814579,61.97265344019979 80.58860759623349,58.06743333488703 75.12025316618383,57.6335196942091 72.386075951159,56.76569223403931 63.841772152110934,57.19960599276237 62.13291139341891,55.89786453638226 59.05696202814579,57.19960599276237 57.348101265728474,56.331778415245935 54.95569620281458,57.19960599276237 51.87974683754146,56.76569223403931 49.829113924875855,58.06743333488703 40.25949367322028,56.76569223403931 33.76582278497517,58.06743333488703 26.246835444122553,57.6335196942091 24.87974683754146,58.50134691596031 20.778481014072895,58.50134691596031 15.310126584023237,61.538740332238376 12.575949367135763,64.14221809152514 9.841772152110934,70.6509031613823 9.841772152110934,73.68828496569768 10.183544306084514,75.42393040820025 13.259493671357632,80.19695048686117 18.044303799048066,83.66823331359774 23.854430381208658,84.53605342819355 38.20886076055467,83.66823331359774 39.57594936713576,83.66823331359774 40.25949367322028,84.53605342819355 46.75316455774009,83.23432316817343 55.63924050703645,84.10214340128005 57.348101265728474,83.23432316817343 60.08227848261595,83.66823331359774 62.13291139341891,82.80041296291165 65.20886076241732,83.23432316817343 72.386075951159,81.93259237427264 78.53797468543053,82.36650269804522 82.29746835678816,81.06477154931054 85.71518987603486,77.59348587761633 87.08227848261595,75.8578416199889 88.79113924130797,69.78307925560512 88.1075949370861,66.31178126251325 84.00632911548018,60.237000653287396 78.87974683567882,58.50134691596031 70.33544304035604,56.76569223403931 68.62658227980137,55.89786453638226 67.25949367135763,57.19960599276237 66.57594936899841,56.331778415245935 63.841772152110934,55.89786453638226 60.08227848261595,55.89786453638226 57.348101265728474,56.76569223403931 48.80379746854305,57.6335196942091 45.386075951159,57.6335196942091 44.01898734271526,57.19960599276237 32.74050633050501,58.06743333488703 31.031645569950342,57.19960599276237 28.981012659147382,58.50134691596031 21.12025316618383,57.6335196942091 19.069620253518224,59.36917390371673 17.018987342715263,59.80308730760589 12.575949367135763,65.01004353794269 10.525316454470158,71.08481502602808 10.525316454470158,75.42393040820025 12.917721519246697,80.19695048686117 17.360759492963552,82.80041296291165 21.46202531643212,84.10214340128005 30.689873419702053,84.10214340128005 38.892405062913895,82.36650269804522 42.31012658402324,82.80041296291165 43.335443038493395,82.36650269804522 48.462025318294764,83.23432316817343 69.65189873427153,82.80041296291165 73.06962025351822,83.66823331359774 79.90506329201162,81.93259237427264 83.32278481125832,80.19695048686117 85.03164557181299,78.46130765043199 88.44936709105968,72.82046188926324 88.79113924130797,68.9152551125735 87.76582278683782,64.14221809152514 85.37341772392392,61.104827164439484 75.12025316618383,56.76569223403931 70.67721519246697,57.6335196942091 67.25949367135763,56.331778415245935 63.500000001862645,57.6335196942091 55.98101266101003,56.331778415245935 50.512658229097724,57.19960599276237 49.14556962251663,56.331778415245935 41.284810127690434,58.06743333488703 35.47468354552984,57.6335196942091 34.44936708919704,58.06743333488703 29.66455696336925,56.76569223403931 25.90506329201162,58.06743333488703 20.778481014072895,58.50134691596031 14.968354431912303,62.40656648972072 12.575949367135763,65.01004353794269 10.867088608443737,68.9152551125735 11.208860760554671,75.8578416199889 12.917721519246697,78.8952184477821 15.310126584023237,81.49868199066259 20.09493670798838,83.66823331359774 25.22151898778975,84.10214340128005 34.44936708919704,83.66823331359774 46.41139240562916,83.66823331359774 50.85443038120866,82.80041296291165 55.63924050703645,83.23432316817343 59.05696202814579,82.36650269804522 68.62658227980137,83.66823331359774 79.2215189896524,82.36650269804522 82.29746835678816,81.06477154931054 88.44936709105968,74.55610780534334 89.47468354552984,69.34916721447371 88.44936709105968,65.87786874710582 85.71518987603486,61.538740332238376 78.87974683567882,58.06743333488703 73.06962025351822,57.19960599276237 70.33544304035604,57.6335196942091 66.23417721688747,57.19960599276237 64.5253164563328,55.89786453638226 59.05696202814579,58.06743333488703 56.66455696336925,57.19960599276237 51.53797468356788,58.06743333488703 46.41139240562916,57.19960599276237 41.62658227980137,58.93526043952443 37.86708860844374,58.06743333488703 32.39873417839408,58.93526043952443 28.639240507036448,58.06743333488703 23.854430381208658,59.36917390371673 20.43670886196196,58.93526043952443 15.310126584023237,61.104827164439484 14.284810127690434,62.840479478705674 12.234177216887474,65.87786874710582 10.867088608443737,71.51872683037072 12.575949367135763,78.46130765043199 14.626582277938724,80.63086104718968 19.411392405629158,84.10214340128005 26.246835444122553,84.53605342819355 44.3607594948262,82.80041296291165 49.829113924875855,83.23432316817343 65.20886076241732,82.36650269804522 68.62658227980137,82.80041296291165 78.53797468543053,82.36650269804522 82.63924050889909,80.63086104718968 85.03164557181299,78.46130765043199 88.79113924130797,72.82046188926324 89.47468354552984,69.78307925560512 90.5,68.9152551125735 89.13291139528155,65.87786874710582 87.08227848261595,63.27439240878448 82.63924050889909,59.80308730760589 78.87974683567882,57.6335196942091 73.75316455774009,57.6335196942091 68.28481012769043,58.50134691596031 66.91772152110934,57.6335196942091 64.86708860844374,58.06743333488703 54.272151900455356,55.89786453638226 49.829113924875855,56.331778415245935 45.386075951159,57.6335196942091 41.9683544319123,57.6335196942091 36.500000001862645,59.36917390371673 34.791139241307974,58.50134691596031 31.031645569950342,58.06743333488703 25.563291139900684,59.36917390371673 22.145569620653987,59.36917390371673 19.069620253518224,61.104827164439484 16.335443038493395,60.67091393889859 11.550632912665606,63.27439240878448 10.525316454470158,64.57613084488548 9.5,71.08481502602808 9.841772152110934,75.8578416199889 11.208860760554671,78.8952184477821 13.259493671357632,81.49868199066259 19.753164557740092,83.66823331359774 25.90506329201162,84.53605342819355 38.550632912665606,83.23432316817343" stroke="#4DD2FF" stroke-linecap="round" stroke-linejoin="round" stroke-width="0.5"><title>2025-08-07 5.02km</title><desc>15370426346</desc></polyline></svg>