<?xml version="1.0" encoding="utf-8" ?>
<svg baseProfile="full" height="130mm" version="1.1" viewBox="0,0,100,130" width="100mm" xmlns="http://www.w3.org/2000/svg" xmlns:ev="http://www.w3.org/2001/xml-events" xmlns:xlink="http://www.w3.org/1999/xlink"><defs /><rect fill="#FAF9F5" height="130" width="100" x="0" y="0" /><text fill="#5A5A5A" style="font-size:6px; font-family:Arial; font-weight:bold;color:#0ed45e;" x="5" y="10">一天一壶</text><text fill="#5A5A5A" style="font-size:4px; font-family:Arial" x="5" y="121">Runner</text><text fill="#5A5A5A" style="font-size:6px; font-family:Arial" x="2" y="128">蓝皮书</text><text fill="#5A5A5A" style="font-size:4px; font-family:Arial" x="25" y="121">WORKOUTS INFO</text><text fill="#5A5A5A" style="font-size:3px; font-family:Arial" x="25" y="125">Type: Run</text><text fill="#5A5A5A" style="font-size:3px; font-family:Arial" x="22" y="129">Date: 2025-11-03</text><text fill="#5A5A5A" style="font-size:3px; font-family:Arial" x="47" y="125">Distance: 5.21 km</text><text fill="#5A5A5A" style="font-size:3px; font-family:Arial" x="47" y="129">Duration: 33:44min</text><text fill="#5A5A5A" style="font-size:3px; font-family:Arial" x="75" y="125">Pace: 6:28/km</text><text fill="#5A5A5A" style="font-size:3px; font-family:Arial" x="75" y="129">Elevation: 17m</text><polyline fill="none" points="90.5,73.586828819738 90.23786407755688,73.586828819738 89.71359223290347,73.96824058363563 89.1368932039477,74.65478087225347 88.61262135906145,75.4938841216208 88.24563106801361,76.25670377982897 87.30194174754433,79.00284289888805 86.35825242707506,81.06243527063634 84.99514563102275,83.27457861459698 84.15631067962386,84.80018781946274 83.00291262147948,86.63091143625206 82.21650485438295,88.23278795249644 80.64368932018988,90.90256835753098 79.43786407774314,92.6569860962918 76.39708737866022,96.39463385139243 76.1349514562171,96.62346833094489 75.76796116493642,96.69974646251649 75.03398058260791,96.47091202510637 71.36407766956836,93.80116756848292 70.42038834956475,93.2672166088887 69.00485436874442,93.19093784393044 67.90388349513523,93.4197740960517 65.80679611652158,94.3351178386365 64.91553398082033,95.86068624025211 63.65728155337274,97.69136089395033 63.18543689302169,98.22530614142306 61.45533980592154,99.75086019266746 59.83009708742611,100.81874468023307 56.684466019505635,102.19173496941221 55.164077669614926,103.18333623214858 54.639805825194344,103.64099755141069 53.27669902914204,105.16653162497096 52.752427184488624,105.62419074974605 52.17572815530002,105.70046722140978 49.44951456296258,105.31908472301438 45.93689320376143,104.02238159751869 42.00485436897725,102.80195141240256 40.95631067967042,102.19173496941221 38.17766990279779,100.0559703274339 35.08446601917967,98.22530614142306 33.30194174754433,96.9285807730048 31.938834951259196,96.24207746138563 30.89029126195237,95.93696451256983 27.639805825194344,95.47929466731148 26.48640776704997,95.47929466731148 16.734951456310228,98.6066951820103 16.053398058284074,98.68297294774675 15.791262136073783,98.6066951820103 15.581553398165852,98.37786179981777 15.162135922117159,97.38624901440926 14.270873786415905,95.78440795393544 14.008737864205614,95.17418115588953 13.903883495135233,94.48767493190826 14.008737864205614,93.0383802721044 13.799029126297683,92.3518705025781 12.121359223267063,89.83465826377505 9.971844660118222,85.79183078449569 9.919417475815862,85.18158924140153 10.076699028955773,83.35085920864367 10.024271844653413,82.66433335692273 9.5,80.22334332036553 9.5,79.9182185526588 9.709708737907931,79.30796834186185 13.37961165024899,72.213743556611 14.585436892928556,70.3066731277213 16.525242718169466,67.63675975153456 22.030097087379545,61.610320478328504 23.23592233005911,60.77118905677344 26.381553397979587,58.024928861734224 27.849514563102275,57.10950474382844 28.95048543694429,56.728077429987025 34.24563106801361,56.11779299576301 35.818446601741016,56.34664976398926 36.76213592221029,56.728077429987025 42.00485436897725,60.69490429753205 48.2961165048182,66.4162221813167 50.13106796122156,68.17074380602571 52.22815534006804,69.62012562004384 55.47864077682607,70.91693662185571 56.789320388343185,71.1457851997693 57.78543689334765,71.1457851997693 58.36213592230342,70.91693662185571 59.25339805800468,70.38295611357898 59.98737864103168,69.77269183154567 60.773786407895386,68.857293719484 61.45533980592154,67.86561014511972 62.556310679530725,65.80595204504789 63.02815533988178,65.27196493686642 63.39514563092962,65.11939706534031 64.1291262137238,64.96682913726545 64.8631067960523,65.04311310820049 65.49223300954327,65.3482488518348 66.2786407766398,66.11108722558129 66.80291262129322,67.10277500774828 68.48058252432384,72.29002619095263 68.84757281537168,73.586828819738 68.89999999990687,74.57849867438199 68.63786407769658,77.01952203115798 67.58932038838975,80.14706214962644 66.06893203873187,82.58805263641989 65.59708737861365,83.65598144356045 65.54466019407846,84.57134679760202 66.06893203873187,86.09695121867117 66.38349514571019,87.39371055111405 67.11747572827153,88.46162694823579 67.32718446594663,89.07186365113012 67.22233009687625,89.30070218280889 66.2786407766398,90.6737307125004 66.17378640780225,91.36024326787447 66.17378640780225,92.88582264402066 66.06893203873187,93.64861022154219 65.70194174768403,94.71651046659099 65.02038834942505,95.93696451256983 64.91553398082033,96.01324277103413 65.64951456314884,94.18256068887422 65.91165048535913,93.4197740960517 66.06893203873187,92.6569860962918 66.17378640780225,91.51280145873898 66.331067961175,90.6737307125004 66.69805825245567,89.98721701747854 68.21844660211354,88.23278795249644 68.48058252432384,87.69882980317925 68.16601941757835,87.24115084068035 65.85922330105677,85.33414971164893 65.54466019407846,84.64762715238612 65.43980582524091,83.96110345324269 65.49223300954327,83.27457861459698 65.70194174768403,82.66433335692273 67.16990291257389,80.60474896334927 67.64174757292494,79.76565608437522 68.2708737864159,77.78233887511306 68.2708737864159,77.40093062919914 68.21844660211354,77.09580377896782 68.0611650487408,76.86695849362877 66.17378640780225,75.72273016686086 65.07281553419307,75.18875586427748 64.18155339802615,74.95990952366265 63.13300970895216,74.80734522608691 61.50776698999107,74.3496519959881 60.14466019417159,73.12913423849386 59.51553398068063,72.29002619095263 59.09611650486477,71.37463365137228 58.781553397886455,71.06950235454133 56.05533980578184,70.84065373431076 53.22427184460685,69.92525798652787 51.80873786401935,69.31499302884913 50.65533980587497,68.32331055184477 48.76796116493642,66.33993846338126 40.58932038838975,59.16920615945128 37.443689320469275,56.804362920782296 35.713592232903466,55.96522174650454 33.93106796126813,55.88893610081868 30.156310679391026,56.34664976398926 28.216504854150116,56.88064839775325 26.85339805833064,57.56721705599921 23.13106796098873,60.77118905677344 21.767961165169254,61.45775125554064 23.13106796098873,60.69490429753205 26.59126213588752,57.79607302226941 27.849514563102275,56.95693386049243 29.369902912294492,56.49922087258892 34.92718446603976,55.88893610081868 35.608737864065915,55.5837933770963 35.818446601741016,55.27865042819758 36.39514563116245,53.14264348134748 37.18155339802615,51.38805809209589 37.233980582561344,50.62519255737425 37.02427184442058,48.71802256302908 37.0766990291886,48.336587508470984 37.286407767096534,47.955152102251304 39.331067961174995,45.59024472994497 42.1097087378148,42.767595644749235 44.15436893189326,40.40265860353247 46.3038834950421,38.113996975589544 48.2961165048182,35.82532267991337 49.76407766994089,34.375822407455416 50.02621359215118,34.29953277859022 50.65533980587497,34.52840162283974 52.595145631115884,36.51192629887373 54.744660194031894,38.1902859005786 55.42621359205805,38.49544145993423 56.21262135915458,38.113996975589544 57.051456310553476,37.045950547471875 57.41844660206698,36.20676927547902 57.36601941729896,35.596454553713556" stroke="#4DD2FF" stroke-linecap="round" stroke-linejoin="round" stroke-width="0.5"><title>2025-11-03 5.21km</title><desc>16337033741</desc></polyline></svg>