<?xml version="1.0" encoding="utf-8" ?>
<svg baseProfile="full" height="130mm" version="1.1" viewBox="0,0,100,130" width="100mm" xmlns="http://www.w3.org/2000/svg" xmlns:ev="http://www.w3.org/2001/xml-events" xmlns:xlink="http://www.w3.org/1999/xlink"><defs /><rect fill="#222222" height="130" width="100" x="0" y="0" /><text fill="#FFFFFF" style="font-size:6px; font-family:Arial; font-weight:bold;" x="5" y="10">2025-04-01 Workouts</text><text fill="#FFFFFF" style="font-size:4px; font-family:Arial" x="5" y="121">Runner</text><text fill="#FFFFFF" style="font-size:6px; font-family:Arial" x="2" y="128">蓝皮书</text><text fill="#FFFFFF" style="font-size:4px; font-family:Arial" x="25" y="121">STATISTICS</text><text fill="#FFFFFF" style="font-size:3px; font-family:Arial" x="25" y="125">Number: 1</text><text fill="#FFFFFF" style="font-size:3px; font-family:Arial" x="25" y="129">Weekly: 1.0</text><text fill="#FFFFFF" style="font-size:3px; font-family:Arial" x="48" y="125">Total: 9.6 km</text><text fill="#FFFFFF" style="font-size:3px; font-family:Arial" x="48" y="129">Avg: 9.6 km</text><text fill="#FFFFFF" style="font-size:3px; font-family:Arial" x="75" y="125">Min: 9.6 km</text><text fill="#FFFFFF" style="font-size:3px; font-family:Arial" x="75" y="129">Max: 9.6 km</text><polyline fill="none" points="9.5,73.51583424187265 13.653846153989434,80.98689116653986 28.884615384042263,85.38162243342958 72.84615384601057,84.94214957696386 82.19230769202113,82.30531117599458 90.15384615398943,73.51583424187265 88.42307692207396,61.65000231261365 68.0,54.61837756680325 26.80769230797887,56.376285193488 15.038461538031697,59.89209756697528 10.884615385904908,70.4395116455853 14.0,79.66847061598673 23.346153846010566,83.62373064551502 50.0,83.18425754946657 80.11538461409509,82.30531117599458 87.73076923005283,77.03162789577618 89.46153846010566,68.24213656270877 84.61538461409509,59.0131448332686 70.07692307792604,55.05785456276499 62.80769230611622,55.05785456276499 58.30769230797887,56.376285193488 17.80769230797887,58.57366837607697 11.92307692207396,73.51583424187265 14.692307692021132,79.66847061598673 33.73076923005283,84.06320368312299 73.88461538404226,84.06320368312299 87.38461538404226,77.9105757093057 89.11538461409509,66.48423541546799 83.5769230760634,59.0131448332686 65.23076923005283,55.497331499820575 59.346153846010566,56.376285193488 44.80769230611622,56.376285193488 29.23076923005283,55.93680837727152 21.615384615957737,56.376285193488 11.230769230052829,66.92371079232544 13.653846153989434,78.35004952549934 19.884615384042263,83.62373064551502 46.53846153989434,84.06320368312299 79.42307692207396,83.18425754946657 86.34615384414792,78.78952328162268 89.80769230611622,69.56056179199368 84.61538461409509,59.45262122969143 75.26923076808453,57.69471528287977 62.11538461595774,54.61837756680325 50.692307690158486,54.61837756680325 39.96153846010566,57.255238646874204 25.42307692207396,57.255238646874204 16.07692307792604,59.45262122969143 11.230769230052829,65.60528448224068 12.615384615957737,77.03162789577618 19.884615384042263,83.18425754946657 57.61538461409509,84.06320368312299 80.80769230797887,83.62373064551502 88.0769230760634,77.47110183234327 88.42307692207396,63.40790609968826 69.0384615380317,55.93680837727152 45.5,56.81576194916852 32.69230769202113,55.93680837727152 16.76923076994717,58.57366837607697 10.884615385904908,71.75793597544543 16.07692307792604,81.86583789950237 80.11538461409509,83.18425754946657 88.0769230760634,76.59215389983729 89.80769230611622,69.56056179199368 84.96153846010566,59.45262122969143 72.84615384601057,55.93680837727152 66.26923076808453,55.05785456276499 32.346153846010566,55.93680837727152 17.461538461968303,59.0131448332686 11.230769230052829,69.56056179199368 15.384615384042263,80.10794419283047 34.423076923936605,82.74478439311497 49.30769230797887,83.18425754946657 83.23076923005283,81.86583789950237 89.11538461409509,73.51583424187265 87.0384615380317,62.52895432594232 75.26923076808453,55.93680837727152 40.653846153989434,57.255238646874204 14.692307692021132,59.45262122969143 10.538461538031697,70.4395116455853 15.038461538031697,81.42636456200853 54.846153846010566,84.50267665903084 69.73076923005283,81.42636456200853 78.0384615380317,83.18425754946657 88.42307692207396,78.35004952549934 90.5,70.4395116455853 83.5769230760634,59.0131448332686 63.153846153989434,55.93680837727152 47.576923076063395,57.255238646874204 31.30769230797887,57.255238646874204 14.0,62.52895432594232 11.230769230052829,72.1974106321577 15.730769231915474,81.86583789950237 22.653846153989434,84.50267665903084 85.30769230797887,81.42636456200853 89.80769230611622,74.39478301559575 87.38461538404226,62.0894783497788 80.80769230797887,58.13419185881503 49.653846153989434,57.255238646874204 36.153846153989434,56.81576194916852 18.5,58.13419185881503 11.576923076063395,65.16580892633647 10.538461538031697,76.1526798424311 20.576923076063395,84.06320368312299 70.07692307792604,83.62373064551502 80.11538461409509,83.18425754946657 88.0769230760634,77.9105757093057 90.5,69.12108677602373 81.5,58.13419185881503 68.34615384601057,56.81576194916852 51.0384615380317,56.81576194916852 41.346153846010566,58.13419185881503 31.30769230797887,58.57366837607697 14.346153846010566,62.96843024226837 11.230769230052829,69.56056179199368 14.346153846010566,80.54741770913824 19.19230769202113,83.62373064551502 60.73076923005283,83.62373064551502 79.42307692207396,83.62373064551502 87.0384615380317,79.66847061598673 88.0769230760634,63.40790609968826 80.11538461409509,58.13419185881503 55.88461538404226,56.376285193488 45.5,55.93680837727152 26.80769230797887,58.13419185881503 16.42307692207396,59.89209756697528 12.269230769947171,66.92371079232544 14.692307692021132,80.98689116653986 23.346153846010566,84.06320368312299 54.846153846010566,83.62373064551502 80.11538461409509,84.06320368312299 89.80769230611622,68.24213656270877 78.73076923005283,57.255238646874204 68.34615384601057,55.93680837727152 61.42307692207396,56.81576194916852 54.5,57.69471528287977 37.88461538404226,57.255238646874204 28.884615384042263,55.93680837727152 12.615384615957737,64.28685763268732 11.230769230052829,77.03162789577618 35.80769230797887,84.50267665903084 73.19230769202113,84.50267665903084 84.61538461409509,81.42636456200853 90.15384615398943,74.39478301559575 87.0384615380317,62.52895432594232 67.30769230797887,56.376285193488 58.65384615212679,55.05785456276499 47.92307692207396,56.81576194916852 43.076923076063395,57.255238646874204 26.115384614095092,57.69471528287977 16.76923076994717,59.45262122969143 11.230769230052829,71.75793597544543 15.730769231915474,82.74478439311497 48.61538461595774,83.62373064551502 65.23076923005283,82.74478439311497 80.46153846010566,83.18425754946657 90.15384615398943,74.39478301559575 88.0769230760634,64.28685763268732 82.5384615380317,59.45262122969143 60.38461538590491,57.255238646874204 52.42307692207396,56.81576194916852 39.61538461595774,56.81576194916852 35.46153846010566,56.376285193488 30.961538461968303,57.69471528287977 15.038461538031697,62.0894783497788 11.576923076063395,72.1974106321577 17.80769230797887,82.30531117599458 23.0,82.74478439311497 43.423076923936605,83.18425754946657 86.0,80.10794419283047 90.5,69.56056179199368 86.34615384414792,61.65000231261365 78.38461538404226,57.69471528287977 62.80769230611622,55.93680837727152 47.23076923005283,56.376285193488 34.769230768084526,55.93680837727152 23.0,57.255238646874204 13.653846153989434,62.52895432594232 11.576923076063395,77.47110183234327 21.615384615957737,84.94214957696386 65.5769230760634,82.74478439311497 82.19230769202113,82.74478439311497 89.11538461409509,75.71320572542027 88.76923076994717,65.16580892633647 81.5,58.13419185881503 61.42307692207396,57.255238646874204 30.269230768084526,57.69471528287977 18.5,57.69471528287977 11.92307692207396,66.04475997854024 14.0,80.10794419283047 21.961538461968303,84.06320368312299 80.80769230797887,83.18425754946657 89.46153846010566,76.59215389983729 88.76923076994717,63.847381895175204 80.46153846010566,57.255238646874204 61.076923076063395,56.376285193488 42.0384615380317,58.13419185881503 19.19230769202113,58.13419185881503 12.269230769947171,66.92371079232544 12.615384615957737,77.9105757093057 23.346153846010566,84.06320368312299 37.88461538404226,84.50267665903084 59.69230769202113,82.30531117599458 81.5,82.30531117599458 90.15384615398943,71.3184612588957 87.38461538404226,62.0894783497788 67.30769230797887,58.13419185881503 62.46153846010566,57.69471528287977 36.153846153989434,57.69471528287977 17.461538461968303,59.0131448332686 11.576923076063395,68.6816116985865 12.269230769947171,76.59215389983729 19.884615384042263,84.06320368312299 38.92307692207396,83.18425754946657 56.92307692207396,82.74478439311497 84.96153846010566,81.42636456200853 90.5,70.4395116455853 86.69230769202113,62.52895432594232 76.65384615398943,57.69471528287977 68.69230769202113,58.13419185881503 58.30769230797887,56.376285193488 53.80769230611622,57.255238646874204 41.692307690158486,55.497331499820575 30.615384615957737,56.376285193488 14.346153846010566,62.0894783497788 11.576923076063395,70.00003674812615 16.42307692207396,82.74478439311497 36.153846153989434,84.06320368312299 45.153846153989434,83.62373064551502 83.5769230760634,81.86583789950237 90.5,73.51583424187265 82.5384615380317,58.57366837607697" stroke="#4DD2FF" stroke-linecap="round" stroke-linejoin="round" stroke-width="0.5"><title>2025-04-01 9.6km</title><desc>14043268264</desc></polyline></svg>