<?xml version="1.0" encoding="utf-8" ?>
<svg baseProfile="full" height="130mm" version="1.1" viewBox="0,0,100,130" width="100mm" xmlns="http://www.w3.org/2000/svg" xmlns:ev="http://www.w3.org/2001/xml-events" xmlns:xlink="http://www.w3.org/1999/xlink"><defs /><rect fill="#FAF9F5" height="130" width="100" x="0" y="0" /><text fill="#5A5A5A" style="font-size:6px; font-family:Arial; font-weight:bold;color:#0ed45e;" x="5" y="10">标准GPS</text><text fill="#5A5A5A" style="font-size:4px; font-family:Arial" x="5" y="121">Runner</text><text fill="#5A5A5A" style="font-size:6px; font-family:Arial" x="2" y="128">蓝皮书</text><text fill="#5A5A5A" style="font-size:4px; font-family:Arial" x="25" y="121">WORKOUTS INFO</text><text fill="#5A5A5A" style="font-size:3px; font-family:Arial" x="25" y="125">Type: Run</text><text fill="#5A5A5A" style="font-size:3px; font-family:Arial" x="22" y="129">Date: 2025-09-17</text><text fill="#5A5A5A" style="font-size:3px; font-family:Arial" x="47" y="125">Distance: 5.38 km</text><text fill="#5A5A5A" style="font-size:3px; font-family:Arial" x="47" y="129">Duration: 36:36min</text><text fill="#5A5A5A" style="font-size:3px; font-family:Arial" x="75" y="125">Pace: 6:48/km</text><text fill="#5A5A5A" style="font-size:3px; font-family:Arial" x="75" y="129">Elevation: 0m</text><polyline fill="none" points="13.707792205736041,78.01332759927027 24.928571425378323,81.57477750629187 34.045454543083906,82.46513937576674 43.51298701018095,81.12959648063406 56.83766233548522,82.910320217954 74.01948051713407,82.910320217954 77.8766233753413,82.01995847094804 81.38311688229442,79.34887176984921 85.94155843928456,74.00669180229306 87.69480519369245,70.44523362978362 88.74675324372947,67.32895453600213 88.39610389433801,63.76748906983994 85.94155843928456,59.31565176532604 83.83766233734787,57.08973083598539 78.2272727265954,55.754177547292784 69.46103896014392,55.754177547292784 54.03246753104031,53.083069330081344 42.811688309535384,51.74751440156251 30.88961038738489,54.41862371284515 17.915584415197372,53.97343897889368 11.603896103799343,57.98009938932955 9.850649347528815,61.986754877259955 9.5,69.10968581074849 11.603896103799343,74.89705573790707 14.058441556990147,77.56814608629793 22.123376620933414,83.3555010012351 25.279220778495073,83.3555010012351 31.590909089893103,80.6844153937418 32.993506491184235,80.23923424561508 65.25324675254524,83.3555010012351 75.07142856903374,83.3555010012351 81.03246753104031,81.57477750629187 85.240259738639,76.67778288037516 88.74675324372947,68.66450308379717 89.09740259498358,63.76748906983994 85.5909090898931,59.760835769819096 79.27922077849507,57.53491514339112 28.435064934194088,57.98009938932955 20.72077921964228,58.425283576594666 17.21428571268916,59.31565176532604 13.006493505090475,63.32230561343022 10.902597401291132,67.77413744619116 9.850649347528815,73.11632762360387 10.201298700645566,75.78741943067871 13.006493505090475,79.34887176984921 18.266233764588833,83.3555010012351 22.47402597218752,84.24586238455959 29.48701298609376,83.80068172304891 48.42207792028785,86.91694507491775 55.43506493233144,88.25248559843749 67.35714285634458,86.91694507491775 75.42207792028785,87.80730548454449 78.92857142537832,86.47176477848552 82.43506493419409,84.69104298460297 85.240259738639,81.57477750629187 88.0454545430839,74.89705573790707 88.0454545430839,68.21932029537857 86.64285714179277,64.21267246548086 82.08441558293998,57.98009938932955 75.07142856903374,55.30899299681187 66.30519480444491,54.86380838463083 45.26623376458883,56.1993620370049 36.85064934939146,57.08973083598539 28.78571428358555,60.206019713543355 18.9675324652344,62.431938516907394 13.006493505090475,66.88377156574279 11.253246752545238,70.44523362978362 10.902597401291132,74.4518738007173 11.954545453190804,78.01332759927027 14.409090908244252,81.12959648063406 17.21428571268916,82.910320217954 22.82467532157898,83.80068172304891 32.993506491184235,82.46513937576674 42.461038960143924,84.24586238455959 52.27922077849507,81.57477750629187 68.4090909063816,82.01995847094804 78.57792207784951,81.12959648063406 81.73376623168588,79.34887176984921 86.99350649304688,74.00669180229306 88.74675324372947,69.55486847832799 88.0454545430839,66.43858853518032 85.240259738639,61.986754877259955 79.98051947914064,59.31565176532604 74.37012986838818,58.425283576594666 52.62987012602389,57.98009938932955 47.01948051713407,57.08973083598539 22.123376620933414,58.425283576594666 16.512987012043595,61.09638741775416 12.305194804444909,65.10303907492198 10.551948050037026,68.21932029537857 10.201298700645566,73.11632762360387 11.603896103799343,77.12296451325528 13.35714285634458,80.23923424561508 17.564935063943267,82.910320217954 23.175324672833085,83.3555010012351 33.694805193692446,82.910320217954 45.9675324652344,84.69104298460297 63.5,84.69104298460297 70.86363636143506,82.910320217954 77.8766233753413,82.46513937576674 84.18831168673933,79.79405303811654 86.99350649304688,77.12296451325528 88.74675324372947,73.56150974379852 89.09740259498358,69.10968581074849 88.0454545430839,65.10303907492198 86.29220779053867,61.986754877259955 83.48701298609376,59.31565176532604 78.57792207784951,57.53491514339112 65.9545454531908,56.1993620370049 58.240259738639,57.08973083598539 49.82467532157898,56.644546466646716 31.240259738638997,57.08973083598539 21.071428569033742,58.425283576594666 17.21428571268916,59.760835769819096 14.409090908244252,61.986754877259955 11.954545453190804,66.88377156574279 11.954545453190804,73.11632762360387 13.707792205736041,78.45850904961117 16.863636361435056,80.23923424561508 27.733766231685877,84.24586238455959 42.11038960888982,83.80068172304891 51.2272727265954,82.01995847094804 61.74675324372947,81.12959648063406 79.62987012788653,82.46513937576674 81.38311688229442,82.01995847094804 85.94155843928456,78.45850904961117 89.44805194623768,74.00669180229306 90.5,71.33559853653423 89.44805194623768,67.32895453600213 85.94155843928456,62.431938516907394 81.03246753104031,58.870467701461166 77.17532467283309,57.53491514339112 63.85064934939146,57.98009938932955 55.43506493233144,58.870467701461166 39.65584415383637,57.98009938932955 31.590909089893103,59.31565176532604 23.525974025949836,58.870467701461166 19.318181816488504,59.760835769819096 14.409090908244252,63.32230561343022 13.006493505090475,64.65785580151714 11.603896103799343,68.66450308379717 11.603896103799343,73.56150974379852 14.058441556990147,78.90369043988176 16.512987012043595,81.12959648063406 20.370129868388176,82.910320217954 26.68181818164885,83.80068172304891 41.40909090824425,84.24586238455959 68.75974025763571,82.46513937576674 79.27922077849507,81.12959648063406 84.88961038924754,78.01332759927027 87.69480519369245,74.89705573790707 89.09740259498358,71.33559853653423 90.14935064688325,67.32895453600213 89.79870129749179,63.32230561343022 87.69480519369245,60.651203595567495 84.88961038924754,58.425283576594666 75.07142856903374,55.754177547292784 31.590909089893103,58.425283576594666 22.47402597218752,61.09638741775416 17.915584415197372,63.32230561343022 13.006493505090475,67.32895453600213 10.902597401291132,70.44523362978362 10.551948050037026,72.22596320253797 10.902597401291132,76.2326011848636 13.35714285634458,79.79405303811654 31.590909089893103,84.24586238455959 40.006493505090475,84.69104298460297 62.44805194623768,81.57477750629187 68.4090909063816,82.01995847094804 76.47402597218752,83.3555010012351 80.33116883039474,83.3555010012351 83.83766233734787,82.01995847094804 87.69480519369245,78.90369043988176 89.09740259498358,75.3422376154922 89.44805194623768,73.56150974379852 88.0454545430839,69.55486847832799 84.53896103613079,64.65785580151714 81.03246753104031,62.87712209508754 45.61688311584294,57.08973083598539 31.590909089893103,59.31565176532604 18.61688311584294,61.986754877259955 13.35714285634458,65.99340544221923 11.253246752545238,69.10968581074849 10.902597401291132,70.89041611342691 11.253246752545238,74.4518738007173 12.65584415383637,78.01332759927027 16.16233766078949,81.12959648063406 19.668831165879965,82.910320217954 29.48701298609376,84.69104298460297 63.85064934939146,86.47176477848552 75.42207792028785,85.1362235234119 80.68181818164885,83.3555010012351 83.83766233734787,80.23923424561508 86.64285714179277,74.00669180229306 87.34415584243834,70.44523362978362 86.99350649304688,67.32895453600213 85.240259738639,64.21267246548086 82.43506493419409,61.986754877259955 79.27922077849507,60.651203595567495 73.66883116587996,59.760835769819096 64.90259739942849,56.1993620370049 53.681818179786205,55.754177547292784 37.90259739942849,57.08973083598539 26.331168830394745,55.754177547292784 22.123376620933414,56.644546466646716 16.863636361435056,59.760835769819096 12.305194804444909,65.5482222896535 9.850649347528815,70.00005108350888 9.5,74.00669180229306 10.902597401291132,78.01332759927027 13.35714285634458,80.6844153937418 16.863636361435056,82.01995847094804 25.98051947914064,83.3555010012351 51.2272727265954,82.910320217954 62.79870129749179,84.24586238455959 68.75974025763571,85.58140400284901 76.82467532157898,85.1362235234119 81.03246753104031,83.80068172304891 85.94155843928456,79.79405303811654 88.0454545430839,76.2326011848636 88.74675324372947,72.22596320253797 88.0454545430839,68.21932029537857 86.64285714179277,64.21267246548086 83.13636363483965,59.760835769819096 80.33116883039474,57.98009938932955 68.75974025763571,57.98009938932955 57.88961038738489,55.754177547292784 41.75974025763571,57.53491514339112 36.14935064688325,59.31565176532604 28.78571428358555,58.425283576594666 24.577922077849507,58.425283576594666 18.9675324652344,60.206019713543355 14.759740259498358,63.76748906983994 11.253246752545238,68.66450308379717 10.201298700645566,73.56150974379852 10.551948050037026,75.78741943067871 11.603896103799343,77.12296451325528 15.110389608889818,80.23923424561508 18.61688311584294,82.01995847094804 25.629870127886534,83.3555010012351 37.90259739942849,83.80068172304891 44.91558441333473,82.46513937576674 49.82467532157898,82.46513937576674 59.29220779053867,80.6844153937418 70.51298701018095,82.910320217954 75.42207792028785,83.3555010012351 80.68181818164885,82.910320217954 83.48701298609376,82.01995847094804 85.94155843928456,79.34887176984921 88.0454545430839,74.89705573790707 88.39610389433801,70.44523362978362 88.0454545430839,66.43858853518032 85.94155843928456,62.431938516907394 82.78571428358555,58.870467701461166 79.27922077849507,56.644546466646716 73.66883116587996,56.1993620370049 54.383116882294416,60.206019713543355 46.66883116774261,59.31565176532604 33.694805193692446,60.651203595567495 24.928571425378323,58.870467701461166 18.61688311584294,59.31565176532604 14.759740259498358,61.5415711782407 13.006493505090475,63.76748906983994 10.902597401291132,68.66450308379717 10.902597401291132,70.89041611342691 11.603896103799343,75.3422376154922 13.35714285634458,79.34887176984921 16.16233766078949,82.01995847094804 19.668831165879965,83.80068172304891 25.98051947914064,85.1362235234119 40.35714285634458,85.1362235234119 47.370129868388176,84.24586238455959 65.6038961019367,83.80068172304891 78.2272727265954,86.47176477848552 80.33116883039474,86.02658442012034 82.08441558293998,85.1362235234119 86.29220779053867,80.6844153937418" stroke="#4DD2FF" stroke-linecap="round" stroke-linejoin="round" stroke-width="0.5"><title>2025-09-17 5.38km</title><desc>15836544109</desc></polyline></svg>