<?xml version="1.0" encoding="utf-8" ?>
<svg baseProfile="full" height="130mm" version="1.1" viewBox="0,0,100,130" width="100mm" xmlns="http://www.w3.org/2000/svg" xmlns:ev="http://www.w3.org/2001/xml-events" xmlns:xlink="http://www.w3.org/1999/xlink"><defs /><rect fill="#222222" height="130" width="100" x="0" y="0" /><text fill="#FFFFFF" style="font-size:6px; font-family:Arial; font-weight:bold;color:#0ed45e;" x="5" y="10">Morning Run</text><text fill="#FFFFFF" style="font-size:4px; font-family:Arial" x="5" y="121">Runner</text><text fill="#FFFFFF" style="font-size:6px; font-family:Arial" x="2" y="128">蓝皮书</text><text fill="#FFFFFF" style="font-size:4px; font-family:Arial" x="25" y="121">WORKOUTS INFO</text><text fill="#FFFFFF" style="font-size:3px; font-family:Arial" x="25" y="125">Type: Run</text><text fill="#FFFFFF" style="font-size:3px; font-family:Arial" x="22" y="129">Date: 2025-08-06</text><text fill="#FFFFFF" style="font-size:3px; font-family:Arial" x="47" y="125">Distance: 5.01 km</text><text fill="#FFFFFF" style="font-size:3px; font-family:Arial" x="47" y="129">Duration: 35:29min</text><text fill="#FFFFFF" style="font-size:3px; font-family:Arial" x="75" y="125">Pace: 7:05/km</text><text fill="#FFFFFF" style="font-size:3px; font-family:Arial" x="75" y="129">Elevation: 54m</text><polyline fill="none" points="9.5,71.48734838073142 9.83471074514091,69.36261408543214 11.84297520853579,66.81293101725169 10.83884297683835,67.66282560559921 10.83884297683835,71.48734838073142 12.177685951814055,76.16175872273743 16.19421487674117,80.83616204583086 22.888429751619697,84.23572369012982 32.26033058017492,83.38583362707868 50.0,83.81077868677676 55.69008264504373,82.96088850870728 78.1157024782151,82.5359433318954 84.80991735495627,79.56132547231391 87.48760330490768,77.0116507592611 88.49173553660512,75.3118664547801 89.83057851158082,74.4619739567861 89.49586776830256,73.18713477137499 90.5,69.36261408543214 89.83057851158082,66.81293101725169 88.15702479332685,62.563454596558586 84.475206611678,58.738920856965706 82.80165289342403,57.46407523355447 81.12809917330742,57.46407523355447 80.45867768675089,58.31397237419151 74.4338842984289,56.614177860319614 69.41322313994169,57.03912657639012 57.028925620019436,56.18922908650711 53.347107438370585,57.03912657639012 51.00413223169744,56.614177860319614 47.322314051911235,57.03912657639012 45.64876033179462,56.18922908650711 39.289256198331714,57.03912657639012 36.94628099165857,56.614177860319614 34.93801653012633,55.3393313663546 33.26446281187236,56.18922908650711 24.896694215014577,57.03912657639012 21.549586778506637,57.03912657639012 15.190082646906376,62.13850663532503 13.51652892678976,65.53808870050125 12.51239669509232,69.36261408543214 12.84710744023323,74.4619739567861 14.855371901765466,78.28648837655783 16.863636365160346,80.83616204583086 19.87603305839002,82.5359433318954 23.892561983317137,83.81077868677676 81.7975206617266,82.11099809757434 86.81818181835115,78.71143413265236 89.1611570250243,75.3118664547801 90.16528925485909,73.18713477137499 90.16528925485909,69.78756106109358 89.83057851158082,64.68819353170693 87.82231405004859,61.71355861588381 84.80991735495627,59.16386928176507 80.45867768675089,57.889023832045496 70.08264462836087,55.7642802556511 58.36776859499514,57.03912657639012 56.024793388321996,56.18922908650711 53.347107438370585,57.46407523355447 49.665289256721735,57.03912657639012 41.966942148283124,57.46407523355447 39.95867768675089,57.03912657639012 35.2727272734046,57.889023832045496 28.578512396663427,57.03912657639012 24.896694215014577,58.31397237419151 22.888429751619697,57.46407523355447 21.214876033365726,57.889023832045496 17.19834710843861,60.4387142106425 15.190082646906376,63.41335034486838 13.51652892678976,67.66282560559921 12.84710744023323,71.48734838073142 13.51652892678976,75.3118664547801 15.52479339018464,78.71143413265236 17.86776859499514,80.83616204583086 21.8842975217849,83.81077868677676 24.227272728458047,84.23572369012982 29.582644628360868,84.23572369012982 39.623966943472624,82.96088850870728 45.64876033179462,83.38583362707868 51.338842974975705,83.38583362707868 59.70661157183349,82.5359433318954 70.41735537163913,83.38583362707868 75.7727272734046,82.96088850870728 76.44214875996113,81.68605280434713 79.78925620019436,82.11099809757434 83.1363636367023,81.26110745500773 86.14876032993197,79.56132547231391 88.82644627988338,76.58670476987027 90.5,72.33724169177003 90.16528925485909,66.38798363646492 88.15702479332685,61.28861053939909 80.79338843002915,58.31397237419151 76.44214875996113,57.03912657639012 65.39669421687722,57.03912657639012 62.71900826506317,56.614177860319614 57.028925620019436,57.03912657639012 51.00413223169744,56.18922908650711 49.33057851344347,57.03912657639012 45.64876033179462,57.46407523355447 42.971074379980564,58.738920856965706 22.55371900834143,58.738920856965706 18.20247934013605,60.86366240447387 16.863636365160346,62.98840250028297 15.52479339018464,63.83829813171178 14.855371901765466,66.81293101725169 14.18595041334629,72.33724169177003 14.855371901765466,75.73681261856109 17.86776859499514,80.83616204583086 21.8842975217849,82.96088850870728 27.574380164965987,82.11099809757434 28.913223141804338,82.96088850870728 33.93388429842889,83.81077868677676 44.64462810009718,82.96088850870728 47.657024793326855,83.38583362707868 52.67768594995141,82.96088850870728 54.016528924927115,82.11099809757434 60.04132231324911,82.96088850870728 62.71900826506317,82.11099809757434 66.06611570343375,82.96088850870728 71.08677686005831,82.11099809757434 73.09504132345319,82.96088850870728 81.46280991844833,82.11099809757434 86.14876032993197,79.56132547231391 87.82231405004859,77.43659668928012 88.49173553660512,74.4619739567861 89.83057851158082,72.76218826090917 90.16528925485909,67.66282560559921 86.81818181835115,61.28861053939909 83.47107437998056,58.31397237419151 80.12396694160998,57.46407523355447 76.77685950510204,57.46407523355447 73.42975206486881,56.614177860319614 69.41322313994169,57.03912657639012 66.06611570343375,56.18922908650711 59.03719008155167,57.889023832045496 55.69008264504373,57.03912657639012 50.33471074514091,57.889023832045496 48.32644628174603,58.738920856965706 41.632231406867504,57.889023832045496 39.289256198331714,58.738920856965706 33.93388429842889,57.889023832045496 30.252066116780043,58.31397237419151 24.561983471736312,57.889023832045496 19.87603305839002,59.588817649753764 15.52479339018464,64.68819353170693 14.18595041334629,68.51271996134892 14.18595041334629,72.76218826090917 15.190082646906376,76.16175872273743 18.537190083414316,81.26110745500773 23.223140496760607,83.38583362707868 26.904958678409457,82.5359433318954 36.27685950510204,82.96088850870728 46.652892561629415,82.5359433318954 52.342975206673145,82.96088850870728 57.028925620019436,82.11099809757434 61.04545454494655,82.96088850870728 62.71900826506317,82.5359433318954 65.39669421687722,83.38583362707868 74.09917355328798,82.5359433318954 77.78099173493683,82.96088850870728 82.13223140500486,81.68605280434713 86.48347107507288,78.71143413265236 88.49173553660512,75.3118664547801 90.16528925485909,68.08777281292714 89.83057851158082,66.38798363646492 86.48347107507288,61.28861053939909 82.46694215014577,57.889023832045496 78.45041322335601,56.614177860319614 71.08677686005831,56.614177860319614 66.40082644671202,57.46407523355447 53.347107438370585,57.46407523355447 46.652892561629415,57.889023832045496 43.305785125121474,57.03912657639012 42.6363636367023,57.46407523355447 36.6115702483803,57.889023832045496 27.574380164965987,57.889023832045496 24.561983471736312,58.738920856965706 21.8842975217849,58.31397237419151 18.20247934013605,61.71355861588381 15.859504133462906,64.26324586174451 13.85123967193067,71.06240163743496 14.18595041334629,74.4619739567861 15.52479339018464,77.86154256178997 21.549586778506637,84.6606686336454 24.896694215014577,84.23572369012982 26.235537189990282,83.38583362707868 28.243801655247808,83.81077868677676 50.0,82.5359433318954 53.347107438370585,83.38583362707868 60.04132231324911,82.11099809757434 73.42975206486881,82.5359433318954 81.12809917330742,81.68605280434713 84.80991735495627,79.98627105518244 88.15702479332685,76.58670476987027 89.83057851158082,71.48734838073142 90.16528925485909,68.08777281292714 88.82644627988338,65.11314114579 85.81404958665371,60.86366240447387 82.80165289342403,58.31397237419151 79.45454545505345,57.46407523355447 74.09917355328798,57.03912657639012 72.0909090898931,57.889023832045496 70.08264462836087,57.03912657639012 65.39669421687722,57.889023832045496 61.38016529008746,57.03912657639012 56.359504133462906,57.03912657639012 51.673553720116615,57.889023832045496 46.987603306770325,57.46407523355447 43.640495866537094,58.31397237419151 40.62809917330742,57.46407523355447 34.60330578498542,58.738920856965706 26.570247933268547,58.738920856965706 23.557851238176227,59.16386928176507 21.549586778506637,58.738920856965706 18.537190083414316,61.28861053939909 15.190082646906376,65.53808870050125 13.85123967193067,70.21250797738321 13.85123967193067,72.33724169177003 13.85123967193067,74.03702761908062 16.19421487674117,78.71143413265236 17.86776859499514,80.41121657961048 20.210743801668286,82.11099809757434 21.8842975217849,82.11099809757434 23.557851238176227,83.38583362707868 46.987603306770325,82.5359433318954 62.04958677664399,82.96088850870728 80.79338843002915,82.11099809757434 83.80578512325883,80.83616204583086 87.82231405004859,77.43659668928012 89.1611570250243,74.88692023488693 90.16528925485909,70.63745483593084 88.82644627988338,65.53808870050125 87.15289256162941,62.563454596558586 83.80578512325883,59.16386928176507 79.11983471177518,57.46407523355447 72.0909090898931,57.03912657639012 67.40495867840946,58.31397237419151 60.04132231324911,57.03912657639012 58.03305784985423,57.889023832045496 55.35537189990282,57.889023832045496 50.669421488419175,58.738920856965706 48.995867770165205,58.31397237419151 48.32644628174603,58.738920856965706 47.657024793326855,57.889023832045496 45.314049588516355,58.31397237419151 42.6363636367023,57.889023832045496 39.623966943472624,58.738920856965706 32.59504132345319,58.31397237419151 29.917355373501778,59.16386928176507 24.896694215014577,58.738920856965706 18.537190083414316,61.28861053939909 15.52479339018464,65.53808870050125 13.85123967193067,71.06240163743496 14.18595041334629,74.4619739567861 17.86776859499514,80.83616204583086 20.88016529008746,82.5359433318954 24.561983471736312,83.81077868677676 41.632231406867504,83.38583362707868 43.305785125121474,82.5359433318954 53.347107438370585,82.96088850870728 58.03305784985423,82.11099809757434 79.78925620019436,82.5359433318954 83.47107437998056,81.26110745500773 85.81404958665371,79.13637983100489 87.82231405004859,76.58670476987027 89.49586776830256,71.06240163743496 88.15702479332685,64.26324586174451 86.48347107507288,61.71355861588381 79.78925620019436,57.889023832045496 75.43801652826369,57.03912657639012 72.0909090898931,57.889023832045496 67.07024793513119,58.31397237419151 62.3842975217849,57.03912657639012 59.70661157183349,57.889023832045496 56.69421487674117,57.03912657639012 50.33471074514091,58.31397237419151 46.652892561629415,57.889023832045496 44.64462810009718,58.738920856965706 42.971074379980564,57.889023832045496 37.95041322335601,57.889023832045496 34.60330578498542,59.16386928176507 24.561983471736312,58.738920856965706 18.20247934013605,61.28861053939909 16.19421487674117,63.83829813171178 14.5206611584872,67.66282560559921 14.18595041334629,71.06240163743496 14.855371901765466,75.73681261856109 16.863636365160346,79.98627105518244 19.206611569970846,82.11099809757434 21.8842975217849,83.38583362707868 45.314049588516355,83.38583362707868 51.673553720116615,84.23572369012982 58.36776859499514,82.96088850870728 66.40082644671202,83.81077868677676 69.74793388321996,83.38583362707868 71.08677686005831,82.5359433318954 76.77685950510204,82.96088850870728 81.46280991844833,82.11099809757434 86.14876032993197,79.56132547231391 89.49586776830256,74.88692023488693 90.5,68.08777281292714 89.49586776830256,65.11314114579 86.81818181835115,62.13850663532503 82.13223140500486,58.31397237419151 71.08677686005831,57.03912657639012 64.39256198517978,57.889023832045496 62.71900826506317,56.614177860319614 59.03719008155167,57.46407523355447 52.00826446339488,57.03912657639012 45.983471075072885,57.889023832045496 28.578512396663427,57.889023832045496 25.231404960155487,58.738920856965706 19.87603305839002,60.4387142106425 15.859504133462906,63.83829813171178 14.855371901765466,65.11314114579 13.51652892678976,68.51271996134892 13.51652892678976,72.33724169177003 16.52892562188208,78.28648837655783 18.20247934013605,79.98627105518244 21.549586778506637,82.11099809757434 27.239669423550367,83.38583362707868 39.289256198331714,83.38583362707868 42.301652893424034,83.81077868677676 49.33057851344347,83.38583362707868 51.673553720116615,83.81077868677676 59.03719008155167,82.5359433318954 65.73140496015549,82.96088850870728 74.4338842984289,82.11099809757434 80.45867768675089,82.11099809757434 84.475206611678,80.83616204583086 87.48760330490768,78.28648837655783 89.49586776830256,75.73681261856109 90.16528925485909,74.03702761908062 90.16528925485909,68.08777281292714 87.82231405004859,62.563454596558586 85.47933884337544,60.4387142106425 81.7975206617266,58.31397237419151 74.09917355328798,57.03912657639012 72.0909090898931,57.889023832045496 62.71900826506317,57.889023832045496 60.04132231324911,57.03912657639012 56.024793388321996,57.889023832045496 47.991735538467765,57.46407523355447 25.566115703433752,58.738920856965706 20.545454546809196,59.588817649753764 16.19421487674117,62.98840250028297 13.85123967193067,68.08777281292714 13.85123967193067,73.61208122456446 14.18595041334629,76.16175872273743 16.863636365160346,80.83616204583086 20.210743801668286,82.5359433318954 24.896694215014577,83.81077868677676" stroke="#4DD2FF" stroke-linecap="round" stroke-linejoin="round" stroke-width="0.5"><title>2025-08-06 5.01km</title><desc>15358410223</desc></polyline></svg>