<?xml version="1.0" encoding="utf-8" ?>
<svg baseProfile="full" height="130mm" version="1.1" viewBox="0,0,100,130" width="100mm" xmlns="http://www.w3.org/2000/svg" xmlns:ev="http://www.w3.org/2001/xml-events" xmlns:xlink="http://www.w3.org/1999/xlink"><defs /><rect fill="#FAF9F5" height="130" width="100" x="0" y="0" /><text fill="#5A5A5A" style="font-size:6px; font-family:Arial; font-weight:bold;" x="5" y="10">2025-03-20 Workouts</text><text fill="#5A5A5A" style="font-size:4px; font-family:Arial" x="5" y="121">Runner</text><text fill="#5A5A5A" style="font-size:6px; font-family:Arial" x="2" y="128">蓝皮书</text><text fill="#5A5A5A" style="font-size:4px; font-family:Arial" x="25" y="121">STATISTICS</text><text fill="#5A5A5A" style="font-size:3px; font-family:Arial" x="25" y="125">Number: 1</text><text fill="#5A5A5A" style="font-size:3px; font-family:Arial" x="25" y="129">Weekly: 1.0</text><text fill="#5A5A5A" style="font-size:3px; font-family:Arial" x="48" y="125">Total: 10.9 km</text><text fill="#5A5A5A" style="font-size:3px; font-family:Arial" x="48" y="129">Avg: 10.9 km</text><text fill="#5A5A5A" style="font-size:3px; font-family:Arial" x="75" y="125">Min: 10.9 km</text><text fill="#5A5A5A" style="font-size:3px; font-family:Arial" x="75" y="129">Max: 10.9 km</text><polyline fill="none" points="45.53813559375703,59.54200865095481 50.686440678313375,62.59227154450491 40.38983051106334,56.92749527934939 18.42372881434858,58.23475223220885 11.559322034940124,70.00004072021693 16.02118644118309,80.02228929987177 38.330508476123214,83.94403017638251 84.66525423899293,79.15079067158513 89.81355932168663,68.25703775440343 79.51694915443659,56.05599034577608 45.19491525553167,56.92749527934939 34.89830508455634,56.05599034577608 21.85593220219016,56.49174284283072 13.275423729792237,66.51403383724391 15.334745762869716,78.71504126908258 60.9830508492887,81.32953679468483 76.77118644118309,82.63678375328891 86.03813559375703,76.97204306419007 87.75423728860915,62.15651988028549 79.51694915443659,56.05599034577608 45.53813559375703,56.92749527934939 20.483050849288702,56.49174284283072 10.529661018401384,66.94978490611538 13.618644069880247,80.02228929987177 26.661016950383782,82.63678375328891 38.67372881434858,83.50828142859973 80.88983050920069,82.63678375328891 88.78389830514789,73.05029361904599 87.41101695038378,61.72076815762557 75.39830508641899,55.62023778958246 64.7584745772183,54.31297976546921 34.89830508455634,55.18448517471552 22.54237288236618,55.62023778958246 9.84322034008801,66.0782827094663 14.991525424644351,82.20103482645936 25.631355933845043,86.12277302751318 77.80084745772183,84.37977886619046 89.81355932168663,66.0782827094663 79.86016949079931,56.49174284283072 63.042372880503535,54.31297976546921 35.24152542464435,56.05599034577608 25.974576272070408,55.18448517471552 14.648305086418986,60.849264533724636 10.872881358489394,73.4860437954776 16.3644067812711,82.63678375328891 41.41949152573943,85.68702457635663 60.63983050920069,84.81552749476396 77.11440677940845,83.94403017638251 88.78389830514789,76.53629336319864 88.44067796692252,62.15651988028549 69.22033898346126,54.74873250024393 45.88135593384504,55.62023778958246 23.228813560679555,55.62023778958246 12.588983051478863,61.28501637466252 11.216101696714759,76.10054360306822 20.483050849288702,85.68702457635663 39.01694915257394,85.68702457635663 74.3686440680176,84.37977886619046 86.38135593384504,79.15079067158513 86.72457627020776,60.849264533724636 61.66949152573943,54.74873250024393 22.885593220591545,55.18448517471552 12.245762711390853,63.46377469203435 14.648305086418986,82.20103482645936 56.864406779408455,83.07253262097947 81.2330508492887,83.07253262097947 89.47033898159862,69.12853935617022 86.38135593384504,59.97776067117229 58.237288136035204,55.18448517471552 19.453389830887318,56.49174284283072 11.559322034940124,64.77102896897122 12.932203389704227,79.15079067158513 20.139830511063337,83.94403017638251 56.52118644118309,83.07253262097947 78.14406779780984,83.07253262097947 87.41101695038378,77.40779270441271 89.81355932168663,68.25703775440343 80.88983050920069,55.62023778958246 19.796610170975327,56.05599034577608 10.18644068017602,64.33527760207653 14.648305086418986,81.76528583932668 36.27118644118309,85.25127606606111 54.46186440624297,84.81552749476396 65.1016949173063,83.94403017638251 81.91949152573943,81.76528583932668 89.81355932168663,68.69278858578764 85.35169491544366,60.41351263248362 66.81779661029577,54.31297976546921 53.77542372979224,54.74873250024393 18.76694915443659,56.05599034577608 11.559322034940124,64.77102896897122 16.02118644118309,82.63678375328891 28.033898305147886,84.81552749476396 63.385593220591545,83.94403017638251 70.93644067831337,83.94403017638251 83.97881355881691,80.89378768857569 90.5,66.94978490611538 73.68220338970423,54.31297976546921 48.627118645235896,59.1062565704342 20.826271187514067,56.49174284283072 11.559322034940124,62.15651988028549 11.559322034940124,77.84354228526354 20.826271187514067,85.68702457635663 33.86864406988025,86.12277302751318 52.40254237502813,83.94403017638251 70.59322034008801,83.94403017638251 79.17372881434858,83.07253262097947 88.78389830514789,74.79329396714456 86.72457627020776,61.72076815762557 70.93644067831337,56.49174284283072 43.13559322245419,56.05599034577608 19.110169490799308,56.05599034577608 12.245762711390853,64.33527760207653 14.648305086418986,80.02228929987177 32.83898305147886,84.81552749476396 83.29237288236618,81.76528583932668 89.81355932168663,72.17879308830015 86.03813559375703,60.849264533724636 54.80508474633098,56.05599034577608 36.27118644118309,56.05599034577608 12.932203389704227,59.97776067117229 12.932203389704227,77.40779270441271 20.483050849288702,83.50828142859973 40.38983051106334,83.94403017638251 58.580508476123214,83.50828142859973 79.86016949079931,83.94403017638251 89.1271186452359,67.38553591514938 79.86016949079931,56.49174284283072 58.580508476123214,56.92749527934939 46.56779661029577,57.36324765556492 19.110169490799308,56.49174284283072 11.216101696714759,64.77102896897122 14.991525424644351,80.45803852425888 27.004237288609147,84.81552749476396 43.478813560679555,84.37977886619046 79.17372881434858,83.50828142859973 88.44067796692252,69.5642900688108 81.91949152573943,59.1062565704342 73.68220338970423,55.62023778958246 18.76694915443659,56.92749527934939 11.216101696714759,66.51403383724391 12.932203389704227,77.84354228526354 36.27118644118309,84.81552749476396 70.25,81.76528583932668 84.32203389890492,80.45803852425888 88.78389830514789,63.89952617767267 81.91949152573943,55.62023778958246 68.19067796692252,55.18448517471552 60.29661016911268,55.18448517471552 53.77542372979224,59.1062565704342 18.76694915443659,56.05599034577608 12.245762711390853,60.849264533724636 11.559322034940124,75.2290439044591 18.080508476123214,81.76528583932668 79.51694915443659,83.94403017638251 87.75423728860915,76.10054360306822 87.75423728860915,65.20678027509712 68.19067796692252,54.74873250024393 28.377118645235896,56.05599034577608 14.991525424644351,60.41351263248362 12.245762711390853,72.17879308830015 18.76694915443659,83.07253262097947 47.94067796692252,82.63678375328891 85.69491525553167,77.40779270441271 88.78389830514789,66.0782827094663 81.2330508492887,57.79899997450411 63.385593220591545,58.67050443030894 20.483050849288702,59.97776067117229 11.216101696714759,73.9217939118389 19.110169490799308,82.20103482645936 51.029661018401384,80.89378768857569 85.0084745772183,76.97204306419007 88.44067796692252,70.00004072021693 78.48728813789785,56.49174284283072 30.779661018401384,56.49174284283072 11.559322034940124,66.94978490611538 15.677966102957726,80.89378768857569 29.406779661774635,85.25127606606111 49.31355932354927,83.07253262097947 80.88983050920069,83.07253262097947 88.44067796692252,74.35754396999255 86.72457627020776,63.02802314795554 79.17372881434858,56.92749527934939 59.95338983088732,56.05599034577608 37.644067795947194,56.49174284283072 20.483050849288702,55.62023778958246 10.872881358489394,68.25703775440343 13.275423729792237,78.27929180744104 27.347457628697157,84.37977886619046 80.54661016911268,82.63678375328891 88.44067796692252,68.69278858578764 81.91949152573943,57.36324765556492 48.97033898346126,56.92749527934939 23.228813560679555,55.62023778958246 11.559322034940124,66.94978490611538 12.932203389704227,79.58654001564719 27.004237288609147,85.25127606606111 72.30932203494012,80.45803852425888 85.35169491544366,76.97204306419007 86.72457627020776,61.72076815762557 76.08474576286972,55.18448517471552 60.9830508492887,54.74873250024393 37.300847459584475,55.18448517471552 27.004237288609147,58.67050443030894 12.932203389704227,65.64253152278252 13.275423729792237,76.53629336319864 26.661016950383782,83.07253262097947 86.72457627020776,74.35754396999255 87.75423728860915,65.20678027509712 82.26271186582744,58.67050443030894" stroke="#F55605" stroke-linecap="round" stroke-linejoin="round" stroke-width="0.5"><title>2025-03-20 10.9km</title><desc>13935054814</desc></polyline></svg>