<?xml version="1.0" encoding="utf-8" ?>
<svg baseProfile="full" height="130mm" version="1.1" viewBox="0,0,100,130" width="100mm" xmlns="http://www.w3.org/2000/svg" xmlns:ev="http://www.w3.org/2001/xml-events" xmlns:xlink="http://www.w3.org/1999/xlink"><defs /><rect fill="#FAF9F5" height="130" width="100" x="0" y="0" /><text fill="#5A5A5A" style="font-size:6px; font-family:Arial; font-weight:bold;color:#0ed45e;" x="5" y="10">难得夏日冰淇淋</text><text fill="#5A5A5A" style="font-size:4px; font-family:Arial" x="5" y="121">Runner</text><text fill="#5A5A5A" style="font-size:6px; font-family:Arial" x="2" y="128">蓝皮书</text><text fill="#5A5A5A" style="font-size:4px; font-family:Arial" x="25" y="121">WORKOUTS INFO</text><text fill="#5A5A5A" style="font-size:3px; font-family:Arial" x="25" y="125">Type: Run</text><text fill="#5A5A5A" style="font-size:3px; font-family:Arial" x="22" y="129">Date: 2025-07-06</text><text fill="#5A5A5A" style="font-size:3px; font-family:Arial" x="47" y="125">Distance: 10.52 km</text><text fill="#5A5A5A" style="font-size:3px; font-family:Arial" x="47" y="129">Duration: 01:19:58</text><text fill="#5A5A5A" style="font-size:3px; font-family:Arial" x="75" y="125">Pace: 7:36/km</text><text fill="#5A5A5A" style="font-size:3px; font-family:Arial" x="75" y="129">Elevation: 8m</text><polyline fill="none" points="80.53488469216973,44.18734933223459 81.20081546786241,44.33876214839984 80.18233310477808,45.045354439353105 78.61543716164306,45.2977084890299 78.61543716164306,46.45853481325321 78.65460956050083,48.325943130097585 78.10619598021731,55.03843807076919 77.91033398732543,59.17690570652485 77.6361271974165,62.861110802099574 77.44026520429179,65.33404899938614 76.97019642149098,68.46304821991362 76.7743344285991,71.64248699741438 76.69598963134922,74.26676427840721 76.38261044281535,75.73029512824723 76.50012763845734,77.09288740722695 76.3042656457983,79.21246503017028 76.0300588554237,82.59366987692192 75.79502446390688,83.65344389018719 75.7558520657476,85.67205233071581 75.7558520657476,87.03460655757226 75.4424728769809,88.29622619197471 75.24661088385619,93.14080404036213 74.65902490518056,96.6732671611826 74.50233531091362,99.24689679319272 74.42399051366374,100.45801018251223 74.30647331802174,101.87097059632652 74.26730091962963,103.93993822755874 73.91474933223799,105.05011102449498 73.71888733957894,107.57321814302122 73.13130136067048,110.04584577155765 67.99971714685671,110.5 63.61240850598551,110.24769216694403 60.635306214215234,110.04584577155765 59.930203039664775,110.09630738111446 57.854065915104,109.94492253111093 56.01296318206005,109.89446090019192 52.33075771573931,109.69261430451297 50.254620590945706,109.59169096400728 49.07944863359444,109.84399926193873 48.60937985079363,109.64215263788356 48.37434545927681,109.18799731519539 48.021793872117996,109.2384590464062 47.55172508908436,109.2384590464062 46.21986353746615,109.28892077031196 44.966346782865,109.38984419679036 44.41793320281431,109.13753557699965 43.43862323835492,109.03661207883852 42.14593408512883,109.18799731519539 40.85324493213557,109.08707383158617 40.304831352084875,109.13753557699965 40.030624561943114,108.78430320887128 39.16883179312572,108.78430320887128 37.9153150387574,108.73384141325369 35.68248831969686,108.93568855235935 33.91973038366996,108.73384141325369 32.97959281806834,108.43107049021637 32.5095240350347,108.53199415991548 31.53021407034248,108.48153232855839 28.51393938018009,108.22922306504915 27.142905429704115,108.38060864456929 24.08745834045112,108.12829930958105 22.638079593190923,107.82552787146415 20.679459664272144,107.57321814302122 20.09187368559651,107.52275617595296 19.386770511278883,107.11906018128502 18.955874126870185,103.99040070254705 19.07339132251218,99.65060171412188 19.308425714029,94.09961892449064 19.386770511278883,84.3094928888313 19.308425714029,78.65733877735329 19.269253315404058,76.18449313391466 19.269253315404058,72.3994920446712 19.465115308528766,66.54527776673785 19.386770511278883,62.35642742642085 19.34759811265394,59.37878094587359 19.386770511278883,56.602986370184226 19.386770511278883,51.75791124560055 19.230080917011946,49.48675957840169 19.269253315404058,48.07359122738126 19.386770511278883,44.540645803295774 18.79918453237042,39.54399169172393 18.83835693099536,32.93214964287472 19.034218923887238,31.417970056732884 23.343182767741382,30.963714924786473 25.458492290927097,30.862769261118956 28.709801372839138,30.963714924786473 31.334352077450603,30.711350712022977 33.05793761508539,30.963714924786473 34.78152315248735,31.014187745779054 35.87835031282157,30.761823568871478 38.346211423166096,30.610404976730933 40.774900135118514,30.50945921303355 43.43862323835492,30.458986320416443 45.8281395516824,30.40851342055248 47.5908974877093,30.458986320416443 49.19696582923643,30.559932098403806 51.15558575838804,30.40851342055248 54.52441203617491,30.105675871454878 56.208825174951926,30.206621749675833 57.61903152382001,29.90378402872011 59.6168238511309,30.004729964304715 61.418754185782745,30.055202921415912 62.43723654886708,30.004729964304715 62.78978813625872,30.15614881415968 66.35447640670463,29.9542570002086 68.74399271979928,29.9542570002086 72.26950859208591,29.7018920716946 74.5806801081635,29.7018920716946 76.81350682699122,29.9542570002086 78.30205797310919,29.75236507167574 79.28136793756858,30.66087784798583 79.24219553894363,32.831204537680605 78.9679887490347,37.777481030876515 78.65460956050083,40.75530822057044 78.61543716164306,45.55006235992187 78.3412303715013,44.38923307284131 77.83198919007555,44.18734933223459 77.51861000154167,44.793000210804166 77.59695479855873,46.66041726566618 77.94950638571754,47.720298262982396 77.04854121850803,48.37641348928446 76.65681723272428,49.73911047933507 76.7743344285991,55.946886307763634 75.71667966688983,61.34705852883053 75.40330047835596,65.73779237968847 75.48164527537301,69.77520099806134 75.28578328271396,72.14715720768436 75.1290936882142,73.30789597638068 75.20743848523125,76.89102221353096 75.08992128958926,78.80873693205649 72.8179221721366,79.26293101030751 70.82012984459288,79.8180563187343 69.13571670581587,79.71712450895575 67.84302755258977,80.07038571833982 67.33378637116402,81.23109865261358 66.70702799363062,81.73575526976492 65.53185603651218,80.8778385949845 64.82675286196172,76.84055589706986 64.27833928191103,75.2256299975852 63.103167324792594,74.92283057572786 61.84965057019144,75.42749613567139 57.77572111808695,75.52842916169902 57.03144554514438,75.07423031891813 55.77792879054323,72.75276051572291 55.03365321760066,71.39015162395663 54.52441203617491,69.72473367315251 54.01517085451633,67.40322898354498 53.03586089005694,66.04059961455641 52.09572332398966,64.62749698176049 50.959723765263334,63.26485698722536 50.29379298957065,61.59940102157998 48.41351785790175,56.24970187150757 47.277518298942596,55.946886307763634 46.729104718891904,55.74500912200892 45.240553573006764,54.53374360411544 44.770484789973125,52.91871650167741 44.41793320281431,50.748512293735985 46.259035936091095,50.69804227093118 48.57020745216869,49.94099107128568 48.491862654918805,48.275472763954895 48.53103505354375,47.31653444565018 48.57020745216869,45.09582526353188 48.88358664070256,44.89394192371401 50.41131018521264,44.13687837921316 50.8030341709964,44.23782027803827 51.233930555405095,43.63216845484567 53.27089528157376,43.2788710820023 54.13268805015832,42.218976859294344 53.975998456124216,39.291633562592324 54.485239637317136,38.48408634727821 56.953100747894496,37.92889657386695 57.932410712353885,37.82795288579655 59.26427226397209,38.38314281668863 59.77351344563067,38.887860184011515 60.98785780160688,39.59446329597267 61.927995367208496,39.19069026096258 62.04551256308332,37.474649751675315 63.57323610782623,37.42417784666759 64.67006326769479,37.92889657386695 66.04109721793793,37.82795288579655 66.35447640670463,37.82795288579655 67.56882076268084,38.28219925711164 68.74399271979928,39.291633562592324 69.13571670581587,39.84682121043443 68.74399271979928,41.31049358510063 69.4099234957248,40.95719390781596 69.37075109733269,40.805779653048376 71.29019862762652,40.55342241865583 72.11281899758615,40.60389387977193 72.93543936801143,41.20955085605965 73.87557693384588,43.480755338066956 74.18895612237975,43.379813224222744 74.89405929669738,44.69205846922705 77.28357561002485,44.89394192371401 77.40109280589968,45.19676689070184 76.3042656457983,45.39865005880711 75.20743848523125,46.004298876272514 72.73957737488672,47.26606393637485 68.58730312576517,48.12406162219122 64.78758046356961,48.628765177272726 61.34040938876569,49.335348952008644 58.32413469813764,49.73911047933507 57.34482473367825,49.94099107128568 55.699583993293345,50.445692049950594 53.34924007882364,52.11120020257658 49.66703461227007,55.54313182202168 49.86289660516195,55.29078503587516 50.92055136687122,53.07012560378644 54.28937764465809,51.7074413659866 55.85627358779311,50.24381174441078 57.50151432794519,49.8400507895858" stroke="#89CFF0" stroke-linecap="round" stroke-linejoin="round" stroke-width="0.5"><title>2025-07-06 10.52km</title><desc>15019613796</desc></polyline></svg>