<?xml version="1.0" encoding="utf-8" ?>
<svg baseProfile="full" height="130mm" version="1.1" viewBox="0,0,100,130" width="100mm" xmlns="http://www.w3.org/2000/svg" xmlns:ev="http://www.w3.org/2001/xml-events" xmlns:xlink="http://www.w3.org/1999/xlink"><defs /><rect fill="#FAF9F5" height="130" width="100" x="0" y="0" /><text fill="#5A5A5A" style="font-size:6px; font-family:Arial; font-weight:bold;" x="5" y="10">2025-02-03 Workouts</text><text fill="#5A5A5A" style="font-size:4px; font-family:Arial" x="5" y="121">Runner</text><text fill="#5A5A5A" style="font-size:6px; font-family:Arial" x="2" y="128">蓝皮书</text><text fill="#5A5A5A" style="font-size:4px; font-family:Arial" x="25" y="121">STATISTICS</text><text fill="#5A5A5A" style="font-size:3px; font-family:Arial" x="25" y="125">Number: 1</text><text fill="#5A5A5A" style="font-size:3px; font-family:Arial" x="25" y="129">Weekly: 1.0</text><text fill="#5A5A5A" style="font-size:3px; font-family:Arial" x="48" y="125">Total: 6.8 km</text><text fill="#5A5A5A" style="font-size:3px; font-family:Arial" x="48" y="129">Avg: 6.8 km</text><text fill="#5A5A5A" style="font-size:3px; font-family:Arial" x="75" y="125">Min: 6.8 km</text><text fill="#5A5A5A" style="font-size:3px; font-family:Arial" x="75" y="129">Max: 6.8 km</text><polyline fill="none" points="85.69833797961473,43.28095243344433 84.79058588086627,43.484357359295245 84.31697608996183,43.484357359295245 83.88283378165215,43.68776216998231 83.48815895617008,43.58605977910338 83.09348413045518,43.63691097818082 82.81721175229177,43.78946453201934 81.83052468835376,43.89116686524358 81.59371979278512,43.99286916965502 81.19904496730305,43.84031570216757 80.64650021120906,43.78946453201934 79.77821559505537,43.94201802110183 79.14673587400466,43.89116686524358 78.90993097843602,43.99286916965502 78.31791873998009,44.043720310903154 78.04164636228234,44.24712480432936 77.25229671085253,44.24712480432936 77.01549181551673,44.1454225720081 76.85762188513763,43.94201802110183 76.5024145420175,44.24712480432936 75.31839006510563,44.55223132795072 74.76584530924447,44.653933445049915 74.45010544871911,44.90818861089065 74.2133005533833,46.28116339279222 74.25276803574525,46.78967123720213 74.13436558819376,47.65413291819277 74.17383307078853,48.569443014945136 74.05543062300421,49.43390040574013 74.09489810583182,50.55260687699774 73.9370281752199,51.467909576284 73.8186257276684,54.16295395808993 73.70022328011692,54.620600992493564 73.66075579728931,55.79014076056774 73.70022328011692,56.4003339081828 73.50288586714305,57.41732018024777 73.0687435590662,63.82426738226786 72.95034111128189,64.33275035326369 72.83193866349757,65.70565077359788 72.71353621594608,67.9938064625021 72.20045894267969,73.68870835265261 72.23992642527446,74.2988710491918 72.12152397725731,74.50225838396 72.16099146008492,74.90903270765557 72.08205649489537,75.26495986242662 72.12152397725731,75.67173332112725 71.96365404734388,76.84120444493601 71.96365404734388,77.75644005593495 71.68738166918047,80.2987489438674 71.64791418681853,81.41735914573655 71.45057677361183,83.04442230274435 71.37164180865511,83.24780467842356 71.33217432606034,83.65456908379565 71.21377187850885,84.1121784884308 71.2532393608708,84.31556025860482 71.1348369133193,85.2307767974853 71.17430439591408,86.55275211966364 71.1348369133193,87.77303270800621 71.17430439591408,88.38317144525354 71.0953694304917,89.24753287996282 70.97696698294021,92.04398207424674 70.81909705279395,93.416776427679 70.81909705279395,93.87437337791198 70.62175964005291,96.21319311807747 70.66122712241486,96.46741173614282 70.58229215745814,97.02669206171413 70.42442222707905,99.00958800769877 70.30601977929473,99.77223737584427 70.3454872618895,100.22982621841948 69.95081243640743,103.17871809058124 69.99027991876937,103.63630258775083 69.79294250602834,104.95821007833001 69.79294250602834,105.67000440158881 69.67454005847685,106.02590103360126 69.67454005847685,106.58516645600321 69.55613761069253,106.89021995541407 69.3588001979515,107.703694685566 69.31933271535672,108.16127341045649 69.12199530261569,109.17811293172417 69.12199530261569,109.6356897757505 69.04306033742614,109.99158247318701 68.92465788987465,110.19494957054849 68.4510480989702,110.5 67.58276348258369,110.39831655230955 65.33311697631143,110.44915827989462 63.4386778131593,110.39831655230955 62.570393196772784,110.29663307580631 61.34690123726614,110.34747481759405 58.93938480084762,110.14410780696198 57.479087946005166,110.29663307580631 55.308376404922456,110.04242425839766 53.49287220695987,110.04242425839766 52.111510317074135,109.83905707483063 49.07251415983774,109.83905707483063 48.04635961307213,109.73737343971152 44.73109107743949,109.58484793303069 43.34972918778658,109.6356897757505 42.75771694909781,109.48316422587959 41.57369247241877,109.38148049006122 40.744875338627025,109.38148049006122 40.15286309993826,109.27979672516813 39.91605820460245,109.33063861110713 37.62694421596825,109.17811293172417 36.7586595993489,109.22895483204047 35.890374982962385,109.17811293172417 35.45623267488554,109.22895483204047 33.87753337225877,109.12727102395729 33.601260994328186,109.17811293172417 31.193744557909667,108.82221942718024 30.009720080764964,108.87306137793348 28.03634595265612,108.66969353129389 27.444333714200184,108.72053550381679 25.707764481427148,108.56800956476945 25.58936203364283,108.51716757073882 24.760544899851084,108.56800956476945 23.773857835680246,108.36464154525311 23.339715527603403,108.36464154525311 23.142378114629537,108.46632556940312 22.826638254104182,108.36464154525311 21.91888615535572,108.4154835609952 21.28740643407218,108.4154835609952 20.576991748064756,108.26295749214478 19.906044544419274,108.26295749214478 19.314032305963337,108.16127341045649 18.919357480248436,108.00874723360175 17.9326704160776,107.90706307970686 17.498528108000755,107.95790516014677 15.564621462253854,107.80537889705738 14.972609223797917,107.60201044502901 14.814739293651655,107.50032617594115 14.577934398083016,106.68685098481365 14.656869363272563,106.28011269733543 14.775271810824051,104.34809953413787 14.617401880444959,103.28040358496946 14.656869363272563,102.56860451993998 14.617401880444959,102.41607596512767 14.696336845867336,101.45006027826457 14.735804328462109,99.92476705485024 14.854206776246428,98.90790130267851 14.814739293651655,98.65368441434111 14.854206776246428,97.38259726943215 14.775271810824051,97.02669206171413 14.893674258608371,96.36572431051172 14.933141741435975,95.45053618276143 15.01207670639269,95.14547295455122 15.01207670639269,94.6370336644759 14.933141741435975,94.48450173684978 15.01207670639269,94.128593653586 14.933141741435975,93.87437337791198 14.933141741435975,92.50158077586093 15.01207670639269,91.3830051413097 14.893674258608371,89.40006703443942 15.091011671582237,86.09514582870179 15.091011671582237,85.43415793334134 15.01207670639269,85.2307767974853 15.209414119133726,83.9087966028601 15.13047915417701,83.70541460200911 15.169946636771783,82.58681153584621 15.051544188987464,82.23089164684643 14.933141741435975,81.06143809630885 15.051544188987464,79.9936728287139 15.01207670639269,79.53605816952768 15.091011671582237,78.2140569857147 15.051544188987464,76.79035795369418 15.13047915417701,75.87511987736798 15.051544188987464,74.9598794656049 15.091011671582237,73.94294293565326 15.051544188987464,73.68870835265261 15.091011671582237,73.2819326450408 15.051544188987464,73.02769759338116 15.091011671582237,71.90906122565502 15.051544188987464,70.28194755318691 15.091011671582237,70.1294052680023 15.051544188987464,69.26499775948469 15.091011671582237,68.80736941154464 15.051544188987464,68.60397884732811 15.169946636771783,67.94295871685608 15.091011671582237,67.02769806337892 15.169946636771783,66.6209148010239 15.091011671582237,66.21413107722765 15.209414119133726,66.01073904230725 15.13047915417701,65.75649883635924 15.051544188987464,64.84123260312481 15.13047915417701,64.18020553776296 15.051544188987464,63.77341904563946 15.13047915417701,62.80729927797802 15.091011671582237,62.197117031086236 14.972609223797917,62.04457130713854 15.13047915417701,61.63778239287785 15.051544188987464,61.43438776250696 15.01207670639269,60.72250564850401 15.091011671582237,59.858075467607705 15.051544188987464,59.60383090018877 15.13047915417701,59.45128407329321 15.091011671582237,59.09534122457262 15.248881601728499,58.23090712176054 15.169946636771783,57.77326469428954 15.288349084323272,57.16307388260611 15.169946636771783,55.63759231133736 15.091011671582237,55.38334475213196 15.13047915417701,55.17994657478994 15.13047915417701,54.82399948700913 15.169946636771783,54.569751350732986 15.091011671582237,53.85785561060766 15.13047915417701,51.061108665016945 14.933141741435975,49.2304988540418 14.972609223797917,48.569443014945136 14.893674258608371,47.501581008167705 15.01207670639269,45.823505716136424 14.854206776246428,45.11159261400462 14.775271810824051,44.45052918235888 14.854206776246428,44.094571445166366 14.696336845867336,43.28095243344433 14.656869363272563,42.67073696310399 14.49899943289347,41.75541181094013 14.577934398083016,41.29774835871649 14.49899943289347,41.09434219243121 14.538466915488243,40.789232726732735 14.459531950531527,40.22986469892203 14.538466915488243,38.14493981716805 14.538466915488243,36.46682074177079 14.459531950531527,35.70403674786212 14.49899943289347,34.534431472595315 14.380596985341981,34.28016895157634 14.301662020152435,32.90714822226437 14.380596985341981,32.14435665655765 14.538466915488243,31.63582804464386 14.577934398083016,31.381563468341483 14.854206776246428,31.076445738668554 15.13047915417701,30.923886776552536 16.7881134217605,30.77132774941856 18.3273452417925,30.873033774842042 19.906044544419274,30.873033774842042 20.182316922349855,30.974739771074383 20.300719370134175,30.873033774842042 23.260780562413856,30.720474726025714 25.313089655712247,30.822180765826488 27.049658888485283,30.61876865749946 28.90463056927547,30.822180765826488 29.891317633213475,30.720474726025714 31.035874627530575,30.77132774941856 31.23321204050444,30.66962169544422 31.74628931377083,30.822180765826488 31.62788686598651,30.822180765826488 31.667354348581284,30.720474726025714 31.58841938362457,30.873033774842042 31.667354348581284,30.822180765826488 31.58841938362457,30.77132774941856 31.667354348581284,30.77132774941856 32.062029174063355,30.77132774941856 32.25936658727005,30.66962169544422 32.811911343131214,30.720474726025714 33.04871623846702,30.873033774842042 33.206586168613285,30.77132774941856 33.28552113380283,30.61876865749946 33.56179351173341,30.466209500678815 34.469545610714704,30.364503360033268 35.14049281436019,30.364503360033268 36.24558232608251,30.466209500678815 37.19280190765858,30.364503360033268 37.39013932039961,30.41535643397947 39.324045966146514,30.364503360033268 40.07392813474871,30.262797190487618 40.744875338627025,30.364503360033268 41.9288998155389,30.262797190487618 42.48144457140006,30.313650278840214 43.74440401350148,30.110237882268848 44.49428618210368,30.161090992303798 44.612688629888,30.059384764987044 45.63884317665361,30.262797190487618 46.112452967325225,30.161090992303798 47.57274982240051,30.211944095033687 50.53281101444736,30.00853164063301 51.40109563106671,30.00853164063301 51.79577045654878,30.059384764987044 52.19044528226368,30.00853164063301 54.71636416646652,29.957678509119432 55.90038864337839,29.855972224206198 56.966010672505945,29.906825370155275 58.26843759743497,29.80511907103937 60.95222641178407,29.906825370155275 61.820511028170586,29.754265910421964 62.215185853652656,29.80511907103937 63.16240543522872,29.652559567941353 64.82003970281221,29.70341274270322 68.4510480989702,29.550853196444223 69.39826768054627,29.652559567941353 69.99027991876937,29.550853196444223 70.93749950057827,29.5 71.49004425643943,29.601706385758007 71.96365404734388,29.550853196444223 72.35832887282595,29.652559567941353 74.48957293131389,29.652559567941353 74.9631827219855,29.906825370155275 75.04211768717505,30.059384764987044 75.16052013472654,30.77132774941856 75.16052013472654,31.534122235898394 75.08158516976982,31.991798148606904 75.00265020481311,33.87334854278015 74.84478027443402,35.042955974058714 74.88424775702879,35.95829825953115 74.80531279160641,35.95829825953115 74.92371523962356,36.36511630282621 74.88424775702879,36.92449035923346 75.00265020481311,37.0770467685652 75.00265020481311,37.22960311314091 74.9631827219855,37.43301147138118 74.92371523962356,38.246643751015654 74.80531279160641,38.70431109704077 74.88424775702879,39.51794049239834 74.84478027443402,40.53497464055545 74.7263778266497,41.196045290038455 74.56850789650343,41.65370887200697 74.64744286169298,42.77243961361819 74.45010544871911,44.094571445166366 74.48957293131389,45.56925119907828 74.37117048352957,46.78967123720213 74.17383307078853,47.65413291819277 74.25276803574525,47.857535363698844 74.13436558819376,48.060937694099266 74.33170300116763,47.09477559791412 74.48957293131389,46.84052198191057 74.45010544871911,46.586268185899826 74.48957293131389,46.02690920018358 74.64744286169298,45.51840027407161 74.64744286169298,45.21329457225511 74.52904041390866,44.75563553307438 74.41063796612434,44.55223132795072 74.48957293131389,44.501380258763675 74.48957293131389,44.348827007750515 74.48957293131389,44.39967809879454 75.31839006510563,44.603082390123745 75.83146733837202,44.653933445049915 76.06827223394066,44.75563553307438 76.2656096466817,44.704784492612816 76.69975195499137,44.348827007750515 77.09442678047344,44.29797590969247 78.00217887945473,44.45052918235888 80.96224007196724,44.1962736917485 81.94892713613808,44.24712480432936 82.50147189199924,44.1454225720081 83.5670939211268,44.1454225720081" stroke="#4DD2FF" stroke-linecap="round" stroke-linejoin="round" stroke-width="0.5"><title>2025-02-03 6.8km</title><desc>13524433550</desc></polyline></svg>