<?xml version="1.0" encoding="utf-8" ?>
<svg baseProfile="full" height="130mm" version="1.1" viewBox="0,0,100,130" width="100mm" xmlns="http://www.w3.org/2000/svg" xmlns:ev="http://www.w3.org/2001/xml-events" xmlns:xlink="http://www.w3.org/1999/xlink"><defs /><rect fill="#FAF9F5" height="130" width="100" x="0" y="0" /><text fill="#5A5A5A" style="font-size:6px; font-family:Arial; font-weight:bold;color:#0ed45e;" x="5" y="10">半个 1024</text><text fill="#5A5A5A" style="font-size:4px; font-family:Arial" x="5" y="121">Runner</text><text fill="#5A5A5A" style="font-size:6px; font-family:Arial" x="2" y="128">蓝皮书</text><text fill="#5A5A5A" style="font-size:4px; font-family:Arial" x="25" y="121">WORKOUTS INFO</text><text fill="#5A5A5A" style="font-size:3px; font-family:Arial" x="25" y="125">Type: Run</text><text fill="#5A5A5A" style="font-size:3px; font-family:Arial" x="22" y="129">Date: 2025-10-24</text><text fill="#5A5A5A" style="font-size:3px; font-family:Arial" x="47" y="125">Distance: 5.13 km</text><text fill="#5A5A5A" style="font-size:3px; font-family:Arial" x="47" y="129">Duration: 35:07min</text><text fill="#5A5A5A" style="font-size:3px; font-family:Arial" x="75" y="125">Pace: 6:50/km</text><text fill="#5A5A5A" style="font-size:3px; font-family:Arial" x="75" y="129">Elevation: 2m</text><polyline fill="none" points="87.48429319355637,46.5929622053809 83.24345549708232,48.04840110978694 81.92408376932144,48.71547562349588 77.07068062806502,50.59540730781737 74.85602094233036,51.68697676269221 68.02356020919979,54.35524595621973 65.19633507844992,55.62873221933842 56.526178010273725,59.14596035066643 48.044502617791295,62.845082955784164 40.64659685851075,65.75584552795044 38.29057591618039,66.90801692238892 34.56806282722391,68.30274657456903 27.971204188419506,71.03155234266887 25.992146596778184,71.69859111192636 20.85602094256319,73.94225935990107 17.369109947700053,75.39760546159232 14.636125654447824,76.36783345270669 12.75130890053697,77.33805924924673 10.442408376839012,78.06572715635411 9.594240837963298,78.55083840878797 9.5,78.61147727665957 9.594240837963298,79.0359491124982 9.971204188652337,79.88489152377588 10.442408376839012,80.49127793163643 10.67801047139801,80.97638644083054 11.526178010506555,83.46255893909256 15.578534031286836,93.89219873934053 15.767015706980601,94.01347212921246 15.908376963343471,93.95283543868572 16.42670157086104,93.71028859002399 16.568062827223912,93.46774160442874 16.568062827223912,93.22519448184175 15.531413612421602,90.67844141338719 14.871727748541161,88.55613563928637 11.573298429371789,80.18808483486646 11.526178010506555,79.94553020305466 11.573298429371789,79.70297543410561 11.71465968596749,79.52105926748482 15.10732984286733,78.42956064699683 19.206806282745674,76.67102924984647 21.09162303665653,75.94335897668498 23.21204188466072,74.91249064297881 30.65706806257367,72.06243000351242 34.28534031426534,70.48579257773235 41.96596858627163,67.51442167637288 43.75654450268485,66.60481422388693 44.98167539248243,66.18033008603379 46.348167539108545,65.57392344585969 47.62041884800419,65.08879751662607 47.95026178006083,65.02815673680743 48.13874345528893,65.21007905036095 48.185863874154165,65.45264201506507 48.09162303665653,66.96865743637318 47.62041884800419,69.3942709651601 47.29057591618039,72.66882747030468 47.10209424071945,74.97313002534793 46.44240837707184,79.46042052799021 46.30104712047614,80.7944708140858 45.87696335092187,82.97745324176503 45.73560209409334,84.79659677817835 45.87696335092187,85.03914866686682 46.06544502614997,85.099786617473 49.363874345552176,85.28170041818521 49.55235602101311,85.16042455975548 49.740837696241215,84.67532078246586 50.400523560121655,80.12744618978468 51.060209424002096,73.69970119613572 51.81413612538017,68.8485091170005 52.473821989493445,63.694057413289556 52.52094240835868,63.26957039471017 52.80366492131725,62.845082955784164 53.793193717254326,62.35995394006022 55.06544502614997,61.87482437546714 57.13874345528893,60.96520496302401 65.7617801045999,57.56927544489736 66.7984293194022,57.08414046143298 69.2015706805978,56.174510889075464 75.13874345528893,53.62753782226355 77.636125654215,52.778543439053465 84.18586387415417,50.11026443631272 85.92931937170215,49.321906099590706 89.65183246065862,47.86647151678335 90.3586387434043,47.502612099342514 90.45287958113477,47.320682274905266 90.5,47.13875237334287 90.0759162302129,46.168458261323394 89.93455497385003,45.98652787078754 89.46335078519769,45.98652787078754 72.35863874317147,52.89982845383929 68.82460732990876,54.415888244926464 65.57329842913896,55.62873221933842" stroke="#4DD2FF" stroke-linecap="round" stroke-linejoin="round" stroke-width="0.5"><title>2025-10-24 5.13km</title><desc>16237346677</desc></polyline></svg>