<?xml version="1.0" encoding="utf-8" ?>
<svg baseProfile="full" height="130mm" version="1.1" viewBox="0,0,100,130" width="100mm" xmlns="http://www.w3.org/2000/svg" xmlns:ev="http://www.w3.org/2001/xml-events" xmlns:xlink="http://www.w3.org/1999/xlink"><defs /><rect fill="#FAF9F5" height="130" width="100" x="0" y="0" /><text fill="#5A5A5A" style="font-size:6px; font-family:Arial; font-weight:bold;color:#0ed45e;" x="5" y="10">红山公园雪后登山</text><text fill="#5A5A5A" style="font-size:4px; font-family:Arial" x="5" y="121">Runner</text><text fill="#5A5A5A" style="font-size:6px; font-family:Arial" x="2" y="128">蓝皮书</text><text fill="#5A5A5A" style="font-size:4px; font-family:Arial" x="25" y="121">WORKOUTS INFO</text><text fill="#5A5A5A" style="font-size:3px; font-family:Arial" x="25" y="125">Type: Hike</text><text fill="#5A5A5A" style="font-size:3px; font-family:Arial" x="22" y="129">Date: 2025-11-08</text><text fill="#5A5A5A" style="font-size:3px; font-family:Arial" x="47" y="125">Distance: 2.97 km</text><text fill="#5A5A5A" style="font-size:3px; font-family:Arial" x="47" y="129">Duration: 46:50min</text><text fill="#5A5A5A" style="font-size:3px; font-family:Arial" x="75" y="125">Pace: 15:46/km</text><text fill="#5A5A5A" style="font-size:3px; font-family:Arial" x="75" y="129">Elevation: 90m</text><polyline fill="none" points="55.01582980947569,107.23953041096684 54.64428686071187,108.09754972963128 53.1581150656566,109.64198269223562 51.79579091956839,110.32839659572346 50.681162072811276,110.5 48.82344732899219,110.15679316275055 46.59418963547796,109.98518970131408 44.61262724176049,108.44075725530274 43.993388993665576,108.2691535067861 43.86954134423286,107.58273822447518 43.993388993665576,106.89632248302223 44.98417019052431,105.69509382848628 46.22264668624848,105.00867682264652 46.71803728537634,104.32225935714087 45.603408438619226,103.97905045194784 44.241084292996675,102.77781837934162 42.631064848043025,101.91979460872244 42.13567424938083,101.23337507538963 42.13567424938083,99.68892944353865 41.39258835185319,100.03213978547137 40.15411185566336,99.17411371628987 39.163330658338964,99.17411371628987 37.305615914054215,99.68892944353865 36.56253001699224,100.37535001168726 35.819444118998945,100.37535001168726 34.45711997291073,101.23337507538963 33.7140340753831,101.06177011993714 32.351709929294884,99.51732422993518 31.732471681199968,99.17411371628987 30.617842834908515,98.31608692923328 29.007823389489204,95.05557858833345 27.521651593968272,95.22718454938149 26.15932744834572,95.91360810439801 25.168546251486987,95.57039638468996 24.053917404729873,94.19754835416097 23.18698385776952,92.48148573120125 21.824659712146968,90.76542023505317 21.45311676291749,89.9073864100501 19.71924966853112,88.70613784820307 17.98538257367909,86.9900660321 17.86153492378071,86.9900660321 18.728468471206725,88.0197094664909 20.710030865389854,88.87774487200659 21.824659712146968,90.42220679129241 22.81544090854004,92.82469848537585 25.044698601588607,95.57039638468996 26.035479798913002,95.91360810439801 28.14088984252885,94.88397259922931 29.131671039853245,95.74200225883396 30.617842834908515,98.31608692923328 33.961729374248534,101.23337507538963 34.82866292167455,101.23337507538963 36.81022531585768,100.2037449129275 43.374150745105,98.48769234394422 44.86032254062593,97.45805942371953 45.23186548985541,96.42842546926113 44.36493194242939,90.76542023505317 44.36493194242939,88.70613784820307 44.98417019052431,87.33328062552027 44.61262724176049,85.61720651114592 43.74569369433448,84.41595292190323 43.25030309567228,84.41595292190323 42.01182659948245,81.8418333476875 40.40180715499446,80.2973585005384 40.03026420576498,78.75288132642163 39.41102595767006,77.89483744598692 38.42024476081133,77.2084018253372 37.181768264621496,75.49231076124124 36.81022531585768,74.29104530718178 36.6863776659593,70.68724049889715 37.553311213385314,68.28469692147337 38.42024476081133,67.7698654223932 35.819444118998945,65.53892593737692 33.34249112661928,62.44992478948552 31.856319331098348,59.875750055827666 32.351709929294884,59.18930236878805 33.837881724350154,58.15962997562019 36.1909870672971,58.6744663012214 37.553311213385314,58.6744663012214 37.305615914054215,58.50285422120942 37.429463563486934,58.15962997562019 39.03948300937191,56.786731842381414 38.91563535947353,55.928669575601816 38.17254946148023,55.5854444677243 37.553311213385314,54.55576845444739 36.6863776659593,54.21254288684577 36.06713941786438,54.38415568473283 33.837881724350154,56.10028208629228 32.351709929294884,56.95834420970641 31.11323343310505,58.331242112559266 28.760128090623766,60.39058552013012 28.760128090623766,61.24864405201515 28.38858514185995,61.763478826207574 28.760128090623766,62.96475896087941 29.7509092874825,63.99442652752623 29.7509092874825,65.36731500702444 30.122452236246318,66.56859091838123 29.7509092874825,67.7698654223932 31.36092873243615,67.25503366475459 30.989385783672333,67.59825486451155 30.865538134239614,67.08342302107485 31.36092873243615,66.56859091838123 31.48477638186887,64.85248204268282 31.36092873243615,63.4795928732492 30.989385783672333,64.33764881984098 30.865538134239614,64.16603768779896 31.11323343310505,61.24864405201515 30.865538134239614,60.905420724942815 30.246299885679036,61.07703240279807 29.62706163758412,62.44992478948552 29.7509092874825,62.79314759949921 30.865538134239614,62.96475896087941 31.36092873243615,63.65120412019314 31.23708108300343,64.68087099678814 30.122452236246318,67.59825486451155 30.246299885679036,68.97113851795439 30.122452236246318,69.4859694140614 30.122452236246318,69.14274884556653 30.741690484341234,68.97113851795439 30.865538134239614,68.45630736404564 30.493995185475796,67.59825486451155 30.617842834908515,66.7402016480919 30.865538134239614,67.08342302107485 30.989385783672333,66.7402016480919 30.741690484341234,66.39698015974136 30.122452236246318,64.50925992272096 29.255518689285964,62.96475896087941 28.760128090623766,62.44992478948552 28.38858514185995,61.763478826207574 26.2831750982441,61.5918672636617 25.911632149480283,64.16603768779896 25.663936850149184,64.50925992272096 20.957726164720953,65.8821477125748 20.710030865389854,66.56859091838123 20.957726164720953,69.3143591444823 20.710030865389854,70.51563043001806 19.84309731796384,70.68724049889715 19.59540201863274,71.37368048698409 18.852316121105105,71.88851017609704 18.728468471206725,73.08977844554465 17.98538257367909,73.4329976926092 18.356925522442907,73.77621682477184 18.356925522442907,74.29104530718178 17.73768727434799,74.9774828820955 18.852316121105105,73.26138808310498 19.71924966853112,72.74655908392742 19.84309731796384,72.23172982526012 20.586183215957135,71.03046054998413 20.710030865389854,70.00080005131895 20.338487916160375,67.7698654223932 20.214640266727656,65.02409305982292 20.710030865389854,63.82281533832429 21.700812062248588,63.136370293505024 28.760128090623766,60.562197283725254 31.856319331098348,58.50285422120942 33.2186434767209,58.50285422120942 34.085577024146914,56.61511944612721 36.43868236709386,54.55576845444739 38.17254946148023,51.8099606957403 43.374150745105,49.06414558290271 45.35571313975379,47.176393426023424 46.84188493480906,47.51962134952191 46.59418963547796,47.176393426023424 46.71803728537634,46.66155132546555 48.69959967862815,45.46025208494393 50.681162072811276,42.71441996237263 52.538876817561686,41.1698861613404 56.254306306131184,40.48342594713904 58.73125929851085,40.99827115109656 60.3412787434645,40.826656112098135 62.44668878708035,40.99827115109656 63.56131763290614,40.48342594713904 63.93286058213562,39.62535003351513 64.056708232034,39.96858048491413 64.056708232034,40.826656112098135 64.30440353089944,40.99827115109656 65.04748942889273,40.826656112098135 66.0382706252858,39.96858048491413 67.89598537003621,37.22273365210276 70.7444813111797,34.30526333313901 72.10680545680225,33.61879852140555 72.97373900422826,32.76071686134674 76.68916849279776,30.70131794497138 78.17534028785303,29.5 79.04227383527905,29.5 80.40459798136726,29.84323384228628 80.89998858002946,31.04455138510093 81.76692212698981,31.73101792036323 82.26231272565201,33.96203098498518 78.17534028785303,37.565964908571914 77.9276449889876,39.79696527356282 78.29918793775141,42.88603468530346 78.42303558764979,43.229264045658056 77.6799496896565,44.430565900867805 76.44147319393232,47.51962134952191 76.31762554403394,48.72091817657929 76.56532084289938,50.093827112577856 76.44147319393232,50.78028089052532 75.20299669727683,53.0112524953438 74.9553013984114,54.89899390703067 73.46912960289046,60.04736190568656 71.36371955927461,61.07703240279807 69.25830951565877,59.875750055827666 65.54288002708927,55.928669575601816 64.18055588146672,52.49641332530882 63.43746998347342,51.8099606957403 62.19899348728359,51.8099606957403 59.72204049490392,53.182865494978614 59.226649896707386,54.21254288684577 58.85510694794357,55.757057036214974 59.10280224727467,56.95834420970641 58.97895459737629,58.6744663012214 60.46512639289722,62.27831334184157 60.712821691762656,63.82281533832429 61.70360288908705,65.02409305982292 61.70360288908705,65.36731500702444 60.58897404232994,66.39698015974136 60.3412787434645,68.11308645026293 58.35971634928137,73.08977844554465 57.12123985262588,74.46265474380925 54.272743911948055,75.32070149708306 53.03426741575822,76.69357480749022 51.54809562023729,77.89483744598692 50.928857372142375,77.89483744598692 49.81422852538526,77.55161969322944 47.95651378156617,78.2380550847156 48.82344732899219,79.09609867696417 49.071142627857625,79.78253303450765 48.20420908089727,82.69987392378971 46.96573258424178,85.10238371649757 45.23186548985541,89.9073864100501 44.98417019052431,92.48148573120125 44.61262724176049,94.540760534117 45.35571313975379,96.60003120085457 46.09879903681576,97.28645383665571 48.08036143099889,97.45805942371953 50.06192382518202,97.11484822054626 50.55731442337856,97.28645383665571 51.05270502157509,98.48769234394422 50.928857372142375,99.17411371628987 50.18577147461474,100.5469550814596 49.071142627857625,101.23337507538963 48.57575202919543,102.26300420326879 48.69959967862815,102.60621368291322 50.805009722709656,103.63584143243497 50.928857372142375,104.15065491909627 50.06192382518202,105.00867682264652 48.82344732899219,105.35188538307557 47.337275533005595,105.00867682264652 46.71803728537634,104.49386376672192 44.73647489119321,104.32225935714087 43.25030309567228,102.60621368291322 42.01182659948245,102.09139942022739 41.76413130061701,100.71856012317585" stroke="#4DD2FF" stroke-linecap="round" stroke-linejoin="round" stroke-width="0.5"><title>2025-11-08 2.97km</title><desc>16390994761</desc></polyline></svg>