<?xml version="1.0" encoding="utf-8" ?>
<svg baseProfile="full" height="130mm" version="1.1" viewBox="0,0,100,130" width="100mm" xmlns="http://www.w3.org/2000/svg" xmlns:ev="http://www.w3.org/2001/xml-events" xmlns:xlink="http://www.w3.org/1999/xlink"><defs /><rect fill="#222222" height="130" width="100" x="0" y="0" /><text fill="#FFFFFF" style="font-size:6px; font-family:Arial; font-weight:bold;color:#0ed45e;" x="5" y="10">飞天马节气跑—迎小暑</text><text fill="#FFFFFF" style="font-size:4px; font-family:Arial" x="5" y="121">Runner</text><text fill="#FFFFFF" style="font-size:6px; font-family:Arial" x="2" y="128">蓝皮书</text><text fill="#FFFFFF" style="font-size:4px; font-family:Arial" x="25" y="121">WORKOUTS INFO</text><text fill="#FFFFFF" style="font-size:3px; font-family:Arial" x="25" y="125">Type: Run</text><text fill="#FFFFFF" style="font-size:3px; font-family:Arial" x="22" y="129">Date: 2025-07-07</text><text fill="#FFFFFF" style="font-size:3px; font-family:Arial" x="47" y="125">Distance: 5.02 km</text><text fill="#FFFFFF" style="font-size:3px; font-family:Arial" x="47" y="129">Duration: 39:37min</text><text fill="#FFFFFF" style="font-size:3px; font-family:Arial" x="75" y="125">Pace: 7:53/km</text><text fill="#FFFFFF" style="font-size:3px; font-family:Arial" x="75" y="129">Elevation: 9m</text><polyline fill="none" points="43.46752332476899,59.26594671822386 43.75154404947534,63.535567715007346 43.75154404947534,68.0491440098267 40.91133680008352,71.70878307835665 38.73384457454085,74.75847040844383 37.0297202244401,77.07622554752743 36.0829844744876,79.27198781358311 35.04157514916733,80.9797990344814 33.05343007436022,83.05356524372473 30.118549249134958,86.22519801126327 31.065284999087453,85.49328379536746 33.716145099140704,83.17555133561837 34.66288084955886,83.05356524372473 36.0829844744876,83.78548153588781 37.503088099416345,88.42093692341587 37.21906737424433,91.9585044918349 37.31374094961211,94.03224423405482 37.21906737424433,95.61804184009088 37.31374094961211,96.47193164774217 37.0297202244401,98.6676444040495 36.93504664953798,99.76549868041184 37.0297202244401,100.6193843713263 37.124393799807876,103.91293552448042 37.21906737424433,105.98664644744713 37.7871088241227,107.32845673372503 37.976455974858254,105.13276608462911 37.976455974858254,102.57111990993144 37.976455974858254,100.86335155571578 38.16580312466249,98.91161214222666 38.16580312466249,97.81375677598407 38.07112954929471,96.22796321776696 38.07112954929471,94.39819778705714 38.35515027446672,92.93438264052384 38.35515027446672,89.03086340409936 38.16580312466249,86.71314047608757 38.07112954929471,85.12732645380311 38.16580312466249,82.80959300795803 37.976455974858254,80.61383977241348 39.01786529971287,78.54006768122781 40.43796892510727,77.32019940949976 41.66872539976612,75.73436807026155 44.22491192445159,72.68468420044519 45.45566840004176,71.09884431492537 46.11838342482224,70.00095345068257 47.44381347484887,68.17113222979242 48.57989637507126,65.48738739767577 49.431958550121635,64.5114781098091 50.75738860014826,62.6816452111816 51.89347150037065,61.58374360302696 53.40824870020151,60.363851284259 55.11237305030227,58.899978218076285 56.05910880025476,58.16804075037362 57.00584455067292,57.68008209276013 58.80464247567579,56.33819435694022 59.846051800530404,55.85023466107668 62.59158547595143,53.89839311002288 63.82234195107594,53.04446103860391 66.47320205112919,50.97062247892609 68.36667355103418,50.36066900967853 69.40808287635446,48.28682397888042 68.46134712640196,48.77478796534706 65.5264663011767,50.72664114320651 63.44364765100181,51.94654713006457 62.78093262622133,52.43450904020574 60.224746100604534,53.77640286600217 59.18333677574992,54.26436373835895 57.00584455067292,55.48426470765844 55.30172020057216,56.82615377585171 54.35498445061967,57.68008209276013 49.526632125489414,61.58374360302696 47.25446632504463,64.63346683152486 45.73968912521377,62.92562315572286 45.55034197540954,60.85180841968395 45.45566840004176,59.75390447617974 45.55034197540954,56.9481435874477 45.26632124977186,54.87431443942478 44.88762694969773,52.19052811956499 44.88762694969773,49.14076077344362 45.83436270011589,46.578947845846415 46.11838342482224,44.01712728833081 47.159792750142515,39.38143259799108 48.295875649899244,37.0635758836288 49.431958550121635,37.91752382094273 49.71597927529365,39.869401636649854 51.041409325320274,40.72334678826155 53.40824870020151,40.23537823400693 56.43780310032889,40.11338605225319 58.331274600699544,38.771470910229255 59.467357500921935,37.795531310199294 60.88746112585068,36.94158325175522 58.89931605057791,35.23368459154153 55.4910673503764,33.525782540033106 54.26031087525189,32.54983698774595 51.60945077519864,30.719936093024444 49.810652850195765,30.35395544662606 47.822507774923,29.5 46.87577202543616,30.35395544662606 46.21305699972436,33.03780990233645 45.64501554984599,35.23368459154153 45.07697409950197,39.7474094030913 44.31958549981937,43.40716888784664 43.94089119974524,44.50509369710926 43.46752332476899,45.846999893838074 43.08882902516052,47.55487747996813 43.08882902516052,48.652796994603705 42.61546114971861,52.312518588325474 43.08882902516052,54.26436373835895 43.46752332476899,56.82615377585171 43.56219689967111,60.85180841968395 43.656870475038886,63.16960103128804 43.94089119974524,67.92715577298077 41.95274612447247,70.7328808492166 39.96460104966536,73.29462183918804 37.976455974858254,75.85635519993957 35.70429017441347,79.881920781394 31.53865287452936,84.76136895630043 30.970611424650997,86.34718365361914 32.01202074950561,84.88335480634123 33.242777224164456,83.41952346777543 34.094839399214834,83.05356524372473 35.04157514916733,83.17555133561837 37.21906737424433,85.49328379536746 37.21906737424433,87.56703912379453 37.40841452451423,92.3244589274982 37.31374094961211,101.4732692145044 37.124393799807876,105.37673198903212 37.124393799807876,106.59656047343742 37.0297202244401,107.45043938339222 37.0297202244401,108.18233491719002 36.93504664953798,110.13405329687521 37.69243524922058,109.89008874160936 37.7871088241227,108.42629995680181 37.7871088241227,106.84052596281981 37.7871088241227,103.42500281590037 38.07112954929471,101.22930220258422 38.35515027446672,100.37541711743688 38.260476699564606,98.91161214222666 38.260476699564606,97.9357407746138 38.07112954929471,96.47193164774217 37.976455974858254,95.00812002993189 38.4498238498345,93.54430592095014 38.35515027446672,91.22659515438136 38.16580312466249,88.29895157524152 38.260476699564606,84.88335480634123 37.976455974858254,81.83370337320957 37.881782399490476,80.12589384766761 38.92319172434509,78.41808093176223 41.10068394988775,75.73436807026155 42.142093274742365,74.27052116184495 42.99415544979274,73.1726343461196 44.22491192445159,71.8307707788772 46.686424874700606,68.65908493573079 47.63316062511876,67.68317924637813 49.431958550121635,64.63346683152486 50.09467357536778,62.80363419203786 52.84020725032315,60.48584059398854 55.964435225352645,57.92406145622954 61.55017615063116,54.38635391299613 64.29570982605219,52.67848989152117 65.90516060078517,52.06853763340041 67.98797925096005,50.72664114320651 69.78677717642859,48.53080600668909 68.27199997613207,48.53080600668909 62.02354402607307,52.800480291305576 57.857906725723296,55.2402846525074 56.24845595052466,56.09421454381663 53.88161657564342,57.68008209276013 52.461512950249016,58.65599913150072 49.053264250047505,61.94971096160589 47.44381347484887,64.26750061521307 46.686424874700606,64.5114781098091 45.73968912521377,62.07170004642103 45.64501554984599,60.973797660379205 45.64501554984599,58.65599913150072 45.45566840004176,47.920850807393435 45.55034197540954,46.578947845846415 46.11838342482224,43.773143980361056 47.0651191752404,39.7474094030913 48.295875649899244,36.94158325175522 48.674569949973375,36.81959060294321 49.62130570039153,37.30756109504728 51.51477720029652,37.30756109504728 51.89347150037065,35.72165598353604 51.79879792500287,33.28179625584744 50.28402072517201,31.81787709722994 49.431958550121635,32.79382347967476 49.90532642509788,33.891761836363 49.053264250047505,35.35567746544257 48.86391709977761,38.03951631428208 50.66271502524614,40.47936254570959 52.55618652468547,40.35737039858941 53.692269425373524,40.23537823400693 55.39639377547428,40.11338605225319 57.479212425649166,38.52748611412244 59.08866320038214,37.795531310199294 60.31941967597231,38.03951631428208 60.88746112585068,37.0635758836288 60.224746100604534,36.08763434557477 58.80464247567579,34.98969879181823 56.43780310032889,34.257740977511276 51.98814507573843,31.329903490492143 47.822507774923,29.743987357011065 46.97044559987262,31.08591658330988 46.87577202543616,32.67183024249971 46.023709849920124,34.37973398971371 45.36099482467398,36.57560525304871 45.26632124977186,38.16150879015913 44.31958549981937,40.967330961546395 44.22491192445159,43.041193640441634 43.46752332476899,46.700939110829495 42.71013472462073,49.26275167486165 42.42611399944872,51.70256607083138 43.37284974986687,56.33819435694022" stroke="#4DD2FF" stroke-linecap="round" stroke-linejoin="round" stroke-width="0.5"><title>2025-07-07 5.02km</title><desc>15030018030</desc></polyline></svg>