<?xml version="1.0" encoding="utf-8" ?>
<svg baseProfile="full" height="130mm" version="1.1" viewBox="0,0,100,130" width="100mm" xmlns="http://www.w3.org/2000/svg" xmlns:ev="http://www.w3.org/2001/xml-events" xmlns:xlink="http://www.w3.org/1999/xlink"><defs /><rect fill="#222222" height="130" width="100" x="0" y="0" /><text fill="#FFFFFF" style="font-size:6px; font-family:Arial; font-weight:bold;color:#0ed45e;" x="5" y="10">山海步道—三小时串连家乡 10 年路</text><text fill="#FFFFFF" style="font-size:4px; font-family:Arial" x="5" y="121">Runner</text><text fill="#FFFFFF" style="font-size:6px; font-family:Arial" x="2" y="128">蓝皮书</text><text fill="#FFFFFF" style="font-size:4px; font-family:Arial" x="25" y="121">WORKOUTS INFO</text><text fill="#FFFFFF" style="font-size:3px; font-family:Arial" x="25" y="125">Type: Run</text><text fill="#FFFFFF" style="font-size:3px; font-family:Arial" x="22" y="129">Date: 2025-06-26</text><text fill="#FFFFFF" style="font-size:3px; font-family:Arial" x="47" y="125">Distance: 22.24 km</text><text fill="#FFFFFF" style="font-size:3px; font-family:Arial" x="47" y="129">Duration: 03:00:51</text><text fill="#FFFFFF" style="font-size:3px; font-family:Arial" x="75" y="125">Pace: 8:08/km</text><text fill="#FFFFFF" style="font-size:3px; font-family:Arial" x="75" y="129">Elevation: 139m</text><polyline fill="none" points="55.311505140562076,87.88525893646874 53.43581043818267,85.86878923755285 51.488999349065125,84.09873690707172 50.715608642378356,83.60580427753303 49.16882722906303,82.88880617901305 48.528779747663066,82.30624070093472 48.26209329708945,81.8245008001104 48.013185943244025,81.12989420091617 47.862063621287234,79.72946014119225 47.799836782796774,79.63983156342874 47.70205175090814,78.38502139538468 46.80420736735687,76.07701784790697 46.62641640030779,75.39356768816651 46.40417769149644,73.768950640595 46.35084040137008,72.63730219707213 46.484183626656886,71.64009434841864 46.875323754153214,70.41877865714923 47.70205175090814,68.83888512360863 47.94206955644768,68.16658095434104 48.15541871689493,67.37101404188434 48.30654103885172,66.08240369676787 48.27098284551175,65.14114533585962 48.13763962016674,64.42398900042463 47.88873226632131,63.47150623790367 47.38202801026637,62.33971850373928 47.150899753090926,61.46565413123608 46.92866104427958,60.232983725385566 46.875323754153214,59.42613507858914 46.91088194755139,58.204641068106866 47.65760400914587,51.52533085671166 47.728720396000426,51.04341368450696 47.73760994436452,51.088243306025106 47.82650542783085,51.06582849827828 48.47544245759491,50.28130644202611 48.75990800483851,50.12440114765923 49.07104219717439,49.799382101577066 50.37780580500839,49.082094219877035 50.85784141602926,48.734655690590444 51.168975608365145,49.4071160534877 51.13341741496697,49.62006070787902 51.86236037983326,49.94508045083785 52.49351831286913,50.40458896675409 52.68019882822409,50.66236093131738 52.66241973155411,51.09945070766844 52.72464656998636,51.17790247701487 52.92021663376363,51.23393941005634 53.35580450302223,51.09945070766844 53.16023443930317,50.58390867838898 53.30246721289586,50.43821144198591 53.338025406352244,50.61753108150879 53.37358359969221,50.651153471109865 53.40914179314859,50.60632361531316 53.26690901949769,50.314928966785374 53.275798567861784,50.090778546305955 53.62249095359584,49.19417085689929 53.60471185686765,48.611370704216824 53.71138643712038,48.555332013973384 53.73805508215446,48.36480018628208 53.675828243664,47.93890394298069 53.5424850184354,47.725955008027086 53.4002522447845,47.69233144242753 53.231350826099515,47.37851084479189 53.20468218100723,47.1767684101942 53.34691495465813,46.8069060161215 53.124676245846786,46.63878620536707 53.062449407356326,46.47066605660075 53.080228504084516,46.15684087464615 52.955774827161804,46.112008609692566 52.78687340847682,45.921471215377096 52.76909431174863,45.67489276654669 52.333506442490034,45.49556252894399 52.12904683040688,45.31623190677783 51.791243993036915,45.52918697777204 50.87562051269924,46.38100183907227 50.2266834830516,46.84052993772639 49.577746453287546,46.90777774035814 48.85769303678535,47.09831288753776 47.755389041034505,46.829321965364215 47.6220458157477,47.00864934294077 47.42647575197043,47.14314462377661 47.32869072014,47.15435255409102 47.12423110799864,47.33367923471087 46.43973588489462,46.70603417020902 42.49277641647495,44.16178182033036 41.53270519437501,43.365986559067096 41.10600687348051,42.86160535975796 40.80376222945051,42.44688965015666 40.43929074704647,41.662286735394446 40.16371474816697,40.73196231104521 39.825911910738796,38.72556476605678 39.6659000403597,37.97455441945931 39.54144636343699,37.694324950170994 39.30142855795566,37.32442061257461 37.69242030614987,35.59817873262364 37.470181597338524,35.306731781805865 36.85680276103085,33.99520793092961 36.776796825870406,33.658916450127435 36.87458185770083,33.468350677248964 36.847913212666754,33.24415509420942 36.6345640522195,32.88544091091171 36.607895407185424,32.75092269539164 36.52788947196677,32.6948733750105 36.36787760164589,32.246477459520975 36.198976182960905,32.0334885571574 36.62567450385541,31.663559174012335 36.6345640522195,31.293628154016915 36.73234908410814,30.934905601665378 36.563447665423155,30.65465253667935 36.51011037529679,30.351978171267547 36.32342985988362,29.937200409302022 35.69227192684775,29.5 35.558928701560944,29.63452344639518 35.621155540051404,29.84751846049039 35.594486895017326,29.937200409302022 35.03444534877781,30.04930271005287 34.88332302682102,30.206245678578853 34.93666031694738,30.217455879399495 34.91888122021919,30.150194652247592 35.07889309054008,30.04930271005287 35.274463154317345,30.015672035631724 35.256684057589155,30.206245678578853 35.363358637841884,30.318347618595 35.41669592796825,30.30713743137312 35.55003915325506,30.587391661319998 35.621155540051404,30.57618151013594 35.67449283017777,30.65465253667935 35.73671966861002,30.923695497120207 35.81672560382867,30.979746004886692 35.74560921697412,31.10305698972661 35.95895837742137,31.38330855161621 36.04785386094591,31.708399186456518 36.207865731325,31.898968970876012 36.37676715000998,31.775659159953648 36.412325343466364,31.7980791391019 36.207865731325,31.9438088570314 36.19008663459681,32.145588047103956 36.37676715000998,32.52672518853797 36.43010444013635,32.795762124616886 36.70568043901585,33.53560923493933 36.7856863742345,33.60286773849657 36.73234908410814,33.647706710820785 35.86117334559094,31.58508909442753 35.65671373344958,31.30483820896916 35.363358637841884,31.058216652636474 35.13223038066644,30.95732580631011 35.17667812242871,30.733123489604623 34.678863414679654,30.30713743137312 34.26994419051334,30.643442394546582 34.14549051353242,30.430449408304412 33.99436819157563,30.284717052396445 33.91436225641519,30.284717052396445 33.82546677289065,30.150194652247592 33.834356321254745,30.026882261925493 33.772129482764285,30.026882261925493 33.73657128936611,30.116564018375357 33.9054727081093,30.284717052396445 33.96769954654155,30.262296667380724 34.08326367510017,30.430449408304412 34.23438599711517,30.4640799158733 34.181048706988804,30.553761203300382 34.3232814805815,30.67707281645562 34.19882780365879,30.834014606494748 34.19882780365879,30.923695497120207 34.909991671855096,30.84522472309618 35.3455795411719,31.002166197489714 35.576707798289135,31.170317450254515 35.87006289389683,31.60750912468211 36.092301602708176,32.07832837118622 36.25231347308727,32.63882401709998 36.59900585882133,33.501979962864425 37.49685024243081,35.39640787487588 38.261351400695276,36.25953535267763 38.794724301900715,36.775165698440105 39.488109073310625,37.6382789435811 39.6836791371461,38.15390078697237 40.03037152282195,40.16031204887986 40.04815061955014,40.44053325396089 40.33261616679374,40.87767645872373 40.537075778935105,41.85283383436763 40.74153539101826,42.256343904839014 41.8438393867109,43.56773818694637 42.35054364276584,43.97123998254392 44.02177873306209,45.02481882557913 44.768500794656575,45.562811413095915 46.34195085300598,46.51549812933081 46.466404529928695,46.73965813238465 46.919771495915484,47.13193669197062 47.27535343001364,47.55783704476926 47.559818977315444,48.0061508624276 47.79094723443268,48.6449939003287 47.88873226632131,49.4071160534877 47.83539497619495,49.90025021656038 47.728720396000426,50.20285383162263 47.78205768606858,50.359758978804166 47.542039880587254,51.77189205713512 47.48870259046089,52.735715230075584 47.408696655300446,53.083137138826714 47.417586203606334,53.60987082866632 47.31091162341181,54.10298021286144 47.28424297837773,54.84263883836684 46.97310878604185,57.07278207264608 46.830876012390945,59.59422918850032 46.95532968931366,60.65881737370364 47.195347494853195,61.757009936802206 47.98651729820995,63.841294951183954 48.119860523496754,64.48001706051582 48.226535103691276,65.39887189227011 48.253203748725355,65.90311720637692 48.14652916853083,67.15811457092786 47.92429045971949,68.12176048432593 47.6220458157477,68.92852527130162 47.133120656362735,69.74648718285607 46.86643420578912,70.36275457391457 46.67086414207006,71.29274949796672 46.68864323874004,71.96502854825667 47.51537123549497,74.3291669786995 48.288761942181736,75.85293644341436 49.559967356559355,78.7099294048312 49.68442103348207,79.22529814267182 49.97777612908976,79.7854779535337 49.9333283873857,79.9535311656 50.04000296758022,80.33445053022297 50.440032643440645,80.90582632619044 50.49336993356701,81.12989420091617 50.58226541709155,81.27553799778252 50.60004451381974,81.23072454884095 50.804504125902895,81.7684843526149 51.000074189621955,81.89172048764885 52.200163217203226,83.53858596672217 53.88028785580536,85.73435619693919 54.8403590778471,86.77620661400579 55.34706333396025,87.45956382322765 55.82709894498112,87.96367622116668 56.09378539555473,88.44538078693586 56.280465910967905,88.63582136220793 56.35158229776425,88.94948724754067 58.733981256198604,92.17569670465309 58.72509170783451,92.24290807944635 59.18734822218539,92.8926152534259 60.59189686179161,94.38244197486347 62.032003694970626,95.6146094556243 62.14756782352924,95.56980368319637 62.360916983976495,95.72662378185487 62.68983027304057,96.17467958783527 62.84095259499736,96.24188775191578 63.481000076339114,96.85796007491444 63.70323878515046,97.0035765069988 63.83658201043727,97.04838151203148 64.16549529944314,97.56363734676415 64.76109503908083,98.10129222794785 64.8055427808431,98.31411299786123 64.76998458744492,98.44852583693864 64.88554871606175,98.414922647411 64.92110690945992,98.47092795580829 65.10778742481489,98.5045311228605 65.10778742481489,99.00857701017958 65.27668884355808,99.04217996143416 65.41892161720898,99.32220403072279 65.57004393916577,99.47901710039878 66.03230045351665,99.56862443689897 65.94340496993391,100.06146307335439 66.1123063886771,100.16227061885729 66.26342871063389,100.44229094171897 65.952294518298,100.61030268587638 65.60560213256394,100.35268454031029 65.45447981060715,100.52069646426389 65.3922529721167,100.5318972472378 65.84561993810348,100.83431782027765 65.77450355124893,101.33834968111478 65.88117813150166,101.59596479373431 65.6767185194185,101.74157298502541 65.6767185194185,102.22319827516185 65.36558432708262,102.72722177475225 65.65893942269031,103.4440499700795 65.01889194134856,104.09367022100923 64.8055427808431,104.46327949347324 64.53885633026948,104.67608409194509 64.23661168629769,105.05689097098366 64.0765998159768,105.16889266464568 63.516558269795496,105.79609938027716 63.223203174129594,106.22170126164565 63.223203174129594,106.41210140289331 63.178755432367325,106.41210140289331 63.23209272249369,106.35610140629433 63.16986588406144,106.35610140629433 62.69871982134646,106.75930054588389 62.45870201586513,107.10649824920984 62.574266144423746,107.71129081045365 62.80539440159919,107.96888631556067 62.903179433429614,108.24888053101313 63.18764498073142,108.57367264799541 63.40099414123688,108.95446180151339 63.481000076339114,109.23445272140088 63.44544188294094,109.89522758044768 63.3654359477805,110.15281636721193 63.29431956098415,110.26481124472775 63.12541814229917,110.37680597250437 62.99207491701236,110.36560650647152 62.82317349826917,110.48880055043992 62.592045241151936,110.5 61.83643363113515,110.39920490003715 61.64086356741609,110.48880055043992 61.54307853552746,110.44400273725478 61.436403955332935,110.23121279720363 61.47196214873111,109.85042944968154 61.089711569598876,109.27925118167332 61.160827956395224,108.95446180151339 61.68531130917836,108.2824797739595 61.845323179557454,107.9912858872558 61.87199182459153,107.78968952633295 62.09423053340288,107.58809268004552 62.556487047695555,106.94969946470519 62.69871982134646,106.84890009100491 62.85873169172555,106.55770121878595 63.18764498073142,106.35610140629433 63.24987181922188,106.38970140873425 63.18764498073142,106.43450139104971 63.649901495082304,105.70649870857596 64.54774587863358,104.66488386340643 64.77887413580902,104.28407520151814 65.0900083281449,103.91446513800474 65.26779929519398,103.58965494732547 65.16112471494125,103.46645075231208 64.91221736109583,102.86162752888049 64.53885633026948,102.368805375605 64.43218175007496,102.08879149616405 64.44996084674494,101.8647797183221 64.53885633026948,101.7303723639343 64.3699549115845,101.42795502759691 64.26328033138998,100.92392370620655 63.481000076339114,98.76215495556244 63.240982270857785,98.3589173015207 63.089859948842786,97.82126407487522 62.574266144423746,96.72354468200501 62.16534692019923,96.11867274321412 61.70309040590655,95.69301949970395 61.57863672898384,95.49139352368366 60.95636834431207,94.88651268183457 60.68968189373845,94.74089256714797 60.298541766242124,94.41604678308067" stroke="#FFFF00" stroke-linecap="round" stroke-linejoin="round" stroke-width="0.5"><title>2025-06-26 22.24km</title><desc>14917190794</desc></polyline></svg>