<?xml version="1.0" encoding="utf-8" ?>
<svg baseProfile="full" height="130mm" version="1.1" viewBox="0,0,100,130" width="100mm" xmlns="http://www.w3.org/2000/svg" xmlns:ev="http://www.w3.org/2001/xml-events" xmlns:xlink="http://www.w3.org/1999/xlink"><defs /><rect fill="#222222" height="130" width="100" x="0" y="0" /><text fill="#FFFFFF" style="font-size:6px; font-family:Arial; font-weight:bold;color:#0ed45e;" x="5" y="10">8 月好Run</text><text fill="#FFFFFF" style="font-size:4px; font-family:Arial" x="5" y="121">Runner</text><text fill="#FFFFFF" style="font-size:6px; font-family:Arial" x="2" y="128">蓝皮书</text><text fill="#FFFFFF" style="font-size:4px; font-family:Arial" x="25" y="121">WORKOUTS INFO</text><text fill="#FFFFFF" style="font-size:3px; font-family:Arial" x="25" y="125">Type: Run</text><text fill="#FFFFFF" style="font-size:3px; font-family:Arial" x="22" y="129">Date: 2025-08-01</text><text fill="#FFFFFF" style="font-size:3px; font-family:Arial" x="47" y="125">Distance: 5.04 km</text><text fill="#FFFFFF" style="font-size:3px; font-family:Arial" x="47" y="129">Duration: 31:15min</text><text fill="#FFFFFF" style="font-size:3px; font-family:Arial" x="75" y="125">Pace: 6:12/km</text><text fill="#FFFFFF" style="font-size:3px; font-family:Arial" x="75" y="129">Elevation: 59m</text><polyline fill="none" points="15.839130433276296,82.07219654344954 21.47391304373741,85.20200886647217 24.291304348036647,83.86066109430976 29.221739130094647,83.41354504739866 30.982608694583178,82.51931277289987 32.74347826093435,83.41354504739866 37.67391304299235,82.51931277289987 39.78695652075112,82.9664289408829 44.013043478131294,82.51931277289987 46.47826087102294,83.41354504739866 48.943478260189295,82.9664289408829 51.056521739810705,83.86066109430976 55.282608695328236,82.9664289408829 62.32608695700765,84.3077770783566 65.8478260859847,82.9664289408829 70.77826086990535,82.9664289408829 74.65217391215265,82.07219654344954 82.40000000037253,82.07219654344954 88.03478261083364,78.49526451178826 90.14782608672976,73.57697659195401 90.14782608672976,67.76444498007186 88.73913043551147,66.87020843173377 86.27391304448247,60.61054575792514 79.58260869793594,55.69223097828217 71.48260869458318,57.03359028673731 64.43913043662906,56.13935080799274 50.352173913270235,57.03359028673731 46.47826087102294,56.13935080799274 41.54782608523965,57.03359028673731 39.78695652075112,56.13935080799274 34.50434782542288,57.92782952077687 22.17826087027788,56.58647057879716 17.599999997764826,57.92782952077687 16.54347826167941,59.26918791490607 13.373913042247295,60.61054575792514 9.852173913270235,66.87020843173377 9.5,69.10579934413545 10.20434782654047,72.68274163012393 11.613043477758765,78.04814773378894 14.078260868787766,81.17796390154399 16.54347826167941,82.51931277289987 33.79999999888241,83.86066109430976 37.32173913158476,82.9664289408829 39.43478260934353,83.41354504739866 43.66086956486106,82.07219654344954 63.03043478168547,82.51931277289987 67.60869565419853,81.17796390154399 73.24347826093435,82.07219654344954 80.639130435884,81.62508025346324 84.16086956486106,79.83661448233761 85.92173913121223,78.04814773378894 89.0913043487817,73.12985914107412 89.44347826205194,71.34138873056509 89.79565217345953,68.21156316203997 87.68260869570076,61.95190305239521 83.80869565159082,58.37494904687628 78.87826086953282,56.13935080799274 72.18695652298629,56.13935080799274 59.860869564116,55.245111087104306 58.09999999962747,57.03359028673731 48.943478260189295,56.13935080799274 34.15217391401529,56.58647057879716 33.09565217420459,57.03359028673731 22.53043478168547,57.03359028673731 17.24782608821988,58.82206851080991 12.669565215706825,62.84614094393328 10.908695651218295,65.52885315124877 10.20434782654047,71.34138873056509 10.908695651218295,75.81256292574108 11.613043477758765,78.04814773378894 12.669565215706825,78.49526451178826 13.373913042247295,81.17796390154399 15.13478260859847,82.07219654344954 17.952173912897706,82.9664289408829 24.291304348036647,83.86066109430976 29.221739130094647,82.9664289408829 37.67391304299235,83.86066109430976 57.747826086357236,82.9664289408829 65.8478260859847,83.41354504739866 73.59565217420459,81.62508025346324 79.23043478280306,81.62508025346324 83.104347826913,80.73084749025293 86.27391304448247,78.04814773378894 88.03478261083364,74.47121130721644 89.44347826205194,70.00003528199159 89.0913043487817,66.42309006582946 88.03478261083364,63.29325979668647 82.0478260871023,57.03359028673731 75.70869565196335,56.58647057879716 72.18695652298629,57.03359028673731 64.08695652149618,56.13935080799274 59.156521739438176,56.58647057879716 55.282608695328236,55.69223097828217 47.88695652037859,56.58647057879716 46.47826087102294,56.13935080799274 39.082608696073294,57.03359028673731 30.982608694583178,56.58647057879716 22.17826087027788,57.480709933442995 16.895652173087,58.82206851080991 12.669565215706825,62.84614094393328 10.55652173794806,66.87020843173377 9.852173913270235,70.89427097560838 10.20434782654047,74.91832857532427 13.72608695551753,81.62508025346324 20.76956521719694,84.3077770783566 43.30869565345347,82.51931277289987 45.069565217942,83.41354504739866 64.43913043662906,83.41354504739866 72.89130434766412,82.07219654344954 76.76521739177406,82.51931277289987 82.75217391364276,81.17796390154399 87.33043478243053,77.15391399385408 89.0913043487817,73.57697659195401 89.0913043487817,67.76444498007186 88.38695652224123,64.63461599359289 85.92173913121223,60.16342653729953 84.86521739140153,58.82206851080991 77.82173912972212,56.13935080799274 72.89130434766412,57.03359028673731 67.96086956560612,55.245111087104306 63.03043478168547,56.58647057879716 58.09999999962747,56.13935080799274 56.69130434654653,57.03359028673731 53.52173912897706,56.58647057879716 51.760869566351175,57.92782952077687 44.013043478131294,58.37494904687628 37.67391304299235,57.480709933442995 32.03913043439388,57.480709933442995 27.813043477013707,55.69223097828217 24.995652174577117,56.58647057879716 20.76956521719694,56.58647057879716 17.24782608821988,57.92782952077687 13.373913042247295,60.16342653729953 11.613043477758765,61.95190305239521 9.852173913270235,67.76444498007186 9.852173913270235,72.68274163012393 10.908695651218295,77.15391399385408 14.782608695328236,82.07219654344954 20.06521739065647,83.41354504739866 26.404347825795412,82.9664289408829 29.221739130094647,83.41354504739866 30.982608694583178,82.9664289408829 52.113043477758765,83.41354504739866 69.01739130355418,82.51931277289987 76.76521739177406,82.9664289408829 81.34347826242447,82.07219654344954 84.51304347999394,80.73084749025293 86.9782608691603,78.49526451178826 89.79565217345953,73.12985914107412 90.5,68.65868128440343 88.73913043551147,63.29325979668647 84.51304347999394,57.92782952077687 80.28695652261376,56.13935080799274 78.17391304299235,56.58647057879716 72.53913043625653,54.79799113352783 61.97391304373741,56.13935080799274 57.395652174949646,55.245111087104306 48.23913043551147,56.13935080799274 40.49130434729159,55.69223097828217 39.082608696073294,56.58647057879716 30.982608694583178,57.480709933442995 29.221739130094647,56.58647057879716 24.643478259444237,56.58647057879716 21.121739130467176,57.92782952077687 18.30434782616794,57.92782952077687 16.191304348409176,59.26918791490607 12.669565215706825,60.16342653729953 11.613043477758765,61.50478401570581 9.5,66.42309006582946 9.5,71.34138873056509 10.55652173794806,76.25968001037836 13.373913042247295,81.17796390154399 16.191304348409176,82.51931277289987 20.41739130206406,84.3077770783566 41.19565217383206,82.9664289408829 43.30869565345347,83.86066109430976 58.45217391476035,82.9664289408829 63.03043478168547,82.9664289408829 71.83478260785341,82.07219654344954 76.06086956523359,82.51931277289987 80.28695652261376,82.07219654344954 86.27391304448247,79.3894978868775 88.73913043551147,76.25968001037836 90.5,72.23562405793928 90.14782608672976,66.87020843173377 89.79565217345953,64.18749732198194 87.68260869570076,60.61054575792514 83.104347826913,56.58647057879716 80.28695652261376,55.245111087104306 48.591304348781705,55.245111087104306 42.252173913642764,56.13935080799274 40.139130435884,55.245111087104306 38.02608695626259,56.13935080799274 21.47391304373741,57.03359028673731 16.895652173087,58.37494904687628 12.317391304299235,61.95190305239521 10.20434782654047,66.42309006582946 9.852173913270235,71.78850642498583 11.965217391029,78.04814773378894 19.713043477386236,83.41354504739866 34.50434782542288,82.9664289408829 40.843478260561824,83.86066109430976 47.182608695700765,83.41354504739866 51.056521739810705,82.07219654344954 61.97391304373741,82.07219654344954 78.52608695812523,81.17796390154399 85.569565217942,78.49526451178826 88.38695652224123,74.91832857532427 90.14782608672976,70.44715315965004 90.14782608672976,68.21156316203997 89.44347826205194,65.52885315124877 87.68260869570076,61.50478401570581 84.16086956486106,57.92782952077687 80.28695652261376,55.69223097828217 73.59565217420459,55.69223097828217 62.32608695700765,57.480709933442995 58.80434782616794,56.13935080799274 54.930434783920646,57.03359028673731 51.40869565308094,56.58647057879716 38.02608695626259,57.92782952077687 33.79999999888241,57.03359028673731 18.30434782616794,57.92782952077687 13.72608695551753,60.61054575792514 12.317391304299235,62.39902202808298 10.908695651218295,68.65868128440343 10.55652173794806,73.57697659195401 13.373913042247295,79.3894978868775 19.713043477386236,82.9664289408829 30.982608694583178,83.41354504739866 57.747826086357236,82.07219654344954 64.08695652149618,82.51931277289987 80.28695652261376,82.07219654344954 83.80869565159082,80.73084749025293 86.9782608691603,78.04814773378894 89.44347826205194,72.68274163012393 90.5,68.65868128440343 89.79565217345953,65.08173460280523 87.68260869570076,61.50478401570581 83.45652174018323,57.92782952077687 77.82173912972212,54.79799113352783 67.60869565419853,55.69223097828217 65.8478260859847,56.58647057879716 62.67826086841524,56.13935080799274 57.04347826167941,57.480709933442995 50.352173913270235,55.69223097828217 46.47826087102294,56.58647057879716 43.30869565345347,56.58647057879716 37.67391304299235,57.92782952077687 28.165217392146587,56.58647057879716 16.191304348409176,59.716307256836444 12.317391304299235,63.29325979668647 11.26086956448853,65.97597163915634 10.55652173794806,71.78850642498583 12.669565215706825,76.7067970323842 15.13478260859847,80.28373101633042 20.06521739065647,82.9664289408829 29.573913043364882,83.41354504739866 45.773913042619824,82.07219654344954 55.282608695328236,82.9664289408829 59.50869565270841,82.51931277289987 63.38260869681835,83.41354504739866 69.72173913009465,82.51931277289987 71.13043478317559,81.62508025346324 77.82173912972212,82.51931277289987 81.6956521756947,81.62508025346324 85.569565217942,79.3894978868775 89.44347826205194,74.47121130721644 90.5,68.21156316203997 89.0913043487817,62.84614094393328 87.68260869570076,60.61054575792514 84.86521739140153,58.37494904687628 80.99130434729159,56.58647057879716 71.48260869458318,57.03359028673731 69.01739130355418,56.58647057879716 68.31304347887635,55.69223097828217 64.79130434803665,55.245111087104306 60.21304347924888,57.03359028673731 56.339130433276296,57.480709933442995 49.647826086729765,56.13935080799274 44.013043478131294,57.03359028673731 40.843478260561824,56.13935080799274 35.20869565196335,57.92782952077687 28.517391303554177,58.37494904687628 19.713043477386236,57.92782952077687 16.895652173087,59.26918791490607 12.669565215706825,64.18749732198194 11.26086956448853,68.65868128440343 11.26086956448853,71.34138873056509 12.669565215706825,78.04814773378894 16.54347826167941,81.62508025346324 21.47391304373741,83.86066109430976 33.44782608747482,82.51931277289987 36.96956521645188,82.9664289408829 44.71739130280912,82.07219654344954 53.52173912897706,82.51931277289987 68.31304347887635,81.17796390154399 79.58260869793594,82.07219654344954 84.16086956486106,79.83661448233761 88.03478261083364,75.81256292574108 90.14782608672976,67.76444498007186 89.79565217345953,65.08173460280523 85.569565217942,59.716307256836444 79.23043478280306,56.13935080799274 73.59565217420459,56.58647057879716 69.72173913009465,55.69223097828217 58.09999999962747,57.03359028673731 53.873913042247295,56.13935080799274 51.056521739810705,56.58647057879716 46.83043478243053,56.13935080799274 41.54782608523965,57.480709933442995 37.67391304299235,57.03359028673731 35.20869565196335,57.480709933442995 30.982608694583178,60.16342653729953 22.882608694955707,57.92782952077687 17.952173912897706,59.26918791490607 14.430434782058,61.50478401570581 11.613043477758765,65.52885315124877 10.55652173794806,70.44715315965004 10.55652173794806,71.78850642498583 13.021739130839705,78.49526451178826 15.13478260859847,80.73084749025293 16.191304348409176,80.73084749025293 20.41739130206406,83.86066109430976 44.71739130280912,82.9664289408829 50.352173913270235,82.07219654344954 51.40869565308094,81.62508025346324 53.16956521756947,82.07219654344954 61.97391304373741,81.17796390154399 63.03043478168547,81.62508025346324 66.90434782765806,81.62508025346324 73.59565217420459,79.83661448233761 75.35652174055576,80.73084749025293 78.87826086953282,80.28373101633042 80.28695652261376,80.28373101633042 82.40000000037253,77.60103089478798 85.569565217942,75.81256292574108 86.27391304448247,73.12985914107412" stroke="#4DD2FF" stroke-linecap="round" stroke-linejoin="round" stroke-width="0.5"><title>2025-08-01 5.04km</title><desc>15302598599</desc></polyline></svg>