<?xml version="1.0" encoding="utf-8" ?>
<svg baseProfile="full" height="130mm" version="1.1" viewBox="0,0,100,130" width="100mm" xmlns="http://www.w3.org/2000/svg" xmlns:ev="http://www.w3.org/2001/xml-events" xmlns:xlink="http://www.w3.org/1999/xlink"><defs /><rect fill="#FAF9F5" height="130" width="100" x="0" y="0" /><text fill="#5A5A5A" style="font-size:6px; font-family:Arial; font-weight:bold;color:#0ed45e;" x="5" y="10">Morning Run</text><text fill="#5A5A5A" style="font-size:4px; font-family:Arial" x="5" y="121">Runner</text><text fill="#5A5A5A" style="font-size:6px; font-family:Arial" x="2" y="128">蓝皮书</text><text fill="#5A5A5A" style="font-size:4px; font-family:Arial" x="25" y="121">WORKOUTS INFO</text><text fill="#5A5A5A" style="font-size:3px; font-family:Arial" x="25" y="125">Type: Run</text><text fill="#5A5A5A" style="font-size:3px; font-family:Arial" x="22" y="129">Date: 2025-06-17</text><text fill="#5A5A5A" style="font-size:3px; font-family:Arial" x="47" y="125">Distance: 7.68 km</text><text fill="#5A5A5A" style="font-size:3px; font-family:Arial" x="47" y="129">Duration: 52:10min</text><text fill="#5A5A5A" style="font-size:3px; font-family:Arial" x="75" y="125">Pace: 6:47/km</text><text fill="#5A5A5A" style="font-size:3px; font-family:Arial" x="75" y="129">Elevation: 95m</text><polyline fill="none" points="9.844680849462748,70.21883794246241 10.534042552113533,75.47009077086113 15.014893617480993,80.72133499756455 24.32127659395337,84.22215970070101 39.83191489428282,84.22215970070101 50.172340424731374,83.78455682238564 67.40638297982514,82.90935088531114 86.36382978595793,78.53331761434674 89.81063829734921,68.03081339178607 87.05319148860872,60.15391264134087 73.26595744676888,56.6530616490636 69.12978723272681,56.6530616490636 55.342553190886974,56.6530616490636 50.861702125519514,56.6530616490636 34.31702127493918,59.27870025183074 19.151063829660416,59.27870025183074 12.257446806877851,64.52997100306675 11.223404254764318,75.0324866976589 22.597872339189053,84.22215970070101 54.65319148823619,82.47174782725051 77.40212765708566,82.47174782725051 88.77659574523568,75.0324866976589 86.70851063728333,60.59151874575764 78.43617021292448,56.215455007273704 66.02765957452357,57.52827475569211 50.861702125519514,58.403487623203546 32.24893616884947,58.403487623203546 27.078723402693868,57.96588121866807 20.18510638177395,58.84109396766871 12.60212766006589,64.0923654360231 10.534042552113533,73.71967411809601 17.772340424358845,82.47174782725051 32.24893616884947,83.78455682238564 42.93404255248606,83.34695388306864 58.78936170041561,82.90935088531114 69.12978723272681,82.47174782725051 74.9893617015332,82.03414470911957 79.12553191557527,83.34695388306864 88.43191489204764,75.47009077086113 88.0872340425849,64.0923654360231 80.50425531715155,56.6530616490636 72.23191489465535,56.6530616490636 62.92553191445768,56.6530616490636 48.448936169967055,57.0906682331115 37.074468083679676,58.84109396766871 33.282978722825646,56.6530616490636 23.97659574262798,57.52827475569211 18.806382978335023,58.84109396766871 11.568085104227066,64.96757651143707 11.568085104227066,77.22050646902062 28.45744680799544,83.78455682238564 38.45319148898125,83.78455682238564 58.78936170041561,82.90935088531114 65.33829787187278,82.90935088531114 73.95531914941967,82.03414470911957 84.29574467986822,80.72133499756455 89.46595744602382,73.28206980461255 88.77659574523568,65.84278734656982 81.19361702166498,57.52827475569211 69.4744680840522,55.77784830518067 60.51276595890522,56.215455007273704 53.27446808479726,58.403487623203546 29.83617021329701,58.84109396766871 17.427659574896097,59.71630647685379 11.568085104227066,71.96925650793128 13.636170212179422,78.53331761434674 19.840425530448556,83.34695388306864 41.555319149047136,83.34695388306864 66.37234042398632,82.47174782725051 85.3297872338444,78.97092121094465 88.77659574523568,68.46841842099093 84.29574467986822,59.27870025183074 75.67872340418398,56.215455007273704 72.92127659544349,55.77784830518067 48.448936169967055,57.0906682331115 17.427659574896097,61.466730776941404 13.291489362716675,64.96757651143707 12.60212766006589,76.34529874054715 19.840425530448556,83.34695388306864 51.20638297870755,82.90935088531114 80.84893617033958,81.15893829334527 88.43191489204764,75.47009077086113 87.39787233993411,63.21715412242338 79.47021276503801,56.215455007273704 61.20212765969336,56.6530616490636 52.58510638214648,57.0906682331115 42.24468084983528,57.0906682331115 34.31702127493918,57.96588121866807 21.21914893388748,59.27870025183074 16.738297870382667,60.15391264134087 14.325531914830208,63.654759808210656 11.568085104227066,68.03081339178607 12.946808509528637,78.97092121094465 23.63191489316523,84.22215970070101 48.448936169967055,83.78455682238564 57.75531914643943,82.90935088531114 64.30425531975925,82.03414470911957 82.5723404251039,79.40852474723943 89.46595744602382,68.46841842099093 85.67446808516979,59.27870025183074 64.30425531975925,57.96588121866807 36.72978723421693,58.403487623203546 19.151063829660416,59.71630647685379 11.223404254764318,71.09404734475538 15.35957446694374,80.72133499756455 44.31276595592499,83.78455682238564 62.23617021180689,83.34695388306864 87.05319148860872,78.53331761434674 89.46595744602382,66.28039267519489 80.50425531715155,55.77784830518067 71.19787233881652,57.0906682331115 68.78510638140142,58.84109396766871 62.58085106126964,57.52827475569211 53.61914893426001,57.0906682331115 40.86595744639635,57.96588121866807 25.35531914792955,58.84109396766871 15.704255318269134,61.02912479150109 10.878723403438926,72.40686099976301 17.427659574896097,81.59654153161682 27.078723402693868,82.90935088531114 31.559574468061328,82.47174782725051 36.38510638102889,83.78455682238564 49.48297872394323,82.47174782725051 57.41063829883933,83.78455682238564 68.78510638140142,82.90935088531114 79.8148936163634,82.47174782725051 86.70851063728333,78.53331761434674 89.81063829734921,70.65644267387688 88.0872340425849,61.466730776941404 78.43617021292448,56.215455007273704 62.23617021180689,58.403487623203546 34.66170212812722,59.27870025183074 27.078723402693868,59.27870025183074 17.427659574896097,58.84109396766871 11.912765957415104,66.28039267519489 11.568085104227066,74.59488256298937 18.117021277546883,82.90935088531114 31.559574468061328,83.34695388306864 41.899999998509884,83.34695388306864 69.8191489353776,82.47174782725051 74.6446808502078,81.59654153161682 81.53829787112772,81.15893829334527 88.43191489204764,75.0324866976589 88.77659574523568,61.466730776941404 74.9893617015332,56.215455007273704 58.444680850952864,57.52827475569211 52.92978723347187,57.96588121866807 19.151063829660416,58.84109396766871 12.257446806877851,66.28039267519489 10.534042552113533,72.84446543222293 22.942553190514445,83.34695388306864 42.93404255248606,82.90935088531114 54.65319148823619,82.47174782725051 70.85319148935378,82.03414470911957 83.95106383040547,80.72133499756455 89.46595744602382,71.09404734475538 85.3297872338444,59.71630647685379 80.1595744676888,57.0906682331115 68.44042553193867,57.52827475569211 43.278723403811455,57.52827475569211 29.146808510646224,57.52827475569211 13.636170212179422,63.21715412242338 10.878723403438926,71.53165195602924 15.704255318269134,80.72133499756455 35.35106382891536,83.34695388306864 52.240425530821085,84.22215970070101 63.27021276578307,82.03414470911957 76.02340425550938,81.59654153161682 82.22765957377851,81.15893829334527 89.81063829734921,75.0324866976589 89.81063829734921,69.78123315121047 88.0872340425849,61.904336703475565 80.1595744676888,57.0906682331115 53.27446808479726,57.96588121866807 30.870212765410542,57.96588121866807 26.73404255323112,58.84109396766871 17.772340424358845,59.27870025183074 10.534042552113533,69.78123315121047 10.534042552113533,76.34529874054715 36.04042553156614,83.78455682238564 62.58085106126964,81.59654153161682 68.09574468061328,81.59654153161682 82.22765957377851,80.72133499756455 89.81063829734921,73.71967411809601 90.5,66.28039267519489 83.95106383040547,57.52827475569211 76.71276595629752,56.215455007273704 55.68723404221237,57.96588121866807 40.52127659507096,57.52827475569211 26.389361700043082,57.96588121866807 14.670212764292955,61.904336703475565 9.844680849462748,72.84446543222293 13.636170212179422,79.84612822369672 37.76382978819311,83.78455682238564 62.92553191445768,83.34695388306864 72.23191489465535,81.59654153161682 79.8148936163634,81.59654153161682 86.01914893649518,78.09571395907551 90.5,67.59320830157958 83.95106383040547,57.96588121866807 66.37234042398632,57.52827475569211 53.27446808479726,57.96588121866807 44.65744680725038,57.0906682331115 21.908510638400912,59.27870025183074 13.636170212179422,62.3419425690081 10.534042552113533,70.65644267387688 14.670212764292955,79.40852474723943 24.665957445278764,85.09736528038047 45.00212765857577,83.34695388306864 62.23617021180689,83.34695388306864 78.78085106238723,82.03414470911957 90.5,71.96925650793128 87.05319148860872,60.15391264134087 69.12978723272681,57.96588121866807 57.06595744565129,56.6530616490636 49.48297872394323,57.0906682331115 41.899999998509884,57.0906682331115 33.97234042547643,57.52827475569211 25.699999999254942,58.403487623203546 15.014893617480993,61.02912479150109 10.878723403438926,70.21883794246241 13.980851063504815,79.40852474723943 21.908510638400912,83.34695388306864 36.04042553156614,83.78455682238564 50.861702125519514,83.34695388306864 77.40212765708566,82.03414470911957 87.7425531912595,77.22050646902062 89.46595744602382,66.28039267519489 83.60638297721744,59.71630647685379 69.4744680840522,58.84109396766871 46.036170210689306,59.71630647685379" stroke="#4DD2FF" stroke-linecap="round" stroke-linejoin="round" stroke-width="0.5"><title>2025-06-17 7.68km</title><desc>14821904363</desc></polyline></svg>