<?xml version="1.0" encoding="utf-8" ?>
<svg baseProfile="full" height="130mm" version="1.1" viewBox="0,0,100,130" width="100mm" xmlns="http://www.w3.org/2000/svg" xmlns:ev="http://www.w3.org/2001/xml-events" xmlns:xlink="http://www.w3.org/1999/xlink"><defs /><rect fill="#FAF9F5" height="130" width="100" x="0" y="0" /><text fill="#5A5A5A" style="font-size:6px; font-family:Arial; font-weight:bold;color:#0ed45e;" x="5" y="10">解锁新地标-中国第一长水上栈桥</text><text fill="#5A5A5A" style="font-size:4px; font-family:Arial" x="5" y="121">Runner</text><text fill="#5A5A5A" style="font-size:6px; font-family:Arial" x="2" y="128">蓝皮书</text><text fill="#5A5A5A" style="font-size:4px; font-family:Arial" x="25" y="121">WORKOUTS INFO</text><text fill="#5A5A5A" style="font-size:3px; font-family:Arial" x="25" y="125">Type: Run</text><text fill="#5A5A5A" style="font-size:3px; font-family:Arial" x="22" y="129">Date: 2025-11-01</text><text fill="#5A5A5A" style="font-size:3px; font-family:Arial" x="47" y="125">Distance: 15.88 km</text><text fill="#5A5A5A" style="font-size:3px; font-family:Arial" x="47" y="129">Duration: 01:48:55</text><text fill="#5A5A5A" style="font-size:3px; font-family:Arial" x="75" y="125">Pace: 6:51/km</text><text fill="#5A5A5A" style="font-size:3px; font-family:Arial" x="75" y="129">Elevation: 9m</text><polyline fill="none" points="26.41962908441201,29.5 27.770509658788797,30.61385277275258 28.115734694467392,31.11617510427459 28.070705341990106,31.269055390832364 27.890587932022754,31.46561546918383 28.070705341990106,31.247215362011048 28.23581296770135,31.11617510427459 28.355891240993515,31.11617510427459 28.490979298425373,31.18169525130361 30.23211426101625,32.68864862409828 32.01827857614262,34.13006433668488 33.56428634462645,35.33123069183057 34.269746200123336,36.00824635826575 35.14031368144788,36.66341912357166 36.76137037074659,38.06110890554555 39.11790648387978,39.96106699325901 39.568200008710846,40.39783465732762 40.018493533483706,40.68173277491587 41.44442302873358,41.97018490715709 42.149882884230465,42.49429701692861 43.72591022105189,43.78272942475451 44.431370076548774,44.41602157048328 47.193170362035744,46.59976161240775 47.823581296775956,47.18936451860645 51.38090014277259,50.07182535294851 51.936262156639714,50.61773806215933 53.797475392580964,52.05893552144698 54.022622154909186,52.255461088621814 54.12769064406166,52.43015020780149 54.18772978067864,52.64851124442066 54.06765150744468,52.910543956830224 52.701761148811784,54.46089230677171 52.14639913488645,54.98494913038303 51.12573381199036,55.79286552283156 49.74483366927598,56.688117789512035 47.073092088801786,58.02006595280545 46.592778995633125,58.21658162656968 45.03176144295139,59.08998067556968 45.31694734201301,59.919703805295285 45.902328924275935,61.164277599156776 45.99238762923051,61.57913262364309 46.18751482327934,61.97215183250228 46.30759309662972,62.518009680869 46.93800403131172,63.78439019893267 46.968023599591106,64.02456428663572 46.892974678834435,64.11190019777132 46.352622449048795,64.46124319814407 46.24755395995453,64.57041267438763 46.24755395995453,64.67958205007017 46.36763223318849,64.8105851679502 46.41266158572398,64.94158814092953 46.3376126649091,65.09442475956894 46.05242676590569,65.50926601589163 45.54209410445765,65.98960670759698 44.62649727065582,66.57911307548056 44.46138964488637,66.73194758070167 44.28127223497722,67.01578256711946 43.86099827848375,67.88911671993264 43.605831947759725,68.23844857768563 43.17054820712656,68.63144568592543 42.87035252392525,69.0681076099354 42.55514705652604,69.74493041019741 42.43506878323387,70.09425679362175 42.42005899909418,71.3387236604467 42.02980461099651,72.60500985590625 41.849687201029155,72.9979924738218 41.684579575259704,73.23814787617448 41.0541686405777,74.02410760617204 40.81401209393516,74.5480778616984 40.78399252559757,74.81006212013017 40.82902187813306,75.90165695868927 40.7239533890388,76.1199747190476 40.408747921697795,76.51294567342848 40.18360115925316,77.01507332873007 40.12356202257797,77.3643782681902 40.15358159097377,77.97565943304653 40.3637185691623,79.06722509431711 40.73896317317849,80.37709060790803 41.084188208857086,81.88341803922958 41.59452087030513,83.4333871361523 42.23994158918504,85.11431660933158 42.46508835151326,85.52908774475509 43.92103741510073,87.93036577150633 44.746575543889776,89.43659714179375 44.986732090532314,89.76403620940255 45.151839716301765,90.22244938321819 45.85729957179865,91.68499383964809 46.742876837262884,93.234834674382 47.52338561351644,94.45723004153842 48.69414877804229,96.81467119612353 50.42027395655168,99.78323405721312 51.20078273274703,100.85277156310622 52.59669265971752,102.8826835367945 53.18207424192224,103.82123322687403 53.43724057264626,104.30141856480623 53.67739711923059,104.67246953819995 54.66804287378909,106.57135926661431 55.05829726194497,107.16066368280008 56.27408977894811,108.49204434798594 56.99455941864289,109.12499056390516 58.12029323069146,109.88888666543062 58.915811791142914,110.23809467118554 59.59125207836041,110.47817457802012 59.906457545701414,110.5 60.17663366062334,110.45634915206756 61.48248488252284,110.23809467118554 63.38872747082496,109.45237521058152 63.974109053146094,109.14681623515935 65.05481351271737,108.05552774586977 65.02479394432157,107.94639834405825 64.2893145204871,106.89875097088952 63.44876660750015,105.545526067217 63.47878617583774,105.37091527620942 64.64954934030538,102.577107614321 64.78463739779545,102.4679731653523 65.26495049096411,102.51162695697712 66.30062559794169,102.44614626342081 66.5708017128054,102.4679731653523 67.03610502177617,102.62076136585529 67.21622243174352,102.55528073258029 67.53142789914273,102.07508831615269 67.89166271890281,101.68220216390182 68.14682904968504,101.31114182359306 68.28191710705869,101.00556184701418 68.37197581207147,100.59084490352689 68.50706386950333,100.21978114436934 68.82226933690254,99.60861477190338 69.40765091910725,98.93196260971308 69.84293465979863,98.34261725449323 70.15814012708142,97.86240776002523 70.71350214100676,96.8583270713134 71.20882501837332,96.4654236153292 71.28387393912999,96.378111559221 71.29888372326968,96.24714335441968 71.11876631341875,95.8760659876425 71.05872717668535,95.54864381626248 71.28387393912999,94.52271515161556 71.41896199662006,94.26077449406876 71.64410875900649,93.91151938290568 72.10941206791904,93.4749490457325 72.42461753531825,92.64546097191487 73.52033177902922,88.27963851981622 73.58037091558799,87.75572901117994 73.52033177902922,87.4719437263484 73.29518501658458,87.14449832208629 72.36457839870127,86.64241361051245 72.2445001253509,86.53326447855943 72.2745196937467,86.35862565822026 72.51467624027282,86.07483702587342 72.574715376948,85.92202748066484 72.54469580866862,85.85653761518915 72.33455883036368,85.70372778832825 72.33455883036368,85.63823780220264 72.76984257093864,84.76503452652105 72.82988170767203,84.72137419368664 73.05502847011667,84.80869484319555 73.13007739087334,84.80869484319555 73.17510674335063,84.72137419368664 73.17510674335063,84.56856290223368 72.94995998090599,84.3939211848774 72.9199404126266,84.32843047448114 73.08504803839605,83.97914607397252 73.31019480072428,83.78267314610275 73.35522415331798,82.95311719046731 73.07003825419815,80.68272380988492 72.5897251611459,78.17214199456066 71.61408919061068,75.2248693440124 71.43397178075975,74.7445661098318 70.84859019849682,73.50013503243099 70.5934238677728,73.08532176740118 70.15814012708142,72.73600420675211 69.51271940820152,71.79720815695327 69.2575530775357,71.53521723338054 68.9573573943344,71.0548990349489 68.68718127947068,70.79290646918525 68.28191710705869,70.18158822848636 67.62148660403909,69.39560299631557 67.08113437425345,68.63144568592543 66.5858114970033,68.1947821518188 66.37567451875657,67.93278325851861 66.16553754056804,67.62711715039768 65.98542013060069,67.1686165088031 65.88035164144821,66.99394913081778 65.24994070676621,66.44811191398912 64.91972545522731,66.27344347329199 64.73960804531816,66.03327394659573 64.40939279383747,65.77127027109236 64.09418732638005,65.48743230177206 63.76397207489936,65.334596190296 63.47878617583774,65.05075717438012 62.39808171632467,64.57041267438763 60.38677063881187,63.91539430718694 58.135303014772944,63.28220644142857 56.634324598824605,63.08569917407294 56.379158268042374,63.194869918443146 56.19904085819144,63.21670405527402 55.80878647003556,63.02019667915738 55.37350272934418,63.02019667915738 53.06199596868828,62.88919158057979 52.20643827156164,62.954694147956616 50.46530330897076,63.32587467886333 49.504677122691646,63.60971782923298 48.49902158399345,64.04639827048959 48.39395309484098,64.17740208884061 48.3189041740261,64.52674489596393 48.213835684990045,64.76691747806763 47.92864978592843,65.05075717438012 47.658473671006504,65.20359365211334 47.298238851188216,65.29092869369197 46.92299424717203,65.20359365211334 46.50272029067855,64.96342195566831 46.45769093814306,64.98525576640532 45.932348492671736,65.66210190187121 45.40700604702579,66.12060837630997 44.47639942902606,66.75378106538847 44.26626245083753,67.05944942773931 43.845988494344056,67.93278325851861 43.605831947759725,68.23844857768563 43.14052863884717,68.6751119507826 42.840332955587655,69.13360675963486 42.46508835151326,70.09425679362175 42.42005899909418,70.46541494700068 42.450078567431774,71.3387236604467 42.0147948267404,72.77966895818827 41.75962849607458,73.28181244245934 41.0391588563798,74.04593974646559 40.85904144641245,74.39525344330468 40.78399252559757,74.76639811725181 40.82902187813306,75.55234770505194 40.78399252559757,75.8798251604967 40.708943604899105,76.1199747190476 40.378728353301995,76.5784407056999 40.18360115925316,77.01507332873007 40.093542454298586,77.47353585038945 40.10855223843828,77.88833374551177 40.27365986420773,78.84891276695271 41.14422734541586,82.07989411785093 41.96976547426311,84.5249024970617 42.3750296466751,85.39810754316568 44.431370076548774,88.86903394696856 45.31694734201301,90.50622807787295 45.887319140078034,91.77230935534317 46.69784748472739,93.16934885227965 47.433326908620074,94.32625971275411 47.958669354207814,95.28670542751206 48.48401179985376,96.39993957931438 49.56471625942504,98.3207895923988 50.54035222972743,99.95785308517225 51.035675107035786,100.61267214731924 52.29649697651621,102.4679731653523 53.572328630136326,104.49785746019188 53.51228949351935,104.43237786461395 54.863170067896135,106.9424031297749 55.988903879828285,108.23013457981142 56.769412656198256,108.95038504903641 57.88013668410713,109.7361078392205 58.225361719727516,109.93253772245953 59.15596833778545,110.34722196187795 59.696320567512885,110.5 60.40178042300977,110.43452372210595 61.3323870410095,110.25992013740324 62.95344373025,109.64880556432036 63.899060132331215,109.21229322480212 64.9497450235649,108.20830873955856 65.02479394432157,108.01187599723198 63.73395250661997,105.98205191874877 63.38872747082496,105.52369973248278 64.22927538387012,103.62479320946295 64.69457869284088,102.44614626342081 66.40569408709416,102.44614626342081 67.05111480597407,102.59893449215451 67.21622243174352,102.55528073258029 67.50140833080513,102.14056921481824 67.9366920713801,101.63854806654854 68.19185840210412,101.22383333928155 68.29692689125659,100.96190750021924 68.52207365364302,100.19795382826123 68.73221063188976,99.76140666065476 69.39264113490935,98.97561770457105 69.75287595484406,98.49541077628237 69.81291509140283,98.3207895923988 69.55774876073701,98.21165122183447 69.75287595484406,98.2334789039669 69.97802271717228,98.16799584533874 70.12812055880204,97.94971872196766 70.63845322025008,97.05477831057942 70.78855106182164,96.8583270713134 71.19381523417542,96.53090761520434 71.2538543708506,96.44359560731391 71.2388445866527,96.22531530618289 71.08874674502295,95.70144094218267 71.05872717668535,95.35219007899286 71.14878588169813,94.65368526318343 71.31389350740938,94.34808811097173 71.19381523417542,94.36991650509299 71.01369782426627,94.32625971275411 70.35326732124668,94.0424901702936 70.05307163804537,93.84603393487487 65.9403907781234,89.69854846826638 63.88405034819152,87.69024015966716 59.03589006437687,82.82213413999852 58.915811791142914,82.58199817125569 58.90080200700322,81.94891010162974 58.57058675546432,81.1411721340628 58.34543999307789,80.74821653629624 57.775068195012864,80.00596351659624 57.70001927425619,79.96230142931745 57.6249703533249,79.96230142931745 57.36980402265908,80.20244270977128 57.3097648860421,80.26793570177688 57.39982359088026,80.24610470845073 57.459862727613654,80.2897666910867 57.234715965227224,80.52990730749298 57.18968661274994,80.66089289307274 57.21970618108753,80.77004743702128 57.35479423846118,80.9446944981537 58.165322583168745,81.68694163468172 58.645635676337406,82.01440212781017 58.81074330204865,81.94891010162974 58.87078243866563,81.88341803922958 58.82575308618834,81.57778793569742 58.615616107941605,81.09751046534802 58.43549869797425,80.72638563149667 57.79007797909435,79.80948399734916 57.74504862667527,79.5693419201707 57.76005841081496,79.43835512737132 58.390469345555175,78.21580474175425 59.42614445259096,75.98898411113623 59.45616402098676,75.79249792755581 59.2910563951591,75.00654993356875 59.306066179298796,74.7445661098318 61.85772948648082,70.13792251909763 62.32303279550979,69.22093890292308 63.6288840174675,66.84111496373225 63.92907970066881,66.53544603779301 64.45442214625655,65.85860489395418 64.45442214625655,65.7276029354689 64.37937322544167,65.68393558374373 64.21426559967222,65.7276029354689 64.03414818976307,65.90227218127256 63.658903585746884,66.49177898391645 63.673913369944785,66.68828059938096" stroke="#89CFF0" stroke-linecap="round" stroke-linejoin="round" stroke-width="0.5"><title>2025-11-01 15.88km</title><desc>16316804379</desc></polyline></svg>