<?xml version="1.0" encoding="utf-8" ?>
<svg baseProfile="full" height="130mm" version="1.1" viewBox="0,0,100,130" width="100mm" xmlns="http://www.w3.org/2000/svg" xmlns:ev="http://www.w3.org/2001/xml-events" xmlns:xlink="http://www.w3.org/1999/xlink"><defs /><rect fill="#FAF9F5" height="130" width="100" x="0" y="0" /><text fill="#5A5A5A" style="font-size:6px; font-family:Arial; font-weight:bold;color:#0ed45e;" x="5" y="10">新疆跨市跑—两不管</text><text fill="#5A5A5A" style="font-size:4px; font-family:Arial" x="5" y="121">Runner</text><text fill="#5A5A5A" style="font-size:6px; font-family:Arial" x="2" y="128">蓝皮书</text><text fill="#5A5A5A" style="font-size:4px; font-family:Arial" x="25" y="121">WORKOUTS INFO</text><text fill="#5A5A5A" style="font-size:3px; font-family:Arial" x="25" y="125">Type: Run</text><text fill="#5A5A5A" style="font-size:3px; font-family:Arial" x="22" y="129">Date: 2025-11-13</text><text fill="#5A5A5A" style="font-size:3px; font-family:Arial" x="47" y="125">Distance: 6.60 km</text><text fill="#5A5A5A" style="font-size:3px; font-family:Arial" x="47" y="129">Duration: 48:41min</text><text fill="#5A5A5A" style="font-size:3px; font-family:Arial" x="75" y="125">Pace: 7:22/km</text><text fill="#5A5A5A" style="font-size:3px; font-family:Arial" x="75" y="129">Elevation: 17m</text><polyline fill="none" points="39.89327343017794,110.5 40.48778675775975,101.78891490781098 40.804860532516614,99.85921273211716 41.04266586340964,97.5435550744005 41.00303164171055,96.77166554058203 41.04266586340964,95.66896304281545 41.32010541646741,93.84949578371015 41.59754496929236,92.74678342181141 41.795716078719124,91.5889314354572 41.99388718791306,89.49376026648679 41.91461874404922,88.22562381988973 41.95425296574831,87.729395174596 42.192058296874166,87.12289247335866 42.90547429025173,86.29584152044845 42.98474273388274,86.02015740424395 42.86584006831981,85.52392540863366 42.54876629356295,85.02769265923416 42.46949784993194,84.69687040752615 42.46949784993194,83.81467609811807 42.667668959125876,83.31844075210392 43.14327962137759,82.93247940627043 44.768282716860995,82.71192986096139 46.55182269960642,82.38110526403761 48.4542653481476,82.38110526403761 51.42683198628947,81.8297301910934 53.48781152185984,81.8297301910934 57.05489148758352,80.9475281383784 58.4420892521739,80.83725271423464 59.55184746370651,80.67183950837352 61.771363887004554,80.39615064562531 62.60368254571222,80.39615064562531 64.82319896877743,79.89991010635276 65.2591754088644,80.01018584694248 65.93295718031004,80.01018584694248 66.8049100607168,79.73449642566266 66.84454428264871,79.78963432853925 66.8049100607168,79.89991010635276 66.48783628595993,80.56156399115571 66.48783628595993,81.27835418732138 66.21039673336782,82.436242720054 66.21039673336782,82.98761676924187 66.2500309550669,83.0427541230456 66.56710472982377,82.76706726136035 67.39942338853143,82.65679245145293 67.71649716305546,82.49138016693178 67.75613138498738,82.32596779853338 67.83539982861839,81.11294120480306 68.27137626893818,79.23825488120201 68.46954737813212,78.52146020843065 68.78662115288898,77.91494041032274 69.22259759320877,76.20565128448652 69.69820825546049,75.32343404239509 70.09455047361553,74.33093679719605 71.08540601981804,72.67676802017377 71.52138246013783,71.46370559281786 72.0366273438558,70.63661499146838 72.27443267498165,70.08522009375156 74.25614376715384,67.2179516205506 74.81102287280373,66.66655095166061 75.80187841877341,64.7917817151174 76.43602596828714,63.909533645317424 77.03053929610178,62.75157943702652 78.93298194441013,60.215093969804 79.40859260666184,59.11226805759361 80.63725348375738,57.5131638708699 82.50006191013381,54.4252163892379 82.9360383504536,53.81865184628987 83.37201479077339,52.82608925522072 83.72872278722934,52.329806828842266 84.64030988980085,49.13152421358973 85.19518899545074,46.20892823211034 85.47262854827568,45.10605502789258 85.55189699213952,44.00317809943226 85.78970232303254,43.12087387521751 85.75006810110062,41.6871244275826 85.98787343222648,40.74966946282075 86.06714187609032,39.2607648705598 86.34458142891526,37.937288423709106 86.82019209093414,35.18002860120032 86.89946053456515,34.13226376537932 87.69214497157373,30.768364467629 87.61287652770989,29.5 87.61287652770989,29.66543912293855 87.17690008762293,31.871286087756744 86.85982631286606,33.96682690500165 86.58238676004112,36.39322579090367 86.6220209817402,36.99982269582688 86.14641031972133,39.92250108276494 85.86897076666355,42.34885572400526 85.47262854827568,43.61717029454303 85.19518899545074,45.878066661942285 84.79884677706286,47.97351761313621 84.32323611481115,49.738097460969584 83.68908856553026,51.83352364815073 82.46042768843472,54.31493201063131 80.91469303658232,56.851463296683505 80.39944815263152,57.62344716960797 77.90249217650853,61.538480149320094 77.07017351780087,62.75157943702652 75.72260997537524,65.06748374828021 74.45431487634778,66.77683116006665 73.42382510844618,68.5964492202329 71.44211401627399,71.51884489186341 71.24394290708005,72.01509816377074 70.13418469554745,74.00010371190729 69.69820825546049,74.93746324974927 69.26223181490786,76.53648213599809 69.42076870240271,76.70189743605442 69.89637936442159,76.86731265232083 71.20430868538097,76.92245103922323 71.87809045682661,77.03272778494284 72.78967755893245,76.97758941666689 74.01833843602799,77.14300449332222 76.59456285578199,77.6392492208397 77.58541840175167,78.08035501246923 78.8140792788472,78.08035501246923 79.250055719167,78.13549319459707 79.60676371585578,78.30090768475202 80.3598139306996,78.02521682117367 81.3110352549702,78.13549319459707 81.905548582552,78.35604582965607 83.84762545279227,78.631736414216 84.16469922754914,78.57659831593628 84.28360189311206,78.411183965276 84.56104144593701,78.411183965276 85.63116543577053,78.52146020843065 86.46348409424536,78.46632209143718 87.33543697488494,78.57659831593628 86.22567876335233,78.35604582965607 84.24396767118014,78.19063136729528 83.29274634714238,77.97007862041937 81.46957214223221,77.69438747744425 80.00310593424365,77.74952572461916 78.8140792788472,77.97007862041937 77.50614995812066,78.02521682117367 76.673831299413,77.52897267989465 76.07931797183119,77.30841948639136 75.1280966475606,77.30841948639136 73.82016732683405,77.03272778494284 72.71040911530145,76.97758941666689 71.48174823820591,76.70189743605442 69.38113448047079,76.70189743605442 68.39027893450111,77.1981428337167 67.59759449772537,78.13549319459707 67.2805207229685,78.852288714319 66.60673895152286,80.56156399115571 66.60673895152286,80.89239043102134 66.60673895152286,80.78211498828023 66.7652758390177,80.61670175445033 66.84454428264871,80.83725271423464 66.7652758390177,81.33349182957318 66.40856784256175,82.65679245145293 66.40856784256175,82.76706726136035 66.56710472982377,82.76706726136035 63.83234342257492,82.87734203395667 61.256119003053755,83.42871533858124 59.63111590757035,83.48385261793737 56.658549269195646,83.81467609811807 55.231717283139005,84.09036207568715 53.32927463459782,84.58659624902066 51.07012398960069,84.69687040752615 49.207315562991425,84.97255564056104 47.34450713638216,84.91741861248738 45.83840670646168,85.35851457598619 43.698158727027476,85.7996099438169 42.707303181057796,85.46878847377957 42.39022940630093,85.02769265923416 42.271326740738004,84.75200747270719 42.31096096243709,84.36604782068753 42.58840051549487,83.42871533858124 42.50913207186386,83.31844075210392 42.35059518436901,83.20816612854833 41.87498452235013,83.0427541230456 40.44815253606066,82.87734203395667 38.268270334694535,82.76706726136035 35.731680136872455,83.15302880259696 33.0365530513227,83.3735780500574 32.60057661123574,83.42871533858124 32.04569750535302,83.7044016418804 30.658499740995467,83.98008771263994 28.835325536318123,83.98008771263994 26.5365406696219,84.42118494171882 23.326168700121343,84.80714452860411 22.45421581971459,85.02769265923416 21.899336714064702,85.02769265923416 21.185920720687136,85.13796666866983 19.362746516242623,85.02769265923416 18.807867410127074,85.08282966865227 18.213354082545266,85.3033776130469 16.707253652624786,86.2407047158922 16.271277212304994,86.73693562258268 16.390179877867922,87.01261913392227 16.310911434236914,87.23316577554215 15.320055888267234,87.23316577554215 14.844445226015523,87.39857565890998 14.210297676734626,87.78453172792797 13.179807908833027,88.06021435526782 13.02127102133818,88.22562381988973 12.862734134076163,88.61157891165931 12.585294581018388,88.7769880972628 12.307855028193444,88.7769880972628 12.704197246581316,88.88726084091468 13.774321236414835,88.55644249796751 14.884079447947443,88.55644249796751 15.438958553597331,88.7769880972628 15.47859277552925,88.88726084091468 15.438958553597331,89.21807884893497 15.557861219160259,89.32835144383716 16.50908254343085,89.65916900520097 17.46030386770144,89.49376026648679 19.124941185116768,89.38348772723111 20.393236283911392,89.49376026648679 21.582262939075008,89.49376026648679 22.96946070366539,89.10780621698359 24.158487359061837,88.55644249796751 24.99080601753667,88.33589674980612 27.170688218902797,88.33589674980612 28.47861753962934,88.11535085272044 29.271301976405084,87.83966827203403 34.225579706951976,87.45371226820862 35.01826414349489,87.28830241275136 36.40546190808527,87.17802912913612 37.47558589791879,86.7920723434363 38.783515218645334,86.84720905515132 39.49693121179007,87.23316577554215 39.85363920824602,87.6742586119799 40.01217609574087,88.11535085272044 40.01217609574087,88.33589674980612 39.8140049863141,89.21807884893497 39.53656543372199,90.04512240324402 39.14022321510129,91.47865960368654 39.45729698985815,93.2430044451612 39.179857437033206,96.33058498823084 38.90241788397543,98.15003842848819 38.94205210590735,99.36300175866927 38.5853441094514,103.7737395396689 38.38717300025746,105.37261727856821 37.99083078186959,106.75095387609326 38.14936766913161,107.96388527142699" stroke="#4DD2FF" stroke-linecap="round" stroke-linejoin="round" stroke-width="0.5"><title>2025-11-13 6.60km</title><desc>16441313445</desc></polyline></svg>