<?xml version="1.0" encoding="utf-8" ?>
<svg baseProfile="full" height="130mm" version="1.1" viewBox="0,0,100,130" width="100mm" xmlns="http://www.w3.org/2000/svg" xmlns:ev="http://www.w3.org/2001/xml-events" xmlns:xlink="http://www.w3.org/1999/xlink"><defs /><rect fill="#FAF9F5" height="130" width="100" x="0" y="0" /><text fill="#5A5A5A" style="font-size:6px; font-family:Arial; font-weight:bold;color:#0ed45e;" x="5" y="10">节气跑—大雪 有来有往</text><text fill="#5A5A5A" style="font-size:4px; font-family:Arial" x="5" y="121">Runner</text><text fill="#5A5A5A" style="font-size:6px; font-family:Arial" x="2" y="128">蓝皮书</text><text fill="#5A5A5A" style="font-size:4px; font-family:Arial" x="25" y="121">WORKOUTS INFO</text><text fill="#5A5A5A" style="font-size:3px; font-family:Arial" x="25" y="125">Type: Run</text><text fill="#5A5A5A" style="font-size:3px; font-family:Arial" x="22" y="129">Date: 2025-12-07</text><text fill="#5A5A5A" style="font-size:3px; font-family:Arial" x="47" y="125">Distance: 6.03 km</text><text fill="#5A5A5A" style="font-size:3px; font-family:Arial" x="47" y="129">Duration: 45:03min</text><text fill="#5A5A5A" style="font-size:3px; font-family:Arial" x="75" y="125">Pace: 7:28/km</text><text fill="#5A5A5A" style="font-size:3px; font-family:Arial" x="75" y="129">Elevation: 0m</text><polyline fill="none" points="57.964622145053,30.852479560417123 53.373902436578646,32.63205239363015 38.05306678311899,38.96728062129114 29.42472612601705,42.383999831741676 20.741075593279675,45.9430576848099 18.141511420719326,47.2243123530061 18.30744104878977,48.07848032010952 18.36275092512369,49.35972955357283 17.86496204091236,52.42047841305612 17.090623776661232,58.755457636958454 16.814074396621436,60.606110680440906 15.21008799271658,73.13342933059903 14.878228736575693,76.62109325896017 14.546369480667636,78.68520951014943 13.937960844486952,84.23692847468192 13.108312704367563,90.42915818182519 12.721143572125584,94.20139872346772 12.333974440349266,96.26544290670427 12.223354688147083,98.2583051242982 11.006537416251376,107.5819485859829 10.840607787948102,108.50718623085413 10.674678160110489,110.14414097665576 10.72998803597875,110.5 11.061847292119637,110.5 11.283086796058342,110.35765642067418 12.887073200428858,109.29007829492912 15.763186752563342,107.5819485859829 17.533102784771472,106.65670924069127 20.907005221117288,105.37560580216814 23.506569393444806,104.66388026153436 26.880471830023453,104.30801711388631 35.508812486659735,103.95215371460654 42.92033587140031,103.38277175294934 46.73671731585637,103.5962900640443 58.57303078123368,102.52869760303292 71.29430226236582,99.89529318845598 75.77440221910365,98.8988663047785 85.73017989960499,96.97718031820841 88.77222308004275,96.26544290670427 89.21470208815299,96.05192148697097 89.32532184012234,95.62487837579101 88.66160332830623,93.56083156669047 88.49567370023578,93.41848319902783 87.99788481602445,93.34730900020804 68.08632945409045,97.68891672400059 62.99782086140476,98.61417254747357 60.066397433169186,99.53942667075898 58.51772090513259,99.89529318845598 55.86284685670398,100.03763972513843 52.7101839245297,100.03763972513843 46.128308679908514,99.46825333707966 44.2477728954982,99.46825333707966 38.93802479887381,100.96289123274619 37.16810876666568,101.24758366204333 34.623854470439255,101.53227593092015 24.391527409665287,101.95931403175928 20.18797683296725,103.09808053058805 16.92469414882362,104.3791897635092 16.59283489268273,104.30801711388631 16.371595388744026,103.95215371460654 16.039736132370308,102.6710433952976 15.65256700059399,100.03763972513843 15.15477811661549,98.40065212361515 15.15477811661549,97.47539590799715 15.707876876927912,93.34730900020804 15.984426256734878,90.50033279316267 16.59283489268273,86.65688937925734 16.869384272722527,83.52517305413494 17.533102784771472,78.75638578180224 17.80965216481127,75.76697371416958 18.030891668982804,74.48579168063588 18.583990429062396,70.42869373282883 19.026469437172636,66.37156309286365 19.303018817212433,64.44975295779295 19.524258321151137,61.958506679395214 20.02204720512964,59.04017393256072 21.128244725055993,49.35972955357283 21.238864477258176,48.790285852504894 22.40037187328562,48.29202208539937 23.67249902151525,47.5802158487495 25.774274309864268,46.79722782591125 32.02429029834457,44.092350741208065 44.469012399436906,39.03846250817878 62.721271481597796,31.279577613982838 62.9425109855365,31.13721163646551 62.9425109855365,30.852479560417123 62.33410234958865,29.784732841071673 62.168172721518204,29.57118322525639 61.94693321734667,29.5" stroke="#4DD2FF" stroke-linecap="round" stroke-linejoin="round" stroke-width="0.5"><title>2025-12-07 6.03km</title><desc>16670582877</desc></polyline></svg>