<?xml version="1.0" encoding="utf-8" ?>
<svg baseProfile="full" height="130mm" version="1.1" viewBox="0,0,100,130" width="100mm" xmlns="http://www.w3.org/2000/svg" xmlns:ev="http://www.w3.org/2001/xml-events" xmlns:xlink="http://www.w3.org/1999/xlink"><defs /><rect fill="#FAF9F5" height="130" width="100" x="0" y="0" /><text fill="#5A5A5A" style="font-size:6px; font-family:Arial; font-weight:bold;color:#0ed45e;" x="5" y="10">10.1 假期</text><text fill="#5A5A5A" style="font-size:4px; font-family:Arial" x="5" y="121">Runner</text><text fill="#5A5A5A" style="font-size:6px; font-family:Arial" x="2" y="128">蓝皮书</text><text fill="#5A5A5A" style="font-size:4px; font-family:Arial" x="25" y="121">WORKOUTS INFO</text><text fill="#5A5A5A" style="font-size:3px; font-family:Arial" x="25" y="125">Type: Run</text><text fill="#5A5A5A" style="font-size:3px; font-family:Arial" x="22" y="129">Date: 2025-10-01</text><text fill="#5A5A5A" style="font-size:3px; font-family:Arial" x="47" y="125">Distance: 10.01 km</text><text fill="#5A5A5A" style="font-size:3px; font-family:Arial" x="47" y="129">Duration: 01:12:56</text><text fill="#5A5A5A" style="font-size:3px; font-family:Arial" x="75" y="125">Pace: 7:17/km</text><text fill="#5A5A5A" style="font-size:3px; font-family:Arial" x="75" y="129">Elevation: 5m</text><polyline fill="none" points="9.535309502854943,57.75462040430284 9.5,58.66348256272613 9.747166521381587,59.29968454426853 10.029642545618117,59.799556646321435 10.559285091469064,59.981328127061715 12.64254577155225,58.9815837109345 13.38404533546418,58.84525468602078 14.831734960665926,58.345381099614315 15.573234524810687,57.98183618480107 16.597210113191977,57.70917722879676 18.8570183084812,56.80031237169169 21.505231037270278,56.07321863534162 25.31865736702457,54.34636441851035 27.36660854378715,53.52837760365219 28.673060156637803,52.80127646465553 30.438535309396684,51.98328571690945 32.09808195265941,51.347069251554785 32.80427201394923,50.938072287332034 33.757628596387804,50.75629569165176 34.74629468168132,50.39274219199433 35.45248474273831,50.34729797561886 36.33522231900133,50.074632542266045 38.70095902332105,48.89307965809712 40.537053182022646,48.07507896277821 41.94943330413662,47.802411601587664 42.90278988657519,47.39341012612567 43.99738448113203,47.16618685927824 45.056669572601095,46.62085036333883 46.68090671300888,45.98462328166352 48.199215344153345,45.2575050748128 49.682214472442865,44.348605002480326 51.518308631144464,43.530592739465646 52.083260680083185,43.16703106541536 53.88404533569701,42.576242467650445 54.660854402696714,42.12178896117257 55.75544899748638,41.71278025570791 56.74411508254707,41.25832552826614 58.1211857018061,40.849315723840846 58.43897122936323,40.8947612834163 59.46294681774452,41.71278025570791 60.23975588497706,42.8489142631297 61.687445509945974,45.75739901888301 61.89930252823979,46.48451609467156 62.85265911067836,48.66585745161865 63.52353966864757,50.61996317753801 64.5475152572617,52.7558325889695 66.03051438531838,56.7094257446297 66.91325196158141,58.39082418513135 67.65475152572617,60.52664195242687 68.64341761101969,62.61700304443366 69.38491717516445,64.4801395147806 70.02048823004588,66.25238125608303 70.02048823004588,66.57047489314573 69.80863121175207,67.02489382849308 69.56146469037049,67.25210305530345 68.67872711410746,67.57019570289413 67.54882301646285,68.1609383559844 66.87794245849364,68.52447175676934 66.41891891881824,68.88800474625896 65.92458587605506,69.16065421863459 63.66477768099867,70.932870150893 62.92327811685391,71.8416950434621 61.44027898856439,72.75051736622117 60.91063644271344,73.25036854838254 58.96861377498135,74.840798956051 58.72144725359976,75.15888409328181 58.68613775051199,75.34064688748913 59.0392327811569,76.34034041801351 59.003923278069124,76.43122149389819 58.5802092414815,76.70386456738925 58.22711421106942,77.02194786071777 57.732781168306246,77.79443454838474 57.167829119367525,78.52147914661327 56.708805579692125,78.74868024629541 55.967306015547365,78.70324003926362 55.57890148204751,78.79412044701166 55.08456843928434,79.02132135393913 53.9899738447275,79.38484247092856 53.14254577155225,79.97556340930169 52.01264167390764,80.29364346488728 51.48299912828952,80.65716314301244 51.27114210976288,81.06612228942686 50.95335658243857,82.02035827416694 50.74149956391193,82.38387599922135 50.49433304253034,82.61107436884777 50.10592850903049,82.61107436884777 49.18788142967969,82.47475536636193 48.764167393092066,82.61107436884777 48.55231037479825,82.74739331341698 47.704882301623,83.70162430670462 46.716216216096655,84.61041309515713 46.04533565812744,86.29166557994904 45.72755013080314,86.74605663391412 44.315170008689165,87.24588605121244 43.679598953574896,87.20044704538304 43.36181342625059,87.3367640436918 42.16129032243043,88.20010368974181 41.52571926754899,89.10887975947117 40.996076721930876,89.426950776804 40.148648648522794,89.60870550261461 39.76024411502294,89.60870550261461 38.84219703567214,89.33607337539434 38.27724498696625,89.10887975947117 37.78291194420308,89.01800226810155 36.86486486485228,89.33607337539434 35.629032257944345,90.19940765146748 34.640366172418,91.24449340961291 34.146033129887655,92.28957576974062 34.00479511776939,93.15290211312822 33.757628596387804,93.0165875814273 33.687009590212256,93.10746394243324 33.7223190930672,94.10710221593035 33.510462074773386,95.10673738084733 33.687009590212256,96.46987123211147 33.89886660850607,97.2423111818207 34.21665213583037,97.5603741510131 34.499128160532564,97.6966867558076 35.982127288589254,97.83299930259818 37.39450741070323,97.5603741510131 38.38317349599674,97.5603741510131 40.078029642347246,97.15143598991563 41.13731473381631,96.96968552915496 42.62031386233866,96.37899582175305 44.24455100251362,96.33355810702778 47.634263295447454,95.42480246315245 49.29380993894301,95.28848889499204 49.92938099382445,95.10673738084733 50.35309503041208,95.10673738084733 52.40104620740749,94.8341099168756 53.14254577155225,94.47060627187602 54.37837837822735,94.1979782684939 55.89668700937182,93.69815966160968 57.23844812554307,93.47096912880079 58.1211857018061,93.19834027744946 58.368352222954854,93.19834027744946 58.933304272126406,92.97114939143648 59.851351351244375,92.74395834468305 60.23975588497706,92.88027299204259 60.45161290303804,92.9257111948973 61.29904097644612,92.60764363969793 61.93461203132756,92.33501405609422 63.558849171735346,92.19869917773758 65.0065387969371,91.83519255233114 65.92458587605506,91.42624710756354 66.66608544019982,91.28993184381397 67.05448997369967,91.10817806859268 68.11377506540157,90.15396906316164 69.87925021792762,89.47238946799189 70.76198779419065,89.426950776804 71.64472537045367,89.69958282684092 74.08108108094893,89.15431849556626 77.11769834347069,87.42764201044338 78.35353095037863,87.20044704538304 79.20095902332105,86.47342207859037 80.01307759364136,85.83727388372063 81.70793374022469,85.06480652579921 84.00305143836886,83.61074528642348 84.77986050560139,83.47442670812597 85.62728857877664,83.11091021628818 86.40409764600918,83.02003102895105 87.1455972099211,82.79283294870402 87.92240627715364,82.70195367158158 88.59328683512285,82.47475536636193 89.33478639926761,82.15667746929103 90.14690496935509,80.52084331194055 90.46469049691223,78.79412044701166 90.5,77.79443454838474 90.39407149073668,77.43091163269128 89.4407149082981,75.61329088607454 88.45204882300459,73.97742342558922 87.99302528332919,73.2958095264039 87.49869224056602,72.93228152242955 87.2868352222722,72.84139945716015 86.61595466430299,72.93228152242955 85.80383609398268,72.79595841499395 84.32083696592599,72.75051736622117 83.86181342625059,72.84139945716015 83.57933740201406,73.2958095264039 83.19093286828138,73.5684552595485 82.09633827372454,73.79565986053785 80.86050566704944,74.38639107134077 80.15431560599245,74.43183188870898 79.41281604184769,74.29550941716298 78.38884045323357,74.34095024745329 77.54141238005832,74.20462773749023 76.69398430688307,74.15918688790407 75.84655623370782,74.29550941716298 75.2816041847691,74.56815430233837 73.86922406265512,74.88623970927438 73.69267654744908,74.74991743057035 73.58674803818576,74.43183188870898 73.65736704436131,73.70477803939139 73.23365300777368,72.3415476391383 72.70401046215557,71.61448906123405 72.10374891012907,70.47845674087876 71.64472537045367,69.93315980082843 71.07977332174778,68.66079667606391 70.83260680013336,68.43358844518661 70.5854402789846,68.34270510775968 70.19703574525192,68.43358844518661 69.20836965995841,68.84256314500817 68.00784655613825,69.16065421863459 66.56015693116933,69.88771834730869 65.0065387969371,70.97831145647797 62.21708805579692,73.11404557581409 60.94594594580121,73.97742342558922 59.92197035741992,74.56815430233837 58.68613775051199,75.0225619302364 58.650828247657046,75.11344337873743 58.79206625977531,75.47696891566738 59.32170880562626,76.38578095927369 59.63949433318339,76.7947455405083 61.793374018976465,78.20339733728906 62.78204010473564,78.52147914661327 63.38230165652931,78.52147914661327 63.911944202147424,78.33971815131372 64.22972972970456,78.11251676248503 65.14777680905536,77.34003083925927 65.92458587605506,76.43122149389819 66.52484742784873,76.0222564501164 67.30165649531409,75.24976550327847 67.79598953784443,74.88623970927438 68.18439407157712,74.74991743057035 69.10244115092792,74.20462773749023 70.09110723622143,73.25036854838254 70.51482127280906,73.02316356197116 71.50348735810257,72.56875310733449 71.92720139492303,72.11434201017255 71.99782040109858,71.65993027060176 71.92720139492303,71.16007661502226 70.97384481248446,68.70623830301338 70.72667829110287,68.43358844518661 70.16172624239698,68.25182174463407 68.92589363548905,68.1609383559844 66.77201394946314,68.66079667606391 65.88927637296729,69.16065421863459 65.18308631214313,69.84227688753163 64.08849171735346,70.70566352616879 62.32301656482741,72.29610652610427 61.36965998262167,72.88684049309813 59.674803836038336,74.47727269973257 58.72144725359976,75.24976550327847 58.650828247657046,75.43152824608842 58.96861377498135,75.79505342320772 58.933304272126406,75.97681585763348 57.803400174248964,77.56723277419223 57.41499564074911,78.20339733728906 57.02659110724926,78.56691937937285 56.17916303384118,78.74868024629541 55.3670444637537,78.79412044701166 54.34306887513958,79.29396223029471 53.5309503050521,79.79380323618534 52.96599825634621,80.29364346488728 52.083260680083185,80.83892282791203 51.76547515252605,81.15700202903827 50.84742807317525,81.70227992741275 50.317785527324304,82.15667746929103 49.682214472442865,82.24755690054735 48.26983435032889,81.92947877862025 46.36312118568458,82.42931568599306 46.151264167390764,83.4289871690271 45.93940714909695,83.70162430670462 45.339145597303286,84.20145845820662 45.09197907568887,84.83760989076109 45.056669572601095,85.20112442976097 44.597646032925695,86.10990897862939 43.291194420075044,86.83693476766348 42.90278988657519,87.15500803320901 42.23190932860598,88.01834816747578 41.49040976446122,89.74502147946623 40.890148212667555,90.38116194054601 40.5017436791677,90.42660049669212 39.972101133316755,90.24484623339958 37.99476896226406,89.15431849556626 37.42981691355817,88.92712475106237 36.05274629453197,88.92712475106237 35.41717523965053,89.06344101694413 34.781604184769094,89.38151207930059 34.21665213583037,89.47238946799189 34.040104620624334,89.56326683083898 33.757628596387804,89.92677602535696 33.43984306883067,90.4720390465227 33.15736704436131,91.47168551609502 33.19267654744908,92.97114939143648 33.47515257191844,94.37973029655404 33.510462074773386,96.42443353016279 33.82824760233052,96.92424789789948 34.040104620624334,97.74212427769089 34.146033129887655,97.87843680541846 34.74629468168132,97.74212427769089 35.48779424582608,97.83299930259818 36.547079337295145,97.6966867558076 36.79424585867673,97.60581169227953 36.40584132517688,97.33318634799798 34.67567567550577,96.78793496562866 34.25196163891815,96.69705964528839 33.227986050536856,96.92424789789948 32.80427201394923,97.2423111818207 32.41586748021655,97.15143598991563 32.16870095906779,97.2423111818207 30.96817785524763,98.10562422304065 28.990845684194937,99.0598096238682 28.673060156637803,99.15068427613005 27.931560592958704,99.10524695322965 27.71970357443206,98.96893494570395 27.119442022638395,97.65124922728864 25.636442894581705,94.97042367779068 24.824324324261397,93.87991197223892 23.94158674799837,91.8806309030042 23.341325195971876,89.10887975947117 22.317349607823417,86.47342207859037 22.140802092151716,85.42832080775406 21.78770706197247,84.61041309515713 21.363993025152013,83.02003102895105 20.198779424652457,80.56628326201462 19.527898866450414,79.33940235382761 19.03356582368724,77.83987488396815 18.609851787332445,75.97681585763348 18.00959023530595,74.70447665816755 17.26809067139402,72.70507631116197 15.996948561398312,70.114925550326 15.149520488223061,68.79712153741275 13.878378378227353,65.29809845582349 12.995640801964328,61.889922467584256 12.571926765376702,61.071954852406634 12.289450740907341,60.16309950500727 12.360069747082889,59.89044239957002 13.313426329521462,59.20879862399306 16.667829119367525,57.845506735757226 18.18613775051199,57.02752882693312 18.8570183084812,56.75486906131846 20.05754141230136,56.11866204201942 20.728421970270574,55.89144494419452 21.823016564827412,55.66422768571647 22.882301656529307,55.30067973796395 23.517872711410746,54.937131378945196 25.177419354673475,54.61902622753405 26.23670444637537,54.119146067649126 25.353966870112345,54.25547709752573 24.18875326937996,54.937131378945196 23.09415867459029,55.39156676342827 22.564516128972173,55.89144494419452 21.646469049621373,56.30043560467311 19.245422842213884,57.163858622923726 18.539232781156898,57.48196125560207 15.361377506516874,58.527153402828844 14.160854402696714,59.25424158741953" stroke="#89CFF0" stroke-linecap="round" stroke-linejoin="round" stroke-width="0.5"><title>2025-10-01 10.01km</title><desc>15993222088</desc></polyline></svg>