<?xml version="1.0" encoding="utf-8" ?>
<svg baseProfile="full" height="130mm" version="1.1" viewBox="0,0,100,130" width="100mm" xmlns="http://www.w3.org/2000/svg" xmlns:ev="http://www.w3.org/2001/xml-events" xmlns:xlink="http://www.w3.org/1999/xlink"><defs /><rect fill="#FAF9F5" height="130" width="100" x="0" y="0" /><text fill="#5A5A5A" style="font-size:6px; font-family:Arial; font-weight:bold;color:#0ed45e;" x="5" y="10">难得连续14天</text><text fill="#5A5A5A" style="font-size:4px; font-family:Arial" x="5" y="121">Runner</text><text fill="#5A5A5A" style="font-size:6px; font-family:Arial" x="2" y="128">蓝皮书</text><text fill="#5A5A5A" style="font-size:4px; font-family:Arial" x="25" y="121">WORKOUTS INFO</text><text fill="#5A5A5A" style="font-size:3px; font-family:Arial" x="25" y="125">Type: Run</text><text fill="#5A5A5A" style="font-size:3px; font-family:Arial" x="22" y="129">Date: 2025-06-15</text><text fill="#5A5A5A" style="font-size:3px; font-family:Arial" x="47" y="125">Distance: 13.15 km</text><text fill="#5A5A5A" style="font-size:3px; font-family:Arial" x="47" y="129">Duration: 01:31:51</text><text fill="#5A5A5A" style="font-size:3px; font-family:Arial" x="75" y="125">Pace: 6:59/km</text><text fill="#5A5A5A" style="font-size:3px; font-family:Arial" x="75" y="129">Elevation: 8m</text><polyline fill="none" points="90.5,41.882214341370855 89.7561623970978,43.29457614404964 88.26848719199188,43.39545891538728 85.5671822137665,43.59722437232267 82.90502658300102,43.899872342910385 79.77307878201827,44.303402569988975 77.46326727909036,44.40428505523596 76.210488158511,44.55560872939532 71.70831319480203,44.757373528264 71.00362493959256,44.70693233938073 70.61213146452792,44.90869705224759 70.57298211706802,44.85825588461012 69.12445625895634,45.11046165082371 69.16360560664907,48.13691689653206 68.73296278389171,51.71818900993094 68.69381343643181,52.67655148857739 68.22402126644738,57.87183999150875 67.87167713884264,62.613105031166924 67.5193330112379,68.31262724092812 66.93209279840812,75.12167123999097 66.85379410348833,77.1895773227443 66.57974867080338,82.1827644117293 66.34485258581117,86.31848247742164 66.14910584827885,87.22631659382023 65.75761237298138,92.1689283689775 65.64016433060169,95.54802139254753 65.20952150784433,99.43141702550929 64.8180280327797,105.07991683200817 64.11333977757022,107.60153958122828 63.56524891243316,110.07271253789077 58.67158047365956,110.37530396544025 51.742145964177325,110.02228060830384 48.64934751088731,109.770120852947 45.12590623483993,109.770120852947 42.54204929899424,109.5683929202205 40.42798453359865,109.36666487291222 36.630497824866325,109.21536876246682 34.20323827909306,109.11450465294183 30.64064765581861,108.81191215326544 28.7614789751824,108.61018367731594 24.337602706393227,108.50931939631118 22.732479458441958,108.40845508666825 20.30521991290152,108.35802292122389 14.237071048701182,108.25715856879833 12.279603673145175,107.80326862909715 9.891493474831805,107.09721646094113 9.5,101.04528326293803 9.65659738983959,98.4227469098114 9.774045432452112,95.14454928590567 10.008941517444327,88.73936830711318 10.048090865137056,85.91499990443117 10.12638956005685,81.93058492577984 10.048090865137056,71.23801025946159 10.048090865137056,69.47269579893327 9.96979216998443,63.06705262471223 9.96979216998443,58.98150343072484 9.96979216998443,48.94396728029824 9.96979216998443,47.22898302631802 10.361285645049065,46.220164897153154 16.938376026926562,46.01840092809289 18.308603189885616,46.01840092809289 19.600531657692045,46.01840092809289 22.106089898385108,45.766195805656025 25.668680521892384,45.463549422856886 26.99975833739154,44.303402569988975 28.017641372513026,41.78133114069351 27.900193330133334,31.99552470369963 28.017641372513026,30.784890761889983 31.854277428472415,30.583118037728127 34.90792653453536,30.684004414011724 37.3351860800758,30.684004414011724 40.114789753453806,30.583118037728127 41.0152247461956,30.583118037728127 41.876510391477495,30.583118037728127 46.45698405033909,30.3813451990427 47.90550990821794,30.330901971377898 51.6246979215648,30.280458736757282 54.443450942402706,30.179572245804593 60.12010633153841,30.02824245582451 63.13460608990863,29.72558268273133 64.58313194778748,29.624696034530643 69.04615756403655,29.876912601524964 69.82914451416582,30.684004414011724 69.82914451416582,35.3751893179724 69.5942484291736,37.9477483216906 69.39850169164129,40.57073050335748 69.24190430156887,44.353843816090375 68.61551474151202,44.25296131669893 68.02827452868223,45.06002051194082 68.53721604635939,47.73339101814781 67.55848235846497,48.54044231728767 67.16698888363317,49.39793231652584 67.40188496839255,55.0976662505127 66.03165780566633,62.260034280247055 65.75761237298138,65.8411642209976 66.10995650058612,70.07794745787396 65.40526824537665,75.57560287314118 65.56186563544907,77.44176016910933 65.522716288222,79.05572615293204 64.7788786853198,79.10616247195867 61.8426776221022,79.56008902128087 58.593281778739765,80.06445117481053 57.614548090612516,81.67840526110376 56.674963750643656,81.42622541775927 56.00942484289408,80.97230124927592 55.14813919761218,76.43302771114395 54.63919767993502,75.27298184871324 53.15152247459628,75.2225449863181 51.35065248911269,75.52516605364508 50.21532141137868,75.52516605364508 48.37530207820237,75.62603968544863 47.435717738000676,74.97036056694924 45.243354277452454,70.83451058351784 44.577815369702876,67.35430688341148 42.38545190915465,64.12626142348745 41.13267278857529,62.4113503593253 40.50628322851844,60.09116340841865 38.705413243034855,56.15689877743716 36.473900435026735,55.299425070290454 35.41686805221252,54.18975014571333 34.98622522945516,50.81026427989127 37.06114064762369,50.86070460351766 38.90115998056717,50.3563010461221 38.82286128564738,47.93515401464538 39.09690671809949,46.01840092809289 39.72329627838917,44.656491143105086 40.70202996605076,44.353843816090375 41.48501691641286,43.59722437232267 44.46036732709035,42.638837432983564 44.46036732709035,39.561893491540104 45.59569840482436,38.25040109886322 47.279120347928256,37.9477483216906 49.78467858838849,38.704379781964235 51.585548574104905,39.814103012671694 52.525132914306596,37.59465308941435 54.600048332707956,37.84686400531791 56.75326244556345,38.149516868405044 59.41541807632893,38.80526385514531 59.61116481362842,39.91498677112395 59.219671338796616,41.32735638463055 60.94224262912758,41.17603133703233 63.13460608990863,43.59722437232267 65.44441759283654,44.85825588461012 68.10657322360203,45.06002051194082 67.32358627347276,45.00957936584018 64.50483325263485,46.57325156789739 62.273320444626734,47.985594745958224 59.532866118708625,48.5908829626278 58.123489608522505,48.742204856011085 55.61793136759661,48.792645472771255 54.16940550971776,49.04484844952822 51.272353794192895,49.54925386648392 46.30038666026667,50.3058606509876 44.773562107468024,51.61730859868112 40.62373127089813,54.643708487797994 39.09690671809949,56.409096533374395 36.86539390985854,55.45074410989764 35.41686805221252,54.13931029412197 34.63388110185042,48.99440786859486 33.57684871903621,47.481187111727195 29.740212662843987,47.43074630890624 28.09594006766565,45.26178502460243 27.195505074691027,43.79898971458897 28.017641372513026,45.11046165082371 29.38786853523925,46.67413340942585 29.935959400376305,47.632509477145504 32.637264378834516,47.632509477145504 33.57684871903621,47.68295025124098 34.67303044931032,49.59969436880783 35.45601739967242,54.39150948045426 36.787095214938745,55.60206308533088 38.74456259072758,56.459536063019186 39.644997583236545,57.87183999150875 41.28927017888054,62.86529821023578 43.0901401641313,65.28634363229503 45.00845819222741,70.07794745787396 47.82721121306531,75.32341870403616 49.39318511355668,75.62603968544863 53.15152247459628,75.27298184871324 54.32600290002301,75.2225449863181 54.952392460079864,75.92866040961235 55.3047365876846,77.34088705197792 56.24432092788629,81.27491742596612 57.73199613345787,81.57753334526205 58.436684388434514,80.11488735090825 60.824794586747885,79.81227018748177 62.273320444626734,79.56008902128087 65.71846302575432,78.55136256935657 65.48356694052927,72.75112996820826 65.9142097630538,68.86744311018265 65.83591106813401,66.7994886545639 65.67931367806159,64.17669985897373 65.9142097630538,61.90696317885886 66.26655389089137,59.485894758749055 66.89294345094822,56.409096533374395 67.5193330112379,54.39150948045426 67.24528757855296,50.55806255486095 67.5976317061577,48.389120338251814 68.38061865628697,47.53162790724309 68.06742387637496,45.21134390702355 68.96785886911675,44.55560872939532 69.12445625895634,45.66531370676239 68.96785886911675,44.60604993990273" stroke="#F55605" stroke-linecap="round" stroke-linejoin="round" stroke-width="0.5"><title>2025-06-15 13.15km</title><desc>14801384619</desc></polyline></svg>