<?xml version="1.0" encoding="utf-8" ?>
<svg baseProfile="full" height="130mm" version="1.1" viewBox="0,0,100,130" width="100mm" xmlns="http://www.w3.org/2000/svg" xmlns:ev="http://www.w3.org/2001/xml-events" xmlns:xlink="http://www.w3.org/1999/xlink"><defs /><rect fill="#222222" height="130" width="100" x="0" y="0" /><text fill="#FFFFFF" style="font-size:6px; font-family:Arial; font-weight:bold;color:#0ed45e;" x="5" y="10">Evening Walk</text><text fill="#FFFFFF" style="font-size:4px; font-family:Arial" x="5" y="121">Runner</text><text fill="#FFFFFF" style="font-size:6px; font-family:Arial" x="2" y="128">蓝皮书</text><text fill="#FFFFFF" style="font-size:4px; font-family:Arial" x="25" y="121">WORKOUTS INFO</text><text fill="#FFFFFF" style="font-size:3px; font-family:Arial" x="25" y="125">Type: Hike</text><text fill="#FFFFFF" style="font-size:3px; font-family:Arial" x="22" y="129">Date: 2025-07-29</text><text fill="#FFFFFF" style="font-size:3px; font-family:Arial" x="47" y="125">Distance: 3.00 km</text><text fill="#FFFFFF" style="font-size:3px; font-family:Arial" x="47" y="129">Duration: 30:23min</text><text fill="#FFFFFF" style="font-size:3px; font-family:Arial" x="75" y="125">Pace: 10:06/km</text><text fill="#FFFFFF" style="font-size:3px; font-family:Arial" x="75" y="129">Elevation: 32m</text><polyline fill="none" points="13.924369750544429,63.08660997916013 10.8613445404917,68.70377157907933 10.521008403971791,72.59256992372684 9.5,75.18509949930012 12.563025211915374,79.50597740523517 12.903361344709992,80.8022396271117 15.626050421968102,82.53058842965402 23.11344537883997,85.55519656371325 30.260504202917218,84.69102310622111 32.98319327831268,84.69102310622111 38.088235296308994,83.39476247620769 41.15126050449908,83.82684941240586 44.55462184920907,82.96267548273318 49.31932773068547,84.25893628783524 60.89075630158186,82.09850131720304 68.37815126031637,82.96267548273318 77.2268907558173,81.66641414607875 79.60924369841814,82.09850131720304 82.33193277195096,81.23432691511698 87.43697478994727,75.6171875547152 89.13865546137094,70.00003822450526 87.43697478994727,63.08660997916013 84.7142857145518,59.1977999554947 79.60924369841814,55.30898515158333 75.86554621905088,54.44480343628675 63.95378151349723,55.30898515158333 62.59243697300553,54.876894323620945 60.21008403412998,55.30898515158333 57.82773109152913,54.876894323620945 56.12605042010546,55.30898515158333 52.04201680794358,54.876894323620945 49.65966386720538,56.173166633117944 48.298319328576326,55.74107592157088 45.915966387838125,56.60525728436187 43.87394958175719,55.74107592157088 40.810924369841814,57.03734787600115 37.40756302513182,55.74107592157088 34.68487394973636,57.03734787600115 31.962184874340892,57.03734787600115 30.600840337574482,56.60525728436187 25.155462184920907,57.03734787600115 21.411764707416296,56.60525728436187 17.327731093391776,59.1977999554947 13.924369750544429,62.65452021267265 11.542016807943583,66.97541522583924 10.521008403971791,70.86421569436789 11.542016807943583,76.48136349115521 12.563025211915374,79.07388987997547 16.987394960597157,82.96267548273318 20.73109243810177,83.82684941240586 25.836134454235435,82.96267548273318 30.9411764703691,83.82684941240586 39.78991596773267,83.39476247620769 51.361344538629055,83.82684941240586 80.9705882370472,82.53058842965402 86.75630252063274,79.50597740523517 88.79831932671368,76.48136349115521 90.5,73.02465833397582 90.5,66.97541522583924 88.1176470592618,62.22243038751185 85.05462184920907,58.76570965722203 79.26890756189823,54.876894323620945 71.10084033571184,54.876894323620945 66.6764705888927,55.74107592157088 61.23109243810177,55.74107592157088 58.508403362706304,56.60525728436187 48.978991597890854,56.173166633117944 42.172268906608224,57.03734787600115 31.962184874340892,56.173166633117944 24.47478991560638,57.46943841059692 23.11344537883997,56.60525728436187 19.710084035992622,57.03734787600115 12.222689075395465,63.08660997916013 10.521008403971791,68.70377157907933 10.521008403971791,72.59256992372684 11.201680673286319,76.48136349115521 13.243697481229901,80.37015227833763 17.66806722804904,83.39476247620769 20.390756303444505,84.25893628783524 31.621848741546273,83.82684941240586 40.47058823518455,84.69102310622111 41.49159663915634,84.69102310622111 41.831932773813605,83.39476247620769 45.57563025318086,82.09850131720304 53.74369747750461,83.82684941240586 60.21008403412998,82.96267548273318 65.99579831957817,83.39476247620769 81.65126050449908,81.66641414607875 84.7142857145518,80.37015227833763 88.45798319391906,76.48136349115521 89.47899159602821,69.13586052088067 87.77731092460454,62.65452021267265 85.7352941185236,60.06198037415743 79.26890756189823,55.74107592157088 75.18487394973636,54.44480343628675 60.55042016878724,55.30898515158333 58.16806722804904,56.173166633117944 53.06302521005273,55.74107592157088 51.021008402109146,56.60525728436187 44.894957983866334,57.03734787600115 36.386554623022676,55.30898515158333 31.28151260688901,56.60525728436187 20.05042016878724,57.03734787600115 15.626050421968102,59.1977999554947 11.882352942600846,63.95078933541663 10.521008403971791,68.70377157907933 10.8613445404917,71.29630434000865 10.521008403971791,72.16048145503737 10.521008403971791,73.88883497752249 12.903361344709992,76.913451369619 13.243697481229901,78.64180229511112 15.285714285448194,80.37015227833763 16.987394960597157,80.8022396271117 22.773109244182706,85.12310986453667 25.155462184920907,85.55519656371325 35.365546219050884,84.25893628783524 53.40336134470999,84.69102310622111 57.14705882407725,83.82684941240586 64.63445378281176,83.39476247620769 74.8445378150791,81.66641414607875 80.28991596587002,82.09850131720304 84.7142857145518,80.37015227833763 88.1176470592618,76.48136349115521 89.47899159602821,72.59256992372684 89.81932773068547,67.40750440279953 88.45798319391906,62.65452021267265 83.69327731244266,57.03734787600115 81.99159663915634,55.74107592157088 77.90756302699447,54.44480343628675 66.6764705888927,55.74107592157088 63.95378151349723,57.03734787600115 52.04201680794358,55.74107592157088 44.21428571455181,56.60525728436187 36.72689075767994,55.74107592157088 35.02521008439362,56.60525728436187 29.920168068259954,55.74107592157088 27.19747899286449,57.03734787600115 23.453781513497233,56.173166633117944 19.369747899472713,57.46943841059692 15.626050421968102,59.629890193697065 11.882352942600846,64.81496845651418 11.201680673286319,66.97541522583924 13.243697481229901,69.56794940214604 12.903361344709992,73.88883497752249 15.966386556625366,79.50597740523517 19.369747899472713,81.66641414607875 19.369747899472713,82.09850131720304 22.773109244182706,83.39476247620769 33.66386554762721,83.82684941240586 36.386554623022676,83.39476247620769 38.088235296308994,84.25893628783524 42.51260504312813,83.39476247620769 46.59663865715265,84.69102310622111 76.88655462116003,82.96267548273318 81.65126050449908,81.66641414607875 86.41596638597548,79.07388987997547 88.79831932671368,76.48136349115521 90.15966386534274,72.16048145503737 89.47899159602821,65.67914734128863 86.41596638597548,60.494070494547486 83.69327731244266,57.46943841059692 79.60924369841814,54.876894323620945 76.54621848650277,54.44480343628675 71.78151260502636,55.30898515158333 69.39915966242552,54.876894323620945 66.33613445423543,56.173166633117944 63.95378151349723,55.74107592157088 63.61344537883997,55.30898515158333 58.84873949550092,55.30898515158333 57.82773109152913,54.876894323620945 54.424369748681784,56.173166633117944 51.70168067328632,56.173166633117944 49.31932773068547,57.03734787600115 43.19327731244266,55.74107592157088 41.49159663915634,56.60525728436187 36.386554623022676,57.46943841059692 35.365546219050884,57.03734787600115 34.004201682284474,56.173166633117944 28.899159664288163,56.60525728436187 23.794117648154497,57.90152888465673 18.348739497363567,58.33361929957755 14.605042017996311,61.79034050204791 12.222689075395465,66.11123669473454 11.542016807943583,71.29630434000865 12.222689075395465,74.32092320988886 15.966386556625366,80.37015227833763 19.02941176481545,81.23432691511698 21.071428570896387,82.09850131720304 21.411764707416296,82.96267548273318 46.256302520632744,81.23432691511698 54.76470588333905,81.66641414607875 72.46218487247825,79.50597740523517 81.99159663915634,79.50597740523517 83.69327731244266,79.07388987997547 88.1176470592618,74.75301138311625 89.13865546137094,73.45674668462016 90.15966386534274,66.97541522583924 88.1176470592618,61.79034050204791 87.09663865715265,60.06198037415743 81.65126050449908,55.30898515158333 79.26890756189823,54.44480343628675 68.03781512752175,56.173166633117944 65.99579831957817,55.30898515158333 60.89075630158186,56.60525728436187 58.84873949550092,55.74107592157088 56.12605042010546,57.03734787600115 48.63865546323359,57.90152888465673 22.773109244182706,58.76570965722203" stroke="#4DD2FF" stroke-linecap="round" stroke-linejoin="round" stroke-width="0.5"><title>2025-07-29 3.00km</title><desc>15274346669</desc></polyline></svg>