<?xml version="1.0" encoding="utf-8" ?>
<svg baseProfile="full" height="130mm" version="1.1" viewBox="0,0,100,130" width="100mm" xmlns="http://www.w3.org/2000/svg" xmlns:ev="http://www.w3.org/2001/xml-events" xmlns:xlink="http://www.w3.org/1999/xlink"><defs /><rect fill="#FAF9F5" height="130" width="100" x="0" y="0" /><text fill="#5A5A5A" style="font-size:6px; font-family:Arial; font-weight:bold;color:#0ed45e;" x="5" y="10">节气跑—秋分 丰收节</text><text fill="#5A5A5A" style="font-size:4px; font-family:Arial" x="5" y="121">Runner</text><text fill="#5A5A5A" style="font-size:6px; font-family:Arial" x="2" y="128">蓝皮书</text><text fill="#5A5A5A" style="font-size:4px; font-family:Arial" x="25" y="121">WORKOUTS INFO</text><text fill="#5A5A5A" style="font-size:3px; font-family:Arial" x="25" y="125">Type: Run</text><text fill="#5A5A5A" style="font-size:3px; font-family:Arial" x="22" y="129">Date: 2025-09-23</text><text fill="#5A5A5A" style="font-size:3px; font-family:Arial" x="47" y="125">Distance: 10.63 km</text><text fill="#5A5A5A" style="font-size:3px; font-family:Arial" x="47" y="129">Duration: 01:13:33</text><text fill="#5A5A5A" style="font-size:3px; font-family:Arial" x="75" y="125">Pace: 6:55/km</text><text fill="#5A5A5A" style="font-size:3px; font-family:Arial" x="75" y="129">Elevation: 8m</text><polyline fill="none" points="9.5,69.55095879570581 11.97598253376782,77.18515173927881 18.69650655053556,82.12491420307197 45.9323144108057,82.57398315076716 49.46943231485784,81.22677612537518 55.48253275081515,82.12491420307197 83.77947598136961,78.98142985720187 88.37772925943136,70.89817060204223 86.96288209594786,62.81489148316905 80.94978165999055,57.87510002031922 54.421397380530834,58.32417227886617 15.866812227293849,60.56953264749609 9.853711791336536,69.55095879570581 12.32969432324171,77.63422136101872 16.574235808104277,81.22677612537518 45.9323144108057,82.12491420307197 85.19432314485312,76.28701231186278 88.73144104890525,70.00002945866436 88.02401746809483,62.36581983882934 83.07205240242183,56.976955322315916 61.49563318863511,57.87510002031922 24.00218340754509,58.32417227886617 14.451965065672994,61.46767636621371 9.853711791336536,68.20374643639661 10.914847161620855,75.83794250735082 16.220524018630385,81.22677612537518 49.46943231485784,80.77770699420944 84.48689956404269,78.53236042009667 88.37772925943136,72.245381857967 88.02401746809483,64.16210604901426 83.07205240242183,57.87510002031922 59.01965065486729,58.77324447478168 16.927947599440813,60.56953264749609 10.207423580810428,67.75467552733608 10.914847161620855,75.38887264137156 16.927947599440813,82.12491420307197 40.98034934513271,83.02305203536525 69.63100436516106,82.12491420307197 81.30349345132709,79.87956854794174 88.73144104890525,74.04166267276742 89.43886462971568,66.85653352574445 82.71834061294794,58.77324447478168 40.62663755379617,58.77324447478168 16.574235808104277,60.12046069651842 11.268558952957392,65.06024878611788 9.853711791336536,72.6944521535188 13.744541484862566,79.87956854794174 23.294759824872017,83.02305203536525 81.30349345132709,80.32863780111074 88.37772925943136,74.4907327236142 89.08515283837914,66.40746243367903 85.548034934327,59.22231660899706 78.12008733674884,56.52788287983276 15.866812227293849,60.12046069651842 9.5,69.55095879570581 10.561135372146964,76.28701231186278 18.34279476106167,82.57398315076716 65.74017467163503,82.12491420307197 81.30349345132709,81.22677612537518 88.37772925943136,75.38887264137156 89.79257641918957,66.85653352574445 85.19432314485312,57.87510002031922 80.24235807918012,56.078810376580805 31.430131003260612,57.87510002031922 14.80567685700953,61.01860453793779 10.561135372146964,69.55095879570581 11.622270742431283,77.18515173927881 18.34279476106167,82.57398315076716 42.04148471727967,82.12491420307197 84.48689956404269,79.87956854794174 90.14628821052611,70.44910006178543 89.08515283837914,62.81489148316905 79.1812227088958,56.976955322315916 29.307860262691975,57.87510002031922 16.220524018630385,61.01860453793779 10.561135372146964,68.20374643639661 10.561135372146964,75.83794250735082 16.927947599440813,82.12491420307197 48.40829694457352,83.02305203536525 84.13318777270615,78.98142985720187 89.08515283837914,72.6944521535188 88.73144104890525,63.71303458861075 83.77947598136961,57.87510002031922 19.757641922682524,58.77324447478168 12.32969432324171,64.61117744911462 10.207423580810428,73.1435223876033 13.744541484862566,79.87956854794174 22.58733624406159,83.4721208603587 79.88864628784359,80.77770699420944 88.73144104890525,73.59259256115183 90.14628821052611,66.40746243367903 85.548034934327,58.77324447478168 68.21615720540285,57.87510002031922 20.818777292966843,58.32417227886617 14.451965065672994,62.81489148316905 10.561135372146964,72.245381857967 12.32969432324171,78.98142985720187 20.465065501630306,83.4721208603587 62.910480350255966,80.32863780111074 83.77947598136961,78.98142985720187 89.43886462971568,71.79631150048226 89.43886462971568,63.26396306720562 84.13318777270615,57.87510002031922 43.81004366837442,57.42602770216763 20.465065501630306,57.87510002031922 12.683406114578247,64.61117744911462 10.561135372146964,72.6944521535188 14.80567685700953,80.32863780111074 21.52620087377727,83.4721208603587 78.12008733674884,80.77770699420944 86.96288209594786,77.18515173927881 89.79257641918957,68.20374643639661 87.67030567675829,61.46767636621371 79.53493450023234,56.52788287983276 48.76200873404741,58.32417227886617 16.574235808104277,60.56953264749609 11.622270742431283,66.85653352574445 10.914847161620855,75.38887264137156 14.80567685700953,80.77770699420944 40.62663755379617,83.4721208603587 80.59606986865401,81.22677612537518 87.67030567675829,76.28701231186278 90.5,67.75467552733608 86.60917030647397,61.46767636621371 78.47379912808537,56.976955322315916 20.11135371029377,58.77324447478168 13.744541484862566,62.81489148316905 10.561135372146964,71.79631150048226 14.098253274336457,79.87956854794174 20.465065501630306,83.02305203536525 78.82751091755927,81.22677612537518 86.60917030647397,76.73608205700293 89.43886462971568,67.75467552733608 86.60917030647397,60.56953264749609 79.53493450023234,56.976955322315916 19.757641922682524,58.32417227886617 11.622270742431283,64.16210604901426 9.5,71.3472410812974 13.39082969352603,78.98142985720187 20.818777292966843,83.02305203536525 38.858078602701426,82.57398315076716 78.82751091755927,80.77770699420944 86.96288209594786,75.83794250735082 89.79257641918957,69.10188806965016 87.67030567675829,61.91674813255668 79.1812227088958,56.976955322315916 39.91921397484839,58.32417227886617 16.574235808104277,59.22231660899706 10.561135372146964,66.85653352574445 11.622270742431283,75.83794250735082 16.574235808104277,80.77770699420944 62.55676855891943,81.67584519507363 83.77947598136961,79.43049923377112 89.08515283837914,73.1435223876033 89.43886462971568,64.16210604901426 82.71834061294794,57.87510002031922 64.67903930135071,57.87510002031922 20.818777292966843,58.77324447478168 12.683406114578247,64.16210604901426 10.561135372146964,71.3472410812974 13.744541484862566,78.53236042009667 22.233624454587698,82.57398315076716 83.42576419375837,79.43049923377112 89.43886462971568,72.245381857967 89.43886462971568,64.61117744911462 83.07205240242183,57.42602770216763 62.55676855891943,57.87510002031922 33.552401745691895,59.6713886836078 17.635371178388596,61.01860453793779 11.268558952957392,67.30560455704108 11.622270742431283,77.18515173927881 17.635371178388596,81.67584519507363 79.88864628784359,80.32863780111074 85.90174672566354,77.18515173927881 90.14628821052611,69.10188806965016 86.60917030647397,61.01860453793779 79.53493450023234,57.42602770216763 54.06768559105694,58.32417227886617 19.757641922682524,59.22231660899706 13.39082969352603,63.26396306720562 10.914847161620855,72.6944521535188 14.098253274336457,78.98142985720187 21.172489082440734,81.67584519507363 62.55676855891943,81.22677612537518 83.77947598136961,78.08329092198983 89.43886462971568,71.79631150048226 89.79257641918957,64.16210604901426 84.13318777270615,57.87510002031922 20.818777292966843,59.22231660899706 13.744541484862566,62.81489148316905 10.561135372146964,69.55095879570581 12.32969432324171,76.73608205700293 20.11135371029377,81.67584519507363 82.71834061294794,79.43049923377112 88.02401746809483,75.38887264137156 89.79257641918957,68.20374643639661 87.3165938872844,61.01860453793779 78.12008733674884,56.52788287983276 54.77510917186737,57.42602770216763 15.159388648346066,60.56953264749609 10.914847161620855,67.30560455704108 11.268558952957392,74.93980271252804 16.574235808104277,80.32863780111074 39.91921397484839,82.12491420307197 83.77947598136961,79.43049923377112 89.08515283837914,73.1435223876033 89.43886462971568,65.06024878611788 84.13318777270615,58.32417227886617 56.18995633162558,57.42602770216763 36.02838428132236,58.32417227886617 15.866812227293849,60.56953264749609 11.622270742431283,66.85653352574445 11.268558952957392,74.04166267276742 16.220524018630385,80.32863780111074 23.648471616208553,82.57398315076716 78.12008733674884,81.22677612537518 86.25545851513743,78.08329092198983 90.14628821052611,72.6944521535188 89.08515283837914,64.16210604901426 82.71834061294794,58.32417227886617 51.945414846763015,57.42602770216763 17.28165938705206,60.56953264749609 11.97598253376782,65.06024878611788 10.914847161620855,73.59259256115183 16.220524018630385,79.87956854794174 49.82314410433173,81.22677612537518 80.94978165999055,80.77770699420944 88.37772925943136,75.38887264137156 90.5,67.75467552733608 87.3165938872844,60.56953264749609 79.88864628784359,56.52788287983276 28.600436681881547,57.87510002031922 17.989082969725132,59.22231660899706 11.622270742431283,66.40746243367903 11.622270742431283,74.04166267276742 16.574235808104277,80.77770699420944 33.198689956218004,81.67584519507363 79.53493450023234,80.32863780111074 86.96288209594786,75.38887264137156 89.43886462971568,67.30560455704108 86.96288209594786,60.56953264749609 80.24235807918012,56.976955322315916 48.054585153236985,57.42602770216763" stroke="#89CFF0" stroke-linecap="round" stroke-linejoin="round" stroke-width="0.5"><title>2025-09-23 10.63km</title><desc>15903827893</desc></polyline></svg>