<?xml version="1.0" encoding="utf-8" ?>
<svg baseProfile="full" height="130mm" version="1.1" viewBox="0,0,100,130" width="100mm" xmlns="http://www.w3.org/2000/svg" xmlns:ev="http://www.w3.org/2001/xml-events" xmlns:xlink="http://www.w3.org/1999/xlink"><defs /><rect fill="#FAF9F5" height="130" width="100" x="0" y="0" /><text fill="#5A5A5A" style="font-size:6px; font-family:Arial; font-weight:bold;color:#0ed45e;" x="5" y="10">官庄公园初探</text><text fill="#5A5A5A" style="font-size:4px; font-family:Arial" x="5" y="121">Runner</text><text fill="#5A5A5A" style="font-size:6px; font-family:Arial" x="2" y="128">蓝皮书</text><text fill="#5A5A5A" style="font-size:4px; font-family:Arial" x="25" y="121">WORKOUTS INFO</text><text fill="#5A5A5A" style="font-size:3px; font-family:Arial" x="25" y="125">Type: Hike</text><text fill="#5A5A5A" style="font-size:3px; font-family:Arial" x="22" y="129">Date: 2025-12-02</text><text fill="#5A5A5A" style="font-size:3px; font-family:Arial" x="47" y="125">Distance: 1.73 km</text><text fill="#5A5A5A" style="font-size:3px; font-family:Arial" x="47" y="129">Duration: 18:35min</text><text fill="#5A5A5A" style="font-size:3px; font-family:Arial" x="75" y="125">Pace: 10:44/km</text><text fill="#5A5A5A" style="font-size:3px; font-family:Arial" x="75" y="129">Elevation: 17m</text><polyline fill="none" points="77.66758241737261,79.90758461406222 79.15109890094027,79.71426883712411 83.00824175821617,79.90758461406222 84.56593406572938,80.19755817420082 86.42032967042178,79.61761092761299 86.79120879108086,79.3276371138636 87.0879120877944,78.74768910609419 87.23626373615116,77.29781686712522 87.53296703286469,76.621208736673 88.2005494502373,76.04125836124877 89.75824175821617,74.97801468806574 90.42582417605445,74.3014041899005 90.5,73.62479300104314 90.42582417605445,72.75486331485445 89.98076923098415,71.49829619680531 89.5357142854482,71.01500051730545 88.42307692300528,70.43504523631418 88.27472527464852,70.24172669672407 88.2005494502373,68.98515481449431 87.68131868122146,67.7285805499996 87.38461538450792,67.3419418358244 86.49450549436733,66.95530289574526 85.97527472535148,66.27868420816958 87.53296703286469,65.89204464788781 88.12637362629175,65.31208488496486 88.2005494502373,64.8287846945459 88.12637362629175,64.15216383617371 87.53296703286469,62.992240757797845 87.23626373615116,62.702259670884814 86.1978021976538,62.12229711690452 85.38186813192442,62.12229711690452 82.41483516478911,62.992240757797845 81.52472527464852,62.992240757797845 81.07967032957822,62.79892004741123 79.37362637370825,61.34901292191353 78.78021978028119,60.575727824762 78.0384615380317,59.99576341023203 77.51923076901585,59.80244182574097 76.92582417558879,59.899102624855004 73.66208791173995,61.15569173224503 72.2527472525835,62.12229711690452 70.8434065929614,62.79892004741123 69.58241758216172,63.18556141166482 68.76648351643234,63.66886280023027 68.17307692300528,64.63546451978618 68.09890109905973,65.31208488496486 68.54395604413003,67.05196265177801 69.21153846150264,67.43860153562855 68.84065934084356,68.01855943794362 68.2472527474165,69.37179257068783 67.72802197793499,69.85508944839239 67.13461538450792,70.04840810055612 66.46703296666965,69.95174878154648 65.65109890094027,69.56511136383051 65.42857142863795,69.27513315266697 65.05769230751321,69.37179257068783 63.05494505446404,70.04840810055612 62.313186813145876,71.11165968124988 61.34890109859407,71.78827343560988 59.1978021976538,72.27156855125213 58.530219779815525,72.36822753219167 56.601648351643234,71.69161437009461 55.93406593380496,71.69161437009461 55.19230769202113,72.17490955634275 53.8571428572759,73.33481656567892 52.076923076529056,74.59138020221144 51.11263736244291,74.88135608762968 50.0,74.68803884496447 48.813186813145876,74.20474549080245 47.997252746950835,73.43147539166966 47.62637362629175,72.75486331485445 47.478021977934986,72.07825054705609 47.403846153989434,71.4016370892059 47.62637362629175,70.72502294019796 48.66483516432345,68.59851683315355 48.73901098873466,68.2118786261417 48.59065934084356,67.82524019357515 46.66208791220561,66.47200390376383 44.733516483567655,65.69872478325851 44.06593406572938,65.0221048129606 43.54670329671353,63.7655230355449 43.25,63.37888200953603 41.17307692300528,63.08890109183267 39.83791208779439,63.37888200953603 38.42857142863795,62.31561802478973 38.280219780281186,62.41227845731191 38.13186813145876,62.79892004741123 38.05769230751321,64.15216383617371 37.83516483474523,64.9254447609419 37.53846153849736,65.69872478325851 37.0934065929614,66.08536445623031 35.98076923051849,66.08536445623031 35.23901098873466,66.3753440628061 32.1978021976538,66.85864312562626 31.233516483101994,67.14862239395734 28.637362637091428,68.98515481449431 27.450549450702965,69.95174878154648 25.22527472488582,70.72502294019796 24.483516483567655,71.69161437009461 23.445054944604635,72.07825054705609 21.516483516432345,72.17490955634275 20.403846153523773,71.88493248686427 18.920329669956118,71.30497796746204 18.030219779815525,70.24172669672407 17.36263736244291,68.4051977575873 17.06593406572938,68.01855943794362 16.695054944604635,67.63192089274526 15.137362637091428,66.95530289574526 14.247252746950835,66.95530289574526 13.802197801880538,66.76198334118817 13.505494505632669,66.3753440628061 13.431318681221455,66.08536445623031 13.57967032911256,64.73212461435469 13.505494505632669,64.2488240012899 13.134615384042263,63.958843464031816 11.13186813145876,62.895580409734976 10.909340659156442,62.79892004741123 10.61263736197725,63.08890109183267 9.79670329624787,65.50540486210957 9.5,65.89204464788781" stroke="#4DD2FF" stroke-linecap="round" stroke-linejoin="round" stroke-width="0.5"><title>2025-12-02 1.73km</title><desc>16623612964</desc></polyline></svg>