<?xml version="1.0" encoding="utf-8" ?>
<svg baseProfile="full" height="130mm" version="1.1" viewBox="0,0,100,130" width="100mm" xmlns="http://www.w3.org/2000/svg" xmlns:ev="http://www.w3.org/2001/xml-events" xmlns:xlink="http://www.w3.org/1999/xlink"><defs /><rect fill="#FAF9F5" height="130" width="100" x="0" y="0" /><text fill="#5A5A5A" style="font-size:6px; font-family:Arial; font-weight:bold;color:#0ed45e;" x="5" y="10">通惠河畔亲水跑</text><text fill="#5A5A5A" style="font-size:4px; font-family:Arial" x="5" y="121">Runner</text><text fill="#5A5A5A" style="font-size:6px; font-family:Arial" x="2" y="128">蓝皮书</text><text fill="#5A5A5A" style="font-size:4px; font-family:Arial" x="25" y="121">WORKOUTS INFO</text><text fill="#5A5A5A" style="font-size:3px; font-family:Arial" x="25" y="125">Type: Run</text><text fill="#5A5A5A" style="font-size:3px; font-family:Arial" x="22" y="129">Date: 2025-11-21</text><text fill="#5A5A5A" style="font-size:3px; font-family:Arial" x="47" y="125">Distance: 7.08 km</text><text fill="#5A5A5A" style="font-size:3px; font-family:Arial" x="47" y="129">Duration: 49:54min</text><text fill="#5A5A5A" style="font-size:3px; font-family:Arial" x="75" y="125">Pace: 7:02/km</text><text fill="#5A5A5A" style="font-size:3px; font-family:Arial" x="75" y="129">Elevation: 14m</text><polyline fill="none" points="9.5,73.74854449355917 9.584573218482547,73.94147913553752 9.901722787879407,74.02416535031807 11.085747846518643,74.07928947340406 11.846906812861562,74.05172741384013 14.933829287416302,74.02416535031807 15.864134690724313,73.94147913553752 18.126468284986913,73.58317178640573 20.896241190377623,73.25242593763687 21.34025058732368,73.11461499628786 23.370007830904797,72.78386832683464 27.619812059449032,72.83899281200138 29.71299921697937,72.9492417339934 31.65818324207794,72.92167950948351 32.79992169153411,72.78386832683464 34.59710258420091,72.42555878117855 37.113155834027566,72.06724855567154 41.19381362572312,71.37818851877819 42.58927173062693,71.29550114540325 44.49216914654244,71.26793867952074 45.422474549734034,71.21281373582315 45.73962411901448,71.10256380002829 46.352779953042045,71.10256380002829 46.839075959287584,70.99231379984121 47.32537196564954,71.01987630597432 47.93852779956069,70.66156341317401 48.19224745489191,70.60643829242326 48.31910728267394,70.60643829242326 48.42482380568981,70.68912596756127 48.59397024277132,70.90962625744578 48.80540328891948,71.07500130597327 49.185982772149146,71.10256380002829 55.93069694598671,70.74425106414128 58.61589663277846,70.55131315553444 59.12333594355732,70.66156341317401 60.666797180776484,70.57887572594336 62.63312451064121,70.41350024293934 64.0285826154286,70.41350024293934 65.31832419731654,70.35837504982192 66.22748629597481,70.24812461514375 66.67149569303729,69.97249824693426 67.58065779169556,69.55905794021965 67.85552075167652,69.44880703889066 71.49216914642602,68.75973744716612 74.79052466712892,67.9052876613132 75.40368050115649,67.79503579440643 76.88371182454284,67.40915375333861 77.51801096322015,67.05083400908916 77.87744714180008,66.94058164325543 78.87118245882448,66.74763984825404 79.59005481586792,66.69251358488691 80.96436961635482,66.4168820267223 81.23923257633578,66.33419248071732 82.0003915426787,65.92074420809513 82.52897415799089,65.75536464551988 86.01761942054145,65.23166174176731 86.50391542667057,65.20409839083732 86.90563821454998,65.28678843162197 88.38566953781992,65.9483074543532 88.97768206731416,66.25150289863814 89.71769772900734,66.52713469821902 89.82341425213963,66.60982415966282 90.01370399363805,66.91301854178892 90.47885669535026,67.40915375333861 90.5,67.51940584553813 90.4365700861672,68.5667975108372 90.41542678151745,70.93718877562787 90.37314017221797,71.35062606495922 90.26742364908569,71.84674961745623 90.11942051688675,72.06724855567154 89.82341425213963,72.39799648032931 89.50626468285918,72.06724855567154 89.18911511346232,71.9294367494731 89.10454189497977,71.95699911877455 88.70281910721678,72.34287186643633 88.59710258420091,72.37043417536188 88.36452623340301,72.315309553509 87.64565387624316,72.03968620247906 87.43422082997859,72.06724855567154 87.18050117464736,72.20506026134535 87.13821456534788,72.14993559118011 87.15935786999762,71.73650005183299 87.07478465151507,71.48843829365796 87.07478465151507,71.35062606495922 86.99021143303253,71.48843829365796 86.88449490990024,71.51600072727888 86.31362568517216,71.51600072727888 86.03876272507478,71.65381283531315 85.99647611589171,71.46087585593341 85.93304620194249,71.37818851877819 85.46789350034669,71.04743880797469 85.40446358651388,70.93718877562787 85.3621769772144,70.60643829242326 85.27760375873186,70.52375058103644 83.69185591221321,70.44106283351721 82.40211433044169,70.16543674694549 80.87979639775585,69.91737292500329 80.75293657009024,69.94493558796239 80.54150352394208,70.05518619962095 80.05520751769654,70.66156341317401 79.88606108061504,70.8269386789616 79.65348472970072,70.88206373530556 78.89232576347422,70.90962625744578 78.25802662491333,71.01987630597432 78.15231010178104,71.07500130597327 77.8985904463334,71.35062606495922 77.26429130777251,71.68137524477788 76.3339859044645,71.87431199877756 75.82654659356922,72.03968620247906 75.48825371963903,72.09481090486224 75.2979639780242,72.09481090486224 74.91738449491095,71.98456148403056 73.71221613150556,72.2326225903962 73.31049334374256,72.26018491540162 72.8664839467965,72.17749792823452 72.27447141730227,72.14993559118011 71.09044635854661,72.315309553509 69.25097885669675,72.12237325008027 68.74353954568505,72.0121238452266 68.15152701642364,71.95699911877455 66.81949882535264,71.68137524477788 66.3966327329399,71.65381283531315 65.84690681286156,71.76406244924874 64.17658574786037,71.76406244924874 63.92286609229632,71.8191872320458 63.77486296009738,72.0121238452266 62.886844165972434,72.12237325008027 60.49765074392781,72.315309553509 59.41934220830444,72.34287186643633 58.89075959275942,72.42555878117855 57.32615505089052,72.5358079445723 55.14839467499405,72.5358079445723 53.20321064989548,72.61849477484066 52.94949099456426,72.59093250214937 52.78034455748275,72.48068337092991 52.37862176983617,72.45312107809877 50.222004698589444,72.56337022532534 50.898590446449816,72.61849477484066 51.04659357864875,72.72874382560258 50.96202036028262,72.78386832683464 49.31284259993117,72.83899281200138 48.657400156604126,72.81143057139707 48.48825371963903,72.70118156899116 48.46711041510571,72.50824565977382 48.382537196506746,72.67361930826155 48.001957713393494,72.72874382560258 47.85395458107814,72.61849477484066 46.92364917777013,72.59093250214937 46.564212999190204,72.50824565977382 45.95105716527905,72.64605704361747 44.23844949097838,72.61849477484066 43.01213782292325,72.64605704361747 41.17267032107338,72.78386832683464 40.05207517626695,73.00436617084779 39.14291307760868,73.11461499628786 36.64800313243177,73.55560965438781 35.14682850439567,73.74854449355917 32.821064996067435,74.13441358038108 31.48903680499643,74.24466174612462 30.474158183205873,74.27222377747239 29.18441660143435,74.18953767129278 27.51409553643316,74.18953767129278 25.46319498831872,74.05172741384013 23.200861393939704,74.05172741384013 22.164839467499405,74.1068515288789 20.113938919384964,74.38247186274384 17.534455755725503,74.79590160916268" stroke="#4DD2FF" stroke-linecap="round" stroke-linejoin="round" stroke-width="0.5"><title>2025-11-21 7.08km</title><desc>16519786312</desc></polyline></svg>