<?xml version="1.0" encoding="utf-8" ?>
<svg baseProfile="full" height="130mm" version="1.1" viewBox="0,0,100,130" width="100mm" xmlns="http://www.w3.org/2000/svg" xmlns:ev="http://www.w3.org/2001/xml-events" xmlns:xlink="http://www.w3.org/1999/xlink"><defs /><rect fill="#222222" height="130" width="100" x="0" y="0" /><text fill="#FFFFFF" style="font-size:6px; font-family:Arial; font-weight:bold;color:#0ed45e;" x="5" y="10">Morning Run</text><text fill="#FFFFFF" style="font-size:4px; font-family:Arial" x="5" y="121">Runner</text><text fill="#FFFFFF" style="font-size:6px; font-family:Arial" x="2" y="128">蓝皮书</text><text fill="#FFFFFF" style="font-size:4px; font-family:Arial" x="25" y="121">WORKOUTS INFO</text><text fill="#FFFFFF" style="font-size:3px; font-family:Arial" x="25" y="125">Type: Run</text><text fill="#FFFFFF" style="font-size:3px; font-family:Arial" x="22" y="129">Date: 2025-06-10</text><text fill="#FFFFFF" style="font-size:3px; font-family:Arial" x="47" y="125">Distance: 5.25 km</text><text fill="#FFFFFF" style="font-size:3px; font-family:Arial" x="47" y="129">Duration: 37:59min</text><text fill="#FFFFFF" style="font-size:3px; font-family:Arial" x="75" y="125">Pace: 7:13/km</text><text fill="#FFFFFF" style="font-size:3px; font-family:Arial" x="75" y="129">Elevation: 11m</text><polyline fill="none" points="90.5,84.90287504447042 89.32019085879438,85.00618300240603 88.87267704680562,84.90287504447042 87.97764942236245,85.05783697086736 86.83852335507981,85.00618300240603 86.59442491224036,85.16114488654421 86.43169261678122,85.16114488654421 86.14691110001877,85.41941455251072 85.90281265694648,85.31610670729424 85.25188347580843,85.31610670729424 84.19412355590612,85.4710684644815 83.17704671015963,85.4710684644815 82.68884982424788,85.52272236955469 82.48543445533141,85.62603015830973 82.2413360120263,85.57437626738101 81.59040683065541,85.67768404210801 80.73606228036806,85.52272236955469 80.45128076337278,85.41941455251072 79.92240080377087,85.4710684644815 79.80035158223473,85.57437626738101 79.0273731793277,85.67768404210801 78.57985936710611,85.41941455251072 78.33576092403382,85.36776063355501 78.09166248119436,85.26445277413586 77.44073329982348,85.16114488654421 76.99321948760189,85.21279883387615 76.5863887493033,85.16114488654421 76.50502260169014,85.05783697086736 76.42365645407699,85.16114488654421 75.97614264208823,85.21279883387615 75.65067805140279,85.41941455251072 75.4065796083305,85.36776063355501 75.28453038702719,85.4710684644815 74.99974887003191,85.52272236955469 73.77925665490329,85.31610670729424 72.64013058762066,85.26445277413586 72.19261677539907,85.10949093228555 70.3618784530554,85.41941455251072 70.1584630839061,85.36776063355501 69.95504771498963,85.41941455251072 69.01933701662347,85.4710684644815 68.16499246610329,85.62603015830973 65.96810647915117,85.62603015830973 65.07307885494083,85.7809917885752 63.07960823713802,85.88429950684076 62.14389753877185,85.7809917885752 61.04545454564504,85.83264565115678 60.801356102572754,85.98760719684651 60.63862380711362,86.03926103122649 59.70291310898028,85.83264565115678 57.831491712713614,85.93595335542341 56.244851833442226,85.72933791892137 55.02435961831361,86.03926103122649 54.82094424916431,85.93595335542341 53.763184329494834,86.03926103122649 53.1936212957371,85.98760719684651 51.647664490388706,86.09091485867975 50.5899045704864,85.88429950684076 49.8169261678122,86.19422249222407 49.491461577126756,86.24587629848975 48.79984932206571,86.09091485867975 48.47438473138027,86.14256867894437 47.90482169785537,86.09091485867975 47.45730788563378,86.3491838897753 46.27749874442816,86.14256867894437 45.78930185851641,86.19422249222407 45.423154193907976,86.09091485867975 45.26042189844884,86.19422249222407 44.89427423407324,86.09091485867975 44.039929683553055,86.03926103122649 43.30763435456902,86.03926103122649 42.697388247121125,85.93595335542341 42.04645906575024,86.19422249222407 41.7209944750648,86.14256867894437 40.825966850854456,86.2975300977123 39.442742340732366,85.98760719684651 38.75113008543849,85.52272236955469 38.5070316423662,85.52272236955469 38.059517830377445,85.83264565115678 37.20517327985726,85.57437626738101 36.757659467635676,85.72933791892137 36.39151180326007,85.62603015830973 36.188096434110776,85.7809917885752 35.6998995479662,85.7809917885752 35.089653440518305,85.98760719684651 34.804871923755854,85.98760719684651 34.60145655460656,86.14256867894437 34.15394274238497,86.14256867894437 33.38096433971077,86.40083767496981 32.648669010493904,86.40083767496981 31.794324459973723,86.65910649445141 31.46885986928828,86.55579898779979 31.224761426448822,86.60745274461806 30.85861376207322,86.45249145291746 30.736564540304244,86.55579898779979 30.411099949851632,86.60745274461806 30.248367654392496,86.55579898779979 29.719487694557756,86.65910649445141 29.109241587342694,86.60745274461806 28.865143144270405,86.71076023718342 28.051481667673215,86.60745274461806 26.708940231008455,86.8657214230625 26.342792566632852,86.76241397287231 25.895278754178435,86.81406770151807 25.651180311571807,86.71076023718342 24.878201908664778,86.8657214230625 24.14590657968074,86.81406770151807 23.90180813660845,86.81406770151807 23.657709693768993,86.65910649445141 22.76268206932582,86.91737513768021 22.315168257104233,86.96902884508017 21.867654444882646,86.8657214230625 21.42014063289389,87.02068254555343 21.053992968285456,86.91737513768021 20.647162230219692,86.91737513768021 18.775740833720192,86.76241397287231 18.368910095421597,86.81406770151807 17.63661476667039,86.71076023718342 17.31115017575212,86.91737513768021 16.904319437453523,86.96902884508017 16.49748869915493,87.1756436045398 15.683827222790569,87.33060460010893 14.626067302655429,87.33060460010893 14.3819688600488,87.4339118952339 14.259919638279825,87.38225825113477 14.056504269130528,87.48556553208618 12.958061275770888,87.4339118952339 10.720492214895785,87.53721916192444 9.5,87.33060460010893 10.191612255293876,87.33060460010893 10.31366147659719,87.22729727672413 10.517076845746487,87.33060460010893 11.12732295342721,87.4339118952339 12.022350577637553,87.4339118952339 12.876695128157735,87.33060460010893 13.080110497307032,87.4339118952339 13.405575087992474,87.33060460010893 14.707433450501412,87.4339118952339 15.114264188800007,87.22729727672413 16.49748869915493,86.91737513768021 16.78227021591738,86.8657214230625 17.06705173291266,86.96902884508017 17.270467102061957,86.81406770151807 17.92139628320001,86.81406770151807 18.084128578426316,86.60745274461806 18.20617780019529,86.76241397287231 19.426670015091076,86.81406770151807 19.914866901002824,86.71076023718342 20.687845303677022,86.65910649445141 21.053992968285456,86.55579898779979 21.053992968285456,86.60745274461806 22.274485183414072,86.60745274461806 22.844048217171803,86.50414522382198 23.33224510308355,86.55579898779979 23.739075841382146,86.40083767496981 24.512054244056344,86.65910649445141 25.000251129968092,86.60745274461806 25.813912606798112,86.71076023718342 26.098694123560563,86.60745274461806 26.505524861859158,86.65910649445141 26.749623304931447,86.60745274461806 27.156454043230042,86.65910649445141 28.17353088920936,86.60745274461806 29.434706177795306,86.65910649445141 30.08563535893336,86.55579898779979 30.492466097464785,86.65910649445141 31.021346057299525,86.60745274461806 32.28252134588547,86.71076023718342 33.29959819209762,86.55579898779979 33.86916122562252,86.55579898779979 34.15394274238497,86.60745274461806 35.04897036659531,86.45249145291746 36.02536413865164,86.45249145291746 36.961074836784974,86.2975300977123 39.93093922641128,86.2975300977123 40.90733299846761,86.3491838897753 41.39552988461219,86.24587629848975 41.843043696600944,86.24587629848975 42.982169763883576,86.3491838897753 43.9585635359399,86.19422249222407 46.236815670505166,86.24587629848975 46.92842792556621,86.09091485867975 47.09116022102535,85.88429950684076 47.25389251625165,85.36776063355501 47.25389251625165,84.33468077084399 47.294575590174645,84.02475626187515 47.21320944256149,83.61152318830136 47.294575590174645,83.30159808698227 47.294575590174645,82.01024076467729 47.21320944256149,81.13211526759551 47.33525866409764,80.46060615908937 47.49799095932394,79.78909585857764 47.538674033246934,79.37585815810598 47.3759417377878,78.75600076088449 47.41662481171079,78.49772654584376 47.1725263686385,77.77455780495075 47.21320944256149,77.15469778390252 47.13184329471551,76.68980210146401 47.1725263686385,76.22490584777552 47.09116022102535,75.24345632488257 47.1725263686385,74.26200425549177 47.13184329471551,73.33220520947361 47.009794073412195,72.9189604553103 47.050477147102356,72.35074818122666 47.009794073412195,71.98915810792823 47.13184329471551,71.83419082776527 47.009794073412195,71.6275676889345 46.92842792556621,70.95604170812294 46.88774485164322,69.87126645163517 46.68432948272675,69.09642507805256 46.8063787042629,68.26992586359847 46.725012556649745,66.46195253584301 46.64364640880376,66.10035683342721 46.84706177818589,64.44734350577346 46.64364640880376,63.724147903354606 46.56228026119061,62.22609547144384 46.6029633351136,61.86449571957928 46.521597187267616,61.451238437206484 46.56228026119061,61.192952406418044 46.480914113577455,60.52140790093108 46.6029633351136,59.901519606792135 46.521597187267616,59.22997280865093 46.6029633351136,58.97168526117457 46.6029633351136,57.886875635478646 46.64364640880376,57.42195627189358 46.56228026119061,57.26698302384466 46.6029633351136,56.85372071847087 46.521597187267616,56.078852678620024 46.6029633351136,55.97553681998397 46.6029633351136,55.82056297946838 46.521597187267616,55.61393109289929 46.56228026119061,54.994034756324254 46.480914113577455,54.8390605134482 46.480914113577455,54.0125301455555 46.39954796573147,53.80589727155166 46.440231039887294,53.547606020147214 46.31818181811832,53.39263118468807 46.35886489204131,52.72107283031801 46.31818181811832,52.566097656061174 46.11476644896902,52.46278083807556 46.11476644896902,53.18599797185743 45.626569563057274,54.5807699674624 45.46383726783097,55.45895710409968 45.46383726783097,55.76890501836897 45.70793571090326,56.54377369303256 45.667252636980265,56.69874723741668 45.911351080052555,57.112009712232975 45.78930185851641,57.62858717064955 45.87066800589673,57.731902577739675 45.952034153742716,58.24847918970045 46.03340030135587,58.506767230981495 45.911351080052555,59.22997280865093 46.07408337551169,59.643232517992146 46.03340030135587,60.3147785825422 46.236815670505166,60.72803710657172 46.15544952289201,61.141295179055305 46.236815670505166,61.554552800167585 46.196132596815005,61.812838584010024 46.236815670505166,62.27775255049346 46.11476644896902,63.36254958360223 46.27749874442816,63.62083413306391 46.480914113577455,64.65397056675283 46.56228026119061,65.48047768208198 46.521597187267616,65.79041738458909 46.68432948272675,65.99704371200642 46.35886489204131,66.66857849646476 46.39954796573147,67.4434248431644 46.27749874442816,68.01164448854979 46.56228026119061,68.57986328069819 46.6029633351136,69.25139347987715 46.6029633351136,69.87126645163517 46.765695630339906,70.43948245007778 46.6029633351136,70.5427943582763 46.64364640880376,71.05935347508057 46.521597187267616,71.7825350537023 46.6029633351136,71.98915810792823 46.56228026119061,72.14412532444112 46.64364640880376,72.14412532444112 46.88774485164322,72.81564919621451 46.725012556649745,73.07392729094136 46.725012556649745,73.4871718758659 46.64364640880376,73.74544951203279 46.64364640880376,74.62359215639299 46.765695630339906,75.19180101621896 46.64364640880376,75.5533880283474 46.68432948272675,75.70835378489573 46.6029633351136,76.32821617572336 46.68432948272675,76.79311230260646 46.64364640880376,77.05138768165489 46.64364640880376,77.61959289480001 46.56228026119061,77.77455780495075 46.64364640880376,78.18779725470813 46.56228026119061,78.44607168150833 46.56228026119061,78.85931039776187 46.64364640880376,79.06592958647525 46.64364640880376,79.2725486624986 46.8063787042629,79.37585815810598 46.765695630339906,79.63413177381153 46.68432948272675,79.73744117075694 46.765695630339906,79.99571453954559 47.13184329471551,80.30564234932535 46.88774485164322,80.71887903413153 46.88774485164322,81.3387332149141 46.64364640880376,82.21685823251028 46.725012556649745,82.63009282958228 46.88774485164322,82.83670995887951 46.8063787042629,83.45656066937954 47.13184329471551,83.92144803580595 47.1725263686385,84.12806445965543 47.09116022102535,84.38633483095327 47.050477147102356,84.79956705807126 47.1725263686385,85.41941455251072 47.41662481171079,85.83264565115678 47.86413862393238,85.88429950684076 48.59643395291641,85.7809917885752 48.75916624814272,85.52272236955469 48.881215469678864,84.8512210547924 48.79984932206571,84.54129696899327 48.71848317421973,83.61152318830136 48.71848317421973,82.26851258188253 48.75916624814272,81.80362318412517 48.79984932206571,81.70031435135752 48.75916624814272,80.92549720729585 48.79984932206571,80.71887903413153 48.881215469678864,79.42751289534499 48.51506780507043,77.61959289480001 48.55575087899342,76.06994030307396 48.637117026606575,75.4500774887274 48.677800100529566,75.39842220841092 48.43370165745728,74.62359215639299 48.47438473138027,74.3653151197359 48.47438473138027,73.84876051719766 48.393018583767116,73.33220520947361 48.47438473138027,73.17723847948946 48.393018583767116,72.97061607436626 48.43370165745728,72.45405956727336 48.352335509844124,72.29909247771138 48.393018583767116,72.04081385376048 48.352335509844124,71.52425607724581 48.51506780507043,71.05935347508057 48.59643395291641,70.43948245007778 48.43370165745728,68.52820706210332 48.47438473138027,68.01164448854979 48.55575087899342,67.49508120981045 48.31165243592113,64.13740270258859 48.393018583767116,63.41420650767395 48.352335509844124,61.812838584010024 48.27096936223097,61.141295179055305 48.352335509844124,60.46975058183307 48.27096936223097,59.901519606792135 48.31165243592113,59.48826017981628 48.18960321438499,59.02334278472699 48.27096936223097,58.816712647880195 48.14892014069483,58.30013681206037 48.18960321438499,58.145163923618384 48.18960321438499,57.008694135729456 48.31165243592113,56.64708939628326 48.18960321438499,55.303983051504474 48.06755399284884,54.890718601527624 48.06755399284884,53.90921372271259 47.94550477154553,53.23765628552064 47.98618784546852,52.72107283031801 48.14892014069483,52.82438957784325 48.14892014069483,53.13433965094737 47.98618784546852,53.495947748742765 47.94550477154553,54.0125301455555 47.78277247608639,54.374137403821805 47.74208940239623,54.63242809078656 47.90482169785537,55.51061510745785 47.90482169785537,55.923878880246775 48.06755399284884,56.64708939628326 47.94550477154553,57.42195627189358 47.94550477154553,57.680244877701625 48.02687091915868,57.83521795659908 47.94550477154553,58.40345203553443 48.02687091915868,58.92002773054992 47.94550477154553,60.15980651957216 48.108237066771835,61.296266839897726 48.06755399284884,61.451238437206484 48.18960321438499,62.79432295434526 48.14892014069483,63.155921817116905 48.352335509844124,63.46586342449882 48.393018583767116,63.982432205812074 48.31165243592113,64.55065705027664 48.14892014069483,65.06722435011761 48.47438473138027,65.89373056241311 48.51506780507043,66.41029602815979" stroke="#4DD2FF" stroke-linecap="round" stroke-linejoin="round" stroke-width="0.5"><title>2025-06-10 5.25km</title><desc>14749000799</desc></polyline></svg>