<?xml version="1.0" encoding="utf-8" ?>
<svg baseProfile="full" height="130mm" version="1.1" viewBox="0,0,100,130" width="100mm" xmlns="http://www.w3.org/2000/svg" xmlns:ev="http://www.w3.org/2001/xml-events" xmlns:xlink="http://www.w3.org/1999/xlink"><defs /><rect fill="#FAF9F5" height="130" width="100" x="0" y="0" /><text fill="#5A5A5A" style="font-size:6px; font-family:Arial; font-weight:bold;color:#0ed45e;" x="5" y="10">Morning Run-M</text><text fill="#5A5A5A" style="font-size:4px; font-family:Arial" x="5" y="121">Runner</text><text fill="#5A5A5A" style="font-size:6px; font-family:Arial" x="2" y="128">蓝皮书</text><text fill="#5A5A5A" style="font-size:4px; font-family:Arial" x="25" y="121">WORKOUTS INFO</text><text fill="#5A5A5A" style="font-size:3px; font-family:Arial" x="25" y="125">Type: Run</text><text fill="#5A5A5A" style="font-size:3px; font-family:Arial" x="22" y="129">Date: 2025-12-16</text><text fill="#5A5A5A" style="font-size:3px; font-family:Arial" x="47" y="125">Distance: 7.08 km</text><text fill="#5A5A5A" style="font-size:3px; font-family:Arial" x="47" y="129">Duration: 50:18min</text><text fill="#5A5A5A" style="font-size:3px; font-family:Arial" x="75" y="125">Pace: 7:06/km</text><text fill="#5A5A5A" style="font-size:3px; font-family:Arial" x="75" y="129">Elevation: 0m</text><polyline fill="none" points="64.11652115499601,29.956994436477544 63.626930825877935,30.307048891991144 59.81900604441762,31.707264239550568 50.6255876426585,35.41781576050562 46.817662860965356,37.098056359332986 44.859301544493064,37.7981549257529 32.184351914096624,43.25888977275463 28.53962390869856,44.589059652382275 18.74781732726842,48.719564397324575 17.877434519818053,49.20962199597852 16.571860308991745,50.819807833235245 15.864674277836457,52.499996168276994 15.429482874460518,55.37030471835169 14.831094694556668,60.83084578142734 14.12390866363421,65.24123883515131 14.015110812848434,66.78136683820048 12.92713230359368,74.97196710770368 12.92713230359368,76.16204305438441 12.002350570866838,82.46239747534855 11.73035594355315,84.91251365887001 11.403962390962988,86.73259211919503 11.349563465686515,87.92263980349526 9.989590329118073,98.00292901339708 9.880792478332296,99.33295185078168 9.5,101.922986073012 9.5,102.27298965869704 9.66319677629508,102.27298965869704 10.914372061612085,101.5029814435693 13.906312961829826,100.10296343962546 14.232706514652818,100.17296443402302 14.341504365205765,100.45296831190353 14.450302216224372,101.15297731370083 14.395903290715069,101.85298532622983 13.36232370720245,108.08301304810448 13.253525856183842,109.55300816180534 13.253525856183842,109.90300635519088 13.36232370720245,110.04300556355156 13.797515110811219,109.9730059641588 15.048690396361053,109.13301000325009 19.890194761566818,106.54301348750596 22.88213566155173,105.35301054731826 25.656480859499425,104.51300674999948 29.13801208860241,104.09300431713928 31.640362659702078,104.09300431713928 32.12995298858732,104.30300557802548 32.61954331770539,104.79300817387411 33.48992612515576,105.21301001316169 34.03391537931748,105.00300913816318 35.013096037786454,104.86300850528642 38.005036937538534,104.79300817387411 38.27703156485222,105.00300913816318 38.54902619216591,106.68301364535 38.82102081924677,107.31301386651467 39.14741437206976,107.87301339005353 39.90899932826869,108.50301209723693 40.72498321020976,108.99301053766976 41.37777031539008,109.20300972103723 42.30255204834975,109.27300942884176 42.9009402282536,109.13301000325009 43.662525184685364,108.71301148834755 45.892881128471345,107.10301388180233 46.32807253184728,106.61301357141929 46.70886500994675,106.12301277622464 46.98085963726044,105.49301104145707 46.70886500994675,103.53300051932456 46.76326393545605,103.25299838295905 46.98085963726044,103.18299782395479 50.081598388263956,103.32299893177697 60.41739422432147,102.41299102370976 71.29717931500636,100.10296343962546 73.30993955675513,99.54295513010584 77.60745466733351,98.84294385253452 85.44089993298985,97.16291274916148 90.1192075216677,96.18289197364356 90.5,95.9028856815712 90.4456010744907,95.48287594647263 89.90161181986332,93.8028334445844 89.73841504356824,93.52282580654719 89.24882471445017,93.38282192844781 87.12726662191562,93.8028334445844 82.55775688355789,94.85286067612469 78.91302887839265,95.55287759381463 72.87474815314636,96.95290846057469 68.52283411682583,97.79292508072103 64.17092008050531,98.84294385253452 60.90698455343954,99.7529583206051 57.04466084623709,99.96296142184292 55.303895231569186,99.96296142184292 53.12793821352534,99.82295936418814 49.80960376095027,99.40295295394026 46.70886500994675,99.40295295394026 45.24009402282536,99.68295726692304 41.37777031539008,100.7329720313719 37.841840161243454,101.22297815952334 33.109133646590635,101.5029814435693 29.0292142375838,101.5029814435693 26.74445936875418,101.78298456937773 23.534922766964883,102.692993635108 18.911014103330672,104.37300597864669 18.639019476016983,104.37300597864669 18.475822699721903,104.30300557802548 18.367024848936126,104.02300387708237 17.659838818013668,100.03296243574005 17.442243116442114,99.26295073796064 17.2246474144049,99.12294848222518 17.007051712600514,99.05294733971823 15.375083948718384,99.8929603980796 15.103089321637526,99.96296142184292 14.939892545342445,99.82295936418814 14.939892545342445,99.40295295394026 15.320685023674741,96.2528935217997 15.75587642705068,93.73283154980163 15.919073203578591,91.14275449319393 17.061450638109818,83.09242850908777 17.170248488895595,81.9023692170449 18.58462055074051,70.84168134065112 18.693418401526287,69.37157131382264 18.911014103330672,67.90145692272927 19.291806581662968,64.05113664272358 19.890194761566818,59.780746407283004 20.706178643275052,52.42998843480018 20.923774345312268,50.749799862271175 21.032572196098045,50.469767879432766 21.630960376001894,50.11972767775296 24.949294828809798,48.92958914171322 29.790799194248393,46.68932060798397 36.59066487569362,44.09899748090538 44.91370047000237,40.45852045115316 54.16151779727079,36.60798677348066 55.575889858882874,35.90788652416086 63.40933512407355,32.8274336666218 64.71490933513269,32.19733867558534 64.82370718591847,31.987306833994808 64.82370718591847,31.707264239550568 64.27971793129109,30.657103100122185 64.06212222995237,30.517081446480006 63.51813297509216,30.517081446480006 60.41739422432147,31.987306833994808 47.7424445936922,36.95803652697941 44.5329079919029,38.42824278937769 37.67864338471554,41.29863291050424 40.18099395581521,40.03846368685481 47.47044996614568,37.098056359332986 48.99361987924203,36.397956802655244" stroke="#4DD2FF" stroke-linecap="round" stroke-linejoin="round" stroke-width="0.5"><title>2025-12-16 7.08km</title><desc>16753574303</desc></polyline></svg>