<?xml version="1.0" encoding="utf-8" ?>
<svg baseProfile="full" height="130mm" version="1.1" viewBox="0,0,100,130" width="100mm" xmlns="http://www.w3.org/2000/svg" xmlns:ev="http://www.w3.org/2001/xml-events" xmlns:xlink="http://www.w3.org/1999/xlink"><defs /><rect fill="#FAF9F5" height="130" width="100" x="0" y="0" /><text fill="#5A5A5A" style="font-size:6px; font-family:Arial; font-weight:bold;color:#0ed45e;" x="5" y="10">Morning Run</text><text fill="#5A5A5A" style="font-size:4px; font-family:Arial" x="5" y="121">Runner</text><text fill="#5A5A5A" style="font-size:6px; font-family:Arial" x="2" y="128">蓝皮书</text><text fill="#5A5A5A" style="font-size:4px; font-family:Arial" x="25" y="121">WORKOUTS INFO</text><text fill="#5A5A5A" style="font-size:3px; font-family:Arial" x="25" y="125">Type: Run</text><text fill="#5A5A5A" style="font-size:3px; font-family:Arial" x="22" y="129">Date: 2025-06-11</text><text fill="#5A5A5A" style="font-size:3px; font-family:Arial" x="47" y="125">Distance: 7.33 km</text><text fill="#5A5A5A" style="font-size:3px; font-family:Arial" x="47" y="129">Duration: 49:15min</text><text fill="#5A5A5A" style="font-size:3px; font-family:Arial" x="75" y="125">Pace: 6:43/km</text><text fill="#5A5A5A" style="font-size:3px; font-family:Arial" x="75" y="129">Elevation: 79m</text><polyline fill="none" points="21.038810840807855,29.5 21.542483696714044,34.402751062996686 20.870919888839126,40.158134838799015 21.710374648682773,45.48717497277539 21.710374648682773,53.58728113840334 21.878265598788857,63.17945777310524 22.549829406663775,66.16367848403752 22.549829406663775,69.57420945516787 22.549829406663775,74.47683467320167 22.717720357701182,81.51100918208249 21.710374648682773,83.85572697629686 21.878265598788857,86.62675255595241 22.381938453763723,90.25039397075307 22.717720357701182,93.44771764648613 24.564520825631917,96.00557187222876 26.74710319750011,94.72664528293535 30.608595085330307,94.72664528293535 39.506815522909164,94.51349074963946 39.338924570940435,98.35026789852418 36.820560296066105,100.05549915973097 36.820560296066105,107.08955842826981 40.84994313586503,109.64739030506462 47.901363105513155,109.22108528367244 55.79223783221096,109.22108528367244 60.99685733392835,109.43423780903686 69.0556230135262,108.79478014539927 72.74922394938767,107.30271124455612 73.92446061037481,106.45009980455507 74.5960244173184,101.3344213841483 72.2455510944128,98.1371138599934 68.04827730357647,96.21872620237991 64.52256731782109,96.858189016697 51.09129118639976,97.49765156896319 47.901363105513155,97.28449741343502 44.207762168720365,97.28449741343502 41.353615989908576,97.7108056951547 38.3315788609907,98.35026789852418 35.81321458611637,104.74487552663777 37.99579695798457,108.36847489106003 41.18572503887117,110.07369521050714 45.88667168561369,110.07369521050714 53.945437364280224,109.64739030506462 66.20147683564574,109.43423780903686 70.5666415784508,108.5816275322577 73.7565696593374,106.45009980455507 72.41344204545021,98.1371138599934 70.06296872254461,96.858189016697 64.85834922082722,96.858189016697 61.33263923693448,96.858189016697 54.952783074229956,96.858189016697 52.09863689634949,97.07134322961792 45.215107878670096,96.858189016697 43.0325255068019,97.7108056951547 37.66001505404711,99.62919151911046 36.14899649005383,104.31856916623656 39.8425974259153,109.43423780903686 45.04721692763269,109.22108528367244 52.26652784831822,109.43423780903686 59.989511623978615,109.43423780903686 65.194131125696,109.86054277268704 70.90242348145694,109.00793272897135 72.74922394938767,108.1553222197108 73.92446061037481,105.59748789854348 74.42813346534967,101.973882103106 71.90976919140667,97.49765156896319 67.04093159362674,96.858189016697 64.01889446284622,96.43188050272875 56.46380163915455,97.28449741343502 52.77020070236176,97.49765156896319 46.39034454058856,97.7108056951547 40.34627028089017,97.92395979189314 36.14899649005383,102.40018910379149 36.652669344097376,106.23694687208626 38.49946981295943,108.36847489106003 40.514161232858896,109.64739030506462 44.87932597473264,109.64739030506462 47.39769025053829,109.22108528367244 52.09863689634949,109.43423780903686 59.31794781703502,109.43423780903686 63.851003512740135,108.79478014539927 70.39875062648207,109.00793272897135 73.7565696593374,106.45009980455507 74.76391536835581,101.973882103106 68.71984110865742,96.00557187222876 53.945437364280224,97.28449741343502 49.41238167043775,97.28449741343502 44.37565311975777,97.7108056951547 42.864634554833174,97.28449741343502 37.99579695798457,99.62919151911046 36.14899649005383,103.2528027560329 39.171033618971705,108.5816275322577 41.521506941877306,110.07369521050714 44.37565311975777,110.07369521050714 46.894017395563424,110.07369521050714 54.28121926728636,110.07369521050714 59.31794781703502,109.64739030506462 64.01889446284622,109.00793272897135 68.04827730357647,109.00793272897135 73.92446061037481,106.45009980455507 74.42813346534967,102.40018910379149 69.8950777715072,96.64503477385733 63.17943970486522,97.07134322961792 59.821620672009885,96.858189016697 58.98216591402888,96.64503477385733 55.45645592920482,96.858189016697 47.22979929856956,96.858189016697 42.36096170078963,97.28449741343502 36.652669344097376,100.69496040337253 36.48477839305997,104.53172236122191 38.83525171596557,108.36847489106003 43.0325255068019,109.86054277268704 49.076599766500294,110.07369521050714 57.471147349104285,109.43423780903686 63.34733065683395,109.43423780903686 69.8950777715072,109.22108528367244 74.26024251431227,106.02379390969872 73.92446061037481,100.26865293690935 70.7345325294882,97.28449741343502 68.04827730357647,96.64503477385733 62.84365780185908,96.21872620237991 59.15005686506629,96.64503477385733 50.251836428418756,97.28449741343502 43.70408931467682,97.28449741343502 40.01048837695271,97.7108056951547 39.0031426679343,94.51349074963946 28.593903665430844,94.51349074963946 22.214047502726316,94.30033618712332 23.389284164644778,87.69253031595144 23.389284164644778,84.49519485444762 23.557175115682185,80.87154008180369 22.214047502726316,65.52420309826266 22.549829406663775,52.94780060113408 22.04615655168891,42.929237978882156 21.878265598788857,35.68172706931364 23.05350226163864,30.139490142115392 47.22979929856956,30.77898002229631 55.96012878417969,30.139490142115392 76.77860678825527,29.713163409847766 77.785952498205,34.8290765149286 77.6180615471676,38.87916250003036 77.6180615471676,44.20820700004697 79.12908011116087,57.21099923842121 78.96118916012347,59.76891283271834 78.12173440214247,68.08210307231639 77.95384345017374,75.11630639259238 78.4575163051486,85.77412982448004 78.4575163051486,93.66087232518476 76.107042982243,93.44771764648613 70.5666415784508,94.08718159561977 68.3840592065826,96.00557187222876 63.34733065683395,96.64503477385733 49.74816357344389,97.7108056951547 44.87932597473264,96.858189016697 41.857288845814764,97.07134322961792 37.156342200003564,100.48180668440182 36.820560296066105,106.23694687208626 39.171033618971705,109.00793272897135 52.602309751324356,109.64739030506462 58.14271115604788,109.22108528367244 69.22351396456361,109.64739030506462 72.9171149013564,107.30271124455612 73.7565696593374,101.76072855945677 71.90976919140667,98.77657588839065 64.85834922082722,96.64503477385733 61.33263923693448,97.07134322961792 48.23714500851929,97.7108056951547 40.34627028089017,97.7108056951547 37.66001505404711,99.62919151911046 36.652669344097376,105.38433484884445 39.8425974259153,109.43423780903686 43.70408931467682,109.64739030506462 62.84365780185908,109.00793272897135 69.0556230135262,109.43423780903686 74.09235156234354,106.66325270826928 74.09235156234354,102.18703561846633 70.06296872254461,97.07134322961792 64.35467636678368,97.07134322961792 59.31794781703502,97.07134322961792 48.06925405655056,97.7108056951547 39.0031426679343,98.77657588839065 36.31688744109124,103.89226268942002 39.0031426679343,108.79478014539927 47.22979929856956,110.07369521050714 56.12801973614842,110.07369521050714 58.478493058122694,110.07369521050714 64.85834922082722,109.86054277268704 72.74922394938767,106.87640558299609 74.42813346534967,102.40018910379149 72.07766014244407,98.35026789852418 66.70514968968928,96.43188050272875 63.68311255984008,97.49765156896319 56.63169259019196,97.07134322961792 54.952783074229956,96.858189016697 52.26652784831822,97.07134322961792 47.5655812015757,96.858189016697 40.17837932892144,97.7108056951547 36.31688744109124,103.46595609653741 40.6820521838963,109.86054277268704 50.92340023443103,109.86054277268704 53.10598260629922,109.64739030506462 56.79958354216069,109.64739030506462 62.339984946884215,109.64739030506462 73.42078775539994,107.51586403232068 74.26024251431227,102.82649598817807 72.2455510944128,98.5634219077183 68.55195015762001,96.64503477385733 62.84365780185908,96.858189016697 59.48583876900375,97.28449741343502 53.60965546127409,97.49765156896319 48.90870881546289,97.28449741343502 41.353615989908576,97.7108056951547 38.66736076399684,100.26865293690935 36.820560296066105,103.67910940747242 38.83525171596557,108.5816275322577 44.71143502462655,109.64739030506462 50.75550928339362,109.64739030506462 57.639038301073015,109.86054277268704 63.34733065683395,110.07369521050714 71.07031443249434,108.5816275322577 73.7565696593374,106.45009980455507 74.26024251431227,101.3344213841483 70.39875062648207,96.64503477385733 65.69780397973955,97.07134322961792 59.48583876900375,96.64503477385733 51.09129118639976,96.858189016697 46.22245358861983,97.28449741343502 41.01783408690244,97.7108056951547 37.32423315104097,101.3344213841483 36.988451248034835,105.81064091844019 39.338924570940435,108.36847489106003 41.689397893846035,109.86054277268704 46.05456263758242,109.86054277268704 51.76285499334335,109.86054277268704 56.96747449412942,109.00793272897135 61.50053018797189,109.22108528367244" stroke="#4DD2FF" stroke-linecap="round" stroke-linejoin="round" stroke-width="0.5"><title>2025-06-11 7.33km</title><desc>14760184517</desc></polyline></svg>