<?xml version="1.0" encoding="utf-8" ?>
<svg baseProfile="full" height="130mm" version="1.1" viewBox="0,0,100,130" width="100mm" xmlns="http://www.w3.org/2000/svg" xmlns:ev="http://www.w3.org/2001/xml-events" xmlns:xlink="http://www.w3.org/1999/xlink"><defs /><rect fill="#FAF9F5" height="130" width="100" x="0" y="0" /><text fill="#5A5A5A" style="font-size:6px; font-family:Arial; font-weight:bold;color:#0ed45e;" x="5" y="10">一天一壶 黎明湖水上栈道</text><text fill="#5A5A5A" style="font-size:4px; font-family:Arial" x="5" y="121">Runner</text><text fill="#5A5A5A" style="font-size:6px; font-family:Arial" x="2" y="128">蓝皮书</text><text fill="#5A5A5A" style="font-size:4px; font-family:Arial" x="25" y="121">WORKOUTS INFO</text><text fill="#5A5A5A" style="font-size:3px; font-family:Arial" x="25" y="125">Type: Run</text><text fill="#5A5A5A" style="font-size:3px; font-family:Arial" x="22" y="129">Date: 2025-11-03</text><text fill="#5A5A5A" style="font-size:3px; font-family:Arial" x="47" y="125">Distance: 5.21 km</text><text fill="#5A5A5A" style="font-size:3px; font-family:Arial" x="47" y="129">Duration: 33:44min</text><text fill="#5A5A5A" style="font-size:3px; font-family:Arial" x="75" y="125">Pace: 6:28/km</text><text fill="#5A5A5A" style="font-size:3px; font-family:Arial" x="75" y="129">Elevation: 17m</text><polyline fill="none" points="59.44313795794733,67.25 59.334283341886476,66.53724050306482 59.55199257424101,64.79493452905444 59.60641988227144,63.92377889025374 59.497565266210586,61.07271171204047 59.55199257424101,58.30082269079867 59.497565266210586,57.27125935291406 59.38871065014973,57.11286477421527 59.497565266210586,56.320891003269935 59.334283341886476,51.96500914628268 59.27985603362322,51.80661260950728 58.953292184975,51.64821601452422 55.850935622351244,51.64821601452422 55.6876536977943,51.64821601452422 55.524371773703024,51.410621012037154 55.41551715740934,48.63866960146697 55.524371773703024,45.86670029128436 55.36108984914608,43.25311283260817 55.41551715740934,42.144313345925184 55.36108984914608,41.352311959140934 55.25223523308523,41.11471125797834 55.4699444656726,41.035510995134246 55.524371773703024,40.718709797394695 55.30666254134849,40.718709797394695 55.36108984914608,41.27311173992348 55.4699444656726,40.56030911084963 55.36108984914608,36.917077188409166 55.4699444656726,33.907427495199954 55.41551715740934,32.560998432629276 55.36108984914608,32.244190980592975 55.14338061702438,32.006585238152184 54.10926176258363,31.927383294852916 54.10926176258363,31.293767221621238 53.89155253022909,31.768979363987455 54.21811637887731,30.81855455294135 54.59910753555596,30.660150213108864 55.14338061702438,30.739352390402928 55.1978079250548,30.897756701044273 55.14338061702438,31.61057537511806 55.36108984914608,31.768979363987455 58.2457371794153,31.61057537511806 58.62672833609395,31.372969282005215 58.681155644357204,30.501745815039612 58.62672833609395,26.937631400563987 58.517873720033094,25.0367582795443 58.46344641200267,21.234986783820204 58.57230102829635,20.918170972610824 59.22542872535996,20.363742740359157 59.38871065014973,20.046926286333473 59.44313795794733,19.4924969287531 59.27985603362322,17.908409104071325 59.007719493005425,17.75 57.42932755756192,17.75 57.1027637089137,17.987613634060835 56.504063319647685,18.700453747005668 55.850935622351244,18.938066855131183 50.78919596760534,18.938066855131183 48.77538556745276,19.096475520491367 45.836310929153115,18.938066855131183 40.93785319873132,18.938066855131183 40.39358011772856,18.858862500288524" stroke="#4DD2FF" stroke-linecap="round" stroke-linejoin="round" stroke-width="0.5"><title>2025-11-03 1.23km</title><desc>16338829469</desc></polyline><polyline fill="none" points="74.75,99.69195094538736 74.58980582514778,99.69195094538736 74.26941747567616,99.9250359122234 73.91699029121082,100.34458831082156 73.59660194173921,100.85737362988584 73.37233009713236,101.32354119879892 72.79563106806017,103.00173732711119 72.21893203875516,104.26037710983655 71.3859223300824,105.61224248670624 70.87330097088125,106.5445592229953 70.16844660206698,107.66333476660657 69.68786407774314,108.6422593042953 68.72669902897906,110.2737917740451 67.98980582528748,111.34593594774196 66.131553398096,113.63005402029376 65.97135922324378,113.76989731335198 65.74708737863693,113.81651172708371 65.29854368930683,113.67666845979693 63.05582524265628,112.04515795850602 62.47912621370051,111.71885459430632 61.61407766980119,111.6722397935082 60.941262135864235,111.81208416979644 59.659708737861365,112.37146090138413 59.115048543782905,113.30375270238437 58.34611650486477,114.42249832408561 58.057766990270466,114.74879819752823 57.00048543699086,115.68108122886042 56.00728155346587,116.33367730458849 54.08495145640336,117.17272692575352 53.155825242633,117.77870547521161 52.8354368932778,118.05838739252067 52.002427184488624,118.99065821526165 51.682038834900595,119.27033879150986 51.32961165055167,119.31695219087123 49.663592232973315,119.08388510851364 47.51699029118754,118.2914554207091 45.114077669917606,117.54563697426056 44.47330097085796,117.17272692575352 42.775242718402296,115.86753742232395 40.884951456217095,114.74879819752823 39.79563106794376,113.95635491683788 38.96262135915458,113.53682511528314 38.32184466009494,113.35036720213247 36.335436893161386,113.07068007446651 35.63058252434712,113.07068007446651 29.67135922331363,114.98186927787901 29.254854368860833,115.02848346807878 29.094660194241442,114.98186927787901 28.966504854499362,114.84202665543125 28.710194174665958,114.2360410643596 28.165533980587497,113.25713819407974 28.00533980585169,112.88422181749775 27.94126213598065,112.46469023615646 28.00533980585169,111.57901016628603 27.87718446610961,111.15947641823732 26.8519417475909,109.6211800500896 25.538349514477886,107.15056325717887 25.50631067971699,106.77763786974538 25.60242718446534,105.65885840528063 25.57038834958803,105.23931482923217 25.25,103.74759869577247 25.25,103.5611335599533 25.378155339858495,103.18820287557901 27.620873786276206,98.85284328459238 28.357766990200616,97.68741135582968 29.54320388333872,96.05579762594425 32.90728155337274,92.37297362565005 33.64417475729715,91.86017109025852 35.566504854359664,90.18190097104525 36.46359223301988,89.62247512122849 37.13640776707325,89.38938065165712 40.37233009713236,89.01642905296467 41.333495145547204,89.15628596689203 41.91019417473581,89.38938065165712 45.114077669917606,91.81355262627767 48.95873786415905,95.30991355524748 50.08009708742611,96.38212121478864 51.3616504855454,97.26785454558558 53.34805825247895,98.06035015781526 54.1490291262744,98.20020206652407 54.757766990340315,98.20020206652407 55.110194174805656,98.06035015781526 55.6548543687677,97.7340287360712 56.10339805833064,97.36108945262094 56.58398058253806,96.80167949524184 57.00048543699086,96.1956506442366 57.67330097092781,94.93697069419432 57.961650485522114,94.61064523919777 58.185922330012545,94.51740931770473 58.63446601945907,94.4241733616509 59.08300970878918,94.47079134390515 59.46747572813183,94.65726318722591 59.94805825245567,95.12344219340594 60.26844660192728,95.72947361583647 61.29368932044599,98.89946045003308 61.51796116493642,99.69195094538736 61.550000000046566,100.29797141213203 61.38980582531076,101.78970790792664 60.749029126251116,103.70098242476524 59.81990291259717,105.19269883337256 59.53155339800287,105.84532199329988 59.49951456300914,106.40471193187113 59.81990291259717,107.33702574473864 60.01213592244312,108.12948978123313 60.460679611656815,108.7821053572552 60.58883495151531,109.1550277868082 60.524757281527855,109.29487355615129 59.94805825245567,110.13394654652802 59.88398058258463,110.5534819970344 59.88398058258463,111.48578050467768 59.81990291259717,111.95192846872669 59.595631067990325,112.60453417403915 59.179126213653944,113.35036720213247 59.115048543782905,113.39698169339681 59.56359223311301,112.27823153209465 59.723786407732405,111.81208416979644 59.81990291259717,111.34593594774196 59.88398058258463,110.64671200256271 59.98009708733298,110.13394654652802 60.204368932172656,109.71441039956699 61.133495145710185,108.6422593042953 61.29368932044599,108.31595154637762 61.10145631071646,108.03625884707435 59.69174757285509,106.87086926822667 59.49951456300914,106.45132770424243 59.4354368931381,106.03178544364346 59.46747572813183,105.61224248670624 59.595631067990325,105.23931482923217 60.49271844665054,103.98067992205324 60.781067961244844,103.46790094046446 61.1655339805875,102.25587375700707 61.1655339805875,102.02279094007099 61.133495145710185,101.83632453158498 61.03737864084542,101.6964746349986 59.88398058258463,100.99722399085294 59.21116504864767,100.67090636149806 58.66650485433638,100.53105582001444 58.02572815550957,100.43782208260382 57.032524271751754,100.15812066421495 56.19951456307899,99.41224870130827 55.81504854373634,98.89946045003308 55.55873786401935,98.34005389806407 55.366504854289815,98.15358477221162 53.70048543694429,98.0137328376295 51.97038834961131,97.45432432511006 51.10533980571199,97.08138462874922 50.400485436897725,96.47535644835443 49.247087378636934,95.26329572763643 44.249029126251116,90.88118154188851 42.3266990291886,89.43599956270191 41.269417475676164,88.92319106731156 40.18009708740283,88.87657206160657 37.873300970881246,89.15628596689203 36.68786407762673,89.48261846530659 35.854854368953966,89.90218820089649 33.580097087309696,91.86017109025852 32.747087378636934,92.27973687839403 33.580097087309696,91.81355262627767 35.69466019421816,90.0420446247299 36.46359223301988,89.52923735919467 37.392718446440995,89.24952386658697 40.78883495146874,88.87657206160657 41.205339805805124,88.6900959526829 41.333495145547204,88.50361970612721 41.68592233012896,87.19828212748689 42.16650485433638,86.12603550072527 42.19854368933011,85.65983989616507 42.070388349471614,84.49434712185757 42.10242718446534,84.26124792183691 42.23058252444025,84.02814850692812 43.480097087449394,82.58292733496637 45.178155339788646,80.85797511624696 46.427669902914204,79.41273581326823 47.7412621359108,78.0141092628619 48.95873786415905,76.61547497105494 49.85582524270285,75.72966924900538 50.016019417438656,75.68304780914332 50.400485436897725,75.82291210284166 51.58592233003583,77.03506607153395 52.899514563032426,78.06073027256934 53.31601941748522,78.24721422551374 53.79660194180906,78.0141092628619 54.30922330089379,77.36141422345827 54.53349514573347,76.84858122389414 54.501456310623325,76.47561111615505" stroke="#4DD2FF" stroke-linecap="round" stroke-linejoin="round" stroke-width="0.5"><title>2025-11-03 5.21km</title><desc>16337033741</desc></polyline></svg>