<?xml version="1.0" encoding="utf-8" ?>
<svg baseProfile="full" height="130mm" version="1.1" viewBox="0,0,100,130" width="100mm" xmlns="http://www.w3.org/2000/svg" xmlns:ev="http://www.w3.org/2001/xml-events" xmlns:xlink="http://www.w3.org/1999/xlink"><defs /><rect fill="#FAF9F5" height="130" width="100" x="0" y="0" /><text fill="#5A5A5A" style="font-size:6px; font-family:Arial; font-weight:bold;color:#0ed45e;" x="5" y="10">穿过</text><text fill="#5A5A5A" style="font-size:4px; font-family:Arial" x="5" y="121">Runner</text><text fill="#5A5A5A" style="font-size:6px; font-family:Arial" x="2" y="128">蓝皮书</text><text fill="#5A5A5A" style="font-size:4px; font-family:Arial" x="25" y="121">WORKOUTS INFO</text><text fill="#5A5A5A" style="font-size:3px; font-family:Arial" x="25" y="125">Type: Hike</text><text fill="#5A5A5A" style="font-size:3px; font-family:Arial" x="22" y="129">Date: 2025-12-30</text><text fill="#5A5A5A" style="font-size:3px; font-family:Arial" x="47" y="125">Distance: 3.66 km</text><text fill="#5A5A5A" style="font-size:3px; font-family:Arial" x="47" y="129">Duration: 38:10min</text><text fill="#5A5A5A" style="font-size:3px; font-family:Arial" x="75" y="125">Pace: 10:25/km</text><text fill="#5A5A5A" style="font-size:3px; font-family:Arial" x="75" y="129">Elevation: 30m</text><polyline fill="none" points="9.6875,85.2297974806861 9.5,84.24990184803028 9.62500000023283,82.29010540567106 9.75000000023283,81.31020459585125 9.6875,80.98357060935814 9.5625,83.02502988046035 9.62500000023283,84.49487591790967 10.00000000023283,85.47477111930493 10.125,86.86295303370571 10.43750000023283,87.02626832539681 11.68750000023283,87.10792595334351 12.56250000023283,87.43455634475686 13.62500000023283,87.43455634475686 14.81250000023283,86.78129536972847 15.125,85.96471807267517 15.62500000023283,85.47477111930493 15.75,84.41321790672373 16.12500000023283,84.16824380063917 15.87500000023283,83.43332083587302 15.87500000023283,82.69839690026129 16.4375,82.29010540567106 16.87500000023283,81.55517996021081 16.50000000023283,80.33030206058174 16.56249999976717,79.9220088282018 17.125,79.59537402674323 17.25000000023283,79.35039779957151 17.06250000023283,78.61546847142745 17.125,77.47224314237246 16.87500000023283,76.90062959707575 16.68750000023283,75.75740074482746 16.93750000023283,74.77748843020527 16.87500000023283,73.87923395936377 16.93750000023283,71.75608126365114 16.87500000023283,70.7761619023513 16.56249999976717,69.55126027355436 16.56249999976717,69.14295913162641 17.125,69.14295913162641 18.0625,70.61284184083343 18.31250000023283,71.51110158488154 18.25,72.57267941290047 18.56250000023283,73.22595706977881 18.93750000023283,73.63425521570025 19.31250000023283,73.87923395936377 19.625,73.79757439013338 20.1875,73.0626377274748 20.375,72.49101965210866 20.25000000023283,72.16438048810232 19.37500000023283,71.10280188109027 18.81250000023283,69.30627962434664 18.1875,68.40801632066723 17.75000000023283,68.08137476001866 17.5,68.48967668099795 17.5,69.22461938398192 18.5,71.2661217986606 18.5,72.81765862408793 19.00000000023283,73.63425521570025 19.625,73.9608935167198 20.0,73.71591480873758 20.62500000023283,72.81765862408793 21.06250000023283,72.73599889909383 22.93750000023283,73.30761672282824 24.50000000023283,73.4709359932458 24.75,73.14429740450578 25.0,72.08272066700738 25.68750000023283,71.83774113241816 26.68750000023283,72.08272066700738 28.25000000023283,72.16438048810232 30.6875,72.73599889909383 33.06250000023283,72.49101965210866 35.18750000023283,72.81765862408793 35.75000000023283,72.73599889909383 36.5,72.40935987897683 37.68750000023283,72.49101965210866 39.8125,72.08272066700738 41.12500000023283,72.49101965210866 41.375,72.32770009397063 41.31250000023283,71.83774113241816 41.68750000023283,72.40935987897683 42.4375,72.65433916193433 43.375,72.65433916193433 46.25000000023283,72.08272066700738 47.625,72.24604029697366 49.50000000023283,71.42944166820962 52.00000000023283,70.69450187752955 53.18750000023283,70.44952173152706 54.375,69.30627962434664 55.87500000023283,68.2446955642663 58.43750000046566,67.42809106293134 59.68750000023283,66.36650341929635 60.625,65.14159208291676 62.75,64.0800000767922 65.12500000023283,61.6301646399661 66.0,61.05853481928352 66.06250000023283,60.89521190547384 65.5625,59.915273416088894 65.625,58.93533320078859 65.31250000023283,58.118715036078356 65.25,57.38375766307581 65.06250000023283,56.15882655081805 65.12500000023283,55.587191108905245 65.625,53.95394375285832 65.8125,52.32069160242099 65.31250000023283,50.27911967242835 64.75,49.13583611941431 65.68750000023283,50.850760568049736 66.06250000023283,52.402354323887266 66.0,53.79061875358457 65.50000000023283,55.097217405447736 65.375,55.50552885513753 65.43750000023283,57.873729353013914 65.75000000023283,59.01699495111825 65.68750000023283,59.833611797424965 65.75000000023283,60.07859661744442 66.1875,60.568565934256185 66.1875,60.89521190547384 65.875,61.466841894201934 66.0,62.36511640367098 66.1875,62.773422519734595 66.75000000023283,63.18172833591234 67.4375,63.26338946307078 68.81250000023283,62.69176132034045 71.5,62.773422519734595 72.62500000023283,62.61010010930477 73.18750000023283,62.36511640367098 74.25000000023283,61.71182599506574 75.68750000023283,61.22185768507188 76.5,60.73188894375926 77.62500000023283,60.323581329663284 79.56250000023283,60.16025820019422 82.3125,60.24191977083683 84.125,59.67028852389194 84.75000000023283,59.915273416088894 86.00000000023283,61.385180503013544 87.50000000023283,62.69176132034045 88.50000000023283,62.773422519734595 89.43750000023283,62.52843888598727 90.5,61.95680998818716 88.68750000023283,62.61010010930477 87.4375,62.61010010930477 86.87500000023283,62.36511640367098 85.62500000023283,61.303519100009 84.625,60.16025820019422 83.93750000023283,59.99693502258742 82.12499999976717,60.48690441134386 78.75,60.48690441134386 77.06250000023283,60.650227444886696 76.37500000023283,60.89521190547384 72.6875,62.69176132034045 71.56250000023283,62.85508370678872 69.50000000023283,62.773422519734595 68.56250000023283,62.93674488202669 67.375,63.916678050067276 65.50000000023283,64.8966094921343 64.1875,65.79487846465781 62.18750000023283,66.4481640792801 61.875,66.77480659878347 61.43750000023283,67.67307253926992 61.06250000023283,68.08137476001866 59.75,68.81631800200557 59.125,69.30627962434664 57.75,69.71458064665785 57.0625,70.12288136925781 55.62500000023283,71.42944166820962 53.37500000023283,72.98097803845303 53.25,73.14429740450578 53.12500000023283,74.04255306185223 52.9375,74.2875316257705 52.25,74.2875316257705 52.4375,73.79757439013338 52.31250000023283,73.38927636382869 52.4375,73.87923395936377 52.25,74.36919112328906 50.1875,74.69582899287343 48.81250000046566,75.51242282788735 48.06250000023283,75.67574145109393 47.5625,75.8390600263956 46.375,77.0639478128287 45.18750000023283,79.1870802550111 45.18750000023283,79.67703274515225 45.43750000023283,80.49361926969141 45.56250000023283,81.88181361113675 45.62500000023283,82.94337165326579 45.5,83.35166266874876 45.25,83.596637134091 44.0,84.0865857412573 42.0625,84.00492767011747 41.06250000023283,84.57653391716303 39.56250000023283,86.37300687120296 37.68750000023283,87.43455634475686 37.43750000023283,87.84284406458028 36.87500000046566,89.96593537868466 36.18750000023283,90.70084971527103 35.25000000023283,90.86416388058569 33.5625,90.70084971527103 33.1875,90.29256409261143 33.06250000023283,89.88427817029878 33.12500000023283,89.47599194821669 33.31250000023283,88.57776120555354 33.375,87.43455634475686 34.06250000023283,86.20969138754299 35.25000000023283,82.86171341431327 35.4375,80.8202535440796 35.18750000023283,79.51371529634343 35.25000000023283,78.12551504647126 35.0,77.7988791904063 34.4375,77.39058410056168 32.37500000023283,76.9822887108894 32.125,76.6556521835737 31.9375,76.08403779932996 32.125,75.10412606020691 32.43750000023283,74.69582899287343 32.93750000023283,74.4508506085258 34.93750000023283,74.85914785560453 37.125,74.94080726912944 38.06250000023283,74.85914785560453 38.93750000023283,74.2875316257705 41.25000000023283,72.32770009397063" stroke="#4DD2FF" stroke-linecap="round" stroke-linejoin="round" stroke-width="0.5"><title>2025-12-30 3.66km</title><desc>16879400947</desc></polyline></svg>