<?xml version="1.0" encoding="utf-8" ?>
<svg baseProfile="full" height="130mm" version="1.1" viewBox="0,0,100,130" width="100mm" xmlns="http://www.w3.org/2000/svg" xmlns:ev="http://www.w3.org/2001/xml-events" xmlns:xlink="http://www.w3.org/1999/xlink"><defs /><rect fill="#222222" height="130" width="100" x="0" y="0" /><text fill="#FFFFFF" style="font-size:6px; font-family:Arial; font-weight:bold;color:#0ed45e;" x="5" y="10">节气跑—芒种</text><text fill="#FFFFFF" style="font-size:4px; font-family:Arial" x="5" y="121">Runner</text><text fill="#FFFFFF" style="font-size:6px; font-family:Arial" x="2" y="128">蓝皮书</text><text fill="#FFFFFF" style="font-size:4px; font-family:Arial" x="25" y="121">WORKOUTS INFO</text><text fill="#FFFFFF" style="font-size:3px; font-family:Arial" x="25" y="125">Type: Run</text><text fill="#FFFFFF" style="font-size:3px; font-family:Arial" x="22" y="129">Date: 2025-06-05</text><text fill="#FFFFFF" style="font-size:3px; font-family:Arial" x="47" y="125">Distance: 6.32 km</text><text fill="#FFFFFF" style="font-size:3px; font-family:Arial" x="47" y="129">Duration: 38:54min</text><text fill="#FFFFFF" style="font-size:3px; font-family:Arial" x="75" y="125">Pace: 6:09/km</text><text fill="#FFFFFF" style="font-size:3px; font-family:Arial" x="75" y="129">Elevation: 77m</text><polyline fill="none" points="16.162337662652135,83.57806774997152 19.31818181835115,84.46842876821756 28.084415584802628,83.57806774997152 32.993506494909525,84.02324828878045 45.26623376645148,82.68770648841746 54.38311688415706,82.68770648841746 56.1363636367023,82.24252576660365 65.60389610566199,82.68770648841746 69.81168831326067,81.79734498332255 72.26623376645148,82.24252576660365 78.57792207971215,81.79734498332255 85.94155844300985,78.6810778034851 87.34415584616363,77.79071520525031 89.09740259684622,72.89371656766161 90.5,67.55152784916572 88.0454545468092,62.65451383520849 85.59090909175575,59.538228360936046 82.08441558480263,58.20267653069459 77.87662337906659,57.31230834196322 64.55194805376232,57.31230834196322 56.487012987956405,56.867124154698104 45.96753246895969,57.75749246682972 20.720779221504927,58.20267653069459 17.214285714551806,59.538228360936046 12.305194806307554,63.544880566885695 9.85064935311675,67.55152784916572 9.85064935311675,71.11298796790652 12.305194806307554,77.79071520525031 14.409090910106897,80.90698323631659 16.162337662652135,82.24252576660365 21.7727272734046,84.02324828878045 25.980519481003284,83.13288714992814 27.0324675347656,83.57806774997152 34.0454545468092,83.13288714992814 39.65584415756166,83.13288714992814 41.4090909101069,82.68770648841746 52.98051947914064,83.13288714992814 63.85064935311675,81.79734498332255 78.22727272845805,82.24252576660365 84.53896103985608,79.57144015911035 86.64285714365542,77.79071520525031 89.44805194810033,72.89371656766161 89.79870129935443,70.22262330190279 89.09740259684622,64.88043020758778 87.69480519555509,62.65451383520849 83.4870129879564,59.09304447891191 78.22727272845805,56.867124154698104 72.26623376645148,57.75749246682972 62.798701299354434,57.31230834196322 61.39610389620066,56.867124154698104 45.616883117705584,57.75749246682972 30.889610391110182,57.31230834196322 18.266233768314123,59.09304447891191 15.461038962006569,59.98341218312271 13.357142858207226,61.764146860456094 10.201298700645566,67.10634506074712 9.85064935311675,72.89371656766161 10.201298700645566,74.67444419604726 13.707792209461331,80.46180227166042 16.863636365160346,83.13288714992814 19.31818181835115,84.02324828878045 22.82467532530427,83.13288714992814 28.78571428731084,84.46842876821756 34.0454545468092,83.57806774997152 44.91558441706002,84.02324828878045 54.73376623541117,82.68770648841746 62.09740259684622,83.13288714992814 67.70779220946133,82.24252576660365 79.62987013161182,82.24252576660365 83.4870129879564,80.46180227166042 87.34415584616363,76.90035236463882 89.44805194810033,72.00335238897242 89.09740259684622,70.22262330190279 89.79870129935443,67.55152784916572 86.29220779240131,60.873779642628506 78.92857143096626,55.97675560135394 75.7727272734046,55.53157123201527 72.26623376645148,56.867124154698104 68.05844155885279,56.42193990875967 63.5,57.31230834196322 43.8636363632977,57.75749246682972 37.55194805376232,56.867124154698104 34.39610389620066,57.75749246682972 20.019480518996716,58.20267653069459 16.51298701390624,59.09304447891191 13.00649350695312,62.65451383520849 11.603896105661988,64.88043020758778 11.954545456916094,67.55152784916572 10.551948053762317,69.33225839515217 10.902597403153777,75.11962595023215 11.954545456916094,79.57144015911035 16.51298701390624,82.68770648841746 21.071428572759032,84.02324828878045 33.69480519555509,83.57806774997152 35.44805194810033,83.13288714992814 39.305194806307554,84.02324828878045 42.46103896200657,82.24252576660365 49.474025974050164,83.57806774997152 57.88961039111018,82.68770648841746 59.292207792401314,83.57806774997152 77.17532467469573,82.68770648841746 81.38311688415706,83.13288714992814 88.0454545468092,76.45517085166648 89.79870129935443,72.00335238897242 89.44805194810033,68.88707584887743 89.09740259684622,65.77079633111134 86.29220779240131,60.873779642628506 83.1363636367023,58.64786053518765 79.98051948100328,57.31230834196322 71.56493506580591,56.867124154698104 62.09740259684622,58.20267653069459 51.92857142910361,57.31230834196322 44.56493506580591,58.20267653069459 26.681818183511496,57.75749246682972 20.37012987025082,58.64786053518765 14.759740261361003,61.318963282275945 11.603896105661988,64.88043020758778 10.201298700645566,68.44189324369654 9.85064935311675,72.00335238897242 11.603896105661988,78.23589653521776 13.00649350695312,80.01662124600261 16.162337662652135,82.24252576660365 19.668831169605255,83.13288714992814 31.941558443009853,84.46842876821756 64.20129870250821,83.13288714992814 68.05844155885279,82.24252576660365 79.98051948100328,82.68770648841746 84.88961038924754,80.46180227166042 86.64285714365542,78.23589653521776 88.74675324745476,74.67444419604726 89.79870129935443,69.33225839515217 88.74675324745476,64.43524705502205 86.99350649490952,61.318963282275945 84.88961038924754,59.538228360936046 79.62987013161182,56.867124154698104 71.2142857145518,57.75749246682972 64.90259740315378,56.867124154698104 63.14935065060854,57.75749246682972 54.032467532902956,57.75749246682972 51.57792207971215,58.64786053518765 47.37012987025082,57.75749246682972 42.811688313260674,58.20267653069459 27.38311688415706,57.75749246682972 20.019480518996716,58.64786053518765 15.811688313260674,60.42859594360925 13.00649350695312,63.099697230849415 10.551948053762317,68.44189324369654 9.85064935311675,70.66780566540547 9.5,74.22926238086075 14.058441558852792,81.79734498332255 16.863636365160346,83.13288714992814 21.422077922150493,84.02324828878045 32.993506494909525,83.13288714992814 41.05844155885279,83.57806774997152 78.22727272845805,82.68770648841746 86.64285714365542,77.79071520525031 90.14935065060854,72.44853450916708 90.5,71.11298796790652 90.14935065060854,67.10634506074712 88.0454545468092,62.20933037879877 84.88961038924754,59.538228360936046 83.83766233921051,59.09304447891191 83.1363636367023,58.20267653069459 79.98051948100328,56.867124154698104 71.56493506580591,55.97675560135394 59.64285714365542,57.75749246682972 54.032467532902956,56.867124154698104 35.798701299354434,58.64786053518765 29.487012987956405,57.31230834196322 20.720779221504927,58.20267653069459 18.616883117705584,59.09304447891191 16.863636365160346,60.873779642628506 13.00649350695312,62.65451383520849 10.551948053762317,67.10634506074712 9.85064935311675,71.11298796790652 10.902597403153777,76.45517085166648 13.00649350695312,80.01662124600261 15.110389612615108,82.68770648841746 18.266233768314123,84.46842876821756 42.811688313260674,83.13288714992814 56.487012987956405,84.02324828878045 64.55194805376232,82.68770648841746 69.46103896200657,83.57806774997152 79.98051948100328,82.68770648841746 83.4870129879564,80.90698323631659 86.64285714365542,78.23589653521776 89.44805194810033,74.67444419604726 90.5,71.11298796790652 89.44805194810033,65.32561330054887 88.39610389620066,62.65451383520849 84.88961038924754,59.09304447891191 78.92857143096626,57.31230834196322 56.83766233921051,57.75749246682972 54.73376623541117,57.31230834196322 53.681818183511496,57.75749246682972 49.474025974050164,57.31230834196322 41.05844155885279,58.64786053518765 37.90259740315378,57.75749246682972 31.240259740501642,58.64786053518765 19.31818181835115,58.64786053518765 16.863636365160346,59.538228360936046 14.058441558852792,61.764146860456094 10.902597403153777,65.77079633111134 10.551948053762317,72.89371656766161 11.253246754407883,76.90035236463882 14.409090910106897,81.79734498332255 17.564935065805912,83.13288714992814 23.876623379066586,84.02324828878045 40.70779220946133,83.13288714992814 44.56493506580591,84.02324828878045 61.39610389620066,82.68770648841746 65.60389610566199,83.57806774997152 80.6818181835115,82.68770648841746 84.53896103985608,80.46180227166042 86.99350649490952,77.79071520525031 89.09740259684622,74.22926238086075 89.79870129935443,67.55152784916572 89.44805194810033,64.43524705502205 88.39610389620066,63.544880566885695 87.69480519555509,61.318963282275945 84.53896103985608,60.42859594360925 82.08441558480263,58.20267653069459 77.87662337906659,56.867124154698104 69.81168831326067,57.75749246682972 67.00649350881577,58.64786053518765 62.798701299354434,57.31230834196322 58.24025974050164,58.20267653069459 53.681818183511496,57.31230834196322 45.616883117705584,58.64786053518765 25.279220778495073,58.20267653069459 24.2272727265954,59.09304447891191 17.564935065805912,59.98341218312271 13.357142858207226,63.544880566885695 10.201298700645566,71.11298796790652 11.603896105661988,77.79071520525031 14.409090910106897,81.79734498332255 17.915584417060018,84.02324828878045 23.17532467469573,84.02324828878045 24.928571430966258,83.13288714992814 32.993506494909525,84.02324828878045 43.162337662652135,83.57806774997152 70.51298701390624,84.46842876821756 82.43506493605673,82.24252576660365 84.18831169046462,81.79734498332255 88.0454545468092,77.34553381497972 89.79870129935443,72.89371656766161 89.44805194810033,67.99671057611704 88.0454545468092,63.99006384029053 85.59090909175575,60.873779642628506 79.98051948100328,58.20267653069459 74.37012987025082,59.09304447891191 59.993506494909525,57.31230834196322 55.78571428544819,58.20267653069459 53.33116883225739,57.31230834196322 50.87662337906659,58.20267653069459 36.5,59.09304447891191 23.17532467469573,59.09304447891191 20.37012987025082,58.20267653069459 14.409090910106897,61.318963282275945 11.954545456916094,63.544880566885695 10.551948053762317,68.44189324369654 10.902597403153777,76.00998927862383 11.253246754407883,77.79071520525031 16.162337662652135,82.68770648841746 18.96753246895969,84.02324828878045 21.422077922150493,83.57806774997152 27.733766235411167,84.02324828878045 40.00649350695312,84.02324828878045 50.87662337906659,83.13288714992814 54.73376623541117,84.02324828878045 70.16233766265213,82.68770648841746 74.37012987025082,83.13288714992814 82.78571428731084,81.35216414113529 84.88961038924754,79.57144015911035 88.0454545468092,76.00998927862383 89.44805194810033,72.89371656766161 90.14935065060854,67.55152784916572 85.24025974236429,59.98341218312271 80.33116883225739,57.31230834196322 70.8636363632977,57.31230834196322 66.65584415756166,58.64786053518765 59.292207792401314,57.75749246682972 47.72077922150493,58.64786053518765 41.05844155885279,58.20267653069459 36.149350648745894,59.09304447891191 26.681818183511496,58.64786053518765 24.2272727265954,57.75749246682972 14.759740261361003,60.873779642628506 11.603896105661988,64.43524705502205 9.85064935311675,68.88707584887743 9.85064935311675,71.11298796790652 11.253246754407883,76.90035236463882 14.759740261361003,80.90698323631659 20.019480518996716,83.57806774997152 32.64285714365542,84.46842876821756 42.46103896200657,83.57806774997152 63.5,84.46842876821756 68.05844155885279,83.57806774997152 76.47402597405016,84.02324828878045 78.57792207971215,83.57806774997152 83.83766233921051,81.79734498332255 88.39610389620066,76.90035236463882 89.09740259684622,75.11962595023215 90.5,68.44189324369654 89.44805194810033,64.43524705502205 85.59090909175575,59.98341218312271 79.98051948100328,56.42193990875967 77.87662337906659,56.42193990875967 74.72077922150493,58.20267653069459 70.8636363632977,57.31230834196322 67.35714285820723,58.64786053518765 55.08441558480263,56.42193990875967 47.37012987025082,58.64786053518765 31.941558443009853,58.64786053518765 29.1363636367023,59.538228360936046 22.82467532530427,59.09304447891191 19.668831169605255,59.538228360936046 15.110389612615108,61.318963282275945 12.65584415756166,63.99006384029053 11.253246754407883,65.77079633111134 10.551948053762317,69.77744087879546 11.603896105661988,76.45517085166648 15.811688313260674,80.90698323631659 19.668831169605255,83.13288714992814 31.240259740501642,84.46842876821756 51.22727272845805,84.46842876821756 55.78571428544819,83.57806774997152 62.798701299354434,84.02324828878045 63.85064935311675,83.13288714992814 65.60389610566199,83.57806774997152 74.37012987025082,82.68770648841746 79.98051948100328,83.13288714992814 81.0324675347656,81.79734498332255 82.78571428731084,81.35216414113529 86.64285714365542,78.6810778034851 88.74675324745476,74.22926238086075 89.44805194810033,67.10634506074712 87.34415584616363,62.20933037879877 81.38311688415706,57.75749246682972 72.96753246895969,57.31230834196322 68.4090909101069,58.20267653069459 61.74675324745476,58.20267653069459 59.993506494909525,57.31230834196322 54.38311688415706,58.20267653069459 43.8636363632977,58.20267653069459 40.357142858207226,59.09304447891191 37.20129870250821,59.09304447891191 32.64285714365542,58.20267653069459 19.31818181835115,59.538228360936046 13.707792209461331,62.20933037879877 10.201298700645566,67.10634506074712 9.85064935311675,71.11298796790652 11.603896105661988,78.23589653521776 14.409090910106897,80.90698323631659 19.31818181835115,83.57806774997152 23.525974025949836,84.02324828878045 55.78571428544819,83.13288714992814 59.64285714365542,84.02324828878045 62.44805194810033,83.13288714992814 66.65584415756166,83.57806774997152 72.26623376645148,82.68770648841746 77.52597402594984,82.68770648841746 82.43506493605673,81.35216414113529 86.99350649490952,77.34553381497972 88.39610389620066,74.67444419604726 89.79870129935443,70.66780566540547 89.44805194810033,66.21597930137068 87.69480519555509,61.764146860456094 82.78571428731084,58.20267653069459 79.98051948100328,58.20267653069459 78.22727272845805,56.867124154698104 72.26623376645148,58.64786053518765 61.0454545468092,57.31230834196322 57.88961039111018,58.20267653069459 54.38311688415706,57.75749246682972 48.42207792215049,58.64786053518765 19.31818181835115,59.538228360936046 14.058441558852792,62.20933037879877 11.603896105661988,65.77079633111134 11.603896105661988,67.99671057611704 10.902597403153777,69.33225839515217 11.253246754407883,74.67444419604726 12.305194806307554,76.90035236463882 15.110389612615108,80.90698323631659 20.720779221504927,83.57806774997152 32.64285714365542,83.13288714992814 38.954545456916094,83.57806774997152 42.11038961075246,82.24252576660365 43.51298701390624,83.13288714992814 46.31818181835115,82.68770648841746 46.31818181835115,83.13288714992814 49.123376624658704,82.24252576660365" stroke="#4DD2FF" stroke-linecap="round" stroke-linejoin="round" stroke-width="0.5"><title>2025-06-05 6.32km</title><desc>14699160102</desc></polyline></svg>