<?xml version="1.0" encoding="utf-8" ?>
<svg baseProfile="full" height="130mm" version="1.1" viewBox="0,0,100,130" width="100mm" xmlns="http://www.w3.org/2000/svg" xmlns:ev="http://www.w3.org/2001/xml-events" xmlns:xlink="http://www.w3.org/1999/xlink"><defs /><rect fill="#FAF9F5" height="130" width="100" x="0" y="0" /><text fill="#5A5A5A" style="font-size:6px; font-family:Arial; font-weight:bold;color:#0ed45e;" x="5" y="10">新坐标 大 F</text><text fill="#5A5A5A" style="font-size:4px; font-family:Arial" x="5" y="121">Runner</text><text fill="#5A5A5A" style="font-size:6px; font-family:Arial" x="2" y="128">蓝皮书</text><text fill="#5A5A5A" style="font-size:4px; font-family:Arial" x="25" y="121">WORKOUTS INFO</text><text fill="#5A5A5A" style="font-size:3px; font-family:Arial" x="25" y="125">Type: Run</text><text fill="#5A5A5A" style="font-size:3px; font-family:Arial" x="22" y="129">Date: 2025-11-12</text><text fill="#5A5A5A" style="font-size:3px; font-family:Arial" x="47" y="125">Distance: 5.56 km</text><text fill="#5A5A5A" style="font-size:3px; font-family:Arial" x="47" y="129">Duration: 40:20min</text><text fill="#5A5A5A" style="font-size:3px; font-family:Arial" x="75" y="125">Pace: 7:14/km</text><text fill="#5A5A5A" style="font-size:3px; font-family:Arial" x="75" y="129">Elevation: 11m</text><polyline fill="none" points="46.10147054248955,50.74237986028311 45.81029406853486,53.66757504089037 45.26029406208545,57.447779749229085 45.19558817904908,58.572830327408155 45.06617641285993,59.20285657784552 44.936764646554366,60.867918789648684 44.96911758813076,61.67794529593084 44.936764646554366,62.84797923915903 44.61323523102328,65.32303412773763 44.64558817248326,65.90804374517757 44.354411698528565,67.48306325977319 44.19264699076302,68.8330725832202 43.99852934142109,71.21807235386223 43.674999925890006,73.46805258604581 43.28676462720614,77.60796661846689 43.092646977864206,79.04792165345862 42.866176387062296,81.74781638997956 42.51029402995482,85.16764382139081 42.41323520522565,86.83254393731477 42.283823439036496,88.09246144123608 42.08970578969456,89.08239244748256 41.798529315623455,92.99708361545345 41.248529309174046,97.18168994877487 41.21617636771407,98.35156814858783 41.248529309174046,99.2514709646639 41.248529309174046,99.8364061669563 40.92499989375938,100.9612779506133 40.63382341968827,102.89604632151895 40.56911753653549,104.56083577944082 40.37499988730997,105.82066954343463 40.27794106269721,106.7655409615545 40.180882237968035,107.35045968584018 40.180882237968035,107.66541539074387 40.47205871192273,108.47529978150851 40.730882244417444,108.7452606986626 40.92499989375938,108.7902541582007 42.348529322072864,108.83524761017179 48.43088233447634,109.5551418106188 49.72499999660067,109.78010834965971 53.28382356790826,110.14005441780319 54.254411814385094,110.32002726956853 54.642647113185376,110.2750340680359 55.38676476897672,110.5 54.5455882884562,110.32002726956853 51.536764723830856,110.0500679461984 50.17794117855374,109.78010834965971 47.81617644499056,109.51014847992337 45.519117594580166,109.33017508179182 43.83676463365555,109.01522134244442 41.248529309174046,108.7452606986626 40.860294010606594,108.6102802741807 40.69852930272464,108.47529978150851 40.504411653382704,108.16034503289848 40.34264694573358,107.57542808449944 40.31029400404077,107.17048483042163 40.53676459507551,105.05577118205838 40.60147047811188,103.48097353123012 40.66617636126466,103.16601288534002 40.66617636126466,102.26612327634939 40.60147047811188,101.27624119992834 40.82794106914662,100.19636565388646 40.92499989375938,99.02649554531672 41.05441165983211,98.48655376469833 41.08676460152492,97.67663904419169 41.248529309174046,96.9117173277773 41.539705783245154,93.22206412066589 41.92794108192902,90.61227859419887 41.96029402350541,89.57735657299054 42.47794108837843,84.85266154928831 42.51029402995482,84.08770305398502 43.642646984313615,73.06305754510686 43.966176399961114,71.26307214453118 44.28970581537578,68.24806938206893 44.41911758168135,67.79806604649639 44.71029405563604,67.52806368065649 45.32499994523823,67.43806283126469 47.91323526960332,67.75306567116058 49.49852940591518,67.79806604649639 51.08382354199421,68.02306780923391 53.41323533398099,68.11306846115622 59.042647164547816,68.8330725832202 59.463235404808074,68.78807238250738 59.62500011269003,68.69807195843896 59.819117762031965,67.97806747179129 59.819117762031965,67.66306489770068 59.75441187887918,67.39306239513098 59.49558834650088,67.21306057501351 57.23088243755046,67.21306057501351 51.66617649002001,66.67305438537733 48.10735291906167,66.13304710242664 45.033823471167125,65.81804234907031 44.74264699721243,65.68304019802599 44.64558817248326,65.54803797858767 44.64558817248326,65.18803172616754 44.774999938788824,64.64802143615088 44.83970582194161,63.92800601533963 44.872058763518,62.71297558466904 44.872058763518,60.50790621933993 45.519117594580166,55.24266684820759 46.069117601029575,48.627218740672106 46.26323525037151,47.23210328820278 46.39264701656066,45.47694767432404 46.58676466578618,43.9918069782143 46.68382349051535,42.326639392296784 46.84558819828089,41.2915299765009 47.233823497081175,36.70099631953053 47.719117620261386,32.60545351097244 47.78382350341417,31.570306359120877 48.04264703579247,29.95006796711823 48.04264703579247,29.5 48.010294094332494,30.13009494129801 47.65441173722502,32.560447196650784 46.780882315244526,41.51655410445528 46.45735289971344,44.261833174707135 46.295588191831484,46.51204084409983 46.03676465933677,48.087174915126525 45.93970583472401,49.66229968256084 46.10147054248955,48.85223667847458 46.10147054248955,47.90716006359435 46.166176425642334,47.367114779917756" stroke="#4DD2FF" stroke-linecap="round" stroke-linejoin="round" stroke-width="0.5"><title>2025-11-12 5.56km</title><desc>16430833448</desc></polyline></svg>