<?xml version="1.0" encoding="utf-8" ?>
<svg baseProfile="full" height="130mm" version="1.1" viewBox="0,0,100,130" width="100mm" xmlns="http://www.w3.org/2000/svg" xmlns:ev="http://www.w3.org/2001/xml-events" xmlns:xlink="http://www.w3.org/1999/xlink"><defs /><rect fill="#FAF9F5" height="130" width="100" x="0" y="0" /><text fill="#5A5A5A" style="font-size:6px; font-family:Arial; font-weight:bold;" x="5" y="10">2025-01-16 Workouts</text><text fill="#5A5A5A" style="font-size:4px; font-family:Arial" x="5" y="121">Runner</text><text fill="#5A5A5A" style="font-size:6px; font-family:Arial" x="2" y="128">蓝皮书</text><text fill="#5A5A5A" style="font-size:4px; font-family:Arial" x="25" y="121">STATISTICS</text><text fill="#5A5A5A" style="font-size:3px; font-family:Arial" x="25" y="125">Number: 1</text><text fill="#5A5A5A" style="font-size:3px; font-family:Arial" x="25" y="129">Weekly: 1.0</text><text fill="#5A5A5A" style="font-size:3px; font-family:Arial" x="48" y="125">Total: 6.0 km</text><text fill="#5A5A5A" style="font-size:3px; font-family:Arial" x="48" y="129">Avg: 6.0 km</text><text fill="#5A5A5A" style="font-size:3px; font-family:Arial" x="75" y="125">Min: 6.0 km</text><text fill="#5A5A5A" style="font-size:3px; font-family:Arial" x="75" y="129">Max: 6.0 km</text><polyline fill="none" points="87.43513513496146,54.34160090383375 89.47837837832049,54.990188937983476 89.91621621605009,56.56532872567186 90.0621621622704,57.3992247794522 90.13513513514772,58.32577474869322 90.2081081084907,59.53028781712055 90.2081081084907,61.198071612394415 90.13513513514772,62.30992519843858 90.0621621622704,63.329122718423605 90.0621621622704,66.20139840187039 90.28108108136803,69.72223587846383 90.28108108136803,73.15040218253853 90.28108108136803,76.11528880230617 90.2081081084907,78.8948582423036 90.5,81.76706803526031 89.69729729741812,83.52744867303409 88.45675675664097,84.63926567032468 85.31891891919076,84.17600880941609 82.32702702702954,84.45396296377294 81.7432432435453,84.91721963492455 80.50270270230249,84.82456832623575 78.24054054077715,84.82456832623575 75.97837837832049,84.54661432339344 74.81081081088632,84.82456832623575 69.77567567583174,84.63926567032468 66.56486486457288,85.0098709310987 64.01081081060693,85.38047598965932 62.843243243172765,85.10252221487463 61.01891891891137,85.0098709310987 59.851351351477206,84.91721963492455 56.12972972961143,85.19517348567024 54.013513513375074,85.10252221487463 51.09459459455684,84.91721963492455 47.81081081088632,85.0098709310987 44.52702702721581,85.19517348567024 40.07567567564547,85.75108084577369 38.105405405163765,85.56577844300773 34.6756756757386,85.93638319784077 31.683783783577383,85.84373202826828 29.713513513095677,85.84373202826828 28.03513513505459,86.0290343548404 25.262162161991,86.0290343548404 24.167567567434162,86.1216854993836 21.832432432100177,86.2143366310629 20.15405405405909,86.2143366310629 19.132432431913912,86.2143366310629 17.96486486447975,86.1216854993836 14.097297296859324,86.1216854993836 12.564864864572883,85.93638319784077 11.032432432286441,86.0290343548404 10.229729729238898,85.10252221487463 9.937837837729603,82.9715394914383 9.86486486485228,80.84055007545976 9.645945945754647,79.45077076373855 10.156756756361574,77.87568410293898 10.156756756361574,76.76385602337541 10.08378378348425,73.89162505196873 9.937837837729603,72.13121941464487 9.937837837729603,71.11203511600615 9.791891891509295,69.53692909824895 9.937837837729603,68.33243379375199 10.229729729238898,67.03528261324391 10.08378378348425,63.9777021612972 9.791891891509295,62.40257958153961 9.71891891863197,60.08621620450867 9.572972972877324,57.67718990321737 11.470270270016044,56.47267354518408 13.440540540032089,56.56532872567186 15.191891891881824,56.38001835218165 16.65135135082528,56.56532872567186 17.672972972970456,56.56532872567186 18.402702702675015,56.38001835218165 20.15405405405909,56.19470792793436 21.467567567247897,56.102052696980536 22.708108107559383,56.19470792793436 24.021621621679515,56.102052696980536 24.53243243228644,56.009397453512065 26.283783783670515,56.102052696980536 28.108108107931912,55.91674219729612 29.56756756734103,55.731431646621786 32.55945945950225,55.731431646621786 34.45675675664097,55.91674219729612 36.71891891863197,55.82408692815807 39.054054053965956,55.731431646621786 40.002702702302486,55.731431646621786 41.17027027020231,55.54612104524858 42.5567567567341,55.54612104524858 44.672972972970456,55.63877635227982 45.84054054040462,55.63877635227982 47.0810810807161,55.731431646621786 50.72972972970456,55.82408692815807 51.89729729713872,55.63877635227982 53.867567567154765,55.175499691220466 57.15135135129094,55.360810393700376 59.34054054040462,55.175499691220466 61.38378378376365,55.360810393700376 62.04054054059088,55.360810393700376 63.791891891974956,54.990188937983476 66.71081081079319,54.990188937983476 68.53513513505459,54.8975335425348 69.19189189188182,55.54612104524858 70.06756756780669,55.175499691220466 71.74594594584778,55.08284432115033 74.66486486513168,54.80487813457148 75.6135135134682,54.6195672803442 80.72162162186578,54.71222271391889 82.6189189190045,54.526911834429484 84.73513513524085,54.526911834429484 88.6756756757386,54.434256375418045 89.91621621605009,55.63877635227982 89.98918918939307,58.418429676268715 89.91621621605009,60.271525565651245 90.2081081084907,61.10541706450749 90.13513513514772,61.75399863306666 90.0621621622704,64.07035631680628 90.2081081084907,68.05447303532856 90.35405405424535,71.57530089630745 90.42702702712268,76.11528880230617 90.42702702712268,77.87568410293898 90.35405405424535,80.5625944409403 90.35405405424535,81.30380921333563 90.2081081084907,82.8788879167405 89.18648648634553,84.26866020692978 87.94594594603404,84.73191700445022 87.14324324345216,84.63926567032468 85.17297297297046,84.08335739938775 82.39999999990687,84.26866020692978 79.62702702730894,84.45396296377294 78.31351351365447,84.73191700445022 76.63513513514772,84.36131159181241 75.39459459483624,84.63926567032468 74.737837838009,84.82456832623575 73.27837837813422,84.82456832623575 69.92162162158638,84.63926567032468 66.63783783791587,85.10252221487463 65.0324324327521,85.0098709310987 63.5,84.63926567032468 62.478378378320485,84.82456832623575 61.164864865131676,85.10252221487463 58.902702702675015,85.10252221487463 57.80810810858384,85.10252221487463 55.39999999990687,85.19517348567024 51.5324324327521,84.91721963492455 50.94864864880219,84.82456832623575 50.0,85.10252221487463 48.75945945922285,84.91721963492455 46.132432432379574,85.28782474400941 43.87027027038857,85.28782474400941 42.410810810513794,85.19517348567024 40.65945945959538,85.56577844300773 38.762162161991,85.75108084577369 37.59459459455684,85.65842965058982 36.5,85.65842965058982 35.4054054049775,85.65842965058982 33.435135134961456,85.84373202826828 32.55945945950225,85.84373202826828 29.20270270248875,85.75108084577369 27.232432432472706,85.75108084577369 25.772972973063588,85.84373202826828 20.15405405405909,86.30698775022756 15.045945945661515,86.1216854993836 13.221621621400118,86.1216854993836 10.302702702581882,85.65842965058982 10.229729729238898,81.48911277996376 9.86486486485228,80.006682830106 10.229729729238898,77.31977029080736 10.010810810606927,74.91080517537193 10.010810810606927,70.92672871553805 9.791891891509295,68.4250873545534 9.71891891863197,67.12793635111302 9.791891891509295,66.1087445372832 10.229729729238898,64.16301045980072 9.791891891509295,61.198071612394415 9.71891891863197,59.06701381324092 9.791891891509295,58.233119808952324 9.791891891509295,57.028604437655304 10.740540540311486,56.47267354518408 13.659459459595382,56.38001835218165 14.681081080809236,56.287363146373536 15.994594594463706,56.47267354518408 17.818918918725103,56.38001835218165 22.05135135119781,56.19470792793436 23.291891891974956,56.287363146373536 25.262162161991,56.287363146373536 27.086486486252397,56.102052696980536 27.743243243079633,56.009397453512065 29.275675675831735,56.009397453512065 31.756756756454706,55.82408692815807 32.92432432388887,55.82408692815807 34.31081081088632,55.731431646621786 36.64594594575465,55.731431646621786 40.2945945947431,55.82408692815807 45.32972972979769,55.63877635227982 47.59189189178869,55.453465725819115 50.14594594575465,55.54612104524858 55.03513513505459,55.26815504883416 55.83783783763647,55.360810393700376 56.859459459315985,55.26815504883416 58.683783784043044,55.360810393700376 59.77837837813422,55.175499691220466 61.01891891891137,55.360810393700376 62.77027027029544,55.08284432115033 64.01081081060693,55.08284432115033 64.95945945940912,54.8975335425348 66.27297297306359,55.175499691220466 67.58648648671806,55.453465725819115 69.70270270248875,55.26815504883416 70.79729729704559,55.360810393700376 72.03783783782274,54.990188937983476 74.88378378376365,54.80487813457148 76.34324324317276,54.80487813457148 78.02162162167951,54.990188937983476 79.26216216245666,54.8975335425348 81.7432432435453,54.526911834429484 82.54594594612718,54.34160090383375 82.69189189188182,54.990188937983476 84.5891891894862,54.80487813457148 86.99729729723185,54.80487813457148 88.09189189225435,54.434256375418045 85.46486486494541,53.87832335737767 83.56756756734103,53.693012249830645" stroke="#4DD2FF" stroke-linecap="round" stroke-linejoin="round" stroke-width="0.5"><title>2025-01-16 6.0km</title><desc>13365928036</desc></polyline></svg>