<?xml version="1.0" encoding="utf-8" ?>
<svg baseProfile="full" height="130mm" version="1.1" viewBox="0,0,100,130" width="100mm" xmlns="http://www.w3.org/2000/svg" xmlns:ev="http://www.w3.org/2001/xml-events" xmlns:xlink="http://www.w3.org/1999/xlink"><defs /><rect fill="#FAF9F5" height="130" width="100" x="0" y="0" /><text fill="#5A5A5A" style="font-size:6px; font-family:Arial; font-weight:bold;color:#0ed45e;" x="5" y="10">百子湾</text><text fill="#5A5A5A" style="font-size:4px; font-family:Arial" x="5" y="121">Runner</text><text fill="#5A5A5A" style="font-size:6px; font-family:Arial" x="2" y="128">蓝皮书</text><text fill="#5A5A5A" style="font-size:4px; font-family:Arial" x="25" y="121">WORKOUTS INFO</text><text fill="#5A5A5A" style="font-size:3px; font-family:Arial" x="25" y="125">Type: Run</text><text fill="#5A5A5A" style="font-size:3px; font-family:Arial" x="22" y="129">Date: 2025-11-18</text><text fill="#5A5A5A" style="font-size:3px; font-family:Arial" x="47" y="125">Distance: 4.52 km</text><text fill="#5A5A5A" style="font-size:3px; font-family:Arial" x="47" y="129">Duration: 32:49min</text><text fill="#5A5A5A" style="font-size:3px; font-family:Arial" x="75" y="125">Pace: 7:15/km</text><text fill="#5A5A5A" style="font-size:3px; font-family:Arial" x="75" y="129">Elevation: 5m</text><polyline fill="none" points="10.706112853018567,106.03478056419408 10.515673981280997,105.45561279397225 10.642633229028434,104.79370604624273 10.515673981280997,103.30441303929547 10.642633229028434,100.07759810652351 10.325235109776258,94.94775195413968 10.515673981280997,90.47978362400318 10.706112853018567,88.90771232085535 10.515673981280997,86.34274452243699 10.706112853018567,83.03309150959831 10.642633229028434,77.98583347338717 10.452194357523695,76.7446975664352 10.642633229028434,73.51773149415385 10.452194357523695,73.10401656705653 10.388714733533561,72.35932893760037 10.452194357523695,69.7942862836062 10.13479623850435,64.58142191229854 10.261755486018956,61.93359943386167 10.5791536050383,60.11321430787211 10.515673981280997,58.54105881374562 10.896551724290475,52.08690110605676 10.5791536050383,48.28056853142334 9.5,42.157284251763485 9.753918495494872,41.909041602455545 9.94435736676678,41.08156531944405 10.198275862028822,40.916069917962886 11.150470219552517,42.736516677599866 11.531347962561995,43.233001143089496 11.912225705338642,43.563990545400884 12.73746081488207,43.89497975399718 19.720219435635954,44.80519908230053 22.513322883984074,44.970693348615896 28.988244513981044,44.06047428632155 30.44827586179599,44.143221534148324 33.36833855789155,43.81223246996524 36.1614420064725,43.89497975399718 36.288401253987104,43.7294851737679 35.97100313496776,43.233001143089496 36.03448275895789,43.315748511697166 36.097962382482365,42.984758964856155 36.41536050126888,42.32277929096017 37.87539184931666,40.585078970354516 38.51018808782101,40.50233120302437 39.46238244511187,40.833322199236136 40.03369905962609,40.833322199236136 41.049373040907085,40.419583423878066 41.36677115992643,40.419583423878066 41.938087774440646,40.66782672534464 43.5250783697702,41.909041602455545 45.87382445135154,42.488274281902704 47.524294670904055,44.143221534148324 48.22257053293288,44.3087159935385 49.99999999976717,44.47421040490735 52.98354231985286,45.54992290039081 55.45924764871597,45.963657932356 56.47492162999697,45.79816395585658 57.74451410654001,45.30168173642596 58.44278996880166,45.13618756685173 59.52194357383996,45.218934657692444 61.299373040907085,45.715416949475184 61.99764890270308,45.79816395585658 63.96551724127494,45.05344046378741 64.8542319748085,44.970693348615896 65.74294670834206,45.13618756685173 66.75862068962306,45.715416949475184 70.50391849526204,46.87387393973768 71.4561128525529,46.79112709022593 74.2492163006682,45.715416949475184 75.13793103420176,45.54992290039081 75.39184952969663,45.715416949475184 75.96316614421085,46.70838022889802 76.21708463947289,46.87387393973768 76.53448275849223,46.87387393973768 76.91536050150171,46.294645740417764 77.29623824427836,45.218934657692444 77.48667711601593,44.970693348615896 78.37539184954949,44.3087159935385 78.81974921631627,43.81223246996524 79.07366771157831,43.06750636961078 79.13714733533561,42.40552679251414 78.81974921631627,39.75760075513972 78.9467084640637,37.85439627757296 78.81974921631627,37.19241061399225 78.43887147330679,36.69592085911427 77.55015673977323,36.28217906469945 74.31269592465833,36.116682262101676 72.15438871481456,35.454694569751155 68.91692789969966,34.21346556331264 67.39341692766175,33.96521943580592 65.9333855798468,34.130716866173316 64.60031347954646,34.70995749189751 63.7750783697702,35.53744307346642 63.33072100323625,36.61317252437584 63.267241379246116,37.357907102268655 63.39420062699355,38.10264070215635 64.28291536029428,39.75760075513972 64.60031347954646,40.75057446840219 64.60031347954646,41.82629402860766 64.47335423203185,42.902011547703296 64.47335423203185,43.64673786552157 64.66379310353659,44.143221534148324 65.04467084654607,44.47421040490735 68.21865203720517,46.046404902415816 69.67868338548578,46.54288646974601 71.07523510977626,46.79112709022593 72.15438871481456,46.54288646974601 75.6457680251915,45.218934657692444 78.05799373029731,44.63970476790564 78.75626959255897,44.143221534148324 79.010188087821,43.48124321294017 79.13714733533561,42.81926411879249 78.81974921631627,39.5093570551835 78.9467084640637,37.77164811181137 78.75626959255897,37.10966235178057 78.31191222579218,36.61317252437584 77.42319749202579,36.116682262101676 74.6935736676678,36.116682262101676 73.4239811913576,35.868436968070455 71.51959247654304,35.28919752582442 68.66300940420479,34.130716866173316 67.52037617564201,33.96521943580592 66.12382445135154,34.0479681569268 64.47335423203185,34.70995749189751 63.902037617750466,35.28919752582442 63.457680250750855,36.44767581857741 63.457680250750855,37.27515886427136 63.58463949826546,37.93714443134377 64.34639498428442,39.5093570551835 64.53683385578915,40.171340013796 64.47335423203185,43.315748511697166 64.7272727272939,43.97772702615475 65.55250783707015,44.63970476790564 68.98040752345696,46.12915186048485 70.88479623827152,46.54288646974601 72.02742946706712,46.377392662281636 75.13793103420176,45.384428803110495 75.39184952969663,45.46717585786246 75.89968652022071,46.294645740417764 76.72492162999697,47.03936760209035 77.42319749202579,47.94958188285818 77.9310344827827,48.28056853142334 78.50235109729692,48.363315163587686 76.97884012525901,48.446061783412006 77.10579937300645,48.446061783412006 82.12068965518847,48.363315163587686 83.45376175548881,48.52880839142017 87.45297805615701,48.69430157070747 90.18260188074782,48.611554986971896 90.5,48.777048142510466 90.11912225675769,52.41788533952786 90.30956112849526,56.8861535845208 89.92868338548578,60.94066281686537 90.05564263323322,64.99514305760385 89.99216300924309,65.65709626208991 89.92868338548578,69.21508149773581 89.86520376172848,70.37349047779571 89.67476489022374,70.95269408042077 89.86520376172848,72.02835634403164 89.3573667712044,72.19384266482666 86.2468652036041,72.02835634403164 84.65987460827455,72.19384266482666 82.75548589345999,71.78012677188963 79.58150470233522,72.02835634403164 71.64655172429048,71.78012677188963 66.75862068962306,72.11109951057006 66.31426332285628,71.86286997463321 65.9333855798468,74.67613168415846 66.25078369909897,79.80616122327046 66.18730407534167,82.12293354433496 66.06034482782707,82.61938352475408 66.12382445135154,85.92903895204654 66.25078369909897,87.08741378795821 65.99686520383693,91.14170707960147 66.12382445135154,93.21021289780037 65.9333855798468,94.86501211981522 66.06034482782707,96.27158766193315 65.74294670834206,99.33294589893194 66.12382445135154,101.81511612108443 66.25078369909897,103.22167442413047" stroke="#4DD2FF" stroke-linecap="round" stroke-linejoin="round" stroke-width="0.5"><title>2025-11-18 4.52km</title><desc>16489963373</desc></polyline></svg>