<?xml version="1.0" encoding="utf-8" ?>
<svg baseProfile="full" height="130mm" version="1.1" viewBox="0,0,100,130" width="100mm" xmlns="http://www.w3.org/2000/svg" xmlns:ev="http://www.w3.org/2001/xml-events" xmlns:xlink="http://www.w3.org/1999/xlink"><defs /><rect fill="#FAF9F5" height="130" width="100" x="0" y="0" /><text fill="#5A5A5A" style="font-size:6px; font-family:Arial; font-weight:bold;" x="5" y="10">2025-05-21 Workouts</text><text fill="#5A5A5A" style="font-size:4px; font-family:Arial" x="5" y="121">Runner</text><text fill="#5A5A5A" style="font-size:6px; font-family:Arial" x="2" y="128">蓝皮书</text><text fill="#5A5A5A" style="font-size:4px; font-family:Arial" x="25" y="121">STATISTICS</text><text fill="#5A5A5A" style="font-size:3px; font-family:Arial" x="25" y="125">Number: 1</text><text fill="#5A5A5A" style="font-size:3px; font-family:Arial" x="25" y="129">Weekly: 1.0</text><text fill="#5A5A5A" style="font-size:3px; font-family:Arial" x="48" y="125">Total: 6.2 km</text><text fill="#5A5A5A" style="font-size:3px; font-family:Arial" x="48" y="129">Avg: 6.2 km</text><text fill="#5A5A5A" style="font-size:3px; font-family:Arial" x="75" y="125">Min: 6.2 km</text><text fill="#5A5A5A" style="font-size:3px; font-family:Arial" x="75" y="129">Max: 6.2 km</text><polyline fill="none" points="89.8017241358757,67.118817711249 88.05603448301554,63.572704357560724 87.00862068869174,63.12943991506472 84.56465517170727,59.14005721802823 82.81896551512182,58.25352706271224 75.83620689436793,56.923731378046796 71.64655172266066,57.81026189564727 62.56896551512182,56.923731378046796 56.63362068682909,57.81026189564727 53.491379307582974,56.923731378046796 47.20689655095339,57.81026189564727 40.92241379059851,57.81026189564727 37.08189655095339,58.69679217063822 30.448275862261653,57.81026189564727 27.306034481152892,59.14005721802823 25.909482756629586,58.69679217063822 19.27586206793785,59.14005721802823 14.73706896416843,62.242910851258785 12.642241379246116,64.45923305884935 11.594827584922314,68.44860922102816 10.547413792461157,70.22166371857747 10.89655172266066,75.09755859686993 12.293103447183967,79.08692168770358 14.387931033968925,81.74649435840547 17.879310343414545,83.51954159582965 21.719827584922314,84.40606485120952 79.6767241358757,83.07627987745218 85.61206896416843,80.85997037729248 88.05603448301554,78.20039698109031 90.15086206793785,74.21103280154057 90.5,72.43798048095778 90.15086206793785,66.67555375350639 87.35775861889124,61.79964622738771 84.56465517170727,60.913116799201816 83.16810344718397,59.14005721802823 80.7241379301995,58.25352706271224 75.13793103396893,56.923731378046796 70.94827586039901,57.81026189564727 60.47413793206215,56.923731378046796 53.491379307582974,57.81026189564727 43.71551723964512,57.36699666781351 21.02155172266066,57.81026189564727 17.181034481152892,59.58332220418379 11.24568965472281,64.9024973185733 9.5,71.55145395779982 9.849137930199504,74.21103280154057 12.293103447183967,79.53018395137042 13.689655171707273,81.30323239904828 18.228448275476694,83.51954159582965 20.67241379059851,83.51954159582965 22.76724137738347,84.40606485120952 33.93965516984463,83.51954159582965 70.25,83.51954159582965 80.37499999813735,82.18975625908934 83.86637930944562,80.85997037729248 88.40517241321504,75.5408214055933 89.8017241358757,72.88124365149997 89.8017241358757,68.00534544419497 88.40517241321504,64.01596873742528 87.00862068869174,61.79964622738771 84.21551724150777,61.35638154367916 82.12068965472281,59.58332220418379 77.58189654909074,57.36699666781351 71.99568965472281,56.923731378046796 67.80603448115289,57.81026189564727 65.71120689436793,56.923731378046796 63.96551723964512,57.81026189564727 56.284482756629586,58.25352706271224 48.603448275476694,57.81026189564727 41.969827584922314,58.25352706271224 35.33620689436793,58.25352706271224 32.19396551698446,57.36699666781351 28.353448275476694,58.69679217063822 18.926724137738347,58.69679217063822 12.991379307582974,63.572704357560724 10.198275860399008,67.56208160845563 9.849137930199504,70.664927192498 10.547413792461157,76.87060946645215 11.24568965472281,78.20039698109031 14.038793101906776,81.30323239904828 18.228448275476694,83.51954159582965 20.323275860399008,83.96280325297266 37.78017241321504,84.40606485120952 53.491379307582974,83.07627987745218 77.93103448115289,83.07627987745218 82.81896551512182,81.74649435840547 85.61206896416843,79.97344615426846 87.70689655095339,76.87060946645215 89.45258620381355,72.43798048095778 88.40517241321504,66.67555375350639 86.65948275662959,63.12943991506472 82.12068965472281,59.58332220418379 78.28017241321504,58.25352706271224 74.43965516984463,57.81026189564727 68.50431034341455,58.25352706271224 66.40948275662959,57.81026189564727 56.98275861889124,58.25352706271224 49.30172413773835,57.81026189564727 38.129310343414545,59.58332220418379 29.051724135875702,57.81026189564727 21.37068965472281,58.25352706271224 19.624999998137355,58.69679217063822 16.482758620753884,61.35638154367916 11.594827584922314,66.23228973546065 10.547413792461157,69.7784001850523 11.24568965472281,75.98408415238373 12.991379307582974,79.53018395137042 15.435344826430082,81.74649435840547 18.926724137738347,83.51954159582965 47.905172411352396,83.07627987745218 55.93534482643008,83.51954159582965 67.80603448115289,81.74649435840547 79.6767241358757,81.74649435840547 85.61206896416843,79.53018395137042 89.1034482754767,73.76776981144212 89.45258620381355,70.664927192498 89.45258620381355,67.118817711249 88.05603448301554,63.12943991506472 85.26293103396893,60.026587130501866 81.07327586226165,57.81026189564727 72.34482758678496,56.923731378046796 62.56896551512182,58.25352706271224 53.84051723964512,58.25352706271224 49.30172413773835,57.36699666781351 47.55603448115289,57.81026189564727 40.224137930199504,57.81026189564727 33.93965516984463,59.14005721802823 21.37068965472281,58.69679217063822 17.879310343414545,60.469851995352656 13.340517239645123,64.45923305884935 12.293103447183967,64.9024973185733 10.89655172266066,69.33513659145683 10.89655172266066,71.55145395779982 11.943965516984463,77.7571345360484 13.689655171707273,80.4167082963977 15.435344826430082,81.74649435840547 21.37068965472281,83.96280325297266 39.525862069800496,83.51954159582965 40.57327586039901,83.96280325297266 46.15948275849223,83.51954159582965 52.79310344718397,83.51954159582965 55.93534482643008,82.63301809830591 73.39224137738347,83.07627987745218 80.37499999813735,82.63301809830591 87.70689655095339,78.6436593644321 90.15086206793785,73.32450676197186 89.45258620381355,67.56208160845563 87.35775861889124,62.242910851258785 82.81896551512182,58.69679217063822 79.32758620753884,56.923731378046796 54.18965517170727,58.69679217063822 53.142241379246116,57.81026189564727 46.15948275849223,57.36699666781351 34.98706896416843,58.69679217063822 28.702586205676198,57.81026189564727 23.465517239645123,58.25352706271224 17.879310343414545,60.026587130501866 14.038793101906776,63.572704357560724 10.547413792461157,68.44860922102816 10.198275860399008,71.10819060588256 11.24568965472281,75.98408415238373 14.038793101906776,80.85997037729248 20.67241379059851,83.96280325297266 37.78017241321504,84.40606485120952 58.03017241321504,83.07627987745218 64.66379310190678,81.74649435840547 70.5991379301995,82.63301809830591 77.93103448115289,81.74649435840547 81.4224137943238,82.18975625908934 85.26293103396893,80.4167082963977 89.45258620381355,74.21103280154057 90.15086206793785,70.22166371857747 89.8017241358757,67.118817711249 89.1034482754767,64.45923305884935 84.91379310190678,59.58332220418379 80.7241379301995,57.36699666781351 76.53448275849223,56.48046602960676 66.40948275662959,56.923731378046796 57.33189655095339,58.25352706271224 51.74568965472281,56.923731378046796 46.50862069055438,57.81026189564727 38.8275862056762,57.81026189564727 34.98706896416843,59.14005721802823 30.448275862261653,58.25352706271224 21.37068965472281,59.14005721802823 16.133620688691735,60.913116799201816 13.340517239645123,63.572704357560724 11.24568965472281,67.56208160845563 10.547413792461157,72.88124365149997 12.293103447183967,77.7571345360484 15.086206894367933,80.85997037729248 22.76724137738347,83.51954159582965 28.353448275476694,83.07627987745218 29.749999998137355,82.18975625908934 42.66810344718397,83.51954159582965 44.413793101906776,83.07627987745218 48.254310343414545,83.51954159582965 54.538793101906776,82.63301809830591 68.50431034341455,83.07627987745218 73.39224137738347,81.74649435840547 80.37499999813735,82.18975625908934 84.56465517170727,80.4167082963977 88.05603448301554,75.98408415238373 89.45258620381355,72.88124365149997 89.45258620381355,65.78902565711178 87.35775861889124,61.79964622738771 84.91379310190678,59.58332220418379 78.28017241321504,56.923731378046796 72.34482758678496,57.81026189564727 67.10775862075388,57.36699666781351 54.887931033968925,58.69679217063822 51.396551724523306,57.81026189564727 47.20689655095339,58.25352706271224 30.797413792461157,58.69679217063822 26.956896549090743,58.25352706271224 25.909482756629586,57.36699666781351 21.02155172266066,58.25352706271224 17.879310343414545,59.58332220418379 12.293103447183967,64.45923305884935 10.89655172266066,69.33513659145683 10.89655172266066,71.99471724941395 11.24568965472281,75.98408415238373 12.991379307582974,79.97344615426846 14.038793101906776,81.30323239904828 19.27586206793785,83.51954159582965 48.9525862056762,83.51954159582965 80.7241379301995,81.74649435840547 85.96120689623058,78.6436593644321 88.75431034341455,73.76776981144212 89.8017241358757,70.22166371857747 88.05603448301554,64.01596873742528 85.96120689623058,60.913116799201816 82.81896551512182,58.25352706271224 77.93103448115289,56.48046602960676 76.53448275849223,56.923731378046796 70.25,57.81026189564727 69.2025862056762,57.36699666781351 63.61637930944562,58.69679217063822 58.03017241321504,57.81026189564727 52.094827584922314,58.69679217063822 44.76293103210628,58.25352706271224 43.71551723964512,58.69679217063822 41.27155172266066,58.25352706271224 36.73275861889124,58.69679217063822 32.892241379246116,57.81026189564727 31.844827584922314,58.69679217063822 26.60775861889124,58.25352706271224 16.831896550953388,60.469851995352656 12.642241379246116,63.572704357560724 10.198275860399008,70.664927192498 10.547413792461157,74.21103280154057 12.293103447183967,78.20039698109031 18.228448275476694,82.63301809830591 22.418103447183967,83.51954159582965 39.17672413773835,82.63301809830591 40.92241379059851,83.51954159582965 65.71120689436793,83.07627987745218 73.74137930944562,82.18975625908934 80.7241379301995,82.18975625908934 85.96120689623058,80.4167082963977 85.61206896416843,78.20039698109031 89.45258620381355,73.76776981144212 90.15086206793785,70.22166371857747 90.15086206793785,64.45923305884935 87.35775861889124,60.469851995352656 82.46982758492231,57.36699666781351 80.02586206793785,57.36699666781351 66.75862068869174,57.36699666781351 56.98275861889124,56.923731378046796 53.491379307582974,57.81026189564727 34.98706896416843,59.14005721802823 29.051724135875702,57.36699666781351 23.465517239645123,56.923731378046796 19.624999998137355,57.81026189564727 15.435344826430082,60.469851995352656 11.594827584922314,66.67555375350639 10.547413792461157,69.7784001850523 11.24568965472281,75.98408415238373 13.340517239645123,79.53018395137042 16.482758620753884,81.74649435840547 19.97413792833686,83.51954159582965 48.9525862056762,83.96280325297266 57.68103448115289,82.63301809830591 80.02586206793785,82.18975625908934 83.86637930944562,80.85997037729248 88.05603448301554,77.31387203116901 89.8017241358757,73.76776981144212 90.15086206793785,68.44860922102816 88.40517241321504,67.56208160845563 87.70689655095339,66.23228973546065 88.40517241321504,64.9024973185733 87.70689655095339,63.12943991506472 83.86637930944562,58.69679217063822 79.6767241358757,56.48046602960676 77.58189654909074,56.48046602960676 75.48706896416843,55.59393514879048 69.90086206793785,56.923731378046796 60.125,56.923731378046796 42.66810344718397,58.25352706271224 39.525862069800496,57.36699666781351 30.797413792461157,58.69679217063822 25.560344826430082,58.25352706271224 23.814655169844627,59.14005721802823 19.624999998137355,58.25352706271224 13.340517239645123,62.242910851258785 11.24568965472281,66.67555375350639 10.89655172266066,72.88124365149997 12.293103447183967,77.31387203116901 14.038793101906776,80.4167082963977 19.27586206793785,83.07627987745218 22.418103447183967,83.51954159582965 23.465517239645123,83.96280325297266 38.8275862056762,83.96280325297266 76.53448275849223,82.63301809830591 82.12068965472281,81.30323239904828 84.21551724150777,79.97344615426846 88.75431034341455,74.65429572970606 90.15086206793785,68.00534544419497 89.45258620381355,64.45923305884935 87.70689655095339,60.913116799201816 84.21551724150777,58.69679217063822 78.62931034341455,56.48046602960676 68.85344827361405,56.48046602960676 67.45689655281603,56.923731378046796 56.284482756629586,57.36699666781351 50.69827586039901,56.923731378046796 45.46120689623058,58.25352706271224 24.86206896416843,56.923731378046796 19.27586206793785,57.81026189564727 15.784482758492231,59.58332220418379 12.293103447183967,63.572704357560724 10.89655172266066,66.67555375350639 10.198275860399008,70.664927192498 10.89655172266066,75.09755859686993 12.293103447183967,78.6436593644321 15.435344826430082,81.30323239904828 20.323275860399008,83.07627987745218 33.24137930944562,84.40606485120952 42.66810344718397,84.40606485120952 58.72844827361405,83.07627987745218 76.88362068869174,83.07627987745218 80.7241379301995,82.18975625908934 87.00862068869174,79.08692168770358 88.75431034341455,76.87060946645215 89.8017241358757,68.44860922102816 88.05603448301554,63.572704357560724 85.61206896416843,60.026587130501866 80.7241379301995,56.923731378046796 76.88362068869174,56.037200620165095 75.13793103396893,56.923731378046796 71.99568965472281,56.923731378046796 66.40948275662959,58.25352706271224 62.91810344718397,57.81026189564727 58.72844827361405,58.25352706271224 53.84051723964512,56.923731378046796 48.603448275476694,56.48046602960676 38.8275862056762,56.923731378046796 35.68534482643008,57.81026189564727 31.844827584922314,56.923731378046796 19.97413792833686,57.81026189564727 16.133620688691735,59.58332220418379 12.991379307582974,62.242910851258785 11.594827584922314,64.9024973185733 10.198275860399008,73.32450676197186 11.24568965472281,76.87060946645215 13.340517239645123,79.97344615426846 16.482758620753884,82.18975625908934 19.27586206793785,83.51954159582965 35.33620689436793,83.51954159582965 38.47844827361405,84.40606485120952 55.58620689623058,83.51954159582965 73.39224137738347,83.96280325297266 81.4224137943238,82.63301809830591 86.31034482829273,79.08692168770358 89.45258620381355,75.09755859686993" stroke="#4DD2FF" stroke-linecap="round" stroke-linejoin="round" stroke-width="0.5"><title>2025-05-21 6.2km</title><desc>14545003107</desc></polyline></svg>