<?xml version="1.0" encoding="utf-8" ?>
<svg baseProfile="full" height="130mm" version="1.1" viewBox="0,0,100,130" width="100mm" xmlns="http://www.w3.org/2000/svg" xmlns:ev="http://www.w3.org/2001/xml-events" xmlns:xlink="http://www.w3.org/1999/xlink"><defs /><rect fill="#FAF9F5" height="130" width="100" x="0" y="0" /><text fill="#5A5A5A" style="font-size:6px; font-family:Arial; font-weight:bold;" x="5" y="10">2025-03-18 Workouts</text><text fill="#5A5A5A" style="font-size:4px; font-family:Arial" x="5" y="121">Runner</text><text fill="#5A5A5A" style="font-size:6px; font-family:Arial" x="2" y="128">蓝皮书</text><text fill="#5A5A5A" style="font-size:4px; font-family:Arial" x="25" y="121">STATISTICS</text><text fill="#5A5A5A" style="font-size:3px; font-family:Arial" x="25" y="125">Number: 2</text><text fill="#5A5A5A" style="font-size:3px; font-family:Arial" x="25" y="129">Weekly: 2.0</text><text fill="#5A5A5A" style="font-size:3px; font-family:Arial" x="48" y="125">Total: 10.5 km</text><text fill="#5A5A5A" style="font-size:3px; font-family:Arial" x="48" y="129">Avg: 5.3 km</text><text fill="#5A5A5A" style="font-size:3px; font-family:Arial" x="75" y="125">Min: 5.2 km</text><text fill="#5A5A5A" style="font-size:3px; font-family:Arial" x="75" y="129">Max: 5.3 km</text><polyline fill="none" points="26.074999999254942,32.41862072702497 25.25,33.46604197472334 27.725000000558794,35.03717277373653 27.518749999813735,35.29902778204996 31.4375,33.989752384484746 32.05624999944121,34.513462650822476 31.024999999441206,38.17943051166367 30.406249999068677,39.22684861358721 28.549999999813735,39.75055744941346 27.518749999813735,42.369099486852065 27.106250000186265,44.4639305426972 27.931249999441206,48.129879384767264 28.549999999813735,49.43914513033815 29.78749999962747,50.74840998183936 32.46875,51.795821220148355 35.35624999925494,52.319526624749415 39.27499999944121,51.795821220148355 51.65000000037253,51.795821220148355 53.918750000186265,51.0102628453169 57.012500000186265,51.5339684644714 66.29375000018626,51.5339684644714 69.38750000018626,51.0102628453169 71.45000000018626,49.962851178483106 72.48125000111759,49.17729205219075 74.75,44.72578426357359 74.54375000018626,41.32168310077395 73.30625000037253,38.44128509028815 70.62500000093132,36.60830228612758 68.15000000037253,35.822737691225484 64.23125000111759,35.29902778204996 63.81874999962747,35.56088275485672 58.25,35.03717277373653 57.424999999813735,35.29902778204996 55.15625,34.77531773026567 50.20625000074506,35.56088275485672 44.637500000186265,35.29902778204996 41.75,35.822737691225484 38.24375000037253,35.56088275485672 31.850000000558794,36.60830228612758 30.818750000558794,37.13201183755882 28.137500000186265,40.01241181453224 27.725000000558794,41.05982891540043 27.3125,44.202076785615645 28.137500000186265,47.86802612885367 30.406249999068677,50.48655708367005 33.29374999925494,51.795821220148355 40.92500000074506,52.319526624749415 44.22499999962747,51.795821220148355 55.36250000074506,52.057673939852975 59.48750000074506,51.27211567258928 64.84999999962747,51.5339684644714 66.29375000018626,51.795821220148355 70.41875000018626,50.48655708367005 72.27500000037253,48.65358579030726 73.92499999981374,46.03505233267788 74.54375000018626,43.4165153009817 73.92499999981374,40.53612043627072 72.89375000074506,38.44128509028815 70.41875000018626,36.346447457093745 66.91249999962747,35.29902778204996 62.581249999813735,35.56088275485672 60.106250000186265,35.03717277373653 58.86875000037253,35.56088275485672 55.77500000037253,35.03717277373653 53.71250000037253,35.822737691225484 50.61875000037253,36.0845925915055 45.875,35.29902778204996 43.19374999962747,35.56088275485672 41.33749999944121,35.29902778204996 38.862499999813735,35.822737691225484 34.53125,35.822737691225484 30.612499999813735,37.13201183755882 28.96250000037253,38.703139633871615 27.725000000558794,41.05982891540043 27.931249999441206,42.369099486852065 27.518749999813735,46.03505233267788 27.931249999441206,46.82061274489388 29.375,49.17729205219075 33.70624999888241,51.795821220148355 39.893749999813735,52.057673939852975 46.49375000037253,51.795821220148355 51.65000000037253,52.057673939852975 61.549999999813735,51.27211567258928 68.15000000037253,51.795821220148355 71.0375000005588,49.962851178483106 73.92499999981374,46.296905839815736 74.1312500005588,43.154661400592886 73.1000000005588,39.75055744941346 72.0687500005588,37.917575897066854 70.21250000037253,36.346447457093745 66.08750000037253,35.56088275485672 61.96250000037253,36.346447457093745 59.90000000037253,36.346447457093745 58.66249999962747,36.0845925915055 49.79374999925494,35.822737691225484 49.174999999813735,35.29902778204996 47.52499999944121,35.56088275485672 45.049999999813735,35.03717277373653 43.606250000186265,35.29902778204996 40.512500000186265,34.77531773026567 31.4375,36.60830228612758 30.612499999813735,37.13201183755882 28.75624999962747,39.48870304937009 27.518749999813735,42.10724544385448 27.518749999813735,45.77319879049901 28.343749999068677,48.3917326052906 30.406249999068677,51.0102628453169 31.4375,51.27211567258928 37.41874999925494,52.057673939852975 45.875,52.319526624749415 47.52499999944121,52.58137927297503 48.762500000186265,52.319526624749415 51.23750000074506,52.319526624749415 54.53749999962747,51.795821220148355 61.549999999813735,52.057673939852975 65.05625000037253,51.5339684644714 67.53125,51.795821220148355 69.38750000018626,51.27211567258928 72.48125000111759,49.17729205219075 73.92499999981374,47.34431950817816 74.54375000018626,44.72578426357359 74.3374999994412,41.84539136523381 72.48125000111759,39.22684861358721 68.35625000111759,36.346447457093745 66.08750000037253,35.56088275485672 52.0625,35.29902778204996 49.174999999813735,36.0845925915055 46.700000000186265,35.29902778204996 36.59375,35.822737691225484 35.35624999925494,35.56088275485672 34.325000000186265,36.0845925915055 32.262500000186265,36.0845925915055 30.818750000558794,37.13201183755882 28.75624999962747,39.48870304937009 27.518749999813735,43.4165153009817 27.725000000558794,46.82061274489388 28.343749999068677,48.3917326052906 30.612499999813735,51.0102628453169 32.88124999962747,51.5339684644714 38.03749999962747,52.057673939852975 42.575000000186265,51.795821220148355 55.36250000074506,52.319526624749415 57.424999999813735,51.795821220148355 64.02500000037253,52.319526624749415 67.73750000074506,52.057673939852975 69.38750000018626,51.5339684644714 73.30625000037253,48.91543893911876 74.3374999994412,46.296905839815736 74.54375000018626,43.4165153009817 72.89375000074506,39.22684861358721 71.24375000037253,37.917575897066854 68.15000000037253,36.346447457093745 64.64374999981374,36.0845925915055 63.40625,35.29902778204996 54.53749999962747,35.56088275485672 51.65000000037253,34.77531773026567 48.55624999944121,35.56088275485672 46.49375000037253,35.56088275485672 45.46249999944121,36.0845925915055 44.22499999962747,35.56088275485672 40.71875,36.0845925915055 35.768749999813735,35.822737691225484 34.53125,36.346447457093745 33.29374999925494,36.0845925915055 31.024999999441206,37.13201183755882 28.96250000037253,38.703139633871615 27.518749999813735,41.32168310077395 27.3125,43.4165153009817 27.725000000558794,47.08246614492964 29.168749999254942,49.962851178483106 32.46875,51.5339684644714 40.92500000074506,52.58137927297503 58.86875000037253,51.5339684644714 60.106250000186265,51.795821220148355 66.08750000037253,52.057673939852975 71.24375000037253,50.48655708367005 72.6875,48.91543893911876 74.3374999994412,45.77319879049901 73.51250000018626,39.75055744941346 71.65625,37.39386655995622 70.62500000093132,36.870157079189084 64.84999999962747,35.822737691225484 61.549999999813735,36.0845925915055 59.075000000186265,35.03717277373653 55.77500000037253,36.60830228612758 52.0625,37.13201183755882 49.174999999813735,36.346447457093745 48.143749999813735,36.60830228612758 46.90625,35.822737691225484 44.018749999813735,35.03717277373653 42.16249999962747,34.77531773026567 40.92500000074506,35.29902778204996 40.30624999944121,35.03717277373653 36.799999999813735,35.03717277373653 32.262500000186265,36.346447457093745 29.99375000037253,38.17943051166367 28.343749999068677,40.274266142747365 27.3125,42.63095349352807 27.3125,46.296905839815736 27.518749999813735,47.34431950817816 29.375,49.70099817228038 31.231250000186265,51.27211567258928 32.88124999962747,52.057673939852975 43.8125,52.319526624749415 61.549999999813735,51.795821220148355 67.32499999925494,52.319526624749415 70.21250000037253,51.27211567258928 71.65625,50.224704148597084 73.30625000037253,47.86802612885367 74.54375000018626,44.72578426357359 74.3374999994412,42.63095349352807 74.54375000018626,41.58353725075722 73.30625000037253,39.75055744941346 71.24375000037253,38.703139633871615 70.41875000018626,37.65572124614846 68.35625000111759,36.0845925915055 66.29375000018626,36.0845925915055 65.46874999906868,35.822737691225484 57.012500000186265,34.77531773026567 54.125,34.77531773026567 52.887500000186265,35.29902778204996 52.268749999813735,34.77531773026567 50.61875000037253,34.77531773026567 46.90625,35.56088275485672 43.39999999944121,35.29902778204996 42.16249999962747,35.56088275485672 41.13124999962747,35.29902778204996 40.30624999944121,35.56088275485672 33.70624999888241,35.56088275485672 31.643749999813735,36.60830228612758 28.137500000186265,40.274266142747365 27.725000000558794,41.84539136523381 27.725000000558794,43.4165153009817 27.106250000186265,45.51134521223139 28.137500000186265,48.91543893911876 31.850000000558794,51.5339684644714 41.33749999944121,52.057673939852975 49.38125000055879,51.795821220148355 52.268749999813735,52.319526624749415 57.63125000055879,51.5339684644714 62.581249999813735,52.057673939852975 69.79999999981374,51.0102628453169 71.0375000005588,50.48655708367005 72.89375000074506,48.65358579030726 74.75,44.98763794882689 74.3374999994412,42.10724544385448 73.92499999981374,41.05982891540043 71.65625,38.17943051166367 66.08750000037253,35.822737691225484 61.549999999813735,35.29902778204996 57.424999999813735,35.822737691225484 52.0625,35.56088275485672 51.44374999962747,36.0845925915055 49.58750000037253,35.822737691225484 46.08124999888241,36.346447457093745 44.637500000186265,35.822737691225484 34.11875000037253,36.0845925915055 32.05624999944121,36.60830228612758 29.99375000037253,38.17943051166367 28.549999999813735,40.01241181453224 27.518749999813735,45.51134521223139 27.931249999441206,47.86802612885367 29.581249999813735,50.224704148597084 30.818750000558794,51.0102628453169 34.11875000037253,51.795821220148355 42.16249999962747,52.319526624749415 48.143749999813735,51.795821220148355 51.856250000186265,52.057673939852975 53.299999999813735,51.5339684644714 58.25,51.795821220148355 61.34375000093132,51.5339684644714 62.581249999813735,51.795821220148355 63.81874999962747,51.5339684644714 68.15000000037253,52.057673939852975 70.83124999981374,51.0102628453169 72.6875,48.91543893911876 73.51250000018626,47.08246614492964 73.51250000018626,41.32168310077395 72.6875,39.48870304937009 70.83124999981374,37.65572124614846 68.35625000111759,36.0845925915055 56.59999999962747,35.03717277373653 56.393749999813735,35.56088275485672 54.125,35.29902778204996 52.0625,35.822737691225484 46.08124999888241,36.0845925915055 44.637500000186265,35.56088275485672 41.956249999813735,36.0845925915055 38.862499999813735,35.56088275485672 33.5,36.0845925915055 29.375,39.22684861358721 28.137500000186265,42.10724544385448 27.725000000558794,46.55875931028277 29.168749999254942,49.43914513033815 31.231250000186265,51.5339684644714 34.737499999813735,52.58137927297503 39.6875,51.5339684644714 42.78125,52.319526624749415 54.74374999944121,51.27211567258928 56.1875,51.795821220148355 58.45624999888241,51.5339684644714 59.90000000037253,51.795821220148355 62.375,51.5339684644714 65.8812500005588,52.057673939852975 68.9750000005588,51.5339684644714 71.45000000018626,50.224704148597084 74.1312500005588,46.82061274489388 74.75,44.202076785615645 74.1312500005588,41.05982891540043 72.89375000074506,38.96499414136633 71.0375000005588,37.13201183755882 67.9437500005588,36.346447457093745 66.08750000037253,35.29902778204996 60.106250000186265,34.513462650822476 56.59999999962747,35.29902778204996 55.77500000037253,35.03717277373653 51.65000000037253,36.60830228612758 49.58750000037253,36.870157079189084 45.46249999944121,36.346447457093745 43.606250000186265,35.56088275485672 40.30624999944121,35.822737691225484 38.24375000037253,35.29902778204996 37.21249999944121,35.822737691225484 34.737499999813735,35.56088275485672 33.5,36.0845925915055 30.612499999813735,37.39386655995622 28.137500000186265,41.32168310077395 27.518749999813735,45.24949159857351 27.931249999441206,46.55875931028277 28.343749999068677,48.3917326052906 29.99375000037253,50.224704148597084 32.88124999962747,51.795821220148355 36.387500000186265,52.319526624749415 52.47499999962747,52.319526624749415 58.25,51.795821220148355 67.32499999925494,52.057673939852975 69.79999999981374,51.27211567258928 72.48125000111759,48.65358579030726 73.51250000018626,47.08246614492964 74.54375000018626,42.63095349352807 74.3374999994412,41.58353725075722 72.6875,38.44128509028815 69.79999999981374,36.0845925915055" stroke="#4DD2FF" stroke-linecap="round" stroke-linejoin="round" stroke-width="0.5"><title>2025-03-18 5.3km</title><desc>13915690259</desc></polyline><polyline fill="none" points="29.636075949296355,87.95393312617671 29.844936708919704,91.13596844987478 27.338607595302165,92.99215331522282 25.876582278870046,97.23485491680913 25.876582278870046,100.94721121550538 27.547468354925513,103.86405761551578 28.382911392487586,104.65956041880418 32.56012658216059,106.51573235937394 37.363924050703645,106.78089963516686 38.825949368067086,106.25056504830718 40.07911392394453,106.78089963516686 43.21202531643212,105.98539770068601 48.01582278497517,106.25056504830718 48.851265823468566,105.72023031651042 50.93987341783941,105.98539770068601 56.16139240656048,105.45506289647892 57.20569620281458,105.98539770068601 59.29430379718542,105.18989543977659 60.54746835492551,105.72023031651042 63.05379746854305,105.18989543977659 67.8575949370861,105.45506289647892 71.19936708919704,103.86405761551578 72.24367088638246,102.538218885893 73.2879746844992,100.41687503561843 73.91455696243793,95.64384290203452 72.66139240562916,92.72698415722698 69.1107594948262,90.07529058854561 68.06645569670945,89.81012103275862 59.92088607698679,90.87079903902486 55.53481012675911,89.81012103275862 43.00316455680877,90.60562959196977 31.306962025351822,91.13596844987478 29.00949367042631,92.19664573366754 26.920886076055467,94.58316750149243 26.294303798116744,96.17418038495816 26.71202531643212,96.43934907217044 26.085443037562072,97.23485491680913 25.876582278870046,100.94721121550538 26.294303798116744,102.27305103174876 28.382911392487586,104.92472794791684 32.76898734178394,106.51573235937394 41.75000000093132,106.51573235937394 45.091772152110934,105.98539770068601 46.136075949296355,106.51573235937394 48.43354430422187,105.98539770068601 53.44620253145695,106.51573235937394 56.16139240656048,105.45506289647892 67.8575949370861,105.45506289647892 70.99050632957369,104.1292252530111 73.70569620281458,101.21237925055902 74.33227848168463,99.88653871114366 74.12341772206128,95.37867410678882 72.45253164693713,92.46181496372446 68.48417721595615,89.81012103275862 63.47151898685843,90.3404601077782 61.17405063286424,89.81012103275862 59.29430379718542,90.3404601077782 55.117088607512414,90.07529058854561 48.22468354459852,90.60562959196977 33.18670886103064,90.87079903902486 31.098101266659796,91.13596844987478 27.965189873240888,92.99215331522282 26.71202531643212,94.31799856154248 26.294303798116744,95.11350527429022 25.45886075962335,99.35620224184822 26.503164555877447,103.86405761551578 27.965189873240888,105.18989543977659 28.800632911734283,105.18989543977659 32.14240506384522,106.51573235937394 36.11075949296355,106.78089963516686 41.958860758692026,106.51573235937394 45.50949367135763,105.72023031651042 51.14873417746276,106.25056504830718 55.32594936713576,105.18989543977659 58.25,105.18989543977659 59.92088607698679,105.72023031651042 63.262658229097724,104.92472794791684 68.48417721595615,105.18989543977659 70.36392405163497,104.39439285418484 72.66139240562916,102.27305103174876 73.70569620281458,100.41687503561843 74.33227848168463,96.96968633774668 73.2879746844992,92.99215331522282 70.78164556995034,90.87079903902486 69.1107594948262,89.81012103275862 65.14240506384522,89.81012103275862 63.05379746854305,90.60562959196977 59.29430379718542,90.07529058854561 44.67405063379556,90.87079903902486 35.2753164563328,90.3404601077782 30.2626582281664,90.87079903902486 29.42721519060433,91.40113782533444 26.920886076055467,94.31799856154248 25.667721519246697,98.03036043501925 25.667721519246697,100.94721121550538 27.129746835678816,103.59888994146604 28.591772152110934,104.92472794791684 31.933544303290546,106.78089963516686 42.79430379718542,106.78089963516686 45.92721519060433,105.72023031651042 48.43354430422187,106.25056504830718 55.95253164600581,105.18989543977659 58.45886076055467,105.18989543977659 59.92088607698679,105.72023031651042 64.0981012666598,104.92472794791684 65.35126582346857,105.45506289647892 68.27531645540148,105.18989543977659 70.15506329201162,104.39439285418484 72.8702531652525,102.27305103174876 74.12341772206128,100.41687503561843 74.54113924130797,96.70451772329397 73.2879746844992,93.78766057139728 71.19936708919704,91.13596844987478 67.64873417746276,89.81012103275862 64.30696202628314,90.07529058854561 61.382911392487586,90.60562959196977 59.085443038493395,90.3404601077782 52.610759493894875,90.87079903902486 46.136075949296355,90.60562959196977 41.123417721129954,91.66630716447253 34.85759493615478,91.13596844987478 31.51582278497517,91.40113782533444 28.382911392487586,93.25732243678067 26.920886076055467,94.58316750149243 25.876582278870046,96.43934907217044 25.25,98.82586562808137 25.45886075962335,100.68204314413015 26.503164555877447,103.33372223202605 31.72468354459852,106.78089963516686 34.64873417746276,106.78089963516686 35.69303797464818,107.04606687382329 45.92721519060433,105.98539770068601 52.819620254449546,106.25056504830718 55.32594936713576,105.45506289647892 59.50316455774009,105.72023031651042 61.59177215117961,105.72023031651042 63.88924050703645,104.92472794791684 65.35126582346857,105.18989543977659 69.73734177276492,104.92472794791684 72.45253164693713,103.06855448638089 73.49683544319123,101.21237925055902 73.91455696243793,98.03036043501925 73.2879746844992,94.84833640628494 71.19936708919704,91.66630716447253 68.06645569670945,89.81012103275862 67.02215189952403,90.07529058854561 63.6803797474131,89.81012103275862 55.95253164600581,90.87079903902486 52.610759493894875,90.3404601077782 45.30063291173428,91.40113782533444 41.958860758692026,90.60562959196977 31.72468354459852,91.40113782533444 27.75632911361754,93.52249152259901 26.71202531643212,95.11350527429022 25.876582278870046,98.29552886844613 26.294303798116744,101.21237925055902 28.800632911734283,104.92472794791684 32.56012658216059,106.78089963516686 37.155063291080296,106.78089963516686 44.04746835492551,105.98539770068601 55.53481012675911,106.51573235937394 56.78797468356788,105.98539770068601 57.20569620281458,105.18989543977659 65.14240506384522,105.72023031651042 68.6930379755795,105.45506289647892 71.40822784882039,103.86405761551578 72.66139240562916,102.8033867040649 73.70569620281458,100.41687503561843 73.91455696243793,96.43934907217044 72.8702531652525,93.25732243678067 70.15506329201162,90.3404601077782 69.1107594948262,90.07529058854561 63.47151898685843,89.81012103275862 60.54746835492551,90.3404601077782 50.52215189859271,90.60562959196977 49.26898734178394,90.3404601077782 41.54113924037665,91.40113782533444 37.155063291080296,91.13596844987478 31.306962025351822,91.66630716447253 28.174050632864237,92.72698415722698 27.129746835678816,94.05282958422322 25.667721519246697,98.29552886844613 25.667721519246697,99.62137049471494 26.71202531643212,103.06855448638089 27.965189873240888,104.65956041880418 32.35126582160592,106.78089963516686 38.617088607512414,106.78089963516686 43.42088607605547,105.72023031651042 45.71835443004966,106.25056504830718 48.851265823468566,105.98539770068601 51.56645569577813,106.25056504830718 54.49050632864237,105.72023031651042 58.45886076055467,105.72023031651042 60.33860759623349,105.18989543977659 69.31962025351822,105.45506289647892 71.19936708919704,104.1292252530111 72.03481012769043,103.06855448638089 73.2879746844992,100.94721121550538 73.91455696243793,97.50002345873509 73.07911392394453,94.05282958422322 71.82594936713576,92.19664573366754 68.90189873427153,90.07529058854561 65.14240506384522,90.60562959196977 63.88924050703645,90.07529058854561 61.382911392487586,90.60562959196977 57.832278481684625,90.07529058854561 56.78797468356788,90.60562959196977 51.7753164563328,91.40113782533444 45.091772152110934,90.3404601077782 35.901898734271526,90.87079903902486 34.43987341783941,90.60562959196977 29.844936708919704,91.66630716447253 27.338607595302165,93.52249152259901 26.503164555877447,95.37867410678882 25.667721519246697,97.50002345873509 25.876582278870046,100.41687503561843 26.085443037562072,101.7427152133314 28.174050632864237,104.1292252530111 31.72468354459852,106.51573235937394 32.97784810140729,106.78089963516686 35.48417721502483,106.78089963516686 36.7373417718336,106.51573235937394 40.914556961506605,106.25056504830718 51.14873417746276,106.78089963516686 53.44620253145695,106.25056504830718 58.876582278870046,106.51573235937394 66.18670886103064,105.45506289647892 69.1107594948262,104.65956041880418 70.99050632957369,103.59888994146604 73.49683544319123,100.68204314413015 73.91455696243793,98.56069726648275 73.70569620281458,96.43934907217044 72.45253164693713,92.99215331522282 71.61708860844374,91.93147646693978 68.48417721595615,90.60562959196977 66.39556961972266,90.60562959196977 64.0981012666598,90.3404601077782 61.59177215117961,90.60562959196977 55.74367088638246,90.3404601077782 52.401898734271526,90.87079903902486 50.104430380277336,90.60562959196977 44.46518987324089,90.60562959196977 31.72468354459852,91.66630716447253 29.21835443098098,92.99215331522282 27.547468354925513,94.58316750149243 26.294303798116744,96.70451772329397 25.876582278870046,99.88653871114366 26.503164555877447,101.7427152133314 28.800632911734283,104.65956041880418 32.97784810140729,106.78089963516686 37.99050632864237,106.25056504830718 38.825949368067086,106.78089963516686 39.87025316525251,105.45506289647892 42.1677215192467,105.98539770068601 45.71835443004966,105.72023031651042 49.68670886103064,106.51573235937394 56.78797468356788,105.45506289647892 60.129746835678816,105.72023031651042 62.21835443098098,105.18989543977659 68.48417721595615,105.45506289647892 69.73734177276492,104.92472794791684 73.2879746844992,101.7427152133314 73.91455696243793,99.35620224184822 73.91455696243793,96.70451772329397 70.78164556995034,91.13596844987478 68.90189873427153,90.07529058854561 63.88924050703645,90.3404601077782 62.636075949296355,90.87079903902486 51.14873417746276,90.3404601077782 43.83860759437084,91.13596844987478 43.42088607605547,90.60562959196977 42.376582278870046,90.60562959196977 40.28797468356788,91.13596844987478 38.617088607512414,90.87079903902486 32.14240506384522,91.40113782533444 28.800632911734283,92.99215331522282 27.547468354925513,94.05282958422322 25.876582278870046,96.96968633774668 25.876582278870046,99.35620224184822 26.503164555877447,102.27305103174876 30.889240506105125,106.25056504830718 32.76898734178394,106.78089963516686 37.57278481032699,106.51573235937394 39.45253164507449,107.04606687382329 47.806962026283145,106.25056504830718 52.819620254449546,106.51573235937394 54.28164556995034,105.98539770068601 58.876582278870046,106.25056504830718 61.382911392487586,105.45506289647892 64.51582278404385,105.18989543977659 68.06645569670945,105.45506289647892 72.03481012769043,104.1292252530111 72.45253164693713,103.59888994146604 74.54113924130797,99.62137049471494 74.75,96.17418038495816 73.07911392394453,92.99215331522282 72.24367088638246,92.19664573366754 70.57278481125832,91.13596844987478 65.56012658309191,89.81012103275862 63.262658229097724,90.07529058854561 62.42721519060433,90.60562959196977 52.401898734271526,90.60562959196977 50.52215189859271,91.13596844987478 49.68670886103064,90.87079903902486 48.01582278497517,90.87079903902486 35.2753164563328,91.13596844987478 32.76898734178394,91.40113782533444 29.21835443098098,92.46181496372446 27.75632911361754,93.78766057139728 27.129746835678816,94.84833640628494 26.294303798116744,98.03036043501925 26.71202531643212,101.21237925055902 28.174050632864237,104.1292252530111 29.00949367042631,104.92472794791684 30.680379746481776,105.98539770068601 33.39556962065399,106.78089963516686 37.99050632864237,106.78089963516686 41.75000000093132,105.72023031651042 45.091772152110934,105.72023031651042 54.69936708919704,105.18989543977659 55.74367088638246,105.45506289647892 56.99683544319123,105.18989543977659 62.42721519060433,105.72023031651042 63.47151898685843,104.92472794791684 64.93354430422187,105.18989543977659 68.90189873427153,104.92472794791684 70.78164556995034,103.86405761551578 73.07911392394453,101.47754725057166 73.70569620281458,98.29552886844613 73.70569620281458,96.96968633774668 72.66139240562916,94.05282958422322 72.03481012769043,92.99215331522282 70.57278481125832,91.66630716447253 69.52848101314157,91.66630716447253 68.48417721595615,90.87079903902486" stroke="#4DD2FF" stroke-linecap="round" stroke-linejoin="round" stroke-width="0.5"><title>2025-03-18 5.2km</title><desc>13911578403</desc></polyline></svg>