<?xml version="1.0" encoding="utf-8" ?>
<svg baseProfile="full" height="130mm" version="1.1" viewBox="0,0,100,130" width="100mm" xmlns="http://www.w3.org/2000/svg" xmlns:ev="http://www.w3.org/2001/xml-events" xmlns:xlink="http://www.w3.org/1999/xlink"><defs /><rect fill="#FAF9F5" height="130" width="100" x="0" y="0" /><text fill="#5A5A5A" style="font-size:6px; font-family:Arial; font-weight:bold;color:#0ed45e;" x="5" y="10">晨间跑步Run</text><text fill="#5A5A5A" style="font-size:4px; font-family:Arial" x="5" y="121">Runner</text><text fill="#5A5A5A" style="font-size:6px; font-family:Arial" x="2" y="128">蓝皮书</text><text fill="#5A5A5A" style="font-size:4px; font-family:Arial" x="25" y="121">WORKOUTS INFO</text><text fill="#5A5A5A" style="font-size:3px; font-family:Arial" x="25" y="125">Type: Run</text><text fill="#5A5A5A" style="font-size:3px; font-family:Arial" x="22" y="129">Date: 2025-10-21</text><text fill="#5A5A5A" style="font-size:3px; font-family:Arial" x="47" y="125">Distance: 5.14 km</text><text fill="#5A5A5A" style="font-size:3px; font-family:Arial" x="47" y="129">Duration: 35:43min</text><text fill="#5A5A5A" style="font-size:3px; font-family:Arial" x="75" y="125">Pace: 6:56/km</text><text fill="#5A5A5A" style="font-size:3px; font-family:Arial" x="75" y="129">Elevation: 0m</text><polyline fill="none" points="89.6367673180066,45.2205301260401 89.1092362345662,45.65257508214563 86.13587921834551,46.94870738458121 82.8268206040375,47.75107307182043 78.79840142116882,49.47924031174625 77.16785079939291,50.034721185831586 76.30461811716668,50.52848136945977 75.20159857906401,50.96052107185824 74.05062166973948,51.63943974036374 71.41296625230461,52.565236222872045 69.20692717586644,53.737908948765835 68.67939609242603,54.16994547468494 66.76110124331899,54.91057852443191 65.13055062177591,55.65121031738818 64.21936056856066,56.26840251820977 62.828596802894026,56.63871741993353 61.917406749678776,57.009032007539645 60.52664298424497,57.99653603846673 58.94404973345809,58.79888141871197 56.97779751336202,59.23091293568723 49.25666074594483,61.69965625854093 47.769982238067314,62.25512158195488 42.63854351686314,64.60041182264104 36.59591474267654,66.82225411167019 35.78063943143934,67.25427768804366 34.48579040844925,67.74801839483553 32.375666074687615,68.85893294261768 30.936944937799126,69.35267183437827 29.738010657252744,69.59954107084195 29.114564831368625,69.84641016757814 27.484014209592715,70.64873376820469 24.462699822383,71.94479185383534 23.16785079939291,72.68539474660065 20.91385435150005,73.48771312931785 19.90674955607392,73.98144678582321 18.420071047963575,74.29003003748949 13.048845470650122,76.2032413292909 12.281527531100437,76.38839036424179 11.082593250321224,76.9438369977579 9.883658969774842,77.8078636896098 9.547957371221855,78.23987639404368 9.5,78.48674060497433 9.643872113665566,79.04218456850504 10.075488454662263,79.96792293764884 10.027531083440408,80.83194364429801 10.267317939316854,82.06625597298262 10.123445825884119,83.85600265086396 10.507104795658961,85.39888182899449 10.986678507877514,88.97834052253165 11.610124333994463,91.2000587436778 12.377442273544148,92.74291196739068 12.85701598552987,94.28575973861734 13.144760213093832,94.7794698739599 14.343694493640214,94.7794698739599 14.39165186486207,94.5326148760505 14.439609236316755,93.97719062058604 14.39165186486207,92.2491995289165 13.912078152643517,89.90405782216112 13.528419182635844,88.73148224459146 12.85701598552987,84.96687620875309 12.617229129653424,83.05370332329767 11.658081704983488,80.09135457174852 11.658081704983488,79.90620710735675 11.706039076438174,79.84449126836262 12.76110124331899,79.47419605177129 13.288632326759398,79.78277542081196 13.57637655409053,79.78277542081196 14.48756660730578,79.53591194312321 15.782415630528703,79.47419605177129 16.93339253985323,79.35076424304862 19.18738898751326,78.73360467614839 20.769982238067314,77.74614755390212 22.208703374722973,77.43756674529868 23.071936056716368,77.12898571850383 26.285079928813502,75.46264440452796 27.819715808145702,74.96891242344282 30.0737122555729,73.85801342385821 31.80017762002535,73.30256286408985 32.663410301785916,73.0556957218505 33.62255772645585,72.93226209838758 36.16429840144701,72.12994269476621 38.13055062177591,71.32762181662838 39.617229129653424,70.52529946382856 42.01509769097902,69.78469290648354 43.35790408519097,69.59954107084195 43.789520426187664,69.16751981529524 43.789520426187664,69.66125835801358 43.64564831275493,70.21671355096623 42.974245115416124,71.38933885964798 42.59058614540845,72.56196101836395 41.96714031975716,74.0431634534907 41.535523978760466,76.3266740279505 41.19982238020748,77.62271525675897 40.96003552386537,79.84449126836262 40.624333925545216,81.63424705495709 40.528419182868674,82.80684169504093 40.24067495553754,84.16457892264589 40.24067495553754,84.47315497638192 40.38454706920311,84.53487016103463 40.86412078165449,84.53487016103463 41.29573712241836,84.34972458105767 41.63143872120418,84.04114844012656 41.96714031975716,83.48571083671413 42.54262877441943,82.06625597298262 42.73445825930685,81.20223770930897 43.261989342747256,77.4992829245457 43.59769094130024,76.01809221613803 43.789520426187664,73.91973010922084 44.07726465375163,72.31509345737868 44.22113676741719,70.21671355096623 44.46092362329364,69.10580245827441 44.796625222079456,66.88397179168533 44.98845470696688,66.45194784889463 45.324156305519864,66.20507683244068 46.858792184852064,65.58789868056192 46.81083481363021,65.83477004608721 46.331261101178825,67.13084242408513 46.043516874080524,68.55034585180692 45.611900533083826,71.75964093420771 45.56394316162914,73.6728633158491 45.03641207818873,75.89465943002142 44.892539964523166,77.0055532467668 44.892539964523166,78.17816031959956 44.604795737192035,79.22733239940135 44.26909413863905,81.32566899459925 43.93339253985323,84.78173081195564 43.93339253985323,85.0285913234693 44.07726465375163,85.27545169534278 45.13232682063244,85.7074570102559 47.81793960928917,86.13946189760463 48.24955595028587,86.07774693972897 48.3934280637186,85.95431699819164 48.585257548838854,85.52231192763429 49.11278863227926,83.91771792259533 49.25666074594483,82.74512626617798 49.88010657206178,80.95537503415835 50.11989342793822,79.22733239940135 50.11989342793822,78.17816031959956 50.02397868572734,77.31413436090224 50.07193605671637,76.45010669188923 50.64742451161146,74.41346327716019 50.93516873894259,73.11741252048523 51.031083481386304,71.82135791619658 51.27087033726275,70.52529946382856 51.462699822383,67.62458327031345 51.79840142116882,66.08164127182681 52.08614564826712,65.64961653499631 52.42184724705294,65.4644629455288 53.33303730003536,65.1558734549908 55.107460035476834,63.98323140188586 56.16252220259048,63.42776827735361 57.025754884583876,62.62543140508933 58.464476021239534,62.06996655272087 59.85523978690617,61.8848114447901 60.71847246889956,61.45278255449375 61.293960923561826,61.329345650126925 62.87655417411588,61.57621942402329 63.93161634122953,60.77387914858991 64.69893428054638,60.52700492096483 65.32238010666333,60.46528634233982 65.56216696277261,60.280130553699564 67.09680284187198,59.04575662343996 67.76820603921078,58.67544376384467 68.48756660753861,57.93481710186461 69.11101243342273,57.50278430210892 70.40586145641282,57.009032007539645 71.98845470696688,56.144964147824794 74.00266429851763,55.28089457791066 75.77708703372627,54.231664943596115 77.79129662527703,53.55275030681514 78.94227353483438,53.058993544080295 80.57282415637746,52.68867560563376 82.34724689181894,51.57771990497713 84.50532859680243,50.71364129422 85.99200710467994,50.40504137586686 89.15719360578805,48.98547894146759 90.45204262901098,48.18311552325031 90.5,47.62763229283155" stroke="#4DD2FF" stroke-linecap="round" stroke-linejoin="round" stroke-width="0.5"><title>2025-10-21 5.14km</title><desc>16206217927</desc></polyline></svg>