<?xml version="1.0" encoding="utf-8" ?>
<svg baseProfile="full" height="130mm" version="1.1" viewBox="0,0,100,130" width="100mm" xmlns="http://www.w3.org/2000/svg" xmlns:ev="http://www.w3.org/2001/xml-events" xmlns:xlink="http://www.w3.org/1999/xlink"><defs /><rect fill="#FAF9F5" height="130" width="100" x="0" y="0" /><text fill="#5A5A5A" style="font-size:6px; font-family:Arial; font-weight:bold;color:#0ed45e;" x="5" y="10">雪后逛天坛 三里河公园</text><text fill="#5A5A5A" style="font-size:4px; font-family:Arial" x="5" y="121">Runner</text><text fill="#5A5A5A" style="font-size:6px; font-family:Arial" x="2" y="128">蓝皮书</text><text fill="#5A5A5A" style="font-size:4px; font-family:Arial" x="25" y="121">WORKOUTS INFO</text><text fill="#5A5A5A" style="font-size:3px; font-family:Arial" x="25" y="125">Type: Run</text><text fill="#5A5A5A" style="font-size:3px; font-family:Arial" x="22" y="129">Date: 2025-12-23</text><text fill="#5A5A5A" style="font-size:3px; font-family:Arial" x="47" y="125">Distance: 7.56 km</text><text fill="#5A5A5A" style="font-size:3px; font-family:Arial" x="47" y="129">Duration: 51:10min</text><text fill="#5A5A5A" style="font-size:3px; font-family:Arial" x="75" y="125">Pace: 6:46/km</text><text fill="#5A5A5A" style="font-size:3px; font-family:Arial" x="75" y="129">Elevation: 9m</text><polyline fill="none" points="62.905756207183,56.845419774530455 62.905756207183,57.28232667042175 64.24661399470642,56.40851268678671 64.35835214424878,55.97160540841287 63.240970654413104,53.7870661461493 62.01185101503506,52.47634029434994 62.01185101503506,50.43742999236565 61.56489841919392,49.272336521651596 61.117945823352784,48.835426119796466 60.559255078900605,48.835426119796466 59.777088035363704,48.10724169079913 56.42494356632233,47.37905673129717 51.73194130929187,47.52469376544468 49.72065462730825,48.68978927633725 48.60327313747257,48.835426119796466 47.82110609440133,49.7092467325856 45.47460496565327,49.7092467325856 38.77031602663919,46.50523407821311 34.747742663137615,43.59248637733981 33.295146726537496,41.99047151929699 33.853837471455336,40.24281601392431 34.859480812679976,38.49515744956443 35.418171557132155,36.893134410027415 35.306433408055454,35.87366386462236 34.859480812679976,34.562914490757976 33.853837471455336,33.39780249091564 31.507336342707276,31.941410578903742 29.943002257030457,30.485016541846562 28.490406319964677,29.75681872694986 27.708239277359098,29.02862038015155 26.47911963844672,28.737340893072542 25.47347629768774,27.717862017569132 25.25,26.989662183623295 25.36173814861104,26.40710193378618 27.596501128282398,25.241980414197315 28.825620767194778,23.9312170795165 30.166478554718196,23.057373899791855 30.501693001482636,22.329170665470883 29.272573363035917,22.76609266991727 28.713882618118078,23.348655044450425 26.47911963844672,23.9312170795165 25.69695259537548,24.659419144445565 25.47347629768774,25.533260921598412 25.69695259537548,26.2614618181251 26.25564334075898,26.989662183623295 26.81433408567682,27.280942180601414 27.8199774264358,29.174260091793258 29.272573363035917,30.630656041321345 30.278216703794897,31.213213826238643 31.172121895477176,32.087049865571316 32.959932279307395,32.66960680100601 34.747742663137615,33.54344156529987 35.306433408055454,34.27163661812665 35.753386004362255,35.145469980547205 35.753386004362255,35.58238637493923 36.312076748814434,35.7280251304619 39.32900677155703,38.20388072414789 42.23419864475727,38.93207237723982 44.58069977397099,39.95153979904717 46.92720090225339,41.40792002418311 50.72629796806723,42.86429812409915 51.50846501067281,43.88376153021818 52.29063205374405,44.17503659753129 52.17889390466735,46.06832246505655 52.51410835143179,46.65087124030106 56.983634311240166,48.39851552597247 57.989277651999146,48.544152411515824 58.659706545993686,48.10724169079913 59.218397290911525,46.94214550056495 59.106659141834825,45.48577334987931 58.883182843681425,46.50523407821311 58.994920993223786,47.67033077904489 59.665349887218326,48.39851552597247 60.447516929358244,48.68978927633725 61.117945823352784,49.272336521651596 61.900112866889685,50.5830665808171 61.900112866889685,51.45688566379249 62.01185101503506,52.03943129465915 64.58182844193652,54.36961041658651 65.69920993223786,56.40851268678671 67.15180586883798,57.719233375566546 68.60440180590376,58.593046211928595 70.05699774203822,59.90376403229311 71.8448081263341,60.92321003606776 73.29740406293422,62.37955966417212 74.3030474036932,62.67082933447091 74.75,62.37955966417212 74.75,61.36011514742859 74.4147855527699,60.34066958981566 71.509593679104,59.46685828326736 67.93397291190922,57.864868901262525 66.59311512392014,57.573597828275524 65.47573363408446,55.97160540841287 64.47009029285982,55.097790277097374" stroke="#4DD2FF" stroke-linecap="round" stroke-linejoin="round" stroke-width="0.5"><title>2025-12-23 1.37km</title><desc>16819037216</desc></polyline><polyline fill="none" points="59.653691814048216,86.05868731444934 60.56741573056206,86.16223216202343 61.56059390050359,86.47286652389448 62.87158908532001,86.73172828438692 64.73876404506154,87.40476797832525 64.8579454254359,87.61185685818782 64.8579454254359,88.23312277282821 65.01685393275693,88.49198324978352 65.09630818641745,88.75084353770944 65.17576243984513,89.68273901194334 65.17576243984513,90.40754491157713 65.25521669350564,90.87349077983527 65.2154895667918,91.28766437151353 64.89767255238257,91.70183747986448 64.38121990370564,91.85715227088076 63.54695024085231,91.75360908452421 62.07704654918052,91.44297934375936 60.92495987168513,91.3394360364473 59.77287319442257,91.3394360364473 59.137239165371284,91.13234933116473 57.78651685384102,90.40754491157713 55.4823434993159,90.97703422306222 55.12479935819283,89.11324762389995 55.00561797758564,86.3693217668042 54.92616372392513,86.2140045746346 54.76725521683693,86.05868731444934 54.528892455855384,86.05868731444934 52.383627608418465,86.3693217668042 50.51645264867693,86.31754937686492 48.88764044968411,86.4210941492056 44.120385232847184,86.47286652389448 41.73675762442872,86.57641125074588 40.028491171775386,86.83527293574298 38.71749598742463,87.09413443211815 38.00240770471282,87.35299573940574 37.207865168573335,87.87071778808604 35.97632423765026,88.12957852918771 35.02287319418974,88.44021116945078 33.31460674153641,89.47565134009346 32.00361155718565,90.61463203965104 30.970706260064617,91.44297934375936 30.652889245655388,91.75360908452421 30.53370786528103,91.96069542731857 30.53370786528103,92.01246699408512 31.05016051372513,91.96069542731857 31.32825040142052,92.27132471490768 31.48715890874155,92.73726813675603 31.16934189409949,94.13509473271552 31.089887640671805,94.29040845911368 30.891252006636932,94.34217968620942 30.414526484906673,94.23863722448004 30.01725521683693,93.9797809382435 29.85834670974873,93.61738182036788 30.01725521683693,93.20321094695828 30.891252006636932,92.01246699408512 30.05698234355077,92.99612532916944 29.461075441678986,93.87623837095452 28.308988764416426,96.51656440421357 27.87199036940001,97.96614681687788 27.55417335475795,100.81352360852179 27.55417335475795,101.33122602620278 27.71308186207898,101.17591538018314 27.633627608418465,101.79715755625512 27.593900481704623,103.14317854159162 27.434991974383593,104.33388515908155 27.355537720723078,106.97413341209176 27.474719101330265,108.78605712589342 27.593900481704623,108.94136444243486 27.87199036940001,109.1484407587559 28.18980738380924,109.5625930291717 28.626805778592825,109.71790000598412 31.32825040142052,109.51082402188331 32.281701444648206,109.51082402188331 32.400882825255394,109.40728598434362 32.48033707891591,109.1484407587559 32.400882825255394,107.07767215927015 32.400882825255394,103.97149661133881 32.36115569854155,102.31485853914637 32.12279293756001,99.57103472630843 32.36115569854155,99.20864131650887 32.917335473699495,99.0533297417278 35.18178170151077,99.0533297417278 35.81741573032923,98.94978865439771 36.055778491310775,98.94978865439771 36.09550561825745,99.0533297417278 36.055778491310775,99.72634607439977 36.13523274497129,99.9334277662274 35.97632423765026,100.86529388435883 36.09550561825745,103.09140859826584 35.97632423765026,104.07503623416414 36.13523274497129,104.85158244258491 36.25441412534565,107.90598104859237 36.33386837900616,108.26836557991919 36.45304975938052,108.37190394935897 36.890048154164106,108.42367312288843 39.670947030652314,108.21659638368874 40.14767255238257,108.16482718015322 40.26685393275693,108.06128875011927 40.346308186184615,107.64713472817675 40.22712680581026,106.6635169898509 40.1079454254359,104.64450361978379 40.028491171775386,103.71264742221683 39.988764045061544,100.96883441315731 39.90930979140103,99.67457563261269 39.9490369183477,99.31218232846004 40.1079454254359,99.0533297417278 40.3065810597036,98.8980180992221 40.78330658120103,98.74270638875896 45.03410914936103,98.53562400231021 45.2327447833959,98.58739461036748 45.35192616377026,98.79447696646093 45.3916532904841,99.0533297417278 45.35192616377026,100.81352360852179 45.471107544144616,101.79715755625512 45.51083467109129,106.45643922395539 45.74919743160717,107.90598104859237 45.86837881221436,108.06128875011927 46.34510433394462,108.1130579689634 49.602728731930256,107.90598104859237 50.11918138060719,107.80244254312129 50.19863563403487,107.64713472817675 50.238362760981545,107.18121087620966 50.11918138060719,105.05866114463424 50.11918138060719,103.35025824018521 50.0,102.00423804007005 49.96027287328616,99.82988693538937 50.03972712694667,98.8462475365668 49.920545746572316,97.86260541237425 50.079454253660515,97.0342730882112 50.03972712694667,99.51926426187856 49.96027287328616,99.98519817032502 50.03972712694667,102.62547876662575 50.11918138060719,102.98786868836032 50.27808988792822,103.19494847764145 50.51645264867693,103.29848832692369 52.26444622804411,103.24671840600786 53.65489566628821,103.09140859826584 55.16452648490667,103.09140859826584 55.44261637260206,103.19494847764145 55.6412520064041,103.76441727526253 55.680979133350775,106.30113082012394 55.80016051372513,107.28474956273567 55.95906902104616,108.1130579689634 56.07825040118769,108.32013476843713 56.43579454254359,108.37190394935897 58.144060995196924,108.16482718015322 60.60714285704307,108.1130579689634 61.08386837877333,108.06128875011927 61.40168539318256,107.7506732789916 61.481139646843076,107.28474956273567 61.20304975938052,103.19494847764145 61.20304975938052,101.33122602620278 61.08386837877333,99.10510027428973 61.16332263243385,98.8980180992221 61.282504013041034,98.74270638875896 61.75922953453846,98.58739461036748 63.03049759240821,98.63916521065403 65.25521669350564,98.43208276384394 68.47311396477744,98.32854149513878 68.63202247209847,98.43208276384394 68.67174959881231,98.63916521065403 68.5922953451518,99.72634607439977 68.67174959881231,100.2440500773082 68.75120385247283,100.3993611310143 69.14847512054257,100.55467211670475 69.66492776898667,100.3993611310143 69.86356340302154,100.2440500773082 69.98274478362873,100.03696856679744 69.98274478362873,99.67457563261269 69.86356340302154,98.32854149513878 69.78410914936103,98.17322953543044 69.42656500800513,98.12145886712824 68.9498394865077,98.22500019636936 68.71147672575898,98.48385338677326 68.87038523261435,98.53562400231021 69.66492776898667,98.48385338677326 69.98274478362873,98.3803121332021 70.10192616377026,98.17322953543044 70.06219903705642,98.06968819125905 69.98274478362873,98.12145886712824 69.90329052996822,98.32854149513878 69.98274478362873,99.98519817032502 69.86356340302154,100.29582043623668 69.42656500800513,100.50290179578587 69.34711075434461,100.91706415242516 69.42656500800513,101.64184711419512 69.4662921349518,101.07237491174601 69.62520064227283,100.96883441315731 70.8567415731959,100.91706415242516 72.12800963106565,100.70998303455417 72.32664526510052,100.81352360852179 72.44582664547488,100.96883441315731 72.44582664547488,101.2276856029639 72.40609951852821,103.60910769356997 72.52528089890257,105.00689148053061 72.36637239181437,105.47281818639021 72.16773675754666,105.67989652612596 71.37319422140718,105.62812695244793 69.94301765668206,105.83520520155434 69.74438202241436,105.83520520155434 69.54574638861232,106.04228332979255 69.38683788129129,106.09405284293462 69.54574638861232,106.19759184672148 69.58547351532616,106.40466976360767 69.58547351532616,107.28474956273567 69.66492776898667,107.4918268454494 69.82383627607487,107.5953654415207 70.3402889247518,107.69890400744043 73.16091492795385,107.54359614735586 74.27327447850257,107.38828821916832 74.5910914929118,107.07767215927015 74.71027287328616,106.87059463493642 74.75,106.40466976360767 74.67054574633949,102.93609872227535 74.5910914929118,101.90069781328202 74.31300160521641,100.45113146712538 73.2006420546677,100.55467211670475 72.96227929368615,100.50290179578587 72.8430979133118,100.29582043623668 72.80337078683078,100.08873895570287 72.8430979133118,99.26041182631161 72.72391653293744,97.396668717789 72.76364365988411,97.2931271471025 73.12118780100718,97.4484394917381 73.59791332273744,98.17322953543044 74.0746388444677,99.15687079908093 74.4321829858236,100.08873895570287 74.51163723925129,100.45113146712538 73.8760032102,98.8462475365668 73.47873194236308,98.22500019636936 72.72391653293744,96.62010620132787 72.6841894062236,95.58468687013374 72.56500802561641,94.96343382180203 72.64446227927692,95.27406048195553 72.88282504025847,95.53291582438396 73.24036918161437,95.63645790846203 73.63764044945128,95.58468687013374 73.79654895677231,95.48114477100899 73.59791332273744,94.80812038990553 72.52528089890257,92.84081103635253 71.41292134835385,91.18412101879949 70.93619582662359,90.56286026886664 69.94301765668206,89.47565134009346 69.14847512054257,88.802615572582 66.92375601944514,87.24945123906946 64.57985553774051,86.2140045746346 63.38804173376411,85.85159752843902 61.60032102745026,85.54096262293751 60.60714285704307,85.3856450683088 58.342696629464626,85.28209999404498 55.522070626029745,85.28209999404498 55.363162118941545,85.43741759398836 55.32343499199487,85.95514243646176 55.08507223124616,86.11045974201988 53.09871589113027,86.3693217668042 50.19863563403487,86.47286652389448 49.920545746572316,86.47286652389448 50.913723916746676,86.26577697964967 53.5754414126277,86.16223216202343 55.08507223124616,85.7998250630335 55.44261637260206,85.54096262293751 55.44261637260206,85.43741759398836 55.045345104532316,85.28209999404498 52.50280898879282,85.33387253488763 51.03290529712103,85.28209999404498 49.721910112537444,85.33387253488763 47.616372391814366,85.33387253488763 41.1408507223241,85.64450762150227 37.28731942223385,86.47286652389448 35.221508828457445,87.19767897762358 33.47351524885744,88.12957852918771 31.963884430238977,89.2167915807222 30.891252006636932,90.20045766269322 27.434991974383593,90.61463203965104 26.91853932593949,90.56286026886664 26.004815409425646,90.25222948630108 25.25,90.30400130222552 26.004815409425646,88.49198324978352 26.362359550781548,87.76717343874043 26.71990369190462,87.45654020967777 26.91853932593949,87.40476797832525 27.117174959974363,87.50831243337598 27.23635634034872,87.71540125270258 27.23635634034872,87.92248995148111 27.117174959974363,89.9415984316729 27.276083467295393,90.40754491157713 27.71308186207898,90.51108849054435 29.500802568392828,90.14868583146017 30.493980738334358,90.09691399286385 30.732343499315903,90.25222948630108 29.778892455855384,91.3394360364473 29.103531300323084,92.58195373066701 29.063804173609242,92.78903959039599 29.22271268069744,93.15143955388339 29.143258427036926,92.84081103635253 29.22271268069744,92.37486775038997 30.096709470497444,90.97703422306222 31.20906902104616,89.73451091098832 32.63924558600411,88.54375532246195 33.47351524885744,87.97426210728008 34.903691814048216,87.24945123906946 38.32022471912205,86.2140045746346 41.26003210269846,85.69628010960878 43.28611556976102,85.54096262293751 43.76284109149128,85.5927351260907 47.13964687008411,85.3856450683088 51.708266452886164,85.33387253488763 52.860353130148724,85.43741759398836 55.16452648490667,85.3856450683088" stroke="#4DD2FF" stroke-linecap="round" stroke-linejoin="round" stroke-width="0.5"><title>2025-12-23 7.56km</title><desc>16815540435</desc></polyline></svg>