<?xml version="1.0" encoding="utf-8" ?>
<svg baseProfile="full" height="130mm" version="1.1" viewBox="0,0,100,130" width="100mm" xmlns="http://www.w3.org/2000/svg" xmlns:ev="http://www.w3.org/2001/xml-events" xmlns:xlink="http://www.w3.org/1999/xlink"><defs /><rect fill="#FAF9F5" height="130" width="100" x="0" y="0" /><text fill="#5A5A5A" style="font-size:6px; font-family:Arial; font-weight:bold;color:#0ed45e;" x="5" y="10">西苑漫跑</text><text fill="#5A5A5A" style="font-size:4px; font-family:Arial" x="5" y="121">Runner</text><text fill="#5A5A5A" style="font-size:6px; font-family:Arial" x="2" y="128">蓝皮书</text><text fill="#5A5A5A" style="font-size:4px; font-family:Arial" x="25" y="121">WORKOUTS INFO</text><text fill="#5A5A5A" style="font-size:3px; font-family:Arial" x="25" y="125">Type: Run</text><text fill="#5A5A5A" style="font-size:3px; font-family:Arial" x="22" y="129">Date: 2025-11-05</text><text fill="#5A5A5A" style="font-size:3px; font-family:Arial" x="47" y="125">Distance: 5.11 km</text><text fill="#5A5A5A" style="font-size:3px; font-family:Arial" x="47" y="129">Duration: 35:33min</text><text fill="#5A5A5A" style="font-size:3px; font-family:Arial" x="75" y="125">Pace: 6:57/km</text><text fill="#5A5A5A" style="font-size:3px; font-family:Arial" x="75" y="129">Elevation: 9m</text><polyline fill="none" points="14.860294117592275,38.07812560570892 19.029411763884127,35.766977934981696 23.397058823145926,35.18919048446696 29.154411763884127,32.589144318248145 29.9485294111073,32.589144318248145 31.33823529444635,33.16693272837438 33.919117647223175,35.18919048446696 35.110294117592275,34.9002966794651 40.8676470592618,30.855777809396386 42.257352941669524,30.277988546411507 43.25,30.277988546411507 43.84558823425323,30.855777809396386 44.83823529351503,34.9002966794651 42.455882352776825,38.65591199032497 37.889705882407725,43.27819539164193 36.10294117592275,46.456007314729504 32.330882352776825,51.65604927751701 31.33823529444635,52.23383065185044 24.588235293515027,54.54495401645545 19.823529412038624,55.411624399595894 17.4411764703691,56.856073970906436 15.654411763884127,58.58941169711761 11.683823528699577,67.54495938564651 10.889705882407725,70.43383481097408 10.492647058330476,72.7449313136749 11.08823529444635,74.76713795517571 13.272058824077249,79.10042910650373 17.044117647223175,83.43370826647151 21.8088235296309,85.45590110344347 30.544117647223175,86.90032295999117 37.09558823425323,89.50027894356754 40.66911764629185,89.21139515889809 43.4485294111073,89.50027894356754 49.801470587961376,95.56682611769065 57.742647058330476,99.0334139498882 68.46323529351503,106.54432792565785 70.84558823518455,107.69984995445702 74.41911764722317,108.27761064923834 77.0,108.27761064923834 79.3823529407382,107.69984995445702 84.74264705833048,103.36663794820197 86.52941176388413,100.18894152133726 88.91176470555365,93.83352932415437 89.11029411759228,92.67799706046935 88.91176470555365,91.23358053457923 87.5220588222146,89.21139515889809 84.9411764703691,86.32255437772255 82.75735294166952,85.16701657290105 77.99264705833048,83.72259311692324 72.03676470648497,84.87813198799267 63.897058823145926,81.41151281748898 60.919117647223175,77.07822806132026 57.34558823518455,68.98939776502084 53.772058823145926,62.056081395130605 49.801470587961376,56.856073970906436 47.022058823145926,49.633812788524665 44.04411764629185,47.03379060712177 41.860294117592275,46.16711558785755 39.27941176481545,46.456007314729504 36.6985294111073,47.32268217485398 34.71323529351503,49.05603045481257 32.330882352776825,52.23383065185044 31.53676470555365,52.81161181232892 24.78676470555365,55.122734325006604 19.823529412038624,55.98940438719001 17.639705882407725,57.4338534262497 15.852941175922751,59.16719051392283 14.264705882407725,63.78941336506978 11.28676470555365,68.98939776502084 10.889705882407725,70.43383481097408 10.6911764703691,73.32270490552764 11.485294117592275,75.63379714463372 14.264705882407725,79.96708589757327 16.647058823145926,83.14482336153742 18.235294117592275,84.58924735034816 24.985294117592275,86.90032295999117 31.53676470555365,87.7669754337985 38.485294117592275,89.7891626758501 41.860294117592275,89.21139515889809 44.4411764703691,89.50027894356754 45.6323529407382,90.36692997859791 49.0073529407382,94.4112951339921 50.992647058330476,96.14459128875751 59.52941176481545,100.18894152133726 68.46323529351503,106.54432792565785 72.03676470648497,107.98873032815754 76.60294117592275,108.27761064923834 80.375,107.69984995445702 83.55147058796138,104.81104328285437 86.33088235277683,101.34446824062616 89.11029411759228,93.83352932415437 89.30882352869958,92.38911386195105 88.91176470555365,91.23358053457923 88.11764705833048,90.0780463545816 84.54411764629185,86.03367000608705 80.17647058703005,84.01147791510448 77.99264705833048,83.43370826647151 72.43382352869958,84.87813198799267 66.875,83.14482336153742 64.09558823518455,81.70039804128464 62.5073529407382,79.6782003538683 60.125,72.7449313136749 55.5588235296309,63.21163625549525 54.169117647223175,61.189414690597914 50.0,56.856073970906436 46.8235294111073,49.633812788524665 44.639705882407725,47.61157368810382 42.05882352869958,46.456007314729504 38.08823529351503,46.16711558785755 36.5,47.32268217485398 32.72794117592275,51.65604927751701 29.5514705888927,52.81161181232892 26.374999999068677,54.83384419698268 19.624999999068677,56.5671841626754 16.249999999068677,58.58941169711761 15.455882351845503,59.456079841475 14.0661764703691,63.21163625549525 10.09558823518455,71.01160925650038 9.698529412038624,72.1671575071523 10.294117647223175,74.4782514522085 13.47058823518455,79.96708589757327 16.249999999068677,82.85593840456568 18.235294117592275,84.3003626599675 25.183823528699577,86.32255437772255 33.12500000093132,86.90032295999117 39.080882352776825,89.21139515889809 43.84558823425323,89.50027894356754 45.830882352776825,90.65581355057657 48.21323529351503,93.54464633739553 50.397058823145926,95.2779434514232 58.1397058814764,99.0334139498882 62.705882352776825,101.92223128071055 68.66176470555365,106.83320851263124 70.84558823518455,107.98873032815754 77.39705882314593,108.56649091723375 80.97058823518455,107.98873032815754 82.9558823518455,106.54432792565785 86.1323529407382,102.49999410740566 87.72058823518455,98.74453192390501 89.7058823518455,93.2557632989483 89.7058823518455,92.10023061116226 88.71323529351503,90.0780463545816 84.14705882314593,86.03367000608705 80.77205882314593,84.58924735034816 77.59558823518455,84.01147791510448 74.61764705833048,84.87813198799267 72.23529411666095,84.87813198799267 65.28676470462233,83.43370826647151 63.10294117592275,82.27816832950339 61.31617647130042,79.38931475707795 56.9485294111073,68.12273489718791 53.375,61.47830364503898 50.79411764629185,58.58941169711761 49.40441176481545,56.5671841626754 47.41911764629185,50.789376815781 45.03676470462233,47.61157368810382 42.05882352869958,46.16711558785755 39.676470587961376,45.878223808365874 37.69117646943778,46.74489898758475 36.10294117592275,48.18935655395035 33.3235294111073,52.23383065185044 32.1323529407382,52.81161181232892 20.02205882407725,55.70051442005206 16.84558823518455,57.722743073944 16.051470587961376,58.58941169711761 14.264705882407725,63.21163625549525 11.485294117592275,68.41162257269025 10.889705882407725,71.30049639882054 10.889705882407725,73.90047828515526 15.455882351845503,81.12262753979303 19.823529412038624,85.16701657290105 27.367647058330476,87.47809132933617 33.52205882407725,87.7669754337985 38.6838235296309,89.50027894356754 42.65441176388413,89.21139515889809 45.03676470462233,89.50027894356754 46.02941176388413,90.0780463545816 49.0073529407382,94.4112951339921 50.992647058330476,95.8557087299414 58.33823529444635,99.0334139498882 63.5,102.49999410740566 67.27205882314593,105.67768584366422 72.03676470648497,107.98873032815754 80.17647058703005,108.56649091723375 83.75,106.83320851263124 87.125,103.36663794820197 90.5,94.12241225526668 90.5,92.96688020695001 89.5073529407382,90.9446970691206 86.72794117685407,88.05585948657244 83.55147058796138,85.74478558113333 78.38970588240772,84.01147791510448 71.63970588240772,85.16701657290105 68.66176470555365,84.3003626599675 64.09558823518455,81.41151281748898 54.5661764703691,62.056081395130605 50.59558823611587,57.722743073944 47.022058823145926,49.92270387499593 44.4411764703691,47.32268217485398 41.860294117592275,46.16711558785755 38.8823529407382,46.456007314729504 36.89705882407725,47.32268217485398 31.9338235296309,52.81161181232892 23.794117647223175,55.70051442005206 19.22794117592275,56.5671841626754 16.647058823145926,58.011632667970844 14.46323529444635,59.74496911582537 14.0661764703691,60.900525682023726 13.272058824077249,64.36719026241917 10.6911764703691,69.85606015229132 9.5,73.033818136435 10.09558823518455,75.0560244047083 13.272058824077249,79.96708589757327 17.83823529444635,84.58924735034816 21.213235293515027,86.03367000608705 28.16176470555365,87.47809132933617 32.72794117592275,87.47809132933617 38.08823529351503,89.21139515889809 43.84558823425323,89.50027894356754 45.830882352776825,90.65581355057657 50.992647058330476,95.8557087299414 59.72794117592275,99.90005970839411 68.46323529351503,106.83320851263124 72.03676470648497,108.56649091723375 78.78676470555365,109.72201145370491 81.36764705833048,109.43313139979728 83.55147058796138,107.98873032815754 86.92647058703005,103.6555191213265 89.5073529407382,94.4112951339921 89.5073529407382,92.96688020695001 88.71323529351503,90.65581355057657 86.52941176388413,88.05585948657244 82.36029411666095,84.87813198799267 78.58823529351503,84.3003626599675 73.42647058796138,85.74478558113333 72.23529411666095,85.74478558113333 64.29411764629185,82.56705339404289 54.5661764703691,85.74478558113333 49.60294117592275,88.63362742820755 41.860294117592275,88.34474348428193 36.89705882407725,86.32255437772255 31.735294117592275,85.74478558113333 21.213235293515027,82.56705339404289 16.84558823518455,79.96708589757327 12.080882352776825,73.90047828515526 11.683823528699577,72.7449313136749 11.882352940738201,70.14494750800077 14.46323529444635,64.65607863070909 15.257352940738201,60.900525682023726 16.448529412038624,58.87830113223754 18.433823528699577,57.4338534262497 20.617647058330476,56.27829430194106 25.3823529407382,55.411624399595894 29.5514705888927,54.256063782726415 32.52941176481545,55.70051442005206 41.46323529351503,62.92274762003217 45.6323529407382,64.94496694696136 45.830882352776825,65.52274341741577 45.235294117592275,65.81163157301489 43.05147058703005,64.94496694696136 42.85294117592275,65.52274341741577 43.25,66.38940772321075 44.4411764703691,68.70051019545645 36.89705882407725,77.36711408442352 36.89705882407725,78.23377183568664 37.4926470592618,79.6782003538683 41.264705882407725,84.3003626599675 43.647058823145926,88.63362742820755 49.205882352776825,94.70017795998137 51.78676470462233,96.7223562473664 59.1323529407382,99.90005970839411 70.4485294111073,107.69984995445702 75.80882352869958,109.14425129245501 81.96323529351503,109.14425129245501 84.9411764703691,106.54432792565785 87.125,104.23328130866867 87.91911764629185,101.92223128071055 88.71323529351503,97.87788552499842 90.10294117592275,94.12241225526668 90.10294117592275,92.67799706046935 89.30882352869958,90.65581355057657" stroke="#4DD2FF" stroke-linecap="round" stroke-linejoin="round" stroke-width="0.5"><title>2025-11-05 5.11km</title><desc>16357963556</desc></polyline></svg>