<?xml version="1.0" encoding="utf-8" ?>
<svg baseProfile="full" height="130mm" version="1.1" viewBox="0,0,100,130" width="100mm" xmlns="http://www.w3.org/2000/svg" xmlns:ev="http://www.w3.org/2001/xml-events" xmlns:xlink="http://www.w3.org/1999/xlink"><defs /><rect fill="#FAF9F5" height="130" width="100" x="0" y="0" /><text fill="#5A5A5A" style="font-size:6px; font-family:Arial; font-weight:bold;color:#0ed45e;" x="5" y="10">2025 元旦迎新跑</text><text fill="#5A5A5A" style="font-size:4px; font-family:Arial" x="5" y="121">Runner</text><text fill="#5A5A5A" style="font-size:6px; font-family:Arial" x="2" y="128">蓝皮书</text><text fill="#5A5A5A" style="font-size:4px; font-family:Arial" x="25" y="121">WORKOUTS INFO</text><text fill="#5A5A5A" style="font-size:3px; font-family:Arial" x="25" y="125">Type: Run</text><text fill="#5A5A5A" style="font-size:3px; font-family:Arial" x="22" y="129">Date: 2025-01-01</text><text fill="#5A5A5A" style="font-size:3px; font-family:Arial" x="47" y="125">Distance: 20.25 km</text><text fill="#5A5A5A" style="font-size:3px; font-family:Arial" x="47" y="129">Duration: 02:16:47</text><text fill="#5A5A5A" style="font-size:3px; font-family:Arial" x="75" y="125">Pace: 6:45/km</text><text fill="#5A5A5A" style="font-size:3px; font-family:Arial" x="75" y="129">Elevation: 70m</text><polyline fill="none" points="84.8279614787316,35.430151547669084 84.7537278131349,35.55767997039948 84.9764288100414,35.6533262400917 85.14964069670532,36.099674960409175 85.24861891765613,37.438715804586536 85.12489614146762,37.75753387785517 83.93715749063995,38.01258801094082 82.8236525056418,37.98070626008848 80.15124054125044,38.26764185464708 79.65634943684563,38.17199669720139 78.83977911435068,38.36328697144927 77.305616690428,38.36328697144927 76.01889981888235,38.650222077718354 74.31152550841216,38.650222077718354 73.76714529329911,38.80963031195279 71.68860265449621,39.16032802924747 71.4164125471143,39.44726211849775 71.21845610509627,40.59499481327657 71.19371154997498,43.11360991469701 70.00597289914731,58.129071443065186 69.33786990807857,64.53663832759776 69.04093524534255,71.61344032366469 68.44706591998693,77.12809109903174 67.58100648713298,81.90947076134034 70.080206564744,81.78196862293407 76.09313348447904,82.32385221218283 77.1076602487592,82.32385221218283 77.52831768756732,82.51510493201204 77.2066384695936,84.42762318508176 77.18189391423948,85.70262631896185 75.89517704269383,85.57512633083388 74.38575917389244,86.34012517538213 72.28247197996825,87.8701150584966 70.92152144247666,89.4319689956028 70.40188578283414,90.22882907085295 69.6348045708146,91.7906666288909 69.06567980069667,93.63935829381808 68.71925602760166,95.45616116041492 68.71925602760166,97.24107600181014 69.5605709052179,99.91842170615564 70.32765211712103,101.48019198370457 71.6638580992585,103.3288040124462 74.13831362174824,105.97420514466648 77.2066384695936,107.75903652506531 79.43364843982272,108.90642064847634 80.52240886969958,109.28888072248083 82.13080495933536,110.34064257281716 82.60095150861889,110.5 82.79890795028768,110.40438555717992 84.06088026682846,108.10962673915492 83.12058716837782,104.89055061142426 81.83387029659934,101.38457370693504 81.43795741291251,99.79092977626715 80.76985442196019,96.73110177810304 80.64613164588809,92.90625824469316 80.05226232041605,90.26070341523155 78.88926822482608,87.61511746735778 77.99846423673443,86.43574984798033 77.3798503561411,85.95762607833603 77.82525235030334,82.73823289954453 77.72627412923612,82.48322948995337 77.256127580069,82.19635030870268 74.73218294710387,81.8775952335418 73.7424007380614,81.90947076134034 71.14422243949957,81.59071527968626 69.5110817947425,81.55883970668947 69.5110817947425,80.44319180486491 69.31312535295729,80.25193732311891 68.42232136486564,80.34756458437187 62.65683999750763,80.25193732311891 43.60353247448802,79.2956624750368 42.29207104758825,79.16815885469259 41.97039182961453,79.04065516211267 38.13498576974962,79.04065516211267 34.34906882036012,78.62626766203903 34.076878712978214,78.49876366215176 32.542716289055534,78.37125959013065 32.2952707366785,78.62626766203903 32.34475984715391,80.2838130814489 32.51797173381783,80.69819752749754 32.171547960606404,80.92132729759032 30.68687464715913,81.24008372797107 30.167238987400196,81.52696412912337 28.187674569548108,81.39946177384991 26.752490366459824,81.97322180353513 24.946137835038826,82.13259932972142 23.11504074826371,82.03697282754001 21.382921882672235,82.22822579131753 21.283943661721423,83.02511138971022 21.55613376921974,83.69449311034987 21.036498109577224,85.28825109328318 21.20970999612473,86.18075063063588 21.432410993031226,86.37200007073989 21.160220885649323,86.85012295942579 21.085987219936214,87.45574382613995 21.40766643790994,88.06136306200642 22.001535763265565,88.69885523294215 22.81810608576052,89.08134966800571 23.214018969330937,89.1450986773998 23.43671996635385,88.98572612027056 23.56044274242595,88.25261090300046 23.36248630064074,87.96573908059509 22.86759519611951,87.74261629905959 22.74387242004741,88.15698700287612 23.06555163790472,88.28448552741611 22.81810608576052,88.22073627410282 23.090296193258837,88.3482347624813 22.842850640881807,88.25261090300046 23.06555163790472,88.53948235954158 23.090296193258837,88.38010937333456 22.81810608576052,87.90198973701627 22.94182886183262,87.74261629905959 23.11504074826371,87.8701150584966 23.510953632066958,88.44385858130408 23.48620907671284,88.85822799321613 23.04080708278343,89.08134966800571 22.521171423024498,88.9538515953027 21.927302097552456,88.22073627410282 21.580878324457444,88.06136306200642 21.18496544077061,86.91387260117335 21.432410993031226,86.46762472984847 21.927302097552456,86.02137597298133 22.719127864809707,85.86200120244757 23.263508079806343,86.14887570818246 23.60993185278494,86.11700078110152 23.90686651552096,86.49949960704544 24.154312067781575,86.46762472984847 24.624458617065102,86.85012295942579 24.8719041692093,86.88199778272246 24.97088239027653,86.6269990712608 24.723436838015914,86.24450046215497 24.005844736588188,85.3838762131054 23.28825263492763,84.68262439013051 23.56044274242595,84.55512382382585 24.104822957422584,84.77824976750708 24.77292594849132,84.90575020732649 24.97088239027653,84.77824976750708 25.342050718609244,84.93762530600361 25.31730616337154,84.68262439013051 23.510953632066958,83.91761990787927 22.521171423024498,83.28011418487586 21.259199106600136,83.15261282339634 20.863286223029718,83.18448817054741 19.749781237798743,83.72636838066683 18.68576536315959,84.90575020732649 16.928901942213997,86.46762472984847 16.458755393046886,87.26449530763784 16.582478169118986,88.41198397960397 17.86919504078105,90.29257775495353 17.819705930305645,90.86631509842118 18.06715148256626,91.34442843332363 18.586787142208777,91.63129594636848 19.205401022918522,92.23690393926518 19.502335685538128,92.71501436068502 20.195183231960982,93.224997690093 20.93751988862641,94.53182469366584 22.57066053338349,95.61552913283231 23.387230855878443,96.38049382866302 25.61424082610756,96.69922835071338 26.505044814082794,96.95421564321441 27.39584880217444,96.79484861931996 27.865995351574384,96.41236730123637 27.989718127646483,95.9980118059757 28.162930014310405,93.98997051602055 27.197892360505648,92.23690393926518 27.717528020148166,89.4319689956028 28.08869634848088,88.50760777143296 28.65782111871522,88.09323771351774 30.711619202396832,87.8701150584966 31.429211303940974,86.69074877614912 32.1468034053687,86.49949960704544 32.19629251596052,83.50324139345321 31.082787530613132,81.49508854698797 30.76110831287224,81.30383495986462 30.11774987692479,81.62259084814286 29.77132610382978,81.59071527968626 28.484609232051298,81.33571056908113 27.04942502907943,81.8775952335418 26.084387375274673,81.8775952335418 25.292561608017422,82.10072383354418 20.046715900534764,82.22822579131753 17.94342870649416,82.5469803694723 15.939119733171538,82.70635748920904 15.691674180910923,82.61073123097594 15.073060300434008,83.02511138971022 14.751381082460284,83.47136609154404 14.97408207936678,85.60700133469072 14.850359303294681,86.69074877614912 15.122549410909414,87.8701150584966 16.087587064597756,89.81446218404744 16.508244503405876,91.59942179635982 17.176347494474612,92.81063632304722 18.166129703400657,94.08559193638212 18.98270002589561,94.91430920964922 20.91277533338871,96.3167468700558 23.78314373944886,97.81479562119057 24.5997140618274,98.1016548822081 25.168838831945322,98.1016548822081 25.960664599202573,98.38851377731771 27.470082468003966,98.51600650220644 28.212419124669395,97.75104906907654 28.707310229190625,96.73110177810304 29.053734002285637,94.3405821917404 29.02898944716435,93.79872755348333 28.162930014310405,92.268777998921 28.558842897764407,89.24072215743945 29.07847855752334,88.85822799321613 29.919793435255997,88.85822799321613 31.379722193349153,86.88199778272246 31.80037963227369,86.53137447993504 32.1468034053687,86.53137447993504 32.1468034053687,84.01324561041838 32.270526181557216,83.50324139345321 32.74067273084074,83.3757401585026 32.542716289055534,80.69819752749754 33.06235194869805,80.12443424503726 33.433520277030766,80.25193732311891 34.076878712978214,80.09255846413726 33.953155936906114,79.99693109448708 33.804688605479896,77.95687085657846 33.77994405024219,75.50239885709016 34.200601489050314,64.0265899405349 34.052134157624096,58.32034474003012 34.22534604428802,53.634102126190555 34.002645047265105,46.42921209531778 34.175856933929026,41.3601466883847 34.02738960250281,39.224091191834304 33.557243053102866,35.430151547669084 33.804688605479896,30.743431832874194 34.52228070690762,30.328955319346278 36.18016590701882,30.39272098665242 37.219437226536684,30.26518963414128 38.03600754891522,30.36083815532038 39.372213531052694,30.233306784663 41.203310617711395,30.169541072289576 45.088205787935294,30.39272098665242 45.954265220905654,30.105775341799017 49.44324750744272,30.169541072289576 49.93813861196395,30.042009593147668 56.76763585396111,29.850712238898268 58.45026560931001,29.914478041770053 62.0134815616766,29.786946417967556 63.17647565715015,29.62753178658022 69.09042435593437,29.5 69.95648378878832,29.65941472182749 71.26794521568809,29.62753178658022 71.71334720973391,29.850712238898268 71.73809176497161,32.560742910878616 71.26794521568809,38.650222077718354 70.92152144247666,38.52269540900306 70.69882044557016,38.969038433002424 70.62458677985705,40.18053646036424 70.92152144247666,40.81816437913221 70.82254322164226,41.00945240218425 70.45137489319313,41.168858963792445 70.10495112009812,41.838365288072964 70.30290756176692,45.12210553511977 69.5605709052179,48.5970793946035 69.33786990807857,50.605526034749346 69.23889168712776,52.51831568032503 69.48633723950479,54.367330204491736 69.11516891105566,57.204581547295675 69.13991346640978,60.45621883792046 67.70472926320508,60.775004276874824 64.93333907809574,61.12566773762228 64.48793708416633,61.34881692806084 64.0177905348828,62.27328978628793 63.225964767625555,61.89074975418043 63.02800832572393,61.6038443029538 62.63209544226993,58.830406069915625 62.23618255869951,58.160950337172835 61.56807956751436,58.06531364121474 60.899976576445624,58.35222360705666 59.365814152522944,58.41598132747458 58.94515671383124,58.288465868492494 58.2770537227625,58.41598132747458 57.78216261824127,58.00155582133448 56.396467525628395,55.61062452524493 55.97581008693669,53.57034304983972 53.798289226950146,50.191086133549106 52.58580602100119,46.52485374035314 52.412594134453684,46.33357040944975 51.002154486603104,45.69595813129854 50.35879605077207,45.05834404505731 49.93813861196395,43.68746763697709 49.88864950160496,42.82668050422217 51.373322815052234,42.794799436072935 52.23938224790618,42.60351293190615 52.36310502397828,42.25282058509765 52.214637692668475,40.69063894005376 52.36310502397828,39.797958841212676 52.288871358381584,38.36328697144927 53.377631788142025,38.36328697144927 54.4663922181353,38.07635149890848 55.60464175848756,38.04446975719475 55.75310908979736,37.59812489777687 55.75310908979736,35.84461865731282 55.97581008693669,35.14321233192459 56.61916852253489,34.76062614120019 57.98011906002648,34.47368607096723 58.425521054072306,34.47368607096723 59.21734682121314,35.07944801199483 59.56377059430815,35.589562064851634 60.13289536454249,35.78085453629319 60.55355280346703,35.6533262400917 60.82574291084893,35.398269430719665 61.04844390787184,34.154863341216696 61.691802343702875,34.37803929961228 62.50837266619783,34.31427476271347 63.34968754381407,34.409921561251394 64.53742619452532,34.6968617127859 65.37874107214157,35.23885877789871 66.26954506023321,34.98380149823788 66.49224605725612,35.4939157681365 67.40779460070189,36.227203003378236 67.70472926320508,36.769196379347704 68.00166392605752,38.108233236154774 68.52129958570004,38.71398538493668 69.06567980069667,39.00092004374892 69.8822501229588,38.93715681786125 70.17918478569482,38.77774867412518 70.57509766949806,38.969038433002424 69.90699467831291,39.032801649940666 68.52129958570004,40.053010659714346 67.35830549011007,40.531232039560564 66.98713716177735,40.81816437913221 60.10815080930479,41.742721649468876 58.1533309466904,42.06153361986799 56.94084774062503,42.34846400663082 56.396467525628395,42.66727511813224 56.07478830765467,43.08172888722038 53.798289226950146,44.22944302986434 53.27865356730763,44.80329790433461 52.85799612849951,45.72783878823975 52.23938224790618,46.36545097597991 53.253909012069926,45.31338989666256 53.69931100611575,44.38884730862628 53.97150111361407,44.10191952553578 55.18398431967944,43.62370574014494 55.48091898218263,43.33677698073734 55.85208731063176,43.27301498444285 56.66865763312671,42.53975072767935 57.03982596145943,42.284701730081 57.509972510742955,42.25282058509765 57.90588539431337,41.93400888593169 58.59873294061981,42.02965244317602 58.94515671383124,41.838365288072964 59.835960701922886,41.806484079759684 60.702020134660415,41.39202795996971 63.44866576464847,41.3601466883847 64.90859452297445,40.88192707160488 65.42823018261697,40.91380841106002 66.34377872594632,40.69063894005376 67.6304955977248,40.62687619343342 68.22436492308043,40.18053646036424" stroke="#89CFF0" stroke-linecap="round" stroke-linejoin="round" stroke-width="0.5"><title>2025-01-01 20.25km</title><desc>13235498751</desc></polyline></svg>