<?xml version="1.0" encoding="utf-8" ?>
<svg baseProfile="full" height="130mm" version="1.1" viewBox="0,0,100,130" width="100mm" xmlns="http://www.w3.org/2000/svg" xmlns:ev="http://www.w3.org/2001/xml-events" xmlns:xlink="http://www.w3.org/1999/xlink"><defs /><rect fill="#FAF9F5" height="130" width="100" x="0" y="0" /><text fill="#5A5A5A" style="font-size:6px; font-family:Arial; font-weight:bold;" x="5" y="10">2025-03-12 Workouts</text><text fill="#5A5A5A" style="font-size:4px; font-family:Arial" x="5" y="121">Runner</text><text fill="#5A5A5A" style="font-size:6px; font-family:Arial" x="2" y="128">蓝皮书</text><text fill="#5A5A5A" style="font-size:4px; font-family:Arial" x="25" y="121">STATISTICS</text><text fill="#5A5A5A" style="font-size:3px; font-family:Arial" x="25" y="125">Number: 1</text><text fill="#5A5A5A" style="font-size:3px; font-family:Arial" x="25" y="129">Weekly: 1.0</text><text fill="#5A5A5A" style="font-size:3px; font-family:Arial" x="48" y="125">Total: 5.1 km</text><text fill="#5A5A5A" style="font-size:3px; font-family:Arial" x="48" y="129">Avg: 5.1 km</text><text fill="#5A5A5A" style="font-size:3px; font-family:Arial" x="75" y="125">Min: 5.1 km</text><text fill="#5A5A5A" style="font-size:3px; font-family:Arial" x="75" y="129">Max: 5.1 km</text><polyline fill="none" points="13.689655171707273,61.35638590087183 12.64224137738347,62.68617940717377 10.198275862261653,67.56208427064121 9.849137930199504,69.77840224211104 10.547413792461157,75.9840845160652 11.943965516984463,77.31387203070335 12.293103449046612,79.0869212038815 14.387931033968925,80.41670744866133 15.435344828292727,82.18975492706522 18.577586207538843,83.0762783025857 19.27586206793785,84.4060629142914 32.54310344904661,84.4060629142914 33.93965517170727,83.51953990082256 35.33620689623058,84.4060629142914 39.875,84.84932433022186 46.857758620753884,83.51953990082256 48.603448275476694,83.96280143689364 51.0474137943238,83.0762783025857 54.18965517170727,83.51953990082256 57.33189655095339,82.6330166454427 66.40948275849223,83.0762783025857 68.50431034341455,82.6330166454427 74.43965517170727,83.0762783025857 82.81896551698446,82.18975492706522 86.65948275849223,79.97344542690553 89.80172413773835,74.65429645520635 90.1508620698005,73.32450785115361 88.40517241321504,68.00534798530862 89.10344827361405,67.11882049380802 88.75431034527719,63.57270810846239 86.65948275849223,59.14006218011491 84.56465517170727,58.253532267641276 82.46982758492231,55.15067566977814 80.375,55.15067566977814 76.88362068869174,56.03720642765984 73.04310344718397,55.15067566977814 68.8534482754767,56.03720642765984 62.91810344904661,55.15067566977814 60.125000001862645,56.923736945260316 58.728448275476694,56.48047171742655 52.094827584922314,56.923736945260316 46.508620688691735,56.48047171742655 36.03448275849223,57.81026722025126 31.146551724523306,57.36700211232528 25.21120689623058,59.14006218011491 20.323275860399008,58.69679725379683 14.038793103769422,62.242914964677766 11.24568965472281,67.56208427064121 10.547413792461157,71.99471870111302 11.24568965472281,73.32450785115361 11.594827586784959,75.9840845160652 13.689655171707273,79.0869212038815 18.577586207538843,82.6330166454427 22.418103447183967,83.51953990082256 24.862068966031075,83.0762783025857 25.90948275849223,83.96280143689364 37.78017241321504,83.0762783025857 43.017241379246116,83.51953990082256 55.237068966031075,83.0762783025857 58.728448275476694,81.74649314791895 62.91810344904661,82.6330166454427 69.9008620698005,81.74649314791895 79.3275862056762,82.18975492706522 84.21551724150777,80.41670744866133 88.40517241321504,76.42734708078206 88.75431034527719,75.09755920199677 89.4525862056762,73.32450785115361 88.75431034527719,71.55145553057082 89.4525862056762,65.3457647850737 87.35775862075388,62.242914964677766 82.81896551698446,57.36700211232528 80.02586206793785,56.923736945260316 73.74137931130826,57.36700211232528 59.775862069800496,56.03720642765984 55.58620689623058,56.923736945260316 49.65086206793785,56.923736945260316 47.20689655095339,57.81026722025126 45.112068966031075,57.36700211232528 43.017241379246116,57.81026722025126 38.82758620753884,57.36700211232528 18.926724137738347,58.253532267641276 16.13362069055438,60.02659184881486 13.340517241507769,63.129443787038326 11.594827586784959,66.67555665806867 10.896551724523306,71.108192299027 11.24568965472281,75.54082188894972 13.340517241507769,78.64365900098346 18.577586207538843,83.0762783025857 29.051724137738347,83.51953990082256 52.44396551698446,83.0762783025857 58.030172415077686,83.51953990082256 60.474137930199504,82.6330166454427 67.45689655095339,83.0762783025857 71.99568965658545,82.18975492706522 76.18534482829273,82.6330166454427 81.0732758641243,81.74649314791895 86.31034482643008,77.75713441404514 90.1508620698005,72.88124486105517 90.1508620698005,68.89187523466535 89.10344827361405,66.67555665806867 89.80172413773835,65.3457647850737 88.40517241321504,61.35638590087183 83.86637931130826,57.36700211232528 79.3275862056762,55.15067566977814 71.6465517245233,56.03720642765984 70.94827586039901,56.923736945260316 67.10775862261653,57.36700211232528 58.030172415077686,56.48047171742655 49.30172413773835,57.81026722025126 43.71551724150777,56.923736945260316 26.258620688691735,59.14006218011491 19.974137930199504,58.253532267641276 18.577586207538843,59.14006218011491 14.387931033968925,60.913121277000755 11.943965516984463,64.01597236818634 10.896551724523306,67.11882049380802 10.547413792461157,70.66492900741287 11.594827586784959,75.9840845160652 15.086206896230578,80.85996940801851 16.482758620753884,81.74649314791895 20.323275860399008,83.0762783025857 24.512931033968925,83.51953990082256 38.478448275476694,83.0762783025857 43.017241379246116,82.18975492706522 45.46120689623058,83.0762783025857 53.49137930944562,83.0762783025857 62.56896551698446,81.74649314791895 71.6465517245233,82.18975492706522 74.43965517170727,81.30323130870238 78.62931034527719,81.74649314791895 82.12068965472281,80.85996940801851 84.21551724150777,80.41670744866133 86.65948275849223,78.20039673731662 89.4525862056762,73.76777077931911 90.5,68.89187523466535 90.5,66.23229276086204 89.4525862056762,64.90250070672482 89.10344827361405,63.129443787038326 87.00862068869174,60.02659184881486 85.61206896603107,58.69679725379683 84.56465517170727,56.923736945260316 80.72413793206215,55.5939410792198 71.29741379246116,56.923736945260316 54.53879310376942,56.48047171742655 52.44396551698446,57.36700211232528 49.30172413773835,56.48047171742655 46.15948276035488,57.36700211232528 39.875,56.923736945260316 38.129310343414545,57.81026722025126 36.383620688691735,57.36700211232528 29.051724137738347,57.81026722025126 26.956896550953388,56.923736945260316 25.21120689623058,57.81026722025126 24.512931033968925,57.36700211232528 18.577586207538843,58.69679725379683 13.689655171707273,62.242914964677766 11.943965516984463,64.45923656853847 10.198275862261653,69.77840224211104 11.594827586784959,75.9840845160652 16.482758620753884,82.18975492706522 19.624999998137355,83.51953990082256 27.65517241321504,83.0762783025857 29.40086206793785,83.51953990082256 31.49568965472281,82.6330166454427 35.33620689623058,83.96280143689364 38.82758620753884,82.6330166454427 53.84051724150777,83.0762783025857 60.82327586226165,81.30323130870238 67.45689655095339,82.18975492706522 71.6465517245233,81.30323130870238 73.04310344718397,81.74649314791895 78.97844827733934,81.74649314791895 80.375,82.18975492706522 83.51724137924612,80.85996940801851 85.96120689809322,79.0869212038815 87.70689655281603,76.87060958566144 89.80172413773835,72.4379818115849 89.80172413773835,67.11882049380802 87.35775862075388,61.79965046280995 84.91379310376942,59.14006218011491 82.81896551698446,57.81026722025126 79.3275862056762,56.48047171742655 67.45689655095339,56.923736945260316 65.36206896416843,56.03720642765984 60.125000001862645,57.81026722025126 46.857758620753884,56.923736945260316 42.31896551698446,57.81026722025126 34.28879310376942,57.36700211232528 20.323275860399008,58.253532267641276 15.086206896230578,61.35638590087183 11.594827586784959,66.23229276086204 11.594827586784959,68.00534798530862 10.198275862261653,68.89187523466535 10.896551724523306,72.4379818115849 10.547413792461157,75.09755920199677 11.594827586784959,77.75713441404514 14.038793103769422,80.85996940801851 21.719827584922314,83.96280143689364 36.383620688691735,83.96280143689364 44.762931033968925,82.18975492706522 54.887931033968925,82.6330166454427 58.379310343414545,82.18975492706522 62.91810344904661,83.0762783025857 71.29741379246116,81.30323130870238 81.42241379246116,81.30323130870238 84.91379310376942,79.53018334601074 88.05603448301554,76.42734708078206 89.80172413773835,67.11882049380802 88.40517241321504,62.242914964677766 84.56465517170727,58.253532267641276 81.0732758641243,56.48047171742655 77.93103448301554,56.03720642765984 68.15517241321504,56.48047171742655 60.125000001862645,55.5939410792198 52.79310344904661,56.923736945260316 43.36637930944562,57.36700211232528 38.129310343414545,56.923736945260316 19.27586206793785,58.253532267641276 17.87931034527719,58.69679725379683 13.340517241507769,62.242914964677766 10.896551724523306,68.00534798530862 10.547413792461157,71.99471870111302 11.24568965472281,75.9840845160652 12.293103449046612,78.20039673731662 13.689655171707273,79.53018334601074 13.689655171707273,80.85996940801851 21.37068965472281,83.51953990082256 26.956896550953388,83.96280143689364 33.93965517170727,83.0762783025857 36.383620688691735,83.51953990082256 39.875,82.6330166454427 54.53879310376942,83.51953990082256 63.61637930944562,82.18975492706522 69.9008620698005,82.18975492706522 72.34482758492231,81.30323130870238 81.42241379246116,81.30323130870238 85.61206896603107,79.53018334601074 85.96120689809322,78.20039673731662 88.40517241321504,75.9840845160652 89.80172413773835,72.88124486105517 90.5,69.33513876819052 89.4525862056762,62.68617940717377 88.05603448301554,60.46985659329221 82.46982758492231,56.03720642765984 78.28017241321504,55.5939410792198 70.94827586039901,56.03720642765984 68.8534482754767,55.5939410792198 65.36206896416843,56.03720642765984 56.633620688691735,55.5939410792198 47.20689655095339,56.923736945260316 45.81034482829273,56.48047171742655 40.92241379246116,56.923736945260316 39.17672413960099,56.48047171742655 30.09913793206215,56.923736945260316 23.465517239645123,56.48047171742655 19.624999998137355,58.253532267641276 17.181034483015537,58.253532267641276 12.64224137738347,61.79965046280995 10.896551724523306,64.90250070672482 9.5,71.108192299027 9.849137930199504,73.32450785115361 12.64224137738347,78.64365900098346 16.831896550953388,82.6330166454427 23.814655171707273,83.51953990082256 40.224137930199504,82.18975492706522 44.06465517170727,82.6330166454427 48.95258620753884,80.85996940801851 50.0,81.30323130870238 54.887931033968925,82.18975492706522 62.56896551698446,80.85996940801851 65.36206896416843,81.74649314791895 75.13793103396893,80.85996940801851 79.67672413773835,81.74649314791895 83.86637931130826,80.41670744866133 88.40517241321504,76.42734708078206 90.1508620698005,71.99471870111302 90.1508620698005,66.67555665806867 89.10344827361405,63.57270810846239 87.00862068869174,60.02659184881486 82.81896551698446,56.923736945260316 80.02586206793785,55.5939410792198 73.39224137924612,55.5939410792198 72.34482758492231,56.48047171742655 62.91810344904661,57.36700211232528 60.474137930199504,56.48047171742655 51.396551724523306,57.36700211232528 40.57327586039901,56.923736945260316 37.43103448301554,57.81026722025126 32.892241379246116,57.36700211232528 29.40086206793785,58.253532267641276 22.767241379246116,57.36700211232528 19.624999998137355,57.81026722025126 16.831896550953388,58.69679725379683 16.482758620753884,59.5833270449657 14.038793103769422,60.913121277000755 10.896551724523306,66.23229276086204 10.547413792461157,73.32450785115361 12.99137930944562,78.64365900098346 16.13362069055438,81.30323130870238 21.37068965472281,83.51953990082256 25.90948275849223,83.0762783025857 33.93965517170727,83.96280143689364 41.96982758678496,82.18975492706522 43.71551724150777,82.6330166454427 47.55603448115289,81.74649314791895 53.49137930944562,82.18975492706522 55.93534482643008,81.30323130870238 80.375,80.85996940801851 84.56465517170727,79.53018334601074 87.70689655281603,75.54082188894972 89.4525862056762,71.55145553057082 89.80172413773835,68.00534798530862 89.10344827361405,65.3457647850737 87.35775862075388,60.46985659329221 84.21551724150777,57.36700211232528 81.0732758641243,56.03720642765984 75.13793103396893,56.03720642765984 71.29741379246116,56.923736945260316 60.82327586226165,56.923736945260316 58.728448275476694,57.36700211232528 47.90517241321504,56.03720642765984 34.637931033968925,57.81026722025126 25.90948275849223,57.36700211232528 18.228448275476694,57.81026722025126 18.228448275476694,59.14006218011491 14.73706896416843,62.68617940717377 12.99137930944562,64.90250070672482 10.896551724523306,73.32450785115361 11.594827586784959,74.65429645520635 12.99137930944562,79.0869212038815 14.387931033968925,80.85996940801851 16.482758620753884,81.74649314791895 17.181034483015537,82.6330166454427 21.719827584922314,83.96280143689364 28.702586205676198,84.4060629142914 39.17672413960099,83.96280143689364 42.31896551698446,82.18975492706522 46.15948276035488,82.6330166454427 47.20689655095339,82.18975492706522 54.18965517170727,83.0762783025857 55.237068966031075,83.96280143689364 58.379310343414545,83.96280143689364 65.36206896416843,82.6330166454427 71.6465517245233,80.85996940801851 78.28017241321504,81.30323130870238 83.86637931130826,79.97344542690553 87.35775862075388,75.9840845160652 89.80172413773835,70.66492900741287 90.1508620698005,64.90250070672482 87.70689655281603,60.46985659329221 85.96120689809322,58.69679725379683 84.56465517170727,58.253532267641276 82.81896551698446,56.923736945260316 81.42241379246116,56.48047171742655 49.30172413773835,56.923736945260316 42.31896551698446,57.36700211232528 37.43103448301554,58.69679725379683 25.21120689623058,58.253532267641276 18.926724137738347,59.14006218011491 15.086206896230578,61.79965046280995 11.943965516984463,66.23229276086204 11.594827586784959,73.76777077931911 12.64224137738347,76.87060958566144 14.387931033968925,79.53018334601074 17.87931034527719,81.74649314791895 21.719827584922314,82.6330166454427 43.36637930944562,82.18975492706522 73.39224137924612,79.0869212038815 78.62931034527719,79.53018334601074 85.26293103396893,76.42734708078206 87.35775862075388,72.88124486105517 88.05603448301554,69.77840224211104 87.70689655281603,65.3457647850737 86.31034482643008,61.79965046280995 81.0732758641243,57.81026722025126" stroke="#4DD2FF" stroke-linecap="round" stroke-linejoin="round" stroke-width="0.5"><title>2025-03-12 5.1km</title><desc>13856958114</desc></polyline></svg>