<?xml version="1.0" encoding="utf-8" ?>
<svg baseProfile="full" height="130mm" version="1.1" viewBox="0,0,100,130" width="100mm" xmlns="http://www.w3.org/2000/svg" xmlns:ev="http://www.w3.org/2001/xml-events" xmlns:xlink="http://www.w3.org/1999/xlink"><defs /><rect fill="#FAF9F5" height="130" width="100" x="0" y="0" /><g id="tracks"><polyline fill="none" points="43.504240458947606,69.03989898214058 41.54440009978134,69.71597577584907 39.98865053628106,70.41805289252079 38.938014467363246,70.78209182378487 35.74569718132261,72.10822755061963 34.048515839269385,72.75829059067473 31.826016462873667,73.72037967306096 30.553130456479266,74.18842119058536 27.482040409115143,75.51453235499503 20.814542279811576,78.29673450683185 12.126590172061697,81.78092831121467 9.580818159040064,82.84697442218021 9.5,82.92497755352815 9.5,83.0029806518869 9.681840858072974,83.36699467312428 9.803068096749485,83.49699950616923 9.924295335425995,83.52300046173332 10.227363432291895,83.47099854687985 10.934522324707359,83.08098371705273 11.419431279529817,82.95097859001544 15.460339236655273,81.26090357574867 18.85470192064531,79.96083530434407 19.54165627330076,79.64881755171518 20.006360688363202,79.51880999855348 22.269269144395366,78.50474792991008 24.148291344405152,77.7766999197047 25.1383137939265,77.46467846164887 25.825268146581948,77.1006527581485 26.20915440248791,76.99664528193534 26.249563482240774,77.04864902741974 26.0879271638114,77.51668207476905 25.986904464894906,78.66075784286659 25.74444998742547,80.0648411042348 25.623222748748958,81.20890102132398 25.542404589708894,81.5729185934324 25.42117735091597,82.8729754696833 25.097904714406468,85.03104959575285 25.097904714406468,85.65506631035532 24.996882015373558,86.27908090768324 24.956472935853526,86.90309338796942 24.754427538020536,88.61911679248442 24.63320029922761,89.29512161674211 24.43115490139462,91.03712259787426 24.08767772500869,93.29909925186075 23.845223247655667,95.43105178322003 23.80481416801922,96.10703157255193 23.82501870789565,96.28902570673381 23.76440508849919,96.57501612527994 23.80481416801922,96.39302227394364 23.784609628259204,96.44502053555334 23.82501870789565,96.3670231376891 24.08767772500869,96.13303074562282 25.320154651999474,95.45705105180969 25.542404589708894,95.37905323489395 25.623222748748958,95.40505251083232 25.643427288508974,95.4830503166886 25.643427288508974,95.58704733969353 25.42117735091597,97.04299948739936 25.42117735091597,97.12099659863452 25.461586430552416,97.17299465446558 25.643427288508974,97.14699562835449 26.31017710152082,96.75700979644898 27.381017710082233,96.28902570673381 27.461835869238712,96.34102399772382 27.522449488635175,96.41902140663296 27.744699426344596,96.96500234298583 27.80531304550823,97.04299948739936 27.90633574454114,97.04299948739936 28.65390371659305,96.70501162306755 29.199426290695556,96.52301790041383 29.765153404790908,96.3670231376891 30.61374407587573,96.23702740103181 31.381516587687656,96.15902991495386 32.816038912395015,96.15902991495386 37.24083312554285,95.84703963980428 38.12983287591487,95.89903805572249 39.86742329748813,95.84703963980428 39.928036916884594,95.89903805572249 40.069468695437536,96.28902570673381 40.190695934114046,96.47101966089394 40.392741331947036,96.52301790041383 41.30194562242832,96.34102399772382 41.88787727605086,96.0550332153216 42.029309054720215,95.92503725817369 42.009104514843784,95.69104430377774 42.049513594363816,95.6390458290989 42.11012721376028,95.61304658626614 43.160763282561675,95.4830503166886 48.555375405354425,94.31307975678646 53.58630581188481,93.35109838814242 55.1420553753851,92.98710412581568 57.80905462719966,92.49311076060985 61.04178099264391,91.76511811990349 62.71875779493712,91.47912022280798 65.02207533048932,90.98512280754221 66.21414317796007,90.75112356879981 67.44662010483444,90.59512391094177 69.72973310062662,90.10112412153103 71.14405088545755,89.89312381324999 71.91182339738589,89.71112335055659 72.21489149413537,89.68512326972268 74.67984534800053,89.13912072396488 75.14454976306297,89.13912072396488 76.31641307065729,89.52912270778324 77.1650037416257,89.68512326972268 77.87216263404116,89.71112335055659 79.48852581693791,89.60712300533487 80.66038912453223,89.3471218849445 81.65041157405358,89.06112022801244 84.13556996756233,87.94310948370548 84.72150162130129,87.63110527250683 85.73172861058265,86.95509433237021 86.6207283611875,86.30508146999637 87.2470690945629,85.75906889022735 87.63095535046887,85.36905891228525 88.80281865806319,83.93901525100227 89.18670491396915,83.41899661735806 89.59079570963513,82.76897125769756 89.99488650541753,82.01493896242755 90.21713644301053,81.494914888739 90.39897730119992,80.89688538611517 90.5,80.24685111253348 90.43938638071995,79.49280847686168 90.35856822167989,79.10278521091095 89.63120478927158,77.7766999197047 89.36854577215854,77.4386766495445 88.68159141938668,76.97064340373618 87.9744325268548,76.63261865208915 86.721751060104,76.32059525298246 86.13581940636504,76.21658733555523 85.81254676985554,76.21658733555523 85.75193315045908,76.1905853470671 85.69131953106262,76.0865773561527 86.37827388383448,75.59253859630553 86.6207283611875,74.83847687768866 86.74195559986401,74.18842119058536 86.78236467938405,74.08441206741554 87.2470690945629,73.9283982723282 87.32788725371938,73.8503913251916 87.36829633335583,73.74638201089692 87.36829633335583,72.2122377914493 87.30768271384295,72.05622240813682 87.16625093540642,71.8221990850434 87.12584185588639,71.6141781033657 87.26727363432292,71.38015421772434 87.30768271384295,71.22413812857121 87.26727363432292,69.97600465007417 87.28747817419935,69.1959169243346 87.50972811179236,67.37569936220825 87.83300074830186,63.60519138381642 87.69156896986533,62.98109984755865 87.69156896986533,62.79907275050937 87.73197804938536,62.695057185628684 87.9744325268548,62.30499829314067 88.05525068601128,61.99295058345888 88.17647792468779,60.276678714784794 88.6007732602302,56.16796280197741 88.6007732602302,56.01193380601762 88.54015964083374,55.855904677679064 88.3785233226372,55.62186073701014 87.26727363432292,54.84171211643843 85.42866051383317,53.41143104858929 84.84272886009421,53.02135246290709 84.25679720635526,52.553257067644154 84.01434272900224,52.345214287313865 83.52943377406336,52.059155079958146 82.64043402345851,51.3049968546984 81.77163881273009,50.680863570276415 80.25629832886625,49.74465967163269 80.01384385139681,49.64063672187331 79.77138937392738,49.45859641833522 79.52893489657436,49.22454433477833 79.20566225994844,48.78244514168182 77.93277625343762,47.84623157673923 76.13457221258432,46.207846367469756 75.44761785981245,45.42765780321497 74.86168620595708,44.88152383835404 74.67984534800053,44.56944655877305 74.49800448992755,44.54344009491615 73.54839112004265,43.19109890407708 73.20491394365672,42.82700534553442 74.09391369426157,44.075323115990614 74.1343227737816,44.20535572968947 74.07370915438514,44.387401234344 73.12409578450024,45.29762605391443 72.23509603389539,46.05180891943746 71.38650536292698,46.597939408093225 70.96221002738457,46.805988691499806 70.69955101015512,46.8840071119339 70.47730107267853,46.77998254385602 69.81055125966668,46.07781517000694 69.56809678231366,45.687721025780775 69.04277874785475,45.141587833393714 68.41643801447935,44.647465928283054 68.19418807676993,44.54344009491615" stroke="#4DD2FF" stroke-linecap="round" stroke-linejoin="round" stroke-width="0.5"><title>2026-03-07 9.00km</title><desc>17630343500</desc></polyline></g><text fill="#5A5A5A" style="font-size:6px; font-family:Arial; font-weight:bold;color:#0ed45e;" x="5" y="10">晨间跑步</text><text fill="#5A5A5A" style="font-size:4px; font-family:Arial" x="5" y="121">Runner</text><text fill="#5A5A5A" style="font-size:6px; font-family:Arial" x="2" y="128">蓝皮书</text><text fill="#5A5A5A" style="font-size:4px; font-family:Arial" x="25" y="121">WORKOUTS INFO</text><text fill="#5A5A5A" style="font-size:3px; font-family:Arial" x="25" y="125">Type: Run</text><text fill="#5A5A5A" style="font-size:3px; font-family:Arial" x="22" y="129">Date: 2026-03-07</text><text fill="#5A5A5A" style="font-size:3px; font-family:Arial" x="47" y="125">Distance: 9.00 km</text><text fill="#5A5A5A" style="font-size:3px; font-family:Arial" x="47" y="129">Duration: 01:08:09</text><text fill="#5A5A5A" style="font-size:3px; font-family:Arial" x="75" y="125">Pace: 7:34/km</text><text fill="#5A5A5A" style="font-size:3px; font-family:Arial" x="75" y="129">Elevation: 2m</text></svg>