<?xml version="1.0" encoding="utf-8" ?>
<svg baseProfile="full" height="130mm" version="1.1" viewBox="0,0,100,130" width="100mm" xmlns="http://www.w3.org/2000/svg" xmlns:ev="http://www.w3.org/2001/xml-events" xmlns:xlink="http://www.w3.org/1999/xlink"><defs /><rect fill="#FAF9F5" height="130" width="100" x="0" y="0" /><g id="tracks"><polyline fill="none" points="37.90288356912788,58.690565184369916 39.247007616912015,58.972396769881016 39.81991294887848,58.92115468723932 40.502992383087985,59.02363884187071 40.92165397165809,59.151743975351565 42.00136017415207,59.68978481179511 42.486126224161126,60.048478052718565 43.103101196931675,60.68900040395965 43.80821545154322,61.6113496767357 44.8879216540372,62.68741948301613 45.262513601686805,62.943625890038675 45.76931447221432,63.1998320317216 46.47442872682586,63.50727905158419 47.201577801955864,63.73786406584259 48.17110990209039,63.865966758690774 48.89825897710398,64.19903344966588 49.49319912947249,64.55772015395632 49.537268770392984,64.63458152300154 49.559303590795025,64.83954505689326 49.42709466803353,65.24947161540331 49.51523394987453,65.58253644416982 49.9559303590795,65.68501783971442 50.66104461369105,66.04370239003038 51.454298150143586,66.37676614978409 52.688248095684685,67.09413272512029 53.062840043450706,67.22223368042614 53.67981501633767,67.63215629188926 54.473068552673794,68.09331841793028 55.993471164256334,69.06688008419587 56.85282916203141,69.52803953656985 57.8443960826844,70.21977710378997 59.40886833507102,71.60324643731292 59.95973884651903,71.9106830166129 60.81909684429411,72.24373887990077 61.03944504901301,72.29497820370307 61.41403699677903,72.26935854315525 62.075081610353664,71.98754210173502 62.25136017403565,71.96192240937671 63.176822633249685,72.34621751682425 64.60908596299123,72.37183716948493 65.33623503800482,72.5255550294969 65.66675734496675,72.62803354977223 66.15152339497581,72.93546885593969 66.41594124038238,73.16604508497403 66.74646354734432,73.60157737582631 67.34140369959641,74.60073679393099 67.45157780195586,74.72883386345347 67.5617519041989,74.95940842156415 67.95837867248338,75.49741488842119 68.35500544065144,75.98418163621682 68.88384113169741,76.49656665224757 69.34657236118801,77.06018894462613 69.87540805223398,77.57257173284597 70.13982589775696,78.03371533534664 70.47034820448607,78.34114392624178 70.95511425461154,78.62295313244977 71.83650707290508,79.31466527811426 72.34330794343259,79.54523556369531 72.69586507068016,79.7758056345192 73.15859630040359,79.9807566281379 73.75353645253927,80.54437098570634 74.1721980413422,80.77494012576062 75.62649619148578,81.36417139632977 75.91294885741081,81.6972145375039 76.48585418937728,82.10711317299865 77.03672470070887,82.3632994753716 77.2791077257134,82.18396909146395 77.49945593031589,81.92778260348132 77.63166485307738,81.87654527407722 77.78590859624092,81.97901992230618 77.91811751900241,82.15835045462882 78.07236126216594,82.26082498619508 78.55712731229141,82.31206223608751 78.71137105545495,82.3889180910337 78.84357997821644,82.67072268815537 78.84357997821644,82.72195985319559 78.645266594016,82.87567128465162 78.62323177361395,82.97814551921329 78.645266594016,83.08061971137067 78.71137105545495,83.15747532759269 79.1520674645435,83.36242352089903 79.70293797599152,83.87479326178436 79.9673558215145,84.05412242050807 80.20973884651903,84.54087233923201 80.25380848755594,84.59210911703121 80.45212187152356,84.61772750204545 80.73857453744859,84.92514791460417 80.78264417836908,85.00200295815011 80.76060935796704,85.30942289340601 80.95892274205107,85.56560588118737 81.86235038074665,86.1548257466784 82.32508161047008,86.61595335861784 83.22850924916565,87.33326126953762 83.49292709457222,87.66629637869482 83.9776931446977,88.12742117469315 84.41838955378626,88.81910675785912 84.68280739930924,89.40831887819513 84.72687704022974,89.63887976092519 84.66077257879078,90.53550337410707 84.30821545154322,91.48335909079469 84.0217627856182,91.86762388779607 83.82344940153416,92.22627049345465 83.71327529929113,92.45682875132479 83.60310119693168,92.91794462264806 83.09630032640416,94.30128708280972 83.00816104456317,94.50622604900855 82.78781283996068,94.71116484556114 82.6556039173156,94.91610347242386 82.21490750811063,96.12011447866098 81.77421109902207,97.17041716967651 81.39961915125605,97.91331150410406 81.17927094665356,98.2463323786942 81.02502720349003,98.98922348421183 80.89281828072853,99.34785977174761 80.38601741020102,100.3212985045393 80.36398258968256,100.44938226335216 80.38601741020102,100.70554958211142 80.45212187152356,100.85924984616577 80.54026115336455,100.93609994238068 81.61996735574212,101.49966658579069 81.75217627850361,101.52528322096623 81.81828073994257,101.47404994806857 82.21490750811063,100.88486654755252 82.63356909679715,99.45032718709263 82.76577801955864,99.14292481394659 83.62513601733372,98.14386446501885 84.61670293787029,97.42658788170957 85.36588683340233,97.09356590438983 86.18117519037332,96.96548040915513 86.84221980418079,96.96548040915513 87.61343852011487,96.81177772741648 88.47279651788995,96.52998922980623 88.86942328617442,96.32505193907127 89.44232861802448,95.86394241463859 89.79488574538846,95.40283203123545 90.23558215447702,94.63431281672092 90.38982589764055,94.12196534813847 90.5,93.4815295211738 90.5,92.94356214591244 90.4559303590795,92.53368145620334 90.21354733395856,91.76515333361749 89.75081610446796,91.02224054683757 89.53046789986547,90.76606320682913 89.04570184985641,90.3305611202668 86.31338411313482,88.28112924910965 85.3438520131167,87.43573365853808 84.13193688786123,86.18044396990445 80.87078346021008,82.26082498619508 80.12159956479445,81.46664625682752 79.50462459190749,80.9030339994788 78.88764961913694,80.4418957434973 77.98422198044136,79.67333007398702 77.36724700767081,79.44275990771712 76.70620239386335,78.9816189307603 76.15533188241534,78.67419113547658 75.84684439608827,78.59733412694186 75.56039173016325,78.46923905974836 75.42818280740175,78.44362003839342 75.78073993464932,77.59819084445189 75.18579978239723,77.29076133055787 75.09766050055623,77.29076133055787 75.00952121859882,77.3932378776808 74.83324265503325,77.72628636255104 74.74510337319225,77.80314364146034 74.52475516858976,77.85438181429345 73.66539717081469,77.3932378776808 73.20266594120767,77.3932378776808 72.98231773660518,77.34199960945989 71.79243743198458,76.67590115722851 71.04325353633612,76.11227798968321 69.94151251355652,75.16436340400833 68.75163220893592,73.75529447196459 68.53128400433343,73.34538200343377 68.44314472249243,73.06356678747397 68.31093579973094,72.8842296647781 68.04651795420796,72.67927279391733 67.69396082696039,72.32059786157333 65.5125136016868,70.96275233691267 64.47687704022974,70.39911615740857 64.05821545154322,70.24539697650471 63.83786724694073,70.24539697650471 63.5954842219362,70.16853735029872 63.48531011969317,70.16853735029872 62.78019586508162,70.52721540184575 62.559847660479136,70.57845508104947 61.65642002178356,70.52721540184575 60.775027203490026,70.39911615740857 59.82752992375754,69.98919812946406 58.90206746454351,69.24621997328359 58.28509249177296,68.63133981224382 57.62404787808191,68.04207822421449 56.985038084792905,67.55529585390468 56.08161044609733,66.91479127627099 54.86969532095827,66.1461835946975 54.36289445043076,65.7618788585969 53.70184983673971,65.40319389980868 53.43743199133314,65.35195314888551 53.21708378661424,65.17261043736653 52.93063112080563,64.83954505689326 52.423830250278115,64.42961781927443 51.54243743198458,64.01968990250316 51.03563656145707,63.635381863845396 50.85935799789149,63.609761306710425 50.63900979317259,63.53289961934206 50.15424374316353,63.097349606934586 49.537268770392984,62.713040135698975 48.0829706202494,62.328730067572906 47.22361262247432,62.20062657892413 46.496463547227904,61.91879867039097 46.32018498366233,61.765074221329996 45.98966267670039,61.5857289100677 45.504896626691334,61.22703789759544 44.821817192598246,60.56089606638125 44.05059847654775,59.5616799568088 43.60990206745919,59.22860702358594 42.904787812847644,58.536838729676674 42.26577801955864,58.10127992280468 41.119967355858535,57.563235632071155 40.569096844410524,57.40950847703789 39.15886833507102,57.33264486360713 38.630032644141465,57.25578122641309 37.880848748609424,57.230160008664825 37.462187159922905,57.127675111289136 36.4045157780638,57.15329633960209 35.14853101200424,56.82022016432893 35.08242655056529,56.794598901527934 34.99428726872429,56.64087126891536 34.8180087050423,56.56400741674588 34.59766050055623,56.58962870341202 33.804406963987276,56.30779440383776 33.60609358001966,56.30779440383776 33.407780195819214,56.35903702759242 33.231501632137224,56.30779440383776 32.790805223048665,56.102823802430066 32.195865070680156,55.641639328503516 30.499183895532042,54.001865348007414 30.212731229607016,53.66878493023978 29.37540805223398,52.84889276085596 29.02285092487,52.56705420008802 27.524483133805916,51.61904941222747 26.488846572348848,51.183478426974034 25.71762785629835,50.824772333930014 24.90233949944377,50.74790667483467 24.48367791075725,50.5173095545033 24.13112078339327,50.36357802145358 23.580250272061676,50.28671221915283 23.35990206745919,50.20984639292874 22.985310119693168,49.90238284923544 22.78699673549272,49.799894916504854 22.434439608245157,49.774272926704725 22.214091403759085,49.697406941239024 21.48694232851267,49.082478198222816 21.266594124026597,48.95436785099446 20.936071817181073,48.851879525434924 20.341131664812565,48.39068153522385 19.944504896644503,48.211326529082726 19.569912948878482,47.87823831560672 19.10718171915505,47.34017179250077 18.930903155589476,47.237682798251626 18.57834602834191,47.18643828520726 18.049510337295942,46.673992571100825 17.82916213280987,46.54588097675878 17.035908596240915,46.315279939677566 16.661316648474894,46.41776931610366 16.55114254623186,46.39214697598072 16.286724700708874,46.13592342894117 16.088411316624843,46.033433935808716 15.559575625695288,46.08467868773732 15.317192600574344,45.98218917331542 14.898531011887826,45.95656678813975 14.656147986883298,45.82845482225821 14.34766050055623,45.572230691454024 13.708650707267225,45.2903838409984 13.157780195819214,44.88042421270802 12.915397170814686,44.62419909998425 12.474700761726126,44.265483496317756 12.232317736721598,44.03488033368194 12.100108813960105,43.77865434519481 11.989934711600654,43.06122016572044 11.901795429759659,42.8562385894038 11.791621327516623,42.67687957083399 11.417029379750602,42.42065217580239 11.218715995666571,42.087556165555725 11.064472252386622,41.344494218879845 11.152611534227617,41.03701965694199 11.218715995666571,40.2939545547124 11.13057671370916,40.06334768974921 11.086507072905079,39.85836362943519 10.866158868302591,39.78149456302344 10.800054406980053,39.62775635844446 10.800054406980053,38.602832553340704 10.888193688704632,38.50033993915713 11.042437431984581,38.55158625150216 10.976332970662042,38.50033993915713 10.75598476594314,38.47471677904832 9.742383025004528,38.47471677904832 9.610174102243036,38.5259630967048 9.544069640920497,38.57720940375293 9.5,38.93593325580878 9.566104461322539,39.83274060988333 9.5,40.37082346188254 9.5,41.472608506825054 9.67627856368199,42.36940666503506 9.764417845522985,42.57438864467258 10.13900979317259,43.08684285079653 10.403427638695575,43.77865434519481 10.822089227498509,44.291106056727585 11.042437431984581,44.829179211330484 11.152611534227617,45.00853666946932 11.637377584236674,45.341628746755305 11.945865070680156,45.82845482225821 12.056039173039608,45.90532200979942 12.695048966328613,46.23841287958203 13.17981501633767,46.673992571100825 13.730685527785681,46.85334869183134 14.34766050055623,47.237682798251626 14.590043525560759,47.288927300745854 15.118879216606729,47.288927300745854 15.361262241611257,47.41703851032071 15.40533188241534,47.46828297560569 15.40533188241534,47.64763852045871 15.14091403700877,48.54441429419967 15.096844396088272,48.90312369358435 15.118879216606729,48.95436785099446 15.317192600574344,48.97998992574867 15.49347116437275,48.90312369358435 16.220620239386335,48.23694868081657 16.352829162147827,47.980727044458035 16.463003264390863,47.903860501755844 16.947769314516336,48.49317005180637 17.234221980324946,48.64690274708846 17.3003264417639,48.97998992574867 17.49863982584793,49.15934437463875 18.20375408057589,49.082478198222816 18.57834602834191,49.184966428161715 18.908868335187435,49.21058847899258 19.129216539673507,49.313076655962504 19.327529923873954,49.313076655962504 20.120783460210077,49.90238284923544 20.693688792176545,50.23546833761793 21.376768226269633,50.56855337755405 22.346300326520577,51.08099102486449 23.800598476664163,51.64467121110647 24.395538628916256,51.798401948050014 24.836235038004816,51.97775435379299 26.46681175183039,52.43894565726805 27.678726877085865,53.105109355645254 28.427910772617906,53.61754174926318 28.890642002108507,54.001865348007414 29.133025027113035,54.30932379711885 29.529651795397513,54.668024838290876 32.04162132751662,57.15329633960209 32.8569096843712,57.61447799591406 33.45184983673971,57.896310807118425 34.112894450547174,58.126901050287415 35.126496191485785,58.33186997490702 35.69940152333584,58.536838729676674 36.55875952122733,58.588080891859136 37.175734494114295,58.690565184369916 37.72660500544589,58.690565184369916 38.16730141453445,58.767428375867894 38.16730141453445,58.81867049032007" stroke="#89CFF0" stroke-linecap="round" stroke-linejoin="round" stroke-width="0.5"><title>2026-02-07 10.26km</title><desc>17311742503</desc></polyline></g><text fill="#5A5A5A" style="font-size:6px; font-family:Arial; font-weight:bold;color:#0ed45e;" x="5" y="10">成都天府绿道</text><text fill="#5A5A5A" style="font-size:4px; font-family:Arial" x="5" y="121">Runner</text><text fill="#5A5A5A" style="font-size:6px; font-family:Arial" x="2" y="128">蓝皮书</text><text fill="#5A5A5A" style="font-size:4px; font-family:Arial" x="25" y="121">WORKOUTS INFO</text><text fill="#5A5A5A" style="font-size:3px; font-family:Arial" x="25" y="125">Type: Run</text><text fill="#5A5A5A" style="font-size:3px; font-family:Arial" x="22" y="129">Date: 2026-02-07</text><text fill="#5A5A5A" style="font-size:3px; font-family:Arial" x="47" y="125">Distance: 10.26 km</text><text fill="#5A5A5A" style="font-size:3px; font-family:Arial" x="47" y="129">Duration: 01:14:02</text><text fill="#5A5A5A" style="font-size:3px; font-family:Arial" x="75" y="125">Pace: 7:12/km</text><text fill="#5A5A5A" style="font-size:3px; font-family:Arial" x="75" y="129">Elevation: 20m</text></svg>