<?xml version="1.0" encoding="utf-8" ?>
<svg baseProfile="full" height="130mm" version="1.1" viewBox="0,0,100,130" width="100mm" xmlns="http://www.w3.org/2000/svg" xmlns:ev="http://www.w3.org/2001/xml-events" xmlns:xlink="http://www.w3.org/1999/xlink"><defs /><rect fill="#FAF9F5" height="130" width="100" x="0" y="0" /><g id="tracks"><polyline fill="none" points="85.39358010422438,37.29387340368703 82.11422787723131,38.98206229644711 76.16454598028213,41.09228901358438 70.4022556389682,43.62454728913144 64.4994216307532,45.975916508963564 61.50115673802793,47.30232419483946 56.76951995352283,49.17134620415163 51.19462116830982,51.643265957100084 45.244939271127805,53.994590960937785 43.4178716018796,54.838653184560826 41.918739155633375,55.381263731746 38.68623481784016,56.82822181540541 35.313186813145876,58.09430611136486 29.504048582864925,60.626463425986 22.055234239436686,63.52033908950398 14.746963562676683,66.5950604644604 11.514459224883467,67.86111576372059 9.68739155586809,68.76543867611326 9.5,68.88601491958252 9.5,69.06687922088895 9.68739155586809,69.54918364912737 10.436957778874785,70.45350298186531 10.718045112676919,70.93580584198935 12.310873337090015,75.3367942427285 15.543377674883232,83.17405839380808 16.011856564553455,84.74149394122651 16.855118565494195,86.30892372777453 18.354251012206078,90.22747299156617 19.01012145751156,91.61402795335744 19.993927125353366,94.26655532006407 21.211972238263115,97.16020272354945 22.195777906337753,99.08929008556879 22.99219201831147,100.29496525603463 25.61567379999906,103.67083760112291 25.84991324483417,103.8516871513857 26.08415268943645,103.8516871513857 26.646327356807888,103.24885501927929 26.740023134741932,103.00772192786098 26.646327356807888,102.76658870026586 25.756217466667295,101.68148748844396 23.741758241783828,99.02900623748428 22.851648351643234,97.64247538195923 22.383169462205842,96.7382136998931 21.586755349766463,94.68854678911157 21.11827646032907,93.78427884398843 20.556101792724803,92.15659171133302 19.66599190281704,90.10690278178663 17.698380566667765,84.92235151815112 15.871312897652388,80.88318069264642 14.04424522840418,76.06024004440405 12.732504337793216,73.04587444153731 12.310873337090015,71.90040992590366 11.7955465586856,70.81523017812287 11.655002891784534,70.3329271817347 11.608155002817512,70.09177547891159 11.701850780751556,69.91091161244549 11.98293811455369,69.73004766905797 14.419028339907527,69.0065911289712 19.197513013146818,66.95679093353101 20.6966454598587,66.41419511492131 25.84991324483417,64.30409370214329 28.801330248825252,62.977738898363896 29.97252747253515,62.61600505420938 34.75101214577444,60.5058848473127 37.374493927229196,59.601544419449056 38.170908039202914,59.119228740572 40.60699826478958,58.21488537202822 43.4178716018796,57.009091230807826 44.87015615939163,56.52677261954523 47.82157316361554,55.14010357379448 48.00896471948363,55.07981351297349 48.149508386151865,55.20039362611715 48.10266049741767,56.165033303259406 47.82157316361554,57.43111956818029 47.493637941079214,59.78241265856195 46.884615384507924,65.20842415746301 46.55668016173877,66.71563732158393 45.666570271598175,74.13104851308162 44.72961249272339,82.330052251491 43.792654713615775,89.14233987694024 43.60526315798052,91.4331732140563 43.136784268310294,95.05025343035231 43.0899363795761,96.49707692739321 42.80884904577397,97.94389551653876 42.85569693450816,98.12474749505054 42.949392712442204,98.12474749505054 44.91700404859148,96.91906618952635 46.884615384507924,96.01480297383387 47.16570271831006,95.59281281699077 47.25939849601127,95.35167539701797 47.58733371878043,93.24171715669218 47.82157316361554,90.70975348964566 48.29005205328576,87.6954914292728 48.8522267206572,82.2697660344129 49.5549450549297,77.50712796588778 49.92972816666588,74.01047375256894 50.210815500235185,72.62386155687273 50.58559861173853,68.64486239856342 50.819838056573644,67.49938606176875 51.054077501408756,65.32900140667334 51.28831694601104,63.94236098302645 52.506362058920786,53.63284949649824 52.45951416995376,53.51226894033607 52.084731058217585,53.51226894033607 48.71168305398896,54.959233365778346 48.336899942252785,55.32097370506381 48.19635627511889,55.80329367995728 48.149508386151865,56.587062475824496 47.77472527441569,59.96328082081163 47.16570271831006,63.33947243579314 47.02515905140899,65.63044438039651 46.60352805093862,67.49938606176875 46.50983227300458,68.94630302858423 46.041353383334354,72.0812729485624 45.76026604976505,74.7942090863362 45.80711393849924,74.97507088189013 46.13504916150123,75.2162198232545 49.46124927699566,75.39708143984899 49.69548872159794,75.3367942427285 49.83603238849901,75.27650703725521 49.88288027769886,75.03535813008784 50.53875072300434,68.64486239856342 50.7261422786396,67.61996266301139 51.850491613615304,59.420676103880396 52.272122614318505,55.68271373739117 52.55320994788781,53.57255922269542 52.693753614788875,53.21081740024965 53.115384615492076,52.96965601472766 55.3172353960108,52.24617104019853 59.533545401645824,50.3168717737135 62.11017929436639,49.29192798800068 65.62377096596174,47.78465323965065 66.88866396737285,47.362615355319576 73.68160786572844,44.58921315296902 78.13215731619857,42.59958741758601 85.11249277042225,39.826154236419825 90.5,37.53504365470144 89.7972816657275,36.329191035591066 89.60989010962658,36.148312848614296" stroke="#4DD2FF" stroke-linecap="round" stroke-linejoin="round" stroke-width="0.5"><title>2026-03-05 7.22km</title><desc>17607655719</desc></polyline></g><text fill="#5A5A5A" style="font-size:6px; font-family:Arial; font-weight:bold;color:#0ed45e;" x="5" y="10">晨间跑步</text><text fill="#5A5A5A" style="font-size:4px; font-family:Arial" x="5" y="121">Runner</text><text fill="#5A5A5A" style="font-size:6px; font-family:Arial" x="2" y="128">蓝皮书</text><text fill="#5A5A5A" style="font-size:4px; font-family:Arial" x="25" y="121">WORKOUTS INFO</text><text fill="#5A5A5A" style="font-size:3px; font-family:Arial" x="25" y="125">Type: Run</text><text fill="#5A5A5A" style="font-size:3px; font-family:Arial" x="22" y="129">Date: 2026-03-05</text><text fill="#5A5A5A" style="font-size:3px; font-family:Arial" x="47" y="125">Distance: 7.22 km</text><text fill="#5A5A5A" style="font-size:3px; font-family:Arial" x="47" y="129">Duration: 50:17min</text><text fill="#5A5A5A" style="font-size:3px; font-family:Arial" x="75" y="125">Pace: 6:57/km</text><text fill="#5A5A5A" style="font-size:3px; font-family:Arial" x="75" y="129">Elevation: 0m</text></svg>