<?xml version="1.0" encoding="utf-8" ?>
<svg baseProfile="full" height="130mm" version="1.1" viewBox="0,0,100,130" width="100mm" xmlns="http://www.w3.org/2000/svg" xmlns:ev="http://www.w3.org/2001/xml-events" xmlns:xlink="http://www.w3.org/1999/xlink"><defs /><rect fill="#FAF9F5" height="130" width="100" x="0" y="0" /><g id="tracks"><polyline fill="none" points="87.37024221476167,47.54692703625187 85.78200692031533,47.54692703625187 83.3062283738982,48.208232505450724 81.6712802767288,48.208232505450724 80.69031141884625,48.508825560624246 79.42906574392691,49.170129533536965 78.58823529421352,49.47072190858307 76.76643598591909,49.83143247815315 74.9913494810462,50.55285269918386 74.38408304518089,50.673089283605805 72.79584775073454,50.73320756308385 71.39446366787888,51.03379883302841 69.85294117638841,51.574862583511276 69.2456747405231,51.87545325839892 67.79757785447873,52.89745996368583 66.86332179931924,53.07781383313704 63.5,54.3402887773118 61.63148788921535,55.662877555412706 60.08996539795771,56.444405353977345 58.408304498298094,57.10569698474137 56.726643598638475,57.28604906931287 55.091695501701906,57.947339391103014 50.46712802769616,60.77284099892131 48.03806228376925,62.09540976819699 47.61764705879614,62.21564308871166 47.057093425653875,62.21564308871166 46.02941176458262,62.275759736134205 45.93598615913652,62.63645944275777 45.56228373688646,62.93704229785362 43.460207612486556,64.07925520901335 41.73183391010389,64.86076753831003 39.442906574578956,65.64227843121625 38.22837370238267,65.8827430322417 36.78027681680396,66.66425204684492 34.4913494810462,67.20529590774095 31.501730103744194,68.70819190924522 30.56747404835187,68.94865477655549 28.41868512122892,70.15096707333578 27.437716263113543,70.39142912474927 26.456747404765338,70.75212194671622 24.027681660838425,72.01454441485112 22.112456747330725,73.33707821843564 19.35640138410963,74.17868849722436 18.141868512146175,74.77983767646947 16.787197231780738,75.32087121132645 14.918685121228918,76.52316549053648 13.891003460390493,76.94396768516162 12.676470588194206,77.66534190700622 12.209342560498044,77.78557082486805 10.621107266284525,78.62717229913687 9.873702422250062,78.86762955741142 9.733564013848081,79.10808667959645 9.826989619294181,79.88957138740807 10.060553633142263,80.13002793170745 10.480968858115375,80.19014204651467 10.667820069240406,80.37048434006283 10.994809688301757,81.51265042266459 12.396193771390244,85.1795839520928 12.956747404998168,86.38185035708011 13.844290657434613,87.94479160167975 14.404844290809706,89.32738868356682 14.731833909871057,89.80829096271191 15.666089965263382,92.09256936167367 16.273356401361525,93.35492847574642 16.273356401361525,93.71560182012036 16.92733564018272,93.65548961734748 17.1608996540308,93.35492847574642 16.974048442672938,91.73189464068855 16.92733564018272,90.58975600620033 16.600346020888537,89.68806544391555 16.179930795915425,88.90659874319681 15.712802768219262,87.28354792995378 15.572664359817281,85.6003775804711 15.2456747405231,84.27788191760192 14.638408304424956,83.07560956402449 14.077854671282694,81.51265042266459 14.124567474005744,81.03173876160872 14.685121107148007,80.4907124931924 15.105536332121119,80.19014204651467 15.806228373665363,80.06991380848922 16.039792387280613,80.13002793170745 16.553633217932656,80.37048434006283 16.974048442672938,79.46877210776438 17.908304498298094,78.62717229913687 19.636678200680763,77.90579970905674 21.41176470578648,77.60522743518231 22.346020761178806,77.12431135529187 23.04671280272305,76.94396768516162 24.448096885578707,76.22259223935544 25.896193771855906,75.20064159636968 27.297577854711562,74.59949301191955 27.671280276728794,74.17868849722436 29.306228373665363,73.03650271508377 29.539792387513444,72.73592699944857 30.240484429057688,72.55558146804105 30.80103806219995,71.8943138650211 32.62283737002872,70.5116600994661 33.27681660908274,70.09085153930937 34.95847750850953,69.42958010334405 36.31314878887497,69.06888615927892 37.621107266517356,68.52784466955927 38.92906574415974,68.28738156429608 40.51730103814043,68.28738156429608 41.96539792395197,67.98680249147583 42.71280276821926,67.68622320619761 43.460207612486556,67.26541184980306 44.955017301021144,66.90471606998472 46.0761245675385,66.42378788773203 47.197231833823025,65.76251074875472 47.94463667832315,65.58216225961223 47.99134948081337,66.12320749741048 48.1782006919384,67.20529590774095 47.99134948081337,69.00877047207905 47.99134948081337,70.6920064977021 47.75778546696529,71.71396797671332 47.47750865039416,72.43535107123898 47.057093425653875,74.2388034533069 47.103806228376925,75.56133033899823 47.010380622930825,77.48499846633058 46.73010380612686,79.2884294319374 46.02941176458262,82.7149271950766 45.93598615913652,83.61663254373707 45.98269896185957,84.69867643824546 46.02941176458262,84.87901681970106 46.21626297594048,85.1795839520928 46.823529411805794,85.42003750486765 49.159169550053775,85.66049092187313 49.8131487891078,85.66049092187313 50.23356401408091,85.05935712446808 50.32698961929418,84.4582224774058 50.51384083065204,83.79697338401456 50.37370242201723,83.31606430668035 50.37370242201723,82.65481343708234 50.32698961929418,82.23401689392631 50.51384083065204,81.39242255824502 50.700692041544244,80.00979967656895 50.700692041544244,78.80751525552478 50.980968858115375,77.72545637036092 50.980968858115375,75.20064159636968 51.40138408308849,73.21684804261895 51.44809688581154,72.73592699944857 51.30795847740956,72.2550054123858 51.35467128036544,71.65385266364319 51.49480968853459,70.57177557400428 51.68166089965962,70.21108259886387 51.86851211055182,70.09085153930937 53.26989619387314,69.79027374117868 54.858131487853825,68.8284233600134 57.42733564018272,68.58796042457107 59.24913494801149,67.32552778333775 59.62283737026155,66.78448407538235 61.67820069217123,61.79482631821884 62.472318339161575,60.231788952834904 62.98615916934796,59.63061920556356 64.1539792388212,59.1496827955998 65.64878892735578,57.947339391103014 66.11591695481911,57.6467530085356 69.19896193756722,56.384287882072385 72.09515570965596,55.54264238191536 73.0761245675385,55.001583680626936 74.85121107287705,54.3402887773118 79.14878892735578,52.17604372094502 80.45674740499817,51.63498073554365 81.81141868513077,51.274271696049254 82.88581314892508,50.91356235073181 84.6608996540308,49.89155087672407 84.94117647060193,49.6510772316833 86.01557093439624,49.049892524053575 87.4169550172519,48.08799522407935 88.81833910034038,47.42668956783018 88.95847750874236,47.126095747575164 88.81833910034038,46.10407516971463 88.91176470578648,45.98383729311172 89.19204152259044,45.98383729311172 89.2387543253135,46.10407516971463 89.05190311418846,46.2844319207361 87.60380622837692,46.70526404248085 85.4083044982981,47.72728317545261 83.8200692043174,48.148113869014196 82.79238754324615,48.62906272301916 81.20415224903263,49.049892524053575 79.47577854664996,49.2302480256476 78.0743944637943,49.6510772316833 77.1868512108922,50.07190602115588 75.50519031146541,50.73320756308385 73.49653979251161,51.81533514050534 71.48788927332498,52.717106017807964 69.3391003459692,53.49863923096564 65.41522491374053,55.662877555412706 64.24740484403446,56.264052912563784 62.705882353009656,56.865227419970324 61.77162629761733,57.34616641374305 60.27681660884991,57.82710486347787 56.539792387513444,59.51038515410619 55.27854671282694,59.93120418541366 52.989619377069175,60.95319152783486 50.700692041544244,62.09540976819699 45.93598615913652,64.01913881654036 44.955017301021144,64.62030235916609 43.413494809763506,64.92088381177746 41.82525951554999,65.76251074875472 40.2370242215693,66.18332359250053 38.50865051918663,67.02494803044829 36.35986159183085,67.92668665130623 34.91176470601931,68.40761313392431 34.5847750864923,68.28738156429608 34.35121107264422,68.52784466955927 33.510380622697994,68.94865477655549 32.01557093416341,69.42958010334405 29.306228373665363,70.57177557400428 28.465397923719138,70.81223738726112 25.849480968900025,72.19489017568412 22.299307958455756,73.45730836034636 20.80449826992117,74.17868849722436 19.870242214528844,74.47926319320686 16.647058823611587,76.22259223935544 14.171280276961625,76.94396768516162 12.956747404998168,77.48499846633058 11.5086505189538,77.90579970905674 10.480968858115375,78.3266005354817 9.5934256054461,78.80751525552478 9.5,79.04797241173219 9.54671280272305,79.2884294319374 9.967128027696162,80.19014204651467 10.714532871963456,80.97162476583617 15.5259515568614,93.11447940953076 15.946366781834513,93.95605054646148 16.226643598638475,94.01616270688828 16.693771626334637,93.83582620028756 16.833910034503788,93.59537740595988 16.880622837226838,93.35492847574642 16.833910034503788,92.87403020757483 16.039792387280613,90.89031910229824 15.712802768219262,89.74817820746102 14.171280276961625,85.48015087179374 12.022491349373013,80.6109406122414 11.929065743694082,80.25025615282357 12.022491349373013,79.88957138740807 17.02076124562882,77.84568527108058 20.80449826992117,76.46305085724453 23.653979238588363,75.20064159636968 24.77508650510572,74.83995254768524 28.8391003459692,73.21684804261895 34.02422145335004,70.99258365825517 35.93944636685774,70.3313136245124 43.83391003473662,67.08506399809266 45.282006920548156,66.78448407538235 46.63667820068076,65.94285916120862 47.61764705879614,65.5220460795972 48.31833910034038,65.40181369407219 48.36505190306343,65.70239459414734 48.0847750864923,67.44575962494127 47.89792387536727,69.67004256261862 47.66435986151919,71.35327597043943 47.43079584790394,72.6156966536073 47.103806228376925,75.80178933084244 46.823529411805794,77.36476946310722 46.73010380612686,79.04797241173219 46.54325259523466,80.13002793170745 45.93598615913652,85.1795839520928 46.21626297594048,85.29981074554962 49.205882352776825,85.48015087179374 49.8131487891078,85.42003750486765 49.95328719704412,85.35992412944324 50.04671280272305,85.05935712446808 50.23356401408091,82.83515468536643 50.23356401408091,82.17390306806192 50.653979238821194,79.70922889004578 51.027681660838425,76.70350933921873 51.074394463794306,75.62144509976497 51.8217993080616,70.21108259886387 51.9152249135077,69.06888615927892 52.56920415209606,64.62030235916609 52.615916955051944,63.95902241542353 52.52249134937301,63.598323830985464 52.19550173007883,63.598323830985464 50.28027681657113,64.50006971860421 49.065743944607675,64.98100007683388 48.69204152235761,65.22146505201817 48.50519031146541,65.58216225961223 48.0847750864923,69.12900183771853 47.057093425653875,76.64339473142172 47.010380622930825,77.42488396901172 46.54325259523466,80.43059842076036 46.02941176458262,84.99924369808286 46.0761245675385,85.1795839520928 46.21626297594048,85.29981074554962 47.80449826992117,85.42003750486765 49.8131487891078,85.54026423039613 49.95328719704412,85.23969735295395 49.99999999976717,84.33799544599606 50.18685121112503,83.4362916269165 50.23356401408091,82.11378923372831 50.51384083065204,80.79128272729577 50.747404844267294,78.3266005354817 51.074394463794306,76.46305085724453 52.0086505189538,69.73015815619146 52.709342560498044,63.838789587898646 52.849480968900025,63.417974423849955 52.989619377069175,63.29774144329713 55.60553633212112,62.39599300577538 57.006920415209606,61.61447614629287 61.91176470601931,59.57050218412769 62.705882353009656,59.08956570606097 63.26643598615192,59.08956570606097 63.73356401384808,58.9092143868038 68.17128027696162,56.985462219425244 69.71280276821926,56.444405353977345 70.92733563994989,55.843230251804926 90.26643598615192,47.907639237790136 90.4065743945539,47.847520558774704 90.5,47.667164470854914" stroke="#89CFF0" stroke-linecap="round" stroke-linejoin="round" stroke-width="0.5"><title>2026-04-07 10.01km</title><desc>18007020601</desc></polyline></g><text fill="#5A5A5A" style="font-size:6px; font-family:Arial; font-weight:bold;color:#0ed45e;" x="5" y="10">晨间跑步</text><text fill="#5A5A5A" style="font-size:4px; font-family:Arial" x="5" y="121">Runner</text><text fill="#5A5A5A" style="font-size:6px; font-family:Arial" x="2" y="128">蓝皮书</text><text fill="#5A5A5A" style="font-size:4px; font-family:Arial" x="25" y="121">WORKOUTS INFO</text><text fill="#5A5A5A" style="font-size:3px; font-family:Arial" x="25" y="125">Type: Run</text><text fill="#5A5A5A" style="font-size:3px; font-family:Arial" x="22" y="129">Date: 2026-04-07</text><text fill="#5A5A5A" style="font-size:3px; font-family:Arial" x="47" y="125">Distance: 10.01 km</text><text fill="#5A5A5A" style="font-size:3px; font-family:Arial" x="47" y="129">Duration: 01:21:49</text><text fill="#5A5A5A" style="font-size:3px; font-family:Arial" x="75" y="125">Pace: 8:10/km</text><text fill="#5A5A5A" style="font-size:3px; font-family:Arial" x="75" y="129">Elevation: 0m</text></svg>