<?xml version="1.0" encoding="utf-8" ?>
<svg baseProfile="full" height="130mm" version="1.1" viewBox="0,0,100,130" width="100mm" xmlns="http://www.w3.org/2000/svg" xmlns:ev="http://www.w3.org/2001/xml-events" xmlns:xlink="http://www.w3.org/1999/xlink"><defs /><rect fill="#FAF9F5" height="130" width="100" x="0" y="0" /><g id="tracks"><polyline fill="none" points="89.99453978147358,48.411944958454114 89.50713171379175,48.109929932586965 89.18219300184865,47.94730622721545 88.20737686636858,47.62205833361077 87.26866503222845,47.482666182142566 86.38410965004005,47.412970062097884 85.75228437699843,47.412970062097884 84.66915533761494,47.50589821563335 83.49576554482337,47.738218369544484 81.90717628702987,48.27255347708706 81.02262090472504,48.6907275665435 79.86728326266166,49.387682017550105 78.60363271669485,50.36341328272829 77.64686873182654,51.408833209075965 76.9067305548815,52.3380897823954 76.50958324025851,52.942103737048456 76.09438377525657,53.77842708604294 75.69723646074999,54.80059428799723 75.53476710489485,55.915678529650904 75.58892355684657,56.54291009045846 75.8236015153816,57.40244574857934 76.00412302196492,57.79736603006313 76.47347893903498,58.54074280889472 77.28582571854349,59.3305769519211 77.57466012914665,59.51641972803918 78.06206819694489,59.77195320202736 78.17038110084832,59.93456520582549 78.08012034755666,60.12040729892033 77.33998217061162,60.74762281148287 76.92478270560969,60.97992424566473 74.79462892794982,62.466645648819394 72.66447515028995,63.651367137747 71.94238912395667,63.97658330746344 71.02172944054473,64.32502848935837 68.63884555373807,65.02191663680424 67.06830844655633,65.3006710683403 66.27401381754316,65.39358910714509 64.43269445048645,65.39358910714509 63.09683530183975,65.27744155045366 61.688767550629564,65.23098250479961 60.87642077100463,65.25421202930738 60.10017829283606,65.34713009432016 59.43224871833809,65.53296606682125 59.03510140394792,65.71880182922177 57.95197236444801,65.95109623666212 56.77858257177286,66.34599597581837 55.62324492970947,66.81058268944616 54.937263204716146,67.13579260752886 53.83608201460447,67.80943967642088 52.96957878302783,68.22756405461405 51.85034544230439,68.62245832382177 51.236572319990955,68.7618325453077 50.478381992317736,68.85474862721458 49.9368174726842,68.87797763953859 48.96200133708771,68.8315196117037 48.3301760640461,68.87797763953859 47.3192556273425,69.06380961964896 46.434700245037675,69.27287034607434 46.109761533210985,69.48193080650526 44.972476041759364,69.9465086554992 44.03376420773566,70.43431398364191 43.438043235917576,70.82920295074291 42.770113661536016,71.3402343232301 42.01192333397921,72.0138641592639 41.416202362277545,72.61780580296181 40.098395364242606,74.3831609601475 39.43046578997746,75.14969084803306 38.527858257177286,76.40400477165531 37.859928682795726,77.4492590627633 37.84187653218396,77.70476465624233 37.96824158669915,77.91381439183897 39.502674392657354,79.09842453795136 40.5496991307009,79.72556762948807 41.72308892349247,80.25979874603217 42.22854914190248,80.56175469601294 43.997659906279296,81.25857400202949 44.68364163127262,81.44439198473992 46.38054379308596,82.04829897769378 50.62279919767752,83.30256025820563 57.44651214615442,84.8819867750135 60.40706485393457,85.46265447323094 60.60563851124607,85.55556111455371 60.76810786698479,85.69492097808688 60.858368620392866,86.0433201201813 60.78616001771297,87.85498375527095 60.804212168441154,88.15692575325374 60.89447292173281,88.31950967627927 61.038890126976185,88.48209343850613 61.61655894794967,88.85371286267764 61.74292400246486,89.06274841955747 61.923445509164594,89.2485575802566 62.14007131708786,89.66662742393964 63.20514820585959,94.79950939642731 63.277356808423065,94.9853120730113 63.31346110976301,95.54271884239279 63.72866057488136,97.21492781072448 63.85502562939655,98.07425080302346 63.02462669927627,107.8284131478431 62.952418096596375,108.17676538570959 62.84410519269295,108.43222322445945 62.64553153549787,108.64123388812004 62.392801426234655,108.7573508087371 62.1039670156315,108.80379755394824 61.56240249599796,108.78057418299431 59.10731000662781,108.57156369641598 58.493536884197965,108.54834029264748 56.34533095592633,108.36255294414877 55.91207934031263,108.26965919123904 55.695453532389365,108.17676538570959 55.33441051922273,107.8284131478431 55.22609761520289,107.4800601718307 55.24414976593107,105.66861279860314 55.42467127251439,103.85714546646341 55.4788277244661,102.62626524940424 55.38856697117444,102.32434982646373 55.20804546459112,102.11533113195037 54.052707822527736,101.39537581671902 53.150100289611146,101.02378474302532 51.63371963438112,100.7450908865867 50.58669489622116,100.39672290158342 49.05226209037937,100.00190495955758 47.752507243072614,99.37483922035608 45.69456206809264,98.67809670498536 44.71974593261257,98.26004977834236 44.59338087809738,98.14392544333532 44.5753287273692,98.05102591632749 44.91831958980765,96.58785144091235 44.91831958980765,96.28592492826283 44.82805883663241,96.10012372181518 44.55727657675743,95.93754749390064 43.311678181402385,95.56594408341334 41.524515266297385,94.79950939642731 41.307889458257705,94.66015725130273 40.92879429459572,94.12597293381987 40.63995988399256,93.8240418995556 40.47749052813742,93.73113993130391 39.35825718729757,93.35953153326409 39.087474927539006,93.47565924793889 38.744484064984135,93.84726738340396 38.47370180510916,93.96339475351851 37.64330287487246,93.68468892748933 37.44472921767738,93.54533583726152 37.40862491633743,93.47565924793889 37.44472921767738,93.26662930252496 37.84187653218396,92.29115270952752 37.986293737310916,91.73373491468374 41.759193224832416,81.02630122822302 41.777245375327766,80.631436759606 41.61477601947263,80.3991630995879 40.33307332289405,79.79525004755124 39.48462224192917,79.30747250099375 37.534989970969036,77.79767568263924 36.54212168476079,77.12406955115148 35.45899264526088,76.54337239454617 33.92455983941909,75.8697611225798 33.292734566377476,75.68393683763861 31.956875417847186,75.35874383331975 26.974481836310588,74.56898671573435 25.746935591683723,74.26701975613832 24.2305549364537,73.77922580332961 23.995876977802254,73.75599748377863 23.743146868655458,73.82568243265268 23.598729663412087,73.96505224180873 23.508468910120428,74.10442193273047 22.53365277464036,76.65951198998664 21.324158680508845,80.12043427437311 21.053376420633867,80.81725545128575 20.836750612827018,81.16566493191931 20.764542010147125,81.23534673939866 20.56596835295204,81.21211947355187 19.302317806868814,80.72434613165387 19.085691999061964,80.60820940835401 18.995431245770305,80.46884523204062 19.410630710888654,79.09842453795136 19.392578560160473,78.56418964661134 20.13271673710551,76.42723271704745 20.150768887833692,76.28786499568378 20.060508134425618,76.12526917143259 19.482839313568547,75.70716488471953 16.179295743233524,74.45284564311441 15.601626922143623,74.26701975613832 15.20447960763704,74.22056325161248 13.381212391308509,74.17410673394625 13.092377980821766,74.12765020306688 13.002117227413692,74.05796538223512 12.929908624850214,73.87213904882083 12.966012926073745,73.52371410740307 12.875752172898501,71.10794753269874 12.785491419606842,70.80597421422135 12.677178515587002,70.6433729667333 12.424448406440206,70.48077155841747 12.243926899856888,70.43431398364191 9.987408067681827,70.41108519128466 9.734677958418615,70.36462759686401 9.554156451835297,70.17879708755936 9.5,69.96973751352925 9.536104301223531,67.693293827062 9.5,66.39245470624883 9.536104301223531,65.41681860866083 9.608312903903425,65.11483483319171 9.71662580780685,64.95222795505833 10.438711834140122,64.6502433259011 11.702362380106933,64.02304270773311 14.933697347762063,62.745404414541554 15.691887675435282,62.489875564031536 17.876197905046865,61.37483593019715 21.089480721973814,60.027486278733704 21.30610652989708,59.86487436677271 21.324158680508845,59.679031984705944 21.251950077945367,59.3305769519211 20.13271673710551,56.24091000814224 19.392578560160473,54.38243574654916 19.410630710888654,54.12689389192383 19.57310006674379,54.01073837203148 22.894695787806995,52.61686572963663 24.050033429870382,52.03608197244466 26.866168932407163,50.851276742701884 28.238132382393815,50.31695002056949 29.736460886895657,49.66646297022817 31.090372186270542,49.155364195641596 32.354022732237354,48.57456820399966 34.285602852585725,47.83114633912919 36.939268999150954,46.71600723541633 37.78772008011583,46.41398909242707 38.14876309328247,46.367524713408784 38.70837976364419,46.0422736928158 39.52072654326912,45.74025431148766 40.098395364242606,45.368537387868855 41.01905504777096,45.043284389787004 43.618564742500894,43.904893826533225 48.18575885880273,42.02304723310226 48.94394918647595,41.81395183679706 51.05605081340764,40.861402775059105 51.453198127797805,40.72200488823 52.8612658791244,40.117946011872846 53.493091152166016,39.90884819110215 56.18286160007119,38.74718878569547 60.930577222956344,36.888516653561965 62.93436594598461,36.00564002504689 64.39659014926292,35.448031288950006 66.05738800973631,34.72778387067956 72.98941386223305,31.916465346206678 73.8378649429651,31.660888549493393 75.02930688648485,31.196202446037205 75.20982839306816,31.21943678241223 75.35424559831154,31.38207704514207 75.76944506342988,32.31144688639324 77.46634722524323,36.63294759110431 77.50245152646676,36.911750184968696 77.39413862256333,37.05115130452032 77.26777356804814,37.12085181991279 76.34711388440337,37.4925874027831 75.93191441940144,37.58552116707142 74.79462892794982,38.09665593112004 74.18085580563638,38.445155994952074 73.44071762857493,39.002754559522145 73.15188321808819,39.2350867363275 72.59226654772647,39.83914885841659 71.97849342541303,40.74523787754879 71.47303320688661,41.39576024581038 70.82315578323323,42.02304723310226 70.04691330494825,42.534168192898505 69.68587029189803,42.72002996591618 68.02507243142463,43.37054451585573 67.51961221289821,43.60287051660998 66.59895252948627,43.92812636587769 65.71439714718144,44.369543988635996 65.15478047681972,44.532171235012356 64.27022509463131,44.92712244881841 63.0065745486645,45.43823437503306 62.392801426234655,45.879647941095755 62.19422776903957,45.972576961823506 61.472141742822714,46.158434845579905 60.87642077100463,46.367524713408784 57.97002451517619,47.6452903473546 57.19378203689121,47.90084228182968 54.91921105410438,48.87658237585856 54.269333630451,49.08566878504644 53.13204813899938,49.66646297022817 48.74537552916445,51.432064687425736 46.77769110747613,52.268395721621346 45.04468464443926,52.942103737048456 44.68364163127262,53.15118497335061 41.86750612873584,54.266280407391605 40.80242923996411,54.73090127168689 39.12357922876254,55.381368274684064 37.13784265657887,56.21767920961429 36.14497437037062,56.449987047381 34.86327167367563,56.51967933464039 32.49843993759714,56.26414080338145 30.81958992627915,56.31060238415375 30.007243146770634,56.449987047381 29.3934700244572,56.659063820537995 26.848116781678982,57.72767428465886 26.61343882314395,57.86705774595612 26.631490973872133,57.936749432235956 26.956429685698822,57.89028831131873 29.375417873845436,56.89137103424582 29.82672164030373,56.7287560190598 30.494651214568876,56.54291009045846 31.090372186270542,56.49644857553358 31.270893692737445,56.426756278349785 32.55259638943244,56.426756278349785 33.20247381320223,56.473217813065276 34.59248941380065,56.7287560190598 35.02574102964718,56.77521746844286 35.693670603912324,56.7287560190598 36.00055716501083,56.82167890462733 37.28225986182224,56.54291009045846 38.81669266766403,55.915678529650904 39.93592600838747,55.31167550459213 42.318809895194136,54.33597362076398 43.23946957872249,53.91781389701646 46.687430354300886,52.454246484543546 49.666035212692805,51.24621276848484 50.983842210727744,50.781582051407895 52.66269222192932,50.10786517808447 53.31256964546628,49.80585326917935 53.475039001437835,49.78262156090932 53.65556050813757,49.85231667594053 53.79997771338094,50.084633512451546 55.15388901263941,53.54611547163222 55.677401381661184,54.475359958887566 56.21896590141114,55.61367729463382 57.30209494091105,58.33166842977516 57.44651214615442,58.47105137880135 57.71729440591298,58.61043420954957 58.4754847335862,58.5639732790587 59.360040115891024,58.238746398012154 60.389012703322805,57.95997998774692 61.32772453746293,57.51859887104365 61.67071539990138,57.42567637961474 64.25217294390313,56.357063951698365 66.23790951631963,55.31167550459213 67.80844662350137,54.405666804581415 68.65689770434983,53.871351639871136 68.92767996422481,53.592577820731094 69.6317138398299,53.19764743416454 70.69679072871804,52.454246484543546 71.41887675505131,51.82699931735988 73.26019612199161,50.456339767813915 74.54189881880302,49.387682017550105 75.10151548904832,48.992741524925805 75.49866280355491,48.57456820399966 76.38321818574332,47.854378323376295 77.75518163572997,46.94832850608509 79.41597949620336,45.69378974207211 80.13806552253664,45.29884037100419 80.71573434351012,45.066516768187284 80.89625585009344,45.08974914328428 81.05872520606499,45.1594462486828 81.29340316471644,45.415002049310715 81.4919768217951,45.80995114108373 82.25016714946833,47.668522357867914 82.35848005337175,47.854378323376295 82.53900155995507,47.97053819501889 83.09861823031679,47.97053819501889 84.10953866725322,47.738218369544484 84.90383329614997,47.62205833361077 86.20358814345673,47.5291302458063 86.7271005124785,47.55236227271962 88.11711611319333,47.71498636897013 89.00167149538174,47.94730622721545 89.86817472695839,48.36548114447214 90.19311343866866,48.59780008310918 90.5,48.89981421227276" stroke="#89CFF0" stroke-linecap="round" stroke-linejoin="round" stroke-width="0.5"><title>2026-04-19 21.23km</title><desc>18165696654</desc></polyline></g><text fill="#5A5A5A" style="font-size:6px; font-family:Arial; font-weight:bold;color:#0ed45e;" x="5" y="10">晨间跑步</text><text fill="#5A5A5A" style="font-size:4px; font-family:Arial" x="5" y="121">Runner</text><text fill="#5A5A5A" style="font-size:6px; font-family:Arial" x="2" y="128">蓝皮书</text><text fill="#5A5A5A" style="font-size:4px; font-family:Arial" x="25" y="121">WORKOUTS INFO</text><text fill="#5A5A5A" style="font-size:3px; font-family:Arial" x="25" y="125">Type: Run</text><text fill="#5A5A5A" style="font-size:3px; font-family:Arial" x="22" y="129">Date: 2026-04-19</text><text fill="#5A5A5A" style="font-size:3px; font-family:Arial" x="47" y="125">Distance: 21.23 km</text><text fill="#5A5A5A" style="font-size:3px; font-family:Arial" x="47" y="129">Duration: 02:37:43</text><text fill="#5A5A5A" style="font-size:3px; font-family:Arial" x="75" y="125">Pace: 7:25/km</text><text fill="#5A5A5A" style="font-size:3px; font-family:Arial" x="75" y="129">Elevation: 28m</text></svg>