<?xml version="1.0" encoding="utf-8" ?>
<svg baseProfile="full" height="130mm" version="1.1" viewBox="0,0,100,130" width="100mm" xmlns="http://www.w3.org/2000/svg" xmlns:ev="http://www.w3.org/2001/xml-events" xmlns:xlink="http://www.w3.org/1999/xlink"><defs /><rect fill="#FAF9F5" height="130" width="100" x="0" y="0" /><g id="tracks"><polyline fill="none" points="89.66617647046223,76.6768264293205 90.26176470564678,75.90046163846273 90.5,75.12409628101159 89.66617647046223,68.7578789802501 90.142647058703,64.87602046772372 89.54705882351846,63.167998235323466 88.59411764703691,62.546898561762646 87.99852941185236,62.391623586881906 81.20882352953777,62.08107356878463 75.96764705888927,60.52832211914938 71.08382352953777,58.66501738782972 69.0588235296309,58.19919069542084 66.43823529360816,58.19919069542084 64.41323529370129,58.82029290695209 62.6264705886133,59.751945544499904 61.31617647083476,61.45997326064389 60.83970588259399,62.85744844423607 60.83970588259399,64.87602046772372 62.86470588250086,69.68952291610185 63.102941176854074,71.0869872898329 62.983823529444635,72.79499680933077 62.03088235296309,75.74518861202523 61.077941176481545,77.60846343101002 60.125,78.54009961662814 57.74264705879614,79.316462481278 56.19411764713004,79.316462481278 51.90588235296309,78.07428162556607 50.71470588259399,78.07428162556607 47.02205882361159,79.316462481278 45.71176470583305,79.316462481278 44.52058823546395,78.85064483014867 41.66176470555365,76.36628058122005 38.44558823527768,72.48444982781075 37.25441176490858,71.70808197767474 33.68088235333562,70.15534457808826 32.132352941669524,69.06842704978772 29.035294117871672,64.72074583277572 27.486764706205577,63.47854793618899 25.461764705833048,63.32327309716493 22.1264705886133,64.72074583277572 19.982352940831333,65.18656966998242 18.791176470927894,64.72074583277572 16.52794117666781,63.167998235323466 15.217647059354931,62.70217351417523 14.02647058852017,62.70217351417523 12.71617647074163,63.01272335101385 11.048529412131757,64.25492179137655 10.09558823518455,65.34184423694387 9.5,66.58403995831031 9.5,67.20513727504294 9.976470588706434,68.292056706734 10.929411764722317,69.37897502805572 12.12058823555708,70.15534457808826 14.02647058852017,70.31061842001509 16.647058823611587,70.77643980958965 19.02941176481545,69.84479682589881 19.62500000046566,70.00007071322761 23.079411764629185,72.48444982781075 25.223529411945492,73.26081711181905 32.013235294260085,73.26081711181905 33.323529412038624,72.95027026580647 34.75294117676094,71.86335559282452 35.94411764713004,71.86335559282452 37.611764705739915,72.79499680933077 39.39852941175923,74.96882314130198 43.44852941157296,78.85064483014867 44.52058823546395,79.62700746871997 46.30735294148326,80.09282477968372 47.6176470592618,80.09282477968372 49.99999999953434,79.00591740349773 51.1911764703691,78.69537223468069 52.62058823555708,78.85064483014867 55.83676470583305,79.93755236512516 57.38529411749914,80.09282477968372 58.9338235296309,79.93755236512516 61.91176470601931,78.85064483014867 63.81764705944806,78.69537223468069 66.43823529360816,79.4717349865241 72.27499999990687,81.95609198417515 75.01470588287339,82.2666362010641 87.16470588231459,78.85064483014867 88.35588235314935,78.22955431195442 89.66617647046223,76.83209931943566 90.02352941175923,75.74518861202523 90.26176470564678,73.72663720999844 89.30882352916524,67.981508410885 89.66617647046223,64.25492179137655 89.18970588222146,63.01272335101385 88.71323529444635,62.546898561762646 87.64117647055537,61.92579852603376 86.92647058842704,61.77052346046548 83.1147058820352,62.08107356878463 79.89852941175923,61.615248371846974 76.56323529453948,60.52832211914938 71.79852941213176,58.509741846472025 70.01176470611244,58.19919069542084 67.39117647102103,57.88863945344929 65.00882352981716,58.35446628218051 62.74558823555708,59.4413947557332 61.43529411777854,60.99414779187646 60.95882353000343,62.546898561762646 60.83970588259399,64.41019649466034 61.31617647083476,66.4287655724911 63.102941176854074,70.00007071322761 63.34117647027597,71.39753467903938 63.102941176854074,73.88191053061746 62.50735294120386,75.74518861202523 61.197058823890984,78.07428162556607 60.24411764694378,78.85064483014867 58.576470588799566,79.62700746871997 56.670588235836476,79.62700746871997 53.6926470589824,78.54009961662814 52.38235294120386,78.38482697552536 50.71470588259399,78.69537223468069 47.49852941185236,79.93755236512516 46.30735294148326,79.78227992821485 45.11617647111416,79.4717349865241 43.9250000002794,78.54009961662814 40.232352941762656,75.43464249209501 37.25441176490858,72.17390275618527 32.25147058814764,69.68952291610185 31.0602941182442,68.292056706734 29.273529411759228,65.34184423694387 28.320588235277683,64.5654711748939 26.65294117666781,63.789097546134144 24.389705882407725,63.789097546134144 21.53088235342875,65.0312950804364 20.22058823518455,65.18656966998242 18.91029411740601,64.87602046772372 16.40882352972403,62.85744844423607 15.098529412411153,62.546898561762646 13.90735294111073,62.546898561762646 12.239705882500857,63.167998235323466 10.6911764703691,64.41019649466034 9.976470588706434,65.65239330322947 9.619117647409439,66.8945886620786 9.976470588706434,68.13678257050924 10.452941176947206,68.7578789802501 12.477941176854074,70.4658922390081 16.647058823611587,71.0869872898329 17.59999999962747,70.9317135612946 18.791176470927894,70.00007071322761 19.386764706112444,70.00007071322761 20.458823529537767,70.4658922390081 23.079411764629185,72.48444982781075 24.866176470648497,73.41609050042462 25.93823529453948,74.81354997935705 29.273529411759228,76.5215535168536 34.87205882370472,77.45319065416697 40.827941176481545,79.4717349865241 45.830882352776825,80.71391421055887 47.141176470555365,80.71391421055887 50.238235293887556,79.78227992821485 52.38235294120386,79.4717349865241 56.31323529453948,80.40336954034865 57.50441176490858,80.55864188680425 62.14999999990687,79.00591740349773 64.05588235286996,78.85064483014867 66.79558823537081,79.62700746871997 72.27499999990687,81.95609198417515 74.65735294111073,82.2666362010641 77.03970588231459,81.95609198417515 81.68529411777854,80.24809717119206 87.40294117666781,78.85064483014867 88.4750000005588,78.38482697552536 89.30882352916524,77.45319065416697 89.78529411787167,76.21100762288552 90.02352941175923,74.81354997935705 89.78529411787167,72.3291763033485 89.07058823574334,68.7578789802501 89.42794117610902,64.87602046772372 89.18970588222146,63.789097546134144 88.35588235314935,62.70217351417523 87.28382352925837,62.08107356878463 85.97352941194549,61.77052346046548 81.92352941213176,61.77052346046548 78.11176470573992,60.99414779187646 69.4161764709279,57.88863945344929 66.31911764713004,58.04391508596018 64.53235294111073,58.35446628218051 62.269117646850646,59.751945544499904 61.077941176481545,61.304698127205484 60.601470588706434,63.167998235323466 60.601470588706434,65.18656966998242 61.077941176481545,66.4287655724911 62.50735294120386,68.60260491177905 63.102941176854074,70.15534457808826 63.34117647027597,71.55280833947472 63.22205882379785,73.41609050042462 62.74558823555708,75.27936939767096 61.67352941213176,77.60846343101002 60.363235293887556,79.00591740349773 58.576470588799566,79.78227992821485 56.55147058842704,79.78227992821485 53.57352941157296,78.54009961662814 52.38235294120386,78.38482697552536 50.71470588259399,78.38482697552536 48.09411764703691,79.16118995344732 46.664705882780254,79.316462481278 44.16323529416695,78.54009961662814 40.232352941762656,75.27936939767096 38.56470588222146,73.10554370004684 37.4926470592618,72.17390275618527 33.44264705851674,70.31061842001509 31.894117646850646,69.37897502805572 31.179411764722317,68.292056706734 29.988235294353217,66.11821673286613 29.15441176434979,65.0312950804364 27.605882353149354,64.0996470656246 26.53382352972403,63.63382275251206 24.62794117676094,63.63382275251206 21.173529411666095,65.34184423694387 19.982352940831333,65.49711878143717 18.791176470927894,64.87602046772372 16.170588235370815,62.85744844423607 14.979411765001714,62.546898561762646 13.788235294166952,62.70217351417523 12.477941176854074,63.167998235323466 10.929411764722317,64.41019649466034 10.09558823518455,65.65239330322947 9.738235294353217,67.04986298002768 9.738235294353217,67.67096002434846 10.333823530003428,68.7578789802501 11.286764706019312,69.68952291610185 12.477941176854074,70.4658922390081 14.383823529817164,70.6211660358822 16.885294117964804,71.0869872898329 19.14852941222489,70.15534457808826 19.62500000046566,70.15534457808826 23.31764705851674,72.63972332980484 25.819117647130042,73.41609050042462 32.25147058814764,73.26081711181905 33.44264705851674,72.95027026580647 35.110294118057936,71.86335559282452 36.65882352925837,72.0186291859718 38.20735294185579,73.26081711181905 39.636764706112444,75.43464249209501 43.21029411768541,79.16118995344732 44.28235294157639,79.93755236512516 45.71176470583305,80.40336954034865 47.49852941185236,80.40336954034865 50.11911764694378,79.62700746871997 52.02500000037253,79.4717349865241 56.55147058842704,80.55864188680425 57.74264705879614,80.55864188680425 58.9338235296309,80.40336954034865 61.31617647083476,79.316462481278 63.93676470592618,79.00591740349773 69.29705882351846,80.86918651149608 75.61029411712661,82.2666362010641 78.46911764703691,81.80081984202843 82.39999999990687,80.24809717119206 87.52205882314593,78.85064483014867 88.59411764703691,78.07428162556607 89.30882352916524,77.14264503179584 89.78529411787167,75.74518861202523 89.90441176481545,74.19245710398536 89.18970588222146,68.292056706734 89.42794117610902,64.72074583277572 89.07058823574334,63.47854793618899 88.83235294139013,63.01272335101385 87.7602941179648,62.23634858883452 86.45000000018626,61.92579852603376 81.80441176472232,61.92579852603376 79.1838235296309,61.615248371846974 75.37205882370472,60.37304684938863 71.56029411731288,58.35446628218051 69.77352941129357,57.88863945344929 66.5573529410176,57.73336379881948 63.81764705944806,58.509741846472025 62.983823529444635,59.13084387674462 62.03088235296309,60.21777155727614 60.95882353000343,62.23634858883452 60.72058823565021,63.789097546134144 60.95882353000343,65.80766780255362 62.74558823555708,69.22370105038863 63.34117647027597,71.0869872898329 63.34117647027597,72.3291763033485 62.983823529444635,75.74518861202523 63.22205882379785,76.98737218696624 63.46029411768541,77.60846343101002 64.77058823546395,78.54009961662814 69.53529411740601,80.55864188680425 74.53823529416695,81.95609198417515 76.44411764713004,81.80081984202843 85.6161764706485,79.00591740349773 86.09264705888927,79.00591740349773 86.45000000018626,79.316462481278 86.45000000018626,79.78227992821485 85.73529411759228,81.33500327868387 84.78235294111073,81.80081984202843 84.18676470592618,81.6455476769479" stroke="#4DD2FF" stroke-linecap="round" stroke-linejoin="round" stroke-width="0.5"><title>2026-02-04 5.27km</title><desc>17278259424</desc></polyline></g><text fill="#5A5A5A" style="font-size:6px; font-family:Arial; font-weight:bold;color:#0ed45e;" x="5" y="10">Anyway 迎立春</text><text fill="#5A5A5A" style="font-size:4px; font-family:Arial" x="5" y="121">Runner</text><text fill="#5A5A5A" style="font-size:6px; font-family:Arial" x="2" y="128">蓝皮书</text><text fill="#5A5A5A" style="font-size:4px; font-family:Arial" x="25" y="121">WORKOUTS INFO</text><text fill="#5A5A5A" style="font-size:3px; font-family:Arial" x="25" y="125">Type: Run</text><text fill="#5A5A5A" style="font-size:3px; font-family:Arial" x="22" y="129">Date: 2026-02-04</text><text fill="#5A5A5A" style="font-size:3px; font-family:Arial" x="47" y="125">Distance: 5.27 km</text><text fill="#5A5A5A" style="font-size:3px; font-family:Arial" x="47" y="129">Duration: 38:00min</text><text fill="#5A5A5A" style="font-size:3px; font-family:Arial" x="75" y="125">Pace: 7:12/km</text><text fill="#5A5A5A" style="font-size:3px; font-family:Arial" x="75" y="129">Elevation: 0m</text></svg>