<?xml version="1.0" encoding="utf-8" ?>
<svg baseProfile="full" height="130mm" version="1.1" viewBox="0,0,100,130" width="100mm" xmlns="http://www.w3.org/2000/svg" xmlns:ev="http://www.w3.org/2001/xml-events" xmlns:xlink="http://www.w3.org/1999/xlink"><defs /><rect fill="#FAF9F5" height="130" width="100" x="0" y="0" /><g id="tracks"><polyline fill="none" points="81.22554660541937,49.42799864150584 74.70080552366562,52.24705317040207 70.64614499453455,53.686563151102746 67.33716916013509,55.00610967562534 65.84579976997338,55.785839783318806 61.74453394720331,57.28531673186808 51.67779056401923,61.66375908727059 45.33947065589018,64.1228644278599 44.68699654773809,64.54271025647176 43.94131185277365,64.78262197208824 42.77617951668799,65.38240066738217 41.191599539713934,65.92220076805097 38.34867663984187,67.18173166524502 36.903912543319166,67.60157446662197 30.0063291140832,70.60043953597778 20.545454545645043,74.25902621392743 14.020713463891298,77.01793956256006 9.5,79.05712485432741 9.779631760669872,79.05712485432741 9.919447641121224,79.17707662493922 10.432105868821964,80.25664103537565 10.89815880334936,80.55651955088251 11.084579976974055,80.85639785416424 15.651898734271526,92.43153836907004 16.21116225537844,93.69099056645064 16.44418872287497,93.81093820001115 17.189873417839408,93.3311474629154 17.23647871124558,92.97130405440112 12.389528193278238,81.09630034444854 12.016685845796019,80.13668957000482 12.063291139435023,79.89678653731244 12.15650172624737,79.77683496999089 13.508055235957727,79.35700421754154 16.257767549017444,78.15748549276032 18.588032220955938,77.25784422332072 20.312428078381345,76.41817731739138 24.972957422258332,74.61888549418654 29.074223245028406,72.81958603981184 30.565592635190114,72.33977156324545 31.590909090824425,71.79997962818015 33.12888377439231,71.26018700640998 34.0143843498081,70.84034782584058 35.59896432678215,70.30055398325203 37.09033371694386,69.58082779098186 40.958573072450235,68.08139430222218 42.729574223281816,67.30168679374037 45.80552359041758,66.16211170336464 47.669735328061506,65.2624449962168 48.3222094362136,65.08251142580411 48.36881472961977,65.2624449962168 48.36881472961977,65.44237849023193 47.94936708873138,67.06177650284371 47.80955120851286,68.26132660076837 47.529919447842985,69.46087330693263 47.43670886079781,71.02027895417996 47.11047180672176,72.87956281116931 46.784234752645716,75.63848513094126 46.4113924051635,80.49654386474867 45.85212888382375,84.63484631618485 45.94533947086893,84.93472173687769 46.131760644493625,84.99469679564936 49.39413118548691,85.294571961771 49.813578826375306,85.17462192079984 50.0,84.8747466695786 50.37284234748222,82.29581076017348 50.4660529345274,80.79642221049289 51.02531645586714,77.07791574054863 51.49136939016171,73.1194698123436 52.1438434983138,68.32130401671748 52.703107019653544,63.82297429587925 52.65650172624737,63.5230839519063 52.51668584579602,63.46310585777974 50.79228998860344,64.1228644278599 48.74165707733482,65.02253355196444 48.46202531643212,65.38240066738217 48.18239355599508,67.12175408829353 48.08918296871707,68.4412588228297 47.62313003465533,71.20021000612178 47.43670886079781,72.81958603981184 47.48331415420398,72.99951632862212 47.29689298057929,74.61888549418654 47.29689298057929,75.03872093555401 46.83084004605189,77.25784422332072 46.55120828538202,80.37659246704425 46.08515535108745,83.43534251366509 45.99194476404227,84.45492096192902 46.03855005768128,84.93472173687769 46.131760644493625,85.11464688763954 46.271576524712145,85.23459694552002 51.49136939016171,85.77437178732362 51.957422324456275,85.65442188171437 52.097238204907626,85.5344719424902 52.28365937876515,85.05467184574809 52.3768699655775,83.67524354544003 52.88952819327824,80.31661675553187 53.12255466077477,77.85760528157698 53.68181818164885,74.3789793412434 54.94016110477969,62.80334626144031 54.89355581137352,62.62341164785903 54.753739930922166,62.50345519653638 54.5207134638913,62.56343342651962 53.02934407372959,63.22319339599926 47.529919447842985,65.38240066738217 46.644418872427195,65.80224524936057 46.271576524712145,66.10213398232008 46.131760644493625,66.52197785218596 45.85212888382375,68.62119096866809 44.40736478706822,80.37659246704425 43.94131185277365,83.13546603318537 43.89470655936748,83.91514444170753 43.89470655936748,84.45492096192902 44.034522439586,84.63484631618485 44.220943613676354,84.69482141730259 45.99194476404227,84.81477159398491 46.131760644493625,84.75479650989291 46.2249712315388,84.51489608851261 46.59781357902102,80.97634911636123 47.48331415420398,75.03872093555401 47.669735328061506,72.69963247154374 48.50863060983829,66.46200018195668 48.555235903477296,65.20246714781388 48.69505178369582,64.78262197208824 55.54602991952561,62.08360734966118 57.643268124433234,61.123953567963326 62.49021864216775,59.08468207370606 62.8630609898828,58.90474588284269 63.748561565065756,58.66483084324864 66.82451093220152,57.34529569937149 68.3624856157694,56.74550564101082 69.06156501732767,56.56556845805608 73.39585730736144,54.64623375775409 76.98446490219794,53.26670657802606 88.96202531666495,48.28837553563062 90.5,47.56861199674313 90.45339470659383,47.32869054574985 90.0805523591116,46.60892537832842 89.89413118548691,46.3090228648216 89.66110471822321,46.18906180001795" stroke="#4DD2FF" stroke-linecap="round" stroke-linejoin="round" stroke-width="0.5"><title>2026-03-06 6.60km</title><desc>17619509374</desc></polyline></g><text fill="#5A5A5A" style="font-size:6px; font-family:Arial; font-weight:bold;color:#0ed45e;" x="5" y="10">冰上慢跑</text><text fill="#5A5A5A" style="font-size:4px; font-family:Arial" x="5" y="121">Runner</text><text fill="#5A5A5A" style="font-size:6px; font-family:Arial" x="2" y="128">蓝皮书</text><text fill="#5A5A5A" style="font-size:4px; font-family:Arial" x="25" y="121">WORKOUTS INFO</text><text fill="#5A5A5A" style="font-size:3px; font-family:Arial" x="25" y="125">Type: Run</text><text fill="#5A5A5A" style="font-size:3px; font-family:Arial" x="22" y="129">Date: 2026-03-06</text><text fill="#5A5A5A" style="font-size:3px; font-family:Arial" x="47" y="125">Distance: 6.60 km</text><text fill="#5A5A5A" style="font-size:3px; font-family:Arial" x="47" y="129">Duration: 50:05min</text><text fill="#5A5A5A" style="font-size:3px; font-family:Arial" x="75" y="125">Pace: 7:35/km</text><text fill="#5A5A5A" style="font-size:3px; font-family:Arial" x="75" y="129">Elevation: 0m</text></svg>