<?xml version="1.0" encoding="utf-8" ?>
<svg baseProfile="full" height="130mm" version="1.1" viewBox="0,0,100,130" width="100mm" xmlns="http://www.w3.org/2000/svg" xmlns:ev="http://www.w3.org/2001/xml-events" xmlns:xlink="http://www.w3.org/1999/xlink"><defs /><rect fill="#FAF9F5" height="130" width="100" x="0" y="0" /><g id="tracks"><polyline fill="none" points="80.5098436595872,49.538395031006075 78.1647365372628,50.38346341950819 76.52316155191511,51.228530135180335 75.20990156335756,51.77178642625222 73.7559351476375,52.31504202607903 72.20816444698721,53.03938175033545 64.1878980891779,56.11781186753069 62.1711059641093,56.96286723235971 60.90474811801687,57.687199070700444 59.68529241462238,58.049364528968 58.46583671099506,58.59261214052094 56.824261725647375,59.1358590607706 53.16589461476542,60.76559567358345 51.94643891137093,61.18811896504485 50.304863926023245,61.97280396844144 49.22611464955844,62.33496579126222 47.39693109411746,63.2403690040519 43.8323682686314,64.68901015081792 42.00318471319042,65.17188944068039 40.54921829747036,65.89620735149947 37.781991893425584,66.98268191350508 37.03155761444941,67.40519905221299 35.38998262863606,68.069153710705 32.85726693691686,69.27634135392145 30.934279096778482,69.81957467959728 28.401563404593617,70.90603925727191 26.2440648523625,71.93214215346961 24.743196294177324,72.35465439379914 23.711349160410464,72.95824258314678 21.037927041063085,73.98434054697282 16.676027793670073,75.2518699208158 13.252171395346522,76.64011206026771 11.329183555208147,77.54548493676702 9.9221192819532,77.96799162204843 9.593804284697399,78.26978185548796 9.5,78.51121388867614 9.593804284697399,79.1147933746106 11.235379270510748,83.46054048344376 11.892009264556691,84.72804172476754 12.970758540788665,87.56481658254052 13.486682107672095,88.83230563966208 13.861899247160181,90.16014728305163 14.56543138390407,91.54834094943362 15.409669948043302,93.4193774452724 15.691082802368328,93.60044505816768 16.160104227019474,93.5400891956815 16.4415170813445,93.2986656606372 16.488419224042445,93.05724198906682 15.550376375205815,90.09979093418224 15.0813549507875,87.44410314271227 14.377822814043611,85.27125539054396 13.299073537811637,82.85696714112419 13.01766068325378,81.83089050123817 12.876954255625606,80.74445372400805 12.92385639832355,80.50302295346046 13.064562825718895,80.2012342986709 13.721192819764838,79.83908763114596 15.0813549507875,79.35622492985567 17.14504921832122,78.33013987672166 19.396352055715397,77.48512680464773 21.131731325993314,76.5797538003535 22.585697741713375,76.09688741288846 23.617544875480235,75.55366207443876 26.713086276780814,74.40685075634974 29.05819339863956,73.19967762002489 30.840474811615422,72.53573094017338 32.2475390851032,72.11321887903614 34.82715691952035,70.90603925727191 36.656340474961326,70.18172984593548 38.81383902695961,69.09526342491154 43.97307469602674,67.16376073847641 46.03676896356046,66.62052403340931 48.147365373326465,65.71512798895128 48.19426751579158,65.83584757245262 48.241169658256695,66.07728663715534 48.10046323109418,67.04304153044359 47.44383323681541,70.12137067291769 47.39693109411746,71.0267573731835 46.97481181239709,73.50147122409544 46.88100752746686,75.61402047943557 46.55269253021106,78.02834968580282 46.177475390722975,79.17515127619845 45.849160393700004,80.80481139520998 45.47394325421192,83.52089777062065 45.47394325421192,84.18482736777514 45.5208453964442,84.36589889685274 45.70845396630466,84.48661320694373 47.819050376303494,85.27125539054396 48.47568037034944,85.39196944452124 49.64823393174447,85.27125539054396 49.97654892876744,84.90911302343011 50.2579617833253,84.36589889685274 50.86768963513896,80.98588435770944 51.57122177188285,75.37258680784726 51.665026056580245,73.68254728408647 51.852634626440704,72.41501325106947 51.89953676867299,71.50962949494715 52.13404748123139,70.18172984593548 52.180949623463675,69.27634135392145 52.41546033578925,67.76735626658774 52.46236247825436,66.25836584618082 52.93138390267268,63.723249932343606 52.83757961797528,63.30072914989432 52.64997104811482,63.18000884968205 52.13404748123139,63.18000884968205 48.334973943186924,64.20613031464745 49.695136073976755,63.96469019193319 52.97828604513779,62.81784774365951 53.86942675150931,62.395326065132394 57.10567458020523,61.55028145352844 58.372032426064834,61.00703760571196 59.35697741759941,60.40343251943705 61.04545454564504,59.73946593893925 63.10914881294593,59.0151375826681 65.36045165034011,58.41152968010283 66.86132020852529,57.62683813102194 68.54979733633809,56.96286723235971 69.72235089726746,56.17817302059848 71.22321945568547,55.453838621935574 73.28691372321919,54.78986434350372 77.226693688659,53.0997433384764 79.14968152879737,52.496127072314266 80.69745222921483,52.254680326906964 82.01071221777238,51.65106286571245 83.83989577321336,50.624911223276285 85.24696004623547,50.2023774770787 86.46641574986279,49.59875711414497 90.35929357260466,48.08970247293473 90.45309785753489,47.96897787114722 90.5,47.78789090455393 90.17168500297703,46.641004998848075 89.98407643311657,46.52027998724952 89.56195715116337,46.45991746883374 87.31065431400202,46.7013674917398 85.52837290102616,47.54644149620435 83.46467863349244,48.27078931158758 81.26027793856338,48.93477372909547 82.19832078740001,48.57260053855134 84.91864504944533,48.15006476090639 85.76288361335173,47.727528565214016 87.31065431400202,47.244629543769406 88.20179502014071,46.7013674917398 88.53011001739651,46.39955494183232" stroke="#4DD2FF" stroke-linecap="round" stroke-linejoin="round" stroke-width="0.5"><title>2026-01-20 5.01km</title><desc>17109973118</desc></polyline></g><text fill="#5A5A5A" style="font-size:6px; font-family:Arial; font-weight:bold;color:#0ed45e;" x="5" y="10">节气跑—四九 -16 °C迎大寒</text><text fill="#5A5A5A" style="font-size:4px; font-family:Arial" x="5" y="121">Runner</text><text fill="#5A5A5A" style="font-size:6px; font-family:Arial" x="2" y="128">蓝皮书</text><text fill="#5A5A5A" style="font-size:4px; font-family:Arial" x="25" y="121">WORKOUTS INFO</text><text fill="#5A5A5A" style="font-size:3px; font-family:Arial" x="25" y="125">Type: Run</text><text fill="#5A5A5A" style="font-size:3px; font-family:Arial" x="22" y="129">Date: 2026-01-20</text><text fill="#5A5A5A" style="font-size:3px; font-family:Arial" x="47" y="125">Distance: 5.01 km</text><text fill="#5A5A5A" style="font-size:3px; font-family:Arial" x="47" y="129">Duration: 36:54min</text><text fill="#5A5A5A" style="font-size:3px; font-family:Arial" x="75" y="125">Pace: 7:22/km</text><text fill="#5A5A5A" style="font-size:3px; font-family:Arial" x="75" y="129">Elevation: 0m</text></svg>