<?xml version="1.0" encoding="utf-8" ?>
<svg baseProfile="full" height="130mm" version="1.1" viewBox="0,0,100,130" width="100mm" xmlns="http://www.w3.org/2000/svg" xmlns:ev="http://www.w3.org/2001/xml-events" xmlns:xlink="http://www.w3.org/1999/xlink"><defs /><rect fill="#FAF9F5" height="130" width="100" x="0" y="0" /><g id="tracks"><polyline fill="none" points="59.9397458267631,30.7450929574552 57.19344242720399,31.78936026187148 53.26123528694734,33.516409302159445 52.231371512054466,33.79755582657526 51.57600365532562,34.11886579950806 49.36023613985162,34.96230274895788 48.08070841955487,35.564756179694086 45.9897728767246,36.32786202427815 43.7740053612506,37.4122720665182 41.37098988657817,38.37618862881209 40.43475009128451,38.617167258198606 39.498510295990855,39.05896088143345 38.094150603050366,39.6212426807615 37.00187084171921,40.18352336710086 34.879727305611596,41.02694230977795 33.974695503595285,41.46873218525434 31.97738394024782,42.231822169793304 28.575712683959864,43.43669691932155 27.57705690234434,43.91864538830123 26.765649079694413,44.360430766508216 25.548537345952354,44.72189101934782 24.643505543703213,45.243999461701605 23.488809796166606,45.725944864505436 22.396530034951866,46.167727432068205 21.553914219257422,46.4488614355505 20.617674423847347,46.8906428788905 20.49284245132003,46.97096670384053 20.46163445804268,47.09145239874488 20.49284245132003,47.41274733515456 20.804922382929362,47.93485083201085 20.929754355573095,48.0553361181519 21.24183428741526,48.0553361181519 23.61364176904317,46.97096670384053 25.610953332157806,46.368537462927634 26.98410503193736,45.64562068748637 27.88913683395367,45.364485889091156 29.54316047253087,44.561242074822076 32.66395979025401,43.39653450992773 34.598855367163196,42.512960068444954 35.62871914205607,42.19165959020029 35.69113512826152,42.231822169793304 35.65992713510059,42.954747632786166 35.379055196535774,44.5210798245098 35.28543121693656,46.12756540882401 35.098183257854544,47.05129050614778 34.75489533308428,50.30438541158219 34.63006336032413,50.987128995591775 34.349191421759315,53.19599405498593 34.0683194831945,55.00323451097938 34.0683194831945,55.726127474190434 33.94348751031794,56.489179162163055 33.881071524112485,57.412870568659855 33.412951626465656,59.7020058928174 33.19449567422271,60.26424683519872 33.13207968790084,60.66584682709072 33.038455708301626,61.66984432301251 33.06966370146256,63.07543485669885 32.72637577645946,64.48101843619952 32.69516778329853,65.72595808515325 32.5703358106548,66.3685054469097 32.53912781737745,67.41264181039878 32.19583989249077,69.30010934497113 32.2270478856517,69.90248996127048 31.821343974326737,73.31595599564025 31.727719994960353,74.64117293403251 31.41564006311819,76.60890789414407 31.134768124553375,77.77347930823453 30.97872815874871,80.66480838923599 30.69785622006748,81.94983409208362 30.604232240468264,82.63250163284829 30.604232240468264,83.39548106107395 30.32336030190345,84.64033783497871 30.1049043496605,86.1261274900753 30.1049043496605,86.60800354756066 29.886448397417553,87.69222168895067 29.9176563906949,88.17409509050776 30.04248836322222,88.37487543333555 30.292152308742516,88.5354996053502 32.757583769620396,88.93705963838147 33.350535640027374,89.13783944203169 34.56764737400226,89.33861910374253 35.03576727164909,89.499242731079 36.25287900539115,90.02126889259671 37.376366759999655,90.38267105809064 39.52971828903537,91.38656355021521 41.714277811464854,92.75185164777213 42.27602168859448,93.23371646885062 43.087429511360824,94.03682268821285 44.42937321786303,95.12101248381077 45.58406896539964,95.76349337366992 46.114604849368334,96.20519814261934 46.832388692419045,96.56659244306502 46.80118069937453,96.80752172120265 46.67634872661438,97.16891525548999 46.30185280833393,97.49015356687596 46.083396856323816,97.81139151495881 46.02098086976912,98.49402094897232 45.802524917642586,99.01603058617911 45.521652978961356,99.13649421234732 44.95990910194814,99.09633967588888 44.460581211023964,99.13649421234732 43.93004532705527,99.33726680924883 43.33709345664829,99.69865712616593 42.681725599919446,100.50174507393967 42.432061654515564,101.10405954526505 42.24481369543355,101.74652690751827 42.24481369543355,102.14806827122811 42.432061654515564,102.50945501358365 42.74414158635773,102.95114929659758 43.24346947716549,103.35268895811168 43.49313342256937,103.673920278874 43.524341415730305,103.99515123650781 43.46192542940844,104.67776581566432 43.55554940889124,104.95884193043457 43.96125332033262,105.15961041371338 44.273333252058364,105.15961041371338 45.084741074591875,105.32022509822855 45.428028999478556,105.56114695465658 45.740108931204304,106.00283649432822 45.77131692436524,106.44452534752782 45.64648495183792,106.8059066258138 44.92870110878721,107.40820773501764 44.42937321786303,107.89004770334577 44.242125258781016,108.17112064087996 44.11729328613728,108.45219330038526 44.086085292859934,109.01433778539649 44.14850127941463,109.45602195791434 44.42937321786303,110.37954119092319 44.67903716338333,110.5 44.741453149705194,110.45984706934541 44.835077129187994,110.33938824315555 45.115949067869224,109.73709334642626 45.45923699263949,108.73326568189077 45.833732910919935,107.80974109881208 45.8961488972418,107.32790099433623 46.20822882896755,106.32406481920043 48.018292433233,102.02760592172854 48.42399634455796,100.46159073049785 48.67366028984543,99.85927489734604 48.98574022168759,98.81525776218041 49.17298818076961,98.41371168891783 49.42265212605707,97.4499987977324 49.9531880102586,96.68705710765789 50.202851955546066,96.20519814261934 50.795803825953044,95.44225311034825 52.044123553088866,93.51480390381766 53.01157134154346,91.82827512320364 53.72935518459417,90.98500697890995 54.884050932130776,89.37877501914045 56.97498647496104,87.17019124844228 58.223306202096865,86.04581473433063 60.407865724526346,84.23877172957873 61.03202558809426,83.79704835824668 64.30886487162206,81.86952015594579 65.55718459864147,81.38763606219436 66.46221640089061,80.94590825834894 67.55449616198894,80.62465124230948 68.52194395044353,80.22307946160436 69.42697575257625,80.10260781674879 70.6128794932738,79.74119257551502 70.36321554786991,79.70103529808694 70.20717558194883,79.54040613168036 69.89509565022308,78.73725893776282 69.77026367757935,78.01442452208721 69.80147167062387,77.73332175274845 69.58301571861375,77.090800092672 69.58301571861375,76.84985409557703 69.70784769114107,76.72938102041371 70.14475959574338,76.64906560865347 70.73771146615036,76.4081192369049 71.51791129552294,75.96638369135326 72.57898306346033,75.28370013387757 74.73233459272888,74.15927658067085 75.4813264288241,73.87816999712959 76.38635823107325,73.67737941013183 77.04172608780209,73.47658868102008 77.94675788993482,73.31595599564025 79.07024564431049,72.91437388487975 79.28870159643702,72.71358261659043 79.50715754867997,72.23168299384997 79.5383655418409,71.38835668732645 79.44474156247452,69.7016965644143 79.28870159643702,69.21979183310759 78.78937370562926,66.44882376500755 78.1964218353387,64.7621343176288 77.66588595137,62.91479629051173 77.2289740468841,61.75016396943829 76.69843816291541,60.66584682709072 75.0132065314101,56.52933972052415 73.82730279059615,54.11969616886927 73.14072694070637,52.15180544008035 72.42294309765566,50.545353922847426 71.98603119305335,49.059378181467764 71.45549530908465,47.894689058623044 71.20583136368077,47.01112860781723 70.86254343867768,46.328375468059676 70.6128794932738,45.52513437933521 69.83267966390122,43.8383207002189 67.71053612791002,38.17537294811336 67.14879225066397,36.93031255886308 66.43100840761326,35.04262994689634 65.96288850996643,34.11886579950806 65.49476861243602,32.79345981890219 64.55852881702594,30.785257155512227 63.96557694661897,29.700821813894436 63.809536980697885,29.5" stroke="#4DD2FF" stroke-linecap="round" stroke-linejoin="round" stroke-width="0.5"><title>2026-01-25 7.03km</title><desc>17167022281</desc></polyline></g><text fill="#5A5A5A" style="font-size:6px; font-family:Arial; font-weight:bold;color:#0ed45e;" x="5" y="10">晨间跑步</text><text fill="#5A5A5A" style="font-size:4px; font-family:Arial" x="5" y="121">Runner</text><text fill="#5A5A5A" style="font-size:6px; font-family:Arial" x="2" y="128">蓝皮书</text><text fill="#5A5A5A" style="font-size:4px; font-family:Arial" x="25" y="121">WORKOUTS INFO</text><text fill="#5A5A5A" style="font-size:3px; font-family:Arial" x="25" y="125">Type: Run</text><text fill="#5A5A5A" style="font-size:3px; font-family:Arial" x="22" y="129">Date: 2026-01-25</text><text fill="#5A5A5A" style="font-size:3px; font-family:Arial" x="47" y="125">Distance: 7.03 km</text><text fill="#5A5A5A" style="font-size:3px; font-family:Arial" x="47" y="129">Duration: 50:21min</text><text fill="#5A5A5A" style="font-size:3px; font-family:Arial" x="75" y="125">Pace: 7:09/km</text><text fill="#5A5A5A" style="font-size:3px; font-family:Arial" x="75" y="129">Elevation: 8m</text></svg>