<?xml version="1.0" encoding="utf-8" ?>
<svg baseProfile="full" height="130mm" version="1.1" viewBox="0,0,100,130" width="100mm" xmlns="http://www.w3.org/2000/svg" xmlns:ev="http://www.w3.org/2001/xml-events" xmlns:xlink="http://www.w3.org/1999/xlink"><defs /><rect fill="#FAF9F5" height="130" width="100" x="0" y="0" /><g id="tracks"><polyline fill="none" points="22.68738867121283,36.69254723229096 23.812789454939775,39.254971365618985 24.73619522631634,41.743098414706765 26.84271464194171,46.8306878200965 28.314392589847557,50.72986847374705 29.641788386157714,53.73776828942937 30.709476309246384,56.52283000209718 31.430887068039738,58.04531792231137 32.181154257268645,60.19906625125441 33.04684716789052,63.46678861739929 33.393124331953004,65.06350180864683 33.50855005334597,65.84328844462289 33.537406483781524,66.6230727659422 33.76825792656746,67.84844345162855 33.99910936935339,70.4476956827275 34.027965799788944,73.19544864993077 33.941396508715115,73.75242209955468 33.91254007827956,73.86381664784858 33.739401496131904,73.93807965377346 29.84378339862451,73.93807965377346 27.93925899534952,74.04947412328329 26.871571072377264,74.19800000917166 25.630744567140937,74.45792010743753 22.427680797991343,75.4233353639138 20.11916636978276,76.35161591874203 18.87833986466285,76.9828448225744 17.291236195131205,77.94825080080773 15.357855361653492,79.24783016953734 14.434449590276927,79.99044406544999 12.501068756682798,81.69844806031324 11.779657997889444,82.40392473086831 11.115960099734366,83.10939950717147 10.105985037400387,84.33469330050866 9.5,85.337202153838 9.730851442785934,85.63424107953324 10.019415746442974,85.74563059012871 10.250267189228907,85.59711123222951 10.942821517586708,84.63173335959436 12.645350908511318,82.73809722941951 13.799608122557402,81.58705683395965 15.38671179197263,80.28748903615633 16.829533309559338,79.28496091419947 18.93605272541754,77.98538172908593 19.77288920560386,77.57694122905377 21.67741360887885,76.72292722231941 23.7550765943015,75.98030409036437 25.544175276067108,75.49759792891564 26.92928393301554,75.20054754265584 28.804951905971393,74.90349682045053 31.632882080506533,74.79210271305055 33.50855005334597,74.8663654565753 33.68168863549363,74.90349682045053 33.76825792656746,75.12628489360213 33.56626291410066,76.5001405031071 33.450837192707695,77.57694122905377 33.21998574992176,80.95583899214398 33.2488421802409,81.92123037148849 33.191129319602624,83.03513909358298 33.13341645896435,83.36931078936323 33.04684716789052,83.55496154783759 32.81599572498817,83.70348205999471 30.82490203063935,84.14904309305712 28.949234057799913,84.81738322589081 26.756145350984298,85.89414986397605 25.255610972526483,86.82239342387766 24.274492340628058,87.52785633617896 22.831670822924934,88.71600011741975 21.157997862435877,90.49820571488817 20.494299964397214,91.3893039803952 19.455468471627682,93.02297628452652 18.70520128251519,94.39673831462278 18.70520128251519,94.50812411037623 18.76291414326988,94.58238128124503 19.62860705377534,95.02792386611691 21.215710723306984,95.28782335837604 22.658532240777276,95.69623632688308 24.88047737791203,96.03039191977587 26.813858211622573,96.6615735469095 27.56412540085148,96.81008665074478 28.285536159644835,97.10711260623066 28.86266476660967,97.29275365790818 31.48859992879443,97.81254790499224 33.13341645896435,98.2952130708145 35.26879230502527,98.5551093313261 35.874777342309244,98.70362136469339 38.24100463138893,99.07490108109778 39.106697541777976,99.14915696132812 43.89686498045921,99.9288424377446 45.570537940831855,100.07735369473812 46.407374421018176,100.07735369473812 46.52280014252756,100.0030980767333 46.60936943360139,99.70607539493358 46.638225863920525,98.81500533473445 46.75365158531349,97.84967602608958 46.86907730670646,96.21603373222752 47.071072319173254,95.5105941472284 47.09992874960881,94.39673831462278 47.215354471001774,93.61703642227803 47.2442109012045,92.80020338660688 47.3884930529166,92.13188355971943 47.417349483352154,90.57246401903103 47.59048806549981,88.7902589252335 47.67705735657364,87.0080417424033 47.850195938604884,85.15155265491921 48.02333452086896,84.14904309305712 48.08104738150723,82.2554034840141 48.196473103016615,81.2900133325893 48.196473103016615,80.51027254376095 48.485037406440824,77.91111986729084 48.51389383687638,76.5001405031071 48.687032419024035,75.4233353639138 48.71588884922676,74.68070855847327 48.542750267195515,74.56931435648585 47.44620591378771,74.68070855847327 44.61827573913615,74.71783994857105 35.52850017824676,74.64357716302038 35.153366583632305,74.71783994857105 35.03794086212292,74.82923408746137 34.98022800148465,75.12628489360213 34.98022800148465,75.94317287873127 34.922515140729956,77.53981024297536 34.69166369794402,79.02504559149384 34.63395083730575,80.58453367097536 34.431955824722536,82.73809722941951 34.25881724257488,85.55998137959978 33.99910936935339,87.45359717146493 33.42198076238856,94.76802411678364 33.27769861056004,95.91900676939986 33.191129319602624,97.88680414200644 33.21998574992176,98.18382888045744 33.450837192707695,98.2952130708145 35.06679729244206,98.44372525106883 36.019059494137764,98.70362136469339 37.95244032773189,98.96351722130203 40.43409333808813,99.40905237715924 44.70484503020998,99.85458677771385 45.59939437115099,100.04022588839871 49.956715354463086,100.4115037159645 52.09209120052401,100.74565331247868 56.16084788029548,101.00554714922328 58.094228713889606,101.00554714922328 59.30619878869038,101.07980248393142 60.720163876074366,101.33969599014381 61.81670822936576,101.4510788427724 60.662451015319675,101.52533405149006 57.199679372948594,101.22831309042522 56.21856074093375,101.22831309042522 54.6026006413158,101.00554714922328 52.4960812254576,100.8570364167972 51.51496259344276,100.7085256005521 51.370680441730656,100.63427016083733 51.77467046666425,100.59714243316557 53.15977912361268,100.6713978832413 51.05325970787089,100.59714243316557 47.821339508285746,100.26299264794216 47.6482009262545,100.18873708238243 47.50391877442598,100.11448149580974 47.44620591378771,99.78033109678654 47.67705735657364,97.58977906787186 47.73477021721192,95.84474997624056 47.994478090433404,93.06010508246254 48.02333452086896,91.87198094569612 48.196473103016615,90.72098056453979 48.28304239397403,89.19868199367193 48.42732454580255,88.04766990154167 48.60046312783379,85.89414986397605 48.74474527966231,85.63424107953324 48.91788386180997,85.52285152178956 50.447274670470506,85.67137092165649 52.75578909867909,85.70850075845374 57.113110081874765,85.337202153838 59.56590666191187,84.81738322589081 62.653544709668495,83.8891325822915 63.86551478446927,83.5920916837058 65.27947987173684,83.4064409515413 68.77110794442706,83.33218062197557 69.17509796936065,83.14652970602037 69.52137513353955,82.81235772705986 69.66565728536807,82.51531561100273 69.72337014600635,82.14401249369257 69.75222657632548,81.1786219329806 70.15621660137549,76.57440276394482 70.21392946201377,75.12628489360213 70.35821161372587,74.12373707670486 70.3004987530876,73.71529057301814 70.35821161372587,73.34397501862259 70.35821161372587,72.86126401330694 70.61791948694736,71.59878488315735 70.87762736016884,68.739618542284 70.87762736016884,67.29145748488372 70.79105806909502,67.21719260010286 70.4447809047997,67.25432504515629 69.52137513353955,67.14292769430904 69.2039543997962,67.21719260010286 68.56911293196026,67.51425201335223 67.87655860336963,67.51425201335223 67.06857855350245,67.66278159394278 64.55806911294349,68.85101521603065 57.14196651231032,72.15576171778957 54.77573922346346,72.89839566053706 53.41948699671775,73.23258024992538 51.39953687216621,73.64102750414168 50.01442821510136,73.8266851369408 49.92785892426036,73.93807965377346 49.956715354463086,74.42078868061071 49.92785892426036,73.93807965377346 49.956715354463086,73.8266851369408 50.12985393649433,73.75242209955468 51.68810117559042,73.60389596185996 53.39063056639861,73.19544864993077 54.71802636270877,72.86126401330694 57.45938724617008,71.93297112561413 59.07534734578803,71.30173008842394 65.48147488420364,68.14550215107738 67.27057356608566,67.40285477272118 69.46366227290127,66.36314491601661 70.76220163877588,65.69475783524103 71.13733523327392,65.43482906665304 72.37816173827741,64.76643962413073 73.01300320622977,64.35797857199213 73.67670110438485,64.06091558971093 75.09066619165242,63.206857644574484 76.0429283932317,62.7241280125163 77.11061631632037,62.055731672997354 77.91859636618756,61.68439963841229 79.2459921623813,60.941733994637616 80.51567509793676,60.12479936153977 83.08389739925042,58.78799175453605 85.33469896682072,57.4140435141162 86.86408977536485,56.597097910242155 88.0472034199629,55.854417883907445 90.5,54.480454300006386 87.06608478794806,56.52283000209718 76.82205201277975,62.2413974935771 75.004096900695,63.6895863894315 74.34039900253993,64.13518136678613 73.59013181331102,64.76643962413073 73.3881368007278,64.9521035287762 73.33042394008953,65.21203277484165 73.2438546490157,66.99439781982801 73.0995724973036,68.18263446493074 72.69558247237,73.23258024992538 72.46473102946766,74.94062817914528 71.91645885293838,81.25288287136937 71.85874599218369,82.47818532283418 71.91645885293838,83.10939950717147 71.68560741003603,84.22330319180037 71.48361239756923,86.04266905397526 71.33933024574071,87.45359717146493 71.36818667617626,88.08479940262623 71.16619166370947,89.56997514129034 71.13733523327392,90.57246401903103 71.02190951188095,91.4264330091828 70.93534022092354,92.83733221609145 70.76220163877588,93.6541651362786 70.81991449941415,94.84228121425258 70.70448877802119,95.95613515807781 70.73334520834032,96.32741875678767 70.41592447459698,99.29766865909914 70.35821161372587,101.26544072889374 70.24278589244932,101.8594822314335 70.18507303169463,102.04511992566404 70.01193444954697,102.1193749665108 69.57908799417783,102.15650247907615 65.5969006055966,101.74809955206001 64.90434627712239,101.78522711715777 64.1540790880099,101.67384440620663 63.17296045611147,101.59958923934028 61.6435696472181,101.33969599014381 61.78785179904662,101.37682361289626 64.0963662272552,101.59958923934028 64.96205913787708,101.74809955206001 66.78001425007824,101.89660978072789 67.55913786950987,101.89660978072789 68.85767723538447,102.04511992566404 69.80993943708017,102.00799239726621 70.4447809047997,102.15650247907615 70.87762736016884,102.1193749665108 72.40701816871297,102.26788498542737 75.06180976133328,102.45352239112253 76.0429283932317,102.6762871046376 76.87976487353444,102.7505419672525 77.37032418954186,102.86192422171007 79.01514071959537,102.93617903185077 80.11168507300317,103.12181596530718 83.17046669044066,103.30745276767993 83.3436052724719,103.23319806245854 83.45903099398129,102.97330642907764 83.43017456366215,102.08224744870677 83.60331314557698,99.78033109678654 83.97844674030785,96.2902904204966 83.97844674030785,95.43633723858511 84.18044175265823,93.35713527724147 84.23815461341292,91.90910990626435 84.38243676512502,90.72098056453979 84.44014962587971,88.93877647814224 84.64214463834651,87.75063370444695 84.6998574991012,87.04517139034579 84.64214463834651,86.78526374450303 84.64214463834651,86.41396666163928 84.61328820802737,86.265447681566 84.32472390448675,86.11692861749907 82.93961524753831,85.81989023752976 80.11168507300317,85.07729281843058 78.87085856788326,84.78025326316128 74.16726042039227,83.48070126012317 73.33042394008953,83.33218062197557 72.08959743496962,82.99800887898891 71.88760242250282,82.88661820351263 71.80103313154541,82.73809722941951 71.80103313154541,82.51531561100273 71.88760242250282,82.03262145619374" stroke="#89CFF0" stroke-linecap="round" stroke-linejoin="round" stroke-width="0.5"><title>2026-02-17 15.16km</title><desc>17422657721</desc></polyline></g><text fill="#5A5A5A" style="font-size:6px; font-family:Arial; font-weight:bold;color:#0ed45e;" x="5" y="10">Anyway 2026 新年快乐</text><text fill="#5A5A5A" style="font-size:4px; font-family:Arial" x="5" y="121">Runner</text><text fill="#5A5A5A" style="font-size:6px; font-family:Arial" x="2" y="128">蓝皮书</text><text fill="#5A5A5A" style="font-size:4px; font-family:Arial" x="25" y="121">WORKOUTS INFO</text><text fill="#5A5A5A" style="font-size:3px; font-family:Arial" x="25" y="125">Type: Run</text><text fill="#5A5A5A" style="font-size:3px; font-family:Arial" x="22" y="129">Date: 2026-02-17</text><text fill="#5A5A5A" style="font-size:3px; font-family:Arial" x="47" y="125">Distance: 15.16 km</text><text fill="#5A5A5A" style="font-size:3px; font-family:Arial" x="47" y="129">Duration: 01:48:24</text><text fill="#5A5A5A" style="font-size:3px; font-family:Arial" x="75" y="125">Pace: 7:09/km</text><text fill="#5A5A5A" style="font-size:3px; font-family:Arial" x="75" y="129">Elevation: 0m</text></svg>