<?xml version="1.0" encoding="utf-8" ?>
<svg baseProfile="full" height="130mm" version="1.1" viewBox="0,0,100,130" width="100mm" xmlns="http://www.w3.org/2000/svg" xmlns:ev="http://www.w3.org/2001/xml-events" xmlns:xlink="http://www.w3.org/1999/xlink"><defs /><rect fill="#FAF9F5" height="130" width="100" x="0" y="0" /><g id="tracks"><polyline fill="none" points="87.13419618527405,97.40445856796578 87.41008174372837,98.29251529934118 87.18937329691835,98.54624556802446 87.5204359672498,98.35594787582522 87.63079019077122,98.67311066464754 87.18937329691835,99.68803053390002 86.63760217977688,100.0686250703875 85.97547683911398,100.89324579085223 87.18937329691835,101.46413643733831 87.02384196198545,100.70294879580615 87.35490463208407,101.27383961179294 88.01702997274697,102.16189098131144 88.18256130767986,102.54248404881218 88.12738419603556,102.73278049775399 88.51362397801131,103.24023741862038 88.56880108988844,103.55739779013675 88.89986376021989,104.06485405826243 88.89986376021989,104.63574187946506 90.22411444131285,104.50887796306051 90.38964577647857,104.63574187946506 90.5,104.82603770669084 90.16893732966855,105.07976538874209 46.3583106265869,53.69786010327516 41.06130790198222,52.36568183702184 39.626702997135,51.79474744637264 36.20572207076475,50.14537857106188 35.764305176911876,50.01850386650767 35.267711171647534,50.08194122189889 35.10217983648181,49.82819176220801 33.281335149658844,49.25725511042401 30.412125340430066,47.988505173823796 27.929155313409865,46.5928773417254 25.335831062635407,45.070370785018895 13.583106266800314,37.204029270564206 9.5,34.9202346111997" stroke="#4DD2FF" stroke-linecap="round" stroke-linejoin="round" stroke-width="0.5"><title>2026-02-10 1.23km</title><desc>17349074290</desc></polyline></g><text fill="#5A5A5A" style="font-size:6px; font-family:Arial; font-weight:bold;color:#0ed45e;" x="5" y="10">傍晚行走</text><text fill="#5A5A5A" style="font-size:4px; font-family:Arial" x="5" y="121">Runner</text><text fill="#5A5A5A" style="font-size:6px; font-family:Arial" x="2" y="128">蓝皮书</text><text fill="#5A5A5A" style="font-size:4px; font-family:Arial" x="25" y="121">WORKOUTS INFO</text><text fill="#5A5A5A" style="font-size:3px; font-family:Arial" x="25" y="125">Type: Hike</text><text fill="#5A5A5A" style="font-size:3px; font-family:Arial" x="22" y="129">Date: 2026-02-10</text><text fill="#5A5A5A" style="font-size:3px; font-family:Arial" x="47" y="125">Distance: 1.23 km</text><text fill="#5A5A5A" style="font-size:3px; font-family:Arial" x="47" y="129">Duration: 08:24min</text><text fill="#5A5A5A" style="font-size:3px; font-family:Arial" x="75" y="125">Pace: 6:49/km</text><text fill="#5A5A5A" style="font-size:3px; font-family:Arial" x="75" y="129">Elevation: 26m</text></svg>