<?xml version="1.0" encoding="utf-8" ?>
<svg baseProfile="full" height="130mm" version="1.1" viewBox="0,0,100,130" width="100mm" xmlns="http://www.w3.org/2000/svg" xmlns:ev="http://www.w3.org/2001/xml-events" xmlns:xlink="http://www.w3.org/1999/xlink"><defs /><rect fill="#FAF9F5" height="130" width="100" x="0" y="0" /><g id="tracks"><polyline fill="none" points="83.14921465981752,47.35099555310444 82.30104712024331,47.35099555310444 80.60471204179339,47.6542112842435 78.34293193742633,48.50321419056854 74.38481675391085,49.1702867236163 72.6413612565957,50.62571410360397 71.74607329838909,51.0502128257649 69.34293193742633,52.02049404178979 68.77748691104352,52.44499138343963 67.78795811510645,53.29398480639793 66.70418848167174,53.900407651177375 65.10209424071945,54.26426094627823 63.5,54.9919666108035 62.274869109969586,55.3558189800533 61.56806282722391,55.41646101156948 60.2015706805978,55.96223890941474 59.259162303758785,56.14416472101584 56.007853403221816,56.93250901310239 55.489528795704246,56.93250901310239 55.01832460728474,57.1144344129134 53.98167539271526,57.842135241720825 53.41623036633246,58.08470191023662 52.615183246089146,58.87304263556143 51.10732984286733,59.54009904063423 47.007853403221816,62.026391046791105 46.39528795797378,62.208314286428504 45.59424083749764,62.208314286428504 44.03926701564342,62.632801545085385 41.30628272239119,63.663697424402926 40.363874345319346,64.08818324268213 38.29057591641322,64.75523153689574 35.55759162292816,66.51380843127845 33.6727748690173,67.059572208178 33.06020942423493,67.36277400649851 29.99738219892606,69.72774067684077 29.290575916413218,70.15222049402655 26.416230366332456,70.8798992029624 23.30628272262402,72.09269430788117 18.3586387434043,74.39699555991683 13.081151832360774,76.51936734028277 11.149214659817517,77.18639630221878 9.688481675460935,77.97470192008768 9.5,78.15661839555833 9.547120418865234,78.33853479361278 10.01832460728474,79.1268382940907 10.630890052532777,79.79386320136837 10.866492146626115,80.21833305680775 14.117801047163084,88.34381788020255 15.62565445015207,92.89159668108914 15.76701570651494,93.07350683043478 16.191099476302043,93.01287012247485 16.66230366495438,92.77032320559374 16.80366492155008,92.5884129278129 16.756544502684847,92.22459214081755 16.14397905743681,90.82994293246884 15.342931937193498,88.46509260727908 14.023560209432617,85.49385192291811 13.269633507821709,83.12897217905265 11.761780104832724,79.55130880966317 11.71465968573466,79.1268382940907 11.808900523697957,79.00556092677289 13.458115183282644,78.45981234952342 16.473821989493445,77.1257573486364 21.138743455521762,75.36722396261757 28.630890052532777,72.09269430788117 30.37434554984793,71.48629718416487 35.74607329838909,69.18198029499035 38.903141361195594,67.90853670306387 40.31675392668694,67.42341434033005 44.03926701564342,65.72548174957046 45.829842932056636,65.17971627492807 47.47905759140849,64.27010560763301 48.327225130749866,63.966901623032754 48.46858638734557,64.02754243713571 48.51570680644363,64.39138714136789 48.327225130749866,65.60420059287571 47.95026178006083,69.06070011583506 47.47905759140849,72.15333397319773 46.77225130889565,76.39808923573582 46.348167539341375,80.4608870712691 45.829842932056636,83.85662887353101 45.87696335068904,84.0385428542213 46.58376963343471,84.28109470853815 49.69371727760881,84.5842843336286 49.882198952836916,84.52364642563043 50.07068062829785,84.09918083058437 50.16492146602832,82.6438670301286 50.58900523558259,79.06619961484103 51.20157068083063,75.36722396261757 51.62565445015207,71.30437787983101 52.28534031403251,66.6350893304625 52.28534031403251,65.72548174957046 52.66230366495438,63.057288383628475 52.66230366495438,62.632801545085385 52.56806282699108,62.511519513995154 52.37958115176298,62.511519513995154 51.15445026173256,63.117929326195735 48.7984293194022,64.08818324268213 48.46858638734557,64.33074637874961 48.3743455496151,64.8158722393855 48.13874345552176,67.72661588148912 47.76178010459989,69.78838067667675 47.667539267102256,71.00117886796943 46.39528795797378,79.85450177796884 46.348167539341375,80.82471783595975 45.87696335068904,84.15981879856554 45.92408376955427,84.28109470853815 46.206806282745674,84.34173265082063 49.50523560214788,84.64492223301204 49.69371727760881,84.5842843336286 49.882198952836916,84.22045675793197 49.97643979056738,82.8257815252 51.10732984286733,74.76083146809833 52.615183246089146,62.693442547664745 52.52094240835868,62.572160533920396 52.14397905743681,62.572160533920396 48.845549738034606,63.906260800518794 48.51570680644363,64.14882403949741 48.327225130749866,64.51266864090576 48.09162303665653,67.42341434033005 47.667539267102256,70.15222049402655 47.47905759140849,72.69909057443147 46.81937172776088,76.45872829237487 46.725130890030414,77.67150762319216 46.15968586388044,81.61301676734001 45.92408376955427,83.9779048692435 46.01832460728474,84.22045675793197 46.15968586388044,84.28109470853815 49.363874345552176,84.5842843336286 49.64659685851075,84.40237058428465 49.740837696241215,84.09918083058437 49.882198952836916,82.46195245784475 50.82460732967593,76.45872829237487 51.01308900513686,74.57891355262836 51.5314136124216,70.57669989106944 51.90837696311064,68.81813965452602 52.14397905743681,66.8170106151083 52.56806282699108,62.75408354168758 52.52094240835868,62.572160533920396 52.19109947630204,62.511519513995154 48.939790575997904,63.84561996930279 48.51570680644363,64.02754243713571 48.421465968480334,64.20946482784348 48.28010471211746,64.75523153689574 47.76178010459989,69.6064606521104 47.24345549731515,73.30548598364112 46.81937172776088,75.85233734088251 46.53664921480231,78.45981234952342 46.25392670161091,80.036417455849 45.7827225131914,83.85662887353101 45.87696335068904,84.22045675793197 46.11256544524804,84.34173265082063 47.99738219869323,84.52364642563043 49.64659685851075,84.5842843336286 49.740837696241215,84.46300850925036 49.78795811533928,84.28109470853815 49.83507853397168,83.55343873417587 50.259162303758785,79.79386320136837 50.96596858650446,75.36722396261757 51.62565445015207,70.45542010609643 51.76701570674777,68.75749951784383 52.096858638804406,66.8170106151083 52.56806282699108,62.8147245272412 52.66230366495438,62.45087848571711 52.89790575904772,62.208314286428504 54.5,61.48062086547725 57.185863874386996,60.63164364735712 60.437172774923965,58.99432569544297 63.028795811580494,57.963418593106326 64.1125654450152,57.72085185616743 67.12827225122601,56.26544855243992 70.00261780107394,55.29517693989328 76.17539267009124,52.566276261088206 79.42670157062821,51.41406853898661 82.67801047116518,50.019286628841655 84.9397905759979,49.23092962970259 87.15445026173256,48.260642103035934 89.7931937170215,47.29035238124197 90.5,46.92649316956522" stroke="#4DD2FF" stroke-linecap="round" stroke-linejoin="round" stroke-width="0.5"><title>2026-04-23 7.36km</title><desc>18219612334</desc></polyline></g><text fill="#5A5A5A" style="font-size:6px; font-family:Arial; font-weight:bold;color:#0ed45e;" x="5" y="10">晨间跑步</text><text fill="#5A5A5A" style="font-size:4px; font-family:Arial" x="5" y="121">Runner</text><text fill="#5A5A5A" style="font-size:6px; font-family:Arial" x="2" y="128">蓝皮书</text><text fill="#5A5A5A" style="font-size:4px; font-family:Arial" x="25" y="121">WORKOUTS INFO</text><text fill="#5A5A5A" style="font-size:3px; font-family:Arial" x="25" y="125">Type: Run</text><text fill="#5A5A5A" style="font-size:3px; font-family:Arial" x="22" y="129">Date: 2026-04-23</text><text fill="#5A5A5A" style="font-size:3px; font-family:Arial" x="47" y="125">Distance: 7.36 km</text><text fill="#5A5A5A" style="font-size:3px; font-family:Arial" x="47" y="129">Duration: 01:00:36</text><text fill="#5A5A5A" style="font-size:3px; font-family:Arial" x="75" y="125">Pace: 8:13/km</text><text fill="#5A5A5A" style="font-size:3px; font-family:Arial" x="75" y="129">Elevation: 0m</text></svg>