<?xml version="1.0" encoding="utf-8" ?>
<svg baseProfile="full" height="130mm" version="1.1" viewBox="0,0,100,130" width="100mm" xmlns="http://www.w3.org/2000/svg" xmlns:ev="http://www.w3.org/2001/xml-events" xmlns:xlink="http://www.w3.org/1999/xlink"><defs /><rect fill="#FAF9F5" height="130" width="100" x="0" y="0" /><text fill="#5A5A5A" style="font-size:6px; font-family:Arial; font-weight:bold;color:#0ed45e;" x="5" y="10">晨间跑步</text><text fill="#5A5A5A" style="font-size:4px; font-family:Arial" x="5" y="121">Runner</text><text fill="#5A5A5A" style="font-size:6px; font-family:Arial" x="2" y="128">蓝皮书</text><text fill="#5A5A5A" style="font-size:4px; font-family:Arial" x="25" y="121">WORKOUTS INFO</text><text fill="#5A5A5A" style="font-size:3px; font-family:Arial" x="25" y="125">Type: Run</text><text fill="#5A5A5A" style="font-size:3px; font-family:Arial" x="22" y="129">Date: 2026-01-11</text><text fill="#5A5A5A" style="font-size:3px; font-family:Arial" x="47" y="125">Distance: 9.78 km</text><text fill="#5A5A5A" style="font-size:3px; font-family:Arial" x="47" y="129">Duration: 01:07:03</text><text fill="#5A5A5A" style="font-size:3px; font-family:Arial" x="75" y="125">Pace: 6:51/km</text><text fill="#5A5A5A" style="font-size:3px; font-family:Arial" x="75" y="129">Elevation: 0m</text><polyline fill="none" points="67.75138121563941,36.694739260856295 64.28314917138778,37.942613241204526 63.12707182345912,38.470558544184314 50.745856353547424,43.605983650515554 41.04972375696525,47.78145894751651 34.74723756918684,50.22912748460658 24.5290055249352,54.5484994968283 9.723756906110793,60.64351984203677 9.5,60.78749537753174 9.537292817840353,61.07544626542949 9.83563535916619,61.74733072050731 9.947513812221587,61.89130578795448 10.320441988995299,61.89130578795448 16.175414364784956,59.29974523282726 21.95580110512674,57.04411160896416 35.716850828845054,51.28497905191034 36.94751381222159,50.90103340742644 38.81215469609015,49.989160761324456 38.99861878459342,49.94116739628953 39.110497237648815,50.03715411949088 39.14779005525634,50.22912748460658 38.88674033153802,51.47695171125815 38.40193370170891,55.46035989568918 37.917127071879804,58.77183232377865 37.096685083117336,65.2027154849493 36.68646408850327,67.93820348064764 36.46270718239248,71.05759271708666 36.16436464106664,73.69705353019526 35.64226519363001,77.15231667048647 34.74723756918684,84.39865710298182 34.67265193373896,84.59061103817658 34.48618784523569,84.78256486472674 31.912983425427228,86.31819157101563 29.26519337017089,88.38167902015266 25.01381215476431,92.31666683641379 24.566298342542723,92.98848946671933 24.752762431045994,93.27641304425197 25.162983425427228,93.56433637760347 25.3494475139305,93.56433637760347 25.49861878459342,93.46836196028744 26.132596685318276,92.70056564515107 26.953038674080744,91.83679271518486 29.26519337017089,89.77332626516 31.61464088410139,87.94978733599419 34.52348066307604,85.98227382244659 34.59806629829109,86.07825035593123 34.59806629829109,86.27020334149711 34.00138121563941,89.53338749200338 33.85220994474366,89.77332626516 33.703038674313575,89.91728944767965 31.502762431045994,91.64484287693631 29.302486188011244,93.56433637760347 28.03453038679436,94.81200133392122 26.766574585810304,96.2516090478457 24.230662983376533,99.56268362575793 22.552486188011244,102.34588075691136 22.47790055256337,102.4898386086279 22.515193370403722,102.63379639931372 23.895027624443173,103.01768354291562 24.118784530553967,103.06566940539051 24.305248618824407,102.96969767365954 25.088397790212184,101.53011844397406 26.0580110498704,100.04254682766623 26.803867403417826,99.03483332024189 28.482044199015945,96.9234238920908 31.353591160383075,93.99622091976926 32.9198895029258,92.79654027952347 33.66574585647322,92.36465421132743 33.77762430952862,92.46062894063652 33.81491712736897,92.84452758645057 33.59116022102535,94.18816942884587 33.44198895036243,95.86771425421466 32.882596685318276,99.51469726828509 32.32320442004129,104.31329944808385 32.360497237648815,104.50524212469463 32.62154696159996,104.69718469283544 35.045580110512674,104.98509834159631 35.41850828751922,104.88912715233164 35.60497237578966,104.50524212469463 35.82872928190045,102.77775412911433 35.97790055256337,101.91400683534448 36.64917127089575,96.4435562818835 37.2085635359399,92.46062894063652 37.32044198922813,92.36465421132743 37.432320442050695,92.46062894063652 37.84254143643193,92.98848946671933 38.36464088410139,94.04420805728296 38.961325966985896,94.7160272692854 39.446132596815005,95.4358320927713 39.781767955748364,95.57979287428316 39.930939226644114,95.57979287428316 40.08011049730703,95.4358320927713 40.266574585810304,94.95596237995778 40.303867403417826,94.7160272692854 40.08011049730703,94.3801178294234 39.37154696136713,93.9002466245147 38.70027624326758,93.03647674663807 38.40193370170891,92.74855296581518 37.917127071879804,92.36465421132743 37.69337016576901,92.31666683641379 37.84254143643193,91.50088042678544 37.767955801216885,91.2609428744181 37.432320442050695,90.92503001628211 37.39502762444317,90.78106726089027 37.50690607749857,90.06125256922678 37.65607734816149,89.8693017270125 38.0290055249352,89.6293630215514 41.34806629852392,87.61387120184372 41.60911602224223,87.56588315550471 43.36187845328823,86.70209716222598 44.21961325989105,86.41416800956358 45.5994475139305,86.03026209262316 48.209944751346484,85.59836741731851 52.49861878459342,85.50239074826823 59.509668508544564,84.97451858289423 62.26933701662347,85.07049540127628 64.84254143666476,84.87854173750384 69.98895027628168,84.30268009466818 73.60635359142907,83.48687442872324 75.06077348068357,83.24693121289602 79.946132596815,82.19117904794984 82.18370165745728,81.75927948893514 83.82458563544787,81.37536830842146 88.00138121563941,80.60754464491038 89.90331491734833,80.17564307132852 90.46270718239248,79.98368663995643 90.5,79.83971924521029 90.5,79.695751789317 90.01519337040372,78.35205259118811 89.90331491734833,78.20808450458571 89.53038674034178,78.16009512890014 81.88535911613144,79.88770838352502 73.08425414375961,81.61531284710509 69.98895027628168,82.47911178215872 66.7817679559812,82.67106680266443 64.58149171271361,82.57508930598851 61.67265193373896,82.23916785401525 60.40469613275491,82.23916785401525 59.58425414375961,82.38313423137879 56.75000000023283,83.15095387891051 55.482044199015945,83.43888579920167 53.50552486185916,83.58285166771384 47.46408839779906,83.774806064117 46.27071823203005,84.01474890697864 43.73480663006194,84.73457641829737 41.90745856356807,85.40641405188944 38.40193370170891,87.13399043364916 38.103591160383075,87.1819785409898 38.0290055249352,87.03801419853698 38.0290055249352,86.5581326164247 38.51381215476431,83.774806064117 38.924033149378374,79.16787059584749 40.22928176820278,68.75404651035205 41.04972375696525,61.65134730830323 41.646408839849755,57.0921039696841 42.653314917115495,48.74133106553927 42.7279005527962,48.54935685917735 43.02624309412204,48.30938894842984 44.48066298337653,47.877446281549055 46.867403315147385,46.9175717207836 48.209944751346484,46.29365180071909 56.52624309412204,43.03005199250765 62.64226519339718,40.3903527239745 71.29419889510609,36.8387249543448 72.74861878459342,36.11879587659496 72.33839779021218,35.15888806435396 72.18922651954927,35.01490165840369" stroke="#4DD2FF" stroke-linecap="round" stroke-linejoin="round" stroke-width="0.5"><title>2026-01-11 9.78km</title><desc>17006837678</desc></polyline></svg>