<?xml version="1.0" encoding="utf-8" ?>
<svg baseProfile="full" height="130mm" version="1.1" viewBox="0,0,100,130" width="100mm" xmlns="http://www.w3.org/2000/svg" xmlns:ev="http://www.w3.org/2001/xml-events" xmlns:xlink="http://www.w3.org/1999/xlink"><defs /><rect fill="#FAF9F5" height="130" width="100" x="0" y="0" /><g id="tracks"><polyline fill="none" points="9.5,48.202899603697006 11.12170706037432,50.486927539343014 11.719178082421422,50.884149232530035 12.828767123632133,51.57928679860197 14.023709168192,51.77789743896574 15.560063224751502,52.47303435567301 17.779241306707263,53.068865596782416 20.425184404477477,53.56539134745253 25.37565858801827,53.56539134745253 26.399894626345485,53.26747592794709 30.15542676532641,51.18206539424136 32.459957850631326,50.58623297821032 33.910958904307336,49.59317812725203 34.59378292970359,49.49387258494971 36.21548998961225,49.79178917972604 37.49578503705561,50.189011161448434 38.60537407826632,51.0827600172488 39.373551106546074,53.46608621790074 40.22708113817498,54.260526965372264 42.01949420478195,55.05496705335099 43.214436248876154,56.44523562013637 44.153319283854216,58.332025443494786 44.494731296319515,59.325071224418934 45.86037934711203,61.509768314659595 46.79926238162443,63.793764484347776 48.335616438649595,65.87914752983488 50.1280295047909,67.17009666131344 52.34720758674666,68.16313326964155 53.456796628423035,69.05686533567496 55.16385669121519,70.54641692410223 56.017386722844094,72.03596619376913 56.870916754473,72.73108839261113 58.236564805265516,73.42621008650167 60.028977871872485,73.62481619219761 60.71180189680308,73.92272527317982 63.10168598545715,76.80250827391865 65.49157007364556,78.49065289978171 66.25974710239097,78.39135035697836 67.88145416229963,77.398324364156 69.58851422555745,77.0011136783869 70.1006322442554,76.60390282789012 69.58851422555745,74.81645195954479 69.0763962068595,73.8234222564497 69.161749209743,73.62481619219761 70.0152792413719,73.22760394000215 70.1006322442554,72.92969464277849 70.0152792413719,72.5324821016402 69.33245521597564,71.93666298117023 68.47892518434674,71.63875328213908 67.54004214983433,71.63875328213908 66.68651211820543,71.14223691035295 66.25974710239097,70.44711355713662 65.49157007364556,69.65268624952296 65.66227608034387,69.25547234824626 66.00368809280917,69.15616884699557 66.60115911485627,69.25547234824626 67.54004214983433,69.85129313799553 69.24710221309215,70.44711355713662 70.95416227634996,70.74502362735802 73.08798735542223,70.44711355713662 76.24604847235605,71.14223691035295 78.12381454138085,71.34084348991746 81.19652265543118,72.03596619376913 82.13540569040924,72.43317894049687 84.52528977859765,72.83039152290439 86.06164383562282,73.52551314461743 87.59799789218232,74.71714903542306 87.68335089553148,75.0150577762397 88.45152792427689,75.11436066945316 88.9636459434405,75.41226928657852 89.21970495255664,76.00808624277124 89.13435194920748,76.60390282789012 88.11011591134593,77.89483748964267 88.9636459434405,78.98716545815114 88.9636459434405,79.28507286967942 88.62223393050954,80.1787945474498 87.76870389888063,81.27111990883714 87.76870389888063,82.26414188253693 87.93940990511328,82.95925665082177 87.25658588018268,83.5550689077354 87.08587987348437,84.1508807936334 87.17123287683353,84.44878659717506 88.19546891469508,84.84599419130245 88.87829294009134,85.93831422470976 89.30505795544013,87.72574431676185 89.81717597460374,90.30758188891923 90.5,91.797100396303" stroke="#4DD2FF" stroke-linecap="round" stroke-linejoin="round" stroke-width="0.5"><title>2026-02-06 1.60km</title><desc>17302570433</desc></polyline></g><text fill="#5A5A5A" style="font-size:6px; font-family:Arial; font-weight:bold;color:#0ed45e;" x="5" y="10">午间行走</text><text fill="#5A5A5A" style="font-size:4px; font-family:Arial" x="5" y="121">Runner</text><text fill="#5A5A5A" style="font-size:6px; font-family:Arial" x="2" y="128">蓝皮书</text><text fill="#5A5A5A" style="font-size:4px; font-family:Arial" x="25" y="121">WORKOUTS INFO</text><text fill="#5A5A5A" style="font-size:3px; font-family:Arial" x="25" y="125">Type: Hike</text><text fill="#5A5A5A" style="font-size:3px; font-family:Arial" x="22" y="129">Date: 2026-02-06</text><text fill="#5A5A5A" style="font-size:3px; font-family:Arial" x="47" y="125">Distance: 1.60 km</text><text fill="#5A5A5A" style="font-size:3px; font-family:Arial" x="47" y="129">Duration: 21:07min</text><text fill="#5A5A5A" style="font-size:3px; font-family:Arial" x="75" y="125">Pace: 13:10/km</text><text fill="#5A5A5A" style="font-size:3px; font-family:Arial" x="75" y="129">Elevation: 13m</text></svg>