<?xml version="1.0" encoding="utf-8" ?>
<svg baseProfile="full" height="130mm" version="1.1" viewBox="0,0,100,130" width="100mm" xmlns="http://www.w3.org/2000/svg" xmlns:ev="http://www.w3.org/2001/xml-events" xmlns:xlink="http://www.w3.org/1999/xlink"><defs /><rect fill="#FAF9F5" height="130" width="100" x="0" y="0" /><g id="tracks"><polyline fill="none" points="89.93815028923564,45.89819324592827 87.87803468224593,46.50077206554124 85.11560693685897,47.525154103699606 81.46358381514437,49.152108750189655 80.4803468210157,49.51365338382311 78.46705202339217,50.357256335788406 76.50057803490199,51.140600438870024 64.32716763019562,56.08166082698153 58.42774566495791,58.552169538801536 56.3676300579682,59.51626661454793 54.91618497134186,60.058570261113346 40.40173410438001,66.14437497212202 35.67283237003721,67.95202299786615 34.127745664911345,68.67508006139542 25.18497109832242,72.41085534784361 13.713872832711786,77.11065516545204 9.640462427865714,78.79775015093037 9.546820809366181,78.91825668027741 9.5,79.2195228538767 10.015028901863843,80.24382625205908 10.576878612861037,80.84635651277495 11.04508670559153,81.81040315833525 11.794219653354958,83.97950013793889 15.773988439468667,93.61979760421673 16.008092485833913,94.04155564022949 16.195375722600147,94.10180675407173 16.616763005731627,94.10180675407173 16.991329479962587,93.80055109941168 17.038150289095938,93.61979760421673 16.991329479962587,93.37879282489303 12.30924855498597,82.29242566341418 12.075144508853555,81.50913881591987 11.841040462488309,80.48483845865121 11.88786127185449,80.06306700778077 11.981502890354022,79.94256080233026 12.917919075349346,79.46053563966416 16.897687861463055,77.71318985547987 24.435838150326163,74.64025403014966 30.38208092516288,72.16983857567539 36.65606936439872,69.63915423795697 41.99364161887206,67.34947450784966 45.17745664762333,66.14437497212202 47.89306358387694,64.87901679216884 48.173988439608365,64.81876154712518 48.26763005787507,64.9392720288306 48.31445086700842,65.30080326963798 47.89306358387694,69.0366081331158 47.51849710987881,71.20577012351714 47.378034682013094,72.77238025073893 47.05028901738115,74.82101557429996 46.86300578061491,76.56837321590865 46.4416184972506,79.2195228538767 46.39479768811725,80.18357317926711 45.97341040475294,83.4974795410526 45.92658959538676,84.52177265801583 45.97341040475294,84.82303487104946 46.25433526048437,84.94353969665826 47.65895953774452,85.18454924560501 49.48497109836899,85.24480161149404 49.765895953867584,84.94353969665826 50.09364161873236,81.68989744689316 50.42138728359714,79.94256080233026 51.17052023136057,74.27873071181239 51.404624277492985,71.68780462219729 52.24739884422161,66.26488507908653 52.575144508853555,63.43288855778519 52.85606936435215,63.071355732448865 55.89942196570337,61.68547706081881 61.14335260144435,59.75729054279509 63.1098265897017,58.853450109105324 66.29364161891863,57.64832654944621 68.02601156081073,56.804738029954024 72.00578034715727,55.17781259826734 84.64739884412847,50.11622709129006 88.25260115624405,48.54953367949929 90.5,47.40463869765517 89.79768786160275,46.199482762254775 89.37630057823844,46.199482762254775 84.88150289049372,48.067473009374226" stroke="#4DD2FF" stroke-linecap="round" stroke-linejoin="round" stroke-width="0.5"><title>2026-02-25 5.01km</title><desc>17512463397</desc></polyline></g><text fill="#5A5A5A" style="font-size:6px; font-family:Arial; font-weight:bold;color:#0ed45e;" x="5" y="10">晨间跑步</text><text fill="#5A5A5A" style="font-size:4px; font-family:Arial" x="5" y="121">Runner</text><text fill="#5A5A5A" style="font-size:6px; font-family:Arial" x="2" y="128">蓝皮书</text><text fill="#5A5A5A" style="font-size:4px; font-family:Arial" x="25" y="121">WORKOUTS INFO</text><text fill="#5A5A5A" style="font-size:3px; font-family:Arial" x="25" y="125">Type: Run</text><text fill="#5A5A5A" style="font-size:3px; font-family:Arial" x="22" y="129">Date: 2026-02-25</text><text fill="#5A5A5A" style="font-size:3px; font-family:Arial" x="47" y="125">Distance: 5.01 km</text><text fill="#5A5A5A" style="font-size:3px; font-family:Arial" x="47" y="129">Duration: 40:37min</text><text fill="#5A5A5A" style="font-size:3px; font-family:Arial" x="75" y="125">Pace: 8:06/km</text><text fill="#5A5A5A" style="font-size:3px; font-family:Arial" x="75" y="129">Elevation: 0m</text></svg>