<?xml version="1.0" encoding="utf-8" ?>
<svg baseProfile="full" height="130mm" version="1.1" viewBox="0,0,100,130" width="100mm" xmlns="http://www.w3.org/2000/svg" xmlns:ev="http://www.w3.org/2001/xml-events" xmlns:xlink="http://www.w3.org/1999/xlink"><defs /><rect fill="#FAF9F5" height="130" width="100" x="0" y="0" /><g id="tracks"><polyline fill="none" points="52.05835325468797,32.74725314290845 50.66398492094595,33.51633430249058 48.87122563470621,34.02905398810981 47.54325579281431,34.62722585519077 46.31488368927967,34.96903781912988 44.48892515688203,35.823566037171986 42.430571902310476,37.19080615986604 40.106624679407105,37.87442390155047 38.91145182191394,38.08805412860238 37.815876702428795,38.55804009648273 37.08549328951631,38.942573526641354 36.32191063056234,39.198928874888225 35.65792570961639,39.54073566768784 32.63679431984201,40.52342804297223 31.44162146234885,41.249763831932796 30.080452374531887,41.71974488272099 29.582463684026152,42.53152861224953 29.28367046965286,43.04423300217604 28.71928328683134,44.667791164974915 28.420490072574466,45.65046686810092 28.022099119843915,47.91488132311497 27.955700627877377,48.42757657979382 28.022099119843915,49.282066741463495 27.9225013818359,50.606521717389114 27.65690741338767,52.74272718906286 27.358114199130796,53.896271865203744 27.358114199130796,55.09253576747142 27.192117968923412,55.81883654079866 27.092520230915397,56.844199367042165 27.092520230915397,58.21134439029265 26.82692626246717,59.32214516779641 26.727328524342738,60.47566473102779 26.56133229401894,61.11650703032501 26.262539079762064,62.73996810699464 26.196140587562695,63.33808314744965 25.830948881222866,64.53430967740132 25.764550389023498,65.55964293456054 25.59855415893253,66.45680668126442 25.63175340485759,67.78118639206514 25.43255792860873,68.80650863423944 25.465757174766622,70.5580927511619 25.13376471423544,72.82232059165835 25.00096773018595,74.31755609251559 24.702174515696242,76.45359397659195 24.370182055281475,77.90609111497179 24.270584317157045,79.18770044043777 24.10458808694966,79.82850306542241 24.0713888410246,80.34114418708486 24.137787332991138,81.53730342315976 23.838994118617848,83.58785110039753 23.80579487257637,84.78399748803349 23.50700165820308,86.06557765047182 23.639798642368987,87.85978074892773 23.40740392007865,89.31222307588905 22.942614475497976,91.44815499588731 22.876215983298607,92.2598051680543 22.975813721423037,92.47339695636765 23.00901296758093,92.94329835948884 23.04221221373882,93.15688966491143 23.175009197788313,93.28504437563242 23.341005427995697,93.37048081931425 25.13376471423544,93.66950818194891 26.262539079762064,93.96853524883045 27.026121738599613,94.05397149929195 29.316869715577923,94.78017865330912 31.44162146234885,95.59181987855118 33.13478301058058,96.48889448665432 35.392331741400994,97.85586019893526 38.97785031388048,100.67520745747606 41.434594521066174,102.17030518245883 42.1317786880536,102.51204076694557 43.12775606918149,102.89649283781182 43.393350037629716,103.06736026794533 44.887316109612584,103.49452842058963 45.9828912288649,103.96441269133356 47.808849761262536,104.56244616140611 47.410458808764815,104.3488629150961 45.05331233970355,103.4090948383382 44.8209176172968,103.23822760148323 44.787718371488154,103.06736026794533 44.787718371488154,102.85377596525359 44.887316109612584,102.21302215164178 45.02011309354566,101.87128622905584 46.04928972106427,100.11988356191432 47.576455038855784,97.77042502289987 48.60563166614156,96.27530553576071 49.2696165869711,95.42094822274521 50.79678190499544,93.66950818194891 51.89235702436417,92.55883362941677 54.913488414371386,89.95300423671142 56.639849208528176,88.75687830435345 58.79780020122416,87.47530955294496 59.760578336543404,87.0053996493225 61.38734139245935,86.23645459485124 63.41249540122226,85.46750758413691 65.4708486556774,84.82671691430733 67.99399135494605,84.27136390149826 71.24751746712718,83.88688814104535 72.47588957066182,83.84416858199984 75.62981794483494,83.88688814104535 75.72941568295937,84.01504678226775 75.79581417492591,84.35680289304582 75.62981794483494,85.33934955889708 75.56341945263557,86.6209273666027 75.29782548442017,89.0986290537403 75.03223151597194,93.54135363409296 74.96583302388899,93.84038082783809 74.70023905567359,94.05397149929195 73.83705865847878,94.18212582968408 71.91150238795672,94.69474260805873 69.75355139526073,95.42094822274521 67.29680718819145,96.6170477847918 65.03925845725462,98.06944803291117 62.61571349599399,100.20531807374209 61.15494667016901,101.74313515840913 59.72737909050193,103.7935457683052 58.565405478933826,105.84394247055752 58.29981151060201,106.4846885878651 58.366210002684966,106.65555398969445 59.12979266163893,107.16814961604541 60.457762503298,107.46716332994401 61.6197361148661,107.59531197385513 63.67808936943766,108.23605437896913 66.69922075932845,109.0476594758511 67.46280341828242,109.2185234290082 68.4919800455682,109.30395536939614 70.0523446095176,109.68839880244923 70.5171340542147,109.85926239358378 72.01110012608115,110.07284174658707 73.63786318222992,110.5 74.89943453168962,110.5 75.03223151597194,110.45728420180967 75.06543076212984,110.32913677112083 75.06543076212984,109.43210323472158 75.29782548442017,105.97209180262871 75.29782548442017,105.41677763778716 75.46382171451114,104.3488629150961 75.56341945263557,102.59747460274957 75.79581417492591,100.58977307836176 75.79581417492591,99.64999331496074 75.89541191305034,98.92379786024685 76.16100588138215,95.07920462155016 76.26060361950658,94.52387044523493 76.29380286566447,93.41319903201656 76.5261975878384,91.53359195869416 76.59259608003777,88.62872167376918 76.89138929417823,86.49276983024902 76.99098703253549,84.10048584622564 77.12378401670139,83.63057069585193 77.05738552450202,82.64801847524359 77.12378401670139,80.55474439784302 77.09058477065992,78.76049793575658 76.92458854033612,76.19727022750885 76.5261975878384,73.6767417837109 75.89541191305034,70.51537130813813 75.46382171451114,68.80650863423944 74.76663754764013,66.28591855385457 74.30184810305946,64.96153229061747 73.37226921389811,62.611800444254186 72.54228806274477,60.68927898167749 71.41351369721815,57.95500516949687 70.74952877650503,56.37424183677649 70.11874310171697,54.708022886683466 68.79077325994149,51.67462634059484 66.26763056067284,45.180491930572316 64.97285996517166,42.14699974906398 64.04328107601032,39.79709050836391 63.18010067869909,37.78897176828468 62.44971726590302,35.823566037171986 60.557360241538845,31.46544686029665 60.32496551936492,30.354543684021337 59.92657456663437,29.58545447711367 59.793777582468465,29.5 59.6277813523775,29.5 58.69820246321615,29.92727214403567 58.29981151060201,30.48272502812324 58.034217542386614,30.653633402456762 56.440653732279316,31.251811951282434 48.17404146771878,34.58449933255906" stroke="#4DD2FF" stroke-linecap="round" stroke-linejoin="round" stroke-width="0.5"><title>2026-01-26 8.06km</title><desc>17178116029</desc></polyline></g><text fill="#5A5A5A" style="font-size:6px; font-family:Arial; font-weight:bold;color:#0ed45e;" x="5" y="10">腊八</text><text fill="#5A5A5A" style="font-size:4px; font-family:Arial" x="5" y="121">Runner</text><text fill="#5A5A5A" style="font-size:6px; font-family:Arial" x="2" y="128">蓝皮书</text><text fill="#5A5A5A" style="font-size:4px; font-family:Arial" x="25" y="121">WORKOUTS INFO</text><text fill="#5A5A5A" style="font-size:3px; font-family:Arial" x="25" y="125">Type: Run</text><text fill="#5A5A5A" style="font-size:3px; font-family:Arial" x="22" y="129">Date: 2026-01-26</text><text fill="#5A5A5A" style="font-size:3px; font-family:Arial" x="47" y="125">Distance: 8.06 km</text><text fill="#5A5A5A" style="font-size:3px; font-family:Arial" x="47" y="129">Duration: 59:34min</text><text fill="#5A5A5A" style="font-size:3px; font-family:Arial" x="75" y="125">Pace: 7:23/km</text><text fill="#5A5A5A" style="font-size:3px; font-family:Arial" x="75" y="129">Elevation: 3m</text></svg>