<?xml version="1.0" encoding="utf-8" ?>
<svg baseProfile="full" height="130mm" version="1.1" viewBox="0,0,100,130" width="100mm" xmlns="http://www.w3.org/2000/svg" xmlns:ev="http://www.w3.org/2001/xml-events" xmlns:xlink="http://www.w3.org/1999/xlink"><defs /><rect fill="#FAF9F5" height="130" width="100" x="0" y="0" /><g id="tracks"><polyline fill="none" points="85.26212471118197,47.91222468245542 82.83025404135697,48.754856594867306 77.45207852171734,50.741053788719 73.24307159334421,52.60686695299228 70.81120092375204,53.44948957246379 65.19919168576598,55.73659970264998 61.92551963031292,57.18108397987089 60.52251732093282,57.96351091685938 57.10854503442533,59.28761476490763 55.56524249422364,60.00985149122425 48.55023094685748,62.778414258005796 46.539260969730094,63.68120257151895 36.06351039232686,67.8340041541378 34.566974595654756,68.55622638092609 24.558891454944387,72.40805756361806 20.724018475506455,74.03303839082946 18.94688221695833,74.87561860002461 11.370669745840132,77.824636199628 9.687066974351183,78.72739260518574 9.5,78.96812732354738 9.546766743529588,79.20886190549936 10.014434180222452,80.17179887244129 10.482101616449654,80.65326653927332 10.669168591266498,81.01436693200958 12.025404156884179,84.3244395928632 13.10103926062584,87.27339174013468 13.66224018461071,88.47703980759252 14.644341801293194,91.18523551704129 15.392609699629247,92.93050806818064 15.907043879618868,93.77305087712011 16.000577367143705,93.83323244238272 16.374711316311732,93.77305087712011 16.98267898382619,93.47214292237186 16.93591224006377,93.05087142862612 16.18764434172772,91.24541744816815 15.766743648797274,90.04177720763255 15.29907621233724,89.07886256510392 14.737875288585201,87.51412162577617 12.680138567928225,82.69949804802309 11.885103925829753,80.47271622807602 11.885103925829753,80.05143187084468 12.025404156884179,79.93106483496376 13.989607390249148,79.26904552982887 16.842378752538934,77.94500383082777 23.67032332555391,75.1163554964005 24.839491916587576,74.69506583854672 26.897228637244552,73.73211648344295 30.31120092375204,72.4682421492762 34.42667436483316,70.72288570954697 35.26847575046122,70.48214632860618 36.016743648797274,69.88029728096444 37.606812932761386,69.15807730064262 39.851616628002375,68.616411511146 43.452655889093876,66.93122464756016 45.88452655868605,66.08862871411839 47.614896073937416,65.36640230094781 48.08256351016462,65.30621671112021 48.222863741219044,65.48677345490432 47.895496535580605,66.69048312251107 47.66166281723417,68.49604124200414 47.614896073937416,69.39881743019214 46.86662817560136,75.35709225662868 46.63279445725493,78.78757629758911 46.3989607389085,79.63014709658455 46.3989607389085,81.31528369188891 45.83775981515646,85.04663384426385 45.931293302215636,85.16699943353888 46.11836027703248,85.22718221542891 47.334295612061396,85.22718221542891 49.67263279436156,85.46791325841332 49.90646651247516,85.22718221542891 49.95323325623758,84.68553687166423 50.140300231054425,83.12077978477464 50.56120092375204,80.65326653927332 50.79503464209847,78.24592276048497 51.6368360274937,71.44510303527932 52.43187066935934,65.7275156606047 52.75923787523061,63.74138839109219 52.946304849814624,63.50064506207127 53.226905311923474,63.32008747602231 54.2090069281403,62.778414258005796 54.67667436483316,62.71822830243036 54.863741339184344,62.778414258005796 54.95727482670918,62.95897207397502 54.95727482670918,63.56083090699394 54.34930715919472,67.17196603646153 54.255773671902716,68.25530060194433 53.55427251709625,73.37100991368061 53.460739030037075,75.05617128516315 52.99307159334421,78.12555521415197 52.618937644176185,81.49583364574937 52.15127020771615,84.92626822079183 52.19803695124574,85.04663384426385 52.29157043877058,85.16699943353888 53.03983833710663,85.04663384426385 53.27367205522023,84.92626822079183 53.460739030037075,84.50498827063711 53.741339491680264,81.2551003570261 54.39607390272431,77.22279753239127 54.67667436483316,76.80150995889562 55.19110854505561,76.25985389496782 55.61200923775323,75.95893356151646 58.09064665110782,74.87561860002461 59.306581986136734,74.45432870392688 65.99422632786445,71.62565717520192 68.42609699745663,70.78307053339086 70.15646651247516,69.82011232947116 72.63510392606258,68.91733703479986 73.19630484981462,68.43585609475849 73.28983833710663,68.13493023079354 73.24307159334421,67.8340041541378 71.60623556585051,63.80157420205069 70.76443417998962,61.93581010471098 70.4838337181136,60.912645676435204 68.94053117767908,57.12089723304962 68.98729792120866,56.94033694083919 70.3903002308216,55.917160505458014 71.18533487292007,55.49585184667376 76.32967667421326,53.32911501452327 83.76558891450986,50.31974000693299 89.09699769015424,48.09278880406055 90.5,47.37053185797413 90.26616628165357,46.8288383440522 89.93879907601513,46.407520690059755 89.70496535790153,46.22695585357724 89.42436489602551,46.16676755761728 88.86316397204064,46.28714414089336 87.83429561182857,46.768650133366464" stroke="#4DD2FF" stroke-linecap="round" stroke-linejoin="round" stroke-width="0.5"><title>2026-05-25 5.50km</title><desc>18641661103</desc></polyline></g><text fill="#5A5A5A" style="font-size:6px; font-family:Arial; font-weight:bold;color:#0ed45e;" x="5" y="10">晨间跑步</text><text fill="#5A5A5A" style="font-size:4px; font-family:Arial" x="5" y="121">Runner</text><text fill="#5A5A5A" style="font-size:6px; font-family:Arial" x="2" y="128">蓝皮书</text><text fill="#5A5A5A" style="font-size:4px; font-family:Arial" x="25" y="121">WORKOUTS INFO</text><text fill="#5A5A5A" style="font-size:3px; font-family:Arial" x="25" y="125">Type: Run</text><text fill="#5A5A5A" style="font-size:3px; font-family:Arial" x="22" y="129">Date: 2026-05-25</text><text fill="#5A5A5A" style="font-size:3px; font-family:Arial" x="47" y="125">Distance: 5.50 km</text><text fill="#5A5A5A" style="font-size:3px; font-family:Arial" x="47" y="129">Duration: 44:33min</text><text fill="#5A5A5A" style="font-size:3px; font-family:Arial" x="75" y="125">Pace: 8:05/km</text><text fill="#5A5A5A" style="font-size:3px; font-family:Arial" x="75" y="129">Elevation: 0m</text></svg>