<?xml version="1.0" encoding="utf-8" ?>
<svg baseProfile="full" height="130mm" version="1.1" viewBox="0,0,100,130" width="100mm" xmlns="http://www.w3.org/2000/svg" xmlns:ev="http://www.w3.org/2001/xml-events" xmlns:xlink="http://www.w3.org/1999/xlink"><defs /><rect fill="#FAF9F5" height="130" width="100" x="0" y="0" /><g id="tracks"><polyline fill="none" points="66.01746555545833,110.25003541645128 65.79389175900724,110.33335696868016 65.31480505259242,109.95840979198692 65.0273530286504,109.87508813024033 64.38857075327542,109.25017489030142 64.38857075327542,108.4586161528423 64.2927534119226,107.75037752420758 64.2927534119226,107.16712086161715 63.94142316048965,106.29223362950142 63.55815379519481,105.91728113649879 63.27070177125279,105.66731253368198 63.04712797491811,105.54232815018622 62.72773683711421,105.25069770868868 62.75967595097609,105.29235921855434 62.4402848132886,105.0423900676833 62.536102154525,104.95906696876045 62.66385860973969,104.8340822745522 62.4402848132886,104.58411272175726 62.34446747181937,104.45912786317058 62.34446747181937,104.08417295850813 62.12089367560111,103.45924702115008 61.993137220386416,103.1676144481462 61.801502537797205,102.95930528480676 61.961198106757365,102.70933408770361 61.70568519644439,102.4593626713322 61.64180696895346,102.16772907515406 61.45017228636425,101.95941918084281 61.577928741578944,101.87609518060344 61.51405051385518,101.3761506669689 61.32241583126597,101.12617808123468 61.03496380744036,100.75121879176004 60.4919988734182,100.66789443805465 60.14066862175241,100.29293454563594 60.26842507685069,100.00129873261903 60.52393798716366,99.83464956245734 60.58781621477101,99.33470146774198 60.26842507685069,99.04306467421702 60.04485128051601,98.66810264394735 59.565764573868364,98.29314012033865 59.37412989139557,98.0015022608859 59.054738753824495,97.29323764547007 58.76728672988247,96.75162234017625 57.87299154419452,95.91836601443356 57.10645281372126,95.62672572486917 56.403792310738936,95.3350851368159 55.988583831698634,95.00178124234662 54.96653219102882,93.37691917392658 54.80683662230149,92.08535553657566 54.35968902951572,90.37714947751374 53.75284586776979,89.79385725865723 53.08212447864935,89.37721922856872 52.28364663454704,88.87725278845755 51.70874258654658,88.91891669190954 51.03802119754255,88.79392496304354 50.87832562858239,88.91891669190954 50.33536069456022,88.25229350462905 50.01596955687273,88.29395749955438 49.50494373647962,87.75232509101625 48.4828920958098,86.96070664201397 47.65247513784561,86.75238563207677 46.31103235937189,86.37740743049653 45.640310970367864,86.04409305914305 45.25704160507303,85.91910006947 45.512554515269585,84.87748968967935 45.35285894642584,84.33585078766919 45.16122426383663,84.00253402863746 44.841833126032725,83.08591093099676 44.55438110220712,82.33594438523869 44.1391726230504,81.79430065254564 43.94753794046119,80.96100059201126 44.650198443443514,81.2526558903337 45.193163377582096,81.21099086603499 45.384798060171306,81.12766079916037 45.44867628777865,80.87767045199871 44.77795489854179,81.12766079916037 43.88365971297026,80.87767045199871 43.50039034767542,80.58601476988406 42.989364527515136,79.96103730300092 42.38252136565279,79.87770687046577 41.488226180314086,78.62774745907518 41.264652383862995,77.83610366299399 41.00913947366644,77.62777598260436 40.88138301856816,76.58613529647118 40.65780922223348,75.96114905711147 40.2106616293313,75.37782733037602 39.79545315052383,74.96116822303156 39.34830555773806,74.71117246619542 39.060853533796035,74.41951047282782 37.78328898292966,73.16952711952035 37.400019617634825,73.1278609133442 36.537663546041586,73.3361918834853 35.73918570170645,72.5861996782769 35.03652519872412,71.87787189419032 34.58937760593835,71.62787343232776 34.206108240643516,71.04454283523955 33.37569128267933,70.91954326623818 33.311813055188395,70.75287708887481 33.88671710307244,70.58621081413003 33.85477798921056,70.08621140467585 33.75896064785775,68.00287108880002 33.75896064785775,67.21119777506101 33.631204192875884,65.58617724009673 34.142230013152584,64.62782745211734 34.71713406115305,62.33610836803564 36.28215063572861,60.75272805232089 37.81522809679154,59.58602113701636 38.86921885109041,57.54427254004986 38.933097078697756,55.91919687384507 37.751349869184196,54.21077400032664 37.36808050388936,52.91903283199645 37.59165430045687,51.252261381043354 37.43195873149671,50.543880561803235 36.76123734237626,49.50214086359483 36.85705468361266,48.79375569327385 36.76123734237626,48.04369888728252 36.729298228630796,47.46032000653213 37.01675025257282,46.33522879178054 37.14450670755468,46.12687807934708 37.336141390143894,43.96002163752564 36.66542000102345,43.9183511598676 35.96275949804112,43.16828151929076 35.38785545027349,42.793245958542684 35.483672791393474,41.33476964040892 35.45173367788084,39.87628585641505 35.5794901328627,38.29278072313173 35.38785545027349,36.7926098468306 35.61142924660817,36.37589431274682 35.86694215668831,35.709148190304404 35.96275949804112,35.37577454390703 36.02663772564847,34.66735425029765 36.537663546041586,33.50054051482584 36.537663546041586,32.37539417287917 36.825115569867194,30.33345057311817 36.98481113871094,30.000070636393502 36.98481113871094,29.875053059484344 37.11256759380922,29.875053059484344 36.92093291122001,29.916725591290742 36.40990709082689,30.125088158325525 36.31408974947408,29.833380521740764 37.176445821416564,29.5 37.36808050388936,29.625017741374904 37.01675025257282,30.041743149864487 37.04868936620187,30.083415657136356 36.79317645612173,29.958398116956232 36.697359114768915,29.875053059484344 36.95287202484906,29.958398116956232 36.76123734237626,30.708502535446314 36.40990709082689,33.50054051482584 35.93082038417924,34.95905693760142 35.323977222666144,36.50090903698583 35.45173367788084,38.91784959018696 35.483672791393474,40.668035122711444 35.515611905255355,41.95983183381031 35.483672791393474,42.87658723691129 36.34602886333596,43.793339690280845 37.08062848006375,43.66832816571696 37.27226316276938,44.501737292914186 36.85705468361266,46.25188852506108 36.505724432179704,47.71033967312542 36.63348088716157,48.29371804205584 36.729298228630796,49.62714982847683 37.46389784535859,50.627219573099865 37.59165430045687,51.127253129088785 37.43195873149671,52.75235612562392 37.65553252783138,54.25244297282188 38.74146239599213,55.62751564499922 39.12473176117055,56.25254648400005 38.9969753063051,57.41926704865182 37.911045438144356,59.58602113701636 36.88899379747454,59.91936645741225 35.86694215668831,60.91940007885569 35.45173367788084,61.37774764903588 34.653255833429284,62.586114981910214 33.91865621681791,65.08616905723466 33.53538685163949,65.79451372395852 34.26998646836728,68.00287108880002 35.323977222666144,70.21121133927954 35.73918570170645,71.8362054991594 36.66542000102345,73.54452270123875 37.751349869184196,73.37785805921885 38.42207125830464,73.75285336669185 39.252488216385245,74.62784049863694 39.955148719251156,75.21116376057034 40.625870108488016,76.3778067023377 40.78556567733176,77.5861104282667 41.136895928764716,78.54441663675243 41.935373773099855,79.04440120546496 42.6060951622203,80.00270251001348 43.27681655145716,80.08603290608153 43.85172059922479,80.91933552501723 45.033467808854766,81.16932583562448 45.320919832680374,81.41931592684705 45.73612831160426,81.91929545148741 46.24715413188096,82.33594438523869 46.151336790644564,82.54426862372202 46.75817995227408,82.50260378816165 46.374910587095656,82.79425750876544 46.24715413188096,84.16919245693134 46.6304234971758,84.7108316757076 47.748292479198426,85.41912756228703 48.003805389394984,85.50245637443732 48.0676836167695,85.62744954694062 48.4828920958098,85.91910006947 48.80228323349729,86.2107502935396 49.50494373647962,86.62739295308711 49.600761077716015,86.87737825632212 49.76045664679259,87.2106916528719 49.82433487428352,87.3356840761844 50.01596955687273,87.79398915896309 50.71863005973864,88.66893317940412 50.910264742327854,88.83558887883555 51.38935144885909,89.04390836588573 52.47528131713625,89.08557224497781 52.98630713741295,89.41888305908651 53.4334547300823,89.54387451364892 54.168054346810095,90.04383978442638 54.51938459824305,91.41873975616181 54.87071484979242,92.83529642573558 54.93459307739977,93.50190889267833 55.158166873734444,94.00186721957289 55.669192694011144,94.87679218139965 56.148279400658794,95.16843323834473 56.723183448426425,95.58506280204165 57.87299154419452,96.04335461868322 59.37412989139557,96.66829681736999 59.50188634637743,97.04326147859683 60.04485128051601,97.83485192147782 60.74751178349834,97.91817710339092 61.098842034931295,98.12648995144991 61.45017228636425,98.08482739405008 61.67374608281534,98.12648995144991 62.152832789346576,98.0015022608859 62.82355417846702,98.0015022608859 63.142945316038094,97.75152671529213 63.653971136547625,99.16805190805462 63.68591025029309,99.20971430710051 64.54826632200275,99.29303908688598 64.67602277721744,99.54301328046131 65.18704859749414,100.62623225216521 65.37868328008335,101.04285383736715 65.05929214227945,101.54279893561034 64.1011187293334,101.79277115574223 63.813666705274954,102.2510529901192 63.74978847790044,102.70933408770361 63.43039733998012,102.79265784437303 63.142945316038094,103.45924702115008 62.951310633681715,104.29248129972257 62.66385860973969,105.29235921855434 63.07906708854716,105.79229686254985 63.59009290905669,106.37555633872398 64.1011187293334,106.70884693204425 64.26081429806072,107.33376574408612 64.19693607056979,108.00034430000233 64.35663163941354,108.5419382287364 64.77184011857025,109.45847945581772 65.21898771112319,110.16671383994981 65.41062239382882,110.45833925122861 65.88970910047647,110.5 66.27297846565489,110.25003541645128" stroke="#4DD2FF" stroke-linecap="round" stroke-linejoin="round" stroke-width="0.5"><title>2026-03-24 6.13km</title><desc>17835151281</desc></polyline></g><text fill="#5A5A5A" style="font-size:6px; font-family:Arial; font-weight:bold;color:#0ed45e;" x="5" y="10">虎头山青松岭翠微顶</text><text fill="#5A5A5A" style="font-size:4px; font-family:Arial" x="5" y="121">Runner</text><text fill="#5A5A5A" style="font-size:6px; font-family:Arial" x="2" y="128">蓝皮书</text><text fill="#5A5A5A" style="font-size:4px; font-family:Arial" x="25" y="121">WORKOUTS INFO</text><text fill="#5A5A5A" style="font-size:3px; font-family:Arial" x="25" y="125">Type: Hike</text><text fill="#5A5A5A" style="font-size:3px; font-family:Arial" x="22" y="129">Date: 2026-03-24</text><text fill="#5A5A5A" style="font-size:3px; font-family:Arial" x="47" y="125">Distance: 6.13 km</text><text fill="#5A5A5A" style="font-size:3px; font-family:Arial" x="47" y="129">Duration: 01:35:14</text><text fill="#5A5A5A" style="font-size:3px; font-family:Arial" x="75" y="125">Pace: 15:31/km</text><text fill="#5A5A5A" style="font-size:3px; font-family:Arial" x="75" y="129">Elevation: 485m</text></svg>