<?xml version="1.0" encoding="utf-8" ?>
<svg baseProfile="full" height="130mm" version="1.1" viewBox="0,0,100,130" width="100mm" xmlns="http://www.w3.org/2000/svg" xmlns:ev="http://www.w3.org/2001/xml-events" xmlns:xlink="http://www.w3.org/1999/xlink"><defs /><rect fill="#FAF9F5" height="130" width="100" x="0" y="0" /><g id="tracks"><polyline fill="none" points="90.5,45.41093699372141 87.46791443857364,46.83556992580998 83.42513369000517,48.32213848090032 76.78342245984823,51.2952604565653 69.70855614938773,53.95866509171901 62.97058823541738,56.86980977514759 60.034759358270094,57.92277223695419 53.4411764703691,60.83389057806926 48.628342245705426,62.69204110687133 43.52673796773888,64.98374923787196 42.46791443834081,65.35537645383738 41.072192513151094,65.91281668664305 38.85828876984306,66.71800688171061 35.20053475908935,68.32838283237652 32.55347593547776,69.31938047526637 29.810160427587107,70.62006147947977 27.54812834202312,71.3633060339198 24.804812834132463,72.66398096986813 16.334224598715082,76.00855593092274 9.59625668427907,78.98149001679849 9.5,79.04342592915054 9.5,79.47697706983308 9.88502673781477,80.34407806419767 10.462566844653338,80.83956357618445 10.751336897956207,81.33504852763144 15.323529411572963,92.8549156858935 15.804812834132463,93.845857852255 16.045454545412213,94.5890630062786 16.67112299450673,94.40326183606521 16.91176470555365,94.34132809503353 17.00802139029838,94.09359304368263 16.9598930478096,93.845857852255 15.275401069084182,89.51046932768077 11.810160427587107,80.90149922569981 11.617647058563307,80.34407806419767 11.617647058563307,80.09633509800187 11.762032085331157,79.97246356238611 13.735294117592275,79.35310535892495 22.687165775336325,75.57500135787996 25.57486630999483,74.52208132264786 31.783422459848225,71.85880170291057 32.794117646990344,71.61105393836624 39.435828876681626,68.70000721124234 44.8262032084167,66.53219389126753 46.51069518714212,65.97475444659358 49.109625668497756,64.79793551168405 49.205882352776825,64.85987342920271 49.205882352776825,65.10762501155841 48.724598930450156,67.275445380772 48.339572192169726,71.11555798904737 47.85828877007589,73.96465204429114 47.76203208533116,75.32725569486502 47.56951871654019,76.5659826087358 47.08823529398069,80.6537565747858 46.79946524044499,82.32601674969192 46.51069518714212,85.051167803118 46.60695187165402,85.23697293948499 47.13636363623664,85.4227779971261 50.601604277966544,85.67051795122097 50.794117646990344,85.48471299867379 50.842245989246294,85.29890796748805 51.131016042781994,82.01633942115586 51.467914438573644,80.03439933469053 52.57486630999483,72.29235995360068 52.81550802150741,69.44325502289576 53.48930481285788,64.4263078228687 53.63368983962573,63.00173209531931 53.537433154881,62.8778557262267 53.24866310157813,62.939793915109476 51.85294117638841,63.683051499538124 49.542780748801306,64.67405965045327 49.254010695032775,65.04568712910987 49.157754010753706,65.54118994349847 49.109625668497756,66.71800688171061 48.58021390391514,70.37231301443535 48.532085561426356,71.42524302314268 48.09893048112281,74.52208132264786 48.05080213886686,75.76081051307847 47.71390374330804,77.61889773173607 47.04010695195757,83.1931121054804 46.75133689842187,84.98923274019035 46.79946524044499,85.23697293948499 47.13636363623664,85.36084298655624 50.409090909175575,85.60858297566301 50.842245989246294,85.48471299867379 50.93850267352536,85.11310285728541 50.93850267352536,83.81246488023316 51.22727272706106,81.14924173659529 51.85294117638841,77.61889773173607 51.94919786090031,76.38017379495432 52.28609625645913,73.53109544847393 52.52673796797171,72.54010733278119 53.58556149713695,63.86886569854687 53.7299465239048,62.939793915109476 53.8262032084167,62.75397932200576 54.2112299464643,62.50622640855727 57.05080213909969,61.45327496342361 60.371657754061744,59.904812358290656 64.36631016037427,58.23246659716824 65.32887700526044,57.92277223695419 67.59090909082443,56.931748813483864 70.91176470601931,55.69296638149535 83.37700534751639,50.490041913843015" stroke="#4DD2FF" stroke-linecap="round" stroke-linejoin="round" stroke-width="0.5"><title>2026-03-03 5.51km</title><desc>17582165653</desc></polyline></g><text fill="#5A5A5A" style="font-size:6px; font-family:Arial; font-weight:bold;color:#0ed45e;" x="5" y="10">晨间跑步</text><text fill="#5A5A5A" style="font-size:4px; font-family:Arial" x="5" y="121">Runner</text><text fill="#5A5A5A" style="font-size:6px; font-family:Arial" x="2" y="128">蓝皮书</text><text fill="#5A5A5A" style="font-size:4px; font-family:Arial" x="25" y="121">WORKOUTS INFO</text><text fill="#5A5A5A" style="font-size:3px; font-family:Arial" x="25" y="125">Type: Run</text><text fill="#5A5A5A" style="font-size:3px; font-family:Arial" x="22" y="129">Date: 2026-03-03</text><text fill="#5A5A5A" style="font-size:3px; font-family:Arial" x="47" y="125">Distance: 5.51 km</text><text fill="#5A5A5A" style="font-size:3px; font-family:Arial" x="47" y="129">Duration: 38:48min</text><text fill="#5A5A5A" style="font-size:3px; font-family:Arial" x="75" y="125">Pace: 7:02/km</text><text fill="#5A5A5A" style="font-size:3px; font-family:Arial" x="75" y="129">Elevation: 6m</text></svg>