<?xml version="1.0" encoding="utf-8" ?>
<svg baseProfile="full" height="130mm" version="1.1" viewBox="0,0,100,130" width="100mm" xmlns="http://www.w3.org/2000/svg" xmlns:ev="http://www.w3.org/2001/xml-events" xmlns:xlink="http://www.w3.org/1999/xlink"><defs /><rect fill="#FAF9F5" height="130" width="100" x="0" y="0" /><g id="tracks"><polyline fill="none" points="88.34000000008382,46.58372594794491 87.7765217393171,46.82545577597921 87.0721739132423,47.00675305747427 86.3208695652429,47.2484826464206 85.56956521747634,47.49021209849161 84.81826086947694,47.73194141421118 84.06695652171038,47.97367059288081 83.26869565225206,48.33626410472789 82.5173913044855,48.63842512955307 81.7660869564861,48.88015379564604 81.01478260871954,49.121882324892795 80.3104347824119,49.36361071752617 79.51217391295359,49.66577101626899 78.80782608687878,49.96793110112776 78.05652173911221,50.27009097242262 77.3521739130374,50.57225063024089 76.60086956527084,50.81397820243728 75.84956521727145,51.116137475619325 75.05130434781313,51.41829653529567 74.30000000004657,51.66002362902509 73.54869565228,52.022614013490966 72.79739130428061,52.38520409035846 72.04608695651405,52.6873622527055 71.34173913043924,52.98952020145953 70.68434782605618,53.35210945803556 69.93304347828962,53.65426693682093 69.1347826088313,54.01685562948114 68.38347826083191,54.31901263835607 67.58521739160642,54.62116943366709 66.88086956529878,54.92332601521048 66.08260869560763,55.28591363126179 65.28434782614931,55.64850093971472 64.5800000000745,55.95065679500112 63.82869565230794,56.1923813255853 63.124347826233134,56.4945367964101 62.419999999925494,56.79669205364189 61.621739130467176,57.15927808036213 60.91739130415954,57.52186379957129 60.11913043470122,57.82401833072072 59.41478260862641,58.1261726480443 58.66347826085985,58.42832675186219 57.912173913093284,58.73048064202885 57.16086956509389,59.03263431877713 56.36260869563557,59.33478778169956 55.61130434786901,59.63694103102898 54.81304347841069,59.939094066794496 54.0617391304113,60.24124688911252 53.49826086964458,60.54339949769201 52.93478260864504,60.724690960225416 52.41826086957008,61.026843227184145 51.80782608687878,61.32899528040434 51.19739130442031,61.63114711988601 50.63391304342076,61.87286843796028 49.78869565203786,62.17501989303855 48.99043478257954,62.47717113455292 48.14521739119664,62.77932216250338 47.300000000046566,63.081472977035446 46.54869565204717,63.38362357771257 45.750434782588854,63.74620401673019 44.952173912897706,64.16921414015815 44.20086956513114,64.47136397191207 43.35565217374824,64.71308368360042 42.60434782598168,65.0756629948155 41.80608695652336,65.4382419984031 41.054782608756796,65.67996116320137 40.25652173929848,65.98210992716486 39.505217391299084,66.34468816197477 38.75391304353252,66.707266089099 37.9556521740742,67.00941412671818 37.20434782584198,67.2511324029474 36.40608695638366,67.55328005630872 35.6547826086171,67.91585695819231 34.903478260850534,68.21800414155587 34.105217391392216,68.58058047958184 33.35391304362565,68.88272719283123 32.60260869562626,69.18487369286595 31.89826086955145,69.42659073890536 31.146956521552056,69.7891660516616 30.34869565232657,70.15174105699407 29.597391304327175,70.4538866597286 28.84608695656061,70.75603204895742 28.09478260879405,71.11860623405664 27.2965217391029,71.42075115349144 26.59217391302809,71.72289585907129 25.887826086953282,72.02504035134916 25.13652173918672,72.2667557913519 24.385217391187325,72.62932869486394 23.586956521729007,72.93147254624637 22.882608695421368,73.17318747364334 22.225217391271144,73.47533094073879 21.47391304350458,73.7774741941248 20.722608695738018,74.07961723388871 19.971304347738624,74.44218859981629 19.266956521663815,74.74433116978616 18.51565217389725,75.10690197185613 17.764347826130688,75.40904407188646 17.013043478131294,75.7716143099824 16.26173913036473,76.01332763134269 15.557391304289922,76.3154690907686 14.806086956290528,76.67803856002865 14.054782608523965,76.9801795494568 13.350434782681987,77.22189218740095 12.599130434682593,77.52403279260034 11.941739130299538,77.82617318406119 11.190434782532975,78.12831336204545 10.439130434766412,78.43045332623296 9.969565217383206,78.6117372023873 9.5,78.91387682518689 9.59391304361634,79.39729977710522 9.92260869545862,79.94114994470146 10.345217391150072,80.36414404105744 10.673913043458015,81.08927580394084 10.861739130225033,81.87483382548089 11.190434782532975,82.66039040315081 11.519130434608087,83.44594553732895 11.84782608691603,84.29192637497908 12.082608695607632,85.01705147477333 12.36434782599099,85.80260227798135 12.693043478298932,86.58815163740655 13.021739130374044,87.43412625638302 13.303478260757402,88.21967261770624 13.632173913065344,89.00521753521753 14.007826087065041,89.79076100932434 14.289565217215568,90.51587678093347 14.665217391215265,91.36184362656786 14.946956521831453,92.1473827699956 15.32260869559832,92.93292046978604 15.604347826214507,93.59760508820182 16.073913043364882,93.83930832962506 16.731304347747937,93.53717925652745 16.731304347747937,93.05377229547594 16.44956521736458,92.32866082890541 16.167826086981222,91.60354813217418 15.933043478289619,91.05971280267113 15.698260869365185,90.51587678093347 15.510434782598168,90.03246640309226 15.275652173673734,89.48862907479634 15.087826087139547,88.9447910542658 14.806086956290528,88.46137889983947 14.571304347831756,87.91753957251785 14.430434782523662,87.37369955333997 14.195652173832059,86.89028562203748 13.960869565140456,86.3464442960103 13.726086956448853,85.80260227798135 13.49130434799008,85.31918656968628 13.256521738832816,84.77534324480803 13.06869565229863,84.17107207211666 12.786956521682441,83.62722728631343 12.552173913223669,83.02295449067606 12.317391304299235,82.53953563899267 12.129565217532218,81.99568877741694 11.941739130299538,81.45184122392675 11.75391304329969,80.90799297843478 11.519130434608087,80.42457173488219 11.613043478224427,79.88072218257003 12.317391304299235,79.45772760763066 13.115652173990384,79.15558836943819 13.866956521756947,78.79302100156201 14.571304347831756,78.55130925230333 15.275652173673734,78.24916937339003 15.979999999981374,78.00745731627103 16.684347826056182,77.76574512280058 17.435652173822746,77.4636046885862 18.18695652182214,77.16146404060419 18.891304347664118,76.8593231793493 19.64260869566351,76.55718210438499 20.393913043430075,76.37589735694928 21.14521739119664,76.0737559403351 21.943478260887787,75.7716143099824 22.69478260865435,75.40904407188646 23.352173913037404,75.04647352613392 24.103478260803968,74.74433116978616 24.807826086878777,74.50261713084183 25.55913043487817,74.20047439009068 26.35739130433649,73.89833143571741 27.10869565210305,73.59618826760561 27.859999999869615,73.23361618426861 28.611304347636178,72.99190129098133 29.315652173943818,72.68975748229423 30.06695652171038,72.32718462991761 30.818260869476944,72.02504035134916 31.569565217476338,71.72289585907129 32.367826086934656,71.4811801116739 33.11913043470122,71.17903523493442 33.82347826100886,70.87689014480566 34.57478260854259,70.6351739189704 35.27913043485023,70.33302844426362 35.98347826069221,69.97045359271578 36.7347826086916,69.66830764818587 37.486086956458166,69.36616149017937 38.284347825916484,69.00358581845649 39.08260869560763,68.64100983930985 39.78695652168244,68.39929234894225 40.49130434775725,68.09714529381017 41.19565217383206,67.79499802508508 41.9000000001397,67.49285054267966 42.60434782598168,67.19070284676854 43.26173913036473,66.94898453625501 44.013043478131294,66.64683645585319 44.81130434782244,66.40511783779948 45.28086956520565,66.46554750500945 45.233913043513894,67.19070284676854 45.140000000130385,68.03671585710254 45.046086956514046,68.88272719283123 44.952173912897706,69.72873685427476 44.81130434782244,70.51431575458264 44.717391304438934,71.2394642274594 44.623478260822594,71.96461146994261 44.67043478274718,72.50847109450842 44.57652173889801,73.17318747364334 44.529565217206255,73.7774741941248 44.38869565236382,74.38176006011781 44.29478260898031,75.22775883739814 44.20086956513114,76.0737559403351 44.1069565215148,76.91975136875408 44.013043478131294,77.82617318406119 43.919130434747785,78.67216514411848 43.825217391364276,79.45772760763066 43.68434782605618,80.36414404105744 43.59043478267267,81.21013097796822 43.44956521736458,81.99568877741694 43.35565217374824,82.78124513317016 43.308695652289316,83.62722728631343 43.308695652289316,84.29192637497908 43.54347826074809,84.77534324480803 44.1069565215148,84.8357703150541 44.717391304438934,84.8357703150541 45.3278260868974,84.89619737671455 45.750434782588854,84.6544890786463 45.89130434789695,83.86893616549787 46.03217391297221,83.08338180879946 46.173043478047475,82.29782600828912 46.3139130435884,81.51226876411238 46.40782608697191,80.6662824251689 46.50173913035542,79.82029441170744 46.64260869566351,79.03473261446925 46.783478260971606,78.18874137185048 46.83043478266336,77.34274845506297 46.877391304355115,76.496753863903 47.06521739135496,75.59032922939514 47.11217391281389,74.74433116978616 47.20608695666306,73.89833143571741 47.25304347812198,73.17318747364334 47.393913043430075,72.32718462991761 47.487826087046415,71.4811801116739 47.58173913042992,70.69560298821307 47.76956521719694,69.97045359271578 47.86347826104611,69.18487369286595 48.004347826121375,68.33886295490083 48.05130434781313,67.55328005630872 48.19217391288839,66.707266089099 48.38000000012107,65.86125044725486 48.47391304350458,64.95480325864628 49.08434782619588,64.53179391278536 49.8826086956542,64.22964412352303 50.68086956534535,63.867064094753005 51.43217391311191,63.56491383560933 51.94869565218687,63.323193474760046 52.41826086957008,63.26276336298906 52.46521739126183,63.867064094753005 52.37130434787832,64.5922238448984 52.32434782595374,65.4382419984031 52.18347826087847,66.22382878456847 52.04260869557038,67.00941412671818 51.94869565218687,67.79499802508508 51.85478260880336,68.64100983930985 51.76086956541985,69.48701997904573 51.66695652157068,70.33302844426362 51.573043478187174,71.17903523493442 51.479130434570834,71.96461146994261 51.43217391311191,72.75018626105157 51.291304347803816,73.5357596083777 51.24434782611206,74.38176006011781 51.15043478272855,75.16733040884719 50.962608695728704,75.89247098789201 50.82173913042061,76.67803856002865 50.7278260870371,77.34274845506297 50.63391304342076,77.82617318406119 50.58695652149618,78.43045332623296 50.54000000003725,78.97430472407723 50.49304347811267,79.57858324315748 50.352173913037404,80.18286090824404 50.30521739157848,80.78713771884213 50.258260869653895,81.39141367530101 50.164347826037556,81.99568877741694 50.1173913043458,82.53953563899267 50.070434782421216,83.14380911816261 49.92956521734595,83.92936336397543 49.835652173962444,84.9566244300513 50.070434782421216,85.62132145141368 50.962608695728704,85.62132145141368 51.80782608687878,85.44004054818652 52.700000000186265,85.01705147477333 53.216521739261225,84.41278064373182 53.35739130433649,83.56680004528607 53.45130434772,82.72081777255516 53.54521739133634,81.87483382548089 53.68608695664443,81.08927580394084 53.733043478336185,80.24328862762195 53.826956521719694,79.57858324315748 53.87391304364428,78.97430472407723 53.96782608702779,78.43045332623296 54.01478260871954,77.82617318406119 54.10869565210305,77.10103588568745 54.20260869548656,76.19461253265035 54.343478261027485,75.34861566888867 54.437391304410994,74.38176006011781 54.62521739117801,73.5357596083777 54.71913043479435,72.68975748229423 54.81304347841069,71.78332477470394 54.9069565217942,70.9977482065151 55.04782608686946,70.15174105699407 55.14173913025297,69.36616149017937 55.2826086957939,68.58058047958184 55.32956521748565,67.67413905763533 55.42347826086916,66.76769571352634 55.51739130425267,65.80082069450873 55.65826086956076,64.95480325864628 55.7521739131771,64.16921414015815 55.79913043486886,63.56491383560933 55.893043478252366,62.96061267686309 55.986956521635875,62.29588041536044 56.22173913032748,61.75200779605075 56.64434782601893,61.32899528040434 57.16086956509389,61.14770407398464 57.67739130463451,60.905982346099336 58.19391304347664,60.66426048130961 58.7104347825516,60.42253847990651 59.3208695652429,60.18081634165719 59.93130434770137,59.9995246482722 60.494782608468086,59.69737165540573 61.01130434777588,59.455649107083445 61.57478260854259,59.21392642214778 62.13826086954214,58.911772873747395 62.74869565223344,58.609619111724896 63.40608695661649,58.42832675186219 63.875652173766866,58.24703431528178 64.43913043476641,58.065741801750846 65.00260869576596,57.88444921118207 65.80086956522427,57.642725637793774 66.64608695660718,57.280140021059196 67.4443478260655,56.91755409681355 68.24260869575664,56.554967865056824 69.22869565221481,56.313243539625546 70.12086956528947,55.89022564110928 70.82521739136428,55.588069742923835 71.52956521743909,55.225482383335475 72.3278260868974,54.86289471600321 73.03217391297221,54.62116943366709 73.64260869566351,54.37944401439745 74.39391304343008,54.07728704827605 75.14521739142947,53.77512986853253 75.8965217389632,53.472972475225106 76.69478260865435,53.17081486809184 77.54000000003725,52.80822545790579 78.24434782611206,52.56649901336641 78.99565217387863,52.20390909042908 79.79391304356977,51.901750586141134 80.54521739156917,51.5995918684348 81.2965217391029,51.23700112508959 82.09478260879405,50.87441007408779 82.84608695656061,50.63268253605929 83.59739130456,50.33052292102366 84.30173913040198,50.08879507528036 85.05304347840138,49.78663507589954 85.7104347825516,49.4240427945042 86.22695652162656,49.182314435980516 86.97826086962596,48.88015379564604 87.82347826077603,48.577992941776756 88.62173913046718,48.27583187405253 89.4199999999255,47.97367059288081 90.07739130430855,47.73194141421118 90.45304347830825,47.49021209849161 90.35913043492474,47.06718546760385 90.07739130430855,46.52329346953775 89.51391304377466,46.10026588127948 88.90347826085053,46.341995982977096" stroke="#4DD2FF" stroke-linecap="round" stroke-linejoin="round" stroke-width="0.5"><title>2026-07-27 5.33km</title><desc>1785107769000</desc></polyline></g><text fill="#5A5A5A" style="font-size:6px; font-family:Arial; font-weight:bold;color:#0ed45e;" x="5" y="10">雨后晴天跑</text><text fill="#5A5A5A" style="font-size:4px; font-family:Arial" x="5" y="121">Runner</text><text fill="#5A5A5A" style="font-size:6px; font-family:Arial" x="2" y="128">蓝皮书</text><text fill="#5A5A5A" style="font-size:4px; font-family:Arial" x="25" y="121">WORKOUTS INFO</text><text fill="#5A5A5A" style="font-size:3px; font-family:Arial" x="25" y="125">Type: Run</text><text fill="#5A5A5A" style="font-size:3px; font-family:Arial" x="22" y="129">Date: 2026-07-27</text><text fill="#5A5A5A" style="font-size:3px; font-family:Arial" x="47" y="125">Distance: 5.33 km</text><text fill="#5A5A5A" style="font-size:3px; font-family:Arial" x="47" y="129">Duration: 44:06min</text><text fill="#5A5A5A" style="font-size:3px; font-family:Arial" x="75" y="125">Pace: 8:16/km</text><text fill="#5A5A5A" style="font-size:3px; font-family:Arial" x="75" y="129">Elevation: 0m</text></svg>