<?xml version="1.0" encoding="utf-8" ?>
<svg baseProfile="full" height="130mm" version="1.1" viewBox="0,0,100,130" width="100mm" xmlns="http://www.w3.org/2000/svg" xmlns:ev="http://www.w3.org/2001/xml-events" xmlns:xlink="http://www.w3.org/1999/xlink"><defs /><rect fill="#FAF9F5" height="130" width="100" x="0" y="0" /><text fill="#5A5A5A" style="font-size:6px; font-family:Arial; font-weight:bold;color:#0ed45e;" x="5" y="10">晨间跑步</text><text fill="#5A5A5A" style="font-size:4px; font-family:Arial" x="5" y="121">Runner</text><text fill="#5A5A5A" style="font-size:6px; font-family:Arial" x="2" y="128">蓝皮书</text><text fill="#5A5A5A" style="font-size:4px; font-family:Arial" x="25" y="121">WORKOUTS INFO</text><text fill="#5A5A5A" style="font-size:3px; font-family:Arial" x="25" y="125">Type: Run</text><text fill="#5A5A5A" style="font-size:3px; font-family:Arial" x="22" y="129">Date: 2026-01-12</text><text fill="#5A5A5A" style="font-size:3px; font-family:Arial" x="47" y="125">Distance: 13.14 km</text><text fill="#5A5A5A" style="font-size:3px; font-family:Arial" x="47" y="129">Duration: 01:35:09</text><text fill="#5A5A5A" style="font-size:3px; font-family:Arial" x="75" y="125">Pace: 7:14/km</text><text fill="#5A5A5A" style="font-size:3px; font-family:Arial" x="75" y="129">Elevation: 4m</text><polyline fill="none" points="35.42087496619206,52.167931094547384 31.439778557862155,53.828858381079044 30.980421279906295,54.11037010725704 30.236699972883798,54.335579201666405 25.052524979691952,56.475052893481916 24.61504185781814,56.700259313191054 24.57129354577046,56.78471165490919 24.636916014016606,57.12252066352812 24.61504185781814,57.46032909904898 24.374426140915602,58.44560042914236 24.221307048224844,59.571618836402195 23.915068862959743,62.35848701096256 23.849446394713596,62.86518612476357 23.60883067769464,63.96302978125459 23.171347555937245,68.04470310997567 22.886983526754193,70.24032725767756 22.64636780973524,72.5485214124783 22.4057520928327,73.7589052146941 22.25263300014194,75.13817081162415 22.14326221961528,76.09520663211879 22.14326221961528,76.48927886839374 22.230758844059892,76.77075855976727 22.38387793675065,77.0240899417986 22.58074534148909,77.13668156373024 22.690116122015752,77.10853366416995 23.25884418026544,76.88335032486066 24.002565487404354,76.63001876386988 25.380637321039103,76.32039086260193 26.01498784753494,76.5455748384702 26.80245746683795,76.34853887352801 27.349311369122006,76.29224284773227 27.633675398188643,76.34853887352801 28.355522549245507,76.65816673095105 28.858628139365464,76.6863146941032 29.121118012350053,76.65816673095105 29.5367269780254,76.5455748384702 30.455441533820704,76.0670585854532 30.783553875167854,75.98261442132934 31.374156089499593,75.98261442132934 32.2053740209667,76.09520663211879 32.73035376716871,76.03891053469852 33.23345935717225,75.92631829208403 33.5178233863553,75.81372598592134 34.524034566478804,75.13817081162415 34.852146907825954,74.99742986180354 35.55211990268435,74.96928165994177 35.90210640022997,75.05372625374002 36.3177153657889,75.25076349976007 36.42708614631556,75.25076349976007 36.84269511210732,74.77224413532531 37.192681609420106,74.46261334554583 37.870780448196456,74.06853709858842 38.198892789543606,73.92779539283947 38.63637591141742,73.84335032166564 39.27072643802967,73.8152019566769 40.10194436926395,73.89964703979786 40.43005671072751,74.0122404282738 40.53942749113776,74.09668542783766 40.7362948958762,74.40631678656791 40.82379152032081,74.46261334554583 40.88941398856696,74.43446506799955 41.17377801775001,73.98409208716475 41.480016202898696,73.7589052146941 41.78625438828021,73.56186649244046 42.22373751003761,73.39297600384452 42.59559816354886,73.30853070580633 42.83621388056781,73.30853070580633 43.4049419388175,73.47742126604135 43.68930596811697,73.53371808756492 44.89238455297891,73.39297600384452 45.92046988918446,73.42112442851067 46.489197947550565,73.22408537205774 46.57669457187876,73.1677884629753 46.77356197673362,72.88630367872247 47.07980016199872,72.74556113746075 47.276667566853575,72.77370965362934 47.67040237633046,72.94260066741845 48.042263029841706,73.0270461205655 49.59532811224926,72.66111556491524 50.07655954628717,72.6329670327541 50.14218201453332,72.71741261726129 50.317175263306126,73.1677884629753 50.47029435588047,73.28038226530771 50.97339994588401,73.78705358764273 51.06089657032862,74.1811303915747 51.17026735073887,74.49076161907578 51.62962462869473,74.46261334554583 54.58263570070267,73.78705358764273 59.94180394266732,72.83000667417946 67.75087766675279,71.22553535265615 68.82271131512243,70.97219659369148 69.54455846606288,70.88775026913208 72.03821226023138,70.29662499441474 72.45382122602314,70.07143395202002 72.56319200643338,69.93068942111859 72.60694031859748,69.81809372478165 72.56319200643338,69.62105110308039 72.30070213333238,69.0580711094517 72.14758304075804,68.46694040311559 72.08196057251189,67.93210634714342 72.08196057251189,67.36912157842016 72.12570888467599,66.89058327350358 72.32257628941443,65.96165269274206 72.82568187953439,64.83567042124923 73.21941668912768,64.10377853030514 74.22562786925118,62.52738685887016 75.14434242504649,61.42953528674843 76.17242776125204,60.41612846292264 76.63178503909148,60.02202441627742 77.92236024839804,59.149362679891055 78.55671077501029,58.811557109991554 79.73791520379018,58.27669711885392 81.11598703742493,57.82628759078216 82.01282743713818,57.601082444758504 83.12840939778835,57.43217841802107 83.78463408048265,57.40402773300593 84.57210369966924,57.37587704391626 85.88455306505784,57.46032909904898 87.54698892787565,57.741835690889275 88.11571698612534,57.938890068326145 88.42195517150685,58.0796430757473 88.7938158250181,58.30484768048336 89.23129894665908,58.64265411006636 89.55941128812265,59.06491134114913 90.1062651904067,59.93757344763435 90.25938428298105,60.27537710726028 90.4562516878359,60.95098270715971 90.5,61.40138516687148 90.4562516878359,62.02068688545842 90.34688090742566,62.639986677866546 90.12813934648875,63.2874344013253 89.55941128812265,64.49787449814903 89.1000540102832,65.22976494055183 88.7063192006899,65.76460625483014 87.76573048881255,66.91873261748697 87.2626248986926,67.48171865954646 86.8251417769352,67.9039571465255 85.92830137722194,68.69213326003228 84.83459357277025,69.45215727208415 84.09087226574775,69.90254050304065 82.27531731023919,70.77515511400998 81.68471509579103,71.02849412363139 80.83162300835829,71.30998153396649 80.26289494999219,71.45072508990415 78.20672427758109,71.78850921840058 77.35363219003193,71.8729551609722 76.65365919517353,71.8729551609722 76.08493113680743,71.81665786988742 74.96934917627368,71.50702248445305 74.20375371328555,71.22553535265615 73.35066162561998,71.36627896830032 71.14137186063454,71.81665786988742 68.77896300295833,72.21073857315059 66.11031595990062,72.74556113746075 60.77302187413443,73.73075683771458 57.25128274364397,74.49076161907578 54.05765595450066,75.11002262958209 52.87645152572077,75.39150427046116 52.08898190641776,75.50409681544988 51.58587631653063,75.64483740719152 46.86105860106181,76.5737228175276 45.24237105040811,76.96779410696763 39.20510396966711,78.23444654104242 36.339589521987364,78.54407146621088 35.13651093700901,78.6003668554331 34.17404806916602,78.65666222883738 33.10221442067996,78.6003668554331 28.858628139365464,78.90999121167988 26.671212530345656,78.93813885653799 24.877531730919145,79.21961508657841 23.871320550795645,79.52923847995407 22.886983526754193,79.95145142247202 22.843235214590095,80.03589390353591 22.996354307280853,80.31736858192016 23.25884418026544,80.48625319793064 23.39008911687415,80.68328506893886 23.586956521729007,81.04920088368817 24.024439643369988,81.33067412985838 24.396300296881236,81.33067412985838 24.396300296881236,81.64029424109322 24.527545233489946,81.86547220149077 24.593167701736093,82.28768019084237 24.833783418755047,82.51285741916217 25.030650823493488,82.82247569238825 26.080610315781087,83.38541677415196 26.583715905901045,83.86391544253274 26.058736159815453,84.39870671127574 25.8181204427965,84.59573471151816 24.855657574837096,85.04608369422203 24.724412638344802,85.04608369422203 24.636916014016606,84.98979012707423 24.57129354577046,84.84905613961746 24.199432892142795,83.63873974180024 23.893194706877694,82.87876987220079 23.696327302139252,82.56915168646083 23.565082365530543,82.20323866455874 23.49945989740081,81.83732497031451 23.149473399855196,81.38696873134177 22.865109370672144,80.82402200037905 22.60261949757114,80.42995834181784 22.515122873242944,80.23292622015288 22.449500404996797,80.20477875829965 22.449500404996797,80.51440062004258 22.558871185407043,80.88031674511149 22.60261949757114,81.30252682315768 22.493248717160895,81.47141060378635 22.208884687977843,81.5558524402586 22.14326221961528,81.61214697809191 21.880772346747108,82.23138584394474 21.618282473646104,84.2298254131747 21.487037537037395,84.90534974647744 21.421415068791248,85.69345857264125 21.246421820134856,86.25639153894736 20.633945449488238,87.6074241661845 20.283958952175453,88.73327768773015 20.108965703402646,89.1273249166552 20.0433432351565,89.77468652867537 19.933972454746254,90.16873169710743 19.693356737610884,90.5346300839883 19.518363488838077,90.56277608587698 18.57777477707714,90.30946192542615 17.374696192215197,90.14058563947037 17.134080475196242,90.02800136932638 17.090332163032144,89.91541703548864 17.090332163032144,89.66210205169045 17.374696192215197,87.86074176346301 17.702808533562347,84.90534974647744 17.87780178221874,83.77947458457493 17.9434242505813,83.30097571336955 17.921550094382837,83.1883875765634 17.85592762613669,83.10394643223844 17.65906022139825,83.16024053243746 16.718471509520896,83.8920623872109 15.537267080624588,85.01793691258354 14.334188495762646,86.31268474814715 13.699837969150394,87.10078800503106 13.065487442538142,87.97332725882006 12.67175263282843,88.67698516280507 12.343640291597694,89.32434823873336 12.190521198906936,89.35249441166525 11.906157169723883,89.23990969597071 11.31555495527573,89.07103250306682 11.271806643228047,89.0147400736023 11.337429111474194,88.76142394424824 12.824871725519188,86.53785742550099 13.393599783885293,85.91863195020414 14.202943559270352,84.93349654402118 15.16540642711334,83.97650319735112 16.19349176331889,83.07579937610717 16.740345665602945,82.54100455481966 18.00904671882745,81.5558524402586 18.162165811401792,81.38696873134177 18.402781528420746,79.61368114010838 18.380907372222282,79.41664821082668 18.20591412356589,79.44479578406026 16.6309748851927,80.45810577188968 15.756008641561493,81.13364289935271 14.640426681027748,82.0625027079368 13.502970564295538,83.16024053243746 13.371725627803244,83.16024053243746 13.152984066982754,82.90691695616988 13.174858222948387,82.79432859666122 13.262354847392999,82.68174017332785 13.612341344705783,82.37212168129918 14.093572778743692,81.86547220149077 14.859168241964653,81.18993755646807 15.406022144132294,80.76772723977047 16.390359168173745,79.95145142247202 18.030920874909498,78.90999121167988 18.468403996550478,78.62851454413612 18.599648933159187,78.48777606114163 18.90588711842429,76.01076248004392 18.9933837428689,74.77224413532531 19.23399945977144,73.19593691952468 19.671482581528835,69.76179585274076 19.802727518137544,68.41064214910148 20.174588171648793,65.20161535784428 20.54644882516004,62.52738685887016 20.721442073816434,60.81023172957066 21.04955441528,58.3611487919261 21.027680259081535,58.30484768048336 20.852687010425143,58.30484768048336 19.6496084255632,58.83970759608201 18.840264650178142,59.149362679891055 14.071698622661643,61.063583417606424 12.343640291597694,61.711036266962765 10.046853902051225,62.6962865634996 9.762489872984588,62.639986677866546 9.521874155965634,62.471086925506825 9.5,62.35848701096256 9.587496624328196,62.10513697055285 9.784364029183052,61.93623676447896 10.353092087432742,61.682886186870746 12.43113691592589,60.86653213248064 13.065487442538142,60.669480652417406 13.9185795300873,60.33167766149563 14.837294085766189,59.85312244319357 17.746556845726445,58.755256125936285 19.321496084099635,58.0514924821764 21.7057790979743,57.12252066352812 22.624493653769605,56.700259313191054 25.68687550618779,55.51792276799097 26.714960842509754,55.09565801452845 27.1743181203492,54.8704497799481 28.333648393047042,54.448183653337765 29.580475290189497,53.85700957165682 32.6428571427241,52.64650478451222 32.9490953279892,52.477596554657794 36.164596273214556,51.21078026354371 40.43005671072751,49.437223914137576 40.47380502289161,49.49352753312269 40.67067242774647,49.972107651643455 40.67067242774647,50.08471457120322 40.626924115465954,50.16916971895262" stroke="#89CFF0" stroke-linecap="round" stroke-linejoin="round" stroke-width="0.5"><title>2026-01-12 13.14km</title><desc>17018402509</desc></polyline></svg>