<?xml version="1.0" encoding="utf-8" ?>
<svg baseProfile="full" height="130mm" version="1.1" viewBox="0,0,100,130" width="100mm" xmlns="http://www.w3.org/2000/svg" xmlns:ev="http://www.w3.org/2001/xml-events" xmlns:xlink="http://www.w3.org/1999/xlink"><defs /><rect fill="#FAF9F5" height="130" width="100" x="0" y="0" /><g id="tracks"><polyline fill="none" points="77.90503802709281,94.77203512704 80.92179889790714,94.37883482920006 83.03353150375187,93.59243406145833 84.84358802437782,91.23323038080707 85.74861628562212,88.08762226137333 86.35196845792234,82.58279921649955 85.14526411145926,73.93234028620645 85.44694019854069,66.85467141703703 85.14526411145926,64.8886489868164 85.74861628562212,51.51965843234211 85.44694019854069,47.19438258348964 87.8603488933295,43.26230760500766 87.8603488933295,41.296267964178696 87.25699671916664,40.1166434912011 81.52515107020736,36.970975706353784 80.62012280896306,35.791349339764565 79.71509454958141,33.43209505919367 77.3016858547926,31.859257723903283 72.7765445522964,32.25246714334935 67.34637499041855,35.004931475035846 63.42458586022258,35.791349339764565 62.217881513759494,35.791349339764565 58.597768472507596,33.03888581111096 54.9776554312557,32.64567650668323 47.13407717272639,33.43209505919367 40.79887934960425,35.791349339764565 36.87709022127092,36.57776697585359 29.03351196460426,36.18455818644725 21.49160979501903,35.004931475035846 19.681553272530437,36.57776697585359 18.474848926067352,38.93701850250363 17.268144579604268,43.65551536041312 14.553059797734022,49.5536248171702 16.664792405441403,53.48569061444141 16.96646849066019,55.451721363002434 16.06144023127854,58.59736757562496 15.759764144197106,63.70903484127484 16.06144023127854,72.35952658765018 14.854735884815454,74.71874679089524 15.156411970034242,75.8983561177738 14.25138371065259,78.25757322227582 13.648031536489725,80.61678826157004 14.854735884815454,88.87402463587932 11.234622843563557,99.09723461815156 11.837975015863776,101.06323209102266 13.346355449408293,103.02922812942415 15.759764144197106,104.20882506552152 18.776525013148785,107.35441436781548 32.35194892063737,105.38842148380354 45.625696739181876,106.568017387297 51.05586630105972,105.38842148380354 54.9776554312557,107.35441436781548 62.217881513759494,106.961215906078 70.96648803167045,103.42242716578767 72.47486846521497,101.8496306783054 74.58660107292235,95.95163567643613 77.90503802709281,93.19923359202221 81.82682715728879,92.01963183679618 84.54191193915904,90.44682869501412 86.05029237270355,87.69442098797299 86.95532063394785,80.61678826157004 87.25699671916664,74.32554356660694 86.05029237270355,70.78671197267249 86.35196845792234,64.8886489868164 83.63688367791474,53.09248429327272 83.3352075908333,48.7672109673731 83.63688367791474,45.62155327969231 87.55867280624807,44.8351382848341 88.7653771545738,42.47589192097075 88.16202498041093,41.296267964178696 86.05029237270355,39.330226889811456 80.62012280896306,37.75739299622364 76.69833368249238,31.859257723903283 73.98324890062213,31.072838712017983 71.26816411875188,31.46604824787937 64.32961412146688,34.61172245815396 58.89944455958903,33.825304250232875 53.77095108292997,32.25246714334935 47.43575326167047,32.64567650668323 39.8938510902226,36.970975706353784 33.860329354181886,35.791349339764565 27.223455442115664,35.791349339764565 19.681553272530437,34.21851338259876 17.569820664823055,35.791349339764565 16.96646849066019,41.296267964178696 15.156411970034242,44.44193070149049 14.25138371065259,47.58758976566605 14.854735884815454,51.126451822929084 16.664792405441403,53.878896878799424 17.268144579604268,56.63133912277408 15.156411970034242,60.17018930683844 14.553059797734022,62.52942017954774 15.156411970034242,66.85467141703703 14.553059797734022,80.22358589852229 15.759764144197106,93.19923359202221 15.156411970034242,94.77203512704 13.648031536489725,96.73803575639613 13.044679364189506,100.67003271100111 12.441327188163996,102.6360290364828 12.743003275245428,104.60202392935753 14.553059797734022,107.74761277274229 17.569820664823055,107.35441436781548 25.715075008571148,103.81562614440918 31.14524457231164,103.81562614440918 35.3687097877264,102.2428298862651 43.21228804625571,103.81562614440918 46.53072500042617,104.20882506552152 50.15083804167807,105.38842148380354 53.46927499771118,104.60202392935753 55.88268369063735,105.78162017581053 62.519557600840926,105.38842148380354 68.55307933688164,106.568017387297 70.96648803167045,104.9952227352187 74.58660107292235,98.31083522597328 77.90503802709281,96.73803575639613 81.82682715728879,96.73803575639613 83.03353150375187,95.95163567643613 84.84358802437782,91.62643113848753 85.14526411145926,86.12161532207392 84.54191193915904,76.68476204876788 85.14526411145926,71.57311939517967 82.12850324437022,56.238133259350434 81.52515107020736,47.58758976566605 82.12850324437022,46.80117534357123 86.35196845792234,44.44193070149049 86.65364454500377,42.869099790928885 86.05029237270355,41.296267964178696 84.54191193915904,39.72343521914445 79.41341846249998,37.3641843800433 76.69833368249238,32.64567650668323 73.37989672645926,31.46604824787937 70.36313585750759,31.859257723903283 64.93296629562974,33.825304250232875 44.41899239085615,33.825304250232875 41.7039076089859,34.61172245815396 37.782118482515216,36.57776697585359 35.67038587294519,36.970975706353784 32.95530109293759,36.18455818644725 28.430159790441394,36.57776697585359 22.698314141482115,35.004931475035846 20.586581533774734,35.004931475035846 19.078201100230217,36.18455818644725 16.664792405441403,40.90305986371823 13.648031536489725,43.26230760500766 12.743003275245428,45.62155327969231 15.156411970034242,53.48569061444141 13.949707623571157,60.563394595403224 14.854735884815454,64.10223961365409 14.25138371065259,72.35952658765018 13.648031536489725,73.93234028620645 14.553059797734022,80.22358589852229 14.854735884815454,88.08762226137333 13.949707623571157,93.59243406145833 14.25138371065259,96.34483574470505 13.044679364189506,100.67003271100111 13.949707623571157,104.9952227352187 16.06144023127854,109.71360393590294 17.268144579604268,110.5 18.474848926067352,110.10680199670605 21.793285880237818,105.78162017581053 23.30166631564498,104.9952227352187 26.620103269815445,104.60202392935753 32.95530109293759,106.568017387297 35.06703370064497,105.78162017581053 38.385470654815435,103.81562614440918 41.7039076089859,106.17481880960986 48.94413369335234,108.1408111199271 54.9776554312557,108.53400941030122 64.32961412146688,103.02922812942415 70.96648803167045,102.6360290364828 77.00000976771116,95.95163567643613 78.81006628833711,95.55843555019237 83.03353150375187,95.16523536690511 84.54191193915904,93.98563447338529 85.44694019854069,92.41283247829415 86.35196845792234,89.26722573745064 85.44694019854069,84.54880873672664 85.74861628562212,78.65077587286942 84.54191193915904,76.29155911249109 80.01677063666284,73.5391369482968 78.50839020311832,71.57311939517967 78.50839020311832,68.82069241139106 77.60336194187403,66.46146704559214 77.00000976771116,51.51965843234211 77.90503802709281,48.7672109673731 80.01677063666284,46.014760691905394 81.82682715728879,44.8351382848341 86.65364454500377,43.26230760500766 87.8603488933295,40.50985170667991 86.65364454500377,38.15060155605897 79.41341846249998,35.004931475035846 73.68157281167805,29.5 70.36313585750759,30.28641947102733 63.42458586022258,34.21851338259876 59.50279673375189,35.004931475035846 56.78771195188165,34.61172245815396 54.0726271700114,32.64567650668323 49.245809780433774,31.46604824787937 43.81564021855593,31.859257723903283 33.55865326710045,35.004931475035846 23.9050184879452,34.21851338259876 19.078201100230217,31.859257723903283 17.871496751904488,31.859257723903283 16.36311631835997,33.43209505919367 14.553059797734022,38.93701850250363 11.837975015863776,42.08268399303779 11.837975015863776,43.65551536041312 12.139651102945209,47.19438258348964 14.25138371065259,51.126451822929084 14.854735884815454,53.09248429327272 13.346355449408293,56.63133912277408 12.743003275245428,59.77698395960033 13.044679364189506,63.70903484127484 14.25138371065259,68.42748832772486 14.25138371065259,74.32554356660694 12.743003275245428,83.76240510167554 13.648031536489725,97.5244356051553 12.743003275245428,103.81562614440918 13.346355449408293,105.78162017581053 16.96646849066019,108.92720764270052 17.569820664823055,108.92720764270052 21.49160979501903,107.74761277274229 29.636864138767123,102.2428298862651 33.55865326710045,102.6360290364828 37.48044239357114,101.06323209102266 40.79887934960425,101.45643141306937 43.81564021855593,103.02922812942415 47.13407717272639,103.42242716578767 50.45251412689686,102.2428298862651 55.58100760355592,101.8496306783054 57.692740213125944,102.6360290364828 61.614529341459274,102.2428298862651 66.4413467310369,103.81562614440918 68.55307933688164,103.42242716578767 70.66481194645166,101.45643141306937 73.07822063937783,97.9176354452502 75.49162933416665,97.13123570964672 80.62012280896306,93.19923359202221 83.03353150375187,92.41283247829415 84.84358802437782,90.44682869501412 85.74861628562212,84.94201046950184 85.44694019854069,83.3692031968385 82.43017933145165,78.25757322227582 79.41341846249998,75.50515306531452 77.3016858547926,72.75273009832017 77.00000976771116,71.179915712215 77.00000976771116,67.24787573027425 78.20671411603689,61.743010117672384 79.11174237541854,61.34980500000529 80.01677063666284,61.34980500000529 80.01677063666284,66.06826261733659 80.31844672374427,65.67505813180469 79.41341846249998,62.52942017954774 79.41341846249998,60.95659982669167 79.71509454958141,61.34980500000529 79.11174237541854,60.17018930683844 79.41341846249998,59.77698395960033 78.50839020311832,63.70903484127484 79.11174237541854,62.52942017954774 75.49162933416665,60.95659982669167 75.49162933416665,60.17018930683844 76.09498150646687,58.99057309469208 75.18995324708521,61.34980500000529 78.20671411603689,59.77698395960033 79.11174237541854,60.17018930683844 80.01677063666284,61.34980500000529 79.41341846249998,64.49544432968833 78.20671411603689,62.136215176898986 77.60336194187403,62.136215176898986 77.60336194187403,62.92262512492016 77.90503802709281,64.10223961365409 78.20671411603689,58.99057309469208 77.3016858547926,63.70903484127484 77.60336194187403,64.8886489868164 78.50839020311832,63.70903484127484 77.90503802709281,62.52942017954774 78.50839020311832,60.17018930683844 78.20671411603689,61.34980500000529 79.71509454958141,59.77698395960033 81.22347498312593,60.17018930683844 79.11174237541854,63.315830011619255 80.31844672374427,60.563394595403224 82.12850324437022,59.38377855531871 82.43017933145165,60.17018930683844 79.41341846249998,62.52942017954774 74.58660107292235,58.99057309469208 75.18995324708521,59.77698395960033 74.88827716000378,61.743010117672384 77.60336194187403,62.52942017954774 79.11174237541854,64.10223961365409 79.11174237541854,62.52942017954774 79.71509454958141,64.10223961365409 81.82682715728879,65.28185358806513 82.73185541853309,66.85467141703703 83.03353150375187,74.71874679089524 82.73185541853309,77.0779649275355 84.2402358520776,81.79639500728808 84.54191193915904,90.84002956701443 83.03353150375187,92.80603306391276 76.3966575935483,93.98563447338529 74.28492498770356,96.34483574470505" stroke="#4DD2FF" stroke-linecap="round" stroke-linejoin="round" stroke-width="0.5"><title>2026-01-21 3.83km</title><desc>17123656953</desc></polyline></g><text fill="#5A5A5A" style="font-size:6px; font-family:Arial; font-weight:bold;color:#0ed45e;" x="5" y="10">午间行走</text><text fill="#5A5A5A" style="font-size:4px; font-family:Arial" x="5" y="121">Runner</text><text fill="#5A5A5A" style="font-size:6px; font-family:Arial" x="2" y="128">蓝皮书</text><text fill="#5A5A5A" style="font-size:4px; font-family:Arial" x="25" y="121">WORKOUTS INFO</text><text fill="#5A5A5A" style="font-size:3px; font-family:Arial" x="25" y="125">Type: Hike</text><text fill="#5A5A5A" style="font-size:3px; font-family:Arial" x="22" y="129">Date: 2026-01-21</text><text fill="#5A5A5A" style="font-size:3px; font-family:Arial" x="47" y="125">Distance: 3.83 km</text><text fill="#5A5A5A" style="font-size:3px; font-family:Arial" x="47" y="129">Duration: 53:27min</text><text fill="#5A5A5A" style="font-size:3px; font-family:Arial" x="75" y="125">Pace: 13:56/km</text><text fill="#5A5A5A" style="font-size:3px; font-family:Arial" x="75" y="129">Elevation: 8m</text></svg>