<?xml version="1.0" encoding="utf-8" ?>
<svg baseProfile="full" height="130mm" version="1.1" viewBox="0,0,100,130" width="100mm" xmlns="http://www.w3.org/2000/svg" xmlns:ev="http://www.w3.org/2001/xml-events" xmlns:xlink="http://www.w3.org/1999/xlink"><defs /><rect fill="#FAF9F5" height="130" width="100" x="0" y="0" /><g id="tracks"><polyline fill="none" points="90.5,44.82568931335118 89.33529411768541,45.0300921863236 88.01176470587961,45.43889767167275 85.36470588226803,45.77956864464795 83.30000000004657,46.46090986818308 76.15294117643498,50.072002269211225 74.03529411763884,50.957737781776814 70.06470588245429,52.32040462232544 68.5823529411573,53.00173659747816 67.5235294115264,53.683067609526915 65.40588235296309,54.63692940797773 62.86470588226803,55.25012528087245 60.111764705972746,56.340249351400416 58.52352941175923,57.225973342807265 54.6588235294912,59.0655487383483 53.388235294027254,60.15566417755326 52.80588235310279,60.49632474669488 47.61764705879614,62.335887658118736 40.8411764705088,65.46994163023192 37.982352941064164,66.35564884141786 35.33529411745258,67.71827214144287 32.52941176481545,68.87649891691399 29.829411764629185,69.76219986716751 29.141176470555365,70.17098437208915 27.711764705833048,70.44350718273199 25.276470588054508,71.6698579233198 24.164705882314593,71.87424940997153 23.1588235294912,72.28303212334868 20.141176470322534,73.8500293121906 19.082352941157296,74.25881034962367 17.81176470592618,74.53133084863657 16.117647058796138,75.21263142165844 15.21764705888927,75.68954124979791 13.682352941017598,76.16645060590236 10.082352941157296,77.59717584276223 9.711764705833048,77.93782408267725 9.552941176341847,78.95976735744625 9.5,79.57293228196795 9.817647058982402,80.45861357371905 9.870588235324249,81.54868062149035 10.452941176714376,83.72880731965415 10.505882352823392,85.97705264796969 10.770588235231116,87.0671072138357 11.511764705879614,88.56592821591767 12.411764705786481,90.1328724611376 12.835294117685407,91.22291762731038 13.523529411526397,92.51734305985156 14.317647058749571,93.8798923905124 14.741176470415667,94.96992908164975 14.899999999906868,95.17431068667793 15.111764705972746,95.17431068667793 16.170588235137984,94.96992908164975 16.59411764680408,94.76554738995037 16.699999999953434,94.49303833270096 16.647058823378757,94.01614711174625 16.488235294353217,92.92610826346208 15.37647058814764,89.31533696892438 14.635294117731974,87.47587704018224 13.682352941017598,85.36389587147278 12.78235294111073,82.77500310266623 11.882352941203862,81.00364740562509 11.723529411712661,80.45861357371905 11.882352941203862,80.18609642665251 12.041176470462233,80.04983779517352 12.835294117685407,80.04983779517352 13.735294117592275,79.77732041693525 16.011764705879614,78.27847208149615 19.399999999906868,77.12026790235541 21.041176470695063,76.37084018567111 22.47058823541738,76.0301908380643 24.90588235273026,74.80385119334096 26.547058823518455,74.12255004237522 30.200000000186265,72.1467712574522 31.364705882268026,71.73798842850374 32.952941176481545,71.2610746898572 35.33529411745258,70.03472290895297 36.923529411666095,69.48967667136458 39.09411764726974,68.33145136939129 41.89999999990687,67.10509213307523 43.858823529444635,66.42378009791719 45.923529411666095,65.46994163023192 46.71764705865644,64.99302168842405 49.10000000009313,64.31170666700928 50.105882353149354,63.76665395649616 52.329411764629185,62.88094198695035 52.43529411754571,62.88094198695035 52.43529411754571,63.01720547280274 52.11764705879614,63.834785579005256 51.69411764689721,65.60620438406477 51.482352941064164,68.19518938614056 51.111764705739915,70.17098437208915 51.00588235282339,71.80611892414163 49.894117647083476,75.89393103172188 49.47058823541738,76.98400840428076 49.36470588250086,77.66530550995958 49.205882352776825,80.04983779517352 49.2588235293515,80.59487208953942 49.52352941199206,81.68493882889743 49.576470588101074,83.66067850962281 49.47058823541738,84.75073831458576 49.52352941199206,84.95512425363995 49.94705882365815,85.22763870409108 51.74705882347189,85.84079565410502 54.12941176467575,86.11330960359192 54.394117647083476,85.90892415581038 54.605882352916524,85.15951010581921 54.71176470583305,83.86506491102045 55.452941176481545,80.11796711568604 55.50588235305622,79.23228519791155 55.982352941296995,77.59717584276223 56.24705882347189,75.21263142165844 56.61764705856331,73.78189910564106 56.61764705856331,71.46546634988044 56.988235294120386,69.55780748472898 57.25294117652811,66.90069862361997 57.30588235286996,65.40181023892364 57.46470588236116,64.51610127469758 57.30588235286996,64.03918038887787 57.04117647069506,63.69852232438279 56.88235294120386,63.69852232438279 55.18823529407382,63.834785579005256 54.28823529416695,64.17544354731217 53.7588235293515,64.24357511199196 53.176470588194206,64.85675876121968 51.95882352930494,65.06115313767805 51.53529411763884,65.67433574644383 51.05882352939807,67.10509213307523 50.63529411773197,68.87649891691399 50.37058823532425,69.62593828848912 49.84117647074163,72.07864080992294 48.888235294260085,74.05441987427184 48.41176470578648,75.75767118675867 48.25294117652811,76.50709985705907 48.25294117652811,77.32465707731899 48.14705882361159,77.86969445378054 47.40588235296309,79.84544977589394 47.19411764713004,81.82119699797477 46.71764705865644,82.70687415785505 46.34705882356502,84.88699561686371 46.55882352939807,85.5001530002919 46.92941176472232,85.77266714247526 47.77647058805451,85.90892415581038 49.576470588101074,86.11330960359192 53.33529411745258,86.11330960359192 53.65294117666781,85.97705264796969 54.1823529410176,85.29576729255496 54.394117647083476,84.75073831458576 54.44705882342532,83.86506491102045 54.71176470583305,83.18377656972734 54.87058823532425,81.41242237514234 55.5588235296309,78.61911983983009 55.87647058814764,76.0301908380643 55.92941176472232,74.12255004237522 56.141176470555365,72.1467712574522 56.40588235296309,70.71602983912453 56.61764705856331,70.30724579666276 56.72352941171266,69.35341501541552 56.988235294120386,68.33145136939129 57.09411764680408,66.62817380964407 57.41176470578648,64.17544354731217 57.358823529444635,63.63039068249054 57.09411764680408,63.425995699333725 55.982352941296995,63.35786401896621 52.96470588236116,62.472151297930395 52.700000000186265,62.744678462448064 52.22352941194549,63.63039068249054 52.06470588245429,64.99302168842405 51.58823529421352,66.90069862361997 50.63529411773197,69.83033064211486 49.84117647074163,71.60172740850248 49.735294117592275,72.3511625418032 49.735294117592275,73.78189910564106 49.10000000009313,75.6214113032911 48.517647058935836,76.84774886732339 48.30588235286996,77.80156481536687 48.25294117652811,78.61911983983009 47.88235294120386,79.91357912542298 47.93529411754571,81.41242237514234 48.14705882361159,82.16184225221514 48.14705882361159,83.3200343150238" stroke="#4DD2FF" stroke-linecap="round" stroke-linejoin="round" stroke-width="0.5"><title>2026-04-14 5.13km</title><desc>18098272089</desc></polyline></g><text fill="#5A5A5A" style="font-size:6px; font-family:Arial; font-weight:bold;color:#0ed45e;" x="5" y="10">马后炮</text><text fill="#5A5A5A" style="font-size:4px; font-family:Arial" x="5" y="121">Runner</text><text fill="#5A5A5A" style="font-size:6px; font-family:Arial" x="2" y="128">蓝皮书</text><text fill="#5A5A5A" style="font-size:4px; font-family:Arial" x="25" y="121">WORKOUTS INFO</text><text fill="#5A5A5A" style="font-size:3px; font-family:Arial" x="25" y="125">Type: Run</text><text fill="#5A5A5A" style="font-size:3px; font-family:Arial" x="22" y="129">Date: 2026-04-14</text><text fill="#5A5A5A" style="font-size:3px; font-family:Arial" x="47" y="125">Distance: 5.13 km</text><text fill="#5A5A5A" style="font-size:3px; font-family:Arial" x="47" y="129">Duration: 43:34min</text><text fill="#5A5A5A" style="font-size:3px; font-family:Arial" x="75" y="125">Pace: 8:29/km</text><text fill="#5A5A5A" style="font-size:3px; font-family:Arial" x="75" y="129">Elevation: 2m</text></svg>