<?xml version="1.0" encoding="utf-8" ?>
<svg baseProfile="full" height="130mm" version="1.1" viewBox="0,0,100,130" width="100mm" xmlns="http://www.w3.org/2000/svg" xmlns:ev="http://www.w3.org/2001/xml-events" xmlns:xlink="http://www.w3.org/1999/xlink"><defs /><rect fill="#FAF9F5" height="130" width="100" x="0" y="0" /><g id="tracks"><polyline fill="none" points="54.608859015628695,109.33733804686926 54.906204760074615,107.78712131781504 56.987624960020185,106.23690368351527 65.90799725055695,105.07423986447975 68.28676319308579,104.29913036897779 70.07083765231073,102.74891069880687 76.0177525114268,94.99779878067784 82.85670460015535,93.83513004262932 84.93812480010092,93.0600172674749 86.12750777229667,91.50979103823192 87.01954500190914,81.43329849955626 86.72219925746322,77.17015553358942 84.04608757048845,57.017023434164 83.74874182976782,50.42846631538123 84.64077905751765,47.715526279760525 87.9115822315216,44.61501998943277 87.61423648707569,42.677201721584424 85.83016202971339,41.51451008114964 78.3965184558183,39.189125273842365 75.72040676884353,35.31347940559499 73.63898656703532,33.76321947504766 70.9628748819232,33.37565435003489 66.5026887357235,33.76321947504766 62.33984833396971,35.701044246554375 48.66194415651262,33.37565435003489 39.7415718678385,35.701044246554375 30.82119957730174,36.47617375990376 26.361013432964683,36.088609031168744 19.22471560165286,33.76321947504766 17.440641144290566,34.53834955324419 14.467183712869883,41.90207401709631 13.575146485120058,44.61501998943277 13.872492227703333,46.94040004652925 17.143295399844646,55.466776171233505 17.440641144290566,57.404585109325126 16.845949659124017,71.35676773637533 15.656566685065627,77.5577142671682 15.953912427648902,79.1079486394301 17.440641144290566,80.27062382292934 18.035332629457116,84.14620409742929 17.440641144290566,87.63422150793485 15.061875199899077,91.12223434029147 14.467183712869883,94.22268634475768 15.656566685065627,101.97380052506924 16.548603914678097,104.29913036897779 19.522061344236135,105.07423986447975 28.145087890326977,102.3613556404598 36.17342295125127,101.97380052506924 41.82299206778407,102.74891069880687 52.23009307309985,102.74891069880687 54.906204760074615,103.52402064716443 62.63719407655299,104.68668514559977 71.85491210967302,102.74891069880687 75.72040676884353,99.6484686464537 80.18059291318059,98.0982462624088 86.72219925746322,91.50979103823192 86.72219925746322,84.92131947237067 85.83016202971339,80.65818210551515 84.04608757048845,78.33283156622201 81.07263014279306,75.23236101469956 79.58590142801404,70.9692080966197 77.80182697065175,61.28019874589518 77.50448122620583,55.466776171233505 77.80182697065175,51.591154052410275 78.3965184558183,50.42846631538123 81.36997588537633,48.490652286913246 84.93812480010092,47.32796319085173 86.72219925746322,45.00258347415365 87.31689074262977,42.677201721584424 86.42485351487994,41.126946087460965 79.28855568356812,37.63886760594323 75.42306102626026,33.37565435003489 69.17880042269826,33.76321947504766 63.23188556358218,35.701044246554375 59.36639090627432,34.92591450852342 53.71682178787887,34.92591450852342 48.06725267134607,33.76321947504766 41.52564632706344,34.15078454161994 37.36280592158437,35.31347940559499 32.605274034664035,33.37565435003489 22.1981730312109,31.8253932883963 19.522061344236135,32.60052393306978 18.035332629457116,34.53834955324419 12.385763512924314,44.22745644906536 12.088417768478394,46.16527358698659 13.872492227703333,48.490652286913246 15.061875199899077,51.9787165177986 15.359220942482352,75.61992003116757 14.764529457315803,81.82085661240853 16.251258172094822,88.79689296148717 15.061875199899077,99.26091313594952 15.359220942482352,100.81113484012894 16.548603914678097,102.3613556404598 18.630024114623666,102.74891069880687 22.1981730312109,101.97380052506924 25.171630460768938,99.26091313594952 26.955704919993877,99.26091313594952 35.57873146608472,101.19869012548588 40.63360909558833,103.52402064716443 46.877869699150324,104.29913036897779 56.987624960020185,103.13646570080891 64.42126853577793,103.52402064716443 71.26022062264383,102.74891069880687 75.12571528181434,100.42357949819416 78.09917271323502,93.83513004262932 81.66732162795961,92.67246079421602 85.23547054454684,90.73467758484185 86.42485351487994,89.57200698158704 86.72219925746322,88.40933586726896 86.72219925746322,81.43329849955626 85.23547054454684,78.33283156622201 78.99120994098485,73.68212438141927 77.2071354817599,60.89263763721101 77.50448122620583,53.14140357915312 78.69386419840157,48.490652286913246 81.36997588537633,45.77771027293056 86.12750777229667,43.45232919813134 86.72219925746322,42.28963789762929 86.12750777229667,41.51451008114964 81.07263014279306,39.189125273842365 76.31509825401008,34.53834955324419 73.34164082445204,32.60052393306978 70.9628748819232,31.8253932883963 67.09738022089005,32.21295863925479 62.63719407655299,34.53834955324419 60.55577387660742,34.92591450852342 49.55398138612509,31.8253932883963 43.607066525146365,32.98808916960843 39.14688038080931,34.92591450852342 36.76811443641782,34.92591450852342 21.900827288627625,29.5 20.414098573848605,31.050262418575585 17.143295399844646,37.63886760594323 13.575146485120058,41.90207401709631 13.575146485120058,45.39014690229669 15.656566685065627,52.75384128233418 14.764529457315803,60.11751524824649 15.061875199899077,71.35676773637533 16.548603914678097,78.33283156622201 14.764529457315803,89.57200698158704 12.088417768478394,100.03602410038002 12.088417768478394,103.13646570080891 13.575146485120058,105.84934913367033 18.035332629457116,107.39956699335016 25.766321945935488,103.52402064716443 32.902619779109955,101.97380052506924 36.17342295125127,101.97380052506924 43.012375039979815,103.52402064716443 50.74336435645819,103.52402064716443 56.392933474853635,104.68668514559977 62.33984833396971,104.68668514559977 67.98941745050251,103.13646570080891 70.368183394894,101.97380052506924 75.72040676884353,93.83513004262932 78.3965184558183,91.89734768075868 83.15405034273863,89.95956390467472 84.64077905751765,87.24666424538009 86.72219925746322,80.27062382292934 86.72219925746322,73.29456508136354 85.23547054454684,60.11751524824649 84.64077905751765,47.715526279760525 84.93812480010092,45.77771027293056 86.72219925746322,43.06476548803039 86.72219925746322,40.73938203789294 85.83016202971339,39.189125273842365 81.66732162795961,38.02643210720271 78.99120994098485,34.53834955324419 76.61244399659336,32.60052393306978 72.1522578522563,31.050262418575585 69.77349190786481,31.43782788189128 63.52923130616546,33.37565435003489 49.55398138612509,32.60052393306978 42.12033781222999,33.76321947504766 35.281385723501444,34.15078454161994 29.92916234768927,34.92591450852342 20.116752829402685,32.21295863925479 18.33267837204039,32.21295863925479 15.953912427648902,33.37565435003489 13.277800742536783,38.801560940919444 12.683109255507588,42.28963789762929 16.251258172094822,48.878215204924345 16.845949659124017,51.9787165177986 15.359220942482352,58.567269794410095 16.548603914678097,68.64384907623753 15.656566685065627,73.68212438141927 16.251258172094822,88.40933586726896 13.277800742536783,99.6484686464537 13.277800742536783,103.91157553647645 13.872492227703333,106.23690368351527 16.251258172094822,107.78712131781504 18.630024114623666,107.78712131781504 24.57693897560239,104.68668514559977 27.550396405160427,103.52402064716443 39.14688038080931,102.3613556404598 45.391140984371305,102.74891069880687 50.74336435645819,103.52402064716443 53.41947604343295,108.9497839489486 54.906204760074615,110.5" stroke="#4DD2FF" stroke-linecap="round" stroke-linejoin="round" stroke-width="0.5"><title>2026-01-09 3.31km</title><desc>16985162863</desc></polyline></g><text fill="#5A5A5A" style="font-size:6px; font-family:Arial; font-weight:bold;color:#0ed45e;" x="5" y="10">再渡百子湾</text><text fill="#5A5A5A" style="font-size:4px; font-family:Arial" x="5" y="121">Runner</text><text fill="#5A5A5A" style="font-size:6px; font-family:Arial" x="2" y="128">蓝皮书</text><text fill="#5A5A5A" style="font-size:4px; font-family:Arial" x="25" y="121">WORKOUTS INFO</text><text fill="#5A5A5A" style="font-size:3px; font-family:Arial" x="25" y="125">Type: Hike</text><text fill="#5A5A5A" style="font-size:3px; font-family:Arial" x="22" y="129">Date: 2026-01-09</text><text fill="#5A5A5A" style="font-size:3px; font-family:Arial" x="47" y="125">Distance: 3.31 km</text><text fill="#5A5A5A" style="font-size:3px; font-family:Arial" x="47" y="129">Duration: 35:42min</text><text fill="#5A5A5A" style="font-size:3px; font-family:Arial" x="75" y="125">Pace: 10:47/km</text><text fill="#5A5A5A" style="font-size:3px; font-family:Arial" x="75" y="129">Elevation: 7m</text></svg>