<?xml version="1.0" encoding="utf-8" ?>
<svg baseProfile="full" height="130mm" version="1.1" viewBox="0,0,100,130" width="100mm" xmlns="http://www.w3.org/2000/svg" xmlns:ev="http://www.w3.org/2001/xml-events" xmlns:xlink="http://www.w3.org/1999/xlink"><defs /><rect fill="#FAF9F5" height="130" width="100" x="0" y="0" /><g id="tracks"><polyline fill="none" points="77.2736486485228,50.83667563300696 71.93750000023283,53.24322996963747 63.49999999976717,56.5889042824565 58.528716216329485,58.64325234093121 56.111486486392096,59.523684111452894 49.2246621621307,62.517138163384516 47.76520270295441,63.04539252034738 33.80912162177265,68.85614608184551 26.466216216096655,71.79083919225377 23.410472973017022,73.14079105682322 21.08445945964195,74.0211920820293 19.305743243312463,74.7842047935701 15.976351351244375,76.07545388012659 12.783783783670515,77.48408466685214 9.773648648755625,78.65794000495225 9.5,78.89271067435038 9.5,79.18617382430239 10.04729729727842,80.1839469827537 10.412162162130699,80.47740921998047 10.594594594556838,80.82956363080302 15.657094594324008,93.38954230982927 15.88513513514772,93.74168576899683 16.021959459409118,93.74168576899683 16.706081081181765,93.33085170437698 16.79729729727842,93.09608919909806 16.751689189113677,92.62656379039981 15.565878378227353,89.92678238652297 14.288851351244375,86.75745138130151 13.42229729751125,84.40978318671114 12.236486486624926,81.6512560948031 11.73479729727842,80.24263944666018 11.73479729727842,80.06656202967861 11.871621621539816,79.89048453807482 13.011824324494228,79.5383293305058 15.70270270272158,78.42316920278245 22.589527026982978,75.72329543658998 38.00506756780669,69.26700436626561 44.663851351244375,66.62576544372132 46.67060810816474,65.62795969974832 47.17229729727842,65.56926516961539 47.263513513375074,65.68665422167396 47.263513513375074,65.86273773759604 46.80743243242614,68.44528739104862 46.625,70.32349523020093 46.12331081065349,73.3168714112835 44.846283783670515,84.5858587618568 44.846283783670515,84.82062607907574 45.0743243242614,84.9380096879031 46.94425675692037,85.11408503889106 48.54054054059088,85.17277680593543 48.67736486485228,84.9380096879031 48.85979729727842,83.94024795471341 50.273648648522794,73.66903189607547 50.59290540544316,70.61696443753317 51.18581081065349,66.39098783730878 51.413851351244375,64.10189921726123 51.64189189206809,63.63234101727721 52.05236486508511,63.39756171798217 55.60979729727842,62.04757817089558 57.206081081181765,61.28454205018352 64.00168918911368,58.525861297297524 67.9239864863921,56.823687432159204 70.70608108094893,55.70846628799336 73.85304054059088,54.24106548112468 75.49493243242614,53.77149612738867 78.91554054059088,52.2453920597618 86.2128378378693,49.31056077606627 90.18074324307963,47.490954960434465 90.40878378390335,47.37356076276046 90.5,47.25616653225734 90.40878378390335,46.786589277442545 90.08952702698298,46.31701149165747 89.8614864863921,46.25831423100317 89.5878378378693,46.25831423100317 79.87331081088632,50.13231562686269 81.7888513514772,49.13447023933986 83.29391891881824,48.66489510939573 85.52871621609665,47.66704619434313 87.99155405396596,46.786589277442545" stroke="#4DD2FF" stroke-linecap="round" stroke-linejoin="round" stroke-width="0.5"><title>2026-02-21 5.01km</title><desc>17466514472</desc></polyline></g><text fill="#5A5A5A" style="font-size:6px; font-family:Arial; font-weight:bold;color:#0ed45e;" x="5" y="10">新年新 F</text><text fill="#5A5A5A" style="font-size:4px; font-family:Arial" x="5" y="121">Runner</text><text fill="#5A5A5A" style="font-size:6px; font-family:Arial" x="2" y="128">蓝皮书</text><text fill="#5A5A5A" style="font-size:4px; font-family:Arial" x="25" y="121">WORKOUTS INFO</text><text fill="#5A5A5A" style="font-size:3px; font-family:Arial" x="25" y="125">Type: Run</text><text fill="#5A5A5A" style="font-size:3px; font-family:Arial" x="22" y="129">Date: 2026-02-21</text><text fill="#5A5A5A" style="font-size:3px; font-family:Arial" x="47" y="125">Distance: 5.01 km</text><text fill="#5A5A5A" style="font-size:3px; font-family:Arial" x="47" y="129">Duration: 36:05min</text><text fill="#5A5A5A" style="font-size:3px; font-family:Arial" x="75" y="125">Pace: 7:12/km</text><text fill="#5A5A5A" style="font-size:3px; font-family:Arial" x="75" y="129">Elevation: 0m</text></svg>