<?xml version="1.0" encoding="utf-8" ?>
<svg baseProfile="full" height="130mm" version="1.1" viewBox="0,0,100,130" width="100mm" xmlns="http://www.w3.org/2000/svg" xmlns:ev="http://www.w3.org/2001/xml-events" xmlns:xlink="http://www.w3.org/1999/xlink"><defs /><rect fill="#FAF9F5" height="130" width="100" x="0" y="0" /><g id="tracks"><polyline fill="none" points="36.4074291876168,80.45953453119728 37.44389972893987,81.00650846536155 37.789389909245074,81.36267574522208 37.888101389457006,81.56619926993153 38.016426313552074,81.9859650809376 38.016426313552074,82.38028874986048 37.91771483345656,82.80005075007648 37.522868912958074,83.62684894339327 36.822017404134385,85.34402083416353 36.703563628019765,85.71289050565974 36.35807344753994,86.48878382804833 36.17052163532935,86.76861255950644 35.291989462275524,88.70195084866282 35.02546846593032,89.17255978277535 34.55165336135542,90.32999287200073 34.127193996857386,91.06768968429242 33.633636596263386,92.1233487061836 33.55466741218697,92.40315985770576 33.18943493574625,93.05180962429586 33.05123886355432,93.47152167936292 32.64652179507539,94.19647423945571 32.478712278883904,94.3236582949321 32.38000079878839,94.3618134764256 32.28128931863466,94.3363766905677 31.82721651007887,94.09472686520166 31.096751557197422,93.81492099087336 30.55383841652656,93.48424019583035 30.119507904048078,93.3188993411386 29.695048539550044,93.06452820025879 28.92509899463039,92.73384463856928 28.480897334055044,92.61937696778477 27.78991697327001,92.19966092496907 26.60537921183277,91.75450539995654 25.578779818606563,91.24575352300599 25.24316078616539,91.02953310144221 24.621278461418115,90.7497176644174 24.186947948939633,90.48262029653415 23.38738495990401,90.1264892352774 22.78524493117584,89.92298513677088 22.331172122678254,89.70676152619853 21.985681942256633,89.65588530674722 21.837614722026046,89.56685185331298 21.600707169738598,89.47781831149041 21.580964873719495,89.55413278133346 21.610578317777254,89.55413278133346 21.423026505566668,89.40150377670216 21.04792288108729,89.27431274110131 20.534623184532393,89.01993012875755 20.031194635899737,88.80370434095676 19.577121827343944,88.57475882091967 19.310600830998737,88.38397044112935 18.501166694040876,88.0659889062008 18.412326361925807,88.0659889062008 18.34322832582984,88.12958530337346 18.303743733791634,88.26949721845449 18.362970621907152,88.47300506887404 18.52090899005998,88.61291644819721 18.767687690327875,88.72738923254656 19.053950982692186,88.93089604397392 19.429054607171565,89.03264927652344 19.685704455478117,89.17255978277535 19.962096599803772,89.26159362763428 20.60372122057015,89.61772812326672 21.630320613796357,89.99929922782758 22.242331790563185,90.25367906232714 22.686533451080322,90.49533923684066 23.318286923866253,90.73699876018509 23.71313284430653,90.85146883340349 24.029009580728598,91.04225196417974 25.114835862012114,91.51284861825843 25.539295226568356,91.74178663823113 26.00323918304639,91.91984913860506 26.31911591946846,92.08519257244188 27.345715312694665,92.4667531794912 28.105793709633872,92.88646797241381 28.707933738362044,93.05180962429586 28.95471243862994,93.19171386086964 29.59633705939632,93.48424019583035 30.356415456393734,93.76404710178758 31.21520533337025,94.19647423945571 31.70876273396425,94.3363766905677 32.212191282596905,94.62889929227822 32.83407360734418,94.88326599657739 33.13020804768894,95.06132226034242 34.15680744085694,95.44287020679621 34.739205173624214,95.68451640001149 35.24263372225687,95.9515982772864 35.67696423473535,96.10421613575454 35.85464489896549,96.2059612305311 36.83188855211483,96.58750430782675 37.06879610446049,96.7274030295739 37.582095801015384,96.94360971575225 38.006555165571626,97.18525186592888 38.361916493973695,97.27427775719843 39.171350630931556,97.70668797203689 39.664908031525556,97.87202073862136 39.93142902787076,97.99919958243845 40.07949624804314,98.02463532955153 40.385501836426556,98.18996751004306 40.61253824067535,98.25355672912701 40.879059237020556,98.43160630264902 41.57991074590245,98.76226885869983 41.93527207430452,98.88944644032017 42.28076225472614,98.96575290270994 43.090196391684,99.34728424107743 43.64298068033531,99.52533164359193 44.99532795796404,100.14849476940435 45.28159125032835,100.33925812616508 45.88373127905652,100.55545610667468 47.65066677320283,101.31850363764534 47.85796088137431,101.38209063892282 48.62791042635217,101.80176371677226 49.170823567023035,101.97980624754564 50.11845377617283,102.46306276411633 51.283249241590966,102.94631667729118 51.53989908983931,103.00990252464544 52.11242567456793,103.30239684218395 52.961344403564,103.64575851974223 53.464772952196654,103.90009965580248 54.04717068490572,104.10357204544562 54.669053009653,104.43421369430143 55.58706977474503,104.79028795324848 56.218823247472756,105.05734271997062 56.52482883591438,105.22266193904943 56.84070557222003,105.33711352766113 57.1565823086421,105.52786585081776 57.808078077447135,105.79491842187417 58.331248922098894,105.96023628171679 58.92351780278841,106.25272097984998 60.187024748302065,106.72323784105538 60.69045329687651,107.00300345353753 61.26297988160513,107.23190194205381 61.65782580204541,107.44808331171225 62.3389350149082,107.70241366781556 63.059528819750994,108.0711914034473 64.28355117322644,108.55441510735545 65.1127276062034,108.9486219906903 66.37623455171706,109.48270597272494 67.10669950459851,109.851476390475 68.7551812226302,110.5 68.88350614678347,110.44913557260588 68.99208877491765,110.34740663126286 69.4560327315121,109.53357094805688 69.79165176389506,109.05035251811933 70.05817276018206,108.77059329013719 70.31482260854682,108.35095281243412 71.02554526535096,107.48623291106924 71.71652562613599,106.37988794242119 72.10150039865403,105.48971541864739 72.31866565492237,104.7267033678072 72.38776369101834,104.21802506179665 72.5358309111325,103.7983632879259 72.80235190753592,103.21337693347596 72.99977486772696,102.89544796693372 73.74011096864706,101.92893698911212 74.09547229704913,101.5982861060329 74.36199329339433,101.43296020745765 74.55941625364358,101.19132949990308 74.79632380593102,101.01328540415852 75.14181398635264,100.55545610667468 75.4576907227165,100.23751771969546 75.82292319915723,99.67794342163688 76.22764026763616,98.92759967962775 76.50403241196182,98.30442807191139 76.8791360364412,96.91817366208124 77.45166262111161,95.72267100260797 77.87612198555144,95.23937817065598 78.10315838991664,95.08675884061086 78.56710234645288,94.62889929227822 78.97181941493182,94.3236582949321 79.41602107550716,93.77676557676023 79.51473255560268,93.57326976059267 79.80099584790878,93.22986952390784 80.3932647286565,92.28869176488661 80.90656442526961,90.80059326335322 81.06450279348064,90.19008417135046 81.3803795298445,89.40150377670216 81.92329267051537,88.65107405922026 82.25891170289833,88.35853195984237 82.44646351510892,88.10414674991625 82.60440188331995,87.98967317003553 83.14731502399081,87.43002245396201 83.49280520441243,86.95940437584068 83.73958390473854,86.71773467327148 83.8481665328145,86.50150333478814 84.01597604900599,86.31071054430504 84.20352786121657,85.96728249856824 84.3417239334085,85.81464738943032 84.84515248204116,84.97514964541188 85.27948299457785,83.8430872132958 85.75329809909454,83.01629101368599 86.35543812782271,82.2530877557947 86.64170142018702,81.7442819752032 86.77002634428209,81.62980027671438 87.30306833703071,80.93018672136532 87.64855851739412,80.4086530653658 87.90520836570067,80.11608407663152 88.08288902993081,79.82351413332071 88.39876576629467,79.44189972918684 88.5172195424675,79.2256508459759 89.2575556433294,78.15711929743702 89.16871531121433,77.97902946804243 88.73438479867764,77.72461481249775 88.32966773019871,77.30482905271492 88.22108510212274,77.24122497825738 88.11250247398857,77.2157833358433 88.0236621418735,77.1140166940313 87.89533721772023,77.06313332979335 87.27345489297295,76.5924608418718 86.93783586053178,76.40164696719148 86.59234568011016,76.1217858832315 86.42453616397688,76.07090195593628 86.15801516757347,76.07090195593628 85.94084991136333,76.15994880974176 85.52626169484574,76.24899557512981 85.24986955052009,76.37620508659165 85.03270429425174,76.6306235680604 84.68721411383012,77.16490002934734 84.26275474933209,77.6991733072282 84.1146875291015,77.85182223047013 83.97649145702599,77.85182223047013 83.89752227289136,77.77549780131812 83.77906849671854,77.71189406078338 83.41383602033602,77.3684330820397 82.99924780381843,77.07585417355585 82.68337106745457,76.93592479291692 82.31813859095564,76.66878627800179 81.98251955857268,76.41436790482112 81.91342152247671,76.28715844755061 81.70612741424702,76.13450686056603 81.28166804974899,75.8546449427813 79.73189781187102,74.68430382225779 79.11001548712375,74.26450382827898 78.69542727066437,73.89558705948002 78.21174101805082,73.59027548218 77.73792591347592,73.18319176192017 76.45467667188495,72.24180357967998 76.09931534348289,72.02553733081731 73.15771323593799,69.8628461504195 71.80536595825106,68.83236906102684 71.63755644205958,68.65426070929243 69.81139405991416,67.35660346640361 69.31783665932016,66.97493599681184 69.03157336695585,66.83499085088988 68.38994874618948,66.35154230214539 68.23201037803665,66.198873797759 68.13329889788292,66.1734290217646 67.91613364167279,66.00803780168644 67.79767986549996,65.84264627650555 67.63974149723072,65.77903407016129 67.41270509304013,65.55002975365642 66.21829618356423,64.6976196565738 65.73460993095068,64.315940866647 65.45821778668324,64.15054621968011 64.89556234999327,63.69252868167678 63.96767443686258,63.03094366216101 63.553086220344994,62.6874264378057 62.5659714192152,61.98766505702952 54.46175890142331,55.96949167869025 52.734307999315206,54.709822857839754 52.17165256262524,54.36627374335512 51.895260418299586,54.099067966177245 50.7008515088819,53.221100518188905 50.562655436689965,53.08113389836217 49.733479003713,52.495816574504715 49.506442599406,52.432194895904104 46.17986571940128,49.912740119754744 44.097053488891106,48.37303844587586 42.25114881066838,46.935111343213066 40.908672681078315,45.96799695252412 33.56453856016742,40.50869498270913 33.406600192014594,40.35598245356232 33.35724445193773,40.2541739562439 33.56453856016742,39.68149900350545 34.018611368723214,38.68885374900856 34.650364841509145,37.44166848313762 35.12417994608404,36.372638724555145 36.02245441515697,34.57816724264558 36.17052163532935,34.132725491566816 36.180392783368006,33.941821206091845 35.97309867513832,33.71273552659841 35.53876816254342,33.47092222950596 34.591137953451835,32.78365982195828 32.804460163228214,31.320027867805038 31.580437809810974,30.200015093760157 31.086880409158766,29.69091374980053 30.86971515294863,29.525455190145294 30.761132524814457,29.5 30.277446272200905,29.627275878381624 29.21136228693649,30.060012512527464 28.076180265576113,30.429109754724777 26.71396183996694,30.60729408608313 25.87491425895132,30.645476396653976 24.769345681590494,30.581839203296113 23.79210202844115,30.403654821318923 20.988695993029978,29.79273424999701 20.643205812608358,29.754551575984806 20.51488088845508,29.780006693814357 20.435911704378668,29.856372003901924 20.356942520302255,30.060012512527464 20.080550375918392,31.230936455154733 19.863385119650047,31.66366534392 19.61660641938215,32.007301502082555 18.590007026155945,33.11456460212503 17.73121714912122,33.92909423925448 16.872427272086497,34.870884901843965 16.250544947339222,35.48177084958297 15.658276066649705,36.16901256259007 15.09562062995974,36.67807709987392 14.661290117364842,37.17441223919013 14.651418969384395,37.263497742394975 14.710645857499912,37.416215541859856 15.27330129413167,37.988904971782176 15.38188392232405,38.10344241855637 15.38188392232405,38.16707427016081 15.27330129413167,38.116168792475946 14.829099633614533,37.7216503599775 14.444124861154705,37.3016772166593 14.28618649294367,37.085326647349575 13.871598276426084,36.6526239416562 13.585334984119982,36.436271805258 12.874612327257637,35.72357871998247 12.766029699123465,35.57085803568043 12.045435894222464,34.32362937034486 11.670332269801293,33.394560000095225 11.255744053341914,32.4782081709418 10.742444356670603,31.447301160798816" stroke="#89CFF0" stroke-linecap="round" stroke-linejoin="round" stroke-width="0.5"><title>2026-04-12 21.32km</title><desc>18073646529</desc></polyline></g><text fill="#5A5A5A" style="font-size:6px; font-family:Arial; font-weight:bold;color:#0ed45e;" x="5" y="10">生态城半程马拉松</text><text fill="#5A5A5A" style="font-size:4px; font-family:Arial" x="5" y="121">Runner</text><text fill="#5A5A5A" style="font-size:6px; font-family:Arial" x="2" y="128">蓝皮书</text><text fill="#5A5A5A" style="font-size:4px; font-family:Arial" x="25" y="121">WORKOUTS INFO</text><text fill="#5A5A5A" style="font-size:3px; font-family:Arial" x="25" y="125">Type: Run</text><text fill="#5A5A5A" style="font-size:3px; font-family:Arial" x="22" y="129">Date: 2026-04-12</text><text fill="#5A5A5A" style="font-size:3px; font-family:Arial" x="47" y="125">Distance: 21.32 km</text><text fill="#5A5A5A" style="font-size:3px; font-family:Arial" x="47" y="129">Duration: 02:49:27</text><text fill="#5A5A5A" style="font-size:3px; font-family:Arial" x="75" y="125">Pace: 7:56/km</text><text fill="#5A5A5A" style="font-size:3px; font-family:Arial" x="75" y="129">Elevation: 17m</text></svg>