<?xml version="1.0" encoding="utf-8" ?>
<svg baseProfile="full" height="130mm" version="1.1" viewBox="0,0,100,130" width="100mm" xmlns="http://www.w3.org/2000/svg" xmlns:ev="http://www.w3.org/2001/xml-events" xmlns:xlink="http://www.w3.org/1999/xlink"><defs /><rect fill="#FAF9F5" height="130" width="100" x="0" y="0" /><g id="tracks"><polyline fill="none" points="88.95222929958254,64.74902462557657 89.38216560520232,63.99882860190701 89.81210191128775,62.9271188135026 90.07006369484589,61.74823643983109 90.07006369484589,60.8908663833281 89.38216560520232,58.21157921577105 89.55414012726396,57.461377250321675 89.55414012726396,55.85379931458738 89.9840764333494,54.56773471116321 90.07006369484589,53.603184943902306 90.07006369484589,51.88842701877002 90.5,50.06649282010039 90.07006369484589,47.17282435618108 89.64012738876045,46.42261235782644 88.69426751602441,45.67239967745263 86.71656050998718,45.35087974841008 85.85668789828196,45.35087974841008 83.87898089177907,45.993919481057674 83.27707006409764,46.52978554228321 82.33121019089594,48.137381637934595 81.6433121021837,48.24455459986348 80.61146496795118,48.030208662501536 79.92356687923893,47.494343575323 79.32165605155751,46.52978554228321 78.80573248444125,46.31543915957445 77.85987261170521,46.31543915957445 76.74203821690753,46.208265947469044 75.62420382164419,45.67239967745263 75.19426751602441,45.2437064111582 74.5063694268465,45.02935969433747 71.75477707013488,45.45805307244882 67.79936305759475,47.38717051630374 66.93949044588953,48.6732463077642 65.99363057361916,49.209110629337374 65.04777070088312,50.1736655315035 64.61783439526334,51.35256443649996 64.35987261170521,53.817529434047174 63.67197452252731,54.99642313463846 63.070063694845885,57.35420548543334 60.92038216628134,56.60400274087442 58.85668789828196,56.92551828629803 57.99681528704241,56.389658974076156 57.394904458895326,56.28248707007151 54.81528662471101,57.247033706342336 53.35350318485871,58.42592250916641 52.75159235717729,58.74743734515505 51.63375796191394,58.854608929133974 50.60191082814708,58.64026574691525 49.48407643381506,58.318750869482756 48.022292993962765,58.318750869482756 45.7866242043674,58.96178049937589 45.35668789828196,58.854608929133974 44.58280254807323,57.67572073865449 44.23885350394994,56.389658974076156 43.8089171978645,55.746627340326086 44.152866242453456,56.92551828629803 43.98089171992615,58.96178049937589 44.23885350394994,60.56935238209553 44.410828026011586,61.21238025883213 45.7866242043674,63.570144853321835 46.302547771018,66.57092641567579 46.04458598792553,67.21394961653277 45.958598726429045,68.39282418438233 45.09872611472383,70.32188802747987 44.06687898095697,71.39358821435599 43.121019108686596,72.03660765837412 42.605095541570336,71.5007581562968 40.19745222944766,70.64339822961483 38.21974522341043,70.42905810876982 37.70382165675983,70.42905810876982 35.038216560613364,71.60792808473343 31.942675159778446,73.53698441386223 31.340764331631362,74.18000218819361 30.48089172039181,74.50151088781422 29.70700636971742,74.39434133504983 27.471337580122054,74.8230194618809 26.009554140735418,74.71584995120065 25.235668790061027,74.39434133504983 23.77388535067439,74.50151088781422 21.9681528666988,75.14452791074291 19.38853503204882,74.8230194618809 18.09872611472383,74.93018895899877 16.378980891779065,74.39434133504983 15.003184713888913,74.50151088781422 13.541401274502277,74.18000218819361 11.993630573619157,74.39434133504983 10.531847134232521,75.14452791074291 9.671974522527307,75.8947138049407 9.5,76.85923752386589 9.5,79.85997077537468 9.75796178355813,80.50298362452304 11.219745222944766,82.00334499083692 14.057324841152877,84.03954534057993 14.831210191827267,85.00405954255257 15.519108281005174,86.07574066758389 15.94904458662495,86.1829087031656 17.152866242453456,86.1829087031656 18.35668789828196,86.5044127277215 19.732484077103436,86.29007672535954 21.366242038551718,86.39724473340902 22.828025477938354,85.00405954255257 23.4299363065511,84.89689135336084 25.751592357177287,83.18219843733823 27.38535031909123,82.64635617029853 28.93312101950869,81.78900782001438 30.824840764980763,81.78900782001438 33.66242038225755,81.3603333105566 34.86624203855172,81.68183921341551 35.38216560566798,81.89617641235236 35.72611465025693,82.32485064305365 35.812101911287755,83.39653524645837 35.72611465025693,84.46821845817612 35.9840764333494,85.21839587885188 38.13375796191394,88.11193097161595 39.07961783511564,88.75493739242665 40.71337579656392,88.86210508068325 43.55095541430637,88.00476318591973 46.8184713376686,87.46892404963728 48.796178344171494,86.29007672535954 49.74203821690753,86.07574066758389 50.77388535067439,85.21839587885188 51.891719745472074,84.89689135336084 52.23566879006103,84.89689135336084 52.49363057361916,85.32556402636692 52.92356687923893,85.53990027855616 54.64331210264936,85.32556402636692 56.01910828007385,85.96857261762489 58.168789809104055,86.29007672535954 59.458598726429045,85.75423647614662 60.40445859869942,85.64706838421989 61.60828025499359,85.00405954255257 62.46815286623314,85.00405954255257 63.41401273896918,85.32556402636692 63.843949045054615,85.53990027855616 64.1878980891779,85.96857261762489 64.61783439526334,86.8259166268981 64.35987261170521,89.07644041493768 65.04777070088312,90.8982885114965 64.9617834398523,91.54129276215099 65.30573248444125,92.2914637546055 65.64968152856454,92.72013258689549 67.71337579656392,93.89897072885651 70.20700636971742,94.43480569118401 73.99044585973024,93.36313541838899 75.71019108314067,93.36313541838899 78.37579617835581,91.43412542168517 79.83757961774245,93.04163406527368 82.33121019089594,94.75630650145467 83.19108280306682,94.97064030566253 83.44904458662495,94.8634734104271 83.70700636971742,94.32763872633222 83.96496815327555,93.25596831471194 84.65286624245346,91.32695806754055 86.28662420390174,89.18360806128476 87.23248407663777,86.07574066758389 87.74840764328837,84.89689135336084 88.35031847143546,83.07503001170699 88.7802547775209,77.07357597490773 88.43630573293194,73.53698441386223" stroke="#4DD2FF" stroke-linecap="round" stroke-linejoin="round" stroke-width="0.5"><title>2026-04-27 2.68km</title><desc>18276936118</desc></polyline></g><text fill="#5A5A5A" style="font-size:6px; font-family:Arial; font-weight:bold;color:#0ed45e;" x="5" y="10">傍晚行走</text><text fill="#5A5A5A" style="font-size:4px; font-family:Arial" x="5" y="121">Runner</text><text fill="#5A5A5A" style="font-size:6px; font-family:Arial" x="2" y="128">蓝皮书</text><text fill="#5A5A5A" style="font-size:4px; font-family:Arial" x="25" y="121">WORKOUTS INFO</text><text fill="#5A5A5A" style="font-size:3px; font-family:Arial" x="25" y="125">Type: Hike</text><text fill="#5A5A5A" style="font-size:3px; font-family:Arial" x="22" y="129">Date: 2026-04-27</text><text fill="#5A5A5A" style="font-size:3px; font-family:Arial" x="47" y="125">Distance: 2.68 km</text><text fill="#5A5A5A" style="font-size:3px; font-family:Arial" x="47" y="129">Duration: 34:33min</text><text fill="#5A5A5A" style="font-size:3px; font-family:Arial" x="75" y="125">Pace: 12:53/km</text><text fill="#5A5A5A" style="font-size:3px; font-family:Arial" x="75" y="129">Elevation: 11m</text></svg>