<?xml version="1.0" encoding="utf-8" ?>
<svg baseProfile="full" height="130mm" version="1.1" viewBox="0,0,100,130" width="100mm" xmlns="http://www.w3.org/2000/svg" xmlns:ev="http://www.w3.org/2001/xml-events" xmlns:xlink="http://www.w3.org/1999/xlink"><defs /><rect fill="#FAF9F5" height="130" width="100" x="0" y="0" /><text fill="#5A5A5A" style="font-size:6px; font-family:Arial; font-weight:bold;color:#0ed45e;" x="5" y="10">新年新 F</text><text fill="#5A5A5A" style="font-size:4px; font-family:Arial" x="5" y="121">Runner</text><text fill="#5A5A5A" style="font-size:6px; font-family:Arial" x="2" y="128">蓝皮书</text><text fill="#5A5A5A" style="font-size:4px; font-family:Arial" x="25" y="121">WORKOUTS INFO</text><text fill="#5A5A5A" style="font-size:3px; font-family:Arial" x="25" y="125">Type: Run</text><text fill="#5A5A5A" style="font-size:3px; font-family:Arial" x="22" y="129">Date: 2026-01-01</text><text fill="#5A5A5A" style="font-size:3px; font-family:Arial" x="47" y="125">Distance: 5.12 km</text><text fill="#5A5A5A" style="font-size:3px; font-family:Arial" x="47" y="129">Duration: 37:46min</text><text fill="#5A5A5A" style="font-size:3px; font-family:Arial" x="75" y="125">Pace: 7:22/km</text><text fill="#5A5A5A" style="font-size:3px; font-family:Arial" x="75" y="129">Elevation: 0m</text><polyline fill="none" points="86.00520231225528,47.01296997189638 62.45433526020497,56.59384518666775 50.93641618499532,61.534841302927816 36.32832369930111,67.56036879797466 33.6127167630475,68.58470000006491 12.73063583788462,77.26128908226383 11.09190751449205,78.04458357044496 9.54682080913335,78.58686352655059 9.5,78.76762335855165 10.061849710764363,79.97268694645027 10.623699421761557,80.75597645144444 10.951445086859167,81.29825295793125 12.636994219617918,85.81719701367547 16.054913294734433,94.13192889507627 16.944508670363575,93.46916636099922 16.897687861230224,92.98715659810114 14.978034682106227,88.64904420179664 13.292485549114645,84.19038267293945 11.56011560675688,80.15344619072857 11.51329479762353,79.97268694645027 11.606936416123062,79.79192762559978 11.981502890121192,79.55091507814359 13.854335260111839,78.88812987072743 25.09132947959006,74.36911234798026 31.458959537558258,71.71793310038629 37.1710982657969,69.48851960437605 40.86994219641201,67.80138812586665 44.84971098252572,66.29501509058173 47.19075144501403,65.27067838524817 51.826011560624465,63.40276393762906 52.48150289012119,63.28225304695661 52.575144508853555,63.40276393762906 52.575144508853555,63.64378561655758 51.68554913275875,69.12699199278723 51.54508670512587,71.59742456086678 50.88959537586197,75.99596417596331 49.812716762768105,84.97366442682687 49.765895953634754,85.21467390755424 49.62543352600187,85.33517859707354 46.254335260018706,84.91341203544289 45.97341040452011,84.7929072267143 45.832947976887226,84.55189750751015 46.628901734249666,79.06888957493356 47.14393063564785,74.00758887617849 47.93988439301029,68.64495469990652 48.3612716763746,64.96940241515404 48.45491329487413,64.72838148576557 48.595375722507015,64.60787096989225 52.29421965335496,63.28225304695661 54.167052023112774,62.43867585805128 62.688439306337386,58.883582216483774 76.64104046230204,53.33998719212832 81.32312138751149,51.41176332408213 83.89826589613222,50.20661897608079 88.01849710987881,48.63992622875958 90.45317919086665,47.49503173245466 90.5,47.374516343610594 90.45317919086665,47.133485463185934 90.07861271686852,46.41039200415253 89.93815028923564,46.22961844780366 89.75086705200374,46.16936057864223 89.51676300587133,46.16936057864223 80.90173410414718,49.6643029077095 89.89132947986946,45.868071104894625" stroke="#4DD2FF" stroke-linecap="round" stroke-linejoin="round" stroke-width="0.5"><title>2026-01-01 5.12km</title><desc>16899128620</desc></polyline></svg>