<?xml version="1.0" encoding="utf-8" ?>
<svg baseProfile="full" height="130mm" version="1.1" viewBox="0,0,100,130" width="100mm" xmlns="http://www.w3.org/2000/svg" xmlns:ev="http://www.w3.org/2001/xml-events" xmlns:xlink="http://www.w3.org/1999/xlink"><defs /><rect fill="#FAF9F5" height="130" width="100" x="0" y="0" /><g id="tracks"><polyline fill="none" points="61.76168482680805,104.96800743807398 61.78802678606007,104.55567979760235 61.603633071063086,104.10899070423329 61.44558131520171,103.76538313165656 61.208503681467846,103.07816647960863 61.076793884974904,102.76891833075206 61.02410996647086,102.11605979144224 59.91774767579045,101.3944771910028 59.838721798034385,100.91342089344107 60.10214139102027,100.3292797798349 59.3909084899351,99.6420530819014 59.101146937697195,99.12663173984038 58.73235950747039,98.30195524162264 58.310888158739544,97.6834459691745 56.75671256007627,97.13365858288307 55.62400831026025,95.65609861011035 55.46595655451529,94.28161587782961 55.149853042908944,93.38819779168989 53.622019403614104,91.97933929425199 52.62102495029103,91.8418892326008 51.988817927078344,91.53262630007521 51.54100461897906,91.05154981833766 51.30392698536161,90.29557050050062 51.01416543300729,89.64267731462314 50.408300369163044,89.33341148840555 49.85511922382284,89.09287111995218 49.407305915723555,88.85233050533861 48.43265342176892,87.95889178138168 48.511679299524985,86.7218171722343 48.64338909625076,86.5843640358944 48.406311462516896,86.51563743760926 48.24825970665552,86.24073084347765 47.72142052068375,85.62218983110506 47.53702680557035,85.31291871446592 47.774104439187795,85.0723742312839 47.774104439187795,85.17546475426934 47.82678835792467,85.10673774403404 47.72142052068375,85.34728219197132 47.48434288694989,85.38164566454361 47.141897416091524,85.38164566454361 46.37798059650231,85.10673774403404 45.45601202105172,84.45383014409163 44.850146957091056,83.66346588594024 44.2179399341112,82.63255198969273 43.691100748139434,81.05180856602965 43.29597135854419,80.39888970139145 41.89984751585871,79.26486841491715 41.24129853316117,78.9899533396383 40.53006563219242,79.05868213860958 39.63443901599385,78.30266424444562 38.791496318532154,77.47791467717616 38.29099909181241,77.06553880815045 37.790501865092665,76.92808002443053 38.185631254687905,76.72189169796184 38.23831517319195,75.3129332926037 38.132947336067446,73.76650580731803 37.948553620954044,72.7699138137541 38.60710260341875,71.46402825281257 39.50272921961732,69.1271622958302 39.97688448696863,68.78350357760792 40.05591036484111,68.1992826032074 41.03056285891216,66.82463928734069 41.08324677753262,65.86238418199355 41.39935028902255,65.0719573978422 41.293982451898046,65.03759095560235 41.50471812626347,64.38462759842514 41.50471812626347,63.55982918548398 41.214956574025564,62.838128199538914 41.32032441126648,60.673011942984886 40.609091510181315,59.50452821503859 40.398355835699476,57.82052673956787 40.503723672940396,57.0300729056471 40.9778789402917,55.89593884750502 40.87251110305078,54.45248758429079 40.398355835699476,54.62432748530409 39.97688448696863,54.14317544572987 39.4763872603653,53.79949481420044 39.45004530088045,51.25624251869158 39.3973613823764,49.57218193197332 39.73980685335118,47.95684717128461 39.950542527483776,46.89140752826643 40.556407591560856,43.86690738105972 40.7934852251783,43.145145910428255 40.609091510181315,43.213885193603346 40.89885306241922,42.93892794025305 41.293982451898046,42.3202729436307 41.55740204488393,42.217163619119674 42.031557312235236,41.87346554415126 42.45302866096608,40.9111082595482 43.00620980630629,39.67378595918126 43.45402311440557,38.711419665356516 43.84915250376798,38.470827475975966 44.48135952698067,36.58045170173864 45.218934387434274,35.10251095741114 45.29796026519034,33.79641605009965 45.66674769530073,32.69654102316417 45.77211553265806,32.24971532271593 45.64040573616512,31.97474523850542 46.14090296276845,31.35606137261493 46.72042606724426,31.39043274128926 47.141897416091524,30.771747336621047 47.378975049825385,30.496775522857206 47.03652957896702,29.843716175164445 47.01018761959858,29.740601375422557 47.56336876493879,30.874861683900235 47.431658968445845,31.596660847440944 46.90481978247408,32.215344079828355 46.430664515006356,33.04025252215797 45.2716183058219,34.72443159933027 45.08722459082492,35.61807273796876 44.613069323357195,36.236745381436776 44.112572096753865,37.98964235828316 43.5857329107821,38.53956812659453 43.34865527704824,39.05512236560753 42.90084196906537,40.22370778594632 42.40034474246204,41.22043781657703 42.0052153528668,41.87346554415126 41.55740204488393,42.217163619119674 41.26764049252961,42.595230920938775 40.81982718454674,43.007667283774936 40.74080130655784,43.282624456696794 40.372013876447454,45.86033230619796 39.87151664972771,47.54441949554894 39.42370334174484,49.606550636017346 39.4763872603653,51.18750558824104 39.529071178869344,53.765126723461435 39.97688448696863,54.07443935961055 40.29298799857497,54.555591539960005 40.89885306241922,54.52122355978645 40.9778789402917,55.86157106331666 40.53006563219242,56.72076415990887 40.398355835699476,57.68305669861729 40.63543346943334,59.332691882693325 41.16227265528869,60.0887708053051 41.26764049252961,61.08541657742171 41.16227265528869,62.52882709846017 41.50471812626347,63.2505290343106 41.53106008551549,63.42236250186397 41.794479678501375,63.49109585370752 42.21595102734864,64.07532853282464 42.584738457459025,64.83139219673467 42.0052153528668,66.92773781501455 41.42569224827457,67.64942624179821 40.68811738793738,67.99308661847317 39.50272921961732,69.09279644662456 38.817838277784176,70.08940403348242 37.895869702333584,72.59808718084241 38.10660537669901,73.76650580731803 38.23831517319195,75.34729823224188 38.132947336067446,76.75625643166131 37.86952774296515,76.99680942637497 38.55441868479829,77.16863284326973 39.08125787077006,77.7184669332637 39.71346489386633,78.30266424444562 39.50272921961732,79.23050404812966 37.895869702333584,80.53634645510465 37.34268855699338,81.67036160659336 37.00024308625143,83.83528442909301 37.31634659774136,84.24764841997239 38.10660537669901,84.14455749004264 38.686128481291234,84.38510292285355 38.21197321393993,85.58782639382116 37.18463680136483,87.13417609869794 36.63145565602463,87.64962373948947 35.28801573184319,88.09634411381558 35.23533181310631,89.09287111995218 34.734834586502984,90.39865873243252 34.26067931915168,91.05154981833766 35.472409446840174,90.57047235187201 36.07827451080084,89.95194273404195 36.499745859531686,89.36777437802812 38.50173476629425,88.37124853748537 39.79249077185523,87.9245286857622 40.503723672940396,87.75271313199482 40.89885306241922,87.03108643493033 42.084241230855696,85.51909950410482 43.190603521303274,84.86619304983469 43.664758788770996,84.72873882831482 44.58672736422159,85.17546475426934 45.693089654669166,85.10673774403404 46.77310998598114,85.31291871446592 47.589710724307224,85.17546475426934 47.80044639855623,85.14110125160369 47.74776247993577,85.34728219197132 47.53702680557035,85.38164566454361 47.87947227654513,85.93146054077079 48.327285584644414,86.51563743760926 48.64338909625076,86.65309061402513 48.5907051776303,86.6874538957054 49.09120240423363,86.5843640358944 49.03851848549675,86.5843640358944 48.56436321826186,86.82490697162575 48.48533734038938,87.95889178138168 49.14388632285409,88.6805156298069 49.88146118319128,88.98978231522779 50.1712227355456,89.05850819003535 50.302932531922124,89.33341148840555 51.01416543300729,89.7114029986551 51.5673465783475,91.05154981833766 52.64736690954305,91.87625175547146 53.622019403614104,91.87625175547146 54.93911736854352,92.87276273558382 55.46595655451529,94.35034020536114 55.8610859438777,96.17152756243013 58.33723011787515,97.75216930203896 58.70601754821837,98.3363168201904 59.12748889694922,99.50460750122147 59.733353960793465,100.0887506641302 59.97043159452733,100.81033727295289 59.86506375728641,101.36011605958629 60.31287706538569,101.5319216666685 61.02410996647086,102.15042081245338 61.076793884974904,102.83764017683279 61.28752955934033,103.14688823524921 61.39289739669766,103.59357915700821 61.49826523370575,103.79974391142605 61.62997503031511,104.24643359248876 61.76168482680805,104.72748306898575 61.99876246054191,105.20853156101657 62.39389184990432,105.68957906859578 62.76267928024754,106.10190471999522 63.26317650685087,106.89219353039516 63.42122826259583,108.64456358869211 63.92172548919916,109.09124406322371 64.3168548787944,109.46920380178199 64.79101014626212,109.4348438506131 65.26516541349702,109.19432405216503 65.42321716924198,109.64100348202919 65.6076108844718,109.88152282341616 64.87003602401819,110.362560767986 63.92172548919916,110.5" stroke="#4DD2FF" stroke-linecap="round" stroke-linejoin="round" stroke-width="0.5"><title>2026-03-19 7.57km</title><desc>17773966271</desc></polyline></g><text fill="#5A5A5A" style="font-size:6px; font-family:Arial; font-weight:bold;color:#0ed45e;" x="5" y="10">晨间远足</text><text fill="#5A5A5A" style="font-size:4px; font-family:Arial" x="5" y="121">Runner</text><text fill="#5A5A5A" style="font-size:6px; font-family:Arial" x="2" y="128">蓝皮书</text><text fill="#5A5A5A" style="font-size:4px; font-family:Arial" x="25" y="121">WORKOUTS INFO</text><text fill="#5A5A5A" style="font-size:3px; font-family:Arial" x="25" y="125">Type: Hike</text><text fill="#5A5A5A" style="font-size:3px; font-family:Arial" x="22" y="129">Date: 2026-03-19</text><text fill="#5A5A5A" style="font-size:3px; font-family:Arial" x="47" y="125">Distance: 7.57 km</text><text fill="#5A5A5A" style="font-size:3px; font-family:Arial" x="47" y="129">Duration: 01:55:09</text><text fill="#5A5A5A" style="font-size:3px; font-family:Arial" x="75" y="125">Pace: 15:12/km</text><text fill="#5A5A5A" style="font-size:3px; font-family:Arial" x="75" y="129">Elevation: 634m</text></svg>