<?xml version="1.0" encoding="utf-8" ?>
<svg baseProfile="full" height="130mm" version="1.1" viewBox="0,0,100,130" width="100mm" xmlns="http://www.w3.org/2000/svg" xmlns:ev="http://www.w3.org/2001/xml-events" xmlns:xlink="http://www.w3.org/1999/xlink"><defs /><rect fill="#FAF9F5" height="130" width="100" x="0" y="0" /><g id="tracks"><polyline fill="none" points="52.74944182933541,110.5 52.67842303670477,109.57363644341967 52.2218736554496,109.1633866971024 52.41463894979097,108.38258365669026 53.07409916719189,107.72088089311728 52.74944182933541,107.28415441974357 52.526239909639116,107.24445190861297 52.43493003339972,106.84742583951447 51.35950260196114,106.80772313685884 51.10586405679351,106.41069515243726 50.14203758526128,106.02689977905538 49.74636145483237,105.51075860800483 49.462286284251604,104.38582534648594 48.894135943148285,104.02849067912757 48.40714993647998,103.98878674015577 47.96074609702919,103.18146953688847 47.078083959873766,102.65207729836402 47.05779287626501,101.96386275975965 46.62153457861859,101.51387350162986 46.712844454857986,101.39475832359312 46.42876928433543,101.54034351994778 45.718581357912626,101.10358722850651 45.099703307729214,99.78007044656988 44.45038863213267,99.1712462285941 43.89238383277552,99.0918340721546 42.84739302680828,98.28447319388215 43.04015832114965,98.1124117479485 42.908266277692746,96.66972983328014 43.314087949926034,95.57115845860244 44.014130334486254,94.79023816876725 44.41995200671954,94.61817008040816 44.71417271910468,93.75782473203435 44.166313461610116,92.80481726107246 44.206895628827624,91.98416389803606 43.92282045824686,91.52088855226611 44.075003585312515,89.68100019769918 43.49670770240482,89.35008105743327 43.46627107699169,87.48367444935138 43.973548167268746,85.28629535004438 44.55184405023465,84.74356097060081 45.22144980938174,83.44628024137637 45.728726899717,82.17545659738244 45.962074361217674,80.81194888329628 46.34760494984221,80.71928256492538 46.57080686959671,80.46775922245433 46.479496993357316,79.97794860174326 47.341868046845775,79.21013202309405 47.17953937797574,78.53497757951118 47.412886839476414,77.83334115336038 48.38685885281302,76.999313418768 49.1985021973378,75.83430942890118 48.88399040134391,75.22532410093118 48.397004394675605,75.39742906562606 47.96074609702919,75.25180180915049 47.72739863547031,74.76196295356203 46.86502758198185,74.25888244973612 45.97221990308026,74.5898567802069 44.724318260967266,74.45746719329327 43.4155433679698,74.89435209495423 42.03574968239991,74.89435209495423 41.71109234460164,73.87495070969453 41.193669712462,73.13356067037967 40.706683705793694,73.1070823423288 41.51832705026027,72.40540382576728 41.528472592064645,71.45217146317009 42.948848444910254,71.25358012360812 43.709764080354944,71.51836847953382 44.034421418153215,71.05498834810714 44.308351046871394,71.25358012360812 44.64315392647404,71.08146727667918 45.231595351186115,71.12118565502897 45.48523389635375,70.59160584353958 45.85047340136953,70.45921040630492 46.651971204031724,70.90935410239035 48.11292922409484,69.94286635005119 48.67093402345199,69.16172486908908 49.27966653177282,69.21468382667808 49.47243182605598,68.96312850206596 49.462286284251604,68.02309978299309 50.050727709021885,66.93742065756669 50.94353538798168,66.50049733299966 50.81164334440837,65.85172850375966 51.410230310983025,64.408532177702 52.029108361166436,64.11724205358041 52.232019197253976,63.68030510874814 52.91177049832186,63.49493728249945 54.717676939675584,63.74650781178934 54.69738585612504,64.62037895165122 55.29597282264149,64.01131813947723 55.701794494874775,62.84614689947921 55.15393523738021,61.34993909483455 54.33214635110926,60.76733821158996 53.50021192297572,60.51575939758186 53.63210396649083,59.628607469727285 52.71900520392228,59.350543134336476 51.91750740131829,58.70172302782157 51.31892043474363,58.794411899383704 51.176882849482354,59.019513049213856 50.64931467559654,58.39717320975615 49.82752578926738,58.34420791933371 49.7767980802455,57.92048447953857 49.41155857528793,57.589449161263474 48.69122510700254,57.20544667435024 48.34627668559551,57.258412631483225 47.636088759230915,56.5830943543624 47.09837504348252,55.74887069838587 47.50419671571581,54.8484301820572 47.341868046845775,54.6233186524405 46.814299872901756,54.25254550002137 46.3983326589223,54.265787424505106 45.51567052176688,53.85528686449834 45.04897559864912,53.41830035026942 45.43450618733186,52.94158538155898 45.41421510372311,52.42514133021905 45.74901798326755,52.014632416772656 45.18086764216423,51.484940743226616 44.77504596993094,51.59087932606781 44.37936983956024,51.98814790677716 43.4155433679698,52.27947709034197 43.111177113780286,51.63060626267543 41.98502197331982,51.100912340174546 40.87915791652631,52.014632416772656 40.41246299340855,52.716469106366276 40.36173528438667,53.51099463574792 39.93562252854463,53.98770660351147 40.35158974258229,53.52423666876712 40.39217190974159,52.782679833690054 40.89944900007686,51.98814790677716 42.14735064218985,50.8095793605753 42.96913952851901,50.27988062993245 42.93870290304767,49.975302455161 42.64448219072074,50.27988062993245 40.90959454188123,50.55797285029985 41.31541621411452,49.8826045462265 41.64007355191279,49.85611941191746 41.9038576388848,49.5382971954823 42.66477327432949,48.015383578444016 42.887975194025785,47.93592651194922 43.14161373919342,46.8500062742678 43.40539782610722,46.78379120385944 42.96913952851901,46.39974283970514 42.857538568612654,45.88326143382437 43.111177113780286,45.61839803031762 43.7300551639637,45.53893885800062 43.80107395659434,45.300560922245495 43.547435411426704,44.797316550088 43.85180166561622,44.16163544582378 43.69961853849236,43.367027782260266 43.973548167268746,43.04918276203534 43.46627107699169,42.61214403521444 43.40539782610722,41.94996012187039 43.29379686625907,41.685085198972956 43.01986723754089,41.71157272617711 43.01986723754089,41.221552217124554 42.583608939894475,40.74477295712131 42.593754481640644,40.47989450432942 42.756083150568884,40.96991903200251 43.09088603017153,41.27452753530088 43.050303862954024,41.142089181659685 43.33437903353479,41.142089181659685 43.4155433679698,41.48642849766475 43.16190482286038,40.532870256967726 43.96340262546437,41.03613835914439 44.35907875589328,40.94343128761102 44.55184405023465,41.142089181659685 44.98810234788107,40.996406768710585 44.59242621739395,41.11560148769786 44.02427587634884,41.049382218734536 43.30394240812166,40.57260205109196 42.64448219072074,40.532870256967726 42.19807835126994,39.738230709161144 42.34011593653122,37.2218260748341 43.1923414482153,35.89737445670471 44.94752018066356,34.29476206158142 45.35334185289685,33.65900712722214 46.46935145155294,33.248413023255125 47.808562969905324,31.990129157580668 48.50860535452375,31.857677205807704 48.87384485948132,32.04310988398356 49.27966653177282,31.857677205807704 50.36523950501578,30.559637810692948 50.324657337740064,31.40733911845018 50.94353538798168,30.811299965884245 51.866779692296404,30.612619375235226 52.05954498657957,30.75831851772091 53.43933867214946,30.67884628727188 53.916179137071595,31.102697375798016 53.90603359520901,31.38084857283684 54.352437434659805,31.235150433501985 55.03218873566948,30.798054606733785 55.48873811692465,30.029820457595633 55.98586966545554,30.745073150850658 56.92940505343722,30.28148408739071 59.67884688277263,30.241747771331575 59.25273412693059,30.003329508414026 57.00042384600965,29.5 57.75119393970817,29.8046471424459 59.72957459179452,30.26823865062761 59.80059338448336,30.996734789914626 59.12084208347369,32.05635506071849 59.303461835952476,32.58616053976584 60.064377471397165,33.0894728695348 60.023795304237865,33.72523180813732 59.01938666537171,33.8444361114889 57.284499016590416,34.6126378526169 56.523583381203935,34.45370009676117 56.37140025408007,34.745085769063735 55.407573782489635,34.87753349154082 55.072770902945194,35.26163078963873 54.15967214037664,35.182162516983226 53.27701000327943,34.69210662578553 52.54653099324787,35.4603011657091 51.52183127088938,35.38083306768385 51.38993922737427,35.7649282279599 51.065281889576,35.95035289385123 51.034845264221076,36.678803257593245 51.94794402673142,38.1224420950748 51.76532427419443,38.90385166906344 51.21746501669986,39.181978871143656 48.69122510700254,38.66545624356513 48.25496680935612,38.7316772581471 50.46669492305955,39.857427086470125 51.26819272566354,40.49313844539574 51.9580895685358,40.638821669133904 51.74503319058567,41.089113785936206 52.85089724743739,41.84401024581166 52.98278929089429,42.148615805010195 52.63784086948726,42.4399766841816 51.97838065214455,42.57241313715349 51.00440863874974,43.28756663195236 50.49713154847268,43.274323100085894 50.01014554180438,43.52594987352495 49.08690123743145,43.4067583312717 48.7115161906695,43.923253879846015 48.05205597321037,43.976227615450625 47.737544177274685,44.201365645756596 46.256295073602814,43.91001044106815 45.06926668231608,45.141641949361656 44.409806464915164,46.33352743964497 43.14161373919342,46.82352025192813 42.82710194319952,47.829983648101916 43.182195906410925,47.79025504216406 42.66477327432949,48.028626416038605 41.83283884625416,49.60451024935901 41.33570729778148,49.8826045462265 40.929885625548195,50.531487913802266 41.102359836222604,50.54473038301512 41.12265091983136,50.83606421568402 41.558909217477776,50.783094497717684 41.95458534784848,51.15388187202916 41.85312992986292,51.56439469201723 42.34011593653122,52.173539313960646 42.78651977604022,53.65665689246089 42.715500983351376,54.1068842028908 43.38510674255667,55.56348661894299 42.69520989974262,56.1726043105009 42.30967931111809,57.311378557664284 41.44730825762963,58.55606889491901 41.38643500680337,59.297578402096406 40.90959454188123,59.57564290031587 40.77770249842433,60.19797463242139 40.11824228102341,61.04539819209458 40.6559559967136,62.952072177795344 41.78211113717407,65.07055169918021 42.62419110711198,65.87820895521872 42.887975194025785,67.06982124845672 42.76622869237326,67.4935018371616 41.9038576388848,68.79101129800983 41.14294200344011,69.57215597956383 40.706683705793694,70.73724060067616 40.73712033114862,71.62428360490594 41.457453799434006,71.37273497966817 41.660364635521546,71.88907087595726 41.457453799434006,72.40540382576728 40.73712033114862,73.04088648832112 40.81828466564184,73.38510440033133 41.17337862885324,73.21299560801708 41.67051017738413,73.82199447976745 42.025604140537325,74.89435209495423 41.9038576388848,75.06645768913586 42.24880606023362,74.78844079733244 43.38510674255667,74.85463537285978 44.78519151173532,74.45746719329327 45.93163773580454,74.5898567802069 46.773717705742456,74.21916544873966 47.74768971907906,74.76196295356203 48.31584006018238,75.35771256438602 48.87384485948132,75.22532410093118 49.15792003006209,75.74163801296527 48.53904197993688,76.84045012156275 47.49405117391143,77.71419480474287 47.19983046152629,78.52173920672067 47.32157696323702,79.1836554731417 46.44906036788598,80.09709196973563 46.58095241145929,80.83842495684803 45.759163525130134,81.99012665821647 44.54169850843027,84.74356097060081 43.95325708365999,85.24658318871661 43.51699878601357,87.45720031989913 43.51699878601357,89.2971338826901 44.09529466892127,89.76042061133921 43.92282045824686,91.45470616644889 44.17645900341449,92.77834468811488 44.64315392647404,93.98283892057952 44.430097548582125,94.63140609885158 44.02427587634884,94.76376617646747 43.39525228436105,95.43879956159799 42.89812073588837,96.89473678299692 43.34452457528096,97.62269661169557 43.6387452876661,98.85359718489781 43.93296600005124,99.1050694364094 44.28805996326264,99.0521279677996 44.97795680607669,99.66095298700384 45.18086764216423,100.49477191228652 45.65770810702816,101.16976255964255 46.286731699015945,101.50063848960417 46.73313553846674,101.40799335108022 46.60124349500984,101.54034351994778 47.017210709047504,102.00356758688577 47.1085205852869,102.67854698380688 48.02161934779724,103.28734761314263 48.13322030764539,103.75056274046074 48.488314270915,104.0152560347342 49.43184965883847,104.38582534648594 49.71592482941924,105.55046187943663 50.04058216721751,106.01366542680626 51.075427431380376,106.42392944666062 51.410230310983025,106.86066006985493 52.25231028086273,106.83419160725316 52.71900520392228,107.32385691345553 53.023371458170004,107.78705138713121 52.41463894979097,108.44875366703491 52.171145946427714,109.20308836673212 52.597258702269755,109.58687027527776 52.74944182933541,110.47353260134696" stroke="#89CFF0" stroke-linecap="round" stroke-linejoin="round" stroke-width="0.5"><title>2026-03-21 26.05km</title><desc>17799013990</desc></polyline></g><text fill="#5A5A5A" style="font-size:6px; font-family:Arial; font-weight:bold;color:#0ed45e;" x="5" y="10">香不八拉</text><text fill="#5A5A5A" style="font-size:4px; font-family:Arial" x="5" y="121">Runner</text><text fill="#5A5A5A" style="font-size:6px; font-family:Arial" x="2" y="128">蓝皮书</text><text fill="#5A5A5A" style="font-size:4px; font-family:Arial" x="25" y="121">WORKOUTS INFO</text><text fill="#5A5A5A" style="font-size:3px; font-family:Arial" x="25" y="125">Type: Hike</text><text fill="#5A5A5A" style="font-size:3px; font-family:Arial" x="22" y="129">Date: 2026-03-21</text><text fill="#5A5A5A" style="font-size:3px; font-family:Arial" x="47" y="125">Distance: 26.05 km</text><text fill="#5A5A5A" style="font-size:3px; font-family:Arial" x="47" y="129">Duration: 06:42:03</text><text fill="#5A5A5A" style="font-size:3px; font-family:Arial" x="75" y="125">Pace: 15:25/km</text><text fill="#5A5A5A" style="font-size:3px; font-family:Arial" x="75" y="129">Elevation: 1675m</text></svg>