<?xml version="1.0" encoding="utf-8" ?>
<svg baseProfile="full" height="130mm" version="1.1" viewBox="0,0,100,130" width="100mm" xmlns="http://www.w3.org/2000/svg" xmlns:ev="http://www.w3.org/2001/xml-events" xmlns:xlink="http://www.w3.org/1999/xlink"><defs /><rect fill="#FAF9F5" height="130" width="100" x="0" y="0" /><g id="tracks"><polyline fill="none" points="12.279037677915767,31.95854760799557 12.560887956875376,32.52280144416727 13.12458851467818,34.054341940704035 14.439889815985225,37.19800454811775 15.222807257203385,39.374366044125054 16.25625827978365,41.631315971084405 17.91604325536173,45.82274699897971 19.200027859187685,48.724470840301365 19.857678509783,50.497731980867684 21.548780183074996,54.487529218080454 22.51959781011101,56.94586132958648 22.676181298564188,57.630966501514195 23.11461506562773,58.63847111648647 23.55304883280769,59.36387223465135 24.46123306476511,59.16237210916006 24.680449948180467,59.2429721764056 24.868350134114735,59.48477224149974 25.181517110671848,60.6534696649469 25.839167761383578,62.26545824954519 26.2149681331357,63.393844835605705 26.653401900432073,65.08641634066589 27.060518969898112,66.17449271635269 27.0918356673792,66.65808088367339 33.32385850022547,65.570006353606 37.019228823133744,64.76402254294953 45.06762011977844,63.3132459417684 47.541639234288596,62.749053047562484 49.76512476766948,62.426656606578035 51.98861030081753,61.94306126172887 53.17864481173456,61.82216229735059 57.030598622979596,60.975868111039745 57.594299180665985,60.774369124905206 57.970099552650936,60.85496873644297 58.596433505415916,61.2579664522782 60.19358508568257,62.023660542967264 61.007819224731065,62.22515864594607 62.29180382844061,62.26545824954519 64.23343908286188,62.184859036729904 65.54874038440175,62.104259801184526 67.70959252223838,61.70126328166225 68.39855987066403,61.37886565591907 70.74731219455134,60.734069310623454 72.9707977278158,59.64597217098344 74.50531591277104,58.75937143093324 76.32168437668588,57.55036597850267 77.07328512019012,56.905560974119 78.95228697929997,55.092039079841925 79.86047121125739,54.124822685611434 80.36153837386519,53.43970908768824 80.61207195511088,53.23820477494155 80.92523893155158,53.23820477494155 81.42630609392654,53.48000993320602 82.27185693057254,53.72181488623028 83.71242502261885,54.286025646026246 85.49747678870335,54.85023528896272 86.84409478784073,55.37414324335987 87.81491241499316,55.898050234944094 88.44124636799097,56.5025571056467 88.72309664695058,56.905560974119 88.8170467398595,57.147363021591445 88.72309664695058,57.34886457127868 88.56651315861382,57.469765432790155 86.96936157846358,58.35637018317357 82.74160739535,60.85496873644297 81.26972260558978,61.62066390935797 79.14018716523424,62.91025113122305 76.60353465564549,64.24013184409705 70.46546191559173,67.8670477134583 70.3088784274878,67.98794411442941 70.21492833446246,68.55212664126884 69.9957114510471,69.19690530496882 69.80781126511283,71.93719835727825 69.08752721908968,79.02959925084724 69.05621052137576,80.03702824949869 68.89962703315541,81.76979780063266 68.17934298713226,87.73366831845487 68.17934298713226,88.01574018585961 68.27329308004119,88.25751585015678 68.27329308004119,88.37840360536939 68.02275949891191,89.62757407518802 68.02275949891191,90.27230507967761 67.89749270817265,91.11851231064065 67.77222591766622,93.49593823484611 67.67827582475729,94.22125067230081 67.64695912704337,94.98685624360223 67.4590589411091,97.04189261273132 67.49037563882302,97.88807975398959 67.20852535986342,100.10427227101172 67.11457526695449,101.67574380070437 67.02062517392915,102.7233866758761 66.98930847621523,103.93220059509622 66.83272498799488,105.62453147335327 66.70745819748845,106.55127984104911 66.5821914068656,108.76740503005567 66.5195580116706,109.17033503219136 66.83272498799488,109.25092096420121 69.43201089312788,109.3717998197244 70.3401951250853,109.57326446508523 72.50104726315476,109.81502185142017 73.2839647042565,110.05677903286414 76.00851740001235,110.29853600938804 76.38431777188089,110.29853600938804 76.9480183298001,110.17765754673746 78.32595302630216,110.33882881893078 79.10887046775315,110.33882881893078 80.39285507134628,110.5 80.73733874561731,110.45970721318736 80.92523893155158,110.33882881893078 80.95655562914908,110.13736471458105 81.08182241977192,108.44506061836728 81.20708921039477,107.92125017225044 81.20708921039477,107.35714553878643 81.3010393033037,106.59157318022335 81.45762279152405,103.60985071762116 81.5828895822633,102.96514986970578 81.70815637265332,101.23250911792275 81.92737325641792,99.41926915041404 82.14659014006611,96.47776645683916 82.1779068375472,95.30921586908516 82.36580702348147,94.10036539423163 82.36580702348147,93.41534785015392 82.4284404189093,92.77062395247049 82.24054023285862,92.08560321383993 82.11527344235219,91.964717030467 79.45335414190777,91.36028534398065 78.1067361428868,90.9573301745113 71.93734670535196,89.42609533725772 70.18361163686495,88.86195411384688 68.86831033532508,88.57988308355561 68.46119326597545,88.37840360536939 68.36724317306653,88.21721992042148 68.89962703315541,82.85781050880905 69.30674410262145,77.82067975381506 69.71386117208749,73.7909110756591 69.9957114510471,70.00287658377783 70.15229493915103,68.67302275181282 70.15229493915103,68.06854168657446 70.27756172977388,66.94017360248836 70.27756172977388,66.09389460872626 70.653362101526,63.1117486077128 70.80994558986276,61.33856592711527 70.74731219455134,60.774369124905206 70.52809531090315,60.37137072553742 70.37151182279922,60.25047109450679 70.15229493915103,60.25047109450679 69.55727768386714,60.57286999645294 69.4633275908418,61.0161678911536 69.36937749793287,61.21766670641955 69.2127940094797,61.33856592711527 67.64695912704337,61.741562959272414 66.73877489508595,61.94306126172887 64.29607247805689,62.26545824954519 62.79287099081557,62.346057439484866 61.571519782417454,62.30575784741086 61.039135922444984,62.22515864594607 60.475435364525765,62.06396017494262 59.567251132801175,61.70126328166225 58.72170029615518,61.2579664522782 57.93878285493702,60.57286999645294 56.68611494882498,59.16237210916006 56.34163127455395,59.00117190621677 54.838429787312634,59.40417224258999 51.08042606909294,60.210171206214 47.541639234288596,60.814668933453504 37.89609635749366,62.78935257697594 33.51175868615974,63.595341970125446 26.99788557435386,65.00581792541198 26.87261878384743,64.84462102656835 26.716035295743495,64.15953318969696 26.434185016783886,63.23264702525921 25.964434552006423,62.144559421780286 25.619950877851807,60.975868111039745 25.181517110671848,60.008671678981045 25.118883715360425,59.64597217098344 24.711766645894386,58.88027169430279 23.521732135210186,56.018951711506816 22.707497996161692,53.92331885723979 22.269064228981733,52.95609849784523 20.045578695600852,47.79753449058626 19.513194835628383,46.346671544306446 19.106077766162343,45.46002944209613 18.260526929516345,43.082202916557435 17.75945976714138,42.03434086331981 16.600741954054683,39.13254892069381 15.974408000940457,37.39952019962948 15.598607629071921,36.67406318790745 13.218538607587107,30.709124424436595 12.71747144497931,29.903042044723406 12.185087584890425,30.023954546952154 11.715337120112963,29.983650385285728 11.182953260140494,29.5" stroke="#4DD2FF" stroke-linecap="round" stroke-linejoin="round" stroke-width="0.5"><title>2026-02-12 9.15km</title><desc>17369004844</desc></polyline></g><text fill="#5A5A5A" style="font-size:6px; font-family:Arial; font-weight:bold;color:#0ed45e;" x="5" y="10">你就说 ta 六不六呀</text><text fill="#5A5A5A" style="font-size:4px; font-family:Arial" x="5" y="121">Runner</text><text fill="#5A5A5A" style="font-size:6px; font-family:Arial" x="2" y="128">蓝皮书</text><text fill="#5A5A5A" style="font-size:4px; font-family:Arial" x="25" y="121">WORKOUTS INFO</text><text fill="#5A5A5A" style="font-size:3px; font-family:Arial" x="25" y="125">Type: Run</text><text fill="#5A5A5A" style="font-size:3px; font-family:Arial" x="22" y="129">Date: 2026-02-12</text><text fill="#5A5A5A" style="font-size:3px; font-family:Arial" x="47" y="125">Distance: 9.15 km</text><text fill="#5A5A5A" style="font-size:3px; font-family:Arial" x="47" y="129">Duration: 01:07:49</text><text fill="#5A5A5A" style="font-size:3px; font-family:Arial" x="75" y="125">Pace: 7:24/km</text><text fill="#5A5A5A" style="font-size:3px; font-family:Arial" x="75" y="129">Elevation: 0m</text></svg>