<?xml version="1.0" encoding="utf-8" ?>
<svg baseProfile="full" height="130mm" version="1.1" viewBox="0,0,100,130" width="100mm" xmlns="http://www.w3.org/2000/svg" xmlns:ev="http://www.w3.org/2001/xml-events" xmlns:xlink="http://www.w3.org/1999/xlink"><defs /><rect fill="#FAF9F5" height="130" width="100" x="0" y="0" /><g id="tracks"><polyline fill="none" points="25.749703635228798,70.92407855941565 26.837264636182226,70.77324119048717 27.739708871231414,70.56206868904701 28.156221595127136,70.38106351598981 28.804130276548676,69.98888509723474 29.544597341213375,69.68720888393 30.12308723537717,69.26486144545197 30.539599959156476,69.11402286539669 31.071810661815107,68.75200982390379 31.372625406831503,68.48049962657387 33.15437428094447,67.33411930488364 34.126237303134985,66.48941394552821 35.05182113382034,65.58436865713156 36.06996334763244,64.92066625948064 36.50961566728074,64.49830907834985 37.68973505136091,63.593255068859435 38.91613362717908,62.537353714113124 39.35578594671097,62.235666621723794 39.864857053617015,61.964147861814126 40.397067756275646,61.63229111535475 41.09125562943518,61.02891384711256 41.57718714047223,60.48587279909407 42.340793800889514,60.12384464094066 43.405215206206776,59.037756360528874 43.7985883342335,58.82657186529832 44.26138024951797,58.76623339843354 45.094405697193,59.3092789658549 45.64975599560421,60.184182711382164 46.575339826289564,61.240096091423766 47.20010891207494,62.05465415478102 47.500923657091334,62.50718502467498 48.2645303173922,63.442412348653306 49.375230914214626,64.86032957224234 49.814883233979344,65.61453689725022 50.48593151103705,66.64025444157596 51.457794533343986,68.45033180489554 52.198261598008685,70.4112310558994 52.61477432178799,71.3464226067008 52.79989108792506,72.04027166755986 53.355241386336274,73.1866258809896 53.49407896096818,73.63913237258384 54.14198764250614,75.29831436403038 54.55850036628544,75.99215015565278 54.97501309006475,77.19881554885069 55.275827835081145,77.68147973321902 56.24769085738808,80.06461761900573 56.594784793793224,81.12042941621621 57.61292700760532,83.3526994572021 58.28397528489586,85.22296119763632 58.746767200296745,86.39940749143716 59.047581945196725,86.97254556737607 59.53351345635019,88.32997151231393 60.29712011676747,89.77788269300072 60.52851607440971,90.41134064471407 61.26898313895799,92.07038798327267 61.523518692469224,92.82449600713153 61.94003141624853,93.66909372727969 62.44910252315458,95.20745927722601 62.819336055312306,95.96155585467932 63.05073201318737,96.56483113557624 63.49038433271926,97.34908636813634 63.81433867337182,98.31431949223042 64.09201382263564,98.85726114365389 64.25399099313654,99.09856808638142 64.67050371679943,99.40020136866951 65.36469158984255,99.79232397743908 66.38283380365465,99.97330339218024 67.77120954974089,99.97330339218024 68.46539742290042,99.79232397743908 69.80749397736508,99.58118112669035 70.45540265878662,99.40020136866951 71.45040527684614,99.52085455828637 72.19087234139442,99.67167094635079 72.58424546953756,99.88281370469485 73.13959576794878,100.69721946626669 73.67180647060741,101.66243695421144 74.2271567689022,103.1705802550714 74.57425070554018,103.89448513067327 74.80564666318242,104.49773725688283 74.9676238335669,104.85968768752355 75.38413655746263,105.46293699661328 75.6849513023626,106.24715846632898 76.12460362201091,106.94089036302466 76.5642559415428,108.08705100408406 76.86507068655919,108.6601289412647 77.21216462308075,109.2935290231253 77.92949209187645,110.37935321919213 78.1608880496351,110.5 78.27658602839801,110.46983831145917 78.34600481577218,110.37935321919213 78.39228400727734,110.16822118326672 78.32286521990318,109.95708893190022 78.13774845376611,109.56498560692125 77.60553775110748,108.62996698413917 77.21216462308075,107.84575455523736 77.02704785694368,107.302836515315 76.63367472891696,106.57894357694022 76.58739553729538,106.42813222910627 76.61053513304796,106.18683384351607 76.65681432466954,106.0661845450959 76.88821028231177,105.85504810337443 77.2815834103385,105.55342424106493 78.46170279453509,104.58822492399486 78.83193632680923,104.40724955023325 80.59054560516961,103.26106850316864 81.37729186133947,102.71813842019765 81.42357105284464,102.65781276748748 80.72938317980152,101.02901348615706 80.49798722204287,100.33526174613507 79.73438056185842,98.34448295479524 79.52612419985235,97.59039507184934 78.7162383479299,95.26778710467624 78.60054036916699,94.8756559114554 78.32286521990318,94.27237569984572 77.95263168762904,93.15630266597145 77.62867734697647,92.43236017813615 77.23530421894975,91.22578372966382 77.05018745281268,90.74315117789956 76.88821028231177,89.89854150016617 75.82378887699451,87.90766217383498 75.17588019545656,86.91221531845804 74.75936747167725,86.58039863443992 74.73622787592467,86.52006827102741 74.78250706742983,86.39940749143716 74.2734359606402,85.94692894013133 73.69494606635999,85.28329193973332 70.96447376580909,81.75391390538425 70.10830872238148,80.84893546935928 69.52981882798485,79.94395307012019 68.14144308201503,78.2244755931606 67.63237197510898,77.44014778191922 67.07702167681418,76.35415051344899 66.26713582489174,75.14748018801038 65.54980835609604,73.91063579177717 65.17957482370548,73.09612446371466 64.99445805756841,72.5832823508099 64.69364331266843,72.10060625830374 63.83747826924082,69.86821466476249 63.397825949592516,68.42016397877887 63.32840716233477,68.02798183832783 63.143290396081284,67.66596689423022 62.79619645967614,66.64025444157596 62.680498480796814,66.06705997091194 62.14828777802177,64.67931940457493 62.07886899088044,64.40780385580729 61.89375222462695,63.23123235510138 61.17642475583125,61.20992721253424 60.57479526591487,59.610970331093995 60.34339930827264,59.158433118107496 60.06572415900882,58.34386363705562 59.903746988624334,57.64996858325321 59.64921143522952,56.86556267281412 59.34839669021312,55.59843914232624 59.11700073257089,54.87436506441736 58.83932558330707,54.210628264045226 58.46909205103293,52.852978167371475 58.26083568902686,52.37025598307082 57.983160539879464,51.616000312482356 57.68234579486307,51.01259379336261 57.520368624594994,50.590208181456546 57.173274688073434,50.13765121040342 56.849320347304456,49.262704922337434 56.52536600665189,48.689462241876754 56.155132474261336,48.29724264930701 55.784898941987194,47.633484719641274 55.34524662233889,47.09040846359858 54.697337940800935,46.48698872720706 53.95687087636907,45.70254043508612 52.86930987518281,44.82757536477584 51.92058644874487,44.13363491556083 50.78674625616986,43.439692135405494 49.62976646760944,42.44403103181685 48.91243899881374,42.05179958262306 48.00999476399738,41.267334450167255 47.13069012470078,40.8147570573492 46.22824588988442,40.24149093638698 44.88614933518693,39.064781809807755 44.33079903689213,38.732888280341285 43.91428631299641,38.37082200369332 43.173819248448126,37.948410545504885 42.82672531181015,37.64668754665763 42.38707299227826,37.405308830260765 41.69288511923514,36.98289539803227 40.53590533090755,36.10789339787152 39.03183160594199,35.142369648470776 37.01868677418679,33.48286516091321 36.393917688401416,33.15096266371256 35.746009006979875,32.54750221168797 34.8435647720471,31.974213149602292 33.640305792097934,31.129363210726297 32.29820923751686,30.043122498158482 31.11808985332027,29.560347014834406 30.77099591679871,29.5 30.447041576029733,29.62069401187182 28.896688659559004,30.857803568040254 28.387617552652955,31.15953648237337 27.57773170096334,31.15953648237337 27.230637764325365,31.21988301233796 27.16121897706762,31.250056270713685 26.906683423672803,31.15953648237337 26.675287465914153,31.189709749567555 25.54144727322273,31.672481425164733 24.106792335631326,32.12507884648221 23.551442037220113,32.27594443320413 21.977949524996802,32.78888660407392 20.45073620439507,33.06044370822201 19.756548331235535,33.30182750124368 19.29375641583465,33.42251929205668 19.06236045830883,33.543211012205575 18.877243692055345,33.72424846034846 18.784685309045017,33.96563147769484 18.8078249047976,34.508742235499085 18.71526652178727,35.05185156557127 18.69212692603469,35.866512883556425 18.599568542907946,36.349273630126845 18.576428947155364,36.65099852385174 18.599568542907946,37.1941022220999 18.69212692603469,37.737204492572346 18.854104096419178,38.310477562466986 18.900383287807927,38.40099421759078 19.06236045830883,38.55185522130341 19.316896011703648,38.64237177062023 19.594571160851046,38.67254394496558 20.38131741702091,38.49151083304605 21.815972354612313,38.280305335341836 22.81097497267183,38.280305335341836 26.096797571750358,37.67685986634751 27.300056551699527,37.58634289402107 27.554592105094343,37.58634289402107 27.78598806273658,37.67685986634751 28.248779978137463,38.15961638261797 28.919828255311586,38.732888280341285 29.336340979207307,39.15529813448666 30.285064405645244,40.33200674541877 30.77099591679871,40.87510076696344 31.41890459822025,41.68973912236106 31.696579747484066,42.112142930942355 32.552744790911674,43.16814867389621 33.131234685191885,43.922435185697395 35.09810032544192,46.96972465737781 35.931125773116946,48.0558763762092 36.417057284154,48.81014504363702 37.27322232758161,49.805775468441425 37.82857262599282,50.348844586886116 38.33764373289887,51.0729345245054 38.8698544355575,51.616000312482356 39.517763117095456,52.58144707743486 40.35078856477048,53.51671932914178 41.02183684206102,54.42181747726863 41.762303906609304,55.23640242057445 43.01184207806364,56.89573218594887 43.335796418832615,57.408613235660596 43.636611163732596,58.10250909999013 43.70602995110676,58.37403293432726 43.68289035523776,58.494710079496144 43.54405278083868,58.64555641185143 42.456491779652424,59.55063209324726 42.0631186516257,60.03333750231832 41.43834956572391,60.546210763801355 40.906138863181695,61.14958944164391 40.42020735202823,61.602122293785214 38.522760499152355,62.74853441673622 36.417057284154,64.40780385580729 35.49147345358506,64.98100292925665 33.6634453877341,66.33857333932247 33.17751387669705,66.64025444157596 32.3676280247746,67.36428728957253 29.9379704692401,69.14419059017382 28.757851085043512,69.80787942219467 26.767845849040896,70.4715661223745 25.56458686897531,70.80340867310588 24.56958425103221,71.04474837538146 23.782837994862348,71.1050832568144" stroke="#89CFF0" stroke-linecap="round" stroke-linejoin="round" stroke-width="0.5"><title>2026-03-28 10.06km</title><desc>17884684737</desc></polyline></g><text fill="#5A5A5A" style="font-size:6px; font-family:Arial; font-weight:bold;color:#0ed45e;" x="5" y="10">门头沟 10KM</text><text fill="#5A5A5A" style="font-size:4px; font-family:Arial" x="5" y="121">Runner</text><text fill="#5A5A5A" style="font-size:6px; font-family:Arial" x="2" y="128">蓝皮书</text><text fill="#5A5A5A" style="font-size:4px; font-family:Arial" x="25" y="121">WORKOUTS INFO</text><text fill="#5A5A5A" style="font-size:3px; font-family:Arial" x="25" y="125">Type: Run</text><text fill="#5A5A5A" style="font-size:3px; font-family:Arial" x="22" y="129">Date: 2026-03-28</text><text fill="#5A5A5A" style="font-size:3px; font-family:Arial" x="47" y="125">Distance: 10.06 km</text><text fill="#5A5A5A" style="font-size:3px; font-family:Arial" x="47" y="129">Duration: 01:00:55</text><text fill="#5A5A5A" style="font-size:3px; font-family:Arial" x="75" y="125">Pace: 6:03/km</text><text fill="#5A5A5A" style="font-size:3px; font-family:Arial" x="75" y="129">Elevation: 19m</text></svg>