<?xml version="1.0" encoding="utf-8" ?>
<svg baseProfile="full" height="130mm" version="1.1" viewBox="0,0,100,130" width="100mm" xmlns="http://www.w3.org/2000/svg" xmlns:ev="http://www.w3.org/2001/xml-events" xmlns:xlink="http://www.w3.org/1999/xlink"><defs /><rect fill="#FAF9F5" height="130" width="100" x="0" y="0" /><g id="tracks"><polyline fill="none" points="88.29176334128715,46.298036074615084 86.69431554502808,46.84224378611543 84.76798143866472,47.80972245213343 82.18387470999733,48.837666136591 74.61948955920525,51.80054881388787 69.9211136889644,53.85641452638083 67.61890951287933,54.70294459426077 50.84570765658282,61.65652102357126 44.972737818956375,63.893734617420705 39.80452436185442,66.13093650829978 36.75058004632592,67.34022995497799 33.97853828291409,68.54951998215984 11.050464036874473,77.86093866315787 9.640951276058331,78.52603224027553 9.5,78.70742121807416 9.5,78.94927306901081 9.922853828174993,79.85621629172238 10.5806264502462,80.46084403828718 11.003480278421193,81.7305595241196 12.600928074214607,85.66060737558291 14.950116009218618,91.94860882606008 15.607888631056994,93.46013385435799 15.842807424487546,93.82289906643564 15.983758700778708,93.82289906643564 16.782482598675415,93.33921204871149 16.782482598675415,92.91598545957822 15.560904872370884,90.13477174079162 14.527262180810794,87.47446343506454 12.788863108959049,83.42350764144794 11.661252900026739,80.52130676596425 11.614269141340628,80.27945580406231 11.70823665894568,80.03760470534326 17.581206496572122,77.43769675740623 33.837587006855756,70.84716161355027 43.42227378161624,66.8565129864437 45.34860788844526,66.37279547110666 46.241299303714186,65.76814780742279 48.02668213448487,65.10303439007839 48.1676334105432,65.16349928890122 48.1676334105432,65.4053587988601 47.8387470995076,66.49372490120004 47.040023201843724,71.81458597624442 46.94605568423867,72.90293576809927 46.66415313235484,75.26101748325163 46.194315545260906,79.79575346992351 45.53654292342253,84.63275219409843 45.63051044079475,84.99552489322377 45.959396751830354,85.11644905788125 48.12064965185709,85.41875931993127 49.20127610210329,85.47922134658438 49.67111368919723,85.3582972845179 49.85904872370884,84.93506279800204 50.23491879343055,81.24685883094207 51.17459396738559,74.17267369193723 51.785382830537856,70.061127707595 51.879350347910076,68.73091319116065 52.44315545237623,64.37745493670809 52.44315545237623,63.28908344890806 52.53712296974845,63.04722274208325 52.67807424580678,62.92629233736079 55.49709976790473,62.07977854699129 57.09454756369814,61.23326308099786 58.87993039446883,60.56814261083491 61.37006960553117,59.41929572605295 64.75290023186244,58.149513999698684 66.72621809737757,57.182058724953094 69.02842227369547,56.3959997028287 76.45185614842921,53.19128258325509 83.3114849186968,50.53074446588289 84.72099767974578,49.865607350104256 90.31206496525556,47.628320368996356 90.5,47.38645080506103 90.03016241290607,46.4189711814397 89.79524361947551,46.17710093356436 89.27842227369547,46.17710093356436 84.392111368943,48.293460964399856 80.16357308579609,49.865607350104256 76.87470997683704,51.19588054684573" stroke="#4DD2FF" stroke-linecap="round" stroke-linejoin="round" stroke-width="0.5"><title>2026-03-11 5.07km</title><desc>17679811601</desc></polyline></g><text fill="#5A5A5A" style="font-size:6px; font-family:Arial; font-weight:bold;color:#0ed45e;" x="5" y="10">晨间跑步</text><text fill="#5A5A5A" style="font-size:4px; font-family:Arial" x="5" y="121">Runner</text><text fill="#5A5A5A" style="font-size:6px; font-family:Arial" x="2" y="128">蓝皮书</text><text fill="#5A5A5A" style="font-size:4px; font-family:Arial" x="25" y="121">WORKOUTS INFO</text><text fill="#5A5A5A" style="font-size:3px; font-family:Arial" x="25" y="125">Type: Run</text><text fill="#5A5A5A" style="font-size:3px; font-family:Arial" x="22" y="129">Date: 2026-03-11</text><text fill="#5A5A5A" style="font-size:3px; font-family:Arial" x="47" y="125">Distance: 5.07 km</text><text fill="#5A5A5A" style="font-size:3px; font-family:Arial" x="47" y="129">Duration: 38:14min</text><text fill="#5A5A5A" style="font-size:3px; font-family:Arial" x="75" y="125">Pace: 7:32/km</text><text fill="#5A5A5A" style="font-size:3px; font-family:Arial" x="75" y="129">Elevation: 0m</text></svg>