<?xml version="1.0" encoding="utf-8" ?>
<svg baseProfile="full" height="130mm" version="1.1" viewBox="0,0,100,130" width="100mm" xmlns="http://www.w3.org/2000/svg" xmlns:ev="http://www.w3.org/2001/xml-events" xmlns:xlink="http://www.w3.org/1999/xlink"><defs /><rect fill="#FAF9F5" height="130" width="100" x="0" y="0" /><g id="tracks"><polyline fill="none" points="36.648936170269735,51.25854646283551 35.28723404253833,51.86096086775069 34.32978723407723,52.18954975339875 31.819148936192505,53.284842012275476 30.776595744653605,53.64081066266226 29.71276595746167,54.106307141206344 27.670212766039185,54.90038678712153 25.478723404346965,55.9135181599122 24.287234042654745,56.37900917591469 23.478723404346965,56.76235387835186 19.265957446885295,58.40525115170749 17.414893617038615,59.254075949196704 16.15957446815446,59.69217761491018 15.308510638424195,60.07551575945399 14.60638297884725,60.3219470231561 13.18085106392391,60.979095526767196 12.67021276592277,61.28028784574417 10.095744680962525,62.183861992292805 9.819148936192505,62.32076679824968 9.69148936169222,62.43029057334934 9.5425531915389,62.70409974010545 9.5,62.86838505437481 9.56382978730835,62.950527659239015 9.77659574477002,63.08743192334077 10.010638297884725,63.14219360180141 10.797872340423055,62.8957659266016 15.031914893654175,61.28028784574417 18.287234042654745,59.88384678204602 19.43617021292448,59.47312690594117 22.35106382984668,58.240962051509996 22.5425531915389,58.21358052130381 22.606382978730835,58.240962051509996 22.5425531915389,58.9528804790898 22.436170212808065,59.39098282618215 22.11702127661556,61.28028784574417 21.882978723500855,63.525524917873554 21.69148936169222,64.8671785495535 21.52127659576945,66.83857110647659 21.244680851115845,68.70042343046225 20.989361702115275,71.1098528119619 20.797872340423055,72.45145390850666 20.627659574500285,73.76566638087388 20.606382978730835,74.36801078403369 20.35106382984668,76.39406457539008 20.30851063830778,76.99640080500103 20.180851063807495,77.73562907232554 18.840425531961955,78.52961184670858 16.882978723500855,80.0628107526718 16.32978723407723,80.52824373370095 15.223404255346395,81.5686192944122 14.968085106345825,81.86977959806973 14.882978723500855,82.08880497943028 14.92553191492334,82.19831757714564 14.98936170223169,82.280451984916 15.11702127661556,82.33520823736035 15.35106382984668,82.280451984916 15.4574468084611,82.22569571697386 15.88297872338444,81.78764501625847 15.92553191492334,81.81502321413427 16.031914893654175,81.81502321413427 16.287234042654745,81.70551039956626 17.88297872338444,80.4187301916536 19.308510638424195,79.37834845484758 19.52127659576945,79.24145570512337 19.691489361808635,79.214077143537 19.77659574477002,79.32359136658488 19.5425531915389,80.74727063185128 19.43617021292448,80.88416231753945 19.159574468038045,81.07581051487068 17.86170212761499,82.14356128606596 16.75531914900057,83.15655016686651 15.648936170269735,84.33380085931276 14.81914893630892,85.34677828650456 13.71276595746167,86.93467818821955 13.138297872501425,87.94764201491489 13.11702127661556,88.02977398490475 13.15957446815446,88.08452861224941 13.94680851069279,88.3035469668248 14.15957446815446,88.3035469668248 14.22340425546281,88.22141511291557 14.478723404346965,87.64649116025248 15.01063829800114,86.77041328475752 15.69148936169222,85.86695382585458 16.5,84.90873464380275 17.60638297884725,83.78624328768637 18.351063829963095,83.10179414655431 19.13829787238501,82.52685499910149 19.5,82.280451984916 19.585106382961385,82.280451984916 19.6276595746167,82.33520823736035 19.648936170269735,82.55423309237813 19.11702127661556,86.00384189354372 19.074468085193075,86.66090327169513 18.96808510646224,87.26320757725625 18.797872340423055,89.09748642634077 18.819148936192505,89.17961790881236 18.96808510646224,89.23437221114 20.010638297884725,89.37125789924175 20.5425531915389,89.39863502529624 20.606382978730835,89.34388076940377 20.670212766039185,89.15224075186416 20.712765957578085,88.27616968602524 20.840425531961955,87.53698164247908 20.96808510646224,86.25024017148826 21.13829787238501,85.45628904252953 21.4574468084611,82.88276991067687 21.5425531915389,82.88276991067687 21.96808510646224,83.26606216099754 22.202127659576945,83.62197571441357 22.457446808577515,84.2516673222708 22.92553191492334,85.07300112594385 23.053191489423625,85.64793271642702 23.095744680962525,85.75744330212183 23.202127659576945,85.75744330212183 23.393617021269165,85.51104439723713 23.585106382961385,85.37415598136431 23.71276595746167,85.20988975465298 23.840425531961955,84.9634901532554 23.79787234053947,84.79922357827309 23.5425531915389,84.6075790647592 23.457446808577515,84.44331218794105 23.010638297884725,83.78624328768637 22.712765957578085,83.40295206662267 22.15957446815446,82.85539186374808 22.031914893654175,82.63636734921602 21.989361702115275,82.47209880079026 22.01063829800114,82.00667049038748 21.989361702115275,81.8424014079792 21.861702127731405,81.59599752318172 21.71276595746167,81.45910634066968 21.69148936169222,81.37697158465744 21.755319148884155,80.96629728237167 21.840425531961955,80.85678398812888 22.07446808507666,80.66513557403232 23.670212766039185,79.73426915155142 24.606382978730835,79.26883426280983 25.75531914900057,78.8033982556517 26.56382978730835,78.55699050500698 28.202127659576945,78.36533981557295 30.90425531915389,78.28320374776376 33.47872340423055,78.09155278738763 34.37234042561613,78.0367953353998 35.414893617038615,78.09155278738763 35.94680851069279,78.06417406332912 40.202127659576945,77.70825029787375 45.031914893654175,76.69523292433587 46.13829787238501,76.42144353550975 47.81914893630892,76.12027476093499 49.98936170223169,75.65483118811972 51.5425531915389,75.38104032877891 52.32978723407723,75.16200736262545 53.90425531915389,74.83345744901453 55.47872340423055,74.58704464799666 58.670212766039185,73.90256300065084 61.478723404346965,73.35497594108165 62.819148936192505,73.13594068381644 63.75531914900057,72.91690517893585 65.8191489361925,72.53359244925377 68.39361702126916,71.98600151960272 69.11702127661556,71.90386274656339 72.37234042561613,71.19199192161614 73.11702127661556,71.1098528119619 73.94680851069279,70.91819475384546 74.28723404253833,70.94557448803971 75.20212765957695,71.32889036044071 75.8617021277314,71.52054801206395 76.2234042553464,71.60268694763363 76.67021276603919,71.60268694763363 77.71276595757809,71.54792766114406 79.07446808507666,71.41102937722462 81.43617021269165,70.78129602476838 82.75531914900057,70.23370014107786 83.5425531915389,69.87776198649954 84.5425531915389,69.33016354829306 85.43617021280807,68.72780347813386 86.67021276592277,67.71473913542286 87.8617021277314,66.5373874312063 89.07446808519308,64.8945591392112 89.67021276603919,63.88147474627476 90.09574468096253,63.06005107820965 90.2659574468853,62.6493379376916 90.45744680857752,61.99219510133844 90.5,61.17076342027576 90.39361702138558,60.595759170653764 90.30851063830778,60.23980330345512 89.92553191492334,59.336220087017864 89.43617021280807,58.73382893402595 89.15957446815446,58.43263265483256 88.62765957450029,57.99452813991229 88.32978723407723,57.8302386913565 87.77659574477002,57.611185876405216 87.09574468084611,57.446896102672326 86.1808510638075,57.255224523702054 84.71276595746167,57.09093444800237 84.09574468084611,57.09093444800237 83.03191489365418,57.173079503234476 81.84042553196196,57.337369509303244 80.8617021277314,57.58380425714131 80.07446808519308,57.8302386913565 79.47872340434697,58.1588174491626 78.5851063830778,58.54215862872661 77.26595744676888,59.336220087017864 76.15957446803804,60.212422055759816 75.26595744676888,61.0338578014198 74.28723404253833,62.21124296118796 73.5425531915389,63.4433825568849 72.75531914900057,64.9767008846975 72.39361702126916,65.90763823284942 72.2659574468853,66.5373874312063 72.2659574468853,67.16713458177401 72.4574468084611,68.26234214079159 72.73404255323112,69.00160374220286 72.94680851057637,69.41230341275514 73.1808510638075,69.76824242270959 74.01063829788473,70.56225785710558 74.03191489365418,70.61701742226433 74.03191489365418,70.69915674101503 73.94680851069279,70.78129602476838 73.11702127661556,70.9729542183195 73.58510638296138,70.80867577838944 73.60638297873084,70.72653650614666 73.45744680857752,70.48011848029273 72.84042553196196,69.85038210131461 72.69148936169222,69.68610270916543 72.6276595746167,69.68610270916543 72.35106382984668,69.76824242270959 71.32978723407723,69.93252174511144 70.90425531915389,70.09680092823692 69.52127659576945,70.42535887652775 68.24468085111585,70.61701742226433 62.648936170269735,71.7669647141447 61.18085106392391,72.09551982933772 55.819148936192505,73.08118183091574 47.414893617038615,74.8882158065826 44.73404255323112,75.5179358067544 41.64893617015332,76.17503275479248 41.5851063830778,76.17503275479248 41.606382978730835,76.06551675150695 41.500000000116415,75.95600068647764 41.244680851115845,75.87386359694938 41.11702127661556,75.87386359694938 40.478723404346965,76.0928957581782 40.031914893654175,76.17503275479248 39.244680851115845,76.12027476093499 38.60638297884725,75.95600068647764 38.180851063807495,75.73696837044554 38.053191489423625,75.62745211957372 37.92553191492334,75.21676562735229 37.90425531915389,74.83345744901453 37.79787234053947,74.58704464799666 37.457446808577515,74.34063153366151 36.882978723500855,74.25849375911639 36.457446808577515,74.28587302118831 36.13829787238501,74.3953900305496 34.989361702115275,75.10724908235716 34.5425531915389,75.2715238766541 33.94680851069279,75.35366122149571 32.904255319270305,75.2715238766541 32.393617021269165,75.29890299543331 32.010638297884725,75.40841943210398 31.265957446885295,75.84648455941351 30.819148936192505,75.95600068647764 30.095744680962525,75.95600068647764 29.79787234053947,75.90124263064354 29.35106382984668,75.70958931355563 28.989361702115275,75.62745211957372 28.457446808577515,75.65483118811972 27.75531914900057,75.87386359694938 27.648936170269735,75.84648455941351 27.13829787238501,75.65483118811972 26.989361702115275,75.65483118811972 25.69148936169222,76.01075872675574 23.96808510646224,76.58571721523185 23.095744680962525,76.53095933755685 22.56382978730835,76.64047507752548 22.35106382984668,76.58571721523185 22.30851063830778,76.50358039281855 22.30851063830778,76.31192767168977 22.414893617038615,75.95600068647764 22.69148936169222,73.9573216214194 23.670212766039185,65.93501867538725 23.71276595746167,65.3874090899335 23.96808510646224,63.470763347810134 24.159574468038045,61.80052802074351 24.56382978730835,58.78859184352041 24.67021276592277,57.529041006884654 24.75531914900057,57.30998785133124 24.94680851069279,57.200461180575076 26.5851063830778,56.57068162197538 27.989361702115275,55.9135181599122 28.86170212761499,55.584935592720285 30.41489361715503,54.90038678712153 37.712765957578085,51.970490558232996 39.351063829730265,51.25854646283551 39.436170212808065,51.14901636967261 39.457446808577515,50.95733855753497 39.39361702138558,50.79304313909961 39.223404255346395,50.628747581198695 39.09574468084611,50.60136497471831 38.26595744676888,50.84780829408555" stroke="#89CFF0" stroke-linecap="round" stroke-linejoin="round" stroke-width="0.5"><title>2026-02-18 13.15km</title><desc>17434400284</desc></polyline></g><text fill="#5A5A5A" style="font-size:6px; font-family:Arial; font-weight:bold;color:#0ed45e;" x="5" y="10">和—迎雨水</text><text fill="#5A5A5A" style="font-size:4px; font-family:Arial" x="5" y="121">Runner</text><text fill="#5A5A5A" style="font-size:6px; font-family:Arial" x="2" y="128">蓝皮书</text><text fill="#5A5A5A" style="font-size:4px; font-family:Arial" x="25" y="121">WORKOUTS INFO</text><text fill="#5A5A5A" style="font-size:3px; font-family:Arial" x="25" y="125">Type: Run</text><text fill="#5A5A5A" style="font-size:3px; font-family:Arial" x="22" y="129">Date: 2026-02-18</text><text fill="#5A5A5A" style="font-size:3px; font-family:Arial" x="47" y="125">Distance: 13.15 km</text><text fill="#5A5A5A" style="font-size:3px; font-family:Arial" x="47" y="129">Duration: 01:38:17</text><text fill="#5A5A5A" style="font-size:3px; font-family:Arial" x="75" y="125">Pace: 7:28/km</text><text fill="#5A5A5A" style="font-size:3px; font-family:Arial" x="75" y="129">Elevation: 9m</text></svg>