<?xml version="1.0" encoding="utf-8" ?>
<svg baseProfile="full" height="130mm" version="1.1" viewBox="0,0,100,130" width="100mm" xmlns="http://www.w3.org/2000/svg" xmlns:ev="http://www.w3.org/2001/xml-events" xmlns:xlink="http://www.w3.org/1999/xlink"><defs /><rect fill="#FAF9F5" height="130" width="100" x="0" y="0" /><g id="tracks"><polyline fill="none" points="90.5,43.940078039770015 78.37872340413742,49.1153303043684 70.56595744681545,52.220457076618914 67.52127659553662,53.55122004891746 62.98297872324474,55.473427252145484 59.70851063821465,57.02597406535642 57.008510638261214,57.91314160334878 53.15957446792163,59.61354184389347 48.678723404416814,61.31393655505963 40.923404255416244,64.56685016112169 36.902127659413964,66.11936997564044 9.959574467968196,77.20866317942273 9.614893616875634,77.35651883372338 9.5,77.5783022363903 9.557446808554232,77.87401329382556 10.189361701952294,79.27863853267627 10.64893617015332,79.42649360134965 10.93617021269165,79.87005855707685 11.51063829800114,81.64431461726781 16.853191489353776,95.09889383328846 17.25531914853491,95.91207159403712 17.485106382751837,96.05992196022999 18.519148936262354,95.54244549572468 18.576595744583756,95.32066971150925 18.519148936262354,95.02496851945762 15.53191489353776,87.63238437875407 15.014893616782501,86.523487744038 12.774468084797263,81.34860569203738 12.142553191632032,79.64827612618683 12.08510638284497,79.27863853267627 12.142553191632032,78.98292826965917 12.257446808507666,78.83507307537366 13.980851063737646,78.2436518802424 29.31914893607609,71.81190319458256 32.70851063821465,70.55511547671631 44.88723404263146,65.4540049051866 46.151063829660416,65.0104277213104 51.95319148921408,62.64467638509814 53.90638297889382,61.97930689336499 55.342553191585466,61.240006465232 56.66382978740148,60.72249554359587 56.83617021283135,60.79642570647411 56.89361702138558,60.94428600126412 56.66382978740148,61.83144689130131 55.97446808498353,66.56294621911366 55.572340425569564,69.96368491725298 55.227659574477,74.25154131866293 54.88297872338444,76.24760040873662 54.36595744686201,81.1268238882185 53.79148936155252,84.74924823798938 53.848936170106754,85.04495524027152 53.96382978698239,85.26673538243631 54.25106382998638,85.34066207543947 58.55957446806133,85.6363687433186 58.789361702278256,85.48851543030469 58.90425531915389,85.26673538243631 59.593617021339014,79.94398601324065 60.62765957438387,71.36833140387898 61.48936170199886,64.78863898816053 61.661702127428725,62.64467638509814 62.12127659562975,59.169959705439396 62.12127659562975,58.87423807097366 62.06382978730835,58.726377190847415 61.60425531887449,58.726377190847415 57.582978723337874,60.35284457152011 57.23829787247814,60.574635185999796 57.065957446582615,60.94428600126412 56.778723404277116,63.67969391174847 56.37659574463032,66.11936997564044 56.26170212752186,67.67188518121839 55.859574468107894,70.11154261982301 55.39999999990687,74.91689519525971 54.82553191483021,77.80008554516826 54.480851063737646,80.53540528519079 54.30851063807495,83.27071071788669 54.02127659576945,84.97102850535884 54.07872340409085,85.26673538243631 58.272340425523,85.6363687433186 58.789361702278256,85.56244209199212 58.96170212747529,85.04495524027152 59.13404255337082,82.97500271210447 60.168085106415674,75.8779604115407 61.087234042352065,68.3372474295902 62.00638297852129,61.609656809829175 62.23617021297105,59.317820460069925 62.178723404183984,58.80030763614923 62.06382978730835,58.65244673512643 61.54680851055309,58.80030763614923 57.582978723337874,60.42677478684345 57.12340425536968,60.79642570647411 57.008510638261214,61.01821613282664 56.08936170185916,67.74581436166773 55.4574468084611,73.43832987523638 54.997872340492904,75.8779604115407 53.96382978698239,84.97102850535884 54.02127659576945,85.19280867878115 54.480851063737646,85.41458875825629 58.55957446806133,85.71029538428411 58.789361702278256,85.6363687433186 59.076595744583756,85.11888196464861 59.593617021339014,79.87005855707685 59.99574468052015,77.5783022363903 61.25957446824759,67.0065220859833 61.71914893621579,63.901483115099836 62.23617021297105,59.02209890901577 62.465957446722314,58.57851626886986 62.810638297814876,58.2827942998847 64.24680851073936,57.76528045156738" stroke="#4DD2FF" stroke-linecap="round" stroke-linejoin="round" stroke-width="0.5"><title>2026-03-10 5.53km</title><desc>17667224603</desc></polyline></g><text fill="#5A5A5A" style="font-size:6px; font-family:Arial; font-weight:bold;color:#0ed45e;" x="5" y="10">晨间跑步</text><text fill="#5A5A5A" style="font-size:4px; font-family:Arial" x="5" y="121">Runner</text><text fill="#5A5A5A" style="font-size:6px; font-family:Arial" x="2" y="128">蓝皮书</text><text fill="#5A5A5A" style="font-size:4px; font-family:Arial" x="25" y="121">WORKOUTS INFO</text><text fill="#5A5A5A" style="font-size:3px; font-family:Arial" x="25" y="125">Type: Run</text><text fill="#5A5A5A" style="font-size:3px; font-family:Arial" x="22" y="129">Date: 2026-03-10</text><text fill="#5A5A5A" style="font-size:3px; font-family:Arial" x="47" y="125">Distance: 5.53 km</text><text fill="#5A5A5A" style="font-size:3px; font-family:Arial" x="47" y="129">Duration: 43:02min</text><text fill="#5A5A5A" style="font-size:3px; font-family:Arial" x="75" y="125">Pace: 7:46/km</text><text fill="#5A5A5A" style="font-size:3px; font-family:Arial" x="75" y="129">Elevation: 0m</text></svg>