<?xml version="1.0" encoding="utf-8" ?>
<svg baseProfile="full" height="130mm" version="1.1" viewBox="0,0,100,130" width="100mm" xmlns="http://www.w3.org/2000/svg" xmlns:ev="http://www.w3.org/2001/xml-events" xmlns:xlink="http://www.w3.org/1999/xlink"><defs /><rect fill="#FAF9F5" height="130" width="100" x="0" y="0" /><g id="tracks"><polyline fill="none" points="83.51158077595755,48.08970916320686 80.65055008698255,49.236591176944785 74.41256514191628,51.83215488406131 69.11262304591946,54.186257157154614 67.89316734229214,54.54842558555538 65.59496236266568,55.453845312207704 54.80746960057877,59.98091514161206 52.64997104811482,61.00704429598409 51.71192819927819,61.36920693790307 49.92964678630233,62.15389160846826 48.05356108862907,62.81785443393164 43.269542559282854,64.80973671472748 35.99971048068255,67.70700344257057 28.682976259384304,70.7853277977847 25.071511291200295,72.1735844607174 18.92733063129708,74.82936723798048 11.798204979626462,77.72656597170862 9.640706427395344,78.63193654449424 9.546902142697945,78.752652475785 9.5,78.99408423597924 9.922119282186031,79.95980991143733 10.53184713376686,80.38231420746888 10.672553561162204,80.56338734924793 12.689345686230808,85.99554589367472 13.627388535067439,88.10803332951036 15.550376375438645,93.17796053236816 15.737984944833443,93.66080760234036 15.972495657159016,93.72116344759706 16.676027793902904,93.41938413554453 16.816734221065417,93.23831644587335 16.769832078600302,92.81582487147534 15.831789229763672,90.22051031340379 13.580486392369494,84.60733417316806 11.798204979626462,80.44267192989355 11.704400694696233,79.89945212058956 11.798204979626462,79.71837869711453 14.04950781702064,78.93372630866361 17.098147075856104,77.60584975060192 27.229009843664244,73.56183660964598 30.69976838468574,72.2339433436864 34.63954834989272,70.5438913955586 37.03155761444941,69.57814442150993 38.76693688472733,68.67275464933482 43.597857556538656,66.74125005121459 45.61464968160726,66.07729332742747 48.00665894616395,64.9908164612134 48.19426751602441,65.05117635976057 48.241169658489525,65.47369540986256 47.86595251900144,67.52592484810157 47.631441806675866,68.43131705228006 47.35002895211801,71.32855920350994 45.98986682109535,81.8308971915103 45.70845396653749,84.66769129844033 45.70845396653749,84.84876262268517 45.80225825123489,85.02983387024142 45.98986682109535,85.09019093576353 49.60133178927936,85.39197613479337 49.788940359139815,85.27126208081609 49.92964678630233,84.96947679613368 50.5862767805811,79.17515796647058 51.4305153444875,73.50147791436757 52.60306890564971,64.4475769912533 52.64997104811482,63.54217633869848 52.55616676318459,63.361095977568766 52.46236247802153,63.30073584016645 49.03850607993081,64.62865689152386 48.61638679774478,64.87009663879871 48.38187608565204,65.17189613095252 48.19426751602441,66.8016097022628 47.91285466100089,68.00880092932493 47.303126809420064,72.89789049277897 46.03676896379329,82.37411454337416 45.755356109002605,84.48661989721586 45.849160393700004,84.90911971370224 45.94296467863023,85.09019093576353 49.366821076953784,85.45233314918005 49.7420382166747,85.39197613479337 49.88274464383721,85.27126208081609 50.304863925790414,82.61554425556096 50.633178923046216,79.41658948772238 52.64997104811482,64.4475769912533 52.696873190579936,63.66289653649437 52.60306890564971,63.30073584016645 49.273016792256385,64.50793696640176 48.663288940442726,64.87009663879871 48.52258251304738,65.05117635976057 48.147365373559296,66.74125005121459 48.00665894616395,67.82772246285458 48.00665894616395,68.55203586781863 47.631441806675866,71.08712310847477 47.209322524722666,74.95008424439584 46.03676896379329,82.55518684021081 45.80225825123489,84.48661989721586 45.89606253616512,84.90911971370224 45.98986682109535,85.02983387024142 48.19426751602441,85.33161911205389 49.695136074209586,85.39197613479337 49.88274464383721,85.27126208081609 49.97654892876744,84.84876262268517 52.50926462071948,64.74937678212882 52.696873190579936,63.481816226791125 52.83757961797528,63.180015539954184 53.02518818760291,62.9385748366185 55.182686740066856,62.27461219896213 57.05877243774012,61.36920693790307 63.57817023736425,58.713340428395895 65.68876664736308,57.747566692123655 68.92501447582617,56.54034644921194 79.85321366530843,51.89251664307085 85.80978575558402,49.538401721278206 90.4061957153026,47.60681055128225 90.5,47.486085813172394 89.89027214841917,46.39956163210445 89.70266357855871,46.27883655237383 89.23364215390757,46.27883655237383 74.60017371177673,52.07360186832375 62.96844238555059,56.90251288050786" stroke="#4DD2FF" stroke-linecap="round" stroke-linejoin="round" stroke-width="0.5"><title>2026-03-16 7.19km</title><desc>17737629287</desc></polyline></g><text fill="#5A5A5A" style="font-size:6px; font-family:Arial; font-weight:bold;color:#0ed45e;" x="5" y="10">晨间跑步</text><text fill="#5A5A5A" style="font-size:4px; font-family:Arial" x="5" y="121">Runner</text><text fill="#5A5A5A" style="font-size:6px; font-family:Arial" x="2" y="128">蓝皮书</text><text fill="#5A5A5A" style="font-size:4px; font-family:Arial" x="25" y="121">WORKOUTS INFO</text><text fill="#5A5A5A" style="font-size:3px; font-family:Arial" x="25" y="125">Type: Run</text><text fill="#5A5A5A" style="font-size:3px; font-family:Arial" x="22" y="129">Date: 2026-03-16</text><text fill="#5A5A5A" style="font-size:3px; font-family:Arial" x="47" y="125">Distance: 7.19 km</text><text fill="#5A5A5A" style="font-size:3px; font-family:Arial" x="47" y="129">Duration: 57:12min</text><text fill="#5A5A5A" style="font-size:3px; font-family:Arial" x="75" y="125">Pace: 7:57/km</text><text fill="#5A5A5A" style="font-size:3px; font-family:Arial" x="75" y="129">Elevation: 0m</text></svg>