<?xml version="1.0" encoding="utf-8" ?>
<svg baseProfile="full" height="130mm" version="1.1" viewBox="0,0,100,130" width="100mm" xmlns="http://www.w3.org/2000/svg" xmlns:ev="http://www.w3.org/2001/xml-events" xmlns:xlink="http://www.w3.org/1999/xlink"><defs /><rect fill="#FAF9F5" height="130" width="100" x="0" y="0" /><g id="tracks"><polyline fill="none" points="84.5617363343481,55.654279228590894 76.69614147860557,58.73803760416922 74.71672025718726,59.67656878088019 68.67427652725019,62.08992613351438 64.71543408324942,63.83289880401571 54.66205787775107,67.85511897478136 49.97395498375408,69.93325269443449 46.7443729902152,71.13990680334973 43.56688102893531,72.54766604944598 35.28456591628492,75.83242137005436 25.179099678294733,80.12267976326984 14.031832797452807,84.61400242894888 11.844051446765661,85.68655080269673 9.5,86.55799457011744 13.615112540312111,84.74807110836264 16.323794212192297,83.80958955650567 20.2826366557274,82.06669031819911 26.37717041792348,79.72046968789073 43.04598070750944,72.68173814075999 49.505144694587216,70.13436192573863 51.58874598075636,69.12881491560256 58.933440514141694,66.31327194208279 62.006752411369234,64.90549418560113 69.24726688093506,62.156963662127964 79.40482315095142,57.86654270507279 90.5,53.442005429882556" stroke="#4DD2FF" stroke-linecap="round" stroke-linejoin="round" stroke-width="0.5"><title>2026-02-26 3.24km</title><desc>17524775321</desc></polyline></g><text fill="#5A5A5A" style="font-size:6px; font-family:Arial; font-weight:bold;color:#0ed45e;" x="5" y="10">晨间跑步</text><text fill="#5A5A5A" style="font-size:4px; font-family:Arial" x="5" y="121">Runner</text><text fill="#5A5A5A" style="font-size:6px; font-family:Arial" x="2" y="128">蓝皮书</text><text fill="#5A5A5A" style="font-size:4px; font-family:Arial" x="25" y="121">WORKOUTS INFO</text><text fill="#5A5A5A" style="font-size:3px; font-family:Arial" x="25" y="125">Type: Run</text><text fill="#5A5A5A" style="font-size:3px; font-family:Arial" x="22" y="129">Date: 2026-02-26</text><text fill="#5A5A5A" style="font-size:3px; font-family:Arial" x="47" y="125">Distance: 3.24 km</text><text fill="#5A5A5A" style="font-size:3px; font-family:Arial" x="47" y="129">Duration: 23:08min</text><text fill="#5A5A5A" style="font-size:3px; font-family:Arial" x="75" y="125">Pace: 7:08/km</text><text fill="#5A5A5A" style="font-size:3px; font-family:Arial" x="75" y="129">Elevation: 0m</text></svg>