<?xml version="1.0" encoding="utf-8" ?>
<svg baseProfile="full" height="130mm" version="1.1" viewBox="0,0,100,130" width="100mm" xmlns="http://www.w3.org/2000/svg" xmlns:ev="http://www.w3.org/2001/xml-events" xmlns:xlink="http://www.w3.org/1999/xlink"><defs /><rect fill="#FAF9F5" height="130" width="100" x="0" y="0" /><g id="tracks"><polyline fill="none" points="19.19515470636543,29.887199449760374 19.46258689556271,30.618574843887473 20.398599557811394,32.726647026545834 21.03375100705307,34.36146846006159 21.936334645724855,36.383472293644445 22.872347307857126,38.749629931058735 23.17320852074772,39.739108577981824 23.708072899025865,40.90066636237316 24.309795324807055,42.44940317765577 25.446382128982805,45.03061368674389 27.351836477057077,49.93485333386343 27.986987926298752,51.26844869233901 29.123574730358087,54.02165933154174 29.792155203409493,55.95749564783182 30.360448605497368,57.03295494694612 30.4607356764609,57.42011936419294 30.895312984008342,58.366519199626055 31.329890291322954,59.657059686258435 32.06532881176099,61.592860154865775 32.299331977264956,62.496229493030114 32.49990611919202,63.05545678694034 32.90105440292973,65.07726996851852 33.20191561593674,66.15269703950617 33.60306389967445,68.64767320849933 34.00421218329575,70.71246560421423 34.30507339630276,73.68058013077825 34.338502419763245,77.2078670001356 34.27164437249303,77.89611332988716 34.27164437249303,78.6273733501439 34.37193144345656,78.79943427609396 34.90679582185112,78.84244949239655 36.076811649720185,78.58435810354422 41.86003274121322,78.71340382529888 47.14181847800501,78.58435810354422 49.51527915697079,78.6273733501439 50.95272717392072,78.49832759198034 54.763635870069265,77.98214401185396 57.070238501997665,77.46595955616795 59.61084429943003,76.73469674534863 61.91744693124201,76.00343217756017 62.619456427986734,75.65930706710787 63.08746275911108,75.35819727624767 64.42462370509747,74.88502414582763 65.69492660381366,74.23978687351337 67.73409704642836,73.37946838224889 70.37498991494067,71.95993755487143 75.2221983440686,69.80912065482698 77.16108171571977,68.77672314361553 77.26136878679972,68.81973977645976 77.1945107395295,69.12085603640298 77.02736562117934,71.74485654884484 76.79336245567538,73.4224843645643 76.59278831374831,75.78835402915138 76.559359290055,76.00343217756017 76.35878514836077,76.47660356914275 76.4590722193243,77.42294414539356 76.2584980771644,79.10054066230077 76.12478198262397,82.06857338632108 75.89077881712001,83.74614429683425 75.65677565149963,86.9722162130347 75.52305955684278,87.70345442686812 75.92420784081332,88.64976009595557 76.2250690535875,88.77880155007006 76.82679147925228,88.82181535591371 75.15534029668197,88.60674626563559 73.01588278322015,88.47770473844139 71.47814769530669,88.56373242929112 68.63668068498373,88.99387051875237 68.33581947220955,89.12291182699846 66.36350707674865,89.51003542370745 63.588898113928735,90.45633547569741 62.31859521509614,90.62838971454767 59.64427332312334,91.18756531906547 57.103667525807396,91.40263258566847 55.19821317773312,91.44564602072933 52.92503956949804,91.3596191444667 51.82188178889919,91.23057878453983 51.48759155254811,91.27359224390239 51.35387545789126,91.78975328273373 51.11987229215447,96.0480484541331 50.98615619773045,97.03734082446317 50.81901107938029,100.69339342476451 50.651865961030126,101.94074250024278 50.551578890299425,103.79025068631745 50.15043060656171,106.8440651872952 50.08357255917508,108.1344001351099 50.18385963013861,108.3494554280187 50.35100474837236,108.3494554280187 53.45990394777618,108.39246646835818 55.7999356033979,108.7365545721841 57.13709654926788,108.86558751095436 60.17913770163432,109.08064228721196 62.68631447525695,109.12365322426194 63.18774983007461,109.08064228721196 64.1906205394771,109.12365322426194 65.22692027268931,109.38171871873783 67.06551657337695,109.63978399446933 70.10755772551056,109.85483822374954 71.11042843502946,110.06989230119507 73.95189544546884,110.41397850890644 75.2221983440686,110.5 75.99106588796712,110.45698925748002 76.32535612455104,110.32795699339476 76.39221417193767,110.06989230119507 76.42564319551457,108.47848853067262 76.59278831374831,105.63974763429724 77.1945107395295,99.87616194869042 77.2279397631064,99.01591591912438 77.39508488145657,97.85457992265583 77.528800975997,96.13407400532742 77.66251707053743,94.75766226905398 77.69594609434716,93.68233626935398 77.82966218877118,92.86508596883505 77.99680730712134,90.37030831974698 78.26423949631862,88.47770473844139 78.26423949631862,87.96153808294912 78.36452656716574,86.5850893885945 78.46481363824569,85.81083426246187 78.66538778005634,83.14394041840569 78.8325328984065,81.68144032460987 79.73511653684545,71.6588241039135 80.06940677342936,66.88398527706158 80.23655189166311,65.80856079037767 80.33683896262664,64.21692557557253 80.80484529375099,59.700077608256834 80.80484529375099,59.26989811495878 80.77141626994126,59.22688013227889 80.23655189166311,59.183862143341685 79.80197458423208,59.26989811495878 78.89939094567671,59.571023824159056 76.96050757390913,60.130256493604975 76.02449491166044,60.25931004053564 74.5201888474403,60.38836353289662 74.01875349262264,60.474399163911585 72.28044426289853,60.474399163911585 70.80956722225528,60.302327877347125 68.20210337743629,62.62528203675174 64.8257719889516,65.16330427414505 63.38832397200167,66.02364599169232 61.24886645830702,67.18510345229879 57.939393116976134,68.64767320849933 56.53537412371952,69.16387262081844 53.09218468773179,70.23928525086376 49.983285488095134,70.8415146637708 45.871515579055995,71.228661514353 44.80178682249971,71.14262892346596 42.22775200137403,70.88453100487823 40.35572667687666,70.75548196345335 38.91827865992673,70.79849831669708 36.21052774426062,71.05659630824812 35.84280848421622,71.01357999144238 35.70909238944296,70.79849831669708 35.37480215309188,69.50800507585518 35.00708289304748,67.09906971821329 34.73965070373379,65.85157784272451 33.87049608887173,62.668299539072905 32.934483426623046,59.700077608256834 32.09875783533789,57.46313760249177 31.196174196898937,55.48429235222284 30.4607356764609,53.591471811174415 30.29359055822715,53.032227125397185 29.02328765951097,50.1929690206307 27.55241061898414,46.45027013402432 26.282107720151544,43.61095061627566 25.24580798705574,40.77160460522282 22.50462804781273,34.40448995825136 20.599173699738458,29.5" stroke="#4DD2FF" stroke-linecap="round" stroke-linejoin="round" stroke-width="0.5"><title>2026-02-15 8.73km</title><desc>17400547582</desc></polyline></g><text fill="#5A5A5A" style="font-size:6px; font-family:Arial; font-weight:bold;color:#0ed45e;" x="5" y="10">你说 ta 2不 2 呀</text><text fill="#5A5A5A" style="font-size:4px; font-family:Arial" x="5" y="121">Runner</text><text fill="#5A5A5A" style="font-size:6px; font-family:Arial" x="2" y="128">蓝皮书</text><text fill="#5A5A5A" style="font-size:4px; font-family:Arial" x="25" y="121">WORKOUTS INFO</text><text fill="#5A5A5A" style="font-size:3px; font-family:Arial" x="25" y="125">Type: Run</text><text fill="#5A5A5A" style="font-size:3px; font-family:Arial" x="22" y="129">Date: 2026-02-15</text><text fill="#5A5A5A" style="font-size:3px; font-family:Arial" x="47" y="125">Distance: 8.73 km</text><text fill="#5A5A5A" style="font-size:3px; font-family:Arial" x="47" y="129">Duration: 01:01:31</text><text fill="#5A5A5A" style="font-size:3px; font-family:Arial" x="75" y="125">Pace: 7:02/km</text><text fill="#5A5A5A" style="font-size:3px; font-family:Arial" x="75" y="129">Elevation: 6m</text></svg>