<?xml version="1.0" encoding="utf-8" ?>
<svg baseProfile="full" height="130mm" version="1.1" viewBox="0,0,100,130" width="100mm" xmlns="http://www.w3.org/2000/svg" xmlns:ev="http://www.w3.org/2001/xml-events" xmlns:xlink="http://www.w3.org/1999/xlink"><defs /><rect fill="#FAF9F5" height="130" width="100" x="0" y="0" /><g id="tracks"><polyline fill="none" points="90.5,46.110112715512514 90.00709939189255,45.46732043731026 87.87119675520808,39.896442229975946 87.3782961461693,40.3249720740132 86.88539553713053,42.03909019904677 86.22819472569972,42.253354823216796 85.89959431998432,38.82511707197409 85.07809330616146,37.96805638179649 83.76369168236852,37.53952584892977 78.99898580182344,37.96805638179649 78.17748478613794,38.39658678951673 76.86308316420764,40.753501793020405 76.20588235277683,41.18203138699755 74.72718052752316,40.539236949640326 73.24847870133817,42.681883978890255 72.09837728179991,46.110112715512514 71.60547667369246,48.89554266259074 70.78397565893829,50.181123930960894 72.26267748419195,53.60933513764758 73.57707910705358,58.3231124621816 73.24847870133817,58.96589910518378 72.75557809323072,61.32278105302248 72.75557809323072,64.1081821086118 72.26267748419195,67.96488252910785 72.09837728179991,68.39340417191852 69.79817444179207,69.46470773150213 68.15517241414636,71.82157280785032 65.52636916842312,73.96417413582094 63.226166328415275,76.74955118331127 61.583164299838245,80.60621836187784 61.91176470555365,82.32028940820601 61.91176470555365,85.31990891892929 63.06186612509191,86.3912001150893 63.226166328415275,87.03397445718292 62.73326572030783,88.53378015907947 61.91176470555365,89.81932668283116 60.92596348840743,89.81932668283116 59.94016227219254,88.9622957924148 59.11866125743836,87.67674851720221 58.62576064839959,85.74842549161986 55.99695740360767,85.31990891892929 53.69675456453115,84.24861694127321 47.28904665354639,84.03435845160857 43.83874239400029,84.46287539927289 41.867139959707856,86.17694193869829 33.980730222538114,81.46325413568411 33.487829614430666,81.03473631094676 33.487829614430666,79.53492294100579 33.15922920871526,79.10640455328394 32.830628802999854,79.10640455328394 32.009127789177,80.39195934054442 31.351926976814866,80.17770028742962 30.20182555820793,77.17807025962975 30.694726166315377,77.39232975069899 31.187626775354147,77.17807025962975 30.366125761531293,79.10640455328394 28.887423935346305,79.32066376239527 24.615618661046028,77.82084863889031 20.015212981961668,75.24973342986777 16.564908721484244,72.6786137149902 16.400608519092202,72.03583308192901 21.98681541532278,71.17879179865122 24.122718052007258,70.10748949123081 28.065922919660807,67.75062166096177 32.337728193961084,66.89357787417248 32.66632860060781,67.75062166096177 34.30933062825352,69.03618640138302 35.62373225111514,71.6073125024559 38.5811359025538,74.39269402588252 39.23833671398461,76.53529159806203 39.23833671398461,80.17770028742962 39.40263691637665,81.24899523891509 39.8955375244841,82.32028940820601 41.374239350669086,83.82009993027896 42.524340770207345,84.46287539927289 44.167342798784375,84.89139222213998 47.28904665354639,84.24861694127321 51.396551724523306,84.67713382653892 46.960446246899664,84.67713382653892 43.51014198735356,85.10565058595967 41.53853955399245,87.03397445718292 41.53853955399245,87.67674851720221 42.360040567815304,90.67635707277805 42.524340770207345,94.10447362472769 42.0314401620999,99.46088969591074 41.53853955399245,101.81770657026209 41.04563894495368,102.46047415118665 37.43103448301554,102.2462183223106 33.980730222538114,100.96068269060925 33.15922920871526,100.31791445217095 31.187626775354147,99.46088969591074 28.23022312298417,97.74683868174907 26.587221095338464,96.0327856639633 25.43711967486888,94.10447362472769 26.4229208920151,96.24704240111168 29.051724137738347,98.38960804685485 31.187626775354147,99.46088969591074 32.99492900632322,100.10365831048694 35.95233265776187,101.38919469341636 39.40263691637665,102.03196246223524 40.88133874256164,101.81770657026209 41.53853955399245,101.38919469341636 42.0314401620999,99.46088969591074 42.524340770207345,95.17575840384234 42.360040567815304,90.24784194037784 41.53853955399245,87.24823250819463 41.70283975638449,85.9626837305259 41.53853955399245,85.74842549161986 42.360040567815304,85.74842549161986 42.852941176854074,84.89139222213998 40.88133874256164,83.39158279518597 39.40263691637665,81.67751300055534 38.9097363082692,79.96344120334834 38.9097363082692,76.74955118331127 38.416835700161755,74.60695392440539 34.966531440615654,71.17879179865122 33.323529412038624,68.39340417191852 32.17342799156904,67.5363607610343 32.009127789177,66.03653358644806 32.99492900632322,64.53670487855561 33.15922920871526,63.25113619340118 32.66632860060781,61.53704286029097 31.187626775354147,60.894257344305515 31.680527383461595,59.18016125715803 30.694726166315377,65.17948879825417 32.009127789177,66.03653358644806 32.17342799156904,67.32209982944187 31.351926976814866,67.75062166096177 27.57302231248468,68.60766494646668 24.77991886343807,70.32175001571886 22.47971602343023,71.17879179865122 15.74340770766139,72.25009332352784 9.828600405715406,68.17914336547256 9.5,67.32209982944187 9.828600405715406,64.7509662163211 9.5,63.036874635959975 9.664300202392042,57.46606316615362 12.29310344811529,53.180809174780734 12.950304259546101,52.752283086883835 13.771805273368955,55.32343773555476 15.25050709862262,53.82359807181638 15.74340770766139,53.82359807181638 16.23630831670016,55.53770041966345 16.564908721484244,55.96622569358442 18.536511156708002,53.82359807181638 21.98681541532278,52.109493720694445 22.808316429145634,51.25244079378899 23.136916835792363,50.39538736583199 23.46551724150777,47.39569642499555 24.287018255330622,45.89584865386132 25.601419878192246,45.68158456112724 28.887423935346305,46.7529047105927 32.66632860060781,45.46732043731026 34.30933062825352,45.46732043731026 35.62373225111514,45.68158456112724 35.78803245443851,46.538640743587166 36.93813387490809,46.32437674526591 41.374239350669086,48.03848785744049 44.167342798784375,49.53833343728911 48.9320486811921,49.96686046430841 50.73935091216117,49.75259696668945 56.982758620753884,50.39538736583199 60.59736308269203,51.46670407243073 62.73326572030783,53.39507217204664 63.71906693652272,52.3237568740733 64.04766734223813,51.25244079378899 63.390466530807316,48.46701532253064 64.70486815366894,43.538941914448515" stroke="#4DD2FF" stroke-linecap="round" stroke-linejoin="round" stroke-width="0.5"><title>2026-03-20 2.31km</title><desc>17786253067</desc></polyline></g><text fill="#5A5A5A" style="font-size:6px; font-family:Arial; font-weight:bold;color:#0ed45e;" x="5" y="10">节气跑—春分遇上二月二</text><text fill="#5A5A5A" style="font-size:4px; font-family:Arial" x="5" y="121">Runner</text><text fill="#5A5A5A" style="font-size:6px; font-family:Arial" x="2" y="128">蓝皮书</text><text fill="#5A5A5A" style="font-size:4px; font-family:Arial" x="25" y="121">WORKOUTS INFO</text><text fill="#5A5A5A" style="font-size:3px; font-family:Arial" x="25" y="125">Type: Run</text><text fill="#5A5A5A" style="font-size:3px; font-family:Arial" x="22" y="129">Date: 2026-03-20</text><text fill="#5A5A5A" style="font-size:3px; font-family:Arial" x="47" y="125">Distance: 2.31 km</text><text fill="#5A5A5A" style="font-size:3px; font-family:Arial" x="47" y="129">Duration: 32:24min</text><text fill="#5A5A5A" style="font-size:3px; font-family:Arial" x="75" y="125">Pace: 14:02/km</text><text fill="#5A5A5A" style="font-size:3px; font-family:Arial" x="75" y="129">Elevation: 153m</text></svg>