<?xml version="1.0" encoding="utf-8" ?>
<svg baseProfile="full" height="130mm" version="1.1" viewBox="0,0,100,130" width="100mm" xmlns="http://www.w3.org/2000/svg" xmlns:ev="http://www.w3.org/2001/xml-events" xmlns:xlink="http://www.w3.org/1999/xlink"><defs /><rect fill="#FAF9F5" height="130" width="100" x="0" y="0" /><g id="tracks"><polyline fill="none" points="40.101791936322115,52.55406959480024 38.22697859629989,53.30646099790465 33.91289198608138,55.148509686245234 10.245893479324877,64.9032761806011 9.641114982543513,65.16270438082574 9.5,65.2664755582664 9.52015928318724,65.39618944747781 9.70159283222165,65.81127327693684 9.923344947746955,66.01881483964098 10.024141363915987,66.20041351439431 10.54828272771556,67.47159920613922 10.890990542480722,68.43146828141471 11.556246888940223,69.96205993453623 12.060228969552554,71.36292924192094 12.463414634112269,72.21901077678194 13.269785963115282,74.24246034816315 13.834245893522166,75.51359033593326 14.197112991474569,76.52529974830395 14.822050771559589,77.95205995376455 15.225236436002888,78.60058365324221 15.870333499275148,79.50851298260386 18.652314584353007,82.69920042711601 18.712792434031144,82.7510810654203 18.813588850200176,82.69920042711601 19.357889497303404,81.99881037388695 19.78123444505036,81.53188218687137 20.446490791393444,80.96119056726457 21.595569935278036,80.05326842426439 22.623693379806355,79.30098667470156 23.55102040816564,78.70434723250219 23.692135390709154,78.65246545019909 23.752613240503706,78.67840634314052 23.792931806878187,78.75622900013695 23.71229467401281,79.92356489434314 23.611498257843778,80.62396286710282 22.502737680450082,81.37623919385078 21.55525136878714,82.1544528388622 20.708561473409645,82.93266318416863 19.841712294728495,83.84057108334673 18.349925335962325,85.76013299860642 17.24116475856863,87.49809741586796 17.22100547538139,87.62779559308547 17.261324041872285,87.67967483836401 17.966898954706267,87.9131312604004 18.148332503740676,87.9131312604004 18.208810353302397,87.83531248604413 18.511199601809494,87.16088172621676 19.277252364438027,86.019531717684 19.700597312068567,85.42291411581391 20.426331508206204,84.5928342260886 22.099552016006783,82.93266318416863 22.825286212028004,82.3619759202993 23.22847187658772,82.07663162286917 23.329268292640336,82.07663162286917 23.389746142318472,82.12851243722253 23.409905425622128,82.33603554790898 22.926082628197037,85.55261375947157 22.684171229600906,87.54997669777367 22.58337481331546,88.56161976371368 22.6035340965027,88.63943823010777 22.724489795975387,88.71725666351267 24.196117471321486,88.89883287996054 24.256595320999622,88.84695397924224 24.337232453981414,88.63943823010777 24.78073668491561,85.11163459709496 25.24440019915346,81.97286995018658 25.345196615206078,80.90930942294654 25.38551518158056,80.83148767895182 25.546789447427727,80.6758440919948 28.00622200104408,79.30098667470156 29.25609756098129,78.80811075310339 30.102787456358783,78.62652455351781 31.09059233451262,78.49682001530891 31.695370831293985,78.47087909668335 32.72349427570589,78.49682001530891 35.122448979644105,78.34117444844742 37.11821801890619,78.15958778689674 38.106022896943614,78.23741066385992 38.67048282723408,78.23741066385992 42.92409158789087,77.84829594925395 46.65355898451526,77.09600516143837 48.246142359334044,76.7068880268198 50.30238924839068,76.29182884047623 54.47536087606568,75.40982495271601 60.9666500746971,74.1386942461395 63.184171229600906,73.64580446056789 66.34917869593482,73.1010299994523 67.80064708809368,72.78972958137456 68.30462916882243,72.7378461270855 69.99800895969383,72.37466153591231 71.73170731717255,72.08930170994427 73.98954703845084,71.62234831054229 74.51368840225041,71.46669691333955 74.97735191637184,71.28510344978713 75.15878546540625,71.31104538422369 75.80388252867851,71.64829019729223 76.36834245896898,71.82988330144144 77.67869586858433,72.0374180576182 78.44474863121286,72.0374180576182 79.87605774018448,71.82988330144144 81.06545545055997,71.54452262849372 81.81134892976843,71.31104538422369 83.14186162268743,70.79220600012923 84.73444499750622,69.98800205589214 85.31906421121676,69.6248120227101 86.22623195627239,68.95031433984695 87.11324041814078,68.17204470207798 88.26231956202537,66.92680641640618 88.78646092582494,66.25229881699488 89.37108013941906,65.37024667693186 90.17745146842208,63.83961672494479 90.37904430064373,63.26887008520134 90.41936286725104,62.95755298798031 90.5,61.893882254327764 90.37904430064373,61.297186216470436 90.17745146842208,60.7783185193548 89.77426580397878,60.129731834924314 89.27028372336645,59.53303006049828 88.58486809360329,59.01415737507341 88.16152314585634,58.80660789014655 87.17371826781891,58.573114438942866 86.18591338978149,58.417451973073184 84.21030363370664,58.287733150675194 83.44425087107811,58.39150821596559 82.35564957698807,58.547170703852316 80.52115480345674,59.09198837146687 79.45271279255394,59.53303006049828 78.60602289694361,60.00001422295463 77.57789945253171,60.64860136593052 76.79168740671594,61.32312956277747 75.68292682932224,62.46463317068992 75.4006968641188,62.827837374963565 74.61448481830303,63.91744567468413 74.02986560482532,64.95516184998269 73.78795420611277,65.52590324504126 73.52588352421299,65.99287215717777 73.36460925836582,66.5376677193708 73.24365355900954,67.18623175610264 73.20333499251865,67.83479350073321 73.26381284219678,68.32769889364135 73.40492782485671,69.0540833754203 73.74763563973829,69.72858067692141 74.15082130418159,70.32524930028012 74.83623693382833,70.97379995138908 74.83623693382833,71.07756784289086 74.65480338479392,71.18133567571931 74.41289198608138,71.1553937230492 74.25161772035062,70.97379995138908 73.54604280740023,70.06582839803013 73.24365355900954,69.41727453820931 73.00174216041341,68.82060296271811 72.90094574412797,68.35364124609623 72.80014932807535,67.44565672897443 72.84046789444983,66.79709360911511 72.92110502743162,66.38201200947515 73.24365355900954,65.52590324504126 73.78795420611277,64.41036158958741 74.31209557002876,63.58018665423151 74.91687406669371,62.698121670255205 75.2595818816917,62.28303079896432 75.6224489796441,61.79010916972766 76.3280238925945,61.115582689410076 77.39646590338089,60.233505858443095 78.58586361375637,59.35142478751368 79.5736684917938,58.80660789014655 79.7954206073191,58.547170703852316 79.85589845688082,58.339620690618176 79.81557989062276,58.10612664524524 79.11000497767236,56.186275451633264 78.96888999512885,55.900890451157466 78.90841214545071,55.84900222164288 78.6866600299254,55.84900222164288 77.53758088604081,56.44571597588947 76.79168740671594,56.938651961419964 72.29616724746302,60.363223305452266 72.17521154810674,60.518884120712755 72.23568939778488,60.622657924192026 72.84046789444983,61.21935615540133 74.15082130418159,62.023598527608556 74.75559980096295,62.2052011561027 74.97735191637184,62.2052011561027 75.15878546540625,62.15331470906676 75.42085614730604,61.9976552802691 75.48133399710059,62.023598527608556 75.4006968641188,62.15331470906676 74.57416625204496,63.19104086038715 74.02986560482532,64.04716051751166 73.2234942758223,65.68155968112114 73.06222001009155,66.0707001935807 72.96142359392252,66.40795463693212 72.80014932807535,67.44565672897443 72.82030861126259,68.06827516766498 72.94126431061886,68.79466067625617 73.06222001009155,69.20973681886971 73.20333499251865,69.6248120227101 73.48556495772209,70.1436547072517 73.46540567453485,70.22148098338221 73.40492782485671,70.2733651491726 71.44947735196911,70.71437996595341 70.84469885518774,70.79220600012923 70.46167247393169,70.89597399429476 69.37307117972523,71.07756784289086 68.96988551528193,71.20727762473689 68.22399203584064,71.31104538422369 66.8330014932435,71.64829019729223 63.86958685924765,72.19306897080969 62.61971129919402,72.53031216295494 60.44250871089753,72.86755473546509 59.8982080637943,73.02320494447486 59.15231458446942,73.12697167716397 57.43877551017795,73.49015477954526 54.11249377799686,74.26840186449408 53.34644101548474,74.37216789311788 47.62120457936544,75.69517961550446 44.637630661949515,76.26588761014864 43.16600298660342,76.7068880268198 42.80313588841818,76.75877035903977 41.59357889497187,76.83659383004124 40.64609258342534,76.83659383004124 38.26729716279078,76.62906450091396 37.40044798399322,76.68094685520919 35.545793927274644,77.19976959141786 35.18292682932224,77.25165178436146 33.77177700353786,77.38135720264108 30.929318068665452,77.45918040948163 30.183424589340575,77.56294463406084 29.215778994606808,77.82235493890767 27.401443504262716,78.44493817434704 27.32080637139734,78.44493817434704 27.240169238415547,78.39305631877505 27.13937282236293,78.21146970859263 27.099054255872034,78.00394193407556 27.018417123006657,77.17382848943816 26.89746142353397,76.42153493696242 26.917620706837624,76.16212265225477 27.220009955228306,73.98304498316429 27.300647088093683,73.15291335115035 27.52239920361899,71.25916151181445 27.703832752653398,70.1436547072517 27.925584868062288,67.9126207560912 28.22797411645297,65.8631586896372 28.51020408165641,63.19104086038715 28.772274763556197,61.27124286642356 28.752115480368957,60.93397898251715 28.953708312590607,59.55897365621058 28.994026879081503,59.04010104422923 29.15530114492867,58.158014236571034 29.27625684416853,58.00235141857411 29.47784967639018,57.89857613320055 31.27202588354703,57.19809142197482 32.03807864617556,56.808932093685144 32.84444997506216,56.52354806169751 34.013688402133994,55.97872276803537 34.84021901444066,55.64144915663928 35.46515679440927,55.43389585681143 35.9691388750216,55.200398113927804 37.94474863121286,54.42207015828171 39.2954206073191,53.825349823207944 44.5368342458969,51.671951607160736 44.19412643101532,51.17900147286127 44.133648581337184,51.10116712002491" stroke="#89CFF0" stroke-linecap="round" stroke-linejoin="round" stroke-width="0.5"><title>2026-01-03 13.96km</title><desc>16918646554</desc></polyline></g><text fill="#5A5A5A" style="font-size:6px; font-family:Arial; font-weight:bold;color:#0ed45e;" x="5" y="10">晨间跑步</text><text fill="#5A5A5A" style="font-size:4px; font-family:Arial" x="5" y="121">Runner</text><text fill="#5A5A5A" style="font-size:6px; font-family:Arial" x="2" y="128">蓝皮书</text><text fill="#5A5A5A" style="font-size:4px; font-family:Arial" x="25" y="121">WORKOUTS INFO</text><text fill="#5A5A5A" style="font-size:3px; font-family:Arial" x="25" y="125">Type: Run</text><text fill="#5A5A5A" style="font-size:3px; font-family:Arial" x="22" y="129">Date: 2026-01-03</text><text fill="#5A5A5A" style="font-size:3px; font-family:Arial" x="47" y="125">Distance: 13.96 km</text><text fill="#5A5A5A" style="font-size:3px; font-family:Arial" x="47" y="129">Duration: 01:40:28</text><text fill="#5A5A5A" style="font-size:3px; font-family:Arial" x="75" y="125">Pace: 7:11/km</text><text fill="#5A5A5A" style="font-size:3px; font-family:Arial" x="75" y="129">Elevation: 0m</text></svg>