<?xml version="1.0" encoding="utf-8" ?>
<svg baseProfile="full" height="130mm" version="1.1" viewBox="0,0,100,130" width="100mm" xmlns="http://www.w3.org/2000/svg" xmlns:ev="http://www.w3.org/2001/xml-events" xmlns:xlink="http://www.w3.org/1999/xlink"><defs /><rect fill="#FAF9F5" height="130" width="100" x="0" y="0" /><g id="tracks"><polyline fill="none" points="89.51619433192536,46.09527136007091 83.8944476575125,48.024634459463414 78.78802776173688,50.07457318750676 70.82388663943857,53.51121306314599 64.40572585305199,55.98316497023916 58.54973973380402,58.575684502051445 54.42712550610304,60.143246804887895 52.13157894718461,61.168188272073166 44.401677269954234,64.2429978925793 29.738288027700037,70.39255062132725 17.9794679004699,75.15537856033188 12.779352226760238,77.38605183578329 10.249566223239526,78.35066369231208 9.640543667133898,78.65210445012781 9.5,78.89325690298574 9.546847888967022,79.07412115301122 10.062174667604268,79.97844125292613 10.577501446008682,80.46074452216271 10.71804511290975,80.76218378826161 12.17032967042178,84.56030028741225 15.215442452346906,92.03585934900912 15.590225563850254,93.12101025690208 15.91816078638658,93.78415667495574 16.15240023145452,93.90472863992909 16.995662232628092,93.30186847303412 16.995662232628092,92.8798658492451 14.88750722981058,87.69522810558556 12.873048004461452,82.93254021555185 11.7955465586856,80.21959295574925 11.748698669951409,79.97844125292613 11.842394447652623,79.73728941378067 12.264025448122993,79.49613743822556 17.13620589929633,77.68749327532714 22.476865240139887,75.39653299064958 29.41035280516371,72.62324881044333 30.909485251409933,71.96006948660943 32.6428571427241,71.35717829733039 34.048293811501935,70.63370774491341 37.28079814952798,69.36763132497435 38.92047426244244,68.52357829009998 40.37275881995447,68.0412615200039 44.26113360305317,66.41343839355977 45.76026604976505,66.05169907727395 47.07200694037601,65.26792950576055 48.24320416431874,64.90618921775604 48.29005205328576,65.02676934780902 47.962116830283776,66.71488758941996 46.9783111626748,73.82902675704099 45.76026604976505,84.56030028741225 45.80711393873207,84.80144939912134 45.94765760563314,84.98231114359805 46.1350491612684,85.04259837482823 49.32070561032742,85.28374721386353 49.789184499764815,85.22346001674305 49.92972816643305,85.10288559726905 49.97657605540007,84.92202390410239 50.07027183356695,82.99282773651066 51.241469057276845,75.15537856033188 51.89733950258233,69.6690784325765 52.693753614788875,64.2429978925793 52.693753614788875,63.519515270512784 52.60005783708766,63.27835412390414 52.459514170186594,63.218063815758796 48.99277038755827,64.66502885511727 48.571139386855066,64.90618921775604 48.430595719954,65.14734944381053 48.336899942019954,65.62966948686517 48.149508386384696,67.55894420444383 47.82157316361554,69.72936782846227 47.493637941079214,72.8041157197149 47.16570271831006,74.73335797939217 46.83776749577373,77.14489853067789 46.50983227300458,80.58132025427767 46.18189705046825,83.11340275246766 45.99450549436733,84.98231114359805 46.32244071736932,85.16317281126976 49.74233661079779,85.3440344024566 49.97657605540007,85.10288559726905 50.11711972253397,84.31915103911888 51.38201272417791,73.6481602822023 52.36581839201972,66.65459776748321 52.693753614788875,63.45922499670996 52.881145170656964,62.91661214802298 53.34962406009436,62.67545066025923 55.55147484107874,61.951965378713794 61.36061307112686,59.419757227326045 63.74985540774651,58.69626642210642 66.2327935223002,57.430154559609946 69.27790630422533,56.344912827946246 73.119433198357,54.65675353357801 75.46182764600962,53.812671380117536 80.09976865234785,51.76275062278728 88.11075766338035,48.50697387038963 90.03152111056261,47.783464549575 90.5,47.421709428715985 90.03152111056261,46.39673491977737 89.89097744366154,46.21585680960561 89.65673799882643,46.09527136007091" stroke="#4DD2FF" stroke-linecap="round" stroke-linejoin="round" stroke-width="0.5"><title>2026-03-13 5.58km</title><desc>17703037396</desc></polyline></g><text fill="#5A5A5A" style="font-size:6px; font-family:Arial; font-weight:bold;color:#0ed45e;" x="5" y="10">晨间跑步</text><text fill="#5A5A5A" style="font-size:4px; font-family:Arial" x="5" y="121">Runner</text><text fill="#5A5A5A" style="font-size:6px; font-family:Arial" x="2" y="128">蓝皮书</text><text fill="#5A5A5A" style="font-size:4px; font-family:Arial" x="25" y="121">WORKOUTS INFO</text><text fill="#5A5A5A" style="font-size:3px; font-family:Arial" x="25" y="125">Type: Run</text><text fill="#5A5A5A" style="font-size:3px; font-family:Arial" x="22" y="129">Date: 2026-03-13</text><text fill="#5A5A5A" style="font-size:3px; font-family:Arial" x="47" y="125">Distance: 5.58 km</text><text fill="#5A5A5A" style="font-size:3px; font-family:Arial" x="47" y="129">Duration: 41:01min</text><text fill="#5A5A5A" style="font-size:3px; font-family:Arial" x="75" y="125">Pace: 7:21/km</text><text fill="#5A5A5A" style="font-size:3px; font-family:Arial" x="75" y="129">Elevation: 0m</text></svg>