<?xml version="1.0" encoding="utf-8" ?>
<svg baseProfile="full" height="130mm" version="1.1" viewBox="0,0,100,130" width="100mm" xmlns="http://www.w3.org/2000/svg" xmlns:ev="http://www.w3.org/2001/xml-events" xmlns:xlink="http://www.w3.org/1999/xlink"><defs /><rect fill="#FAF9F5" height="130" width="100" x="0" y="0" /><g id="tracks"><polyline fill="none" points="89.46934644295834,46.15553374509909 86.93956043967046,46.879046646441566 85.67466743779369,47.48197312661796 83.89444765774533,47.96431369674974 83.23857721243985,48.32606876647333 77.7105263157282,49.833378253068076 76.91411220352165,49.89367052188027 76.25824175821617,50.13483951118542 75.55552342394367,50.496592739305925 73.30682475422509,51.34068241156638 72.22932330821641,51.883310604520375 71.19866975140758,52.18477041320875 70.02747252746485,52.84798124214285 67.68507807981223,53.8126496974437 66.88866396760568,54.29498310681083 65.53007518779486,54.77731597048114 64.03094274131581,55.50081424319069 63.281376518076286,56.04343714189599 61.68854829366319,56.76693326642271 58.78397917887196,57.73159285605652 57.51908617676236,58.09333963965764 55.50462695211172,58.81683228598558 54.42712550587021,59.35945096530486 52.693753614788875,60.022650635422906 51.475708501879126,60.80643073419924 47.118854829343036,62.61514854093548 46.13504916103557,62.79601989965886 44.214285714318976,63.51950456749182 41.075477154226974,64.06211726256879 39.71688837464899,64.5444390787452 37.70242914976552,65.02676034948672 32.45546558708884,66.95603997659055 31.565355696948245,67.19719931614236 30.20676691737026,67.37806873154477 29.36350491596386,67.67951758642448 28.660786581691355,67.98096622843877 25.990456911502406,68.64415249045123 23.83545401948504,69.42791674300679 23.273279352346435,69.78965360461734 22.711104684742168,70.33225832154858 21.633603238733485,71.17630873119924 19.338056680047885,73.22613848512992 18.21370734530501,73.82902771417866 16.620879120659083,74.85393744736211 12.873048004228622,75.93913330353098 11.79554655845277,76.84346107410965 9.874783111503348,77.56692190968897 9.546847888734192,77.80807524896227 9.5,77.9286518675799 9.546847888734192,78.65211086231284 9.73423944460228,79.13441617687931 10.436957779107615,80.09902516982402 10.390109889907762,80.76219258684432 10.577501445775852,81.666510129784 10.999132446479052,82.8722638709005 11.467611335916445,83.59571447924827 11.842394447419792,84.43973863779684 12.076633892254904,85.94692048060824 13.060439560329542,87.75553166068858 13.903701561503112,89.68470846538548 14.70011567370966,90.89043953668443 15.121746674412861,91.7344492583361 15.543377674883232,92.81960216039442 15.637073452817276,93.60332198368269 15.590225563617423,93.84446625493001 15.543377674883232,93.84446625493001 16.480335453990847,93.48274979708367 16.71457489882596,93.18131918099243 16.76142278756015,92.87988835189026 16.33979178708978,92.27702605474042 16.058704453287646,90.95072600067942 15.49652978591621,89.68470846538548 15.168594563147053,87.93639235699084 14.70011567370966,87.03208810908836 14.137941006105393,86.18806908116676 13.903701561503112,84.92203740705736 13.388374783098698,83.89715187068214 13.01359167136252,82.8722638709005 12.63880855962634,82.26938742669881 12.779352226527408,82.08852432708954 13.482070560799912,81.666510129784 14.559572006808594,80.52104091824731 15.074898785213009,79.79758509388193 15.355986119015142,79.55643287976272 16.71457489882596,78.95355174786528 17.698380566434935,78.23009326448664 20.556101792724803,77.02432639812469 22.008386350236833,76.30086464196211 23.320127240847796,75.81855612251093 25.287738577229902,74.85393744736211 27.161654135445133,74.07018316714675 27.911220358218998,73.64816103508929 30.62839791784063,72.50267028535018 31.28426836314611,72.14093572509591 32.36176980892196,71.71891168376897 33.814054366666824,70.99544092675205 38.92047426244244,69.00589001682238 41.45026026619598,68.22212498850422 43.27732793521136,67.31777893489925 44.214285714318976,67.0163298243715 45.057547715259716,66.59430071146926 46.74407171783969,65.99140125408303 47.2593984962441,65.68995120580075 48.05581260845065,65.5693711268541 48.24320416431874,65.68995120580075 48.19635627511889,66.8354602556501 47.727877385448664,68.8853108753101 47.63418160774745,70.75428373520845 47.306246384978294,71.9600683299941 47.16570271831006,73.40700534341158 46.79091960657388,74.61278243767447 46.462984384037554,76.72288414888317 46.275592828169465,77.38605681588524 46.088201272301376,79.13441617687931 45.479178715730086,82.32967510938761 45.432330826995894,83.23398932840792 45.52602660492994,84.19858904878492 45.76026604953222,84.43973863779684 47.118854829343036,84.80146276589949 49.46124927699566,85.16318658713135 49.83603238873184,85.04261201416375 50.16396761126816,84.74117543260218 50.445054944837466,84.25887645879993 50.53875072277151,83.83686440929887 50.96038172324188,81.5459345682466 51.00722961244173,80.40046503266785 51.28831694624387,79.19470430279034 51.475708501879126,77.2051916453056 51.75679583544843,75.81855612251093 51.80364372464828,74.61278243767447 52.64690572582185,71.35717645881232 52.78744939272292,68.82502129193745 53.4433198380284,65.44879101371043 53.302776171127334,65.02676034948672 52.78744939272292,64.66501944759511 52.03788316925056,64.60472926756484 50.07027183333412,64.96647022056277 49.1333140542265,64.7253096193017 48.66483516502194,65.02676034948672 48.47744360892102,66.17227118069422 48.149508386151865,67.25748912984272 48.10266049718484,68.10154562533717 47.915268941549584,68.82502129193745 47.77472527464852,69.72936414906872 47.493637940846384,70.39254769185209 47.493637940846384,71.41746568423696 47.21255060704425,72.26151394614135 46.884615384507924,72.80411551773432 46.697223828872666,73.467294279224 46.60352805093862,75.33624705759576 46.32244071713649,76.42144168645609 46.13504916103557,79.435856721655 45.94765760563314,80.03873717159149 45.479178715730086,80.82248048263136 45.19809138216078,81.9076611509081 45.010699826525524,83.89715187068214 45.10439560445957,84.25887645879993 45.244939271127805,84.3794512533641 45.80711393873207,84.62060074027977 47.118854829343036,84.98232471494703 48.8522267206572,85.34404838265618 49.27385772112757,85.28376112590195 50.16396761126816,84.62060074027977 50.58559861173853,83.89715187068214 50.819838056573644,83.05312663808581 50.91353383474052,82.26938742669881 51.33516483521089,80.34017707715975 51.897339502349496,76.84346107410965 52.17842683615163,75.93913330353098 52.3189705030527,74.91422617842909 52.45951416995376,72.50267028535018 52.7406015037559,71.17630873119924 52.927993059391156,69.36762723632273 52.927993059391156,68.2824146571802 53.115384615259245,67.13690949420561 53.20908039319329,65.32821086651529 53.115384615259245,64.84588993678335 52.64690572582185,64.66501944759511 51.28831694624387,64.48414888168918 50.398207056103274,64.5444390787452 49.74233661056496,64.36356846167473 48.945922498358414,64.4238586758438 48.61798727582209,64.60472926756484 48.29005205328576,65.08705046988325 47.96211683051661,66.35314103079145 47.86842105258256,68.1618353111844 47.540485829813406,69.18675866478588 47.306246384978294,71.29688722477295 46.697223828872666,72.86440453873365 46.60352805093862,74.43191609074711 46.275592828169465,75.69797890743939 46.36928860587068,76.72288414888317 45.90080971643329,78.41095800022595 45.94765760563314,79.13441617687931 45.61972238263115,80.21960114053218 45.61972238263115,81.0033441191481 45.38548293802887,81.84737340838183 45.15124349342659,83.53542697548983 45.15124349342659,83.83686440929887 45.244939271127805,84.01772676734254 46.509832272771746,84.68088809063192 47.915268941549584,84.80146276589949 48.61798727582209,85.04261201416375 49.1333140542265,85.04261201416375 49.88288027769886,84.43973863779684 50.3045112779364,83.89715187068214 50.819838056573644,82.75168865031446 51.33516483521089,80.27988911324064 51.663100057747215,79.13441617687931 52.36581839225255,73.88931659027003 52.55320994765498,71.53804410964949 52.881145170656964,69.06617957467097 53.20908039319329,67.61922783253249 53.49016772699542,65.81053125075414 53.4433198380284,65.32821086651529 53.349624059861526,65.08705046988325 52.64690572582185,64.7253096193017 51.61625216878019,64.7253096193017 50.023423944367096,64.36356846167473 48.945922498358414,64.4238586758438 48.71168305375613,64.60472926756484 48.19635627511889,66.17227118069422 48.19635627511889,67.43835851960466 48.10266049718484,67.92067651700927 47.68102949671447,68.94560045024264 46.8377674955409,71.65862250098144 46.79091960657388,72.56295934889931 46.088201272301376,76.60230718948878 45.99450549436733,77.6272102574294 45.76026604953222,78.83297541906359 45.7134181605652,81.36507116205757 45.57287449389696,82.32967510938761 45.52602660492994,84.19858904878492 45.57287449389696,84.43973863779684 45.7134181605652,84.56031338125467 45.99450549436733,84.74117543260218 47.39994216314517,85.10289930494037 48.992770387325436,85.34404838265618 49.1333140542265,85.28376112590195 49.180161943193525,85.16318658713135 49.601792943896726,84.01772676734254 49.976576055632904,83.2942768750072 50.53875072277151,82.8722638709005 50.67929438967258,82.45025044932845 50.819838056573644,81.42535897254129 51.19462116830982,80.03873717159149 52.084731058450416,75.09509232072742 52.36581839225255,72.50267028535018 52.693753614788875,70.45283705374459 53.115384615259245,66.95603997659055 53.39647194906138,65.08705046988325 53.537015615962446,64.84588993678335 54.80190861760639,63.5797949009866 55.22353961830959,63.21805277161184 56.91006362065673,62.434277105436195 58.315500288968906,62.07253400440095 62.29757085000165,60.50497702055145 63.37507229601033,59.6006146009604 64.54626952018589,58.93741427443456 65.67061885469593,58.51537716589519 66.6544245230034,57.97275741241174 67.49768652417697,57.7918840078637 69.09051474859007,57.12868086830713 69.74638519366272,56.706641969649354 71.15182186220773,55.68168861945742 73.11943319812417,54.77731597048114 73.96269519953057,54.475857994606486 74.80595720070414,53.993524789839284 78.1790052051656,52.78768939114525 78.8348756507039,52.606813787366264 80.19346443004906,52.00389455340337 81.83314054366201,51.64214260401786 84.40977443614975,50.7377613876306 85.06564488145523,50.376008363993606 85.95575477159582,49.7730859760195 87.17379988427274,49.2304550978879 89.09456333122216,48.989285597082926 90.07836899952963,48.627531090169214 90.5,48.32606876647333" stroke="#4DD2FF" stroke-linecap="round" stroke-linejoin="round" stroke-width="0.5"><title>2026-04-22 7.31km</title><desc>18205750211</desc></polyline></g><text fill="#5A5A5A" style="font-size:6px; font-family:Arial; font-weight:bold;color:#0ed45e;" x="5" y="10">晨间跑步</text><text fill="#5A5A5A" style="font-size:4px; font-family:Arial" x="5" y="121">Runner</text><text fill="#5A5A5A" style="font-size:6px; font-family:Arial" x="2" y="128">蓝皮书</text><text fill="#5A5A5A" style="font-size:4px; font-family:Arial" x="25" y="121">WORKOUTS INFO</text><text fill="#5A5A5A" style="font-size:3px; font-family:Arial" x="25" y="125">Type: Run</text><text fill="#5A5A5A" style="font-size:3px; font-family:Arial" x="22" y="129">Date: 2026-04-22</text><text fill="#5A5A5A" style="font-size:3px; font-family:Arial" x="47" y="125">Distance: 7.31 km</text><text fill="#5A5A5A" style="font-size:3px; font-family:Arial" x="47" y="129">Duration: 01:01:04</text><text fill="#5A5A5A" style="font-size:3px; font-family:Arial" x="75" y="125">Pace: 8:21/km</text><text fill="#5A5A5A" style="font-size:3px; font-family:Arial" x="75" y="129">Elevation: 0m</text></svg>