<?xml version="1.0" encoding="utf-8" ?>
<svg baseProfile="full" height="130mm" version="1.1" viewBox="0,0,100,130" width="100mm" xmlns="http://www.w3.org/2000/svg" xmlns:ev="http://www.w3.org/2001/xml-events" xmlns:xlink="http://www.w3.org/1999/xlink"><defs /><rect fill="#FAF9F5" height="130" width="100" x="0" y="0" /><g id="tracks"><polyline fill="none" points="42.4970119522186,54.8434456683608 41.690239043789916,54.97323371615494 41.12549800798297,55.12897925231664 39.65313745022286,55.80387504879036 37.39417330676224,56.634512623088085 32.79556772916112,58.581304711377015 29.971862549777143,59.69745619758032 28.78187250997871,60.112766646343516 27.1279880477814,60.91742796712788 22.710906374501064,62.65652264459641 18.919073705095798,64.317732027499 15.187749003991485,65.82319004759484 11.274900398333557,67.53628243385174 9.560507968068123,68.21113262158178 9.5,68.31495550725958 9.721862549777143,68.83406905483571 9.923555776826106,69.01575844975014 10.024402390467003,69.197447664832 10.629482071613893,70.80668715010688 12.323705179267563,75.01140761941497 14.179282868397422,79.47557334977319 14.723854581592605,80.72136767146003 15.268426294904202,81.6816616923752 15.833167330711149,82.4343210629304 17.083665338577703,83.96558405239193 18.273655378376134,85.28920787246898 18.334163346560672,85.39302110194694 18.29382470122073,85.57469411221973 17.648406374501064,86.22352482454153 17.12400398403406,86.89830633351812 16.276892430265434,88.09214446732949 15.550796812749468,89.2600220880995 15.389442230924033,89.57145486590161 15.369272908312269,89.75312374233908 15.974352589575574,90.2721766847535 17.487051792792045,90.76527562105912 18.878735059755854,91.12861083216558 22.468874501995742,91.72551711832057 24.445468127494678,91.98504098542617 25.554780876496807,92.29646914175828 27.067480079596862,92.78956264255976 28.438994023832493,93.41241569837439 29.810507968068123,94.16502698895056 31.00049800798297,94.96953909566218 32.12998007959686,95.90380679658847 32.89641434256919,96.42284235447005 34.08640438236762,97.1235380306025 35.135209163301624,97.56471541809151 35.316733067738824,97.51281225105049 35.599103585700504,96.96782811146113 36.42604581674095,95.64428846756346 37.37400398403406,94.26883520079718 38.382470119628124,92.99718056252459 39.81449203181546,91.46599288449215 41.30702191230375,90.19431883687503 41.91210159356706,89.72717105665652 42.61802788847126,89.2600220880995 43.46513944223989,88.71501345609431 44.87699203181546,87.98833276382356 46.06698207173031,87.44332035750267 47.43849601596594,86.97616557886067 48.85034860554151,86.56091588898562 50.28237051796168,86.27543118257017 51.714392430265434,86.11971206466842 52.74302788847126,86.04185245616827 54.11454183270689,86.06780566270754 55.183515936136246,86.09375886556518 55.788595617515966,86.17161845197552 57.039093625498936,86.22352482454153 58.81399402383249,86.14566526020644 61.05278884456493,86.19757164010662 63.51344621507451,86.17161845197552 65.75224103580695,86.01589924604923 67.66832669323776,85.6525539187569 68.77763944223989,85.39302110194694 70.25,84.9777678319515 71.27863545820583,84.5884670385858 72.1660856573144,84.22511888672307 73.27539840631653,83.7320023879438 76.05876494024415,82.3824136191979 79.56822709157132,80.79922953595815 81.68600597605109,79.63129810226383 81.82719123503193,79.44961921157665 81.8473605576437,79.34580262179952 82.12973107572179,76.64655068707361 82.23057768924627,75.11522665980738 82.19023904378992,74.80376936253742 81.96837649389636,74.51826637583144 81.74651394423563,74.46635669424722 81.08092629478779,74.72590495561599 80.15313745022286,74.90758852027648 78.64043824700639,75.08927190519171 77.28909362549894,75.14118141074141 76.70418326696381,75.06331714693806 76.38147410354577,74.98545285017462 75.5747011952335,74.67399533267599 75.33266932272818,74.54422121119569 74.96962151385378,74.25871782102331 74.14267928281333,73.50602493689803 73.67878486053087,72.64950859131932 73.41658366529737,72.05254029072239 73.2955677290447,71.06624058481248 73.27539840631653,70.31353461323306 73.31573705177289,69.97611369317747 73.51743027893826,69.27531441632891 74.20318725099787,67.74392890970921 75.1309760955628,66.31635464569263 75.99825697205961,65.2781118452549 77.59163346607238,63.798605710006086 78.13620517926756,63.383303599242936 78.82196215132717,62.968000548906275 79.54805776895955,62.604609609232284 81.00024900387507,62.033565250821994 82.75498007971328,61.56634581826802 83.86429282859899,61.358692355497624 84.38869521918241,61.3327356561058 85.53834661352448,61.38464905116416 86.84935258957557,61.540389148300164 87.73680278880056,61.722085761255585 88.40239043836482,61.95569542799785 88.78560756973457,62.16334821557393 89.14865537837613,62.396957320772344 89.75373505975585,63.04586994240526 90.09661354578566,63.56499838831951 90.35881474101916,64.23986317349772 90.5,64.94068167092337 90.45966135466006,65.9270142835303 90.33864541829098,66.47209055931307 89.6327191235032,68.00348667422077 89.06797808769625,68.88598032890877 88.07968127483036,70.18375740959891 87.39392430277076,70.91050856797665 86.74850597605109,71.50748058184399 85.71987051784527,72.38995739477105 85.05428286851384,72.83119421062293 83.50124501995742,73.63579979221686 81.78685258957557,74.31062756130996 81.02041832671966,74.54422121119569 80.47584661352448,74.64804051576357 79.18500996020157,74.93354330060538 78.09586653392762,75.03736238497368 77.4101095617516,75.03736238497368 76.1797808764968,74.80376936253742 76.0991035857005,74.85567894879205 75.7360557768261,75.32286456452857 74.5258964142995,76.38700514058291 72.79133466130588,77.63282041760976 71.74252988037188,78.3076334966463 70.65338645409793,78.90458146086894 69.52390438248403,79.3977109240659 68.25323705177289,79.9427472109237 66.55901394423563,80.51373587142734 65.55054780875798,80.79922953595815 64.09835657360964,81.08472275643726 63.27141434256919,81.21449225548713 62.000747011974454,81.29235391080147 61.33515936252661,81.29235391080147 60.588894422282465,81.29235391080147 59.25771912338678,81.16258446687425 57.543326693121344,81.1106766636367 56.555029880371876,81.16258446687425 55.506225099554285,81.26640002931526 55.30453187250532,81.24044614423474 54.67928286851384,81.52593867880933 54.05403386452235,81.37021553312661 53.50946215132717,81.57784636465658 52.581673306878656,81.8373845739261 52.5211653385777,81.91524596513773 52.42031872505322,82.14882994075015 52.33964143425692,82.20073745051923 50.94795816729311,82.79767275833001 48.22509960155003,84.27702580967161 47.236802788684145,84.69228066418145 46.40986055776011,84.95181447152572 45.74427290831227,85.05562789164833 44.71563745022286,85.15944125308306 43.0214143426856,85.18539458433224 41.730577689246275,85.34111449448392 40.056523904320784,85.75636694280547 39.47161354590207,85.9380395936023 38.94721115543507,86.19757164010662 37.716882470063865,86.87235324442736 36.97061752981972,87.3654613102699 36.42604581674095,87.75475621632359 35.296563745010644,88.74096628472034 34.77216135454364,89.31192758771067 33.70318725099787,90.68741798224801 32.39218127494678,92.60789677001594 31.504731075605378,93.82764989534917 30.87948207173031,94.58025948419527 30.77863545808941,94.63216347998241 30.69795816729311,94.65811547241174 29.528137450222857,93.93145829781133 27.813745019841008,93.0490850059432 27.1279880477814,92.76361038604227 26.03884462150745,92.3743260983756 24.52614541829098,91.98504098542617 24.425298804650083,91.90718386377557 24.52614541829098,91.49194532442198 24.748007968184538,89.75312374233908 24.80851593625266,88.71501345609431 25.39342629467137,84.12130499708292 25.514442231040448,83.96558405239193 27.571713147335686,82.71981174130633 28.56000996020157,82.25264494559087 29.32644422305748,81.9671535409434 29.992031872505322,81.78547696134774 31.464392430265434,81.57784636465658 33.904880478046834,81.49998483038507 37.535358565626666,81.21449225548713 38.58416334656067,81.26640002931526 42.940737051772885,80.87709136737976 49.273904382484034,79.47557334977319 50.504233067738824,79.29389430501033 51.694223107537255,79.00839830002224 52.279133466188796,78.93053567614697 54.558266932261176,78.41145067337493 58.22908366529737,77.71068359183846 62.50498007971328,76.82823235134128 64.23954183270689,76.56868706161913 64.86479083669838,76.38700514058291 66.07495019922499,76.12745922732574 68.91882470122073,75.60836630007543 69.70542828692123,75.50454753849772 71.46015936252661,75.16713615799381 74.5258964142995,74.49231153687288 74.60657370521221,74.41444699796557 74.66708167328034,74.28467269300018 74.66708167328034,74.12894340591447 74.62674302782398,74.02512380786357 74.12250996020157,73.55793489012285 73.79980079678353,73.40220498666167 73.49726095621008,73.42815997972502 72.97285856574308,73.58388986114005 71.86354581674095,73.8434393699572 70.5928784860298,74.05107871281507 69.36254980089143,74.31062756130996 66.96240039833356,74.75185976164357 64.01767928281333,75.34881928606774 62.86802788847126,75.63432098126214 61.57719123503193,75.81600364703627 57.52315737050958,76.62059614896134 54.23555776895955,77.3473218299041 53.46912350598723,77.47709397025756 51.75473107572179,77.84045547535061 47.25697211152874,78.87862724193837 44.69546812749468,79.37175677479536 42.920567729044706,79.86488498322433 41.9726095617516,79.9427472109237 41.10532868525479,79.9167931387492 39.9556772907963,79.8908390628203 38.36230079678353,79.70916042894532 37.7773904382484,79.70916042894532 37.29332669323776,79.78702272266673 35.578934262972325,80.28014981588058 34.79233067727182,80.40991988344467 33.21912350587081,80.51373587142734 31.686254980042577,80.5396898593026 30.476095617515966,80.5915978239791 29.205428286804818,80.92899923668301 28.03560756961815,81.34426166269986 27.41035856574308,81.60380020207958 25.695966135361232,82.51218220105511 25.61528884456493,82.48622849198 25.574950199224986,82.3824136191979 25.75647410354577,80.87709136737976 25.75647410354577,80.79922953595815 25.65562749002129,80.74732162989676 24.990039840573445,81.0587688456726 24.102589641464874,81.55189252353739 22.38819721119944,82.66790437824966 21.440239043789916,83.394606125672 20.351095617515966,84.328932717719 18.898904382484034,85.83422667227569 18.798057768843137,85.86017990807886 18.697211155318655,85.80827343280544 18.556025896337815,85.62660065361706 18.53585657372605,85.49683427262062 18.59636454191059,85.39302110194694 19.100597609532997,84.84800099254062 20.71414342627395,83.34269895330362 22.34785856574308,82.0709686485061 23.215139442123473,81.49998483038507 24.768177290796302,80.5915978239791 27.00697211152874,79.55343574249127 28.015438247006387,79.16412344864511 30.21389442239888,78.5412220616272 34.67131474101916,77.58091161650373 35.80079681263305,77.37327626533806 36.93027888436336,77.03586831883877 39.31025896419305,76.59464160713833 39.91533864545636,76.41295971175714 42.597858565626666,75.91982223253581 43.30378486053087,75.73813966946909 44.634960159426555,75.4785928389756 46.40986055776011,75.01140761941497 47.13595617527608,74.90758852027648 48.68899402394891,74.57017604277644 49.7377988047665,74.41444699796557 51.43202191230375,74.02512380786357 52.117778884479776,73.92130415113934 52.82370517915115,73.71366466142354 53.48929282859899,73.60984482850472 56.575199203100055,72.62355348822894 58.37026892427821,71.92276431628852 58.773655378376134,71.71512256651476 60.427539840573445,70.98837459292554 61.214143426157534,70.59904413808545 62.20244023902342,70.00206917054311 63.43276892427821,69.37913670022681 64.30004980077501,68.86002469372761 65.61105577694252,67.97753091421328 67.22460159368347,66.83547384417034 70.08864541829098,64.65516334674612 71.39965139434207,63.616911152159446 72.6904880477814,62.55269655912707 74.30403386452235,61.358692355497624 74.60657370521221,61.0991251966916 76.80502988037188,59.43788669015339 77.69248007971328,58.8668324816972 78.51942231063731,58.451519214431755 78.62026892427821,58.451519214431755 78.72111553780269,58.47747632111714 78.94297808757983,58.73704718660156 79.54805776895955,60.34637836087495 80.09262948203832,61.618259147246135 80.15313745022286,61.670172461585025 80.27415338647552,61.644215806314605 80.51618525898084,61.514432474563364 80.55652390432078,61.410605743163615 80.57669322704896,61.3327356561058 80.31449203181546,60.89147120542475 79.62873505975585,59.02257471464691 78.33789840631653,56.037492246425245 78.13620517926756,55.44046992821677 76.98655378480908,52.63703481783159 75.95791832671966,49.911431860062294 75.45368525886443,48.87309627889772 74.82843625487294,47.26366452120419 73.33590637450106,43.629411871603224 73.09387450199574,42.954471314529656 72.85184262949042,42.56508140279038 72.67031872505322,42.43528458192304 72.46862549800426,42.487203321259585 71.48032868525479,42.9025527073245 70.3508466136409,43.29194190326962 65.42953187250532,45.316752406943124 62.888197211083025,46.43298454469186 60.467878486029804,47.36749925406184 53.227091633481905,50.40463920363982 49.67729083658196,51.806379156027106 48.44696215132717,52.351497358074994 46.28884462150745,53.20810840517515" stroke="#89CFF0" stroke-linecap="round" stroke-linejoin="round" stroke-width="0.5"><title>2026-02-23 21.36km</title><desc>17489994289</desc></polyline></g><text fill="#5A5A5A" style="font-size:6px; font-family:Arial; font-weight:bold;color:#0ed45e;" x="5" y="10">首次不参加比赛的半马</text><text fill="#5A5A5A" style="font-size:4px; font-family:Arial" x="5" y="121">Runner</text><text fill="#5A5A5A" style="font-size:6px; font-family:Arial" x="2" y="128">蓝皮书</text><text fill="#5A5A5A" style="font-size:4px; font-family:Arial" x="25" y="121">WORKOUTS INFO</text><text fill="#5A5A5A" style="font-size:3px; font-family:Arial" x="25" y="125">Type: Run</text><text fill="#5A5A5A" style="font-size:3px; font-family:Arial" x="22" y="129">Date: 2026-02-23</text><text fill="#5A5A5A" style="font-size:3px; font-family:Arial" x="47" y="125">Distance: 21.36 km</text><text fill="#5A5A5A" style="font-size:3px; font-family:Arial" x="47" y="129">Duration: 02:38:43</text><text fill="#5A5A5A" style="font-size:3px; font-family:Arial" x="75" y="125">Pace: 7:25/km</text><text fill="#5A5A5A" style="font-size:3px; font-family:Arial" x="75" y="129">Elevation: 11m</text></svg>