<?xml version="1.0" encoding="utf-8" ?>
<svg baseProfile="full" height="130mm" version="1.1" viewBox="0,0,100,130" width="100mm" xmlns="http://www.w3.org/2000/svg" xmlns:ev="http://www.w3.org/2001/xml-events" xmlns:xlink="http://www.w3.org/1999/xlink"><defs /><rect fill="#FAF9F5" height="130" width="100" x="0" y="0" /><g id="tracks"><polyline fill="none" points="33.79406127741095,30.771754625922767 33.82700017711613,30.941321501682978 34.58459487359505,32.80655080644647 35.21043397067115,34.671768507076195 37.12089016137179,39.41954302089289 38.70195735397283,43.0227145703102 39.064285252126865,44.124852513632504 39.525429849978536,45.05742760928115 41.86409173894208,50.737595098733436 42.1934807371581,51.41581686146674 42.88519763399381,53.19614168975386 44.03805912856478,55.90899729242665 45.61912632104941,59.89345946063986 45.81675972009543,60.486885466467356 46.837865615147166,62.775803344731685 47.00256011437159,63.496384986676276 47.33194911282044,64.25935189664597 48.28717720822897,67.52313287497964 49.14358860417269,71.9313001432165 49.47297760262154,74.72875729948282 49.50591650232673,75.95793476709514 49.70354990137275,77.95003927370999 49.73648880131077,79.94213054690044 49.76942770113237,80.23882385966135 49.86824440071359,80.28120859453338 50.527022397727706,80.4083627636137 50.75759469647892,80.4931321797194 50.955228095524944,80.70505561504979 51.054044795106165,81.12890203660936 51.28461709385738,81.25605584617006 52.7668675868772,81.29844043741468 54.051484680734575,81.42559417514713 59.65109765401576,81.38320960194687 62.055637342622504,81.42559417514713 64.42723813129123,81.38320960194687 66.20593872270547,81.25605584617006 66.53532772127073,81.38320960194687 66.60120552091394,81.51036330373609 66.53532772127073,82.95143482278218 66.3047554224031,85.0706450654252 66.3047554224031,85.79117313641473 66.10712202335708,87.4017590355943 65.81067192484625,91.13150369899813 65.77773302490823,92.57252898716251 65.81067192484625,93.1235074144497 65.34952732687816,96.34459181001876 65.31658842705656,98.33656090020668 65.15189392794855,99.65040561230853 65.21777172759175,100.96424456883688 64.98719942872413,101.89664291735971 64.75662712974008,103.71904950166936 64.75662712974008,104.05810066763661 64.9213216289645,104.65143928598263 64.88838272925932,104.82096438991721 64.78956602956168,105.58382617178722 64.62487153033726,106.09239961497951 64.55899373069406,106.43144809815567 64.52605483087245,107.44859124763752 64.36136033164803,109.31334472971503 64.36136033164803,110.28809761756565 64.26254363206681,110.5 63.66964343492873,110.5 55.33610177459195,109.18620281518088 52.27278408932034,108.80477674797294 49.14358860417269,108.21144634613302 49.011833004886284,108.16906555829337 48.913016305305064,108.04192315856926 48.945955205126666,106.30430496181361 49.20946640393231,103.33761648170184 49.20946640393231,102.23569614361622 49.34122200321872,101.34568060724996 49.40709980297834,100.03184332160163 49.538855402264744,99.43849556421628 49.538855402264744,98.5908538743679 49.73648880131077,97.06509279547026 49.96706110006198,93.75925049590296 50.19763339916244,92.36061393780983 50.26351119868923,89.81762166650151 50.46114459785167,88.16466512673651 50.55996129731648,86.08786066249013 50.82347249623854,83.1209721933119 51.02110589516815,79.47589760529809 50.92228919570334,75.40692480118014 50.790533596416935,74.00820264837239 50.46114459785167,71.71937050743145 49.96706110006198,68.92188527685357 49.20946640393231,65.74289310869062 48.15542160894256,62.69102892000228 47.59546031150967,61.41940967418486 47.43076581240166,60.783598028938286 46.4096599171171,58.49466494331136 44.202753627556376,52.85703301359899 41.99584733822849,47.6855781818449 40.908863643417135,45.01503789512208 40.51359684520867,43.78573357805726 40.25008564651944,43.192274517641636 39.95363554789219,42.64120433831704 39.32779645093251,41.24232933437452 38.339629455585964,38.656512901652604 37.84554595814552,37.511964081873884 36.75856226310134,34.756550854159286 35.07867837115191,30.644579406041885 34.58459487359505,29.584783809579676 34.45283927419223,29.5 34.2552058751462,29.5 33.5634889784269,29.79674322847859 33.39879447920248,29.79674322847859" stroke="#4DD2FF" stroke-linecap="round" stroke-linejoin="round" stroke-width="0.5"><title>2026-01-28 5.20km</title><desc>17200055500</desc></polyline></g><text fill="#5A5A5A" style="font-size:6px; font-family:Arial; font-weight:bold;color:#0ed45e;" x="5" y="10">Morning Run</text><text fill="#5A5A5A" style="font-size:4px; font-family:Arial" x="5" y="121">Runner</text><text fill="#5A5A5A" style="font-size:6px; font-family:Arial" x="2" y="128">蓝皮书</text><text fill="#5A5A5A" style="font-size:4px; font-family:Arial" x="25" y="121">WORKOUTS INFO</text><text fill="#5A5A5A" style="font-size:3px; font-family:Arial" x="25" y="125">Type: Run</text><text fill="#5A5A5A" style="font-size:3px; font-family:Arial" x="22" y="129">Date: 2026-01-28</text><text fill="#5A5A5A" style="font-size:3px; font-family:Arial" x="47" y="125">Distance: 5.20 km</text><text fill="#5A5A5A" style="font-size:3px; font-family:Arial" x="47" y="129">Duration: 37:31min</text><text fill="#5A5A5A" style="font-size:3px; font-family:Arial" x="75" y="125">Pace: 7:12/km</text><text fill="#5A5A5A" style="font-size:3px; font-family:Arial" x="75" y="129">Elevation: 0m</text></svg>