<?xml version="1.0" encoding="utf-8" ?>
<svg baseProfile="full" height="130mm" version="1.1" viewBox="0,0,100,130" width="100mm" xmlns="http://www.w3.org/2000/svg" xmlns:ev="http://www.w3.org/2001/xml-events" xmlns:xlink="http://www.w3.org/1999/xlink"><defs /><rect fill="#FAF9F5" height="130" width="100" x="0" y="0" /><g id="tracks"><polyline fill="none" points="90.5,44.40733949828427 86.36620689672418,45.77330683323089 84.52275862079114,46.56412834965158 81.2268965516705,47.786304637847934 79.2158620688133,48.792800551629625 64.85931034456007,54.68795089551713 60.22275862051174,56.48523923440371 58.04413793096319,57.491717929486185 45.25172413769178,62.59597206860781 36.03448275849223,66.62182651431067 25.47655172389932,70.86331725341734 19.443448275560513,73.45132812182419 18.10275862016715,73.88266198604833 13.689655171940103,75.82365984690841 10.617241379106417,77.04576581012225 9.611724137794226,77.47709662519628 9.5,77.54898505890742 9.555862068664283,77.9803154473193 10.00275862053968,79.05863981752191 10.50551724107936,79.56185707438271 10.784827586030588,79.99318575544748 10.952413792721927,80.71206607739441 12.404827585676685,84.01890246925177 16.42689655139111,94.58625721628778 16.817931034136564,95.44888872577576 17.09724137908779,95.59266050177393 18.04689655150287,95.08945910789771 18.10275862016715,94.8019152309862 18.04689655150287,94.51437119126786 16.873793103033677,91.92646751762368 15.030344827333465,87.54137845087098 11.957931034034118,79.41808076621965 11.902068965137005,79.13052802771563 12.013793103164062,78.91486336692469 12.516551723703742,78.69919861486414 16.650344827445224,77.33331972738961 29.386896551353857,72.15732433396624 35.922758620698005,69.78497550432803 44.13448275835253,66.19048649101751 49.49724137899466,64.1056712208665 54.357241379329935,61.87706613505725 55.58620689646341,61.51761278702179 55.697931034257635,61.66139415669022 55.697931034257635,61.87706613505725 55.47448275866918,63.24298653990263 55.30689655174501,65.25591518572764 54.860000000102445,68.49096238665516 54.524827586254105,70.36009138840018 54.24551724130288,73.0199938917649 54.13379310327582,74.6015509464196 53.63103448273614,77.90842707460979 53.23999999999069,81.35905749851372 52.68137931008823,84.95343929139199 52.737241379218176,85.16910139104584 53.01655172393657,85.31287607329432 57.20620689657517,85.60042531578802 57.37379310349934,85.45665071497206 57.54137931019068,84.95343929139199 57.76482758624479,81.50283325801138 58.323448275914416,77.4052081812988 58.60275862063281,76.03932581847766 58.826206896454096,73.45132812182419 60.72551724128425,59.57656031718943 60.61379310302436,59.36088736291276 60.22275862051174,59.288996357878204 55.92137931031175,61.3019406562089 55.75379310338758,61.51761278702179 55.58620689646341,62.020847403095104 55.530344827566296,64.1056712208665 55.25103448261507,66.40615654853173 54.58068965491839,69.71308597299503 53.35172413778491,79.05863981752191 53.01655172393657,80.92772997595603 52.904827586142346,82.0779358894797 52.79310344811529,83.80323988187592 52.68137931008823,84.80966450751293 52.737241379218176,85.09721403452568 53.07241379306652,85.31287607329432 56.87103448272683,85.60042531578802 57.09448275854811,85.60042531578802 57.37379310349934,85.24098873737967 57.653103448217735,82.43737470387714 57.93241379293613,80.64017809095094 58.0999999998603,78.98675159737468 58.37931034481153,77.54898505890742 59.440689655253664,69.85686502530007 60.22275862051174,65.18402501405217 60.66965517215431,61.3019406562089 60.948965516872704,59.720342235523276 61.17241379292682,59.21710534283193 65.97655172413215,57.06037016125629 67.98758620675653,56.41334782278864 72.79172413796186,54.328492465487216 75.02620689664036,53.537683024653234 81.39448275859468,51.02146298537264 85.86344827595167,48.93658551963745" stroke="#4DD2FF" stroke-linecap="round" stroke-linejoin="round" stroke-width="0.5"><title>2026-05-05 5.06km</title><desc>18379094343</desc></polyline></g><text fill="#5A5A5A" style="font-size:6px; font-family:Arial; font-weight:bold;color:#0ed45e;" x="5" y="10">节气跑—立夏</text><text fill="#5A5A5A" style="font-size:4px; font-family:Arial" x="5" y="121">Runner</text><text fill="#5A5A5A" style="font-size:6px; font-family:Arial" x="2" y="128">蓝皮书</text><text fill="#5A5A5A" style="font-size:4px; font-family:Arial" x="25" y="121">WORKOUTS INFO</text><text fill="#5A5A5A" style="font-size:3px; font-family:Arial" x="25" y="125">Type: Run</text><text fill="#5A5A5A" style="font-size:3px; font-family:Arial" x="22" y="129">Date: 2026-05-05</text><text fill="#5A5A5A" style="font-size:3px; font-family:Arial" x="47" y="125">Distance: 5.06 km</text><text fill="#5A5A5A" style="font-size:3px; font-family:Arial" x="47" y="129">Duration: 39:16min</text><text fill="#5A5A5A" style="font-size:3px; font-family:Arial" x="75" y="125">Pace: 7:45/km</text><text fill="#5A5A5A" style="font-size:3px; font-family:Arial" x="75" y="129">Elevation: 2m</text></svg>