<?xml version="1.0" encoding="utf-8" ?>
<svg baseProfile="full" height="130mm" version="1.1" viewBox="0,0,100,130" width="100mm" xmlns="http://www.w3.org/2000/svg" xmlns:ev="http://www.w3.org/2001/xml-events" xmlns:xlink="http://www.w3.org/1999/xlink"><defs /><rect fill="#FAF9F5" height="130" width="100" x="0" y="0" /><g id="tracks"><polyline fill="none" points="86.57838616706431,47.40963765329798 83.73054755060002,48.3108979529934 82.65677233412862,48.79156933136983 81.44293948146515,48.79156933136983 80.46253602299839,48.9117370909953 78.96858789632097,49.09198866656516 77.66138328542002,49.45249158874503 75.65389048983343,50.41383121890249 73.55302593670785,51.194918067049 72.43256484158337,51.43525219304138 70.3783861673437,52.69700412431848 68.93112391931936,53.23775380512234 68.23083573486656,53.65833641460631 66.41008645528927,54.19908487194334 64.54265129682608,55.22049674761365 63.70230547548272,55.821326115808915 62.721902017481625,56.181823328952305 62.02161383279599,56.60240302453167 59.360518732108176,57.50364382745465 58.2867435158696,57.74397438537562 57.49308357364498,58.16455253478489 56.60605187318288,58.46496524391114 54.87867435161024,58.88554267969448 53.61815561982803,59.546449237910565 52.26426512980834,59.96702560337144 50.95706051867455,60.62793047961895 49.08962536021136,61.88965511639253 45.58818443818018,63.33162154254387 43.02046109503135,64.71350144315511 38.67867435165681,66.15545828742324 37.79164265119471,66.57602811211837 34.38357348693535,67.53732900560135 33.543227665824816,67.95789746259106 31.53573487047106,68.55870882203453 28.921325648436323,69.64016712861485 25.513256484176964,71.38251083382056 23.412391930818558,72.10347855326836 22.245244956808165,73.12484739552019 21.451585014583543,73.60549070723937 18.370317002991214,74.2663743730227 17.10979827097617,74.74701639366685 14.261959654279053,75.58813862182433 12.90806916449219,76.36917919985717 10.947262247791514,77.15021834263462 9.733429395128042,77.93125605001114 9.5,78.29173450759845 9.59337175800465,79.13284972001566 9.826801152899861,79.7937247902446 10.993948126910254,80.99531319426023 11.134005763800815,81.77634383513941 11.647550432244316,83.1581637604977 12.394524495815858,84.66013684411882 12.627953890711069,85.50123945236555 13.42161383293569,87.12336121019325 13.935158501612023,88.50516375011648 14.868876080727205,90.66797609769856 15.335734870284796,92.04976711291238 16.129394812742248,93.371476054308 16.45619596564211,93.55170877333148 17.01642651320435,93.49163120874437 17.20317002874799,93.371476054308 17.296541786985472,93.13116564354277 17.34322766563855,91.98968933624565 17.15648414986208,90.66797609769856 16.68962536030449,89.46641504115541 15.989337175618857,88.02453728916589 15.195677233627066,86.82296875922475 14.775504322722554,85.56131814629771 14.121902017621323,83.45855880182353 13.748414985602722,82.61745215073461 13.514985590940341,81.5961061223934 13.561671469826251,81.17555116198491 13.748414985602722,80.87515450676437 14.168587896274403,80.63483702988015 15.755907780956477,80.2743605596479 18.743804034776986,78.95261088601546 19.070605187444016,78.83245162089588 20.05100864567794,77.8711762772873 20.42449567723088,77.6308571017289 24.859654178842902,76.36917919985717 26.306916426634416,76.12885917484527 27.24063400598243,75.88853901383118 29.948414985788986,74.68693617076497 30.555331412237138,74.50669545130222 32.56282420735806,73.66557108284906 33.77665706072003,73.30508870104677 34.61700288183056,72.824445049715 35.17723342962563,72.76436455501243 36.20432276651263,72.34380085466546 37.044668587855995,71.86315611595637 38.16512968321331,70.78170346660772 39.65907781012356,69.94057172531029 40.3593659941107,69.39984329827712 40.872910663019866,69.1595193320536 42.64697406347841,68.73895206430461 43.907492795493454,68.13814095949056 45.027953890385106,67.53732900560135 45.16801152727567,67.59741023913375 46.61527377530001,66.51594673411455 47.22219020198099,65.97521394948126 48.249279538867995,65.61472504414269 48.295965417753905,65.73488804657245 47.829106628196314,68.97927626830642 47.31556195975281,71.38251083382056 47.03544668597169,72.16355914142332 46.89538904908113,75.40789828437846 46.70864553307183,76.84981884228182 46.47521613840945,77.8711762772873 46.33515850128606,79.25300890003564 45.63487031729892,81.89650226786034 45.58818443818018,82.8577685066266 45.40144092217088,83.6988746819261 45.35475504328497,84.17950603482313 45.44812680128962,84.35974265192635 45.77492795418948,84.60005802259548 47.782420749310404,85.20084585479344 48.99625360243954,85.32100331914262 49.36974063399248,85.26092459118809 50.30345821334049,84.53997919263202 50.58357348712161,84.11942714534234 50.91037463978864,82.37713565910235 51.797406340017915,80.1542016681924 52.26426512980834,78.17157505566138 52.310951008694246,75.88853901383118 52.170893371803686,74.68693617076497 52.54438040358946,72.824445049715 52.96455331426114,68.13814095949056 52.9178674351424,67.95789746259106 52.54438040358946,67.4772477633669 52.357636887580156,65.37439893739065 52.217579250689596,64.83366470024339 51.984149856027216,64.65341980167432 51.704034582246095,64.5933381516952 50.63025936600752,64.71350144315511 49.36974063399248,65.19415426813066 48.94956772355363,65.43448047686252 48.76282420754433,65.7949695349962 48.342651296872646,67.05667883050046 48.249279538867995,67.95789746259106 48.015850144205615,68.9191952299152 47.735734870424494,71.08210725634126 47.22219020198099,73.72565145007684 47.17550432286225,75.10749755240977 46.61527377530001,78.23165478603914 46.52190201729536,79.37316804617876 46.33515850128606,79.85380429119687 46.42853025952354,80.51467824028805 46.28847262263298,81.95658147157519 46.3818443804048,82.97792663361179 46.19510086462833,84.35974265192635 46.14841498574242,85.38108203859883 49.55648414976895,85.62139683193527 50.21008645533584,85.50123945236555 50.5368876082357,85.26092459118809 50.91037463978864,84.41982150741387 51.09711815579794,83.21824278563145 51.704034582246095,81.11547184782103 51.890778098255396,80.69491641176865 52.170893371803686,79.1929293142748 52.77780979825184,77.27037808316527 52.96455331426114,75.76837888240698 53.29135446692817,74.68693617076497 54.08501440938562,72.58412302014767 54.22507204604335,72.34380085466546 54.22507204604335,71.74299484636867 54.08501440938562,71.38251083382056 53.52478386159055,70.78170346660772 53.38472622493282,70.30105696117971 54.03832853026688,67.95789746259106 54.03832853026688,67.71757268096553 53.8048991356045,67.35708525357768 53.75821325648576,67.11676013219403 53.8048991356045,66.51594673411455 54.08501440938562,65.31431738953688 54.22507204604335,64.89374631617102 54.36512968293391,64.17276636487804 54.50518731982447,63.87235769088147 54.69193083583377,63.63203059890657 57.67982708942145,61.82957307557808 58.56685878965072,61.82957307557808 60.01412103744224,61.529162745253416 61.60144092235714,61.40899855355383 62.395100864814594,61.168670068349456 63.70230547548272,60.62793047961895 64.16916426504031,60.32751929972437 65.52305475529283,59.06579002473154 66.83025936619379,58.58513026803848 67.48386167152785,58.224635093443794 68.60432276665233,57.26331313358969 69.95821325667202,56.96289957506815 70.93861671444029,56.24190616805572 72.0590778097976,55.70116031024372 74.30000000004657,54.799915684445295 76.82103746407665,53.5982532100752 77.24121037474833,53.47808677572175 78.54841498564929,52.937337400740944 81.58299711812288,51.976003479532665 82.70345821324736,51.43525219304138 83.45043227658607,50.83441662337282 84.80432276660576,49.9331616757554 85.92478386173025,49.572659161436604 86.90518731996417,49.33232398197288 88.3991354466416,48.55123371013906 89.00605187332258,48.370981905114604 89.84639769466594,48.250813992577605 90.40662824199535,48.0104780656402 90.5,47.89031005100696 90.40662824199535,46.688628037052695 90.35994236310944,46.56845964893 90.12651296844706,46.44829122663941 89.37953890487552,46.62854384726961" stroke="#4DD2FF" stroke-linecap="round" stroke-linejoin="round" stroke-width="0.5"><title>2026-03-26 5.50km</title><desc>17860257595</desc></polyline></g><text fill="#5A5A5A" style="font-size:6px; font-family:Arial; font-weight:bold;color:#0ed45e;" x="5" y="10">晨间跑步</text><text fill="#5A5A5A" style="font-size:4px; font-family:Arial" x="5" y="121">Runner</text><text fill="#5A5A5A" style="font-size:6px; font-family:Arial" x="2" y="128">蓝皮书</text><text fill="#5A5A5A" style="font-size:4px; font-family:Arial" x="25" y="121">WORKOUTS INFO</text><text fill="#5A5A5A" style="font-size:3px; font-family:Arial" x="25" y="125">Type: Run</text><text fill="#5A5A5A" style="font-size:3px; font-family:Arial" x="22" y="129">Date: 2026-03-26</text><text fill="#5A5A5A" style="font-size:3px; font-family:Arial" x="47" y="125">Distance: 5.50 km</text><text fill="#5A5A5A" style="font-size:3px; font-family:Arial" x="47" y="129">Duration: 42:25min</text><text fill="#5A5A5A" style="font-size:3px; font-family:Arial" x="75" y="125">Pace: 7:42/km</text><text fill="#5A5A5A" style="font-size:3px; font-family:Arial" x="75" y="129">Elevation: 0m</text></svg>