<?xml version="1.0" encoding="utf-8" ?>
<svg baseProfile="full" height="130mm" version="1.1" viewBox="0,0,100,130" width="100mm" xmlns="http://www.w3.org/2000/svg" xmlns:ev="http://www.w3.org/2001/xml-events" xmlns:xlink="http://www.w3.org/1999/xlink"><defs /><rect fill="#FAF9F5" height="130" width="100" x="0" y="0" /><g id="tracks"><polyline fill="none" points="65.37482868880033,36.76285575827933 63.5986751941964,37.191456942644436 61.23047053441405,38.143902065901784 60.00936500681564,38.66774573570001 58.41822750121355,39.52494271076284 56.42005481943488,40.28689374597161 54.34787574247457,41.191708361322526 52.86774783022702,42.001277272676816 52.46071265428327,42.09652054606704 51.90566468704492,42.09652054606704 51.3506167200394,42.23938540564268 50.610552763799205,42.23938540564268 49.61146642290987,42.42987179089687 48.57537688454613,42.81084423797438 47.46528095030226,42.95370879469556 46.61420740070753,43.38230210079928 45.65212425752543,43.66803066866123 44.0239835542161,44.525214917812264 43.135906806681305,44.85856375901494 41.063727729720995,45.90622939734021 39.84262220188975,46.430060994578525 38.99154865229502,46.95389177711331 36.43832800374366,47.85868848251994 35.58725445414893,48.096792474825634 34.92119689355604,48.477758512162836 33.589081772603095,48.85872411876335 32.29396984935738,49.43017172062537 31.109867519466206,49.66827460197965 29.85175879392773,50.14447985962033 28.81566925533116,50.28734130569501 26.669483782490715,51.8588132126315 24.708314298884943,52.668356485286495 22.821151210693642,53.5731378402852 21.489036089507863,54.28743719338672 19.601873001316562,55.43031300746952 18.49177706730552,55.90651011894806 17.862722704652697,56.04936912105768 16.86363636353053,56.57318494399078 15.531521242577583,57.00176092024776 14.495431703981012,57.57319470733637 12.164230242138728,58.5732015017129 11.239150296896696,59.144632622919744 10.758108725538477,59.28749025167781 10.055047967238352,59.4303478198417 9.611009593354538,59.763681910029845 9.5,60.14463475195225 9.537003197707236,60.906539143587 9.87003197800368,61.43034741297015 10.499086340889335,63.62080953273107 11.276153494836763,65.4303109748289 11.276153494836763,65.81125740832067 11.3871630881913,66.239821630792 11.757195066194981,67.52551102713915 12.05322064878419,68.04930900398176 11.942211055429652,68.33501664811047 11.979214253136888,68.47787037919625 13.311329374322668,70.62066907688859 13.681361352093518,71.33493228023872 13.792370945680887,71.43016725979396 14.199406121624634,71.47778473928338 14.865463681984693,71.33493228023872 14.976473275572062,71.14446224088897 14.865463681984693,70.47781625451171 15.013476473279297,71.19207976080361 15.605527638224885,72.14442874671659 15.75354042951949,72.57298491196707 15.790543627226725,73.28724397587939 15.93855641852133,74.00150152528659 16.0125628139358,74.57290647437912 16.234582000877708,75.52524590224493 16.9746459571179,77.19183342257747 17.34467793535441,78.33463152841432 18.047738693421707,79.38219305305392 18.750799451954663,80.62021610958618 19.009821836603805,81.28684202465229 19.23184102331288,82.09631457665819 19.7128825946711,82.90578518353868 19.934901781613007,83.4771750291111 21.822064869804308,86.04841734087677 22.710141617106274,86.95310904257349 23.4132023754064,87.90541347221006 23.931247144704685,88.42917976094759 24.893330287886783,89.66716957019526 25.522384650539607,90.23854794772342 26.410461398074403,90.76231060910504 26.81749657378532,90.90515483010677 27.29853814514354,90.80992535609403 27.927592508029193,90.52423677305342 28.593650068622082,90.09570344429812 30.184787574224174,88.81010018693632 32.7750114207156,87.4768768120266 33.99611694854684,86.71503251444665 34.5881681132596,86.47695581821608 34.77318410249427,86.47695581821608 34.84719049790874,87.00072432792513 34.810187300201505,87.52449202345451 34.625171311199665,88.09587403500336 34.47715851990506,88.95294523541816 33.92211055266671,90.90515483010677 33.51507537695579,92.90496756290668 33.51507537695579,93.76202652859502 33.55207857466303,94.7143117110827 33.404065783368424,95.6665942016989 33.44106898130849,97.99967492782162 33.36706258566119,98.47581186637399 33.14504339895211,98.9519481320458 32.99703060765751,99.66615126869874 32.88602101407014,100.76125980447978 32.626998629653826,101.95159113191767 32.626998629653826,102.28488314992865 32.7750114207156,102.52294867520686 35.55025125620887,103.23714424174977 36.21630881680176,103.14191825370654 36.77135678404011,100.57080640178174 36.91936957510188,99.47569724702043 37.14138876204379,98.6662664533942 37.43741434440017,97.23785442649387 37.80744632263668,96.19034842422116 38.510507080936804,95.28568152850494 38.84353586123325,94.52385488993605 38.99154865229502,93.90486947758473 39.13956144358963,92.28597917602747 39.39858382800594,91.52414575405419 40.13864778447896,90.76231060910504 41.32275011413731,89.95285888010403 42.54385564196855,88.71487012071884 43.57994518056512,88.14348915897426 44.72704431251623,87.33403113737586 45.208085883874446,86.71503251444665 45.504111466463655,85.90557106066262 46.24417542247102,85.33418533403892 46.688213796122,84.85802982142195 47.05824577435851,84.66756742805592 48.57537688454613,84.4294892847247 50.94358154409565,84.23902664895286 52.83074463228695,84.23902664895286 58.936272270279005,83.66763809561962 60.41640018275939,83.66763809561962 62.266560073243454,83.85810105447308 63.191640018252656,83.81048532476416 64.37574234814383,83.85810105447308 65.559844678035,83.57240657578222 68.00205573323183,83.4295592456765 68.48309730482288,83.33432765860925 69.85221562348306,83.33432765860925 72.51644586585462,82.81055344839115 74.99566011875868,82.14393054854008 76.7348104158882,81.90585062181344 77.6598903608974,81.8582346161711 79.62105984473601,81.23922593166935 82.06327089993283,80.90591309181764 85.35655550495721,79.95358887521434 88.72384650539607,79.33457669086056 89.42690726346336,79.28696032176958 90.2779808130581,79.0488783758774 90.5,78.90602912756731 90.4259936043527,77.66799977121991 90.31498401099816,77.28706674615387 90.05596162634902,77.00136669471976 89.64892645040527,76.90613329035114 87.13270899956115,77.28706674615387 86.31863864790648,77.47753331254353 85.43056190037169,77.76323296019109 83.43238921882585,77.810849544534 82.58131566923112,78.04893236549105 82.10027409764007,78.3822480319941 79.58405664679594,78.71556336889626 78.02992233890109,79.28696032176958 77.03083599824458,79.52504209944163 74.6996345364023,79.85835630545625 73.8855641845148,80.14405393388006 72.07240749197081,80.42975131992716 71.18433074466884,80.76306463082437 70.00022841477767,81.048761492013 67.92804933758453,80.85829694493441 66.48492462327704,80.85829694493441 65.59684787574224,81.048761492013 65.11580630438402,81.048761492013 64.30173595249653,80.85829694493441 63.26564641389996,80.7154484638304 62.48857925995253,80.47736752752098 60.71242576511577,80.47736752752098 60.04636820475571,80.62021610958618 59.01027866615914,80.90591309181764 57.56715395161882,81.52492238889681 57.19712197361514,81.62015448752209 56.75308359996416,81.52492238889681 56.42005481943488,81.57253844162915 54.45888533582911,81.4296902633505 53.68181818188168,81.52492238889681 52.90475102770142,81.52492238889681 50.49954317044467,81.95346662058728 49.79648241214454,82.14393054854008 48.68638647766784,82.0486985979951 48.27935130195692,82.09631457665819 47.76130653265864,82.23916247216403 47.317268159007654,82.57247399262269 46.57720420276746,82.62008989727474 45.43010507081635,82.95340104101342 44.57903152122162,83.33432765860925 42.32183645502664,84.04856390558416 42.1368204660248,84.04856390558416 41.76678848802112,83.9057167772844 41.433759707491845,83.62002233898966 41.32275011413731,83.38194345557713 40.878711740486324,81.8106186039222 40.61968935583718,81.19160983181791 40.397670169128105,80.95352923200699 40.06464138883166,80.85829694493441 39.13956144358963,81.23922593166935 39.065555047942325,81.14399372538901 38.91754225664772,81.4773063295579 38.695523069938645,81.66777052666293 38.4365006852895,81.62015448752209 38.14047510270029,81.66777052666293 36.031292827799916,83.00101689164876 35.846276838798076,83.04863273588126 35.62425765185617,83.00101689164876 35.58725445414893,82.71532168629346 35.62425765185617,82.14393054854008 36.327318410389125,79.0488783758774 36.327318410389125,78.4298645289382 36.36432160809636,77.810849544534 36.697350388392806,76.858516578126 36.882366377161816,75.6680965841806 37.21539515745826,74.62052350974409 37.32640475104563,73.90626727274503 37.659433531342074,73.19200952147366 37.844449520343915,72.19204612541944 37.88145271828398,70.81113941260264 38.3624942896422,69.0969025141676 38.58451347658411,66.5255308096821 38.510507080936804,65.71602084030746 38.695523069938645,64.43032453744672 38.65851987199858,63.62080953273107 38.84353586123325,62.66843644832261 38.84353586123325,61.811298370099394 38.99154865229502,60.71606320727733 38.95454545458779,59.85892016085563 39.176564641529694,57.43033635139 39.13956144358963,56.62080452378723 39.28757423488423,55.62079193300451 39.76861580624245,53.33503771937103 39.95363179524429,51.23974939720938 40.286660575540736,50.2397208304028 40.50867976248264,50.04923886191682 40.80470534507185,49.95399783732137 41.32275011413731,49.334930520970374 41.84079488366842,48.85872411876335 42.35883965296671,48.71586206686334 43.02489721332677,48.33489629867836 42.72887163097039,49.09682740404969 42.61786203738302,49.95399783732137 42.32183645502664,51.00164762677741 42.2108268616721,51.715952433180064 41.9888076747302,52.57311620126711 41.87779808137566,54.001717633916996 41.39675651001744,55.71603135514306 41.433759707491845,57.335097413830226 41.21174052078277,58.858917183359154 40.767702147131786,60.38273005952942 40.36066697118804,64.2398505936726 40.3236637734808,66.09696695065941 39.76861580624245,68.00169103976805 39.58359981747344,69.47784480109112 39.39858382800594,70.28734573020483 39.361580630531535,71.0016096404579 39.21356783923693,71.28731478058035 39.176564641529694,72.09681136140716 39.250571036944166,73.52532999392133 38.91754225664772,74.47767238348024 38.880539058940485,74.76337457521004 39.065555047942325,76.57281616318505 38.95454545458779,78.00131581476307 38.99154865229502,78.66794691234827 38.80653266329318,79.4774257572717 38.510507080936804,80.42975131992716 38.4365006852895,81.23922593166935 38.54751027864404,81.28684202465229 38.73252626764588,81.4773063295579 40.101644586538896,81.048761492013 40.50867976248264,80.76306463082437 41.13773412513547,78.90602912756731 41.433759707491845,77.9536992571957 41.729785290081054,75.95379776629852 41.84079488366842,74.57290647437912 42.1368204660248,73.38247840327676 42.61786203738302,69.28737371147145 42.87688442203216,68.0969269615889 42.80287802638486,67.28742076852359 42.83988122432493,66.66838530826499 43.20991320232861,65.09698249219218 43.320922795915976,64.19223209097981 43.54294198262505,63.430335131357424 43.72795797162689,62.287486460700165 43.76496116956696,60.38273005952942 44.097989949863404,57.76367242078413 44.06098675192334,57.049380439624656 44.39401553221978,55.66841164737707 44.542028323281556,54.19219736717059 44.69004111457616,53.62075784421177 44.69004111457616,52.57311620126711 44.87505710381083,51.33499005829799 44.949063499458134,50.14447985962033 45.17108268616721,49.14444804083905 45.24508908181451,47.85868848251994 45.39310187310912,47.572963469690876 45.9111466424074,46.90627083045547 46.87322978535667,46.38243997399695 48.427364093251526,46.096713708830066 49.759479214204475,45.5252604513953 50.31452718144283,45.43001814757008 51.01758793974295,45.096669872058555 52.127683873986825,44.81094251613831 52.86774783022702,44.71570001033251 53.75582457729615,44.28710840080748 54.56989492918365,44.09662306593964 55.38396528107114,43.76327347062761 56.42005481943488,43.1918162543152 56.82708999561146,43.09657329056063 57.7891731383279,42.287007011967944 58.97327546821907,41.572682209080085 60.19438099581748,40.95359948766418 61.489492919063196,40.477381235396024 62.48857925995253,39.85829650075175 64.26473275478929,39.001100374094676 65.22681589773856,38.71536784718046 65.85587026039138,38.429635077744024 66.70694380975328,38.334390767413424" stroke="#4DD2FF" stroke-linecap="round" stroke-linejoin="round" stroke-width="0.5"><title>2026-05-01 9.21km</title><desc>18325526847</desc></polyline></g><text fill="#5A5A5A" style="font-size:6px; font-family:Arial; font-weight:bold;color:#0ed45e;" x="5" y="10">晨间跑步</text><text fill="#5A5A5A" style="font-size:4px; font-family:Arial" x="5" y="121">Runner</text><text fill="#5A5A5A" style="font-size:6px; font-family:Arial" x="2" y="128">蓝皮书</text><text fill="#5A5A5A" style="font-size:4px; font-family:Arial" x="25" y="121">WORKOUTS INFO</text><text fill="#5A5A5A" style="font-size:3px; font-family:Arial" x="25" y="125">Type: Run</text><text fill="#5A5A5A" style="font-size:3px; font-family:Arial" x="22" y="129">Date: 2026-05-01</text><text fill="#5A5A5A" style="font-size:3px; font-family:Arial" x="47" y="125">Distance: 9.21 km</text><text fill="#5A5A5A" style="font-size:3px; font-family:Arial" x="47" y="129">Duration: 01:14:38</text><text fill="#5A5A5A" style="font-size:3px; font-family:Arial" x="75" y="125">Pace: 8:06/km</text><text fill="#5A5A5A" style="font-size:3px; font-family:Arial" x="75" y="129">Elevation: 0m</text></svg>