<?xml version="1.0" encoding="utf-8" ?>
<svg baseProfile="full" height="130mm" version="1.1" viewBox="0,0,100,130" width="100mm" xmlns="http://www.w3.org/2000/svg" xmlns:ev="http://www.w3.org/2001/xml-events" xmlns:xlink="http://www.w3.org/1999/xlink"><defs /><rect fill="#FAF9F5" height="130" width="100" x="0" y="0" /><text fill="#5A5A5A" style="font-size:6px; font-family:Arial; font-weight:bold;" x="5" y="10">2025-02-28 Workouts</text><text fill="#5A5A5A" style="font-size:4px; font-family:Arial" x="5" y="121">Runner</text><text fill="#5A5A5A" style="font-size:6px; font-family:Arial" x="2" y="128">蓝皮书</text><text fill="#5A5A5A" style="font-size:4px; font-family:Arial" x="25" y="121">STATISTICS</text><text fill="#5A5A5A" style="font-size:3px; font-family:Arial" x="25" y="125">Number: 1</text><text fill="#5A5A5A" style="font-size:3px; font-family:Arial" x="25" y="129">Weekly: 1.0</text><text fill="#5A5A5A" style="font-size:3px; font-family:Arial" x="48" y="125">Total: 10.1 km</text><text fill="#5A5A5A" style="font-size:3px; font-family:Arial" x="48" y="129">Avg: 10.1 km</text><text fill="#5A5A5A" style="font-size:3px; font-family:Arial" x="75" y="125">Min: 10.1 km</text><text fill="#5A5A5A" style="font-size:3px; font-family:Arial" x="75" y="129">Max: 10.1 km</text><polyline fill="none" points="75.59425493655726,55.18256806227146 78.86624775547534,54.813277283275966 82.64721723459661,54.813277283275966 84.17414721706882,54.443986302416306 88.0278276479803,54.443986302416306 89.62746858084574,55.18256806227146 89.77289048442617,59.52171960606938 89.84560143575072,62.47601961513283 89.62746858084574,66.1688764723367 90.0637342906557,70.784919178579 89.77289048442617,77.52428493316984 89.40933572687209,83.61735231231432 87.73698384175077,84.54053954937262 85.48294434417039,84.07894608838251 83.66517055593431,84.26358351064846 82.64721723459661,84.26358351064846 77.70287253102288,84.44822088233195 74.72172351879999,84.35590220266022 71.66786355432123,84.72517684561899 69.41382405720651,84.81749547459185 65.99640933563933,84.90981409105007 63.378815080504864,85.00213269516826 61.70646319538355,84.90981409105007 58.5798922800459,84.72517684561899 56.83482944313437,84.90981409105007 52.83572710910812,85.09445128636435 50.72710951510817,84.72517684561899 48.40035906620324,85.279088431329 43.019748653285205,85.18676986522041 40.91113105928525,85.37140698492294 35.53052064590156,85.4637255257694 30.295332136563957,85.8329995633685 28.11400359030813,86.0176365065272 21.133752244058996,85.92531804111786 18.588868940249085,85.92531804111786 13.353680430911481,85.8329995633685 11.535906642209738,86.0176365065272 10.081687611993402,84.63285820366582 9.645421903114766,80.20154857519083 9.645421903114766,77.61660454573575 10.081687611993402,72.90828824019991 9.5,69.67707180354046 9.790843806229532,61.3681586246239 9.790843806229532,60.629583622154314 10.00897666066885,56.84437407174846 10.881508078426123,56.475084200443234 15.535008976701647,56.567406687303446 19.2432675040327,56.475084200443234 22.587971274740994,56.38276170112658 27.314183123409748,56.013471577723976 34.876122082117945,55.921149015426636 37.857271095272154,55.921149015426636 42.87432675017044,56.10579412733205 45.71005385974422,55.644181252398994 47.600538599770516,55.45953601418296 52.908438060898334,55.45953601418296 55.59874326735735,55.551858639519196 57.780071813147515,55.45953601418296 64.46947935363278,55.274890725675505 67.1597845600918,54.62863181810826 70.14093357231468,54.813277283275966 72.54039497300982,54.9055999967386 76.03052064590156,54.9055999967386 79.37522441614419,54.813277283275966 81.84739676816389,54.443986302416306 84.31956911971793,54.53630906675244 85.33752244105563,54.53630906675244 87.95511669619009,54.53630906675244 89.55475762998685,55.36721337627387 90.13644524198025,62.01441108970903 90.2091561933048,68.01529733685311 90.2091561933048,69.67707180354046 90.5,76.23180903599132 90.13644524198025,82.41720701969462 89.04578096885234,84.17126480583102 87.22800718108192,84.35590220266022 84.5377019746229,84.17126480583102 82.06552962260321,84.26358351064846 78.35727109480649,84.44822088233195 74.50359066389501,84.54053954937262 70.21364452363923,84.63285820366582 67.52333931718022,84.63285820366582 64.97845601430163,84.54053954937262 60.324955116491765,85.00213269516826 53.34470376977697,85.00213269516826 49.49102333933115,85.00213269516826 47.38240574486554,85.09445128636435 43.528725313954055,85.4637255257694 41.05655296240002,85.5560440539848 39.38420107681304,85.64836256980198 35.74865350080654,85.74068107298808 33.78545780945569,85.8329995633685 31.967684021685272,85.8329995633685 28.186714542098343,85.92531804111786 21.7154398560524,86.10995495907264 14.953321364242584,86.10995495907264 11.535906642209738,86.0176365065272 10.227109515108168,84.72517684561899 10.227109515108168,75.9548495937488 9.936265708878636,70.8772397111752 10.154398563783616,68.6615434481646 10.29982046643272,64.6917361500673 9.936265708878636,57.3983085002983 14.517055655363947,56.65972916124156 17.789048473816365,56.567406687303446 20.842908437829465,56.38276170112658 28.11400359030813,55.73650385270594 35.74865350080654,55.828826440207195 43.38330341130495,55.828826440207195 51.454219030682,55.828826440207195 56.90754039492458,55.36721337627387 59.37971274647862,55.644181252398994 61.99730700161308,55.551858639519196 70.28635547542945,55.274890725675505 74.79443447012454,54.9979226977448 76.75763016147539,54.62863181810826 80.02962297992781,54.9979226977448 89.26391382375732,54.813277283275966 90.0637342906557,58.321531539666466 90.0637342906557,61.09119309310336 90.13644524198025,67.5536925935885 90.0637342906557,71.06188073864905 90.13644524198025,78.07820241863374 90.13644524198025,82.69416381494375 88.53680430864915,84.07894608838251 85.48294434417039,83.89430861594155 81.99281867127866,84.44822088233195 80.82944344682619,84.07894608838251 77.26660682167858,84.17126480583102 74.57630161521956,84.26358351064846 69.48653500899673,84.54053954937262 66.8689407533966,85.00213269516826 65.19658886827528,85.00213269516826 63.2333931773901,85.09445128636435 60.833931777160615,85.18676986522041 53.85368043044582,85.279088431329 50.654398563317955,84.72517684561899 49.20017953310162,84.81749547459185 44.18312387773767,85.4637255257694 39.965888689272106,85.92531804111786 35.45780969457701,85.4637255257694 27.168761220760643,85.74068107298808 16.043985637370497,86.10995495907264 11.172351885121316,85.92531804111786 10.227109515108168,82.23256909358315 10.808797127567232,75.77020990254823 10.590664272662252,70.69259863346815 10.445242370013148,68.75386427080957 10.445242370013148,65.2456641489407 9.863554757088423,57.67527554463595 10.881508078426123,56.65972916124156 16.480251346249133,56.38276170112658 18.807001795154065,56.19811666442547 22.660682226065546,56.29043918912066 25.06014362629503,56.10579412733205 32.40394973056391,56.013471577723976 40.03859964106232,55.36721337627387 44.91023339284584,55.274890725675505 54.217235187999904,55.36721337627387 57.70736086182296,55.551858639519196 61.27019748603925,55.274890725675505 63.08797127427533,54.9979226977448 63.81508078984916,54.9979226977448 65.48743267497048,54.9055999967386 68.39587073586881,54.72095455712406 69.55924595985562,54.72095455712406 72.61310592433438,55.09024538658559 74.64901256700978,54.813277283275966 77.55745062837377,54.62863181810826 81.12028725259006,55.18256806227146 83.08348294394091,55.09024538658559 88.82764811487868,55.09024538658559 89.77289048442617,56.93669650820084 90.13644524198025,71.3388421855052 90.13644524198025,75.9548495937488 90.28186714509502,81.95561210921733 88.68222621129826,84.07894608838251 85.62836624775082,83.70967109268531 82.5017953319475,84.17126480583102 80.24775583483279,84.26358351064846 77.77558348281309,84.17126480583102 73.84919210057706,83.98662735841936 72.10412926366553,84.54053954937262 70.57719928212464,84.63285820366582 65.05116696562618,84.81749547459185 62.57899461360648,85.18676986522041 61.27019748603925,85.279088431329 59.67055655270815,84.90981409105007 52.908438060898334,85.09445128636435 51.163375223986804,83.80198986065807 50.79982046643272,70.23099571786588 50.945242369547486,65.15334284736309 50.5816876119934,59.79868578026071 50.50897666020319,56.567406687303446 51.672351885121316,55.45953601418296 54.79892280092463,55.551858639519196 58.07091561937705,55.45953601418296 59.16157989250496,55.274890725675505 60.17953321384266,54.9979226977448 62.070017953403294,54.72095455712406 67.08707360830158,54.53630906675244 68.97755834786221,54.443986302416306 69.85008976655081,54.16701793461107 72.17684021545574,54.62863181810826 77.33931777346879,54.07469511998352 80.02962297992781,54.16701793461107 82.5017953319475,53.79772660078015 85.26481148973107,53.98237229284132 88.97307001752779,54.35166352550732 85.5556552959606,54.813277283275966 84.39228007150814,54.72095455712406 80.17504488304257,54.9979226977448 76.39407540345564,54.813277283275966 74.14003590634093,54.9979226977448 71.74057450611144,55.274890725675505 70.21364452363923,55.274890725675505" stroke="#F55605" stroke-linecap="round" stroke-linejoin="round" stroke-width="0.5"><title>2025-02-28 10.1km</title><desc>13745871137</desc></polyline></svg>