<?xml version="1.0" encoding="utf-8" ?>
<svg baseProfile="full" height="130mm" version="1.1" viewBox="0,0,100,130" width="100mm" xmlns="http://www.w3.org/2000/svg" xmlns:ev="http://www.w3.org/2001/xml-events" xmlns:xlink="http://www.w3.org/1999/xlink"><defs /><rect fill="#FAF9F5" height="130" width="100" x="0" y="0" /><text fill="#5A5A5A" style="font-size:6px; font-family:Arial; font-weight:bold;color:#0ed45e;" x="5" y="10">新跑鞋、新场地、新气象</text><text fill="#5A5A5A" style="font-size:4px; font-family:Arial" x="5" y="121">Runner</text><text fill="#5A5A5A" style="font-size:6px; font-family:Arial" x="2" y="128">蓝皮书</text><text fill="#5A5A5A" style="font-size:4px; font-family:Arial" x="25" y="121">WORKOUTS INFO</text><text fill="#5A5A5A" style="font-size:3px; font-family:Arial" x="25" y="125">Type: Run</text><text fill="#5A5A5A" style="font-size:3px; font-family:Arial" x="22" y="129">Date: 2025-08-23</text><text fill="#5A5A5A" style="font-size:3px; font-family:Arial" x="47" y="125">Distance: 5.13 km</text><text fill="#5A5A5A" style="font-size:3px; font-family:Arial" x="47" y="129">Duration: 36:55min</text><text fill="#5A5A5A" style="font-size:3px; font-family:Arial" x="75" y="125">Pace: 7:11/km</text><text fill="#5A5A5A" style="font-size:3px; font-family:Arial" x="75" y="129">Elevation: 0m</text><polyline fill="none" points="85.98225352121517,52.499267485545715 85.61718309856951,52.557997507741675 79.95859154942445,55.02465094186482 79.73042253544554,55.02465094186482 77.31183098605834,56.02305411963607 75.85154929570854,56.669078426697524 74.71070422534831,56.96272550651338 73.56985915498808,57.60874835186405 66.26845070440322,60.486474274570355 64.5800000000745,61.308678019209765 61.24873239453882,62.60070918657584 60.56422535213642,63.01180916980957 60.10788732394576,63.12926623315434 59.05830985936336,63.65782260708511 58.37380281719379,63.83400791557506 56.22901408467442,64.77366163241095 55.86394366202876,64.77366163241095 55.635774648049846,64.89111819752725 55.68140845070593,65.06730298293405 55.225070422748104,65.18475946501712 53.5822535213083,65.94822578906314 52.7152112678159,66.18313822176424 52.532676056493074,66.35932245917502 50.98112676059827,66.88787472300464 50.524788732640445,67.18151457892964 46.82845070422627,68.70843848376535 45.4594366196543,69.11953242213349 44.95746478904039,69.41317070045625 44.4098591550719,69.53062595365918 44.272957746637985,69.64808117374196 42.21943661989644,70.58772173814941 41.94563380302861,70.58772173814941 41.0329577466473,71.05754122330109 40.39408450736664,71.23372339305934 40.1659154931549,71.40990548839909 39.070704225450754,71.76226945465896 38.203661972191185,72.23208761133719 37.29098591580987,72.46699649034417 36.42394366208464,72.93681384986849 35.237464788602665,73.28917652083328 34.41605633799918,73.75899295066483 33.13830985920504,74.22880884903134 32.08873239462264,74.75735109945526 30.85661971848458,75.1097122260835 30.810985915362835,75.1684390513692 30.67408450716175,75.1684390513692 30.309014084748924,75.46207305387361 29.670140845235437,75.6382533556316 29.076901408610865,76.10806712854537 27.160281690536067,76.6366069878568 25.791267605731264,77.28259923591395 24.69605633825995,77.57623174384935 23.600845070555806,78.04604332489544 22.596901408629492,78.63330705382396 22.414366197306663,78.63330705382396 21.501690140925348,78.9856648927962 19.539436619728804,79.92528433521511 19.356901408405975,79.866558182257 17.896619718521833,80.57127146903076 16.162535211304203,81.15853162796702 15.249859155155718,81.51088732495555 15.067323943600059,81.68706506141461 14.428450704319403,81.92196859358228 14.245915492996573,82.09814615559299 13.789577464805916,82.15687199289096 13.378873239504173,82.33304945536656 13.105070422869176,82.50922684298712 12.694366197334602,82.6266783933097 11.690422535641119,83.15520995872794 11.50788732408546,83.33138699750998 11.097183098783717,83.56628959998488 10.777746479026973,83.56628959998488 10.093239436857402,83.91864325464121 9.728169014211744,83.91864325464121 9.5,84.03609440641594 9.636901408666745,84.09481996984687 9.910704225534573,84.68207514760434 10.36704225372523,85.21060409775237 10.54957746481523,85.26932949508773 11.005915493238717,85.0344278558623 11.23408450721763,85.09315327802324 11.599154929630458,84.79952608357416 12.009859155165032,84.62334966723574 12.557464788900688,84.74080061982386 12.96816901420243,84.62334966723574 13.24197183130309,84.38844766255352 13.652676056604832,84.2709966104303 14.01774647901766,83.97736883480684 15.112957746488973,83.68374085141113 15.341126760700718,83.56628959998488 17.349014084786177,82.80285565656959 19.12873239442706,81.98069445593865 20.08704225369729,81.68706506141461 20.45211267611012,81.33470951372874 21.684225352248177,81.04107966262382 22.825070422841236,80.4538193376211 24.422253521392122,79.92528433521511 27.38845070451498,78.57458071835572 29.71577464789152,77.6936846889148 30.628450704505667,77.1651461746078 31.267323943786323,77.04769308009418 32.08873239462264,76.5778803700814 32.86450704233721,76.40170046669664 33.594647887395695,75.99061373510631 33.95971830980852,75.99061373510631 34.87239436618984,75.57952659673174 35.55690140859224,75.1097122260835 36.24140845099464,74.9922585504828 36.378309859428555,74.81607797456672 38.06676056352444,74.17008189068292 38.5230985917151,73.93517397469259 38.979436619905755,73.81771996701718 41.0329577466473,72.99554098260705 41.21549295797013,72.81935955988592 42.08253521146253,72.58445088006556 43.405915493145585,71.87972404362517 44.63802816905081,71.52736017698771 45.915774647844955,70.88135897862958 46.46338028204627,70.8226315471693 46.82845070422627,70.52899426504155 47.28478873264976,70.47026678378461 47.55859154951759,70.2353567754908 49.383943662047386,69.35444306134013 50.3878873239737,69.06080474163173 50.47915492975153,68.82589393624221 50.75295774661936,68.82589393624221 51.1636619719211,68.59098299802281 52.66957746492699,68.12116072297795 53.719154929509386,67.65133791675908 53.901690141065046,67.65133791675908 53.94732394395396,67.71006579653476 53.7647887323983,67.94497723289533 53.67352112708613,68.64971074491041 53.53661971841939,69.06080474163173 53.308450704440475,70.29408429007162 53.17154929577373,71.70354214758845 52.943380281794816,72.64317806254257 52.943380281794816,73.34790360374609 52.62394366203807,75.6969801063824 52.532676056493074,75.99061373510631 52.532676056493074,76.5191537438659 52.39577464805916,77.51750525899115 52.350140845170245,78.75075970002217 52.258873239625245,78.9269386070664 52.30450704251416,79.27929619685165 52.167605633847415,79.69037967402255 52.03070422564633,81.39343545920565 51.8481690143235,81.86324272301863 51.75690140831284,82.74412991039571 51.665633803000674,82.97903284494532 51.71126760588959,84.21227107191226 51.574366197455674,84.50589868138195 51.52873239433393,85.62168170523364 51.1636619719211,87.08981269688229 50.93549295770936,89.20391220913734 51.02676056348719,89.26263704197481 51.1636619719211,89.14518736803439 51.300563380355015,88.20558878022712 51.300563380355015,87.79451372975018 51.483098591910675,86.97236240844359 51.52873239433393,86.56128613749752 51.62000000011176,86.15020945985452 51.574366197455674,85.91530831871205 51.80253521143459,84.97570242511574 52.03070422564633,83.09648426243803 52.12197183119133,82.80285565656959 52.12197183119133,82.33304945536656 52.21323943673633,82.03942030991311 52.21323943673633,81.86324272301863 52.258873239625245,81.62833915752708 52.167605633847415,81.51088732495555 52.21323943673633,80.8649016522977 52.48704225360416,79.1618437000725 52.39577464805916,79.04439117008587 52.57830985914916,78.57458071835572 52.57830985914916,78.10476973510231 52.7152112678159,77.04769308009418 52.66957746492699,76.98896652046824 53.034647887106985,75.7557068488095 53.08028169022873,74.46371659875149 53.034647887106985,74.05262794927694 53.26281690155156,72.93681384986849 53.217183098662645,72.70190523655037 53.35408450709656,72.05590586483595 53.217183098662645,71.76226945465896 53.49098591553047,71.1162686215248 53.67352112708613,69.35444306134013 53.67352112708613,68.88462164995144 53.7647887323983,68.35607192694442 53.7647887323983,68.1798885363678 53.992957746610045,67.4751542271988 56.63971830997616,66.47677857597591 57.643661971902475,65.88949766001315 59.10394366201945,65.36094412580132 59.24084507068619,65.18475946501712 59.69718309864402,65.12603122816654 60.83802816900425,64.65620503388345 61.93323943694122,64.30383503966732 63.34788732416928,63.48163722376921 63.621690140804276,63.42290874614264 64.07802816899493,63.187994752428494 64.26056338031776,63.187994752428494 65.94901408441365,62.365794727928005 66.26845070440322,62.42452335503185 66.86169014079496,62.2483374485455 68.86957746488042,61.308678019209765 69.55408450704999,61.191220440901816 70.05605633812957,60.83884750728612 70.2385915494524,60.83884750728612 71.5163380280137,60.25155862016254 71.9726760564372,60.13410074307467 72.47464788728394,59.84045590512687 73.15915492968634,59.66426890253206 74.71070422534831,58.95952014546492 75.30394366197288,58.84206190297846 76.49042253522202,58.2547701926087 77.22056338051334,58.01985327570583 77.40309859160334,57.8436655010737 78.40704225376248,57.49128972753533 79.22845070436597,57.021454897738295 79.95859154942445,56.8452666993835 80.59746478870511,56.55161953633069 82.69661971810274,55.729406375292456 83.19859154941514,55.3770288079977 84.11126760579646,55.142110263812356 85.06957746483386,54.61354305350687 88.7659154930152,53.08656733404496 90.36309859179892,52.26434731381596 90.5,52.146887178038014 90.5,51.677046302938834 89.90676056337543,50.73736295799608 89.67859154939651,50.79609322943725 89.26788732409477,51.08974446146749 88.58338028169237,51.324665297725005 87.99014084530063,51.677046302938834 85.02394366194494,52.79291751369601 82.74225352122448,53.850055895454716 79.3197183101438,55.20083991231513 78.40704225376248,55.61194721938227 77.768169014249,55.788135940703796 77.58563380292617,55.9643245874322 76.26225352124311,56.43416061293101 72.5659154932946,58.01985327570583 72.33774647885002,57.96112402586732 71.65323943668045,58.31349940094515 70.78619718318805,58.54841615140322 70.10169014101848,58.95952014546492 69.64535211282782,59.13570744678145 69.50845070439391,59.311894673417555 68.5045070424676,59.60553988520405 68.41323943668976,59.72299791162368 69.32591549307108,59.311894673417555 69.87352112680674,59.1944365305535 70.05605633812957,59.01824925412075 71.01436619716696,58.72460362728452 71.4250704224687,58.54841615140322 72.24647887330502,58.31349940094515 72.6571830988396,58.31349940094515 72.8397183099296,58.078582517424366 73.02225352125242,58.19604097577394 73.34169014100917,57.96112402586732 73.88929577474482,57.726206943101715 74.07183098606765,57.55001904384699 74.43690140848048,57.31510172857088 74.71070422534831,57.31510172857088 75.80591549305245,56.72780785919167 76.35352112678811,56.610348985675955 76.85549295810051,56.316701656527584 77.26619718316942,56.316701656527584 77.63126760581508,56.02305411963607 78.6352112677414,55.55321762908716 79.5935211267788,55.20083991231513 79.73042253544554,55.318299184407806 80.00422535208054,55.02465094186482 80.46056338050403,54.848461896617664 80.82563380291685,54.78973219834734 81.19070422532968,54.55481332185445 81.73830985929817,54.43735383381136 82.37718309857883,54.084975170349935 82.55971831013449,54.20243475801544 83.38112676050514,53.67386635192088 85.16084507061169,52.8516474943026 85.52591549302451,52.61672752170125 86.073521126993,52.440537455142476 86.43859154940583,52.20561725003063 88.21830985927954,51.55958600106533 89.99802816915326,50.73736295799608" stroke="#4DD2FF" stroke-linecap="round" stroke-linejoin="round" stroke-width="0.5"><title>2025-08-23 5.13km</title><desc>15552114004</desc></polyline></svg>