<?xml version="1.0" encoding="utf-8" ?>
<svg baseProfile="full" height="130mm" version="1.1" viewBox="0,0,100,130" width="100mm" xmlns="http://www.w3.org/2000/svg" xmlns:ev="http://www.w3.org/2001/xml-events" xmlns:xlink="http://www.w3.org/1999/xlink"><defs /><rect fill="#FAF9F5" height="130" width="100" x="0" y="0" /><text fill="#5A5A5A" style="font-size:6px; font-family:Arial; font-weight:bold;" x="5" y="10">2025-01-15 Workouts</text><text fill="#5A5A5A" style="font-size:4px; font-family:Arial" x="5" y="121">Runner</text><text fill="#5A5A5A" style="font-size:6px; font-family:Arial" x="2" y="128">蓝皮书</text><text fill="#5A5A5A" style="font-size:4px; font-family:Arial" x="25" y="121">STATISTICS</text><text fill="#5A5A5A" style="font-size:3px; font-family:Arial" x="25" y="125">Number: 1</text><text fill="#5A5A5A" style="font-size:3px; font-family:Arial" x="25" y="129">Weekly: 1.0</text><text fill="#5A5A5A" style="font-size:3px; font-family:Arial" x="48" y="125">Total: 5.2 km</text><text fill="#5A5A5A" style="font-size:3px; font-family:Arial" x="48" y="129">Avg: 5.2 km</text><text fill="#5A5A5A" style="font-size:3px; font-family:Arial" x="75" y="125">Min: 5.2 km</text><text fill="#5A5A5A" style="font-size:3px; font-family:Arial" x="75" y="129">Max: 5.2 km</text><polyline fill="none" points="71.10084033571184,82.9626680794172 79.94957983121276,83.39475489780307 87.09663865529001,78.64179666317068 88.79831932671368,76.9134464438539 90.5,72.16047847620212 88.45798319205642,63.51870024786331 86.75630252063274,60.92616217886098 84.7142857145518,58.765712165273726 81.31092436984181,56.17317020194605 78.92857142724097,55.74107966735028 69.73949579708278,56.605260676005855 60.89075630158186,56.605260676005855 50.34033613279462,58.33362198504619 41.491596637293696,57.03735109092668 32.98319327645004,57.901531746611 23.45378151163459,57.46944144833833 20.731092436239123,57.46944144833833 18.348739493638277,58.765712165273726 12.903361344709992,63.950789720518515 11.542016804218292,66.5433253115043 10.521008402109146,71.29630171507597 11.882352940738201,76.9134464438539 13.584033612161875,80.37014593766071 15.966386554762721,82.09849426778965 20.050420166924596,83.82684165611863 26.176470587030053,83.39475489780307 29.239495797082782,85.12310157599859 32.98319327645004,83.82684165611863 34.68487394973636,84.69101499509998 38.76890756189823,85.12310157599859 49.31932773068547,82.9626680794172 57.48739495687187,82.9626680794172 66.6764705888927,81.66640727431513 69.39915966428816,82.09849426778965 79.6092436965555,82.9626680794172 84.03361344337463,80.802233108785 86.41596638597548,79.07388406991959 86.41596638597548,78.20970919681713 88.79831932671368,75.61718316096812 89.47899159602821,70.43212471809238 90.15966386348009,69.13585878047161 88.45798319205642,64.38287913263775 85.39495798200369,59.19780228566378 82.67226890660822,57.03735109092668 80.28991596773267,56.17317020194605 73.14285714179277,56.17317020194605 70.76050419919193,57.03735109092668 69.39915966428816,56.17317020194605 57.48739495687187,57.46944144833833 56.12605041824281,56.605260676005855 51.36134453676641,57.901531746611 44.554621847346425,56.605260676005855 35.36554621718824,56.605260676005855 30.9411764703691,57.901531746611 28.5588235296309,56.605260676005855 26.176470587030053,56.17317020194605 18.348739493638277,57.901531746611 14.264705881476402,61.35825200402178 10.521008402109146,66.97541437135078 10.86134453676641,70.8642132463865 9.840336132794619,72.59256676910445 11.542016804218292,76.9134464438539 12.563025210052729,79.07388406991959 15.626050418242812,80.37014593766071 18.348739493638277,83.82684165611863 28.21848739311099,84.69101499509998 33.3235294111073,84.25892835552804 34.68487394973636,84.69101499509998 40.47058823518455,85.12310157599859 43.87394957989454,83.82684165611863 58.168067226186395,82.53058120398782 67.35714285634458,82.53058120398782 69.05882352776825,83.39475489780307 72.46218487247825,82.53058120398782 74.50420168042183,83.39475489780307 77.2268907558173,83.39475489780307 84.7142857145518,80.37014593766071 88.79831932671368,75.61718316096812 90.15966386348009,71.72839012532495 89.81932773068547,67.8395923122298 88.79831932671368,64.81496848608367 87.09663865529001,61.79034177050926 86.75630252063274,60.06198234972544 82.33193277195096,57.46944144833833 79.26890756189823,56.17317020194605 66.6764705888927,57.03735109092668 60.89075630158186,56.17317020194605 57.48739495687187,57.03735109092668 49.31932773068547,56.605260676005855 40.47058823518455,57.46944144833833 39.109243696555495,57.03735109092668 36.04621848650277,57.901531746611 31.962184872478247,57.46944144833833 20.050420166924596,58.765712165273726 19.369747899472713,59.62989234668203 17.32773109152913,60.06198234972544 12.222689075395465,64.81496848608367 10.521008402109146,71.72839012532495 11.201680671423674,75.18509528273717 10.86134453676641,76.4813587423414 12.222689075395465,77.77762167155743 11.882352940738201,79.50597141869366 15.626050418242812,82.9626680794172 18.348739493638277,83.82684165611863 27.197478991001844,85.12310157599859 40.81092436797917,84.25892835552804 45.91596638597548,82.9626680794172 52.382352938875556,82.53058120398782 54.7647058814764,82.9626680794172 65.65546218305826,82.53058120398782 69.73949579708278,83.82684165611863 71.78151260316372,82.53058120398782 74.50420168042183,83.82684165611863 78.24789915978909,83.82684165611863 84.7142857145518,80.37014593766071 88.11764705739915,76.9134464438539 90.15966386348009,71.72839012532495 89.47899159602821,67.40750337042846 86.75630252063274,61.35825200402178 82.33193277195096,57.46944144833833 79.6092436965555,56.17317020194605 70.42016806639731,55.74107966735028 69.39915966428816,56.605260676005855 64.97478991374373,57.03735109092668 63.61344537883997,56.17317020194605 60.21008403226733,57.46944144833833 55.105042016133666,57.03735109092668 51.36134453676641,57.46944144833833 49.31932773068547,56.605260676005855 42.172268906608224,57.03735109092668 39.109243696555495,57.901531746611 27.537815125659108,57.901531746611 22.432773107662797,57.03735109092668 18.689075630158186,57.46944144833833 16.647058822214603,58.765712165273726 15.966386554762721,59.62989234668203 12.903361344709992,61.79034177050926 10.521008402109146,66.11123619414866 10.521008402109146,68.27168119349517 9.5,70.43212471809238 10.180672269314528,75.18509528273717 12.222689075395465,79.07388406991959 16.647058822214603,82.53058120398782 20.731092436239123,83.82684165611863 27.537815125659108,84.69101499509998 28.899159662425518,84.69101499509998 30.260504201054573,83.82684165611863 33.3235294111073,85.12310157599859 37.06722689047456,84.25892835552804 42.172268906608224,84.69101499509998 51.36134453676641,84.25892835552804 62.93277310952544,82.53058120398782 66.33613445423543,83.39475489780307 73.14285714179277,82.9626680794172 75.52521008439362,83.39475489780307 80.63025210052729,82.53058120398782 84.37394957989454,80.37014593766071 87.43697478808463,77.34553408669308 88.11764705739915,75.18509528273717 89.13865546137094,74.75300734373741 90.15966386348009,70.00003613135777 87.77731092460454,64.38287913263775 84.37394957989454,58.765712165273726 78.92857142724097,56.17317020194605 75.52521008439362,56.17317020194605 73.48319327458739,55.74107966735028 66.33613445423543,57.03735109092668 60.21008403226733,55.74107966735028 53.40336134284735,57.901531746611 46.59663865342736,58.33362198504619 36.04621848650277,56.17317020194605 34.004201678559184,57.03735109092668 31.962184872478247,56.17317020194605 21.41176470555365,57.03735109092668 19.369747899472713,58.765712165273726 16.647058822214603,59.62989234668203 11.882352940738201,63.950789720518515 11.882352940738201,66.11123619414866 10.86134453676641,70.00003613135777 10.86134453676641,72.16047847620212 10.86134453676641,73.4567431746982 11.882352940738201,74.32091934629716 11.882352940738201,76.4813587423414 12.222689075395465,77.77762167155743 16.306722689419985,82.09849426778965 20.050420166924596,83.82684165611863 23.113445376977324,83.82684165611863 24.13445377908647,84.69101499509998 26.516806721687317,84.25892835552804 28.21848739311099,82.53058120398782 32.30252100713551,85.12310157599859 35.025210082530975,84.25892835552804 44.89495798200369,84.25892835552804 48.298319328576326,83.39475489780307 52.722689075395465,84.25892835552804 57.48739495687187,83.39475489780307 67.01680672168732,83.39475489780307 70.76050419919193,82.53058120398782 74.16386554576457,83.82684165611863 79.94957983121276,82.9626680794172 83.35294117592275,81.66640727431513 85.73529411666095,79.93805870669894 89.47899159602821,74.75300734373741 90.5,70.43212471809238 89.13865546137094,64.81496848608367 87.77731092460454,62.22243147902191 83.69327731058002,57.901531746611 80.28991596773267,56.17317020194605 67.69747899100184,56.17317020194605 66.33613445423543,55.308989075478166 64.97478991374373,54.87689842423424 60.89075630158186,56.605260676005855 49.31932773068547,58.33362198504619 42.172268906608224,56.17317020194605 37.747899159789085,56.17317020194605 33.3235294111073,56.605260676005855 24.47478991560638,56.605260676005855 18.00840336084366,59.19780228566378 13.243697479367256,62.65452112676576 10.86134453676641,70.8642132463865 10.86134453676641,72.59256676910445 12.903361344709992,75.61718316096812 13.924369746819139,79.50597141869366 16.647058822214603,81.66640727431513 20.731092436239123,83.82684165611863 27.197478991001844,84.25892835552804 29.239495797082782,85.12310157599859 31.621848739683628,84.25892835552804 35.025210082530975,84.69101499509998 36.04621848650277,85.12310157599859 46.93697478994727,83.39475489780307 51.36134453676641,84.25892835552804 53.06302520819008,82.9626680794172 58.84873949550092,83.82684165611863 60.89075630158186,82.53058120398782 62.93277310952544,83.82684165611863 66.33613445423543,83.82684165611863 78.92857142724097,82.9626680794172 81.65126050263643,81.66640727431513 87.77731092460454,77.34553408669308 89.81932773068547,72.59256676910445 89.47899159602821,66.97541437135078 87.77731092460454,65.24705778132193 86.41596638597548,61.35825200402178 82.67226890660822,57.46944144833833 78.92857142724097,56.17317020194605 72.46218487247825,55.74107966735028 65.99579831957817,56.605260676005855 62.59243697486818,55.74107966735028 59.86974789947271,57.03735109092668 57.827731093391776,56.17317020194605 53.40336134284735,56.17317020194605 52.04201680608094,57.03735109092668 45.91596638597548,56.605260676005855 42.172268906608224,57.46944144833833 37.747899159789085,56.605260676005855 24.815126050263643,57.03735109092668 19.369747899472713,58.33362198504619 14.94537815079093,61.35825200402178 13.243697479367256,63.0866107174661 11.201680671423674,67.8395923122298 11.542016804218292,70.43212471809238 10.86134453676641,72.16047847620212 13.924369746819139,78.64179666317068 17.668067226186395,81.66640727431513 19.710084032267332,82.53058120398782 24.47478991560638,83.82684165611863 38.088235292583704,85.12310157599859 41.491596637293696,84.25892835552804 44.554621847346425,85.12310157599859 47.27731092274189,84.69101499509998 52.722689075395465,82.9626680794172 55.105042016133666,83.82684165611863 58.84873949550092,83.82684165611863 60.550420166924596,82.53058120398782 64.29411764629185,83.39475489780307 77.2268907558173,83.39475489780307 80.97058823518455,82.09849426778965 85.39495798200369,79.07388406991959 88.79831932671368,73.88883129088208 89.13865546137094,70.8642132463865 88.45798319205642,67.40750337042846 89.13865546137094,66.5433253115043 88.45798319205642,65.24705778132193 88.45798319205642,63.51870024786331 85.39495798200369,59.62989234668203 81.31092436984181,56.605260676005855 78.24789915978909,55.74107966735028 68.03781512565911,56.17317020194605 64.29411764629185,55.308989075478166 58.168067226186395,56.17317020194605 57.1470588222146,57.03735109092668 56.466386552900076,56.17317020194605 43.193277310580015,57.901531746611 32.98319327645004,57.46944144833833 31.281512605026364,57.901531746611 25.836134454235435,57.03735109092668 18.689075630158186,59.19780228566378 14.94537815079093,60.92616217886098 13.924369746819139,61.79034177050926 10.521008402109146,68.70377001585439 11.201680671423674,74.32091934629716 13.243697479367256,79.50597141869366 14.94537815079093,80.802233108785 19.02941176481545,82.53058120398782 27.537815125659108,84.25892835552804 47.27731092274189,83.82684165611863 56.12605041824281,82.53058120398782 59.18907562829554,83.39475489780307 61.57142857089639,82.53058120398782 63.61344537883997,82.9626680794172 81.31092436984181,82.53058120398782 88.11764705739915,75.18509528273717 89.47899159602821,69.13585878047161 88.79831932671368,66.11123619414866 84.03361344337463,59.62989234668203 81.99159663915634,57.46944144833833 81.31092436984181,56.605260676005855 78.5882352925837,55.74107966735028 72.80252100899816,55.308989075478166 65.31512605026364,56.605260676005855 55.78571428358555,55.308989075478166 51.02100840397179,57.03735109092668 42.51260504126549,56.17317020194605 31.962184872478247,57.901531746611 28.899159662425518,57.46944144833833 20.731092436239123,58.33362198504619 16.306722689419985,60.06198234972544 12.222689075395465,63.950789720518515 11.201680671423674,65.67914701718837 10.86134453676641,67.8395923122298 10.86134453676641,72.59256676910445 13.584033612161875,77.77762167155743 15.966386554762721,80.37014593766071 18.00840336084366,82.09849426778965 23.113445376977324,83.82684165611863 32.98319327645004,84.25892835552804 37.747899159789085,82.9626680794172 41.15126050449908,84.25892835552804 44.554621847346425,82.53058120398782 50.0,83.39475489780307 57.827731093391776,82.09849426778965 63.61344537883997,82.9626680794172 68.03781512565911,82.53058120398782 71.78151260316372,83.39475489780307 77.90756302513182,82.9626680794172 85.05462184920907,79.07388406991959 88.11764705739915,74.75300734373741 89.13865546137094,67.8395923122298 88.11764705739915,63.51870024786331 85.39495798200369,60.49407229339704 79.94957983121276,56.605260676005855 75.86554621718824,55.308989075478166 73.48319327458739,54.87689842423424 72.46218487247825,55.74107966735028 69.73949579708278,55.308989075478166 67.69747899100184,56.17317020194605 45.91596638597548,58.33362198504619 43.193277310580015,57.901531746611 42.172268906608224,57.03735109092668 30.600840335711837,56.605260676005855 28.899159662425518,56.17317020194605 25.49579831957817,56.17317020194605 23.794117646291852,55.308989075478166 15.966386554762721,57.901531746611 12.222689075395465,60.92616217886098 10.521008402109146,65.67914701718837" stroke="#4DD2FF" stroke-linecap="round" stroke-linejoin="round" stroke-width="0.5"><title>2025-01-15 5.2km</title><desc>13360255412</desc></polyline></svg>