<?xml version="1.0" encoding="utf-8" ?>
<svg baseProfile="full" height="130mm" version="1.1" viewBox="0,0,100,130" width="100mm" xmlns="http://www.w3.org/2000/svg" xmlns:ev="http://www.w3.org/2001/xml-events" xmlns:xlink="http://www.w3.org/1999/xlink"><defs /><rect fill="#FAF9F5" height="130" width="100" x="0" y="0" /><text fill="#5A5A5A" style="font-size:6px; font-family:Arial; font-weight:bold;color:#0ed45e;" x="5" y="10">Morning Run</text><text fill="#5A5A5A" style="font-size:4px; font-family:Arial" x="5" y="121">Runner</text><text fill="#5A5A5A" style="font-size:6px; font-family:Arial" x="2" y="128">蓝皮书</text><text fill="#5A5A5A" style="font-size:4px; font-family:Arial" x="25" y="121">WORKOUTS INFO</text><text fill="#5A5A5A" style="font-size:3px; font-family:Arial" x="25" y="125">Type: Run</text><text fill="#5A5A5A" style="font-size:3px; font-family:Arial" x="22" y="129">Date: 2025-08-26</text><text fill="#5A5A5A" style="font-size:3px; font-family:Arial" x="47" y="125">Distance: 5.12 km</text><text fill="#5A5A5A" style="font-size:3px; font-family:Arial" x="47" y="129">Duration: 33:45min</text><text fill="#5A5A5A" style="font-size:3px; font-family:Arial" x="75" y="125">Pace: 6:35/km</text><text fill="#5A5A5A" style="font-size:3px; font-family:Arial" x="75" y="129">Elevation: 54m</text><polyline fill="none" points="41.28481012582779,83.23432316770777 43.33544303663075,82.36650269757956 49.14556961879134,83.23432316770777 60.0822784807533,81.93259237403981 66.23417721688747,82.36650269757956 69.99367088451982,81.49868199019693 72.38607594929636,82.36650269757956 77.85443038120866,82.36650269757956 84.00632911361754,80.19695048639551 86.39873417653143,77.15957490215078 87.76582278311253,73.25437345704995 87.42405063286424,65.44395617279224 85.0316455680877,60.67091393889859 78.53797468356788,57.19960599276237 70.33544303663075,56.331778415478766 66.57594936527312,55.03003660263494 61.79113923944533,55.89786453638226 60.765822783112526,56.76569223403931 57.00632911361754,55.89786453638226 49.82911392301321,56.331778415478766 48.80379746854305,57.19960599276237 47.09493670798838,57.6335196942091 37.52531645447016,55.89786453638226 30.689873417839408,57.6335196942091 21.120253164321184,56.76569223403931 13.60126582160592,60.67091393889859 10.867088606581092,65.44395617279224 9.841772152110934,68.91525511234067 9.5,72.38655026210472 11.55063291080296,78.89521844754927 15.99367088638246,82.36650269757956 19.753164555877447,83.23432316770777 30.689873417839408,82.80041296267882 32.74050632864237,83.66823331313208 41.96835443004966,82.36650269757956 47.778481014072895,83.23432316770777 49.48734177276492,84.10214340081438 55.29746835306287,83.66823331313208 58.37341772019863,82.36650269757956 64.18354430235922,83.23432316770777 68.96835443004966,81.93259237403981 72.72784810140729,82.80041296267882 80.24683544225991,82.36650269757956 81.95569620095193,81.49868199019693 86.39873417653143,78.46130765019916 88.79113923944533,75.42393040796742 90.5,69.78307925537229 90.15822784788907,66.74569371901453 86.05696202628314,61.104827164439484 80.58860759437084,56.76569223403931 74.43670886009932,55.46395059861243 69.31012658216059,55.89786453638226 62.4746835436672,57.6335196942091 54.27215189859271,56.331778415478766 47.436708860099316,57.6335196942091 41.626582277938724,56.76569223403931 39.9177215192467,57.6335196942091 33.76582278497517,57.19960599276237 28.981012659147382,57.6335196942091 21.803797468543053,57.19960599276237 19.753164555877447,57.6335196942091 14.968354430049658,61.104827164439484 12.575949367135763,64.57613084488548 11.208860758692026,67.6135184543673 10.867088606581092,73.68828496546485 11.208860758692026,75.42393040796742 12.917721517384052,78.89521844754927 15.310126582160592,81.93259237403981 17.360759494826198,83.66823331313208 20.77848101221025,84.10214340081438 25.56329113803804,83.23432316770777 29.32278480939567,84.10214340081438 30.348101265728474,83.23432316770777 33.42405063286424,83.23432316770777 35.81645569577813,84.10214340081438 44.70253164693713,82.36650269757956 46.75316455587745,83.66823331313208 51.87974683381617,83.23432316770777 55.29746835306287,81.93259237403981 64.52531645447016,81.93259237403981 71.01898734271526,80.63086104672402 78.1962025295943,81.93259237403981 82.29746835306287,80.63086104672402 86.39873417653143,77.5934858773835 88.10759493522346,75.85784161975607 88.4493670873344,72.82046188903041 89.13291139155626,70.6509031613823 89.47468354552984,68.0474307325203 88.10759493522346,66.31178126228042 88.10759493522346,64.57613084488548 87.0822784807533,61.97265344019979 82.29746835306287,57.6335196942091 76.14556961879134,55.89786453638226 74.43670886009932,55.46395059861243 72.04430379718542,56.76569223403931 64.18354430235922,55.89786453638226 60.42405063286424,57.19960599276237 55.29746835306287,56.331778415478766 53.930379746481776,57.19960599276237 51.87974683381617,56.76569223403931 49.82911392301321,57.6335196942091 44.70253164693713,56.331778415478766 38.89240506477654,56.331778415478766 34.449367087334394,58.50134691619314 31.031645569950342,57.19960599276237 20.09493670798838,57.6335196942091 12.575949367135763,63.70830528065562 11.892405062913895,65.01004353794269 10.867088606581092,69.78307925537229 11.208860758692026,74.55610780511051 12.575949367135763,75.85784161975607 12.575949367135763,78.0273967939429 19.753164555877447,83.23432316770777 25.56329113803804,82.36650269757956 28.981012659147382,82.80041296267882 30.00632911361754,81.93259237403981 36.5,82.80041296267882 45.04430379718542,81.93259237403981 49.82911392301321,82.36650269757956 53.24683544225991,81.49868199019693 60.42405063286424,82.36650269757956 65.8924050629139,81.49868199019693 67.25949367135763,81.0647715490777 68.96835443004966,81.93259237403981 74.09493670798838,81.93259237403981 79.56329113990068,81.93259237403981 83.32278480939567,80.63086104672402 87.42405063286424,76.7256638680119 89.13291139155626,71.95263857557438 89.47468354552984,68.4813429529313 88.4493670873344,65.01004353794269 86.05696202628314,61.538740332238376 81.95569620095193,58.50134691619314 75.12025316432118,55.89786453638226 71.36075949296355,55.89786453638226 67.60126582160592,55.46395059861243 58.715189872309566,56.76569223403931 51.53797468356788,56.331778415478766 48.46202531643212,57.6335196942091 42.31012658216059,56.76569223403931 38.55063291080296,57.6335196942091 25.56329113803804,56.76569223403931 15.99367088638246,60.67091393889859 12.917721517384052,62.840479478705674 10.525316456332803,71.5187268301379 10.867088606581092,74.99001913517714 11.55063291080296,77.15957490215078 11.55063291080296,78.89521844754927 12.234177215024829,80.19695048639551 17.702531645074487,83.23432316770777 21.803797468543053,84.10214340081438 23.854430379346013,84.10214340081438 26.588607594370842,84.96996339736506 41.626582277938724,82.80041296267882 54.27215189859271,83.66823331313208 67.60126582160592,82.36650269757956 78.53797468356788,82.80041296267882 84.00632911361754,80.63086104672402 88.10759493522346,77.15957490215078 89.13291139155626,75.42393040796742 89.81645569391549,71.5187268301379 89.47468354552984,69.78307925537229 89.13291139155626,65.01004353794269 87.76582278311253,61.97265344019979 82.63924050703645,57.19960599276237 78.53797468356788,55.89786453638226 72.38607594929636,56.331778415478766 68.96835443004966,55.03003660263494 68.62658227793872,55.89786453638226 63.158227847889066,55.89786453638226 57.68987341597676,57.19960599276237 50.512658229097724,56.331778415478766 45.386075949296355,58.06743333488703 35.4746835436672,57.19960599276237 33.76582278497517,56.331778415478766 32.39873417839408,57.19960599276237 19.411392403766513,57.19960599276237 13.60126582160592,62.40656648972072 11.208860758692026,68.4813429529313 10.525316456332803,71.5187268301379 11.892405062913895,75.42393040796742 14.626582277938724,80.63086104672402 16.335443038493395,82.36650269757956 20.77848101221025,84.10214340081438 28.981012659147382,82.80041296267882 34.107594937086105,83.66823331313208 41.626582277938724,82.80041296267882 52.56329113803804,83.66823331313208 55.6392405051738,81.93259237403981 57.68987341597676,82.36650269757956 64.18354430235922,82.36650269757956 67.94303797371686,81.49868199019693 73.06962025165558,81.93259237403981 81.95569620095193,81.0647715490777 84.00632911361754,78.46130765019916 86.74050632864237,77.5934858773835 87.42405063286424,74.55610780511051 89.13291139155626,72.82046188903041 89.47468354552984,67.6135184543673 85.37341772206128,60.67091393889859 82.29746835306287,57.6335196942091 78.53797468356788,55.89786453638226 74.09493670798838,57.19960599276237 62.4746835436672,55.89786453638226 61.449367087334394,56.76569223403931 56.664556961506605,57.19960599276237 54.613924050703645,57.6335196942091 51.53797468356788,56.76569223403931 49.82911392301321,57.6335196942091 46.75316455587745,57.19960599276237 43.33544303663075,58.06743333488703 41.96835443004966,57.19960599276237 37.18354430422187,57.6335196942091 32.39873417839408,56.76569223403931 30.00632911361754,57.6335196942091 26.246835442259908,57.19960599276237 23.51265822723508,58.93526043975726 20.09493670798838,59.36917390371673 15.99367088638246,61.104827164439484 13.60126582160592,63.70830528065562 12.575949367135763,67.17960611637682 11.55063291080296,71.5187268301379 13.943037973716855,77.15957490215078 16.335443038493395,80.19695048639551 19.753164555877447,81.93259237403981 31.715189872309566,83.23432316770777 35.4746835436672,82.36650269757956 39.9177215192467,82.80041296267882 43.677215188741684,82.36650269757956 46.75316455587745,83.23432316770777 70.67721518874168,81.49868199019693 79.2215189859271,81.93259237403981 84.00632911361754,79.76303986646235 86.05696202628314,78.0273967939429 88.4493670873344,73.25437345704995 88.79113923944533,69.34916721424088 89.47468354552984,68.0474307325203 88.79113923944533,65.01004353794269 86.74050632864237,61.538740332238376 82.63924050703645,58.06743333488703 78.53797468356788,55.89786453638226 76.82911392487586,55.46395059861243 73.06962025165558,57.19960599276237 65.20886075869203,56.331778415478766 62.4746835436672,57.19960599276237 54.955696200951934,57.19960599276237 48.120253164321184,56.331778415478766 44.70253164693713,57.6335196942091 39.9177215192467,56.331778415478766 35.13291139155626,57.19960599276237 33.42405063286424,56.76569223403931 25.22151898778975,58.06743333488703 21.803797468543053,57.6335196942091 16.67721519060433,60.237000653287396 13.60126582160592,63.27439240878448 12.575949367135763,65.01004353794269 11.55063291080296,68.91525511234067 12.575949367135763,74.99001913517714 14.968354430049658,80.63086104672402 17.018987340852618,82.36650269757956 20.77848101221025,83.23432316770777 26.246835442259908,83.66823331313208 29.664556961506605,82.36650269757956 40.25949366949499,81.49868199019693 42.99367088638246,82.36650269757956 45.04430379718542,81.93259237403981 47.436708860099316,82.80041296267882 55.29746835306287,81.93259237403981 60.765822783112526,82.36650269757956 64.52531645447016,81.93259237403981 66.23417721688747,82.36650269757956 73.75316455774009,80.63086104672402 76.14556961879134,81.49868199019693 81.61392405070364,81.49868199019693 83.6645569615066,80.63086104672402 86.05696202628314,77.15957490215078 88.4493670873344,74.99001913517714 89.13291139155626,70.6509031613823 88.10759493522346,65.44395617279224 87.0822784807533,63.70830528065562 80.93037974648178,57.19960599276237 78.87974683567882,56.76569223403931 76.82911392487586,57.6335196942091 73.06962025165558,56.76569223403931 71.36075949296355,57.19960599276237 66.57594936527312,56.76569223403931 63.158227847889066,58.06743333488703 60.0822784807533,56.76569223403931 55.29746835306287,57.19960599276237 49.82911392301321,56.76569223403931 44.36075949296355,57.6335196942091 40.601265823468566,57.19960599276237 36.841772152110934,58.06743333488703 35.13291139155626,56.76569223403931 28.297468354925513,58.50134691619314 21.803797468543053,57.6335196942091 16.335443038493395,60.237000653287396 12.575949367135763,65.01004353794269 11.892405062913895,68.4813429529313 12.575949367135763,76.29175277333707 15.310126582160592,79.76303986646235 20.09493670798838,83.23432316770777 28.297468354925513,83.23432316770777 31.37341772019863,82.36650269757956 35.4746835436672,82.80041296267882 38.55063291080296,81.93259237403981 44.36075949296355,82.80041296267882 46.41139240562916,82.36650269757956 48.46202531643212,83.23432316770777 51.53797468356788,83.23432316770777 58.715189872309566,82.80041296267882 60.42405063286424,83.23432316770777 66.23417721688747,81.93259237403981 73.41139240376651,81.93259237403981 80.58860759437084,81.49868199019693 85.71518987230957,79.32912918692455 86.74050632864237,78.0273967939429 88.4493670873344,74.99001913517714 88.10759493522346,71.5187268301379 89.13291139155626,68.0474307325203 88.79113923944533,66.31178126228042 86.05696202628314,61.104827164439484 82.98101265728474,58.06743333488703 79.2215189859271,56.76569223403931 75.46202531643212,57.19960599276237 74.43670886009932,56.331778415478766 72.38607594929636,55.89786453638226 58.715189872309566,58.06743333488703 49.14556961879134,57.19960599276237 45.72784810140729,58.06743333488703 42.99367088638246,57.19960599276237 39.23417721502483,57.19960599276237 36.841772152110934,56.331778415478766 33.42405063286424,58.06743333488703 31.031645569950342,58.50134691619314 27.613924050703645,57.6335196942091 22.48734177276492,57.6335196942091 13.259493671357632,62.40656648972072 11.55063291080296,65.87786874687299 11.892405062913895,67.17960611637682 11.208860758692026,69.34916721424088 11.892405062913895,73.68828496546485 14.968354430049658,79.76303986646235 17.018987340852618,81.93259237403981 20.77848101221025,82.80041296267882 23.51265822723508,84.10214340081438 25.905063290148973,83.66823331313208 29.32278480939567,84.10214340081438 31.37341772019863,83.23432316770777 38.208860758692026,83.23432316770777 39.9177215192467,82.80041296267882 43.677215188741684,83.23432316770777 46.75316455587745,82.80041296267882 50.512658229097724,83.23432316770777 52.22151898778975,82.80041296267882 64.52531645447016,82.36650269757956 69.31012658216059,81.49868199019693 76.14556961879134,82.36650269757956 78.53797468356788,81.49868199019693 80.58860759437084,81.93259237403981 84.00632911361754,80.63086104672402 85.71518987230957,78.0273967939429 88.4493670873344,72.38655026210472 89.13291139155626,66.31178126228042 88.10759493522346,62.840479478705674 85.37341772206128,60.237000653287396 79.56329113990068,56.76569223403931 74.43670886009932,57.19960599276237 71.36075949296355,55.89786453638226 70.33544303663075,56.76569223403931 64.52531645447016,56.331778415478766 59.0569620244205,57.19960599276237 49.14556961879134,57.19960599276237 44.01898734085262,58.50134691619314 38.208860758692026,58.06743333488703 32.39873417839408,57.19960599276237 22.82911392301321,57.19960599276237 21.46202531643212,58.06743333488703 20.43670885823667,57.6335196942091 17.360759494826198,58.50134691619314 11.892405062913895,65.01004353794269 10.867088606581092,71.5187268301379 11.208860758692026,74.12219641567208 12.234177215024829,76.7256638680119 14.626582277938724,80.63086104672402 17.360759494826198,82.80041296267882 19.753164555877447,83.23432316770777 37.86708860658109,83.66823331313208 58.37341772019863,82.80041296267882 62.13291139341891,82.36650269757956 64.18354430235922,82.80041296267882 69.65189873427153,81.49868199019693 80.58860759437084,81.93259237403981 83.6645569615066,79.32912918692455 87.0822784807533,74.55610780511051 87.42405063286424,72.38655026210472 87.42405063286424,65.44395617279224" stroke="#4DD2FF" stroke-linecap="round" stroke-linejoin="round" stroke-width="0.5"><title>2025-08-26 5.12km</title><desc>15586183412</desc></polyline></svg>