<?xml version="1.0" encoding="utf-8" ?>
<svg baseProfile="full" height="130mm" version="1.1" viewBox="0,0,100,130" width="100mm" xmlns="http://www.w3.org/2000/svg" xmlns:ev="http://www.w3.org/2001/xml-events" xmlns:xlink="http://www.w3.org/1999/xlink"><defs /><rect fill="#FAF9F5" height="130" width="100" x="0" y="0" /><text fill="#5A5A5A" style="font-size:6px; font-family:Arial; font-weight:bold;" x="5" y="10">2025-03-05 Workouts</text><text fill="#5A5A5A" style="font-size:4px; font-family:Arial" x="5" y="121">Runner</text><text fill="#5A5A5A" style="font-size:6px; font-family:Arial" x="2" y="128">蓝皮书</text><text fill="#5A5A5A" style="font-size:4px; font-family:Arial" x="25" y="121">STATISTICS</text><text fill="#5A5A5A" style="font-size:3px; font-family:Arial" x="25" y="125">Number: 2</text><text fill="#5A5A5A" style="font-size:3px; font-family:Arial" x="25" y="129">Weekly: 2.0</text><text fill="#5A5A5A" style="font-size:3px; font-family:Arial" x="48" y="125">Total: 8.8 km</text><text fill="#5A5A5A" style="font-size:3px; font-family:Arial" x="48" y="129">Avg: 4.4 km</text><text fill="#5A5A5A" style="font-size:3px; font-family:Arial" x="75" y="125">Min: 3.1 km</text><text fill="#5A5A5A" style="font-size:3px; font-family:Arial" x="75" y="129">Max: 5.7 km</text><polyline fill="none" points="58.67914798180573,33.002075745374896 58.9011210759636,33.45302633897518 59.0786995512899,33.28391992414254 59.567040358437225,33.058444596565096 61.9643497755751,32.83296914558741 62.05313901323825,32.88933801991516 62.008744394406676,33.002075745374896 62.1419282509014,33.058444596565096 64.00650224182755,33.002075745374896 64.05089686089195,33.058444596565096 64.71681614336558,33.114813439926365 65.6047085202299,33.002075745374896 66.67017937195487,33.114813439926365 68.17959641222842,33.002075745374896 69.46704035857692,32.77660026377998 70.13295964128338,32.83296914558741 71.55358744389378,32.663862476852955 72.3970852016937,32.663862476852955 72.70784753328189,32.60749357184977 72.88542600884102,32.72023137426004 73.4625560536515,32.72023137426004 73.9952914796304,32.9457068866177 74.21726457355544,33.28391992414254 74.5280269056093,35.70777191707748 74.48363228677772,35.76414039861993 74.5280269056093,36.32782479189336 74.43923766817898,36.722403409017716 74.43923766817898,39.258971227827715 74.5280269056093,39.653547043330036 74.48363228677772,40.16085825164919 74.66121076210402,42.81013998834533 74.57242152444087,43.59928445299738 74.75,46.86858116398798 74.66121076210402,47.88318522347254 74.75,49.06688680770458 74.48363228677772,50.19421849420178 73.90650224196725,50.92698243955965 72.53026905818842,51.26518074487103 70.97645739885047,51.09608162686345 68.75672645727172,51.26518074487103 68.40156950661913,51.09608162686345 66.8033632284496,51.321547102124896 66.13744394597597,51.26518074487103 65.51591928233393,51.37791345184087 65.2051569505129,51.321547102124896 61.16524663660675,51.434279793611495 61.03206278011203,51.321547102124896 60.14417040348053,51.434279793611495 59.70022421493195,51.321547102124896 59.300672645447776,51.434279793611495 58.945515694795176,51.321547102124896 58.05762331816368,51.37791345184087 53.618161434773356,51.71611138762091 52.19753363216296,51.77247768337838 49.71143497759476,51.659745084209135 48.823542600730434,51.77247768337838 48.202017937088385,51.60337877305574 46.47062780265696,51.659745084209135 45.80470851995051,51.71611138762091 45.62713004462421,51.82884397133603 43.18542600888759,51.77247768337838 41.80919282510877,51.88521025158116 41.32085201772861,51.997942789283115 40.166591928107664,51.997942789283115 39.14551569498144,52.11067529587308 37.59170403564349,52.0543090463907 36.79260089667514,52.167041537788464 35.54955156915821,52.11067529587308 35.10560538107529,52.223407771845814 33.773766815895215,52.27977399827796 32.619506726041436,52.223407771845814 31.332062780158594,52.27977399827796 30.799327353946865,52.223407771845814 28.801569506525993,52.39250642817933 26.315470851724967,52.27977399827796 25.960313901072368,51.997942789283115 25.827130044577643,51.77247768337838 25.69394618808292,51.434279793611495 25.738340806914493,50.2505849977897 25.6051569506526,49.12325346519356 25.6051569506526,47.65771787017002 25.471973093925044,46.47401224519126 25.516367712523788,46.304911164421355 25.383183856261894,44.219325474026846 25.471973093925044,43.712019253347535 25.383183856261894,43.035609989165096 25.42757847509347,42.64103740666178 25.294394618598744,41.457317396154394 25.471973093925044,39.258971227827715 25.33878923743032,38.131609677075176 25.383183856261894,37.90613699759706 25.294394618598744,37.455191268905764 25.33878923743032,36.66603505812236 25.25,34.9186123656109 25.294394618598744,34.5240320241719 25.471973093925044,34.24218869220931 25.87152466364205,34.01671388806426 26.759417040273547,33.9039764397894 27.647309416672215,33.9039764397894 28.446412555640563,33.79123896089732 30.13340807147324,33.9039764397894 30.621748878620565,33.79123896089732 31.82040358730592,33.79123896089732 34.306502241874114,33.565763910271926 39.14551569498144,33.50939512846526 39.989013452781364,33.62213268445339 43.00784753332846,33.28391992414254 44.65044843032956,33.22755110356957 45.138789237476885,33.39665754174348 45.53834080719389,33.28391992414254 46.24865470849909,33.340288736711955 48.15762331802398,33.114813439926365 49.13430493255146,33.17118227557512 50.51053811656311,33.340288736711955 51.886771300341934,33.17118227557512 51.97556053777225,33.28391992414254 52.19753363216296,33.340288736711955 52.73026905790903,33.17118227557512 53.884529147762805,33.22755110356957 54.81681614345871,33.114813439926365 55.17197309387848,33.22755110356957 56.72578475321643,33.058444596565096 60.632511210627854,33.058444596565096 62.94103138986975,32.77660026377998 65.69349775766023,32.83296914558741 66.40381165896542,32.72023137426004 67.6912556050811,32.77660026377998 69.20067264558747,32.663862476852955 68.31278026895598,32.83296914558741 67.82443946180865,32.83296914558741 67.46928251115605,33.002075745374896 66.58139013452455,33.058444596565096 66.40381165896542,33.002075745374896 65.9598654708825,33.114813439926365 65.6047085202299,33.058444596565096 65.2051569505129,33.22755110356957 64.76121076219715,33.17118227557512 64.13968609832227,33.340288736711955 62.497085201554,33.22755110356957 61.6091928249225,33.340288736711955 60.76569506712258,33.340288736711955 60.05538116558455,33.17118227557512 59.922197309322655,33.340288736711955 59.78901345282793,33.39665754174348 59.478251121006906,33.28391992414254 57.924439461901784,33.45302633897518 57.79125560517423,33.45302633897518 57.480493273353204,33.17118227557512 57.16973094153218,33.28391992414254" stroke="#4DD2FF" stroke-linecap="round" stroke-linejoin="round" stroke-width="0.5"><title>2025-03-05 3.1km</title><desc>13795557817</desc></polyline><polyline fill="none" points="26.285564853809774,99.73508979100734 27.94246861897409,102.89047609595582 29.392259414307773,104.73111571976915 30.842050208710134,105.51996073429473 33.12029288709164,106.04585723148193 38.50523012597114,105.25701243150979 40.162133891135454,105.51996073429473 43.26882845163345,105.25701243150979 54.452928869985044,105.25701243150979 59.83786610979587,104.46816730953287 62.944560669362545,104.99406409380026 69.77928870264441,103.41637331061065 71.85041841026396,102.36457873682957 73.5073221763596,99.73508979100734 73.9215481178835,97.10559725447092 73.09309623483568,93.95020147273317 72.05753138102591,91.84660141298082 70.81485355645418,90.53185020911042 68.74372384976596,89.74299905542284 59.21652719657868,89.21709810686298 50.93200836889446,90.00594947533682 35.81276150699705,89.74299905542284 31.256276151165366,91.05775079864543 29.392259414307773,92.63545170472935 27.528242678381503,94.73905090277549 26.49267782457173,97.63149604946375 26.69979079440236,100.26098786760122 27.735355649143457,102.36457873682957 29.18514644354582,103.94227038160898 32.49895397387445,105.51996073429473 53.41736401710659,104.46816730953287 54.867154812440276,104.99406409380026 58.388075314462185,104.46816730953287 62.11610878724605,104.73111571976915 68.32949790824205,104.46816730953287 71.02196652814746,103.41637331061065 72.88598326407373,101.57573243032675 74.12866108864546,99.20919157075696 74.12866108864546,96.57969831710216 72.88598326407373,93.16135171998758 71.85041841026396,91.58365124370903 69.98640167433769,90.26889986020979 67.50104602519423,89.48004859953653 57.35251045972109,90.53185020911042 53.00313807558268,90.00594947533682 48.446652719751,90.00594947533682 46.99686192534864,89.48004859953653 35.60564853530377,89.74299905542284 32.29184100497514,90.53185020911042 29.392259414307773,92.3725016436074 27.321129707619548,95.52790001011454 26.49267782457173,96.8426478037145 26.07845188304782,98.68329320719931 26.69979079440236,100.78688580030575 28.563807531259954,103.41637331061065 31.670502092689276,105.25701243150979 34.15585773997009,105.51996073429473 44.92573221679777,104.73111571976915 48.03242677822709,104.99406409380026 51.13912133965641,104.73111571976915 56.73117154836655,104.99406409380026 59.83786610979587,104.46816730953287 60.87343096267432,104.99406409380026 68.32949790824205,104.46816730953287 70.60774058569223,103.94227038160898 73.5073221763596,100.52393685164861 74.33577405940741,96.31674879381899 73.9215481178835,94.47610112873372 72.67887029331177,91.84660141298082 69.98640167433769,89.74299905542284 68.53661087993532,88.95414757938124 55.28138075303286,89.48004859953653 53.21025104634464,90.00594947533682 50.93200836889446,89.48004859953653 49.27510460279882,89.74299905542284 42.026150627061725,89.74299905542284 41.40481171570718,89.21709810686298 40.162133891135454,89.74299905542284 36.8483263598755,89.74299905542284 33.7416317993775,90.26889986020979 31.256276151165366,91.32070103927981 29.18514644354582,92.63545170472935 27.94246861897409,94.21315131918527 26.69979079440236,97.63149604946375 26.90690376609564,100.78688580030575 27.321129707619548,101.83868123532739 32.08472803328186,105.25701243150979 34.36297071073204,105.51996073429473 42.64748954027891,104.99406409380026 52.79602510575205,105.51996073429473 54.66004184167832,104.73111571976915 59.423640167340636,104.46816730953287 63.773012552410364,104.99406409380026 66.05125522986054,104.46816730953287 68.53661087993532,104.73111571976915 70.60774058569223,103.67932186461985 72.67887029331177,101.83868123532739 74.12866108864546,99.47214069927577 73.71443514619023,95.52790001011454 72.47175732254982,92.3725016436074 70.19351464509964,90.00594947533682 68.95083682052791,89.21709810686298 63.56589958164841,89.21709810686298 56.9382845191285,90.00594947533682 50.51778242737055,89.74299905542284 45.339958159253,90.26889986020979 42.44037656951696,89.48004859953653 38.298117155209184,90.00594947533682 37.26255230139941,89.48004859953653 34.36297071073204,89.74299905542284 30.634937238879502,91.05775079864543 27.735355649143457,93.4243016729597 26.69979079440236,95.52790001011454 26.07845188304782,98.42034397169482 26.49267782457173,101.04983471345622 27.528242678381503,102.89047609595582 28.356694560498,103.67932186461985 28.149581590667367,103.94227038160898 30.634937238879502,105.51996073429473 32.70606694556773,106.04585723148193 38.50523012597114,105.78290900029242 39.33368200901896,105.25701243150979 46.78974895365536,105.25701243150979 49.27510460279882,104.73111571976915 54.03870292939246,105.25701243150979 57.145397489890456,104.73111571976915 68.32949790824205,104.73111571976915 69.77928870264441,103.94227038160898 70.81485355645418,103.94227038160898 73.30020920466632,101.83868123532739 74.54288702923805,98.15739469998516 74.12866108864546,94.73905090277549 73.09309623483568,92.3725016436074 70.19351464509964,90.00594947533682 67.91527196671814,88.95414757938124 57.973849372938275,89.48004859953653 55.07426778227091,90.26889986020979 53.21025104634464,89.48004859953653 40.78347280342132,90.00594947533682 39.95502092130482,89.74299905542284 37.883891213685274,89.48004859953653 33.7416317993775,90.00594947533682 31.46338912192732,90.79480052157305 28.149581590667367,93.16135171998758 26.69979079440236,96.05379923537839 26.07845188304782,100.26098786760122 26.69979079440236,101.83868123532739 28.978033472783864,104.46816730953287 31.04916318040341,105.51996073429473 33.32740585785359,105.78290900029242 39.95502092130482,105.51996073429473 41.197698744013906,105.25701243150979 42.44037656951696,105.51996073429473 47.203974896110594,104.99406409380026 49.896443515084684,105.25701243150979 54.24581590015441,105.25701243150979 55.28138075303286,104.99406409380026 56.31694560684264,105.25701243150979 57.35251045972109,104.73111571976915 60.666317991912365,104.99406409380026 61.49476987402886,104.46816730953287 68.32949790824205,104.46816730953287 71.43619246967137,103.15342472132761 73.09309623483568,101.57573243032675 74.12866108864546,99.99803884665016 74.75,97.63149604946375 73.9215481178835,94.73905090277549 71.85041841026396,91.58365124370903 68.53661087993532,89.21709810686298 66.46548117231578,88.69119701569434 60.25209205131978,88.69119701569434 55.48849372379482,89.74299905542284 46.99686192534864,88.95414757938124 41.40481171570718,89.48004859953653 35.191422594711185,89.21709810686298 31.256276151165366,89.48004859953653 28.356694560498,91.32070103927981 26.69979079440236,93.68725159112364 25.871338912285864,96.31674879381899 25.871338912285864,99.20919157075696 26.90690376609564,101.83868123532739 28.356694560498,103.67932186461985 31.256276151165366,104.99406409380026 40.99058577418327,105.78290900029242 46.375523013062775,105.78290900029242 53.00313807558268,104.99406409380026 66.46548117231578,104.73111571976915 68.95083682052791,104.20521886378992 71.643305439502,101.83868123532739 72.88598326407373,100.26098786760122 74.33577405940741,96.8426478037145 73.9215481178835,94.73905090277549 72.26464435271919,91.84660141298082 70.19351464509964,90.00594947533682 67.91527196671814,88.95414757938124 59.83786610979587,88.42824641533662 53.41736401710659,88.69119701569434 51.553347280249,88.42824641533662 50.7248953981325,89.21709810686298 49.482217573560774,88.95414757938124 47.618200837634504,90.00594947533682 44.92573221679777,89.48004859953653 33.32740585785359,89.48004859953653 31.256276151165366,90.26889986020979 30.427824268117547,90.00594947533682 27.321129707619548,92.89840172987897 26.285564853809774,95.79084964026697 25.871338912285864,98.15739469998516 26.285564853809774,99.73508979100734 28.356694560498,103.15342472132761 30.013598326593637,104.46816730953287 33.534518828615546,105.25701243150979 45.339958159253,105.51996073429473 49.06799163296819,104.73111571976915 52.79602510575205,104.46816730953287 60.87343096267432,105.25701243150979 68.53661087993532,104.73111571976915 71.22907949797809,103.15342472132761 72.88598326407373,101.57573243032675 73.9215481178835,99.20919157075696 74.33577405940741,96.8426478037145 73.30020920466632,93.16135171998758 71.85041841026396,91.32070103927981 69.36506276205182,89.21709810686298 61.080543933436275,88.95414757938124 59.423640167340636,89.74299905542284 58.802301255986094,89.48004859953653 56.31694560684264,89.74299905542284 55.69560669455677,89.48004859953653 53.00313807558268,89.74299905542284 33.534518828615546,88.95414757938124 30.220711297355592,90.00594947533682 27.735355649143457,92.10955154604744 26.49267782457173,93.95020147273317 26.07845188304782,95.52790001011454 26.69979079440236,100.78688580030575 28.149581590667367,103.15342472132761 30.013598326593637,104.73111571976915 32.49895397387445,105.51996073429473 39.95502092130482,105.78290900029242 42.233263598755,105.25701243150979 46.58263598289341,105.78290900029242 53.21025104634464,105.25701243150979 57.973849372938275,105.78290900029242 68.53661087993532,104.73111571976915 71.02196652814746,103.15342472132761 73.71443514619023,99.47214069927577 73.9215481178835,96.31674879381899 73.30020920466632,93.95020147273317 72.26464435271919,92.63545170472935 71.85041841026396,91.05775079864543 68.74372384976596,89.21709810686298 56.9382845191285,89.21709810686298 56.31694560684264,89.74299905542284 54.24581590015441,88.95414757938124 51.96757322084159,89.74299905542284 48.03242677822709,89.48004859953653 46.16841004230082,90.00594947533682 44.30439330544323,89.48004859953653 40.99058577418327,89.74299905542284 39.54079497884959,89.21709810686298 32.91317991632968,89.48004859953653 29.806485355831683,90.53185020911042 27.321129707619548,92.10955154604744 26.07845188304782,95.2649503435241 25.871338912285864,98.94624240708072 27.11401673592627,102.10163000400644 28.563807531259954,103.94227038160898 31.670502092689276,105.78290900029242 33.12029288709164,106.30880542600062 37.469665272161365,106.5717535847798 42.64748954027891,105.51996073429473 51.13912133965641,105.78290900029242 57.35251045972109,105.25701243150979 64.80857740622014,105.78290900029242 69.98640167433769,104.73111571976915 71.643305439502,103.41637331061065 72.67887029331177,102.10163000400644 73.71443514619023,99.20919157075696 73.9215481178835,96.57969831710216 73.30020920466632,93.16135171998758 72.67887029331177,92.10955154604744 70.19351464509964,90.26889986020979 67.91527196671814,89.21709810686298 64.18723849393427,88.95414757938124 60.0449790796265,89.74299905542284 54.452928869985044,88.95414757938124 46.78974895365536,89.48004859953653 44.09728033468127,90.26889986020979 37.67677824292332,89.74299905542284 31.877615062519908,90.00594947533682 27.735355649143457,91.84660141298082 26.69979079440236,92.63545170472935 25.66422594152391,95.00200064107776 25.25,98.15739469998516 25.66422594152391,100.52393685164861 27.321129707619548,102.62752743449528 29.18514644354582,103.94227038160898 32.91317991632968,104.99406409380026 47.203974896110594,105.78290900029242 68.32949790824205,104.99406409380026 71.43619246967137,102.89047609595582 72.67887029331177,101.04983471345622 73.30020920466632,98.42034397169482 73.30020920466632,95.2649503435241 72.05753138102591,93.16135171998758 69.77928870264441,90.79480052157305 67.50104602519423,90.00594947533682 54.24581590015441,89.21709810686298 47.618200837634504,89.48004859953653 46.99686192534864,89.74299905542284 44.30439330544323,89.21709810686298 42.233263598755,90.00594947533682 32.91317991632968,91.05775079864543 30.842050208710134,91.58365124370903 28.356694560498,93.16135171998758 26.49267782457173,95.79084964026697 26.07845188304782,97.3685466699535 25.871338912285864,99.47214069927577 26.49267782457173,101.31278358970303 27.94246861897409,103.41637331061065 31.670502092689276,105.25701243150979 45.547071130014956,104.73111571976915 48.03242677822709,104.99406409380026 57.145397489890456,104.20521886378992 62.11610878724605,103.15342472132761 65.01569037698209,103.94227038160898 68.53661087993532,103.41637331061065 70.4006276158616,102.62752743449528 71.85041841026396,100.78688580030575 72.26464435271919,99.73508979100734 72.47175732254982,96.31674879381899 71.43619246967137,93.4243016729597 69.57217573281378,91.58365124370903" stroke="#4DD2FF" stroke-linecap="round" stroke-linejoin="round" stroke-width="0.5"><title>2025-03-05 5.7km</title><desc>13791220354</desc></polyline></svg>