<?xml version="1.0" encoding="utf-8" ?>
<svg baseProfile="full" height="130mm" version="1.1" viewBox="0,0,100,130" width="100mm" xmlns="http://www.w3.org/2000/svg" xmlns:ev="http://www.w3.org/2001/xml-events" xmlns:xlink="http://www.w3.org/1999/xlink"><defs /><rect fill="#FAF9F5" height="130" width="100" x="0" y="0" /><text fill="#5A5A5A" style="font-size:6px; font-family:Arial; font-weight:bold;" x="5" y="10">2025-01-14 Workouts</text><text fill="#5A5A5A" style="font-size:4px; font-family:Arial" x="5" y="121">Runner</text><text fill="#5A5A5A" style="font-size:6px; font-family:Arial" x="2" y="128">蓝皮书</text><text fill="#5A5A5A" style="font-size:4px; font-family:Arial" x="25" y="121">STATISTICS</text><text fill="#5A5A5A" style="font-size:3px; font-family:Arial" x="25" y="125">Number: 1</text><text fill="#5A5A5A" style="font-size:3px; font-family:Arial" x="25" y="129">Weekly: 1.0</text><text fill="#5A5A5A" style="font-size:3px; font-family:Arial" x="48" y="125">Total: 6.1 km</text><text fill="#5A5A5A" style="font-size:3px; font-family:Arial" x="48" y="129">Avg: 6.1 km</text><text fill="#5A5A5A" style="font-size:3px; font-family:Arial" x="75" y="125">Min: 6.1 km</text><text fill="#5A5A5A" style="font-size:3px; font-family:Arial" x="75" y="129">Max: 6.1 km</text><polyline fill="none" points="81.44319206522778,54.60569421586115 84.29170423792675,54.327477155427914 87.65148782683536,54.51295520819258 89.62353471620008,54.60569421586115 90.20784490555525,55.718561316723935 90.28088367916644,56.738687890639994 90.06176735833287,61.00465514219832 90.28088367916644,65.27059559698682 89.98872858472168,67.58903025748441 90.20784490555525,71.48398266889853 90.42696122638881,76.67721780308057 90.28088367916644,77.88278456573607 90.28088367916644,82.33408945822157 89.69657348981127,83.35417605389375 88.60099188471213,84.37426111713285 86.77502254256979,84.09605625196127 85.6794409379363,83.91058627818711 83.05004508560523,84.00332127138972 81.00495942309499,84.46699604694732 79.76330027077347,84.46699604694732 78.4486023443751,84.37426111713285 77.27998196566477,84.28152617462911 75.23489630315453,84.65246586845024 71.9481514878571,84.55973096389789 70.85256988275796,84.8379356394289 68.44229035172611,84.8379356394289 67.56582506746054,84.74520076031331 63.54869251605123,85.0234053597087 63.037421100307256,85.1161402008147 61.28449053224176,85.1161402008147 59.531559963710606,85.1161402008147 57.8516681692563,85.1161402008147 55.441388638690114,85.0234053597087 50.839945897459984,85.0234053597087 46.165464382153004,85.0234053597087 44.48557258816436,85.39434464840451 42.00225428305566,85.3016098451335 39.73805229924619,85.39434464840451 35.355725878849626,85.67254898190731 33.821911632083356,85.57981421682052 32.21505861124024,85.67254898190731 28.928313795942813,85.67254898190731 26.956266907509416,85.85801847430412 22.13570784498006,85.85801847430412 17.022993687540293,85.95075320161413 14.539675382897258,85.95075320161413 11.106853020843118,86.04348791594384 10.157348962966353,85.3016098451335 10.084310189355165,82.51955986232497 9.792155094444752,81.96314849809278 9.5,81.59220733540133 9.938232642132789,77.04816165019292 10.595581605099142,74.5442867501406 10.595581605099142,73.61692333320389 10.814697925932705,72.04040261858609 9.792155094444752,69.90745700278785 9.792155094444752,68.23819054395426 10.23038773657754,65.6415456746472 10.23038773657754,63.78679326083511 10.011271415743977,62.85941515426384 9.5,61.932035781559534 9.792155094444752,60.17001148441341 10.157348962966353,56.55321044579614 13.005861136130989,56.738687890639994 14.174481514841318,56.738687890639994 16.730838593561202,56.46047170436941 20.090622182469815,56.367732950137 23.815599638968706,55.904038989625406 25.64156898111105,55.718561316723935 27.029305680654943,55.81130015954841 29.585662759374827,55.904038989625406 31.77682596910745,55.99677780724596 33.164562669117004,55.904038989625406 36.08611361589283,55.904038989625406 38.93462578905746,55.904038989625406 41.12578899925575,55.53308359324001 43.024797114077955,55.62582246121019 43.463029756210744,55.44034471252235 45.800270514097065,55.44034471252235 47.91839495068416,55.44034471252235 51.05906221829355,55.53308359324001 54.12669071229175,55.34760581917362 55.806582506746054,55.254866912961006 56.24481514887884,54.97665011853678 59.89675383223221,55.34760581917362 60.7001803428866,55.44034471252235 62.599188457708806,55.06938906252617 64.27908025216311,55.16212799429195 66.68935978366062,55.34760581917362 68.95356176747009,55.06938906252617 71.9481514878571,54.97665011853678 73.48196573508903,55.254866912961006 75.67312894528732,55.53308359324001 77.71821460779756,54.88391116197454 78.15644724993035,55.06938906252617 81.73534715967253,54.88391116197454 84.87601442728192,54.60569421586115 85.53336339024827,54.88391116197454 86.62894499581307,54.79117219266482 88.67403065832332,54.42021618800936 90.06176735833287,55.99677780724596 89.91568981064484,59.4281051493017 90.20784490555525,63.50857996172272 90.20784490555525,65.27059559698682 90.1348061314784,66.4761826080503 90.06176735833287,67.03260666073766 90.20784490555525,68.60913900041487 90.06176735833287,70.83482548495522 90.5,73.98786885198206 90.42696122638881,77.23363349784631 90.35392245277762,79.3665561049711 90.06176735833287,82.79776537342696 89.62353471620008,83.53964617929887 88.7470694319345,84.09605625196127 87.94364292174578,84.18879121955251 85.97159603238106,83.91058627818711 85.02209197496995,84.37426111713285 82.75788999116048,84.37426111713285 81.00495942309499,84.46699604694732 78.59467989206314,84.93067050608806 77.499098286964,84.65246586845024 76.25743913464248,84.37426111713285 74.13931469805539,84.93067050608806 73.04373309295624,84.93067050608806 69.83002705127001,85.0234053597087 66.47024346282706,85.0234053597087 64.49819657346234,85.1161402008147 58.65509467991069,85.76528373430483 54.49188458034769,85.3016098451335 53.32326420210302,85.20887502946425 50.18259693402797,85.0234053597087 45.94634806131944,85.48707943886984 44.996844003442675,85.39434464840451 43.82822362519801,85.48707943886984 41.78313796175644,85.67254898190731 40.395401262212545,85.67254898190731 37.25473399460316,85.76528373430483 31.922903516795486,85.76528373430483 29.512623985297978,85.76528373430483 25.422452659811825,85.95075320161413 23.37736699730158,86.1362226177007 21.47835888201371,86.22895730705932 20.017583408392966,86.22895730705932 17.096032461617142,85.95075320161413 14.028403967153281,86.04348791594384 10.960775473155081,86.04348791594384 10.157348962966353,85.0234053597087 9.938232642132789,81.87041322659934 10.011271415743977,80.66485354251927 10.376465283799917,76.8626897521317 10.376465283799917,74.82249552820576 10.376465283799917,73.06050467514433 9.719116320833564,70.00019390805392 9.938232642132789,68.23819054395426 10.23038773657754,67.58903025748441 10.084310189355165,65.45607066113735 10.084310189355165,64.52869483432733 9.792155094444752,58.40798261523014 10.084310189355165,56.9241652849596 11.325969341676682,56.64594917465001 13.444093778263777,56.64594917465001 15.416140667162836,56.738687890639994 16.949954913929105,56.738687890639994 17.680342650972307,56.738687890639994 19.214156898204237,56.738687890639994 23.085211902391165,56.367732950137 24.399909828789532,56.367732950137 24.83814247092232,56.08951661194442 26.298917944077402,55.99677780724596 26.883228133432567,55.99677780724596 31.192515780217946,55.99677780724596 34.77141568996012,55.904038989625406 36.08611361589283,55.99677780724596 38.71550946775824,55.718561316723935 40.030207394156605,55.62582246121019 40.395401262212545,56.08951661194442 42.07529305666685,56.08951661194442 43.68214607750997,55.62582246121019 46.38458070298657,55.62582246121019 47.62623985577375,55.904038989625406 50.54779080254957,56.08951661194442 52.8119927868247,55.62582246121019 54.1997294863686,55.62582246121019 57.12128043314442,55.44034471252235 57.92470694333315,55.53308359324001 59.604598737787455,55.718561316723935 61.21145175816491,55.904038989625406 67.34670874662697,55.62582246121019 68.66140667255968,55.06938906252617 69.17267808830366,55.254866912961006 70.85256988275796,54.88391116197454 72.53246167767793,55.16212799429195 73.77412082953379,55.34760581917362 74.57754734018818,55.99677780724596 75.96528403973207,55.53308359324001 79.03291253373027,55.16212799429195 81.37015329115093,54.79117219266482 83.48827772773802,54.88391116197454 84.43778178561479,55.16212799429195 89.33137962128967,54.79117219266482 87.35933273192495,54.51295520819258 85.82551848515868,54.2347381102154 83.78043282264844,54.04925998131512 79.90937781799585,53.77104269294068 78.30252479715273,53.956520898034796 75.52705139759928,54.42021618800936 74.35843101888895,54.327477155427914 71.29080252489075,54.42021618800936 70.6334535619244,54.141999052022584" stroke="#4DD2FF" stroke-linecap="round" stroke-linejoin="round" stroke-width="0.5"><title>2025-01-14 6.1km</title><desc>13347539415</desc></polyline></svg>