<?xml version="1.0" encoding="utf-8" ?>
<svg baseProfile="full" height="130mm" version="1.1" viewBox="0,0,100,130" width="100mm" xmlns="http://www.w3.org/2000/svg" xmlns:ev="http://www.w3.org/2001/xml-events" xmlns:xlink="http://www.w3.org/1999/xlink"><defs /><rect fill="#FAF9F5" height="130" width="100" x="0" y="0" /><text fill="#5A5A5A" style="font-size:6px; font-family:Arial; font-weight:bold;color:#0ed45e;" x="5" y="10">风高气爽适合高考</text><text fill="#5A5A5A" style="font-size:4px; font-family:Arial" x="5" y="121">Runner</text><text fill="#5A5A5A" style="font-size:6px; font-family:Arial" x="2" y="128">蓝皮书</text><text fill="#5A5A5A" style="font-size:4px; font-family:Arial" x="25" y="121">WORKOUTS INFO</text><text fill="#5A5A5A" style="font-size:3px; font-family:Arial" x="25" y="125">Type: Run</text><text fill="#5A5A5A" style="font-size:3px; font-family:Arial" x="22" y="129">Date: 2025-06-07</text><text fill="#5A5A5A" style="font-size:3px; font-family:Arial" x="47" y="125">Distance: 6.97 km</text><text fill="#5A5A5A" style="font-size:3px; font-family:Arial" x="47" y="129">Duration: 47:44min</text><text fill="#5A5A5A" style="font-size:3px; font-family:Arial" x="75" y="125">Pace: 6:51/km</text><text fill="#5A5A5A" style="font-size:3px; font-family:Arial" x="75" y="129">Elevation: 9m</text><polyline fill="none" points="79.46800936711952,44.521240258123726 80.25477660773322,47.65446133486694 80.11172801814973,48.207381133397575 77.9659991809167,51.06412593182176 78.18057206459343,54.289467870316 78.25209635961801,56.40896957181394 78.68124212697148,57.60694573674118 78.60971783241257,59.54213333898224 78.25209635961801,61.38516379345674 77.9659991809167,63.228189021581784 77.3938048244454,65.53196320735151 76.60703758429736,68.11218060058309 76.46398899517953,69.95518675335916 76.0348432273604,73.91763228439959 75.74874604912475,75.76062197471038 75.46264887042344,78.15650075965095 75.39112457633018,80.55237071291776 75.53417316544801,81.93459936068393 75.96331893280149,84.05401091178646 76.0348432273604,87.55563224607613 75.67722175456583,90.13576221087715 75.17655169265345,93.91379118041368 74.96197880851105,95.9410171842319 74.74740592483431,98.70540609094314 74.81893021939322,100.3640337914112 74.96197880851105,104.87916553398827 72.88777426583692,105.43203665310284 68.52479229588062,106.16919741395395 66.09296628041193,106.62992246478098 64.59095609467477,106.9063573385356 60.87169277621433,108.6571088093915 59.94187694648281,110.03927769203437 57.939196698367596,109.30212132044835 57.51005093054846,107.82780606881715 57.080905163660645,105.70847203629091 56.794807984959334,104.60272979800357 56.508710806723684,102.20694849494612 55.936516450252384,99.44257448031567 54.577554853167385,98.24467542284401 53.00402037240565,98.24467542284401 52.28877742635086,98.61325998348184 50.78676724014804,98.79755218530772 49.570854232646525,98.88969826663379 48.497989813797176,98.79755218530772 46.63835815479979,98.88969826663379 44.77872649533674,98.61325998348184 43.63433778239414,99.07399039011216 42.20385189075023,97.599651939061 41.41708465013653,96.86248145950958 39.628977285698056,93.82164439372718 38.69916145643219,92.07085296296282 38.198491394054145,90.68864587083226 37.76934562670067,88.1085181007511 37.411724153440446,86.72630258259596 37.340199859347194,85.80482393706916 36.69648120831698,84.14615908340784 35.981238262262195,83.13252847793046 33.12026647897437,79.26228798943339 30.974537641741335,76.40566713170847 29.830148927867413,73.64118337992113 28.32813874166459,68.57293262862368 26.96917714457959,65.07120902347378 26.253934198990464,63.8732466166839 23.32143812114373,62.95173557038652 22.034000818617642,62.03022321785102 20.961136399768293,61.10870955826249 19.959796275943518,58.89707144512795 19.45912621403113,54.381620261934586 21.819427934940904,54.013010616996326 24.46582683455199,53.92085817316547 26.611555671785027,53.46009575761855 27.040701439604163,50.97197306965245 27.112225734163076,49.681831629539374 27.112225734163076,47.74661466741236 26.468507083132863,45.44277743686689 26.826128555927426,43.50754785211757 29.401003160513937,42.125237477826886 30.688440463040024,41.94092920579715 33.40636365721002,40.37430678267265 35.05142243253067,40.189998014306184 36.12428685138002,40.09784361027414 36.91105409152806,37.88613399618771 36.69648120831698,35.95088190957904 36.62495691329241,33.739158182404935 36.98257838608697,32.35682703071507 38.12696709949523,31.34311565104872 39.98659875849262,31.066648636362515 41.48860894469544,30.8823372280458 43.70586207648739,30.8823372280458 44.70720220124349,31.158804320846684 47.067503922153264,32.72544895869214 48.211892635561526,33.739158182404935 50.143048589117825,33.83131348824827 51.358961597085,31.803893746691756 51.788107364438474,29.592155906488188 52.78944748872891,29.5 55.149749209638685,30.42155847873073 60.084925536066294,30.97449293883983 61.30083854356781,31.34311565104872 63.446567381266505,32.17251598852454 64.51943179965019,32.72544895869214 66.95125781558454,32.08036044758046 69.24003524240106,34.38424504699651 71.09966690139845,36.50381166534498 74.03216297877952,42.125237477826886 75.17655169265345,43.32323997223284 76.89313476253301,43.59970177238574 79.11038789432496,43.32323997223284 79.11038789432496,43.23108601255808 77.60837770812213,43.23108601255808 76.2494161115028,43.784009574272204 75.2480759867467,44.70554779842496 73.96063868468627,45.62708471604856 72.7447256767191,46.54862032679375 71.52881266875193,47.28584787447471 69.74070530431345,48.29953438730445 66.37906345911324,49.03675994905643 63.87571314861998,49.12891308538383 61.515411427710205,49.681831629539374 60.01340124104172,49.49752550042467 58.86901252809912,49.681831629539374 57.367002341430634,50.05044373095734 54.863652031403035,49.8661377063836 53.00402037240565,50.14259672357002 52.360301721375436,50.32690266967984 51.28743730252609,50.51120856386842 48.35494122467935,50.69551440520445 46.495309565681964,50.97197306965245 42.06080330116674,51.8013483575196 40.701841704547405,52.44641729409341 40.129647348076105,52.53856994683156 38.198491394054145,54.013010616996326 36.69648120831698,55.57960016402649 35.26599531667307,56.13251322018914 31.332159114535898,57.699097658041865 30.187770401127636,59.081374908739235 29.75862463377416,60.187194592435844 29.114905982278287,61.66161791078048 27.040701439604163,63.504642354964744 26.754604261368513,64.88690725830384 27.8274686797522,68.02003015589435 28.90033309860155,71.06098793592537 29.329478866420686,72.9039857267635 29.830148927867413,74.2862306406605 31.546731998212636,77.14286081300816 32.4765478274785,78.15650075965095 33.54941224632785,79.9073296712595 34.76532525429502,81.6581538663595 37.12562697567046,86.81845037511084 37.48324844846502,90.50435136945453 41.05946317734197,97.04677415761398 44.349580727983266,99.53472047048854 46.63835815479979,99.35042847756995 51.502010186202824,99.44257448031567 53.07554466696456,98.61325998348184 55.29279779875651,99.07399039011216 55.79346786113456,101.37763752526371 56.222613628488034,102.94411291345023 56.508710806723684,104.14200331014581 57.00938086910173,106.16919741395395 57.00938086910173,108.56496411253465 60.22797412518412,110.5 60.943217070773244,109.30212132044835 61.515411427710205,108.01209565828322 62.87437302432954,107.5513715869165 64.16181032685563,107.27493698743638 67.16583069926128,106.7220674357377 68.52479229588062,106.62992246478098 71.31423978507519,105.98490730213234 74.74740592483431,105.33989149908302 75.53417316544801,103.49698567838641 75.03350310353562,99.44257448031567 75.10502739762887,96.40174948499771 75.74874604912475,94.00593795417808 75.89179463824257,91.8865588537883 75.67722175456583,82.3031931706355 75.60569746000692,81.28955969074741 75.96331893280149,78.61724566743942 76.10636752191931,75.20772561617196 76.39246470015496,73.64118337992113 76.53551328927279,72.53538658691105 76.89313476253301,70.04733692365699 77.32228052942082,68.20433103246614 77.9659991809167,64.61045451281825 78.10904777003452,63.596793439937755 78.538193537388,61.56946655153297 78.96733930520713,60.3714976903284 78.60971783241257,55.67175237252377 78.538193537388,54.56592500593979 78.25209635961801,50.69551440520445 79.11038789432496,49.31321931933053 80.54087378596887,47.56230798951583 79.53953366167843,45.44277743686689 79.89715513493866,44.06047117867274 79.11038789432496,43.32323997223284 77.75142629723996,43.69185567996465 75.89179463824257,44.33693266578484 73.60301721142605,45.53493108297698 72.38710420392454,46.27215978078311 71.74338555242866,47.101541065843776 70.88509401772171,47.00938764208695 70.0268024825491,47.56230798951583 68.31021941266954,48.575994071143214 66.16449057497084,48.944606799515896 61.801508605480194,49.22106620890554 59.08358541177586,49.40537241642596 57.00938086910173,49.589678571675904 54.076884790789336,50.14259672357002 51.85963165899739,50.14259672357002 49.284757054410875,50.60336149105569 47.21055251127109,51.61704282934079 46.495309565681964,51.432737249007914 45.3509208522737,51.3405844392837 43.13366772001609,51.524890045810025 41.48860894469544,52.26211194891948 40.05812305305153,52.63072258664761 37.76934562670067,54.56592500593979 36.41038402961567,55.76390456815716 34.836849548853934,56.40896957181394 32.90569359483197,57.422641855315305 31.97587776556611,57.975553343538195 30.25929469568655,59.173526621074416 29.401003160513937,61.10870955826249 26.611555671785027,64.42615261737956 29.1864302768372,61.75376925698947 30.04472181154415,59.357830005988944 31.18911052495241,58.71276792912977 35.7666653781198,56.22466535033891 37.411724153440446,55.3952957073343 39.77202587481588,53.18363815167686 41.05946317734197,52.999333015759476 43.13366772001609,52.16995925671654 44.063483549747616,52.35426462814212 46.42378527112305,51.893501101993024 48.28341693012044,51.524890045810025 51.788107364438474,50.787667306372896 53.86231190757826,50.60336149105569 54.72060344228521,50.41905562329339 56.15108933392912,50.32690266967984 60.156449830625206,49.95829072507331 66.30753916455433,48.85245363705326" stroke="#4DD2FF" stroke-linecap="round" stroke-linejoin="round" stroke-width="0.5"><title>2025-06-07 6.97km</title><desc>14718477170</desc></polyline></svg>