<?xml version="1.0" encoding="utf-8" ?>
<svg baseProfile="full" height="130mm" version="1.1" viewBox="0,0,100,130" width="100mm" xmlns="http://www.w3.org/2000/svg" xmlns:ev="http://www.w3.org/2001/xml-events" xmlns:xlink="http://www.w3.org/1999/xlink"><defs /><rect fill="#FAF9F5" height="130" width="100" x="0" y="0" /><text fill="#5A5A5A" style="font-size:6px; font-family:Arial; font-weight:bold;" x="5" y="10">2025-01-10 Workouts</text><text fill="#5A5A5A" style="font-size:4px; font-family:Arial" x="5" y="121">Runner</text><text fill="#5A5A5A" style="font-size:6px; font-family:Arial" x="2" y="128">蓝皮书</text><text fill="#5A5A5A" style="font-size:4px; font-family:Arial" x="25" y="121">STATISTICS</text><text fill="#5A5A5A" style="font-size:3px; font-family:Arial" x="25" y="125">Number: 1</text><text fill="#5A5A5A" style="font-size:3px; font-family:Arial" x="25" y="129">Weekly: 1.0</text><text fill="#5A5A5A" style="font-size:3px; font-family:Arial" x="48" y="125">Total: 6.0 km</text><text fill="#5A5A5A" style="font-size:3px; font-family:Arial" x="48" y="129">Avg: 6.0 km</text><text fill="#5A5A5A" style="font-size:3px; font-family:Arial" x="75" y="125">Min: 6.0 km</text><text fill="#5A5A5A" style="font-size:3px; font-family:Arial" x="75" y="129">Max: 6.0 km</text><polyline fill="none" points="89.03922452684492,54.32747916900553 89.69657348981127,54.69843507168116 90.06176735833287,55.34760741435457 90.1348061314784,55.90404035698157 90.1348061314784,58.31524450681172 89.98872858472168,58.96441339200828 90.06176735833287,61.0046544202487 90.20784490555525,61.65382073470391 90.06176735833287,62.02477263560286 90.20784490555525,62.30298642866546 90.20784490555525,63.97226679226151 90.06176735833287,64.43595505389385 90.20784490555525,65.45606811559992 89.98872858472168,66.19796756119467 90.1348061314784,68.79460923920851 90.06176735833287,70.18566319724778 90.20784490555525,70.74208398238989 89.98872858472168,71.76218757173046 90.42696122638881,75.842586605635 90.42696122638881,76.58447470527608 89.98872858472168,78.06824847287498 90.28088367916644,81.49946289526997 90.28088367916644,82.24134481546935 89.91568981064484,83.07596100703813 89.03922452684492,84.09604607027723 87.4323715060018,84.46698571345769 86.04463480599225,83.81784120510565 85.16816952219233,83.7251062245341 82.90396753838286,84.00331112777349 81.88142470736057,84.00331112777349 81.44319206522778,84.1887810000917 80.20153291290626,84.1887810000917 79.83633904438466,84.37425082159461 79.47114517586306,84.1887810000917 78.08340847631916,84.28151591704227 76.69567177630961,84.00331112777349 75.30793507676572,84.28151591704227 75.01577998232096,84.46698571345769 72.53246167767793,84.65245545923244 70.77953110914677,84.37425082159461 69.90306582534686,84.55972059257329 68.95356176747009,84.46698571345769 66.32416591513902,84.74519031285308 64.93642921559513,84.46698571345769 63.7678088368848,84.83792515395908 62.745266005862504,84.74519031285308 61.43056807946414,84.93065998260863 55.95266005443409,84.93065998260863 54.27276825951412,85.20886439201422 52.88503155997023,85.3015991699649 50.9860234442167,84.93065998260863 49.52524797152728,85.02339479827788 47.699278629384935,84.93065998260863 46.96889089234173,85.11612960154889 46.67673579789698,84.93065998260863 44.33949504047632,85.3015991699649 42.95175834093243,85.39433393505169 42.58656447241083,85.20886439201422 38.3503155997023,85.48706868744921 34.990532010793686,85.76527286908822 33.38367899041623,85.67253815475851 27.029305680654943,85.76527286908822 23.30432822369039,85.5798034274485 19.87150586117059,85.9507422602037 19.50631199264899,86.04347693664022 18.7028854819946,86.04347693664022 17.89945897180587,85.85800757084507 17.242110008839518,86.04347693664022 16.000450856518,85.85800757084507 14.46663660928607,85.9507422602037 13.371055004186928,85.76527286908822 11.03381424676627,85.9507422602037 10.449504057876766,85.48706868744921 10.157348962966353,84.74519031285308 10.23038773657754,81.96313919045497 10.084310189355165,81.49946289526997 10.157348962966353,80.66484476643382 9.938232642132789,79.64475454943022 10.011271415743977,77.88277692929842 10.23038773657754,76.21353075676598 10.30342651065439,74.54428048135014 10.084310189355165,71.94766078674002 9.938232642132789,71.3912409893237 9.938232642132789,69.35103116440587 9.719116320833564,68.79460923920851 9.792155094444752,67.8672383511439 10.011271415743977,67.58902683766792 9.865193868521601,66.01249277574243 10.011271415743977,65.27059312717756 10.084310189355165,63.879529101832304 9.573038773611188,61.19013057346456 9.5,57.666075000946876 9.573038773611188,57.109643501986284 10.376465283799917,56.36773412779439 11.106853020843118,56.27499539894052 14.539675382897258,56.27499539894052 17.242110008839518,56.18225665751379 17.97249774588272,55.99677913635969 21.186203787103295,55.99677913635969 22.93913435516879,55.8113015650888 23.37736699730158,55.90404035698157 25.349413886200637,55.71856276039034 26.81018935982138,55.8113015650888 27.248422001488507,55.53308511269279 27.90577096492052,55.625823942769784 28.417042380198836,55.440346269868314 30.389089269563556,55.71856276039034 33.01848512142897,55.53308511269279 35.94003606867045,55.625823942769784 37.61992786312476,55.440346269868314 38.20423805201426,55.625823942769784 38.93462578905746,55.53308511269279 41.71009918814525,55.625823942769784 43.097835888154805,55.53308511269279 43.97430117242038,55.8113015650888 44.41253381455317,55.71856276039034 45.06988277705386,55.90404035698157 45.65419296640903,55.625823942769784 46.09242560900748,55.71856276039034 47.84535617660731,55.625823942769784 49.963480613194406,55.625823942769784 50.328674481250346,55.440346269868314 51.05906221829355,55.53308511269279 51.49729486042634,55.440346269868314 53.54238052293658,55.34760741435457 54.27276825951412,55.162129665666725 56.61000901693478,54.976651866105385 57.04824165906757,54.88391294743633 59.166366095654666,55.162129665666725 62.0148782688193,54.88391294743633 63.25653742114082,55.069390772318 64.86339044198394,54.88391294743633 68.36925157811493,54.976651866105385 70.6334535619244,54.79117401567055 72.3133453563787,54.976651866105385 74.65058611379936,54.79117401567055 76.11136158695444,55.069390772318 77.71821460779756,54.79117401567055 82.17357980180532,54.60569611511892 82.39269612263888,54.42021816363558 83.12308385968208,54.512957145809196 84.3647430120036,54.32747916900553 86.4828674485907,54.42021816363558 88.52795311110094,54.23474016133696 89.33137962128967,54.512957145809196 90.06176735833287,55.34760741435457 90.1348061314784,55.8113015650888 89.98872858472168,57.666075000946876 90.1348061314784,58.037029080383945 90.06176735833287,58.87167501798831 90.1348061314784,59.0571517534554 90.06176735833287,59.799058189906646 90.20784490555525,63.415840460162144 90.42696122638881,64.2504797874717 90.20784490555525,65.9197553639533 90.35392245277762,66.75439161388204 89.98872858472168,67.4035524323117 90.20784490555525,69.16555724001955 90.20784490555525,72.59681664104573 90.42696122638881,73.52418107131962 90.5,75.37890613183845 90.28088367916644,76.49173873697873 90.28088367916644,78.25371996616013 90.35392245277762,78.99560543172993 90.28088367916644,82.05587441136595 89.69657348981127,83.26143113244325 88.52795311110094,84.1887810000917 87.65148782683536,84.1887810000917 86.26375112729147,83.91057617269689 84.87601442728192,84.09604607027723 83.34220018051565,83.81784120510565 80.27457168651745,84.37425082159461 79.10595130734146,84.09604607027723 78.37556357076392,84.1887810000917 77.57213706104085,83.91057617269689 76.84174932399765,83.91057617269689 76.11136158695444,84.1887810000917 75.45401262398809,84.28151591704227 73.48196573508903,84.1887810000917 70.2682596934028,84.74519031285308 66.03201082069427,84.65245545923244 63.91388638410717,85.02339479827788 62.89134355261922,84.74519031285308 62.16095581650734,85.02339479827788 59.531559963710606,84.93065998260863 59.02028854843229,85.11612960154889 58.65509467991069,84.93065998260863 57.8516681692563,85.11612960154889 54.564923354424536,84.74519031285308 53.834535617381334,84.83792515395908 52.22768259700388,84.74519031285308 50.47475202893838,84.93065998260863 49.30613164976239,84.83792515395908 48.35662759235129,85.02339479827788 46.09242560900748,84.93065998260863 42.51352569879964,85.20886439201422 35.793958521448076,85.48706868744921 34.33318304782733,85.5798034274485 33.96798917930573,85.85800757084507 30.754283138085157,85.67253815475851 26.07980162324384,85.67253815475851 24.399909828789532,85.48706868744921 19.141118124127388,86.04347693664022 13.371055004186928,85.76527286908822 11.764201983809471,85.9507422602037 10.595581605099142,85.67253815475851 10.30342651065439,85.39433393505169 10.011271415743977,84.83792515395908 10.011271415743977,80.29390304681147 9.865193868521601,79.08834105811547 9.938232642132789,78.62466280016815 9.938232642132789,78.43919140851358 10.23038773657754,75.93532266252441 10.011271415743977,74.72975293674972 10.011271415743977,72.31860706553562 9.865193868521601,71.02029420423787 9.865193868521601,68.42366103583481 9.938232642132789,68.05271263018949 9.792155094444752,68.05271263018949 9.792155094444752,67.7745011926163 9.938232642132789,66.93986619653879 9.719116320833564,66.10523017501691 9.938232642132789,63.69405368331354 9.573038773611188,61.83929671061924 9.719116320833564,59.70631992944982 9.5,57.666075000946876 9.573038773611188,57.29512071906356 9.719116320833564,56.92416623438476 10.376465283799917,56.46047284378437 11.106853020843118,56.27499539894052 16.657799819484353,56.36773412779439 20.090622182469815,56.089517903281376 24.619026149623096,55.99677913635969 24.984220018144697,55.8113015650888 29.14743011724204,55.71856276039034 29.950856627430767,55.8113015650888 30.24301172234118,55.625823942769784 32.4341749320738,55.625823942769784 34.40622182143852,55.8113015650888 38.131199278868735,55.440346269868314 40.833633904345334,55.440346269868314 41.85617673583329,55.625823942769784 42.294409377966076,55.440346269868314 42.80568079371005,55.625823942769784 45.362037871964276,55.162129665666725 46.67673579789698,55.25486854638439 49.963480613194406,55.625823942769784 52.22768259700388,55.25486854638439 54.71100090164691,55.069390772318 56.31785392249003,55.069390772318 57.705590622499585,55.25486854638439 59.09332732157782,55.162129665666725 60.91929666372016,55.25486854638439 61.79576194752008,55.069390772318 63.840847610495985,54.88391294743633 66.25112714152783,55.069390772318 66.54328223597258,54.88391294743633 66.90847610449418,55.069390772318 68.73444544663653,54.976651866105385 69.97610459895805,54.69843507168116 73.92019837675616,54.88391294743633 77.06086564483121,54.60569611511892 79.76330027077347,54.60569611511892 82.90396753838286,54.32747916900553 85.46032461663708,54.23474016133696 87.72452660091221,54.42021816363558 88.30883679026738,54.23474016133696 89.5504959425889,54.42021816363558 89.33137962128967,54.69843507168116 87.7975653745234,54.32747916900553 82.17357980180532,53.95652306335978 80.93192064901814,54.14200114115374 78.52164111845195,54.04926210857229 76.11136158695444,54.42021816363558 74.94274120824412,54.23474016133696 73.7010820559226,54.32747916900553 72.82461677165702,54.04926210857229 71.21776375127956,54.23474016133696 70.12218214618042,54.14200114115374 66.90847610449418,54.23474016133696" stroke="#4DD2FF" stroke-linecap="round" stroke-linejoin="round" stroke-width="0.5"><title>2025-01-10 6.0km</title><desc>13312027737</desc></polyline></svg>