<?xml version="1.0" encoding="utf-8" ?>
<svg baseProfile="full" height="130mm" version="1.1" viewBox="0,0,100,130" width="100mm" xmlns="http://www.w3.org/2000/svg" xmlns:ev="http://www.w3.org/2001/xml-events" xmlns:xlink="http://www.w3.org/1999/xlink"><defs /><rect fill="#FAF9F5" height="130" width="100" x="0" y="0" /><text fill="#5A5A5A" style="font-size:6px; font-family:Arial; font-weight:bold;" x="5" y="10">2025-01-06 Workouts</text><text fill="#5A5A5A" style="font-size:4px; font-family:Arial" x="5" y="121">Runner</text><text fill="#5A5A5A" style="font-size:6px; font-family:Arial" x="2" y="128">蓝皮书</text><text fill="#5A5A5A" style="font-size:4px; font-family:Arial" x="25" y="121">STATISTICS</text><text fill="#5A5A5A" style="font-size:3px; font-family:Arial" x="25" y="125">Number: 1</text><text fill="#5A5A5A" style="font-size:3px; font-family:Arial" x="25" y="129">Weekly: 1.0</text><text fill="#5A5A5A" style="font-size:3px; font-family:Arial" x="48" y="125">Total: 5.6 km</text><text fill="#5A5A5A" style="font-size:3px; font-family:Arial" x="48" y="129">Avg: 5.6 km</text><text fill="#5A5A5A" style="font-size:3px; font-family:Arial" x="75" y="125">Min: 5.6 km</text><text fill="#5A5A5A" style="font-size:3px; font-family:Arial" x="75" y="129">Max: 5.6 km</text><polyline fill="none" points="9.5,46.91086684074253 11.508264462463558,46.48589857190382 13.739669421222061,46.627554680919275 15.301652892492712,46.48589857190382 16.417355371639132,46.76921077026054 22.55371900787577,46.20258629624732 25.008264462463558,46.34424244356342 25.56611570250243,46.20258629624732 26.347107437439263,46.34424244356342 26.68181818164885,47.19417892256752 26.904958677943796,48.3274264781503 26.68181818164885,49.602328498265706 26.904958677943796,51.160539951059036 26.68181818164885,53.71033546177205 26.793388429563493,54.418610880267806 26.458677685819566,56.68508897034917 26.68181818164885,57.67667157773394 26.458677685819566,58.95156210963614 26.68181818164885,59.37652527168393 26.57024793373421,59.943142550764605 26.793388429563493,62.35126253392082 26.793388429563493,64.7593769277446 26.904958677943796,65.467644803226 27.462809917517006,66.03425875573885 27.23966942122206,67.3091390170157 27.462809917517006,71.2754231452709 27.351239669136703,71.98368657217361 27.351239669136703,73.5418644102756 27.68595041288063,74.53343090706039 27.462809917517006,76.09160491579678 27.797520661260933,78.0747320879018 27.574380164965987,82.32427754986566 27.68595041288063,82.74923113861587 27.68595041288063,85.01564733998384 27.797520661260933,85.72390138707124 27.462809917517006,90.25671584240627 27.574380164965987,90.82331625698134 27.797520661260933,90.82331625698134 27.68595041288063,92.23981593945064 28.020661156624556,94.22291224601213 28.578512396197766,94.36456183716655 30.140495867002755,93.93961300596129 33.487603305839,93.93961300596129 38.95454545458779,93.51466400013305 39.17768595041707,94.36456183716655 39.06611570203677,96.06435542239342 37.72727272706106,97.05590039445087 37.05785123910755,98.33074253762607 36.94628099165857,99.03898749582004 36.94628099165857,100.73877342336345 37.280991735402495,101.58866534277331 38.285123967099935,102.86350191640668 39.958677685353905,103.43009544617962 41.52066115709022,103.28844709286932 46.206611569970846,103.57174378063064 49.44214876042679,103.28844709286932 50.44628099119291,103.43009544617962 55.35537190036848,103.00515032792464 59.037190082482994,103.14679872011766 60.04132231324911,102.86350191640668 61.82644628081471,101.58866534277331 62.719008264131844,100.03052962536458 62.83057851251215,99.46393423888367 61.93801652826369,96.91425117105246 60.93388429749757,95.78105668525677 59.595041322056204,94.78951049444731 58.92561983456835,94.78951049444731 58.47933884290978,94.93116000853479 57.47520661121234,94.50621140922885 55.80165289249271,94.36456183716655 53.12396694160998,94.64786096161697 52.00826446292922,94.36456183716655 47.43388429703191,95.07280950283166 45.42561983456835,94.64786096161697 42.524793388321996,94.93116000853479 41.966942148283124,94.64786096161697 41.52066115709022,95.07280950283166 39.62396694207564,95.3561084336834 38.39669421501458,96.34765408257954 37.3925619837828,97.76414622296579 36.94628099165857,99.03898749582004 36.94628099165857,100.17217842349783 37.50413223076612,101.58866534277331 38.61983471084386,102.86350191640668 40.29338842956349,103.57174378063064 47.54545454494655,103.43009544617962 48.54958677664399,103.71339209517464 58.36776859499514,103.28844709286932 60.04132231324911,102.86350191640668 61.38016528915614,101.73031392809935 62.272727272473276,100.31382720277179 62.60743801575154,99.3222853441257 62.272727272473276,97.76414622296579 61.82644628081471,96.77260192774702 59.706611569970846,94.64786096161697 56.917355372104794,94.22291224601213 55.020661156624556,94.36456183716655 53.458677685819566,94.08126263564918 49.44214876042679,94.93116000853479 48.43801652872935,94.78951049444731 47.43388429703191,94.93116000853479 46.31818181788549,94.64786096161697 45.537190082482994,94.78951049444731 44.97933884290978,94.50621140922885 40.18181818164885,94.64786096161697 38.50826446246356,95.3561084336834 37.95041322289035,96.06435542239342 36.94628099165857,98.47239156824071 36.834710743278265,99.74723197077401 37.280991735402495,101.44701673777308 38.50826446246356,102.72185348533094 39.62396694207564,103.14679872011766 44.97933884290978,103.57174378063064 47.09917355328798,103.28844709286932 48.326446280349046,103.43009544617962 53.79338842956349,103.00515032792464 59.595041322056204,103.00515032792464 60.59917355328798,102.58020503551234 61.49173553707078,101.87196249421686 61.93801652826369,100.88042212475557 62.49586776876822,100.45547596213873 62.60743801575154,98.75568957091309 61.2685950412415,96.06435542239342 60.37603305792436,95.07280950283166 58.70247933873907,94.50621140922885 56.13636363577098,94.08126263564918 54.23966942122206,94.08126263564918 52.342975206207484,94.50621140922885 48.88429752085358,94.50621140922885 46.31818181788549,94.78951049444731 44.97933884290978,94.50621140922885 40.73966942122206,94.78951049444731 38.7314049587585,95.78105668525677 37.95041322289035,96.48930338397622 37.05785123910755,98.04744441912044 36.94628099165857,99.6055831144331 37.3925619837828,101.44701673777308 38.50826446246356,102.72185348533094 40.07024793326855,103.43009544617962 50.0,103.57174378063064 52.23140495829284,103.28844709286932 58.03305785078555,103.28844709286932 59.37190082669258,103.00515032792464 60.48760330537334,102.58020503551234 61.93801652826369,100.88042212475557 62.38429752038792,99.88888080767356 62.60743801575154,98.47239156824071 62.49586776876822,97.48084794986062 61.49173553707078,96.06435542239342 59.148760329931974,94.64786096161697 57.586776859126985,94.50621140922885 56.80578512372449,94.64786096161697 55.80165289249271,94.22291224601213 53.458677685819566,93.93961300596129 51.896694214548916,94.22291224601213 50.334710743743926,94.08126263564918 50.22314049536362,94.36456183716655 48.772727272473276,94.22291224601213 46.76446280954406,94.36456183716655 45.537190082482994,94.08126263564918 42.413223140407354,94.36456183716655 40.07024793326855,94.22291224601213 38.50826446246356,94.93116000853479 37.50413223076612,96.06435542239342 36.94628099165857,97.19754959910642 36.723140495829284,98.33074253762607 36.61157024744898,99.03898749582004 36.94628099165857,100.88042212475557 37.50413223076612,101.87196249421686 37.838842974975705,102.43855656578671 39.289256198331714,103.28844709286932 43.97520661121234,103.28844709286932 46.541322314180434,103.57174378063064 59.148760329931974,103.43009544617962 60.152892561629415,102.86350191640668 61.49173553707078,101.58866534277331 62.272727272473276,100.03052962536458 62.60743801575154,98.04744441912044 61.714876032900065,96.06435542239342 60.710743801668286,95.49775787035469 59.706611569970846,95.21445897768717 59.26033057831228,94.64786096161697 57.586776859126985,94.64786096161697 54.79752066079527,94.08126263564918 51.11570247914642,94.08126263564918 50.55785123910755,93.79796335659921 48.99586776830256,94.22291224601213 48.43801652872935,94.08126263564918 46.987603305839,94.36456183716655 46.42975206580013,94.22291224601213 45.537190082482994,94.36456183716655 42.971074379980564,94.08126263564918 42.524793388321996,94.22291224601213 39.847107437904924,94.22291224601213 38.842975206207484,94.64786096161697 37.838842974975705,95.49775787035469 37.16942148748785,96.48930338397622 36.834710743278265,98.18909348815214 36.834710743278265,99.46393423888367 37.3925619837828,101.16371947026346 38.17355371871963,102.29690807708539 40.18181818164885,103.43009544617962 46.095041322056204,103.71339209517464 53.23553718999028,103.43009544617962 58.144628098700196,103.57174378063064 59.81818181788549,103.14679872011766 61.93801652826369,101.30536811356433 62.49586776876822,99.03898749582004 62.49586776876822,98.04744441912044 62.272727272473276,97.62249709607568 61.38016528915614,96.06435542239342 59.92975206626579,94.93116000853479 58.81404958618805,94.36456183716655 56.024793388321996,93.93961300596129 52.67768595041707,93.93961300596129 51.00413223123178,94.36456183716655 50.44628099119291,94.08126263564918 45.537190082482994,94.50621140922885 42.413223140407354,94.22291224601213 40.8512396691367,94.64786096161697 39.62396694207564,94.50621140922885 38.61983471084386,94.93116000853479 37.50413223076612,96.48930338397622 37.05785123910755,97.9057953307638 37.16942148748785,100.17217842349783 38.17355371871963,102.01361104124226 40.07024793326855,103.28844709286932 44.30991735542193,103.57174378063064 49.66528925579041,103.28844709286932 53.12396694160998,103.57174378063064 58.70247933873907,103.43009544617962 59.92975206626579,103.14679872011766 61.49173553707078,101.73031392809935 62.04958677664399,100.73877342336345 62.49586776876822,98.89733854297083 62.161157024558634,96.77260192774702 60.152892561629415,94.78951049444731 60.152892561629415,93.23136456648353 60.37603305792436,92.80641527101398 64.39256198331714,93.08971482072957 65.73140495829284,92.66476546728518 65.95454545412213,92.38146580103785 66.73553718952462,84.0240908608539 66.51239669369534,82.18262631515972 66.62396694207564,77.79142843850423 66.28925619833171,74.95838768722024 66.40082644624636,72.55029696598649 66.06611570203677,70.85046485660132 66.40082644624636,68.01740515197162 66.17768594995141,65.3259912666399 66.51239669369534,64.33441597013734 66.17768594995141,63.48449353314936 66.51239669369534,61.78464657033328 66.28925619833171,60.226451074006036 65.95454545412213,52.01047248393297 65.84297520620748,51.58550630451646 66.06611570203677,46.627554680919275 66.84710743790492,45.635961512918584 68.07438016496599,45.77761773776729 69.63636363577098,45.21099272207357 70.8636363632977,45.49430526862852 71.75619834661484,45.3526490048971 73.54132231371477,45.77761773776729 78.78512396663427,45.77761773776729 80.34710743790492,45.919273943523876 82.91322313994169,45.77761773776729 85.25619834661484,45.919273943523876 89.6074380162172,45.3526490048971 90.05371900787577,44.78602375742048 90.05371900787577,44.36105461837724 89.71900826413184,43.08614615770057 88.93801652872935,42.377863001893274 88.93801652872935,41.811236129840836 89.27272727247328,40.81963835807983 89.16115702409297,39.40306846925523 89.38429752038792,38.69478279922623 90.5,37.27821000898257 89.94214875949547,36.71158035111148 88.82644628081471,36.853237794479355 87.04132231371477,36.569922888535075 86.81818181788549,36.71158035111148 86.14876032993197,36.42826540663373 84.3636363632977,36.286607904941775 81.79752066079527,36.71158035111148 80.4586776853539,36.569922888535075 79.56611570203677,36.853237794479355 77.66942148748785,36.569922888535075 77.11157024791464,36.853237794479355 73.65289256162941,36.994895218871534 68.52066115709022,36.71158035111148 66.51239669369534,36.994895218871534 65.28512396663427,36.71158035111148 64.83884297451004,36.994895218871534 62.161157024558634,36.569922888535075 61.714876032900065,36.853237794479355 60.710743801668286,36.71158035111148 60.152892561629415,36.994895218871534 59.48347107414156,36.853237794479355 55.69008264411241,37.13655262370594 53.79338842956349,36.994895218871534 51.56198347080499,37.13655262370594 50.780991735402495,36.853237794479355 48.99586776830256,36.71158035111148 46.87603305792436,37.27821000898257 45.42561983456835,37.13655262370594 42.971074379980564,37.27821000898257 42.524793388321996,37.561524721910246 41.966942148283124,37.27821000898257 40.8512396691367,37.561524721910246 38.50826446246356,37.27821000898257 31.367768595460802,37.27821000898257 30.140495867002755,37.561524721910246 25.56611570250243,37.4198673752835 25.008264462463558,37.561524721910246 24.785123966634274,37.98649664595723 23.669421487487853,38.12815391540062 23.0,37.84483935742173 19.206611570436507,38.12815391540062" stroke="#4DD2FF" stroke-linecap="round" stroke-linejoin="round" stroke-width="0.5"><title>2025-01-06 5.6km</title><desc>13280322539</desc></polyline></svg>