<?xml version="1.0" encoding="utf-8" ?>
<svg baseProfile="full" height="130mm" version="1.1" viewBox="0,0,100,130" width="100mm" xmlns="http://www.w3.org/2000/svg" xmlns:ev="http://www.w3.org/2001/xml-events" xmlns:xlink="http://www.w3.org/1999/xlink"><defs /><rect fill="#FAF9F5" height="130" width="100" x="0" y="0" /><text fill="#5A5A5A" style="font-size:6px; font-family:Arial; font-weight:bold;" x="5" y="10">2025-01-20 Workouts</text><text fill="#5A5A5A" style="font-size:4px; font-family:Arial" x="5" y="121">Runner</text><text fill="#5A5A5A" style="font-size:6px; font-family:Arial" x="2" y="128">蓝皮书</text><text fill="#5A5A5A" style="font-size:4px; font-family:Arial" x="25" y="121">STATISTICS</text><text fill="#5A5A5A" style="font-size:3px; font-family:Arial" x="25" y="125">Number: 1</text><text fill="#5A5A5A" style="font-size:3px; font-family:Arial" x="25" y="129">Weekly: 1.0</text><text fill="#5A5A5A" style="font-size:3px; font-family:Arial" x="48" y="125">Total: 5.1 km</text><text fill="#5A5A5A" style="font-size:3px; font-family:Arial" x="48" y="129">Avg: 5.1 km</text><text fill="#5A5A5A" style="font-size:3px; font-family:Arial" x="75" y="125">Min: 5.1 km</text><text fill="#5A5A5A" style="font-size:3px; font-family:Arial" x="75" y="129">Max: 5.1 km</text><polyline fill="none" points="84.34810126572847,79.97999553242698 89.13291139155626,74.77306418097578 90.15822784975171,69.13221226003952 89.47468354552984,63.92526313709095 88.1075949370861,60.8878722100053 87.08227848261595,60.02004569885321 82.29746835492551,57.41656473977491 77.17088607698679,56.54873727960512 68.62658227793872,57.85047838045284 59.74050632864237,56.982651038328186 55.29746835492551,56.982651038328186 53.24683544225991,57.85047838045284 51.19620253331959,57.41656473977491 46.069620253518224,57.85047838045284 44.36075949296355,56.982651038328186 36.158227847889066,58.284391961526126 34.79113923944533,57.85047838045284 22.829113924875855,58.284391961526126 17.702531645074487,59.586132353171706 12.917721519246697,63.491350326221436 10.867088606581092,66.52873876458034 9.5,70.8678600715939 9.841772150248289,73.0374185028486 11.208860760554671,76.94261994794942 12.234177215024829,78.2443526959978 12.917721519246697,79.546084912261 16.677215188741684,83.01736821373925 24.196202529594302,85.18691835226491 25.56329113803804,84.75300844316371 34.10759493522346,84.31909847375937 39.57594936713576,82.58345800847746 56.664556961506605,82.58345800847746 60.08227848261595,82.14954774361104 71.01898734085262,83.01736821373925 72.38607594929636,82.14954774361104 76.14556962065399,82.58345800847746 81.27215190045536,81.71563741983846 84.68987341783941,79.97999553242698 89.81645569577813,74.33915285090916 90.5,68.69830015813932 88.4493670873344,63.491350326221436 86.05696202628314,59.15221894928254 84.34810126572847,57.41656473977491 81.27215190045536,56.11482346081175 77.17088607698679,55.68090958194807 75.12025316432118,56.54873727960512 71.3607594948262,56.54873727960512 67.25949367135763,57.41656473977491 65.55063291080296,56.982651038328186 56.664556961506605,57.41656473977491 53.930379746481776,58.284391961526126 42.31012658216059,58.71830548509024 40.943037973716855,59.586132353171706 26.588607594370842,57.85047838045284 25.221518985927105,58.284391961526126 24.879746835678816,60.02004569885321 20.77848101221025,60.02004569885321 15.99367088638246,61.755698485765606 11.892405062913895,66.96265116194263 10.525316454470158,70.00003628316335 11.208860760554671,74.77306418097578 12.917721519246697,79.11217423272319 18.72784810140729,83.01736821373925 22.145569620653987,83.88518844684586 36.84177215024829,83.45127835916355 43.67721519060433,82.58345800847746 45.04430379718542,81.71563741983846 46.75316455587745,82.14954774361104 58.71518987417221,81.2817270362284 67.25949367135763,82.58345800847746 80.93037974648178,81.2817270362284 84.68987341783941,79.97999553242698 87.42405063286424,77.37653092318214 90.15822784975171,71.30177187593654 89.13291139155626,63.92526313709095 86.39873417839408,59.586132353171706 81.61392405070364,56.982651038328186 75.80379746854305,56.54873727960512 69.65189873427153,58.284391961526126 68.28481012582779,57.41656473977491 57.68987341783941,56.54873727960512 52.90506329201162,57.85047838045284 46.069620253518224,56.982651038328186 44.70253164507449,58.284391961526126 41.284810127690434,57.41656473977491 37.86708860844374,58.71830548509024 35.4746835436672,57.41656473977491 34.10759493522346,58.284391961526126 28.639240507036448,58.284391961526126 27.27215189859271,58.71830548509024 21.12025316245854,59.15221894928254 17.702531645074487,60.45395898446441 14.28481012582779,63.05743745435029 11.892405062913895,67.39656350016594 11.208860760554671,71.30177187593654 11.208860760554671,75.64088666555472 11.892405062913895,77.37653092318214 15.651898732408881,80.84781659487635 19.753164555877447,83.01736821373925 22.829113924875855,82.58345800847746 27.613924050703645,83.88518844684586 31.031645569950342,83.01736821373925 41.284810127690434,83.01736821373925 48.80379746854305,81.71563741983846 58.03164556995034,82.58345800847746 63.5,81.71563741983846 79.22151898778975,81.2817270362284 82.98101265914738,80.4139060927555 87.08227848261595,77.81044183974154 89.47468354552984,73.90524146147072 90.15822784975171,71.30177187593654 89.47468354552984,69.56612430117093 89.81645569577813,67.83047577808611 89.47468354552984,64.7930885835085 86.39873417839408,60.02004569885321 82.6392405051738,57.41656473977491 79.22151898778975,56.54873727960512 75.80379746854305,56.11482346081175 71.3607594948262,57.41656473977491 64.18354430422187,56.54873727960512 63.5,56.982651038328186 58.71518987417221,56.54873727960512 55.6392405051738,57.41656473977491 47.77848101221025,57.41656473977491 44.01898734085262,58.284391961526126 39.57594936713576,57.85047838045284 37.5253164563328,58.71830548509024 31.71518987417221,56.982651038328186 20.09493670798838,58.71830548509024 14.28481012582779,63.05743745435029 11.892405062913895,68.69830015813932 11.550632908940315,71.73568362137303 12.234177215024829,76.94261994794942 14.968354430049658,80.84781659487635 20.77848101221025,83.88518844684586 25.56329113803804,83.45127835916355 29.32278480939567,83.88518844684586 34.79113923944533,83.01736821373925 36.5,83.45127835916355 42.651898734271526,83.88518844684586 45.727848099544644,82.58345800847746 64.86708860658109,81.71563741983846 70.3354430384934,80.4139060927555 78.19620253145695,80.84781659487635 84.34810126572847,79.11217423272319 87.08227848261595,76.50870891381055 89.81645569577813,72.60350693482906 89.81645569577813,67.39656350016594 88.1075949370861,62.18961153528653 85.03164556995034,58.71830548509024 78.19620253145695,55.68090958194807 70.3354430384934,56.982651038328186 65.8924050629139,56.11482346081175 47.436708860099316,58.284391961526126 43.67721519060433,57.85047838045284 39.91772151738405,58.284391961526126 33.42405063286424,56.982651038328186 29.32278480939567,58.71830548509024 26.246835442259908,57.41656473977491 24.879746835678816,57.85047838045284 18.38607594743371,60.45395898446441 14.968354430049658,62.62352452427149 12.234177215024829,67.39656350016594 11.208860760554671,71.73568362137303 11.892405062913895,74.77306418097578 13.259493671357632,77.37653092318214 14.626582277938724,78.67826349334791 14.968354430049658,80.4139060927555 17.702531645074487,82.58345800847746 23.170886075124145,84.31909847375937 44.70253164507449,82.14954774361104 46.41139240562916,83.01736821373925 57.68987341783941,83.88518844684586 71.01898734085262,83.01736821373925 75.12025316432118,83.45127835916355 80.24683544412255,83.01736821373925 86.05696202628314,79.11217423272319 89.13291139155626,73.90524146147072 89.81645569577813,71.73568362137303 90.15822784975171,68.26438799849711 88.4493670873344,62.62352452427149 85.37341772206128,58.71830548509024 81.61392405070364,56.11482346081175 76.82911392301321,54.81308164796792 69.99367088638246,55.68090958194807 65.20886075869203,55.24699564417824 61.791139241307974,56.11482346081175 60.08227848261595,55.24699564417824 51.879746835678816,56.54873727960512 47.09493670985103,55.24699564417824 40.25949367135763,56.982651038328186 26.930379746481776,56.982651038328186 24.53797468356788,57.85047838045284 21.46202531643212,57.41656473977491 17.702531645074487,59.15221894928254 13.943037973716855,63.05743745435029 11.208860760554671,67.39656350016594 11.208860760554671,73.0374185028486 11.892405062913895,76.50870891381055 15.99367088638246,81.71563741983846 22.829113924875855,84.31909847375937 27.95569620281458,83.45127835916355 34.44936708919704,83.88518844684586 39.23417721502483,82.58345800847746 42.99367088638246,82.58345800847746 54.613924050703645,83.01736821373925 64.5253164563328,82.14954774361104 70.67721518874168,82.14954774361104 72.38607594929636,81.2817270362284 75.12025316432118,82.14954774361104 79.22151898778975,81.71563741983846 84.68987341783941,79.97999553242698 89.13291139155626,76.07479781913571 89.81645569577813,73.90524146147072 90.15822784975171,70.00003628316335 89.13291139155626,65.22700121835805 87.76582278497517,61.755698485765606 85.37341772206128,59.586132353171706 79.56329113990068,56.54873727960512 74.43670886196196,56.54873727960512 72.38607594929636,56.982651038328186 69.65189873427153,56.11482346081175 67.25949367135763,56.982651038328186 52.22151898778975,58.71830548509024 46.41139240562916,57.41656473977491 42.31012658216059,58.71830548509024 40.25949367135763,58.71830548509024 36.84177215024829,57.41656473977491 32.398734176531434,58.71830548509024 28.639240507036448,57.85047838045284 24.879746835678816,59.586132353171706 21.803797468543053,58.71830548509024 16.677215188741684,61.755698485765606 13.943037973716855,65.66091379267164 12.575949367135763,69.13221226003952 12.234177215024829,73.47133001126349 12.917721519246697,77.81044183974154 14.968354430049658,80.84781659487635 17.702531645074487,83.01736821373925 21.803797468543053,83.88518844684586 35.4746835436672,82.58345800847746 44.70253164507449,83.01736821373925 48.120253164321184,82.58345800847746 54.95569620281458,83.45127835916355 58.71518987417221,82.58345800847746 62.4746835436672,83.01736821373925 78.19620253145695,81.71563741983846 83.66455696336925,79.97999553242698 85.37341772206128,78.2443526959978 88.1075949370861,75.20697545376606 89.47468354552984,70.00003628316335 89.13291139155626,65.66091379267164 87.42405063286424,61.32178537780419 82.29746835492551,57.41656473977491 68.96835443004966,56.11482346081175 58.03164556995034,57.85047838045284 54.95569620281458,57.41656473977491 54.27215189859271,57.85047838045284 49.48734177276492,57.41656473977491 46.069620253518224,59.15221894928254 42.31012658216059,57.85047838045284 37.86708860844374,59.15221894928254 35.81645569577813,58.284391961526126 25.221518985927105,59.586132353171706 20.77848101221025,59.15221894928254 17.702531645074487,60.8878722100053 12.917721519246697,65.22700121835805 11.892405062913895,66.96265116194263 11.550632908940315,72.60350693482906 12.234177215024829,75.20697545376606 17.360759492963552,81.2817270362284 20.77848101221025,82.58345800847746 28.981012657284737,83.45127835916355 31.373417722061276,82.58345800847746 38.55063291080296,83.45127835916355 52.22151898778975,83.01736821373925 54.95569620281458,82.14954774361104 59.74050632864237,83.01736821373925 66.23417721688747,82.14954774361104 67.9430379755795,82.58345800847746 78.87974683567882,82.14954774361104 82.29746835492551,80.84781659487635 85.37341772206128,79.11217423272319 88.4493670873344,75.64088666555472 89.47468354552984,70.43394820694812 89.13291139155626,65.22700121835805 86.39873417839408,60.45395898446441 81.95569620281458,56.982651038328186 72.72784810140729,56.54873727960512 57.348101265728474,57.85047838045284 53.930379746481776,56.982651038328186 49.82911392301321,57.85047838045284 31.031645569950342,57.41656473977491 20.77848101221025,59.15221894928254 14.968354430049658,62.62352452427149 11.892405062913895,68.26438799849711 11.208860760554671,73.0374185028486 12.234177215024829,76.94261994794942 14.626582277938724,80.4139060927555 19.069620253518224,83.01736821373925 24.53797468356788,83.88518844684586 38.892405062913895,83.01736821373925 44.01898734085262,81.71563741983846 63.841772152110934,81.71563741983846 69.65189873427153,80.84781659487635 71.3607594948262,81.71563741983846 78.87974683567882,81.71563741983846 84.00632911361754,79.546084912261 88.79113924130797,73.90524146147072 89.13291139155626,72.60350693482906 89.47468354552984,66.52873876458034 87.42405063286424,62.18961153528653 84.00632911361754,58.71830548509024 81.61392405070364,57.85047838045284 80.24683544412255,56.982651038328186 76.14556962065399,56.982651038328186 71.3607594948262,57.41656473977491 66.91772152110934,56.982651038328186 55.98101265728474,58.284391961526126 42.651898734271526,57.41656473977491 41.284810127690434,58.284391961526126 34.79113923944533,58.284391961526126 30.689873417839408,57.85047838045284 18.72784810140729,60.02004569885321 17.018987342715263,60.8878722100053 12.917721519246697,65.22700121835805 11.550632908940315,69.13221226003952 11.208860760554671,73.0374185028486" stroke="#4DD2FF" stroke-linecap="round" stroke-linejoin="round" stroke-width="0.5"><title>2025-01-20 5.1km</title><desc>13404470269</desc></polyline></svg>