<?xml version="1.0" encoding="utf-8" ?>
<svg baseProfile="full" height="130mm" version="1.1" viewBox="0,0,100,130" width="100mm" xmlns="http://www.w3.org/2000/svg" xmlns:ev="http://www.w3.org/2001/xml-events" xmlns:xlink="http://www.w3.org/1999/xlink"><defs /><rect fill="#FAF9F5" height="130" width="100" x="0" y="0" /><text fill="#5A5A5A" style="font-size:6px; font-family:Arial; font-weight:bold;color:#0ed45e;" x="5" y="10">Morning Run</text><text fill="#5A5A5A" style="font-size:4px; font-family:Arial" x="5" y="121">Runner</text><text fill="#5A5A5A" style="font-size:6px; font-family:Arial" x="2" y="128">蓝皮书</text><text fill="#5A5A5A" style="font-size:4px; font-family:Arial" x="25" y="121">WORKOUTS INFO</text><text fill="#5A5A5A" style="font-size:3px; font-family:Arial" x="25" y="125">Type: Run</text><text fill="#5A5A5A" style="font-size:3px; font-family:Arial" x="22" y="129">Date: 2025-06-14</text><text fill="#5A5A5A" style="font-size:3px; font-family:Arial" x="47" y="125">Distance: 1.00 km</text><text fill="#5A5A5A" style="font-size:3px; font-family:Arial" x="47" y="129">Duration: 09:48min</text><text fill="#5A5A5A" style="font-size:3px; font-family:Arial" x="75" y="125">Pace: 9:45/km</text><text fill="#5A5A5A" style="font-size:3px; font-family:Arial" x="75" y="129">Elevation: 4m</text><polyline fill="none" points="16.34254378126934,29.5 17.08226809417829,30.18070073222043 17.716317504644394,30.18070073222043 18.13901711208746,30.58912093989784 18.984416326507926,31.814380521245766 19.090091228019446,32.358939832949545 18.984416326507926,32.76735911454307 19.090091228019446,33.039638538553845 19.51279083499685,33.58419715607306 20.358190049417317,34.26489499327727 20.358190049417317,35.21787115512416 20.78088965686038,35.49014988500858 21.309264165349305,36.30698561074678 22.366013183724135,36.98768151807599 23.317087299656123,37.123820641834754 24.16248651361093,38.07679396669846 24.373836317565292,38.75748861965258 24.690861022565514,39.30204399494687 24.796535924542695,39.982737779500894 25.853284942451864,41.071846831182484 25.958959844429046,42.024816238554195 26.48733435291797,43.25006123021012 27.015708861872554,43.93075221613981 27.227058665361255,44.747580763010774 27.966782978270203,45.1559947761707 28.70650729071349,46.245097961858846 30.29163081711158,47.470337568665855 31.876754343975335,49.240125352866016 33.039178263861686,51.690595362568274 33.77890257677063,52.371280366554856 34.20160218374804,53.18810173450038 34.62430179072544,53.46037536941003 35.15267629921436,54.549469137738924 36.632124924100935,56.591516623913776 37.2661743350327,56.863789294380695 38.32292335294187,57.68060684140073 38.639948058407754,58.08901535475161 38.534273156896234,58.76969582395395 38.21724845143035,58.76969582395395 38.00589864794165,59.17810387373902 40.225071584805846,62.309226487297565 40.225071584805846,62.98990396532463 41.70452021015808,64.48739271936938 43.18396883551031,63.67058096110122 42.76126922806725,63.67058096110122 42.86694413004443,64.35125747474376 43.7123433444649,65.98487913858844 43.9236931479536,66.25714914588025 44.346392754931,66.3932841202477 44.24071785295382,67.48236322280718 44.663417460396886,68.16303703468293 44.663417460396886,68.29917173896683 46.45989079074934,70.0689211419085 48.150689219124615,71.02186177711701 48.2563641211018,71.56639885850018 48.150689219124615,71.83866728306748 49.101763335522264,72.79160616220906 49.207438237033784,73.20000824984163 49.63013784401119,73.74454409623286 50.89823666587472,74.83361486258218 51.84931078180671,75.24201608198928 52.27201038878411,75.92268439428881 52.800384897738695,76.3310851501301 52.800384897738695,76.60335222433787 52.58903509378433,76.19495158421341 52.906059799250215,76.73948573227972 53.01173470169306,77.28401957196184 53.64578411215916,77.96468643750995 54.068483719136566,78.91761923854938 54.80820803204551,79.32601872086525 55.5479323444888,80.41508315858664 58.82385430019349,83.4100039943587 59.669253514148295,84.90746090974426 59.880603317637,86.67717970936792 60.19762802263722,86.4049154908862 60.19762802263722,86.67717970936792 61.14870213903487,87.35783991758944 61.36005194252357,88.4468952480238 62.83950056741014,89.67208101844881 63.89624958578497,91.85018519562436 65.2700233082287,92.80310421989998 67.172171541024,95.66185562068131 67.172171541024,96.75090153474594 68.0175707549788,97.56768516026204 68.65162016591057,97.70381569699384 68.96864487137645,98.92898965906352 69.60269428184256,98.92898965906352 70.02539388928562,99.60964118526317 70.44809349626303,99.88190166011918 71.08214290672913,100.01803186861798 71.61051741568372,101.3793328947504 72.66726643405855,102.87676179496339 72.66726643405855,103.82966987928376 75.62616368383169,106.28000061260536 77.21128721022978,107.91355096193729 77.10561230871826,109.00258298497647 77.31696211267263,109.5470985333668 76.99993740674108,110.5 80.69855896942317,109.41096967528574 80.48720916546881,109.41096967528574 80.48720916546881,109.13871190068312 80.27585936244577,109.41096967528574 80.59288406791165,109.5470985333668 80.38153426395729,109.5470985333668 80.8042338709347,109.5470985333668 80.06450955849141,109.81935619184515 80.48720916546881,109.68322737200651 80.59288406791165,109.27484079770511 82.60070720175281,109.13871190068312 83.65745621919632,108.7303250952391" stroke="#4DD2FF" stroke-linecap="round" stroke-linejoin="round" stroke-width="0.5"><title>2025-06-14 1.00km</title><desc>14790994327</desc></polyline></svg>