<?xml version="1.0" encoding="utf-8" ?>
<svg baseProfile="full" height="130mm" version="1.1" viewBox="0,0,100,130" width="100mm" xmlns="http://www.w3.org/2000/svg" xmlns:ev="http://www.w3.org/2001/xml-events" xmlns:xlink="http://www.w3.org/1999/xlink"><defs /><rect fill="#FAF9F5" height="130" width="100" x="0" y="0" /><text fill="#5A5A5A" style="font-size:6px; font-family:Arial; font-weight:bold;color:#0ed45e;" x="5" y="10">阈值1k*3</text><text fill="#5A5A5A" style="font-size:4px; font-family:Arial" x="5" y="121">Runner</text><text fill="#5A5A5A" style="font-size:6px; font-family:Arial" x="2" y="128">蓝皮书</text><text fill="#5A5A5A" style="font-size:4px; font-family:Arial" x="25" y="121">WORKOUTS INFO</text><text fill="#5A5A5A" style="font-size:3px; font-family:Arial" x="25" y="125">Type: Run</text><text fill="#5A5A5A" style="font-size:3px; font-family:Arial" x="22" y="129">Date: 2025-08-29</text><text fill="#5A5A5A" style="font-size:3px; font-family:Arial" x="47" y="125">Distance: 5.01 km</text><text fill="#5A5A5A" style="font-size:3px; font-family:Arial" x="47" y="129">Duration: 30:34min</text><text fill="#5A5A5A" style="font-size:3px; font-family:Arial" x="75" y="125">Pace: 6:06/km</text><text fill="#5A5A5A" style="font-size:3px; font-family:Arial" x="75" y="129">Elevation: 55m</text><polyline fill="none" points="11.533472804352641,71.29087636084296 12.88912133872509,77.31480060424656 16.617154812440276,80.75703786034137 21.023012552410364,82.90843423549086 25.428870294243097,82.04787586140446 27.801255229860544,82.47815507790074 31.868200838565826,81.6175965864677 35.93514644354582,82.47815507790074 44.06903765909374,82.04787586140446 50.16945606842637,82.90843423549086 62.70920502208173,81.18731725192629 67.11506276391447,81.6175965864677 73.55439330637455,80.75703786034137 77.96025104820728,81.18731725192629 81.01046025194228,81.18731725192629 85.75523012690246,76.88452068320476 89.14435146562755,72.58171823923476 90.1610878687352,70.00003395276144 90.1610878687352,66.98806628049351 89.48326360061765,65.26694060419686 87.11087866313756,61.39440439408645 81.34937238693237,57.09158080234192 73.893305439502,55.80073257978074 71.85983263887465,56.66129812086001 62.37029288709164,56.231015380471945 61.692468620836735,57.09158080234192 59.99790795147419,57.09158080234192 53.21966527402401,56.231015380471945 48.13598326407373,56.66129812086001 40.341004183515906,56.231015380471945 22.378661088645458,57.52186342678033 19.667364018037915,59.673275662818924 16.27824267745018,60.9641222988721 14.58368200995028,62.68525032605976 11.533472804352641,68.27890992187895 10.855648536235094,70.43031481467187 11.872384939342737,76.0239606644027 12.550209205597639,77.7450804670807 15.600418411195278,81.6175965864677 20.006276151165366,84.19927135528997 54.914225943386555,82.04787586140446 61.01464435271919,82.47815507790074 68.80962343141437,82.04787586140446 70.16527196764946,81.6175965864677 78.29916318133473,82.04787586140446 82.02719665318727,80.75703786034137 85.41631799377501,78.1753602703102 89.14435146562755,73.01199874817394 89.48326360061765,67.84862876613624 88.8054393325001,65.26694060419686 84.73849372565746,60.53384014614858 82.36610878817737,58.81271094409749 77.96025104820728,57.09158080234192 70.843096235767,57.09158080234192 68.47071129828691,55.80073257978074 54.914225943386555,57.09158080234192 53.89748954027891,57.52186342678033 51.18619246967137,57.09158080234192 43.73012552410364,57.52186342678033 42.71338912285864,57.09158080234192 35.257322177290916,59.24299333314411 30.851464435458183,58.81271094409749 26.784518828615546,57.09158080234192 23.734309624880552,57.52186342678033 15.939330544322729,60.10355793428607 13.566945606842637,63.54581398726441 11.19456067122519,69.13947205548175 11.533472804352641,73.01199874817394 12.550209205597639,76.0239606644027 12.550209205597639,78.1753602703102 14.244769874960184,81.18731725192629 17.294979080557823,82.47815507790074 27.123430963605642,83.33871333370917 39.32426778227091,82.04787586140446 48.474895399063826,82.90843423549086 56.94769874587655,81.6175965864677 63.04811715707183,81.6175965864677 66.43723849579692,82.47815507790074 76.60460251197219,82.04787586140446 82.70502092130482,80.75703786034137 84.73849372565746,79.0359197021462 87.78870292939246,74.73312019463629 88.8054393325001,71.72115704556927 89.14435146562755,69.13947205548175 88.12761506438255,64.83665903750807 83.72175732441247,59.24299333314411 79.65481171570718,57.9521459909156 72.53765690512955,56.66129812086001 56.608786610886455,57.52186342678033 51.18619246967137,56.231015380471945 47.11924686282873,56.66129812086001 41.35774058662355,56.231015380471945 37.62970711290836,57.09158080234192 24.751046024262905,57.09158080234192 18.989539748057723,58.81271094409749 15.261506276205182,62.25496840802953 12.88912133872509,66.98806628049351 12.211297070607543,70.86059561767615 13.228033473715186,76.88452068320476 13.905857741832733,78.60564001486637 16.617154812440276,81.18731725192629 21.36192468740046,83.33871333370917 35.93514644354582,82.90843423549086 40.341004183515906,82.04787586140446 51.864016737788916,82.47815507790074 58.98117155022919,82.04787586140446 68.13179916515946,82.90843423549086 74.5711297094822,82.90843423549086 81.34937238693237,81.18731725192629 84.73849372565746,79.46619932982139 86.09414226002991,77.7450804670807 88.46652719751,73.87255959003232 88.8054393325001,68.27890992187895 87.78870292939246,64.40637741307728 85.75523012690246,61.82468642992899 82.36610878817737,59.24299333314411 66.77615062892437,55.80073257978074 56.94769874587655,56.66129812086001 52.54184100404382,57.52186342678033 50.84728033468127,57.09158080234192 46.10251045972109,57.9521459909156 42.37447698786855,57.09158080234192 35.93514644354582,58.38242849614471 28.817991632968187,57.9521459909156 21.700836818665266,58.38242849614471 16.617154812440276,60.53384014614858 13.228033473715186,66.12750355922617 12.550209205597639,70.43031481467187 12.550209205597639,74.73312019463629 13.566945606842637,76.88452068320476 16.956066947430372,80.75703786034137 18.650627616792917,81.6175965864677 22.039748953655362,82.47815507790074 30.512552302330732,82.90843423549086 35.257322177290916,82.04787586140446 45.76359832845628,82.47815507790074 49.491631800308824,83.33871333370917 55.93096234463155,82.47815507790074 62.37029288709164,82.90843423549086 68.13179916515946,82.04787586140446 70.50418410077691,82.90843423549086 75.92677824385464,81.6175965864677 79.99372385069728,82.04787586140446 83.04393305629492,78.1753602703102 84.39958159066737,78.1753602703102 86.43305439502001,77.31480060424656 89.14435146562755,71.72115704556927 88.46652719751,67.4183475531172 87.78870292939246,66.98806628049351 86.7719665300101,62.68525032605976 84.73849372565746,60.53384014614858 84.39958159066737,59.24299333314411 77.62133891507983,55.37044972111471 73.2154811732471,55.37044972111471 71.18200836889446,56.231015380471945 69.48744769953191,55.80073257978074 58.98117155022919,57.09158080234192 55.59205020964146,56.66129812086001 53.558577405288815,57.52186342678033 42.37447698786855,57.09158080234192 35.59623431041837,57.9521459909156 33.56276150792837,58.81271094409749 30.512552302330732,57.9521459909156 24.751046024262905,58.81271094409749 22.039748953655362,58.38242849614471 17.294979080557823,60.53384014614858 13.905857741832733,64.83665903750807 13.228033473715186,66.5577849491965 12.550209205597639,73.87255959003232 13.566945606842637,78.1753602703102 14.58368200995028,79.46619932982139 17.63389121554792,81.6175965864677 22.378661088645458,83.33871333370917 42.03556485287845,82.47815507790074 51.18619246967137,82.90843423549086 72.19874477013946,81.18731725192629 76.26569037698209,81.6175965864677 81.34937238693237,81.6175965864677 84.73849372565746,79.0359197021462 87.11087866313756,76.45424070395529 88.46652719751,72.58171823923476 89.14435146562755,68.70919101731852 87.449790796265,63.97609572857618 85.07740585878491,60.9641222988721 81.34937238693237,57.52186342678033 77.96025104820728,56.231015380471945 75.92677824385464,56.231015380471945 72.19874477013946,57.09158080234192 67.79288703016937,56.231015380471945 60.67573221772909,57.09158080234192 58.98117155022919,55.80073257978074 57.28661088086665,56.231015380471945 53.21966527402401,56.231015380471945 49.830543933436275,57.52186342678033 46.10251045972109,56.66129812086001 42.71338912285864,56.231015380471945 37.96861924789846,57.9521459909156 32.20711297169328,57.09158080234192 28.479079499840736,57.9521459909156 18.989539748057723,57.9521459909156 16.27824267745018,60.9641222988721 12.88912133872509,66.5577849491965 12.88912133872509,72.15143767208792 13.905857741832733,77.7450804670807 15.600418411195278,79.89647889882326 18.31171548180282,81.6175965864677 24.751046024262905,83.33871333370917 35.93514644354582,82.04787586140446 40.0020920522511,82.47815507790074 46.78033472970128,81.6175965864677 51.18619246967137,82.04787586140446 60.67573221772909,81.18731725192629 64.06485355831683,82.04787586140446 69.14853556454182,81.18731725192629 72.19874477013946,81.6175965864677 77.62133891507983,80.75703786034137 78.97698744758964,81.18731725192629 82.36610878817737,80.75703786034137 85.75523012690246,78.60564001486637 88.12761506438255,73.87255959003232 88.8054393325001,69.13947205548175 87.449790796265,64.40637741307728 83.38284518942237,57.9521459909156 78.97698744758964,57.09158080234192 77.96025104820728,56.231015380471945 72.876569038257,56.66129812086001 67.11506276391447,56.231015380471945 62.031380753964186,57.52186342678033 55.59205020964146,57.09158080234192 51.864016737788916,58.38242849614471 46.78033472970128,58.81271094409749 40.679916318506,57.52186342678033 20.684100419282913,58.81271094409749 18.650627616792917,59.673275662818924 16.617154812440276,61.82468642992899 13.905857741832733,66.12750355922617 13.228033473715186,69.56975303357467 13.566945606842637,75.5936805664096 15.939330544322729,80.32675840845332 23.3953974917531,83.76899237465113 35.257322177290916,82.90843423549086 43.73012552410364,83.33871333370917 72.53765690512955,81.6175965864677 82.02719665318727,81.6175965864677 87.11087866313756,78.60564001486637 89.14435146562755,74.73312019463629 90.5,70.86059561767615 89.48326360061765,66.12750355922617 87.449790796265,62.25496840802953 84.73849372565746,59.24299333314411 79.99372385069728,56.231015380471945 71.85983263887465,55.37044972111471 67.11506276391447,56.66129812086001 62.70920502208173,55.80073257978074 61.35355648584664,56.66129812086001 58.303347282111645,56.231015380471945 51.18619246967137,57.52186342678033 48.13598326407373,57.09158080234192 44.06903765909374,57.52186342678033 36.95188284665346,56.231015380471945 23.734309624880552,55.37044972111471 16.956066947430372,57.9521459909156 13.566945606842637,60.10355793428607 9.838912134990096,68.27890992187895 9.5,72.15143767208792 10.855648536235094,78.60564001486637 12.211297070607543,79.89647889882326 15.600418411195278,82.90843423549086 30.17364016920328,83.76899237465113 33.90167364105582,82.47815507790074 40.341004183515906,82.90843423549086 44.06903765909374,82.04787586140446 48.81380753405392,83.33871333370917 54.23640167526901,83.76899237465113 58.98117155022919,82.90843423549086 65.75941422767937,83.33871333370917 74.5711297094822,82.04787586140446 78.63807531632483,82.47815507790074 83.04393305629492,81.18731725192629 86.7719665300101,77.31480060424656 89.8221757337451,72.58171823923476 90.5,68.70919101731852 90.1610878687352,66.98806628049351 88.46652719751,63.11553218541667 85.75523012690246,60.53384014614858 79.99372385069728,57.09158080234192 73.2154811732471,55.37044972111471 67.79288703016937,56.66129812086001 55.253138076514006,57.9521459909156 43.052301255986094,57.09158080234192 37.29079497978091,58.38242849614471 28.14016736485064,57.52186342678033 20.684100419282913,58.38242849614471 16.27824267745018,60.9641222988721 14.922594143077731,62.68525032605976 13.566945606842637,67.84862876613624 11.872384939342737,71.72115704556927 11.872384939342737,73.4422791977413 14.58368200995028,79.89647889882326 18.31171548180282,83.33871333370917 20.684100419282913,84.19927135528997 24.073221758008003,84.62955027888529 33.223849372938275,82.90843423549086 37.62970711290836,82.90843423549086 40.0020920522511,83.76899237465113 47.11924686282873,82.90843423549086 53.558577405288815,84.62955027888529 56.94769874587655,83.33871333370917 61.01464435271919,83.33871333370917 75.92677824385464,82.90843423549086 82.36610878817737,81.6175965864677 86.7719665300101,77.31480060424656 89.14435146562755,72.58171823923476 88.8054393325001,68.27890992187895 87.78870292939246,64.83665903750807 84.39958159066737,60.53384014614858 80.33263598568738,57.52186342678033 71.85983263887465,56.231015380471945 66.77615062892437,57.52186342678033 42.03556485287845,57.09158080234192 37.96861924789846,57.9521459909156 25.76778242737055,57.52186342678033 21.700836818665266,58.38242849614471 18.31171548180282,60.9641222988721 13.905857741832733,66.12750355922617 13.228033473715186,66.12750355922617 12.88912133872509,66.5577849491965 13.228033473715186,67.84862876613624 12.550209205597639,72.15143767208792 12.550209205597639,75.16340041067451 13.905857741832733,78.60564001486637 15.261506276205182,80.32675840845332 19.32845188304782,82.90843423549086 24.073221758008003,83.76899237465113 35.93514644354582,82.47815507790074 36.612970711663365,82.90843423549086" stroke="#4DD2FF" stroke-linecap="round" stroke-linejoin="round" stroke-width="0.5"><title>2025-08-29 5.01km</title><desc>15621056387</desc></polyline></svg>