<?xml version="1.0" encoding="utf-8" ?>
<svg baseProfile="full" height="130mm" version="1.1" viewBox="0,0,100,130" width="100mm" xmlns="http://www.w3.org/2000/svg" xmlns:ev="http://www.w3.org/2001/xml-events" xmlns:xlink="http://www.w3.org/1999/xlink"><defs /><rect fill="#FAF9F5" height="130" width="100" x="0" y="0" /><text fill="#5A5A5A" style="font-size:6px; font-family:Arial; font-weight:bold;color:#0ed45e;" x="5" y="10">登岱王山</text><text fill="#5A5A5A" style="font-size:4px; font-family:Arial" x="5" y="121">Runner</text><text fill="#5A5A5A" style="font-size:6px; font-family:Arial" x="2" y="128">蓝皮书</text><text fill="#5A5A5A" style="font-size:4px; font-family:Arial" x="25" y="121">WORKOUTS INFO</text><text fill="#5A5A5A" style="font-size:3px; font-family:Arial" x="25" y="125">Type: Hike</text><text fill="#5A5A5A" style="font-size:3px; font-family:Arial" x="22" y="129">Date: 2025-06-25</text><text fill="#5A5A5A" style="font-size:3px; font-family:Arial" x="47" y="125">Distance: 6.13 km</text><text fill="#5A5A5A" style="font-size:3px; font-family:Arial" x="47" y="129">Duration: 01:30:25</text><text fill="#5A5A5A" style="font-size:3px; font-family:Arial" x="75" y="125">Pace: 14:44/km</text><text fill="#5A5A5A" style="font-size:3px; font-family:Arial" x="75" y="129">Elevation: 326m</text><polyline fill="none" points="78.35078643611632,110.3327760414395 76.4047106122598,110.44425868801773 71.09723109193146,109.6638795354811 69.01846828009002,109.71962095191702 66.98393446393311,109.44091379462043 64.72825566795655,109.05072346088127 62.38411887991242,108.6605327615398 59.55346313607879,108.32608329961658 57.87276128795929,108.10311684251064 56.32474642782472,107.93589192119543 54.55558658787049,107.88015026575886 52.07876281184144,107.60144187731203 49.07119108387269,107.21124981963658 47.87700819200836,106.9325409833109 45.621329395798966,106.70957377986633 45.48864240781404,106.26363901485456 45.267497427994385,104.87008979573147 44.55983349191956,102.25020463735564 45.355955419829115,100.35495828918647 46.550138311926275,98.06950268955552 47.70009220787324,94.4461937113083 48.62890112400055,92.99686129111797 47.03665726794861,90.87859714005026 47.43471823190339,89.98669322064961 48.18661116389558,90.09818131505745 48.71735911583528,90.2654134008917 50.66343493992463,90.2654134008917 51.19418289186433,89.2620198794466 50.309602971887216,86.25182480594958 50.08845799183473,84.41225043570739 49.69039702787995,83.24160796799697 51.01726690796204,82.90713808705914 51.68070184788667,82.18245242297417 52.255678795976564,80.9003131580248 52.47682377579622,80.4543507489434 52.65373975993134,79.8968970659771 51.90184682793915,79.28369715248118 50.70766393584199,76.99812588180066 51.68070184788667,74.09933451379766 52.38836578396149,72.92866304761264 53.361403696006164,72.76142399790115 57.65161630790681,72.3154528705345 61.6764549438376,71.25626952806488 64.24173671216704,70.92179001806653 65.03785864007659,70.25283019177732 65.70129358000122,70.64305688775494 65.9224385600537,70.64305688775494 67.20507944421843,70.58731023941073 68.22234635194764,70.19708349101711 69.06269727624021,69.80685637693387 69.94727719575167,69.63961607334204 71.00877310009673,68.91490731426165 73.48559687612578,66.0718069228169 74.76823776005767,64.62237572137383 75.96242065215483,60.27405183779774 74.3701767961029,57.486640843359055 72.64524595206603,55.869933914917056 70.47802514815703,54.58771361040999 68.66463631205261,54.30896954337368 66.32049952400848,53.86297864775406 65.39169060788117,53.58423409546958 64.28596570831724,53.02674443091382 63.62253076815978,52.859497385972645 62.38411887991242,52.41350493734353 60.791875023860484,51.521518607158214 59.597692131996155,51.63301700283773 59.951524100033566,51.521518607158214 59.774608115898445,51.63301700283773 59.90729510388337,51.74451536903507 59.951524100033566,51.521518607158214 58.845799199771136,52.30200675074593 58.62465421995148,52.13475941462093 57.34201333578676,51.80026454071049 56.72280739201233,52.190508534084074 54.644044579938054,52.41350493734353 54.11329662799835,52.35775584774092 52.96334273181856,52.58075216165162 51.6364728519693,52.859497385972645 50.66343493992463,52.91524640843272 49.778855019947514,53.138242423621705 48.850046104053035,53.58423409546958 48.850046104053035,53.58423409546958 48.40775614394806,53.58423409546958 48.40775614394806,53.97447641659528 48.584672127850354,53.86297864775406 48.3192981518805,52.58075216165162 49.292336063692346,48.90129770824569 49.07119108387269,48.00930385204265 48.23084016004577,46.448310004372615 48.00969517999329,45.50056088389829 47.832779195858166,45.054560551128816 47.567405219888315,44.32980899116956 46.99242827179842,43.493555623223074 47.03665726794861,43.103303476644214 47.34626023983583,42.15554674025043 47.78855019970797,41.98829532740638 48.14238216774538,42.21129719633609 48.00969517999329,42.21129719633609 48.09815317206085,42.37854851948214 48.584672127850354,42.15554674025043 48.761588111985475,41.876794348383555 49.203878071857616,41.15203725564061 49.38079405599274,40.87328419156256 47.832779195858166,42.21129719633609 47.87700819200836,41.93254484163481 48.09815317206085,41.486540686019 46.32899333187379,39.81402084615547 46.06361935590394,38.64325295979506 45.179039435926825,37.08222398895305 43.984856543829665,36.91497053776402 43.63102457579225,36.74771701928694 43.807940559927374,36.636214636440855 44.02908553974703,35.911448419094086 44.33868851209991,35.130929543141974 44.69252047990449,33.235377608187264 44.60406248783693,32.78936413358315 44.47137550008483,32.12034302583197 43.719482567859814,31.284065128915245 42.92336063995026,29.890264900313923 42.39261268777773,29.66725643063546 41.331116783898324,29.66725643063546 40.71191083989106,30.11327325043385 40.35807887185365,30.224777380761225 39.87155991583131,30.447785551747074 39.5177279477939,30.392033520300174 39.208124975673854,30.615041601704434 39.119666983839124,30.89380153521779 38.9869799958542,30.78229758425732 38.67737702373415,31.339817040861817 38.23508706386201,31.674328356515616 37.8812550958246,32.343350181152346 37.43896513571963,32.4548537140945 37.21782015589997,32.56635721711791 35.97940826788545,32.95661924246815 36.24478224362247,32.95661924246815 36.33324023569003,32.62210895752651 36.77553019602783,32.51060546937515 36.11209525587037,32.51060546937515 36.24478224362247,33.012370930664474 35.1390573438257,32.62210895752651 34.82945437170565,32.7336124155845 34.65253838780336,33.346880902012344 34.696767383720726,33.29112925878144 34.74099637963809,33.40263253782177 34.696767383720726,33.29112925878144 34.74099637963809,33.12387428418151 34.47562240390107,33.73714219557587 34.608309391885996,33.79289377911482 34.03333244402893,34.40616070484975 33.59104248392396,35.35393508546986 32.83914955193177,36.35745854824199 32.66223356779665,36.46896100585582 32.66223356779665,36.636214636440855 32.70646256394684,36.636214636440855 32.131485615856946,36.91497053776402 31.91034063580446,36.97072169574676 31.335363687947392,36.46896100585582 31.379592683864757,36.35745854824199 31.114218707894906,36.07870227351668 30.98153171990998,36.02295099623734 30.495012763654813,35.799945812119404 30.185409791767597,35.576940508559346 30.096951799467206,35.242432329192525 29.78734882781282,36.91497053776402 30.71615774394013,36.134453543345444 31.06998971174471,36.02295099623734 30.937302723759785,36.07870227351668 30.98153171990998,36.35745854824199 30.937302723759785,36.35745854824199 30.98153171990998,36.35745854824199 30.937302723759785,36.245956060884055 31.202676699962467,36.07870227351668 31.15844770381227,36.30170730833197 31.15844770381227,36.46896100585582 31.512279671849683,36.69196583156008 31.600737663917243,37.193726252473425 31.99879862787202,37.193726252473425 31.777653647819534,36.8592193723307 31.468050675932318,36.35745854824199 31.06998971174471,36.02295099623734 29.743119831895456,37.193726252473425 29.477745855925605,37.91849023709074 29.256600875640288,37.97424126052647 28.548936939798295,38.81050571653759 28.06241798377596,39.3680144205282 27.39898304385133,40.09277461943566 26.47017412772402,40.87328419156256 25.054846255807206,40.59453094092896 23.90489235986024,39.646768492559204 22.312648503808305,39.925522377860034 21.560755571816117,41.15203725564061 22.62225147569552,43.66080643123132 23.108770431717858,45.89081078313757 23.99335035169497,47.22880765987793 25.01061725988984,49.73754021245986 27.089380071498454,52.91524640843272 27.752815011655912,53.807229752332205 27.620128023903817,55.08945246087387 27.266296055866405,55.98143114589038 27.929730995791033,57.096401814807905 28.15087597584352,57.709634409926366 28.23933396791108,58.88034867361421 28.23933396791108,62.05798507935833 29.256600875640288,63.45167760521872 30.36232577590272,66.68502629658906 32.043027623789385,68.85916043439647 33.01606553583406,72.872916705237 33.63527148007415,74.1550806920859 34.519851399818435,75.6044787048595 35.09482834790833,78.05729461601004 35.360202323878184,79.06071514179348 36.59861421189271,80.39860541414237 36.819759191945195,81.23478465116932 35.75826328783296,82.85139308084035 36.15632425178774,84.80246386010549 35.714034291915596,86.8092699800327 36.28901123977266,88.64883375904174 37.39473613980226,89.31776402733522 37.96971308789216,89.7079728540848 39.296582967741415,91.10157282141154 39.78310192399658,91.77049914892996 40.402307868003845,92.27219318918651 41.508032767800614,94.78065432255971 40.71191083989106,96.22998053338961 41.46380377188325,96.56443971185945 42.43684168392792,97.56781563465483 41.55226176395081,99.01713214354822 43.3656505998224,101.97149248013739 44.73674947605468,103.81098926998675 45.40018441574648,105.3160260533623 45.66555839194916,105.14880001274287 45.5771003998816,105.03731594837154 46.85974128404632,105.37176805202034 48.62890112400055,105.59473597173928" stroke="#4DD2FF" stroke-linecap="round" stroke-linejoin="round" stroke-width="0.5"><title>2025-06-25 6.13km</title><desc>14906641783</desc></polyline></svg>