<?xml version="1.0" encoding="utf-8" ?>
<svg baseProfile="full" height="130mm" version="1.1" viewBox="0,0,100,130" width="100mm" xmlns="http://www.w3.org/2000/svg" xmlns:ev="http://www.w3.org/2001/xml-events" xmlns:xlink="http://www.w3.org/1999/xlink"><defs /><rect fill="#FAF9F5" height="130" width="100" x="0" y="0" /><text fill="#5A5A5A" style="font-size:6px; font-family:Arial; font-weight:bold;color:#0ed45e;" x="5" y="10">Evening Run</text><text fill="#5A5A5A" style="font-size:4px; font-family:Arial" x="5" y="121">Runner</text><text fill="#5A5A5A" style="font-size:6px; font-family:Arial" x="2" y="128">蓝皮书</text><text fill="#5A5A5A" style="font-size:4px; font-family:Arial" x="25" y="121">WORKOUTS INFO</text><text fill="#5A5A5A" style="font-size:3px; font-family:Arial" x="25" y="125">Type: Run</text><text fill="#5A5A5A" style="font-size:3px; font-family:Arial" x="22" y="129">Date: 2025-09-02</text><text fill="#5A5A5A" style="font-size:3px; font-family:Arial" x="47" y="125">Distance: 7.04 km</text><text fill="#5A5A5A" style="font-size:3px; font-family:Arial" x="47" y="129">Duration: 47:35min</text><text fill="#5A5A5A" style="font-size:3px; font-family:Arial" x="75" y="125">Pace: 6:45/km</text><text fill="#5A5A5A" style="font-size:3px; font-family:Arial" x="75" y="129">Elevation: 75m</text><polyline fill="none" points="9.846153846010566,77.69084246153943 17.807692306116223,84.72241920721717 35.11538461409509,84.72241920721717 41.69230769202113,84.28294611116871 53.46153846010566,84.72241920721717 59.0,84.72241920721717 71.80769230797887,84.28294611116871 79.0769230760634,83.40399973769672 85.99999999813735,80.76715917768888 90.5,71.97767504444346 85.65384615398943,60.111833394970745 71.11538461409509,57.47497375519015 67.30769230611622,57.035496938973665 55.19230769202113,56.156543124467134 45.499999998137355,57.035496938973665 28.884615384042263,57.035496938973665 25.423076923936605,58.35392720857635 14.0,60.55130979139358 10.192307692021132,68.02239935402758 14.692307692021132,82.52505312371068 36.499999998137355,85.16189224482514 46.88461538404226,84.28294611116871 64.19230769202113,83.84347295481712 73.5384615380317,83.40399973769672 83.57692307792604,82.52505312371068 89.46153846010566,77.25136840413325 90.5,70.21977533772588 86.69230769202113,60.99078612867743 78.73076923191547,56.59602006152272 36.499999998137355,57.914450510870665 20.23076923005283,59.232880420517176 12.961538460105658,63.62764288764447 10.884615384042263,74.17504832730629 16.76923076994717,83.84347295481712 29.230769231915474,85.16189224482514 35.11538461409509,85.16189224482514 51.03846153989434,85.16189224482514 64.5384615380317,85.16189224482514 79.42307692207396,84.28294611116871 88.76923076808453,78.13031645747833 89.80769230797887,68.90134992683306 85.65384615398943,60.111833394970745 79.42307692207396,56.59602006152272 62.80769230797887,57.47497375519015 54.846153846010566,57.035496938973665 47.576923076063395,57.914450510870665 24.384615385904908,56.59602006152272 12.269230769947171,64.06711880397052 10.884615384042263,76.3724201109726 18.5,84.28294611116871 29.230769231915474,84.72241920721717 39.61538461409509,85.16189224482514 50.34615384414792,84.72241920721717 63.153846153989434,84.72241920721717 80.80769230797887,83.40399973769672 88.4230769239366,77.25136840413325 89.80769230797887,68.02239935402758 78.38461538404226,56.59602006152272 68.34615384601057,56.59602006152272 47.576923076063395,58.35392720857635 41.0,57.914450510870665 28.884615384042263,57.47497375519015 22.30769230797887,57.914450510870665 12.961538460105658,64.50659466139041 11.923076923936605,78.13031645747833 20.23076923005283,85.16189224482514 27.846153846010566,85.16189224482514 35.11538461409509,84.72241920721717 76.99999999813735,84.28294611116871 83.9230769239366,82.52505312371068 89.80769230797887,74.17504832730629 88.0769230760634,64.94607045687735 82.19230769202113,58.79340384458192 77.34615384601057,55.27758907224052 61.76923076994717,57.035496938973665 51.38461538404226,57.47497375519015 33.38461538404226,57.47497375519015 14.692307692021132,61.43026240495965 10.192307692021132,71.53820020728745 11.230769230052829,77.69084246153943 15.730769231915474,82.96452646120451 26.115384615957737,83.84347295481712 44.11538461409509,82.96452646120451 53.46153846010566,83.40399973769672 75.26923076808453,82.96452646120451 84.26923076808453,81.64610627084039 89.80769230797887,73.29609919385985 89.11538461409509,66.70397304394282 82.5384615380317,59.672356937779114 77.34615384601057,56.59602006152272 65.92307692207396,57.914450510870665 57.9615384619683,57.47497375519015 51.03846153989434,57.035496938973665 29.576923076063395,57.035496938973665 17.461538461968303,60.99078612867743 13.307692307978868,63.18816691148095 10.192307692021132,76.81189428712241 14.0,83.40399973769672 19.884615384042263,85.60136522073299 31.30769230797887,84.28294611116871 50.0,85.16189224482514 57.9615384619683,83.84347295481712 65.23076923005283,83.84347295481712 79.42307692207396,84.28294611116871 88.76923076808453,78.56979039404541 90.5,68.46187467081472 85.99999999813735,60.55130979139358 75.61538461595774,57.035496938973665 60.03846153989434,56.59602006152272 48.61538461409509,56.156543124467134 39.9615384619683,57.035496938973665 30.26923076994717,56.156543124467134 21.26923076994717,57.035496938973665 12.615384615957737,61.43026240495965 9.5,70.21977533772588 13.307692307978868,80.76715917768888 24.384615385904908,85.16189224482514 51.03846153989434,85.16189224482514 65.5769230760634,84.72241920721717 78.0384615380317,84.28294611116871 84.9615384619683,81.20663275453262 89.46153846010566,72.41714982059784 87.0384615380317,62.309214777778834 81.84615384601057,57.914450510870665 65.23076923005283,56.59602006152272 55.5384615380317,56.156543124467134 32.346153846010566,55.27758907224052 12.961538460105658,60.55130979139358 10.192307692021132,73.29609919385985 12.615384615957737,81.20663275453262 35.80769230797887,85.16189224482514 66.26923076994717,84.72241920721717 82.88461538404226,82.08557972824201 88.4230769239366,76.3724201109726 89.11538461409509,68.02239935402758 89.80769230797887,65.82502187066711 85.65384615398943,60.111833394970745 74.23076923005283,56.156543124467134 65.23076923005283,56.156543124467134 52.076923076063395,56.156543124467134 47.923076923936605,56.59602006152272 35.4615384619683,56.59602006152272 20.23076923005283,56.59602006152272 13.307692307978868,61.43026240495965 10.192307692021132,71.0987253098283 10.884615384042263,77.69084246153943 19.884615384042263,84.72241920721717 63.153846153989434,83.40399973769672 75.9615384619683,82.96452646120451 83.23076923005283,81.64610627084039 89.11538461409509,73.73557379026897 87.38461538404226,62.7486908743158 76.30769230797887,57.47497375519015 70.76923076808453,58.35392720857635 63.846153846010566,58.35392720857635 60.38461538404226,59.232880420517176 47.576923076063395,58.35392720857635 41.69230769202113,57.914450510870665 31.65384615212679,58.35392720857635 25.423076923936605,58.35392720857635 17.461538461968303,59.672356937779114 11.576923076063395,66.70397304394282 10.192307692021132,71.53820020728745 16.076923076063395,82.08557972824201 20.576923076063395,84.72241920721717 35.4615384619683,84.28294611116871 74.57692307792604,82.96452646120451 84.61538461409509,80.32768554077484 89.11538461409509,74.17504832730629 88.76923076808453,64.50659466139041 82.5384615380317,58.35392720857635 71.11538461409509,56.59602006152272 66.26923076994717,57.035496938973665 48.26923076994717,58.35392720857635 37.88461538404226,57.914450510870665 24.384615385904908,58.35392720857635 18.153846153989434,59.232880420517176 13.307692307978868,63.62764288764447 9.5,70.65925035369582 10.884615384042263,77.25136840413325 17.807692306116223,83.84347295481712 52.42307692207396,83.84347295481712 85.65384615398943,79.44873808720149 89.46153846010566,71.97767504444346 83.23076923005283,58.79340384458192 78.0384615380317,57.035496938973665 73.19230769202113,57.914450510870665 58.653846153989434,57.035496938973665 41.34615384414792,56.59602006152272 19.884615384042263,57.035496938973665 11.923076923936605,64.50659466139041 11.576923076063395,77.25136840413325 17.807692306116223,83.40399973769672 36.846153846010566,84.28294611116871 43.769230768084526,83.84347295481712 54.5,82.96452646120451 70.76923076808453,82.52505312371068 79.42307692207396,82.96452646120451 89.46153846010566,75.4934715772979 88.0769230760634,63.62764288764447 79.0769230760634,55.27758907224052 54.153846153989434,57.035496938973665 40.30769230797887,57.47497375519015 28.884615384042263,57.47497375519015 16.76923076994717,59.672356937779114 11.576923076063395,68.46187467081472 13.307692307978868,79.00926427100785 25.076923076063395,84.28294611116871 47.923076923936605,83.40399973769672 79.76923076808453,82.08557972824201 87.73076923005283,76.3724201109726 89.11538461409509,67.14344854024239 85.99999999813735,60.111833394970745 76.65384615212679,56.156543124467134 50.34615384414792,55.717066128505394 36.846153846010566,57.035496938973665 18.846153846010566,57.914450510870665 11.576923076063395,65.82502187066711 11.576923076063395,77.69084246153943 16.423076923936605,82.96452646120451 33.0384615380317,82.52505312371068" stroke="#4DD2FF" stroke-linecap="round" stroke-linejoin="round" stroke-width="0.5"><title>2025-09-02 7.04km</title><desc>15669467359</desc></polyline></svg>