<?xml version="1.0" encoding="utf-8" ?>
<svg baseProfile="full" height="130mm" version="1.1" viewBox="0,0,100,130" width="100mm" xmlns="http://www.w3.org/2000/svg" xmlns:ev="http://www.w3.org/2001/xml-events" xmlns:xlink="http://www.w3.org/1999/xlink"><defs /><rect fill="#FAF9F5" height="130" width="100" x="0" y="0" /><text fill="#5A5A5A" style="font-size:6px; font-family:Arial; font-weight:bold;color:#0ed45e;" x="5" y="10">迎夏至致中考 致中考</text><text fill="#5A5A5A" style="font-size:4px; font-family:Arial" x="5" y="121">Runner</text><text fill="#5A5A5A" style="font-size:6px; font-family:Arial" x="2" y="128">蓝皮书</text><text fill="#5A5A5A" style="font-size:4px; font-family:Arial" x="25" y="121">WORKOUTS INFO</text><text fill="#5A5A5A" style="font-size:3px; font-family:Arial" x="25" y="125">Type: Hike</text><text fill="#5A5A5A" style="font-size:3px; font-family:Arial" x="22" y="129">Date: 2025-06-21</text><text fill="#5A5A5A" style="font-size:3px; font-family:Arial" x="47" y="125">Distance: 7.64 km</text><text fill="#5A5A5A" style="font-size:3px; font-family:Arial" x="47" y="129">Duration: 01:28:10</text><text fill="#5A5A5A" style="font-size:3px; font-family:Arial" x="75" y="125">Pace: 11:32/km</text><text fill="#5A5A5A" style="font-size:3px; font-family:Arial" x="75" y="129">Elevation: 17m</text><polyline fill="none" points="40.607483367435634,35.75646538833098 40.2228069184348,35.949186110374285 39.85950138315093,36.114375148448744 39.4534540202003,36.389689899777295 38.94055208796635,36.4447528031742 38.00023187906481,36.88525546868914 38.23531193123199,38.151695066917455 38.5558756388491,38.977629486398655 38.87643934646621,39.74849844243727 39.154261226416565,40.71208033518633 39.603050417033955,42.30886266141897 40.051839607651345,43.3550232747657 40.54337062605191,44.26352660439443 40.67159610905219,45.00684434980212 40.75707976438571,45.557448253181065 40.97078890283592,46.0254603439389 41.39820717961993,47.09913087936002 41.69739997340366,48.03514650388388 42.21030190552119,49.108805930707604 42.46675287152175,49.9622232929687 42.68046200997196,50.45775423439045 43.08650937292259,50.70551923102175 43.06513845908921,50.98081330108107 43.30021851125639,51.55892957818287 43.49255673575681,51.99939796778199 43.66352404654026,52.13704413466621 43.7276367880404,52.32974860451941 44.155055064940825,53.678674540438806 44.32602237560786,54.174196001084056 44.53973151394166,54.5320718253497 45.05263344605919,55.605695342455874 45.28771349834278,56.48661277075007 45.864728172076866,57.752924575135694 46.334888276527636,58.68888886414061 46.61271015636157,59.21192576737667 47.10424117464572,60.47821980631852 47.55303036526311,61.44169887149474 47.95907772833016,62.43270092472085 48.21552869444713,63.23100445774617 48.70705971273128,64.5247997687402 49.21996164473239,65.32309470458131 49.455041697015986,65.90116830007173 50.16028185375035,66.61687608256761 50.71592561365105,67.02978321924456 51.399794856552035,67.22247291608073 53.21632253273856,66.7820390425768 54.19938456942327,66.47924017532205 54.6268028463237,66.28654974135861 55.52438122744206,65.98375010183372 56.721152402460575,65.57084074188606 58.046149060479365,64.96523875965795 59.28566206316464,64.60738215557649 59.819934909115545,64.60738215557649 60.14049861673266,64.33210739619972 60.93122242880054,63.974249625753146 62.76912101905327,63.4512255446607 63.474361175787635,63.14842148573371 64.20097224623896,62.90067235917377 64.9275833168067,62.377645387648954 65.73967804270796,61.992256191864726 66.70136916544288,61.52428256900748 66.59451459627599,60.80855602401425 65.50459799042437,59.07428461352538 64.73524509230629,57.945623473846354 64.07274676323868,56.76189864783373 63.83766671095509,56.211326503544115 63.02557198505383,55.02759110911575 63.06831381272059,54.94500464962039 62.55541188060306,54.5320718253497 62.44855731143616,54.174196001084056 62.14936451765243,53.43091333605116 61.44412436091807,52.66009867948014 61.18767339491751,51.99939796778199 60.674771462683566,51.42128300154582 60.204611358232796,50.760578076165984 59.777193081448786,50.29257739438617 59.07195292483084,50.01728234892653 58.858243786380626,49.16386522857647 58.66590556176379,48.91609826541389 58.38808368192986,48.833509207514 58.11026180209592,48.86103889744845 58.2171163711464,48.640801269211806 58.3453418542631,48.66833098627103 57.23405433469452,47.401959957322106 57.04171611007769,46.768771346702124 56.44333052262664,46.32829109576414 56.22962138406001,45.77768937748624 55.58849396905862,45.034374581999145 55.07559203682467,44.401178253421676 54.6268028463237,43.85057107228204 54.41309370775707,43.382553741088486 53.90019177563954,42.66676034741977 53.90019177563954,42.36392388686363 53.28043527435511,41.868372296434245 52.44696963450406,40.684549490280915 51.82721313321963,40.29911725218699 51.76310039171949,40.29911725218699 51.3143112011021,39.5007194688078 50.84415109665133,38.95009839569684 50.331249164417386,38.454538095145836 50.11754002608359,37.73872653997387 50.09616911225021,37.848851566406665 49.882459973799996,37.5184763000143 50.074798198300414,37.57353888344369 49.81834723218344,37.21563181215606 49.21996164473239,36.47228424907371 49.19859073101543,36.4447528031742 49.83971814613324,37.65613272927294 50.28850733675063,38.81244288344169 51.01511840731837,39.5007194688078 50.37399099220056,38.20675747076166 49.861089059966616,37.298225810256554 49.433670783182606,36.60994141982519 48.87802702339832,35.949186110374285 48.130045038997196,35.371023370476905 47.63851402059663,34.15962919189769 46.65545198402833,33.306142392670154 46.16392096574418,32.48018385456817 45.54416446434334,31.95707496369141 45.24497167067602,31.213707273927866 44.58247334160842,30.415272141617606 43.94134592649061,29.671898550455808 43.15062211442273,28.76332696384634 43.10788028675597,28.32280587666901 42.68046200997196,27.55189156976121 41.99659276707098,27.138900503661716 41.74014180095401,26.61577722581569 40.97078890283592,25.707191341658472 40.67159610905219,25.459394453690038 40.094581435318105,24.798601206653984 40.073210521484725,24.49573688376404 39.75264681398403,24.027672910044203 39.38934127870016,23.39440809142252 39.132890312583186,22.843741353106452 38.684101121965796,22.210472673687036 37.765151826897636,21.136664541321807 37.23087898083031,20.723659832539852 36.41878425492905,19.649843478924595 35.94862415047828,19.181767825575662 35.39298039057758,18.46588523227547 35.0510457692435,17.88767044195265 34.751852975576185,17.75 34.02524190500844,18.686157080548583 33.57645271427464,19.952715359380818 33.36274357594084,20.283120508378488 33.55508180044126,21.742403192198253 33.55508180044126,22.816207975163707 33.53371088672429,23.421941387321567 33.70467819739133,24.550803159349016 33.72604911122471,25.81732319033472 33.79016185272485,26.423047241944005 33.93975824955851,27.138900503661716 34.02524190500844,27.55189156976121 34.43128926784266,28.01994704961544 35.24338399374392,27.717087750250357 36.22644603054505,27.496826144953957 37.67966817156412,27.08383496182796 38.4490210696822,26.643310065061087 38.79095569124911,26.533178684738232 39.41071219241712,26.257849960733438 39.85950138315093,25.982520846417174 40.415145142935216,25.404328435644857 40.051839607651345,25.376795420743292 39.154261226416565,25.844856142794015 38.89781026029959,26.175251267355634 38.363537414348684,26.367981497140136 36.8248316179961,27.00123661980615 35.56394770136103,27.331629777123453 35.286125821527094,27.304097035434097 34.88007845846005,27.276564289903035 34.19620921567548,27.55189156976121 33.83290368039161,28.488001401463407 33.96112916339189,29.038652135946904 33.96112916339189,29.176314575597644 34.02524190500844,29.83709292774438 34.08935464650858,31.241239461363875 34.110725560225546,32.562779866479104 34.53814383712597,33.22354669692868 34.92282028624322,33.77418400505849 35.11515851074364,34.40741497950512 35.606689529144205,34.57260532895452 35.734915012144484,34.98558058771596 37.465959033113904,36.582409993512556 37.65829725761432,36.47228424907371 37.786522740731016,36.85772408134653 38.14982827601489,37.133037779000006 40.158694176818244,36.334626980737085 40.992159816552885,36.05931215133751 41.54780357645359,35.72893384094641 43.40707308042329,34.57260532895452 45.095375273842365,33.306142392670154 45.62964811979327,32.86563160952937 45.65101903362665,32.39758780760167 45.45868080900982,32.39758780760167 45.73650268896017,32.122267397280666 45.971582741243765,32.562779866479104 44.83892430772539,32.920695512075326 43.87723318499047,33.88431127934018 43.49255673575681,34.29728800180601 42.03933459473774,35.06817553417932 41.953850939520635,35.34349176858086 41.99659276707098,35.2333653216192 42.12481825018767,35.2333653216192 42.06070550857112,35.2333653216192 42.38126921618823,35.123238812273485 42.55223652697168,34.95804893113382 43.7276367880404,34.324819752029725 44.625215169391595,33.47133367884089 45.35182623995934,32.727971784886904 45.43730989517644,32.48018385456817 45.41593898134306,32.42511982713768 45.39456806750968,32.39758780760167 45.35182623995934,32.34252375681535 45.50142263667658,32.34252375681535 44.43287694477476,33.22354669692868 44.53973151394166,32.975759398934315 44.43287694477476,33.19601479054836" stroke="#4DD2FF" stroke-linecap="round" stroke-linejoin="round" stroke-width="0.5"><title>2025-06-21 7.53km</title><desc>14866780617</desc></polyline><polyline fill="none" points="45.49959146277979,86.831034906485 45.17813371005468,86.44451028337062 44.87810647429433,86.14081182713562 44.55664872156922,85.28493181132944 44.19232993526384,84.92601326608565 43.59227546362672,84.09773717544158 43.05651254253462,83.32467631257896 42.585041172103956,82.8277069946198 42.28501393622719,82.33073640849034 41.77068153198343,81.9994219798391 40.97775240871124,80.81220731534995 40.54914207186084,80.50850007595727 39.60619933065027,80.7293781152257 38.770409173797816,81.08830439475423 38.427520904224366,81.33679143169138 37.677452814765275,81.75093578849919 36.37019128724933,82.10986018534459 35.51297061343212,82.55161238108121 34.741472007124685,82.60683133509883 34.01283443439752,82.8277069946198 33.90568185027223,84.20817419100786 33.77709874918219,85.09166806153371 33.9485428838525,86.7482082661154 34.01283443439752,87.38321160878695 34.398583737551235,87.96299546136288 34.54859735548962,88.26669107626367 34.82719407440163,88.65321208300884 35.19151286082342,89.15016653598286 35.34152647864539,89.37103477478377 35.59869268082548,89.50907729678147 35.834428366157226,89.67472819409159 35.96301146724727,89.84037895048095 36.75594059040304,90.61341395061754 37.42028661258519,91.49687876540702 37.95604953356087,92.04904223958147 38.191785219009034,93.12575651172665 38.4918124548858,93.92638634270406 38.920422791619785,95.52763613137358 39.15615847695153,95.66567428996495 39.477616229560226,96.7975834999088 39.820504499133676,97.5705908874952 40.141962251625955,98.75770340241434 40.506281038047746,99.75155947852181 41.127766026649624,101.43558180890977 41.23491861077491,101.9601103807654 42.00641721719876,103.47847459977493 42.28501393622719,104.33427467130241 42.413597037200816,104.47230658881017 42.9922209919896,105.71458944426558 43.01365150883794,106.101075827959 43.549414430046454,106.90165232609434 43.69942804786842,107.26053037782549 43.65656701417174,107.61940776840493 43.82801114884205,108.11631383298663 43.956594249932095,108.53040125181724 44.40663510363083,109.24815069259785 44.5995097552659,109.82786946406122 45.02812009223271,110.93209092256438 45.285286294296384,111.40138314697833 45.58531353017315,112.3123589434108 45.799618698540144,112.86446341325063 46.2496595523553,113.19572534401959 46.549686788232066,114.21711275129928 46.69970040593762,114.68639706169779 46.80685299017932,114.93484123900998 47.02115815866273,115.68017186963698 47.3211853945395,116.37029028122197 47.87837883247994,117.28124284092337 48.43557227042038,119.1031351810816 48.64987743878737,119.32396945847722 48.94990467466414,119.87605405658542 49.271362427272834,120.75938615918858 49.48566759575624,121.33907067478867 49.614250696846284,121.55990241744439 50.1071525842417,122.25 51.09295635903254,122.19479228339333 52.5716620212188,121.8359417438187 53.00027235818561,121.69792212957691 53.19314700982068,121.58750636772311 54.54326957091689,121.06303064434906 55.42192076158244,120.89740643839468 55.8291005815845,120.8698023903271 56.407724536256865,120.56615760398563 57.22208417649381,120.26251234432857 58.37933208595496,119.93126243026927 59.94375981565099,119.35157372547837 60.736688938806765,119.02032226251322 60.908133073709905,119.04792657261714 62.98689320741687,118.2473999918584 63.82268336438574,117.86093770654406 64.35844628547784,117.58489274751628 65.72999936353881,117.14321999973617 65.90144349832553,116.83956940456119 66.84438623941969,116.25987149959838 66.30862331821118,115.68017186963698 65.75142988027073,114.76921182269871 64.37987680232618,112.3951747136307 63.736961296992376,111.20814530918142 62.38683873589616,109.22054499374644 62.27968615165446,108.91688204855018 61.97965891577769,108.25434307042451 61.55104857892729,108.00589037251484 61.20816030947026,107.06728843212477 60.77954997261986,106.95686437707627 60.69382790511008,106.34953095535457 60.050912399892695,105.71458944426558 59.77231568086427,105.52134596501128 59.45085792813916,105.13485843103263 59.215122242923826,105.05203957400226 58.80794242292177,104.44470021310553 58.87223397346679,104.38948745004018 58.37933208595496,103.86496542025998 58.25074898498133,103.8097524929326 57.90786071552429,103.0919830124185 57.80070813128259,102.89873693119443 57.22208417649381,102.42942422138003 56.92205694061704,101.87729017388483 56.557738154311664,101.54600899408979 56.47201608680189,101.35276137903566 56.214849884738214,100.93865870119771 55.57193437940441,100.33130651434476 54.971879907883704,99.39266759157181 54.62899163819384,98.9785607465019 54.35039491939824,98.15034441498574 53.90035406558309,97.8742715218832 53.2574385603657,97.10126533941366 52.72167563915718,96.0245730442839 52.01446858327836,95.77610474628455 51.714441347518004,95.22395183816843 51.54299721273128,94.94787479718798 51.15724790957756,94.34050392941572 50.707207055878825,94.03681778526516 50.342888269457035,93.3742281907762 49.95713896630332,92.68402829961269 49.421376045327634,91.96621781827707 49.39994552836288,91.85578520168201 48.99276570836082,91.2760129373928 48.3927112367237,90.8066722212825 47.85694831551518,89.72994512843434 47.44976849562954,89.06734088188387 47.04258867551107,88.84647229869734 46.50682575441897,87.90777802593948 45.8210492155049,87.35560281081416 45.19956422701944,86.33407453594555 44.770953890052624,86.113202853041 44.42806562059559,85.09166806153371 43.67799753102008,84.15295569099544 43.14223460992798,83.7388164421427 43.05651254253462,83.35228568188904 42.370736003504135,82.46878392071812 42.0278477340471,82.24790785419464 41.5992373971967,81.61288776740548 40.72058620653115,80.5361098444555 40.44198948761914,80.4256707465538 39.991948633803986,79.84586445486639 39.991948633803986,79.48693588537571 39.67049088119529,79.04517673792725 39.3061720947735,78.6034165883757 38.51324297161773,77.36096079518029 37.99891056737397,77.00202764579444 37.57030023052357,76.17371785311843 37.22741196095012,75.89761380606797 36.45591335464269,74.82080428190238 36.41305232094601,74.71036194267799 35.941580950282514,74.07531727718015 35.49154009670019,73.57832435517048 35.21294337755535,73.27460583409993 34.80576355766971,72.8604434508743 34.54859735548962,72.75 34.63431942288298,73.24699503592274 34.03426495124586,73.96487451517896 34.31286167015787,74.15814930743363 34.24857011961285,74.57230893075757 33.369918929063715,74.90363599512784 33.15561376058031,75.3177940329333 33.24133582797367,76.09088668016193 33.327057895367034,77.47140163104632 33.369918929063715,78.74146674275107 33.58422409754712,80.9226461941289 33.64851564809214,81.19874311702733 33.62708513112739,81.58527815145499 33.841390299610794,82.4411744261306 33.64851564809214,82.55161238108121 33.862820816459134,83.0485824035568 34.76290252385661,82.85531643439026 36.00587250094395,82.4963934114785 36.54163542203605,82.33073640849034 37.1631204104051,82.1374697269639 38.170354702160694,81.75093578849919 38.748978656949475,81.55766853153182 39.37046364531852,81.00547531206394 39.54190778010525,80.89503648025857 39.970518116955645,80.59132937002869 40.463420004351065,80.5361098444555 40.76344724022783,80.64654887987126 41.62066791392863,81.58527815145499 42.32787496992387,82.4135649275413 43.05651254253462,83.65598848664376 43.67799753102008,84.45665724715218 43.99945528374519,84.89840411982732 45.09241164277773,86.25124768419482 45.521021979511715,86.96907922887476 46.03535438387189,87.54886431423074 46.892575057572685,88.73603791325877 47.47119901236147,89.17777507950086 47.98553141660523,90.25450522503525 48.52129433781374,90.88949713576585 49.29279294423759,91.57970338630548 50.514332404360175,93.31901228956121 50.55719343794044,93.34662024215504 50.02143051684834,93.07054054006585 49.84998638217803,92.46316381785437 49.44280656205956,91.93860966994544 49.07848777563777,91.19318818733154 48.3927112367237,90.66863061905315 48.15697555139195,90.25450522503525 47.749795731389895,89.53668578941142 46.95686660811771,88.81886370824941 46.50682575441897,87.88016930234153 45.842479732236825,87.32799400898512 45.56388301332481,87.05190577531175 45.349577844841406,86.63777269082493 44.770953890052624,85.97515792406921 44.578079238533974,85.28493181132944 44.278052002657205,84.87079496958177 43.87087218265515,84.51187566101726 43.6351364973234,84.07012791167654 43.16366512677632,83.7388164421427 43.12080409307964,83.82164436235325" stroke="#4DD2FF" stroke-linecap="round" stroke-linejoin="round" stroke-width="0.5"><title>2025-06-21 7.64km</title><desc>14865395068</desc></polyline></svg>