<?xml version="1.0" encoding="utf-8" ?>
<svg baseProfile="full" height="130mm" version="1.1" viewBox="0,0,100,130" width="100mm" xmlns="http://www.w3.org/2000/svg" xmlns:ev="http://www.w3.org/2001/xml-events" xmlns:xlink="http://www.w3.org/1999/xlink"><defs /><rect fill="#FAF9F5" height="130" width="100" x="0" y="0" /><text fill="#5A5A5A" style="font-size:6px; font-family:Arial; font-weight:bold;" x="5" y="10">2025-03-09 Workouts</text><text fill="#5A5A5A" style="font-size:4px; font-family:Arial" x="5" y="121">Runner</text><text fill="#5A5A5A" style="font-size:6px; font-family:Arial" x="2" y="128">蓝皮书</text><text fill="#5A5A5A" style="font-size:4px; font-family:Arial" x="25" y="121">STATISTICS</text><text fill="#5A5A5A" style="font-size:3px; font-family:Arial" x="25" y="125">Number: 1</text><text fill="#5A5A5A" style="font-size:3px; font-family:Arial" x="25" y="129">Weekly: 1.0</text><text fill="#5A5A5A" style="font-size:3px; font-family:Arial" x="48" y="125">Total: 7.0 km</text><text fill="#5A5A5A" style="font-size:3px; font-family:Arial" x="48" y="129">Avg: 7.0 km</text><text fill="#5A5A5A" style="font-size:3px; font-family:Arial" x="75" y="125">Min: 7.0 km</text><text fill="#5A5A5A" style="font-size:3px; font-family:Arial" x="75" y="129">Max: 7.0 km</text><polyline fill="none" points="56.76496666879393,29.5 55.71409806003794,29.66923724327353 55.18866375554353,30.28977318649413 55.144877563696355,30.515422380238306 55.451380907790735,32.37702334742062 55.62652567587793,33.05396699422272 55.93302902020514,35.761730064841686 55.93302902020514,37.39766132403747 55.84545663604513,37.848951522115385 55.93302902020514,38.977174778381595 55.84545663604513,39.428463185206056 55.84545663604513,40.44386022904655 55.53895329195075,41.74130823666928 55.451380907790735,43.26439397793729 55.32002233178355,43.65926710749045 55.27623613970354,44.166960555216065 54.707015643361956,46.53618807994644 54.66322945128195,47.49515711530694 54.400512299034745,50.42845981841674 53.78750561061315,54.26428457372822 53.48100226651877,56.91549477967783 53.30585749819875,57.93084720216575 53.04314034595154,58.776972241932526 52.86799557809718,60.243584715615725 52.64906461792998,61.25892864644993 52.56149223376997,61.54096816724632 52.43013365752995,62.33067776277312 52.43013365752995,63.06397812673822 52.25498888967559,64.079314861272 52.07984412135556,65.99716606983566 51.99227173742838,67.68938004880329 51.77334077726118,68.36626362550305 51.72955458518118,70.62253389961552 51.641982201253995,71.46863195442711 51.51062362501398,71.58144489230472 51.51062362501398,71.75066423954559 51.55440981686115,71.80707067248295 51.335478856926784,74.7401941739663 51.335478856926784,75.8683128413104 51.2479064729996,76.7708054726827 51.204120280686766,78.29375714721391 50.9851893207524,79.53467642480973 50.94140312843956,80.7755918331386 50.94140312843956,81.45245315213106 50.897616936592385,81.79088338004658 50.94140312843956,82.29852818223299 51.335478856926784,82.52414788634633 51.641982201253995,83.03179175328114 52.51770604168996,83.08819658739958 52.605278425849974,83.14460141339805 52.34256127360277,84.7803378936369 52.167416505282745,85.34438339699409 51.99227173742838,86.30325891787652 51.81712696910836,88.33381121841376 51.81712696910836,89.29267953670933 51.59819600917399,91.154005559918 51.68576839310117,91.43602389495936 51.99227173742838,91.60523479996482 52.21120269759558,91.83084922819398 53.48100226651877,93.41014664463 53.83129180269316,94.0869864760025 55.27623613970354,96.34311093416181 55.976815212285146,98.09159859264037 56.45846332446672,99.78367610959685 56.58982190070674,100.0656883296324 56.89632524503395,101.25013747214689 56.98389762896113,102.32177889684681 57.11525620520115,103.11140757391695 57.07147001288831,104.40865128565929 57.20282858912833,107.22873172411346 57.159042396815494,108.01835066618514 57.29040097328834,109.76678703466314 57.377973357215524,110.3307971280592 57.55311812530272,110.44359905086458 57.77204908546992,110.5 58.99806246254593,110.3307971280592 60.0927172631491,110.3307971280592 60.530579183250666,110.21799517335603 60.749510143883526,110.10519318660954 60.88086871965788,109.42838059499627 61.14358587190509,108.97717156133149 62.06309590465389,108.07475195929874 62.32581305666827,107.17233031109208 62.28202686458826,106.89032312648487 62.50095782475546,106.49551273227553 62.67610259284265,105.64948914022534 62.982605937402695,102.60378931849846 62.982605937402695,102.32177889684681 62.763674977002665,101.9833661270095 62.10688209650107,101.36294196854578 60.83708252781071,100.91172379109776 60.3116482233163,100.91172379109776 59.83000011090189,101.02452838339377 59.2169934224803,101.47574643295957 58.91049007838592,102.09617041572346 58.82291769422591,102.54738725017523 58.38505577412434,105.36748087656451 58.34126958204433,106.8339216656168 58.428841965971515,107.73634408117505 58.64777292590588,108.41315954970196 59.173207230633125,108.92077039618744 59.698641534894705,109.14637500888784 60.79329633549787,109.14637500888784 61.2311582560651,108.97717156133149 61.712806368479505,108.58236323716119 62.019309712573886,108.18755452148616 62.10688209650107,107.9055480560055 62.41338544082828,106.38270969051518 62.85124736116268,105.19827582256403 63.11396451340988,102.94220156079973 63.02639212924987,102.43458308951813 62.763674977002665,101.81415963443578 62.019309712573886,101.25013747214689 61.406303024152294,101.02452838339377 60.661937759723514,100.85532148284256 59.87378630321473,101.0809306675801 59.34835199872032,101.47574643295957 58.91049007838592,102.03976827539736 58.82291769422591,102.32177889684681 58.34126958204433,106.04430037370184 58.47262815805152,106.55191424122313 58.38505577412434,107.22873172411346 58.51641435013153,107.79274541404448 58.82291769422591,108.41315954970196 59.12942103855312,108.80796804168494 59.83000011090189,109.08997386772535 60.443006799323484,109.14637500888784 61.14358587190509,108.92077039618744 61.75659256032668,108.4695607869362 62.019309712573886,108.01835066618514 62.15066828858107,107.56714003402158 62.32581305666827,106.439111215499 62.32581305666827,105.93149720414658 62.41338544082828,105.70589076899341 62.50095782475546,104.97266897180816 62.71988878515549,104.69066022860352 62.67610259284265,104.18304398731561 62.85124736116268,103.33701547974488 62.80746116908267,102.66019137896365 62.63231640099548,102.1525725479587 62.32581305666827,101.92696397079271 61.84416494448669,101.30653972434811 61.274944447912276,100.91172379109776 60.92465491173789,100.85532148284256 59.87378630321473,100.9681260912912 59.4359243826475,101.25013747214689 58.954276270465925,101.87056180648506 58.5602005419787,103.50622132510762 58.60398673405871,103.95743656126433 58.51641435013153,104.4650530902436 58.5602005419787,104.97266897180816 58.428841965971515,105.48028420621995 58.47262815805152,105.93149720414658 58.51641435013153,106.15710351121379 58.69155911821872,106.38270969051518 58.735345310298726,107.28513312901487 58.91049007838592,108.13115324437968 59.61106915096752,108.86436922295252 60.005144878989086,109.08997386772535 60.224075839389116,109.14637500888784 60.79329633549787,109.14637500888784 61.31873063999228,108.92077039618744 61.712806368479505,108.63876445026835 62.238240672741085,107.79274541404448 62.32581305666827,107.51073866896331 62.544744016835466,105.31107919997885 62.67610259284265,102.82939751216327 62.544744016835466,102.20897467221948 62.238240672741085,101.64495306953904 61.66902017616667,101.13733294376289 61.187372063985094,100.9681260912912 60.443006799323484,100.91172379109776 59.786213918821886,101.13733294376289 59.34835199872032,101.47574643295957 58.99806246254593,102.09617041572346 58.86670388630591,102.60378931849846 58.60398673405871,105.42388254537946 58.51641435013153,107.17233031109208 58.5602005419787,107.67994273998193 58.91049007838592,108.35675830466789 59.26077961479314,108.69516565548838 59.96135868714191,109.03357271841378 60.443006799323484,109.08997386772535 61.056013487745076,108.97717156133149 61.53766160015948,108.75156685258844 61.8879511365667,108.41315954970196 62.238240672741085,107.73634408117505 62.41338544082828,106.8339216656168 62.58853020891547,104.74706199337379 62.763674977002665,104.07024029025342 62.80746116908267,103.56262325769057 62.67610259284265,103.33701547974488 62.89503355300985,102.60378931849846 62.89503355300985,101.9833661270095 62.67610259284265,101.70135526589002 62.019309712573886,101.25013747214689 61.58144779223949,101.02452838339377 60.88086871965788,100.85532148284256 59.74242772697471,101.0809306675801 59.52349676680751,101.1937352118548 59.12942103855312,101.58855086527183 58.91049007838592,102.49098517396487 58.86670388630591,102.94220156079973 58.7791315021459,103.44981938469573 58.735345310298726,104.23944582388503 58.64777292590588,104.97266897180816 58.64777292590588,106.04430037370184 58.82291769422591,106.72111871981178 58.735345310298726,107.17233031109208 58.7791315021459,107.73634408117505 58.86670388630591,107.9055480560055 59.30456580664031,108.52596201610868 59.91757249482907,108.97717156133149 60.3116482233163,109.08997386772535 61.274944447912276,109.03357271841378 61.8879511365667,108.52596201610868 62.238240672741085,107.79274541404448 62.50095782475546,106.60831574219628 62.544744016835466,106.10070194650325 62.67610259284265,105.53668585882406 62.67610259284265,105.02907069644425 62.982605937402695,104.40865128565929 63.02639212924987,104.12664214268443 63.11396451340988,103.90103468464804 63.201536897337064,103.39341743619298 63.11396451340988,102.99860357312718 63.15775070525706,102.26537678859313 62.71988878515549,101.58855086527183 62.41338544082828,101.36294196854578 62.238240672741085,101.36294196854578 62.019309712573886,101.13733294376289 61.36251683207229,100.85532148284256 60.530579183250666,100.74251684272895 60.26786203123629,100.79891916675842 59.786213918821886,100.9681260912912 59.34835199872032,101.41934420465259 58.91049007838592,102.26537678859313 58.82291769422591,102.71659343122155 58.47262815805152,106.10070194650325 58.428841965971515,107.34153452602914 58.5602005419787,107.79274541404448 58.82291769422591,108.24395579044358 59.34835199872032,108.75156685258844 59.87378630321473,109.03357271841378 60.3554344153963,109.08997386772535 61.09979968005791,108.97717156133149 61.53766160015948,108.69516565548838 62.019309712573886,108.18755452148616 62.238240672741085,107.62354139095987 62.71988878515549,102.88579954046872 62.63231640099548,102.20897467221948 62.238240672741085,101.58855086527183 61.36251683207229,100.9681260912912 60.61815156764351,100.91172379109776 59.87378630321473,101.13733294376289 59.26077961479314,101.58855086527183 58.86670388630591,102.26537678859313 58.60398673405871,105.08547241328051 58.47262815805152,107.28513312901487 58.69155911821872,108.01835066618514 59.08563484647311,108.58236323716119 59.34835199872032,108.80796804168494 59.83000011090189,108.97717156133149 60.39922060747631,109.08997386772535 61.056013487745076,108.92077039618744 61.14358587190509,109.03357271841378 61.187372063985094,109.31557838458684 60.83708252781071,110.10519318660954 60.26786203123629,110.38719809352187 57.94719385355711,110.44359905086458 57.55311812530272,110.27439615465119 57.246614781208336,109.14637500888784 57.159042396815494,108.01835066618514 57.20282858912833,107.79274541404448 57.159042396815494,106.439111215499 57.20282858912833,105.93149720414658 57.159042396815494,105.70589076899341 57.20282858912833,105.2546775151568 57.159042396815494,104.01383842973155 56.98389762896113,102.99860357312718 56.98389762896113,102.60378931849846 56.80875286064111,102.20897467221948 56.852539052953944,101.70135526589002 56.67739428463392,101.53214865311747 56.721180476713926,101.25013747214689 56.58982190070674,100.74251684272895 56.54603570862673,100.34770035004476 56.37089094053954,100.00928590173135 55.71409806003794,97.75318222597707 55.53895329195075,97.18915430875495 55.32002233178355,96.96354291803436 54.707015643361956,95.72267798311077 53.61236084252596,93.9177766260691 52.21120269759558,92.05646352871554 51.641982201253995,91.54883117301506 51.46683743293397,91.21040924286353 51.423051241086796,90.64637205327745 51.55440981686115,89.85671864490723 51.948485545348376,85.79561922411085 50.94140312843956,85.28797888263944 50.678685976192355,85.23157436022302 50.41596882417798,85.00595619087107 49.627817367669195,84.89314705840661 48.22665922273882,84.89314705840661 47.04443203774281,84.66752869699849 46.7817148854956,84.66752869699849 46.562783925561234,84.83674247999443 45.77463246881962,84.94955162864062 45.64327389281243,84.66752869699849 43.059888562886044,84.27269625713234 39.16291747218929,83.93426813994301 37.80554551910609,83.9906728460337 37.6304007510189,83.87786342561594 37.49904217501171,83.5394349724229 37.323897406924516,82.80617233683006 37.28011121484451,81.96009838610189 36.92982167867012,81.62166830216302 36.798463102662936,81.3960480861133 36.88603548659012,80.94480727080372 37.14875263883732,80.21153985438286 37.28011121484451,79.76029769598972 37.323897406924516,78.7450009684544 37.4552559829317,77.84251281429897 37.71797313494608,76.99642831081292 37.80554551910609,75.58628347431659 37.8931179032661,75.36065983679146 37.71797313494608,74.85300618462497 37.6304007510189,74.17613364098361 37.71797313494608,71.07378641940886 37.93690409557894,69.2123664774117 37.98069028719328,67.52015897459933 38.19962124736048,65.71512970709591 38.287193631753325,63.91009225221933 38.46233839960769,62.49990104371682 38.54991078353487,59.96154427502188 38.725055551854894,58.9461970339471 38.68126935977489,58.10007235399098 38.9877727041021,54.82837333084899 39.07534508802928,54.54632905207109 39.250489856349304,51.55664740825887 39.4256346244365,50.14641242122161 39.4256346244365,49.5259074435744 39.90728273661807,44.166960555216065 40.082427504705265,41.62848683868651 40.082427504705265,40.04898390881135 40.25757227302529,38.75153038316057 40.25757227302529,38.01818521460518 40.38893084903248,37.22842736777966 40.43271704111248,36.382256506505655 40.56407561711967,35.7053185220866 40.56407561711967,35.141202655417146 40.91436515352689,31.248781376780244 41.045723729534075,31.023132598871598 41.30844088178128,30.910308161692228 44.46104670781642,30.853895931271836 48.445590182673186,30.571834658796433 49.54024498350918,30.34618549689185 51.81712696910836,30.007711513957474 54.00643657101318,29.556412422389258 55.05730517953634,29.5" stroke="#4DD2FF" stroke-linecap="round" stroke-linejoin="round" stroke-width="0.5"><title>2025-03-09 7.0km</title><desc>13828239583</desc></polyline></svg>