<?xml version="1.0" encoding="utf-8" ?>
<svg baseProfile="full" height="130mm" version="1.1" viewBox="0,0,100,130" width="100mm" xmlns="http://www.w3.org/2000/svg" xmlns:ev="http://www.w3.org/2001/xml-events" xmlns:xlink="http://www.w3.org/1999/xlink"><defs /><rect fill="#FAF9F5" height="130" width="100" x="0" y="0" /><text fill="#5A5A5A" style="font-size:6px; font-family:Arial; font-weight:bold;color:#0ed45e;" x="5" y="10">到磁一游</text><text fill="#5A5A5A" style="font-size:4px; font-family:Arial" x="5" y="121">Runner</text><text fill="#5A5A5A" style="font-size:6px; font-family:Arial" x="2" y="128">蓝皮书</text><text fill="#5A5A5A" style="font-size:4px; font-family:Arial" x="25" y="121">WORKOUTS INFO</text><text fill="#5A5A5A" style="font-size:3px; font-family:Arial" x="25" y="125">Type: Ride</text><text fill="#5A5A5A" style="font-size:3px; font-family:Arial" x="22" y="129">Date: 2025-06-28</text><text fill="#5A5A5A" style="font-size:3px; font-family:Arial" x="47" y="125">Distance: 1.07 km</text><text fill="#5A5A5A" style="font-size:3px; font-family:Arial" x="47" y="129">Duration: 02:54min</text><text fill="#5A5A5A" style="font-size:3px; font-family:Arial" x="75" y="125">Pace: 2:42/km</text><text fill="#5A5A5A" style="font-size:3px; font-family:Arial" x="75" y="129">Elevation: 8m</text><polyline fill="none" points="62.06563210580498,110.5 61.12136524543166,109.04417636146536 59.442668604664505,102.29442050284706 58.393483203835785,99.25039784406545 57.763971963431686,96.20636578940321 57.86889050388709,93.69172352697933 62.80006188666448,79.13314229884418 63.42957312660292,77.14786457020091 63.53449166659266,75.29493508365704 63.00989896664396,73.30964962788858 57.763971963431686,62.05962321598781 56.60986802307889,59.94195683230646 54.72133430279791,58.22134954703506 53.881985981948674,57.82428590109339 47.901629199273884,55.83896527264733 46.118014018051326,55.044835902459454 44.64915445772931,53.588930395198986 38.03928643465042,44.72109588852618 37.30485665425658,42.338678997941315 36.465508333873004,31.75008984323358 36.67534541385248,30.42650820442941 37.19993811380118,29.764716718811542 37.82944935420528,29.5" stroke="#4DD2FF" stroke-linecap="round" stroke-linejoin="round" stroke-width="0.5"><title>2025-06-28 1.07km</title><desc>14937977280</desc></polyline></svg>