<?xml version="1.0" encoding="utf-8" ?>
<svg baseProfile="full" height="130mm" version="1.1" viewBox="0,0,100,130" width="100mm" xmlns="http://www.w3.org/2000/svg" xmlns:ev="http://www.w3.org/2001/xml-events" xmlns:xlink="http://www.w3.org/1999/xlink"><defs /><rect fill="#222222" height="130" width="100" x="0" y="0" /><text fill="#FFFFFF" style="font-size:6px; font-family:Arial; font-weight:bold;" x="5" y="10">2025-05-18 Workouts</text><text fill="#FFFFFF" style="font-size:4px; font-family:Arial" x="5" y="121">Runner</text><text fill="#FFFFFF" style="font-size:6px; font-family:Arial" x="2" y="128">蓝皮书</text><text fill="#FFFFFF" style="font-size:4px; font-family:Arial" x="25" y="121">STATISTICS</text><text fill="#FFFFFF" style="font-size:3px; font-family:Arial" x="25" y="125">Number: 1</text><text fill="#FFFFFF" style="font-size:3px; font-family:Arial" x="5" y="129">Weekly: 1.0</text><text fill="#FFFFFF" style="font-size:3px; font-family:Arial" x="48" y="125">Total: 5.1 km</text><text fill="#FFFFFF" style="font-size:3px; font-family:Arial" x="48" y="129">Avg: 5.1 km</text><text fill="#FFFFFF" style="font-size:3px; font-family:Arial" x="75" y="125">Min: 5.1 km</text><text fill="#FFFFFF" style="font-size:3px; font-family:Arial" x="75" y="129">Max: 5.1 km</text><polyline fill="none" points="42.69913789909333,53.3243200298748 42.60432150866836,57.96693132468499 42.69913789909333,60.043880909099244 42.983587072230875,62.12082548550097 43.078403463121504,63.46472813125001 43.17321985447779,65.90818211599253 43.078403463121504,67.4964234897052 42.69913789909333,68.71814563096268 41.84579038107768,69.81769407656975 39.85464617237449,72.38330165814841 38.24276752676815,74.46021648537135 37.863501962739974,75.31541525269859 36.725705271586776,76.65929731499637 35.87235775357112,78.00317728077061 35.208643017336726,79.71356693224516 32.45896768057719,82.5234854168375 31.41598738031462,84.11169615836116 30.562639862298965,84.47820591321215 29.23521038936451,86.06641305086669 30.94190542632714,84.8447155127069 33.5019479803741,82.6456555777695 36.251623317133635,85.08905515901279 35.96717414446175,86.43292197474511 36.251623317133635,89.2428185424651 36.15680692670867,91.31969272374408 36.06199053535238,92.41921232244931 36.63088888116181,93.88523627066752 36.53607248980552,96.20643575355643 36.06199053535238,98.77196474769153 36.15680692670867,100.11581021925667 36.15680692670867,101.82615596964024 35.96717414446175,104.02516694471706 36.820521662477404,106.46850589016685 37.57905279006809,103.53649832430528 37.863501962739974,102.07049079955323 37.768685571849346,100.23797788540833 37.57905279006809,97.91678926511668 37.57905279006809,96.57294036314124 37.863501962739974,94.2517418677453 37.9583183536306,92.66354982042685 37.9583183536306,91.68619941262295 38.14795113541186,90.58667887875345 38.05313474405557,87.53244781011017 38.24276752676815,86.9216002971516 37.57905279006809,85.08905515901279 37.57905279006809,83.74518624698976 37.294603616930544,81.17961250263033 38.337583917193115,78.98054321185919 41.65615759929642,75.07107283460209 42.414688726421446,73.97153109399369 43.93175098160282,71.77244340325706 44.500649326946586,70.79506929439958 44.78509849961847,69.81769407656975 46.586609927006066,67.98511255445192 47.91403939994052,65.78600958158495 48.95701969973743,64.19776505447226 49.715550827328116,62.60951759928139 50.56889834580943,61.14344042597804 51.70669503649697,60.41040090401657 52.844491727650166,59.677360757952556 54.55118676368147,58.69997292640619 56.447514582425356,57.722583985712845 60.33498660987243,55.034758681315 61.85204886412248,53.93519136653049 63.179478337522596,52.95779702003347 64.79135698266327,51.73605252720881 67.3513995371759,50.147782095940784 69.15291096502915,48.55950873630354 70.10107487393543,47.82645850570407 70.19589126482606,46.97123244823888 68.58401261921972,47.70428340672515 65.73952089203522,49.17038345185574 63.55874390061945,51.24735424446408 61.093517736997455,52.71344825992128 59.95572104630992,52.835622648417484 56.63714736420661,55.15693274058867 54.07710480922833,57.11171533475863 52.370409772731364,58.08910496823955 50.0,60.166054257832 47.724406618159264,62.365171577141155 46.87105909967795,63.46472813125001 45.638446017634124,62.97603650268866 45.54362962720916,62.12082548550097 45.069547672756016,60.5325742008863 44.97473128139973,59.18866698088823 44.78509849961847,57.233889099385124 44.500649326946586,54.54606227000477 44.40583293605596,50.88083035091404 44.500649326946586,48.92603361752117 44.69028210872784,47.21558283694321 45.25918045453727,44.89425134519115 46.49179353564978,42.08421011723112 46.77624270925298,39.88504102319712 47.53477383637801,37.19716006121598 48.672570527065545,37.441513222584035 49.146652481518686,40.129393422044814 49.52591804554686,40.74027411581483 52.749675336293876,40.007217231206596 55.30971789127216,39.762864797899965 56.35269819153473,39.51851229509339 58.91274074604735,37.80804283474572 60.33498660987243,37.441513222584035 60.99870134610683,36.46410016162554 58.059393227566034,35.60886282334104 56.447514582425356,34.50927071226761 54.83563593681902,33.409677197632845 53.413390072993934,32.31008227932034 51.70669503649697,30.599598505476024 50.37926556356251,30.233065825945232 47.81922300858423,29.5 46.49179353564978,29.866532991058193 45.73326240852475,32.79879130522022 44.59546571737155,35.853216435119975 43.93175098160282,38.663277989428025 43.457669026684016,42.20638601377141 43.457669026684016,43.061616801598575 42.983587072230875,46.11600554169854 42.88877068134025,48.68168371391948 41.75097399065271,49.53690807323437 42.035423163324594,50.63648100179853 42.31987233553082,53.44649433210725 42.31987233553082,54.9125846044044 42.60432150866836,56.989541552437004 43.078403463121504,58.4556257952936 42.88877068134025,60.654747480817605 43.17321985447779,61.99865241377847 42.509505117777735,63.83124667103402 42.88877068134025,65.41949187382124 42.60432150866836,67.86294031422585 42.69913789909333,68.96248985128477 42.035423163324594,69.69552209647372 42.414688726421446,70.9172411186737 39.00129865389317,74.33804516348755 35.58790858089924,79.34705515007954 34.45011188974604,81.42395318823401 31.510803771670908,84.11169615836116 29.614475953392684,85.82207368209492 31.131538207642734,84.9668853446492 33.3123151990585,83.01216595678125 34.92419384419918,83.01216595678125 35.777541362680495,84.60037579707569 36.251623317133635,85.94424337515375 36.725705271586776,88.63197224237956 36.91533805383369,91.07535484497203 36.44125609891489,92.5413810799364 36.44125609891489,94.00740482058609 35.96717414446175,97.55028522678185 35.87235775357112,99.50497162848478 36.06199053535238,101.45965359470574 36.15680692670867,103.04782942688325 36.15680692670867,104.63600233127363 35.96717414446175,106.34633910737466 36.346439708489925,107.93450593098532 36.346439708489925,109.76700247434201 36.63088888116181,110.5 37.294603616930544,109.88916877197335 37.863501962739974,106.1020054902765 38.05313474405557,104.26950115140062 38.05313474405557,102.55916025186889 38.14795113541186,99.74930711678462 37.9583183536306,96.32860397396144 38.337583917193115,92.66354982042685 37.9583183536306,91.80836827406893 38.05313474405557,87.89895611000247 37.768685571849346,84.72254566382617 38.14795113541186,83.98952620511409 38.14795113541186,78.49186038487824 39.7598297810182,78.00317728077061 41.27689203573391,75.31541525269859 42.79395429044962,73.72718829469522 44.31101654516533,71.28375648765359 45.82807879988104,69.08466193522327 47.724406618159264,66.76338937372202 49.715550827328116,63.709073841862846 49.810367218218744,62.365171577141155 51.89632781781256,60.41040090401657 54.26673759147525,58.94431998836808 55.1200851094909,58.333452203834895 56.63714736420661,57.84475766372634 58.81792435515672,55.88997673330596 60.42980300076306,54.9125846044044 62.42094720946625,52.95779702003347 64.12764224642888,51.85822705429746 67.25658314675093,50.392131583357695 70.10107487393543,48.07080865185708 70.66997321974486,47.21558283694321 69.43736013723537,46.482531462737825 68.86846179235727,47.82645850570407 67.44621592853218,48.55950873630354 66.6876848009415,49.53690807323437 64.41209141910076,51.24735424446408 63.08466194616631,52.22475053218659 61.47278330102563,52.835622648417484 58.6282915729098,54.17953977989964 56.63714736420661,55.279106782516465 55.02526871813461,56.378672381688375 52.56004255497828,58.08910496823955 50.37926556356251,60.043880909099244 49.05183609109372,61.50995995342964 46.20734436297789,64.19776505447226 45.069547672756016,63.342555250332225 45.35399684496224,61.021267215837725 45.16436406318098,58.69997292640619 45.44881323585287,56.745193936279975 44.8799148905091,53.690842883777805 44.40583293605596,51.980401564214844 45.069547672756016,47.70428340672515 45.35399684496224,45.62730407103663 46.39697714522481,43.30596829915885 47.155508272815496,39.1519834108185 47.629590226802975,36.83063018950634 48.00885579083115,36.09756997769 48.86220330838114,36.95280683063902 50.758531127125025,37.19716006121598 51.32742947246879,36.34192345099291 52.275593381840736,34.142739696777426 51.61187864514068,32.92096851859242 50.37926556356251,31.57701822090894 49.05183609109372,32.18790497968439 48.103672181256115,34.7536246360396 47.724406618159264,36.586276854912285 48.76738691795617,39.51851229509339 50.85334751801565,40.37374575162539 51.801511427387595,39.88504102319712 53.03412450896576,40.007217231206596 54.83563593681902,39.6406885550241 56.447514582425356,39.02980708144605 57.016412927769125,38.296748741238844 58.91274074604735,37.563689777161926 60.145353828091174,37.19716006121598 60.71425217343494,36.46410016162554 59.29200630960986,35.24233227566583 57.39567849133164,34.38709372456651 55.7837998457253,33.65403143322328 54.83563593681902,33.28750005387701 53.60302285477519,32.432259561959654 50.758531127125025,30.355243403231725 48.103672181256115,29.62217768112896 46.49179353564978,29.866532991058193 45.82807879988104,32.18790497968439 45.069547672756016,34.63144768291386 44.8799148905091,37.80804283474572 44.31101654516533,41.839858273102436 43.93175098160282,44.405549181683455 43.26803624490276,47.33775800536387 42.60432150866836,50.147782095940784" stroke="#4DD2FF" stroke-linecap="round" stroke-linejoin="round" stroke-width="0.5"><title>2025-05-18 5.1km</title><desc>14512876909</desc></polyline></svg>