<?xml version="1.0" encoding="utf-8" ?>
<svg baseProfile="full" height="130mm" version="1.1" viewBox="0,0,100,130" width="100mm" xmlns="http://www.w3.org/2000/svg" xmlns:ev="http://www.w3.org/2001/xml-events" xmlns:xlink="http://www.w3.org/1999/xlink"><defs /><rect fill="#222222" height="130" width="100" x="0" y="0" /><text fill="#FFFFFF" style="font-size:6px; font-family:Arial; font-weight:bold;" x="5" y="10">2025-05-20 Workouts</text><text fill="#FFFFFF" style="font-size:4px; font-family:Arial" x="5" y="121">Runner</text><text fill="#FFFFFF" style="font-size:6px; font-family:Arial" x="2" y="128">蓝皮书</text><text fill="#FFFFFF" style="font-size:4px; font-family:Arial" x="25" y="121">STATISTICS</text><text fill="#FFFFFF" style="font-size:3px; font-family:Arial" x="25" y="125">Number: 1</text><text fill="#FFFFFF" style="font-size:3px; font-family:Arial" x="5" y="129">Weekly: 1.0</text><text fill="#FFFFFF" style="font-size:3px; font-family:Arial" x="48" y="125">Total: 6.2 km</text><text fill="#FFFFFF" style="font-size:3px; font-family:Arial" x="48" y="129">Avg: 6.2 km</text><text fill="#FFFFFF" style="font-size:3px; font-family:Arial" x="75" y="125">Min: 6.2 km</text><text fill="#FFFFFF" style="font-size:3px; font-family:Arial" x="75" y="129">Max: 6.2 km</text><polyline fill="none" points="83.5769230760634,60.55130754085258 75.26923076994717,56.59601943101734 60.0384615380317,56.59601943101734 46.19230769202113,57.47497276472859 35.4615384619683,57.47497276472859 24.384615384042263,57.91444934066385 17.80769230797887,58.79340231511742 10.192307692021132,68.90134425787255 11.230769231915474,76.3724113816861 21.961538461968303,82.96451503131539 54.5,81.64609538135119 86.34615384601057,77.69083319115452 88.76923076808453,68.46186918043531 83.5769230760634,59.23287871154025 81.15384615398943,59.23287871154025 75.26923076994717,55.71706585912034 62.11538461595774,55.71706585912034 55.5384615380317,56.59601943101734 45.846153846010566,57.47497276472859 37.88461538404226,58.79340231511742 31.653846153989434,57.47497276472859 21.961538461968303,57.47497276472859 13.307692307978868,61.86973583162762 10.192307692021132,66.26449289731681 11.230769231915474,76.3724113816861 18.846153846010566,82.96451503131539 28.19230769202113,82.96451503131539 47.92307692207396,82.0855686578434 79.42307692207396,80.32767519098707 87.38461538404226,73.29609172372147 87.0384615380317,63.627639377024025 83.5769230760634,60.55130754085258 72.15384615398943,57.035496128723025 62.80769230797887,56.59601943101734 51.0384615380317,57.91444934066385 44.4615384619683,58.35392585792579 30.961538460105658,57.91444934066385 25.076923076063395,58.35392585792579 11.923076923936605,63.18816358153708 9.846153847873211,75.49346320726909 19.884615384042263,83.40398812736385 40.30769230797887,82.52504187496379 50.69230769202113,82.0855686578434 55.19230769202113,83.40398812736385 67.30769230797887,81.64609538135119 78.03846153989434,82.0855686578434 88.76923076808453,72.85661724745296 85.65384615398943,61.43025979446247 79.0769230760634,57.035496128723025 54.846153846010566,57.035496128723025 45.500000001862645,57.91444934066385 38.57692307792604,57.47497276472859 34.076923076063395,57.47497276472859 22.653846153989434,57.47497276472859 13.307692307978868,63.18816358153708 9.846153847873211,70.21976912743412 11.923076923936605,78.13030700734816 20.23076923005283,83.40398812736385 80.80769230797887,81.20662204385735 87.38461538404226,76.3724113816861 88.76923076808453,67.58291884697974 84.9615384619683,60.99078369792551 63.846153846010566,56.59601943101734 54.5,57.035496128723025 43.076923076063395,57.035496128723025 34.42307692207396,57.91444934066385 25.076923076063395,57.47497276472859 12.961538461968303,62.309211807791144 9.846153847873211,68.90134425787255 11.923076923936605,78.5697807634715 15.730769231915474,82.52504187496379 50.34615384787321,82.96451503131539 56.576923076063395,82.96451503131539 79.42307692207396,82.0855686578434 85.30769230611622,79.00925446092151 88.76923076808453,72.85661724745296 87.38461538404226,62.309211807791144 77.0,56.59601943101734 62.4615384619683,57.035496128723025 54.5,57.035496128723025 37.88461538404226,57.91444934066385 26.461538461968303,57.47497276472859 18.846153846010566,58.35392585792579 9.5,69.3408192738425 12.615384615957737,79.00925446092151 21.269230768084526,83.84346116497181 34.76923076994717,83.40398812736385 50.69230769202113,83.40398812736385 63.5,81.64609538135119 74.5769230760634,82.0855686578434 86.34615384601057,78.5697807634715 89.11538461595774,70.21976912743412 88.42307692207396,66.70396827417426 82.19230769202113,58.79340231511742 72.5,58.79340231511742 64.19230769202113,57.47497276472859 41.346153846010566,57.47497276472859 28.538461539894342,58.35392585792579 24.730769231915474,58.35392585792579 17.115384614095092,59.6723550488241 10.538461538031697,68.02239404455759 10.192307692021132,72.41714271041565 13.653846153989434,79.44872809783556 18.846153846010566,82.52504187496379 40.30769230797887,83.84346116497181 46.19230769202113,82.96451503131539 53.80769230797887,82.0855686578434 78.73076923005283,82.0855686578434 84.61538461595774,79.8882016746793 88.76923076808453,72.41714271041565 86.69230769202113,62.74868772411719 77.0,56.59601943101734 66.26923076994717,57.035496128723025 61.769230768084526,57.035496128723025 53.11538461595774,56.59601943101734 46.5384615380317,56.59601943101734 39.61538461595774,57.035496128723025 24.038461538031697,57.47497276472859 16.423076923936605,60.11183132510632 9.5,69.3408192738425 14.346153846010566,80.76714864838868 23.346153846010566,83.40398812736385 43.076923076063395,82.52504187496379 50.69230769202113,83.40398812736385 68.0,82.0855686578434 75.26923076994717,81.64609538135119 83.92307692207396,79.44872809783556 88.76923076808453,72.41714271041565 86.69230769202113,62.309211807791144 78.38461538404226,56.59601943101734 69.03846153989434,57.91444934066385 62.80769230797887,57.035496128723025 56.923076923936605,56.59601943101734 43.42307692207396,57.035496128723025 22.30769230797887,57.47497276472859 12.961538461968303,62.309211807791144 9.846153847873211,70.21976912743412 11.923076923936605,78.5697807634715 23.692307693883777,83.40398812736385 45.153846153989434,82.52504187496379 50.69230769202113,82.52504187496379 69.38461538404226,81.64609538135119 82.19230769202113,81.20662204385735 88.42307692207396,73.29609172372147 87.0384615380317,65.82501746038906 82.5384615380317,59.23287871154025 74.9230769239366,56.15654267533682 68.0,56.15654267533682 53.4615384619683,55.71706585912034 40.65384615212679,57.47497276472859 35.11538461595774,55.71706585912034 31.30769230797887,56.59601943101734 18.5,57.91444934066385 9.5,68.46186918043531 11.57692307792604,79.00925446092151 24.038461538031697,83.84346116497181 34.42307692207396,82.52504187496379 42.38461538590491,83.84346116497181 73.88461538590491,82.0855686578434 85.30769230611622,78.5697807634715 89.4615384619683,73.73556614131667 87.73076923191547,64.50659079081379 81.5,57.91444934066385 75.26923076994717,56.59601943101734 70.42307692207396,56.59601943101734 60.0384615380317,57.035496128723025 45.153846153989434,57.47497276472859 39.61538461595774,56.59601943101734 33.73076923005283,57.47497276472859 28.19230769202113,57.035496128723025 14.692307693883777,60.11183132510632 10.192307692021132,68.02239404455759 10.884615384042263,72.85661724745296 14.0,80.76714864838868 35.11538461595774,82.52504187496379 55.88461538404226,81.64609538135119 66.9615384619683,81.64609538135119 77.69230769202113,82.52504187496379 84.61538461595774,79.00925446092151 86.34615384601057,75.49346320726909 88.0769230760634,72.41714271041565 88.42307692207396,67.1434435909614 82.19230769202113,58.79340231511742 68.34615384414792,55.71706585912034 61.769230768084526,56.15654267533682 57.26923076994717,56.59601943101734 39.26923076994717,57.47497276472859 29.57692307792604,57.47497276472859 14.692307693883777,60.55130754085258 12.961538461968303,63.18816358153708 10.192307692021132,71.09871874074452 11.923076923936605,78.5697807634715 23.346153846010566,83.40398812736385 43.076923076063395,81.64609538135119 56.230769231915474,81.64609538135119 63.846153846010566,82.0855686578434 73.19230769015849,81.64609538135119 84.9615384619683,78.13030700734816 88.76923076808453,71.09871874074452 85.30769230611622,60.99078369792551 76.65384615398943,56.59601943101734 66.26923076994717,57.035496128723025 61.769230768084526,57.91444934066385 50.0,57.91444934066385 44.80769230611622,57.91444934066385 40.65384615212679,57.47497276472859 32.0,57.91444934066385 18.5,59.6723550488241 11.230769231915474,66.70396827417426 11.923076923936605,76.3724113816861 21.269230768084526,82.96451503131539 38.92307692207396,82.96451503131539 52.769230768084526,82.0855686578434 78.38461538404226,80.76714864838868 86.0,74.61451479326934" stroke="#4DD2FF" stroke-linecap="round" stroke-linejoin="round" stroke-width="0.5"><title>2025-05-20 6.2km</title><desc>14533893580</desc></polyline></svg>