<?xml version="1.0" encoding="utf-8" ?>
<svg baseProfile="full" height="130mm" version="1.1" viewBox="0,0,100,130" width="100mm" xmlns="http://www.w3.org/2000/svg" xmlns:ev="http://www.w3.org/2001/xml-events" xmlns:xlink="http://www.w3.org/1999/xlink"><defs /><rect fill="#222222" height="130" width="100" x="0" y="0" /><text fill="#FFFFFF" style="font-size:6px; font-family:Arial; font-weight:bold;" x="5" y="10">2025-03-28 Workouts</text><text fill="#FFFFFF" style="font-size:4px; font-family:Arial" x="5" y="110">Runner</text><text fill="#FFFFFF" style="font-size:6px; font-family:Arial" x="5" y="120">蓝皮书</text><text fill="#FFFFFF" style="font-size:4px; font-family:Arial" x="30" y="110">STATISTICS</text><text fill="#FFFFFF" style="font-size:3px; font-family:Arial" x="30" y="115">Number: 1</text><text fill="#FFFFFF" style="font-size:3px; font-family:Arial" x="30" y="120">Weekly: 1.0</text><text fill="#FFFFFF" style="font-size:3px; font-family:Arial" x="50" y="115">Total: 5.3 km</text><text fill="#FFFFFF" style="font-size:3px; font-family:Arial" x="50" y="120">Avg: 5.3 km</text><text fill="#FFFFFF" style="font-size:3px; font-family:Arial" x="75" y="115">Min: 5.3 km</text><text fill="#FFFFFF" style="font-size:3px; font-family:Arial" x="75" y="120">Max: 5.3 km</text><polyline fill="none" points="12.903361344709992,63.950785206397995 11.882352940738201,66.97541109682061 10.86134453676641,73.02465420495719 12.222689075395465,76.4813593623694 14.605042016133666,80.37014814955182 17.668067226186395,82.09849718841724 31.281512605026364,84.25893215904944 32.98319327645004,83.82684528362006 40.47058823518455,84.25893215904944 72.12184873968363,81.66641001729295 77.56722689047456,82.09849718841724 82.67226890660822,79.93806074280292 85.73529411666095,77.77762282197364 87.43697478808463,74.75300725433044 88.45798319205642,70.86421156558208 87.09663865529001,66.11123256571591 84.03361344337463,61.35824642935768 80.97058823518455,59.19779582624324 78.5882352925837,58.76570552797057 75.18487394973636,57.46943428157829 68.37815125845373,56.605253155110404 60.89075630158186,57.46943428157829 58.168067226186395,56.605253155110404 53.40336134284735,57.90152475563809 48.97899159602821,57.037343746982515 44.554621847346425,57.90152475563809 42.172268906608224,57.46943428157829 36.38655462116003,58.333615170558915 30.600840335711837,57.037343746982515 27.537815125659108,57.90152475563809 22.773109244182706,56.605253155110404 18.00840336084366,58.333615170558915 18.348739493638277,59.62988606467843 15.285714285448194,61.35824642935768 10.86134453676641,67.4075002737809 10.521008402109146,72.59256579470821 11.542016804218292,77.34553506062366 14.94537815079093,82.09849718841724 18.689075630158186,83.82684528362006 26.516806721687317,84.6910189774353 29.92016806639731,84.25893215904944 36.04621848650277,84.6910189774353 42.85294117592275,83.82684528362006 49.659663865342736,84.6910189774353 73.48319327458739,82.53058430086821 76.54621848650277,82.96267135394737 79.94957983121276,82.53058430086821 84.03361344337463,79.93806074280292 87.43697478808463,75.18509537051432 88.11764705739915,72.59256579470821 87.77731092460454,70.43212286010385 88.11764705739915,67.83958939113654 87.09663865529001,64.38287479709834 83.01260504126549,59.19779582624324 79.94957983121276,57.46943428157829 72.46218487247825,56.17316250386648 67.35714285634458,56.17316250386648 65.31512605026364,57.037343746982515 61.23109243623912,56.605253155110404 59.18907562829554,57.46943428157829 54.084033612161875,56.605253155110404 49.31932773068547,58.333615170558915 48.298319328576326,57.46943428157829 34.68487394973636,58.333615170558915 25.836134454235435,57.037343746982515 21.071428569033742,57.46943428157829 16.306722689419985,59.62988606467843 11.882352940738201,65.67914321226999 10.86134453676641,69.13585639186203 11.542016804218292,74.75300725433044 12.563025210052729,77.34553506062366 15.626050418242812,80.8022354983259 22.09243697486818,83.39475834742188 31.621848739683628,83.39475834742188 35.36554621718824,84.25893215904944 51.02100840397179,82.53058430086821 59.86974789947271,83.39475834742188 63.95378151163459,82.53058430086821 73.48319327458739,82.53058430086821 80.63025210052729,81.66641001729295 85.39495798200369,77.34553506062366 87.77731092460454,73.45674255583435 88.11764705739915,69.13585639186203 86.41596638597548,64.38287479709834 84.7142857145518,61.35824642935768 81.99159663915634,58.76570552797057 78.24789915978909,57.037343746982515 74.50420168042183,57.037343746982515 65.99579831957817,56.17316250386648 51.36134453676641,57.90152475563809 42.85294117592275,57.037343746982515 39.109243696555495,57.46943428157829 37.40756302513182,56.605253155110404 29.92016806639731,57.90152475563809 19.369747899472713,57.90152475563809 17.668067226186395,59.19779582624324 11.882352940738201,65.67914321226999 10.521008402109146,73.45674255583435 10.86134453676641,75.18509537051432 13.243697479367256,79.50597327644937 15.966386554762721,81.66641001729295 19.710084032267332,82.09849718841724 21.41176470555365,82.96267135394737 42.172268906608224,83.82684528362006 45.91596638597548,82.53058430086821 56.466386552900076,83.82684528362006 57.1470588222146,82.96267135394737 74.16386554576457,81.23432278633118 77.56722689047456,81.23432278633118 81.31092436984181,80.8022354983259 83.35294117592275,79.07388575118966 86.75630252063274,73.88883084873669 88.11764705739915,70.86421156558208 88.11764705739915,68.27167845098302 86.07563025131822,63.086605850141495 82.33193277195096,59.19779582624324 79.94957983121276,57.46943428157829 78.24789915978909,57.037343746982515 71.10084033571184,56.605253155110404 69.05882352776825,57.46943428157829 65.65546218305826,56.605253155110404 61.911764703691006,57.037343746982515 55.105042016133666,57.037343746982515 50.34033613279462,57.46943428157829 44.554621847346425,57.037343746982515 42.85294117592275,57.90152475563809 41.15126050449908,57.037343746982515 36.38655462116003,57.90152475563809 34.004201678559184,57.037343746982515 27.537815125659108,57.90152475563809 20.39075630158186,57.46943428157829 17.32773109152913,59.62988606467843 14.605042016133666,60.06197624490596 10.521008402109146,68.7037674500607 10.521008402109146,74.32091908110306 12.903361344709992,79.07388575118966 14.605042016133666,79.50597327644937 16.987394958734512,81.66641001729295 19.02941176481545,82.53058430086821 38.088235292583704,84.25893215904944 43.193277310580015,82.53058430086821 57.827731093391776,82.53058430086821 62.59243697486818,81.66641001729295 62.93277310952544,81.23432278633118 77.90756302513182,81.66641001729295 83.01260504126549,79.50597327644937 87.77731092460454,73.02465420495719 88.11764705739915,71.72838879772462 87.09663865529001,64.81496432749555 83.01260504126549,59.62988606467843 78.24789915978909,56.605253155110404 75.18487394973636,57.037343746982515 69.73949579708278,56.17316250386648 62.59243697486818,57.037343746982515 61.57142857089639,57.90152475563809 59.52941176481545,57.90152475563809 56.466386552900076,56.605253155110404 53.06302520819008,57.46943428157829 49.659663865342736,56.605253155110404 39.78991596587002,57.90152475563809 23.794117646291852,57.46943428157829 16.987394958734512,59.62988606467843 13.924369746819139,61.35824642935768 11.201680671423674,65.67914321226999 10.180672269314528,69.13585639186203 10.180672269314528,73.88883084873669 12.222689075395465,78.64179816632532 16.306722689419985,82.09849718841724 19.369747899472713,82.96267135394737 25.49579831957817,84.25893215904944 28.899159662425518,83.39475834742188 32.30252100713551,83.82684528362006 36.72689075395465,83.39475834742188 39.449579833075404,84.25893215904944 42.51260504126549,83.39475834742188 52.722689075395465,84.25893215904944 55.78571428358555,83.82684528362006 56.806722689419985,82.96267135394737 66.33613445423543,83.39475834742188 72.46218487247825,82.53058430086821 78.5882352925837,82.96267135394737 80.97058823518455,82.09849718841724 85.05462184920907,79.50597327644937 87.43697478808463,75.6171834259294 88.45798319205642,73.02465420495719 88.45798319205642,67.83958939113654 87.43697478808463,63.950785206397995 86.41596638597548,62.222426258493215 82.67226890660822,58.76570552797057 79.94957983121276,57.037343746982515 78.24789915978909,57.46943428157829 73.8235294111073,56.17316250386648 69.73949579708278,57.037343746982515 62.59243697486818,56.17316250386648 50.68067226745188,58.333615170558915 44.21428571268916,58.333615170558915 41.83193277195096,57.90152475563809 37.40756302513182,58.333615170558915 29.239495797082782,56.605253155110404 25.836134454235435,57.90152475563809 24.47478991560638,57.46943428157829 20.731092436239123,57.46943428157829 15.285714285448194,60.49406636529602 11.882352940738201,63.950785206397995 9.840336132794619,68.27167845098302 9.840336132794619,71.29630021099001 10.86134453676641,76.4813593623694 14.605042016133666,80.8022354983259 18.689075630158186,82.96267135394737 28.5588235296309,82.96267135394737 32.30252100713551,83.82684528362006 41.15126050449908,83.82684528362006 45.91596638597548,82.96267135394737 51.36134453676641,83.82684528362006 58.50840336084366,82.53058430086821 60.21008403226733,83.39475834742188 70.42016806639731,82.09849718841724 76.54621848650277,82.96267135394737 79.94957983121276,82.96267135394737 86.07563025131822,79.07388575118966 87.77731092460454,76.4813593623694 87.77731092460454,74.32091908110306 88.79831932671368,73.02465420495719 89.47899159602821,68.27167845098302 88.11764705739915,63.086605850141495 85.39495798200369,60.926156426314265 83.35294117592275,57.90152475563809 77.2268907558173,55.308981022564694 75.18487394973636,56.605253155110404 69.73949579708278,57.037343746982515 61.23109243623912,56.17316250386648 44.89495798200369,57.46943428157829 43.53361344523728,56.605253155110404 39.449579833075404,57.037343746982515 35.7058823518455,56.605253155110404 29.92016806639731,57.90152475563809 22.773109244182706,57.46943428157829 18.00840336084366,59.62988606467843 16.987394958734512,60.926156426314265 15.285714285448194,61.35824642935768 11.542016804218292,64.38287479709834 9.840336132794619,69.5679452731274 10.521008402109146,72.59256579470821 12.222689075395465,77.34553506062366 12.903361344709992,79.50597327644937 19.369747899472713,82.96267135394737 31.281512605026364,83.82684528362006 47.27731092274189,82.53058430086821 48.638655461370945,83.39475834742188 65.31512605026364,82.09849718841724 77.56722689047456,82.96267135394737 80.97058823518455,82.09849718841724 86.75630252063274,78.20971052348614 88.79831932671368,73.02465420495719 88.45798319205642,67.83958939113654 85.73529411666095,61.79033637302928 83.35294117592275,59.19779582624324 78.24789915978909,56.17316250386648 67.69747899100184,56.17316250386648 65.31512605026364,57.037343746982515 59.18907562829554,56.17316250386648 57.1470588222146,56.605253155110404 47.95798319391906,56.605253155110404 41.15126050449908,57.90152475563809 39.78991596587002,57.037343746982515 35.025210082530975,57.037343746982515 27.197478991001844,58.333615170558915 24.815126050263643,57.90152475563809 22.432773107662797,58.76570552797057 18.348739493638277,58.76570552797057 11.882352940738201,63.086605850141495 10.180672269314528,65.67914321226999 9.5,70.43212286010385 10.180672269314528,74.75300725433044 12.563025210052729,79.50597327644937 16.647058822214603,82.53058430086821 22.773109244182706,84.25893215904944 44.21428571268916,83.82684528362006 54.7647058814764,82.96267135394737 56.466386552900076,83.39475834742188 59.86974789947271,82.53058430086821 78.5882352925837,82.96267135394737 82.33193277195096,82.09849718841724 85.39495798200369,80.37014814955182 89.47899159602821,74.32091908110306 89.47899159602821,71.72838879772462 90.5,68.27167845098302 87.43697478808463,62.222426258493215 83.01260504126549,57.90152475563809 79.26890756189823,56.605253155110404 77.2268907558173,57.90152475563809 71.10084033571184,55.74107179231942 65.65546218305826,55.308981022564694 61.911764703691006,56.17316250386648 57.1470588222146,55.74107179231942 46.59663865342736,57.037343746982515 42.85294117592275,57.037343746982515 39.78991596587002,56.605253155110404 34.34453781507909,57.46943428157829 29.92016806639731,57.037343746982515 25.155462183058262,58.76570552797057 20.731092436239123,58.76570552797057 14.94537815079093,63.086605850141495 12.222689075395465,66.97541109682061 11.542016804218292,70.00003409548663 13.243697479367256,77.77762282197364 16.647058822214603,81.23432278633118 20.39075630158186,82.96267135394737 35.36554621718824,83.39475834742188 38.42857142724097,82.53058430086821 40.47058823518455,82.96267135394737 53.06302520819008,82.96267135394737 54.424369748681784,83.39475834742188 56.12605041824281,82.96267135394737 61.911764703691006,83.39475834742188 63.61344537883997,82.53058430086821 73.8235294111073,82.96267135394737 81.31092436984181,81.66641001729295 81.65126050263643,80.8022354983259 86.75630252063274,77.34553506062366 87.09663865529001,75.18509537051432 88.79831932671368,73.45674255583435 88.45798319205642,71.29630021099001 88.79831932671368,70.00003409548663 86.41596638597548,63.086605850141495 85.05462184920907,61.35824642935768 84.03361344337463,58.76570552797057 80.97058823518455,56.605253155110404 78.24789915978909,56.605253155110404 76.54621848650277,55.74107179231942 69.05882352776825,55.308981022564694 60.89075630158186,57.037343746982515 53.743697479367256,56.17316250386648 46.93697478994727,57.46943428157829 43.193277310580015,57.037343746982515 41.491596637293696,57.90152475563809 23.794117646291852,57.037343746982515 22.432773107662797,57.46943428157829 20.050420166924596,59.62988606467843 16.647058822214603,60.49406636529602 12.903361344709992,63.518695558654144 11.201680671423674,68.7037674500607 12.222689075395465,76.4813593623694 14.605042016133666,79.93806074280292 19.710084032267332,82.96267135394737 24.13445377908647,83.82684528362006 31.621848739683628,82.53058430086821 49.31932773068547,82.53058430086821 57.1470588222146,82.53058430086821 59.18907562829554,81.66641001729295 67.01680672168732,82.53058430086821 73.48319327458739,80.8022354983259 79.94957983121276,81.23432278633118 83.69327731058002,80.37014814955182 87.09663865529001,77.34553506062366 89.81932773068547,73.02465420495719 89.47899159602821,70.86421156558208 90.15966386348009,68.27167845098302 88.45798319205642,63.950785206397995 83.69327731058002,59.62988606467843 83.01260504126549,59.19779582624324 81.65126050263643,60.926156426314265 79.26890756189823,58.76570552797057 75.86554621718824,57.90152475563809 68.37815125845373,57.90152475563809 61.57142857089639,55.74107179231942 59.52941176481545,56.605253155110404 56.806722689419985,55.74107179231942" stroke="#4DD2FF" stroke-linecap="round" stroke-linejoin="round" stroke-width="0.5"><title>2025-03-28 5.3km</title><desc>14006664029</desc></polyline></svg>