<?xml version="1.0" encoding="utf-8" ?>
<svg baseProfile="full" height="130mm" version="1.1" viewBox="0,0,100,130" width="100mm" xmlns="http://www.w3.org/2000/svg" xmlns:ev="http://www.w3.org/2001/xml-events" xmlns:xlink="http://www.w3.org/1999/xlink"><defs /><rect fill="#222222" height="130" width="100" x="0" y="0" /><text fill="#FFFFFF" style="font-size:6px; font-family:Arial; font-weight:bold;" x="5" y="10">2025-02-25 Workouts</text><text fill="#FFFFFF" style="font-size:4px; font-family:Arial" x="5" y="121">Runner</text><text fill="#FFFFFF" style="font-size:6px; font-family:Arial" x="2" y="128">蓝皮书</text><text fill="#FFFFFF" style="font-size:4px; font-family:Arial" x="25" y="121">STATISTICS</text><text fill="#FFFFFF" style="font-size:3px; font-family:Arial" x="25" y="125">Number: 1</text><text fill="#FFFFFF" style="font-size:3px; font-family:Arial" x="5" y="129">Weekly: 1.0</text><text fill="#FFFFFF" style="font-size:3px; font-family:Arial" x="48" y="125">Total: 5.1 km</text><text fill="#FFFFFF" style="font-size:3px; font-family:Arial" x="48" y="129">Avg: 5.1 km</text><text fill="#FFFFFF" style="font-size:3px; font-family:Arial" x="75" y="125">Min: 5.1 km</text><text fill="#FFFFFF" style="font-size:3px; font-family:Arial" x="75" y="129">Max: 5.1 km</text><polyline fill="none" points="75.03303167410195,54.549965826270636 77.01221719477326,54.27074172149878 79.6511312215589,54.456891137349885 80.16425339365378,54.0845922549488 81.33710407232866,54.27074172149878 85.2221719454974,53.991517502756324 85.88190045254305,54.17766699445201 88.30090497760102,54.0845922549488 89.18054298637435,54.363816435972694 89.62036199076101,54.829189816024154 89.84027149295434,55.29456287896028 90.06018099561334,56.2253080511 89.91357466066256,57.4352748747915 89.91357466066256,58.5521654204349 90.06018099561334,59.1106100071338 89.98687782837078,59.48290614434518 89.91357466066256,61.0651624572929 90.20678733056411,63.392003304034006 90.42669683229178,64.32273741863901 90.42669683229178,64.78810399892973 90.20678733056411,65.43961667834083 90.5,66.83571317931637 90.35339366504923,67.30107804411091 90.35339366504923,67.85951546236174 90.20678733056411,68.51102520548739 90.35339366504923,69.06946163263638 90.28009049780667,70.46555069874739 90.35339366504923,71.1170579509344 90.20678733056411,73.07157597114565 90.35339366504923,73.536936578108 90.20678733056411,74.18844089459162 90.28009049780667,75.21223213383928 90.1334841628559,78.84202504472341 90.20678733056411,81.35494727507466 89.69366515846923,83.0302236150601 89.10723981913179,83.68171885749325 89.03393665142357,83.96093091380317 87.71447963826358,83.77478955552215 87.64117647055537,83.96093091380317 87.2013574661687,83.96093091380317 85.66199095034972,83.68171885749325 85.00226244376972,83.96093091380317 82.5099547514692,84.14707222080324 81.2638009050861,84.05400157358963 80.09095022594556,84.24014285538578 79.06470588222146,84.05400157358963 77.81855203630403,84.14707222080324 77.15882352925837,84.05400157358963 75.47285067848861,84.14707222080324 74.95972850685939,84.05400157358963 74.44660633476451,84.33321347727906 71.22126696817577,84.61242526653223 70.85475113103166,84.79856639599893 68.58235294092447,84.79856639599893 66.89638009015471,84.98470747418469 65.35701357480139,84.79856639599893 63.744343891274184,84.89163694140734 63.157918551936746,84.7054958374938 62.351583710405976,84.7054958374938 62.05837104097009,84.89163694140734 61.10542986402288,84.79856639599893 60.07918552029878,85.1708485018462 58.68642533943057,85.0777779945638 57.95339366514236,85.26391899673035 56.48733031656593,85.0777779945638 53.9950226242654,85.0777779945638 52.89547511283308,84.89163694140734 52.602262443397194,84.98470747418469 50.916289592627436,84.51935468276497 47.83755656145513,84.98470747418469 47.47104072384536,84.89163694140734 46.44479638012126,85.1708485018462 44.53891402715817,85.0777779945638 42.33981900429353,85.45005994819803 39.847511311993,85.35698947875062 38.8212669682689,85.54313040478155 37.648416289594024,85.45005994819803 35.66923076938838,85.63620084855938 35.30271493177861,85.45005994819803 33.39683257881552,85.63620084855938 31.49095022585243,85.63620084855938 31.19773755641654,85.8223416985129 29.438461538404226,85.8223416985129 27.532579185441136,86.00848249718547 23.57420814456418,85.63620084855938 18.7361990949139,86.00848249718547 16.02398190042004,85.8223416985129 15.071040723938495,85.91541210416472 13.8248868775554,85.72927127993898 10.892760180868208,85.72927127993898 10.452941176015884,85.63620084855938 9.793212669435889,84.7054958374938 9.646606334950775,84.24014285538578 9.866515836678445,83.96093091380317 9.866515836678445,82.37872774986317 9.793212669435889,80.51730756106554 9.573303167242557,80.33116526243975 9.573303167242557,79.58659556042403 9.866515836678445,79.12123908335343 10.159728506579995,78.1905251762364 10.59954751143232,76.70138028188376 10.452941176015884,76.42216525174445 10.526244343724102,75.39837583008921 10.379638008773327,73.72308073239401 10.452941176015884,73.44386448222212 10.159728506579995,72.69928725628415 10.159728506579995,72.14085380337201 9.646606334950775,70.09326056070859 9.719909502193332,69.53482497227378 9.646606334950775,68.60409797530156 9.866515836678445,68.0456611670088 9.719909502193332,67.20800509641413 9.866515836678445,66.55649410770275 9.793212669435889,65.71883620705921 10.159728506579995,64.88117727712961 9.939819004386663,64.60195740504423 10.013122172094882,64.04351731756469 9.866515836678445,63.76429710240336 9.939819004386663,63.019709302519914 9.719909502193332,62.55434151436202 9.793212669435889,62.275120688718744 9.5,61.34438377828337 9.646606334950775,60.59979333478259 9.573303167242557,59.66905413632048 9.646606334950775,59.38983212900348 9.573303167242557,57.3422005798202 9.573303167242557,57.15605195204262 10.013122172094882,56.69068016053643 10.819457013625652,56.132233590993565 13.01855203602463,55.94608463277109 17.34343891404569,56.2253080511 18.14977375557646,55.94608463277109 18.369683257769793,56.132233590993565 19.395927601959556,55.853010134829674 21.375113121699542,55.853010134829674 22.181447963695973,55.666861100296956 22.54796380084008,55.853010134829674 22.84117647027597,55.853010134829674 23.940723981708288,55.5737865640549 27.16606334829703,55.5737865640549 27.532579185441136,55.48071201500716 30.024886877741665,55.5737865640549 30.831221719272435,55.38763745321194 31.417647058609873,55.5737865640549 32.443891402333975,55.48071201500716 34.86289592785761,55.5737865640549 36.98868778254837,55.38763745321194 37.72171945683658,55.20148829190293 40.36063348362222,55.0153390794876 40.94705882342532,55.20148829190293 42.1199095021002,55.0153390794876 42.70633484143764,55.20148829190293 43.21945701353252,54.92226445436245 44.099095022305846,55.20148829190293 44.83212669659406,55.0153390794876 45.271945701446384,55.10841369215632 46.078280542977154,54.829189816024154 49.45022624451667,55.20148829190293 50.18325791833922,55.0153390794876 52.08914027130231,55.29456287896028 52.74886877834797,55.10841369215632 53.77511312207207,55.20148829190293 53.9950226242654,54.92226445436245 54.434841628652066,54.92226445436245 55.68099547503516,55.20148829190293 56.78054298646748,55.0153390794876 58.539819004479796,55.38763745321194 60.738914026878774,55.0153390794876 63.59773755632341,55.10841369215632 65.28371040709317,54.736115165404044 65.65022624423727,54.456891137349885 66.89638009015471,54.363816435972694 68.58235294092447,54.456891137349885 68.87556561082602,54.64304050221108 69.09547511301935,55.0153390794876 69.3886877829209,54.829189816024154 70.26832579169422,54.92226445436245 70.63484162930399,54.736115165404044 70.92805429873988,54.736115165404044 71.36787330312654,55.20148829190293 72.32081447960809,55.38763745321194 73.64027149323374,55.0153390794876 74.59321266971529,55.20148829190293 75.54615384619683,54.92226445436245 76.20588235324249,54.92226445436245 77.67194570135325,54.64304050221108 77.89185520354658,54.736115165404044 79.06470588222146,54.64304050221108 79.94434389146045,54.736115165404044 80.31085972860456,54.549965826270636 81.99683257890865,54.549965826270636 82.65656108595431,54.27074172149878 83.68280542967841,54.17766699445201 84.04932126682252,53.991517502756324 85.00226244376972,53.991517502756324 85.44208144769073,54.17766699445201 88.37420814484358,54.0845922549488 88.81402714923024,53.991517502756324 89.69366515846923,54.549965826270636 89.91357466066256,55.48071201500716 89.91357466066256,57.24912627215963 89.84027149295434,57.714497682696674 89.98687782837078,58.83138777106069 89.76696832571179,59.57598014670657 89.98687782837078,60.69286718463991 90.06018099561334,61.623604984837584 90.20678733056411,61.71667869511293 90.1334841628559,62.368194310110994 89.98687782837078,62.6474150972208 90.28009049780667,65.53268986742478 90.20678733056411,68.88331620773533 90.35339366504923,69.16253432596568 90.28009049780667,70.37247818318428 90.42669683229178,71.1170579509344 90.28009049780667,71.48934752983041 90.20678733056411,72.23392607725691 90.28009049780667,73.90922483534086 90.20678733056411,74.28151288937079 90.35339366504923,74.74687267025001 90.06018099561334,78.65588228876004 90.20678733056411,79.58659556042403 90.1334841628559,82.19258595973952 89.62036199076101,83.40250668703811 88.81402714923024,83.96093091380317 88.08099547494203,84.14707222080324 85.73529411759228,83.77478955552215 85.36877828044817,83.96093091380317 84.04932126682252,84.05400157358963 83.97601809957996,84.14707222080324 81.63031674176455,84.24014285538578 81.19049773737788,84.33321347727906 78.11176470620558,84.33321347727906 77.15882352925837,84.05400157358963 76.13257918553427,84.33321347727906 75.3262443440035,84.24014285538578 74.59321266971529,84.51935468276497 73.12714932160452,84.33321347727906 71.88099547522143,84.51935468276497 71.4411764703691,84.79856639599893 71.00135746598244,84.51935468276497 69.90180995455012,84.7054958374938 68.72895927587524,84.51935468276497 67.77601809985936,84.79856639599893 66.89638009015471,84.7054958374938 63.81764705851674,85.0777779945638 61.69185520336032,84.98470747418469 60.95882352953777,84.79856639599893 59.05294117657468,85.0777779945638 56.927149320952594,84.89163694140734 54.87466063350439,85.1708485018462 50.84298642491922,84.51935468276497 50.623076922725886,84.7054958374938 49.0837104069069,84.79856639599893 44.83212669659406,85.0777779945638 44.24570135772228,84.98470747418469 43.879185520112514,85.1708485018462 42.486425339244306,85.0777779945638 41.53348416276276,85.35698947875062 39.62760180979967,85.35698947875062 38.89457013551146,85.54313040478155 38.30814479617402,85.35698947875062 36.62217194540426,85.63620084855938 34.86289592785761,85.63620084855938 34.642986425198615,85.45005994819803 34.056561085861176,85.63620084855938 32.737104072235525,85.63620084855938 32.37058823555708,85.45005994819803 31.19773755641654,85.63620084855938 30.318099547643214,85.63620084855938 29.438461538404226,85.8223416985129 28.558823529165238,85.72927127993898 27.16606334829703,85.8223416985129 26.726244343910366,85.72927127993898 24.527149321045727,85.63620084855938 24.307239818852395,85.54313040478155 23.57420814456418,85.72927127993898 21.44841628940776,85.8223416985129 20.05565610853955,85.72927127993898 19.32262443425134,85.91541210416472 18.662895927205682,85.91541210416472 18.076470587868243,85.63620084855938 16.976923076435924,85.91541210416472 15.950678732711822,85.8223416985129 13.238461538217962,86.00848249718547 10.892760180868208,85.72927127993898 10.233031673822552,85.0777779945638 10.086425338871777,84.7054958374938 10.013122172094882,82.47179862577468 10.086425338871777,80.88959200546378 9.939819004386663,80.4242364182719 10.013122172094882,78.37666805955814 10.159728506579995,78.09745371568715 10.013122172094882,77.63209622213617 10.159728506579995,77.35288157354807 10.233031673822552,76.04987836745568 10.30633484153077,73.536936578108 9.939819004386663,69.62789760233136 10.013122172094882,68.88331620773533 9.939819004386663,68.60409797530156 9.939819004386663,68.0456611670088 10.086425338871777,67.67336970701581 9.866515836678445,67.58029681036714 10.379638008773327,66.46342105837539 10.30633484153077,65.34654347633477 10.526244343724102,64.04351731756469 10.379638008773327,61.99589974916307 10.086425338871777,61.15823624387849 10.159728506579995,59.76212811318692 9.793212669435889,57.80757192656165 10.159728506579995,56.87682891526492 10.452941176015884,56.69068016053643 11.552488687448204,56.31838249840075 12.21221719449386,56.41145693307044 14.11809954745695,56.03915911813965 14.557918551843613,56.132233590993565 15.73076923051849,55.666861100296956 17.34343891404569,55.94608463277109 17.709954751189798,55.853010134829674 18.44298642501235,56.03915911813965 19.24932126700878,56.03915911813965 23.940723981708288,55.759935624024365 24.893665158189833,55.48071201500716 26.3597285063006,55.48071201500716 28.119004524778575,55.29456287896028 28.705429864116013,55.29456287896028 29.511764705646783,55.759935624024365 31.564253393560648,55.759935624024365 32.29728506784886,55.759935624024365 32.66380090452731,55.48071201500716 33.69004524871707,55.5737865640549 36.69547511311248,55.29456287896028 37.868325791787356,55.29456287896028 38.60135746607557,55.10841369215632 39.55429864209145,55.20148829190293 39.847511311993,55.0153390794876 40.50723981903866,55.20148829190293 42.04660633485764,55.0153390794876 42.779638009145856,55.10841369215632 43.292760180775076,54.829189816024154 45.12533936649561,54.736115165404044 45.56515837088227,54.829189816024154 46.591402714606375,54.829189816024154 46.66470588231459,55.0153390794876 48.204072398133576,55.20148829190293 49.15701357461512,55.5737865640549 51.06289592757821,55.48071201500716 51.9425339368172,55.20148829190293 53.70180995436385,55.20148829190293 54.58144796360284,55.0153390794876" stroke="#4DD2FF" stroke-linecap="round" stroke-linejoin="round" stroke-width="0.5"><title>2025-02-25 5.1km</title><desc>13718230483</desc></polyline></svg>