<?xml version="1.0" encoding="utf-8" ?>
<svg baseProfile="full" height="130mm" version="1.1" viewBox="0,0,100,130" width="100mm" xmlns="http://www.w3.org/2000/svg" xmlns:ev="http://www.w3.org/2001/xml-events" xmlns:xlink="http://www.w3.org/1999/xlink"><defs /><rect fill="#222222" height="130" width="100" x="0" y="0" /><text fill="#FFFFFF" style="font-size:6px; font-family:Arial; font-weight:bold;" x="5" y="10">2025-04-03 Workouts</text><text fill="#FFFFFF" style="font-size:4px; font-family:Arial" x="5" y="121">Runner</text><text fill="#FFFFFF" style="font-size:6px; font-family:Arial" x="2" y="128">蓝皮书</text><text fill="#FFFFFF" style="font-size:4px; font-family:Arial" x="25" y="121">STATISTICS</text><text fill="#FFFFFF" style="font-size:3px; font-family:Arial" x="25" y="125">Number: 1</text><text fill="#FFFFFF" style="font-size:3px; font-family:Arial" x="5" y="129">Weekly: 1.0</text><text fill="#FFFFFF" style="font-size:3px; font-family:Arial" x="48" y="125">Total: 10.8 km</text><text fill="#FFFFFF" style="font-size:3px; font-family:Arial" x="48" y="129">Avg: 10.8 km</text><text fill="#FFFFFF" style="font-size:3px; font-family:Arial" x="75" y="125">Min: 10.8 km</text><text fill="#FFFFFF" style="font-size:3px; font-family:Arial" x="75" y="129">Max: 10.8 km</text><polyline fill="none" points="10.902597401291132,75.78740189643577 19.31818181835115,83.35548140085302 36.149350648745894,84.24584253970534 44.21428571455181,84.24584253970534 77.17532467655838,83.35548140085302 86.29220779426396,79.34885326190852 90.14935065060854,70.00003512948751 83.83766233734787,57.98008671728894 62.09740259870887,55.30898105283268 49.123376624658704,55.30898105283268 30.18831168860197,56.64453415921889 21.7727272734046,56.64453415921889 10.902597401291132,64.6578413057141 12.65584415756166,79.34885326190852 21.422077922150493,83.80066200089641 69.46103896200657,82.46512001776136 84.88961039111018,80.6843965225853 89.44805194996297,74.45185663178563 88.04545454867184,61.98674111114815 79.98051948100328,56.64453415921889 68.05844155885279,56.19934985181317 59.99350649304688,56.64453415921889 42.811688313260674,57.53490259242244 21.422077922150493,57.08971840539016 11.954545455053449,63.32229148154147 9.5,71.78076445963234 14.409090910106897,82.01993923424743 49.47402597591281,84.69102301937528 78.22727272845805,82.01993923424743 88.3961038980633,77.12294661533087 87.69480519555509,61.54155753273517 81.03246753290296,57.53490259242244 69.46103896200657,57.08971840539016 61.3961038980633,55.30898105283268 27.38311688415706,58.42527078115381 15.811688313260674,59.7608226116281 9.5,70.00003512948751 15.811688313260674,82.46512001776136 51.22727272845805,84.24584253970534 83.83766233734787,81.57475839206018 90.5,70.00003512948751 84.88961039111018,58.8704547858797 72.96753246709704,55.30898105283268 59.292207792401314,54.86379656335339 42.811688313260674,58.8704547858797 21.7727272734046,57.98008671728894 11.954545455053449,65.10302445827983 14.759740259498358,80.2392154969275 43.51298701390624,83.35548140085302 59.64285714365542,83.80066200089641 84.88961039111018,79.34885326190852 88.74675324745476,64.21265809098259 76.47402597591281,56.19934985181317 21.7727272734046,57.98008671728894 13.006493505090475,64.21265809098259 12.305194806307554,77.12294661533087 20.019480518996716,83.35548140085302 52.27922078035772,83.35548140085302 80.33116883225739,82.01993923424743 87.34415584616363,76.67776510259137 89.09740259870887,66.88375646225177 77.52597402594984,56.64453415921889 44.21428571455181,56.19934985181317 21.422077922150493,57.98008671728894 13.006493505090475,65.10302445827983 12.305194806307554,75.78740189643577 20.019480518996716,82.91030073934235 39.65584415756166,83.35548140085302 82.43506493605673,82.91030073934235 89.44805194996297,74.0066747542005 87.34415584616363,62.877108085667714 79.27922078035772,57.08971840539016 59.292207792401314,57.08971840539016 30.889610391110182,57.53490259242244 19.668831169605255,58.42527078115381 10.902597401291132,69.10967009980232 14.058441558852792,79.34885326190852 49.123376624658704,84.24584253970534 67.35714285820723,84.24584253970534 86.64285714551806,78.0133094561752 88.74675324745476,65.10302445827983 70.51298701576889,56.19934985181317 36.85064934939146,56.64453415921889 20.72077921964228,58.42527078115381 10.551948053762317,66.88375646225177 10.551948053762317,77.5681280659046 20.019480518996716,83.80066200089641 80.33116883225739,82.91030073934235 88.74675324745476,76.23258352954872 83.83766233734787,59.7608226116281 55.78571428731084,56.19934985181317 13.006493505090475,62.43192462949082 13.357142858207226,80.2392154969275 78.92857143096626,82.91030073934235 89.09740259870887,74.45185663178563 88.74675324745476,64.21265809098259 82.08441558480263,58.42527078115381 43.51298701390624,57.08971840539016 28.785714285448194,57.98008671728894 13.707792207598686,61.54155753273517 10.902597401291132,75.34222020115703 21.071428570896387,83.80066200089641 80.33116883225739,82.46512001776136 89.44805194996297,73.1163108185865 86.99350649490952,61.54155753273517 58.24025974050164,56.19934985181317 42.46103896200657,56.19934985181317 18.266233766451478,58.42527078115381 10.551948053762317,72.67112875985913 21.422077922150493,83.80066200089641 85.59090909175575,79.34885326190852 89.79870129935443,72.2259466398973 79.27922078035772,56.64453415921889 52.62987012974918,57.98008671728894 39.65584415756166,57.53490259242244 18.616883117705584,58.42527078115381 10.201298700645566,70.44521755259484 14.058441558852792,80.2392154969275 76.82467532530427,83.35548140085302 88.74675324745476,76.67776510259137 88.3961038980633,64.21265809098259 75.07142857275903,56.19934985181317 58.94155844114721,56.19934985181317 50.52597402781248,56.19934985181317 31.590909091755748,56.19934985181317 20.37012987025082,57.53490259242244 13.707792207598686,62.877108085667714 14.058441558852792,80.2392154969275 61.3961038980633,84.24584253970534 87.34415584616363,78.0133094561752 89.79870129935443,67.32893931143917 81.38311688415706,57.98008671728894 71.91558441519737,57.08971840539016 51.92857142910361,56.64453415921889 12.305194806307554,63.76747481757775 14.058441558852792,81.12957748724148 53.33116883225739,82.91030073934235 79.98051948100328,82.46512001776136 90.14935065060854,72.2259466398973 80.6818181835115,57.08971840539016 56.837662337347865,55.75416548247449 34.04545454494655,56.64453415921889 21.071428570896387,57.53490259242244 10.902597401291132,70.44521755259484 19.668831169605255,83.35548140085302 43.863636365160346,82.91030073934235 79.27922078035772,83.35548140085302 88.3961038980633,75.34222020115703 85.94155844300985,60.65119019406848 73.3181818202138,56.64453415921889 56.1363636367023,57.98008671728894 32.993506494909525,57.08971840539016 17.915584415197372,58.42527078115381 11.603896103799343,67.32893931143917 14.409090910106897,80.2392154969275 80.6818181835115,82.46512001776136 88.74675324745476,75.34222020115703 87.69480519555509,63.76747481757775 77.87662337720394,56.64453415921889 61.74675324745476,55.75416548247449 41.75974025949836,57.98008671728894 17.915584415197372,58.8704547858797 10.902597401291132,67.32893931143917 14.058441558852792,80.6843965225853 21.422077922150493,84.24584253970534 84.53896104171872,80.6843965225853 89.44805194996297,70.00003512948751 83.48701298981905,59.7608226116281 19.31818181835115,57.53490259242244 10.201298700645566,69.55485264584422 15.811688313260674,82.01993923424743 79.98051948100328,82.46512001776136 90.5,71.33558221859857 79.62987013161182,56.64453415921889 67.35714285820723,57.98008671728894 57.88961038924754,57.53490259242244 30.18831168860197,57.53490259242244 19.668831169605255,57.98008671728894 12.65584415756166,62.877108085667714 13.357142858207226,80.2392154969275 22.12337662279606,83.80066200089641 59.64285714365542,83.35548140085302 89.44805194996297,75.34222020115703 86.29220779426396,61.09637389332056 67.35714285820723,57.08971840539016 50.87662337720394,57.98008671728894 18.96753246895969,58.42527078115381 10.551948053762317,70.89039991609752 13.707792207598686,80.2392154969275 38.60389610379934,83.35548140085302 55.78571428731084,82.46512001776136 79.27922078035772,82.91030073934235 86.29220779426396,78.0133094561752 89.79870129935443,69.55485264584422 83.1363636367023,59.31563872960396 69.46103896200657,56.19934985181317 60.694805197417736,57.08971840539016 36.500000001862645,58.42527078115381 15.811688313260674,60.20600643358193 10.902597401291132,70.00003512948751 14.058441558852792,81.57475839206018 27.733766235411167,85.13620343664661 79.98051948100328,83.35548140085302 88.04545454867184,76.67776510259137 86.29220779426396,61.54155753273517 74.72077921964228,57.98008671728894 49.123376624658704,58.8704547858797 19.31818181835115,58.8704547858797 10.201298700645566,74.0066747542005 18.616883117705584,83.80066200089641 41.4090909101069,82.91030073934235 69.46103896200657,82.01993923424743 86.64285714551806,78.90367205440998 88.3961038980633,66.88375646225177" stroke="#FFFF00" stroke-linecap="round" stroke-linejoin="round" stroke-width="0.5"><title>2025-04-03 10.8km</title><desc>14063418532</desc></polyline></svg>