<?xml version="1.0" encoding="utf-8" ?>
<svg baseProfile="full" height="130mm" version="1.1" viewBox="0,0,100,130" width="100mm" xmlns="http://www.w3.org/2000/svg" xmlns:ev="http://www.w3.org/2001/xml-events" xmlns:xlink="http://www.w3.org/1999/xlink"><defs /><rect fill="#222222" height="130" width="100" x="0" y="0" /><text fill="#FFFFFF" style="font-size:6px; font-family:Arial; font-weight:bold;" x="5" y="10">2025-02-27 Workouts</text><text fill="#FFFFFF" style="font-size:4px; font-family:Arial" x="5" y="110">Runner</text><text fill="#FFFFFF" style="font-size:6px; font-family:Arial" x="5" y="120">蓝皮书</text><text fill="#FFFFFF" style="font-size:4px; font-family:Arial" x="30" y="110">STATISTICS</text><text fill="#FFFFFF" style="font-size:3px; font-family:Arial" x="30" y="115">Number: 1</text><text fill="#FFFFFF" style="font-size:3px; font-family:Arial" x="30" y="120">Weekly: 1.0</text><text fill="#FFFFFF" style="font-size:3px; font-family:Arial" x="50" y="115">Total: 5.1 km</text><text fill="#FFFFFF" style="font-size:3px; font-family:Arial" x="50" y="120">Avg: 5.1 km</text><text fill="#FFFFFF" style="font-size:3px; font-family:Arial" x="75" y="115">Min: 5.1 km</text><text fill="#FFFFFF" style="font-size:3px; font-family:Arial" x="75" y="120">Max: 5.1 km</text><polyline fill="none" points="9.5,70.43951152567752 9.5,72.63688450865448 11.576923076063395,77.03162597608753 15.038461538031697,80.98688816628419 19.884615384042263,83.62372692581266 23.69230769202113,84.06319984374568 35.80769230611622,83.18425394990481 37.192307690158486,83.62372692581266 50.69230769202113,83.62372692581266 77.34615384414792,82.30530781624839 84.61538461595774,79.66846797592007 88.42307692207396,76.59215209912509 89.46153846010566,75.71320416661911 89.80769230611622,70.87898624222726 88.76923076808453,62.528956366470084 87.38461538404226,60.33157648285851 84.96153846010566,58.13419510005042 83.92307692207396,55.93681221595034 81.84615384601057,55.05785864405334 80.46153846010566,55.05785864405334 78.0384615380317,55.93681221595034 67.99999999813735,55.93681221595034 62.11538461409509,55.05785864405334 52.076923076063395,55.497335460269824 48.61538461595774,55.93681221595034 39.269230768084526,55.497335460269824 34.42307692207396,56.376288913656026 20.23076923005283,56.376288913656026 16.07692307792604,58.57367149647325 12.961538461968303,61.21052861656062 11.576923076063395,63.40790789946914 9.5,70.00003674952313 9.5,73.51583328237757 12.615384615957737,77.03162597608753 14.346153846010566,80.54741482879035 15.730769230052829,81.86583465989679 21.961538461968303,83.62372692581266 33.73076923005283,83.62372692581266 51.03846153616905,82.30530781624839 53.4615384619683,81.4263614427764 65.23076923005283,81.4263614427764 68.69230769202113,82.30530781624839 80.46153846010566,81.86583465989679 85.30769230611622,79.66846797592007 89.11538461595774,75.27373010921292 90.15384615212679,71.75793549534865 89.80769230611622,65.60528568224981 87.38461538404226,60.77105257939547 86.0,59.0131478337571 80.11538461409509,55.93681221595034 74.57692307420075,55.05785864405334 67.99999999813735,55.93681221595034 65.92307692207396,55.497335460269824 62.4615384619683,56.376288913656026 58.653846153989434,55.93681221595034 56.92307692207396,56.376288913656026 55.19230769202113,55.93681221595034 48.269230768084526,57.69471864285879 45.15384615212679,55.93681221595034 37.88461538404226,55.93681221595034 32.69230769202113,57.69471864285879 29.23076923005283,56.376288913656026 24.038461538031697,56.376288913656026 19.19230769202113,57.25524212559685 14.692307692021132,59.89210032578558 11.576923076063395,64.28685919311829 10.538461538031697,68.24213704280555 10.884615384042263,72.19741003238596 12.269230768084526,75.71320416661911 16.769230768084526,81.86583465989679 22.30769230797887,83.62372692581266 32.0,83.18425394990481 37.88461538404226,83.62372692581266 39.9615384619683,83.18425394990481 41.346153846010566,83.62372692581266 46.88461538590491,82.74478091229685 50.69230769202113,83.18425394990481 55.88461538404226,82.30530781624839 64.5384615380317,82.30530781624839 74.57692307420075,82.74478091229685 82.88461538404226,81.86583465989679 85.30769230611622,80.54741482879035 87.73076923005283,78.35004724585451 87.73076923005283,76.152678162558 88.76923076808453,75.71320416661911 89.46153846010566,68.24213704280555 89.11538461595774,65.60528568224981 86.34615384601057,60.33157648285851 82.19230769202113,56.81576554966159 79.0769230760634,55.93681221595034 76.65384615398943,56.81576554966159 71.80769230611622,56.81576554966159 70.0769230760634,57.25524212559685 56.23076923005283,56.81576554966159 54.5,57.25524212559685 49.30769230611622,56.376288913656026 43.42307692207396,57.69471864285879 39.269230768084526,56.376288913656026 34.076923076063395,57.69471864285879 32.34615384414792,57.25524212559685 27.153846153989434,57.69471864285879 19.538461538031697,57.69471864285879 15.384615384042263,59.0131478337571 13.653846152126789,61.21052861656062 11.230769231915474,66.04476105910726 10.884615384042263,71.31846089893952 12.615384615957737,76.59215209912509 14.346153846010566,80.10794143332168 16.769230768084526,81.86583465989679 22.30769230797887,84.5026727002114 28.192307693883777,84.5026727002114 43.76923076994717,82.74478091229685 55.19230769202113,83.18425394990481 72.5,81.4263614427764 77.34615384414792,81.86583465989679 78.73076923005283,81.4263614427764 81.15384615398943,81.86583465989679 85.65384615398943,79.66846797592007 87.73076923005283,76.59215209912509 90.15384615212679,69.56056191236712 89.80769230611622,66.4842363758944 87.73076923005283,61.21052861656062 83.23076923005283,57.25524212559685 80.46153846010566,55.93681221595034 75.96153846010566,55.497335460269824 71.11538461409509,56.81576554966159 69.0384615380317,55.93681221595034 62.11538461409509,56.81576554966159 51.730769231915474,56.376288913656026 46.88461538590491,57.69471864285879 44.46153846010566,56.81576554966159 42.03846153616905,58.13419510005042 37.192307690158486,58.13419510005042 34.076923076063395,57.69471864285879 26.80769230797887,58.13419510005042 20.576923076063395,57.69471864285879 16.769230768084526,59.89210032578558 12.961538461968303,63.40790789946914 11.230769231915474,68.6816120587755 11.576923076063395,70.43951152567752 11.230769231915474,73.95530757820234 12.615384615957737,77.9105735484045 16.423076923936605,82.30530781624839 24.038461538031697,84.5026727002114 54.846153846010566,83.18425394990481 56.23076923005283,82.30530781624839 62.4615384619683,82.74478091229685 72.15384615398943,81.4263614427764 80.80769230611622,82.30530781624839 86.0,79.2289944596123 89.46153846010566,74.39478181605227 90.15384615212679,71.31846089893952 89.80769230611622,67.36318682949059 87.73076923005283,62.08948050905019 85.65384615398943,59.89210032578558 79.0769230760634,55.497335460269824 71.80769230611622,55.497335460269824 62.4615384619683,57.25524212559685 60.0384615380317,56.376288913656026 51.03846153616905,56.376288913656026 43.42307692207396,58.57367149647325 32.0,55.93681221595034 25.07692307792604,56.81576554966159 19.884615384042263,58.57367149647325 15.384615384042263,61.650004592724144 12.961538461968303,64.28685919311829 11.92307692207396,69.56056191236712 11.92307692207396,72.63688450865448 12.961538461968303,76.152678162558 15.384615384042263,80.54741482879035 21.269230768084526,83.18425394990481 27.153846153989434,84.06319984374568 32.0,82.30530781624839 40.653846153989434,82.74478091229685 46.192307690158486,82.74478091229685 48.61538461595774,83.18425394990481 54.5,81.86583465989679 56.23076923005283,82.74478091229685 65.23076923005283,82.30530781624839 69.0384615380317,83.18425394990481 71.11538461409509,83.18425394990481 71.80769230611622,82.30530781624839 78.38461538404226,82.74478091229685 82.19230769202113,81.4263614427764 87.0384615380317,78.78952088276856 89.11538461595774,77.03162597608753 88.76923076808453,76.152678162558 89.80769230611622,72.19741003238596 89.11538461595774,63.84738357574679 88.42307692207396,61.650004592724144 82.5384615380317,56.81576554966159 80.80769230611622,56.376288913656026 74.23076923005283,56.376288913656026 73.5384615380317,55.93681221595034 71.80769230611622,56.376288913656026 65.5769230760634,55.93681221595034 62.4615384619683,56.81576554966159 57.269230768084526,56.376288913656026 54.846153846010566,57.25524212559685 30.615384614095092,56.81576554966159 18.153846153989434,59.0131478337571 14.692307692021132,61.650004592724144 11.92307692207396,65.16581024532206 11.230769231915474,72.19741003238596 11.576923076063395,75.71320416661911 15.384615384042263,81.4263614427764 17.80769230797887,82.74478091229685 24.384615382179618,84.94214549707249 32.0,84.5026727002114 37.192307690158486,84.94214549707249 47.23076923005283,82.30530781624839 56.23076923005283,83.18425394990481 68.69230769202113,83.18425394990481 74.92307692207396,81.86583465989679 84.61538461595774,80.54741482879035 87.38461538404226,78.78952088276856 88.76923076808453,76.59215209912509 89.80769230611622,73.07635892624967 90.15384615212679,70.00003674952313 88.76923076808453,63.84738357574679 86.34615384601057,60.33157648285851 79.0769230760634,55.93681221595034 75.61538461409509,55.05785864405334 60.0384615380317,56.81576554966159 55.19230769202113,55.93681221595034 53.80769230611622,56.81576554966159 46.192307690158486,56.81576554966159 44.46153846010566,58.13419510005042 38.23076923005283,58.13419510005042 34.76923076994717,56.81576554966159 26.80769230797887,56.81576554966159 25.42307692207396,57.25524212559685 22.30769230797887,56.81576554966159 13.307692307978868,64.7263347490225 10.884615384042263,70.43951152567752 10.884615384042263,73.07635892624967 13.307692307978868,78.35004724585451 17.461538461968303,82.74478091229685 19.19230769202113,84.06319984374568 22.65384615212679,84.94214549707249 28.538461538031697,84.5026727002114 37.5384615380317,85.38161823316477 41.69230769202113,83.62372692581266 45.5,83.62372692581266 54.846153846010566,82.30530781624839 60.38461538404226,82.74478091229685 68.34615384601057,81.4263614427764 74.92307692207396,82.30530781624839 80.11538461409509,82.30530781624839 84.61538461595774,80.98688816628419 88.42307692207396,77.47109979228117 89.46153846010566,73.51583328237757 89.46153846010566,67.80266196536832 88.76923076808453,62.08948050905019 84.61538461595774,58.57367149647325 83.23076923005283,58.13419510005042 81.5,59.0131478337571 80.46153846010566,57.25524212559685 79.4230769239366,57.25524212559685 73.88461538404226,56.376288913656026 68.69230769202113,57.25524212559685 58.30769230797887,55.93681221595034 53.80769230611622,57.25524212559685 46.5384615380317,58.13419510005042 42.73076923005283,57.69471864285879 30.615384614095092,57.69471864285879 21.615384614095092,57.25524212559685 17.115384615957737,59.0131478337571 14.0,61.650004592724144 11.230769231915474,68.6816120587755 10.884615384042263,72.63688450865448 11.92307692207396,77.47109979228117 14.346153846010566,80.54741482879035 18.846153846010566,83.62372692581266 22.30769230797887,84.06319984374568 36.153846153989434,84.06319984374568 38.23076923005283,83.18425394990481 46.5384615380317,82.74478091229685 59.69230769202113,84.06319984374568 62.11538461409509,83.18425394990481 77.69230769015849,83.18425394990481 82.19230769202113,82.30530781624839 85.30769230611622,80.10794143332168 88.42307692207396,76.59215209912509 89.46153846010566,72.63688450865448 89.80769230611622,66.92371163191274 88.76923076808453,63.84738357574679 83.92307692207396,57.25524212559685 80.46153846010566,55.05785864405334 76.65384615398943,55.05785864405334 64.88461538404226,56.376288913656026 56.92307692207396,55.497335460269824 51.730769231915474,56.376288913656026 48.61538461595774,55.93681221595034 39.269230768084526,57.25524212559685 38.92307692207396,57.69471864285879 30.615384614095092,56.81576554966159 23.0,57.25524212559685 17.80769230797887,59.452624110039324 14.692307692021132,62.08948050905019 10.538461538031697,67.80266196536832 10.538461538031697,70.00003674952313 10.538461538031697,73.95530757820234 12.615384615957737,78.35004724585451 17.461538461968303,83.18425394990481 23.0,84.5026727002114 32.0,83.18425394990481 42.38461538404226,83.62372692581266 45.15384615212679,83.18425394990481 47.23076923005283,83.62372692581266 55.5384615380317,83.18425394990481 64.19230769202113,84.5026727002114 70.76923076808453,82.30530781624839 79.4230769239366,82.74478091229685 83.23076923005283,81.4263614427764 86.34615384601057,78.78952088276856 89.80769230611622,73.51583328237757 90.5,67.80266196536832 89.46153846010566,64.28685919311829 87.0384615380317,60.33157648285851 81.5,56.376288913656026 77.69230769015849,55.497335460269824 67.30769230797887,54.6183817666024 65.23076923005283,55.497335460269824 61.769230768084526,55.497335460269824 58.30769230797887,56.376288913656026 52.769230768084526,56.81576554966159 48.269230768084526,55.497335460269824 34.76923076994717,55.05785864405334 28.884615384042263,56.81576554966159 26.115384615957737,55.93681221595034 24.384615382179618,56.376288913656026 22.65384615212679,55.497335460269824 16.07692307792604,58.13419510005042 12.961538461968303,62.08948050905019 10.884615384042263,66.04476105910726 10.538461538031697,67.80266196536832 12.269230768084526,75.27373010921292 15.384615384042263,80.10794143332168 18.846153846010566,82.74478091229685 21.615384614095092,83.18425394990481 30.961538461968303,83.62372692581266 30.615384614095092,83.62372692581266 35.80769230611622,82.30530781624839 46.88461538590491,81.86583465989679 48.61538461595774,81.4263614427764 63.846153846010566,81.4263614427764 65.5769230760634,82.30530781624839 79.0769230760634,80.98688816628419 84.26923076994717,79.66846797592007 86.34615384601057,76.59215209912509 86.69230769015849,75.27373010921292" stroke="#4DD2FF" stroke-linecap="round" stroke-linejoin="round" stroke-width="0.5"><title>2025-02-27 5.1km</title><desc>13736887405</desc></polyline></svg>