<?xml version="1.0" encoding="utf-8" ?>
<svg baseProfile="full" height="130mm" version="1.1" viewBox="0,0,100,130" width="100mm" xmlns="http://www.w3.org/2000/svg" xmlns:ev="http://www.w3.org/2001/xml-events" xmlns:xlink="http://www.w3.org/1999/xlink"><defs /><rect fill="#222222" height="130" width="100" x="0" y="0" /><text fill="#FFFFFF" style="font-size:6px; font-family:Arial; font-weight:bold;" x="5" y="10">2025-02-22 Workouts</text><text fill="#FFFFFF" style="font-size:4px; font-family:Arial" x="5" y="110">Runner</text><text fill="#FFFFFF" style="font-size:6px; font-family:Arial" x="5" y="120">蓝皮书</text><text fill="#FFFFFF" style="font-size:4px; font-family:Arial" x="30" y="110">STATISTICS</text><text fill="#FFFFFF" style="font-size:3px; font-family:Arial" x="30" y="115">Number: 1</text><text fill="#FFFFFF" style="font-size:3px; font-family:Arial" x="30" y="120">Weekly: 1.0</text><text fill="#FFFFFF" style="font-size:3px; font-family:Arial" x="50" y="115">Total: 1.4 km</text><text fill="#FFFFFF" style="font-size:3px; font-family:Arial" x="50" y="120">Avg: 1.4 km</text><text fill="#FFFFFF" style="font-size:3px; font-family:Arial" x="75" y="115">Min: 1.4 km</text><text fill="#FFFFFF" style="font-size:3px; font-family:Arial" x="75" y="120">Max: 1.4 km</text><polyline fill="none" points="62.15213820151985,105.03380120312795 67.16730634868145,100.06452217372134 66.78152418322861,99.07066552294418 69.48199933953583,92.11366108176298 68.71043500863016,85.65357316983864 69.096217174083,80.68426667735912 70.6393458340317,78.69654210982844 70.6393458340317,76.21188481384888 71.79669233039021,72.2364294808358 71.41091016680002,71.73949724785052 71.41091016680002,75.2180214037653 71.41091016680002,70.74563256790861 69.48199933953583,67.76403684262186 69.48199933953583,65.77630495117046 71.79669233039021,61.800837786635384 73.33982099033892,56.83149749273434 74.49716748669744,46.89279577904381 73.33982099033892,45.89892405853607 72.56825666129589,40.92956123012118 71.79669233039021,39.4387510092929 62.15213820151985,32.481628260808066 50.192891081795096,29.5 41.70568344928324,32.481628260808066 39.7767726238817,33.97244143881835 35.14738664217293,38.941814127145335 33.60425798036158,41.92343435995281 32.061129320412874,48.38360283290967 31.675347154960036,51.862150157336146 30.518000660464168,54.34682470513508 29.74643632955849,58.819234455237165 27.817525504156947,64.2855052924715 27.04596117325127,81.18119764397852 25.502832513302565,89.62901329249144 27.43174333870411,99.07066552294418 29.360654164105654,103.04609043640085 30.903782825917006,105.03380120312795 32.83269365131855,104.53687361674383 41.70568344928324,110.00307318917476 44.40615860372782,110.5 50.57867324911058,110.5 57.90853438526392,108.51229233271442 57.52275221981108,106.52458353806287 59.06588087975979,104.53687361674383 60.60900954157114,103.54301823326387 62.15213820151985,100.06452217372134 61.76635603606701,98.07680859137326 63.69526686146855,93.10751970438287 64.08104902692139,90.12594299181364 65.62417768873274,85.65357316983864 68.32465284317732,68.26096964068711 69.096217174083,65.2793718019966 71.02512799948454,62.7947049990762 72.18247449584305,57.328431838424876 71.02512799948454,45.401988093042746 69.48199933953583,42.91730720619671 65.23839552141726,39.4387510092929 56.36540572345257,33.97244143881835 49.03554458729923,33.475503782974556 47.10663376189768,33.475503782974556 40.16255478747189,36.95406589680351 36.690515300258994,39.93568781972863 35.53316880762577,41.92343435995281 33.99004014581442,49.87440925161354 33.21847581490874,56.83149749273434 33.21847581490874,68.26096964068711 31.675347154960036,74.72108959360048 31.2895649895072,84.16278196196072 30.132218493148685,86.64743362320587 31.675347154960036,97.5798800191842 38.233643962070346,105.03380120312795 42.863029945641756,108.01536524062976 50.192891081795096,107.51843807497062 55.59384139440954,106.02765616239049 59.06588087975979,103.54301823326387 62.537920366972685,100.06452217372134 65.23839552141726,94.59830711083487 66.39574201777577,81.67812854005024 67.55308851227164,77.20574794337153 68.32465284317732,75.71495314408094 68.32465284317732,73.72722575836815 67.55308851227164,72.2364294808358 68.32465284317732,69.75176760856993 67.93887067958713,62.29777142847888 68.71043500863016,60.80697029083967 69.48199933953583,59.813102514483035 69.096217174083,56.33456307579763 70.25356367044151,52.85602018679492 69.86778150498867,49.377473848173395 66.78152418322861,42.91730720619671 66.78152418322861,41.92343435995281 62.92370253242552,36.457128664013 62.537920366972685,37.45100306090899 56.36540572345257,34.46937902527861 49.80710891634226,33.475503782974556 43.24881210923195,33.97244143881835 38.61942612938583,36.95406589680351 37.84786179848015,39.4387510092929 36.30473313853145,40.92956123012118 36.30473313853145,42.91730720619671 35.53316880762577,43.91117977164686 33.99004014581442,48.880538375116885 32.44691148400307,60.80697029083967 31.2895649895072,65.2793718019966 32.061129320412874,69.25483502214774 31.2895649895072,78.1996107918676 32.061129320412874,86.64743362320587 30.518000660464168,95.59216502774507 30.903782825917006,97.08295137668028 32.061129320412874,98.07680859137326 32.83269365131855,97.5798800191842 38.61942612938583,104.53687361674383" stroke="#4DD2FF" stroke-linecap="round" stroke-linejoin="round" stroke-width="0.5"><title>2025-02-22 1.4km</title><desc>13691082830</desc></polyline></svg>