<?xml version="1.0" encoding="utf-8" ?>
<svg baseProfile="full" height="130mm" version="1.1" viewBox="0,0,100,130" width="100mm" xmlns="http://www.w3.org/2000/svg" xmlns:ev="http://www.w3.org/2001/xml-events" xmlns:xlink="http://www.w3.org/1999/xlink"><defs /><rect fill="#222222" height="130" width="100" x="0" y="0" /><text fill="#FFFFFF" style="font-size:6px; font-family:Arial; font-weight:bold;" x="5" y="10">2025-02-10 Workouts</text><text fill="#FFFFFF" style="font-size:4px; font-family:Arial" x="5" y="121">Runner</text><text fill="#FFFFFF" style="font-size:6px; font-family:Arial" x="2" y="128">蓝皮书</text><text fill="#FFFFFF" style="font-size:4px; font-family:Arial" x="25" y="121">STATISTICS</text><text fill="#FFFFFF" style="font-size:3px; font-family:Arial" x="25" y="125">Number: 1</text><text fill="#FFFFFF" style="font-size:3px; font-family:Arial" x="5" y="129">Weekly: 1.0</text><text fill="#FFFFFF" style="font-size:3px; font-family:Arial" x="48" y="125">Total: 5.1 km</text><text fill="#FFFFFF" style="font-size:3px; font-family:Arial" x="48" y="129">Avg: 5.1 km</text><text fill="#FFFFFF" style="font-size:3px; font-family:Arial" x="75" y="125">Min: 5.1 km</text><text fill="#FFFFFF" style="font-size:3px; font-family:Arial" x="75" y="129">Max: 5.1 km</text><polyline fill="none" points="9.838912133127451,72.79686099034734 10.516736401244998,74.94826235901564 13.566945606842637,80.97217837907374 15.600418409332633,81.4024576540105 16.27824267745018,82.2630160280969 23.056485356763005,83.98413207149133 27.462343094870448,83.12357416725717 32.88493723794818,83.98413207149133 38.30753138102591,83.12357416725717 45.76359832473099,83.98413207149133 50.84728033468127,83.12357416725717 53.89748954027891,84.84468974056654 72.19874477013946,83.12357416725717 84.73849372379482,78.82078112242743 88.46652719751,72.79686099034734 89.483263598755,68.92433482618071 89.8221757337451,63.76095920568332 87.78870292939246,59.027857455424964 86.09414226002991,60.31870409147814 82.36610878631473,56.87644521938637 79.65481171570718,55.585597173077986 75.926778241992,55.585597173077986 67.45397489517927,57.30672778352164 63.387029288336635,56.446162594947964 58.642259415239096,57.73701028875075 55.25313807465136,57.30672778352164 53.558577405288815,57.73701028875075 49.49163179844618,57.73701028875075 46.441422594711185,56.87644521938637 43.391213389113545,57.30672778352164 42.03556485287845,56.01587991346605 33.90167363919318,56.87644521938637 31.52928870357573,57.73701028875075 27.123430961742997,56.87644521938637 21.700836818665266,57.30672778352164 20.345188284292817,58.597575125750154 16.27824267745018,60.31870409147814 13.566945606842637,62.90039577987045 10.516736401244998,68.49405384808779 9.5,74.08770198724233 9.838912133127451,76.2391024758108 10.855648536235094,78.39050149475224 22.378661086782813,85.27496848627925 31.52928870357573,84.41441093548201 35.93514644354582,84.84468974056654 40.341004183515906,83.553853147896 56.608786610886455,83.98413207149133 69.48744769953191,83.12357416725717 72.5376569032669,82.6932951263152 73.893305439502,83.12357416725717 80.67154811695218,82.6932951263152 84.73849372379482,79.68134020105936 87.78870292939246,77.96022180747241 89.483263598755,75.37854245700873 89.483263598755,70.2151774102822 90.5,68.92433482618071 89.483263598755,64.6215223968029 88.46652719751,62.47011397802271 83.04393305443227,58.16729273670353 79.65481171570718,56.87644521938637 70.84309623390436,56.87644521938637 65.75941422581673,56.01587991346605 63.048117155209184,57.30672778352164 56.94769874587655,57.30672778352164 51.86401673592627,58.597575125750154 46.780334727838635,56.87644521938637 43.73012552410364,57.30672778352164 42.37447698786855,58.597575125750154 37.96861924789846,56.87644521938637 32.20711296983063,57.73701028875075 29.15690376609564,56.87644521938637 27.123430961742997,57.73701028875075 24.073221756145358,56.87644521938637 21.023012552410364,57.73701028875075 18.650627613067627,60.31870409147814 16.956066945567727,60.31870409147814 14.244769874960184,62.90039577987045 12.550209203734994,65.48208535183221 11.533472804352641,69.78489660727791 11.194560669362545,74.51798220328055 11.872384935617447,76.6693823968526 15.600418409332633,83.12357416725717 16.956066945567727,83.553853147896 21.700836818665266,84.41441093548201 25.089958159253,83.12357416725717 26.784518828615546,83.98413207149133 33.223849372938275,83.553853147896 36.27405857667327,84.41441093548201 44.40794979035854,83.12357416725717 47.79707112908363,83.553853147896 50.508368199691176,82.6932951263152 57.28661087714136,84.41441093548201 61.01464435085654,84.41441093548201 63.387029288336635,83.98413207149133 67.79288703016937,81.83273687050678 75.2489539757371,82.2630160280969 78.97698744758964,82.6932951263152 82.36610878631473,81.4024576540105 84.73849372379482,79.68134020105936 88.80543933063745,73.22714138263837 89.8221757337451,69.35461574536748 89.14435146562755,65.48208535183221 86.09414226002991,61.60955020063557 82.36610878631473,59.458139726892114 78.97698744758964,58.16729273670353 76.60460251010954,58.16729273670353 73.893305439502,56.87644521938637 71.85983263514936,57.30672778352164 68.13179916329682,56.446162594947964 64.74267782457173,56.87644521938637 61.69246861897409,56.01587991346605 57.96443514712155,56.446162594947964 54.91422594152391,55.585597173077986 52.20292886905372,56.446162594947964 49.49163179844618,55.15531437238678 47.79707112908363,55.585597173077986 46.780334727838635,56.87644521938637 43.05230125412345,55.585597173077986 42.03556485287845,56.446162594947964 38.64644351415336,56.01587991346605 35.25732217542827,56.446162594947964 32.20711296983063,55.585597173077986 28.817991632968187,56.446162594947964 23.056485356763005,56.446162594947964 16.27824267745018,58.597575125750154 12.88912133872509,63.330677521182224 11.533472804352641,69.78489660727791 12.211297070607543,75.37854245700873 14.583682008087635,80.11161965294741 16.27824267745018,81.83273687050678 20.345188284292817,83.98413207149133 27.462343094870448,84.84468974056654 30.173640167340636,83.98413207149133 39.32426778227091,84.41441093548201 42.37447698786855,83.98413207149133 46.10251045972109,84.41441093548201 83.04393305443227,80.11161965294741 84.39958159066737,79.2510606914293 88.46652719751,74.94826235901564 89.14435146562755,69.78489660727791 89.14435146562755,67.63349171448499 86.43305439502001,62.47011397802271 81.01046025194228,58.597575125750154 75.926778241992,56.87644521938637 74.2322175744921,57.73701028875075 72.876569038257,56.87644521938637 68.80962342955172,56.87644521938637 65.75941422581673,56.446162594947964 45.76359832473099,59.027857455424964 38.30753138102591,57.73701028875075 21.023012552410364,58.16729273670353 17.294979080557823,60.31870409147814 13.905857739970088,64.19124083011411 12.550209203734994,66.77292934572324 12.211297070607543,72.36658054077998 12.88912133872509,75.80882249656133 15.600418409332633,80.54189904453233 18.989539748057723,83.12357416725717 20.684100417420268,83.553853147896 30.173640167340636,82.6932951263152 32.88493723794818,83.553853147896 35.25732217542827,82.6932951263152 39.32426778227091,83.98413207149133 42.713389120996,83.12357416725717 52.54184100404382,83.98413207149133 57.62552301213145,83.12357416725717 64.40376568958163,83.553853147896 67.11506276018918,82.2630160280969 73.21548117138445,83.553853147896 80.33263598382473,82.2630160280969 84.73849372379482,79.68134020105936 88.46652719751,75.80882249656133 89.8221757337451,72.79686099034734 89.8221757337451,71.50601946469396 88.80543933063745,69.78489660727791 89.8221757337451,67.20321055874228 87.44979079440236,63.76095920568332 81.01046025194228,59.458139726892114 79.65481171570718,57.73701028875075 78.29916318133473,57.30672778352164 73.893305439502,57.30672778352164 70.50418410077691,56.446162594947964 67.45397489517927,57.30672778352164 62.37029288709164,55.585597173077986 58.303347280249,57.30672778352164 53.21966527029872,57.30672778352164 49.830543933436275,56.446162594947964 49.49163179844618,55.585597173077986 46.441422594711185,57.30672778352164 46.10251045972109,58.16729273670353 40.679916318506,58.597575125750154 31.52928870357573,56.446162594947964 22.039748953655362,56.87644521938637 17.972803346812725,58.16729273670353 13.905857739970088,61.17926822253503 11.872384935617447,64.6215223968029 10.855648536235094,67.63349171448499 10.516736401244998,69.78489660727791 10.855648536235094,72.36658054077998 13.228033471852541,78.82078112242743 20.684100417420268,83.98413207149133 38.98535564728081,84.84468974056654 43.05230125412345,84.41441093548201 75.926778241992,83.98413207149133 79.31589958071709,83.12357416725717 84.73849372379482,80.54189904453233 88.80543933063745,75.37854245700873 89.483263598755,70.645458153449 89.14435146562755,65.91236674180254 87.11087866127491,62.0398321186658 84.06066945567727,59.458139726892114 78.97698744758964,57.30672778352164 77.28242678008974,57.30672778352164 75.58786610886455,56.446162594947964 70.84309623390436,56.87644521938637 69.14853556454182,55.585597173077986 63.048117155209184,56.446162594947964 52.54184100404382,56.01587991346605 50.84728033468127,55.15531437238678 48.81380753032863,56.446162594947964 47.79707112908363,56.01587991346605 44.40794979035854,56.446162594947964 41.35774058662355,56.01587991346605 35.93514644354582,56.446162594947964 25.428870292380452,56.01587991346605 22.378661086782813,56.446162594947964 18.989539748057723,57.73701028875075 17.633891213685274,59.027857455424964 15.939330542460084,59.458139726892114 13.566945606842637,62.0398321186658 11.872384935617447,65.05180390342139 10.855648536235094,70.645458153449 11.872384935617447,76.2391024758108 13.566945606842637,79.68134020105936 18.989539748057723,83.12357416725717 30.512552300468087,83.98413207149133 31.52928870357573,85.27496848627925 32.88493723794818,84.41441093548201 37.96861924789846,83.12357416725717 38.98535564728081,83.553853147896 40.679916318506,83.12357416725717 53.89748954027891,83.98413207149133 63.387029288336635,83.553853147896 64.74267782457173,83.98413207149133 70.16527196578681,83.98413207149133 78.29916318133473,83.553853147896 80.33263598382473,82.6932951263152 84.73849372379482,79.68134020105936 87.11087866127491,76.6693823968526 89.14435146562755,70.645458153449 87.44979079440236,67.20321055874228 87.44979079440236,65.48208535183221 85.41631799191236,61.17926822253503 79.31589958071709,57.30672778352164 70.84309623390436,56.446162594947964 66.77615062892437,55.585597173077986 48.81380753032863,55.585597173077986 45.08577405847609,54.72503151372075 39.663179917261004,55.585597173077986 32.54602510482073,55.585597173077986 27.123430961742997,58.16729273670353 22.039748953655362,58.16729273670353 17.633891213685274,59.027857455424964 14.583682008087635,62.90039577987045 12.88912133872509,64.19124083011411 11.872384935617447,65.91236674180254 10.516736401244998,71.50601946469396 12.88912133872509,77.96022180747241 17.633891213685274,82.6932951263152 20.684100417420268,83.553853147896 24.41213388927281,83.12357416725717 30.173640167340636,83.98413207149133 35.25732217542827,83.553853147896 37.29079497791827,83.12357416725717 37.29079497791827,82.6932951263152 64.06485355645418,82.2630160280969 70.84309623390436,80.54189904453233 82.02719665318727,79.68134020105936 86.09414226002991,77.09966225968674 88.46652719751,71.9363000318408 88.46652719751,70.645458153449 87.78870292939246,65.48208535183221 86.43305439502001,62.47011397802271 82.36610878631473,59.027857455424964 78.29916318133473,56.87644521938637 64.74267782457173,55.585597173077986 62.70920502208173,56.446162594947964 52.54184100404382,56.446162594947964 43.73012552410364,54.72503151372075 36.612970711663365,55.585597173077986 32.88493723794818,55.15531437238678 27.462343094870448,56.01587991346605 22.71757322177291,55.585597173077986 20.345188284292817,56.87644521938637 15.939330542460084,60.31870409147814 14.583682008087635,62.47011397802271 13.566945606842637,62.90039577987045 11.872384935617447,66.77292934572324 11.194560669362545,71.9363000318408 11.872384935617447,75.80882249656133 14.922594141215086,80.54189904453233 17.972803346812725,82.2630160280969 21.700836818665266,83.12357416725717 28.817991632968187,83.553853147896 38.64644351415336,82.2630160280969 47.11924686282873,83.12357416725717 71.18200836889446,82.2630160280969 76.60460251010954,83.12357416725717 80.67154811695218,81.83273687050678 84.73849372379482,78.82078112242743 88.80543933063745,73.65742171439342 89.483263598755,70.2151774102822 87.78870292939246,62.90039577987045 84.73849372379482,58.597575125750154 79.65481171570718,56.01587991346605 73.5543933045119,55.15531437238678 66.43723849393427,56.87644521938637 60.336820082738996,56.87644521938637 55.25313807465136,55.585597173077986 51.18619246967137,57.30672778352164 48.81380753032863,56.01587991346605 48.13598326407373,56.87644521938637 44.40794979035854,56.446162594947964 43.05230125412345,57.30672778352164 39.663179917261004,57.30672778352164 38.30753138102591,58.597575125750154 26.44560669362545,56.446162594947964 20.345188284292817,56.87644521938637 15.261506276205182,58.597575125750154 12.550209203734994,63.76095920568332 11.194560669362545,68.49405384808779 11.872384935617447,74.51798220328055 14.583682008087635,79.2510606914293 16.27824267745018,80.97217837907374 21.36192468367517,82.6932951263152 26.106694562360644,82.2630160280969 36.27405857667327,83.98413207149133 41.35774058662355,84.41441093548201 44.746861923485994,83.553853147896 56.94769874587655,84.41441093548201 70.50418410077691,83.12357416725717 75.926778241992,83.553853147896 81.34937238506973,81.83273687050678 84.73849372379482,80.11161965294741 86.77196652814746,77.09966225968674 88.46652719751,73.22714138263837 88.80543933063745,68.06377280992456 86.77196652814746,62.90039577987045 85.07740585878491,60.31870409147814 83.38284518942237,58.597575125750154 79.31589958071709,56.87644521938637 67.45397489517927,54.72503151372075 65.42050209268928,55.585597173077986 59.658995816484094,54.72503151372075 57.62552301213145,55.585597173077986 54.23640167340636,55.15531437238678 52.54184100404382,55.585597173077986 49.49163179844618,55.15531437238678 45.08577405847609,56.87644521938637 35.25732217542827,56.87644521938637 31.190376568585634,55.585597173077986 24.073221756145358,56.01587991346605 18.989539748057723,57.30672778352164 16.27824267745018,59.458139726892114 13.566945606842637,63.330677521182224 12.211297070607543,67.20321055874228 11.872384935617447,69.35461574536748 13.228033471852541,75.37854245700873 14.583682008087635,77.09966225968674 15.261506276205182,78.82078112242743 19.66736401617527,81.83273687050678 28.47907949797809,83.553853147896 56.94769874587655,83.98413207149133 65.08158995769918,81.83273687050678 77.96025104634464,80.54189904453233" stroke="#4DD2FF" stroke-linecap="round" stroke-linejoin="round" stroke-width="0.5"><title>2025-02-10 5.1km</title><desc>13589336164</desc></polyline></svg>