<?xml version="1.0" encoding="utf-8" ?>
<svg baseProfile="full" height="300mm" version="1.1" viewBox="0,0,200,300" width="200mm" xmlns="http://www.w3.org/2000/svg" xmlns:ev="http://www.w3.org/2001/xml-events" xmlns:xlink="http://www.w3.org/1999/xlink"><defs /><rect fill="#222222" height="300" width="200" x="0" y="0" /><text fill="#FFFFFF" style="font-size:12px; font-family:Arial; font-weight:bold;" x="10" y="20">MY TRACKS</text><text fill="#FFFFFF" style="font-size:4px; font-family:Arial" x="10" y="280">Runner</text><text fill="#FFFFFF" style="font-size:9px; font-family:Arial" x="10" y="290">苹果梨</text><text fill="#FFFFFF" style="font-size:4px; font-family:Arial" x="65" y="280">SPECIAL TRACKS</text><rect fill="#FFFF00" height="2.6" width="2.6" x="65" y="283" /><text fill="#FFFFFF" style="font-size:3px; font-family:Arial" x="70" y="285.5">Over 10.0 km</text><rect fill="#FFFF00" height="2.6" width="2.6" x="65" y="287" /><text fill="#FFFFFF" style="font-size:3px; font-family:Arial" x="70" y="289.5">Over 20.0 km</text><text fill="#FFFFFF" style="font-size:4px; font-family:Arial" x="120" y="280">STATISTICS</text><text fill="#FFFFFF" style="font-size:3px; font-family:Arial" x="120" y="285">Number: 1</text><text fill="#FFFFFF" style="font-size:3px; font-family:Arial" x="120" y="290">Weekly: 1.0</text><text fill="#FFFFFF" style="font-size:3px; font-family:Arial" x="141" y="285">Total: 5.1 km</text><text fill="#FFFFFF" style="font-size:3px; font-family:Arial" x="141" y="290">Avg: 5.1 km</text><text fill="#FFFFFF" style="font-size:3px; font-family:Arial" x="167" y="285">Min: 5.1 km</text><text fill="#FFFFFF" style="font-size:3px; font-family:Arial" x="167" y="290">Max: 5.1 km</text><polyline fill="none" points="85.39827579818666,116.6486400597496 85.20864301733673,125.93386264936998 85.39827579818666,130.0877618181985 85.96717414446175,134.24165097100195 86.15680692624301,136.92945626250003 86.34643970895559,141.81636423198506 86.15680692624301,144.9928469794104 85.39827579818666,147.43629126192536 83.69158076215535,149.6353881531395 79.70929234474897,154.76660331629682 76.4855350535363,158.9204329707427 75.72700392547995,160.63083050539717 73.45141054317355,163.31859462999273 71.74471550714225,166.00635456154123 70.41728603467345,169.42713386449032 64.91793536115438,175.046970833675 62.83197476062924,178.2233923167223 61.12527972459793,178.9564118264243 58.47042077872902,182.13282610173337 61.88381085265428,179.6894310254138 67.0038959607482,175.291311155539 72.50324663426727,180.17811031802557 71.9343482889235,182.86584394949023 72.50324663426727,188.4856370849302 72.31361385341734,192.63938544748817 72.12398107070476,194.83842464489862 73.26177776232362,197.77047254133504 73.07214497961104,202.41287150711287 72.12398107070476,207.54392949538305 72.31361385341734,210.23162043851335 72.31361385341734,213.65231193928048 71.9343482889235,218.0503338894341 73.64104332495481,222.9370117803337 75.15810558013618,217.07299664861057 75.72700392547995,214.14098159910645 75.53737114369869,210.47595577081665 75.15810558013618,205.83357853023335 75.15810558013618,203.14588072628248 75.72700392547995,198.5034837354906 75.9166367072612,195.3270996408537 75.9166367072612,193.3723988252459 76.29590227082372,191.1733577575069 76.10626948811114,185.06489562022034 76.4855350535363,183.8432005943032 75.15810558013618,180.17811031802557 75.15810558013618,177.49037249397952 74.58920723386109,172.35922500526067 76.67516783438623,167.96108642371837 83.31231519859284,160.14214566920418 84.82937745284289,157.94306218798738 87.86350196320564,153.5448868065141 89.00129865389317,151.59013858879916 89.57019699923694,149.6353881531395 93.17321985401213,145.97022510890383 95.82807879988104,141.5720191631699 97.91403939947486,138.3955301089445 99.43110165465623,135.21903519856278 101.13779669161886,132.28688085195608 103.41339007299393,130.82080180803314 105.68898345530033,129.3547215159051 109.10237352736294,127.39994585281238 112.89502916485071,125.44516797142569 120.66997321974486,120.06951736263 123.70409772824496,117.87038273306098 126.35895667504519,115.91559404006694 129.58271396532655,113.47210505441763 134.7027990743518,110.29556419188157 138.3058219300583,107.11901747260708 140.20214974787086,105.65291701140814 140.39178252965212,103.94246489647776 137.16802523843944,105.4085668134503 131.47904178407043,108.34076690371148 127.1174878012389,112.49470848892815 122.18703547399491,115.42689651984256 119.91144209261984,115.67124529683497 113.27429472841322,120.31386548117734 108.15420961845666,124.22343066951726 104.74081954546273,126.1782099364791 100.0,130.332108515664 95.44881323631853,134.7303431542823 93.7421181993559,136.92945626250003 91.27689203526825,135.95207300537731 91.08725925441831,134.24165097100195 90.13909534551203,131.0651484017726 89.94946256279945,128.37733396177646 89.57019699923694,124.46777819877025 89.00129865389317,119.09212454000954 88.81166587211192,111.76166070182808 89.00129865389317,107.85206723504234 89.38056421745569,104.43116567388643 90.51836090907454,99.7885026903823 92.98358707129955,94.16842023446225 93.55248541850597,89.77008204639424 95.06954767275602,84.39432012243196 97.34514105413109,84.88302644516807 98.29330496303737,90.25878684408963 99.05183609109372,91.48054823162965 105.49935067258775,90.01443446241319 110.61943578254431,89.52572959579993 112.70539638306946,89.03702459018677 117.8254814920947,85.61608566949144 120.66997321974486,84.88302644516807 121.99740269221365,82.92820032325108 116.11878645513207,81.21772564668208 112.89502916485071,79.01854142453521 109.67127187363803,76.81935439526569 106.82678014598787,74.62016455864068 103.41339007299393,71.19919701095205 100.75853112712502,70.46613165189046 95.63844601716846,69.0 92.98358707129955,69.73306598211639 91.4665248170495,75.59758261044044 89.1909314347431,81.70643287023995 87.86350196320564,87.32655597885605 86.91533805336803,94.41277202754281 86.91533805336803,96.12323360319715 85.96717414446175,102.23201108339708 85.7775413626805,107.36336742783897 83.50194798130542,109.07381614646874 84.07084632664919,111.27296200359706 84.63974467106164,116.8929886642145 84.63974467106164,119.8251692088088 85.20864301733673,123.97908310487401 86.15680692624301,126.9112515905872 85.7775413626805,131.3094949616352 86.34643970895559,133.99730482755695 85.01901023555547,137.66249334206805 85.7775413626805,140.8389837476425 85.20864301733673,145.7258806284517 85.39827579818666,147.92497970256954 84.07084632664919,149.39104419294745 84.82937745284289,151.8344822373474 78.00259730778635,158.6760903269751 71.17581716179848,168.69411030015908 68.90022377949208,172.84790637646802 63.021607543341815,178.2233923167223 59.22895190678537,181.64414736418985 62.26307641528547,179.9337706892984 66.624630398117,176.0243319135625 69.84838768839836,176.0243319135625 71.55508272536099,179.20075159415137 72.50324663426727,181.8884867503075 73.45141054317355,187.26394448475912 73.83067610766739,192.15070968994405 72.88251219782978,195.0827621598728 72.88251219782978,198.01480964117218 71.9343482889235,205.1005704535637 71.74471550714225,209.00994325696956 72.12398107070476,212.91930718941148 72.31361385341734,216.0956588537665 72.31361385341734,219.27200466254726 71.9343482889235,222.69267821474932 72.69287941697985,225.86901186197065 72.69287941697985,229.53400494868401 73.26177776232362,231.0 74.58920723386109,229.7783375439467 75.72700392547995,222.204010980553 76.10626948811114,218.53900230280124 76.10626948811114,215.11832050373778 76.29590227082372,209.49861423356924 75.9166367072612,202.65720794792287 76.67516783438623,195.3270996408537 75.9166367072612,193.61673654813785 76.10626948811114,185.79791222000495 75.53737114369869,179.44509132765234 76.29590227082372,177.97905241022818 76.29590227082372,166.98372076975647 79.5196595620364,166.00635456154123 82.55378407146782,160.63083050539717 85.58790858089924,157.45437658939045 88.62203309033066,152.56751297530718 91.65615759976208,148.16932387044653 95.44881323631853,143.52677874744404 99.43110165465623,137.4181476837257 99.62073443643749,134.7303431542823 103.79265563562512,130.82080180803314 108.5334751829505,127.88863997673616 110.2401702189818,126.66690440766979 113.27429472841322,125.68951532745268 117.63584871031344,121.77995346661191 120.85960600152612,119.8251692088088 124.8418944189325,115.91559404006694 128.25528449285775,113.71645410859492 134.51316629350185,110.78426316671539 140.20214974787086,106.14161730371416 141.33994643948972,104.43116567388643 138.87472027447075,102.96506292547565 137.73692358471453,105.65291701140814 134.89243185706437,107.11901747260708 133.375369601883,109.07381614646874 128.82418283820152,112.49470848892815 126.16932389233261,114.44950106437318 122.94556660205126,115.67124529683497 117.2565831458196,118.35907955979928 113.27429472841322,120.55821356503293 110.05053743626922,122.75734476337675 105.12008510995656,126.1782099364791 100.75853112712502,130.0877618181985 98.10367218218744,133.0199199068593 92.41468872595578,138.3955301089445 90.13909534551203,136.68511050066445 90.70799368992448,132.04253443167545 90.32872812636197,127.39994585281238 90.89762647170573,123.49038787255995 89.7598297810182,117.38168576755561 88.81166587211192,113.96080312842969 90.13909534551203,105.4085668134503 90.70799368992448,101.25460814207327 92.79395429044962,96.6119365983177 94.31101654563099,88.303966821637 95.25918045360595,83.66126037901267 96.0177115816623,82.19513995538 97.72440661676228,83.90561366127804 101.51706225425005,84.39432012243196 102.65485894493759,82.68384690198582 104.55118676368147,78.28547939355485 103.22375729028136,75.84193703718483 100.75853112712502,73.15403644181788 98.10367218218744,74.37580995936878 96.20734436251223,79.5072492720792 95.44881323631853,83.17255370982457 97.53477383591235,89.03702459018677 101.7066950360313,90.74749150325079 103.60302285477519,89.77008204639424 106.06824901793152,90.01443446241319 109.67127187363803,89.2813771100482 112.89502916485071,88.0596141628921 114.03282585553825,86.59349748247769 117.8254814920947,85.12737955432385 120.29070765618235,84.39432012243196 121.42850434686989,82.92820032325108 118.58401261921972,80.48466455133166 114.79135698266327,78.77418744913302 111.5675996914506,77.30806286644656 109.67127187363803,76.57500010775402 107.20604570955038,74.86451912391931 101.51706225425005,70.71048680646345 96.20734436251223,69.24435536225792 92.98358707129955,69.73306598211639 91.65615759976208,74.37580995936878 90.13909534551203,79.26289536582772 89.7598297810182,85.61608566949144 88.62203309033066,93.67971654620487 87.86350196320564,98.81109836336691 86.53607248980552,104.67551601072773 85.20864301733673,110.29556419188157" stroke="#4DD2FF" stroke-linecap="round" stroke-linejoin="round" stroke-width="0.5"><title>2025-05-18 5.1km</title><desc>14512876909</desc></polyline></svg>