<?xml version="1.0" encoding="utf-8" ?>
<svg baseProfile="full" height="130mm" version="1.1" viewBox="0,0,100,130" width="100mm" xmlns="http://www.w3.org/2000/svg" xmlns:ev="http://www.w3.org/2001/xml-events" xmlns:xlink="http://www.w3.org/1999/xlink"><defs /><rect fill="#222222" height="130" width="100" x="0" y="0" /><text fill="#FFFFFF" style="font-size:6px; font-family:Arial; font-weight:bold;" x="5" y="10">2025-02-13 Workouts</text><text fill="#FFFFFF" style="font-size:4px; font-family:Arial" x="5" y="110">Runner</text><text fill="#FFFFFF" style="font-size:6px; font-family:Arial" x="5" y="120">蓝皮书</text><text fill="#FFFFFF" style="font-size:4px; font-family:Arial" x="30" y="110">STATISTICS</text><text fill="#FFFFFF" style="font-size:3px; font-family:Arial" x="30" y="115">Number: 2</text><text fill="#FFFFFF" style="font-size:3px; font-family:Arial" x="30" y="120">Weekly: 2.0</text><text fill="#FFFFFF" style="font-size:3px; font-family:Arial" x="50" y="115">Total: 9.7 km</text><text fill="#FFFFFF" style="font-size:3px; font-family:Arial" x="50" y="120">Avg: 4.9 km</text><text fill="#FFFFFF" style="font-size:3px; font-family:Arial" x="75" y="115">Min: 3.5 km</text><text fill="#FFFFFF" style="font-size:3px; font-family:Arial" x="75" y="120">Max: 6.2 km</text><polyline fill="none" points="26.303191488608718,45.44169789750595 29.041489361785352,48.91821630299091 32.411702127195895,51.05760917707812 41.46914893575013,51.05760917707812 46.103191489353776,50.79018519597594 48.42021276522428,50.79018519597594 62.3223404251039,49.98791303229518 70.3265957441181,49.453064740402624 72.01170212682337,47.84851898893248 73.90744680725038,44.37199868506286 72.43297872226685,38.48864257626701 65.27127659507096,35.01210566051304 64.00744680780917,34.74467948882375 59.16276595648378,34.47725328046363 51.79042553156614,34.47725328046363 41.25851063802838,34.74467948882375 37.88829787168652,35.546957896091044 34.518085106275976,34.20982703473419 30.09468085039407,35.814383958582766 26.513829787261784,41.43032283964567 27.98829787224531,48.650792028871365 37.46702127624303,51.05760917707812 41.25851063802838,51.05760917707812 60.21595744602382,49.1856405393919 62.74361702054739,49.1856405393919 70.74787233956158,48.650792028871365 73.0648936163634,46.243971923715435 73.90744680725038,41.96517332200892 72.22234042454511,37.41893956786953 66.74574468005449,33.94240075361449 62.3223404251039,33.94240075361449 59.794680850580335,33.94240075361449 54.107446807436645,35.01210566051304 41.46914893575013,35.01210566051304 39.1521276589483,34.74467948882375 35.571276595816016,35.01210566051304 29.673404255881906,36.081809985102154 26.513829787261784,39.825770516414195 26.303191488608718,45.44169789750595 28.620212765410542,49.98791303229518 38.30957446806133,51.32503312290646 41.25851063802838,51.32503312290646 45.26063829753548,51.05760917707812 52.422340425662696,50.79018519597594 58.741489361040294,50.52276117738802 68.85212766006589,50.255337123177014 73.48617021273822,46.243971923715435 74.53936170134693,41.43032283964567 72.85425531864166,37.68636537459679 67.1670212764293,34.20982703473419 61.05851063784212,34.20982703473419 46.52446808479726,35.01210566051304 31.569148935377598,35.01210566051304 27.35638297908008,38.48864257626701 25.460638297721744,43.30229888879694 26.935106383636594,47.58109456882812 30.515957445837557,51.32503312290646 39.784042553044856,50.79018519597594 43.1542553184554,50.79018519597594 56.84574468061328,50.52276117738802 64.84999999869615,50.52276117738802 68.85212766006589,50.255337123177014 72.64361702091992,47.58109456882812 73.90744680725038,45.97654728440102 73.0648936163634,37.953791144886054 67.1670212764293,33.94240075361449 62.532978722825646,33.94240075361449 58.741489361040294,34.47725328046363 51.15851063746959,35.01210566051304 45.47127659525722,34.74467948882375 39.784042553044856,35.27953179657925 34.096808509901166,34.47725328046363 27.777659574523568,38.221216879435815 26.092553191818297,40.89547221106477 26.303191488608718,46.77882109105121 30.09468085039407,51.592457031365484 36.8351063830778,51.592457031365484 40.62659574393183,51.859880903502926 45.049999999813735,50.79018519597594 58.10957446787506,50.255337123177014 63.16489361599088,50.52276117738802 67.58829787187278,50.52276117738802 71.59042553137988,48.650792028871365 74.11808510497212,44.37199868506286 71.80106383003294,37.151513723889366 69.27340425457805,35.546957896091044 66.74574468005449,33.94240075361449 57.688297871500254,33.94240075361449 54.52872340288013,34.20982703473419 45.681914892978966,34.74467948882375 40.20531914848834,34.74467948882375 37.88829787168652,34.74467948882375 31.569148935377598,35.01210566051304 27.35638297908008,38.48864257626701 25.25,44.37199868506286 27.35638297908008,49.98791303229518 31.358510638587177,51.859880903502926 40.41595744714141,51.859880903502926 52.21170212700963,50.52276117738802 59.58404255285859,51.32503312290646 62.954255318269134,51.32503312290646 68.22021276503801,50.52276117738802 71.37978723365813,48.650792028871365 73.90744680725038,43.034873848664574 74.75,41.16289754409809 71.80106383003294,36.081809985102154 67.7989361686632,33.67497443559114 64.84999999869615,32.872695261612535 58.95212765876204,35.01210566051304 49.052127660252154,35.546957896091044 46.94574468024075,34.20982703473419 39.9946808507666,34.47725328046363 33.25425531901419,34.74467948882375 27.145744680427015,37.68636537459679 25.671276595443487,42.23259850800969 26.303191488608718,46.243971923715435 30.93723404314369,51.05760917707812 40.62659574393183,51.592457031365484 50.10531914886087,51.32503312290646 60.42659574467689,51.32503312290646 70.74787233956158,49.453064740402624 74.32872340362519,44.10457379091531 73.90744680725038,39.02349386212882 71.80106383003294,36.349235974485055 63.16489361599088,34.20982703473419 53.68617021199316,35.546957896091044 46.31382978707552,35.546957896091044 44.41808510571718,34.74467948882375 39.784042553044856,35.01210566051304 34.93936170171946,35.01210566051304 29.673404255881906,36.081809985102154 25.460638297721744,41.43032283964567 26.724468084983528,46.243971923715435 30.515957445837557,50.52276117738802 38.30957446806133,51.05760917707812 43.364893617108464,50.255337123177014 53.475531914271414,50.52276117738802 63.37553191464394,49.98791303229518 68.85212766006589,49.72048890439328 73.48617021273822,46.243971923715435 72.22234042454511,36.61666192708071 70.74787233956158,35.27953179657925 64.6393617009744,34.20982703473419 59.373404254205525,33.94240075361449 52.63297872245312,34.47725328046363 47.78829787299037,34.47725328046363 42.73297872301191,34.74467948882375 40.83723404165357,35.01210566051304 36.624468084424734,35.546957896091044 31.358510638587177,35.01210566051304 26.935106383636594,38.756068237824365 25.25,44.63942354347091 27.35638297908008,49.98791303229518 30.726595744490623,51.859880903502926 35.9925531912595,51.32503312290646 45.89255319163203,50.255337123177014 53.475531914271414,49.98791303229518 64.42872340418398,49.453064740402624 70.11595744546503,48.91821630299091 72.43297872226685,47.31367011286784 73.48617021273822,39.29091945057735 71.80106383003294,36.61666192708071 69.06276595685631,34.20982703473419 66.95638297870755,33.94240075361449 61.69042553100735,34.47725328046363 56.21382978744805,34.20982703473419 50.94787234067917,34.74467948882375 37.25638297852129,35.546957896091044 35.36063829716295,35.546957896091044 27.777659574523568,38.221216879435815 25.88191489316523,42.7674487719778 26.513829787261784,47.31367011286784 30.305319149047136,51.32503312290646 39.362765956670046,49.98791303229518 41.04787233937532,49.98791303229518 44.20744680799544,50.255337123177014 50.52659574430436,50.79018519597594 58.741489361040294,50.52276117738802 67.37765957415104,50.255337123177014 73.27553191408515,45.97654728440102 73.69680850952864,41.69774809957016 73.0648936163634,38.48864257626701 69.06276595685631,34.20982703473419 60.63723404146731,34.20982703473419 57.89893617015332,34.47725328046363 53.68617021199316,34.74467948882375 50.10531914886087,35.01210566051304 44.62872340437025,35.814383958582766 35.78191489353776,34.74467948882375 34.096808509901166,35.01210566051304 29.041489361785352,36.61666192708071 25.88191489316523,41.16289754409809 26.935106383636594,49.1856405393919 32.832978723570704,51.32503312290646 41.890425531193614,50.255337123177014 46.52446808479726,50.255337123177014 52.422340425662696,49.72048890439328 56.42446808423847,49.453064740402624 61.479787233285606,49.1856405393919 69.90531914867461,49.1856405393919 74.11808510497212,45.44169789750595 73.69680850952864,41.43032283964567 73.0648936163634,38.221216879435815 68.85212766006589,34.74467948882375 62.532978722825646,33.4075480804313 56.635106382891536,34.74467948882375 53.475531914271414,35.01210566051304 50.10531914886087,34.47725328046363 47.15638297889382,35.01210566051304 42.52234042529017,35.814383958582766 37.46702127624303,35.814383958582766 32.411702127195895,35.27953179657925 30.09468085039407,35.27953179657925 25.460638297721744,43.837148859980516 26.935106383636594,49.1856405393919 30.726595744490623,51.592457031365484 46.103191489353776,50.52276117738802 50.737234042957425,50.52276117738802 60.0053191492334,50.52276117738802 67.7989361686632,49.72048890439328 72.43297872226685,47.31367011286784 74.11808510497212,43.034873848664574 71.59042553137988,36.081809985102154 67.7989361686632,33.140121688949876 63.586170211434364,33.67497443559114 56.21382978744805,34.20982703473419 52.422340425662696,34.20982703473419 47.36702127568424,34.47725328046363 40.83723404165357,34.20982703473419 38.94148936122656,34.20982703473419 36.8351063830778,34.20982703473419 33.04361702129245,34.74467948882375 26.724468084983528,39.825770516414195 26.092553191818297,44.63942354347091 29.25212766043842,49.72048890439328 33.88617021217942,51.05760917707812 49.68404255248606,49.1856405393919 66.11382978688926,48.38336771901231 68.22021276503801,49.1856405393919" stroke="#4DD2FF" stroke-linecap="round" stroke-linejoin="round" stroke-width="0.5"><title>2025-02-13 6.2km</title><desc>13615873228</desc></polyline><polyline fill="none" points="25.25,79.9444139439438 25.394034917699173,80.0053740341391 25.63409311347641,80.0053740341391 25.778128030942753,79.82249373878585 26.930407371604815,80.0053740341391 27.698593598557636,80.0053740341391 28.322744908044115,80.24921431118855 28.466779825510457,80.4930544551462 29.715082444250584,80.43209443168598 29.907129001105204,80.67593447561376 31.683559650788084,80.61497447706643 31.827594568487257,80.4930544551462 32.21168768196367,80.37113439978566 32.93186226976104,80.24921431118855 33.50800194009207,80.31017435956164 33.89209505356848,80.12729418920935 34.7563045588322,80.12729418920935 34.94835111545399,80.06633411580697 35.188409311231226,80.12729418920935 35.71653734240681,79.88345384548302 35.812560620950535,79.9444139439438 36.196653734194115,79.82249373878585 36.48472356935963,80.06633411580697 37.156886518001556,80.24921431118855 39.12536372477189,79.88345384548302 39.84553831233643,80.0053740341391 40.373666343512014,80.0053740341391 41.4779340447858,80.37113439978566 41.57395732309669,80.79785444776644 41.525945683708414,81.40745380870067 41.57395732309669,82.26089151573251 41.717992240563035,82.5656903013878 41.717992240563035,82.9924082516518 41.42992240563035,85.00407309489674 41.42992240563035,85.79654463534825 41.66998060140759,87.01572887366638 41.57395732309669,88.29586874053348 41.4779340447858,88.539704489609 41.525945683708414,89.33216975379037 41.62196896225214,89.75888123671757 41.57395732309669,90.30750968647772 41.76600387971848,91.34380603028694 41.81401551887393,92.01434944148059 41.76600387971848,93.23351669975091 42.00606207596138,93.4163915013196 43.15834141639061,93.29447497535148 43.686469447100535,93.53830799405114 43.78249272564426,93.72118267096812 43.878516003955156,94.08693179962575 43.878516003955156,94.3917225112964 43.78249272564426,94.45268062877585 44.070562560576946,95.42800937479478 43.97453928226605,95.73279917100444 43.92652764287777,96.22046241213684 44.070562560576946,96.46429383280338 43.92652764287777,97.56153357843868 44.11857419973239,98.71972816222114 44.02255092165433,99.57313277493813 44.070562560576946,100.36557845474454 44.11857419973239,100.54845033487072 43.97453928226605,101.03610831606784 44.070562560576946,101.52376576428651 44.070562560576946,101.95046559468028 44.21459747827612,102.13333682564553 44.070562560576946,102.43812204423011 44.16658583912067,103.96204501632019 44.262609117431566,104.0839586291695 44.310620756587014,104.26682898649597 44.262609117431566,104.99830966591253 44.070562560576946,105.42500617558835 44.16658583912067,106.58318036040873 44.02255092165433,107.2537008835643 44.11857419973239,107.43656994248158 44.16658583912067,107.74135154075339 44.262609117431566,107.80230783554725 44.310620756587014,108.41187032466405 44.262609117431566,108.6556950873346 44.310620756587014,109.93577290666872 44.45465567428619,110.72820019375649 44.646702230675146,110.97202369142906 44.59869059175253,111.64253762352746 44.45465567428619,112.06922778324224 44.45465567428619,112.31305054863333 44.40664403489791,112.55687318072887 44.40664403489791,112.73974006759818 44.59869059175253,113.2883402784937 44.502667313441634,113.53216237807646 44.694713870063424,113.95885073195677 44.59869059175253,114.08076161518693 44.502667313441634,116.27515182338539 44.646702230675146,116.7018375560001 44.59869059175253,117.00661282960209 44.74272550921887,117.43329786305549 44.694713870063424,117.7990275672928 45.03079534438439,118.28666670672828 44.93477206584066,118.65239571189159 45.22284190100618,119.50576222548261 45.22284190100618,119.62767159435316 45.55892337555997,119.68862626628834 45.70295829302631,119.74958092989982 46.75921435514465,119.8714902321226 47.52740058186464,120.0543541231309 47.71944713871926,119.9933995010797 48.96774975769222,119.9933995010797 49.015761396847665,120.17626334197121 48.91973811830394,119.44480752863456 48.96774975769222,117.37234288317268 49.06377303600311,117.49425283446908 49.207807953469455,117.9818923069397 49.399854510324076,118.40857640837203 50.93622696422972,119.50576222548261 51.176285160239786,119.50576222548261 51.560378273716196,119.20098865794716 51.752424830105156,119.3838528234337 51.752424830105156,119.07907917260309 52.32856450043619,119.07907917260309 52.66464597498998,119.20098865794716 53.24078564508818,119.50576222548261 53.336808923399076,119.44480752863456 53.62487875856459,119.50576222548261 53.81692531518638,119.8714902321226 54.68113482068293,120.0543541231309 55.59335596510209,120.0543541231309 55.929437439423054,119.81053558504209 56.55358874890953,119.68862626628834 56.889670223230496,119.74958092989982 57.99393792450428,119.68862626628834 58.33001939859241,119.68862626628834 58.666100872913375,120.0543541231309 58.858147429535165,120.11530873674201 59.19422890408896,120.11530873674201 59.43428710009903,119.9933995010797 59.482298739254475,119.8714902321226 59.43428710009903,118.59144089839538 59.482298739254475,118.59144089839538 59.866391852498055,118.71335051683127 60.442531522829086,118.83526010223432 62.45902036852203,118.28666670672828 62.55504364706576,117.49425283446908 62.411008729366586,117.25043289869791 62.45902036852203,116.9456577913952 62.45902036852203,116.33610695309471 62.50703200791031,115.60464484864497 62.98714839969762,115.54368961905129 63.46726479148492,115.23891334689688 63.803346265573055,115.36082388073555 63.89936954411678,115.97037605074001 64.47550921468064,116.64088247623295 65.00363724539056,116.9456577913952 65.53176527633332,117.00661282960209 66.25193986436352,116.9456577913952 66.29995150328614,116.88470274512656 68.41246362752281,116.8237476904178 68.84456838015467,116.88470274512656 70.14088263828307,116.7018375560001 71.91731328796595,116.64088247623295 72.73351115430705,116.76279262735625 73.5016973814927,116.64088247623295 74.0778370515909,116.33610695309471 74.41391852567904,116.0313312218641 74.6539767216891,115.48273438127944 74.75,115.11700277976342 74.50994180398993,114.20267246523872 74.31789524736814,113.83693981525721 73.93380213389173,113.47120686559356 73.5016973814927,113.2883402784937 72.97356935008429,113.22738473265781 72.10935984482057,113.47120686559356 71.19713870040141,113.53216237807646 70.76503394776955,113.47120686559356 69.66076624626294,113.65407337798388 69.27667313278653,113.59311788211926 68.84456838015467,113.65407337798388 68.22041707090102,113.53216237807646 67.21217264793813,113.65407337798388 65.19568380201235,113.65407337798388 64.47550921468064,113.95885073195677 64.1874393792823,114.26362787789549 63.85135790496133,115.0560474836384 63.85135790496133,115.60464484864497 63.995392822660506,116.0313312218641 64.09141610073857,116.27515182338539 64.5715324927587,116.7018375560001 64.90761396707967,116.9456577913952 65.3877303590998,117.06756785922335 67.74030067911372,116.8237476904178 69.61275460734032,116.88470274512656 71.00509214377962,116.7018375560001 73.45368574210443,116.57992738840403 73.93380213389173,116.39706207442214 74.2698836082127,116.09228638472268 74.60596508230083,115.42177913512569 74.6539767216891,114.81222621636698 74.36590688675642,114.0198061777337 73.74175557726994,113.53216237807646 73.59772065957077,113.34929581577308 73.59772065957077,112.55687318072887 73.5016973814927,112.43496188143035 72.73351115430705,112.25209486973472 72.34941804083064,112.06922778324224 71.62924345303327,112.06922778324224 70.42895247344859,111.94731635061908 70.0928709988948,111.33775868819794 69.22866149386391,110.97202369142906 69.18064985447563,110.91106782943825 69.37269641133025,110.2405527990195 69.5167313287966,109.93577290666872 69.5167313287966,109.75290487156599 69.27667313278653,109.81386089141597 68.89258001931012,109.63099280640017 68.65252182353288,109.75290487156599 68.55649854522198,109.99672890178044 68.31644034921192,110.05768488853937 67.64427740056999,110.05768488853937 67.40421920455992,109.8748169033206 67.35620756540447,109.14334421308013 67.40421920455992,108.53378272263217 67.30819592648186,107.68039523766492 67.35620756540447,106.52222389919916 67.30819592648186,105.60787598331808 67.4522308439482,105.3030929286615 68.02837051381357,105.24213629268343 68.17240543174557,105.12022299607634 68.22041707090102,103.41343334544217 68.12439379259013,102.56003607338062 68.26842871005647,102.37716501721297 68.70053346292116,102.25525093823671 68.79655674099922,102.01142267993418 68.74854510184377,100.79227939198609 68.6045101841446,100.24366382634616 67.88433559658006,99.99983446960687 66.78006789530627,100.12174916465301 66.49199806037359,100.30462114475085 66.44398642098531,101.09706552623538 66.49199806037359,101.64568004311877 66.78006789530627,103.10864879286964 66.73205625615083,103.65726083793561 67.16416100854985,104.51065601268783 67.35620756540447,105.3030929286615 67.50024248310365,105.48596278656623 68.02837051381357,105.36404955634498 68.17240543174557,105.24213629268343 68.17240543174557,104.0839586291695 68.26842871005647,103.84013136997237 68.31644034921192,103.41343334544217 68.50848690606654,103.04769185723853 68.65252182353288,101.70663717010757 68.65252182353288,101.21897992148297 68.55649854522198,100.18270649970509 68.41246362752281,99.69504758648691 67.59626576141454,97.92727956105955 67.69228903972544,97.43961818446405 67.59626576141454,96.4033359901805 67.4522308439482,95.73279917100444 67.16416100854985,95.30609339819057 66.63603297783993,94.75747109073563 66.01188166835345,94.45268062877585 62.89112512138672,93.47734975177445 62.36299709021114,93.35543324254104 61.73884578072466,93.35543324254104 60.97065955377184,93.05064182329806 60.4905431617517,93.17255841582664 59.62633365672082,93.1116001237242 59.482298739254475,92.92872519735829 59.14621726493351,92.68489184553619 58.858147429535165,92.13626631713123 58.81013579061255,91.95339099111152 58.858147429535165,92.07530788349686 58.906159068923444,92.01434944148059 58.76212415122427,91.77051559020765 58.71411251206882,91.03901323772152 58.858147429535165,90.18559231155086 58.858147429535165,88.41778663179139 59.050193986389786,87.5034016367863 58.95417070807889,87.13764711440308 59.00218234723434,86.77189229254145 58.858147429535165,85.91846320897457 58.858147429535165,85.30887000777875 58.57007759483531,83.35816617021919 58.666100872913375,82.68760975732584 58.474054316058755,79.9444139439438 58.61808923375793,79.2738524035085 58.57007759483531,78.8471308987937 58.61808923375793,77.99368666572263 58.52206595544703,77.14024080106174 58.37803103798069,76.77447778818896 58.37803103798069,76.28679330472369 57.84990300680511,75.92102959248587 57.84990300680511,75.73814762415714 57.56183317163959,75.73814762415714 57.17774005839601,75.31142273973092 57.27376333670691,74.82373665802879" stroke="#4DD2FF" stroke-linecap="round" stroke-linejoin="round" stroke-width="0.5"><title>2025-02-13 3.5km</title><desc>13613074224</desc></polyline></svg>