<?xml version="1.0" encoding="utf-8" ?>
<svg baseProfile="full" height="130mm" version="1.1" viewBox="0,0,100,130" width="100mm" xmlns="http://www.w3.org/2000/svg" xmlns:ev="http://www.w3.org/2001/xml-events" xmlns:xlink="http://www.w3.org/1999/xlink"><defs /><rect fill="#222222" height="130" width="100" x="0" y="0" /><text fill="#FFFFFF" style="font-size:6px; font-family:Arial; font-weight:bold;" x="5" y="10">2025-03-25 Workouts</text><text fill="#FFFFFF" style="font-size:4px; font-family:Arial" x="5" y="121">Runner</text><text fill="#FFFFFF" style="font-size:6px; font-family:Arial" x="2" y="128">蓝皮书</text><text fill="#FFFFFF" style="font-size:4px; font-family:Arial" x="25" y="121">STATISTICS</text><text fill="#FFFFFF" style="font-size:3px; font-family:Arial" x="25" y="125">Number: 1</text><text fill="#FFFFFF" style="font-size:3px; font-family:Arial" x="25" y="129">Weekly: 1.0</text><text fill="#FFFFFF" style="font-size:3px; font-family:Arial" x="48" y="125">Total: 5.2 km</text><text fill="#FFFFFF" style="font-size:3px; font-family:Arial" x="48" y="129">Avg: 5.2 km</text><text fill="#FFFFFF" style="font-size:3px; font-family:Arial" x="75" y="125">Min: 5.2 km</text><text fill="#FFFFFF" style="font-size:3px; font-family:Arial" x="75" y="129">Max: 5.2 km</text><polyline fill="none" points="11.201680671423674,63.7347447485663 11.542016807943583,65.46310251718387 9.5,71.08025874919258 10.521008403971791,76.69740501185879 14.945378152653575,82.3145413051825 18.348739495500922,84.474975686986 26.516806723549962,84.90706238616258 30.600840337574482,84.474975686986 34.68487394973636,85.33914902573451 39.44957983121276,84.04288892867044 46.59663865529001,83.61080211028457 76.2058823518455,83.61080211028457 81.65126050449908,82.74662829865701 86.07563025318086,79.72201810078695 88.45798319205642,75.40114137460478 89.47899159602821,71.94443574617617 89.13865546137094,65.8951918121893 86.75630252063274,60.278026377782226 84.03361344523728,58.11757547967136 77.90756302513182,56.389213698450476 69.73949579708278,57.685485122026876 65.99579831957817,56.82130423304625 59.52941176481545,56.82130423304625 56.12605042010546,55.957123106811196 49.999999998137355,56.82130423304625 46.256302520632744,55.957123106811196 42.51260504126549,56.82130423304625 40.13025210052729,55.957123106811196 38.08823529444635,56.82130423304625 30.260504202917218,55.957123106811196 22.09243697486818,56.389213698450476 17.327731093391776,57.253394707106054 15.966386556625366,58.54966577794403 13.924369748681784,59.413846196606755 10.861344538629055,63.7347447485663 9.840336136519909,68.48772634333 10.180672269314528,73.24070079997182 12.22268907725811,78.4257557024248 14.945378152653575,81.01827996852808 20.390756303444505,84.474975686986 33.3235294111073,84.474975686986 45.57563025318086,83.61080211028457 48.97899159602821,84.474975686986 78.58823529444635,82.74662829865701 80.28991596587002,82.3145413051825 85.39495798200369,79.72201810078695 88.11764705739915,76.26531719206832 89.81932772882283,72.80861250706948 89.47899159602821,68.05563740152866 86.75630252063274,62.870565510122105 82.67226890847087,58.54966577794403 78.92857142724097,56.82130423304625 74.16386554576457,55.957123106811196 68.37815125845373,56.389213698450476 63.95378151163459,55.52503245556727 56.46638655476272,55.957123106811196 53.06302521005273,55.52503245556727 42.51260504126549,56.389213698450476 35.365546219050884,56.389213698450476 32.64285714365542,55.957123106811196 25.155462184920907,56.82130423304625 23.45378151163459,56.389213698450476 19.710084034129977,56.82130423304625 14.605042017996311,59.413846196606755 12.22268907725811,62.00638603512198 10.861344538629055,65.03101316373795 10.180672269314528,72.80861250706948 10.521008403971791,74.96905337716453 14.264705881476402,80.15410544956103 19.710084034129977,82.74662829865701 29.57983193360269,84.04288892867044 45.23529411666095,82.74662829865701 52.3823529407382,83.61080211028457 56.46638655476272,82.74662829865701 60.21008403412998,84.04288892867044 76.54621848650277,83.61080211028457 81.65126050449908,82.3145413051825 86.75630252063274,77.56158047472127 88.11764705739915,75.83322931360453 89.81932772882283,68.48772634333 89.81932772882283,66.75937022524886 88.11764705739915,62.43847580160946 86.41596638597548,60.278026377782226 82.67226890847087,56.82130423304625 70.07983193174005,55.52503245556727 56.12605042010546,56.389213698450476 52.3823529407382,55.52503245556727 44.55462184920907,56.389213698450476 33.3235294111073,55.957123106811196 31.28151260688901,56.82130423304625 20.731092436239123,56.389213698450476 15.626050421968102,58.11757547967136 12.903361346572638,60.278026377782226 9.840336136519909,66.75937022524886 9.840336136519909,68.05563740152866 11.201680671423674,72.80861250706948 11.542016807943583,77.12949277320877 13.243697479367256,80.15410544956103 18.348739495500922,83.61080211028457 20.050420166924596,84.04288892867044 31.962184874340892,84.04288892867044 35.365546219050884,83.61080211028457 43.87394957989454,84.04288892867044 60.89075630158186,83.17871523485519 68.71848739497364,81.88245425210334 72.12184873968363,82.74662829865701 81.65126050449908,81.88245425210334 86.75630252063274,78.8578432276845 89.13865546137094,74.96905337716453 90.5,69.7839928115718 89.13865546137094,65.03101316373795 87.09663865529001,61.574296209961176 82.67226890847087,57.685485122026876 73.8235294111073,55.09294174402021 59.189075630158186,54.660850974032655 53.743697479367256,55.52503245556727 48.29831932671368,55.09294174402021 44.55462184920907,55.957123106811196 30.600840337574482,55.09294174402021 20.050420166924596,55.957123106811196 15.966386556625366,58.54966577794403 11.542016807943583,63.7347447485663 10.521008403971791,67.1914593426045 10.180672269314528,73.67278903233819 11.882352940738201,77.12949277320877 15.285714285448194,81.45036713965237 16.64705882407725,82.74662829865701 22.09243697486818,83.61080211028457 32.302521008998156,84.04288892867044 44.55462184920907,83.17871523485519 64.29411764629185,82.74662829865701 76.2058823518455,83.61080211028457 82.33193277195096,81.01827996852808 86.41596638597548,77.12949277320877 88.79831932671368,72.37652415642515 88.79831932671368,66.32728104828857 87.77731092274189,63.302655157865956 83.35294117592275,58.54966577794403 78.24789915792644,57.253394707106054 71.78151260502636,56.82130423304625 68.71848739497364,55.52503245556727 51.701680671423674,56.389213698450476 50.340336134657264,55.52503245556727 44.55462184920907,56.389213698450476 41.49159663915634,55.52503245556727 37.40756302513182,55.957123106811196 29.57983193360269,55.09294174402021 19.710084034129977,56.389213698450476 16.306722689419985,57.685485122026876 13.243697479367256,60.71011638105847 10.521008403971791,69.7839928115718 10.521008403971791,71.08025874919258 11.201680671423674,74.10487720556557 14.605042017996311,80.15410544956103 19.710084034129977,83.17871523485519 21.411764707416296,83.61080211028457 35.365546219050884,84.474975686986 58.168067226186395,83.17871523485519 61.91176470555365,84.04288892867044 66.33613445423543,82.3145413051825 68.71848739497364,81.88245425210334 73.8235294111073,83.17871523485519 79.26890756189823,82.74662829865701 84.7142857145518,79.72201810078695 86.07563025318086,78.4257557024248 88.45798319205642,73.67278903233819 89.13865546137094,68.05563740152866 87.09663865529001,62.43847580160946 83.01260504126549,58.11757547967136 75.52521008253098,56.389213698450476 67.35714285634458,55.52503245556727 59.52941176481545,55.52503245556727 56.12605042010546,56.389213698450476 48.97899159602821,55.52503245556727 45.57563025318086,56.389213698450476 29.57983193360269,55.957123106811196 18.348739495500922,57.253394707106054 14.945378152653575,58.54966577794403 11.882352940738201,61.14220632449724 10.180672269314528,64.59892375161871 9.840336136519909,68.91981522459537 10.521008403971791,75.83322931360453 11.201680671423674,77.12949277320877 13.924369748681784,81.01827996852808 20.390756303444505,84.04288892867044 28.218487394973636,84.90706238616258 29.57983193360269,84.474975686986 35.70588235370815,84.90706238616258 48.97899159602821,84.04288892867044 54.424369748681784,84.90706238616258 57.48739495873451,84.474975686986 72.80252100899816,84.04288892867044 78.92857142724097,83.17871523485519 84.37394957989454,80.15410544956103 87.43697478994727,75.83322931360453 88.79831932671368,69.35190404695459 88.79831932671368,67.1914593426045 87.77731092274189,64.1668342789635 86.07563025318086,60.71011638105847 82.33193277195096,57.253394707106054 80.63025210052729,56.82130423304625 74.8445378150791,56.82130423304625 70.07983193174005,55.52503245556727 67.35714285634458,56.389213698450476 64.97478991560638,55.52503245556727 58.50840336084366,55.52503245556727 51.701680671423674,56.82130423304625 49.31932773068547,55.957123106811196 38.08823529444635,56.82130423304625 32.64285714365542,55.957123106811196 19.02941176481545,56.82130423304625 15.285714285448194,58.54966577794403 13.243697479367256,61.14220632449724 10.521008403971791,67.62354840221815 10.180672269314528,71.08025874919258 10.861344538629055,75.40114137460478 12.563025210052729,79.28993069403805 20.390756303444505,83.17871523485519 32.98319327831268,84.474975686986 42.51260504126549,84.04288892867044 51.02100840397179,84.90706238616258 62.93277310952544,84.04288892867044 71.10084033757448,84.474975686986 75.52521008253098,84.04288892867044 79.26890756189823,83.17871523485519 84.7142857145518,79.72201810078695 87.43697478994727,76.26531719206832 89.13865546137094,71.94443574617617 88.79831932671368,68.05563740152866 87.09663865529001,63.7347447485663 84.7142857145518,59.84593631699681 76.54621848650277,56.389213698450476 73.14285714179277,58.11757547967136 62.93277310952544,56.389213698450476 53.743697479367256,57.253394707106054 52.3823529407382,56.389213698450476 40.810924369841814,55.52503245556727 37.0672268923372,56.82130423304625 31.621848739683628,56.389213698450476 19.02941176481545,56.82130423304625 14.605042017996311,58.98175601614639 11.542016807943583,62.00638603512198 9.5,70.21608151681721 10.521008403971791,74.96905337716453 14.264705881476402,81.01827996852808 16.306722689419985,82.3145413051825 19.369747899472713,83.61080211028457 27.537815127521753,84.04288892867044 29.92016806639731,83.61080211028457 37.40756302513182,84.474975686986 42.8529411777854,83.61080211028457 47.277310924604535,84.474975686986 51.02100840397179,84.90706238616258 53.743697479367256,83.61080211028457 59.189075630158186,84.90706238616258 62.93277310952544,84.04288892867044 79.6092436965555,83.17871523485519 85.73529411666095,78.8578432276845 87.77731092274189,75.40114137460478 88.79831932671368,71.5123472774867 88.45798319205642,67.1914593426045 86.07563025318086,61.574296209961176 80.28991596587002,57.685485122026876 74.16386554576457,55.957123106811196 65.99579831957817,56.82130423304625 51.02100840397179,55.957123106811196 36.726890755817294,57.253394707106054 31.962184874340892,55.957123106811196 21.752100840210915,56.82130423304625 16.987394958734512,58.11757547967136 13.58403361402452,60.278026377782226 11.882352940738201,63.302655157865956 10.180672269314528,67.1914593426045 11.201680671423674,74.10487720556557 12.563025210052729,78.4257557024248 14.945378152653575,81.45036713965237 19.369747899472713,83.61080211028457 24.134453780949116,84.474975686986 42.51260504126549,83.61080211028457 47.95798319391906,84.474975686986 49.31932773068547,83.61080211028457 51.361344538629055,84.474975686986 58.168067226186395,83.61080211028457 65.99579831957817,84.474975686986 77.2268907558173,83.61080211028457 80.97058823518455,82.74662829865701 84.7142857145518,79.72201810078695 87.43697478994727,76.69740501185879 88.45798319205642,73.24070079997182 88.45798319205642,65.8951918121893 87.43697478994727,64.1668342789635 83.01260504126549,58.54966577794403 78.92857142724097,57.253394707106054 74.8445378150791,56.389213698450476 66.67647058703005,56.82130423304625 58.84873949550092,55.52503245556727 46.93697478994727,56.389213698450476 25.836134454235435,56.389213698450476 16.64705882407725,58.11757547967136 12.563025210052729,61.574296209961176 10.861344538629055,66.75937022524886 11.201680671423674,71.94443574617617 11.542016807943583,74.96905337716453 13.58403361402452,78.8578432276845 16.306722689419985,81.88245425210334 22.09243697486818,83.61080211028457 28.899159664288163,82.74662829865701 42.51260504126549,83.61080211028457 49.659663865342736,81.88245425210334 78.58823529444635,80.15410544956103 82.67226890847087,78.4257557024248" stroke="#4DD2FF" stroke-linecap="round" stroke-linejoin="round" stroke-width="0.5"><title>2025-03-25 5.2km</title><desc>13977485897</desc></polyline></svg>