<?xml version="1.0" encoding="utf-8" ?>
<svg baseProfile="full" height="130mm" version="1.1" viewBox="0,0,100,130" width="100mm" xmlns="http://www.w3.org/2000/svg" xmlns:ev="http://www.w3.org/2001/xml-events" xmlns:xlink="http://www.w3.org/1999/xlink"><defs /><rect fill="#222222" height="130" width="100" x="0" y="0" /><text fill="#FFFFFF" style="font-size:6px; font-family:Arial; font-weight:bold;" x="5" y="10">2025-01-08 Workouts</text><text fill="#FFFFFF" style="font-size:4px; font-family:Arial" x="5" y="121">Runner</text><text fill="#FFFFFF" style="font-size:6px; font-family:Arial" x="2" y="128">蓝皮书</text><text fill="#FFFFFF" style="font-size:4px; font-family:Arial" x="25" y="121">STATISTICS</text><text fill="#FFFFFF" style="font-size:3px; font-family:Arial" x="25" y="125">Number: 1</text><text fill="#FFFFFF" style="font-size:3px; font-family:Arial" x="5" y="129">Weekly: 1.0</text><text fill="#FFFFFF" style="font-size:3px; font-family:Arial" x="48" y="125">Total: 5.6 km</text><text fill="#FFFFFF" style="font-size:3px; font-family:Arial" x="48" y="129">Avg: 5.6 km</text><text fill="#FFFFFF" style="font-size:3px; font-family:Arial" x="75" y="125">Min: 5.6 km</text><text fill="#FFFFFF" style="font-size:3px; font-family:Arial" x="75" y="129">Max: 5.6 km</text><polyline fill="none" points="86.69512195093557,54.34561489807675 87.42682926822454,54.25270836579148 88.37804878083989,54.438521417439915 88.81707317056134,54.34561489807675 89.32926829252392,54.531427924113814 89.62195121962577,54.903053824731614 89.7682926831767,55.27467952191364 89.8414634144865,56.48246163642034 89.98780487803742,57.59733553120168 89.98780487803742,58.247677792795 90.06097560981289,58.80511352233589 89.91463414626196,59.269642948231194 90.20731707336381,61.499379776243586 90.13414634158835,61.96390736225294 90.28048780513927,62.335529202828184 90.13414634158835,62.80005621816963 90.13414634158835,64.37944569718093 89.91463414626196,64.93687640252756 90.06097560981289,66.05173644341994 90.06097560981289,66.98078508197796 90.20731707336381,67.5382136561675 90.28048780513927,71.34729668975342 90.13414634158835,72.36924216808984 90.20731707336381,73.66989782947348 90.35365853644907,73.94860943336971 90.5,74.87764728872571 90.35365853644907,75.52797303267289 90.13414634158835,79.42991444235668 90.28048780513927,79.8944297862472 90.13414634158835,80.26604183303425 90.20731707336381,81.47377958346624 89.98780487803742,82.86732047738042 88.8902439023368,83.88924865244189 87.86585365841165,84.07505361031508 86.8414634144865,83.70344364404446 86.47560975607485,83.70344364404446 85.817073171027,83.51763858454069 83.62195121916011,84.16795607004315 83.18292682943866,83.98215113772312 82.1585365855135,84.16795607004315 81.28048780467361,83.98215113772312 79.81707317056134,83.98215113772312 79.59756097570062,84.16795607004315 78.5,84.4466633736738 77.8414634144865,84.16795607004315 76.45121951214969,84.07505361031508 76.08536585373804,83.88924865244189 74.62195121962577,84.07505361031508 74.182926828973,83.88924865244189 73.45121951214969,84.07505361031508 73.01219512196258,84.35376095189713 72.64634146355093,84.26085851737298 71.69512195093557,84.53956578305224 70.96341463411227,84.35376095189713 70.08536585327238,84.53956578305224 67.30487804859877,84.35376095189713 66.35365853644907,84.53956578305224 65.32926829252392,84.35376095189713 63.5,84.81827293423703 62.98780487803742,84.72537056298461 62.109756097663194,84.91117529250914 61.74390243878588,84.81827293423703 60.79268292663619,85.00407763832482 58.37804878037423,84.63246817933396 56.40243902383372,84.91117529250914 55.524390243925154,84.72537056298461 55.304878048598766,84.81827293423703 53.25609756074846,84.53956578305224 51.57317073177546,83.98215113772312 49.81707317009568,83.88924865244189 49.37804878037423,84.16795607004315 48.5,84.07505361031508 47.32926829252392,84.26085851737298 46.74390243878588,84.26085851737298 44.62195121962577,84.81827293423703 43.012195121496916,84.81827293423703 41.8414634144865,85.0969799713348 39.71951219486073,85.0969799713348 38.62195121916011,85.37568689422915 36.93902438972145,85.18988229177194 36.13414634112269,85.46858917665668 32.54878048738465,85.46858917665668 31.15853658504784,85.28278459940339 28.45121951214969,85.56149144639494 25.890243901871145,85.37568689422915 25.08536585327238,85.0969799713348 24.5731707313098,85.28278459940339 22.817073170561343,85.37568689422915 21.426829267758876,85.65439370315289 19.012195121496916,85.74729594727978 18.134146341122687,85.56149144639494 16.817073170561343,85.65439370315289 15.20731707289815,85.46858917665668 14.62195121916011,85.65439370315289 13.817073170561343,85.37568689422915 11.548780487384647,85.74729594727978 10.74390243878588,85.56149144639494 10.231707316823304,84.91117529250914 10.304878048598766,84.81827293423703 10.085365853272378,82.86732047738042 10.231707316823304,82.30990446219221 10.012195121496916,81.56668239837745 10.085365853272378,80.82345952268224 9.79268292663619,79.61572061799234 10.012195121496916,78.87249561096542 9.939024389721453,78.59378602408106 10.231707316823304,77.94346321042394 10.231707316823304,77.29313977534184 10.817073170561343,75.99249104049522 10.963414634112269,74.87764728872571 10.963414634112269,73.57699393626535 10.670731707010418,71.7189134050277 10.451219512149692,71.44020088767866 10.158536585047841,70.13954096357338 10.012195121496916,69.95373220002512 10.012195121496916,69.67501895985333 9.719512194860727,69.1175921363174 9.5,69.21049663849408 9.5,68.83887855312787 9.939024389721453,67.90983245201642 10.012195121496916,67.25949942634907 10.231707316823304,66.79497545567574 10.304878048598766,65.86592656350695 10.524390243459493,65.21559158421587 10.597560974769294,64.56525598285953 10.524390243459493,63.9149197601364 10.231707316823304,63.35748821753077 10.012195121496916,61.96390736225294 9.865853658411652,61.592285318882205 9.865853658411652,61.03485187306069 10.012195121496916,60.57032365241321 9.719512194860727,58.15477179357549 9.79268292663619,57.31861722882604 9.939024389721453,56.94699264783412 10.524390243459493,56.38955539587187 11.182926828972995,56.203742877347395 11.987804878037423,56.38955539587187 13.378048779908568,56.203742877347395 14.768292682711035,56.203742877347395 14.841463414020836,56.11083659878932 15.719512194860727,56.0179303077166 16.08536585327238,56.203742877347395 16.74390243878588,56.0179303077166 17.768292682711035,56.11083659878932 18.719512194860727,56.0179303077166 19.45121951168403,56.203742877347395 21.865853658411652,55.73921135807177 22.74390243878588,55.8321176872123 23.548780487384647,55.55339866189752 24.426829267758876,55.55339866189752 25.012195121496916,55.73921135807177 25.37804878037423,55.64630501641659 25.890243901871145,55.73921135807177 27.426829268224537,55.460492294456344 30.134146341122687,55.64630501641659 32.62195121916011,55.55339866189752 33.20731707289815,55.36758591461694 34.74390243878588,55.460492294456344 35.182926828972995,55.27467952191364 35.475609755609185,55.460492294456344 35.91463414626196,55.460492294456344 37.231707316823304,55.460492294456344 37.81707317056134,55.36758591461694 38.18292682943866,55.55339866189752 38.8414634144865,55.64630501641659 41.91463414626196,55.088866698613856 42.86585365841165,55.27467952191364 43.74390243925154,55.18177311652107 44.69512195093557,55.64630501641659 45.79268292663619,55.36758591461694 49.304878048598766,55.460492294456344 50.62195121916011,55.27467952191364 51.28048780467361,55.460492294456344 52.74390243925154,55.088866698613856 54.353658536449075,55.088866698613856 54.5,55.18177311652107 54.939024390187114,55.088866698613856 55.890243902336806,55.18177311652107 57.060975609812886,54.99596026801737 58.524390243925154,55.460492294456344 59.03658536542207,55.36758591461694 60.20731707336381,55.36758591461694 62.91463414626196,54.81014736852376 64.37804878037423,54.99596026801737 65.25609756074846,54.903053824731614 66.93902439018711,54.99596026801737 68.03658536588773,54.62433441815665 68.40243902429938,54.81014736852376 71.18292682943866,54.62433441815665 71.62195121962577,54.81014736852376 73.08536585373804,54.99596026801737 74.8414634144865,54.99596026801737 75.93902439018711,55.18177311652107 76.08536585373804,54.99596026801737 77.32926829252392,55.088866698613856 78.13414634158835,54.71724089991767 79.30487804859877,54.71724089991767 80.76829268271104,54.34561489807675 82.59756097523496,54.15980182104977 85.01219512196258,54.34561489807675 85.96341463411227,54.15980182104977 86.32926829252392,54.34561489807675 86.69512195093557,54.34561489807675 86.69512195093557,54.531427924113814 86.8414634144865,54.531427924113814 88.08536585373804,54.34561489807675 88.8902439023368,54.438521417439915 89.69512195140123,54.81014736852376 89.91463414626196,55.18177311652107 89.8414634144865,56.66827407904202 89.98780487803742,58.06186578172492 89.91463414626196,58.247677792795 89.98780487803742,58.34058377932524 90.06097560981289,59.176737088302616 89.98780487803742,60.756134978611954 90.13414634158835,61.40647422079928 90.13414634158835,64.28654053504579 90.20731707336381,64.65816110692685 90.06097560981289,64.93687640252756 90.28048780513927,66.51626092131482 90.20731707336381,68.56016485608416 90.35365853644907,68.83887855312787 90.20731707336381,69.48921006923774 90.28048780513927,70.6969669497339 90.42682926822454,71.16148825606797 90.13414634158835,72.27633809711551 90.13414634158835,73.01957030961057 90.35365853644907,73.66989782947348 90.42682926822454,75.43506939290091 90.20731707336381,75.80668387562037 90.35365853644907,75.99249104049522 90.20731707336381,77.66475324321073 90.28048780513927,78.96539878135081 90.13414634158835,79.15120508358814 90.42682926822454,80.91636242641835 90.35365853644907,81.47377958346624 89.91463414626196,82.86732047738042 89.25609756074846,83.61054112063721 88.96341463411227,83.7963461545296 88.23170731728896,83.98215113772312 87.71951219532639,83.7963461545296 87.06097560981289,83.88924865244189 86.76829268271104,83.70344364404446 85.2317073168233,83.61054112063721 85.08536585373804,83.7963461545296 84.28048780467361,83.98215113772312 83.18292682943866,83.7963461545296 81.93902439018711,83.88924865244189 79.30487804859877,84.53956578305224 78.42682926822454,84.35376095189713 76.67073170701042,83.61054112063721 75.93902439018711,83.98215113772312 75.20731707336381,83.98215113772312 74.40243902429938,84.35376095189713 73.2317073168233,84.35376095189713 72.79268292663619,84.16795607004315 71.25609756074846,84.53956578305224 70.59756097570062,84.4466633736738 69.28048780467361,84.63246817933396 66.93902439018711,84.4466633736738 65.40243902429938,84.53956578305224 64.8902439023368,84.81827293423703 64.45121951214969,84.63246817933396 64.08536585373804,84.81827293423703 63.79268292663619,84.63246817933396 62.695121951401234,84.91117529250914 59.109756097663194,84.91117529250914 57.42682926822454,84.53956578305224 53.40243902429938,84.81827293423703 51.28048780467361,84.63246817933396 51.060975609812886,84.53956578305224 49.597560975234956,84.91117529250914 49.231707316823304,84.72537056298461 47.54878048785031,84.63246817933396 47.32926829252392,84.81827293423703 46.890243901871145,84.91117529250914 44.475609756074846,84.81827293423703 42.28048780467361,85.18988229177194 40.231707316823304,85.0969799713348 34.597560975234956,85.46858917665668 33.5731707313098,85.37568689422915 32.8414634144865,85.56149144639494 32.10975609719753,85.46858917665668 31.08536585373804,85.56149144639494 30.719512194860727,85.37568689422915 29.987804878037423,85.56149144639494 27.86585365794599,85.56149144639494 26.695121950935572,85.74729594727978 24.719512194860727,85.46858917665668 20.109756097197533,85.84019817895023 19.012195121496916,85.84019817895023 18.20731707289815,85.65439370315289 15.719512194860727,85.74729594727978 13.304878048598766,85.37568689422915 12.86585365794599,85.65439370315289 11.695121950935572,85.65439370315289 10.670731707010418,85.46858917665668 10.304878048598766,85.0969799713348 10.085365853272378,84.63246817933396 10.158536585047841,83.88924865244189 9.865853658411652,78.77959242806537 10.158536585047841,76.45700873143505 10.304878048598766,76.17829815484583 10.378048779908568,74.69183981936658 10.304878048598766,73.76280171022518 10.231707316823304,73.48409003030974 10.231707316823304,72.5550502720289 10.085365853272378,71.34729668975342 10.085365853272378,70.60406265035272 9.939024389721453,69.95373220002512 9.865853658411652,68.65306943428004 9.939024389721453,67.7240230794414 10.158536585047841,67.35240418213652 10.085365853272378,66.51626092131482 10.158536585047841,66.05173644341994 10.085365853272378,65.4943066512933 10.231707316823304,65.02978147583781 10.304878048598766,63.729109296633396 10.231707316823304,63.17167760175653 10.012195121496916,62.892961582983844 10.085365853272378,62.892961582983844 9.719512194860727,62.70715084008407 9.865853658411652,62.24262376187835 9.646341463085264,61.31356865289854 9.5,57.411523342248984 10.012195121496916,56.48246163642034 10.597560974769294,56.203742877347395 11.109756097197533,56.0179303077166 11.768292682711035,56.0179303077166 13.378048779908568,56.11083659878932 14.109756097663194,56.38955539587187 17.475609755609185,56.11083659878932 18.353658535983413,56.203742877347395 20.256097560748458,56.203742877347395 22.08536585327238,55.8321176872123 22.597560975234956,55.92502400383819 23.475609756074846,55.73921135807177 24.20731707289815,55.8321176872123 26.695121950935572,55.460492294456344 27.280487804673612,55.64630501641659 27.646341463085264,55.55339866189752 27.939024389721453,55.73921135807177 29.475609756074846,55.8321176872123 29.841463414486498,55.92502400383819 33.13414634112269,55.36758591461694 35.25609756074846,55.460492294456344 36.28048780467361,55.64630501641659 36.646341463085264,55.55339866189752 37.08536585327238,55.55339866189752 37.81707317056134,55.27467952191364 38.62195121916011,55.55339866189752 39.20731707289815,55.27467952191364 41.32926829252392,55.64630501641659 42.42682926822454,55.36758591461694 43.231707316823304,55.36758591461694 43.890243902336806,55.18177311652107 44.40243902429938,55.27467952191364 45.646341463085264,54.903053824731614 46.96341463411227,55.18177311652107 47.98780487757176,55.088866698613856 49.15853658504784,55.460492294456344 49.45121951214969,55.27467952191364 50.10975609719753,55.27467952191364 51.79268292663619,54.99596026801737 52.08536585373804,55.088866698613856 52.890243902336806,54.99596026801737 53.54878048785031,55.088866698613856 53.768292682711035,54.99596026801737 55.74390243878588,55.18177311652107 56.54878048738465,55.088866698613856 57.20731707289815,54.903053824731614 58.67073170701042,55.18177311652107 59.62195121962577,55.088866698613856 60.939024390187114,55.18177311652107 62.40243902429938,54.903053824731614 64.30487804859877,54.71724089991767 65.18292682943866,54.99596026801737 65.8414634144865,54.99596026801737 66.20731707336381,54.81014736852376 66.93902439018711,54.99596026801737 67.817073171027,54.531427924113814 68.54878048785031,54.438521417439915 70.08536585327238,54.34561489807675 72.20731707289815,54.438521417439915" stroke="#4DD2FF" stroke-linecap="round" stroke-linejoin="round" stroke-width="0.5"><title>2025-01-08 5.6km</title><desc>13294687717</desc></polyline></svg>