<?xml version="1.0" encoding="utf-8" ?>
<svg baseProfile="full" height="130mm" version="1.1" viewBox="0,0,100,130" width="100mm" xmlns="http://www.w3.org/2000/svg" xmlns:ev="http://www.w3.org/2001/xml-events" xmlns:xlink="http://www.w3.org/1999/xlink"><defs /><rect fill="#222222" height="130" width="100" x="0" y="0" /><text fill="#FFFFFF" style="font-size:6px; font-family:Arial; font-weight:bold;" x="5" y="10">2025-04-17 Workouts</text><text fill="#FFFFFF" style="font-size:4px; font-family:Arial" x="5" y="110">Runner</text><text fill="#FFFFFF" style="font-size:6px; font-family:Arial" x="5" y="120">蓝皮书</text><text fill="#FFFFFF" style="font-size:4px; font-family:Arial" x="30" y="110">STATISTICS</text><text fill="#FFFFFF" style="font-size:3px; font-family:Arial" x="30" y="115">Number: 1</text><text fill="#FFFFFF" style="font-size:3px; font-family:Arial" x="30" y="120">Weekly: 1.0</text><text fill="#FFFFFF" style="font-size:3px; font-family:Arial" x="50" y="115">Total: 5.2 km</text><text fill="#FFFFFF" style="font-size:3px; font-family:Arial" x="50" y="120">Avg: 5.2 km</text><text fill="#FFFFFF" style="font-size:3px; font-family:Arial" x="75" y="115">Min: 5.2 km</text><text fill="#FFFFFF" style="font-size:3px; font-family:Arial" x="75" y="120">Max: 5.2 km</text><polyline fill="none" points="69.6651624548249,53.98845257703215 70.76173285208642,54.638211525045335 72.80866425996646,54.73103418108076 73.97833935078233,54.638211525045335 74.34386281622574,55.10232467926107 74.78249097475782,55.19514727202477 75.00180505448952,55.00950207369169 75.29422382684425,55.00950207369169 75.87906137201935,54.73103418108076 76.9025270761922,54.73103418108076 77.92599278036505,54.452566174732056 78.14530685963109,54.73103418108076 78.87635379098356,54.54538885637885 80.48465703986585,54.54538885637885 81.288808664307,54.35974348068703 81.65433213021606,54.452566174732056 82.53158844821155,54.452566174732056 83.55505415191874,54.174098053830676 84.79783393535763,54.35974348068703 87.21028880868107,54.452566174732056 88.59927797876298,54.26692077354528 89.18411552347243,54.452566174732056 89.84205776173621,54.91667945566587 90.06137184146792,55.65926004567882 90.06137184146792,59.279328805801924 89.98826714837924,59.46497283788631 90.20758122764528,61.507053844223265 90.1344765345566,63.456307263928466 90.28068592073396,65.3127338954364 90.20758122764528,67.07633449946297 90.35379061382264,68.28300596022746 90.28068592073396,68.56146830099169 90.42689530691132,69.67531652277103 90.35379061382264,71.53172616980737 90.06137184146792,72.64556952437852 90.20758122764528,73.01685023732716 90.42689530691132,75.15171039954294 90.28068592073396,76.35836752527393 90.35379061382264,77.93630053492961 90.28068592073396,78.58603659190703 90.35379061382264,81.18497460935032 89.9151624548249,82.94853403384332 89.47653429629281,83.59826529992279 89.11101083038375,83.8767213668907 88.08754512667656,84.34081455785781 87.57581227459013,84.43363315815805 86.69855595706031,84.15517731953878 85.89440433261916,83.59826529992279 85.16335740080103,83.50544658571016 84.79783393535763,83.69108400150435 83.7012635380961,83.69108400150435 82.16606498230249,84.06235868122894 82.0929602892138,83.8767213668907 80.19223826751113,84.34081455785781 78.21841155271977,84.34081455785781 77.56046931445599,84.06235868122894 76.6832129964605,84.06235868122894 76.17148014437407,84.06235868122894 75.00180505448952,84.52645174576901 73.46660649823025,84.34081455785781 71.41967509035021,84.71208888303954 69.8844765345566,84.52645174576901 69.37274368247017,84.6192703206325 69.08032491011545,84.43363315815805 67.98375451285392,84.43363315815805 67.25270758150145,84.6192703206325 66.0830324916169,84.71208888303954 65.42509025288746,84.6192703206325 64.62093862798065,84.80490743234986 62.20848375465721,84.6192703206325 61.47743682330474,84.89772596914554 61.11191335786134,84.80490743234986 60.600180505774915,85.0833630048437 58.11462093889713,84.89772596914554 55.994584837928414,84.99054449348478 54.31317689549178,84.80490743234986 53.43592057796195,84.89772596914554 51.02346570417285,84.6192703206325 49.04963898938149,84.99054449348478 47.87996389903128,84.89772596914554 46.78339350176975,85.0833630048437 44.15162454918027,85.0833630048437 40.788808664307,85.54745537228882 39.83844765322283,85.54745537228882 38.74187725642696,85.73309223074466 36.914259928278625,85.45463692425983 34.940433213021606,85.82591064070584 31.796931407880038,85.54745537228882 28.872743682470173,85.54745537228882 24.851985559798777,85.91872903803596 22.585740072187036,85.73309223074466 20.538808664307,85.91872903803596 19.807761732954532,85.82591064070584 19.51534296059981,86.01154742296785 17.39530685963109,85.82591064070584 16.37184115545824,85.91872903803596 15.933212996460497,85.82591064070584 15.12906137201935,85.91872903803596 13.301444043405354,85.64027380786138 12.131768953520805,85.91872903803596 11.473826715257019,85.91872903803596 10.888989169616252,85.91872903803596 10.304151624441147,85.45463692425983 10.157942238263786,85.1761815038044 9.865523465909064,81.46343166485894 9.938628158997744,78.67885597789427 9.792418772820383,78.58603659190703 10.304151624441147,74.9660706516006 10.011732852086425,73.20249051746214 9.938628158997744,71.34608543332433 9.792418772820383,70.51070149149746 9.792418772820383,68.28300596022746 10.304151624441147,66.89069254609058 10.304151624441147,65.77683976112166 10.377256317995489,65.3127338954364 9.938628158997744,63.92041439714376 10.084837545175105,63.73477158206515 9.646209386177361,62.52809204708319 9.646209386177361,61.13576684502186 9.573104693554342,60.85730146220885 9.646209386177361,58.81521850347053 9.5,57.97981916129356 9.573104693554342,56.95877412642585 10.084837545175105,56.58748464245582 10.59657039726153,56.401839824800845 12.71660649869591,56.12337250262499 13.666967509314418,56.216194956039544 14.398014440666884,56.030550036462955 15.202166065108031,56.216194956039544 17.541516245808452,56.216194956039544 18.711191336158663,56.030550036462955 20.246389891952276,56.12337250262499 23.316787004005164,55.752082562597934 23.755415162537247,55.84490506659495 26.09476534323767,55.566437516361475 27.118231046944857,55.84490506659495 28.214801444206387,55.752082562597934 28.43411552347243,55.566437516361475 31.212093863170594,55.937727557786275 32.30866425996646,55.566437516361475 35.08664259966463,55.752082562597934 36.32942238263786,55.47361497418024 38.2301444048062,55.566437516361475 39.76534296059981,55.19514727202477 40.6425992785953,55.28796985204099 42.10469314083457,55.19514727202477 43.05505415191874,55.28796985204099 43.932310469448566,55.19514727202477 44.590252708178014,55.28796985204099 45.32129963906482,55.19514727202477 46.71028880868107,55.380792419367936 48.391696751117706,55.28796985204099 49.12274368247017,55.752082562597934 49.48826714837924,55.65926004567882 50.07310469355434,55.65926004567882 51.31588447652757,55.10232467926107 52.0469314083457,55.00950207369169 54.824909747578204,55.10232467926107 56.79873646236956,54.82385682448512 58.260830325074494,55.10232467926107 60.30776173342019,54.91667945566587 62.57400722010061,55.19514727202477 64.25541516253725,55.10232467926107 65.05956678744406,54.73103418108076 68.20306859211996,54.73103418108076 70.39620938664302,54.91667945566587 71.34657039726153,54.452566174732056 71.78519855625927,54.73103418108076 72.51624548761174,54.638211525045335 73.10108303278685,54.35974348068703 74.19765342958272,54.638211525045335 75.36732851993293,54.638211525045335 75.65974729275331,54.452566174732056 76.6832129964605,54.638211525045335 77.63357400754467,54.452566174732056 78.43772563198581,54.54538885637885 79.60740072233602,54.452566174732056 80.33844765368849,54.174098053830676 81.65433213021606,54.26692077354528 83.55505415191874,54.081275321834255 84.43231046991423,54.35974348068703 88.01444043312222,54.35974348068703 89.03790613729507,54.54538885637885 89.69584837602451,54.91667945566587 89.9151624548249,55.19514727202477 89.98826714837924,55.65926004567882 90.1344765345566,55.752082562597934 89.98826714837924,56.680307032656856 90.06137184146792,57.97981916129356 89.98826714837924,58.35110788460588 90.1344765345566,60.57883596542524 90.06137184146792,61.042945063323714 90.35379061382264,63.549128716113046 90.35379061382264,64.38452121359296 90.1344765345566,65.03427022404503 90.5,69.67531652277103 90.28068592073396,70.4178809900186 90.35379061382264,71.2532650459907 90.20758122764528,72.83120990602765 90.35379061382264,73.20249051746214 90.5,75.33735009661177 90.20758122764528,77.00810509047005 90.35379061382264,78.67885597789427 90.28068592073396,79.7926876215497 90.42689530691132,80.72087926359382 90.35379061382264,82.20598325505853 89.54963898938149,83.50544658571016 88.8916967511177,84.06235868122894 88.3068592059426,84.15517731953878 87.06407942296937,84.15517731953878 86.40613718423992,83.69108400150435 86.04061371833086,83.69108400150435 85.67509025288746,83.50544658571016 84.2861010832712,83.96954003034625 81.87364620994776,84.06235868122894 80.77707581268623,84.34081455785781 79.02256317716092,84.15517731953878 78.36462093889713,84.43363315815805 77.56046931445599,84.34081455785781 75.07490974711254,84.71208888303954 73.905234657228,84.52645174576901 73.02797833969817,84.71208888303954 72.22382671479136,84.71208888303954 71.85830324934795,84.52645174576901 70.76173285208642,84.71208888303954 70.10379061382264,84.34081455785781 69.44584837555885,84.71208888303954 68.6416967511177,84.99054449348478 68.27617328520864,84.80490743234986 66.74097472941503,84.80490743234986 65.20577617362142,84.6192703206325 63.37815884500742,84.89772596914554 62.64711191365495,84.71208888303954 61.55054151639342,84.80490743234986 59.21119133615866,84.71208888303954 57.52978339372203,84.99054449348478 56.140794224105775,84.89772596914554 54.16696750931442,85.0833630048437 54.02075812313706,84.89772596914554 53.43592057796195,85.0833630048437 52.12003610143438,84.89772596914554 51.681407942436635,84.6192703206325 51.24277978390455,84.52645174576901 50.511732852086425,84.71208888303954 50.0,84.89772596914554 49.04963898938149,84.71208888303954 46.78339350176975,85.0833630048437 45.75992779806256,84.99054449348478 44.29783393535763,85.1761815038044 43.49368231045082,85.1761815038044 41.666064981836826,85.26899998995941 41.300541516859084,85.1761815038044 37.35288808634505,85.64027380786138 36.987364620901644,85.45463692425983 35.963898917194456,85.64027380786138 33.624548736494035,85.54745537228882 32.454873646609485,85.64027380786138 30.188628158997744,85.54745537228882 27.703068592585623,85.73309223074466 24.04783393489197,85.64027380786138 19.58844765368849,85.82591064070584 16.883574007079005,85.82591064070584 16.518050541635603,86.01154742296785 14.471119133755565,85.73309223074466 11.546931407880038,85.82591064070584 10.815884476993233,85.73309223074466 10.45036101108417,85.54745537228882 10.231046931818128,85.1761815038044 10.084837545175105,83.59826529992279 10.157942238263786,82.11316435050685 9.792418772820383,80.16396443062695 10.011732852086425,79.42141060985159 9.865523465909064,79.32859132497106 9.865523465909064,78.86449471180094 10.157942238263786,77.56502250925405 10.084837545175105,76.82246584945824 10.231046931818128,76.45118721551262 10.231046931818128,75.5229897434474 10.52346570417285,74.87325075868284 10.231046931818128,72.45992909214692 9.938628158997744,71.34608543332433 10.011732852086425,70.8819833699963 9.719314079731703,69.76813712558942 9.938628158997744,69.02557194844121 9.865523465909064,68.6542890559067 10.157942238263786,67.8189018056728 10.304151624441147,66.05530312855262 10.157942238263786,64.75580643833382 10.231046931818128,63.92041439714376 10.011732852086425,63.27066432189895 9.646209386177361,60.95012326887809 9.719314079731703,59.46497283788631 9.573104693554342,57.608530235127546 9.792418772820383,56.680307032656856 10.66967508988455,56.12337250262499 12.643501805141568,56.30901739670662 13.520758123137057,55.937727557786275 14.690433213021606,56.030550036462955 15.567689531017095,55.84490506659495 19.807761732954532,56.12337250262499 21.196750902570784,55.84490506659495 21.63537906156853,56.12337250262499 23.316787004005164,55.937727557786275 25.21750902524218,55.47361497418024 26.898916967678815,55.752082562597934 29.238267148379236,55.47361497418024 30.042418772820383,55.65926004567882 30.481046931818128,55.47361497418024 31.212093863170594,55.65926004567882 31.9431407940574,55.566437516361475 33.9900722024031,55.752082562597934 34.35559566831216,55.65926004567882 35.08664259966463,55.752082562597934 37.060469314455986,55.47361497418024 37.71841155271977,55.84490506659495 39.61913357395679,55.00950207369169 41.22743682330474,55.28796985204099 43.05505415191874,55.00950207369169 44.44404332153499,55.28796985204099 45.17509025288746,55.00950207369169 46.125451263505965,55.19514727202477 46.71028880868107,55.00950207369169 47.95306859258562,54.91667945566587 48.61101083038375,55.10232467926107 48.75722021702677,55.28796985204099 50.29241877235472,55.47361497418024" stroke="#4DD2FF" stroke-linecap="round" stroke-linejoin="round" stroke-width="0.5"><title>2025-04-17 5.2km</title><desc>14198526254</desc></polyline></svg>