<?xml version="1.0" encoding="utf-8" ?>
<svg baseProfile="full" height="130mm" version="1.1" viewBox="0,0,100,130" width="100mm" xmlns="http://www.w3.org/2000/svg" xmlns:ev="http://www.w3.org/2001/xml-events" xmlns:xlink="http://www.w3.org/1999/xlink"><defs /><rect fill="#222222" height="130" width="100" x="0" y="0" /><text fill="#FFFFFF" style="font-size:6px; font-family:Arial; font-weight:bold;" x="5" y="10">2025-02-18 Workouts</text><text fill="#FFFFFF" style="font-size:4px; font-family:Arial" x="5" y="110">Runner</text><text fill="#FFFFFF" style="font-size:6px; font-family:Arial" x="5" y="120">蓝皮书</text><text fill="#FFFFFF" style="font-size:4px; font-family:Arial" x="30" y="110">STATISTICS</text><text fill="#FFFFFF" style="font-size:3px; font-family:Arial" x="30" y="115">Number: 1</text><text fill="#FFFFFF" style="font-size:3px; font-family:Arial" x="30" y="120">Weekly: 1.0</text><text fill="#FFFFFF" style="font-size:3px; font-family:Arial" x="50" y="115">Total: 6.8 km</text><text fill="#FFFFFF" style="font-size:3px; font-family:Arial" x="50" y="120">Avg: 6.8 km</text><text fill="#FFFFFF" style="font-size:3px; font-family:Arial" x="75" y="115">Min: 6.8 km</text><text fill="#FFFFFF" style="font-size:3px; font-family:Arial" x="75" y="120">Max: 6.8 km</text><polyline fill="none" points="60.55042016878724,83.17871343484148 70.76050420291722,82.31453962321393 80.28991596587002,82.7466265594121 87.77731092460454,75.40114063816145 88.45798319391906,66.75937066716142 81.99159663915634,59.41384764155373 78.58823529444635,58.117577102500945 66.6764705888927,56.82130603166297 49.659663865342736,58.117577102500945 37.40756302699447,58.54966734070331 28.558823531493545,58.117577102500945 18.348739497363567,59.41384764155373 11.542016807943583,66.75937066716142 11.542016807943583,76.26531633641571 13.924369748681784,81.45036557666026 42.17226890847087,83.61080025322735 55.445378152653575,84.04288701154292 59.86974789947271,83.61080025322735 78.92857142910361,83.61080025322735 83.69327731058002,79.28992942534387 87.77731092460454,69.35190413612872 85.05462184920907,62.43847683467902 80.97058823518455,58.98175752116367 69.73949579708278,58.54966734070331 60.21008403412998,57.25339644658379 48.63865546323359,58.98175752116367 24.815126050263643,58.54966734070331 15.966386556625366,60.278027705615386 11.882352942600846,65.89519237284549 11.542016807943583,76.69740409776568 20.050420170649886,84.04288701154292 46.59663865529001,83.17871343484148 58.168067226186395,82.7466265594121 63.61344537883997,82.31453962321393 72.80252100713551,81.88245262973942 82.3319327738136,80.586191293085 86.41596638597548,74.10487664630637 87.43697479180992,68.9198153715115 81.31092437170446,58.98175752116367 62.59243697673082,56.82130603166297 50.68067226931453,57.25339644658379 45.915966387838125,57.685486804228276 39.449579833075404,57.685486804228276 28.558823531493545,57.685486804228276 18.008403362706304,59.41384764155373 10.861344538629055,67.19145972677507 10.521008403971791,71.51234707073309 15.285714287310839,81.88245262973942 31.621848741546273,84.04288701154292 39.10924369841814,83.61080025322735 44.55462184920907,83.17871343484148 50.000000001862645,84.04288701154292 61.91176470555365,82.7466265594121 72.80252100713551,82.31453962321393 86.07563025318086,76.26531633641571 87.43697479180992,68.05563766788691 83.35294117592275,60.278027705615386 71.10084033571184,57.685486804228276 63.273109244182706,57.685486804228276 55.78571428731084,56.82130603166297 48.63865546323359,57.25339644658379 24.474789917469025,57.685486804228276 13.924369748681784,62.43847683467902 9.5,68.9198153715115 11.882352942600846,78.42575455224141 16.64705882407725,82.7466265594121 32.642857145518064,82.7466265594121 38.76890756376088,82.31453962321393 47.27731092646718,81.88245262973942 53.06302521005273,82.31453962321393 67.35714285820723,82.31453962321393 81.65126050449908,81.01827846420929 87.77731092460454,75.40114063816145 88.1176470592618,65.46310313674621 81.65126050449908,57.685486804228276 77.56722689047456,57.25339644658379 72.12184873968363,55.52503443136811 65.99579831957817,56.82130603166297 60.21008403412998,56.82130603166297 54.424369748681784,57.25339644658379 40.13025210238993,57.685486804228276 30.941176472231746,58.117577102500945 18.008403362706304,59.41384764155373 12.903361346572638,63.73474560352042 11.201680675148964,76.26531633641571 16.987394960597157,82.31453962321393 26.516806723549962,83.61080025322735 38.08823529444635,83.17871343484148 42.8529411777854,83.17871343484148 52.72268907725811,82.7466265594121 66.6764705888927,81.88245262973942 75.18487394973636,81.88245262973942 85.05462184920907,78.85784201859497 88.45798319391906,72.80861212452874 87.77731092460454,63.73474560352042 85.05462184920907,59.41384764155373 73.14285714365542,56.82130603166297 68.03781512565911,57.25339644658379 50.68067226931453,58.98175752116367 38.42857143096626,56.82130603166297 15.966386556625366,61.574297359678894 10.521008403971791,71.51234707073309 15.966386556625366,81.01827846420929 27.19747899286449,84.04288701154292 53.743697479367256,82.31453962321393 62.9327731076628,81.01827846420929 69.39915966428816,80.586191293085 79.9495798330754,81.01827846420929 88.79831932857633,74.53696470172144 89.81932773068547,67.62354872608557 83.35294117592275,58.117577102500945 72.46218487620354,56.389215557603166 61.57142857275903,55.95712502300739 28.89915966615081,57.685486804228276 25.83613445609808,57.685486804228276 14.264705885201693,62.43847683467902 10.180672271177173,69.35190413612872 12.563025210052729,78.42575455224141 22.77310924604535,82.7466265594121 54.76470588333905,82.7466265594121 78.58823529444635,80.586191293085 89.13865546137094,72.80861212452874 88.79831932857633,66.32728154980578 85.7352941185236,59.84593770233914 70.76050420291722,56.82130603166297 63.61344537883997,55.95712502300739 52.04201680794358,56.389215557603166 43.87394957989454,56.82130603166297 37.747899159789085,56.82130603166297 33.66386554762721,56.82130603166297 27.537815127521753,57.25339644658379 20.73109243810177,57.685486804228276 12.22268907725811,65.89519237284549 12.903361346572638,77.12949179927818 15.966386556625366,80.15410406212322 21.75210084207356,82.7466265594121 35.365546219050884,81.88245262973942 48.978991597890854,81.45036557666026 52.72268907725811,82.31453962321393 57.1470588222146,81.88245262973942 61.57142857275903,81.45036557666026 75.86554621905088,81.01827846420929 83.69327731058002,78.42575455224141 88.79831932857633,72.3765238316264 87.77731092460454,62.43847683467902 81.99159663915634,57.685486804228276 76.54621848836541,56.82130603166297 67.01680672354996,57.25339644658379 62.59243697673082,57.25339644658379 54.084033612161875,57.25339644658379 46.59663865529001,57.25339644658379 36.72689075767994,56.389215557603166 24.815126050263643,56.82130603166297 18.348739497363567,58.98175752116367 11.882352942600846,66.32728154980578 12.903361346572638,77.56157944211736 18.348739497363567,81.45036557666026 22.432773109525442,80.586191293085 35.365546219050884,81.01827846420929 46.25630252249539,80.586191293085 54.76470588333905,81.01827846420929 62.9327731076628,80.15410406212322 77.2268907558173,79.28992942534387 83.35294117592275,77.99366702698171 89.81932773068547,68.05563766788691 87.77731092460454,61.14220753451809 80.28991596587002,55.95712502300739 61.91176470555365,56.389215557603166 53.40336134470999,56.389215557603166 49.31932773254812,58.117577102500945 44.21428571641445,58.54966734070331 32.98319327831268,56.82130603166297 24.474789917469025,57.685486804228276 16.987394960597157,58.54966734070331 10.521008403971791,71.08025860204361 14.605042017996311,80.586191293085 24.474789917469025,82.7466265594121 43.87394957989454,81.88245262973942 51.02100840397179,81.88245262973942 78.58823529444635,79.72201677411795 87.09663865529001,75.83322851662524 89.47899159602821,65.03101384174079 82.67226890660822,56.82130603166297 75.86554621905088,56.389215557603166 61.91176470555365,56.389215557603166 39.78991596587002,57.25339644658379 31.281512605026364,57.25339644658379 21.41176470555365,57.685486804228276 13.924369748681784,62.43847683467902 10.861344538629055,70.6481700737495 13.584033615887165,77.56157944211736 19.369747899472713,81.01827846420929 41.49159663915634,80.15410406212322 51.70168067328632,80.15410406212322 70.07983193360269,79.28992942534387 84.03361344709992,77.56157944211736 89.81932773068547,70.21608148701489 89.13865546137094,62.43847683467902 81.31092437170446,56.389215557603166 72.12184873968363,55.52503443136811 63.61344537883997,55.52503443136811 53.06302521005273,56.82130603166297 35.365546219050884,58.117577102500945 14.945378152653575,62.00638712616637 11.201680675148964,70.6481700737495 12.563025210052729,77.56157944211736 22.77310924604535,81.88245262973942 60.890756303444505,80.586191293085 64.97478991746902,80.586191293085 75.18487394973636,80.15410406212322 88.1176470592618,73.2407003568951 90.5,66.75937066716142 86.41596638597548,58.117577102500945 77.2268907558173,55.09294378012419 74.16386554762721,55.09294378012419 63.61344537883997,55.95712502300739 55.10504201799631,55.52503443136811 47.95798319391906,56.82130603166297 31.962184876203537,58.117577102500945 21.41176470555365,57.25339644658379 12.903361346572638,63.73474560352042 11.201680675148964,73.2407003568951 14.605042017996311,78.42575455224141 29.920168068259954,79.72201677411795 47.27731092646718,79.72201677411795 52.72268907725811,79.72201677411795 60.890756303444505,80.15410406212322 79.6092436965555,79.28992942534387 82.3319327738136,78.42575455224141 84.7142857145518,76.69740409776568 89.81932773068547,70.21608148701489 86.07563025318086,57.685486804228276 71.10084033571184,55.95712502300739 59.52941176481545,56.389215557603166 29.920168068259954,56.389215557603166 23.11344537883997,57.685486804228276 15.285714287310839,61.574297359678894 11.882352942600846,70.6481700737495 12.903361346572638,74.53696470172144 23.11344537883997,80.586191293085" stroke="#4DD2FF" stroke-linecap="round" stroke-linejoin="round" stroke-width="0.5"><title>2025-02-18 6.8km</title><desc>13659037236</desc></polyline></svg>