<?xml version="1.0" encoding="utf-8" ?>
<svg baseProfile="full" height="130mm" version="1.1" viewBox="0,0,100,130" width="100mm" xmlns="http://www.w3.org/2000/svg" xmlns:ev="http://www.w3.org/2001/xml-events" xmlns:xlink="http://www.w3.org/1999/xlink"><defs /><rect fill="#222222" height="130" width="100" x="0" y="0" /><text fill="#FFFFFF" style="font-size:6px; font-family:Arial; font-weight:bold;" x="5" y="10">2025-05-22 Workouts</text><text fill="#FFFFFF" style="font-size:4px; font-family:Arial" x="5" y="121">Runner</text><text fill="#FFFFFF" style="font-size:6px; font-family:Arial" x="2" y="128">蓝皮书</text><text fill="#FFFFFF" style="font-size:4px; font-family:Arial" x="25" y="121">STATISTICS</text><text fill="#FFFFFF" style="font-size:3px; font-family:Arial" x="25" y="125">Number: 1</text><text fill="#FFFFFF" style="font-size:3px; font-family:Arial" x="25" y="129">Weekly: 1.0</text><text fill="#FFFFFF" style="font-size:3px; font-family:Arial" x="48" y="125">Total: 6.7 km</text><text fill="#FFFFFF" style="font-size:3px; font-family:Arial" x="48" y="129">Avg: 6.7 km</text><text fill="#FFFFFF" style="font-size:3px; font-family:Arial" x="75" y="125">Min: 6.7 km</text><text fill="#FFFFFF" style="font-size:3px; font-family:Arial" x="75" y="129">Max: 6.7 km</text><polyline fill="none" points="12.293103447183967,64.01597279170528 9.849137932062149,73.32451081601903 14.038793103769422,81.74649841221981 27.65517241321504,83.51954564964399 39.17672413773835,83.07628393149935 67.10775861889124,82.63302215212025 78.62931034527719,82.18976031290367 88.40517241321504,77.31387608521618 90.5,67.5620856625028 79.3275862056762,56.03720467444509 61.521551724523306,57.81026594992727 49.30172413773835,58.253531116992235 35.68534482829273,57.81026594992727 23.11637930944562,57.36700072232634 15.784482758492231,60.913120853481814 10.198275860399008,69.33514064573683 10.547413792461157,78.64366341847926 17.87931034527719,84.40606890502386 37.08189655095339,83.51954564964399 48.603448275476694,84.40606890502386 56.98275861889124,83.962807306787 70.94827586039901,83.07628393149935 78.97844827361405,82.63302215212025 87.00862068869174,78.20040103513747 89.80172413773835,68.44861327507533 84.21551723964512,59.583326258463785 74.09051723964512,56.03720467444509 62.91810344718397,57.36700072232634 45.46120689623058,57.81026594992727 34.987068966031075,56.923735432326794 31.14655172266066,56.48047008388676 13.689655173569918,61.79965028166771 11.594827586784959,67.11882176529616 10.896551724523306,75.9840882064309 17.181034481152892,83.51954564964399 30.448275862261653,83.962807306787 51.396551724523306,83.07628393149935 67.45689655095339,83.07628393149935 83.86637930944562,81.74649841221981 88.75431034341455,75.9840882064309 90.15086206793785,67.11882176529616 82.81896551512182,57.81026594992727 69.55172413773835,55.150673672091216 54.887931033968925,56.923735432326794 45.46120689623058,57.81026594992727 35.33620689623058,57.81026594992727 24.512931033968925,57.36700072232634 15.435344826430082,60.469856049632654 10.896551724523306,71.55145801184699 14.038793103769422,81.30323645309545 22.418103447183967,84.40606890502386 48.254310343414545,83.962807306787 70.25,82.63302215212025 83.51724137924612,81.30323645309545 88.05603448115289,75.54082545964047 88.75431034341455,66.23229378950782 83.16810344718397,58.69679622515105 65.71120689623058,56.48047008388676 55.58620689436793,57.36700072232634 44.76293103583157,57.81026594992727 36.383620688691735,56.48047008388676 29.75,56.03720467444509 20.672413792461157,57.81026594992727 15.435344826430082,60.469856049632654 10.198275860399008,71.55145801184699 15.086206898093224,81.74649841221981 36.383620688691735,83.07628393149935 76.18534482643008,82.63302215212025 85.96120689436793,78.64366341847926 89.1034482754767,71.10819465992972 85.61206896603107,61.35638559795916 79.3275862056762,56.923735432326794 66.75862069055438,57.36700072232634 56.98275861889124,58.253531116992235 44.06465517170727,58.69679622515105 39.17672413773835,57.36700072232634 31.844827584922314,58.253531116992235 20.323275862261653,57.81026594992727 13.340517241507769,61.79965028166771 10.547413792461157,71.55145801184699 12.293103447183967,80.41671235021204 16.13362069055438,83.962807306787 45.81034482829273,82.18976031290367 80.72413793206215,82.18976031290367 87.70689655095339,76.42735089338385 88.75431034341455,64.45923711312935 83.16810344718397,59.14006127254106 76.18534482643008,56.03720467444509 69.90086206793785,56.03720467444509 55.23706896416843,57.36700072232634 44.06465517170727,57.81026594992727 32.19396551698446,58.253531116992235 15.435344826430082,61.35638559795916 10.896551724523306,65.78902971139178 9.849137932062149,73.76777386548929 14.387931033968925,82.18976031290367 21.021551724523306,84.40606890502386 30.448275862261653,84.40606890502386 47.55603448301554,82.63302215212025 58.728448275476694,82.63302215212025 69.90086206793785,83.51954564964399 78.28017241321504,83.07628393149935 85.96120689436793,79.53018800541759 90.5,68.00534949824214 88.05603448115289,62.24291490553878 81.77155172266066,57.81026594992727 72.34482758492231,57.36700072232634 61.17241379246116,57.36700072232634 45.11206896416843,56.923735432326794 31.844827584922314,57.36700072232634 16.831896552816033,59.14006127254106 10.198275860399008,68.00534949824214 9.5,71.10819465992972 10.896551724523306,76.42735089338385 14.737068966031075,82.18976031290367 28.353448275476694,84.40606890502386 52.79310344532132,83.51954564964399 69.2025862056762,83.07628393149935 86.65948275662959,79.08692574151792 89.1034482754767,75.9840882064309 89.1034482754767,64.9025013728533 81.42241379246116,58.69679622515105 71.29741379246116,55.59393920330331 65.71120689623058,55.59393920330331 46.159482756629586,57.81026594992727 31.844827584922314,57.81026594992727 19.27586206793785,58.253531116992235 14.038793103769422,62.686179467476904 10.198275860399008,70.22166777262464 12.642241379246116,79.97345020831563 17.53017241321504,83.07628393149935 26.258620688691735,83.07628393149935 43.71551723964512,83.07628393149935 50.349137930199504,83.07628393149935 60.82327586226165,82.18976031290367 67.10775861889124,81.74649841221981 83.51724137924612,79.97345020831563 90.5,68.00534949824214 87.00862068869174,60.469856049632654 66.40948275849223,56.48047008388676 63.616379311308265,56.03720467444509 58.379310343414545,56.923735432326794 31.844827584922314,57.36700072232634 22.418103447183967,58.69679622515105 15.086206898093224,60.469856049632654 10.896551724523306,70.66493124654517 12.99137930944562,80.41671235021204 27.306034481152892,83.51954564964399 31.844827584922314,83.07628393149935 51.04741379246116,83.07628393149935 80.72413793206215,82.63302215212025 88.75431034341455,75.54082545964047 89.4525862056762,67.5620856625028 84.91379310376942,60.469856049632654 78.97844827361405,56.48047008388676 59.0775862056762,56.923735432326794 51.396551724523306,58.253531116992235 47.55603448301554,58.253531116992235 31.49568965472281,56.48047008388676 24.862068966031075,58.69679622515105 15.086206898093224,60.469856049632654 10.547413792461157,68.89187698997557 11.245689656585455,77.75713859009556 15.435344826430082,83.51954564964399 36.732758620753884,83.962807306787 47.905172415077686,83.51954564964399 65.71120689623058,82.18976031290367 77.58189655095339,83.07628393149935 87.00862068869174,77.75713859009556 89.80172413773835,68.89187698997557 86.31034482643008,61.79965028166771 81.77155172266066,55.59393920330331 75.48706896603107,55.59393920330331 49.999999998137355,58.253531116992235 41.62068965472281,57.81026594992727 34.288793101906776,57.36700072232634 18.228448275476694,58.253531116992235 12.642241379246116,64.45923711312935 11.245689656585455,73.76777386548929 16.13362069055438,83.07628393149935 25.560344828292727,83.51954564964399 32.54310344904661,83.07628393149935 37.78017241321504,83.07628393149935 53.14224137738347,83.51954564964399 74.09051723964512,82.18976031290367 88.05603448115289,75.9840882064309 89.80172413773835,68.44861327507533 84.91379310376942,60.469856049632654 75.83620689623058,56.03720467444509 67.80603448115289,55.59393920330331 55.58620689436793,57.36700072232634 39.52586206793785,57.36700072232634 32.54310344904661,57.81026594992727 26.607758620753884,58.69679622515105 16.482758620753884,59.14006127254106 11.245689656585455,66.67555780778639 11.943965518847108,77.31387608521618 21.021551724523306,83.07628393149935 26.607758620753884,83.51954564964399 40.224137930199504,83.51954564964399 58.379310343414545,82.63302215212025 70.94827586039901,81.74649841221981 82.12068965472281,81.74649841221981 90.15086206793785,72.88124770554714 87.35775862075388,61.79965028166771 80.72413793206215,56.923735432326794 66.40948275849223,56.923735432326794 56.98275861889124,57.36700072232634 49.650862069800496,56.48047008388676 27.65517241321504,58.253531116992235 23.46551724150777,58.69679622515105 14.387931033968925,61.79965028166771 10.896551724523306,70.22166777262464 14.038793103769422,80.41671235021204 29.40086206793785,85.29259191872552 37.43103448301554,84.84933044109493 47.20689655095339,83.51954564964399 57.68103448301554,82.18976031290367 66.75862069055438,80.85997443133965 80.02586206793785,81.74649841221981 86.65948275662959,76.87061352026649 88.75431034341455,65.78902971139178 85.26293103396893,61.79965028166771 76.88362068682909,56.03720467444509 69.90086206793785,56.48047008388676 62.91810344718397,57.36700072232634 52.094827584922314,57.36700072232634" stroke="#4DD2FF" stroke-linecap="round" stroke-linejoin="round" stroke-width="0.5"><title>2025-05-22 6.7km</title><desc>14555494944</desc></polyline></svg>