<?xml version="1.0" encoding="utf-8" ?>
<svg baseProfile="full" height="130mm" version="1.1" viewBox="0,0,100,130" width="100mm" xmlns="http://www.w3.org/2000/svg" xmlns:ev="http://www.w3.org/2001/xml-events" xmlns:xlink="http://www.w3.org/1999/xlink"><defs /><rect fill="#222222" height="130" width="100" x="0" y="0" /><text fill="#FFFFFF" style="font-size:6px; font-family:Arial; font-weight:bold;" x="5" y="10">2025-05-05 Workouts</text><text fill="#FFFFFF" style="font-size:4px; font-family:Arial" x="5" y="110">Runner</text><text fill="#FFFFFF" style="font-size:6px; font-family:Arial" x="5" y="120">蓝皮书</text><text fill="#FFFFFF" style="font-size:4px; font-family:Arial" x="30" y="110">STATISTICS</text><text fill="#FFFFFF" style="font-size:3px; font-family:Arial" x="30" y="115">Number: 1</text><text fill="#FFFFFF" style="font-size:3px; font-family:Arial" x="30" y="120">Weekly: 1.0</text><text fill="#FFFFFF" style="font-size:3px; font-family:Arial" x="50" y="115">Total: 10.8 km</text><text fill="#FFFFFF" style="font-size:3px; font-family:Arial" x="50" y="120">Avg: 10.8 km</text><text fill="#FFFFFF" style="font-size:3px; font-family:Arial" x="75" y="115">Min: 10.8 km</text><text fill="#FFFFFF" style="font-size:3px; font-family:Arial" x="75" y="120">Max: 10.8 km</text><polyline fill="none" points="17.454674220993184,46.77623556370963 18.14305949001573,46.74338355648797 19.290368271875195,46.48056733094563 19.851274787564762,46.48056733094563 20.106232294579968,46.34915910643758 21.253541076439433,46.283454966163845 22.65580736543052,45.954933985398384 25.25637393759098,45.6592647042271 25.893767705303617,45.4950038294628 26.123229461722076,45.3635950457101 26.45467422087677,45.3635950457101 26.735127478837967,45.4950038294628 27.041076487279497,45.33074283818132 27.729461756302044,45.29789062598138 29.00424929172732,45.035072760263574 29.233711048029363,45.19933396131091 29.284702549572103,45.3635950457101 29.463172804447822,48.48453351916396 29.820113314315677,48.813050912474864 30.049575070734136,48.911606039473554 30.304532577865757,48.944457739256904 30.635977337136865,48.813050912474864 31.069405099144205,48.287422859546496 31.145892351283692,48.02460838583647 32.140226628864184,47.137607335695066 33.13456090656109,46.57912345051591 33.77195467427373,46.05349032852973 34.07790368271526,45.954933985398384 34.944759206846356,45.3635950457101 35.07223796029575,45.23218618745159 35.531161473016255,45.00222050616867 36.37252124643419,44.27946973567305 36.907932011410594,44.1809126377193 37.162889518309385,44.27946973567305 37.290368271875195,44.57514077798987 37.23937677044887,44.87081144294643 37.31586402258836,45.067925009920145 37.213881019852124,45.29789062598138 37.341359773417935,45.85637760027021 37.341359773417935,49.56863914869609 37.8257790368516,51.90109163573652 38.055240793153644,52.32815785726416 38.361189801595174,52.45956269011367 39.10056657216046,52.42671148882073 39.38101983012166,52.525265078555094 41.06373937684111,52.72237213203334 41.31869688385632,52.85377674130723 41.90509915014263,52.952330149302725 42.64447592070792,52.98518127594434 43.89376770530362,53.346543361913064 44.046742209699005,53.31369228643598 44.30169971671421,53.445096560244565 45.576487252139486,53.67505385998811 45.933427762123756,53.87215993515565 46.6218130311463,53.80645792877476 48.07507082156371,53.93786192305561 48.330028328462504,54.03641486976994 49.45184135972522,54.003563892212696 50.11473087815102,54.102116811001906 50.98158640228212,54.03641486976994 51.3895184135763,54.13496777457476 52.53682719543576,54.102116811001906 52.76628895185422,54.20066968786705 52.919263456133194,54.46347715462616 52.817280453280546,54.56202987776487 52.84277620387729,55.646107065243996 52.740793201024644,56.20456909103086 52.817280453280546,56.50022491242271 52.689801699714735,59.52246277818631 52.791784702567384,59.719563878228655 52.689801699714735,59.98236508383707 52.66430594900157,60.343716255010804 52.7152974504279,61.559166057559196 52.613314447691664,61.854815045327996 52.63881019828841,63.03740722319344 52.7152974504279,64.44993996845733 52.689801699714735,64.97553134943882 52.56232294626534,65.30402535710891 52.66430594900157,65.43542282967246 52.58781869686209,65.9610119749268 52.740793201024644,67.57062131477869 53.097733711008914,67.83341361435305 53.352691218140535,67.8005645932717 53.607648725272156,68.09620561590418 53.68413597741164,68.32614837272558 53.58215297444258,69.31161474551482 53.709631728124805,69.90289255703101 53.658640226582065,70.264228254513 53.81161473086104,70.85550363484072 53.76062322955113,71.24968638340943 53.99008498585317,72.46507896929688 54.65297450427897,74.337428043611 55.85127478756476,76.47254448682361 56.15722379612271,76.73532668914413 56.565155807416886,77.35943322525418 56.64164305943996,77.65506205025304 57.0750708214473,78.0492332301219 57.17705382441636,78.27916610871034 57.58498583571054,77.75360490808089 57.6104815864237,77.55651915051567 57.99291784700472,77.5236715078936 58.196883852710016,77.19519482603937 58.57932011329103,76.99810859345598 58.80878186970949,76.93241314533225 59.803116147289984,76.17691415284935 60.03257790370844,76.17691415284935 60.415014164405875,76.37400108405564 60.44050991500262,76.47254448682361 60.33852691226639,76.57108784762386 59.39518413587939,77.09665173078247 58.80878186970949,78.24631856867927 58.98725212470163,79.29743754242372 59.471671388018876,80.31570450082654 59.90509915014263,80.90695422935823 60.33852691226639,81.16973140227492 60.950424929265864,80.64417675859295 61.58781869686209,79.69160592813569 61.97025495755952,79.36313231995155 63.06657223799266,77.91784291133808 63.9589235127205,77.16234713231097 64.39235127484426,77.03095631052565 64.57082152971998,77.09665173078247 64.67280453257263,77.26089019967185 64.6218130311463,77.42512855218956 64.29036827199161,77.58936678840837 64.00991501426324,78.0492332301219 64.00991501426324,78.47625125166087 64.18838526902255,78.93611593305832 64.44334277627058,79.13320051714254 65.00424929172732,79.26459014664579 65.53966005658731,79.13320051714254 65.87110481585842,78.67333622690057 65.97308781871106,78.34486117497727 65.74362606240902,77.75360490808089 65.38668555242475,77.42512855218956 65.00424929172732,77.32658555475064 64.51983002841007,77.39228089105745 64.11189801699948,77.85214772398467 64.00991501426324,78.44340373951127 64.06090651557315,78.67333622690057 64.59631728054956,79.19889534114918 65.0297450425569,79.26459014664579 65.53966005658731,79.10035309813975 65.87110481585842,78.67333622690057 65.97308781871106,78.24631856867927 65.79461756371893,77.78645251810667 65.38668555242475,77.39228089105745 64.97875354113057,77.29373787956138 64.49433427758049,77.39228089105745 64.08640226640273,77.75360490808089 63.9589235127205,78.0492332301219 63.88243626069743,78.60764125379501 64.13739376771264,78.96896337531507 64.39235127484426,79.19889534114918 65.00424929172732,79.36313231995155 65.361189801828,79.26459014664579 65.76912181288935,79.00181081304618 65.97308781871106,78.6404887427052 65.9475920679979,77.95069049806625 65.53966005658731,77.45797620878147 65.0807365438668,77.29373787956138 64.59631728054956,77.29373787956138 64.49433427758049,76.96526087168604 64.57082152971998,76.89956541430729 65.2847025495721,77.0638040228805 65.51416430599056,77.03095631052565 67.34985835698899,77.55651915051567 68.42067988670897,77.72075729339849 69.13456090656109,77.72075729339849 70.33286118984688,77.85214772398467 72.09206798870582,77.35943322525418 72.78045325784478,77.32658555475064 72.9589235127205,77.19519482603937 73.23937677056529,77.19519482603937 75.9419263455784,76.70247893016494 76.65580736554693,76.47254448682361 77.39518413611222,76.40684888967371 77.70113314443734,76.47254448682361 78.49150141642895,76.47254448682361 79.99575070827268,76.34115327388281 82.23937677056529,76.57108784762386 84.63597733713686,77.0638040228805 84.94192634569481,77.22804251524212 85.12039660057053,77.19519482603937 86.80311614728998,77.91784291133808 87.51699716714211,78.4105562226323 88.35835694056004,79.16604793145962 88.9192634561332,79.95438447945344 89.30169971683063,81.00549570415751 89.40368271956686,81.53104952829017 89.42917847028002,82.48361279605888 89.17422096326482,83.698946451972 89.2507082154043,84.0602606337925 89.17422096326482,84.29018754702702 89.60764872527216,84.94712032769166 89.86260623228736,85.07850666022568 90.39801699714735,85.07850666022568 90.5,85.14419979871309 90.32152974512428,85.17704636085546 90.16855524084531,85.04566008408437 89.93909348442685,85.01281350333011 89.73512747883797,84.9142737328657 89.48016997170635,84.52011423211661 89.35269121814054,84.02741391323798 89.19971671386156,83.99456718799775 88.20538243628107,85.2755860195175 86.7266288951505,86.12959463910374 86.26770538243,86.52375140179356 85.9362606232753,87.04929270906723 85.85977337113582,87.57483282439352 85.78328611899633,91.68057394171774 85.55382436269429,91.84480207313027 84.53399433428422,91.81195645620755 83.23371104814578,91.68057394171774 81.83144475927111,91.6148826565477 81.52549575082958,91.71341957729601 81.09206798870582,91.64772830149741 80.99008498585317,91.25358025515743 81.09206798870582,89.41421384066052 81.04107648716308,87.24637039200752 80.9135977338301,87.14783157153579 78.13456090656109,87.01644641219173 77.47167138813529,87.08213900124247 77.36968838528264,87.24637039200752 77.39518413611222,88.46167906592018 77.21671388100367,90.9579687804362 77.29320113314316,91.68057394171774 77.19121813029051,91.81195645620755 75.91643059498165,91.81195645620755 75.38101983012166,91.87764768552734 73.69830028316937,91.77911083464278 73.08640226628631,91.81195645620755 72.67847025510855,91.64772830149741 72.67847025510855,87.93614096207602 72.52549575082958,87.04929270906723 71.68413597729523,85.76828368417046 71.48016997170635,85.66974423507054 70.94475920672994,85.57120474401745 70.81728045328055,85.47266521111305 70.66430594900157,84.58580752882699 70.23087818699423,83.79748673923314 69.66997167142108,83.04201013229613 68.75212464598008,82.28653106205456 68.21671388100367,81.99090814650117 67.75779036828317,81.82667303050403 66.66147308773361,81.6952848539222 65.76912181288935,81.7938259933726 65.13172804529313,81.99090814650117 64.39235127484426,82.5164597355033 63.83144475915469,83.23909122381883 63.06657223799266,83.56755933703971 62.81161473097745,83.56755933703971 62.454674220993184,83.37047852492833 62.097733711008914,82.9106226448639 61.7152974504279,83.07485699247627 61.53682719555218,83.04201013229613 60.8484419262968,83.4033253386151 60.61898016987834,83.3376317066577 60.160056657274254,83.37047852492833 58.834277620422654,81.10403713697451 58.375354107585736,80.5456351301109 57.63597733725328,79.23174274624034 57.63597733725328,79.10035309813975 57.27903682726901,78.60764125379501 57.17705382441636,78.27916610871034 57.55949008499738,77.68790967416135 59.828611898003146,76.11121847185132 60.31303116143681,76.34115327388281 60.33852691226639,76.50539227838453 59.54815864015836,77.09665173078247 59.06373937684111,77.85214772398467 58.88526912173256,78.67333622690057 59.038243626011536,79.46167445127503 58.88526912173256,78.57479376017 59.08923512743786,77.91784291133808 59.54815864015836,77.0638040228805 60.03257790370844,76.66963116647094 60.185552407987416,76.63678339820763 60.364022662863135,76.37400108405564 60.03257790370844,76.14406631469319 59.879603399545886,76.17691415284935 59.39518413587939,76.43969669063517 59.29320113325957,76.37400108405564 59.01274787529837,76.66963116647094 57.151558073586784,77.95069049806625 56.9475920679979,77.91784291133808 56.743626062292606,77.68790967416135 56.208215297432616,76.73532668914413 56.2847025495721,76.73532668914413 55.69830028328579,77.26089019967185 55.392351274727844,77.42512855218956 54.984419263433665,77.98353808016691 53.02124645886943,79.3302849335596 52.23087818699423,80.05292635931983 50.19121813029051,81.4653553654789 49.375354107585736,82.1879901321081 48.73796033998951,82.58215360032045 48.228045325842686,82.71354127398808 48.20254957501311,82.81208198038803 47.64164305943996,83.30478488364315 46.49433427769691,84.12595406087348 46.26487252127845,84.29018754702702 46.06090651557315,84.29018754702702 45.270538243697956,84.94712032769166 44.93909348442685,85.07850666022568 41.90509915014263,87.4106016663718 41.267705382429995,87.80475624998508 40.12039660057053,88.6587555474689 39.814447592129,88.75729372535716 37.00991501403041,91.02366025187075 35.42917847028002,92.10756684141234 34.791784702567384,92.69878648027952 33.77195467427373,93.32285001824494 33.64447592070792,93.48707698579528 33.364022662863135,93.58561311033554 31.885269121848978,94.76804333722976 31.17138810188044,95.16218540532282 30.635977337136865,95.62201697072305 30.20254957501311,95.8190873622807 29.820113314315677,95.75339725030062 28.086402266286314,93.35569542107987 27.57648725202307,92.86301389013533 26.556657223729417,91.41780868933711 26.352691218140535,91.28642595132987 26.27620396600105,91.05650598063949 25.664305949001573,90.26820720617252 25.179886685451493,89.51275169735891 24.720963172847405,88.921523928846 24.36402266274672,88.62590947885474 23.777620396460406,87.64052525493025 23.369688385282643,87.21352412311535 23.31869688385632,87.01644641219173 22.273371104733087,85.70259072275076 22.01841359771788,85.53835823773989 21.865439093555324,85.20989291837031 21.126062322873622,84.19164746925526 20.310198300285265,83.20624438681989 20.02974504244048,82.64784744642384 17.73512747872155,80.1186209226289 16.919263456133194,78.8047261171887 16.79178470245097,78.73903118130693 16.30736543913372,78.21347102391883 15.975920679746196,77.62221442161535 15.491501416428946,76.89956541430729 15.007082152878866,76.40684888967371 14.344192634453066,75.45426063747436 14.012747875414789,75.1586290042178 14.012747875414789,75.02723704608798 13.78328611899633,74.69875682488782 13.349858356872573,74.23888373275986 13.018413597717881,73.64761698729126 12.5339943341678,73.220590065961 12.559490084880963,72.9249555823626 11.973087818711065,72.03804986835166 11.361189801711589,71.44677750609117 10.009915014146827,69.67295136516623 9.5,68.91742869938025 9.576487252139486,68.32614837272558 9.627478753449395,67.50492319329351 9.525495750713162,66.28950458523468 9.601983002852648,65.07407960067212 9.525495750713162,64.3185419368674 9.550991501309909,63.10310661161202 9.780453257728368,62.51181144498696 9.729461756302044,61.756265424599405 9.754957507015206,59.78526420753042 9.856940509867854,58.99685902513738 9.729461756302044,57.518592076186906 9.831444759154692,56.171718420810066 9.627478753449395,55.580405561908265 9.93342776200734,53.8393089343881 9.856940509867854,51.703983883329784 10.111898016999476,49.79860029673728 9.98441926331725,49.37152941169916 10.060906515456736,48.51738527942507 9.98441926331725,48.22171926901501 10.060906515456736,47.958904720886494 10.264872521278448,47.794645476780715 11.743626062292606,47.43327472980309 12.788951841183007,47.33471897368145 14.191218130174093,47.30186704573862 14.420679886592552,47.20331123369397 14.70113314432092,47.30186704573862 15.211048158584163,47.170459287051926 15.822946175583638,47.20331123369397 16.715297450311482,46.94049553001241" stroke="#FFFF00" stroke-linecap="round" stroke-linejoin="round" stroke-width="0.5"><title>2025-05-05 10.8km</title><desc>14380248412</desc></polyline></svg>