<?xml version="1.0" encoding="utf-8" ?>
<svg baseProfile="full" height="130mm" version="1.1" viewBox="0,0,100,130" width="100mm" xmlns="http://www.w3.org/2000/svg" xmlns:ev="http://www.w3.org/2001/xml-events" xmlns:xlink="http://www.w3.org/1999/xlink"><defs /><rect fill="#222222" height="130" width="100" x="0" y="0" /><text fill="#FFFFFF" style="font-size:6px; font-family:Arial; font-weight:bold;" x="5" y="10">2025-04-24 Workouts</text><text fill="#FFFFFF" style="font-size:4px; font-family:Arial" x="5" y="121">Runner</text><text fill="#FFFFFF" style="font-size:6px; font-family:Arial" x="2" y="128">蓝皮书</text><text fill="#FFFFFF" style="font-size:4px; font-family:Arial" x="25" y="121">STATISTICS</text><text fill="#FFFFFF" style="font-size:3px; font-family:Arial" x="25" y="125">Number: 1</text><text fill="#FFFFFF" style="font-size:3px; font-family:Arial" x="25" y="129">Weekly: 1.0</text><text fill="#FFFFFF" style="font-size:3px; font-family:Arial" x="48" y="125">Total: 5.2 km</text><text fill="#FFFFFF" style="font-size:3px; font-family:Arial" x="48" y="129">Avg: 5.2 km</text><text fill="#FFFFFF" style="font-size:3px; font-family:Arial" x="75" y="125">Min: 5.2 km</text><text fill="#FFFFFF" style="font-size:3px; font-family:Arial" x="75" y="129">Max: 5.2 km</text><polyline fill="none" points="27.03246753104031,56.4219454692211 23.175324672833085,57.31231353757903 17.564935063943267,57.75749748130329 14.058441556990147,60.42859986284748 9.850649347528815,66.2159808515571 9.5,74.2292606481351 11.603896103799343,78.681074248394 12.65584415383637,80.01661714352667 20.01948051713407,82.68770129117183 30.53896103799343,83.13288177060895 38.60389610379934,81.79734015231952 42.11038960888982,82.68770129117183 70.51298701018095,83.13288177060895 74.01948051713407,81.79734015231952 78.2272727265954,82.2425207523629 82.78571428358555,80.90697876899503 87.69480519369245,76.45516820764169 89.44805194623768,73.33889719843864 89.44805194623768,67.55152885126881 88.0454545430839,63.99006630294025 85.94155843928456,61.31896683759987 80.33116883039474,56.86712953308597 78.2272727265954,55.9767613443546 72.61688311584294,56.4219454692211 67.35714285634458,55.53157715708949 65.6038961019367,56.4219454692211 56.83766233548522,55.53157715708949 53.331168830394745,56.4219454692211 39.30519480444491,56.86712953308597 37.201298700645566,57.31231353757903 34.045454543083906,56.86712953308597 28.084415582939982,57.75749748130329 25.279220778495073,56.86712953308597 23.175324672833085,57.75749748130329 19.318181816488504,57.75749748130329 11.954545453190804,62.654516842681915 9.5,70.22262321109883 9.850649347528815,73.33889719843864 13.006493505090475,78.681074248394 18.61688311584294,82.2425207523629 20.370129868388176,82.68770129117183 33.694805193692446,83.57806218788028 42.461038960143924,82.68770129117183 45.61688311584294,83.13288177060895 47.72077922150493,82.2425207523629 53.331168830394745,82.2425207523629 57.53896103799343,83.13288177060895 70.86363636143506,81.79734015231952 78.2272727265954,81.79734015231952 83.48701298609376,80.46179798571393 85.240259738639,79.57143623870797 89.44805194623768,73.78407895262353 90.5,71.558169570053 89.79870129749179,65.7707980631385 88.39610389433801,61.7641502332408 81.38311688229442,56.86712953308597 76.12337662093341,55.9767613443546 74.37012986838818,56.4219454692211 70.86363636143506,55.9767613443546 64.55194805003703,56.86712953308597 53.681818179786205,55.9767613443546 43.51298701018095,56.4219454692211 34.045454543083906,55.53157715708949 31.240259738638997,55.9767613443546 28.78571428358555,55.53157715708949 14.409090908244252,59.53823264501989 12.305194804444909,62.20933356927708 11.253246752545238,64.88043230376206 9.850649347528815,70.6678053913638 10.551948050037026,74.67444228101522 14.058441556990147,79.57143623870797 16.16233766078949,80.90697876899503 24.2272727265954,82.68770129117183 52.62987012602389,81.79734015231952 67.35714285634458,82.68770129117183 72.61688311584294,81.79734015231952 78.57792207784951,81.79734015231952 83.48701298609376,80.46179798571393 85.94155843928456,78.23589316150174 88.0454545430839,75.5648053670302 90.14935064688325,68.88707630429417 90.14935064688325,66.66116357850842 87.69480519369245,62.654516842681915 82.78571428358555,59.093048946000636 76.82467532157898,56.86712953308597 56.83766233548522,55.9767613443546 50.876623375341296,56.86712953308597 46.66883116774261,55.9767613443546 36.5,57.31231353757903 34.74675324559212,58.20268136332743 31.941558441147208,57.31231353757903 30.88961038738489,58.20268136332743 25.629870127886534,56.86712953308597 22.82467532157898,57.31231353757903 15.461038960143924,59.98341628466733 11.253246752545238,65.7707980631385 10.201298700645566,69.33225866779685 10.201298700645566,72.89371538325213 10.902597401291132,77.34553080587648 11.954545453190804,78.681074248394 17.915584415197372,83.57806218788028 18.9675324652344,84.02324254624546 27.383116882294416,84.02324254624546 32.993506491184235,82.2425207523629 34.045454543083906,83.13288177060895 38.25324675254524,83.57806218788028 43.51298701018095,81.79734015231952 49.474025974050164,82.68770129117183 50.525974025949836,83.57806218788028 54.73376623168588,82.68770129117183 65.25324675254524,83.57806218788028 70.16233766078949,82.68770129117183 73.3181818164885,84.46842284267768 76.47402597218752,84.46842284267768 82.43506493419409,82.2425207523629 84.18831168673933,80.90697876899503 88.0454545430839,76.45516820764169 89.79870129749179,70.22262321109883 89.09740259498358,65.3256152139511 88.0454545430839,63.54488320997916 83.13636363483965,58.64786518551409 80.68181818164885,56.4219454692211 78.2272727265954,55.9767613443546 75.42207792028785,55.53157715708949 70.86363636143506,56.4219454692211 69.11038960888982,55.53157715708949 61.39610389433801,56.4219454692211 58.94155843928456,55.9767613443546 53.681818179786205,57.31231353757903 50.525974025949836,56.4219454692211 40.006493505090475,56.4219454692211 38.60389610379934,57.31231353757903 32.642857141792774,57.31231353757903 26.68181818164885,56.4219454692211 22.82467532157898,56.86712953308597 17.21428571268916,59.093048946000636 13.35714285634458,62.654516842681915 10.902597401291132,65.3256152139511 9.850649347528815,69.7774409702979 10.902597401291132,76.0099868173711 11.954545453190804,77.79071201337501 16.512987012043595,82.2425207523629 18.266233764588833,82.68770129117183 21.071428569033742,83.13288177060895 32.29220779053867,82.2425207523629 33.694805193692446,81.79734015231952 36.5,82.2425207523629 42.811688309535384,81.35215949080884 47.370129868388176,82.68770129117183 50.525974025949836,82.2425207523629 58.240259738639,82.68770129117183 63.14935064688325,81.79734015231952 80.33116883039474,82.2425207523629 84.18831168673933,80.01661714352667 87.69480519369245,77.34553080587648 89.79870129749179,73.78407895262353 90.5,71.558169570053 89.44805194623768,66.2159808515571 88.0454545430839,62.654516842681915 82.78571428358555,57.75749748130329 78.92857142537832,55.9767613443546 76.12337662093341,55.53157715708949 71.56493506394327,56.86712953308597 70.51298701018095,55.9767613443546 68.4090909063816,56.4219454692211 64.90259739942849,57.31231353757903 61.74675324372947,56.86712953308597 58.240259738639,57.31231353757903 47.72077922150493,57.31231353757903 40.35714285634458,58.20268136332743 36.14935064688325,57.31231353757903 32.993506491184235,58.20268136332743 21.772727271541953,57.75749748130329 15.461038960143924,59.98341628466733 11.253246752545238,64.88043230376206 9.850649347528815,71.558169570053 10.902597401291132,77.34553080587648 11.603896103799343,78.681074248394 13.006493505090475,80.01661714352667 14.409090908244252,80.01661714352667 19.318181816488504,83.13288177060895 23.175324672833085,83.13288177060895 30.188311686739326,82.68770129117183 34.045454543083906,83.13288177060895 43.51298701018095,81.79734015231952 46.318181816488504,82.68770129117183 47.370129868388176,82.2425207523629 58.94155843928456,82.68770129117183 71.91558441333473,81.79734015231952 79.62987012788653,82.2425207523629 85.240259738639,79.1262552740518 87.34415584243834,76.45516820764169 90.14935064688325,67.99671139754355 89.09740259498358,66.66116357850842 89.44805194623768,64.88043230376206 86.99350649304688,61.31896683759987 83.83766233734787,57.75749748130329 80.33116883039474,55.9767613443546 75.77272727154195,55.53157715708949 66.65584415569901,56.86712953308597 65.6038961019367,57.75749748130329 51.57792207598686,56.4219454692211 45.26623376458883,56.86712953308597 42.11038960888982,57.75749748130329 35.798701295629144,57.31231353757903 27.03246753104031,57.75749748130329 20.72077921964228,57.75749748130329 16.863636361435056,59.093048946000636 12.65584415383637,63.09970005741343 11.253246752545238,65.3256152139511 10.201298700645566,71.558169570053 11.253246752545238,76.45516820764169 15.110389608889818,80.90697876899503 18.266233764588833,82.2425207523629 22.123376620933414,83.13288177060895 30.53896103799343,82.2425207523629 35.798701295629144,83.13288177060895 41.75974025763571,82.2425207523629 55.78571428358555,83.13288177060895 59.993506491184235,82.2425207523629 62.44805194623768,83.13288177060895 68.4090909063816,81.79734015231952 77.52597402594984,82.68770129117183 81.03246753104031,82.2425207523629 84.53896103613079,80.46179798571393 87.69480519369245,77.34553080587648 89.44805194623768,74.67444228101522 89.79870129749179,72.00335156847723 89.79870129749179,69.7774409702979 90.14935064688325,68.44189388118684 89.09740259498358,64.43524933350272 84.88961038924754,59.53823264501989 81.73376623168588,56.86712953308597 79.27922077849507,56.4219454692211 73.66883116587996,55.9767613443546 66.30519480444491,57.31231353757903 60.694805193692446,56.4219454692211 49.474025974050164,56.4219454692211 47.370129868388176,55.53157715708949 36.85064934939146,56.86712953308597 32.642857141792774,56.4219454692211 26.68181818164885,56.86712953308597 16.16233766078949,59.53823264501989 13.35714285634458,62.20933356927708 10.551948050037026,67.55152885126881 10.551948050037026,73.33889719843864 12.65584415383637,78.23589316150174 15.461038960143924,81.35215949080884 19.318181816488504,83.57806218788028 30.88961038738489,83.13288177060895 37.201298700645566,82.2425207523629 40.70779220573604,83.13288177060895 52.27922077849507,81.79734015231952 61.74675324372947,82.2425207523629 65.25324675254524,80.90697876899503 69.11038960888982,80.46179798571393 79.62987012788653,81.35215949080884 85.94155843928456,77.79071201337501 88.74675324372947,72.89371538325213 89.09740259498358,67.99671139754355 86.64285714179277,61.7641502332408 85.240259738639,60.42859986284748 79.27922077849507,57.31231353757903 74.01948051713407,56.86712953308597 64.20129870064557,56.86712953308597 61.74675324372947,55.9767613443546 60.694805193692446,57.75749748130329 59.29220779053867,57.75749748130329 55.78571428358555,57.75749748130329 52.62987012602389,56.4219454692211 51.2272727265954,57.31231353757903 47.01948051713407,56.4219454692211 42.11038960888982,57.75749748130329 32.29220779053867,58.20268136332743 25.629870127886534,56.4219454692211 21.772727271541953,56.86712953308597 16.16233766078949,59.53823264501989 13.35714285634458,62.654516842681915 10.201298700645566,67.99671139754355 10.902597401291132,74.67444228101522 11.954545453190804,76.90034953760915 14.409090908244252,79.57143623870797 20.01948051713407,82.68770129117183 32.993506491184235,82.68770129117183 34.74675324559212,83.13288177060895 54.383116882294416,81.35215949080884 64.20129870064557,82.2425207523629 70.51298701018095,80.90697876899503 76.12337662093341,82.2425207523629 78.57792207784951,82.2425207523629 85.5909090898931,80.01661714352667 89.09740259498358,72.448533505667 88.39610389433801,69.7774409702979 89.09740259498358,65.7707980631385 87.69480519369245,63.54488320997916 85.94155843928456,61.31896683759987 80.33116883039474,57.31231353757903 74.72077921964228,56.4219454692211 69.46103896014392,58.20268136332743 58.5909090898931,56.4219454692211 54.383116882294416,57.31231353757903 44.56493506394327,56.86712953308597 42.811688309535384,57.31231353757903 38.60389610379934,56.86712953308597 33.34415584243834,57.75749748130329 27.03246753104031,56.86712953308597 24.577922077849507,58.20268136332743 20.370129868388176,57.75749748130329 18.61688311584294,58.20268136332743 12.65584415383637,62.654516842681915 10.551948050037026,68.44189388118684 9.850649347528815,70.6678053913638 10.201298700645566,73.33889719843864 11.954545453190804,76.90034953760915 15.110389608889818,80.01661714352667 20.370129868388176,83.13288177060895 24.2272727265954,83.57806218788028 30.53896103799343,82.68770129117183 34.045454543083906,83.13288177060895 42.11038960888982,81.35215949080884 46.66883116774261,82.2425207523629 52.27922077849507,81.79734015231952 53.681818179786205,82.68770129117183 57.88961038738489,81.79734015231952 60.34415584243834,82.2425207523629 72.96753246709704,82.2425207523629 76.82467532157898,82.68770129117183 83.83766233734787,81.35215949080884 88.39610389433801,76.45516820764169 90.14935064688325,72.448533505667 89.79870129749179,65.3256152139511 88.74675324372947,63.54488320997916 83.13636363483965,58.64786518551409 78.2272727265954,56.86712953308597 70.51298701018095,55.9767613443546 64.90259739942849,57.31231353757903 47.370129868388176,56.86712953308597 30.88961038738489,58.64786518551409 27.03246753104031,57.31231353757903 20.01948051713407,58.20268136332743 11.954545453190804,64.43524933350272 11.253246752545238,65.3256152139511 10.902597401291132,68.44189388118684 10.551948050037026,74.67444228101522 13.35714285634458,79.1262552740518 18.61688311584294,82.68770129117183 31.240259738638997,83.13288177060895 51.92857142537832,81.35215949080884 53.331168830394745,81.79734015231952 56.83766233548522,80.46179798571393 67.35714285634458,80.90697876899503 70.51298701018095,80.01661714352667 77.52597402594984,79.57143623870797 83.13636363483965,78.23589316150174 85.240259738639,76.45516820764169 87.69480519369245,72.89371538325213 88.39610389433801,71.11298751155846 88.74675324372947,66.66116357850842 86.99350649304688,62.654516842681915 85.240259738639,60.87378338119015 81.03246753104031,57.75749748130329 76.47402597218752,57.31231353757903" stroke="#4DD2FF" stroke-linecap="round" stroke-linejoin="round" stroke-width="0.5"><title>2025-04-24 5.2km</title><desc>14267325200</desc></polyline></svg>