<?xml version="1.0" encoding="utf-8" ?>
<svg baseProfile="full" height="130mm" version="1.1" viewBox="0,0,100,130" width="100mm" xmlns="http://www.w3.org/2000/svg" xmlns:ev="http://www.w3.org/2001/xml-events" xmlns:xlink="http://www.w3.org/1999/xlink"><defs /><rect fill="#222222" height="130" width="100" x="0" y="0" /><text fill="#FFFFFF" style="font-size:6px; font-family:Arial; font-weight:bold;" x="5" y="10">2025-01-29 Workouts</text><text fill="#FFFFFF" style="font-size:4px; font-family:Arial" x="5" y="121">Runner</text><text fill="#FFFFFF" style="font-size:6px; font-family:Arial" x="2" y="128">蓝皮书</text><text fill="#FFFFFF" style="font-size:4px; font-family:Arial" x="25" y="121">STATISTICS</text><text fill="#FFFFFF" style="font-size:3px; font-family:Arial" x="25" y="125">Number: 1</text><text fill="#FFFFFF" style="font-size:3px; font-family:Arial" x="25" y="129">Weekly: 1.0</text><text fill="#FFFFFF" style="font-size:3px; font-family:Arial" x="48" y="125">Total: 5.2 km</text><text fill="#FFFFFF" style="font-size:3px; font-family:Arial" x="48" y="129">Avg: 5.2 km</text><text fill="#FFFFFF" style="font-size:3px; font-family:Arial" x="75" y="125">Min: 5.2 km</text><text fill="#FFFFFF" style="font-size:3px; font-family:Arial" x="75" y="129">Max: 5.2 km</text><polyline fill="none" points="90.5,47.948970288038254 90.28245299914852,49.88253357389476 90.5,49.97460787789896 90.06490599783137,52.644757220405154 90.13742166478187,53.381348281749524 89.99239033134654,55.77526367356768 90.28245299914852,57.43258473527385 89.84735899697989,59.08990172325866 90.06490599783137,60.93136026529828 89.99239033134654,62.40452347835526 90.20993733219802,63.3252488518483 90.13742166478187,64.33804531063652 90.28245299914852,65.81120108050527 90.13742166478187,69.58614805026446 90.28245299914852,70.8751494922326 90.13742166478187,71.42757792724296 90.28245299914852,73.36107388610253 89.84735899697989,74.74213903344935 89.41226499527693,75.57077676441986 88.39704565797001,76.1232013523695 87.59937332104892,76.1232013523695 87.38182632019743,76.30734278116142 86.584153983742,75.93905987334438 84.69874664302915,75.66284756036475 84.26365264132619,75.57077676441986 82.52327663358301,75.57077676441986 81.50805729627609,75.38663513422944 80.78290062630549,75.47870595561108 79.55013428814709,75.38663513422944 78.752461951226,75.57077676441986 78.09982094913721,75.66284756036475 77.88227394828573,75.47870595561108 77.22963294573128,75.57077676441986 75.99686660710722,75.38663513422944 75.56177260540426,75.84698911488522 75.19919427018613,75.93905987334438 72.00850492389873,75.57077676441986 71.57341092219576,75.66284756036475 70.12309758272022,75.47870595561108 69.54297224711627,75.7549183438532 67.87511190678924,75.57077676441986 67.58504923898727,75.66284756036475 66.85989256948233,75.66284756036475 65.11951656220481,76.2152720731101 63.37914055492729,76.1232013523695 63.01656221970916,76.2152720731101 61.78379588155076,75.93905987334438 59.97090420732275,76.03113061899785 59.753357206471264,75.84698911488522 58.23052820051089,76.1232013523695 56.05505819153041,76.1232013523695 53.009400178678334,76.2152720731101 52.42927484307438,76.1232013523695 51.414055505767465,75.38663513422944 51.26902417186648,75.01835172361461 51.48657117271796,74.28178429865511 51.776633840519935,71.05929235398071 51.70411817356944,70.50686361733824 51.84914950747043,69.3099331347621 51.776633840519935,67.56056937703397 52.06669650832191,64.43011764041148 51.70411817356944,62.40452347835526 51.63160250661895,60.93136026529828 52.139212175272405,57.24843815190252 52.21172784268856,55.31489598902408 52.06669650832191,54.94660161534557 52.06669650832191,53.381348281749524 51.84914950747043,52.644757220405154 51.70411817356944,50.619127652957104 51.414055505767465,49.69838492840063 51.34153983881697,48.0410448560724 51.55908683966845,46.93614921125118 52.21172784268856,46.659925016982015 54.1696508503519,46.93614921125118 55.03983885375783,46.659925016982015 55.03983885375783,46.567850260587875 55.25738585507497,46.47577549167909 56.34512085933238,46.47577549167909 56.63518352713436,46.659925016982015 57.21530886273831,46.567850260587875 57.94046553270891,46.8440744925756 58.30304386746138,46.659925016982015 58.665622202213854,46.567850260587875 59.390778871718794,46.8440744925756 61.92882721545175,46.567850260587875 63.08907788712531,46.2916259157937 63.306624887976795,46.3837007098482 63.52417188882828,46.2916259157937 63.74171888967976,46.3837007098482 64.75693822745234,46.3837007098482 66.78737690206617,46.19955110870069 68.31020590895787,46.3837007098482 69.03536257799715,46.2916259157937 69.25290957884863,46.19955110870069 70.63070725137368,46.47577549167909 71.42837958829477,46.19955110870069 71.93598925694823,46.3837007098482 72.15353625779971,46.2916259157937 72.80617726035416,46.567850260587875 73.96642793202773,46.47577549167909 77.5196956130676,45.83125175576424 78.02730528218672,45.46295220142929 79.04252461949363,45.55502710910514 79.69516562251374,45.370877281646244 82.95837063575163,45.370877281646244 83.82855863915756,45.27880234917393 85.13384064426646,45.27880234917393 85.64145031338558,45.09465244633611 87.96195165626705,45.18672740418697 88.39704565797001,45.002577476145234 89.12220232747495,45.09465244633611 89.62981199659407,45.27880234917393 90.13742166478187,45.46295220142929 90.28245299914852,45.83125175576424 88.17949865711853,45.83125175576424 86.584153983742,46.19955110870069 85.2788719786331,45.92332661297405 84.84377797693014,45.92332661297405 83.61101163830608,45.55502710910514 82.81333930185065,45.55502710910514 82.08818263188004,45.27880234917393 80.6378692924045,45.18672740418697 78.09982094913721,44.818427497695666 76.72202327661216,45.09465244633611 74.2564905998297,45.09465244633611 71.13831692002714,45.55502710910514 68.74529991019517,45.46295220142929 67.07743957033381,45.739176886097994 64.82945389440283,45.647102003975306 60.40599820949137,45.92332661297405 59.753357206471264,45.83125175576424 56.1275738584809,46.19955110870069 54.74977618595585,46.107476289151236 53.44449418084696,46.2916259157937 52.501790510024875,46.107476289151236 50.906445837114006,46.2916259157937 50.39883616799489,46.47577549167909 46.845568486489356,46.75199976086151 43.437332139350474,46.2916259157937 41.76947179902345,46.3837007098482 39.376454789657146,46.19955110870069 36.47582811117172,46.47577549167909 35.02551477169618,46.2916259157937 32.92256042966619,46.659925016982015 30.819606087636203,46.75199976086151 29.87690241727978,47.02822391758673 28.716651745606214,47.1202986111748 27.991495075635612,46.93614921125118 26.54118173662573,47.1202986111748 25.235899731051177,47.02822391758673 24.800805729348212,47.1202986111748 23.423008057288826,46.93614921125118 21.7551477169618,47.02822391758673 21.39256938220933,46.93614921125118 18.927036705426872,46.93614921125118 15.156222023069859,47.21237329219002 14.6486123544164,47.1202986111748 11.747985675930977,47.21237329219002 11.022829005960375,47.30444796057418 10.515219337306917,47.48859726003138 10.22515666950494,47.85689570760587 10.22515666950494,48.13311941147549 10.22515666950494,50.158756447955966 10.297672336455435,51.724017262400594 10.080125336069614,54.11793853825657 9.935094001702964,55.03867522749351 9.935094001702964,55.77526367356768 9.5,61.299651370209176 10.080125336069614,62.956958853348624 10.297672336455435,65.07462359796045 10.22515666950494,67.83678500913084 10.080125336069614,69.12578979507089 10.152641002554446,69.86236285214545 9.935094001702964,71.05929235398071 10.007609668653458,72.62450465071015 9.935094001702964,73.0848605169449 9.935094001702964,73.7293582020211 10.152641002554446,74.4659262302448 10.442703670356423,74.83420994289918 10.805282005108893,74.92628083942691 11.240376007277519,75.47870595561108 11.457923008129,75.93905987334438 12.545658012852073,76.49148415966192 13.270814681891352,77.22804917080794 13.77842435054481,77.41219029808417 15.663831691723317,77.32011974073248 15.88137869304046,77.50426084263017 16.534019695129246,77.32011974073248 16.96911369729787,77.50426084263017 18.20188003592193,77.32011974073248 19.217099373228848,77.50426084263017 22.190241718664765,77.32011974073248 19.07206803932786,77.7804724011803 17.47672336641699,77.59633137466153 17.11414503119886,77.8725428955513 15.37376902392134,77.7804724011803 14.721128021366894,77.68840189429466 11.530438674613833,78.05668384680757 11.312891673762351,78.79324714821996 11.240376007277519,80.08223098987946 11.385407341178507,80.81879207858583 11.240376007277519,83.39674955356168 11.385407341178507,84.59365503111621 11.530438674613833,84.68572459515417 11.312891673762351,85.42228065559175 10.950313339009881,87.72401315864408 11.240376007277519,89.56539350422099 11.167860339861363,92.6036600813386 11.385407341178507,94.81329990288941 11.312891673762351,95.18157250230433 11.240376007277519,95.08950437133899 11.167860339861363,92.69572855177103 11.312891673762351,92.14331754064187 11.240376007277519,90.20987543725641 11.385407341178507,89.38125569600379 11.312891673762351,87.44780567311682 11.530438674613833,85.88262778468197 11.530438674613833,85.0540027259267 11.893017009831965,83.12054029555293 11.965532676782459,81.18707232136512 11.675470008980483,79.8060203740024 11.747985675930977,77.50426084263017 11.530438674613833,76.58355482999468 11.602954341564327,76.30734278116142 11.385407341178507,75.57077676441986 11.240376007277519,71.42757792724296 10.877797672059387,69.77029126411071 10.805282005108893,68.66543122549774 11.09534467337653,67.74471314431867 11.167860339861363,65.90327320917277 11.240376007277519,65.44291243993212 11.09534467337653,65.16669582721079 11.09534467337653,64.43011764041148 10.515219337306917,60.37892323086271 10.515219337306917,59.45819383388152 10.732766338158399,58.997828663967084 10.950313339009881,56.78807147330372 11.022829005960375,54.94660161534557 10.877797672059387,54.11793853825657 10.805282005108893,52.00023938191589 10.732766338158399,51.81609131488949 10.58773500425741,51.171572684077546 10.660250671673566,50.158756447955966 10.58773500425741,48.7776409467333 10.805282005108893,48.409343001956586 11.167860339861363,48.225193954247516 12.400626678485423,48.13311941147549 15.156222023069859,48.31726848450489 15.808863026089966,48.13311941147549 17.404207699000835,48.225193954247516 19.94225604319945,47.948970288038254 23.85810205899179,47.948970288038254 24.9458370632492,47.67274650913896 26.17860340187326,47.580671890755184 26.976275738794357,47.76482111471705 30.021933751180768,47.580671890755184 31.762309757992625,47.85689570760587 33.43017009831965,47.76482111471705 36.62085944460705,47.396522616560105 37.27350044762716,47.580671890755184 38.57878245273605,47.48859726003138 39.08639212138951,47.30444796057418 39.9565801252611,47.21237329219002 40.53670546086505,47.30444796057418 41.26186213083565,47.1202986111748 41.98701880034059,47.30444796057418 42.42211280204356,47.1202986111748 46.91808415390551,46.659925016982015 49.74619516544044,47.396522616560105 50.2538048340939,47.67274650913896 50.76141450321302,47.396522616560105 53.009400178678334,47.21237329219002 54.967323186807334,47.30444796057418 56.34512085933238,47.21237329219002 56.99776186188683,47.30444796057418 58.01298119965941,47.21237329219002 60.33348254254088,47.396522616560105 62.29140555066988,46.567850260587875 63.52417188882828,46.75199976086151 66.64234556863084,46.47577549167909 67.58504923898727,46.75199976086151 69.1078782454133,46.93614921125118 70.70322291832417,46.47577549167909 72.44359892560169,46.3837007098482 73.53133393032476,46.567850260587875 75.56177260540426,46.107476289151236 75.63428827235475,46.19955110870069 75.99686660710722,46.015401457378175 77.08460161136463,46.015401457378175 77.5196956130676,45.647102003975306 78.09982094913721,45.55502710910514 79.33258728729561,45.647102003975306 79.84019695594907,45.83125175576424 80.34780662506819,45.647102003975306 81.21799462800846,45.83125175576424 81.79811996407807,45.55502710910514 83.17591763660312,45.27880234917393 87.88943598931655,45.18672740418697 89.12220232747495,45.27880234917393 89.62981199659407,45.739176886097994 89.12220232747495,45.739176886097994 88.39704565797001,46.015401457378175 87.3093106537126,46.19955110870069 82.95837063575163,46.107476289151236 81.58057296322659,46.19955110870069" stroke="#4DD2FF" stroke-linecap="round" stroke-linejoin="round" stroke-width="0.5"><title>2025-01-29 5.2km</title><desc>13483627664</desc></polyline></svg>