<?xml version="1.0" encoding="utf-8" ?>
<svg baseProfile="full" height="130mm" version="1.1" viewBox="0,0,100,130" width="100mm" xmlns="http://www.w3.org/2000/svg" xmlns:ev="http://www.w3.org/2001/xml-events" xmlns:xlink="http://www.w3.org/1999/xlink"><defs /><rect fill="#222222" height="130" width="100" x="0" y="0" /><text fill="#FFFFFF" style="font-size:6px; font-family:Arial; font-weight:bold;" x="5" y="10">2025-04-14 Workouts</text><text fill="#FFFFFF" style="font-size:4px; font-family:Arial" x="5" y="110">Runner</text><text fill="#FFFFFF" style="font-size:6px; font-family:Arial" x="5" y="120">蓝皮书</text><text fill="#FFFFFF" style="font-size:4px; font-family:Arial" x="30" y="110">STATISTICS</text><text fill="#FFFFFF" style="font-size:3px; font-family:Arial" x="30" y="115">Number: 1</text><text fill="#FFFFFF" style="font-size:3px; font-family:Arial" x="30" y="120">Weekly: 1.0</text><text fill="#FFFFFF" style="font-size:3px; font-family:Arial" x="50" y="115">Total: 7.2 km</text><text fill="#FFFFFF" style="font-size:3px; font-family:Arial" x="50" y="120">Avg: 7.2 km</text><text fill="#FFFFFF" style="font-size:3px; font-family:Arial" x="75" y="115">Min: 7.2 km</text><text fill="#FFFFFF" style="font-size:3px; font-family:Arial" x="75" y="120">Max: 7.2 km</text><polyline fill="none" points="49.1309012863785,60.51075331564061 49.82618025690317,59.62802813202143 47.04506437666714,59.1866654495243 34.87768240272999,58.745302707888186 24.796137338504195,59.1866654495243 16.800429183989763,62.717565218452364 11.933476394042373,70.66207559709437 14.019313305616379,79.93064636341296 20.97210300527513,83.46152347605675 36.26824034191668,84.78560139820911 45.65450643748045,84.34424215159379 68.94635192863643,83.46152347605675 79.72317596524954,82.57880455907434 88.06652360409498,76.84112572739832 86.32832618057728,61.834840637631714 78.68025751039386,57.8625770425424 52.95493561960757,58.30393990618177 42.87339055724442,57.8625770425424 39.74463519267738,58.30393990618177 19.929184548556805,57.8625770425424 10.890557939186692,68.01390764000826 11.238197423517704,79.04792648367584 19.233905578032136,83.90288284420967 52.95493561960757,84.34424215159379 59.56008583679795,83.90288284420967 62.688841201364994,82.57880455907434 79.02789699472487,83.02016404806636 87.71888411976397,77.7238462115638 88.761802572757,64.92437561484985 81.11373390443623,57.8625770425424 75.55150214582682,56.53848809329793 69.29399141483009,56.097124989144504 28.620171673595905,57.8625770425424 12.628755364567041,65.36573751433752 11.933476394042373,76.84112572739832 20.276824032887816,83.02016404806636 40.4399141613394,83.90288284420967 51.21673819795251,83.90288284420967 63.731759656220675,83.46152347605675 75.89914163015783,83.02016404806636 85.28540772385895,79.04792648367584 89.10944205895066,69.77935318555683 84.59012875333428,59.62802813202143 69.98927038535476,55.21439860179089 40.09227467700839,56.97985113761388 28.272532189264894,56.53848809329793 12.28111588023603,64.04165163706057 10.542918452993035,72.42751969676465 15.06223176047206,80.81336600380018 56.77896995656192,82.57880455907434 64.42703862674534,82.13744501164183 84.59012875333428,79.48928645369597 89.10944205895066,70.22071442217566 85.98068669438362,60.95211581722833 80.07081544958055,56.53848809329793 68.94635192863643,56.097124989144504 53.65021459199488,57.42121412046254 36.61587982811034,57.8625770425424 11.585836909711361,64.48301365715452 10.542918452993035,74.6343234651722 15.06223176047206,81.25472573330626 43.56866952776909,83.46152347605675 75.89914163015783,82.57880455907434 85.63304721005261,77.7238462115638 88.41416309028864,68.01390764000826 82.15665235929191,58.745302707888186 77.63733905553818,57.8625770425424 55.388412015512586,57.42121412046254 47.74034334719181,57.8625770425424 29.663090128451586,56.53848809329793 21.319742489606142,57.8625770425424 15.757510729134083,61.834840637631714 11.585836909711361,63.60028955806047 9.5,71.10343671170995 11.585836909711361,78.16520636202767 20.276824032887816,83.02016404806636 47.392703860998154,81.69608540204354 64.07939914055169,81.69608540204354 80.41845493577421,81.69608540204354 88.06652360409498,75.51704455097206 89.10944205895066,66.24846113100648 81.8090128749609,58.30393990618177 69.98927038535476,56.97985113761388 59.56008583679795,57.8625770425424 19.233905578032136,58.745302707888186 11.933476394042373,64.92437561484985 10.890557939186692,75.95840500271879 15.409871246665716,81.69608540204354 26.881974248215556,83.46152347605675 36.963519314303994,83.46152347605675 64.07939914055169,82.57880455907434 73.11802575178444,82.13744501164183 84.93776823952794,77.7238462115638 88.761802572757,69.77935318555683 84.93776823952794,60.06939075444825 75.89914163015783,58.30393990618177 67.20815450511873,57.8625770425424 56.77896995656192,57.8625770425424 47.392703860998154,57.8625770425424 34.530042918398976,58.30393990618177 20.276824032887816,58.745302707888186 11.238197423517704,65.36573751433752 12.628755364567041,79.04792648367584 35.225321888923645,83.90288284420967 50.8690987136215,82.57880455907434 59.212446350604296,82.57880455907434 82.50429184548557,79.93064636341296 88.761802572757,72.86888057063334 89.45708154328167,64.92437561484985 81.11373390443623,56.97985113761388 72.42274678125978,58.745302707888186 58.51716738194227,57.42121412046254 26.186695277690887,56.97985113761388 20.276824032887816,59.1866654495243 12.28111588023603,63.60028955806047 10.542918452993035,75.07568403892219 16.45278969965875,82.57880455907434 20.97210300527513,83.90288284420967 33.83476394787431,83.46152347605675 56.083690986037254,83.46152347605675 64.77467811107635,83.02016404806636 83.89484978467226,79.04792648367584 90.15236051380634,69.33799189026468 84.59012875333428,59.1866654495243 78.3326180242002,56.97985113761388 72.07510729506612,56.53848809329793 61.99356222897768,56.97985113761388 28.967811159789562,56.97985113761388 15.06223176047206,61.39347825781442 10.542918452993035,65.80709935212508 11.933476394042373,77.7238462115638 20.276824032887816,83.46152347605675 42.17811158671975,82.13744501164183 49.47854077257216,82.13744501164183 65.46995708160102,82.57880455907434 75.20386265963316,82.57880455907434 82.50429184548557,80.37200621399097 90.15236051380634,71.10343671170995 89.10944205895066,64.04165163706057 80.07081544958055,56.53848809329793 72.42274678125978,57.42121412046254 63.38412017002702,57.42121412046254 55.040772531181574,56.97985113761388 30.358369098976254,57.42121412046254 26.881974248215556,57.8625770425424 14.714592274278402,60.95211581722833 10.542918452993035,73.31024138489738 18.538626609370112,82.57880455907434 32.79184549301863,82.57880455907434 43.9163090121001,83.02016404806636 58.864806866273284,82.57880455907434 77.98497853986919,81.69608540204354 88.41416309028864,75.95840500271879 88.761802572757,64.48301365715452 80.41845493577421,56.097124989144504 70.33690986968577,55.21439860179089 57.126609440892935,56.53848809329793 51.21673819795251,56.097124989144504 43.56866952776909,57.8625770425424 29.315450644120574,56.97985113761388 22.362660944461823,56.97985113761388 14.714592274278402,60.06939075444825 10.542918452993035,70.22071442217566 14.36695278994739,82.13744501164183 29.315450644120574,83.90288284420967 48.78326180204749,83.90288284420967 54.69313304685056,83.02016404806636 65.12231759540737,83.02016404806636 79.37553648091853,81.69608540204354 88.06652360409498,75.95840500271879 88.06652360409498,64.04165163706057 83.54721030034125,60.51075331564061 77.63733905553818,57.42121412046254 69.64163090102375,57.8625770425424 58.51716738194227,57.42121412046254 53.65021459199488,56.53848809329793 48.08798283338547,56.97985113761388 33.13948497734964,57.42121412046254 17.843347638845444,58.745302707888186 12.976394848898053,60.51075331564061 11.238197423517704,63.60028955806047 11.585836909711361,77.7238462115638 19.929184548556805,83.90288284420967 46.34978540614247,82.57880455907434 58.51716738194227,82.57880455907434 72.42274678125978,80.81336600380018 78.68025751039386,79.93064636341296 83.89484978467226,79.04792648367584 87.37124463543296,75.07568403892219 88.06652360409498,65.36573751433752 83.19957081414759,58.30393990618177 76.24678111448884,56.97985113761388 58.169527895748615,56.097124989144504 52.259656650945544,56.53848809329793 48.435622315853834,57.42121412046254 23.405579397454858,58.745302707888186 15.409871246665716,60.51075331564061 11.238197423517704,68.01390764000826 12.976394848898053,79.93064636341296 22.362660944461823,83.90288284420967 64.77467811107635,82.57880455907434 83.54721030034125,80.37200621399097 90.15236051380634,73.31024138489738 90.15236051380634,65.36573751433752 80.76609442196786,56.53848809329793 64.07939914055169,56.097124989144504 53.65021459199488,56.97985113761388 47.392703860998154,58.745302707888186 36.963519314303994,57.8625770425424 30.010729614645243,58.745302707888186 18.1909871250391,59.62802813202143 11.238197423517704,69.77935318555683 11.933476394042373,76.39976539602503 20.97210300527513,83.02016404806636 24.44849785231054,83.46152347605675 31.748927038162947,83.46152347605675 35.920600859448314,83.02016404806636 45.30686695128679,83.46152347605675 52.6072961371392,82.13744501164183 57.8218884114176,83.46152347605675 68.25107295997441,82.13744501164183 81.11373390443623,80.81336600380018 87.71888411976397,76.84112572739832 89.10944205895066,64.04165163706057 81.46137339062989,57.8625770425424 68.59871244430542,56.53848809329793 53.65021459199488,57.42121412046254" stroke="#4DD2FF" stroke-linecap="round" stroke-linejoin="round" stroke-width="0.5"><title>2025-04-14 7.2km</title><desc>14173499998</desc></polyline></svg>