<?xml version="1.0" encoding="utf-8" ?>
<svg baseProfile="full" height="300mm" version="1.1" viewBox="0,0,200,300" width="200mm" xmlns="http://www.w3.org/2000/svg" xmlns:ev="http://www.w3.org/2001/xml-events" xmlns:xlink="http://www.w3.org/1999/xlink"><defs /><rect fill="#222222" height="300" width="200" x="0" y="0" /><text fill="#FFFFFF" style="font-size:12px; font-family:Arial; font-weight:bold;" x="10" y="20">2025-05-24 Workouts</text><text fill="#FFFFFF" style="font-size:4px; font-family:Arial" x="10" y="280">Runner</text><text fill="#FFFFFF" style="font-size:9px; font-family:Arial" x="10" y="290">tudou</text><text fill="#FFFFFF" style="font-size:4px; font-family:Arial" x="65" y="280">SPECIAL TRACKS</text><rect fill="#FFFF00" height="2.6" width="2.6" x="65" y="283" /><text fill="#FFFFFF" style="font-size:3px; font-family:Arial" x="70" y="285.5">Over 10.0 km</text><rect fill="#FFFF00" height="2.6" width="2.6" x="65" y="287" /><text fill="#FFFFFF" style="font-size:3px; font-family:Arial" x="70" y="289.5">Over 20.0 km</text><text fill="#FFFFFF" style="font-size:4px; font-family:Arial" x="120" y="280">STATISTICS</text><text fill="#FFFFFF" style="font-size:3px; font-family:Arial" x="120" y="285">Number: 1</text><text fill="#FFFFFF" style="font-size:3px; font-family:Arial" x="120" y="290">Weekly: 1.0</text><text fill="#FFFFFF" style="font-size:3px; font-family:Arial" x="141" y="285">Total: 13.7 km</text><text fill="#FFFFFF" style="font-size:3px; font-family:Arial" x="141" y="290">Avg: 13.7 km</text><text fill="#FFFFFF" style="font-size:3px; font-family:Arial" x="167" y="285">Min: 13.7 km</text><text fill="#FFFFFF" style="font-size:3px; font-family:Arial" x="167" y="290">Max: 13.7 km</text><polyline fill="none" points="35.434045226313174,108.47332014638232 37.7236180906184,108.01440267305588 40.67462311545387,107.94884299690602 41.946608040248975,107.42436525208177 43.57474874379113,107.3588054922584 47.441582914674655,106.70320738147711 49.06972361821681,106.5065277669928 49.57851758808829,106.63764751935378 51.81721105542965,106.17872822342906 54.76821608049795,105.32644832241931 57.82097989949398,105.12976812219131 58.43153266329318,105.58868845936377 58.63505025138147,106.63764751935378 58.889447236200795,112.27576168507221 59.29648241214454,112.9313518924755 60.05967336683534,113.25914664773154 61.331658291397616,112.73467492792406 63.1124371860642,110.3745448255213 64.38442211039364,109.32559424542706 68.91268844227307,106.5065277669928 73.03391959820874,103.49076319870073 73.74623115570284,103.22852187184617 74.71293969848193,103.94968516312656 74.71293969848193,109.19447525555734 74.40766331646591,109.8500698330754 74.81469849264249,111.68572970325476 74.81469849264249,114.83255823657964 75.37437185947783,118.04492360187578 76.1375628139358,119.88055093114963 77.96922110556625,120.27389869626495 78.57977386936545,120.14278281177394 81.98869346734136,120.53613035357557 92.52072864328511,122.76509343611542 95.77701005036943,123.02732368023135 96.33668341720477,122.5684206551814 97.25251256301999,123.0928812182101 100.96670854277909,123.0928812182101 101.37374371849,123.22399626596598 102.39133165823296,122.96176613305579 102.74748743721284,123.35511127652717 104.42650753771886,123.02732368023135 105.54585427138954,123.28955377583043 105.54585427138954,125.38738918537274 105.08793969848193,127.22298735921504 105.29145728633739,132.33640098333126 104.88442211062647,138.03975714792614 104.93530150759034,143.28416049003135 104.68090452253819,143.80859755226993 104.93530150759034,144.0708158602938 104.98618090432137,145.64412258492666 104.68090452253819,146.16855696996208 104.52826633164659,147.54519440053264 104.83354271366261,149.05293545432505 105.13881909567863,149.64291974555817 105.03706030151807,151.15065395846614 105.29145728633739,151.67508209712105 107.07223618100397,152.1995096410683 107.02135678380728,154.0350013601419 107.58103015087545,157.90262077061925 109.10741206025705,163.8023168745276 110.68467336683534,166.62103399203625 112.05841708532535,168.12871283802087 112.92336683440953,170.02969220161322 116.58668341720477,175.92923356356914 120.14824120607227,181.50095350915217 121.26758793974295,181.69760122173466 121.36934673367068,181.36985498756985 122.08165829139762,181.43540425310493 123.8624371860642,180.71436182246543 124.11683417088352,180.7799111806671 124.4729899498634,181.95979804178933 125.38881909567863,182.35309299308574 125.999371859245,182.22199471318163 126.55904522608034,181.89424885076005 127.06783919595182,180.58326307788957 128.13630653265864,180.18996662113932 130.5276381908916,178.4856781096605 131.64698492456228,178.28902903091512 134.54711055243388,178.4856781096605 137.0910804020241,179.27227358781965 138.4648241205141,180.18996662113932 140.6526381908916,182.87748574092984 141.41582914581522,186.15492694155546 142.78957286430523,186.2860241063463 144.72298994963057,189.36679677912616 145.02826633141376,197.7568821142777 145.33354271342978,198.60899164021248 154.64447236177512,198.60899164021248 155.000628140755,197.42914726294111 154.59359296457842,194.4139757331286 154.84798994963057,193.88959606867866 154.64447236177512,189.56344114636886 155.50942211062647,189.17015232809354 158.51130653265864,189.0390559810039 161.0552763817832,189.10460415901616 161.81846733670682,189.694537344767 161.81846733670682,191.20214095484698 161.10615577874705,195.79046952276258 161.10615577874705,197.36360026491457 161.51319095445797,198.8711788704968 162.63253768836148,198.60899164021248 170.36620603036135,198.8711788704968 171.73994974861853,198.2812573928677 171.6381909546908,194.93835480281268 171.73994974861853,190.28446977760177 172.24874371872284,188.77686317526968 175.4032663316466,186.5482183242857 177.2349246230442,184.51620924525196 178.30339195975102,183.79517161895637 178.30339195975102,184.51620924525196 178.45603015087545,184.77840446683695 179.2701005025301,184.8439532488992 181.0,185.6960865718429 180.28768844204023,185.56498923993786 179.62625628151,185.04059953981778 178.8121859296225,184.9750507856079 178.2016331658233,183.66407374784467 178.76130653265864,181.95979804178933 179.21922110556625,179.0756248436519 178.6086683415342,176.1914336545451 177.3875628139358,173.43832528137136 175.14886934659444,171.3407078985183 172.6048994974699,169.70193769666366 170.92587939696386,169.04642798932036 171.07851758785546,169.24308099897462 168.33103015087545,168.45646845828742 161.81846733670682,167.27654713776428 159.07097989949398,167.0143419909873 156.5270100501366,167.27654713776428 154.59359296457842,167.21099586511264 154.28831658279523,167.40764965544804 153.01633165823296,167.21099586511264 150.37060301494785,167.93205935441074 148.69158291444182,168.12871283802087 147.06344221089967,168.8497748959926 145.33354271342978,168.9153259365412 143.1457286432851,169.4397339252755 141.7211055275984,169.89859042750322 140.44912060303614,170.42299730109517 138.26130653265864,170.09524307466927 137.29459799011238,170.3574464743433 134.19095477391966,170.02969220161322 131.29082914581522,169.17753000516677 130.5785175880883,168.71867278727586 129.25565326632932,168.6531217188749 128.6451005025301,168.71867278727586 128.6451005025301,169.8330395265657 127.83103015087545,171.20960649609333 127.78015075367875,172.192866108031 128.23806532658637,173.0450227468973 128.7977386934217,173.5038756711583 130.12060301494785,173.63497642311268 130.88379396987148,173.24167405604385 131.49434673343785,172.3239672317577 131.49434673343785,171.20960649609333 131.08731155772693,170.3574464743433 130.375,169.8330395265657 129.6118090453092,169.70193769666366 127.98366834176704,170.55409892639727 127.62751256278716,171.9306637493719 128.03454773849808,172.8483713544847 128.89949748734944,173.56942605180666 130.27324120607227,173.63497642311268 131.29082914581522,172.91392182794516 131.69786432152614,171.60291059192969 131.08731155772693,170.29189563848195 130.47675879416056,169.8330395265657 129.51005025114864,169.57083582950872 128.4924623114057,170.09524307466927 127.88190954783931,170.88185282752966 127.83103015087545,172.3239672317577 128.6451005025301,173.5038756711583 129.71356783923693,173.76607713793055 131.1381909546908,173.11057319268002 131.5961055275984,172.38951777966577 131.69786432152614,171.53735993258306 131.03643216076307,170.22634479327826 130.42587939696386,169.76748861628585 129.25565326632932,169.50528488191776 128.89949748734944,168.71867278727586 128.6451005025301,168.58757064139354 126.25376884406433,170.22634479327826 124.6765075379517,172.38951777966577 123.55716080381535,173.43832528137136 121.16582914581522,176.32253364438657 119.84296482405625,176.9124831384106 119.18153266306035,176.1914336545451 117.96042713569477,174.02827845563297 117.75690954760648,172.5206188473676 118.01130653265864,170.88185282752966 118.6727386934217,169.63638676761184 120.45351758808829,168.06316168615012 120.4026381908916,167.47320090030553 119.79208542709239,167.27654713776428 118.92713567824103,167.60430336234276 116.0270100501366,169.63638676761184 114.80590452277102,170.61964972529677 113.99183417065069,171.4718092637777 112.2110552766826,168.71867278727586 110.27763819112442,170.55409892639727 110.07412060303614,171.20960649609333 108.90389447216876,171.79956251420663 107.12311557796784,173.3727748823003 103.40891959820874,175.66703332349425 94.8611809045542,181.95979804178933 88.04334170860238,186.67931537760887 83.10804020124488,190.21892176676192 82.03957286430523,191.2676888263377 80.5131909546908,192.31645350749022 79.80087939696386,192.51309662027052 79.64824120607227,192.97193022505962 78.9868090453092,193.16857305908343 74.40766331646591,196.70812977285823 71.8128140703775,198.34680426094565 66.87751256278716,202.4762382147601 65.9108040202409,202.80396948871203 62.14572864328511,205.62244885606924 61.12814070377499,206.2779067119991 59.85615577921271,206.6056352913438 57.61746231163852,203.5249774735712 57.363065326819196,203.45943133969558 57.3121859296225,202.8695157157199 55.378768844064325,200.90312486639596 55.22613065340556,200.31320598107413 53.85238693468273,198.54344480921282 52.37688442226499,196.90477101801662 51.76633165823296,195.79046952276258 50.69786432175897,194.3484283075377 49.985552763799205,193.95514355934574 49.27324120607227,192.97193022505962 48.91708542732522,192.90638259518892 48.662688442273065,191.98871480024536 48.103015075437725,191.2676888263377 48.001256281509995,190.4811137546494 47.441582914674655,190.21892176676192 47.03454773873091,189.56344114636886 45.71168341720477,188.38357368815923 41.59045226126909,182.87748574092984 40.21670854277909,181.43540425310493 40.21670854277909,180.386614891293 39.65703517617658,180.18996662113932 38.18153266352601,178.55122778390069 35.5358040202409,174.94598189721 35.230527638457716,174.22492934664479 32.17776381922886,171.0785050567647 30.34610552783124,168.12871283802087 28.66708542732522,166.22772565839114 28.26005025114864,165.17890179969254 27.751256281509995,164.52338567987317 27.03894472378306,164.06452384302975 26.733668341767043,163.21235065188375 25.665201005060226,161.63910371100064 23.579145728843287,158.95146113584633 22.917713568080217,158.4270412506885 22.561557789100334,157.5748576685146 21.74748743721284,156.85377802615403 19.10175879416056,153.31391619687201 19.305276382016018,150.03624218824552 19.0,146.16855696996208 19.305276382016018,142.16972975753015 19.152638191124424,136.92531377309933 19.508793970104307,134.43419533924316 19.356155779212713,131.15638747470803 19.66143216076307,128.73079469247023 19.407035175943747,125.32183197277482 19.712311557959765,124.40403002226958 19.407035175943747,118.50383111761766 20.170226130634546,114.96367562710657 20.170226130634546,111.816847986629 20.373743718722835,110.96457848075079 20.831658291630447,110.3745448255213 21.594849246321246,110.50566348060966 23.222989949863404,110.11230740355677 23.782663316698745,110.30898548403638 24.59673366858624,109.98118863682612 28.870603015180677,109.71895099189715 29.379396985284984,109.39115372646484 31.821608040481806,109.06335622843471 32.33040201012045,109.39115372646484 33.29711055313237,108.73555849803961 34.61997487465851,108.86667761820718 35.332286432152614,108.53887974831741 35.94283919618465,108.60443934085197 36.24811557796784,108.34220091471798 38.02889447240159,108.34220091471798 38.99560301494785,108.40776053530863 44.94849246251397,107.1621261567343 47.238065326819196,106.76876723449095 47.74685929645784,106.89988691225881 49.01884422102012,106.5720876477717 49.68027638201602,106.04760834114859 53.14007537695579,105.98204838577658 53.69974874379113,105.7198084720294 54.259422110626474,105.85092844764586 56.243718593148515,105.26088826509658 56.65075376909226,105.45756840964896 57.9736180906184,105.26088826509658 58.48241206048988,105.58868845936377 58.43153266329318,107.75216391225695 58.94032663339749,111.42349302527145 58.7368090453092,114.50476459707716 57.77010050253011,116.07817194616655 55.73492462327704,118.43827292890637 54.31030150782317,120.92947756094509 52.9874371860642,122.43730542142293 51.46105527644977,123.87957094697049 51.66457286430523,123.48622624980635 53.90326633164659,122.04395949727041 54.20854271366261,122.50286304301699 54.97173366835341,122.76509343611542 55.42964824126102,123.28955377583043 55.42964824126102,131.22194385970943 55.022613065550104,134.3030834707024 55.124371859245,136.66309141225065 55.582286432152614,135.61420048112632 55.63316582911648,130.3041536231176 55.98932160809636,129.32080491888337 55.73492462327704,128.07522689102916 55.88756281416863,125.38738918537274 55.53140703542158,121.78172869511764 56.09108040179126,119.81499293760862 60.61934673367068,114.2425295181747 62.65452261315659,110.70234139374224 64.74057788960636,109.1289157467254 67.89510050253011,107.3588054922584 68.50565326632932,106.76876723449095 71.45665829139762,105.0642080369289 71.76193467341363,104.60528717911802 73.39007537695579,103.16296151673305 73.1865577888675,102.90072000367218 72.77952261315659,102.90072000367218 72.47424623114057,103.29408221747144 71.40577889466658,104.14636586562847 69.31972361798398,105.52312843917753 68.81092964834534,105.65424847049871 67.64070351771079,106.5720876477717 66.92839195998386,106.76876723449095 65.85992462304421,107.817723616492 63.519472361775115,109.19447525555734 62.55276381922886,110.04674802493537 61.636934673413634,111.42349302527145 60.82286432175897,112.27576168507221 60.41582914581522,112.21020261326339 59.5,111.22681541912607 59.70351758808829,109.45671319810208 60.16143216076307,109.58783211361151 60.212311557726935,109.06335622843471 59.5,106.96544673742028 59.29648241214454,104.73640747077297 60.314070351887494,101.13058589934371 61.22989949746989,97.00024662801297 61.99309045239352,97.32805268032826 62.04396984935738,97.91810298897326 61.94221105519682,97.78698076316505 62.65452261315659,97.19693028740585 63.26507537695579,95.88570431113476 62.70540201012045,94.57447461536503 62.298366834409535,94.50891303279786 61.89133165823296,94.90228238794953 61.99309045239352,95.75458150892518 61.535175879485905,96.60687905838131 61.433417085325345,98.24590839026496 61.636934673413634,98.77039654913824 62.400125628337264,99.09820134620531 62.4510050250683,99.3604450164712 63.92650753771886,98.96707945535309 64.84233668353409,98.96707945535309 65.35113065340556,99.2948841129255 66.21608040202409,98.11478625767631 66.92839195998386,97.78698076316505 67.4371859296225,97.91810298897326 68.0477386934217,97.32805268032826 67.13190954760648,96.54131776414579 66.11432160786353,96.41019514788059 64.84233668353409,95.36121287912829 63.36683417088352,94.37778983998578 62.196608040248975,93.85329669693601 61.99309045239352,94.18110498119495 60.9246231156867,93.39436470868532 60.51758793974295,93.78773501233081 60.51758793974295,94.64003618838615 58.17713567847386,104.40860667184461 58.27889447240159,106.11316828694544 58.126256281509995,105.45756840964896 57.71922110579908,105.26088826509658 54.61557788960636,105.7198084720294" stroke="#FFFF00" stroke-linecap="round" stroke-linejoin="round" stroke-width="0.5"><title>2025-05-24 13.7km</title><desc>14574391100</desc></polyline></svg>