<?xml version="1.0" encoding="utf-8" ?>
<svg baseProfile="full" height="130mm" version="1.1" viewBox="0,0,100,130" width="100mm" xmlns="http://www.w3.org/2000/svg" xmlns:ev="http://www.w3.org/2001/xml-events" xmlns:xlink="http://www.w3.org/1999/xlink"><defs /><rect fill="#222222" height="130" width="100" x="0" y="0" /><text fill="#FFFFFF" style="font-size:6px; font-family:Arial; font-weight:bold;" x="5" y="10">2025-01-11 Workouts</text><text fill="#FFFFFF" style="font-size:4px; font-family:Arial" x="5" y="121">Runner</text><text fill="#FFFFFF" style="font-size:6px; font-family:Arial" x="2" y="128">蓝皮书</text><text fill="#FFFFFF" style="font-size:4px; font-family:Arial" x="25" y="121">STATISTICS</text><text fill="#FFFFFF" style="font-size:3px; font-family:Arial" x="25" y="125">Number: 1</text><text fill="#FFFFFF" style="font-size:3px; font-family:Arial" x="25" y="129">Weekly: 1.0</text><text fill="#FFFFFF" style="font-size:3px; font-family:Arial" x="48" y="125">Total: 5.7 km</text><text fill="#FFFFFF" style="font-size:3px; font-family:Arial" x="48" y="129">Avg: 5.7 km</text><text fill="#FFFFFF" style="font-size:3px; font-family:Arial" x="75" y="125">Min: 5.7 km</text><text fill="#FFFFFF" style="font-size:3px; font-family:Arial" x="75" y="129">Max: 5.7 km</text><polyline fill="none" points="10.567295245360583,110.5 12.194268948864192,108.73442235373659 13.906872847117484,106.96884070010856 15.533846550155431,104.65150869812351 16.989559863694012,103.10661686147796 18.35964298248291,101.56172195606632 20.414767660200596,98.91332355176564 20.842918634414673,98.36157274909783 22.555522532202303,96.9270188305527 23.41182448156178,96.26491612952668 24.696277405600995,94.83035834442126 25.638209549244493,93.61649969074642 26.49451149813831,93.06474513089051 27.52207383699715,91.63018144358648 29.5771985151805,89.53350667963969 32.402994946576655,86.33330798620591 35.485681963618845,83.57450544129824 36.25635371776298,82.80203897535102 38.05458781076595,80.15357669565128 42.935508920345455,74.41521082044346 44.39122223388404,72.64955126453424 46.53197710681707,69.89070018462371 48.158950809855014,68.01467586070066 50.299705682788044,65.47651810228126 52.697351139970124,62.71764157927828 54.4955852329731,60.95195546885952 55.0949965971522,60.06911091046641 55.95129854651168,59.627688255452085 56.122558936011046,59.40697683417238 57.064491080120206,58.08270699024433 57.749532639048994,56.75843489158433 58.948355368338525,56.09629799699178 61.346000825986266,53.99952744477196 65.71314076613635,50.468111632275395 68.71019758749753,49.36454090237385 70.59406187525019,48.48168319131946 71.8785147992894,47.92989661282627 71.8785147992894,46.60560722759692 72.13540538353845,45.83310404489748 73.33422811282799,44.950242324965075 74.87557162065059,45.06060009484645 73.76237908750772,45.72274638450472 74.10489986650646,45.17095784889534 75.04683201061562,45.17095784889534 75.21809240058064,43.51558989286423 75.30372259533033,43.40523190400563 75.98876415472478,42.96379979129415 76.07439434994012,42.96379979129415 76.24565473943949,42.19129299139604 75.81750376475975,41.86021841375623 75.64624337526038,41.087710517807864 75.9031339599751,41.97057662194129 75.98876415472478,41.97057662194129 77.27321707829833,41.97057662194129 77.8726284429431,41.52914369496284 81.72598721366376,40.2048434112221 83.43859111145139,39.54269242391456 86.52127812849358,38.880540872574784 88.91892358567566,37.887312488572206 89.09018397564068,34.68690128996968 89.26144436514005,34.024745604489 88.14825183153152,31.927915548265446 86.60690832324326,30.382879258075263 85.57934598391876,29.941439754446037 81.55472682369873,30.934678285673726 80.09901351062581,31.045038044045214 78.90019078180194,30.934678285673726 77.01632649311796,31.596836601791438 75.81750376475975,32.36935392493615 74.7899414259009,32.590073018858675 74.01926967222244,32.81079205055721 73.33422811282799,33.362589355383534 72.30666577396914,35.680133760964964 74.36179045122117,40.425560281728394 75.47498298529536,41.639501950354315 77.4444774677977,41.639501950354315 78.55767000187188,40.866993835021276 79.4139719507657,40.97735218418529 80.18464370490983,40.75663547008298 81.98287779837847,40.53591869340744 82.66791935730726,40.315201854507904 83.95237228134647,39.873767987883184 86.6925385184586,39.101258118695114 89.09018397564068,37.55623607861344 89.004553780891,36.78372390754521 88.57640280621126,34.024745604489 88.31951222149655,33.14187048061285 86.86379890795797,30.60359891608823 85.23682520492002,29.831079839146696 80.44153428962454,31.155397786875255 74.96120181586593,32.590073018858675 73.84800928225741,32.700432542711496 72.39229596825317,35.23869726364501 73.59111869707704,38.99089950340567 75.64624337526038,41.52914369496284 77.8726284429431,41.52914369496284 80.01338331541047,40.866993835021276 82.32539857830852,39.98412647790974 83.95237228134647,40.09448495256947 86.35001773852855,39.32197530241683 87.20631968788803,38.880540872574784 89.26144436514005,37.55623607861344 88.83329339092597,33.69366755057126 87.80573105160147,32.36935392493615 87.03505929745734,30.824318511411548 85.6649761791341,29.5 83.096070331987,30.16215953772189 80.61279467958957,31.155397786875255 79.32834175601602,31.707196266390383 77.95825863722712,31.376117225852795 76.5025453241542,32.03827516606543 75.30372259533033,32.258994354109745 73.93363947700709,32.92115154291969 72.99170733289793,33.47294876957312 72.8204469429329,37.11480064620264 73.59111869707704,38.77018222596962 74.70431123115122,40.425560281728394 75.73187357001007,41.41878542432096 76.75943590886891,41.74986019002972 78.38640961237252,41.41878542432096 79.49960214598104,41.087710517807864 81.98287779837847,40.53591869340744 82.58228916255757,39.98412647790974 83.26733072195202,39.43233387102373 85.15119500970468,39.21161671850132 88.14825183153152,38.77018222596962 88.66203300096095,37.99767126038205 89.004553780891,35.01797892112518 87.89136124681681,32.148634768032935 87.12068949267268,30.934678285673726 87.12068949267268,30.934678285673726 85.49371578916907,30.051799653854687 83.78111189138144,30.60359891608823 81.55472682369873,31.045038044045214 78.38640961237252,31.707196266390383 77.27321707829833,32.148634768032935 74.70431123115122,32.81079205055721 72.90607713768259,34.57654204842402 72.5635563582182,35.79049284599023 73.41985830757767,38.659823563473765 74.61868103593588,40.315201854507904 75.98876415472478,41.97057662194129 78.72893039137125,41.198068835481536 79.49960214598104,41.52914369496284 80.69842487480491,40.866993835021276 82.83917974727228,40.2048434112221 84.80867423024029,39.32197530241683 87.37758007738739,38.880540872574784 88.14825183153152,38.54946488520363 88.83329339092597,37.6665948976879 89.09018397564068,35.128338100446854 88.40514241624624,33.25222992582712 87.6344706621021,31.48647692159284 86.52127812849358,30.493239094794262 85.75060637388378,30.051799653854687 82.7535495525226,30.60359891608823 80.95531545905396,31.155397786875255 79.58523234073073,30.824318511411548 77.70136805297807,31.48647692159284 76.67380571365356,31.707196266390383 73.41985830757767,33.25222992582712 72.2210355787538,34.46618279075483 72.5635563582182,35.680133760964964 72.8204469429329,36.673364963557106 73.07733752764761,37.887312488572206 73.59111869707704,39.43233387102373 75.38935279054567,41.639501950354315 77.95825863722712,41.52914369496284 79.32834175601602,40.97735218418529 81.81161740841344,40.425560281728394 83.26733072195202,39.873767987883184 87.37758007738739,38.880540872574784 88.23388202628121,38.2183887573774 89.09018397564068,36.89408283634111 88.83329339092597,34.135104924440384 87.6344706621021,32.03827516606543 86.52127812849358,30.493239094794262 83.6954816961661,30.493239094794262 81.21220604376867,30.934678285673726 79.24271156080067,30.934678285673726 77.4444774677977,31.707196266390383 76.33128493418917,32.148634768032935 73.59111869707704,33.14187048061285 72.73481674818322,33.91438626870513 73.24859791761264,39.32197530241683 76.24565473943949,41.74986019002972 77.35884727304801,41.198068835481536 83.52422130620107,39.873767987883184 84.20926286606118,39.32197530241683 86.09312715381384,38.880540872574784 88.31951222149655,38.328747482271865 89.26144436514005,36.78372390754521 88.31951222149655,32.700432542711496 87.29194988217205,30.493239094794262 84.12363267084584,30.16215953772189 83.26733072195202,30.382879258075263 81.55472682369873,30.934678285673726 79.58523234073073,31.155397786875255 76.24565473943949,32.03827516606543 73.24859791761264,33.03151101944968 72.47792616346851,34.35582351783523 72.47792616346851,35.45941554364981 72.8204469429329,37.225159527675714 74.61868103593588,40.425560281728394 76.84506610361859,41.639501950354315 77.8726284429431,40.97735218418529 79.58523234073073,40.866993835021276 81.04094565426931,40.425560281728394 84.38052325556055,39.54269242391456 86.00749695906416,38.99089950340567 87.20631968788803,38.77018222596962 89.09018397564068,37.55623607861344 89.004553780891,35.23869726364501 88.66203300096095,32.92115154291969 87.6344706621021,31.155397786875255 85.49371578916907,29.941439754446037 82.7535495525226,30.60359891608823 80.35590409534052,31.26575751416385 73.76237908750772,33.362589355383534 72.5635563582182,34.797260515915696 73.16296772286296,38.659823563473765 75.21809240058064,40.866993835021276 76.24565473943949,41.74986019002972 77.27321707829833,41.41878542432096 80.18464370490983,40.75663547008298 85.75060637388378,39.21161671850132 88.06262163678184,38.10803001682507 89.09018397564068,35.34905641130172 88.40514241624624,32.700432542711496 87.80573105160147,31.155397786875255 86.77816871274263,30.16215953772189 85.32245539920405,29.941439754446037 81.89724760316312,30.60359891608823 79.49960214598104,31.26575751416385 77.4444774677977,31.376117225852795 76.58817551890388,32.148634768032935" stroke="#4DD2FF" stroke-linecap="round" stroke-linejoin="round" stroke-width="0.5"><title>2025-01-11 5.7km</title><desc>13322275327</desc></polyline></svg>