<?xml version="1.0" encoding="utf-8" ?>
<svg baseProfile="full" height="130mm" version="1.1" viewBox="0,0,100,130" width="100mm" xmlns="http://www.w3.org/2000/svg" xmlns:ev="http://www.w3.org/2001/xml-events" xmlns:xlink="http://www.w3.org/1999/xlink"><defs /><rect fill="#222222" height="130" width="100" x="0" y="0" /><text fill="#FFFFFF" style="font-size:6px; font-family:Arial; font-weight:bold;" x="5" y="10">2025-01-25 Workouts</text><text fill="#FFFFFF" style="font-size:4px; font-family:Arial" x="5" y="121">Runner</text><text fill="#FFFFFF" style="font-size:6px; font-family:Arial" x="2" y="128">蓝皮书</text><text fill="#FFFFFF" style="font-size:4px; font-family:Arial" x="25" y="121">STATISTICS</text><text fill="#FFFFFF" style="font-size:3px; font-family:Arial" x="25" y="125">Number: 1</text><text fill="#FFFFFF" style="font-size:3px; font-family:Arial" x="25" y="129">Weekly: 1.0</text><text fill="#FFFFFF" style="font-size:3px; font-family:Arial" x="48" y="125">Total: 12.3 km</text><text fill="#FFFFFF" style="font-size:3px; font-family:Arial" x="48" y="129">Avg: 12.3 km</text><text fill="#FFFFFF" style="font-size:3px; font-family:Arial" x="75" y="125">Min: 12.3 km</text><text fill="#FFFFFF" style="font-size:3px; font-family:Arial" x="75" y="129">Max: 12.3 km</text><polyline fill="none" points="80.37499999813735,56.07414728566073 19.624999998137355,58.645085784373805 15.912499997764826,60.359043614938855 12.874999998137355,65.0724228208419 11.187499998137355,74.07067255792208 14.899999998509884,81.78343751421198 23.674999998882413,84.78284099022858 43.587499998509884,82.21192390075885 53.037499997764826,83.92586886021309 80.37499999813735,82.21192390075885 88.81249999813735,75.78462196397595 90.5,68.928818724351 88.81249999813735,61.64451137231663 85.77500000037253,58.216596179874614 78.68749999813735,56.07414728566073 20.637499999254942,58.216596179874614 15.574999999254942,61.21602217829786 10.849999999627471,72.78520988905802 14.899999998509884,81.35495106969029 21.649999998509884,84.35435495502315 29.412499997764826,83.06889649690129 39.537499997764826,83.92586886021309 53.712499998509884,83.06889649690129 63.5,80.49797800485976 67.55000000074506,81.78343751421198 78.34999999962747,81.78343751421198 86.11249999701977,78.35554431728087 88.81249999813735,73.2136975035537 89.48749999701977,65.92940009688027 85.43749999813735,58.645085784373805 77.33749999664724,56.07414728566073 51.349999997764826,57.788106518564746 38.52500000037253,56.502637181431055 33.462499998509884,57.788106518564746 20.97499999962747,57.359616798348725 14.224999999627471,62.073000508826226 10.174999998882413,69.35730686504394 12.199999999254942,78.35554431728087 18.949999999254942,83.92586886021309 37.17499999888241,84.35435495502315 42.23749999888241,82.64041022839956 52.69999999925494,83.92586886021309 60.462499998509884,81.78343751421198 66.875,83.06889649690129 79.02500000037253,81.78343751421198 85.77500000037253,78.35554431728087 89.48749999701977,72.35672221565619 87.79999999888241,61.21602217829786 83.0749999973923,56.93112701829523 75.64999999850988,55.217167316470295 67.21249999850988,55.64565733005293 62.48749999888241,57.359616798348725 24.012499999254942,56.502637181431055 13.549999998882413,62.92997860396281 10.512499999254942,69.35730686504394 12.199999999254942,77.49857043428347 17.59999999962747,83.49738270859234 56.07499999925494,82.64041022839956 62.8249999973923,80.92646456556395 64.51249999925494,82.21192390075885 80.03749999776483,81.35495106969029 84.08749999850988,79.64100470556878 88.81249999813735,73.2136975035537 88.81249999813735,62.92997860396281 85.09999999962747,57.359616798348725 81.72499999962747,56.502637181431055 76.32499999925494,55.217167316470295 46.624999998137355,57.788106518564746 22.662499997764826,57.359616798348725 17.937499998137355,58.645085784373805 12.537499999627471,63.3584675649181 10.512499999254942,71.07125884504057 12.537499999627471,79.21251796837896 20.637499999254942,84.35435495502315 36.499999998137355,83.92586886021309 39.874999998137355,82.21192390075885 50.67499999888241,83.49738270859234 79.69999999925494,81.35495106969029 86.11249999701977,77.92705740500242 90.16249999776483,69.35730686504394 89.14999999850988,63.786956465570256 86.11249999701977,59.073575330199674 79.36249999701977,55.217167316470295 65.18749999813735,56.93112701829523 46.624999998137355,57.788106518564746 20.637499999254942,57.359616798348725 12.874999998137355,63.786956465570256 10.174999998882413,71.07125884504057 11.862499998882413,78.35554431728087 19.28749999962747,83.49738270859234 32.44999999925494,83.92586886021309 43.92499999888241,81.78343751421198 79.69999999925494,81.35495106969029 86.44999999925494,77.0700834041927 89.82499999925494,70.64277093834244 88.81249999813735,63.786956465570256 85.43749999813735,58.645085784373805 79.02500000037253,56.07414728566073 61.47499999962747,57.359616798348725 42.5749999973923,56.502637181431055 22.662499997764826,57.788106518564746 14.5625,62.073000508826226 11.187499998137355,71.07125884504057 12.874999998137355,78.784031172283 19.624999998137355,83.06889649690129 81.05000000074506,81.35495106969029 86.11249999701977,77.49857043428347 89.48749999701977,71.07125884504057 87.79999999888241,61.21602217829786 79.36249999701977,55.217167316470295 63.837499998509884,55.217167316470295 44.937499998137355,57.359616798348725 20.637499999254942,57.359616798348725 12.199999999254942,63.3584675649181 9.837499996647239,71.07125884504057 11.187499998137355,77.92705740500242 14.899999998509884,81.35495106969029 20.637499999254942,83.92586886021309 44.26249999925494,82.21192390075885 79.36249999701977,82.21192390075885 87.125,76.6415963161271 89.14999999850988,73.64218506077304 89.48749999701977,68.5003305238206 86.11249999701977,59.073575330199674 78.68749999813735,55.64565733005293 63.5,56.93112701829523 55.73749999888241,56.07414728566073 47.6374999973923,57.359616798348725 19.624999998137355,57.359616798348725 13.549999998882413,61.64451137231663 10.174999998882413,73.64218506077304 14.224999999627471,80.49797800485976 20.97499999962747,83.92586886021309 39.874999998137355,80.92646456556395 50.67499999888241,82.64041022839956 70.58749999850988,80.92646456556395 80.03749999776483,81.78343751421198 88.47499999962747,74.92764737806283 89.82499999925494,66.3578886478208 88.81249999813735,60.78753292537294 84.42499999888241,56.502637181431055 78.68749999813735,54.36018711538054 50.0,57.788106518564746 20.637499999254942,57.359616798348725 13.212499998509884,61.64451137231663 9.5,72.78520988905802 14.5625,80.92646456556395 21.649999998509884,83.49738270859234 66.875,80.92646456556395 77.67499999888241,81.78343751421198 86.78749999776483,77.0700834041927 89.48749999701977,70.64277093834244 89.14999999850988,64.6439340938814 80.03749999776483,56.07414728566073 68.22499999962747,55.64565733005293 50.0,57.788106518564746 19.962499998509884,56.93112701829523 14.224999999627471,60.78753292537294 10.174999998882413,70.64277093834244 10.849999999627471,74.92764737806283 14.899999998509884,80.49797800485976 21.649999998509884,83.49738270859234 31.09999999962747,83.06889649690129 34.13749999925494,81.35495106969029 57.42499999888241,82.21192390075885 79.69999999925494,80.49797800485976 87.125,76.6415963161271 89.48749999701977,70.21428297203965 85.43749999813735,59.50206481665373 78.34999999962747,55.217167316470295 19.962499998509884,57.788106518564746 11.862499998882413,62.073000508826226 9.5,70.64277093834244 12.199999999254942,77.0700834041927 15.237499998882413,80.06949138408527 22.324999997392297,82.64041022839956 78.68749999813735,81.35495106969029 85.09999999962747,77.49857043428347 89.48749999701977,70.64277093834244 87.125,59.930554245365784 78.68749999813735,54.788677245378494 38.52500000037253,58.216596179874614 19.28749999962747,57.359616798348725 12.199999999254942,63.786956465570256 10.512499999254942,70.64277093834244 14.224999999627471,77.49857043428347 21.987499998882413,82.21192390075885 63.162499997764826,81.78343751421198 70.92499999888241,79.64100470556878 79.69999999925494,80.06949138408527 86.44999999925494,76.21310917008668 88.81249999813735,70.64277093834244 88.81249999813735,65.50091148796491 83.41249999776483,57.359616798348725 77.33749999664724,55.64565733005293 52.02500000037253,57.359616798348725 47.6374999973923,56.07414728566073 19.624999998137355,57.359616798348725 13.212499998509884,61.21602217829786 9.837499996647239,68.5003305238206 11.862499998882413,75.35613469989039 18.612499998882413,82.64041022839956 49.662499997764826,80.92646456556395 80.03749999776483,80.06949138408527 86.44999999925494,75.78462196397595 89.82499999925494,67.64335394860245 87.46249999850988,61.21602217829786 82.39999999850988,56.07414728566073 78.68749999813735,55.64565733005293 75.64999999850988,56.93112701829523 66.875,55.64565733005293 52.02500000037253,57.359616798348725 30.087499998509884,56.93112701829523 17.262499999254942,61.21602217829786 11.862499998882413,70.21428297203965 15.237499998882413,80.06949138408527 22.324999997392297,83.92586886021309 32.44999999925494,83.06889649690129 80.03749999776483,82.21192390075885 87.46249999850988,77.0700834041927 90.5,69.35730686504394 87.125,62.073000508826226 81.72499999962747,58.216596179874614 78.01249999925494,57.359616798348725 75.31249999813735,58.645085784373805 59.787499997764826,57.788106518564746 41.899999998509884,59.073575330199674 21.987499998882413,57.788106518564746 12.874999998137355,62.92997860396281 10.512499999254942,68.07184226624668 13.887499999254942,77.92705740500242 16.25,80.92646456556395 22.324999997392297,83.49738270859234 78.34999999962747,82.21192390075885 85.43749999813735,79.21251796837896 88.81249999813735,74.07067255792208 89.48749999701977,70.64277093834244 89.14999999850988,65.0724228208419 85.09999999962747,59.073575330199674 80.03749999776483,57.359616798348725 76.66249999776483,59.50206481665373 73.625,58.645085784373805 51.349999997764826,60.78753292537294 28.399999998509884,56.93112701829523 20.97499999962747,57.359616798348725 15.574999999254942,59.50206481665373 11.525000000372529,68.07184226624668 14.224999999627471,79.21251796837896 20.637499999254942,83.49738270859234 42.23749999888241,84.78284099022858 56.412499997764826,83.06889649690129 64.84999999962747,84.35435495502315 78.01249999925494,83.49738270859234 84.7624999973923,80.06949138408527 89.14999999850988,71.49974669353105 87.46249999850988,62.073000508826226 79.69999999925494,56.93112701829523 62.48749999888241,57.788106518564746 49.32499999925494,56.93112701829523 25.024999998509884,56.93112701829523 19.624999998137355,57.359616798348725 13.549999998882413,62.073000508826226 11.525000000372529,70.64277093834244 15.237499998882413,80.06949138408527 23.337499998509884,84.78284099022858 30.424999998882413,83.92586886021309 41.899999998509884,85.63981288461946 57.42499999888241,83.92586886021309 79.69999999925494,83.92586886021309 85.09999999962747,80.06949138408527 88.1374999973923,76.21310917008668 89.48749999701977,66.786377140088 86.11249999701977,59.50206481665373 75.64999999850988,56.07414728566073 65.18749999813735,58.216596179874614 54.04999999701977,59.50206481665373 44.26249999925494,57.788106518564746 24.012499999254942,58.645085784373805 18.27500000037253,59.930554245365784 12.537499999627471,65.50091148796491 11.187499998137355,72.35672221565619 14.5625,80.49797800485976 20.300000000745058,84.35435495502315 47.30000000074506,82.21192390075885 71.93749999813735,81.35495106969029 74.97499999962747,82.64041022839956 80.71249999850988,82.21192390075885 86.11249999701977,79.21251796837896 89.82499999925494,68.5003305238206 86.11249999701977,60.78753292537294 79.02500000037253,57.359616798348725 63.5,59.50206481665373 21.987499998882413,59.50206481665373 13.887499999254942,64.6439340938814 11.862499998882413,69.78579494706355 14.224999999627471,79.64100470556878 20.97499999962747,84.35435495502315 30.087499998509884,83.06889649690129 40.8874999973923,84.35435495502315 68.22499999962747,81.35495106969029 76.32499999925494,82.21192390075885 85.09999999962747,77.0700834041927 88.47499999962747,72.35672221565619 88.1374999973923,64.21544530964456 84.42499999888241,59.930554245365784 79.36249999701977,57.359616798348725 61.1374999973923,59.930554245365784 35.82499999925494,60.78753292537294 23.674999998882413,59.50206481665373 19.962499998509884,60.359043614938855 13.212499998509884,66.3578886478208 10.512499999254942,71.49974669353105 12.874999998137355,78.784031172283 18.27500000037253,83.92586886021309 21.987499998882413,84.78284099022858 46.28749999962747,83.49738270859234 60.80000000074506,80.92646456556395 80.03749999776483,83.06889649690129 89.14999999850988,73.64218506077304 89.48749999701977,68.928818724351 86.11249999701977,60.78753292537294 81.05000000074506,57.359616798348725 78.34999999962747,57.359616798348725 50.337499998509884,60.78753292537294 41.22499999962747,59.930554245365784 32.44999999925494,61.21602217829786 24.012499999254942,59.50206481665373 14.224999999627471,63.786956465570256 12.199999999254942,69.78579494706355 13.212499998509884,76.6415963161271 17.262499999254942,81.78343751421198 21.312499998137355,83.92586886021309 48.649999998509884,83.49738270859234 51.349999997764826,82.21192390075885 79.02500000037253,82.64041022839956 88.1374999973923,78.35554431728087 89.82499999925494,71.49974669353105 87.46249999850988,62.50148958549835 83.41249999776483,59.073575330199674 78.68749999813735,57.788106518564746 43.25,61.21602217829786 30.087499998509884,59.50206481665373 19.962499998509884,60.359043614938855 13.549999998882413,64.6439340938814 12.199999999254942,74.92764737806283 17.262499999254942,81.35495106969029 20.637499999254942,83.49738270859234 40.212499998509884,83.92586886021309 78.01249999925494,82.21192390075885 82.06249999813735,80.92646456556395 88.81249999813735,72.35672221565619 88.81249999813735,65.92940009688027 83.0749999973923,59.930554245365784 75.31249999813735,58.216596179874614 70.58749999850988,58.216596179874614 56.412499997764826,60.359043614938855 49.32499999925494,59.930554245365784 36.162499997764826,61.21602217829786 29.75,59.50206481665373 19.962499998509884,60.78753292537294 13.549999998882413,66.3578886478208 13.887499999254942,76.6415963161271 21.649999998509884,81.78343751421198 37.849999997764826,80.92646456556395 41.899999998509884,82.21192390075885 80.37499999813735,79.64100470556878 86.11249999701977,76.21310917008668 88.1374999973923,70.64277093834244 87.46249999850988,65.50091148796491 84.7624999973923,61.64451137231663" stroke="#FFFF00" stroke-linecap="round" stroke-linejoin="round" stroke-width="0.5"><title>2025-01-25 12.3km</title><desc>13446065977</desc></polyline></svg>