<?xml version="1.0" encoding="utf-8" ?>
<svg baseProfile="full" height="130mm" version="1.1" viewBox="0,0,100,130" width="100mm" xmlns="http://www.w3.org/2000/svg" xmlns:ev="http://www.w3.org/2001/xml-events" xmlns:xlink="http://www.w3.org/1999/xlink"><defs /><rect fill="#222222" height="130" width="100" x="0" y="0" /><text fill="#FFFFFF" style="font-size:6px; font-family:Arial; font-weight:bold;" x="5" y="10">2025-01-19 Workouts</text><text fill="#FFFFFF" style="font-size:4px; font-family:Arial" x="5" y="110">Runner</text><text fill="#FFFFFF" style="font-size:6px; font-family:Arial" x="5" y="120">蓝皮书</text><text fill="#FFFFFF" style="font-size:4px; font-family:Arial" x="30" y="110">STATISTICS</text><text fill="#FFFFFF" style="font-size:3px; font-family:Arial" x="30" y="115">Number: 1</text><text fill="#FFFFFF" style="font-size:3px; font-family:Arial" x="30" y="120">Weekly: 1.0</text><text fill="#FFFFFF" style="font-size:3px; font-family:Arial" x="50" y="115">Total: 5.7 km</text><text fill="#FFFFFF" style="font-size:3px; font-family:Arial" x="50" y="120">Avg: 5.7 km</text><text fill="#FFFFFF" style="font-size:3px; font-family:Arial" x="75" y="115">Min: 5.7 km</text><text fill="#FFFFFF" style="font-size:3px; font-family:Arial" x="75" y="120">Max: 5.7 km</text><polyline fill="none" points="14.707142857834697,96.3749621938914 16.153571428731084,97.30691793782171 16.58750000037253,98.05248205782846 18.03392857220024,99.17082744359504 20.926785714924335,98.984436612227 22.807142857462168,98.42526395851746 24.108928572386503,98.7980457538506 29.17142857145518,98.42526395851746 33.07678571436554,97.67970005050302 37.70535714365542,95.62939712230582 39.29642857145518,94.51104872184806 41.466071429662406,93.7654825928621 41.90000000037253,92.83352433668915 41.90000000037253,92.64713260624558 42.47857142891735,93.0199160410557 43.78035714291036,92.46074084902648 44.9375,91.52878166770097 45.80535714328289,90.41042977699544 46.528571428731084,89.85125347517896 50.433928571641445,87.61454588698689 53.18214285746217,86.68258326791693 55.35178571473807,86.86897584458347 56.075000000186265,86.30979803507216 60.269642856903374,87.05536839505658 66.92321428563446,84.2594773650635 67.79107142891735,84.44587028643582 70.68392857164145,83.70029844541568 74.87857142835855,82.20915349631105 77.19285714253783,81.83636699442286 85.00357142835855,79.78603934403509 86.1607142854482,78.85407117241994 87.75178571417928,76.80373886867892 89.92142857145518,71.95748615940101 89.92142857145518,71.21190723229665 89.7767857145518,70.09353804937564 88.76428571436554,68.97516791475937 88.4750000005588,67.297610927606 88.04107142891735,66.55202935694251 87.6071428572759,63.56969884375576 86.59464285708964,60.77375783980824 85.72678571380675,59.46898333542049 85.2928571421653,57.23222402681131 85.2928571421653,54.99546091130469 84.28035714291036,53.3178860754706 82.5446428572759,48.65794473781716 80.375,48.285148716764525 77.62678571417928,47.16676001914311 75.89107142854482,45.86197200207971 75.16785714309663,45.675573607790284 74.29999999981374,44.37078410992399 73.57678571436554,43.625189529848285 72.4196428572759,41.01560516585596 71.11785714235157,40.270008681109175 70.39464285690337,40.270008681109175 69.23750000074506,41.20200422091875 68.94821428600699,42.320397995528765 66.63392857182771,44.743581241811626 65.1875,45.675573607790284 61.42678571399301,47.16676001914311 57.81071428582072,49.96272997825872 56.653571428731084,50.521923255873844 55.64107142947614,51.64030909736175 52.74821428582072,53.3178860754706 48.98750000074506,57.791414210922085 47.83035714365542,60.4009652560344 46.67321428563446,61.33294651622418 45.950000000186265,61.70573883515317 42.7678571427241,61.51934268907644 41.32142857182771,61.70573883515317 34.8125,63.383302962058224 31.919642857275903,64.50167785619851 30.183928571641445,64.31528210663237 28.592857143841684,64.50167785619851 24.97678571473807,66.55202935694251 23.096428571268916,66.92482019530144 17.310714285820723,67.1112155750161 15.285714286379516,67.67040155443829 14.707142857834697,68.22958729637321 12.682142857462168,68.60237765836064 10.801785714924335,69.9071430930635 9.789285713806748,71.39830200385768 9.5,72.5166700759437 9.933928571641445,74.56700907007325 9.933928571641445,75.68537444516551 10.657142858020961,77.54931462171953 10.801785714924335,79.04046485968865 11.23571428656578,80.53161340544466 11.091071428731084,82.76833305053879 11.8142857151106,84.2594773650635 11.8142857151106,85.93701269722078 13.260714286006987,87.98733074904885 13.116071430034935,89.29207693517674 14.562500000931323,96.3749621938914 15.719642857089639,97.30691793782171 16.00892857182771,98.2388730214443 17.021428572013974,99.35721824900247 17.889285715296865,99.54360902751796 23.385714286006987,98.2388730214443 25.989285714924335,98.42526395851746 33.07678571436554,98.05248205782846 36.69285714253783,96.56135339534376 37.85000000055879,95.62939712230582 39.58571428619325,94.88383162789978 42.91250000055879,94.13826571020763 44.3589285723865,94.13826571020763 46.239285714924335,92.27434906549752 48.11964285746217,90.96960584109183 49.71071428619325,88.91929244273342 50.433928571641445,88.36011550633702 54.049999999813735,87.80093833140563 56.075000000186265,86.68258326791693 58.09999999962747,87.24176091817208 60.41428571380675,87.24176091817208 63.45178571436554,85.93701269722078 66.63392857182771,85.1914417030057 69.09285714291036,83.88669144536834 73.72142857126892,83.14111928793136 77.3374999994412,81.83636699442286 79.07321428600699,81.64997370378114 81.24285714235157,80.71800685487688 83.55714285746217,80.34521992946975 87.17321428563446,77.922102339915 88.4750000005588,76.05816269211937 89.48749999981374,73.63503719656728 89.7767857145518,72.330275463406 88.90892857126892,70.09353804937564 88.3303571427241,67.48400625400245 87.17321428563446,66.55202935694251 87.75178571417928,65.06086494622286 87.89642857108265,62.82411515759304 82.83392857201397,49.403536462108605 82.25535714346915,48.65794473781716 81.38750000018626,48.09875066636596 78.92857142817229,47.725954486755654 77.62678571417928,46.42116702499334 75.3125,45.48917518730741 74.87857142835855,44.37078410992399 74.01071428600699,43.43879081855994 73.43214285746217,41.761201226734556 72.4196428572759,40.8292060844833 70.82857142854482,40.08360949414782 69.38214285764843,41.01560516585596 68.0803571427241,42.87959452578798 66.34464285708964,44.55718268943019 62.72857142891735,46.23476871079765 60.269642856903374,47.725954486755654 57.52142857108265,49.77633216592949 56.075000000186265,51.4539115234511 52.31428571417928,54.06347515550442 51.15714285708964,55.181857982999645 49.27678571455181,58.1642075345153 48.98750000074506,60.4009652560344 48.40892857220024,61.146550317294896 47.1071428572759,61.892134955269285 46.09464285708964,62.2649271156406 42.47857142891735,61.892134955269285 40.74285714328289,62.07853104895912 38.42857142910361,61.892134955269285 37.271428572013974,62.637719170190394 31.919642857275903,64.50167785619851 22.662500000558794,66.55202935694251 21.07142857182771,66.55202935694251 17.889285715296865,67.297610927606 16.732142858207226,68.04319207544904 14.273214286193252,68.41598249052186 12.103571428917348,69.53435310139321 10.36785714328289,71.21190723229665 9.933928571641445,71.77109146711882 9.644642857834697,75.12619187659584 10.657142858020961,77.17652679840103 10.36785714328289,79.78603934403509 10.801785714924335,79.78603934403509 11.091071428731084,80.53161340544466 11.525000000372529,83.32751236716285 12.248214285820723,85.37783449108247 12.248214285820723,86.12340537935961 13.260714286006987,88.17372314084787 13.116071430034935,89.85125347517896 13.98392857145518,91.90156541974284 13.694642857648432,93.57909099431708 13.98392857145518,94.69744018802885 14.417857144027948,95.25661442789715 14.707142857834697,96.74774457048625 15.719642857089639,97.86609106720425 17.310714285820723,99.54360902751796 18.612500000745058,99.91639050573576 23.241071429103613,98.2388730214443 24.54285714402795,98.42526395851746 26.857142857275903,98.05248205782846 29.17142857145518,98.42526395851746 32.6428571427241,97.67970005050302 35.10178571473807,96.93413571966812 40.74285714328289,94.32465722959023 42.0446428572759,93.95187416486442 43.05714285746217,94.13826571020763 43.78035714291036,93.7654825928621 45.80535714328289,93.0199160410557 47.97500000055879,91.34238975180779 49.855357143096626,89.10568470181897 54.33928571455181,87.24176091817208 55.2071428578347,86.86897584458347 55.785714286379516,86.30979803507216 56.79821428563446,86.12340537935961 58.96785714291036,87.42815341590904 60.269642856903374,87.24176091817208 64.4642857145518,85.93701269722078 66.92321428563446,84.63226317998488 68.80357142817229,84.44587028643582 70.53928571380675,83.51390541973524 77.3374999994412,82.02276025887113 81.53214285802096,80.71800685487688 83.99107142817229,80.34521992946975 84.85892857145518,79.97243289870676 86.88392857182771,78.10849615966436 88.76428571436554,75.87176858191378 90.21071428526193,73.44864274270367 90.5,72.5166700759437 89.05357142817229,68.41598249052186 88.18571428582072,67.297610927606 87.31785714253783,63.56969884375576 87.31785714253783,61.892134955269285 86.01607142854482,58.90979386458639 83.84642857126892,51.267513923114166 82.5446428572759,48.65794473781716 81.24285714235157,47.9123525894247 79.50714285764843,47.5395563574275 78.3500000005588,46.980361810536124 77.62678571417928,45.86197200207971 75.60178571473807,45.116378267877735 75.02321428526193,44.55718268943019 74.5892857145518,43.811588214477524 73.86607142817229,43.25239208084531 72.4196428572759,41.01560516585596 71.55178571492434,40.45640784164425 70.53928571380675,40.45640784164425 69.81607142835855,41.20200422091875 68.94821428600699,42.69319570902735 66.92321428563446,43.9979868727969 66.63392857182771,44.55718268943019 63.74107142817229,45.86197200207971 62.72857142891735,46.793963574338704 60.125,48.09875066636596 58.96785714291036,49.21713857038412 57.66607142891735,49.96272997825872 56.21964285708964,51.82670664519537 53.905357143841684,52.75869398727082 51.880357143469155,54.43626953708008 49.13214285764843,58.53700075275265 48.98750000074506,59.46898333542049 48.11964285746217,60.77375783980824 47.39642857108265,61.33294651622418 46.09464285708964,61.892134955269285 44.3589285723865,61.892134955269285 41.755357143469155,61.51934268907644 40.16428571473807,61.892134955269285 38.57321428600699,61.892134955269285 32.49821428582072,64.68807357968763 27.580357142724097,65.24726059031673 26.278571428731084,66.17923841287848 23.81964285671711,66.17923841287848 22.517857142724097,66.73842478904407 21.216071428731084,66.73842478904407 19.04642857145518,67.67040155443829 16.732142858207226,67.67040155443829 12.537500000558794,69.16156300308648 10.223214286379516,70.65272275987081 9.5,72.14388082467485 10.223214286379516,74.75340336526278 9.933928571641445,75.31258609250654 9.789285713806748,76.43095083336812 10.657142858020961,77.17652679840103 10.657142858020961,78.85407117241994 10.36785714328289,79.59964576293714 11.23571428656578,80.90440027730074 11.380357143469155,83.14111928793136 11.8142857151106,84.81865604722407 11.958928572013974,86.30979803507216 13.405357143841684,88.54650784411933 12.826785714365542,90.59682182536926 14.128571429289877,91.15599780995399 13.550000000745058,93.57909099431708 14.273214286193252,96.00217971054371 15.864285714924335,98.05248205782846 18.178571429103613,99.72999977960717 21.65000000037253,98.42526395851746 24.108928572386503,98.61165486963 28.737499999813735,97.86609106720425 29.46071428619325,97.30691793782171 31.48571428656578,96.93413571966812 33.65535714291036,96.93413571966812 39.730357143096626,94.13826571020763 43.92500000074506,93.39269936969504 45.371428571641445,92.27434906549752 46.38392857182771,91.71517355670221 48.84285714291036,89.29207693517674 49.855357143096626,88.73290015663952 52.8928571427241,87.98733074904885 55.64107142947614,86.4961906648241 57.95535714365542,86.86897584458347 59.40178571455181,87.42815341590904 60.99285714235157,87.24176091817208 62.87321428582072,86.12340537935961 65.9107142854482,85.75061998853926 69.96071428619325,83.70029844541568 71.84107142873108,82.95472618215717 74.15535714291036,82.76833305053879 75.02321428526193,82.20915349631105 77.04821428563446,82.02276025887113 83.99107142817229,80.15882642765064 87.31785714253783,77.73570849432144 89.48749999981374,74.38061474799179 90.06607142835855,73.07585375546478 90.06607142835855,72.14388082467485 89.92142857145518,71.39830200385768 88.90892857126892,68.97516791475937 88.76428571436554,67.67040155443829 87.6071428572759,65.9928429016145 88.04107142891735,64.50167785619851 87.17321428563446,59.65537977241911 86.1607142854482,57.605017508845776 85.5821428578347,55.368255027919076 82.97857142891735,48.471546740154736 82.3999999994412,47.725954486755654 79.79642857145518,47.16676001914311 78.92857142817229,46.607565312762745 78.06071428582072,45.86197200207971 77.62678571417928,45.30277674051467 75.74642857164145,44.92997976811603 74.73392857145518,43.06599331670441 74.01071428600699,42.320397995528765 72.70892857201397,40.45640784164425 71.98571428656578,40.270008681109175 70.68392857164145,40.45640784164425 70.25,40.64280697645154 69.5267857145518,42.50679686560761 66.34464285708964,44.92997976811603 64.03035714291036,45.675573607790284 62.583928572013974,46.607565312762745 60.70357142854482,48.65794473781716 59.25714285764843,49.589934327523224 58.389285715296865,49.77633216592949 58.09999999962747,50.521923255873844 57.37678571417928,51.08111629553605 55.35178571473807,51.64030909736175 53.61607142817229,52.57229657203425 51.301785714924335,55.181857982999645 50.86785714328289,55.368255027919076 49.566071428358555,57.23222402681131 48.55357142910361,59.84177618287504 46.67321428563446,61.892134955269285 44.792857143096626,62.07853104895912 39.875,61.892134955269285 38.42857142910361,62.2649271156406 35.535714286379516,63.7560946989106 33.51071428600699,63.94249052810483 31.19642857182771,64.68807357968763 29.75,64.50167785619851 29.316071429289877,65.06086494622286 27.580357142724097,65.24726059031673 26.278571428731084,65.9928429016145 23.675000000745058,66.36563389841467 21.9392857151106,66.92482019530144 16.153571428731084,67.48400625400245 14.996428571641445,68.41598249052186 13.98392857145518,68.22958729637321 11.525000000372529,69.7207481105579 11.23571428656578,70.09353804937564 10.657142858020961,70.09353804937564" stroke="#4DD2FF" stroke-linecap="round" stroke-linejoin="round" stroke-width="0.5"><title>2025-01-19 5.7km</title><desc>13393577419</desc></polyline></svg>