<?xml version="1.0" encoding="utf-8" ?>
<svg baseProfile="full" height="130mm" version="1.1" viewBox="0,0,100,130" width="100mm" xmlns="http://www.w3.org/2000/svg" xmlns:ev="http://www.w3.org/2001/xml-events" xmlns:xlink="http://www.w3.org/1999/xlink"><defs /><rect fill="#222222" height="130" width="100" x="0" y="0" /><text fill="#FFFFFF" style="font-size:6px; font-family:Arial; font-weight:bold;" x="5" y="10">2025-04-15 Workouts</text><text fill="#FFFFFF" style="font-size:4px; font-family:Arial" x="5" y="110">Runner</text><text fill="#FFFFFF" style="font-size:6px; font-family:Arial" x="5" y="120">蓝皮书</text><text fill="#FFFFFF" style="font-size:4px; font-family:Arial" x="30" y="110">STATISTICS</text><text fill="#FFFFFF" style="font-size:3px; font-family:Arial" x="30" y="115">Number: 1</text><text fill="#FFFFFF" style="font-size:3px; font-family:Arial" x="30" y="120">Weekly: 1.0</text><text fill="#FFFFFF" style="font-size:3px; font-family:Arial" x="50" y="115">Total: 5.3 km</text><text fill="#FFFFFF" style="font-size:3px; font-family:Arial" x="50" y="120">Avg: 5.3 km</text><text fill="#FFFFFF" style="font-size:3px; font-family:Arial" x="75" y="115">Min: 5.3 km</text><text fill="#FFFFFF" style="font-size:3px; font-family:Arial" x="75" y="120">Max: 5.3 km</text><polyline fill="none" points="13.601265823468566,79.54608417185955 15.310126582160592,81.2817265340127 20.778481010347605,83.88518829806708 27.95569620281458,84.31909838574938 31.715189872309566,83.45127815264277 37.18354430422187,83.88518829806708 38.55063291080296,83.45127815264277 48.12025316618383,83.01736794761382 53.58860759437084,83.45127815264277 54.95569620281458,83.88518829806708 79.22151898778975,82.58345768251456 83.6645569615066,80.41390547133051 88.4493670873344,76.07479660469107 89.81645569764078,73.03741687396541 89.81645569764078,71.7356818150729 90.5,70.00003424030729 88.10759493522346,63.49134739371948 85.71518987417221,60.453955638222396 82.98101265914738,58.71830190112814 82.6392405051738,57.41656097769737 78.53797468170524,55.68090558354743 74.09493670985103,55.24699158756994 69.99367088638246,56.98264721897431 60.42405063286424,58.28438831982203 50.170886075124145,57.41656097769737 44.01898734085262,58.71830190112814 37.5253164563328,58.71830190112814 35.4746835436672,58.28438831982203 24.196202531456947,57.41656097769737 21.120253164321184,57.8504746791441 20.436708860099316,59.15221542469226 14.626582279801369,62.18960842513479 10.867088608443737,67.39656110131182 10.183544304221869,73.03741687396541 10.867088608443737,76.07479660469107 14.28481012582779,81.71563697513193 15.993670888245106,82.58345768251456 20.778481010347605,84.31909838574938 22.145569620653987,82.58345768251456 23.170886075124145,83.45127815264277 33.0822784807533,84.31909838574938 53.24683544225991,83.88518829806708 61.79113923944533,82.58345768251456 66.57594936899841,83.45127815264277 76.14556961879134,82.58345768251456 84.68987341783941,80.41390547133051 85.71518987417221,79.97999485139735 88.10759493522346,76.50870775827207 89.81645569764078,70.00003424030729 88.4493670873344,64.79308582982048 86.0569620244205,61.321782149374485 83.6645569615066,59.58612888865173 80.24683544412255,58.28438831982203 77.51265822723508,57.8504746791441 68.28481012582779,56.98264721897431 64.86708860658109,58.28438831982203 60.42405063286424,57.8504746791441 57.348101265728474,58.71830190112814 53.930379746481776,57.8504746791441 47.77848101221025,58.71830190112814 45.044303799048066,58.28438831982203 40.9430379755795,59.15221542469226 34.107594937086105,59.15221542469226 29.322784811258316,58.28438831982203 27.27215189859271,59.15221542469226 21.803797468543053,59.15221542469226 18.386075949296355,59.58612888865173 13.601265823468566,63.92526026559062 11.55063291080296,67.39656110131182 10.867088608443737,71.7356818150729 11.892405062913895,75.64088539290242 15.310126582160592,80.84781603165902 18.72784810140729,82.14954735897481 23.170886075124145,83.45127815264277 78.87974683567882,82.14954735897481 84.34810126572847,79.97999485139735 88.10759493522346,76.07479660469107 88.79113923944533,70.8678581463173 88.4493670873344,66.96264870394953 86.39873417839408,63.49134739371948 82.29746835306287,59.58612888865173 80.58860759437084,59.15221542469226 78.53797468170524,57.41656097769737 73.06962025351822,57.8504746791441 71.70253164507449,58.28438831982203 67.60126582346857,57.41656097769737 59.398734176531434,58.71830190112814 49.829113924875855,58.28438831982203 39.9177215192467,59.58612888865173 35.13291139155626,58.71830190112814 25.22151898778975,59.58612888865173 22.145569620653987,58.71830190112814 20.09493670798838,59.15221542469226 16.335443038493395,61.321782149374485 13.259493669494987,64.79308582982048 12.234177215024829,66.52873624721542 11.55063291080296,70.00003424030729 11.892405062913895,74.33915140060708 15.310126582160592,80.84781603165902 21.120253164321184,83.45127815264277 32.74050633050501,83.45127815264277 36.499999998137355,83.01736794761382 45.044303799048066,83.45127815264277 57.00632911361754,82.58345768251456 63.158227847889066,83.45127815264277 67.60126582346857,83.01736794761382 70.33544303663075,82.14954735897481 78.87974683567882,82.14954735897481 81.61392405070364,81.71563697513193 84.68987341783941,79.11217343248427 88.10759493522346,75.64088539290242 88.79113923944533,73.47132844198495 89.13291139155626,71.7356818150729 88.4493670873344,70.00003424030729 88.79113923944533,67.8304734393023 83.6645569615066,59.58612888865173 77.85443037934601,57.41656097769737 68.62658227793872,57.41656097769737 60.76582278497517,58.71830190112814 53.58860759437084,57.8504746791441 50.170886075124145,58.28438831982203 48.46202531643212,57.8504746791441 46.75316455774009,58.71830190112814 41.28481012582779,57.8504746791441 38.208860758692026,58.28438831982203 34.79113923944533,59.15221542469226 28.297468354925513,58.71830190112814 18.72784810140729,59.58612888865173 14.28481012582779,63.057434463640675 12.234177215024829,66.09482373180799 11.208860758692026,69.13221009727567 11.892405062913895,75.64088539290242 13.601265823468566,79.11217343248427 20.09493670798838,83.01736794761382 27.95569620281458,83.45127815264277 34.79113923944533,82.58345768251456 44.01898734085262,83.01736794761382 57.00632911361754,82.58345768251456 65.8924050629139,83.01736794761382 69.65189873427153,82.14954735897481 76.82911392301321,82.58345768251456 80.93037974648178,81.71563697513193 83.6645569615066,79.97999485139735 88.10759493522346,75.64088539290242 89.13291139155626,70.8678581463173 89.13291139155626,67.8304734393023 86.74050632864237,63.49134739371948 82.98101265914738,60.020042292773724 79.22151898778975,57.8504746791441 68.96835443004966,58.28438831982203 65.8924050629139,59.15221542469226 59.74050633050501,58.71830190112814 58.373417722061276,57.8504746791441 52.90506329014897,58.71830190112814 49.829113924875855,58.28438831982203 46.069620253518224,58.71830190112814 38.55063291080296,58.71830190112814 34.79113923944533,59.15221542469226 34.44936708919704,60.020042292773724 33.0822784807533,60.453955638222396 27.27215189859271,59.15221542469226 21.803797468543053,60.020042292773724 19.753164555877447,59.58612888865173 16.67721519060433,60.453955638222396 13.259493669494987,65.2269985228777 11.892405062913895,67.8304734393023 11.208860758692026,72.16959356050938 12.234177215024829,76.07479660469107 15.310126582160592,79.97999485139735 18.386075949296355,82.14954735897481 21.803797468543053,83.01736794761382 40.60126582160592,84.31909838574938 59.0569620244205,82.14954735897481 63.841772152110934,83.01736794761382 68.62658227793872,82.14954735897481 75.80379746854305,83.45127815264277 81.27215189859271,82.58345768251456 87.42405063286424,77.37652988708578 89.13291139155626,75.20697412011214 89.4746835436672,73.03741687396541 89.81645569764078,69.56612219917588 87.76582278497517,64.35917307646014 79.56329113803804,57.8504746791441 52.563291139900684,58.71830190112814 50.85443038120866,57.8504746791441 45.386075949296355,59.15221542469226 39.9177215192467,58.71830190112814 30.689873417839408,60.453955638222396 24.53797468356788,59.15221542469226 20.778481010347605,59.58612888865173 18.386075949296355,60.020042292773724 14.968354430049658,62.18960842513479 12.917721519246697,65.2269985228777 10.525316456332803,71.30177001073025 11.55063291080296,75.64088539290242 13.259493669494987,79.54608417185955 17.360759492963552,82.14954735897481 21.46202531643212,83.45127815264277 44.01898734085262,83.88518829806708 55.6392405051738,82.58345768251456 78.53797468170524,82.58345768251456 86.0569620244205,79.11217343248427 87.0822784807533,78.2443517788779 89.13291139155626,73.90523995039985 89.81645569764078,70.43394622229971 88.79113923944533,66.09482373180799 83.32278480939567,60.453955638222396 80.24683544412255,58.71830190112814 79.22151898778975,57.41656097769737 73.06962025351822,57.8504746791441 69.99367088638246,56.98264721897431 65.20886075869203,58.28438831982203 59.398734176531434,58.71830190112814 57.00632911361754,57.8504746791441 48.12025316618383,59.15221542469226 32.398734176531434,59.15221542469226 28.981012657284737,60.020042292773724 24.87974683381617,58.71830190112814 18.72784810140729,60.020042292773724 15.993670888245106,61.75569531717338 12.575949367135763,66.52873624721542 11.208860758692026,70.00003424030729 11.55063291080296,73.90523995039985 12.917721519246697,77.8104408623185 15.993670888245106,80.84781603165902 19.753164555877447,83.01736794761382 68.96835443004966,84.31909838574938 79.56329113803804,83.01736794761382 84.68987341783941,79.54608417185955 89.4746835436672,73.47132844198495 90.15822784602642,69.56612219917588 89.4746835436672,66.09482373180799 84.00632911361754,57.8504746791441 79.90506329201162,56.54873340041377 72.72784810140729,56.54873340041377 70.67721518874168,57.41656097769737 59.398734176531434,57.8504746791441 56.32278480939567,57.41656097769737 49.14556962065399,57.8504746791441 46.069620253518224,57.41656097769737 33.42405063286424,58.28438831982203 29.322784811258316,57.8504746791441 21.46202531643212,58.71830190112814 14.968354430049658,61.75569531717338 11.208860758692026,66.52873624721542 10.525316456332803,70.43394622229971 10.867088608443737,73.47132844198495 13.943037973716855,81.2817265340127 19.753164555877447,84.31909838574938 25.905063290148973,84.7530084126629 28.297468354925513,84.31909838574938 32.74050633050501,84.31909838574938 37.5253164563328,83.01736794761382 49.829113924875855,84.31909838574938 56.66455696336925,83.45127815264277 59.0569620244205,83.88518829806708 62.13291139155626,82.58345768251456 63.5,83.45127815264277 65.8924050629139,82.58345768251456 67.60126582346857,83.45127815264277 68.96835443004966,82.58345768251456 74.09493670985103,83.01736794761382 80.93037974648178,82.14954735897481 85.71518987417221,78.67826263513416 88.10759493522346,75.64088539290242 89.81645569764078,73.90523995039985 90.15822784602642,67.8304734393023 88.79113923944533,63.92526026559062 84.68987341783941,60.020042292773724 78.19620253331959,57.41656097769737 72.72784810140729,57.41656097769737 69.31012658216059,56.98264721897431 67.60126582346857,57.8504746791441 59.0569620244205,58.28438831982203 55.29746835306287,57.8504746791441 49.487341770902276,58.28438831982203 47.09493670798838,57.8504746791441 42.99367088638246,58.71830190112814 37.5253164563328,59.15221542469226 31.373417722061276,58.28438831982203 20.436708860099316,59.15221542469226 18.386075949296355,59.58612888865173 13.943037973716855,63.057434463640675 10.183544304221869,69.13221009727567 9.5,72.60350524703972 10.183544304221869,75.20697412011214 12.575949367135763,79.97999485139735 18.72784810140729,83.01736794761382 25.563291139900684,83.45127815264277 29.322784811258316,83.01736794761382 39.234177216887474,84.31909838574938 55.6392405051738,83.88518829806708 61.10759493522346,83.01736794761382 78.19620253331959,83.01736794761382 83.6645569615066,81.2817265340127 89.13291139155626,74.33915140060708 89.81645569764078,71.30177001073025 88.4493670873344,65.66091115772724 86.74050632864237,61.75569531717338 79.90506329201162,57.41656097769737 72.72784810140729,57.8504746791441 65.55063291080296,57.41656097769737 60.0822784807533,58.71830190112814 48.46202531643212,57.41656097769737 33.42405063286424,59.58612888865173 30.00632911361754,58.28438831982203 21.803797468543053,59.15221542469226 18.04430379718542,60.020042292773724 13.259493669494987,64.35917307646014 10.525316456332803,70.00003424030729 10.525316456332803,73.90523995039985 11.208860758692026,76.94261885294691 15.310126582160592,80.84781603165902 19.753164555877447,83.88518829806708 34.79113923944533,83.88518829806708 38.208860758692026,83.45127815264277 42.99367088638246,83.88518829806708 52.90506329014897,83.45127815264277 64.86708860658109,83.88518829806708 75.12025316432118,82.58345768251456 79.56329113803804,83.01736794761382 85.71518987417221,79.11217343248427 88.4493670873344,76.50870775827207 89.81645569764078,73.03741687396541 89.13291139155626,70.8678581463173 89.81645569764078,69.56612219917588 87.76582278497517,66.52873624721542 87.42405063286424,63.057434463640675 80.58860759437084,57.41656097769737 73.41139240376651,56.98264721897431 68.96835443004966,58.28438831982203 65.8924050629139,57.8504746791441 64.52531645447016,58.28438831982203 54.613924050703645,57.41656097769737 53.930379746481776,57.8504746791441 49.829113924875855,57.41656097769737 44.36075949296355,58.28438831982203 40.60126582160592,58.28438831982203 38.208860758692026,59.15221542469226 34.107594937086105,60.020042292773724 21.46202531643212,60.453955638222396 17.018987342715263,62.62352147465572 14.28481012582779,64.79308582982048 12.575949367135763,67.8304734393023 11.892405062913895,72.16959356050938" stroke="#4DD2FF" stroke-linecap="round" stroke-linejoin="round" stroke-width="0.5"><title>2025-04-15 5.3km</title><desc>14179230163</desc></polyline></svg>