<?xml version="1.0" encoding="utf-8" ?>
<svg baseProfile="full" height="130mm" version="1.1" viewBox="0,0,100,130" width="100mm" xmlns="http://www.w3.org/2000/svg" xmlns:ev="http://www.w3.org/2001/xml-events" xmlns:xlink="http://www.w3.org/1999/xlink"><defs /><rect fill="#222222" height="130" width="100" x="0" y="0" /><text fill="#FFFFFF" style="font-size:6px; font-family:Arial; font-weight:bold;" x="5" y="10">2025-05-15 Workouts</text><text fill="#FFFFFF" style="font-size:4px; font-family:Arial" x="5" y="121">Runner</text><text fill="#FFFFFF" style="font-size:6px; font-family:Arial" x="2" y="128">蓝皮书</text><text fill="#FFFFFF" style="font-size:4px; font-family:Arial" x="25" y="121">STATISTICS</text><text fill="#FFFFFF" style="font-size:3px; font-family:Arial" x="25" y="125">Number: 1</text><text fill="#FFFFFF" style="font-size:3px; font-family:Arial" x="25" y="129">Weekly: 1.0</text><text fill="#FFFFFF" style="font-size:3px; font-family:Arial" x="48" y="125">Total: 6.3 km</text><text fill="#FFFFFF" style="font-size:3px; font-family:Arial" x="48" y="129">Avg: 6.3 km</text><text fill="#FFFFFF" style="font-size:3px; font-family:Arial" x="75" y="125">Min: 6.3 km</text><text fill="#FFFFFF" style="font-size:3px; font-family:Arial" x="75" y="129">Max: 6.3 km</text><polyline fill="none" points="15.359574468806386,53.80861500604078 17.427659574896097,59.935110095888376 12.257446808740497,64.74877659534104 9.844680851325393,72.62566981767304 10.878723403438926,78.75212894193828 19.8404255323112,85.31617929576896 31.21489361859858,84.44097335846163 43.2787234056741,84.003370300401 62.58085106499493,82.69056076649576 80.50425532273948,83.12816400476731 86.01914893835783,79.18973271735013 89.81063829921186,69.56243586470373 87.39787234179676,63.87356504169293 77.05744680948555,58.62229070579633 55.34255319274962,58.62229070579633 41.900000002235174,59.05989722860977 33.28297872468829,59.05989722860977 16.393617022782564,61.68553511425853 10.878723403438926,69.56243586470373 11.912765957415104,80.06494008749723 20.874468084424734,85.31617929576896 32.24893617071211,84.44097335846163 47.759574469178915,84.44097335846163 68.78510638326406,83.56576718227006 78.09148936346173,82.69056076649576 87.39787234179676,77.43931725830771 89.12127659656107,68.68722562585026 86.70851064100862,62.998353249626234 79.81489361822605,58.18468412174843 73.26595744863153,58.18468412174843 58.09999999962747,57.3094707778655 40.865957448258996,57.747077479958534 31.90425531938672,58.18468412174843 20.185106383636594,59.05989722860977 11.223404254764318,66.9368044314906 11.568085106089711,78.75212894193828 17.082978723570704,84.003370300401 27.42340425774455,84.003370300401 54.653191490098834,84.003370300401 57.75531915016472,84.003370300401 64.64893617108464,83.56576718227006 74.98936170339584,83.56576718227006 85.32978723756969,79.627336432226 90.1553191523999,69.56243586470373 83.95106383226812,60.81032272451557 68.09574468247592,57.3094707778655 57.41063829883933,57.747077479958534 48.79361702315509,57.747077479958534 30.870212767273188,58.62229070579633 25.699999999254942,58.62229070579633 18.117021277546883,61.24792894977145 14.325531914830208,62.998353249626234 10.878723403438926,70.87525077420287 15.014893617480993,82.25295747071505 34.66170212812722,84.87857635621913 49.48297872394323,84.44097335846163 56.72127659805119,84.44097335846163 67.40638297982514,84.003370300401 80.50425532273948,82.69056076649576 84.6404255349189,80.06494008749723 89.12127659656107,70.00004089390859 86.01914893835783,62.56074726418592 79.81489361822605,58.62229070579633 70.85319148935378,58.18468412174843 60.85744681023061,58.62229070579633 40.865957448258996,56.871864014770836 16.048936169594526,61.68553511425853 11.912765957415104,66.49919898435473 11.912765957415104,78.75212894193828 15.704255320131779,84.003370300401 48.10425532236695,84.003370300401 69.12978723458946,83.12816400476731 82.5723404251039,82.25295747071505 88.08723404444754,75.2512965912465 88.08723404444754,67.37440981948748 79.81489361822605,59.497503691352904 62.58085106499493,58.62229070579633 50.172340424731374,57.747077479958534 38.797872342169285,58.18468412174843 27.7680851072073,58.62229070579633 17.082978723570704,60.81032272451557 11.223404254764318,66.49919898435473 10.878723403438926,76.12650503613986 13.980851063504815,82.25295747071505 17.082978723570704,84.87857635621913 22.94255319237709,85.7537821738515 25.355319149792194,84.87857635621913 79.81489361822605,83.56576718227006 87.39787234179676,77.87692121346481 90.5,70.00004089390859 82.5723404251039,59.497503691352904 65.68297872506082,57.747077479958534 52.24042553268373,59.497503691352904 46.72553191520274,58.62229070579633 32.9382978733629,59.05989722860977 21.908510638400912,58.18468412174843 15.704255320131779,61.68553511425853 12.946808509528637,62.998353249626234 9.844680851325393,70.43764586467296 15.014893617480993,83.12816400476731 21.219148937612772,85.7537821738515 50.861702129244804,85.31617929576896 63.27021276764572,84.87857635621913 77.74680851213634,84.44097335846163 86.01914893835783,80.06494008749723 89.46595744788647,71.31285562412813 86.01914893835783,62.998353249626234 78.78085106424987,57.747077479958534 67.40638297982514,57.747077479958534 60.85744681023061,58.18468412174843 51.89574468135834,58.18468412174843 26.73404255323112,57.3094707778655 19.151063829660416,59.05989722860977 10.878723403438926,66.06159347598441 9.5,73.93848347268067 15.704255320131779,84.003370300401 21.56382978707552,84.87857635621913 82.2276595775038,83.56576718227006 87.39787234179676,77.87692121346481 88.77659574523568,68.68722562585026 82.5723404251039,59.497503691352904 72.23191489465535,57.3094707778655 45.691489363089204,57.747077479958534 37.074468087404966,58.18468412174843 25.699999999254942,58.62229070579633 14.6702127661556,62.12314121844247 10.189361702650785,68.24962041690014 10.534042553976178,77.87692121346481 16.73829787224531,84.44097335846163 42.589361703023314,85.31617929576896 55.68723404221237,84.44097335846163 74.98936170339584,84.003370300401 88.77659574523568,74.81369227753021 88.77659574523568,64.74877659534104 82.91702127829194,59.05989722860977 75.33404255472124,57.747077479958534 67.06170212849975,57.3094707778655 51.551063830032945,58.18468412174843 47.07021276652813,58.18468412174843 40.865957448258996,59.05989722860977 27.078723404556513,59.497503691352904 15.359574468806386,62.56074726418592 9.5,70.87525077420287 10.878723403438926,78.75212894193828 25.355319149792194,85.31617929576896 41.555319149047136,84.44097335846163 47.07021276652813,84.003370300401 56.37659574486315,84.44097335846163 60.51276595890522,84.003370300401 84.6404255349189,80.50254368409514 87.74255319312215,66.9368044314906 84.6404255349189,62.12314121844247 75.67872340604663,59.05989722860977 69.12978723458946,58.18468412174843 59.47872340492904,58.62229070579633 46.0361702144146,59.935110095888376 29.83617021329701,59.935110095888376 26.04468085244298,58.18468412174843 13.980851063504815,63.435959176160395 11.223404254764318,69.56243586470373 11.568085106089711,77.00171324401163 17.082978723570704,84.003370300401 26.389361701905727,84.87857635621913 46.0361702144146,84.44097335846163 57.75531915016472,83.56576718227006 69.4744680877775,84.003370300401 76.36808510683477,83.12816400476731 79.81489361822605,81.37775069684722 87.05319149233401,75.68890084372833 88.08723404444754,66.06159347598441 80.84893617220223,58.62229070579633 70.16382978856564,57.747077479958534 54.653191490098834,58.18468412174843 48.448936169967055,58.18468412174843 43.96808510646224,58.62229070579633 39.83191489428282,58.62229070579633 30.870212767273188,59.497503691352904 26.389361701905727,60.37271644058637 19.8404255323112,59.497503691352904 13.291489362716675,64.74877659534104 10.878723403438926,73.93848347268067 12.257446808740497,80.06494008749723 21.56382978707552,85.7537821738515 35.351063830778,85.31617929576896 53.96382978744805,83.12816400476731 64.99361702241004,83.12816400476731 80.15957446955144,82.69056076649576 85.67446808516979,79.627336432226 89.12127659656107,73.50087898108177 87.39787234179676,62.56074726418592 82.5723404251039,59.497503691352904 72.57659574598074,58.62229070579633 56.03191489353776,58.62229070579633 47.41489361785352,58.62229070579633 30.180851064622402,59.05989722860977 23.63191489316523,60.37271644058637 17.427659574896097,59.497503691352904 12.257446808740497,64.74877659534104 11.223404254764318,74.37608790537342 16.73829787224531,83.56576718227006 32.593617022037506,85.31617929576896 56.03191489353776,84.87857635621913 58.789361702278256,84.87857635621913 68.44042553193867,83.12816400476731 73.26595744863153,82.69056076649576 83.26170212961733,81.81535411300138 87.74255319312215,76.12650503613986 88.43191489391029,66.49919898435473 84.6404255349189,60.81032272451557 69.12978723458946,57.3094707778655" stroke="#4DD2FF" stroke-linecap="round" stroke-linejoin="round" stroke-width="0.5"><title>2025-05-15 6.3km</title><desc>14483158452</desc></polyline></svg>