<?xml version="1.0" encoding="utf-8" ?>
<svg baseProfile="full" height="130mm" version="1.1" viewBox="0,0,100,130" width="100mm" xmlns="http://www.w3.org/2000/svg" xmlns:ev="http://www.w3.org/2001/xml-events" xmlns:xlink="http://www.w3.org/1999/xlink"><defs /><rect fill="#222222" height="130" width="100" x="0" y="0" /><text fill="#FFFFFF" style="font-size:6px; font-family:Arial; font-weight:bold;" x="5" y="10">五月初10公里Run</text><text fill="#FFFFFF" style="font-size:4px; font-family:Arial" x="5" y="121">Runner</text><text fill="#FFFFFF" style="font-size:6px; font-family:Arial" x="2" y="128">蓝皮书</text><text fill="#FFFFFF" style="font-size:4px; font-family:Arial" x="25" y="121">ACTIVITY INFO</text><text fill="#FFFFFF" style="font-size:3px; font-family:Arial" x="25" y="125">Type: Run</text><text fill="#FFFFFF" style="font-size:3px; font-family:Arial" x="25" y="129">Date: 2025-05-28</text><text fill="#FFFFFF" style="font-size:3px; font-family:Arial" x="45" y="125">Distance: 10.13 km</text><text fill="#FFFFFF" style="font-size:3px; font-family:Arial" x="45" y="129">Duration: 01:05:58</text><text fill="#FFFFFF" style="font-size:3px; font-family:Arial" x="75" y="125">Pace: 6:30/km</text><text fill="#FFFFFF" style="font-size:3px; font-family:Arial" x="75" y="129">Elevation: 116m</text><polyline fill="none" points="10.198275862261653,69.11350760771893 14.73706896416843,83.29791648499668 36.383620688691735,84.62770163966343 63.61637930944562,83.74117826414295 79.67672413773835,81.96813078573905 89.10344827361405,68.2269799951464 80.375,58.47516028233804 54.887931033968925,58.47516028233804 26.956896550953388,55.81556800426915 11.943965516984463,66.0106599056162 12.64224137738347,79.30855775112286 19.624999998137355,85.07096323790029 70.25,82.41139274509624 86.65948275849223,79.75182007439435 88.75431034527719,67.34045214019716 81.0732758641243,58.47516028233804 65.36206896416843,56.70209900685586 45.112068966031075,57.58862976473756 26.60775861889124,57.145364416297525 11.594827586784959,67.34045214019716 14.038793103769422,81.08160668308847 31.49568965472281,83.29791648499668 41.96982758678496,82.41139274509624 67.80603448301554,81.96813078573905 85.61206896603107,78.86529536778107 90.1508620698005,70.44329857174307 86.31034482643008,61.57801518589258 81.42241379246116,57.58862976473756 57.68103448301554,58.47516028233804 45.46120689623058,55.37230241345242 30.797413792461157,57.58862976473756 14.73706896416843,61.13475038204342 9.5,71.32982557918876 18.926724137738347,83.74117826414295 77.93103448301554,82.41139274509624 89.10344827361405,76.20571979228407 83.51724137924612,60.24822059087455 78.62931034527719,56.258833535481244 65.36206896416843,57.145364416297525 45.81034482829273,57.145364416297525 24.16379310376942,56.70209900685586 12.99137930944562,63.35107379988767 12.99137930944562,80.19508233806118 33.59051723964512,84.18443998252042 40.224137930199504,83.74117826414295 51.0474137943238,82.8546546457801 81.7715517245233,81.96813078573905 89.80172413773835,70.0000349781476 78.28017241321504,55.81556800426915 68.50431034341455,54.92903676186688 59.42672413773835,56.70209900685586 39.875,57.58862976473756 23.11637930944562,58.47516028233804 12.64224137738347,64.68086712411605 12.64224137738347,77.97877041785978 20.323275860399008,84.18443998252042 31.146551724523306,84.62770163966343 78.62931034527719,82.8546546457801 90.1508620698005,72.21635234449059 84.56465517170727,61.57801518589258 51.74568965472281,58.918425449403 18.577586207538843,58.031895054504275 10.547413792461157,74.43266819813289 20.672413792461157,84.18443998252042 82.12068965472281,81.52486876398325 89.10344827361405,75.7624569835607 87.00862068869174,62.90780923794955 68.8534482754767,56.70209900685586 52.79310344904661,58.031895054504275 41.62068965472281,58.47516028233804 24.862068966031075,58.47516028233804 12.99137930944562,63.35107379988767 11.24568965472281,71.77308899257332 21.37068965472281,84.18443998252042 28.00431034527719,84.18443998252042 82.46982758492231,81.52486876398325 90.5,69.55677132238634 76.53448275849223,56.258833535481244 45.81034482829273,57.58862976473756 38.82758620753884,57.58862976473756 27.65517241321504,57.145364416297525 18.577586207538843,58.031895054504275 11.594827586784959,67.78371609793976 14.387931033968925,81.52486876398325 31.84482758678496,83.29791648499668 48.25431034527719,82.8546546457801 80.72413793206215,82.41139274509624 90.1508620698005,69.55677132238634 80.72413793206215,56.70209900685586 71.99568965658545,55.81556800426915 51.74568965472281,58.031895054504275 36.03448275849223,58.47516028233804 19.624999998137355,57.145364416297525 10.547413792461157,71.32982557918876 21.021551724523306,84.18443998252042 58.379310343414545,84.18443998252042 88.05603448301554,77.97877041785978 87.00862068869174,62.90780923794955 76.88362068869174,55.37230241345242 48.95258620753884,57.145364416297525 21.021551724523306,57.58862976473756 10.896551724523306,67.34045214019716 13.689655171707273,80.19508233806118 32.19396551698446,84.18443998252042 41.62068965472281,83.74117826414295 48.603448275476694,83.74117826414295 83.16810344718397,81.08160668308847 89.4525862056762,68.2269799951464 81.0732758641243,56.70209900685586 65.01293103396893,58.031895054504275 45.46120689623058,58.47516028233804 29.051724137738347,57.145364416297525 14.038793103769422,62.02127993036993 14.387931033968925,81.96813078573905 43.36637930944562,81.96813078573905 80.72413793206215,81.96813078573905 89.4525862056762,69.55677132238634 85.96120689809322,61.13475038204342 76.18534482829273,58.031895054504275 66.06034482643008,57.58862976473756 36.383620688691735,58.47516028233804 28.702586205676198,59.361690557328984 12.293103449046612,63.79433830175549 14.038793103769422,81.08160668308847 81.42241379246116,81.52486876398325 89.10344827361405,67.78371609793976 78.97844827733934,58.031895054504275 64.31465517170727,56.70209900685586 52.44396551698446,57.145364416297525 28.00431034527719,58.918425449403 12.99137930944562,62.90780923794955 13.689655171707273,80.19508233806118 51.396551724523306,82.8546546457801 63.267241379246116,82.41139274509624 81.0732758641243,81.96813078573905 89.4525862056762,67.78371609793976 77.23275861889124,56.70209900685586 55.93534482643008,57.145364416297525 36.03448275849223,58.031895054504275 25.21120689623058,59.804955604719 14.038793103769422,60.69148551719263 12.99137930944562,78.42203292273916 18.926724137738347,83.29791648499668 42.66810344718397,82.41139274509624 54.53879310376942,82.41139274509624 79.67672413773835,81.96813078573905 90.5,74.43266819813289 82.81896551698446,58.47516028233804 70.25,56.70209900685586 59.42672413773835,57.145364416297525 22.418103447183967,58.031895054504275 11.594827586784959,67.34045214019716 14.038793103769422,79.75182007439435 43.36637930944562,84.18443998252042 77.23275861889124,82.8546546457801 87.70689655281603,77.09224522602744 89.4525862056762,68.2269799951464 78.97844827733934,56.70209900685586 46.857758620753884,57.145364416297525 21.021551724523306,58.47516028233804 13.340517241507769,64.68086712411605 14.73706896416843,80.63834454095922 36.732758620753884,84.18443998252042 46.15948276035488,83.74117826414295 80.375,82.41139274509624 89.10344827361405,74.87593118823133 79.67672413773835,57.145364416297525 62.91810344904661,55.81556800426915 51.74568965472281,57.145364416297525 14.038793103769422,63.35107379988767 11.943965516984463,76.20571979228407 21.37068965472281,84.18443998252042 54.18965517170727,82.41139274509624 78.62931034527719,82.41139274509624 88.75431034527719,75.7624569835607 84.91379310376942,59.804955604719 56.982758620753884,57.145364416297525 19.624999998137355,58.918425449403 10.896551724523306,67.78371609793976 16.13362069055438,83.74117826414295 36.383620688691735,85.07096323790029 55.237068966031075,82.8546546457801 83.16810344718397,81.96813078573905 89.10344827361405,74.87593118823133 80.72413793206215,57.58862976473756 63.96551724150777,55.81556800426915 26.956896550953388,57.145364416297525 12.99137930944562,63.35107379988767 10.896551724523306,76.20571979228407 19.624999998137355,83.29791648499668 50.349137930199504,83.29791648499668 75.13793103396893,82.8546546457801 85.61206896603107,79.30855775112286 89.80172413773835,67.34045214019716 78.97844827733934,56.70209900685586 25.560344826430082,57.58862976473756 10.896551724523306,66.45392404380254 11.594827586784959,78.42203292273916 57.33189655095339,84.62770163966343 86.65948275849223,78.86529536778107 89.80172413773835,63.79433830175549 81.42241379246116,56.70209900685586 49.30172413773835,57.58862976473756" stroke="#FFFF00" stroke-linecap="round" stroke-linejoin="round" stroke-width="0.5"><title>2025-05-28 10.13km</title><desc>14615377010</desc></polyline></svg>