<?xml version="1.0" encoding="utf-8" ?>
<svg baseProfile="full" height="130mm" version="1.1" viewBox="0,0,100,130" width="100mm" xmlns="http://www.w3.org/2000/svg" xmlns:ev="http://www.w3.org/2001/xml-events" xmlns:xlink="http://www.w3.org/1999/xlink"><defs /><rect fill="#222222" height="130" width="100" x="0" y="0" /><text fill="#FFFFFF" style="font-size:6px; font-family:Arial; font-weight:bold;" x="5" y="10">2025-05-17 Workouts</text><text fill="#FFFFFF" style="font-size:4px; font-family:Arial" x="5" y="121">Runner</text><text fill="#FFFFFF" style="font-size:6px; font-family:Arial" x="2" y="128">蓝皮书</text><text fill="#FFFFFF" style="font-size:4px; font-family:Arial" x="25" y="121">STATISTICS</text><text fill="#FFFFFF" style="font-size:3px; font-family:Arial" x="25" y="125">Number: 1</text><text fill="#FFFFFF" style="font-size:3px; font-family:Arial" x="25" y="129">Weekly: 1.0</text><text fill="#FFFFFF" style="font-size:3px; font-family:Arial" x="48" y="125">Total: 5.3 km</text><text fill="#FFFFFF" style="font-size:3px; font-family:Arial" x="48" y="129">Avg: 5.3 km</text><text fill="#FFFFFF" style="font-size:3px; font-family:Arial" x="75" y="125">Min: 5.3 km</text><text fill="#FFFFFF" style="font-size:3px; font-family:Arial" x="75" y="129">Max: 5.3 km</text><polyline fill="none" points="43.27137328311801,61.99792773835361 42.89494661381468,67.454548220383 42.61262661172077,68.54586813761853 41.29513326799497,70.84976116713369 40.07174659287557,72.91113387880614 39.31889325333759,74.12370374030434 37.624973241239786,76.18506855878513 37.0603332365863,77.6401466151001 35.64873322658241,79.33773455093615 34.5194532177411,80.55029529845342 33.107853207271546,82.36913319595624 32.166786533780396,83.70294519508025 31.03750652493909,84.55173356540035 30.0964398519136,85.40052109363023 32.166786533780396,84.06671174272196 33.67249321145937,83.21792289061705 35.084093221928924,83.46043407713296 35.93105322867632,84.55173356540035 35.93105322867632,86.00679738342296 36.683906567282975,87.70436870807316 35.83694656100124,90.00821011536755 36.11926656309515,92.55455392197473 36.11926656309515,93.8883500326192 36.49569323286414,95.22214406268904 36.5897998996079,96.0709209984052 36.49569323286414,97.6472187867621 36.77801323495805,99.58727361389901 36.49569323286414,102.61860046931542 36.40158656518906,104.31613881426165 35.93105322867632,105.64991657802602 36.49569323286414,106.86244001280284 36.21337323077023,110.2574964822852 36.966226569376886,110.5 37.2485465714708,109.40873362863204 37.342653239145875,108.19621380470926 37.81318657612428,105.28615921275923 38.09550657821819,102.98235896998085 37.53086657356471,101.28481797705172 37.342653239145875,99.34476700116647 37.53086657356471,96.91969709162368 38.001399910543114,94.97963621187955 38.001399910543114,94.49462030408904 38.001399910543114,90.978246745246 38.09550657821819,89.64444609504426 38.001399910543114,88.67440795211587 37.53086657356471,86.85558346711332 38.001399910543114,86.2493077791296 37.907293242868036,85.27926578413462 37.81318657612428,83.09666727145668 37.81318657612428,81.15657502767863 38.09550657821819,79.94401513936464 38.75425324914977,78.97396599099739 39.78942659078166,77.39763377734926 40.4481732621789,76.18506855878513 42.51851994404569,73.3961620295886 44.400653291493654,71.45604777493281 45.90635996963829,70.00095919443993 46.282786638941616,68.7883834859822 46.659213308710605,68.18209498684155 47.317959980107844,67.09077460510889 48.259026654064655,66.60574287711643 48.54134665615857,65.02938786096638 49.67062666406855,63.089254620776046 51.458653344307095,61.27037570957327 52.21150668337941,61.027858229354024 52.21150668337941,60.421564226737246 53.15257335733622,59.81526979478076 54.375960032921284,58.966456867579836 56.16398671269417,58.23890225897776 58.32844006223604,56.78379118524026 59.26950673619285,55.69245625444455 61.33985341805965,54.601119930739515 63.12788009829819,52.90348288061796 65.76286678435281,52.17592311283806 66.60982679016888,51.08458230062388 66.70393345784396,50.11450040899217 68.86838680738583,50.11450040899217 69.52713347924873,48.295593895425554 70.5623068199493,48.65937550790841 69.62124014645815,47.56803020677762 68.680173472967,48.41685445030453 66.23340012133121,49.99324009515112 64.91590677807108,50.9633221240947 63.692520102486014,51.448362726019695 58.04612006014213,55.449937191733625 56.35220004757866,55.93497524806298 55.12881337152794,56.42001302953577 53.62310669384897,58.36016140336869 52.399720018263906,57.99638391868211 50.23526666872203,59.33023393951589 49.10598666034639,61.14911697804928 48.35313332127407,62.36170352046611 47.12974664522335,63.81680510175647 46.1886799717322,64.5443549634656 44.682973293587565,63.453029938740656 45.5299332998693,62.240444943658076 44.77707996126264,61.8766691100318 45.24761329777539,60.54282306152163 44.58886662637815,56.78379118524026 45.24761329777539,55.32867763476679 44.400653291493654,54.237340846448205 44.87118662893772,53.1460026652785 44.400653291493654,52.17592311283806 44.118333289865404,50.9633221240947 44.77707996126264,49.265677850926295 45.15350663056597,47.81055150501197 45.5299332998693,46.11290097160963 46.1886799717322,44.05146364943357 46.659213308710605,42.71758979227161 46.84742664312944,41.62623690679902 46.941533310804516,40.049835834885016 47.12974664522335,38.715955734602176 47.50617331499234,37.13954929658212 48.16491998638958,37.382073553220835 48.7295599905774,40.53488262812607 49.01187999267131,40.65614428330446 50.517586670815945,41.14119073259644 52.399720018263906,40.77740592160262 54.56417336780578,40.89866754238028 55.599346708506346,40.29235926590627 58.234333395026624,38.95847954391502 60.30468007689342,38.109645910270046 60.492893411777914,37.0182871427387 59.55182673828676,36.65450057736598 57.95201339293271,35.32061517983675 58.140226727351546,34.471777934231795 56.634520049672574,34.471777934231795 55.97577337780967,35.32061517983675 54.4700667001307,34.95682789181592 54.18774669803679,33.74420248140814 52.682040019892156,33.01662640942959 51.082226674538106,31.440209462831262 49.3883066624403,30.71263143006945 47.50617331499234,30.470105281972792 46.09457330452278,30.227579064609017 46.09457330452278,31.318946500483435 45.62403996754438,32.8953636707156 45.059399963356555,35.19935276755132 44.58886662637815,36.411976114148274 44.77707996126264,37.867121860035695 44.118333289865404,38.715955734602176 43.17726661590859,39.32226512930356 44.02422662219033,40.53488262812607 43.64779995242134,43.32389634900028 43.27137328311801,44.7790303308866 43.17726661590859,46.23416183603695 42.98905328148976,47.56803020677762 42.800839946139604,49.02315696520964 42.04798660753295,50.47828124737134 41.95387994032353,51.81214299675776 42.23619994195178,54.237340846448205 43.27137328311801,61.5128931212239 43.17726661590859,63.21051307703601 42.51851994404569,69.27341397543205 42.04798660753295,70.24347412982024 40.63638659706339,71.57730504468782 38.3778265803121,74.00244683161145 36.683906567282975,77.03386439237511 35.55462655890733,78.73145353182917 34.98998655471951,80.9140631876653 33.57838654471561,82.00536592613207 33.67249321145937,83.09666727145668 34.80177321983501,82.97541163518326 35.27230655681342,84.43047813588055 36.30747989797965,86.2493077791296 35.64873322658241,86.85558346711332 36.21337323077023,89.40193666279083 35.93105322867632,92.31204531510593 35.55462655890733,93.03957093023928 35.742839893791825,94.37336628424237 35.46051989169791,94.97963621187955 36.0251598963514,97.04095075052464 36.21337323077023,98.25348639301956 36.0251598963514,102.13358889479423 36.40158656518906,102.98235896998085 35.742839893791825,106.13492615852738 35.93105322867632,107.10494449309772 35.366413224022835,107.95370963355526 35.83694656100124,109.04497786203865 35.64873322658241,110.2574964822852 36.40158656518906,109.28748172381893 37.2485465714708,107.10494449309772 37.342653239145875,105.16490672295913 37.81318657612428,103.70987550675636 37.624973241239786,100.92105875426205 38.18961324542761,98.73850016872166 37.624973241239786,97.04095075052464 37.7190799084492,94.49462030408904 37.81318657612428,93.8883500326192 38.001399910543114,92.19079098541988 38.001399910543114,90.73573769105133 37.2485465714708,88.18938846763922 37.53086657356471,88.06813355366467 37.2485465714708,86.12805258971639 37.342653239145875,84.79424437403213 37.342653239145875,82.97541163518326 37.624973241239786,82.00536592613207 37.624973241239786,80.06527120561805 38.3778265803121,79.70150295569329 39.03657325124368,78.0039157422143 39.97763992566615,76.67009485280141 42.04798660753295,74.12370374030434 42.51851994404569,73.51741902442882 42.61262661172077,72.78987679805141 44.02422662219033,71.57730504468782 46.09457330452278,68.54586813761853 47.03563997801393,67.9395794668817 47.882599984295666,66.96951669867849 48.82366665825248,65.63567859557224 50.141160001046956,62.846737655985635 50.32937333593145,61.99792773835361 52.96436002245173,59.57275190151995 54.84649336989969,58.23890225897776 60.02236007479951,55.32867763476679 61.52806675247848,54.11608111736132 61.99860008992255,53.63104202901013 64.44537344109267,52.53970307408599 67.83321346668527,50.9633221240947 69.1507068099454,49.265677850926295 70.09177348343655,48.295593895425554 67.45678679738194,48.53811498748837 65.85697345156223,49.629459050658625 64.82180011086166,50.59954149235273 63.974840104114264,51.20584245939972 62.18681342434138,52.660963026515674 61.81038675503805,52.90348288061796 60.30468007689342,53.38852238160325 58.61076006432995,54.84363923390629 56.916840052232146,55.08615846862085 55.41113337408751,56.17749417340383 52.87025335524231,58.36016140336869 51.55276001151651,58.36016140336869 50.799906672909856,59.57275190151995 47.882599984295666,61.027858229354024 45.43582663219422,63.695546730887145 45.24761329777539,62.846737655985635 45.24761329777539,61.75541046418948 44.96529329568148,60.421564226737246 44.96529329568148,59.08771590871038 44.77707996126264,56.66253181704087 44.400653291493654,53.752301827131305 44.682973293587565,52.17592311283806 45.15350663056597,48.90189649676904 45.62403996754438,47.20424813037971 46.1886799717322,44.7790303308866 46.659213308710605,43.32389634900028 46.75331997592002,40.29235926590627 46.941533310804516,37.13954929658212 47.69438664941117,37.0182871427387 50.23526666872203,37.50333565584151 51.082226674538106,34.95682789181592 50.32937333593145,32.8953636707156 49.10598666034639,32.65283814142458 48.917773325461894,34.471777934231795 48.44723998848349,39.8073123350041 50.141160001046956,40.89866754238028 52.21150668337941,41.14119073259644 53.058466689661145,40.65614428330446 55.317026706412435,40.41362095554359 56.634520049672574,38.83721764769871 58.98718673409894,37.74585980933625 59.175400068517774,37.867121860035695 60.3987867445685,37.74585980933625 60.02236007479951,36.7757627828978 59.36361340340227,37.0182871427387 58.516653397120535,35.926926982123405 56.72862671734765,35.19935276755132 55.41113337408751,34.22925285209203 52.49382668547332,32.65283814142458 50.61169333802536,31.318946500483435 49.48241332964972,30.591368364694063 48.44723998848349,29.86378960957518 46.659213308710605,29.5 46.09457330452278,29.86378960957518 45.5299332998693,36.411976114148274 44.02422662219033,43.687680076400284 42.23619994195178,50.35702098492766 42.70673327893019,53.5097822137177 43.365479950327426,57.26882848481182 42.800839946139604,56.05623471940635" stroke="#4DD2FF" stroke-linecap="round" stroke-linejoin="round" stroke-width="0.5"><title>2025-05-17 5.3km</title><desc>14502640815</desc></polyline></svg>