<?xml version="1.0" encoding="utf-8" ?>
<svg baseProfile="full" height="130mm" version="1.1" viewBox="0,0,100,130" width="100mm" xmlns="http://www.w3.org/2000/svg" xmlns:ev="http://www.w3.org/2001/xml-events" xmlns:xlink="http://www.w3.org/1999/xlink"><defs /><rect fill="#222222" height="130" width="100" x="0" y="0" /><text fill="#FFFFFF" style="font-size:6px; font-family:Arial; font-weight:bold;" x="5" y="10">2025-05-25 Workouts</text><text fill="#FFFFFF" style="font-size:4px; font-family:Arial" x="5" y="121">Runner</text><text fill="#FFFFFF" style="font-size:6px; font-family:Arial" x="2" y="128">蓝皮书</text><text fill="#FFFFFF" style="font-size:4px; font-family:Arial" x="25" y="121">STATISTICS</text><text fill="#FFFFFF" style="font-size:3px; font-family:Arial" x="25" y="125">Number: 1</text><text fill="#FFFFFF" style="font-size:3px; font-family:Arial" x="25" y="129">Weekly: 1.0</text><text fill="#FFFFFF" style="font-size:3px; font-family:Arial" x="48" y="125">Total: 6.3 km</text><text fill="#FFFFFF" style="font-size:3px; font-family:Arial" x="48" y="129">Avg: 6.3 km</text><text fill="#FFFFFF" style="font-size:3px; font-family:Arial" x="75" y="125">Min: 6.3 km</text><text fill="#FFFFFF" style="font-size:3px; font-family:Arial" x="75" y="129">Max: 6.3 km</text><polyline fill="none" points="90.5,45.983867775066756 89.51431639236398,45.8344573280192 87.60093056526966,45.90916255675256 82.9044380816631,46.5815091401455 81.80279169650748,46.5815091401455 79.65748031483963,46.80562447727425 79.07766642794013,46.80562447727425 78.14996420871466,46.80562447727425 76.52648532553576,46.8803295683465 74.49713672162034,47.10444477846613 71.30816034367308,47.47796991630457 68.35110952053219,47.7767898364109 67.19148174673319,48.00090466463007 63.94452397967689,48.07560958649265 63.01682176091708,47.85149478970561 62.14710093056783,48.299724288110156 60.69756621331908,47.7767898364109 58.78418038645759,47.253854865266476 58.378310665721074,48.822658220655285 58.378310665721074,49.868524528923444 58.668217609170824,50.540866059600376 59.42197566223331,52.109659627371 59.248031496070325,52.70729404332815 57.972440944751725,53.15551941061858 57.276664280798286,54.12667306466028 57.45060844649561,55.99427121388726 57.45060844649561,57.56304854340851 57.62455261289142,59.35593120002886 57.91445955634117,61.29821385978721 57.74051539017819,62.493461168545764 57.33464566944167,64.73454256384866 57.04473872575909,66.37799619551515 56.986757336882874,67.05031665798742 56.46492483885959,68.1708488559816 56.23299928405322,69.36608057358535 55.88511095196009,71.15892306645401 55.711166785797104,72.65295381692704 55.53722261986695,74.59518745890819 55.305297065293416,77.35912299039774 55.18933428777382,80.49654575332534 55.421259842580184,84.90384617511882 55.131352899130434,87.07013286894653 54.7834645670373,92.00026938633528 54.725483178161085,92.67255715548526 54.89942734432407,95.06290672137402 55.131352899130434,96.93035977479303 55.131352899130434,97.82673488935689 54.89942734432407,98.72310847922927 53.739799570525065,98.72310847922927 52.29026485327631,99.0965970249963 48.521474588196725,99.6941781474161 44.92662848974578,100.36645610013511 43.82498210435733,100.59054856037255 43.07122405176051,102.38328481197823 43.18718682881445,102.98086220707046 41.447745168115944,102.6820735943038 40.11417322861962,101.33752273977734 39.82426628493704,99.5447829302866 39.766284896293655,98.6484107383294 39.53435934148729,97.07975573290605 39.24445239803754,94.31592364690732 39.186471009394154,93.79303486470599 38.25876879040152,92.67255715548526 36.5773085183464,92.97135144437198 34.953829634934664,93.71833642502315 31.764853256987408,93.64363797445549 29.67752326419577,93.56893951341044 28.575876879040152,93.34484406700358 27.1263421617914,91.32798075932078 25.676807444542646,88.78821598296054 25.270937723806128,87.89182549202815 23.995347172487527,84.90384617511882 23.705440229037777,82.36405043292325 23.58947745198384,81.84114978986327 22.139942734502256,79.52544070401927 20.864352183183655,77.50852449808735 20.284538296284154,77.06031984818401 19.64674302074127,76.1639094047714 18.313171081012115,73.92287662392482 17.67537580546923,71.45772955543362 17.327487472910434,70.56130957993446 15.99391553318128,66.97561442677397 15.588045812444761,65.70567487477092 15.414101646281779,65.2574601843371 12.399069434730336,64.13692179054487 11.355404437985271,63.38989487051731 9.90586972096935,60.99940160888946 9.90586972096935,59.729447652294766 9.731925554573536,59.057117847609334 9.673944166162983,57.93656626663869 9.847888332325965,56.74130862002494 12.630994989303872,56.81601230229717 15.588045812444761,56.36779004923301 15.356120257871225,52.93140677449992 15.298138869227841,51.885546546429396 15.298138869227841,50.914388761273585 15.240157480351627,49.046772604458965 15.182176091708243,48.374429167364724 16.225841087987646,48.00090466463007 18.603078024461865,47.253854865266476 19.008947745198384,46.282688542502 20.63242662861012,45.983867775066756 22.313886900432408,45.8344573280192 23.58947745198384,45.162109791417606 23.58947745198384,42.6968281493173 23.415533285820857,40.60506498225732 23.87938439520076,39.110943349369336 25.03901216899976,38.3638809438562 27.358267716597766,38.2144683356164 31.822834645863622,39.26035570335807 33.04044380830601,40.455653009412345 34.663922691717744,40.53035900107352 35.243736578384414,39.110943349369336 35.35969935567118,37.31799179658992 35.70758768776432,36.7950464442838 38.83858267706819,37.691523873189 40.69398711528629,38.1397620155476 44.75268432381563,38.4385872320272 45.854330708738416,39.33506186440354 47.1879026487004,39.63388640288031 48.86936292075552,39.110943349369336 49.0433070869185,39.93271077168174 52.754115962656215,45.01269911095733 53.5078740157187,46.5815091401455 53.79778095940128,46.8803295683465 55.07337151025422,48.07560958649265 57.62455261289142,48.00090466463007 58.262347888434306,48.673248578677885 58.43629205459729,50.316752311366145 59.248031496070325,52.0349552774569 58.20436649955809,52.93140677449992 57.16070150327869,54.35078519186936 56.92877594847232,55.097824928408954 57.39262705785222,56.36779004923301 57.682534001301974,59.43063451163471 57.91445955634117,60.84999541990692 57.62455261289142,62.493461168545764 57.16070150327869,63.98751649132464 57.04473872575909,65.03335269651143 56.81281317095272,66.00448445661459 55.76914817467332,70.41190610267222 55.88511095196009,71.9059389711474 55.53722261986695,73.92287662392482 55.421259842580184,75.41689953679452 55.131352899130434,77.73262667987728 55.47924123122357,82.43875048251357 54.66750178975053,89.75930396065814 54.60952040087432,90.8050890120794 54.5515390119981,92.00026938633528 54.89942734432407,98.42431745195063 53.56585540459491,98.57371298666112 50.43486041505821,99.17129470227519 48.17358625633642,99.91827089351136 44.05690765939653,100.36645610013511 43.013242662884295,102.00979859591462 42.66535433079116,102.75677076348802 41.09985683625564,102.15919311408652 40.23013600567356,101.18812798860017 39.94022906222381,100.36645610013511 39.88224767358042,99.0965970249963 39.650322118541226,96.85566177975852 39.476377952843904,95.36169965483714 39.186471009394154,93.79303486470599 38.084824624238536,92.74725574365584 36.28740157489665,92.97135144437198 34.43199713667855,93.49424104194622 32.75053686462343,93.49424104194622 30.37329992838204,93.4195425597718 28.749821044970304,93.4195425597718 26.54652827512473,90.43159458908485 26.082677165279165,89.01231336739147 25.15497494628653,87.51832900388399 24.86506800283678,87.14483225118602 24.285254115704447,85.12794521142496 24.111309950007126,84.15684869803954 23.76342161768116,82.6628505672561 23.009663564851508,80.87004721874837 21.270221904153004,78.3302320324583 20.22655690764077,76.68681568210013 18.950966356555,75.04339420574252 18.371152469422668,73.62407153274398 17.501431639306247,70.7854147166945 16.631710808956996,68.1708488559816 16.167859699344262,66.6768053958076 15.588045812444761,65.2574601843371 15.877952756127343,64.80924511293415 17.327487472910434,63.68870576558402 18.429133858298883,61.2235108128516 20.690408017253503,59.58004110312322 23.241589119425043,58.83300772192888 24.691123836906627,57.712455664528534 25.966714387992397,56.51719750929624 27.1263421617914,56.44249378470704 30.08339298516512,55.69545595499221 31.64889047970064,55.396640526421834 34.60594130284153,54.799009160895366 35.533643521834165,54.50019322393928 40.751968504162505,53.827856746152975 45.91231209714897,53.23022360133473 49.85504652839154,52.55788550287252 52.29026485327631,51.06379776762333 53.333929849555716,50.39145690470468 57.16070150327869,48.299724288110156 58.32032927707769,48.374429167364724 56.870794559596106,48.374429167364724" stroke="#4DD2FF" stroke-linecap="round" stroke-linejoin="round" stroke-width="0.5"><title>2025-05-25 6.3km</title><desc>14584477763</desc></polyline></svg>