<?xml version="1.0" encoding="utf-8" ?>
<svg baseProfile="full" height="130mm" version="1.1" viewBox="0,0,100,130" width="100mm" xmlns="http://www.w3.org/2000/svg" xmlns:ev="http://www.w3.org/2001/xml-events" xmlns:xlink="http://www.w3.org/1999/xlink"><defs /><rect fill="#222222" height="130" width="100" x="0" y="0" /><text fill="#FFFFFF" style="font-size:6px; font-family:Arial; font-weight:bold;" x="5" y="10">2025-02-04 Workouts</text><text fill="#FFFFFF" style="font-size:4px; font-family:Arial" x="5" y="121">Runner</text><text fill="#FFFFFF" style="font-size:6px; font-family:Arial" x="2" y="128">蓝皮书</text><text fill="#FFFFFF" style="font-size:4px; font-family:Arial" x="25" y="121">STATISTICS</text><text fill="#FFFFFF" style="font-size:3px; font-family:Arial" x="25" y="125">Number: 1</text><text fill="#FFFFFF" style="font-size:3px; font-family:Arial" x="5" y="129">Weekly: 1.0</text><text fill="#FFFFFF" style="font-size:3px; font-family:Arial" x="48" y="125">Total: 5.7 km</text><text fill="#FFFFFF" style="font-size:3px; font-family:Arial" x="48" y="129">Avg: 5.7 km</text><text fill="#FFFFFF" style="font-size:3px; font-family:Arial" x="75" y="125">Min: 5.7 km</text><text fill="#FFFFFF" style="font-size:3px; font-family:Arial" x="75" y="129">Max: 5.7 km</text><polyline fill="none" points="9.740892193512991,56.96561926021241 10.584014869993553,58.51738715352258 10.644237918546423,59.138093078683596 10.945353159913793,59.68121018575039 11.126022305106744,60.457090832525864 16.124535315902904,68.21583680040203 16.666542751016095,68.37101059762063 16.967657992849126,68.6037712112884 17.871003717416897,68.52618435100885 18.172118959017098,68.6813580604503 20.882156133884564,67.05203191732289 22.026394051965326,66.19857343024341 22.628624535398558,65.96581179375062 23.291078066919,65.88822455942864 24.796654275152832,66.66409640642814 25.760223048506305,66.81927064369665 27.024907063227147,66.19857343024341 28.59070631978102,65.03476425743429 30.758736059302464,64.64682731655193 33.04721189592965,64.80200212594355 34.97434944240376,65.18993895681342 37.14237918215804,66.19857343024341 38.587732341839,67.28479309176328 39.31040892214514,68.06066295894561 40.514869888778776,69.84515947866021 41.29776951670647,71.78482300927863 41.53866170998663,72.01758217101451 41.53866170998663,72.79344532854157 41.77955390326679,73.72447966557229 42.08066914509982,73.9572380023892 43.28513011126779,74.03482409263961 43.7066914497409,74.18999624019489 44.48959107790142,74.65551241871435 45.031598512781784,75.27620004100027 45.99516728636809,76.7503303225385 46.11561338300817,77.2934299519402 46.05539033468813,78.68996938085184 46.11561338300817,79.46582307922654 46.17583643132821,81.2502824118128 45.99516728636809,84.66401448863326 45.99516728636809,87.30188378266757 46.29628252796829,88.69839767331723 46.65762081788853,88.93114964198321 47.19962825276889,89.08631756639807 47.98252788092941,88.93114964198321 49.30743494420312,89.00873360951664 50.391449814196676,88.93114964198321 51.47546468419023,89.00873360951664 51.83680297411047,89.08631756639807 53.52304832730442,89.00873360951664 55.69107806682587,89.08631756639807 56.41375464689918,89.00873360951664 57.07620817841962,88.62081366189523 57.49776951689273,88.07772527303314 57.61821561329998,86.91396262490889 57.55799256497994,86.7587940848316 57.85910780658014,85.28469076042529 57.67843866185285,84.12092217343161 57.91933085490018,82.8795662864577 57.85910780658014,81.94854752329411 57.79888475849293,81.87096255482174 57.97955390345305,81.56062257156009 58.03977695177309,80.2416756778839 57.85910780658014,79.69857897423208 57.79888475849293,77.68135792849353 57.91933085490018,77.2934299519402 58.03977695177309,77.21584432350937 59.966914498014376,77.06067303387681 60.56914498144761,77.13825868396088 64.3631970260758,77.06067303387681 64.66431226744317,77.2934299519402 65.62788104079664,77.60377235501073 66.169888475677,77.99170011183014 65.86877323430963,80.70718670915812 65.80855018575676,81.01752717670752 65.98921933094971,81.63820758386282 66.04944237926975,83.11232072964776 65.86877323430963,83.73299876123201 65.80855018575676,84.35367608867818 65.32676579919644,84.74159906123532 65.08587360591628,85.59502863232046 65.20631970232353,86.37087254237849 65.14609665423632,87.379467981169 65.32676579919644,87.76738880900666 65.32676579919644,88.31047750561265 65.5676579924766,88.54322963918094 65.86877323430963,88.77598167402903 67.67546468391083,88.93114964198321 69.5423791820649,88.85356566373957 70.26505576190539,88.93114964198321 71.89107806701213,88.69839767331723 72.4933085499797,88.85356566373957 73.27620817860588,88.69839767331723 75.44423791812733,88.85356566373957 76.58847583644092,88.69839767331723 77.19070631964132,88.23289343895158 77.55204460956156,87.76738880900666 77.55204460956156,86.7587940848316 77.67249070620164,86.37087254237849 77.73271375452168,85.207106265123 77.85315985116176,84.43126070528524 77.67249070620164,84.12092217343161 77.91338289971463,82.8019814499421 77.85315985116176,81.09511226619361 77.97360594780184,78.37962759344373 78.21449814131483,77.44860117562348 78.8167286242824,76.67274461738998 79.59962825267576,75.97447277465835 81.16542750922963,74.88827035960276 81.88810408907011,74.50034040334867 83.21301115234382,73.25896269507939 83.63457249035127,72.71585906244582 83.87546468386427,72.56068649661029 84.65836431225762,71.16413142747479 85.74237918201834,69.76757279434241 85.56171003705822,70.07791946525685 85.68215613393113,71.31930438888958 86.10371747193858,71.86240940768039 86.64572490705177,72.17275489051826 87.30817843857221,72.09516853612149 89.11486988840625,72.48310019745259 89.83754646824673,72.48310019745259 90.31933085480705,72.71585906244582 90.5,72.48310019745259 89.95799256488681,72.17275489051826 88.57286245352589,72.17275489051826 87.06728624505922,71.93999579484807 86.46505576209165,71.31930438888958 86.16394052049145,71.16413142747479 86.16394052049145,70.69861227908405 86.22416356881149,70.07791946525685 86.10371747193858,69.22446569683962 86.34460966521874,68.99170534737641 86.22416356881149,68.52618435100885 86.5855018584989,67.90548907330958 86.88661710033193,66.19857343024341 86.70594795537181,63.560602419194765 86.34460966521874,62.00884882581886 85.80260223057121,60.68985481193522 84.83903345721774,59.21568126993952 84.35724907042459,58.905328439199366 84.41747211897746,58.827740203996655 84.05613382882439,58.28462224989198 83.87546468386427,57.97426889138296 83.27323420066386,57.12079624744365 82.73122676555067,56.88803075015312 82.55055762082338,56.577676599205006 81.40631970227696,55.72420177760068 80.62342007434927,55.1810807432048 79.84052044595592,54.87072562472895 79.47918215626851,54.482781478669494 78.7565055761952,54.09483705786988 78.39516728627495,54.09483705786988 77.85315985116176,53.62930338975275 74.2397769514937,52.775823969976045 72.37286245357245,52.155110828753095 69.48215613374487,51.53439698298462 69.00037174741738,51.76716475764988 68.45836431230418,51.53439698298462 66.77211895911023,51.22403979633236 66.10966542735696,51.30162910942454 65.50743494415656,51.06886113691144 64.54386617080308,51.22403979633236 62.79739776952192,50.913682433601934 60.38847583648749,51.06886113691144 59.846468401374295,50.913682433601934 58.76245353161357,51.06886113691144 58.28066914482042,50.9912717906991 57.61821561329998,51.22403979633236 56.53420074353926,51.22403979633236 55.81152416346595,51.45680770283798 55.149070631712675,51.379218411573675 53.34237918211147,51.68957551056519 53.16171003715135,51.922343219048344 52.49925650563091,51.99993243312929 51.35501858731732,52.38787833903916 49.30743494420312,52.775823969976045 48.28364312252961,53.47412541258382 47.68141263956204,53.39653640729375 46.71784386620857,53.78448132338235 46.41672862437554,53.706892362213694 44.730483271414414,54.17242596420692 43.64646840165369,54.71554799930891 43.40557620837353,54.79313681763597 43.28513011126779,54.63795917003881 42.80334572470747,54.94831442082068 41.17732342029922,55.25866949552437 40.695539033506066,55.1810807432048 39.912639405112714,55.25866949552437 39.00929368031211,55.25866949552437 38.10594795527868,55.10349198017502 37.9855018586386,54.87072562472895 37.14237918215804,55.025903206085786 34.25167286233045,54.94831442082068 33.04721189592965,54.63795917003881 31.541635687928647,54.01724814082263 31.120074349222705,53.9396592125413 30.517843866255134,53.706892362213694 30.036059479461983,53.08618027664488 29.433828996261582,53.00859121646499 28.89182156138122,53.16376932582352 27.98847583634779,53.00859121646499 26.784014869946986,53.31894739129348 27.386245353147388,53.9396592125413 27.44646840170026,54.40519261668669 27.326022304827347,54.63795917003881 26.904460966587067,55.025903206085786 26.663568773074076,55.025903206085786 26.181784386513755,55.56902439426631 26.001115241553634,56.267322272702586 26.001115241553634,57.43115009024041 26.121561338193715,57.663915356679354 26.723791821626946,58.43979886343004 27.326022304827347,58.905328439199366 28.22936802962795,59.138093078683596 28.83159851306118,58.827740203996655 29.19293680298142,58.905328439199366 30.276951672742143,57.58632694534026 30.216728624189273,57.27597319090273 30.337174721295014,56.96561926021241 30.096282527782023,56.03455641202163 29.795167286181822,55.56902439426631 29.855390334734693,55.1810807432048 29.734944237861782,54.94831442082068 29.253159851534292,54.40519261668669 28.47026022314094,54.327603743586224 27.747583643067628,54.40519261668669 26.723791821626946,54.79313681763597 27.145353159867227,54.482781478669494 27.205576208187267,53.9396592125413 26.844237918267027,53.31894739129348 26.603345725219697,53.31894739129348 25.519330854993314,53.862070273491554 24.736431226832792,54.56037032994209 24.55576208163984,54.482781478669494 23.17063197027892,55.879379116988275 22.267286245478317,57.043207759270445 20.279925650684163,58.827740203996655 20.099256505956873,59.060504876542836 19.43680297397077,59.21568126993952 19.31635687733069,59.526033924659714 18.533457249403,60.146738705807365 17.99144981428981,60.767442783224396 17.449442379176617,61.07779455796117 16.606319702696055,61.93126103060786 15.943866171175614,62.164024383120704 14.980297397589311,60.767442783224396 14.79962825262919,60.68985481193522 14.618959107901901,60.06915064668283 13.89628252806142,58.67256370058749 13.836059479508549,58.36221056210343 14.13717472134158,57.74150375672616 14.0167286247015,57.12079624744365 14.07695167278871,56.18973366339924 14.679182156221941,55.6466130912886 14.739405204541981,55.10349198017502 15.642750929109752,53.706892362213694 17.449442379176617,52.46546748728724 17.449442379176617,52.23270000977209 17.208550185663626,51.76716475764988 16.244981412775815,51.45680770283798 15.702973977662623,51.68957551056519 15.040520446142182,52.23270000977209 14.739405204541981,52.077521636441816 14.13717472134158,52.62064575066324 13.233828996308148,53.08618027664488 12.691821561660618,53.706892362213694 12.511152416234836,53.706892362213694 11.908921933034435,54.2500148594263 11.065799256553873,54.63795917003881 10.704460966400802,55.1810807432048 10.222676580073312,55.41384696686873 9.86133828992024,55.72420177760068 9.5,56.422499458130915 9.80111524136737,57.27597319090273 9.68066914496012,56.11214504332747 9.740892193512991,55.72420177760068 9.981784386793151,55.336258236842696 11.126022305106744,54.79313681763597 11.366914497921243,54.482781478669494 11.848698884714395,54.2500148594263 12.992936803027987,53.24135836411733 13.77583643142134,52.85341306310147 14.618959107901901,52.23270000977209 15.040520446142182,52.23270000977209 15.341635687742382,51.99993243312929 16.184758364222944,51.53439698298462 17.449442379176617,51.84475399379153 17.509665427496657,51.99993243312929 17.208550185663626,52.46546748728724 16.184758364222944,53.00859121646499 15.582527881255373,53.62930338975275 14.49851301102899,55.1810807432048 13.95650557614863,56.422499458130915 13.89628252806142,57.58632694534026 14.25762081798166,59.060504876542836 14.19739776966162,59.37085761927301 14.739405204541981,60.06915064668283 14.980297397589311,60.68985481193522 16.004089219262823,62.08643661008682 15.883643122622743,62.47437536565121 16.004089219262823,62.55196308408631 15.943866171175614,62.707138487079646 15.702973977662623,62.707138487079646 15.823420074535534,62.396787636505906 15.642750929109752,62.396787636505906 17.750557620776817,61.232970379060134 17.99144981428981,62.00884882581886 18.59368029725738,63.17266443319386 18.47323420085013,63.32783966057468 17.931226765736938,63.560602419194765 17.208550185663626,64.18130262440536 17.931226765736938,65.5778755126521 18.23234200756997,66.04339901683852 19.617472119163722,65.34511361224577 20.340148698771372,64.72441472666105 18.65390334581025,62.08643661008682 18.111895910697058,61.232970379060134 18.111895910697058,60.92261869250797 19.55724907084368,59.913974495371804 19.73791821557097,59.99156257661525 19.858364312443882,60.457090832525864 21.303717471892014,62.784726172394585 21.845724907005206,63.87095260992646 21.785501858685166,63.94854012998985 21.484386617084965,64.0261276391102 19.67769516725093,64.95717689138837 19.25613382877782,65.34511361224577 21.243494423804805,64.33647756581195 22.809293680358678,63.2502520524431 22.207063196925446,62.31919989653397 22.869516728445888,63.09507680329261 23.05018587363884,63.17266443319386 24.856877323472872,61.93126103060786 22.98996282555163,63.2502520524431 22.447955390438437,63.32783966057468 22.146840148838237,62.24161214521155 21.303717471892014,61.00020663061878 22.688847583718598,60.22432675387245 23.05018587363884,59.75879829999758 22.688847583718598,59.448445777525194 22.026394051965326,58.36221056210343 21.785501858685166,58.2070339267957 20.279925650684163,59.448445777525194 21.785501858685166,58.43979886343004 22.026394051965326,58.36221056210343 22.086617100518197,58.51738715352258 22.146840148838237,58.7501519578509 23.11040892195888,60.3019147911109 23.05018587363884,60.457090832525864 21.665055762277916,61.155382474011276 21.484386617084965,61.54332188994158 22.568401487078518,63.2502520524431 22.869516728445888,63.17266443319386 24.55576208163984,62.08643661008682 24.61598512995988,62.00884882581886 24.55576208163984,62.00884882581886 24.31486988859251,61.6209097399842 24.49553903355263,61.93126103060786 24.917100371792912,61.93126103060786 26.061338290106505,61.38814615632873 26.723791821626946,60.84503074322129 26.723791821626946,60.53467883676058 26.121561338193715,59.913974495371804 25.519330854993314,58.905328439199366 25.579553903313354,58.982916663517244 25.459107806673273,59.138093078683596 23.47174721164629,60.22432675387245 22.749070632038638,58.7501519578509 22.628624535398558,58.2070339267957 22.568401487078518,57.58632694534026 22.98996282555163,56.88803075015312 23.71263940515928,56.344910871004686 23.5921933085192,56.50008803408127 23.5921933085192,56.810442228859756 24.55576208163984,56.18973366339924 23.71263940515928,56.65526515344391 22.92973977699876,57.27597319090273 22.267286245478317,58.2070339267957 22.628624535398558,57.74150375672616 23.65241635707207,56.88803075015312 25.880669145146385,55.72420177760068 26.362453531706706,55.10349198017502 26.904460966587067,54.56037032994209 27.024907063227147,53.9396592125413 26.904460966587067,53.39653640729375 26.663568773074076,53.16376932582352 26.482899628113955,53.24135836411733 25.338661710033193,53.78448132338235 23.41152416355908,55.25866949552437" stroke="#4DD2FF" stroke-linecap="round" stroke-linejoin="round" stroke-width="0.5"><title>2025-02-04 5.7km</title><desc>13532956149</desc></polyline></svg>