<?xml version="1.0" encoding="utf-8" ?>
<svg baseProfile="full" height="130mm" version="1.1" viewBox="0,0,100,130" width="100mm" xmlns="http://www.w3.org/2000/svg" xmlns:ev="http://www.w3.org/2001/xml-events" xmlns:xlink="http://www.w3.org/1999/xlink"><defs /><rect fill="#222222" height="130" width="100" x="0" y="0" /><text fill="#FFFFFF" style="font-size:6px; font-family:Arial; font-weight:bold;" x="5" y="10">2025-03-26 Workouts</text><text fill="#FFFFFF" style="font-size:4px; font-family:Arial" x="5" y="121">Runner</text><text fill="#FFFFFF" style="font-size:6px; font-family:Arial" x="2" y="128">蓝皮书</text><text fill="#FFFFFF" style="font-size:4px; font-family:Arial" x="25" y="121">STATISTICS</text><text fill="#FFFFFF" style="font-size:3px; font-family:Arial" x="25" y="125">Number: 1</text><text fill="#FFFFFF" style="font-size:3px; font-family:Arial" x="5" y="129">Weekly: 1.0</text><text fill="#FFFFFF" style="font-size:3px; font-family:Arial" x="48" y="125">Total: 10.0 km</text><text fill="#FFFFFF" style="font-size:3px; font-family:Arial" x="48" y="129">Avg: 10.0 km</text><text fill="#FFFFFF" style="font-size:3px; font-family:Arial" x="75" y="125">Min: 10.0 km</text><text fill="#FFFFFF" style="font-size:3px; font-family:Arial" x="75" y="129">Max: 10.0 km</text><polyline fill="none" points="18.348739495500922,55.957121189450845 12.22268907725811,65.46310189762153 15.285714285448194,81.88245587353595 22.432773109525442,84.90706442086957 61.23109243810177,83.17871703254059 79.6092436965555,83.61080396873876 88.45798319205642,76.6974059259519 88.45798319205642,63.73474389174953 75.86554621718824,55.52503047790378 48.29831932671368,56.38921184069477 38.76890756376088,55.957121189450845 17.66806722804904,57.25339296692982 11.201680671423674,70.64817025070079 21.752100840210915,84.90706442086957 53.40336134470999,84.47497766255401 75.52521008253098,83.61080396873876 86.07563025318086,79.72201942792162 90.15966386534274,69.35190395847894 83.35294117592275,57.68548344098963 68.03781512565911,55.957121189450845 52.72268907353282,56.38921184069477 47.6176470592618,57.25339296692982 19.369747899472713,57.68548344098963 11.201680671423674,66.32728054607287 11.542016807943583,77.99366920860484 21.411764707416296,85.33915112004615 63.273109244182706,85.33915112004615 86.41596638597548,79.72201942792162 90.5,71.51234748307616 85.05462184734643,59.413844750029966 56.12605042010546,55.957121189450845 53.40336134470999,54.660848879953846 32.64285714365542,56.82130243233405 17.327731093391776,57.68548344098963 10.861344538629055,68.91981507721357 13.58403361402452,79.72201942792162 23.11344537883997,84.47497766255401 64.97478991560638,84.04289084416814 76.54621848650277,81.88245587353595 79.26890756189823,81.45036870241165 85.05462184734643,78.85784443630837 86.75630252063274,61.57429505838081 76.88655462302268,55.09293970791623 61.57142856903374,56.82130243233405 53.743697479367256,56.82130243233405 32.64285714365542,55.957121189450845 12.903361346572638,65.89519125106744 13.924369748681784,79.72201942792162 66.33613445423543,84.90706442086957 86.75630252063274,78.85784443630837 89.13865546137094,67.62354807648808 83.69327731058002,58.9817545118276 72.80252100899816,55.52503047790378 61.57142856903374,56.38921184069477 37.0672268923372,56.38921184069477 13.58403361402452,61.142205114942044 11.542016807943583,77.12949374574237 19.710084034129977,83.17871703254059 79.9495798330754,81.45036870241165 85.73529411666095,75.83323010848835 85.05462184734643,62.00638494384475 55.44537815079093,57.25339296692982 12.903361346572638,64.16683348244987 13.924369748681784,80.5861941834446 29.239495798945427,83.61080396873876 63.95378151163459,83.17871703254059 86.75630252063274,76.6974059259519 85.05462184734643,61.57429505838081 76.2058823518455,55.957121189450845 58.50840336084366,55.52503047790378 40.47058823518455,55.52503047790378 27.19747899286449,55.52503047790378 14.945378152653575,59.413844750029966 10.861344538629055,69.78399278083816 13.58403361402452,80.5861941834446 43.193277310580015,84.90706442086957 53.06302521005273,83.17871703254059 80.28991596587002,82.74663003906608 88.11764705739915,74.10487776622176 87.09663865529001,63.30265424400568 79.26890756189823,56.82130243233405 62.93277310952544,56.38921184069477 48.97899159602821,57.25339296692982 35.70588235370815,56.82130243233405 29.239495798945427,55.957121189450845 14.605042017996311,59.413844750029966 10.180672269314528,68.91981507721357 14.264705881476402,80.15410683467053 35.70588235370815,84.90706442086957 67.69747899100184,84.04289084416814 84.7142857145518,78.85784443630837 88.45798319205642,66.32728054607287 79.9495798330754,57.25339296692982 68.37815125845373,56.82130243233405 47.6176470592618,56.82130243233405 31.621848739683628,56.82130243233405 18.348739495500922,58.549664213554934 11.542016807943583,74.10487776622176 22.09243697486818,83.61080396873876 43.193277310580015,83.17871703254059 79.26890756189823,82.74663003906608 87.43697478994727,74.10487776622176 86.07563025318086,62.87056453549303 79.26890756189823,56.38921184069477 43.193277310580015,56.82130243233405 18.348739495500922,57.25339296692982 9.5,70.64817025070079 20.731092436239123,84.47497766255401 59.86974789761007,83.17871703254059 81.9915966372937,81.45036870241165 88.11764705739915,69.35190395847894 84.7142857145518,60.27802505088039 63.273109244182706,55.09293970791623 38.76890756376088,55.52503047790378 19.369747899472713,57.25339296692982 11.542016807943583,65.03101248550229 15.626050421968102,81.45036870241165 25.836134454235435,84.04289084416814 38.76890756376088,84.04289084416814 73.14285714179277,84.04289084416814 86.75630252063274,76.6974059259519 85.73529411666095,60.7101151116658 54.08403361402452,54.660848879953846 38.76890756376088,56.38921184069477 28.5588235296309,57.25339296692982 14.945378152653575,58.11757385591045 9.5,71.08025889634155 13.924369748681784,81.45036870241165 39.10924369841814,83.61080396873876 51.02100840397179,84.04289084416814 82.33193277195096,81.88245587353595 89.13865546137094,68.91981507721357 81.31092436797917,56.38921184069477 70.42016806639731,55.957121189450845 62.252100840210915,55.957121189450845 26.85714285634458,56.38921184069477 15.285714285448194,59.413844750029966 11.201680671423674,74.96905405563302 16.306722689419985,82.31454298598692 38.42857142724097,82.74663003906608 75.18487394973636,83.17871703254059 83.69327731058002,79.28993196156807 87.77731092274189,71.51234748307616 81.9915966372937,57.25339296692982 58.50840336084366,55.09293970791623 34.68487394973636,57.25339296692982 16.987394958734512,58.549664213554934 10.180672269314528,71.08025889634155 15.966386556625366,81.45036870241165 42.17226890847087,83.17871703254059 68.03781512565911,83.61080396873876 85.73529411666095,77.99366920860484 86.41596638597548,62.00638494384475 78.58823529444635,55.957121189450845 71.10084033757448,55.52503047790378 63.273109244182706,55.957121189450845 43.87394957989454,55.52503047790378 28.218487394973636,55.957121189450845 14.264705881476402,60.7101151116658 10.521008403971791,71.94443601137027 15.285714285448194,82.31454298598692 27.537815127521753,83.61080396873876 54.424369748681784,81.45036870241165 77.56722689047456,82.74663003906608 88.45798319205642,71.51234748307616 86.75630252063274,61.57429505838081 77.56722689047456,55.957121189450845 59.189075630158186,55.957121189450845 47.6176470592618,56.38921184069477 38.76890756376088,54.660848879953846 25.836134454235435,55.957121189450845 13.58403361402452,61.57429505838081 10.521008403971791,73.6727895338554 21.071428570896387,83.61080396873876 38.42857142724097,82.74663003906608 58.50840336084366,82.74663003906608 82.33193277195096,81.01828147144988 88.11764705739915,72.37652448005974 86.07563025318086,60.7101151116658 62.59243697486818,56.82130243233405 52.3823529407382,57.25339296692982 36.38655462116003,55.957121189450845 13.243697479367256,62.43847476900555 11.882352940738201,76.26531804748811 18.68907563202083,83.17871703254059 52.04201680608094,83.61080396873876 84.37394957989454,80.15410683467053 88.45798319205642,68.91981507721357 80.28991596587002,57.68548344098963 64.63445378094912,58.9817545118276 59.52941176481545,58.549664213554934 17.66806722804904,58.549664213554934 11.201680671423674,69.35190395847894 15.966386556625366,80.5861941834446 78.92857142724097,81.01828147144988 87.43697478994727,68.91981507721357 83.01260504126549,59.84593493049033 70.07983193174005,55.957121189450845 54.08403361402452,55.957121189450845 34.00420168042183,57.25339296692982 15.285714285448194,60.7101151116658 10.861344538629055,71.51234748307616 14.605042017996311,81.88245587353595 78.58823529444635,80.15410683467053 86.07563025318086,74.10487776622176 81.9915966372937,60.27802505088039 27.19747899286449,59.413844750029966 17.327731093391776,62.00638494384475 12.563025210052729,73.24070124095306 16.987394958734512,80.5861941834446 47.95798319391906,81.45036870241165" stroke="#FFFF00" stroke-linecap="round" stroke-linejoin="round" stroke-width="0.5"><title>2025-03-26 10.0km</title><desc>13987573538</desc></polyline></svg>