<?xml version="1.0" encoding="utf-8" ?>
<svg baseProfile="full" height="150mm" version="1.1" viewBox="0,0,100,150" width="100mm" xmlns="http://www.w3.org/2000/svg" xmlns:ev="http://www.w3.org/2001/xml-events" xmlns:xlink="http://www.w3.org/1999/xlink"><defs /><rect fill="#222222" height="150" width="100" x="0" y="0" /><text fill="#FFFFFF" style="font-size:12px; font-family:Arial; font-weight:bold;" x="10" y="20">2025-05-24 Workouts</text><text fill="#FFFFFF" style="font-size:4px; font-family:Arial" x="10" y="130">Runner</text><text fill="#FFFFFF" style="font-size:9px; font-family:Arial" x="10" y="140">蓝皮书</text><text fill="#FFFFFF" style="font-size:4px; font-family:Arial" x="65" y="130">SPECIAL TRACKS</text><rect fill="yellow" height="2.6" width="2.6" x="65" y="133" /><text fill="#FFFFFF" style="font-size:3px; font-family:Arial" x="70" y="135.5">Over 10.0 km</text><rect fill="red" height="2.6" width="2.6" x="65" y="137" /><text fill="#FFFFFF" style="font-size:3px; font-family:Arial" x="70" y="139.5">Over 15.0 km</text><text fill="#FFFFFF" style="font-size:4px; font-family:Arial" x="120" y="130">STATISTICS</text><text fill="#FFFFFF" style="font-size:3px; font-family:Arial" x="120" y="135">Number: 1</text><text fill="#FFFFFF" style="font-size:3px; font-family:Arial" x="120" y="140">Weekly: 1.0</text><text fill="#FFFFFF" style="font-size:3px; font-family:Arial" x="141" y="135">Total: 13.7 km</text><text fill="#FFFFFF" style="font-size:3px; font-family:Arial" x="141" y="140">Avg: 13.7 km</text><text fill="#FFFFFF" style="font-size:3px; font-family:Arial" x="167" y="135">Min: 13.7 km</text><text fill="#FFFFFF" style="font-size:3px; font-family:Arial" x="167" y="140">Max: 13.7 km</text><polyline fill="none" points="21.304020100506023,56.54369784283335 22.321608040248975,56.33973452135979 23.63316582911648,56.31059688751702 24.198492462397553,56.077495667588664 24.922110552783124,56.0483579965512 26.640703517594375,55.75698105842457 27.36432160809636,55.669567896431545 27.590452261385508,55.72784334192693 28.585427135694772,55.523879210421 29.89698492467869,55.14508814329747 31.25376884418074,55.05767472097068 31.525125628104433,55.26163931527117 31.61557788948994,55.72784334192693 31.728643216076307,58.233671860041795 31.909547738730907,58.52504528553982 32.24874371860642,58.67073184343462 32.81407035177108,58.4376333012915 33.605527638224885,57.388686589110876 34.17085427127313,56.9224863312993 36.18341708544176,55.669567896431545 38.01507537695579,54.329228088317905 38.331658291397616,54.21267638748395 38.76130653265864,54.53319340583403 38.76130653265864,56.864211224688916 38.62562814063858,57.15558659247472 38.80653266329318,57.971435423663934 38.80653266329318,59.370025882919435 39.05527638201602,60.797743823044584 39.394472361775115,61.613578191623674 40.208542713546194,61.7883994205622 40.47989949746989,61.73012569411367 41.99497487442568,61.90494682380813 46.67587939708028,62.895597082708264 48.12311557796784,63.01214385787898 48.37185929645784,62.808186957845464 48.77889447240159,63.041280541423475 50.429648241144605,63.041280541423475 50.610552763799205,63.09955389598326 51.06281407026108,62.9830071702454 51.221105527714826,63.157827234012075 51.96733668341767,63.01214385787898 52.46482412063051,63.12869056702766 52.46482412063051,64.06106186016405 52.26130653265864,64.87688327075739 52.35175879392773,67.14951154813753 52.170854271389544,69.68433651018131 52.19346733670682,72.01518244000908 52.080402010004036,72.24826557878987 52.19346733670682,72.36480704901624 52.216080401907675,73.06405448219448 52.080402010004036,73.29713643109426 52.01256281405222,73.90897528913047 52.14824120607227,74.57908242414123 52.28391959797591,74.84129766469414 52.23869346734136,75.51140175931505 52.35175879392773,75.7444809320441 53.143216080381535,75.97755984048126 53.12060301506426,76.793333937836 53.36934673367068,78.5122758980433 54.04773869342171,81.1343630553456 54.74874371860642,82.38712621867307 55.359296482405625,83.05720570578706 55.7437185930321,83.90208542293112 57.37185929645784,86.52410380601941 58.954773869365454,89.00042378185026 59.45226130646188,89.08782276521379 59.49748743721284,88.94215777225327 59.81407035177108,88.97129077915451 60.605527638224885,88.65082747663837 60.71859296481125,88.67996052475064 60.87688442214858,89.20435468523647 61.28391959797591,89.3791524413682 61.5552763818996,89.32088653919345 61.80402010050602,89.17522171144083 62.030150753678754,88.59256136794284 62.505025125690736,88.41776294271403 63.56783919595182,87.66030138207134 64.06532663316466,87.5729017915146 65.35427135671489,87.66030138207134 66.48492462304421,88.00989937236591 67.09547738695983,88.41776294271403 68.06783919595182,89.61221588485932 68.40703517594375,91.06885641845292 69.01758793974295,91.12712182504765 69.87688442203216,92.49635412405769 70.01256281405222,96.22528093967412 70.14824120595586,96.60399628453888 74.28643216076307,96.60399628453888 74.4447236181004,96.07962100575969 74.2638190954458,94.73954477027291 74.37688442203216,94.50648714163981 74.28643216076307,92.58375162060838 74.67085427127313,92.40895659025409 76.00502512557432,92.350691547108 77.13567839190364,92.37982407066738 77.47487437177915,92.64201659767423 77.47487437177915,93.31206264659704 77.15829145722091,95.35131978787831 77.15829145722091,96.05048900662223 77.3391959797591,96.72052394243656 77.83668341708835,96.60399628453888 81.27386934682727,96.72052394243656 81.88442211051006,96.45833661904908 81.8391959797591,94.97260213458503 81.88442211051006,92.90420879004523 82.1105527637992,92.23416141123744 83.51256281405222,91.24365258857142 84.32663316570688,90.34053744233097 84.80150753771886,90.0200762750901 84.80150753771886,90.34053744233097 84.86934673367068,90.45706865192915 85.23115577886347,90.48620144395682 86.0,90.86492736526998 85.68341708532535,90.80666188441683 85.3894472362008,90.57359979547618 85.0276381908916,90.54446701581765 84.7562814069679,89.96181055459601 85.00502512569074,89.20435468523647 85.2085427135462,87.92249993050063 84.93718592950609,86.64063717979298 84.39447236177512,85.41703345837595 83.39949748734944,84.48475906600652 82.26884422102012,83.7564167540695 81.52261306531727,83.46507910636137 81.59045226126909,83.55248044399195 80.36934673367068,83.20287487034511 77.47487437177915,82.67846539456514 76.25376884418074,82.56192977377214 75.12311557785142,82.67846539456514 74.2638190954458,82.64933149560238 74.12814070342574,82.73673318019428 73.56281407026108,82.64933149560238 72.38693467329722,82.96980415750295 71.64070351759437,83.05720570578706 70.91708542709239,83.37767773155065 70.14824120595586,83.40681152734032 69.17587939696386,83.6398817445588 68.54271356784739,83.84381796777598 67.97738693468273,84.07688768937078 67.00502512557432,83.9312191443023 66.57537688442972,84.04775398859056 65.19597989949398,83.90208542293112 63.90703517582733,83.52334666896786 63.59045226126909,83.31941012767493 63.00251256278716,83.29027631950157 62.73115577897988,83.31941012767493 62.73115577897988,83.81468423403567 62.36934673367068,84.42649177604471 62.34673366823699,84.86349604801217 62.55025125620887,85.24223233194789 62.79899497481529,85.44616696496087 63.38693467329722,85.50443396581977 63.72613065328915,85.32963291379565 63.997487437096424,84.92176321410807 63.997487437096424,84.42649177604471 63.816582914441824,84.04775398859056 63.5,83.81468423403567 63.16080402012449,83.7564167540695 62.4371859296225,84.13515507840202 62.278894472285174,84.74696166637295 62.45979899482336,85.15483171309461 62.84422110556625,85.47530046747124 63.454773869365454,85.50443396581977 63.90703517582733,85.18396525685966 64.08793969848193,84.60129359640996 63.816582914441824,84.0186202837649 63.54522613075096,83.81468423403567 63.115577889373526,83.69814925755782 62.66331658279523,83.9312191443023 62.391959798987955,84.28082347891177 62.36934673367068,84.92176321410807 62.73115577897988,85.44616696496087 63.206030150759034,85.56270095019136 63.83919597987551,85.27136586340202 64.04271356784739,84.95089679096418 64.08793969848193,84.57215997003368 63.793969849240966,83.9894865747774 63.52261306531727,83.78555049613351 63.00251256278716,83.66901550306648 62.84422110556625,83.31941012767493 62.73115577897988,83.26114250728278 61.66834170848597,83.9894865747774 60.967336683534086,84.95089679096418 60.46984924620483,85.41703345837595 59.40703517594375,86.69890384195605 58.8190954773454,86.96110361706815 58.52512562798802,86.64063717979298 57.98241206025705,85.67923486916698 57.891959798987955,85.00916393216175 58.00502512557432,84.28082347891177 58.29899497481529,83.7272830078291 59.09045226138551,83.02807186050632 59.06783919595182,82.76586706680246 58.796482412028126,82.67846539456514 58.41206030140165,82.8241348277079 57.12311557785142,83.7272830078291 56.58040201012045,84.16428876679856 56.21859296481125,84.5430263394519 55.42713567847386,83.31941012767493 54.56783919595182,84.13515507840202 54.47738693468273,84.42649177604471 53.9572864320362,84.68869445075688 53.16582914581522,85.3878999476874 51.51507537695579,86.40757036599098 47.71608040202409,89.20435468523647 44.68592964822892,91.30191794560233 42.49246231163852,92.87507634077338 42.01758793974295,93.3411950339214 41.33919597987551,93.80731266998919 41.02261306531727,93.8947096089978 40.954773869365454,94.09863565558044 40.66080402012449,94.18603247069404 38.62562814063858,95.75916878793214 37.47236180899199,96.48746856041544 35.27889447240159,98.32277253989014 34.849246231256984,98.46843088386231 33.17587939708028,99.72108838048007 32.723618090501986,100.01240298310586 32.15829145733733,100.15806012948451 31.163316582911648,98.7888788771379 31.050251256325282,98.75974726208369 31.02763819100801,98.49756254031672 30.16834170848597,97.62361105173477 30.100502512650564,97.36142488046607 29.489949748734944,96.57486435964529 28.834170854301192,95.84656489689951 28.5628140703775,95.35131978787831 28.087939698598348,94.7104125811311 27.771356783923693,94.53561935971084 27.454773869365454,94.09863565558044 27.29648241214454,94.06950337563467 27.18341708544176,93.66165102233936 26.93467336683534,93.3411950339214 26.889447236200795,92.99160611318075 26.640703517594375,92.87507634077338 26.45979899505619,92.58375162060838 25.871859296457842,92.05936608363118 24.04020100494381,89.61221588485932 23.42964824126102,88.97129077915451 23.42964824126102,88.50516217391123 23.1809045226546,88.41776294271403 22.52512562822085,87.68943457062414 21.349246231256984,86.08710306542343 21.21356783923693,85.76663526517223 19.856783919618465,84.36822446966835 19.042713567847386,83.05720570578706 18.296482412028126,82.21232251483889 18.115577889373526,81.74617857763951 17.889447236200795,81.45483807993878 17.572864321642555,81.25089948577806 17.437185929738916,80.87215584528167 16.962311557726935,80.17293498266372 16.035175879485905,78.97842717147432 15.741206030244939,78.74535166696296 15.582914572907612,78.36660340822709 15.22110552759841,78.04612356716825 14.045226130634546,76.47285164304776 14.135678392020054,75.01610763921053 14.0,73.29713643109426 14.135678392020054,71.51987989223562 14.06783919595182,69.18902834359324 14.226130653405562,68.08186459520948 14.158291457337327,66.62506109986862 14.293969849240966,65.54701986332657 14.1809045226546,64.03192532123649 14.316582914674655,63.62401334322931 14.1809045226546,61.001702718946035 14.520100502530113,59.42830027871241 14.520100502530113,58.02971021627309 14.610552763799205,57.65092376922257 14.814070351771079,57.388686589110876 15.153266331763007,57.446961546942475 15.876884422148578,57.27213662381109 16.125628140754998,57.35954910401779 16.4874371860642,57.21386161635746 18.386934673413634,57.097311551944586 18.61306532670278,56.9516238784272 19.698492462397553,56.805936101518455 19.924623115570284,56.9516238784272 20.354271356831305,56.66024822134932 20.942211055429652,56.718523385876324 21.258793969871476,56.57283544370148 21.53015075379517,56.60197304037865 21.665829145698808,56.48542262877163 22.457286432152614,56.48542262877163 22.88693467329722,56.514560237919795 25.532663316698745,55.960944958540495 26.550251256325282,55.78611877087678 26.77638190961443,55.8443941832229 27.341708542662673,55.69870562122378 27.63567839190364,55.465603707169066 29.173366834176704,55.43646594922757 29.422110552783124,55.31991487645428 29.670854271389544,55.37819042117917 30.552763819112442,55.11595034002676 30.733668341767043,55.20336373761529 31.321608040248975,55.11595034002676 31.547738693538122,55.26163931527117 31.525125628104433,56.22318396100309 31.751256281509995,57.85488578901277 31.660804020124488,59.2243398209248 31.231155778979883,59.923631976067554 30.326633165823296,60.97256574618223 29.693467336706817,62.07976780485478 29.105527638224885,62.7499135206308 28.42713567847386,63.39092042087577 28.517587939742953,63.216100555466255 29.512562814052217,62.57509310988826 29.64824120607227,62.77905024134088 29.987437185947783,62.895597082708264 30.190954773919657,63.12869056702766 30.190954773919657,66.65419727098197 30.010050251265056,68.02359265364066 30.055276381899603,69.07248507211625 30.258793969871476,68.60631132494018 30.28140703518875,66.2462904991553 30.43969849240966,65.8092466306116 30.326633165823296,65.25565639600973 30.39447236189153,64.06106186016405 30.236180904554203,62.45854608670925 30.484924623044208,61.58444130560383 32.49748743721284,59.10779089696007 33.40201005025301,57.53437395275978 34.32914572872687,56.83507366520644 35.73115577886347,56.0483579965512 36.002512562903576,55.78611877087678 37.31407035177108,55.028536905301735 37.44974874379113,54.82457207959669 38.173366834176704,54.18353845187812 38.08291457290761,54.06698666830198 37.90201005025301,54.06698666830198 37.76633165834937,54.24181431888428 37.291457286453806,54.620607051387196 36.364321607979946,55.23250152853143 36.138190954807214,55.29077709799458 35.6180904522771,55.69870562122378 35.30150753771886,55.78611877087678 34.826633165823296,56.252321607316844 33.78643216076307,56.864211224688916 33.356783919618465,57.24299912218703 32.94974874367472,57.85488578901277 32.58793969848193,58.233671860041795 32.40703517582733,58.20453449476918 32.0,57.76747351960512 32.09045226126909,56.9807614213787 32.293969849240966,57.03903649492713 32.31658291455824,56.805936101518455 32.0,55.873531883291434 31.909547738730907,54.88284776477667 32.3618090453092,53.28026039971155 32.76884422113653,51.444554056884954 33.108040201012045,51.59024563569983 33.13065326632932,51.852490217308514 33.08542713569477,51.79421367250325 33.40201005025301,51.53196901662159 33.673366834176704,50.949201916053426 33.424623115570284,50.36643316237314 33.2437185930321,50.33729468124511 33.06281407026108,50.512125505760196 33.108040201012045,50.89092511507624 32.90452261304017,51.269724025944015 32.859296482405625,51.99818150677311 32.94974874367472,52.231287355170934 33.288944723666646,52.37697837607993 33.31155778898392,52.49353111843811 33.96733668341767,52.31870198015531 34.374371859245,52.31870198015531 34.600502512650564,52.46439293907315 34.98492462304421,51.939905003411695 35.30150753771886,51.79421367250325 35.527638190891594,51.852490217308514 35.7989949749317,51.59024563569983 35.391959798987955,51.2405856729456 34.93969849240966,51.18230895460874 34.374371859245,50.71609461294429 33.71859296481125,50.27901770664903 33.19849246239755,50.045909643071354 33.108040201012045,50.19160221386119 32.63316582911648,49.84193987051549 32.45226130657829,50.01677111659956 32.45226130657829,50.395571639281115 31.412060301518068,54.73715852081659 31.457286432152614,55.494741460861405 31.389447236200795,55.20336373761529 31.20854271366261,55.11595034002676 29.82914572872687,55.31991487645428" stroke="yellow" stroke-linecap="round" stroke-linejoin="round" stroke-width="0.5"><title>2025-05-24 13.7km</title><desc>14574391100</desc></polyline></svg>