<?xml version="1.0" encoding="utf-8" ?>
<svg baseProfile="full" height="150mm" version="1.1" viewBox="0,0,100,150" width="100mm" xmlns="http://www.w3.org/2000/svg" xmlns:ev="http://www.w3.org/2001/xml-events" xmlns:xlink="http://www.w3.org/1999/xlink"><defs /><rect fill="#222222" height="150" width="100" x="0" y="0" /><text fill="#FFFFFF" style="font-size:6px; font-family:Arial; font-weight:bold;" x="10" y="20">2025-05-25 Workouts</text><text fill="#FFFFFF" style="font-size:4px; font-family:Arial" x="10" y="130">Runner</text><text fill="#FFFFFF" style="font-size:6px; font-family:Arial" x="10" y="140">蓝皮书</text><text fill="#FFFFFF" style="font-size:4px; font-family:Arial" x="65" y="130">SPECIAL TRACKS</text><rect fill="yellow" height="2.6" width="2.6" x="65" y="133" /><text fill="#FFFFFF" style="font-size:3px; font-family:Arial" x="70" y="135.5">Over 10.0 km</text><rect fill="red" height="2.6" width="2.6" x="65" y="137" /><text fill="#FFFFFF" style="font-size:3px; font-family:Arial" x="70" y="139.5">Over 15.0 km</text><text fill="#FFFFFF" style="font-size:4px; font-family:Arial" x="120" y="130">STATISTICS</text><text fill="#FFFFFF" style="font-size:3px; font-family:Arial" x="120" y="135">Number: 1</text><text fill="#FFFFFF" style="font-size:3px; font-family:Arial" x="120" y="140">Weekly: 1.0</text><text fill="#FFFFFF" style="font-size:3px; font-family:Arial" x="141" y="135">Total: 6.3 km</text><text fill="#FFFFFF" style="font-size:3px; font-family:Arial" x="141" y="140">Avg: 6.3 km</text><text fill="#FFFFFF" style="font-size:3px; font-family:Arial" x="167" y="135">Min: 6.3 km</text><text fill="#FFFFFF" style="font-size:3px; font-family:Arial" x="167" y="140">Max: 6.3 km</text><polyline fill="none" points="86.0,53.65232691113488 85.1238367932383,53.51951762486715 83.42304939148016,53.585922272643074 79.24838940589689,54.183563680096995 78.26914817467332,54.183563680096995 76.36220472422428,54.38277731311973 75.84681460261345,54.38277731311973 75.02219040784985,54.38277731311973 73.57909806724638,54.44918183851405 71.77523264125921,54.648395358613925 68.94058697205037,54.980417703365674 66.31209735153243,55.246035410120385 65.28131710807793,55.445248590782285 62.395132426405326,55.51165296576801 61.570508231874555,55.312439813045785 60.79742304957472,55.71086603385629 59.508947745198384,55.246035410120385 57.80816034344025,54.78120432465221 57.44738725828938,56.17569619609276 57.44738725828938,57.10535513682407 57.705082319211215,57.702992052945774 58.37508947751485,59.09747522432008 58.22047244105488,59.62870581628522 57.086614173138514,60.027128364978125 56.468146027298644,60.890376057475805 56.62276306352578,62.55046330121695 56.62276306352578,63.94493203854654 56.77738010045141,65.5386055111303 57.03507516114041,67.26507898647105 56.880458124680445,68.32752103870735 56.519685039296746,70.31959339007153 56.26198997837491,71.78044106267043 56.21045096614398,72.37805925152497 55.74659985676408,73.37408787195454 55.54044380807318,74.43651606541243 55.23120973515324,76.03015383685124 55.076592698460445,77.35818117059534 54.92197566200048,79.08461107459152 54.71581961354241,81.54144265811192 54.61274158908054,84.33026289186091 54.81889763777144,88.24786326676258 54.56120257708244,90.17345143904095 54.251968503929675,94.55579501006287 54.20042949169874,95.15338413821883 54.35504652815871,97.27813930786215 54.56120257708244,98.93809757757117 54.56120257708244,99.73487545721582 54.35504652815871,100.53165198152419 53.32426628493704,100.53165198152419 52.035790980793536,100.86364179998054 48.6857551895082,101.39482501990278 45.49033643514849,101.99240542229381 44.511095203924924,102.19159872032469 43.84108804585412,103.78514205510146 43.944166070083156,104.31632196184364 42.39799570501782,104.05073208382237 41.21259842533618,102.8555757686845 40.95490336441435,101.26202927134 40.90336435241625,100.46525398961967 40.697208303492516,99.07089398481185 40.439513242803514,96.61415435280651 40.38797423057258,96.14936432417016 39.56335003580898,95.15338413821883 38.06871868297458,95.41897906165104 36.625626342138276,96.08296571113169 33.790980672929436,96.01656708840164 31.935576234944165,95.95016845635837 30.956335003720596,95.75097250397084 29.667859699344262,93.95820511938655 28.37938439520076,91.70063642927562 28.01861131004989,90.9038448818028 26.884753042133525,88.24786326676258 26.627057981444523,85.99026705150027 26.523979957215488,85.52546647988493 25.235504652839154,83.46705840356299 24.101646385155618,81.67424399827723 23.586256263311952,81.27583986503305 23.019327129703015,80.47903058197699 21.833929849788547,78.48700144345639 21.26700071594678,76.29575960480724 20.957766642561182,75.49894184881123 19.772369362879544,72.31165726823383 19.411596277728677,71.18282211091719 19.25697924126871,70.78440905275056 16.576950608519837,69.78837492494495 15.649248389294371,69.12435099601862 14.360773085150868,66.99946809679386 14.360773085150868,65.87062013536342 14.20615604845807,65.27299364228384 14.154617036692798,64.27694779253216 14.309234073152766,63.214496551139746 16.783106657210737,63.28089982425445 19.411596277728677,62.88248004374327 19.205440229037777,59.827917132904986 19.153901217039675,58.898263596813194 19.153901217039675,58.03501223222702 19.102362204808742,56.37490898172837 19.05082319257781,55.77727037097793 19.978525411570445,55.445248590782285 22.09162491071038,54.78120432465221 22.452397995861247,53.91794537109672 23.895490336464718,53.65232691113488 25.39012168929912,53.51951762486715 26.523979957215488,52.921875370142516 26.523979957215488,50.73051391050103 26.36936292075552,48.87116887312732 26.78167501790449,47.54306075494969 27.81245526135899,46.879005283437436 29.874015748035163,46.746194076084066 33.84251968516037,47.67587173631182 34.92483894061297,48.73835823056288 36.36793128144927,48.80476355648716 36.88332140306011,47.54306075494969 36.98639942728914,45.949326041387394 37.29563350020908,45.48448572822963 40.078740157419816,46.28135455393931 41.72798854694702,46.67978845824837 45.335719398921356,46.9454108728678 46.31496062991209,47.74227721279021 47.50035790982656,48.00789902478573 48.994989262893796,47.54306075494969 49.14960629935376,48.27352068593609 52.448103077942505,52.78906587639358 53.11811023624614,54.183563680096995 53.37580529716797,54.44918183851405 54.50966356485151,55.51165296576801 56.77738010045141,55.445248590782285 57.34430923406035,56.042887625459116 57.498926270753145,57.503779832302826 58.22047244105488,59.031071357720066 57.292770221829414,59.827917132904986 56.36506800283678,61.08958683718811 56.15891195414588,61.753622158576036 56.57122405152768,62.88248004374327 56.82891911221668,65.60500845478964 57.03507516114041,66.86666259547928 56.77738010045141,68.32752103870735 56.36506800283678,69.65557021452696 56.26198997837491,70.58520239687641 56.055833929916844,71.44843062807922 55.12813171092421,75.36613875790499 55.23120973515324,76.69416797434678 54.92197566200048,78.48700144345639 54.81889763777144,79.81502181047108 54.56120257708244,81.87344593767193 54.870436650002375,86.05666709554498 54.14889047970064,92.56382574280724 54.09735146746971,93.49341245516553 54.045812455238774,94.55579501006287 54.35504652815871,100.26605995727004 53.16964924847707,100.39885598813999 50.386542591266334,100.93003973536543 48.376521116821095,101.5940185720101 44.717251252848655,101.99240542229381 43.78954903362319,103.45315430746996 43.480314960703254,104.1171295675158 42.088761632330716,103.58594943472417 41.31567644956522,102.72278043429833 41.057981388643384,101.99240542229381 41.00644237664528,100.86364179998054 40.80028632772155,98.87169935979182 40.645669291261584,97.5437330265122 40.38797423057258,96.14936432417016 39.40873299934901,95.21978288324317 37.811023622052744,95.41897906165104 36.16177523275837,95.88376981503097 34.66714387969114,95.88376981503097 32.554044380784035,95.81737116424483 31.110952039947733,95.81737116424483 29.152469577733427,93.1614174125134 28.740157480351627,91.89983410434797 27.915533285588026,90.57184800342657 27.657838224899024,90.23985088992049 27.142448103055358,88.44706241015228 26.98783106659539,87.58386550933938 26.678596993675455,86.25586717089755 26.008589835371822,84.66226419439772 24.462419470306486,82.40465069553466 23.53471725131385,80.94383616186678 22.400858983630314,79.48301707179053 21.88546886178665,78.22139691800112 21.11238367925398,75.69814641482662 20.339298496954143,73.37408787195454 19.926986399572343,72.04604924071464 19.411596277728677,70.78440905275056 19.66929133865051,70.38599565590266 20.957766642561182,69.3899606805353 21.93700787401758,67.19867627811618 23.94702934846282,65.7378143138776 26.214745884062722,65.0737846417178 27.503221188206226,64.07773836844717 28.63707945588976,63.015286674926756 29.667859699344262,62.9488833641517 32.29634932009503,62.284849737770855 33.6879026487004,62.0192360234505 36.31639226921834,61.48800814297283 37.14101646398194,61.22239397681551 41.77952755917795,60.624761552142445 46.366499641910195,60.093532090075314 49.8711524696555,59.495898224791745 52.035790980793536,58.167820237897104 52.96349319978617,57.57018391528982 56.36506800283678,55.71086603385629 57.39584824629128,55.77727037097793 56.107372941914946,55.77727037097793" stroke="#4DD2FF" stroke-linecap="round" stroke-linejoin="round" stroke-width="0.5"><title>2025-05-25 6.3km</title><desc>14584477763</desc></polyline></svg>