<?xml version="1.0" encoding="utf-8" ?>
<svg baseProfile="full" height="130mm" version="1.1" viewBox="0,0,100,130" width="100mm" xmlns="http://www.w3.org/2000/svg" xmlns:ev="http://www.w3.org/2001/xml-events" xmlns:xlink="http://www.w3.org/1999/xlink"><defs /><rect fill="#222222" height="130" width="100" x="0" y="0" /><text fill="#FFFFFF" style="font-size:6px; font-family:Arial; font-weight:bold;" x="5" y="10">2025-03-23 Workouts</text><text fill="#FFFFFF" style="font-size:4px; font-family:Arial" x="5" y="121">Runner</text><text fill="#FFFFFF" style="font-size:6px; font-family:Arial" x="2" y="128">蓝皮书</text><text fill="#FFFFFF" style="font-size:4px; font-family:Arial" x="25" y="121">STATISTICS</text><text fill="#FFFFFF" style="font-size:3px; font-family:Arial" x="25" y="125">Number: 1</text><text fill="#FFFFFF" style="font-size:3px; font-family:Arial" x="5" y="129">Weekly: 1.0</text><text fill="#FFFFFF" style="font-size:3px; font-family:Arial" x="48" y="125">Total: 11.8 km</text><text fill="#FFFFFF" style="font-size:3px; font-family:Arial" x="48" y="129">Avg: 11.8 km</text><text fill="#FFFFFF" style="font-size:3px; font-family:Arial" x="75" y="125">Min: 11.8 km</text><text fill="#FFFFFF" style="font-size:3px; font-family:Arial" x="75" y="129">Max: 11.8 km</text><polyline fill="none" points="76.49047270056326,38.301745709381066 75.5703554416541,38.607682215370005 75.09545621101279,43.38789504786837 74.73928178811911,48.58867037613527 74.53151337488089,53.29222640657099 73.73012092337012,62.087273697543424 73.37394650070928,67.28768848258187 73.22554049093742,69.31429356592707 72.98809087579139,72.48800300940638 72.5131916453829,77.42056164427777 72.12733602046501,81.85596371104475 71.50403078063391,86.40599867361016 71.74148039577994,87.55305419929209 72.45382924145088,87.59128929956933 73.34426529868506,87.93540495730122 73.28490289498586,87.89716990597663 73.31458409666084,88.81480964433285 74.23470135568641,89.27362834301312 78.12293880537618,89.46480257046642 81.65500183217227,89.88538539403817 82.84224990848452,90.45890636954573 82.66416269703768,90.65007975709159 82.60480029310565,91.91182071727235 83.55459875403903,95.3529024340387 84.62312202283647,96.9587255482329 86.25558812741656,101.92906984817819 86.3743129351642,104.91123247620999 86.58208134840243,106.70816070880392 88.21454745321535,107.12871665207786 89.13466471224092,107.12871665207786 89.69860754848924,106.32583655533381 90.47031879797578,105.33179122046567 90.23286918282975,101.16440745437285 89.5205203370424,100.59090923672193 88.54104067431763,100.47620944699156 87.65060461708345,101.04970790844527 86.96793697332032,105.21709344611736 88.09582264570054,106.44053385820007 89.16434591426514,106.66992831786047 88.03646024176851,106.97578729403904 86.8788933675969,107.16694897788693 86.58208134840243,106.0964418031217 86.55240014661103,102.57903117887327 86.13686332001816,100.2850430222752 85.15738365706056,97.37929668920697 84.29662880173419,95.73524213771452 83.73268596548587,95.04703028089716 82.69384389894549,93.9764750143222 83.13906192744616,90.80301836962462 83.19842433114536,90.22949812567094 82.48607548547443,90.07655918807723 81.06137779413257,89.6942114646663 79.84444851591252,89.61774185491959 77.73708318069112,89.46480257046642 75.71876145107672,89.19715861405712 73.81916452920996,89.08245398011059 73.37394650070928,89.50303739972878 73.10681568342261,89.42656773584895 72.27574203000404,89.27362834301312 70.79168193473015,89.31186319940025 69.9012458777288,89.19715861405712 66.63631366810296,88.66186990469578 62.42158299742732,88.5089300784457 61.17497251741588,88.5089300784457 60.34389886399731,88.39422515171464 59.51282521057874,88.39422515171464 54.081165262148716,88.0118750440015 52.982960791443475,87.97364000338712 50.48973983142059,87.85893484915141 49.77739098563325,87.78246471917373 46.06724074750673,87.74422964616679 45.38457310362719,87.85893484915141 43.72242579702288,87.7059945675719 41.882191278855316,87.59128929956933 40.39813118346501,87.43834886618424 39.44833272276446,87.36187861708459 37.99395382928196,87.36187861708459 37.04415536823217,87.32364348444389 34.877427629195154,87.17070289931144 34.19475998543203,87.24717320274794 33.0075119092362,87.13246773957508 32.20611945760902,87.43834886618424 30.306522535858676,87.43834886618424 28.76310003665276,87.82069978691288 28.61469402711373,88.16481515203486 26.566691095707938,88.70010484769591 24.845181385055184,89.08245398011059 22.17387321370188,89.50303739972878 16.148589226882905,89.92362016363768 15.34719677537214,90.00008968665497 15.317515573347919,91.22359910691739 13.15078783442732,91.87358622948523 12.438438988639973,92.98238417698303 11.429278123890981,93.78530398392468 9.618724807631224,95.88817786754225 10.123305239947513,98.06750259629916 11.369915720075369,99.5203759688593 12.319714181008749,100.74384221399669 14.24899230489973,103.03782646963373 16.000183217343874,104.94946511645685 17.662330523948185,106.0964418031217 19.17607182112988,106.55523111246293 21.520886771613732,106.8228578492708 22.11451080988627,106.78462547450908 23.47984609741252,106.21113920357311 23.62825210695155,103.80248355376534 22.70813484780956,101.27910695172613 23.420483693596907,98.06750259629916 24.815500183263794,96.72932283140835 25.468486625235528,95.96464569980162 24.99358739471063,94.5499872926739 22.351960425032303,93.90000661849626 19.621289849746972,92.98238417698303 18.58244778297376,92.56180618159124 17.751374129671603,92.71474371032673 18.344998167827725,93.51766431381111 18.552766581182368,93.78530398392468 19.472883840324357,94.85586000920739 19.680652253562585,95.50583838048624 19.05734701361507,95.19996640086174 18.28563576412853,94.74115778101259 17.246793697355315,94.1676459092705 15.644008794450201,94.6646896020975 15.19879076583311,96.2322829424229 16.949981678277254,98.06750259629916 17.84041773539502,98.14396981106256 18.28563576412853,97.5704651727865 17.63264932204038,96.49991991947172 17.128068889607675,96.9587255482329 17.692011725972407,97.45576409887872 17.51392451452557,97.0734268334636 17.27647489926312,96.5763875785633 17.988823745050468,96.80579042536556 18.196592158288695,97.64693252832512 17.187431293539703,97.99103536005714 15.61432759242598,96.6146213998727 15.228471967740916,95.39113642874872 15.406559179187752,94.62645550435991 15.940820813528262,91.98828967669397 15.465921583003365,91.07066073291935 15.465921583003365,89.96185492791119 16.02986441925168,90.03832444007276 16.949981678277254,90.03832444007276 18.7011725907214,89.88538539403817 19.59160864795558,89.84715061905445 23.717295712791383,89.12068886347697 25.557530230958946,89.42656773584895 26.77445950906258,88.70010484769591 27.87266397953499,88.5089300784457 28.25851960433647,87.40011374437017 28.792781238560565,85.6030569038121 29.05991205573082,85.25893827094114 29.950348112848587,85.2207028401026 30.573653352912515,84.91481919892249 30.662696958635934,79.29414555156836 30.662696958635934,70.99674659615266 30.81110296805855,67.70830588406534 30.781421766267158,66.86707042521448 30.84078417008277,61.437214799720095 30.929827775689773,57.077955829241546 30.989190179505385,53.3304663633171 30.900146573898382,49.850608094071504 30.751740564242937,46.026536240038695 30.959508977713995,45.37643863284029 30.959508977713995,43.42613640896161 31.01887138141319,41.66702818850172 30.900146573898382,39.449005817528814 31.87962623673957,38.95186036982341 34.07603517768439,38.72240831563249 34.66965921584051,38.87537637341302 36.36148772446904,38.913618374295766 37.16288017586339,38.83713436717517 41.318248442607,38.72240831563249 42.44613411498722,38.798892355465796 43.27720776828937,38.68416628765408 45.14712348836474,39.79318289831281 46.15628435323015,40.09911771255429 48.67918651527725,40.21384317835327 49.421216562972404,41.169886829244206 49.56962257239502,42.202410165802576 50.519421033444814,42.54658373288112 52.77519237820525,42.27889321866678 52.71582997427322,40.175601361785084 53.814034444862045,37.68987165612634 54.645108098280616,37.07799621485174 56.129168193554506,36.810300272743916 56.633748625870794,36.733815669053 57.049285452696495,34.66872316991794 57.10864785639569,33.55968548668898 58.325577134499326,33.0242863521853 60.87816049833782,33.44495719022234 62.30285818967968,34.40102483637747 64.73671674600337,32.909557827864774 65.3897031879751,32.833072117879055 66.962806888856,32.947800674737664 68.8920850129798,33.750899205799215 69.69347746425774,33.674413734464906 71.80084279947914,36.8485425664112 72.75064126052894,38.225261528539704 74.14565775007941,38.2635036217107 75.33290582627524,37.88108244695468 75.6297178453533,38.339987791579915" stroke="#FFFF00" stroke-linecap="round" stroke-linejoin="round" stroke-width="0.5"><title>2025-03-23 11.8km</title><desc>13959396968</desc></polyline></svg>