<?xml version="1.0" encoding="utf-8" ?>
<svg baseProfile="full" height="130mm" version="1.1" viewBox="0,0,100,130" width="100mm" xmlns="http://www.w3.org/2000/svg" xmlns:ev="http://www.w3.org/2001/xml-events" xmlns:xlink="http://www.w3.org/1999/xlink"><defs /><rect fill="#222222" height="130" width="100" x="0" y="0" /><text fill="#FFFFFF" style="font-size:6px; font-family:Arial; font-weight:bold;" x="5" y="10">2025-04-22 Workouts</text><text fill="#FFFFFF" style="font-size:4px; font-family:Arial" x="5" y="121">Runner</text><text fill="#FFFFFF" style="font-size:6px; font-family:Arial" x="2" y="128">蓝皮书</text><text fill="#FFFFFF" style="font-size:4px; font-family:Arial" x="25" y="121">STATISTICS</text><text fill="#FFFFFF" style="font-size:3px; font-family:Arial" x="25" y="125">Number: 1</text><text fill="#FFFFFF" style="font-size:3px; font-family:Arial" x="5" y="129">Weekly: 1.0</text><text fill="#FFFFFF" style="font-size:3px; font-family:Arial" x="48" y="125">Total: 4.0 km</text><text fill="#FFFFFF" style="font-size:3px; font-family:Arial" x="48" y="129">Avg: 4.0 km</text><text fill="#FFFFFF" style="font-size:3px; font-family:Arial" x="75" y="125">Min: 4.0 km</text><text fill="#FFFFFF" style="font-size:3px; font-family:Arial" x="75" y="129">Max: 4.0 km</text><polyline fill="none" points="17.80769230797887,83.40398812736385 27.15384615212679,82.96451503131539 29.57692307792604,83.40398812736385 36.5,82.0855686578434 43.76923076994717,82.96451503131539 58.30769230797887,82.96451503131539 71.80769230797887,81.64609538135119 78.0384615380317,82.52504187496379 82.5384615380317,80.76714864838868 85.30769230797887,78.5697807634715 88.42307692207396,74.17504049744457 89.46153846010566,70.21976912743412 89.80769230611622,66.70396827417426 89.11538461409509,63.18816358153708 86.0,59.6723550488241 81.15384615398943,56.59601943101734 74.5769230760634,55.71706585912034 63.5,57.035496128723025 54.153846153989434,55.71706585912034 46.19230769202113,57.035496128723025 43.76923076994717,57.91444934066385 35.11538461409509,57.035496128723025 31.30769230797887,57.91444934066385 25.42307692207396,57.91444934066385 23.346153846010566,58.35392585792579 21.269230768084526,57.91444934066385 16.42307692207396,58.35392585792579 12.269230769947171,61.43025979446247 10.884615385904908,65.82501746038906 10.192307692021132,69.3408192738425 10.884615385904908,75.49346320726909 14.0,81.20662204385735 16.42307692207396,81.20662204385735 21.269230768084526,83.40398812736385 24.730769231915474,82.52504187496379 38.92307692207396,83.40398812736385 40.30769230797887,82.52504187496379 43.423076923936605,83.84346116497181 55.88461538404226,82.96451503131539 59.0,83.40398812736385 62.46153846010566,82.52504187496379 72.15384615398943,82.96451503131539 76.30769230797887,82.0855686578434 80.11538461409509,82.0855686578434 87.0384615380317,76.3724113816861 89.80769230611622,70.65924396459013 90.15384615398943,68.46186918043531 89.46153846010566,64.94606640818529 88.0769230760634,62.74868772411719 82.88461538404226,57.47497276472859 79.76923076808453,55.71706585912034 71.46153846010566,56.15654267533682 69.38461538217962,55.71706585912034 62.46153846010566,56.59601943101734 57.9615384619683,56.59601943101734 56.92307692207396,57.035496128723025 52.769230768084526,56.15654267533682 46.88461538404226,57.47497276472859 43.076923076063395,56.59601943101734 26.80769230797887,57.47497276472859 19.538461538031697,57.47497276472859 13.653846153989434,60.55130754085258 11.230769230052829,63.18816358153708 9.5,67.58291884697974 9.846153846010566,73.29609172372147 12.615384615957737,79.00925446092151 17.80769230797887,82.52504187496379 24.730769231915474,83.40398812736385 28.884615384042263,82.96451503131539 32.69230769202113,83.84346116497181 41.0,82.52504187496379 46.53846153989434,82.96451503131539 50.0,82.0855686578434 69.38461538217962,82.96451503131539 74.23076922819018,82.0855686578434 75.26923076808453,82.96451503131539 79.42307692207396,82.0855686578434 85.65384615398943,79.00925446092151 87.73076923005283,76.3724113816861 89.80769230611622,71.53819345729426 90.5,68.02239404455759 90.15384615398943,66.26449289731681 88.0769230760634,62.309211807791144 82.5384615380317,57.035496128723025 77.34615384414792,55.71706585912034 72.15384615398943,55.71706585912034 68.69230769202113,56.59601943101734 65.92307692207396,55.71706585912034 53.11538461595774,57.035496128723025 50.346153846010566,58.35392585792579 41.0,57.035496128723025 35.46153846010566,57.91444934066385 18.846153846010566,57.91444934066385 16.76923076994717,58.79340231511742 11.92307692207396,62.74868772411719 9.846153846010566,68.02239404455759 9.846153846010566,73.29609172372147 13.307692306116223,80.76714864838868 14.692307692021132,81.64609538135119 19.884615384042263,83.84346116497181 21.615384615957737,84.28293414087966 28.19230769202113,82.52504187496379 33.38461538404226,83.40398812736385 36.153846153989434,82.96451503131539 43.76923076994717,83.40398812736385 48.96153846010566,82.52504187496379 61.076923076063395,83.40398812736385 66.9615384619683,82.0855686578434 71.46153846010566,82.0855686578434 73.19230769202113,81.64609538135119 76.99999999813735,82.96451503131539 83.5769230760634,80.76714864838868 87.38461538404226,77.25135931419209 89.80769230611622,70.21976912743412 88.42307692207396,63.18816358153708 83.5769230760634,58.35392585792579 80.11538461409509,56.59601943101734 76.65384615398943,55.71706585912034 71.80769230797887,56.59601943101734 64.88461538404226,56.15654267533682 61.42307692207396,57.035496128723025 54.153846153989434,56.59601943101734 51.0384615380317,57.035496128723025 50.0,57.035496128723025 48.96153846010566,56.15654267533682 35.80769230797887,57.47497276472859 30.269230768084526,57.035496128723025 28.884615384042263,57.47497276472859 27.15384615212679,58.79340231511742 24.384615384042263,57.91444934066385 21.961538461968303,57.91444934066385 20.92307692207396,57.47497276472859 19.19230769202113,57.47497276472859 14.692307692021132,60.11183132510632 12.961538461968303,61.86973583162762 10.538461538031697,66.26449289731681 10.192307692021132,71.53819345729426 11.92307692207396,76.3724113816861 15.384615384042263,80.76714864838868 18.15384615212679,82.0855686578434 23.346153846010566,82.52504187496379 26.115384614095092,83.40398812736385 29.57692307792604,82.52504187496379 36.153846153989434,82.96451503131539 37.19230769202113,82.0855686578434 38.23076923005283,82.0855686578434 50.346153846010566,83.40398812736385 53.46153846010566,83.40398812736385 56.23076923005283,82.96451503131539 58.65384615212679,83.84346116497181 62.46153846010566,82.0855686578434 63.5,82.96451503131539 68.34615384601057,82.0855686578434 76.65384615398943,82.52504187496379 81.84615384601057,81.20662204385735 86.69230769202113,77.25135931419209 89.46153846010566,71.97766811400652 89.80769230611622,66.26449289731681 86.0,59.6723550488241 82.88461538404226,57.035496128723025 78.0384615380317,55.71706585912034 69.73076923005283,57.035496128723025 64.88461538404226,56.15654267533682 63.153846153989434,57.47497276472859 61.42307692207396,57.035496128723025 54.846153846010566,57.035496128723025 51.38461538590491,57.91444934066385 45.153846153989434,56.59601943101734 42.73076923005283,57.035496128723025 41.0,57.035496128723025 35.11538461409509,57.47497276472859 20.576923076063395,57.91444934066385 17.461538461968303,58.79340231511742 13.653846153989434,61.43025979446247 10.884615385904908,64.94606640818529 10.192307692021132,67.1434435909614 10.884615385904908,75.93293732427992 14.346153846010566,80.76714864838868 18.846153846010566,83.84346116497181 22.307692306116223,83.84346116497181 29.57692307792604,82.96451503131539 32.346153846010566,83.84346116497181 37.88461538404226,82.52504187496379 46.88461538404226,83.84346116497181 52.076923076063395,83.40398812736385 55.19230769202113,83.84346116497181 64.5384615380317,81.64609538135119 67.65384615212679,82.52504187496379 71.11538461409509,81.64609538135119 75.26923076808453,82.96451503131539 80.46153846010566,81.64609538135119 84.61538461409509,79.00925446092151 88.76923076994717,73.29609172372147 89.46153846010566,70.65924396459013 89.11538461409509,64.94606640818529 86.69230769202113,60.99078369792551 83.9230769239366,58.35392585792579 79.76923076808453,57.035496128723025 75.26923076808453,56.59601943101734 72.49999999813735,57.035496128723025 68.69230769202113,56.15654267533682 56.92307692207396,57.91444934066385 51.73076923005283,57.035496128723025 28.884615384042263,58.35392585792579 26.80769230797887,58.79340231511742 24.730769231915474,58.35392585792579 19.884615384042263,58.79340231511742 14.346153846010566,61.86973583162762 11.576923076063395,66.70396827417426 10.884615385904908,70.65924396459013 11.230769230052829,74.17504049744457 12.269230769947171,76.811885377625 14.0,79.44872809783556 19.19230769202113,82.96451503131539 23.0,83.84346116497181 27.5,84.28293414087966 42.0384615380317,82.96451503131539 61.076923076063395,83.40398812736385 67.30769230797887,82.52504187496379 79.07692307792604,82.0855686578434 82.5384615380317,81.20662204385735 87.0384615380317,77.69083319115452 89.11538461409509,73.73556614131667 89.46153846010566,67.1434435909614 88.76923076994717,64.50659079081379 86.0,61.86973583162762 83.9230769239366,57.47497276472859 82.5384615380317,57.035496128723025 68.0,55.71706585912034 61.42307692207396,57.035496128723025 51.0384615380317,56.59601943101734 42.73076923005283,57.91444934066385 28.884615384042263,57.91444934066385 18.846153846010566,58.35392585792579 17.115384615957737,59.23287871154025 16.76923076994717,60.55130754085258 13.307692306116223,63.18816358153708 11.576923076063395,65.82501746038906 10.538461538031697,72.85661724745296 11.576923076063395,77.69083319115452 13.653846153989434,81.20662204385735 16.76923076994717,82.52504187496379 25.076923076063395,83.84346116497181 33.73076923005283,82.52504187496379 35.11538461409509,82.96451503131539 39.269230768084526,82.52504187496379 41.0,82.96451503131539 43.76923076994717,82.52504187496379 48.96153846010566,82.96451503131539 55.5384615380317,82.0855686578434 66.61538461595774,82.96451503131539 80.11538461409509,82.0855686578434 84.26923076994717,79.8882016746793 88.76923076994717,74.61451479326934 89.80769230611622,71.53819345729426 90.15384615398943,66.70396827417426 87.38461538404226,60.99078369792551 83.23076923005283,57.47497276472859 81.5,56.59601943101734 78.38461538404226,58.35392585792579 74.23076922819018,57.035496128723025 68.0,57.91444934066385 68.34615384601057,56.15654267533682 66.9615384619683,57.91444934066385 63.153846153989434,58.35392585792579 56.23076923005283,57.91444934066385 19.884615384042263,59.6723550488241 15.384615384042263,61.86973583162762 13.307692306116223,64.94606640818529 11.576923076063395,68.46186918043531 11.576923076063395,73.73556614131667 13.307692306116223,77.25135931419209 15.384615384042263,79.44872809783556 20.576923076063395,82.0855686578434" stroke="#4DD2FF" stroke-linecap="round" stroke-linejoin="round" stroke-width="0.5"><title>2025-04-22 4.0km</title><desc>14246938669</desc></polyline></svg>