<?xml version="1.0" encoding="utf-8" ?>
<svg baseProfile="full" height="130mm" version="1.1" viewBox="0,0,100,130" width="100mm" xmlns="http://www.w3.org/2000/svg" xmlns:ev="http://www.w3.org/2001/xml-events" xmlns:xlink="http://www.w3.org/1999/xlink"><defs /><rect fill="#222222" height="130" width="100" x="0" y="0" /><text fill="#FFFFFF" style="font-size:6px; font-family:Arial; font-weight:bold;" x="5" y="10">2025-03-07 Workouts</text><text fill="#FFFFFF" style="font-size:4px; font-family:Arial" x="5" y="121">Runner</text><text fill="#FFFFFF" style="font-size:6px; font-family:Arial" x="2" y="128">蓝皮书</text><text fill="#FFFFFF" style="font-size:4px; font-family:Arial" x="25" y="121">STATISTICS</text><text fill="#FFFFFF" style="font-size:3px; font-family:Arial" x="25" y="125">Number: 1</text><text fill="#FFFFFF" style="font-size:3px; font-family:Arial" x="25" y="129">Weekly: 1.0</text><text fill="#FFFFFF" style="font-size:3px; font-family:Arial" x="48" y="125">Total: 5.4 km</text><text fill="#FFFFFF" style="font-size:3px; font-family:Arial" x="48" y="129">Avg: 5.4 km</text><text fill="#FFFFFF" style="font-size:3px; font-family:Arial" x="75" y="125">Min: 5.4 km</text><text fill="#FFFFFF" style="font-size:3px; font-family:Arial" x="75" y="129">Max: 5.4 km</text><polyline fill="none" points="65.00539568299428,54.554738609702326 66.60791366873309,54.64722735877149 67.99190647434443,55.29464824887691 69.7401079130359,55.387136897072196 70.46852517919615,55.47962553240359 72.50809352472425,55.57211415533675 75.20323740970343,55.57211415533675 77.89838129421696,55.29464824887691 80.37499999953434,55.1096709149424 81.61330935219303,54.92469353060005 83.72571942396462,54.64722735877149 85.47392086312175,54.64722735877149 87.29496402852237,54.64722735877149 89.26169064734131,54.73971609555883 89.69874100666493,57.23690720577724 89.69874100666493,58.53174341580598 89.69874100666493,60.751456873491406 89.84442446008325,62.23126180435065 89.9172661867924,63.80355100007728 89.9901079130359,66.11573436355684 90.13579136645421,69.26029107061913 90.06294964021072,70.92505047592567 89.9901079130359,73.14472331746947 89.84442446008325,73.97709875798319 89.9901079130359,75.45687479234766 89.9901079130359,76.38173317228211 90.5,80.72855064162286 89.9172661867924,82.76322157407412 88.4604316544719,83.78055474825669 86.63938848860562,83.78055474825669 83.3615107908845,83.78055474825669 81.68615107890218,83.96552425221307 80.52068345295265,83.96552425221307 78.84532374050468,83.96552425221307 77.02428057510406,83.96552425221307 76.15017985599115,84.15049370552879 74.693345323205,83.96552425221307 73.09082733793184,84.05800898507005 72.36241007177159,84.24297841335647 71.1241007191129,84.24297841335647 69.81294964021072,84.24297841335647 68.866007193923,84.24297841335647 67.77338129468262,84.33546310837846 67.19064748147503,84.33546310837846 65.29676258936524,84.24297841335647 61.144784172065556,84.42794779111864 60.416366905905306,84.42794779111864 58.085431654471904,84.5204324607621 56.26438848860562,84.5204324607621 53.56924460409209,84.79788639448816 50.72841726569459,84.33546310837846 47.88758992776275,84.79788639448816 45.775179855525494,84.79788639448816 43.152877697721124,85.0753402148257 39.80215827329084,85.0753402148257 38.782374100293964,84.98285562061938 35.28597122244537,85.35279392125085 32.37230215780437,85.44527846493293 30.40557553898543,85.5377629956929 23.048561151139438,85.2603093648795 20.57194244582206,85.63024751388002 19.697841726243496,85.72273201972712 17.87679856084287,85.44527846493293 16.347122301813215,85.5377629956929 14.016187049914151,85.5377629956929 12.923561150673777,85.2603093648795 10.738309352193028,85.2603093648795 10.155575538985431,82.57825174200116 10.155575538985431,80.91352097882191 9.71852517966181,80.54358025372494 9.791366905905306,79.61872755666263 10.155575538985431,77.30659028916853 10.301258992403746,75.17941703204997 10.155575538985431,73.60715424385853 10.009892086032778,68.98283077217638 10.228417265694588,66.4856829692726 10.228417265694588,64.82091265253257 9.864208632614464,63.526088466111105 9.937050359789282,59.91906517953612 9.71852517966181,58.34676696563838 9.572841726243496,56.68197664350737 10.592625898774713,56.03455707972171 13.069244604092091,55.94206852000207 13.651978416834027,56.12704562675208 14.52607913641259,55.849579947651364 15.108812949620187,55.757091362786014 17.512589927762747,55.757091362786014 20.207733812276274,55.757091362786014 23.26708633080125,55.664602765464224 26.399280575104058,55.47962553240359 28.584532374050468,55.1096709149424 30.69694244582206,55.20215958816698 34.63039568345994,55.1096709149424 35.650179855991155,55.01718222908676 36.4514388483949,55.29464824887691 37.76258992776275,55.20215958816698 38.782374100293964,55.1096709149424 40.02068345295265,55.1096709149424 41.11330935219303,55.01718222908676 42.93435251759365,54.73971609555883 44.60971223004162,54.832204819249455 45.702338129282,54.554738609702326 47.59622302139178,54.92469353060005 50.072841726243496,55.29464824887691 54.15197841683403,55.01718222908676 57.35701438784599,55.20215958816698 59.032374100293964,55.1096709149424 61.80035971198231,54.554738609702326 63.76708633080125,54.462249848176725 66.53507194202393,54.369761073961854 67.4091726616025,54.369761073961854 69.23021582700312,54.554738609702326 70.39568345295265,54.64722735877149 71.26978417253122,54.73971609555883 74.11061151046306,55.01718222908676 75.42176258936524,55.01718222908676 77.5341726616025,54.64722735877149 80.88489208603278,54.554738609702326 81.97751798527315,54.554738609702326 83.87140287738293,54.27727228682488 85.69244604278356,54.184783487406094 88.2419064748101,54.184783487406094 89.26169064734131,54.462249848176725 89.84442446008325,56.219534161209594 89.84442446008325,56.95944198127836 90.13579136645421,57.60686066100607 90.13579136645421,61.67633533413755 90.35431654611602,64.54345053510042 90.20863309316337,65.83827277680393 90.13579136645421,68.98283077217638 90.28147481940687,70.18515791208483 90.06294964021072,71.20250997896073 90.13579136645421,72.77477834915044 90.20863309316337,74.5320151495398 90.28147481940687,75.91930414002854 90.13579136645421,78.78635904967086 90.28147481940687,81.74588687194046 89.55305755371228,83.22564593370771 88.02338129468262,83.78055474825669 85.18255395675078,83.68806997744832 83.21582733793184,83.96552425221307 82.1232014382258,84.15049370552879 80.4478417262435,84.33546310837846 78.33543165400624,84.05800898507005 76.44154676189646,83.78055474825669 73.30935251712799,83.78055474825669 70.61420863308012,84.05800898507005 69.30305755371228,84.24297841335647 67.62769784126431,84.33546310837846 66.89928057510406,84.24297841335647 65.22392086265609,84.5204324607621 62.60161870485172,84.6129171178909 61.144784172065556,84.42794779111864 60.12499999953434,84.24297841335647 57.794064747635275,84.70540176267968 55.24460431654006,84.70540176267968 54.661870502866805,84.70540176267968 51.16546762548387,84.33546310837846 49.635791366454214,84.42794779111864 47.960431654471904,84.79788639448816 43.73561151046306,85.16782479616813 41.914568345062435,85.16782479616813 38.70953237358481,85.2603093648795 36.88848920818418,85.2603093648795 34.48471223004162,85.35279392125085 33.5377697837539,85.44527846493293 32.15377697814256,85.35279392125085 31.061151078902185,85.35279392125085 28.00179856084287,85.35279392125085 25.962230215314776,85.44527846493293 21.30035971198231,85.63024751388002 20.644784172065556,85.63024751388002 16.784172661602497,85.5377629956929 13.142086330801249,85.5377629956929 10.374100719112903,85.16782479616813 10.082733812741935,84.24297841335647 9.791366905905306,80.63606545398943 9.645683452952653,79.06381533219246 9.937050359789282,76.8441618885845 9.71852517966181,69.81521132710623 9.71852517966181,68.70537035993766 9.791366905905306,66.30070869170595 10.009892086032778,65.28334926225943 9.791366905905306,60.843944776570424 9.937050359789282,59.64160105405608 9.791366905905306,57.42188395856647 10.738309352193028,55.94206852000207 12.777877697721124,55.757091362786014 16.784172661602497,56.219534161209594 23.26708633080125,56.219534161209594 24.359712230041623,56.03455707972171 26.763489208184183,55.849579947651364 28.074640287086368,55.664602765464224 32.15377697814256,55.29464824887691 34.12050359649584,55.20215958816698 35.358812949154526,54.92469353060005 36.66996402852237,55.29464824887691 38.19964028755203,55.01718222908676 39.58363309316337,55.1096709149424 41.69604316493496,55.01718222908676 47.81474820105359,55.01718222908676 51.60251798527315,55.29464824887691 55.31744604278356,55.20215958816698 57.06564748194069,55.387136897072196 57.64838129468262,55.20215958816698 60.05215827282518,54.64722735877149 62.01888489164412,54.27727228682488" stroke="#4DD2FF" stroke-linecap="round" stroke-linejoin="round" stroke-width="0.5"><title>2025-03-07 5.4km</title><desc>13809688929</desc></polyline></svg>