<?xml version="1.0" encoding="utf-8" ?>
<svg baseProfile="full" height="130mm" version="1.1" viewBox="0,0,100,130" width="100mm" xmlns="http://www.w3.org/2000/svg" xmlns:ev="http://www.w3.org/2001/xml-events" xmlns:xlink="http://www.w3.org/1999/xlink"><defs /><rect fill="#222222" height="130" width="100" x="0" y="0" /><text fill="#FFFFFF" style="font-size:6px; font-family:Arial; font-weight:bold;" x="5" y="10">2025-04-20 Workouts</text><text fill="#FFFFFF" style="font-size:4px; font-family:Arial" x="5" y="110">Runner</text><text fill="#FFFFFF" style="font-size:6px; font-family:Arial" x="5" y="120">蓝皮书</text><text fill="#FFFFFF" style="font-size:4px; font-family:Arial" x="30" y="110">STATISTICS</text><text fill="#FFFFFF" style="font-size:3px; font-family:Arial" x="30" y="115">Number: 1</text><text fill="#FFFFFF" style="font-size:3px; font-family:Arial" x="30" y="120">Weekly: 1.0</text><text fill="#FFFFFF" style="font-size:3px; font-family:Arial" x="50" y="115">Total: 21.7 km</text><text fill="#FFFFFF" style="font-size:3px; font-family:Arial" x="50" y="120">Avg: 21.7 km</text><text fill="#FFFFFF" style="font-size:3px; font-family:Arial" x="75" y="115">Min: 21.7 km</text><text fill="#FFFFFF" style="font-size:3px; font-family:Arial" x="75" y="120">Max: 21.7 km</text><polyline fill="none" points="41.120733875606675,110.5 41.16388199283392,109.70449147106774 41.5090669306519,109.58395887298684 42.150124672363745,109.55985232168678 43.62948869171669,109.49556813330128 43.9870016630739,109.47146154332222 44.6527154717769,109.43931940690163 45.21980501251528,109.42324833167731 45.95948702216265,109.3830706230292 46.489592462428845,109.32682178168398 46.95805773526081,109.30271511780302 47.549803342990344,109.33485733396083 48.51755397231318,109.27860844334646 49.77501338874572,109.20628835670504 50.835224269278115,109.18218164002246 51.69818661388126,109.13396817503235 52.87551381261437,109.1098614266848 53.72614812373649,109.06968348934242 54.50281423388515,109.06164789832837 54.940459422941785,109.04557671285147 55.4335807627067,109.06968348934242 56.14244268866605,109.06164789832837 56.61090796143981,109.06164789832837 57.17183348542312,109.01343432776048 57.48003432282712,109.02146992578128 57.78207114341785,109.01343432776048 58.53408118657535,108.98932752667315 58.76831382297678,108.97325632005595 58.96556235887692,108.98129192394117 59.31691131347907,109.00539872857189 59.56963600014569,109.02146992578128 61.104476170177804,108.93307828299294 62.1646870507102,108.91700705995027 62.91053307717084,108.98932752667315 63.44063851743704,108.9973631282046 64.06320420888369,108.91700705995027 63.98923600791022,108.50718928742572 63.946087890682975,107.75183088924314 63.74883935478283,107.21343081064697 63.65021508681821,107.06878511602554 63.59473893608083,106.96431854463299 63.5146067183814,106.29733499217764 63.24955399823375,104.97941601911589 63.132437680033036,104.03113772573124 63.10161759631592,103.05873369683832 63.08312554607983,101.93361668865327 63.05846947905957,100.91295493593861 63.021485378587386,99.84405265261012 62.92286111062276,99.36987130825946 62.879712993395515,98.34112485389414 62.9166970938968,98.07589804069357 62.81190880917711,96.32376152514553 62.82423684268724,96.09067494059127 62.82423684268724,95.6003861438221 62.781088725459995,94.41885257173999 62.79341675894102,94.09734244714491 62.7625966751948,92.70678952693197 62.737940608203644,91.70203289001438 62.57767617277568,89.04938721234794 62.670136424014345,88.90469377008412 62.6084962565219,88.83234690627432 62.60233223976684,88.10083438401853 62.559184122568695,87.74713253349546 62.516036005312344,87.24873061196922 62.52220002206741,85.72938076562423 62.516036005312344,85.5605615260065 62.49754395507625,85.11841344344793 62.48521592159523,84.56371355095689 62.454395837849006,84.05724354717313 62.38042763687554,82.93977736364104 62.36193558663945,82.69055519110043 62.38042763687554,82.24034453354761 62.34960755312932,81.47658588392733 62.37426362012047,80.86557132941743 62.40508370383759,79.62744208059303 62.3865916536306,79.15308647837082 62.46672387133003,78.83148713316768 62.49754395507625,78.63048658762636 62.4728878881142,77.15109997583932 62.26947533542989,76.48375494929496 62.183179100975394,76.34706882435785 61.856486213364406,75.68775450986868 61.67772972770035,75.58322834400315 61.52979332575342,75.55910689289158 60.83942345005926,75.5430259196255 60.13056152412901,75.50282346586027 59.471011732151965,75.51890445088065 59.21828704554355,75.52694494161915 58.916250224923715,75.51890445088065 58.71900168899447,75.52694494161915 58.13958411474596,75.5671473777802 57.84987532766536,75.57518786147193 57.65262679173611,75.58322834400315 57.504690389789175,75.60734978453183 57.042389133770484,75.60734978453183 56.419823442265624,75.61539026234459 56.28421507385792,75.63951168878339 55.60617323164479,75.65559263385876 55.01442762391525,75.70383544086872 54.66307866931311,75.74403774770326 52.99263013078598,75.81640182598858 52.27760418812977,75.84052316424277 51.66120251340908,75.86464449195046 51.15575314013404,75.86464449195046 50.804404185561,75.88876580906071 50.01541004187311,75.92092754876285 48.9058870273584,75.9530892696348 48.11072886697366,76.02545307290347 47.894988280837424,75.96112969693058 47.679247694672085,75.92896798073343 47.49432719225297,75.88876580906071 46.91490961800446,75.9048466812601 46.594380747148534,75.64755216191406 46.489592462428845,74.53795575978802 46.47110041222186,74.24045146967183 46.50192049590987,73.81429387221942 46.46493639546679,73.46050015068249 46.42795229499461,71.9005643302844 46.42795229499461,71.21707335553583 46.421788278239546,69.64099120144965 46.390968194493325,68.76447698940319 46.36014811077621,68.27394459034258 46.34165606051101,66.19114354144767 46.30467196003883,65.07331430894192 46.26152384278248,63.59356296406986 46.21837572558434,62.314832716347155 46.08276735714753,61.05215794520336 46.249195809301455,60.49721527449583 46.2923439265287,60.14333586403518 46.2245397423394,60.062908407653595 46.156735558091896,59.91813868967074 46.008799156174064,59.61251247765176 46.008799156174064,59.105812646081176 46.107423424109584,58.06022680462047 46.13207949110074,57.01462107752013 46.058111290156376,56.00921220101009 46.05194727340131,55.808128219217906 46.02729120643926,55.04400238040034 46.058111290156376,54.553347557968664 46.014963172900025,53.813335280283354 46.0704393236374,53.48354399102391 46.04578325667535,53.09744435779794 46.058111290156376,52.94461250381573 46.008799156174064,52.53437753154503 46.002635139419,51.488666695036954 46.002635139419,51.20712576316146 46.002635139419,51.014068290725845 46.014963172900025,50.60381891044017 46.033455223136116,50.3705384854984 46.039619239920285,49.0915006294199 46.039619239920285,48.86625817638196 45.75607446953654,48.77776981729039 44.849964007677045,48.826036212642066 44.11028199802968,48.95474639301756 43.53702844050713,49.517849888434284 43.06856316773337,49.76722245050405 42.637081995402696,49.8396207243386 42.057664421154186,49.8637534610898 41.68165939958999,49.879841946407396 40.83718910522293,49.88788618726903 40.29475563147571,49.76722245050405 39.77081420790637,49.26043186348397 39.07428031548625,49.05932319265776 38.075709602446295,49.08345627199742 37.97092131775571,48.33532588494927 37.9216091837734,47.289535159423394 37.90311713353731,46.58964871322314 37.85996901631006,45.16571429379837 37.853804999554995,43.49234307853476 38.877031779586105,43.49234307853476 39.54890960501507,43.46820754404325 39.709174040472135,43.460162363538984 39.98039077737485,43.411891255669616 40.448856050148606,43.40384606688531 40.58446441858541,43.23489683075604 40.806369021505816,42.40623353231058 40.83718910522293,42.28555336880527 41.03443764115218,41.32010252042528 40.97279747365974,40.34658907401172 40.806369021505816,39.71098008004628 39.93107864339254,37.39376098361754 39.69684600699111,36.581101975909405 39.41946525333333,35.02011927497006 39.35782508586999,34.51319267311192 39.35166106914403,33.04066506667368 39.53041755477898,30.513941039655037 39.709174040472135,29.54828333100886 39.35166106914403,29.5 38.27295813837554,29.54828333100886 36.02309202562901,29.62875545503266 35.887483657192206,29.6689914728413 35.91830374090932,31.246220152705064 36.01692800884484,33.20159896641053 36.12171629356453,33.354485734518676 36.787430102267535,33.3705790537897 37.02782675542403,33.330345746788225 37.101794956368394,33.16136553567776 37.08946692288737,32.807310074731504 37.0833029061323,32.179660695652274 37.07713888940634,31.592238755489234 37.1695991406159,31.30254891097138 37.74285269808024,31.25426712169792 39.222216717433184,31.197938313933264 39.363989102625055,31.29450194902165 39.30234893516172,32.03481751297659 39.23454475091421,33.080898585794785 39.01880416474887,33.4349522837183 38.870867762860144,33.47518551411122 38.24830207138439,33.467138870371855 37.64422843014472,33.491278798021085 37.101794956368394,33.6119782770802 37.10795897312346,35.044258520294534" stroke="#FFFF00" stroke-linecap="round" stroke-linejoin="round" stroke-width="0.5"><title>2025-04-20 21.7km</title><desc>14228284288</desc></polyline></svg>