<?xml version="1.0" encoding="utf-8" ?>
<svg baseProfile="full" height="130mm" version="1.1" viewBox="0,0,100,130" width="100mm" xmlns="http://www.w3.org/2000/svg" xmlns:ev="http://www.w3.org/2001/xml-events" xmlns:xlink="http://www.w3.org/1999/xlink"><defs /><rect fill="#222222" height="130" width="100" x="0" y="0" /><text fill="#FFFFFF" style="font-size:6px; font-family:Arial; font-weight:bold;" x="5" y="10">2025-01-13 Workouts</text><text fill="#FFFFFF" style="font-size:4px; font-family:Arial" x="5" y="110">Runner</text><text fill="#FFFFFF" style="font-size:6px; font-family:Arial" x="5" y="120">蓝皮书</text><text fill="#FFFFFF" style="font-size:4px; font-family:Arial" x="30" y="110">STATISTICS</text><text fill="#FFFFFF" style="font-size:3px; font-family:Arial" x="30" y="115">Number: 1</text><text fill="#FFFFFF" style="font-size:3px; font-family:Arial" x="30" y="120">Weekly: 1.0</text><text fill="#FFFFFF" style="font-size:3px; font-family:Arial" x="50" y="115">Total: 5.1 km</text><text fill="#FFFFFF" style="font-size:3px; font-family:Arial" x="50" y="120">Avg: 5.1 km</text><text fill="#FFFFFF" style="font-size:3px; font-family:Arial" x="75" y="115">Min: 5.1 km</text><text fill="#FFFFFF" style="font-size:3px; font-family:Arial" x="75" y="120">Max: 5.1 km</text><polyline fill="none" points="83.38284518755972,80.54189842822962 87.44979079440236,77.0996611721348 89.14435146562755,75.37854113429785 90.5,68.92433262336999 90.5,66.77292684838176 88.80543933063745,63.76095629646443 85.41631799191236,59.88841850217432 82.02719665318727,57.73700655880384 74.23221757262945,55.155310289002955 68.47071129642427,56.01587594836019 64.06485355645418,55.58559314766899 49.83054393157363,56.87644137023017 45.76359832659364,56.446158688748255 32.54602510482073,57.73700655880384 27.123430961742997,56.87644137023017 22.378661088645458,56.87644137023017 15.261506274342537,59.02785390103236 12.88912133872509,61.179264961974695 9.838912133127451,68.92433262336999 9.5,71.93629823997617 10.516736401244998,76.23910127184354 13.228033471852541,80.11161897634156 17.633891213685274,83.12357390159741 26.44560669362545,83.98413192317821 32.54602510482073,83.12357390159741 36.61297070980072,83.55385294253938 46.780334727838635,82.6932948033791 49.491631800308824,83.12357390159741 55.25313807465136,82.26301564578898 57.96443514712155,82.6932948033791 64.06485355645418,80.97217781981453 76.26569037698209,83.12357390159741 80.67154811695218,82.26301564578898 84.73849372379482,79.6813394667115 88.80543933063745,74.51798076252453 89.82217573188245,71.0757369287312 89.14435146562755,69.78489452064969 89.48326359689236,66.34264551708475 88.46652719751,63.330674555152655 83.38284518755972,57.73700655880384 77.62133891321719,56.01587594836019 69.48744769766927,56.87644137023017 66.43723849207163,56.446158688748255 64.06485355645418,55.58559314766899 60.336820082738996,56.446158688748255 58.303347280249,56.01587594836019 56.60878660902381,57.30672399466857 50.84728033468127,56.87644137023017 49.15271966531873,57.73700655880384 29.83472803235054,56.87644137023017 25.767782425507903,57.30672399466857 22.378661088645458,56.87644137023017 16.956066945567727,58.16728906403296 11.533472802489996,64.19123798096552 10.177824268117547,68.0637704897672 12.550209203734994,76.23910127184354 14.244769873097539,79.6813394667115 15.939330544322729,81.40245715435594 18.650627614930272,82.6932948033791 22.71757322177291,83.55385294253938 28.47907949797809,83.98413192317821 33.562761506065726,83.12357390159741 45.085774056613445,83.98413192317821 53.558577405288815,82.6932948033791 56.947698744013906,83.12357390159741 71.18200836703181,81.83273642929271 78.29916317947209,82.26301564578898 80.67154811695218,81.83273642929271 84.39958159066737,79.6813394667115 88.12761506251991,75.37854113429785 89.48326359689236,72.366578807123 89.48326359689236,69.78489452064969 88.46652719751,65.91236412711442 86.43305439315736,62.03982897591777 81.68828451819718,57.30672399466857 78.63807531259954,56.01587594836019 72.5376569032669,56.446158688748255 67.45397489517927,55.155310289002955 56.269874477759004,56.87644137023017 52.20292887091637,56.87644137023017 51.18619246780872,57.30672399466857 41.696652719751,56.446158688748255 39.32426778040826,57.30672399466857 37.29079497978091,56.87644137023017 31.86820083670318,57.73700655880384 26.106694560498,57.30672399466857 23.734309621155262,57.73700655880384 22.71757322177291,57.30672399466857 19.32845188304782,57.73700655880384 16.956066945567727,58.597571511985734 13.566945606842637,61.179264961974695 10.855648536235094,65.48208267870359 10.177824268117547,71.93629823997617 11.533472802489996,77.0996611721348 13.905857739970088,80.54189842822962 15.261506274342537,81.83273642929271 18.989539748057723,82.6932948033791 27.462343096733093,83.55385294253938 44.74686192534864,82.6932948033791 53.89748954027891,83.55385294253938 63.387029288336635,81.83273642929271 77.96025104448199,82.6932948033791 82.36610878631473,80.97217781981453 86.09414226002991,77.0996611721348 87.78870292939246,73.65742015792057 89.14435146562755,69.35461360146292 88.80543933063745,65.48208267870359 87.11087866127491,62.03982897591777 84.06066945567727,59.02785390103236 79.65481171570718,56.446158688748255 77.96025104448199,56.01587594836019 75.58786610886455,56.87644137023017 69.48744769766927,55.58559314766899 61.69246861897409,56.87644137023017 58.303347280249,56.01587594836019 51.525104600936174,57.30672399466857 48.135983262211084,57.30672399466857 44.40794979035854,57.73700655880384 40.679916318506,56.87644137023017 31.529288701713085,57.73700655880384 20.684100415557623,56.01587594836019 17.294979078695178,58.16728906403296 11.533472802489996,63.76095629646443 9.838912133127451,68.92433262336999 9.838912133127451,71.50601761345752 12.211297070607543,77.96022083819844 15.600418409332633,81.40245715435594 20.345188284292817,83.55385294253938 35.25732217542827,83.98413192317821 41.01882844977081,83.55385294253938 45.085774056613445,83.98413192317821 48.81380753032863,83.12357390159741 59.65899581462145,83.12357390159741 63.725941421464086,82.26301564578898 77.62133891321719,83.12357390159741 82.02719665318727,80.97217781981453 85.41631799191236,77.96022083819844 87.44979079440236,75.37854113429785 89.14435146562755,70.6454561855644 89.14435146562755,69.35461360146292 88.12761506251991,65.0518011720851 85.07740585692227,60.74898286676034 81.68828451819718,57.73700655880384 76.60460251197219,55.155310289002955 71.52092050202191,56.01587594836019 64.40376568958163,56.01587594836019 56.947698744013906,56.446158688748255 54.57531380653381,57.73700655880384 49.491631800308824,56.87644137023017 44.06903765536845,57.30672399466857 40.679916318506,56.446158688748255 35.59623430855572,57.30672399466857 33.22384937107563,56.446158688748255 31.529288701713085,56.446158688748255 30.173640167340636,57.73700655880384 21.361924685537815,57.30672399466857 16.27824267745018,59.88841850217432 12.211297070607543,63.76095629646443 11.1945606674999,67.20320812100545 10.855648536235094,73.22713976562954 11.1945606674999,77.0996611721348 13.566945606842637,79.25105989770964 18.311715479940176,83.12357390159741 22.378661088645458,83.98413192317821 30.512552300468087,84.84468971076421 38.307531379163265,83.55385294253938 45.76359832659364,83.98413192317821 56.947698744013906,82.6932948033791 63.387029288336635,83.55385294253938 68.13179916143417,82.6932948033791 78.29916317947209,83.12357390159741 83.72175732254982,80.54189842822962 85.07740585692227,78.82078027003445 88.12761506251991,75.37854113429785 88.80543933063745,71.50601761345752 87.78870292939246,65.48208267870359 86.77196652628481,63.330674555152655 79.99372384883463,56.87644137023017 75.24895397387445,56.446158688748255 66.77615062706172,56.87644137023017 65.75941422581673,56.01587594836019 64.40376568958163,56.87644137023017 63.387029288336635,56.01587594836019 59.997907949611545,56.446158688748255 57.62552301213145,56.01587594836019 50.84728033468127,57.30672399466857 42.713389120996,57.30672399466857 37.968619246035814,58.16728906403296 28.47907949797809,56.446158688748255 20.00627614930272,57.30672399466857 16.27824267745018,59.02785390103236 12.550209203734994,62.900392753304914 10.516736401244998,67.63348933402449 10.855648536235094,72.79685931606218 12.211297070607543,77.0996611721348 14.922594141215086,80.11161897634156 18.989539748057723,82.26301564578898 23.39539748802781,83.12357390159741 32.20711296983063,83.98413192317821 42.3744769860059,83.12357390159741 50.169456066563725,83.98413192317821 59.32008368335664,83.12357390159741 63.387029288336635,83.55385294253938 77.28242677822709,83.12357390159741 82.70502092130482,80.97217781981453 84.73849372379482,79.25105989770964 87.78870292939246,73.22713976562954 88.12761506251991,68.92433262336999 87.78870292939246,66.77292684838176 86.09414226002991,62.900392753304914 84.06066945567727,60.31870071403682 81.68828451819718,58.16728906403296 76.60460251197219,56.446158688748255 63.048117155209184,55.155310289002955 59.65899581462145,56.01587594836019 58.64225941337645,55.155310289002955 56.60878660902381,55.155310289002955 54.91422594152391,56.01587594836019 49.83054393157363,55.58559314766899 47.79707113094628,56.446158688748255 44.06903765536845,56.01587594836019 40.002092050388455,56.446158688748255 37.968619246035814,55.58559314766899 35.93514644354582,56.01587594836019 34.579497907310724,55.58559314766899 30.512552300468087,55.58559314766899 26.7845188267529,56.01587594836019 22.71757322177291,57.30672399466857 20.00627614930272,56.87644137023017 16.27824267745018,58.597571511985734 13.566945606842637,61.179264961974695 11.872384935617447,63.76095629646443 10.177824268117547,69.35461360146292 10.855648536235094,73.22713976562954 12.550209203734994,77.52994103496894 18.311715479940176,82.26301564578898 22.71757322177291,83.55385294253938 35.59623430855572,84.41441084677354 38.64644351415336,83.55385294253938 78.97698744758964,82.26301564578898 83.72175732254982,79.6813394667115 86.43305439315736,77.52994103496894 88.12761506251991,73.65742015792057 88.12761506251991,67.63348933402449 87.78870292939246,65.91236412711442 86.77196652628481,63.330674555152655 82.02719665318727,58.597571511985734 76.26569037698209,56.01587594836019 50.169456066563725,56.01587594836019 41.696652719751,56.87644137023017 38.307531379163265,56.446158688748255 34.579497907310724,56.87644137023017 25.089958159253,56.01587594836019 21.700836818665266,56.87644137023017 16.617154812440276,58.597571511985734 15.600418409332633,59.88841850217432 11.872384935617447,65.48208267870359 10.855648536235094,68.92433262336999 10.855648536235094,73.22713976562954 12.550209203734994,77.52994103496894 14.922594141215086,80.11161897634156 21.361924685537815,83.12357390159741 41.357740584760904,83.55385294253938 47.119246860966086,83.98413192317821 76.26569037698209,83.12357390159741 81.68828451819718,80.97217781981453 85.75523012690246,77.96022083819844 87.78870292939246,75.37854113429785 89.14435146562755,69.35461360146292 87.78870292939246,64.62151960539632 86.77196652628481,62.900392753304914 81.34937238506973,57.73700655880384 74.57112970761955,55.58559314766899 56.60878660902381,55.155310289002955 43.052301255986094,56.01587594836019 42.03556485287845,55.155310289002955 37.29079497978091,57.73700655880384 33.22384937107563,57.73700655880384 27.123430961742997,56.87644137023017 19.66736401617527,57.73700655880384 13.905857739970088,61.179264961974695 11.872384935617447,65.91236412711442 10.516736401244998,70.21517538256012 11.533472802489996,75.37854113429785 13.905857739970088,80.54189842822962 20.684100415557623,83.12357390159741 28.47907949797809,83.98413192317821 41.357740584760904,83.55385294253938 50.84728033468127,84.41441084677354 68.80962343141437,82.6932948033791 71.52092050202191,83.12357390159741 76.94351464509964,82.6932948033791 81.01046025007963,81.40245715435594 86.09414226002991,77.52994103496894 88.12761506251991,72.79685931606218 88.80543933063745,68.92433262336999 85.75523012690246,61.60954699781723 83.38284518755972,59.02785390103236 77.96025104448199,55.58559314766899 75.926778241992,56.01587594836019 70.843096235767,55.58559314766899 64.74267782457173,56.87644137023017 62.70920502021909,56.01587594836019 59.32008368335664,56.87644137023017 54.91422594152391,56.446158688748255 45.42468619160354,57.73700655880384 39.66317991539836,57.30672399466857 35.59623430855572,57.73700655880384 29.49581589922309,56.87644137023017 24.751046024262905,58.16728906403296 20.684100415557623,58.16728906403296 17.294979078695178,59.88841850217432 14.244769873097539,62.470110893948004" stroke="#4DD2FF" stroke-linecap="round" stroke-linejoin="round" stroke-width="0.5"><title>2025-01-13 5.1km</title><desc>13341904459</desc></polyline></svg>