<?xml version="1.0" encoding="utf-8" ?>
<svg baseProfile="full" height="130mm" version="1.1" viewBox="0,0,100,130" width="100mm" xmlns="http://www.w3.org/2000/svg" xmlns:ev="http://www.w3.org/2001/xml-events" xmlns:xlink="http://www.w3.org/1999/xlink"><defs /><rect fill="#222222" height="130" width="100" x="0" y="0" /><text fill="#FFFFFF" style="font-size:6px; font-family:Arial; font-weight:bold;" x="5" y="10">2025-04-29 Workouts</text><text fill="#FFFFFF" style="font-size:4px; font-family:Arial" x="5" y="110">Runner</text><text fill="#FFFFFF" style="font-size:6px; font-family:Arial" x="5" y="120">蓝皮书</text><text fill="#FFFFFF" style="font-size:4px; font-family:Arial" x="30" y="110">STATISTICS</text><text fill="#FFFFFF" style="font-size:3px; font-family:Arial" x="30" y="115">Number: 1</text><text fill="#FFFFFF" style="font-size:3px; font-family:Arial" x="30" y="120">Weekly: 1.0</text><text fill="#FFFFFF" style="font-size:3px; font-family:Arial" x="50" y="115">Total: 5.2 km</text><text fill="#FFFFFF" style="font-size:3px; font-family:Arial" x="50" y="120">Avg: 5.2 km</text><text fill="#FFFFFF" style="font-size:3px; font-family:Arial" x="75" y="115">Min: 5.2 km</text><text fill="#FFFFFF" style="font-size:3px; font-family:Arial" x="75" y="120">Max: 5.2 km</text><polyline fill="none" points="81.95446348050609,54.69843079801649 82.61181244347245,54.60569182870677 82.97700631199405,54.23473582405131 84.07258791709319,54.32747484423453 85.02209197496995,54.049257746257354 85.7524797115475,54.32747484423453 86.70198376942426,54.4202138519031 89.03922452684492,54.32747484423453 89.91568981064484,55.44034209725214 89.91568981064484,60.63369849859737 89.98872858472168,61.839293411932886 90.1348061314784,62.395721111563034 90.1348061314784,62.76667265809374 90.28088367916644,63.13762400200358 90.1348061314784,63.60131289687706 90.28088367916644,64.25047681783326 89.98872858472168,65.64154027338373 89.98872858472168,66.47617697878741 90.20784490555525,68.7018698459724 90.20784490555525,70.83481866528746 90.35392245277762,71.39123899489641 90.20784490555525,71.76218562811846 90.42696122638881,73.24597013392486 90.35392245277762,74.9152238285169 90.5,75.37890468194382 90.28088367916644,76.02805734542198 90.35392245277762,77.04815313388826 90.1348061314784,79.18107574101305 90.42696122638881,80.47937317856122 90.35392245277762,81.77766813413473 90.1348061314784,82.05587387335254 90.06176735833287,82.79775528685423 89.62353471620008,83.07596060802462 89.1853020740673,83.6323709085118 88.30883679026738,84.09604581067106 85.97159603238106,83.81784090743167 84.51082055922598,84.00331085559446 82.53877367032692,84.00331085559446 82.2466185754165,84.09604581067106 81.15103697031736,84.00331085559446 78.01036970224231,84.28151568298927 77.27998196566477,83.91057588800322 76.69567177630961,84.1887807531748 76.18440036056563,84.09604581067106 75.52705139759928,84.37425059993984 75.30793507676572,84.28151568298927 74.21235347166657,84.55972039635526 73.99323715083301,84.28151568298927 71.87511271424592,84.37425059993984 71.36384129850194,84.46698550449219 70.85256988275796,84.37425059993984 68.73444544663653,84.74519014213001 68.07709648320451,84.46698550449219 67.41974752070382,84.65245527547086 67.05455365218222,84.55972039635526 66.47024346282706,84.74519014213001 64.57123534707353,84.74519014213001 64.05996393132955,84.93065983685665 63.98692515771836,84.74519014213001 63.32957619475201,84.74519014213001 61.941839495208114,85.0233946655062 61.138412984553725,84.74519014213001 60.55410279566422,84.93065983685665 60.18890892714262,84.83792499575065 60.11587015306577,85.0233946655062 59.239404869731516,84.74519014213001 58.801172227133065,84.93065983685665 56.97520288545638,85.11612948117545 56.31785392249003,84.83792499575065 54.85707844933495,84.83792499575065 54.71100090164691,84.65245527547086 53.54238052293658,84.83792499575065 52.8119927868247,84.65245527547086 51.7164111812599,84.65245527547086 48.064472497440875,85.11612948117545 45.94634806131944,84.93065983685665 45.87330928770825,85.30159907491179 44.92380522983149,84.93065983685665 44.70468890899792,85.0233946655062 43.82822362519801,84.93065983685665 43.170874662231654,85.11612948117545 42.65960324648768,85.0233946655062 39.591974752023816,85.30159907491179 38.861587014980614,85.20886428444646 38.058160504791886,85.39433385286247 37.25473399460316,85.20886428444646 36.159152389038354,85.39433385286247 34.990532010793686,85.39433385286247 34.5522993686609,85.20886428444646 33.52975653717294,85.57980337034678 32.65329125337303,85.48706861794926 31.995942289941013,85.76527283765608 27.832732191309333,85.39433385286247 26.00676284916699,85.76527283765608 24.984220018144697,85.57980337034678 21.989630297292024,85.76527283765608 21.624436429236084,85.57980337034678 19.944544634781778,85.95074225374265 13.663210099097341,85.67253811034607 11.691163210198283,85.85800755198579 10.595581605099142,85.57980337034678 10.157348962966353,84.83792499575065 10.084310189355165,84.28151568298927 10.23038773657754,83.72510591422906 10.157348962966353,83.1686956899357 10.23038773657754,82.9832255137153 10.084310189355165,82.05587387335254 10.23038773657754,80.47937317856122 9.938232642132789,79.36654695519246 10.084310189355165,78.25371890870156 10.011271415743977,77.88277582154842 10.522542831022292,75.37890468194382 10.522542831022292,73.24597013392486 10.23038773657754,72.13313205837039 10.23038773657754,71.66944898868678 9.865193868521601,71.29850230494048 9.938232642132789,70.55660832981812 9.719116320833564,69.81471354409587 9.938232642132789,68.60913278878434 9.938232642132789,67.77449870447163 10.30342651065439,67.03260087943636 10.157348962966353,66.93986359448172 10.376465283799917,66.7543889862136 10.376465283799917,66.47617697878741 10.376465283799917,66.10522745864 10.23038773657754,65.91975262243068 10.23038773657754,65.64154027338373 10.376465283799917,64.34321447036928 10.30342651065439,63.6940506377141 10.011271415743977,63.044886185147334 9.646077547222376,61.56107939098729 9.5,60.17000757751521 9.792155094444752,58.87167131382739 9.573038773611188,57.75880968384445 9.573038773611188,57.10963955760235 9.719116320833564,56.73868492100155 10.449504057876766,56.18225258617895 10.741659151855856,56.08951381925726 14.101442740764469,56.27499134041136 14.977908025030047,56.18225258617895 15.489179441239685,55.90403624798637 15.781334535218775,56.08951381925726 17.16907123569399,56.18225258617895 17.60730387736112,56.08951381925726 18.33769161393866,56.18225258617895 19.50631199264899,56.08951381925726 20.017583408392966,56.27499134041136 21.259242560714483,55.99677503987914 23.596483318600804,56.08951381925726 24.399909828789532,55.90403624798637 25.349413886200637,55.90403624798637 25.860685301944613,55.62581979559036 26.152840396855026,55.62581979559036 27.759693417698145,55.718558625667356 29.14743011724204,55.533080952765886 29.43958521215245,55.718558625667356 31.849864742718637,55.718558625667356 32.21505861124024,55.34760322928196 33.894950405694544,55.718558625667356 34.40622182143852,55.533080952765886 34.5522993686609,55.718558625667356 35.20964833162725,55.718558625667356 35.428764652926475,55.81129744328791 36.01307484228164,55.62581979559036 36.2321911631152,55.81129744328791 36.74346257885918,55.81129744328791 37.692966636735946,55.718558625667356 38.058160504791886,55.533080952765886 38.3503155997023,55.718558625667356 39.2998196571134,55.533080952765886 41.05275022564456,55.62581979559036 41.78313796175644,55.44034209725214 42.14833183027804,55.16212545521557 43.170874662231654,55.533080952765886 44.04733994603157,55.44034209725214 44.41253381455317,55.62581979559036 48.2835888187401,55.2548643485643 49.16005410300568,55.44034209725214 50.69386834977195,55.44034209725214 51.570333634037524,55.34760322928196 51.78944995487109,55.16212545521557 53.68845807015896,55.44034209725214 54.05365193868056,55.2548643485643 55.29531109146774,54.9766476303339 56.463931469712406,54.88390869856812 56.97520288545638,55.06938654900296 57.340396753977984,54.79116975457873 57.77862939611077,55.06938654900296 59.166366095654666,55.16212545521557 59.89675383223221,55.16212545521557 60.11587015306577,54.88390869856812 60.84625788964331,54.88390869856812 61.6496844002977,55.06938654900296 61.79576194752008,54.88390869856812 62.96438232623041,54.9766476303339 63.32957619475201,54.79116975457873 64.49819657346234,54.79116975457873 65.30162308365107,54.9766476303339 66.03201082069427,54.88390869856812 68.5153291253373,55.06938654900296 69.02660054061562,55.06938654900296 69.17267808830366,55.2548643485643 70.34129846701398,54.69843079801649 70.77953110914677,54.88390869856812 71.14472497720271,54.60569182870677 72.16726780869067,54.79116975457873 73.77412082953379,54.51295284653315 74.50450856611133,54.79116975457873 75.01577998232096,54.69843079801649 75.8192064925097,54.88390869856812 76.98782687075436,54.88390869856812 79.10595130734146,54.60569182870677 80.20153291290626,54.60569182870677 80.5667267809622,54.69843079801649 81.37015329115093,54.32747484423453 82.3196573490277,54.4202138519031 83.48827772773802,54.23473582405131 84.14562669070438,54.4202138519031 86.77502254256979,54.32747484423453 87.87060414813459,54.60569182870677 89.1853020740673,54.51295284653315 89.69657348981127,55.16212545521557 89.91568981064484,55.99677503987914 89.91568981064484,57.38785540196113 89.98872858472168,57.66607113229111 89.91568981064484,58.315240726980846 90.06176735833287,58.59345607715659 89.91568981064484,59.61357805423904 90.06176735833287,60.44822216790635 89.98872858472168,60.63369849859737 90.06176735833287,62.48845901736058 90.06176735833287,63.78678836621111 90.28088367916644,65.82701518532122 90.1348061314784,68.33092154114274 89.91568981064484,68.88734392210608 90.06176735833287,69.16555494157365 90.20784490555525,69.90745043678908 90.1348061314784,70.27839788014535 90.28088367916644,71.11302888713544 90.06176735833287,72.59681481146254 90.28088367916644,73.15323369734688 90.20784490555525,73.98786117136478 90.35392245277762,74.35880638618255 90.42696122638881,74.9152238285169 90.28088367916644,76.5844734198763 90.35392245277762,77.69730420177802 90.1348061314784,78.43919037649175 90.28088367916644,78.71739748306572 90.20784490555525,80.20116679382045 90.35392245277762,80.85031484765932 89.98872858472168,82.89049040671671 89.1122633004561,83.72510591422906 88.38187556387857,84.28151568298927 88.01668169535697,84.28151568298927 85.53336339024827,83.6323709085118 84.72993688005954,83.81784090743167 83.85347159579396,83.72510591422906 83.6343552749604,83.91057588800322 83.56131650134921,83.81784090743167 82.61181244347245,83.91057588800322 81.29711451753974,84.1887807531748 80.27457168651745,84.09604581067106 79.39810640225187,84.1887807531748 78.88683498650789,84.46698550449219 78.74075743928552,84.46698550449219 78.52164111845195,84.1887807531748 77.35302073927596,84.28151568298927 76.91478809760883,84.09604581067106 76.25743913464248,84.09604581067106 75.3809738503769,84.37425059993984 75.08881875546649,84.1887807531748 74.35843101888895,84.28151568298927 74.21235347166657,84.28151568298927 74.06627592397854,84.09604581067106 73.40892696101218,84.1887807531748 71.72903516702354,84.46698550449219 71.36384129850194,84.28151568298927 69.90306582534686,84.55972039635526 69.46483318321407,84.37425059993984 69.17267808830366,84.55972039635526 69.09963931469247,84.37425059993984 67.27366997301579,84.37425059993984 65.4477006313391,84.55972039635526 65.22858431050554,84.74519014213001 64.49819657346234,84.74519014213001 63.7678088368848,84.55972039635526 62.52614968456328,85.0233946655062 62.307033363729715,84.83792499575065 61.35752930538729,84.74519014213001 60.7001803428866,85.0233946655062 59.89675383223221,85.11612948117545 58.070784490555525,84.93065983685665 56.171776375267655,85.11612948117545 55.806582506746054,84.83792499575065 55.368349864613265,84.93065983685665 53.834535617381334,84.65245527547086 53.104147880803794,84.74519014213001 51.132100991904736,84.37425059993984 50.25563570810482,84.46698550449219 49.67132551828399,84.83792499575065 46.67673579789698,84.65245527547086 46.38458070298657,84.74519014213001 46.165464382153004,84.93065983685665 45.362037871964276,84.93065983685665 44.996844003442675,85.11612948117545 43.90126239834353,85.30159907491179 41.564021640922874,85.11612948117545 38.71550946775824,85.20886428444646 37.47385031543672,85.39433385286247 37.10865644738078,85.39433385286247 36.962578900158405,85.11612948117545 35.866997295059264,85.39433385286247 35.063570784870535,85.48706861794926 33.894950405694544,85.30159907491179 32.361136158462614,85.48706861794926 32.288097384851426,85.39433385286247 29.512623985297978,85.48706861794926 28.563119927886873,85.30159907491179 27.97880973853171,85.48706861794926 26.37195671768859,85.67253811034607 24.619026149623096,85.57980337034678 19.287195671815425,85.95074225374265 16.80387736717239,85.85800755198579 16.584761045873165,85.67253811034607 15.854373309295624,85.85800755198579 13.517132551874965,85.57980337034678 12.421550946775824,85.76527283765608 10.814697925932705,85.76527283765608 10.157348962966353,85.0233946655062 10.011271415743977,84.55972039635526 10.084310189355165,80.94305023329798 9.938232642132789,79.64475368213607 10.084310189355165,78.25371890870156 9.719116320833564,77.14088903879747 9.792155094444752,76.5844734198763 10.084310189355165,75.56437693501357 10.23038773657754,74.63701516424771 10.23038773657754,72.50407828617608 9.865193868521601,70.64934512099717 10.011271415743977,69.53650279022986 10.157348962966353,69.16555494157365 10.23038773657754,67.31081265892135 10.449504057876766,67.03260087943636 10.595581605099142,66.01249004685087 10.30342651065439,63.87952608172782 9.938232642132789,62.76667265809374 9.719116320833564,62.58119691017782 9.792155094444752,58.686194502108265 9.5,57.202378184883855 9.719116320833564,56.924162264564075 10.30342651065439,56.460468810691964 14.612714156974107,56.08951381925726 15.343101893551648,56.27499134041136 17.680342650972307,56.36773008183809 20.382777276914567,56.18225258617895 21.77051397645846,56.27499134041136 22.57394048711285,55.99677503987914 24.47294860240072,56.27499134041136 25.9337240755558,55.81129744328791 26.81018935982138,56.08951381925726 27.90577096492052,55.90403624798637 30.023895401507616,56.08951381925726 31.557709648273885,55.81129744328791 31.77682596910745,55.99677503987914 34.84445446310565,55.62581979559036 36.81650135247037,55.99677503987914 37.91208295756951,55.90403624798637 38.64247069414705,55.62581979559036 39.44589720480144,55.62581979559036 40.17628494137898,55.44034209725214 40.46844003582373,55.533080952765886 42.65960324648768,55.16212545521557 45.435076645575464,55.533080952765886 46.45761947706342,55.44034209725214 47.18800721364096,55.62581979559036 48.2835888187401,55.533080952765886 48.79486023448408,55.62581979559036 48.867899008095264,55.81129744328791 49.08701532939449,55.62581979559036 50.036519386805594,55.34760322928196 54.12669071229175,55.06938654900296 55.441388638690114,55.2548643485643 57.705590622499585,55.16212545521557 58.36293958546594,55.533080952765886 59.89675383223221,55.62581979559036 61.0653742114082,55.16212545521557 61.79576194752008,55.16212545521557 62.0148782688193,55.2548643485643 62.81830477900803,54.88390869856812 64.20604147901759,54.69843079801649" stroke="#4DD2FF" stroke-linecap="round" stroke-linejoin="round" stroke-width="0.5"><title>2025-04-29 5.2km</title><desc>14316581160</desc></polyline></svg>