<?xml version="1.0" encoding="utf-8" ?>
<svg baseProfile="full" height="130mm" version="1.1" viewBox="0,0,100,130" width="100mm" xmlns="http://www.w3.org/2000/svg" xmlns:ev="http://www.w3.org/2001/xml-events" xmlns:xlink="http://www.w3.org/1999/xlink"><defs /><rect fill="#222222" height="130" width="100" x="0" y="0" /><text fill="#FFFFFF" style="font-size:6px; font-family:Arial; font-weight:bold;" x="5" y="10">2025-02-21 Workouts</text><text fill="#FFFFFF" style="font-size:4px; font-family:Arial" x="5" y="110">Runner</text><text fill="#FFFFFF" style="font-size:6px; font-family:Arial" x="5" y="120">蓝皮书</text><text fill="#FFFFFF" style="font-size:4px; font-family:Arial" x="30" y="110">STATISTICS</text><text fill="#FFFFFF" style="font-size:3px; font-family:Arial" x="30" y="115">Number: 1</text><text fill="#FFFFFF" style="font-size:3px; font-family:Arial" x="30" y="120">Weekly: 1.0</text><text fill="#FFFFFF" style="font-size:3px; font-family:Arial" x="50" y="115">Total: 5.2 km</text><text fill="#FFFFFF" style="font-size:3px; font-family:Arial" x="50" y="120">Avg: 5.2 km</text><text fill="#FFFFFF" style="font-size:3px; font-family:Arial" x="75" y="115">Min: 5.2 km</text><text fill="#FFFFFF" style="font-size:3px; font-family:Arial" x="75" y="120">Max: 5.2 km</text><polyline fill="none" points="10.884615384042263,64.72633195971139 10.192307692021132,72.19740826194175 15.384615385904908,80.54741419991478 20.230769228190184,82.74478058307432 23.69230769202113,83.18425367912278 29.23076923005283,83.62372671649791 32.346153846010566,82.74478058307432 78.38461538590491,81.8658342093695 83.9230769239366,80.10794074251316 88.76923076994717,75.27372875879519 89.80769230797887,73.51583169284277 89.80769230797887,70.87898429227062 89.11538461409509,67.363184398273 89.4615384619683,65.16580751538277 89.11538461409509,63.407904928550124 86.34615384601057,59.45262060011737 83.9230769239366,57.69471489172429 82.5384615380317,57.69471489172429 79.07692307792604,55.93680822663009 70.76923076808453,55.49733141041361 66.96153846010566,55.93680822663009 61.423076923936605,55.057854532962665 59.69230769388378,55.93680822663009 57.61538461595774,55.49733141041361 53.11538461409509,55.93680822663009 51.38461538404226,55.49733141041361 47.576923076063395,56.37628498231061 38.23076923005283,56.37628498231061 36.5,56.815761680016294 23.69230769202113,55.93680822663009 18.5,57.25523831602186 13.653846152126789,59.89209687639959 11.92307692207396,61.21052534575574 11.230769230052829,63.847380665829405 10.192307692021132,65.60528301191516 10.538461536169052,68.24213473196141 9.84615384414792,69.56055978150107 11.92307692207396,77.03162486571819 16.42307692207396,81.8658342093695 19.884615384042263,83.18425367912278 25.42307692207396,83.62372671649791 42.73076923005283,82.30530742648989 47.923076923936605,83.18425367912278 69.0384615380317,81.42636093287729 80.11538461595774,82.30530742648989 82.19230769388378,81.8658342093695 88.76923076994717,75.27372875879519 88.42307692207396,73.51583169284277 89.4615384619683,69.56055978150107 89.4615384619683,66.92370914225467 88.76923076994717,63.847380665829405 85.65384615398943,59.45262060011737 79.76923076808453,56.815761680016294 75.9615384619683,57.25523831602186 66.61538461595774,56.37628498231061 64.19230769202113,56.815761680016294 61.076923076063395,55.93680822663009 57.61538461595774,56.815761680016294 53.80769230797887,55.49733141041361 45.15384615212679,55.93680822663009 40.999999998137355,56.37628498231061 34.42307692207396,55.93680822663009 29.576923076063395,56.815761680016294 23.34615384414792,55.057854532962665 12.269230769947171,59.01314426283352 9.84615384414792,65.16580751538277 10.192307692021132,73.95530604897067 11.92307692207396,77.91057255887426 14.692307690158486,80.54741419991478 18.5,83.18425367912278 23.34615384414792,84.94214546703734 29.23076923005283,84.50267261033878 37.88461538404226,82.74478058307432 39.96153846010566,83.62372671649791 43.076923076063395,82.74478058307432 49.653846153989434,83.18425367912278 74.23076923191547,81.8658342093695 77.0,82.74478058307432 82.5384615380317,81.42636093287729 88.07692307792604,77.03162486571819 89.4615384619683,73.51583169284277 90.15384615398943,66.48423382546753 86.69230769388378,59.89209687639959 82.19230769388378,57.25523831602186 80.80769230797887,57.69471489172429 79.07692307792604,56.37628498231061 74.5769230760634,55.93680822663009 70.76923076808453,56.37628498231061 57.61538461595774,55.49733141041361 51.38461538404226,56.37628498231061 47.923076923936605,55.49733141041361 42.0384615380317,55.49733141041361 31.307692306116223,57.25523831602186 24.384615382179618,56.37628498231061 19.19230769202113,56.815761680016294 14.0,58.57366786641069 12.615384614095092,59.89209687639959 9.84615384414792,65.60528301191516 9.5,70.00003467872739 10.192307692021132,73.51583169284277 12.269230769947171,78.3500463149976 11.92307692207396,79.22899364959449 15.730769230052829,80.98688759561628 18.5,83.18425367912278 19.884615384042263,83.62372671649791 33.38461538404226,83.18425367912278 40.653846153989434,83.62372671649791 49.30769230611622,82.74478058307432 51.0384615380317,83.18425367912278 54.5,82.30530742648989 58.999999998137355,83.18425367912278 64.19230769202113,81.42636093287729 68.34615384601057,82.30530742648989 80.4615384619683,81.8658342093695 84.26923076808453,80.10794074251316 87.73076923005283,77.03162486571819 90.5,72.19740826194175 90.15384615398943,70.87898429227062 90.5,67.363184398273 89.11538461409509,63.847380665829405 86.34615384601057,60.77104924921878 82.5384615380317,57.69471489172429 79.42307692207396,56.37628498231061 56.57692307792604,55.93680822663009 54.846153846010566,56.815761680016294 43.769230768084526,56.37628498231061 41.69230769202113,55.49733141041361 35.80769230797887,56.815761680016294 30.961538461968303,56.37628498231061 29.923076923936605,55.93680822663009 27.846153846010566,56.37628498231061 26.80769230797887,55.49733141041361 21.961538461968303,56.37628498231061 15.038461538031697,58.57366786641069 12.615384614095092,60.331573092145845 10.884615384042263,63.847380665829405 10.192307692021132,70.00003467872739 10.538461536169052,72.19740826194175 11.92307692207396,75.71320287580602 11.576923076063395,77.47109874268062 12.615384614095092,78.78952001268044 16.42307692207396,82.30530742648989 22.65384615212679,84.50267261033878 44.11538461409509,82.30530742648989 45.846153846010566,83.18425367912278 47.23076923005283,82.30530742648989 49.653846153989434,81.8658342093695 52.076923076063395,81.8658342093695 53.11538461409509,82.74478058307432 61.076923076063395,81.8658342093695 62.11538461409509,82.30530742648989 79.07692307792604,81.8658342093695 83.57692307792604,80.54741419991478 87.38461538404226,77.03162486571819 90.15384615398943,71.75793366553262 88.76923076994717,66.48423382546753 87.0384615380317,62.08947735908441 83.57692307792604,58.134191409219056 80.11538461595774,56.815761680016294 77.0,57.25523831602186 68.34615384601057,55.93680822663009 52.769230768084526,56.815761680016294 45.15384615212679,55.93680822663009 35.11538461409509,55.93680822663009 33.73076923005283,57.25523831602186 19.884615384042263,57.25523831602186 15.038461538031697,60.331573092145845 11.92307692207396,64.72633195971139 10.884615384042263,73.07635727524757 10.192307692021132,74.39478034479544 13.307692306116223,79.22899364959449 15.384615385904908,80.98688759561628 22.307692306116223,83.62372671649791 34.076923076063395,82.74478058307432 37.5384615380317,83.62372671649791 45.15384615212679,82.74478058307432 51.0384615380317,83.18425367912278 68.34615384601057,81.8658342093695 75.9615384619683,82.30530742648989 81.15384615398943,81.8658342093695 87.73076923005283,77.47109874268062 89.4615384619683,73.51583169284277 90.15384615398943,68.68160980939865 89.4615384619683,64.72633195971139 88.42307692207396,62.96842913283035 84.61538461595774,58.57366786641069 81.5,57.69471489172429 74.5769230760634,57.25523831602186 70.42307692207396,56.37628498231061 66.61538461595774,56.815761680016294 63.153846153989434,55.93680822663009 56.57692307792604,56.37628498231061 46.19230769202113,55.49733141041361 43.076923076063395,55.93680822663009 41.69230769202113,55.49733141041361 37.19230769202113,56.815761680016294 31.999999998137355,55.93680822663009 26.461538460105658,57.25523831602186 23.69230769202113,56.37628498231061 19.19230769202113,56.815761680016294 16.769230768084526,58.57366786641069 15.384615385904908,58.134191409219056 12.615384614095092,60.77104924921878 10.538461536169052,65.60528301191516 10.192307692021132,71.75793366553262 11.92307692207396,77.03162486571819 14.346153846010566,78.3500463149976 15.730769230052829,80.98688759561628 21.961538461968303,83.62372671649791 25.07692307792604,82.74478058307432 28.19230769202113,83.62372671649791 35.11538461409509,82.74478058307432 63.153846153989434,81.8658342093695 73.53846153616905,82.30530742648989 77.34615384787321,81.42636093287729 80.11538461595774,81.8658342093695 83.9230769239366,80.54741419991478 87.73076923005283,76.1526769332122 89.11538461409509,73.07635727524757 88.76923076994717,71.31845900858752 90.15384615398943,68.24213473196141 87.73076923005283,63.847380665829405 86.69230769388378,63.407904928550124 84.26923076808453,59.01314426283352 81.5,56.815761680016294 79.07692307792604,55.93680822663009 76.65384615212679,57.25523831602186 69.73076923005283,55.057854532962665 67.30769230797887,56.37628498231061 36.15384615212679,56.37628498231061 33.0384615380317,57.25523831602186 24.038461538031697,57.69471489172429 19.19230769202113,57.25523831602186 15.730769230052829,58.57366786641069 12.961538460105658,60.77104924921878 10.538461536169052,66.04475844884291 9.84615384414792,70.4395095158834 12.269230769947171,76.5921509291511 14.346153846010566,80.10794074251316 21.269230768084526,83.18425367912278 24.73076923005283,82.74478058307432 26.461538460105658,83.62372671649791 31.999999998137355,82.30530742648989 37.88461538404226,84.06319969263859 43.076923076063395,83.18425367912278 49.653846153989434,83.62372671649791 52.076923076063395,82.74478058307432 58.653846153989434,83.18425367912278 62.11538461409509,81.8658342093695 73.53846153616905,81.8658342093695 79.07692307792604,82.74478058307432 83.9230769239366,80.54741419991478 85.65384615398943,78.78952001268044 85.65384615398943,77.03162486571819 87.38461538404226,76.1526769332122 89.4615384619683,71.75793366553262 89.80769230797887,66.48423382546753 88.07692307792604,62.96842913283035 85.65384615398943,60.331573092145845 79.42307692207396,56.815761680016294 74.92307692207396,55.93680822663009 73.19230769202113,55.93680822663009 68.0,57.69471489172429 64.88461538404226,57.25523831602186 61.076923076063395,58.134191409219056 57.61538461595774,56.815761680016294 46.88461538404226,57.25523831602186 43.42307692207396,56.37628498231061 34.42307692207396,57.25523831602186 28.19230769202113,55.93680822663009 25.07692307792604,56.815761680016294 21.615384614095092,56.815761680016294 16.076923076063395,59.01314426283352 12.615384614095092,61.65000138292089 11.576923076063395,63.407904928550124 11.92307692207396,64.72633195971139 10.538461536169052,68.68160980939865 11.230769230052829,74.39478034479544 14.0,80.10794074251316 15.730769230052829,81.8658342093695 18.5,82.30530742648989 21.269230768084526,84.06319969263859 30.615384614095092,83.18425367912278 36.846153846010566,83.62372671649791 49.999999998137355,82.30530742648989 58.30769230797887,83.18425367912278 61.769230768084526,82.30530742648989 71.80769230611622,82.30530742648989 74.23076923191547,81.42636093287729 77.34615384787321,81.8658342093695 78.38461538590491,82.74478058307432 82.88461538404226,82.30530742648989 86.34615384601057,79.22899364959449 90.5,69.1210848253686 88.76923076994717,64.28685634210706 85.30769230797887,59.01314426283352 82.19230769388378,57.25523831602186 79.07692307792604,56.815761680016294 77.34615384787321,55.93680822663009 75.26923076994717,55.93680822663009 70.42307692207396,57.69471489172429 64.5384615380317,56.37628498231061 58.999999998137355,56.815761680016294 54.5,56.37628498231061 53.4615384619683,56.815761680016294 49.653846153989434,56.37628498231061 45.15384615212679,56.815761680016294 43.076923076063395,55.93680822663009 35.80769230797887,57.25523831602186 32.346153846010566,56.37628498231061 24.038461538031697,57.69471489172429 19.19230769202113,57.69471489172429 14.0,60.77104924921878 11.576923076063395,65.60528301191516 9.84615384414792,69.56055978150107 12.269230769947171,74.39478034479544 12.269230769947171,77.91057255887426 13.307692306116223,80.54741419991478 16.769230768084526,82.74478058307432 20.92307692207396,83.62372671649791 35.46153846010566,83.18425367912278 38.23076923005283,84.06319969263859 42.73076923005283,83.18425367912278 50.346153846010566,83.18425367912278 55.19230769202113,82.30530742648989 60.0384615380317,83.62372671649791 63.153846153989434,82.30530742648989 74.92307692207396,82.74478058307432 80.80769230797887,81.42636093287729 83.57692307792604,80.98688759561628 87.73076923005283,76.5921509291511 89.11538461409509,73.07635727524757 89.80769230797887,68.24213473196141 87.0384615380317,62.08947735908441 85.30769230797887,59.89209687639959 76.30769230611622,55.93680822663009 74.23076923191547,56.815761680016294 65.23076923005283,57.25523831602186 62.4615384619683,56.37628498231061 56.23076923005283,56.815761680016294 53.80769230797887,57.69471489172429 46.19230769202113,56.37628498231061 37.5384615380317,57.25523831602186 33.38461538404226,56.37628498231061 26.80769230797887,57.69471489172429 24.038461538031697,57.25523831602186 17.807692306116223,59.01314426283352 11.576923076063395,65.16580751538277 10.192307692021132,65.60528301191516 9.84615384414792,70.00003467872739 11.92307692207396,77.47109874268062 18.153846153989434,82.74478058307432 27.499999998137355,83.62372671649791 42.73076923005283,81.42636093287729 47.576923076063395,81.8658342093695 55.88461538217962,80.98688759561628 68.0,80.98688759561628 71.4615384619683,80.10794074251316 79.76923076808453,80.10794074251316" stroke="#4DD2FF" stroke-linecap="round" stroke-linejoin="round" stroke-width="0.5"><title>2025-02-21 5.2km</title><desc>13682481409</desc></polyline></svg>