<?xml version="1.0" encoding="utf-8" ?>
<svg baseProfile="full" height="130mm" version="1.1" viewBox="0,0,100,130" width="100mm" xmlns="http://www.w3.org/2000/svg" xmlns:ev="http://www.w3.org/2001/xml-events" xmlns:xlink="http://www.w3.org/1999/xlink"><defs /><rect fill="#222222" height="130" width="100" x="0" y="0" /><text fill="#FFFFFF" style="font-size:6px; font-family:Arial; font-weight:bold;" x="5" y="10">2025-01-18 Workouts</text><text fill="#FFFFFF" style="font-size:4px; font-family:Arial" x="5" y="121">Runner</text><text fill="#FFFFFF" style="font-size:6px; font-family:Arial" x="2" y="128">蓝皮书</text><text fill="#FFFFFF" style="font-size:4px; font-family:Arial" x="25" y="121">STATISTICS</text><text fill="#FFFFFF" style="font-size:3px; font-family:Arial" x="25" y="125">Number: 1</text><text fill="#FFFFFF" style="font-size:3px; font-family:Arial" x="25" y="129">Weekly: 1.0</text><text fill="#FFFFFF" style="font-size:3px; font-family:Arial" x="48" y="125">Total: 10.3 km</text><text fill="#FFFFFF" style="font-size:3px; font-family:Arial" x="48" y="129">Avg: 10.3 km</text><text fill="#FFFFFF" style="font-size:3px; font-family:Arial" x="75" y="125">Min: 10.3 km</text><text fill="#FFFFFF" style="font-size:3px; font-family:Arial" x="75" y="129">Max: 10.3 km</text><polyline fill="none" points="88.94870041008107,56.11801280756481 88.56087551312521,56.68906422168948 88.00683994498104,59.187406542361714 87.45280437753536,60.258120884536766 87.50820793421008,61.186071472475305 87.12038303702138,62.97058702661889 87.17578659392893,64.11267366172979 86.62175102578476,67.25339854968479 86.45554035552777,71.25065643439302 86.89876880985685,74.4627156657516 86.67715458292514,75.46201880270382 86.62175102578476,77.74613281094935 86.17852257192135,82.24295198224718 85.9015047880821,83.24223967723083 86.40013679885305,87.02523941354593 86.34473324217834,89.16654742113315 85.67989056068473,89.45205446728505 84.95964432274923,89.38067772088107 80.58276333776303,90.16582137474325 78.200410396792,90.8082107262453 76.31668946659192,91.16509334527655 75.5964432284236,91.5933521539555 74.98700410383753,93.30638374667615 74.70998631999828,93.37775993644027 73.38030095747672,92.66399758245097 72.66005471930839,91.8074814217398 72.54924760595895,91.16509334527655 72.71545827621594,90.73683417215943 72.43844049237669,89.73756135179428 72.16142270853743,87.23937062406912 71.93980848137289,87.02523941354593 71.82900136802346,85.52631838951493 70.94254445959814,84.31290286377771 70.27770177857019,84.0987704086001 69.00341997272335,84.17014790390385 67.56292749661952,84.59841266233707 65.84541723667644,84.59841266233707 64.95896032825112,84.45565778337186 63.18604651163332,84.45565778337186 62.299589603208005,84.8125449049403 61.91176470601931,85.24080911721103 61.35772913810797,88.38140220905188 60.74829001375474,89.88031473319279 59.97264021891169,91.09371684165671 59.25239398074336,91.45059925824171 58.69835841306485,91.5933521539555 57.75649794796482,91.5933521539555 56.038987688254565,91.23646983865183 54.210670314729214,91.30784632189898 52.38235294120386,91.66472858679481 50.332421340513974,91.73610500933137 46.509575923206285,91.52197571110446 44.0718194253277,91.73610500933137 43.12995896022767,91.73610500933137 42.24350205180235,91.8788578241365 40.193570451345295,93.30638374667615 37.589603282976896,95.66179267014377 37.47879616939463,96.09004765428836 37.31258549937047,97.94581504305825 37.53419972630218,102.37107890669722 37.0909712719731,103.15620230411878 34.65321477409452,105.29744171130005 33.766757865669206,105.44019068131456 32.71409028721973,105.08331818022998 30.99658002704382,104.7978199973004 29.66689466498792,104.94056910916697 28.725034199887887,105.22606721101329 25.567031463608146,106.79630387830548 23.40629274956882,108.2951615836937 22.464432284235954,108.43790970375994 21.57797537604347,108.36653564876178 20.8577291383408,108.0810393273714 18.47537619713694,107.5814203756745 15.926812585443258,106.79630387830548 14.098495211917907,106.79630387830548 13.32284541707486,106.43943233852042 12.436388508882374,105.29744171130005 11.494528043782339,104.72644542634953 10.331053351517767,104.6550708450959 10.054035567678511,104.7978199973004 9.5,105.51156515110051 9.666210670024157,105.7256884999224 10.940492476103827,105.22606721101329 11.771545827621594,105.29744171130005 12.325581395532936,105.58293961075833 12.60259917913936,106.51080666662892 12.990424076560885,106.93905242340406 13.544459644006565,107.29592360905372 15.81600547186099,107.51004619908053 21.910396716790274,109.08027574396692 22.907660738565028,108.9375278056832 23.738714090315625,108.65203180827666 24.348153214668855,108.2951615836937 24.846785225672647,107.79554284422193 26.176470588194206,107.29592360905372 28.835841313237324,105.86843734851573 30.220930232433602,105.36881620122585 31.66142270853743,105.29744171130005 34.3761969904881,105.93981175776571 35.31805745558813,105.58293961075833 35.705882352776825,105.08331818022998 38.14363885088824,102.8707030286896 38.309849521145225,102.51382870640373 38.309849521145225,101.72870430722833 37.700410396791995,98.37406808452215 37.0909712719731,98.23131711117458 34.09917920664884,98.37406808452215 33.268125854898244,98.23131711117458 32.99110807129182,97.94581504305825 33.10191518464126,95.80454437201843 32.71409028721973,92.59262129140552 33.04651162796654,92.02161059860373 34.3761969904881,91.66472858679481 34.98563611484133,91.73610500933137 37.42339261295274,91.23646983865183 38.03283173730597,91.37922279525083 39.19630642957054,91.45059925824171 39.6949384403415,91.16509334527655 40.58139534876682,91.5933521539555 42.46511627919972,92.02161059860373 43.62859097123146,92.02161059860373 44.0718194253277,91.8074814217398 44.34883720916696,91.8788578241365 45.73392612859607,91.66472858679481 48.72571819415316,92.16436333255842 50.387824897421524,92.23573968413984 52.10533515736461,92.02161059860373 53.435020519653335,91.5933521539555 54.37688098475337,91.5933521539555 55.8173734608572,91.52197571110446 58.532147742807865,91.8788578241365 59.751025991747156,91.37922279525083 60.3050615596585,90.73683417215943 61.136114910943434,89.0237938372884 61.634746921947226,86.45422240678454 61.634746921947226,85.74045023752842 60.969904240686446,83.74188278091606 58.97537619690411,80.45850473671453 57.70109439105727,78.0316463332274 56.9808481533546,73.8916844111518 56.038987688254565,72.32134512189077 54.764705882407725,70.67962153663393 53.87824897374958,68.89513330726186 52.38235294120386,66.96787891513668 51.7729138166178,65.8971788425115 50.886456908425316,62.61368442181265 49.002735977992415,58.11668992310297 48.448700410313904,57.688402637664694 46.39876880985685,56.68906422168948 45.179890560684726,55.83248685760191 44.34883720916696,55.11867127439473 43.850205198396,54.333472963713575 43.406976744299755,52.834454606461804 43.07455540355295,50.264698466751724 43.12995896022767,49.979169197089504 43.406976744299755,49.765022138599306 47.119015047792345,49.765022138599306 48.06087551289238,49.62225738231791 48.61491108080372,49.33672774821753 48.83652530773543,48.76566799421562 49.002735977992415,47.55216386652319 48.83652530773543,41.84151693421882 50.60943912435323,40.62799611577066 51.606703146360815,40.62799611577066 51.88372093020007,40.48522876831703 52.271545827621594,39.628623833472375 52.4931600545533,39.485856202663854 54.32147742807865,39.27170468022814 54.48768809833564,38.91478527424624 54.59849521191791,39.2003208193928 55.70656634750776,39.05755306704668 56.149794801604,38.91478527424624 56.48221614211798,37.98679363395786 56.26060191495344,35.2028084496269 56.31600547186099,34.48896361456718 56.593023255700245,33.48957914515631 57.257865936961025,32.70434709865367 58.6429548561573,32.20465334045002 60.63748290017247,31.919113827345427 61.9671682624612,31.990498720901087 63.019835841143504,32.34742303623352 63.518467852147296,32.70434709865367 64.95896032825112,34.132040817523375 66.51025991793722,34.34619452629704 67.45212038303725,33.91788701788755 67.67373460996896,33.34680977318203 67.72913816687651,31.562189208285417 68.17236662097275,31.062494316371158 69.44664842681959,31.13387933128979 70.83173734601587,31.490804254135583 74.82079343358055,32.13326847727876 76.31668946659192,32.63296230637934 77.25854993169196,32.70434709865367 77.53556771553122,32.561577504035085 78.36662106681615,31.205264335905667 78.86525307781994,30.919724256091285 79.19767441856675,30.9911092913826 79.75170998624526,31.27664933068445 79.9733242134098,31.633574152190704 80.08413132699206,33.0612709079287 83.29753761948086,36.844647728605196 84.18399452790618,39.55724002304487 85.84610123117454,41.55598288727924 87.45280437753536,41.84151693421882 88.94870041008107,41.62736641417723 89.33652530773543,41.62736641417723 89.66894664848223,42.12705081934109 89.50273597822525,42.983651502931025 90.5,45.196529856475536 90.27838577283546,45.553444808814675 89.22571819438599,46.19589108572109 88.78248974005692,47.05248484603362 89.11491108057089,53.83380067406688 87.28659370727837,62.54230387043208 86.51094391243532,69.96582700387808 86.56634746887721,71.67893218266545 86.89876880985685,74.03444228554145 86.89876880985685,75.6761549313087 86.78796169627458,75.96166962751886 86.78796169627458,77.38924068008782 86.01231190143153,82.45708522672066 86.01231190143153,84.0987704086001 86.34473324217834,89.38067772088107 85.790697674267,89.59480792965041 85.29206566349603,89.52343120367732 83.62995896022767,89.8089380475576 77.86798905581236,90.66545760788722 76.20588235277683,91.09371684165671 75.54103967151605,91.66472858679481 75.04240766051225,93.02087888587266 74.82079343358055,93.23500754660927 74.59917920641601,93.16363133653067 73.324897400802,92.66399758245097 72.6046511628665,91.8074814217398 72.2722298221197,89.09517063410021 72.05061559518799,88.52415597508661 72.10601915186271,87.02523941354593 71.44117647060193,84.8125449049403 71.05335157318041,84.31290286377771 70.27770177857019,84.02739290334284 69.05882352939807,84.02739290334284 67.67373460996896,84.52703522791853 64.73734610131942,84.31290286377771 63.29685362521559,84.38428032863885 61.91176470601931,85.02667705662316 61.025307797361165,88.6669097005506 60.74829001375474,88.6669097005506 59.64021887816489,88.23864840250462 54.820109439082444,88.45277909724973 54.43228454166092,88.80966338561848 54.48768809833564,89.66618464584462 54.32147742807865,90.23719800991239 52.770177838625386,91.52197571110446 52.160738714039326,91.37922279525083 50.11080711334944,91.73610500933137 46.12175102578476,91.30784632189898 44.0718194253277,91.73610500933137 43.296169630484655,91.5933521539555 42.46511627919972,91.73610500933137 41.80027359770611,91.66472858679481 39.584131326992065,90.8082107262453 39.03009575908072,91.16509334527655 38.08823529374786,91.16509334527655 37.53419972630218,90.87958727020305 36.70314637478441,91.09371684165671 35.53967168251984,91.16509334527655 32.824897400802,92.02161059860373 32.71409028721973,92.30711602576775 32.88030095724389,95.3762891452061 32.71409028721973,97.94581504305825 32.88030095724389,98.23131711117458 33.268125854898244,98.51681901718257 35.53967168251984,98.58819446858251 37.2017783857882,98.23131711117458 37.36798905604519,98.44544355600374 37.2017783857882,100.80082843900891 37.25718194269575,101.44320422236342 37.645006839884445,102.15695413132198 37.47879616939463,102.8707030286896 37.31258549937047,103.15620230411878 36.48153214761987,103.51307617116254 35.761285909684375,104.08407383190934 34.43160054739565,105.36881620122585 33.65595075231977,105.44019068131456 32.27086183289066,104.86919455823954 31.10738714109175,104.6550708450959 30.774965800344944,104.7978199973004 29.77770177833736,104.72644542634953 28.55882352939807,105.15469270077301 27.22913816664368,105.86843734851573 24.292749657994136,107.65279454202391 23.96032831724733,108.22378750832286 21.910396716790274,108.50928374857176 20.026675786590204,108.15241342305671 16.314637482864782,106.86767815594794 13.544459644006565,106.65355529269436 12.935020519886166,106.08256054559024 12.436388508882374,105.22606721101329 11.605335157131776,104.72644542634953 11.051299589453265,104.72644542634953 10.164842681027949,104.51232165255351 9.832421340513974,104.94056910916697 9.832421340513974,105.29744171130005 10.331053351517767,105.51156515110051 11.106703146127984,105.22606721101329 11.771545827621594,105.29744171130005 12.380984951974824,105.86843734851573 12.879616962978616,106.93905242340406 13.489056087331846,107.36729781597387 16.203830369282514,107.43867201259127 21.4671682624612,109.00890177977271 23.184678522637114,108.7947798272362 25.23461012309417,107.51004619908053 26.675102598965168,106.72492959059309 26.896716826129705,106.72492959059309 28.946648426586762,105.7256884999224 30.054719562176615,105.44019068131456 31.218194254441187,105.36881620122585 33.932968536391854,105.86843734851573 34.542407660745084,105.7256884999224 35.096443228190765,105.44019068131456 38.14363885088824,102.6565784655977 38.309849521145225,102.08557918603765 37.81121751014143,99.15919771435438 37.81121751014143,96.01867184898583 38.08823529374786,95.59041680413065 39.97195622394793,93.87739298224915 40.96922024618834,93.09225511638215 42.57592339254916,92.23573968413984 43.961012311978266,92.02161059860373 47.34062927495688,91.95023421628866 48.00547195621766,92.16436333255842 49.612175102578476,92.23573968413984 52.825581395300105,92.02161059860373 53.60123118991032,91.66472858679481 54.37688098475337,90.5227044489584 54.54309165501036,90.23719800991239 54.54309165501036,89.30930096446536 54.65389876905829,89.09517063410021 54.87551299575716,88.9524170299992 60.08344733226113,88.45277909724973 61.025307797361165,88.7382865480613 61.24692202475853,88.59553284279536 61.52393980836496,87.02523941354593 61.35772913810797,84.95529968303163 60.74829001375474,83.3849949001451 58.69835841306485,80.03023645660141 57.59028727770783,77.8175112066674 57.03625171002932,74.39133679430233 56.648426812607795,73.39203153224662 53.76744186040014,68.96651295787888 52.4931600545533,67.53891802247381 51.88372093020007,66.32545914471848 49.94459644332528,60.04397819831502 49.002735977992415,58.330833429005 48.9473324213177,57.90254632604774 49.058139534899965,57.688402637664694 50.332421340513974,56.546301428985316 50.941860465100035,55.76110534486361 51.7729138166178,53.905182459857315 52.271545827621594,53.19136414391687 53.82284541730769,52.33478082885267 54.43228454166092,52.26339882006869 56.593023255700245,51.26404963526875 57.313269493868575,50.76437429903308 58.19972640206106,49.8364045015187 59.97264021891169,48.979815478029195 63.18604651163332,48.12322499696165 66.8426812584512,47.69492920988705 68.39398084813729,47.33801577548729 74.8761969904881,46.766953754471615 77.3693570450414,46.4100396623835 78.25581395346671,46.12450820649974" stroke="#FFFF00" stroke-linecap="round" stroke-linejoin="round" stroke-width="0.5"><title>2025-01-18 10.3km</title><desc>13383986540</desc></polyline></svg>