<?xml version="1.0" encoding="utf-8" ?>
<svg baseProfile="full" height="130mm" version="1.1" viewBox="0,0,100,130" width="100mm" xmlns="http://www.w3.org/2000/svg" xmlns:ev="http://www.w3.org/2001/xml-events" xmlns:xlink="http://www.w3.org/1999/xlink"><defs /><rect fill="#222222" height="130" width="100" x="0" y="0" /><text fill="#FFFFFF" style="font-size:6px; font-family:Arial; font-weight:bold;" x="5" y="10">2025-03-13 Workouts</text><text fill="#FFFFFF" style="font-size:4px; font-family:Arial" x="5" y="110">Runner</text><text fill="#FFFFFF" style="font-size:6px; font-family:Arial" x="5" y="120">蓝皮书</text><text fill="#FFFFFF" style="font-size:4px; font-family:Arial" x="30" y="110">STATISTICS</text><text fill="#FFFFFF" style="font-size:3px; font-family:Arial" x="30" y="115">Number: 1</text><text fill="#FFFFFF" style="font-size:3px; font-family:Arial" x="30" y="120">Weekly: 1.0</text><text fill="#FFFFFF" style="font-size:3px; font-family:Arial" x="50" y="115">Total: 5.1 km</text><text fill="#FFFFFF" style="font-size:3px; font-family:Arial" x="50" y="120">Avg: 5.1 km</text><text fill="#FFFFFF" style="font-size:3px; font-family:Arial" x="75" y="115">Min: 5.1 km</text><text fill="#FFFFFF" style="font-size:3px; font-family:Arial" x="75" y="120">Max: 5.1 km</text><polyline fill="none" points="10.890557941049337,69.11731063830666 12.628755364567041,77.94452149490826 28.967811159789562,84.56491382117383 58.16952789761126,82.35811788542196 76.24678111635149,83.6821956273634 84.93776823952794,81.03403960028663 89.80472102947533,71.76547642610967 89.10944206081331,65.58641954674385 82.85193132981658,57.64190049073659 80.0708154514432,58.08326317323372 75.55150214582682,56.31781208375469 63.036480685696006,55.43508617882617 52.25965665280819,58.08326317323372 48.783261803910136,57.64190049073659 43.916309013962746,57.20053774910048 33.487124463543296,56.31781208375469 28.620171673595905,56.31781208375469 20.624463519081473,57.64190049073659 13.671673819422722,62.05552459927276 11.238197423517704,65.14505788940005 10.54291845485568,73.08955850638449 11.933476394042373,76.62044140323997 22.362660944461823,84.12355475337245 36.268240343779325,83.2408364394214 48.43562231771648,83.2408364394214 56.431330470368266,82.79947719280608 64.07939914055169,82.35811788542196 81.11373390629888,81.91675851726905 87.37124463543296,78.38588140462525 89.80472102947533,71.32411561184563 89.10944206081331,67.35186557425186 85.28540772385895,60.731437999755144 79.02789699472487,56.75917494739406 72.42274678125978,55.43508617882617 64.77467811107635,55.43508617882617 62.34120171703398,57.20053774910048 52.6072961371392,57.64190049073659 47.04506437666714,58.52462579566054 40.43991416320205,58.08326317323372 20.624463519081473,58.08326317323372 13.32403433509171,62.938248698366806 10.890557941049337,75.73772104061209 16.45278969965875,83.2408364394214 34.18240343220532,84.56491382117383 54.69313304685056,83.2408364394214 62.34120171703398,83.2408364394214 68.25107296183705,82.79947719280608 79.02789699472487,81.91675851726905 84.59012875519693,81.03403960028663 89.10944206081331,72.20683717960492 88.41416309028864,64.70369617221877 81.11373390629888,57.20053774910048 74.50858368910849,55.43508617882617 64.42703862674534,55.43508617882617 58.51716738194227,55.87644916167483 55.73605150170624,56.31781208375469 51.21673819795251,57.64190049073659 34.530042918398976,59.40735085844062 28.620171673595905,59.40735085844062 26.186695277690887,59.40735085844062 15.757510730996728,61.172800259664655 12.28111588023603,64.26233439333737 11.238197423517704,67.35186557425186 12.28111588023603,77.0618014940992 17.14806867018342,81.91675851726905 30.010729614645243,82.79947719280608 42.17811158671975,82.79947719280608 55.73605150170624,82.79947719280608 63.731759656220675,82.79947719280608 68.94635193049908,81.47539908927865 74.16094420664012,82.79947719280608 87.02360515110195,80.15132044325583 90.5,72.20683717960492 87.37124463543296,61.61416246020235 76.24678111635149,57.20053774910048 71.03218884021044,57.20053774910048 59.907725321128964,55.87644916167483 53.30257510766387,56.31781208375469 49.82618025690317,55.43508617882617 43.916309013962746,57.64190049073659 31.053648069500923,57.20053774910048 17.84334764070809,59.84871329902671 14.714592276141047,62.49688667827286 11.238197423517704,67.79322693147697 11.585836909711361,77.0618014940992 12.976394850760698,78.82724125520326 15.409871244803071,80.59268005285412 22.362660944461823,84.12355475337245 60.950643775984645,84.12355475337245 69.6416308991611,83.2408364394214 79.02789699472487,82.79947719280608 88.41416309028864,76.17908125277609 89.45708154328167,70.88275473797694 88.41416309028864,63.37961065606214 85.63304721005261,58.52462579566054 76.94206008501351,55.87644916167483 63.38412017188966,56.31781208375469 55.73605150170624,56.75917494739406 52.25965665280819,56.75917494739406 42.52575107291341,57.20053774910048 33.83476394787431,56.75917494739406 23.05793991498649,57.20053774910048 16.105150217190385,61.172800259664655 14.019313305616379,63.37961065606214 10.195278970524669,68.67594946338795 12.28111588023603,78.38588140462525 21.319742489606142,82.79947719280608 29.66309013031423,82.35811788542196 34.87768240272999,83.2408364394214 48.08798283152282,83.2408364394214 64.77467811107635,82.79947719280608 68.94635193049908,84.12355475337245 79.02789699472487,82.35811788542196 88.41416309028864,77.0618014940992 90.15236051380634,66.46914268122055 86.67596566490829,58.965988356852904 69.6416308991611,56.31781208375469 60.25536480732262,56.75917494739406 54.69313304685056,56.75917494739406 44.95922746695578,57.64190049073659 40.43991416320205,58.52462579566054 33.139484979212284,58.52462579566054 16.45278969965875,60.290075678844005 11.585836909711361,65.58641954674385 10.890557941049337,73.08955850638449 14.019313305616379,79.70996077451855 36.96351931244135,81.03403960028663 42.52575107291341,80.59268005285412 49.82618025690317,81.91675851726905 73.11802575178444,81.91675851726905 83.5472102984786,81.03403960028663 87.02360515110195,77.0618014940992 90.15236051380634,70.00003280863166 89.10944206081331,62.938248698366806 85.28540772385895,58.52462579566054 75.55150214582682,56.31781208375469 73.46566523611546,58.08326317323372 69.29399141483009,57.20053774910048 57.126609440892935,57.64190049073659 40.43991416320205,58.52462579566054 32.09656652249396,57.64190049073659 17.84334764070809,58.965988356852904 10.195278970524669,69.55867175292224 11.585836909711361,77.0618014940992 16.80042918585241,82.35811788542196 31.053648069500923,81.47539908927865 44.95922746695578,81.47539908927865 68.59871244616807,81.91675851726905 77.98497853986919,81.91675851726905 85.28540772385895,80.15132044325583 89.45708154328167,76.17908125277609 89.80472102947533,69.55867175292224 80.0708154514432,56.75917494739406 73.11802575178444,57.20053774910048 60.950643775984645,57.64190049073659 49.47854077257216,58.52462579566054 43.916309013962746,58.08326317323372 38.7017167378217,58.965988356852904 29.315450644120574,58.52462579566054 18.190987123176455,59.40735085844062 12.628755364567041,64.70369617221877 10.890557941049337,75.73772104061209 18.88626609556377,83.6821956273634 22.362660944461823,83.6821956273634 34.18240343220532,83.6821956273634 43.916309013962746,82.79947719280608 47.04506437666714,82.79947719280608 59.907725321128964,81.03403960028663 73.81330472230911,81.03403960028663 83.19957081601024,80.59268005285412 88.06652360595763,77.50316152488813 90.15236051380634,71.76547642610967 87.71888411976397,62.938248698366806 79.02789699472487,56.31781208375469 75.89914163015783,55.87644916167483 71.03218884021044,56.31781208375469 61.645922746509314,56.31781208375469 53.65021459013224,57.20053774910048 45.30686695314944,57.20053774910048 23.405579399317503,58.08326317323372 14.019313305616379,62.938248698366806 10.195278970524669,66.91050415835343 9.847639486193657,74.41364004393108 11.933476394042373,78.38588140462525 17.84334764070809,82.79947719280608 30.358369098976254,84.56491382117383 40.43991416320205,82.35811788542196 47.3927038628608,81.91675851726905 52.95493562147021,81.91675851726905 60.25536480732262,81.47539908927865 63.731759656220675,81.47539908927865 73.11802575178444,81.03403960028663 81.8090128749609,80.59268005285412 84.59012875519693,78.82724125520326 89.10944206081331,73.97227959218435 89.80472102947533,65.58641954674385 84.24248927086592,57.64190049073659 73.11802575178444,55.87644916167483 64.77467811107635,56.31781208375469 41.83047210238874,58.965988356852904 34.87768240272999,57.20053774910048 18.190987123176455,58.08326317323372 14.714592276141047,60.290075678844005 10.54291845485568,66.46914268122055 10.54291845485568,75.29636076861061 14.714592276141047,81.47539908927865 20.624463519081473,84.12355475337245 36.268240343779325,84.12355475337245 69.6416308991611,83.2408364394214" stroke="#4DD2FF" stroke-linecap="round" stroke-linejoin="round" stroke-width="0.5"><title>2025-03-13 5.1km</title><desc>13869735456</desc></polyline></svg>