<?xml version="1.0" encoding="utf-8" ?>
<svg baseProfile="full" height="130mm" version="1.1" viewBox="0,0,100,130" width="100mm" xmlns="http://www.w3.org/2000/svg" xmlns:ev="http://www.w3.org/2001/xml-events" xmlns:xlink="http://www.w3.org/1999/xlink"><defs /><rect fill="#222222" height="130" width="100" x="0" y="0" /><text fill="#FFFFFF" style="font-size:6px; font-family:Arial; font-weight:bold;" x="5" y="10">2025-04-06 Workouts</text><text fill="#FFFFFF" style="font-size:4px; font-family:Arial" x="5" y="110">Runner</text><text fill="#FFFFFF" style="font-size:6px; font-family:Arial" x="5" y="120">蓝皮书</text><text fill="#FFFFFF" style="font-size:4px; font-family:Arial" x="30" y="110">STATISTICS</text><text fill="#FFFFFF" style="font-size:3px; font-family:Arial" x="30" y="115">Number: 1</text><text fill="#FFFFFF" style="font-size:3px; font-family:Arial" x="30" y="120">Weekly: 1.0</text><text fill="#FFFFFF" style="font-size:3px; font-family:Arial" x="50" y="115">Total: 10.6 km</text><text fill="#FFFFFF" style="font-size:3px; font-family:Arial" x="50" y="120">Avg: 10.6 km</text><text fill="#FFFFFF" style="font-size:3px; font-family:Arial" x="75" y="115">Min: 10.6 km</text><text fill="#FFFFFF" style="font-size:3px; font-family:Arial" x="75" y="120">Max: 10.6 km</text><polyline fill="none" points="24.164685531985015,110.5 26.357836165931076,110.21740475736442 26.88419231818989,109.9348093145527 27.542137508280575,110.04784751567058 30.130055256420746,109.70873281575041 30.919589484576136,109.4261370121385 31.138904547784477,109.76525195257273 31.402082624146715,109.70873281575041 31.35821961122565,109.03050255030394 31.75298672541976,108.5783483987907 32.27934287767857,107.16536336834542 33.200466143898666,102.5872574566165 33.1127401185222,100.7220881175308 33.375918194651604,99.42211644587223 34.60408254945651,99.76123989955522 37.01654824707657,101.40033252371359 40.08695913455449,102.8133379954379 41.40284951496869,102.98289831538568 43.28895906009711,103.66113887363463 43.903041237732396,103.54809886077419 43.55213713622652,102.47421713924268 43.72758918674663,101.06121046491899 44.0784932882525,100.83512893223087 44.0346302757971,100.6655676983064 44.73643847857602,100.83512893223087 45.21893161791377,100.7220881175308 45.43824668135494,100.43948594093672 45.30665764352307,100.0438425570319 45.52597270673141,99.25255461083725 45.17506860522553,98.8003893645946 45.35052065597847,98.1786613134609 45.17506860522553,97.55693229215103 45.52597270673141,96.76563940747292 44.51712341513485,93.14828049653443 43.508274123538285,90.43523976343567 43.72758918674663,89.07871246992727 44.34167136438191,88.06131396925775 44.86802751664072,87.83522506069858 46.71027404908091,86.13955415826058 48.11389045487158,85.1221481533139 48.947287695715204,84.83953491301509 49.38591782259755,84.04821677409927 51.228164355037734,82.74819070566446 51.57906845631078,82.18296065746108 53.85994511586614,80.31769580949913 53.99153415393084,79.63941551794414 55.702191648306325,77.9437097380578 55.83378068637103,78.0002333802986 55.395150559721515,78.16980425885413 54.43016428081319,77.6610914063931 52.76336979889311,75.45666154063656 50.78953422838822,73.59136520521133 50.87726025353186,73.08264650718775 52.14928762149066,71.8956336863921 52.324739672010764,71.49996196027496 53.15813691285439,70.93471595575102 54.34243825543672,69.57812227294198 55.307424534112215,68.84329876641277 57.45671215537004,66.35619376544491 58.33397240913473,65.50831351196393 58.377835421822965,64.77348249981878 56.886492990655825,62.90813615117804 56.75490395259112,62.22982622298878 55.83378068637103,61.77761896251468 54.737205369398,60.929728965857066 54.38630126789212,60.59057246212615 55.52673959778622,59.85573237997596 57.3689861302264,57.933836526965024 58.20238337107003,56.74677857480128 58.33397240913473,56.01193140345276 59.34282170073129,55.27708287665155 59.869177852757275,54.37265206017764 61.09734220779501,53.129056335106725 62.58868463896215,51.09407313959673 63.729122968623415,50.24616040720139 65.13273937441409,48.71991294139298 66.71180783072487,46.571851047396194 67.80838314793073,45.5543440025649 68.0715612238273,44.9890611882729 68.72950641391799,44.480305969453184 68.94882147759199,43.80196466759662 73.33512274525128,40.466769799328176 74.1246569736395,40.240653882559855 75.79145145555958,39.22313066810602 76.2300815822091,38.77089729430736 78.02846510219388,38.14907556711114 78.07232811488211,37.24460586765781 78.5986842669081,36.90542920099688 78.8618623430375,35.94442707719281 78.64254727959633,36.05748627104913 78.81799933034927,36.00095667815185 78.81799933034927,36.283604562078835 78.94958836841397,36.11401585582644 79.08117740647867,36.283604562078835 78.8618623430375,36.79237024803297 79.03731439355761,37.64031161382445 79.30049246991985,36.39666365951416 79.08117740647867,36.340134114871034 78.46709522907622,35.60524930371321 78.29164317832328,35.039952372637345 78.51095824153163,35.43566030857619 78.64254727959633,35.20954153619823 78.8618623430375,35.43566030857619 80.70410887547769,35.71830859364127 81.18660201504827,35.37913062752341 82.23931431933306,35.15301182301482 82.50249239546247,34.926892890332965 84.82723206770606,34.36159499667701 85.26586219412275,33.34405676682945 85.35358821973205,32.156925547431456 85.09041014336981,31.082851396116894 84.34473892790265,30.06530479202047 83.33588963607326,29.952243897831067 80.66024586302228,30.347956887300825 78.11619112733752,31.139381686836714 77.4143829245586,31.535093497106573 77.19506786111742,32.4395761587366 77.4143829245586,33.68323646564386 78.37936920346692,35.49218998171273 79.03731439355761,35.60524930371321 79.95843766001053,34.983422635443276 80.83569791354239,35.039952372637345 81.01114996429533,35.26607124134898 81.71295816730708,34.75730360634043 82.37090335739776,34.700773829070386 82.94112252211198,34.24853532173438 84.73950604209676,33.96588599396637 85.30972520681098,33.23099680323503 85.35358821973205,32.100395401212154 85.09041014336981,30.969790790608386 84.12542386446148,29.895713438629173 83.68679373781197,29.839182971481932 81.40591707848944,30.178365654166555 79.12504041916691,30.687139136716723 77.37051991187036,31.478563262469834 76.93188978498802,32.100395401212154 77.23893087380566,34.02241587548633 77.63369798799977,34.47465463960543 78.46709522907622,36.05748627104913 79.21276644431055,36.283604562078835 79.95843766001053,36.170545432541985 81.66909515438601,35.15301182301482 84.38860194059089,34.47465463960543 85.13427315605804,33.90935610426823 85.39745123218745,31.81774454942206 84.56405399157666,30.178365654166555 84.08156085177325,29.782652496389346 83.64293072512373,29.61306102274102 81.2304650277365,30.29142648424022 80.61638285010122,30.23489607317606 78.20391715271398,31.139381686836714 76.93188978498802,32.100395401212154 76.88802677253261,32.83528667752398 77.37051991187036,34.531184449093416 78.24778016540222,35.20954153619823 78.46709522907622,35.77483822655631 79.47594452043995,36.00095667815185 80.35320477397181,35.37913062752341 82.19545130664483,35.039952372637345 82.54635540791787,34.700773829070386 84.12542386446148,34.13547561480664 85.00268411799334,34.02241587548633 85.44131424487568,33.23099680323503 85.44131424487568,31.761214354919503 84.87109507992864,30.23489607317606 84.08156085177325,29.5 81.18660201504827,30.347956887300825 79.95843766001053,30.347956887300825 78.5986842669081,30.687139136716723 77.19506786111742,31.365502769331215 76.84416375961155,32.043865246960195 77.4143829245586,33.85282620668295 77.50210894993506,34.87036313698627 77.8091500387527,35.37913062752341 78.77413631766103,36.00095667815185 79.25662945723161,35.94442707719281 81.40591707848944,34.75730360634043 82.19545130664483,34.531184449093416 82.76567047159187,34.644244043680374 83.37975264899433,34.36159499667701 83.81838277587667,34.36159499667701 84.73950604209676,33.90935610426823 85.35358821973205,33.28752678903402 85.44131424487568,32.156925547431456 85.17813616874628,31.139381686836714 84.6517800167203,30.121835227153497 83.90610880125314,29.61306102274102 81.14273900236003,30.347956887300825 80.35320477397181,30.913260475965217 78.46709522907622,31.365502769331215 78.02846510219388,31.365502769331215 77.7214240131434,31.761214354919503 77.63369798799977,32.4395761587366 77.8091500387527,33.79629630106501 78.24778016540222,35.20954153619823 78.81799933034927,35.49218998171273 83.94997181370854,33.96588599396637 84.783369054785,33.79629630106501 85.30972520681098,32.948346753575606 85.17813616874628,31.64815394199104 84.82723206770606,30.743669483606936 84.03769783931784,29.782652496389346 81.18660201504827,30.63060878176475 77.76528702606447,31.422033020004164 77.32665689918213,31.81774454942206 77.15120484866202,32.83528667752398 77.89687606412917,35.20954153619823 78.90572535572574,35.71830859364127 83.16043758555315,34.47465463960543 84.82723206770606,34.078945749177365 85.26586219412275,33.28752678903402 85.26586219412275,31.87427473589196 84.34473892790265,30.06530479202047 83.73065675026737,29.839182971481932 81.75682117976248,30.461017669120338 79.34435548237525,30.856730153231183 78.9934513811022,31.252442244207487 77.63369798799977,31.591623723477824 77.15120484866202,32.49610625690548 77.23893087380566,34.078945749177365 77.67756100092083,35.37913062752341 78.5986842669081,35.71830859364127 81.36205406556837,34.926892890332965 84.69564302940853,34.13547561480664 85.35358821973205,32.83528667752398 85.17813616874628,31.81774454942206 84.52019097865559,30.461017669120338 83.64293072512373,29.839182971481932 77.50210894993506,31.535093497106573 77.15120484866202,32.100395401212154 77.15120484866202,33.4571166986716 77.76528702606447,34.983422635443276 78.68641029228456,35.661778952751774 79.7829856092576,35.43566030857619 80.79183490108699,34.87036313698627 81.80068419268355,34.87036313698627 82.54635540791787,34.81383337578154 83.11657457286492,34.644244043680374 84.03769783931784,34.02241587548633 84.82723206770606,33.96588599396637 85.30972520681098,33.00487677959609 85.26586219412275,31.81774454942206 84.43246495351195,30.347956887300825 83.64293072512373,29.952243897831067 80.046163685387,30.63060878176475 77.58983497531153,31.478563262469834 77.19506786111742,32.21345568582183 77.58983497531153,34.36159499667701 77.94073907681741,35.20954153619823 78.5986842669081,35.60524930371321 80.0900266978424,35.26607124134898 82.32704034470953,34.587714250345016 83.99383482639678,33.79629630106501 84.69564302940853,33.85282620668295 85.26586219412275,33.40058673688327 85.44131424487568,32.89181671946426 85.22199918166734,31.082851396116894 84.56405399157666,30.06530479202047 83.86224578833207,29.839182971481932 82.06386226858012,30.121835227153497 81.49364310363308,30.404487282212358 79.9145746473223,30.574078418896534 77.50210894993506,31.422033020004164 77.15120484866202,32.4395761587366 77.19506786111742,33.51364665236906 77.50210894993506,34.531184449093416 78.33550619101152,35.60524930371321 79.03731439355761,35.661778952751774 81.01114996429533,34.47465463960543 81.58136912900954,34.531184449093416 83.02884854772128,34.19200547231594 84.08156085177325,33.62670653584064 84.95882110553794,33.68323646564386 85.35358821973205,33.11793680736446 85.44131424487568,31.591623723477824 84.9149580928497,30.574078418896534 84.03769783931784,29.782652496389346 79.6952595836483,30.63060878176475 77.50210894993506,31.478563262469834 77.15120484866202,32.4395761587366 77.28279388672672,33.68323646564386 77.85301305120811,34.983422635443276 78.5986842669081,35.60524930371321 79.25662945723161,35.60524930371321 80.13388971076347,35.15301182301482 82.32704034470953,34.644244043680374 83.86224578833207,33.79629630106501 84.6517800167203,33.90935610426823 85.13427315605804,33.57017659820849 85.26586219412275,31.930804914212786 84.38860194059089,30.23489607317606 83.99383482639678,29.952243897831067 82.54635540791787,30.178365654166555 77.54597196285613,31.930804914212786 77.19506786111742,32.89181671946426 77.23893087380566,33.85282620668295 77.7214240131434,34.75730360634043 78.07232811488211,34.87036313698627 78.64254727959633,35.60524930371321 78.77413631766103,35.94442707719281 78.51095824153163,37.41419409267837 78.33550619101152,37.301135283953045 77.94073907681741,37.52725286927307 77.7214240131434,38.09254627095652 76.88802677253261,38.14907556711114 76.66871170909144,38.431721927045146 75.22123229061253,38.88395568594569 74.91419120202772,39.27965980381123 72.45786249195226,40.74941451504128 70.83493102248758,41.993048881879076 70.3085748704616,42.61486460955348 69.73835570574738,42.84097917898907 68.37860231264494,44.02807856313302 67.76452013524249,44.310720752429916 67.15043795760721,45.72392869059695 66.49249276751652,46.17615417201887 66.31704071676359,46.684907225106144 65.92227360256948,46.854491431906354 63.027314765844494,50.47227064555045 61.31665727146901,52.22462064260617 55.614465622929856,59.17741725521046 53.99153415393084,60.64709856623085 52.10542460856959,62.90813615117804 51.052712304284796,63.699496274697594 50.92112326598726,64.15170135392691 50.438630126882344,64.49085482652299 48.72797263250686,66.35619376544491 48.42093154345639,66.97797147100209 44.95575354178436,70.31294442439685 44.12235630094074,71.44343739582109 42.45556181925349,73.02612216741545 41.57830156572163,74.38270411087433 40.56945227389224,75.00446929142345 40.437863236060366,75.45666154063656 38.946520804893225,77.26542540543596 36.88495920901187,79.30027493921807 35.876109917415306,80.88292850358994 36.00769895548001,81.56120667824871 34.73567158752121,81.95686841360293 36.62178113288246,83.99169398986851 36.665644145570695,84.27430783136515 38.28857561456971,86.2525991096918 38.946520804893225,86.53521134750918 40.48172624851577,88.40044709134963 41.40284951496869,89.13523453264497 41.84147964185104,89.70045471939375 41.97306867968291,90.71784903493244 42.718739895150065,91.96132744869101 41.88534265430644,91.79176243889378 40.70104131218977,92.13089238625253 40.35013721045107,91.96132744869101 38.06926055136137,92.07437074833433 36.8410961960908,92.35697885748232 36.358603056753054,92.13089238625253 35.91997292987071,92.35697885748232 35.174301714403555,92.30045725166565 34.69180857506581,92.47002204484306 34.56021953676827,92.63958676607581 35.34975376538932,95.69173940821202 34.384767486248165,96.36999237601412 33.50750723271631,96.36999237601412 33.02501409314573,95.8613027583051 33.63909627078101,95.07000650666305 33.81454832130112,94.22218735059141 33.41978120733984,92.80915141504374 28.20008269837126,93.7700163963309 26.928055330645293,93.7700163963309 24.647178671322763,94.5047939363576 14.558685755124316,95.80478164958186" stroke="#FFFF00" stroke-linecap="round" stroke-linejoin="round" stroke-width="0.5"><title>2025-04-06 10.6km</title><desc>14091782429</desc></polyline></svg>