<?xml version="1.0" encoding="utf-8" ?>
<svg baseProfile="full" height="130mm" version="1.1" viewBox="0,0,100,130" width="100mm" xmlns="http://www.w3.org/2000/svg" xmlns:ev="http://www.w3.org/2001/xml-events" xmlns:xlink="http://www.w3.org/1999/xlink"><defs /><rect fill="#222222" height="130" width="100" x="0" y="0" /><text fill="#FFFFFF" style="font-size:6px; font-family:Arial; font-weight:bold;" x="5" y="10">2025-04-28 Workouts</text><text fill="#FFFFFF" style="font-size:4px; font-family:Arial" x="5" y="110">Runner</text><text fill="#FFFFFF" style="font-size:6px; font-family:Arial" x="5" y="120">蓝皮书</text><text fill="#FFFFFF" style="font-size:4px; font-family:Arial" x="30" y="110">STATISTICS</text><text fill="#FFFFFF" style="font-size:3px; font-family:Arial" x="30" y="115">Number: 1</text><text fill="#FFFFFF" style="font-size:3px; font-family:Arial" x="30" y="120">Weekly: 1.0</text><text fill="#FFFFFF" style="font-size:3px; font-family:Arial" x="50" y="115">Total: 9.5 km</text><text fill="#FFFFFF" style="font-size:3px; font-family:Arial" x="50" y="120">Avg: 9.5 km</text><text fill="#FFFFFF" style="font-size:3px; font-family:Arial" x="75" y="115">Min: 9.5 km</text><text fill="#FFFFFF" style="font-size:3px; font-family:Arial" x="75" y="120">Max: 9.5 km</text><polyline fill="none" points="16.831896552816033,58.475162975955755 21.71982758678496,59.36169288819656 47.20689655095339,59.80495775304735 50.349137930199504,61.578016608953476 48.254310343414545,58.91842796187848 43.36637930944562,59.36169288819656 22.068965516984463,57.145367653341964 11.943965518847108,63.351074495119974 10.547413792461157,76.64897778863087 50.69827586226165,81.96812385553494 80.375,82.85464735305868 87.70689655095339,78.42202744493261 90.5,70.88655971526168 87.35775862075388,61.578016608953476 78.97844827361405,56.70210242574103 54.53879310376942,58.03189792856574 38.82758620753884,58.03189792856574 21.37068965472281,56.70210242574103 11.245689656585455,64.68086727662012 11.594827586784959,77.09224029351026 17.53017241321504,82.85464735305868 30.099137930199504,82.41138563491404 49.30172413773835,81.96812385553494 71.99568965286016,81.96812385553494 84.21551723964512,80.19507613475434 88.40517241321504,66.01065951120108 79.67672413773835,56.70210242574103 72.69396551698446,56.25883713574149 47.20689655095339,56.70210242574103 22.767241379246116,58.03189792856574 10.198275860399008,70.00003294995986 12.99137930944562,78.86528970883228 29.40086206793785,82.41138563491404 42.66810344904661,82.41138563491404 70.5991379301995,81.96812385553494 88.05603448115289,77.09224029351026 87.70689655095339,64.23760307626799 78.62931034527719,56.25883713574149 47.905172415077686,58.03189792856574 25.21120689623058,59.36169288819656 13.340517241507769,61.1347519850824 10.198275860399008,72.21634940896183 14.737068966031075,81.0816001156345 29.051724137738347,83.29790901020169 42.66810344904661,82.85464735305868 84.56465517170727,80.63833815651014 89.80172413773835,72.21634940896183 85.26293103396893,60.24822255689651 74.78879310190678,56.25883713574149 54.887931033968925,56.70210242574103 30.099137930199504,56.25883713574149 20.672413792461157,58.03189792856574 10.547413792461157,67.34045120165683 10.547413792461157,75.76245259679854 19.625,83.74117060843855 55.58620689436793,82.85464735305868 64.31465517170727,82.85464735305868 81.77155172266066,81.96812385553494 89.80172413773835,74.43266435433179 87.70689655095339,63.351074495119974 80.02586206793785,56.25883713574149 61.521551724523306,58.03189792856574 39.17672413773835,58.475162975955755 20.672413792461157,58.03189792856574 12.642241379246116,62.464545672759414 9.849137932062149,71.32982300687581 13.340517241507769,78.86528970883228 48.603448275476694,83.74117060843855 84.56465517170727,79.75181405362673 87.35775862075388,63.79433881654404 77.58189655095339,56.70210242574103 61.870689652860165,58.03189792856574 41.27155172266066,59.36169288819656 20.672413792461157,58.475162975955755 11.594827586784959,66.01065951120108 11.594827586784959,77.09224029351026 17.53017241321504,82.85464735305868 62.91810344718397,83.29790901020169 79.67672413773835,81.96812385553494 89.4525862056762,72.65961251943372 86.65948275662959,62.0212811708916 80.375,57.58863282040693 61.870689652860165,57.145367653341964 31.844827584922314,57.58863282040693 20.323275862261653,58.91842796187848 10.896551724523306,70.00003294995986 14.737068966031075,80.19507613475434 26.956896552816033,83.29790901020169 41.27155172266066,83.29790901020169 84.91379310376942,80.19507613475434 90.15086206793785,67.78371497849002 82.81896551512182,57.58863282040693 73.04310344904661,56.25883713574149 67.80603448115289,56.70210242574103 44.76293103583157,58.91842796187848 35.68534482829273,57.58863282040693 20.672413792461157,58.475162975955755 12.642241379246116,63.351074495119974 9.5,71.32982300687581 14.387931033968925,81.52486201631837 21.37068965472281,84.18443214450963 58.030172411352396,83.74117060843855 83.51724137924612,78.86528970883228 89.1034482754767,73.54613855900243 88.05603448115289,62.907810115255415 81.07327586039901,56.70210242574103 46.857758620753884,57.58863282040693 31.844827584922314,56.25883713574149 23.46551724150777,58.03189792856574 11.943965518847108,65.12413141480647 11.245689656585455,77.97876512189396 19.625,84.62769362214021 37.78017241321504,82.85464735305868 56.98275861889124,82.85464735305868 84.21551723964512,80.63833815651014 89.4525862056762,70.00003294995986 78.62931034527719,55.81557178730145 55.23706896416843,57.145367653341964 47.55603448301554,57.145367653341964 30.448275862261653,58.03189792856574 15.435344826430082,62.0212811708916 10.547413792461157,69.113505942747 12.642241379246116,79.30855191173032 21.37068965472281,84.18443214450963 45.81034482829273,84.18443214450963 81.77155172266066,81.0816001156345 90.15086206793785,70.00003294995986 75.13793103396893,57.58863282040693 51.74568965472281,58.03189792856574 33.24137930944562,58.03189792856574 17.87931034527719,59.80495775304735 10.547413792461157,71.77308623841964 19.974137930199504,83.74117060843855 79.3275862056762,82.85464735305868 89.1034482754767,73.98940148716792 86.65948275662959,62.464545672759414 79.3275862056762,57.58863282040693 53.49137930944562,58.03189792856574 32.54310344904661,58.03189792856574 22.767241379246116,58.03189792856574 12.642241379246116,62.464545672759414 11.245689656585455,77.09224029351026 20.323275862261653,84.18443214450963 30.448275862261653,83.29790901020169 61.870689652860165,82.85464735305868 71.6465517245233,82.41138563491404 84.56465517170727,80.19507613475434 89.80172413773835,71.32982300687581 87.35775862075388,61.578016608953476 80.375,57.145367653341964 70.25,58.03189792856574 50.349137930199504,58.475162975955755 31.14655172266066,58.475162975955755 12.642241379246116,61.578016608953476 10.198275860399008,73.54613855900243 17.87931034527719,83.74117060843855 29.75,83.29790901020169 49.30172413773835,82.41138563491404 80.375,81.96812385553494 88.05603448115289,77.09224029351026 87.35775862075388,63.351074495119974 81.42241379246116,58.03189792856574 50.69827586226165,58.475162975955755 27.306034481152892,59.36169288819656 12.99137930944562,62.907810115255415 9.849137932062149,70.88655971526168 14.737068966031075,82.41138563491404 32.19396551698446,84.62769362214021 47.55603448301554,83.74117060843855 80.02586206793785,82.41138563491404 87.00862068869174,77.53550273855217 89.1034482754767,66.01065951120108 77.58189655095339,55.372306377859786 54.887931033968925,55.81557178730145 31.844827584922314,58.03189792856574 19.27586206793785,59.36169288819656 11.245689656585455,66.01065951120108 13.340517241507769,79.75181405362673 37.78017241321504,84.18443214450963 88.05603448115289,76.20571522368118 88.75431034341455,64.23760307626799 73.39224137924612,55.81557178730145 45.46120689623058,57.145367653341964 18.926724137738347,59.36169288819656 11.245689656585455,64.23760307626799 13.340517241507769,79.30855191173032 28.702586207538843,84.18443214450963 83.16810344718397,81.0816001156345 89.4525862056762,73.10287556890398 88.75431034341455,63.79433881654404 80.02586206793785,57.145367653341964 54.887931033968925,57.58863282040693 33.24137930944562,58.03189792856574 15.086206898093224,60.691487301373854 10.198275860399008,70.00003294995986 13.689655173569918,80.63833815651014 30.099137930199504,84.18443214450963 60.82327586226165,84.18443214450963 78.97844827361405,82.41138563491404 87.00862068869174,78.42202744493261 89.1034482754767,67.34045120165683 82.46982758678496,57.58863282040693 66.40948275849223,56.25883713574149 51.04741379246116,56.25883713574149 25.90948275849223,58.475162975955755 12.642241379246116,63.351074495119974 11.594827586784959,77.53550273855217 18.926724137738347,82.41138563491404 37.78017241321504,82.41138563491404 56.28448275849223,82.85464735305868 79.67672413773835,82.85464735305868 88.05603448115289,75.76245259679854 87.70689655095339,62.907810115255415 80.02586206793785,57.145367653341964 75.83620689623058,56.25883713574149 60.82327586226165,57.145367653341964 49.650862069800496,56.70210242574103 34.987068966031075,58.475162975955755 25.560344828292727,58.475162975955755 16.482758620753884,59.80495775304735 10.896551724523306,66.01065951120108 13.340517241507769,77.97876512189396 30.099137930199504,84.18443214450963 59.0775862056762,83.74117060843855 77.93103448301554,81.96812385553494" stroke="#4DD2FF" stroke-linecap="round" stroke-linejoin="round" stroke-width="0.5"><title>2025-04-28 9.5km</title><desc>14307207500</desc></polyline></svg>