<?xml version="1.0" encoding="utf-8" ?>
<svg baseProfile="full" height="220mm" version="1.1" viewBox="0,0,200,220" width="200mm" xmlns="http://www.w3.org/2000/svg" xmlns:ev="http://www.w3.org/2001/xml-events" xmlns:xlink="http://www.w3.org/1999/xlink"><defs /><rect fill="#FAF9F5" height="220" width="200" x="0" y="0" /><g id="svg_1f1b66ea_tracks"><text fill="#5A5A5A" style="font-size:10px; font-family:Arial; font-weight:bold;" x="0" y="40">RUNNER'S</text><text fill="#5A5A5A" style="font-size:12px; font-family:Arial; font-weight:bold;" x="0" y="52">CALENDAR</text><text fill="#5A5A5A" style="font-size:36px; font-family:Arial; font-weight:bold;" x="0" y="90"><tspan fill="#5A5A5A" style="opacity: 0.2;">0</tspan><tspan>38</tspan></text><text fill="#5A5A5A" style="font-size:12px; font-family:Arial;" x="21" y="90">天</text><text fill="#5A5A5A" style="font-size:8px; font-family:Arial; font-weight:bold;" text-anchor="end" x="136" y="40">跑者年历</text><text fill="#5A5A5A" style="font-size:5px; font-family:Arial;" text-anchor="end" x="136" y="48">2020 Year</text><text fill="#5A5A5A" style="font-size:5px; font-family:Arial;" text-anchor="end" x="136" y="54">Annual Running Report</text><text fill="#5A5A5A" style="font-size:7px; font-family:Arial;" text-anchor="end" x="136" y="75"><tspan>今年运动 </tspan><tspan fill="#4DD2FF">38</tspan><tspan> 天 </tspan><tspan fill="#4DD2FF">40</tspan><tspan> 次</tspan></text><text fill="#5A5A5A" style="font-size:7px; font-family:Arial; opacity: 0.7;" text-anchor="end" x="136" y="88"><tspan>生涯累计运动 </tspan><tspan fill="#4DD2FF">89</tspan><tspan> 天 </tspan><tspan fill="#4DD2FF">102</tspan><tspan> 次</tspan></text><text fill="#5A5A5A" style="font-size:8px; font-family:Arial; font-weight:bold;" x="0.0" y="105.0">1 月</text><rect fill="#4dd2ff" height="3.0" rx="0.6" ry="0.6" width="3.0" x="0.0" y="120.0"><title>2020-01-01 3.70 km</title></rect><rect fill="#EEEEEE" height="3.0" rx="0.6" ry="0.6" width="3.0" x="0.0" y="124.0"><title>2020-01-02</title></rect><rect fill="#EEEEEE" height="3.0" rx="0.6" ry="0.6" width="3.0" x="0.0" y="128.0"><title>2020-01-03</title></rect><rect fill="#EEEEEE" height="3.0" rx="0.6" ry="0.6" width="3.0" x="0.0" y="132.0"><title>2020-01-04</title></rect><rect fill="#EEEEEE" height="3.0" rx="0.6" ry="0.6" width="3.0" x="0.0" y="136.0"><title>2020-01-05</title></rect><rect fill="#EEEEEE" height="3.0" rx="0.6" ry="0.6" width="3.0" x="0.0" y="112.0"><title>2020-01-06</title></rect><rect fill="#EEEEEE" height="3.0" rx="0.6" ry="0.6" width="3.0" x="0.0" y="116.0"><title>2020-01-07</title></rect><rect fill="#EEEEEE" height="3.0" rx="0.6" ry="0.6" width="3.0" x="0.0" y="120.0"><title>2020-01-08</title></rect><rect fill="#EEEEEE" height="3.0" rx="0.6" ry="0.6" width="3.0" x="0.0" y="124.0"><title>2020-01-09</title></rect><rect fill="#EEEEEE" height="3.0" rx="0.6" ry="0.6" width="3.0" x="0.0" y="128.0"><title>2020-01-10</title></rect><rect fill="#EEEEEE" height="3.0" rx="0.6" ry="0.6" width="3.0" x="0.0" y="132.0"><title>2020-01-11</title></rect><rect fill="#EEEEEE" height="3.0" rx="0.6" ry="0.6" width="3.0" x="0.0" y="136.0"><title>2020-01-12</title></rect><rect fill="#EEEEEE" height="3.0" rx="0.6" ry="0.6" width="3.0" x="0.0" y="112.0"><title>2020-01-13</title></rect><rect fill="#EEEEEE" height="3.0" rx="0.6" ry="0.6" width="3.0" x="0.0" y="116.0"><title>2020-01-14</title></rect><rect fill="#EEEEEE" height="3.0" rx="0.6" ry="0.6" width="3.0" x="0.0" y="120.0"><title>2020-01-15</title></rect><rect fill="#EEEEEE" height="3.0" rx="0.6" ry="0.6" width="3.0" x="0.0" y="124.0"><title>2020-01-16</title></rect><rect fill="#EEEEEE" height="3.0" rx="0.6" ry="0.6" width="3.0" x="0.0" y="128.0"><title>2020-01-17</title></rect><rect fill="#EEEEEE" height="3.0" rx="0.6" ry="0.6" width="3.0" x="0.0" y="132.0"><title>2020-01-18</title></rect><rect fill="#EEEEEE" height="3.0" rx="0.6" ry="0.6" width="3.0" x="0.0" y="136.0"><title>2020-01-19</title></rect><rect fill="#EEEEEE" height="3.0" rx="0.6" ry="0.6" width="3.0" x="0.0" y="112.0"><title>2020-01-20</title></rect><rect fill="#ffc100" height="3.0" rx="0.6" ry="0.6" width="3.0" x="0.0" y="116.0"><title>2020-01-21 6.19 km</title></rect><rect fill="#EEEEEE" height="3.0" rx="0.6" ry="0.6" width="3.0" x="0.0" y="120.0"><title>2020-01-22</title></rect><rect fill="#EEEEEE" height="3.0" rx="0.6" ry="0.6" width="3.0" x="0.0" y="124.0"><title>2020-01-23</title></rect><rect fill="#EEEEEE" height="3.0" rx="0.6" ry="0.6" width="3.0" x="0.0" y="128.0"><title>2020-01-24</title></rect><rect fill="#EEEEEE" height="3.0" rx="0.6" ry="0.6" width="3.0" x="0.0" y="132.0"><title>2020-01-25</title></rect><rect fill="#EEEEEE" height="3.0" rx="0.6" ry="0.6" width="3.0" x="0.0" y="136.0"><title>2020-01-26</title></rect><rect fill="#EEEEEE" height="3.0" rx="0.6" ry="0.6" width="3.0" x="0.0" y="112.0"><title>2020-01-27</title></rect><rect fill="#EEEEEE" height="3.0" rx="0.6" ry="0.6" width="3.0" x="0.0" y="116.0"><title>2020-01-28</title></rect><rect fill="#EEEEEE" height="3.0" rx="0.6" ry="0.6" width="3.0" x="0.0" y="120.0"><title>2020-01-29</title></rect><rect fill="#EEEEEE" height="3.0" rx="0.6" ry="0.6" width="3.0" x="0.0" y="124.0"><title>2020-01-30</title></rect><rect fill="#EEEEEE" height="3.0" rx="0.6" ry="0.6" width="3.0" x="0.0" y="128.0"><title>2020-01-31</title></rect><text fill="#5A5A5A" style="font-size:8px; font-family:Arial; font-weight:bold;" x="0.0" y="105.0">2 月</text><rect fill="#EEEEEE" height="3.0" rx="0.6" ry="0.6" width="3.0" x="0.0" y="132.0"><title>2020-02-01</title></rect><rect fill="#EEEEEE" height="3.0" rx="0.6" ry="0.6" width="3.0" x="0.0" y="136.0"><title>2020-02-02</title></rect><rect fill="#EEEEEE" height="3.0" rx="0.6" ry="0.6" width="3.0" x="0.0" y="112.0"><title>2020-02-03</title></rect><rect fill="#EEEEEE" height="3.0" rx="0.6" ry="0.6" width="3.0" x="0.0" y="116.0"><title>2020-02-04</title></rect><rect fill="#EEEEEE" height="3.0" rx="0.6" ry="0.6" width="3.0" x="0.0" y="120.0"><title>2020-02-05</title></rect><rect fill="#EEEEEE" height="3.0" rx="0.6" ry="0.6" width="3.0" x="0.0" y="124.0"><title>2020-02-06</title></rect><rect fill="#EEEEEE" height="3.0" rx="0.6" ry="0.6" width="3.0" x="0.0" y="128.0"><title>2020-02-07</title></rect><rect fill="#EEEEEE" height="3.0" rx="0.6" ry="0.6" width="3.0" x="0.0" y="132.0"><title>2020-02-08</title></rect><rect fill="#EEEEEE" height="3.0" rx="0.6" ry="0.6" width="3.0" x="0.0" y="136.0"><title>2020-02-09</title></rect><rect fill="#EEEEEE" height="3.0" rx="0.6" ry="0.6" width="3.0" x="0.0" y="112.0"><title>2020-02-10</title></rect><rect fill="#EEEEEE" height="3.0" rx="0.6" ry="0.6" width="3.0" x="0.0" y="116.0"><title>2020-02-11</title></rect><rect fill="#EEEEEE" height="3.0" rx="0.6" ry="0.6" width="3.0" x="0.0" y="120.0"><title>2020-02-12</title></rect><rect fill="#EEEEEE" height="3.0" rx="0.6" ry="0.6" width="3.0" x="0.0" y="124.0"><title>2020-02-13</title></rect><rect fill="#EEEEEE" height="3.0" rx="0.6" ry="0.6" width="3.0" x="0.0" y="128.0"><title>2020-02-14</title></rect><rect fill="#EEEEEE" height="3.0" rx="0.6" ry="0.6" width="3.0" x="0.0" y="132.0"><title>2020-02-15</title></rect><rect fill="#EEEEEE" height="3.0" rx="0.6" ry="0.6" width="3.0" x="0.0" y="136.0"><title>2020-02-16</title></rect><rect fill="#EEEEEE" height="3.0" rx="0.6" ry="0.6" width="3.0" x="0.0" y="112.0"><title>2020-02-17</title></rect><rect fill="#EEEEEE" height="3.0" rx="0.6" ry="0.6" width="3.0" x="0.0" y="116.0"><title>2020-02-18</title></rect><rect fill="#EEEEEE" height="3.0" rx="0.6" ry="0.6" width="3.0" x="0.0" y="120.0"><title>2020-02-19</title></rect><rect fill="#EEEEEE" height="3.0" rx="0.6" ry="0.6" width="3.0" x="0.0" y="124.0"><title>2020-02-20</title></rect><rect fill="#EEEEEE" height="3.0" rx="0.6" ry="0.6" width="3.0" x="0.0" y="128.0"><title>2020-02-21</title></rect><rect fill="#EEEEEE" height="3.0" rx="0.6" ry="0.6" width="3.0" x="0.0" y="132.0"><title>2020-02-22</title></rect><rect fill="#EEEEEE" height="3.0" rx="0.6" ry="0.6" width="3.0" x="0.0" y="136.0"><title>2020-02-23</title></rect><rect fill="#EEEEEE" height="3.0" rx="0.6" ry="0.6" width="3.0" x="2.0" y="112.0"><title>2020-02-24</title></rect><rect fill="#EEEEEE" height="3.0" rx="0.6" ry="0.6" width="3.0" x="2.0" y="116.0"><title>2020-02-25</title></rect><rect fill="#EEEEEE" height="3.0" rx="0.6" ry="0.6" width="3.0" x="2.0" y="120.0"><title>2020-02-26</title></rect><rect fill="#EEEEEE" height="3.0" rx="0.6" ry="0.6" width="3.0" x="2.0" y="124.0"><title>2020-02-27</title></rect><rect fill="#EEEEEE" height="3.0" rx="0.6" ry="0.6" width="3.0" x="2.0" y="128.0"><title>2020-02-28</title></rect><rect fill="#EEEEEE" height="3.0" rx="0.6" ry="0.6" width="3.0" x="2.0" y="132.0"><title>2020-02-29</title></rect><text fill="#5A5A5A" style="font-size:8px; font-family:Arial; font-weight:bold;" x="16.0" y="105.0">3 月</text><rect fill="#EEEEEE" height="3.0" rx="0.6" ry="0.6" width="3.0" x="16.0" y="136.0"><title>2020-03-01</title></rect><rect fill="#EEEEEE" height="3.0" rx="0.6" ry="0.6" width="3.0" x="20.0" y="112.0"><title>2020-03-02</title></rect><rect fill="#EEEEEE" height="3.0" rx="0.6" ry="0.6" width="3.0" x="20.0" y="116.0"><title>2020-03-03</title></rect><rect fill="#EEEEEE" height="3.0" rx="0.6" ry="0.6" width="3.0" x="20.0" y="120.0"><title>2020-03-04</title></rect><rect fill="#EEEEEE" height="3.0" rx="0.6" ry="0.6" width="3.0" x="20.0" y="124.0"><title>2020-03-05</title></rect><rect fill="#EEEEEE" height="3.0" rx="0.6" ry="0.6" width="3.0" x="20.0" y="128.0"><title>2020-03-06</title></rect><rect fill="#EEEEEE" height="3.0" rx="0.6" ry="0.6" width="3.0" x="20.0" y="132.0"><title>2020-03-07</title></rect><rect fill="#EEEEEE" height="3.0" rx="0.6" ry="0.6" width="3.0" x="20.0" y="136.0"><title>2020-03-08</title></rect><rect fill="#EEEEEE" height="3.0" rx="0.6" ry="0.6" width="3.0" x="24.0" y="112.0"><title>2020-03-09</title></rect><rect fill="#EEEEEE" height="3.0" rx="0.6" ry="0.6" width="3.0" x="24.0" y="116.0"><title>2020-03-10</title></rect><rect fill="#EEEEEE" height="3.0" rx="0.6" ry="0.6" width="3.0" x="24.0" y="120.0"><title>2020-03-11</title></rect><rect fill="#EEEEEE" height="3.0" rx="0.6" ry="0.6" width="3.0" x="24.0" y="124.0"><title>2020-03-12</title></rect><rect fill="#EEEEEE" height="3.0" rx="0.6" ry="0.6" width="3.0" x="24.0" y="128.0"><title>2020-03-13</title></rect><rect fill="#EEEEEE" height="3.0" rx="0.6" ry="0.6" width="3.0" x="24.0" y="132.0"><title>2020-03-14</title></rect><rect fill="#EEEEEE" height="3.0" rx="0.6" ry="0.6" width="3.0" x="24.0" y="136.0"><title>2020-03-15</title></rect><rect fill="#EEEEEE" height="3.0" rx="0.6" ry="0.6" width="3.0" x="28.0" y="112.0"><title>2020-03-16</title></rect><rect fill="#EEEEEE" height="3.0" rx="0.6" ry="0.6" width="3.0" x="28.0" y="116.0"><title>2020-03-17</title></rect><rect fill="#EEEEEE" height="3.0" rx="0.6" ry="0.6" width="3.0" x="28.0" y="120.0"><title>2020-03-18</title></rect><rect fill="#EEEEEE" height="3.0" rx="0.6" ry="0.6" width="3.0" x="28.0" y="124.0"><title>2020-03-19</title></rect><rect fill="#EEEEEE" height="3.0" rx="0.6" ry="0.6" width="3.0" x="28.0" y="128.0"><title>2020-03-20</title></rect><rect fill="#EEEEEE" height="3.0" rx="0.6" ry="0.6" width="3.0" x="28.0" y="132.0"><title>2020-03-21</title></rect><rect fill="#EEEEEE" height="3.0" rx="0.6" ry="0.6" width="3.0" x="28.0" y="136.0"><title>2020-03-22</title></rect><rect fill="#EEEEEE" height="3.0" rx="0.6" ry="0.6" width="3.0" x="32.0" y="112.0"><title>2020-03-23</title></rect><rect fill="#EEEEEE" height="3.0" rx="0.6" ry="0.6" width="3.0" x="32.0" y="116.0"><title>2020-03-24</title></rect><rect fill="#EEEEEE" height="3.0" rx="0.6" ry="0.6" width="3.0" x="32.0" y="120.0"><title>2020-03-25</title></rect><rect fill="#4dd2ff" height="3.0" rx="0.6" ry="0.6" width="3.0" x="32.0" y="124.0"><title>2020-03-26 2.08 km</title></rect><rect fill="#EEEEEE" height="3.0" rx="0.6" ry="0.6" width="3.0" x="32.0" y="128.0"><title>2020-03-27</title></rect><rect fill="#EEEEEE" height="3.0" rx="0.6" ry="0.6" width="3.0" x="32.0" y="132.0"><title>2020-03-28</title></rect><rect fill="#EEEEEE" height="3.0" rx="0.6" ry="0.6" width="3.0" x="32.0" y="136.0"><title>2020-03-29</title></rect><rect fill="#EEEEEE" height="3.0" rx="0.6" ry="0.6" width="3.0" x="36.0" y="112.0"><title>2020-03-30</title></rect><rect fill="#EEEEEE" height="3.0" rx="0.6" ry="0.6" width="3.0" x="36.0" y="116.0"><title>2020-03-31</title></rect><text fill="#5A5A5A" style="font-size:8px; font-family:Arial; font-weight:bold;" x="46.0" y="105.0">4 月</text><rect fill="#EEEEEE" height="3.0" rx="0.6" ry="0.6" width="3.0" x="46.0" y="120.0"><title>2020-04-01</title></rect><rect fill="#4dd2ff" height="3.0" rx="0.6" ry="0.6" width="3.0" x="46.0" y="124.0"><title>2020-04-02 2.02 km</title></rect><rect fill="#EEEEEE" height="3.0" rx="0.6" ry="0.6" width="3.0" x="46.0" y="128.0"><title>2020-04-03</title></rect><rect fill="#EEEEEE" height="3.0" rx="0.6" ry="0.6" width="3.0" x="46.0" y="132.0"><title>2020-04-04</title></rect><rect fill="#EEEEEE" height="3.0" rx="0.6" ry="0.6" width="3.0" x="46.0" y="136.0"><title>2020-04-05</title></rect><rect fill="#EEEEEE" height="3.0" rx="0.6" ry="0.6" width="3.0" x="50.0" y="112.0"><title>2020-04-06</title></rect><rect fill="#EEEEEE" height="3.0" rx="0.6" ry="0.6" width="3.0" x="50.0" y="116.0"><title>2020-04-07</title></rect><rect fill="#EEEEEE" height="3.0" rx="0.6" ry="0.6" width="3.0" x="50.0" y="120.0"><title>2020-04-08</title></rect><rect fill="#EEEEEE" height="3.0" rx="0.6" ry="0.6" width="3.0" x="50.0" y="124.0"><title>2020-04-09</title></rect><rect fill="#EEEEEE" height="3.0" rx="0.6" ry="0.6" width="3.0" x="50.0" y="128.0"><title>2020-04-10</title></rect><rect fill="#ffa800" height="3.0" rx="0.6" ry="0.6" width="3.0" x="50.0" y="132.0"><title>2020-04-11 8.00 km</title></rect><rect fill="#EEEEEE" height="3.0" rx="0.6" ry="0.6" width="3.0" x="50.0" y="136.0"><title>2020-04-12</title></rect><rect fill="#EEEEEE" height="3.0" rx="0.6" ry="0.6" width="3.0" x="54.0" y="112.0"><title>2020-04-13</title></rect><rect fill="#EEEEEE" height="3.0" rx="0.6" ry="0.6" width="3.0" x="54.0" y="116.0"><title>2020-04-14</title></rect><rect fill="#EEEEEE" height="3.0" rx="0.6" ry="0.6" width="3.0" x="54.0" y="120.0"><title>2020-04-15</title></rect><rect fill="#EEEEEE" height="3.0" rx="0.6" ry="0.6" width="3.0" x="54.0" y="124.0"><title>2020-04-16</title></rect><rect fill="#EEEEEE" height="3.0" rx="0.6" ry="0.6" width="3.0" x="54.0" y="128.0"><title>2020-04-17</title></rect><rect fill="#EEEEEE" height="3.0" rx="0.6" ry="0.6" width="3.0" x="54.0" y="132.0"><title>2020-04-18</title></rect><rect fill="#EEEEEE" height="3.0" rx="0.6" ry="0.6" width="3.0" x="54.0" y="136.0"><title>2020-04-19</title></rect><rect fill="#EEEEEE" height="3.0" rx="0.6" ry="0.6" width="3.0" x="58.0" y="112.0"><title>2020-04-20</title></rect><rect fill="#EEEEEE" height="3.0" rx="0.6" ry="0.6" width="3.0" x="58.0" y="116.0"><title>2020-04-21</title></rect><rect fill="#EEEEEE" height="3.0" rx="0.6" ry="0.6" width="3.0" x="58.0" y="120.0"><title>2020-04-22</title></rect><rect fill="#EEEEEE" height="3.0" rx="0.6" ry="0.6" width="3.0" x="58.0" y="124.0"><title>2020-04-23</title></rect><rect fill="#EEEEEE" height="3.0" rx="0.6" ry="0.6" width="3.0" x="58.0" y="128.0"><title>2020-04-24</title></rect><rect fill="#EEEEEE" height="3.0" rx="0.6" ry="0.6" width="3.0" x="58.0" y="132.0"><title>2020-04-25</title></rect><rect fill="#EEEEEE" height="3.0" rx="0.6" ry="0.6" width="3.0" x="58.0" y="136.0"><title>2020-04-26</title></rect><rect fill="#EEEEEE" height="3.0" rx="0.6" ry="0.6" width="3.0" x="62.0" y="112.0"><title>2020-04-27</title></rect><rect fill="#EEEEEE" height="3.0" rx="0.6" ry="0.6" width="3.0" x="62.0" y="116.0"><title>2020-04-28</title></rect><rect fill="#EEEEEE" height="3.0" rx="0.6" ry="0.6" width="3.0" x="62.0" y="120.0"><title>2020-04-29</title></rect><rect fill="#4dd2ff" height="3.0" rx="0.6" ry="0.6" width="3.0" x="62.0" y="124.0"><title>2020-04-30 4.02 km</title></rect><text fill="#5A5A5A" style="font-size:8px; font-family:Arial; font-weight:bold;" x="76.0" y="105.0">5 月</text><rect fill="#ff9800" height="3.0" rx="0.6" ry="0.6" width="3.0" x="76.0" y="128.0"><title>2020-05-01 9.14 km</title></rect><rect fill="#ff9300" height="3.0" rx="0.6" ry="0.6" width="3.0" x="76.0" y="132.0"><title>2020-05-02 9.52 km</title></rect><rect fill="#EEEEEE" height="3.0" rx="0.6" ry="0.6" width="3.0" x="76.0" y="136.0"><title>2020-05-03</title></rect><rect fill="#EEEEEE" height="3.0" rx="0.6" ry="0.6" width="3.0" x="80.0" y="112.0"><title>2020-05-04</title></rect><rect fill="red" height="3.0" rx="0.6" ry="0.6" width="3.0" x="80.0" y="116.0"><title>2020-05-05 15.69 km</title></rect><rect fill="#EEEEEE" height="3.0" rx="0.6" ry="0.6" width="3.0" x="80.0" y="120.0"><title>2020-05-06</title></rect><rect fill="#EEEEEE" height="3.0" rx="0.6" ry="0.6" width="3.0" x="80.0" y="124.0"><title>2020-05-07</title></rect><rect fill="#EEEEEE" height="3.0" rx="0.6" ry="0.6" width="3.0" x="80.0" y="128.0"><title>2020-05-08</title></rect><rect fill="#EEEEEE" height="3.0" rx="0.6" ry="0.6" width="3.0" x="80.0" y="132.0"><title>2020-05-09</title></rect><rect fill="#EEEEEE" height="3.0" rx="0.6" ry="0.6" width="3.0" x="80.0" y="136.0"><title>2020-05-10</title></rect><rect fill="#EEEEEE" height="3.0" rx="0.6" ry="0.6" width="3.0" x="84.0" y="112.0"><title>2020-05-11</title></rect><rect fill="#EEEEEE" height="3.0" rx="0.6" ry="0.6" width="3.0" x="84.0" y="116.0"><title>2020-05-12</title></rect><rect fill="#EEEEEE" height="3.0" rx="0.6" ry="0.6" width="3.0" x="84.0" y="120.0"><title>2020-05-13</title></rect><rect fill="#EEEEEE" height="3.0" rx="0.6" ry="0.6" width="3.0" x="84.0" y="124.0"><title>2020-05-14</title></rect><rect fill="#EEEEEE" height="3.0" rx="0.6" ry="0.6" width="3.0" x="84.0" y="128.0"><title>2020-05-15</title></rect><rect fill="#EEEEEE" height="3.0" rx="0.6" ry="0.6" width="3.0" x="84.0" y="132.0"><title>2020-05-16</title></rect><rect fill="#ffab00" height="3.0" rx="0.6" ry="0.6" width="3.0" x="84.0" y="136.0"><title>2020-05-17 7.82 km</title></rect><rect fill="#EEEEEE" height="3.0" rx="0.6" ry="0.6" width="3.0" x="88.0" y="112.0"><title>2020-05-18</title></rect><rect fill="#EEEEEE" height="3.0" rx="0.6" ry="0.6" width="3.0" x="88.0" y="116.0"><title>2020-05-19</title></rect><rect fill="#ffad00" height="3.0" rx="0.6" ry="0.6" width="3.0" x="88.0" y="120.0"><title>2020-05-20 7.66 km</title></rect><rect fill="#EEEEEE" height="3.0" rx="0.6" ry="0.6" width="3.0" x="88.0" y="124.0"><title>2020-05-21</title></rect><rect fill="#EEEEEE" height="3.0" rx="0.6" ry="0.6" width="3.0" x="88.0" y="128.0"><title>2020-05-22</title></rect><rect fill="#4dd2ff" height="3.0" rx="0.6" ry="0.6" width="3.0" x="88.0" y="132.0"><title>2020-05-23 2.51 km</title></rect><rect fill="#EEEEEE" height="3.0" rx="0.6" ry="0.6" width="3.0" x="88.0" y="136.0"><title>2020-05-24</title></rect><rect fill="#EEEEEE" height="3.0" rx="0.6" ry="0.6" width="3.0" x="92.0" y="112.0"><title>2020-05-25</title></rect><rect fill="#EEEEEE" height="3.0" rx="0.6" ry="0.6" width="3.0" x="92.0" y="116.0"><title>2020-05-26</title></rect><rect fill="#EEEEEE" height="3.0" rx="0.6" ry="0.6" width="3.0" x="92.0" y="120.0"><title>2020-05-27</title></rect><rect fill="#EEEEEE" height="3.0" rx="0.6" ry="0.6" width="3.0" x="92.0" y="124.0"><title>2020-05-28</title></rect><rect fill="#EEEEEE" height="3.0" rx="0.6" ry="0.6" width="3.0" x="92.0" y="128.0"><title>2020-05-29</title></rect><rect fill="#EEEEEE" height="3.0" rx="0.6" ry="0.6" width="3.0" x="92.0" y="132.0"><title>2020-05-30</title></rect><rect fill="#EEEEEE" height="3.0" rx="0.6" ry="0.6" width="3.0" x="92.0" y="136.0"><title>2020-05-31</title></rect><text fill="#5A5A5A" style="font-size:8px; font-family:Arial; font-weight:bold;" x="106.0" y="105.0">6 月</text><rect fill="#EEEEEE" height="3.0" rx="0.6" ry="0.6" width="3.0" x="110.0" y="112.0"><title>2020-06-01</title></rect><rect fill="#EEEEEE" height="3.0" rx="0.6" ry="0.6" width="3.0" x="110.0" y="116.0"><title>2020-06-02</title></rect><rect fill="#EEEEEE" height="3.0" rx="0.6" ry="0.6" width="3.0" x="110.0" y="120.0"><title>2020-06-03</title></rect><rect fill="#EEEEEE" height="3.0" rx="0.6" ry="0.6" width="3.0" x="110.0" y="124.0"><title>2020-06-04</title></rect><rect fill="#EEEEEE" height="3.0" rx="0.6" ry="0.6" width="3.0" x="110.0" y="128.0"><title>2020-06-05</title></rect><rect fill="#EEEEEE" height="3.0" rx="0.6" ry="0.6" width="3.0" x="110.0" y="132.0"><title>2020-06-06</title></rect><rect fill="#EEEEEE" height="3.0" rx="0.6" ry="0.6" width="3.0" x="110.0" y="136.0"><title>2020-06-07</title></rect><rect fill="#EEEEEE" height="3.0" rx="0.6" ry="0.6" width="3.0" x="114.0" y="112.0"><title>2020-06-08</title></rect><rect fill="#EEEEEE" height="3.0" rx="0.6" ry="0.6" width="3.0" x="114.0" y="116.0"><title>2020-06-09</title></rect><rect fill="#EEEEEE" height="3.0" rx="0.6" ry="0.6" width="3.0" x="114.0" y="120.0"><title>2020-06-10</title></rect><rect fill="#EEEEEE" height="3.0" rx="0.6" ry="0.6" width="3.0" x="114.0" y="124.0"><title>2020-06-11</title></rect><rect fill="#EEEEEE" height="3.0" rx="0.6" ry="0.6" width="3.0" x="114.0" y="128.0"><title>2020-06-12</title></rect><rect fill="#EEEEEE" height="3.0" rx="0.6" ry="0.6" width="3.0" x="114.0" y="132.0"><title>2020-06-13</title></rect><rect fill="#EEEEEE" height="3.0" rx="0.6" ry="0.6" width="3.0" x="114.0" y="136.0"><title>2020-06-14</title></rect><rect fill="#EEEEEE" height="3.0" rx="0.6" ry="0.6" width="3.0" x="118.0" y="112.0"><title>2020-06-15</title></rect><rect fill="#EEEEEE" height="3.0" rx="0.6" ry="0.6" width="3.0" x="118.0" y="116.0"><title>2020-06-16</title></rect><rect fill="#EEEEEE" height="3.0" rx="0.6" ry="0.6" width="3.0" x="118.0" y="120.0"><title>2020-06-17</title></rect><rect fill="#EEEEEE" height="3.0" rx="0.6" ry="0.6" width="3.0" x="118.0" y="124.0"><title>2020-06-18</title></rect><rect fill="#EEEEEE" height="3.0" rx="0.6" ry="0.6" width="3.0" x="118.0" y="128.0"><title>2020-06-19</title></rect><rect fill="#EEEEEE" height="3.0" rx="0.6" ry="0.6" width="3.0" x="118.0" y="132.0"><title>2020-06-20</title></rect><rect fill="#EEEEEE" height="3.0" rx="0.6" ry="0.6" width="3.0" x="118.0" y="136.0"><title>2020-06-21</title></rect><rect fill="#EEEEEE" height="3.0" rx="0.6" ry="0.6" width="3.0" x="122.0" y="112.0"><title>2020-06-22</title></rect><rect fill="#EEEEEE" height="3.0" rx="0.6" ry="0.6" width="3.0" x="122.0" y="116.0"><title>2020-06-23</title></rect><rect fill="#EEEEEE" height="3.0" rx="0.6" ry="0.6" width="3.0" x="122.0" y="120.0"><title>2020-06-24</title></rect><rect fill="#EEEEEE" height="3.0" rx="0.6" ry="0.6" width="3.0" x="122.0" y="124.0"><title>2020-06-25</title></rect><rect fill="#EEEEEE" height="3.0" rx="0.6" ry="0.6" width="3.0" x="122.0" y="128.0"><title>2020-06-26</title></rect><rect fill="#EEEEEE" height="3.0" rx="0.6" ry="0.6" width="3.0" x="122.0" y="132.0"><title>2020-06-27</title></rect><rect fill="#EEEEEE" height="3.0" rx="0.6" ry="0.6" width="3.0" x="122.0" y="136.0"><title>2020-06-28</title></rect><rect fill="#EEEEEE" height="3.0" rx="0.6" ry="0.6" width="3.0" x="126.0" y="112.0"><title>2020-06-29</title></rect><rect fill="#EEEEEE" height="3.0" rx="0.6" ry="0.6" width="3.0" x="126.0" y="116.0"><title>2020-06-30</title></rect><text fill="#5A5A5A" style="font-size:8px; font-family:Arial; font-weight:bold;" x="0.0" y="150.0">7 月</text><rect fill="#EEEEEE" height="3.0" rx="0.6" ry="0.6" width="3.0" x="0.0" y="165.0"><title>2020-07-01</title></rect><rect fill="#EEEEEE" height="3.0" rx="0.6" ry="0.6" width="3.0" x="0.0" y="169.0"><title>2020-07-02</title></rect><rect fill="#EEEEEE" height="3.0" rx="0.6" ry="0.6" width="3.0" x="0.0" y="173.0"><title>2020-07-03</title></rect><rect fill="#EEEEEE" height="3.0" rx="0.6" ry="0.6" width="3.0" x="0.0" y="177.0"><title>2020-07-04</title></rect><rect fill="#EEEEEE" height="3.0" rx="0.6" ry="0.6" width="3.0" x="0.0" y="181.0"><title>2020-07-05</title></rect><rect fill="#EEEEEE" height="3.0" rx="0.6" ry="0.6" width="3.0" x="0.0" y="157.0"><title>2020-07-06</title></rect><rect fill="#EEEEEE" height="3.0" rx="0.6" ry="0.6" width="3.0" x="0.0" y="161.0"><title>2020-07-07</title></rect><rect fill="#EEEEEE" height="3.0" rx="0.6" ry="0.6" width="3.0" x="0.0" y="165.0"><title>2020-07-08</title></rect><rect fill="#EEEEEE" height="3.0" rx="0.6" ry="0.6" width="3.0" x="0.0" y="169.0"><title>2020-07-09</title></rect><rect fill="#EEEEEE" height="3.0" rx="0.6" ry="0.6" width="3.0" x="0.0" y="173.0"><title>2020-07-10</title></rect><rect fill="#EEEEEE" height="3.0" rx="0.6" ry="0.6" width="3.0" x="0.0" y="177.0"><title>2020-07-11</title></rect><rect fill="#EEEEEE" height="3.0" rx="0.6" ry="0.6" width="3.0" x="0.0" y="181.0"><title>2020-07-12</title></rect><rect fill="#EEEEEE" height="3.0" rx="0.6" ry="0.6" width="3.0" x="0.0" y="157.0"><title>2020-07-13</title></rect><rect fill="#EEEEEE" height="3.0" rx="0.6" ry="0.6" width="3.0" x="0.0" y="161.0"><title>2020-07-14</title></rect><rect fill="#EEEEEE" height="3.0" rx="0.6" ry="0.6" width="3.0" x="0.0" y="165.0"><title>2020-07-15</title></rect><rect fill="#EEEEEE" height="3.0" rx="0.6" ry="0.6" width="3.0" x="0.0" y="169.0"><title>2020-07-16</title></rect><rect fill="#EEEEEE" height="3.0" rx="0.6" ry="0.6" width="3.0" x="0.0" y="173.0"><title>2020-07-17</title></rect><rect fill="#EEEEEE" height="3.0" rx="0.6" ry="0.6" width="3.0" x="0.0" y="177.0"><title>2020-07-18</title></rect><rect fill="#EEEEEE" height="3.0" rx="0.6" ry="0.6" width="3.0" x="0.0" y="181.0"><title>2020-07-19</title></rect><rect fill="#4dd2ff" height="3.0" rx="0.6" ry="0.6" width="3.0" x="0.0" y="157.0"><title>2020-07-20 3.17 km</title></rect><rect fill="#EEEEEE" height="3.0" rx="0.6" ry="0.6" width="3.0" x="0.0" y="161.0"><title>2020-07-21</title></rect><rect fill="#EEEEEE" height="3.0" rx="0.6" ry="0.6" width="3.0" x="0.0" y="165.0"><title>2020-07-22</title></rect><rect fill="#EEEEEE" height="3.0" rx="0.6" ry="0.6" width="3.0" x="0.0" y="169.0"><title>2020-07-23</title></rect><rect fill="#EEEEEE" height="3.0" rx="0.6" ry="0.6" width="3.0" x="0.0" y="173.0"><title>2020-07-24</title></rect><rect fill="#EEEEEE" height="3.0" rx="0.6" ry="0.6" width="3.0" x="0.0" y="177.0"><title>2020-07-25</title></rect><rect fill="#EEEEEE" height="3.0" rx="0.6" ry="0.6" width="3.0" x="0.0" y="181.0"><title>2020-07-26</title></rect><rect fill="#EEEEEE" height="3.0" rx="0.6" ry="0.6" width="3.0" x="0.0" y="157.0"><title>2020-07-27</title></rect><rect fill="#EEEEEE" height="3.0" rx="0.6" ry="0.6" width="3.0" x="0.0" y="161.0"><title>2020-07-28</title></rect><rect fill="#EEEEEE" height="3.0" rx="0.6" ry="0.6" width="3.0" x="0.0" y="165.0"><title>2020-07-29</title></rect><rect fill="#EEEEEE" height="3.0" rx="0.6" ry="0.6" width="3.0" x="0.0" y="169.0"><title>2020-07-30</title></rect><rect fill="#4dd2ff" height="3.0" rx="0.6" ry="0.6" width="3.0" x="0.0" y="173.0"><title>2020-07-31 2.27 km</title></rect><text fill="#5A5A5A" style="font-size:8px; font-family:Arial; font-weight:bold;" x="0.0" y="150.0">8 月</text><rect fill="#EEEEEE" height="3.0" rx="0.6" ry="0.6" width="3.0" x="0.0" y="177.0"><title>2020-08-01</title></rect><rect fill="#EEEEEE" height="3.0" rx="0.6" ry="0.6" width="3.0" x="0.0" y="181.0"><title>2020-08-02</title></rect><rect fill="#EEEEEE" height="3.0" rx="0.6" ry="0.6" width="3.0" x="0.0" y="157.0"><title>2020-08-03</title></rect><rect fill="#EEEEEE" height="3.0" rx="0.6" ry="0.6" width="3.0" x="0.0" y="161.0"><title>2020-08-04</title></rect><rect fill="#EEEEEE" height="3.0" rx="0.6" ry="0.6" width="3.0" x="0.0" y="165.0"><title>2020-08-05</title></rect><rect fill="#EEEEEE" height="3.0" rx="0.6" ry="0.6" width="3.0" x="0.0" y="169.0"><title>2020-08-06</title></rect><rect fill="#EEEEEE" height="3.0" rx="0.6" ry="0.6" width="3.0" x="0.0" y="173.0"><title>2020-08-07</title></rect><rect fill="#EEEEEE" height="3.0" rx="0.6" ry="0.6" width="3.0" x="0.0" y="177.0"><title>2020-08-08</title></rect><rect fill="#4dd2ff" height="3.0" rx="0.6" ry="0.6" width="3.0" x="0.0" y="181.0"><title>2020-08-09 4.06 km</title></rect><rect fill="#EEEEEE" height="3.0" rx="0.6" ry="0.6" width="3.0" x="0.0" y="157.0"><title>2020-08-10</title></rect><rect fill="#4dd2ff" height="3.0" rx="0.6" ry="0.6" width="3.0" x="0.0" y="161.0"><title>2020-08-11 3.34 km</title></rect><rect fill="#EEEEEE" height="3.0" rx="0.6" ry="0.6" width="3.0" x="0.0" y="165.0"><title>2020-08-12</title></rect><rect fill="#EEEEEE" height="3.0" rx="0.6" ry="0.6" width="3.0" x="0.0" y="169.0"><title>2020-08-13</title></rect><rect fill="#EEEEEE" height="3.0" rx="0.6" ry="0.6" width="3.0" x="0.0" y="173.0"><title>2020-08-14</title></rect><rect fill="#EEEEEE" height="3.0" rx="0.6" ry="0.6" width="3.0" x="0.0" y="177.0"><title>2020-08-15</title></rect><rect fill="#4dd2ff" height="3.0" rx="0.6" ry="0.6" width="3.0" x="0.0" y="181.0"><title>2020-08-16 4.78 km</title></rect><rect fill="#EEEEEE" height="3.0" rx="0.6" ry="0.6" width="3.0" x="0.0" y="157.0"><title>2020-08-17</title></rect><rect fill="#EEEEEE" height="3.0" rx="0.6" ry="0.6" width="3.0" x="0.0" y="161.0"><title>2020-08-18</title></rect><rect fill="#EEEEEE" height="3.0" rx="0.6" ry="0.6" width="3.0" x="0.0" y="165.0"><title>2020-08-19</title></rect><rect fill="#EEEEEE" height="3.0" rx="0.6" ry="0.6" width="3.0" x="0.0" y="169.0"><title>2020-08-20</title></rect><rect fill="#EEEEEE" height="3.0" rx="0.6" ry="0.6" width="3.0" x="0.0" y="173.0"><title>2020-08-21</title></rect><rect fill="#EEEEEE" height="3.0" rx="0.6" ry="0.6" width="3.0" x="0.0" y="177.0"><title>2020-08-22</title></rect><rect fill="#EEEEEE" height="3.0" rx="0.6" ry="0.6" width="3.0" x="0.0" y="181.0"><title>2020-08-23</title></rect><rect fill="#EEEEEE" height="3.0" rx="0.6" ry="0.6" width="3.0" x="2.0" y="157.0"><title>2020-08-24</title></rect><rect fill="#EEEEEE" height="3.0" rx="0.6" ry="0.6" width="3.0" x="2.0" y="161.0"><title>2020-08-25</title></rect><rect fill="#EEEEEE" height="3.0" rx="0.6" ry="0.6" width="3.0" x="2.0" y="165.0"><title>2020-08-26</title></rect><rect fill="#EEEEEE" height="3.0" rx="0.6" ry="0.6" width="3.0" x="2.0" y="169.0"><title>2020-08-27</title></rect><rect fill="#EEEEEE" height="3.0" rx="0.6" ry="0.6" width="3.0" x="2.0" y="173.0"><title>2020-08-28</title></rect><rect fill="#ffd000" height="3.0" rx="0.6" ry="0.6" width="3.0" x="2.0" y="177.0"><title>2020-08-29 5.11 km</title></rect><rect fill="#EEEEEE" height="3.0" rx="0.6" ry="0.6" width="3.0" x="2.0" y="181.0"><title>2020-08-30</title></rect><rect fill="#EEEEEE" height="3.0" rx="0.6" ry="0.6" width="3.0" x="6.0" y="157.0"><title>2020-08-31</title></rect><text fill="#5A5A5A" style="font-size:8px; font-family:Arial; font-weight:bold;" x="16.0" y="150.0">9 月</text><rect fill="#EEEEEE" height="3.0" rx="0.6" ry="0.6" width="3.0" x="16.0" y="161.0"><title>2020-09-01</title></rect><rect fill="#EEEEEE" height="3.0" rx="0.6" ry="0.6" width="3.0" x="16.0" y="165.0"><title>2020-09-02</title></rect><rect fill="#EEEEEE" height="3.0" rx="0.6" ry="0.6" width="3.0" x="16.0" y="169.0"><title>2020-09-03</title></rect><rect fill="#EEEEEE" height="3.0" rx="0.6" ry="0.6" width="3.0" x="16.0" y="173.0"><title>2020-09-04</title></rect><rect fill="#EEEEEE" height="3.0" rx="0.6" ry="0.6" width="3.0" x="16.0" y="177.0"><title>2020-09-05</title></rect><rect fill="#4dd2ff" height="3.0" rx="0.6" ry="0.6" width="3.0" x="16.0" y="181.0"><title>2020-09-06 3.73 km</title></rect><rect fill="#4dd2ff" height="3.0" rx="0.6" ry="0.6" width="3.0" x="20.0" y="157.0"><title>2020-09-07 3.62 km</title></rect><rect fill="#EEEEEE" height="3.0" rx="0.6" ry="0.6" width="3.0" x="20.0" y="161.0"><title>2020-09-08</title></rect><rect fill="#ffc100" height="3.0" rx="0.6" ry="0.6" width="3.0" x="20.0" y="165.0"><title>2020-09-09 6.24 km</title></rect><rect fill="#EEEEEE" height="3.0" rx="0.6" ry="0.6" width="3.0" x="20.0" y="169.0"><title>2020-09-10</title></rect><rect fill="#4dd2ff" height="3.0" rx="0.6" ry="0.6" width="3.0" x="20.0" y="173.0"><title>2020-09-11 3.13 km</title></rect><rect fill="#EEEEEE" height="3.0" rx="0.6" ry="0.6" width="3.0" x="20.0" y="177.0"><title>2020-09-12</title></rect><rect fill="#ffc800" height="3.0" rx="0.6" ry="0.6" width="3.0" x="20.0" y="181.0"><title>2020-09-13 5.68 km</title></rect><rect fill="#EEEEEE" height="3.0" rx="0.6" ry="0.6" width="3.0" x="24.0" y="157.0"><title>2020-09-14</title></rect><rect fill="#EEEEEE" height="3.0" rx="0.6" ry="0.6" width="3.0" x="24.0" y="161.0"><title>2020-09-15</title></rect><rect fill="#4dd2ff" height="3.0" rx="0.6" ry="0.6" width="3.0" x="24.0" y="165.0"><title>2020-09-16 3.58 km</title></rect><rect fill="#EEEEEE" height="3.0" rx="0.6" ry="0.6" width="3.0" x="24.0" y="169.0"><title>2020-09-17</title></rect><rect fill="#EEEEEE" height="3.0" rx="0.6" ry="0.6" width="3.0" x="24.0" y="173.0"><title>2020-09-18</title></rect><rect fill="#EEEEEE" height="3.0" rx="0.6" ry="0.6" width="3.0" x="24.0" y="177.0"><title>2020-09-19</title></rect><rect fill="#EEEEEE" height="3.0" rx="0.6" ry="0.6" width="3.0" x="24.0" y="181.0"><title>2020-09-20</title></rect><rect fill="#EEEEEE" height="3.0" rx="0.6" ry="0.6" width="3.0" x="28.0" y="157.0"><title>2020-09-21</title></rect><rect fill="#EEEEEE" height="3.0" rx="0.6" ry="0.6" width="3.0" x="28.0" y="161.0"><title>2020-09-22</title></rect><rect fill="#4dd2ff" height="3.0" rx="0.6" ry="0.6" width="3.0" x="28.0" y="165.0"><title>2020-09-23 3.22 km</title></rect><rect fill="#EEEEEE" height="3.0" rx="0.6" ry="0.6" width="3.0" x="28.0" y="169.0"><title>2020-09-24</title></rect><rect fill="#EEEEEE" height="3.0" rx="0.6" ry="0.6" width="3.0" x="28.0" y="173.0"><title>2020-09-25</title></rect><rect fill="#ffaa00" height="3.0" rx="0.6" ry="0.6" width="3.0" x="28.0" y="177.0"><title>2020-09-26 7.89 km</title></rect><rect fill="#4dd2ff" height="3.0" rx="0.6" ry="0.6" width="3.0" x="28.0" y="181.0"><title>2020-09-27 3.14 km</title></rect><rect fill="#EEEEEE" height="3.0" rx="0.6" ry="0.6" width="3.0" x="32.0" y="157.0"><title>2020-09-28</title></rect><rect fill="#EEEEEE" height="3.0" rx="0.6" ry="0.6" width="3.0" x="32.0" y="161.0"><title>2020-09-29</title></rect><rect fill="#EEEEEE" height="3.0" rx="0.6" ry="0.6" width="3.0" x="32.0" y="165.0"><title>2020-09-30</title></rect><text fill="#5A5A5A" style="font-size:8px; font-family:Arial; font-weight:bold;" x="46.0" y="150.0">10 月</text><rect fill="red" height="3.0" rx="0.6" ry="0.6" width="3.0" x="46.0" y="169.0"><title>2020-10-01 12.32 km</title></rect><rect fill="#EEEEEE" height="3.0" rx="0.6" ry="0.6" width="3.0" x="46.0" y="173.0"><title>2020-10-02</title></rect><rect fill="#EEEEEE" height="3.0" rx="0.6" ry="0.6" width="3.0" x="46.0" y="177.0"><title>2020-10-03</title></rect><rect fill="#EEEEEE" height="3.0" rx="0.6" ry="0.6" width="3.0" x="46.0" y="181.0"><title>2020-10-04</title></rect><rect fill="#4dd2ff" height="3.0" rx="0.6" ry="0.6" width="3.0" x="50.0" y="157.0"><title>2020-10-05 3.01 km</title></rect><rect fill="#EEEEEE" height="3.0" rx="0.6" ry="0.6" width="3.0" x="50.0" y="161.0"><title>2020-10-06</title></rect><rect fill="#EEEEEE" height="3.0" rx="0.6" ry="0.6" width="3.0" x="50.0" y="165.0"><title>2020-10-07</title></rect><rect fill="#EEEEEE" height="3.0" rx="0.6" ry="0.6" width="3.0" x="50.0" y="169.0"><title>2020-10-08</title></rect><rect fill="#EEEEEE" height="3.0" rx="0.6" ry="0.6" width="3.0" x="50.0" y="173.0"><title>2020-10-09</title></rect><rect fill="#EEEEEE" height="3.0" rx="0.6" ry="0.6" width="3.0" x="50.0" y="177.0"><title>2020-10-10</title></rect><rect fill="#EEEEEE" height="3.0" rx="0.6" ry="0.6" width="3.0" x="50.0" y="181.0"><title>2020-10-11</title></rect><rect fill="#EEEEEE" height="3.0" rx="0.6" ry="0.6" width="3.0" x="54.0" y="157.0"><title>2020-10-12</title></rect><rect fill="#EEEEEE" height="3.0" rx="0.6" ry="0.6" width="3.0" x="54.0" y="161.0"><title>2020-10-13</title></rect><rect fill="#EEEEEE" height="3.0" rx="0.6" ry="0.6" width="3.0" x="54.0" y="165.0"><title>2020-10-14</title></rect><rect fill="#EEEEEE" height="3.0" rx="0.6" ry="0.6" width="3.0" x="54.0" y="169.0"><title>2020-10-15</title></rect><rect fill="#EEEEEE" height="3.0" rx="0.6" ry="0.6" width="3.0" x="54.0" y="173.0"><title>2020-10-16</title></rect><rect fill="#EEEEEE" height="3.0" rx="0.6" ry="0.6" width="3.0" x="54.0" y="177.0"><title>2020-10-17</title></rect><rect fill="#4dd2ff" height="3.0" rx="0.6" ry="0.6" width="3.0" x="54.0" y="181.0"><title>2020-10-18 1.72 km</title></rect><rect fill="#EEEEEE" height="3.0" rx="0.6" ry="0.6" width="3.0" x="58.0" y="157.0"><title>2020-10-19</title></rect><rect fill="#EEEEEE" height="3.0" rx="0.6" ry="0.6" width="3.0" x="58.0" y="161.0"><title>2020-10-20</title></rect><rect fill="#EEEEEE" height="3.0" rx="0.6" ry="0.6" width="3.0" x="58.0" y="165.0"><title>2020-10-21</title></rect><rect fill="#EEEEEE" height="3.0" rx="0.6" ry="0.6" width="3.0" x="58.0" y="169.0"><title>2020-10-22</title></rect><rect fill="#EEEEEE" height="3.0" rx="0.6" ry="0.6" width="3.0" x="58.0" y="173.0"><title>2020-10-23</title></rect><rect fill="#EEEEEE" height="3.0" rx="0.6" ry="0.6" width="3.0" x="58.0" y="177.0"><title>2020-10-24</title></rect><rect fill="#EEEEEE" height="3.0" rx="0.6" ry="0.6" width="3.0" x="58.0" y="181.0"><title>2020-10-25</title></rect><rect fill="#EEEEEE" height="3.0" rx="0.6" ry="0.6" width="3.0" x="62.0" y="157.0"><title>2020-10-26</title></rect><rect fill="#EEEEEE" height="3.0" rx="0.6" ry="0.6" width="3.0" x="62.0" y="161.0"><title>2020-10-27</title></rect><rect fill="#EEEEEE" height="3.0" rx="0.6" ry="0.6" width="3.0" x="62.0" y="165.0"><title>2020-10-28</title></rect><rect fill="#EEEEEE" height="3.0" rx="0.6" ry="0.6" width="3.0" x="62.0" y="169.0"><title>2020-10-29</title></rect><rect fill="#EEEEEE" height="3.0" rx="0.6" ry="0.6" width="3.0" x="62.0" y="173.0"><title>2020-10-30</title></rect><rect fill="#ffd100" height="3.0" rx="0.6" ry="0.6" width="3.0" x="62.0" y="177.0"><title>2020-10-31 5.03 km</title></rect><text fill="#5A5A5A" style="font-size:8px; font-family:Arial; font-weight:bold;" x="76.0" y="150.0">11 月</text><rect fill="#EEEEEE" height="3.0" rx="0.6" ry="0.6" width="3.0" x="76.0" y="181.0"><title>2020-11-01</title></rect><rect fill="#EEEEEE" height="3.0" rx="0.6" ry="0.6" width="3.0" x="80.0" y="157.0"><title>2020-11-02</title></rect><rect fill="#EEEEEE" height="3.0" rx="0.6" ry="0.6" width="3.0" x="80.0" y="161.0"><title>2020-11-03</title></rect><rect fill="#EEEEEE" height="3.0" rx="0.6" ry="0.6" width="3.0" x="80.0" y="165.0"><title>2020-11-04</title></rect><rect fill="#EEEEEE" height="3.0" rx="0.6" ry="0.6" width="3.0" x="80.0" y="169.0"><title>2020-11-05</title></rect><rect fill="#EEEEEE" height="3.0" rx="0.6" ry="0.6" width="3.0" x="80.0" y="173.0"><title>2020-11-06</title></rect><rect fill="#EEEEEE" height="3.0" rx="0.6" ry="0.6" width="3.0" x="80.0" y="177.0"><title>2020-11-07</title></rect><rect fill="#EEEEEE" height="3.0" rx="0.6" ry="0.6" width="3.0" x="80.0" y="181.0"><title>2020-11-08</title></rect><rect fill="#EEEEEE" height="3.0" rx="0.6" ry="0.6" width="3.0" x="84.0" y="157.0"><title>2020-11-09</title></rect><rect fill="#EEEEEE" height="3.0" rx="0.6" ry="0.6" width="3.0" x="84.0" y="161.0"><title>2020-11-10</title></rect><rect fill="#EEEEEE" height="3.0" rx="0.6" ry="0.6" width="3.0" x="84.0" y="165.0"><title>2020-11-11</title></rect><rect fill="#4dd2ff" height="3.0" rx="0.6" ry="0.6" width="3.0" x="84.0" y="169.0"><title>2020-11-12 3.19 km</title></rect><rect fill="#EEEEEE" height="3.0" rx="0.6" ry="0.6" width="3.0" x="84.0" y="173.0"><title>2020-11-13</title></rect><rect fill="#EEEEEE" height="3.0" rx="0.6" ry="0.6" width="3.0" x="84.0" y="177.0"><title>2020-11-14</title></rect><rect fill="#EEEEEE" height="3.0" rx="0.6" ry="0.6" width="3.0" x="84.0" y="181.0"><title>2020-11-15</title></rect><rect fill="#EEEEEE" height="3.0" rx="0.6" ry="0.6" width="3.0" x="88.0" y="157.0"><title>2020-11-16</title></rect><rect fill="#EEEEEE" height="3.0" rx="0.6" ry="0.6" width="3.0" x="88.0" y="161.0"><title>2020-11-17</title></rect><rect fill="#EEEEEE" height="3.0" rx="0.6" ry="0.6" width="3.0" x="88.0" y="165.0"><title>2020-11-18</title></rect><rect fill="#EEEEEE" height="3.0" rx="0.6" ry="0.6" width="3.0" x="88.0" y="169.0"><title>2020-11-19</title></rect><rect fill="#EEEEEE" height="3.0" rx="0.6" ry="0.6" width="3.0" x="88.0" y="173.0"><title>2020-11-20</title></rect><rect fill="#ffd100" height="3.0" rx="0.6" ry="0.6" width="3.0" x="88.0" y="177.0"><title>2020-11-21 5.03 km</title></rect><rect fill="#EEEEEE" height="3.0" rx="0.6" ry="0.6" width="3.0" x="88.0" y="181.0"><title>2020-11-22</title></rect><rect fill="#EEEEEE" height="3.0" rx="0.6" ry="0.6" width="3.0" x="92.0" y="157.0"><title>2020-11-23</title></rect><rect fill="#EEEEEE" height="3.0" rx="0.6" ry="0.6" width="3.0" x="92.0" y="161.0"><title>2020-11-24</title></rect><rect fill="#EEEEEE" height="3.0" rx="0.6" ry="0.6" width="3.0" x="92.0" y="165.0"><title>2020-11-25</title></rect><rect fill="#EEEEEE" height="3.0" rx="0.6" ry="0.6" width="3.0" x="92.0" y="169.0"><title>2020-11-26</title></rect><rect fill="#EEEEEE" height="3.0" rx="0.6" ry="0.6" width="3.0" x="92.0" y="173.0"><title>2020-11-27</title></rect><rect fill="#EEEEEE" height="3.0" rx="0.6" ry="0.6" width="3.0" x="92.0" y="177.0"><title>2020-11-28</title></rect><rect fill="#4dd2ff" height="3.0" rx="0.6" ry="0.6" width="3.0" x="92.0" y="181.0"><title>2020-11-29 2.57 km</title></rect><rect fill="#EEEEEE" height="3.0" rx="0.6" ry="0.6" width="3.0" x="96.0" y="157.0"><title>2020-11-30</title></rect><text fill="#5A5A5A" style="font-size:8px; font-family:Arial; font-weight:bold;" x="106.0" y="150.0">12 月</text><rect fill="#EEEEEE" height="3.0" rx="0.6" ry="0.6" width="3.0" x="106.0" y="161.0"><title>2020-12-01</title></rect><rect fill="#EEEEEE" height="3.0" rx="0.6" ry="0.6" width="3.0" x="106.0" y="165.0"><title>2020-12-02</title></rect><rect fill="#EEEEEE" height="3.0" rx="0.6" ry="0.6" width="3.0" x="106.0" y="169.0"><title>2020-12-03</title></rect><rect fill="#EEEEEE" height="3.0" rx="0.6" ry="0.6" width="3.0" x="106.0" y="173.0"><title>2020-12-04</title></rect><rect fill="#EEEEEE" height="3.0" rx="0.6" ry="0.6" width="3.0" x="106.0" y="177.0"><title>2020-12-05</title></rect><rect fill="red" height="3.0" rx="0.6" ry="0.6" width="3.0" x="106.0" y="181.0"><title>2020-12-06 15.71 km</title></rect><rect fill="#EEEEEE" height="3.0" rx="0.6" ry="0.6" width="3.0" x="110.0" y="157.0"><title>2020-12-07</title></rect><rect fill="#EEEEEE" height="3.0" rx="0.6" ry="0.6" width="3.0" x="110.0" y="161.0"><title>2020-12-08</title></rect><rect fill="#EEEEEE" height="3.0" rx="0.6" ry="0.6" width="3.0" x="110.0" y="165.0"><title>2020-12-09</title></rect><rect fill="#EEEEEE" height="3.0" rx="0.6" ry="0.6" width="3.0" x="110.0" y="169.0"><title>2020-12-10</title></rect><rect fill="#EEEEEE" height="3.0" rx="0.6" ry="0.6" width="3.0" x="110.0" y="173.0"><title>2020-12-11</title></rect><rect fill="#ff9000" height="3.0" rx="0.6" ry="0.6" width="3.0" x="110.0" y="177.0"><title>2020-12-12 9.73 km</title></rect><rect fill="#EEEEEE" height="3.0" rx="0.6" ry="0.6" width="3.0" x="110.0" y="181.0"><title>2020-12-13</title></rect><rect fill="#EEEEEE" height="3.0" rx="0.6" ry="0.6" width="3.0" x="114.0" y="157.0"><title>2020-12-14</title></rect><rect fill="#EEEEEE" height="3.0" rx="0.6" ry="0.6" width="3.0" x="114.0" y="161.0"><title>2020-12-15</title></rect><rect fill="#EEEEEE" height="3.0" rx="0.6" ry="0.6" width="3.0" x="114.0" y="165.0"><title>2020-12-16</title></rect><rect fill="#EEEEEE" height="3.0" rx="0.6" ry="0.6" width="3.0" x="114.0" y="169.0"><title>2020-12-17</title></rect><rect fill="#EEEEEE" height="3.0" rx="0.6" ry="0.6" width="3.0" x="114.0" y="173.0"><title>2020-12-18</title></rect><rect fill="#EEEEEE" height="3.0" rx="0.6" ry="0.6" width="3.0" x="114.0" y="177.0"><title>2020-12-19</title></rect><rect fill="red" height="3.0" rx="0.6" ry="0.6" width="3.0" x="114.0" y="181.0"><title>2020-12-20 20.15 km</title></rect><rect fill="#EEEEEE" height="3.0" rx="0.6" ry="0.6" width="3.0" x="118.0" y="157.0"><title>2020-12-21</title></rect><rect fill="#EEEEEE" height="3.0" rx="0.6" ry="0.6" width="3.0" x="118.0" y="161.0"><title>2020-12-22</title></rect><rect fill="#EEEEEE" height="3.0" rx="0.6" ry="0.6" width="3.0" x="118.0" y="165.0"><title>2020-12-23</title></rect><rect fill="#EEEEEE" height="3.0" rx="0.6" ry="0.6" width="3.0" x="118.0" y="169.0"><title>2020-12-24</title></rect><rect fill="#EEEEEE" height="3.0" rx="0.6" ry="0.6" width="3.0" x="118.0" y="173.0"><title>2020-12-25</title></rect><rect fill="#EEEEEE" height="3.0" rx="0.6" ry="0.6" width="3.0" x="118.0" y="177.0"><title>2020-12-26</title></rect><rect fill="#ffa100" height="3.0" rx="0.6" ry="0.6" width="3.0" x="118.0" y="181.0"><title>2020-12-27 8.53 km</title></rect><rect fill="#EEEEEE" height="3.0" rx="0.6" ry="0.6" width="3.0" x="122.0" y="157.0"><title>2020-12-28</title></rect><rect fill="#EEEEEE" height="3.0" rx="0.6" ry="0.6" width="3.0" x="122.0" y="161.0"><title>2020-12-29</title></rect><rect fill="#EEEEEE" height="3.0" rx="0.6" ry="0.6" width="3.0" x="122.0" y="165.0"><title>2020-12-30</title></rect><rect fill="#EEEEEE" height="3.0" rx="0.6" ry="0.6" width="3.0" x="122.0" y="169.0"><title>2020-12-31</title></rect></g><text fill="#5A5A5A" style="font-size:12px; font-family:Arial; font-weight:bold;" x="0" y="20">年度跑步日历</text><text fill="#5A5A5A" style="font-size:4px; font-family:Arial" x="0" y="200">Runner</text><text fill="#5A5A5A" style="font-size:9px; font-family:Arial" x="0" y="210">Workouts</text><text fill="#5A5A5A" style="font-size:4px; font-family:Arial" x="0" y="200">SPECIAL TRACKS</text><rect fill="yellow" height="2.6" width="2.6" x="0" y="203" /><text fill="#5A5A5A" style="font-size:3px; font-family:Arial" x="1" y="205.5">Over 5.0 km</text><rect fill="red" height="2.6" width="2.6" x="0" y="207" /><text fill="#5A5A5A" style="font-size:3px; font-family:Arial" x="1" y="209.5">Over 10.0 km</text><text fill="#5A5A5A" style="font-size:4px; font-family:Arial" x="36" y="200">STATISTICS</text><text fill="#5A5A5A" style="font-size:3px; font-family:Arial" x="36" y="205">Number: 40 / 102</text><text fill="#5A5A5A" style="font-size:3px; font-family:Arial" x="36" y="210">Weekly: 1.38</text><text fill="#5A5A5A" style="font-size:3px; font-family:Arial" x="71" y="205">Total: 228.31 km / 505.87 km</text><text fill="#5A5A5A" style="font-size:3px; font-family:Arial" x="71" y="210">Avg: 5.71 km</text><text fill="#5A5A5A" style="font-size:3px; font-family:Arial" x="121" y="205">Min: 1.15 km</text><text fill="#5A5A5A" style="font-size:3px; font-family:Arial" x="121" y="210">Max: 20.15 km</text></svg>