<?xml version="1.0" encoding="utf-8" ?>
<svg baseProfile="full" height="220mm" version="1.1" viewBox="0,0,200,220" width="200mm" xmlns="http://www.w3.org/2000/svg" xmlns:ev="http://www.w3.org/2001/xml-events" xmlns:xlink="http://www.w3.org/1999/xlink"><defs /><rect fill="#FAF9F5" height="220" width="200" x="0" y="0" /><g id="svg_23bf202a_tracks"><text fill="#5A5A5A" style="font-size:10px; font-family:Arial; font-weight:bold;" x="0" y="40">RUNNER'S</text><text fill="#5A5A5A" style="font-size:12px; font-family:Arial; font-weight:bold;" x="0" y="52">CALENDAR</text><text fill="#5A5A5A" style="font-size:36px; font-family:Arial; font-weight:bold;" x="0" y="90"><tspan>130</tspan></text><text fill="#5A5A5A" style="font-size:12px; font-family:Arial;" x="0" y="90">天</text><text fill="#5A5A5A" style="font-size:8px; font-family:Arial; font-weight:bold;" text-anchor="end" x="58" y="40">跑者年历</text><text fill="#5A5A5A" style="font-size:5px; font-family:Arial;" text-anchor="end" x="58" y="48">2022 Year</text><text fill="#5A5A5A" style="font-size:5px; font-family:Arial;" text-anchor="end" x="58" y="54">Annual Running Report</text><text fill="#5A5A5A" style="font-size:7px; font-family:Arial;" text-anchor="end" x="58" y="75"><tspan>今年运动 </tspan><tspan fill="#4DD2FF">130</tspan><tspan> 天 </tspan><tspan fill="#4DD2FF">138</tspan><tspan> 次</tspan></text><text fill="#5A5A5A" style="font-size:7px; font-family:Arial; opacity: 0.7;" text-anchor="end" x="58" y="88"><tspan>生涯累计运动 </tspan><tspan fill="#4DD2FF">255</tspan><tspan> 天 </tspan><tspan fill="#4DD2FF">279</tspan><tspan> 次</tspan></text><text fill="#5A5A5A" style="font-size:8px; font-family:Arial; font-weight:bold;" x="0.0" y="105.0">1 月</text><rect fill="#EEEEEE" height="3.0" rx="0.6" ry="0.6" width="3.0" x="0.0" y="132.0"><title>2022-01-01</title></rect><rect fill="#EEEEEE" height="3.0" rx="0.6" ry="0.6" width="3.0" x="0.0" y="136.0"><title>2022-01-02</title></rect><rect fill="#4dd2ff" height="3.0" rx="0.6" ry="0.6" width="3.0" x="0.0" y="112.0"><title>2022-01-03 4.02 km</title></rect><rect fill="#EEEEEE" height="3.0" rx="0.6" ry="0.6" width="3.0" x="0.0" y="116.0"><title>2022-01-04</title></rect><rect fill="#EEEEEE" height="3.0" rx="0.6" ry="0.6" width="3.0" x="0.0" y="120.0"><title>2022-01-05</title></rect><rect fill="#EEEEEE" height="3.0" rx="0.6" ry="0.6" width="3.0" x="0.0" y="124.0"><title>2022-01-06</title></rect><rect fill="#EEEEEE" height="3.0" rx="0.6" ry="0.6" width="3.0" x="0.0" y="128.0"><title>2022-01-07</title></rect><rect fill="#EEEEEE" height="3.0" rx="0.6" ry="0.6" width="3.0" x="0.0" y="132.0"><title>2022-01-08</title></rect><rect fill="#EEEEEE" height="3.0" rx="0.6" ry="0.6" width="3.0" x="0.0" y="136.0"><title>2022-01-09</title></rect><rect fill="#EEEEEE" height="3.0" rx="0.6" ry="0.6" width="3.0" x="0.0" y="112.0"><title>2022-01-10</title></rect><rect fill="#EEEEEE" height="3.0" rx="0.6" ry="0.6" width="3.0" x="0.0" y="116.0"><title>2022-01-11</title></rect><rect fill="#EEEEEE" height="3.0" rx="0.6" ry="0.6" width="3.0" x="0.0" y="120.0"><title>2022-01-12</title></rect><rect fill="#EEEEEE" height="3.0" rx="0.6" ry="0.6" width="3.0" x="0.0" y="124.0"><title>2022-01-13</title></rect><rect fill="#EEEEEE" height="3.0" rx="0.6" ry="0.6" width="3.0" x="0.0" y="128.0"><title>2022-01-14</title></rect><rect fill="#EEEEEE" height="3.0" rx="0.6" ry="0.6" width="3.0" x="0.0" y="132.0"><title>2022-01-15</title></rect><rect fill="#EEEEEE" height="3.0" rx="0.6" ry="0.6" width="3.0" x="0.0" y="136.0"><title>2022-01-16</title></rect><rect fill="#EEEEEE" height="3.0" rx="0.6" ry="0.6" width="3.0" x="0.0" y="112.0"><title>2022-01-17</title></rect><rect fill="#EEEEEE" height="3.0" rx="0.6" ry="0.6" width="3.0" x="0.0" y="116.0"><title>2022-01-18</title></rect><rect fill="#EEEEEE" height="3.0" rx="0.6" ry="0.6" width="3.0" x="0.0" y="120.0"><title>2022-01-19</title></rect><rect fill="#EEEEEE" height="3.0" rx="0.6" ry="0.6" width="3.0" x="0.0" y="124.0"><title>2022-01-20</title></rect><rect fill="#EEEEEE" height="3.0" rx="0.6" ry="0.6" width="3.0" x="0.0" y="128.0"><title>2022-01-21</title></rect><rect fill="#EEEEEE" height="3.0" rx="0.6" ry="0.6" width="3.0" x="0.0" y="132.0"><title>2022-01-22</title></rect><rect fill="#EEEEEE" height="3.0" rx="0.6" ry="0.6" width="3.0" x="0.0" y="136.0"><title>2022-01-23</title></rect><rect fill="#EEEEEE" height="3.0" rx="0.6" ry="0.6" width="3.0" x="0.0" y="112.0"><title>2022-01-24</title></rect><rect fill="#EEEEEE" height="3.0" rx="0.6" ry="0.6" width="3.0" x="0.0" y="116.0"><title>2022-01-25</title></rect><rect fill="#EEEEEE" height="3.0" rx="0.6" ry="0.6" width="3.0" x="0.0" y="120.0"><title>2022-01-26</title></rect><rect fill="#EEEEEE" height="3.0" rx="0.6" ry="0.6" width="3.0" x="0.0" y="124.0"><title>2022-01-27</title></rect><rect fill="#EEEEEE" height="3.0" rx="0.6" ry="0.6" width="3.0" x="0.0" y="128.0"><title>2022-01-28</title></rect><rect fill="#EEEEEE" height="3.0" rx="0.6" ry="0.6" width="3.0" x="0.0" y="132.0"><title>2022-01-29</title></rect><rect fill="#ffd400" height="3.0" rx="0.6" ry="0.6" width="3.0" x="0.0" y="136.0"><title>2022-01-30 5.01 km</title></rect><rect fill="#EEEEEE" height="3.0" rx="0.6" ry="0.6" width="3.0" x="0.0" y="112.0"><title>2022-01-31</title></rect><text fill="#5A5A5A" style="font-size:8px; font-family:Arial; font-weight:bold;" x="0.0" y="105.0">2 月</text><rect fill="#EEEEEE" height="3.0" rx="0.6" ry="0.6" width="3.0" x="0.0" y="116.0"><title>2022-02-01</title></rect><rect fill="#EEEEEE" height="3.0" rx="0.6" ry="0.6" width="3.0" x="0.0" y="120.0"><title>2022-02-02</title></rect><rect fill="#EEEEEE" height="3.0" rx="0.6" ry="0.6" width="3.0" x="0.0" y="124.0"><title>2022-02-03</title></rect><rect fill="#ffce00" height="3.0" rx="0.6" ry="0.6" width="3.0" x="0.0" y="128.0"><title>2022-02-04 5.68 km</title></rect><rect fill="#EEEEEE" height="3.0" rx="0.6" ry="0.6" width="3.0" x="0.0" y="132.0"><title>2022-02-05</title></rect><rect fill="#EEEEEE" height="3.0" rx="0.6" ry="0.6" width="3.0" x="0.0" y="136.0"><title>2022-02-06</title></rect><rect fill="#ffc300" height="3.0" rx="0.6" ry="0.6" width="3.0" x="0.0" y="112.0"><title>2022-02-07 6.78 km</title></rect><rect fill="#EEEEEE" height="3.0" rx="0.6" ry="0.6" width="3.0" x="0.0" y="116.0"><title>2022-02-08</title></rect><rect fill="#EEEEEE" height="3.0" rx="0.6" ry="0.6" width="3.0" x="0.0" y="120.0"><title>2022-02-09</title></rect><rect fill="#EEEEEE" height="3.0" rx="0.6" ry="0.6" width="3.0" x="0.0" y="124.0"><title>2022-02-10</title></rect><rect fill="#EEEEEE" height="3.0" rx="0.6" ry="0.6" width="3.0" x="0.0" y="128.0"><title>2022-02-11</title></rect><rect fill="#EEEEEE" height="3.0" rx="0.6" ry="0.6" width="3.0" x="0.0" y="132.0"><title>2022-02-12</title></rect><rect fill="#EEEEEE" height="3.0" rx="0.6" ry="0.6" width="3.0" x="0.0" y="136.0"><title>2022-02-13</title></rect><rect fill="#EEEEEE" height="3.0" rx="0.6" ry="0.6" width="3.0" x="0.0" y="112.0"><title>2022-02-14</title></rect><rect fill="#EEEEEE" height="3.0" rx="0.6" ry="0.6" width="3.0" x="0.0" y="116.0"><title>2022-02-15</title></rect><rect fill="#4dd2ff" height="3.0" rx="0.6" ry="0.6" width="3.0" x="0.0" y="120.0"><title>2022-02-16 3.07 km</title></rect><rect fill="#EEEEEE" height="3.0" rx="0.6" ry="0.6" width="3.0" x="0.0" y="124.0"><title>2022-02-17</title></rect><rect fill="#EEEEEE" height="3.0" rx="0.6" ry="0.6" width="3.0" x="0.0" y="128.0"><title>2022-02-18</title></rect><rect fill="#EEEEEE" height="3.0" rx="0.6" ry="0.6" width="3.0" x="0.0" y="132.0"><title>2022-02-19</title></rect><rect fill="#EEEEEE" height="3.0" rx="0.6" ry="0.6" width="3.0" x="0.0" y="136.0"><title>2022-02-20</title></rect><rect fill="#EEEEEE" height="3.0" rx="0.6" ry="0.6" width="3.0" x="0.0" y="112.0"><title>2022-02-21</title></rect><rect fill="#EEEEEE" height="3.0" rx="0.6" ry="0.6" width="3.0" x="0.0" y="116.0"><title>2022-02-22</title></rect><rect fill="#EEEEEE" height="3.0" rx="0.6" ry="0.6" width="3.0" x="0.0" y="120.0"><title>2022-02-23</title></rect><rect fill="#EEEEEE" height="3.0" rx="0.6" ry="0.6" width="3.0" x="0.0" y="124.0"><title>2022-02-24</title></rect><rect fill="#EEEEEE" height="3.0" rx="0.6" ry="0.6" width="3.0" x="0.0" y="128.0"><title>2022-02-25</title></rect><rect fill="#ffd400" height="3.0" rx="0.6" ry="0.6" width="3.0" x="0.0" y="132.0"><title>2022-02-26 5.00 km</title></rect><rect fill="#EEEEEE" height="3.0" rx="0.6" ry="0.6" width="3.0" x="0.0" y="136.0"><title>2022-02-27</title></rect><rect fill="#EEEEEE" height="3.0" rx="0.6" ry="0.6" width="3.0" x="0.0" y="112.0"><title>2022-02-28</title></rect><text fill="#5A5A5A" style="font-size:8px; font-family:Arial; font-weight:bold;" x="0.0" y="105.0">3 月</text><rect fill="#EEEEEE" height="3.0" rx="0.6" ry="0.6" width="3.0" x="0.0" y="116.0"><title>2022-03-01</title></rect><rect fill="#EEEEEE" height="3.0" rx="0.6" ry="0.6" width="3.0" x="0.0" y="120.0"><title>2022-03-02</title></rect><rect fill="#EEEEEE" height="3.0" rx="0.6" ry="0.6" width="3.0" x="0.0" y="124.0"><title>2022-03-03</title></rect><rect fill="#4dd2ff" height="3.0" rx="0.6" ry="0.6" width="3.0" x="0.0" y="128.0"><title>2022-03-04 3.51 km</title></rect><rect fill="#EEEEEE" height="3.0" rx="0.6" ry="0.6" width="3.0" x="0.0" y="132.0"><title>2022-03-05</title></rect><rect fill="#EEEEEE" height="3.0" rx="0.6" ry="0.6" width="3.0" x="0.0" y="136.0"><title>2022-03-06</title></rect><rect fill="#EEEEEE" height="3.0" rx="0.6" ry="0.6" width="3.0" x="0.0" y="112.0"><title>2022-03-07</title></rect><rect fill="#EEEEEE" height="3.0" rx="0.6" ry="0.6" width="3.0" x="0.0" y="116.0"><title>2022-03-08</title></rect><rect fill="#EEEEEE" height="3.0" rx="0.6" ry="0.6" width="3.0" x="0.0" y="120.0"><title>2022-03-09</title></rect><rect fill="#EEEEEE" height="3.0" rx="0.6" ry="0.6" width="3.0" x="0.0" y="124.0"><title>2022-03-10</title></rect><rect fill="#EEEEEE" height="3.0" rx="0.6" ry="0.6" width="3.0" x="0.0" y="128.0"><title>2022-03-11</title></rect><rect fill="#EEEEEE" height="3.0" rx="0.6" ry="0.6" width="3.0" x="0.0" y="132.0"><title>2022-03-12</title></rect><rect fill="#EEEEEE" height="3.0" rx="0.6" ry="0.6" width="3.0" x="0.0" y="136.0"><title>2022-03-13</title></rect><rect fill="#EEEEEE" height="3.0" rx="0.6" ry="0.6" width="3.0" x="0.0" y="112.0"><title>2022-03-14</title></rect><rect fill="#EEEEEE" height="3.0" rx="0.6" ry="0.6" width="3.0" x="0.0" y="116.0"><title>2022-03-15</title></rect><rect fill="#EEEEEE" height="3.0" rx="0.6" ry="0.6" width="3.0" x="0.0" y="120.0"><title>2022-03-16</title></rect><rect fill="#EEEEEE" height="3.0" rx="0.6" ry="0.6" width="3.0" x="0.0" y="124.0"><title>2022-03-17</title></rect><rect fill="#EEEEEE" height="3.0" rx="0.6" ry="0.6" width="3.0" x="0.0" y="128.0"><title>2022-03-18</title></rect><rect fill="#EEEEEE" height="3.0" rx="0.6" ry="0.6" width="3.0" x="0.0" y="132.0"><title>2022-03-19</title></rect><rect fill="#ffd400" height="3.0" rx="0.6" ry="0.6" width="3.0" x="0.0" y="136.0"><title>2022-03-20 5.01 km</title></rect><rect fill="#EEEEEE" height="3.0" rx="0.6" ry="0.6" width="3.0" x="0.0" y="112.0"><title>2022-03-21</title></rect><rect fill="#ffd400" height="3.0" rx="0.6" ry="0.6" width="3.0" x="0.0" y="116.0"><title>2022-03-22 5.01 km</title></rect><rect fill="#EEEEEE" height="3.0" rx="0.6" ry="0.6" width="3.0" x="0.0" y="120.0"><title>2022-03-23</title></rect><rect fill="#EEEEEE" height="3.0" rx="0.6" ry="0.6" width="3.0" x="0.0" y="124.0"><title>2022-03-24</title></rect><rect fill="#ffc400" height="3.0" rx="0.6" ry="0.6" width="3.0" x="0.0" y="128.0"><title>2022-03-25 6.67 km</title></rect><rect fill="#EEEEEE" height="3.0" rx="0.6" ry="0.6" width="3.0" x="0.0" y="132.0"><title>2022-03-26</title></rect><rect fill="#EEEEEE" height="3.0" rx="0.6" ry="0.6" width="3.0" x="0.0" y="136.0"><title>2022-03-27</title></rect><rect fill="#EEEEEE" height="3.0" rx="0.6" ry="0.6" width="3.0" x="0.0" y="112.0"><title>2022-03-28</title></rect><rect fill="#EEEEEE" height="3.0" rx="0.6" ry="0.6" width="3.0" x="0.0" y="116.0"><title>2022-03-29</title></rect><rect fill="#EEEEEE" height="3.0" rx="0.6" ry="0.6" width="3.0" x="0.0" y="120.0"><title>2022-03-30</title></rect><rect fill="#EEEEEE" height="3.0" rx="0.6" ry="0.6" width="3.0" x="0.0" y="124.0"><title>2022-03-31</title></rect><text fill="#5A5A5A" style="font-size:8px; font-family:Arial; font-weight:bold;" x="0.0" y="105.0">4 月</text><rect fill="#EEEEEE" height="3.0" rx="0.6" ry="0.6" width="3.0" x="0.0" y="128.0"><title>2022-04-01</title></rect><rect fill="#ffd400" height="3.0" rx="0.6" ry="0.6" width="3.0" x="0.0" y="132.0"><title>2022-04-02 5.01 km</title></rect><rect fill="#EEEEEE" height="3.0" rx="0.6" ry="0.6" width="3.0" x="0.0" y="136.0"><title>2022-04-03</title></rect><rect fill="#EEEEEE" height="3.0" rx="0.6" ry="0.6" width="3.0" x="0.0" y="112.0"><title>2022-04-04</title></rect><rect fill="#EEEEEE" height="3.0" rx="0.6" ry="0.6" width="3.0" x="0.0" y="116.0"><title>2022-04-05</title></rect><rect fill="#4dd2ff" height="3.0" rx="0.6" ry="0.6" width="3.0" x="0.0" y="120.0"><title>2022-04-06 4.11 km</title></rect><rect fill="#EEEEEE" height="3.0" rx="0.6" ry="0.6" width="3.0" x="0.0" y="124.0"><title>2022-04-07</title></rect><rect fill="#EEEEEE" height="3.0" rx="0.6" ry="0.6" width="3.0" x="0.0" y="128.0"><title>2022-04-08</title></rect><rect fill="#4dd2ff" height="3.0" rx="0.6" ry="0.6" width="3.0" x="0.0" y="132.0"><title>2022-04-09 4.01 km</title></rect><rect fill="#EEEEEE" height="3.0" rx="0.6" ry="0.6" width="3.0" x="0.0" y="136.0"><title>2022-04-10</title></rect><rect fill="#EEEEEE" height="3.0" rx="0.6" ry="0.6" width="3.0" x="0.0" y="112.0"><title>2022-04-11</title></rect><rect fill="#4dd2ff" height="3.0" rx="0.6" ry="0.6" width="3.0" x="0.0" y="116.0"><title>2022-04-12 1.09 km</title></rect><rect fill="#EEEEEE" height="3.0" rx="0.6" ry="0.6" width="3.0" x="0.0" y="120.0"><title>2022-04-13</title></rect><rect fill="#4dd2ff" height="3.0" rx="0.6" ry="0.6" width="3.0" x="0.0" y="124.0"><title>2022-04-14 4.22 km</title></rect><rect fill="#4dd2ff" height="3.0" rx="0.6" ry="0.6" width="3.0" x="0.0" y="128.0"><title>2022-04-15 4.57 km</title></rect><rect fill="#EEEEEE" height="3.0" rx="0.6" ry="0.6" width="3.0" x="0.0" y="132.0"><title>2022-04-16</title></rect><rect fill="#4dd2ff" height="3.0" rx="0.6" ry="0.6" width="3.0" x="0.0" y="136.0"><title>2022-04-17 4.37 km</title></rect><rect fill="#EEEEEE" height="3.0" rx="0.6" ry="0.6" width="3.0" x="0.0" y="112.0"><title>2022-04-18</title></rect><rect fill="#EEEEEE" height="3.0" rx="0.6" ry="0.6" width="3.0" x="0.0" y="116.0"><title>2022-04-19</title></rect><rect fill="#ffd400" height="3.0" rx="0.6" ry="0.6" width="3.0" x="0.0" y="120.0"><title>2022-04-20 5.00 km</title></rect><rect fill="#EEEEEE" height="3.0" rx="0.6" ry="0.6" width="3.0" x="0.0" y="124.0"><title>2022-04-21</title></rect><rect fill="#4dd2ff" height="3.0" rx="0.6" ry="0.6" width="3.0" x="0.0" y="128.0"><title>2022-04-22 2.12 km</title></rect><rect fill="#EEEEEE" height="3.0" rx="0.6" ry="0.6" width="3.0" x="0.0" y="132.0"><title>2022-04-23</title></rect><rect fill="#4dd2ff" height="3.0" rx="0.6" ry="0.6" width="3.0" x="0.0" y="136.0"><title>2022-04-24 4.00 km</title></rect><rect fill="#EEEEEE" height="3.0" rx="0.6" ry="0.6" width="3.0" x="0.0" y="112.0"><title>2022-04-25</title></rect><rect fill="#4dd2ff" height="3.0" rx="0.6" ry="0.6" width="3.0" x="0.0" y="116.0"><title>2022-04-26 4.01 km</title></rect><rect fill="#4dd2ff" height="3.0" rx="0.6" ry="0.6" width="3.0" x="0.0" y="120.0"><title>2022-04-27 3.64 km</title></rect><rect fill="#4dd2ff" height="3.0" rx="0.6" ry="0.6" width="3.0" x="0.0" y="124.0"><title>2022-04-28 3.68 km</title></rect><rect fill="#4dd2ff" height="3.0" rx="0.6" ry="0.6" width="3.0" x="0.0" y="128.0"><title>2022-04-29 4.13 km</title></rect><rect fill="#4dd2ff" height="3.0" rx="0.6" ry="0.6" width="3.0" x="0.0" y="132.0"><title>2022-04-30 4.56 km</title></rect><text fill="#5A5A5A" style="font-size:8px; font-family:Arial; font-weight:bold;" x="0.0" y="105.0">5 月</text><rect fill="#ffd400" height="3.0" rx="0.6" ry="0.6" width="3.0" x="0.0" y="136.0"><title>2022-05-01 5.01 km</title></rect><rect fill="#EEEEEE" height="3.0" rx="0.6" ry="0.6" width="3.0" x="2.0" y="112.0"><title>2022-05-02</title></rect><rect fill="#ffc300" height="3.0" rx="0.6" ry="0.6" width="3.0" x="2.0" y="116.0"><title>2022-05-03 6.79 km</title></rect><rect fill="#ffc300" height="3.0" rx="0.6" ry="0.6" width="3.0" x="2.0" y="120.0"><title>2022-05-04 6.79 km</title></rect><rect fill="#ffd400" height="3.0" rx="0.6" ry="0.6" width="3.0" x="2.0" y="124.0"><title>2022-05-05 5.06 km</title></rect><rect fill="#EEEEEE" height="3.0" rx="0.6" ry="0.6" width="3.0" x="2.0" y="128.0"><title>2022-05-06</title></rect><rect fill="#EEEEEE" height="3.0" rx="0.6" ry="0.6" width="3.0" x="2.0" y="132.0"><title>2022-05-07</title></rect><rect fill="#EEEEEE" height="3.0" rx="0.6" ry="0.6" width="3.0" x="2.0" y="136.0"><title>2022-05-08</title></rect><rect fill="#4dd2ff" height="3.0" rx="0.6" ry="0.6" width="3.0" x="6.0" y="112.0"><title>2022-05-09 3.57 km</title></rect><rect fill="#EEEEEE" height="3.0" rx="0.6" ry="0.6" width="3.0" x="6.0" y="116.0"><title>2022-05-10</title></rect><rect fill="#EEEEEE" height="3.0" rx="0.6" ry="0.6" width="3.0" x="6.0" y="120.0"><title>2022-05-11</title></rect><rect fill="#EEEEEE" height="3.0" rx="0.6" ry="0.6" width="3.0" x="6.0" y="124.0"><title>2022-05-12</title></rect><rect fill="#ffc300" height="3.0" rx="0.6" ry="0.6" width="3.0" x="6.0" y="128.0"><title>2022-05-13 6.78 km</title></rect><rect fill="#EEEEEE" height="3.0" rx="0.6" ry="0.6" width="3.0" x="6.0" y="132.0"><title>2022-05-14</title></rect><rect fill="red" height="3.0" rx="0.6" ry="0.6" width="3.0" x="6.0" y="136.0"><title>2022-05-15 10.00 km</title></rect><rect fill="#EEEEEE" height="3.0" rx="0.6" ry="0.6" width="3.0" x="10.0" y="112.0"><title>2022-05-16</title></rect><rect fill="#EEEEEE" height="3.0" rx="0.6" ry="0.6" width="3.0" x="10.0" y="116.0"><title>2022-05-17</title></rect><rect fill="#EEEEEE" height="3.0" rx="0.6" ry="0.6" width="3.0" x="10.0" y="120.0"><title>2022-05-18</title></rect><rect fill="#EEEEEE" height="3.0" rx="0.6" ry="0.6" width="3.0" x="10.0" y="124.0"><title>2022-05-19</title></rect><rect fill="#4dd2ff" height="3.0" rx="0.6" ry="0.6" width="3.0" x="10.0" y="128.0"><title>2022-05-20 4.00 km</title></rect><rect fill="#ffd200" height="3.0" rx="0.6" ry="0.6" width="3.0" x="10.0" y="132.0"><title>2022-05-21 5.21 km</title></rect><rect fill="#ffd200" height="3.0" rx="0.6" ry="0.6" width="3.0" x="10.0" y="136.0"><title>2022-05-22 5.23 km</title></rect><rect fill="#EEEEEE" height="3.0" rx="0.6" ry="0.6" width="3.0" x="14.0" y="112.0"><title>2022-05-23</title></rect><rect fill="#EEEEEE" height="3.0" rx="0.6" ry="0.6" width="3.0" x="14.0" y="116.0"><title>2022-05-24</title></rect><rect fill="#EEEEEE" height="3.0" rx="0.6" ry="0.6" width="3.0" x="14.0" y="120.0"><title>2022-05-25</title></rect><rect fill="#EEEEEE" height="3.0" rx="0.6" ry="0.6" width="3.0" x="14.0" y="124.0"><title>2022-05-26</title></rect><rect fill="#EEEEEE" height="3.0" rx="0.6" ry="0.6" width="3.0" x="14.0" y="128.0"><title>2022-05-27</title></rect><rect fill="#ffc100" height="3.0" rx="0.6" ry="0.6" width="3.0" x="14.0" y="132.0"><title>2022-05-28 7.01 km</title></rect><rect fill="#ffc200" height="3.0" rx="0.6" ry="0.6" width="3.0" x="14.0" y="136.0"><title>2022-05-29 6.92 km</title></rect><rect fill="#ffab00" height="3.0" rx="0.6" ry="0.6" width="3.0" x="18.0" y="112.0"><title>2022-05-30 9.25 km</title></rect><rect fill="#EEEEEE" height="3.0" rx="0.6" ry="0.6" width="3.0" x="18.0" y="116.0"><title>2022-05-31</title></rect><text fill="#5A5A5A" style="font-size:8px; font-family:Arial; font-weight:bold;" x="28.0" y="105.0">6 月</text><rect fill="#ffcb00" height="3.0" rx="0.6" ry="0.6" width="3.0" x="28.0" y="120.0"><title>2022-06-01 6.01 km</title></rect><rect fill="red" height="3.0" rx="0.6" ry="0.6" width="3.0" x="28.0" y="124.0"><title>2022-06-02 10.02 km</title></rect><rect fill="#EEEEEE" height="3.0" rx="0.6" ry="0.6" width="3.0" x="28.0" y="128.0"><title>2022-06-03</title></rect><rect fill="red" height="3.0" rx="0.6" ry="0.6" width="3.0" x="28.0" y="132.0"><title>2022-06-04 12.35 km</title></rect><rect fill="#EEEEEE" height="3.0" rx="0.6" ry="0.6" width="3.0" x="28.0" y="136.0"><title>2022-06-05</title></rect><rect fill="red" height="3.0" rx="0.6" ry="0.6" width="3.0" x="32.0" y="112.0"><title>2022-06-06 11.23 km</title></rect><rect fill="#4dd2ff" height="3.0" rx="0.6" ry="0.6" width="3.0" x="32.0" y="116.0"><title>2022-06-07 4.98 km</title></rect><rect fill="red" height="3.0" rx="0.6" ry="0.6" width="3.0" x="32.0" y="120.0"><title>2022-06-08 10.01 km</title></rect><rect fill="#ffd400" height="3.0" rx="0.6" ry="0.6" width="3.0" x="32.0" y="124.0"><title>2022-06-09 5.03 km</title></rect><rect fill="#EEEEEE" height="3.0" rx="0.6" ry="0.6" width="3.0" x="32.0" y="128.0"><title>2022-06-10</title></rect><rect fill="#ffc100" height="3.0" rx="0.6" ry="0.6" width="3.0" x="32.0" y="132.0"><title>2022-06-11 7.01 km</title></rect><rect fill="#4dd2ff" height="3.0" rx="0.6" ry="0.6" width="3.0" x="32.0" y="136.0"><title>2022-06-12 2.06 km</title></rect><rect fill="#ffc100" height="3.0" rx="0.6" ry="0.6" width="3.0" x="36.0" y="112.0"><title>2022-06-13 6.97 km</title></rect><rect fill="#ffc100" height="3.0" rx="0.6" ry="0.6" width="3.0" x="36.0" y="116.0"><title>2022-06-14 7.01 km</title></rect><rect fill="#ffcb00" height="3.0" rx="0.6" ry="0.6" width="3.0" x="36.0" y="120.0"><title>2022-06-15 5.97 km</title></rect><rect fill="#EEEEEE" height="3.0" rx="0.6" ry="0.6" width="3.0" x="36.0" y="124.0"><title>2022-06-16</title></rect><rect fill="#ffc600" height="3.0" rx="0.6" ry="0.6" width="3.0" x="36.0" y="128.0"><title>2022-06-17 6.48 km</title></rect><rect fill="red" height="3.0" rx="0.6" ry="0.6" width="3.0" x="36.0" y="132.0"><title>2022-06-18 15.48 km</title></rect><rect fill="#EEEEEE" height="3.0" rx="0.6" ry="0.6" width="3.0" x="36.0" y="136.0"><title>2022-06-19</title></rect><rect fill="#ffc800" height="3.0" rx="0.6" ry="0.6" width="3.0" x="40.0" y="112.0"><title>2022-06-20 6.27 km</title></rect><rect fill="#ffcf00" height="3.0" rx="0.6" ry="0.6" width="3.0" x="40.0" y="116.0"><title>2022-06-21 5.56 km</title></rect><rect fill="#EEEEEE" height="3.0" rx="0.6" ry="0.6" width="3.0" x="40.0" y="120.0"><title>2022-06-22</title></rect><rect fill="#4dd2ff" height="3.0" rx="0.6" ry="0.6" width="3.0" x="40.0" y="124.0"><title>2022-06-23 4.30 km</title></rect><rect fill="#EEEEEE" height="3.0" rx="0.6" ry="0.6" width="3.0" x="40.0" y="128.0"><title>2022-06-24</title></rect><rect fill="#EEEEEE" height="3.0" rx="0.6" ry="0.6" width="3.0" x="40.0" y="132.0"><title>2022-06-25</title></rect><rect fill="#ffd200" height="3.0" rx="0.6" ry="0.6" width="3.0" x="40.0" y="136.0"><title>2022-06-26 5.26 km</title></rect><rect fill="#ffb500" height="3.0" rx="0.6" ry="0.6" width="3.0" x="44.0" y="112.0"><title>2022-06-27 8.20 km</title></rect><rect fill="#ffd400" height="3.0" rx="0.6" ry="0.6" width="3.0" x="44.0" y="116.0"><title>2022-06-28 5.07 km</title></rect><rect fill="#ffce00" height="3.0" rx="0.6" ry="0.6" width="3.0" x="44.0" y="120.0"><title>2022-06-29 5.67 km</title></rect><rect fill="#4dd2ff" height="3.0" rx="0.6" ry="0.6" width="3.0" x="44.0" y="124.0"><title>2022-06-30 2.34 km</title></rect><text fill="#5A5A5A" style="font-size:8px; font-family:Arial; font-weight:bold;" x="0.0" y="150.0">7 月</text><rect fill="#ffd400" height="3.0" rx="0.6" ry="0.6" width="3.0" x="0.0" y="173.0"><title>2022-07-01 5.00 km</title></rect><rect fill="red" height="3.0" rx="0.6" ry="0.6" width="3.0" x="0.0" y="177.0"><title>2022-07-02 10.12 km</title></rect><rect fill="#EEEEEE" height="3.0" rx="0.6" ry="0.6" width="3.0" x="0.0" y="181.0"><title>2022-07-03</title></rect><rect fill="#4dd2ff" height="3.0" rx="0.6" ry="0.6" width="3.0" x="0.0" y="157.0"><title>2022-07-04 3.14 km</title></rect><rect fill="#ffd300" height="3.0" rx="0.6" ry="0.6" width="3.0" x="0.0" y="161.0"><title>2022-07-05 5.12 km</title></rect><rect fill="#EEEEEE" height="3.0" rx="0.6" ry="0.6" width="3.0" x="0.0" y="165.0"><title>2022-07-06</title></rect><rect fill="#4dd2ff" height="3.0" rx="0.6" ry="0.6" width="3.0" x="0.0" y="169.0"><title>2022-07-07 3.68 km</title></rect><rect fill="#ffd300" height="3.0" rx="0.6" ry="0.6" width="3.0" x="0.0" y="173.0"><title>2022-07-08 5.12 km</title></rect><rect fill="#4dd2ff" height="3.0" rx="0.6" ry="0.6" width="3.0" x="0.0" y="177.0"><title>2022-07-09 4.19 km</title></rect><rect fill="#EEEEEE" height="3.0" rx="0.6" ry="0.6" width="3.0" x="0.0" y="181.0"><title>2022-07-10</title></rect><rect fill="#EEEEEE" height="3.0" rx="0.6" ry="0.6" width="3.0" x="0.0" y="157.0"><title>2022-07-11</title></rect><rect fill="#EEEEEE" height="3.0" rx="0.6" ry="0.6" width="3.0" x="0.0" y="161.0"><title>2022-07-12</title></rect><rect fill="#EEEEEE" height="3.0" rx="0.6" ry="0.6" width="3.0" x="0.0" y="165.0"><title>2022-07-13</title></rect><rect fill="red" height="3.0" rx="0.6" ry="0.6" width="3.0" x="0.0" y="169.0"><title>2022-07-14 19.16 km</title></rect><rect fill="#4dd2ff" height="3.0" rx="0.6" ry="0.6" width="3.0" x="0.0" y="173.0"><title>2022-07-15 0.61 km</title></rect><rect fill="red" height="3.0" rx="0.6" ry="0.6" width="3.0" x="0.0" y="177.0"><title>2022-07-16 26.89 km</title></rect><rect fill="red" height="3.0" rx="0.6" ry="0.6" width="3.0" x="0.0" y="181.0"><title>2022-07-17 10.37 km</title></rect><rect fill="#EEEEEE" height="3.0" rx="0.6" ry="0.6" width="3.0" x="0.0" y="157.0"><title>2022-07-18</title></rect><rect fill="red" height="3.0" rx="0.6" ry="0.6" width="3.0" x="0.0" y="161.0"><title>2022-07-19 10.01 km</title></rect><rect fill="#EEEEEE" height="3.0" rx="0.6" ry="0.6" width="3.0" x="0.0" y="165.0"><title>2022-07-20</title></rect><rect fill="#4dd2ff" height="3.0" rx="0.6" ry="0.6" width="3.0" x="0.0" y="169.0"><title>2022-07-21 2.87 km</title></rect><rect fill="#4dd2ff" height="3.0" rx="0.6" ry="0.6" width="3.0" x="0.0" y="173.0"><title>2022-07-22 3.20 km</title></rect><rect fill="#4dd2ff" height="3.0" rx="0.6" ry="0.6" width="3.0" x="0.0" y="177.0"><title>2022-07-23 4.25 km</title></rect><rect fill="#4dd2ff" height="3.0" rx="0.6" ry="0.6" width="3.0" x="0.0" y="181.0"><title>2022-07-24 4.61 km</title></rect><rect fill="#EEEEEE" height="3.0" rx="0.6" ry="0.6" width="3.0" x="0.0" y="157.0"><title>2022-07-25</title></rect><rect fill="#4dd2ff" height="3.0" rx="0.6" ry="0.6" width="3.0" x="0.0" y="161.0"><title>2022-07-26 1.49 km</title></rect><rect fill="#ffb800" height="3.0" rx="0.6" ry="0.6" width="3.0" x="0.0" y="165.0"><title>2022-07-27 7.89 km</title></rect><rect fill="#EEEEEE" height="3.0" rx="0.6" ry="0.6" width="3.0" x="0.0" y="169.0"><title>2022-07-28</title></rect><rect fill="#4dd2ff" height="3.0" rx="0.6" ry="0.6" width="3.0" x="0.0" y="173.0"><title>2022-07-29 3.09 km</title></rect><rect fill="#EEEEEE" height="3.0" rx="0.6" ry="0.6" width="3.0" x="0.0" y="177.0"><title>2022-07-30</title></rect><rect fill="#EEEEEE" height="3.0" rx="0.6" ry="0.6" width="3.0" x="0.0" y="181.0"><title>2022-07-31</title></rect><text fill="#5A5A5A" style="font-size:8px; font-family:Arial; font-weight:bold;" x="0.0" y="150.0">8 月</text><rect fill="#EEEEEE" height="3.0" rx="0.6" ry="0.6" width="3.0" x="0.0" y="157.0"><title>2022-08-01</title></rect><rect fill="#EEEEEE" height="3.0" rx="0.6" ry="0.6" width="3.0" x="0.0" y="161.0"><title>2022-08-02</title></rect><rect fill="#4dd2ff" height="3.0" rx="0.6" ry="0.6" width="3.0" x="0.0" y="165.0"><title>2022-08-03 3.81 km</title></rect><rect fill="#4dd2ff" height="3.0" rx="0.6" ry="0.6" width="3.0" x="0.0" y="169.0"><title>2022-08-04 2.76 km</title></rect><rect fill="#4dd2ff" height="3.0" rx="0.6" ry="0.6" width="3.0" x="0.0" y="173.0"><title>2022-08-05 1.31 km</title></rect><rect fill="#EEEEEE" height="3.0" rx="0.6" ry="0.6" width="3.0" x="0.0" y="177.0"><title>2022-08-06</title></rect><rect fill="#ffd300" height="3.0" rx="0.6" ry="0.6" width="3.0" x="0.0" y="181.0"><title>2022-08-07 5.12 km</title></rect><rect fill="#4dd2ff" height="3.0" rx="0.6" ry="0.6" width="3.0" x="0.0" y="157.0"><title>2022-08-08 4.56 km</title></rect><rect fill="#4dd2ff" height="3.0" rx="0.6" ry="0.6" width="3.0" x="0.0" y="161.0"><title>2022-08-09 2.50 km</title></rect><rect fill="#EEEEEE" height="3.0" rx="0.6" ry="0.6" width="3.0" x="0.0" y="165.0"><title>2022-08-10</title></rect><rect fill="#EEEEEE" height="3.0" rx="0.6" ry="0.6" width="3.0" x="0.0" y="169.0"><title>2022-08-11</title></rect><rect fill="#EEEEEE" height="3.0" rx="0.6" ry="0.6" width="3.0" x="0.0" y="173.0"><title>2022-08-12</title></rect><rect fill="#EEEEEE" height="3.0" rx="0.6" ry="0.6" width="3.0" x="0.0" y="177.0"><title>2022-08-13</title></rect><rect fill="#EEEEEE" height="3.0" rx="0.6" ry="0.6" width="3.0" x="0.0" y="181.0"><title>2022-08-14</title></rect><rect fill="#EEEEEE" height="3.0" rx="0.6" ry="0.6" width="3.0" x="0.0" y="157.0"><title>2022-08-15</title></rect><rect fill="#EEEEEE" height="3.0" rx="0.6" ry="0.6" width="3.0" x="0.0" y="161.0"><title>2022-08-16</title></rect><rect fill="#ffc400" height="3.0" rx="0.6" ry="0.6" width="3.0" x="0.0" y="165.0"><title>2022-08-17 6.68 km</title></rect><rect fill="#EEEEEE" height="3.0" rx="0.6" ry="0.6" width="3.0" x="0.0" y="169.0"><title>2022-08-18</title></rect><rect fill="#EEEEEE" height="3.0" rx="0.6" ry="0.6" width="3.0" x="0.0" y="173.0"><title>2022-08-19</title></rect><rect fill="#ffcc00" height="3.0" rx="0.6" ry="0.6" width="3.0" x="0.0" y="177.0"><title>2022-08-20 5.86 km</title></rect><rect fill="#EEEEEE" height="3.0" rx="0.6" ry="0.6" width="3.0" x="0.0" y="181.0"><title>2022-08-21</title></rect><rect fill="#EEEEEE" height="3.0" rx="0.6" ry="0.6" width="3.0" x="0.0" y="157.0"><title>2022-08-22</title></rect><rect fill="#EEEEEE" height="3.0" rx="0.6" ry="0.6" width="3.0" x="0.0" y="161.0"><title>2022-08-23</title></rect><rect fill="#EEEEEE" height="3.0" rx="0.6" ry="0.6" width="3.0" x="0.0" y="165.0"><title>2022-08-24</title></rect><rect fill="#EEEEEE" height="3.0" rx="0.6" ry="0.6" width="3.0" x="0.0" y="169.0"><title>2022-08-25</title></rect><rect fill="#EEEEEE" height="3.0" rx="0.6" ry="0.6" width="3.0" x="0.0" y="173.0"><title>2022-08-26</title></rect><rect fill="#EEEEEE" height="3.0" rx="0.6" ry="0.6" width="3.0" x="0.0" y="177.0"><title>2022-08-27</title></rect><rect fill="#EEEEEE" height="3.0" rx="0.6" ry="0.6" width="3.0" x="0.0" y="181.0"><title>2022-08-28</title></rect><rect fill="#EEEEEE" height="3.0" rx="0.6" ry="0.6" width="3.0" x="0.0" y="157.0"><title>2022-08-29</title></rect><rect fill="#EEEEEE" height="3.0" rx="0.6" ry="0.6" width="3.0" x="0.0" y="161.0"><title>2022-08-30</title></rect><rect fill="#4dd2ff" height="3.0" rx="0.6" ry="0.6" width="3.0" x="0.0" y="165.0"><title>2022-08-31 3.56 km</title></rect><text fill="#5A5A5A" style="font-size:8px; font-family:Arial; font-weight:bold;" x="0.0" y="150.0">9 月</text><rect fill="#EEEEEE" height="3.0" rx="0.6" ry="0.6" width="3.0" x="0.0" y="169.0"><title>2022-09-01</title></rect><rect fill="#EEEEEE" height="3.0" rx="0.6" ry="0.6" width="3.0" x="0.0" y="173.0"><title>2022-09-02</title></rect><rect fill="#EEEEEE" height="3.0" rx="0.6" ry="0.6" width="3.0" x="0.0" y="177.0"><title>2022-09-03</title></rect><rect fill="#EEEEEE" height="3.0" rx="0.6" ry="0.6" width="3.0" x="0.0" y="181.0"><title>2022-09-04</title></rect><rect fill="#EEEEEE" height="3.0" rx="0.6" ry="0.6" width="3.0" x="0.0" y="157.0"><title>2022-09-05</title></rect><rect fill="#ffc300" height="3.0" rx="0.6" ry="0.6" width="3.0" x="0.0" y="161.0"><title>2022-09-06 6.78 km</title></rect><rect fill="#4dd2ff" height="3.0" rx="0.6" ry="0.6" width="3.0" x="0.0" y="165.0"><title>2022-09-07 0.80 km</title></rect><rect fill="#ffc800" height="3.0" rx="0.6" ry="0.6" width="3.0" x="0.0" y="169.0"><title>2022-09-08 6.31 km</title></rect><rect fill="#4dd2ff" height="3.0" rx="0.6" ry="0.6" width="3.0" x="0.0" y="173.0"><title>2022-09-09 1.28 km</title></rect><rect fill="#EEEEEE" height="3.0" rx="0.6" ry="0.6" width="3.0" x="0.0" y="177.0"><title>2022-09-10</title></rect><rect fill="#4dd2ff" height="3.0" rx="0.6" ry="0.6" width="3.0" x="0.0" y="181.0"><title>2022-09-11 1.38 km</title></rect><rect fill="#4dd2ff" height="3.0" rx="0.6" ry="0.6" width="3.0" x="0.0" y="157.0"><title>2022-09-12 1.38 km</title></rect><rect fill="#4dd2ff" height="3.0" rx="0.6" ry="0.6" width="3.0" x="0.0" y="161.0"><title>2022-09-13 3.70 km</title></rect><rect fill="#4dd2ff" height="3.0" rx="0.6" ry="0.6" width="3.0" x="0.0" y="165.0"><title>2022-09-14 2.02 km</title></rect><rect fill="#4dd2ff" height="3.0" rx="0.6" ry="0.6" width="3.0" x="0.0" y="169.0"><title>2022-09-15 2.07 km</title></rect><rect fill="#EEEEEE" height="3.0" rx="0.6" ry="0.6" width="3.0" x="0.0" y="173.0"><title>2022-09-16</title></rect><rect fill="#EEEEEE" height="3.0" rx="0.6" ry="0.6" width="3.0" x="0.0" y="177.0"><title>2022-09-17</title></rect><rect fill="#EEEEEE" height="3.0" rx="0.6" ry="0.6" width="3.0" x="0.0" y="181.0"><title>2022-09-18</title></rect><rect fill="#EEEEEE" height="3.0" rx="0.6" ry="0.6" width="3.0" x="0.0" y="157.0"><title>2022-09-19</title></rect><rect fill="#EEEEEE" height="3.0" rx="0.6" ry="0.6" width="3.0" x="0.0" y="161.0"><title>2022-09-20</title></rect><rect fill="#EEEEEE" height="3.0" rx="0.6" ry="0.6" width="3.0" x="0.0" y="165.0"><title>2022-09-21</title></rect><rect fill="#EEEEEE" height="3.0" rx="0.6" ry="0.6" width="3.0" x="0.0" y="169.0"><title>2022-09-22</title></rect><rect fill="#EEEEEE" height="3.0" rx="0.6" ry="0.6" width="3.0" x="0.0" y="173.0"><title>2022-09-23</title></rect><rect fill="#4dd2ff" height="3.0" rx="0.6" ry="0.6" width="3.0" x="0.0" y="177.0"><title>2022-09-24 3.01 km</title></rect><rect fill="#ffd100" height="3.0" rx="0.6" ry="0.6" width="3.0" x="0.0" y="181.0"><title>2022-09-25 5.31 km</title></rect><rect fill="#EEEEEE" height="3.0" rx="0.6" ry="0.6" width="3.0" x="0.0" y="157.0"><title>2022-09-26</title></rect><rect fill="#EEEEEE" height="3.0" rx="0.6" ry="0.6" width="3.0" x="0.0" y="161.0"><title>2022-09-27</title></rect><rect fill="#4dd2ff" height="3.0" rx="0.6" ry="0.6" width="3.0" x="0.0" y="165.0"><title>2022-09-28 3.70 km</title></rect><rect fill="#4dd2ff" height="3.0" rx="0.6" ry="0.6" width="3.0" x="0.0" y="169.0"><title>2022-09-29 2.25 km</title></rect><rect fill="#4dd2ff" height="3.0" rx="0.6" ry="0.6" width="3.0" x="0.0" y="173.0"><title>2022-09-30 2.29 km</title></rect><text fill="#5A5A5A" style="font-size:8px; font-family:Arial; font-weight:bold;" x="0.0" y="150.0">10 月</text><rect fill="#EEEEEE" height="3.0" rx="0.6" ry="0.6" width="3.0" x="0.0" y="177.0"><title>2022-10-01</title></rect><rect fill="#EEEEEE" height="3.0" rx="0.6" ry="0.6" width="3.0" x="0.0" y="181.0"><title>2022-10-02</title></rect><rect fill="#EEEEEE" height="3.0" rx="0.6" ry="0.6" width="3.0" x="0.0" y="157.0"><title>2022-10-03</title></rect><rect fill="#4dd2ff" height="3.0" rx="0.6" ry="0.6" width="3.0" x="0.0" y="161.0"><title>2022-10-04 3.23 km</title></rect><rect fill="#EEEEEE" height="3.0" rx="0.6" ry="0.6" width="3.0" x="0.0" y="165.0"><title>2022-10-05</title></rect><rect fill="#ffc100" height="3.0" rx="0.6" ry="0.6" width="3.0" x="0.0" y="169.0"><title>2022-10-06 7.00 km</title></rect><rect fill="#4dd2ff" height="3.0" rx="0.6" ry="0.6" width="3.0" x="0.0" y="173.0"><title>2022-10-07 2.24 km</title></rect><rect fill="#4dd2ff" height="3.0" rx="0.6" ry="0.6" width="3.0" x="0.0" y="177.0"><title>2022-10-08 1.47 km</title></rect><rect fill="#4dd2ff" height="3.0" rx="0.6" ry="0.6" width="3.0" x="0.0" y="181.0"><title>2022-10-09 2.48 km</title></rect><rect fill="#EEEEEE" height="3.0" rx="0.6" ry="0.6" width="3.0" x="0.0" y="157.0"><title>2022-10-10</title></rect><rect fill="#4dd2ff" height="3.0" rx="0.6" ry="0.6" width="3.0" x="0.0" y="161.0"><title>2022-10-11 3.18 km</title></rect><rect fill="#EEEEEE" height="3.0" rx="0.6" ry="0.6" width="3.0" x="0.0" y="165.0"><title>2022-10-12</title></rect><rect fill="#EEEEEE" height="3.0" rx="0.6" ry="0.6" width="3.0" x="0.0" y="169.0"><title>2022-10-13</title></rect><rect fill="#4dd2ff" height="3.0" rx="0.6" ry="0.6" width="3.0" x="0.0" y="173.0"><title>2022-10-14 2.39 km</title></rect><rect fill="#EEEEEE" height="3.0" rx="0.6" ry="0.6" width="3.0" x="0.0" y="177.0"><title>2022-10-15</title></rect><rect fill="#ffd200" height="3.0" rx="0.6" ry="0.6" width="3.0" x="0.0" y="181.0"><title>2022-10-16 5.26 km</title></rect><rect fill="#EEEEEE" height="3.0" rx="0.6" ry="0.6" width="3.0" x="0.0" y="157.0"><title>2022-10-17</title></rect><rect fill="#ffc300" height="3.0" rx="0.6" ry="0.6" width="3.0" x="0.0" y="161.0"><title>2022-10-18 6.79 km</title></rect><rect fill="#ffd400" height="3.0" rx="0.6" ry="0.6" width="3.0" x="0.0" y="165.0"><title>2022-10-19 5.00 km</title></rect><rect fill="#EEEEEE" height="3.0" rx="0.6" ry="0.6" width="3.0" x="0.0" y="169.0"><title>2022-10-20</title></rect><rect fill="#EEEEEE" height="3.0" rx="0.6" ry="0.6" width="3.0" x="0.0" y="173.0"><title>2022-10-21</title></rect><rect fill="#4dd2ff" height="3.0" rx="0.6" ry="0.6" width="3.0" x="0.0" y="177.0"><title>2022-10-22 2.51 km</title></rect><rect fill="red" height="3.0" rx="0.6" ry="0.6" width="3.0" x="0.0" y="181.0"><title>2022-10-23 10.23 km</title></rect><rect fill="#EEEEEE" height="3.0" rx="0.6" ry="0.6" width="3.0" x="0.0" y="157.0"><title>2022-10-24</title></rect><rect fill="#EEEEEE" height="3.0" rx="0.6" ry="0.6" width="3.0" x="0.0" y="161.0"><title>2022-10-25</title></rect><rect fill="#EEEEEE" height="3.0" rx="0.6" ry="0.6" width="3.0" x="0.0" y="165.0"><title>2022-10-26</title></rect><rect fill="#EEEEEE" height="3.0" rx="0.6" ry="0.6" width="3.0" x="0.0" y="169.0"><title>2022-10-27</title></rect><rect fill="#ffd400" height="3.0" rx="0.6" ry="0.6" width="3.0" x="0.0" y="173.0"><title>2022-10-28 5.01 km</title></rect><rect fill="#ffd400" height="3.0" rx="0.6" ry="0.6" width="3.0" x="0.0" y="177.0"><title>2022-10-29 5.04 km</title></rect><rect fill="#ffcf00" height="3.0" rx="0.6" ry="0.6" width="3.0" x="0.0" y="181.0"><title>2022-10-30 5.50 km</title></rect><rect fill="#4dd2ff" height="3.0" rx="0.6" ry="0.6" width="3.0" x="0.0" y="157.0"><title>2022-10-31 2.01 km</title></rect><text fill="#5A5A5A" style="font-size:8px; font-family:Arial; font-weight:bold;" x="0.0" y="150.0">11 月</text><rect fill="#4dd2ff" height="3.0" rx="0.6" ry="0.6" width="3.0" x="0.0" y="161.0"><title>2022-11-01 1.10 km</title></rect><rect fill="#ffd100" height="3.0" rx="0.6" ry="0.6" width="3.0" x="0.0" y="165.0"><title>2022-11-02 5.31 km</title></rect><rect fill="#4dd2ff" height="3.0" rx="0.6" ry="0.6" width="3.0" x="0.0" y="169.0"><title>2022-11-03 2.00 km</title></rect><rect fill="#EEEEEE" height="3.0" rx="0.6" ry="0.6" width="3.0" x="0.0" y="173.0"><title>2022-11-04</title></rect><rect fill="#4dd2ff" height="3.0" rx="0.6" ry="0.6" width="3.0" x="0.0" y="177.0"><title>2022-11-05 1.95 km</title></rect><rect fill="#EEEEEE" height="3.0" rx="0.6" ry="0.6" width="3.0" x="0.0" y="181.0"><title>2022-11-06</title></rect><rect fill="#ffd100" height="3.0" rx="0.6" ry="0.6" width="3.0" x="2.0" y="157.0"><title>2022-11-07 5.35 km</title></rect><rect fill="#EEEEEE" height="3.0" rx="0.6" ry="0.6" width="3.0" x="2.0" y="161.0"><title>2022-11-08</title></rect><rect fill="#ffd400" height="3.0" rx="0.6" ry="0.6" width="3.0" x="2.0" y="165.0"><title>2022-11-09 5.01 km</title></rect><rect fill="#EEEEEE" height="3.0" rx="0.6" ry="0.6" width="3.0" x="2.0" y="169.0"><title>2022-11-10</title></rect><rect fill="#EEEEEE" height="3.0" rx="0.6" ry="0.6" width="3.0" x="2.0" y="173.0"><title>2022-11-11</title></rect><rect fill="#EEEEEE" height="3.0" rx="0.6" ry="0.6" width="3.0" x="2.0" y="177.0"><title>2022-11-12</title></rect><rect fill="#ffc300" height="3.0" rx="0.6" ry="0.6" width="3.0" x="2.0" y="181.0"><title>2022-11-13 6.78 km</title></rect><rect fill="#EEEEEE" height="3.0" rx="0.6" ry="0.6" width="3.0" x="6.0" y="157.0"><title>2022-11-14</title></rect><rect fill="#ffbd00" height="3.0" rx="0.6" ry="0.6" width="3.0" x="6.0" y="161.0"><title>2022-11-15 7.37 km</title></rect><rect fill="#EEEEEE" height="3.0" rx="0.6" ry="0.6" width="3.0" x="6.0" y="165.0"><title>2022-11-16</title></rect><rect fill="#EEEEEE" height="3.0" rx="0.6" ry="0.6" width="3.0" x="6.0" y="169.0"><title>2022-11-17</title></rect><rect fill="#EEEEEE" height="3.0" rx="0.6" ry="0.6" width="3.0" x="6.0" y="173.0"><title>2022-11-18</title></rect><rect fill="#EEEEEE" height="3.0" rx="0.6" ry="0.6" width="3.0" x="6.0" y="177.0"><title>2022-11-19</title></rect><rect fill="#EEEEEE" height="3.0" rx="0.6" ry="0.6" width="3.0" x="6.0" y="181.0"><title>2022-11-20</title></rect><rect fill="#EEEEEE" height="3.0" rx="0.6" ry="0.6" width="3.0" x="10.0" y="157.0"><title>2022-11-21</title></rect><rect fill="#EEEEEE" height="3.0" rx="0.6" ry="0.6" width="3.0" x="10.0" y="161.0"><title>2022-11-22</title></rect><rect fill="#EEEEEE" height="3.0" rx="0.6" ry="0.6" width="3.0" x="10.0" y="165.0"><title>2022-11-23</title></rect><rect fill="#EEEEEE" height="3.0" rx="0.6" ry="0.6" width="3.0" x="10.0" y="169.0"><title>2022-11-24</title></rect><rect fill="#EEEEEE" height="3.0" rx="0.6" ry="0.6" width="3.0" x="10.0" y="173.0"><title>2022-11-25</title></rect><rect fill="#EEEEEE" height="3.0" rx="0.6" ry="0.6" width="3.0" x="10.0" y="177.0"><title>2022-11-26</title></rect><rect fill="#EEEEEE" height="3.0" rx="0.6" ry="0.6" width="3.0" x="10.0" y="181.0"><title>2022-11-27</title></rect><rect fill="#EEEEEE" height="3.0" rx="0.6" ry="0.6" width="3.0" x="14.0" y="157.0"><title>2022-11-28</title></rect><rect fill="#EEEEEE" height="3.0" rx="0.6" ry="0.6" width="3.0" x="14.0" y="161.0"><title>2022-11-29</title></rect><rect fill="#EEEEEE" height="3.0" rx="0.6" ry="0.6" width="3.0" x="14.0" y="165.0"><title>2022-11-30</title></rect><text fill="#5A5A5A" style="font-size:8px; font-family:Arial; font-weight:bold;" x="28.0" y="150.0">12 月</text><rect fill="#EEEEEE" height="3.0" rx="0.6" ry="0.6" width="3.0" x="28.0" y="169.0"><title>2022-12-01</title></rect><rect fill="#EEEEEE" height="3.0" rx="0.6" ry="0.6" width="3.0" x="28.0" y="173.0"><title>2022-12-02</title></rect><rect fill="#EEEEEE" height="3.0" rx="0.6" ry="0.6" width="3.0" x="28.0" y="177.0"><title>2022-12-03</title></rect><rect fill="#EEEEEE" height="3.0" rx="0.6" ry="0.6" width="3.0" x="28.0" y="181.0"><title>2022-12-04</title></rect><rect fill="#ffc100" height="3.0" rx="0.6" ry="0.6" width="3.0" x="32.0" y="157.0"><title>2022-12-05 6.97 km</title></rect><rect fill="#4dd2ff" height="3.0" rx="0.6" ry="0.6" width="3.0" x="32.0" y="161.0"><title>2022-12-06 1.26 km</title></rect><rect fill="#EEEEEE" height="3.0" rx="0.6" ry="0.6" width="3.0" x="32.0" y="165.0"><title>2022-12-07</title></rect><rect fill="#4dd2ff" height="3.0" rx="0.6" ry="0.6" width="3.0" x="32.0" y="169.0"><title>2022-12-08 3.13 km</title></rect><rect fill="#ffd300" height="3.0" rx="0.6" ry="0.6" width="3.0" x="32.0" y="173.0"><title>2022-12-09 5.13 km</title></rect><rect fill="#EEEEEE" height="3.0" rx="0.6" ry="0.6" width="3.0" x="32.0" y="177.0"><title>2022-12-10</title></rect><rect fill="#EEEEEE" height="3.0" rx="0.6" ry="0.6" width="3.0" x="32.0" y="181.0"><title>2022-12-11</title></rect><rect fill="#EEEEEE" height="3.0" rx="0.6" ry="0.6" width="3.0" x="36.0" y="157.0"><title>2022-12-12</title></rect><rect fill="#EEEEEE" height="3.0" rx="0.6" ry="0.6" width="3.0" x="36.0" y="161.0"><title>2022-12-13</title></rect><rect fill="#EEEEEE" height="3.0" rx="0.6" ry="0.6" width="3.0" x="36.0" y="165.0"><title>2022-12-14</title></rect><rect fill="#EEEEEE" height="3.0" rx="0.6" ry="0.6" width="3.0" x="36.0" y="169.0"><title>2022-12-15</title></rect><rect fill="#EEEEEE" height="3.0" rx="0.6" ry="0.6" width="3.0" x="36.0" y="173.0"><title>2022-12-16</title></rect><rect fill="#EEEEEE" height="3.0" rx="0.6" ry="0.6" width="3.0" x="36.0" y="177.0"><title>2022-12-17</title></rect><rect fill="#EEEEEE" height="3.0" rx="0.6" ry="0.6" width="3.0" x="36.0" y="181.0"><title>2022-12-18</title></rect><rect fill="#EEEEEE" height="3.0" rx="0.6" ry="0.6" width="3.0" x="40.0" y="157.0"><title>2022-12-19</title></rect><rect fill="#EEEEEE" height="3.0" rx="0.6" ry="0.6" width="3.0" x="40.0" y="161.0"><title>2022-12-20</title></rect><rect fill="#EEEEEE" height="3.0" rx="0.6" ry="0.6" width="3.0" x="40.0" y="165.0"><title>2022-12-21</title></rect><rect fill="#EEEEEE" height="3.0" rx="0.6" ry="0.6" width="3.0" x="40.0" y="169.0"><title>2022-12-22</title></rect><rect fill="#EEEEEE" height="3.0" rx="0.6" ry="0.6" width="3.0" x="40.0" y="173.0"><title>2022-12-23</title></rect><rect fill="#EEEEEE" height="3.0" rx="0.6" ry="0.6" width="3.0" x="40.0" y="177.0"><title>2022-12-24</title></rect><rect fill="#EEEEEE" height="3.0" rx="0.6" ry="0.6" width="3.0" x="40.0" y="181.0"><title>2022-12-25</title></rect><rect fill="#EEEEEE" height="3.0" rx="0.6" ry="0.6" width="3.0" x="44.0" y="157.0"><title>2022-12-26</title></rect><rect fill="#EEEEEE" height="3.0" rx="0.6" ry="0.6" width="3.0" x="44.0" y="161.0"><title>2022-12-27</title></rect><rect fill="#EEEEEE" height="3.0" rx="0.6" ry="0.6" width="3.0" x="44.0" y="165.0"><title>2022-12-28</title></rect><rect fill="#EEEEEE" height="3.0" rx="0.6" ry="0.6" width="3.0" x="44.0" y="169.0"><title>2022-12-29</title></rect><rect fill="#EEEEEE" height="3.0" rx="0.6" ry="0.6" width="3.0" x="44.0" y="173.0"><title>2022-12-30</title></rect><rect fill="#EEEEEE" height="3.0" rx="0.6" ry="0.6" width="3.0" x="44.0" y="177.0"><title>2022-12-31</title></rect></g><text fill="#5A5A5A" style="font-size:12px; font-family:Arial; font-weight:bold;" x="0" y="20">年度跑步日历</text><text fill="#5A5A5A" style="font-size:4px; font-family:Arial" x="0" y="200">Runner</text><text fill="#5A5A5A" style="font-size:9px; font-family:Arial" x="0" y="210">Workouts</text><text fill="#5A5A5A" style="font-size:4px; font-family:Arial" x="0" y="200">SPECIAL TRACKS</text><rect fill="yellow" height="2.6" width="2.6" x="0" y="203" /><text fill="#5A5A5A" style="font-size:3px; font-family:Arial" x="0" y="205.5">Over 5.0 km</text><rect fill="red" height="2.6" width="2.6" x="0" y="207" /><text fill="#5A5A5A" style="font-size:3px; font-family:Arial" x="0" y="209.5">Over 10.0 km</text><text fill="#5A5A5A" style="font-size:4px; font-family:Arial" x="0" y="200">STATISTICS</text><text fill="#5A5A5A" style="font-size:3px; font-family:Arial" x="0" y="205">Number: 138 / 279</text><text fill="#5A5A5A" style="font-size:3px; font-family:Arial" x="0" y="210">Weekly: 3.21</text><text fill="#5A5A5A" style="font-size:3px; font-family:Arial" x="0" y="205">Total: 673.12 km / 1381.55 km</text><text fill="#5A5A5A" style="font-size:3px; font-family:Arial" x="0" y="210">Avg: 4.88 km</text><text fill="#5A5A5A" style="font-size:3px; font-family:Arial" x="43" y="205">Min: 0.61 km</text><text fill="#5A5A5A" style="font-size:3px; font-family:Arial" x="43" y="210">Max: 20.24 km</text></svg>