<?xml version="1.0" encoding="utf-8" ?>
<svg baseProfile="full" height="220mm" version="1.1" viewBox="0,0,200,220" width="200mm" xmlns="http://www.w3.org/2000/svg" xmlns:ev="http://www.w3.org/2001/xml-events" xmlns:xlink="http://www.w3.org/1999/xlink"><defs /><rect fill="#FAF9F5" height="220" width="200" x="0" y="0" /><g id="svg_4d7bfd72_tracks"><text fill="#5A5A5A" style="font-size:10px; font-family:Arial; font-weight:bold;" x="0" y="40">RUNNER'S</text><text fill="#5A5A5A" style="font-size:12px; font-family:Arial; font-weight:bold;" x="0" y="52">CALENDAR</text><text fill="#5A5A5A" style="font-size:36px; font-family:Arial; font-weight:bold;" x="0" y="90"><tspan fill="#5A5A5A" style="opacity: 0.2;">0</tspan><tspan>36</tspan></text><text fill="#5A5A5A" style="font-size:12px; font-family:Arial;" x="0" y="90">天</text><text fill="#5A5A5A" style="font-size:8px; font-family:Arial; font-weight:bold;" text-anchor="end" x="112" y="40">跑者年历</text><text fill="#5A5A5A" style="font-size:5px; font-family:Arial;" text-anchor="end" x="112" y="48">2021 Year</text><text fill="#5A5A5A" style="font-size:5px; font-family:Arial;" text-anchor="end" x="112" y="54">Annual Running Report</text><text fill="#5A5A5A" style="font-size:7px; font-family:Arial;" text-anchor="end" x="112" y="75"><tspan>今年运动 </tspan><tspan fill="#4DD2FF">36</tspan><tspan> 天 </tspan><tspan fill="#4DD2FF">39</tspan><tspan> 次</tspan></text><text fill="#5A5A5A" style="font-size:7px; font-family:Arial; opacity: 0.7;" text-anchor="end" x="112" y="88"><tspan>生涯累计运动 </tspan><tspan fill="#4DD2FF">125</tspan><tspan> 天 </tspan><tspan fill="#4DD2FF">141</tspan><tspan> 次</tspan></text><text fill="#5A5A5A" style="font-size:8px; font-family:Arial; font-weight:bold;" x="0.0" y="105.0">1 月</text><rect fill="red" height="3.0" rx="0.6" ry="0.6" width="3.0" x="0.0" y="128.0"><title>2021-01-01 20.22 km</title></rect><rect fill="#EEEEEE" height="3.0" rx="0.6" ry="0.6" width="3.0" x="0.0" y="132.0"><title>2021-01-02</title></rect><rect fill="#EEEEEE" height="3.0" rx="0.6" ry="0.6" width="3.0" x="0.0" y="136.0"><title>2021-01-03</title></rect><rect fill="#EEEEEE" height="3.0" rx="0.6" ry="0.6" width="3.0" x="0.0" y="112.0"><title>2021-01-04</title></rect><rect fill="#EEEEEE" height="3.0" rx="0.6" ry="0.6" width="3.0" x="0.0" y="116.0"><title>2021-01-05</title></rect><rect fill="#EEEEEE" height="3.0" rx="0.6" ry="0.6" width="3.0" x="0.0" y="120.0"><title>2021-01-06</title></rect><rect fill="#EEEEEE" height="3.0" rx="0.6" ry="0.6" width="3.0" x="0.0" y="124.0"><title>2021-01-07</title></rect><rect fill="#EEEEEE" height="3.0" rx="0.6" ry="0.6" width="3.0" x="0.0" y="128.0"><title>2021-01-08</title></rect><rect fill="#EEEEEE" height="3.0" rx="0.6" ry="0.6" width="3.0" x="0.0" y="132.0"><title>2021-01-09</title></rect><rect fill="#EEEEEE" height="3.0" rx="0.6" ry="0.6" width="3.0" x="0.0" y="136.0"><title>2021-01-10</title></rect><rect fill="#EEEEEE" height="3.0" rx="0.6" ry="0.6" width="3.0" x="0.0" y="112.0"><title>2021-01-11</title></rect><rect fill="#EEEEEE" height="3.0" rx="0.6" ry="0.6" width="3.0" x="0.0" y="116.0"><title>2021-01-12</title></rect><rect fill="#EEEEEE" height="3.0" rx="0.6" ry="0.6" width="3.0" x="0.0" y="120.0"><title>2021-01-13</title></rect><rect fill="#EEEEEE" height="3.0" rx="0.6" ry="0.6" width="3.0" x="0.0" y="124.0"><title>2021-01-14</title></rect><rect fill="#EEEEEE" height="3.0" rx="0.6" ry="0.6" width="3.0" x="0.0" y="128.0"><title>2021-01-15</title></rect><rect fill="#EEEEEE" height="3.0" rx="0.6" ry="0.6" width="3.0" x="0.0" y="132.0"><title>2021-01-16</title></rect><rect fill="#EEEEEE" height="3.0" rx="0.6" ry="0.6" width="3.0" x="0.0" y="136.0"><title>2021-01-17</title></rect><rect fill="#EEEEEE" height="3.0" rx="0.6" ry="0.6" width="3.0" x="0.0" y="112.0"><title>2021-01-18</title></rect><rect fill="#EEEEEE" height="3.0" rx="0.6" ry="0.6" width="3.0" x="0.0" y="116.0"><title>2021-01-19</title></rect><rect fill="#EEEEEE" height="3.0" rx="0.6" ry="0.6" width="3.0" x="0.0" y="120.0"><title>2021-01-20</title></rect><rect fill="#EEEEEE" height="3.0" rx="0.6" ry="0.6" width="3.0" x="0.0" y="124.0"><title>2021-01-21</title></rect><rect fill="#EEEEEE" height="3.0" rx="0.6" ry="0.6" width="3.0" x="0.0" y="128.0"><title>2021-01-22</title></rect><rect fill="#EEEEEE" height="3.0" rx="0.6" ry="0.6" width="3.0" x="0.0" y="132.0"><title>2021-01-23</title></rect><rect fill="#EEEEEE" height="3.0" rx="0.6" ry="0.6" width="3.0" x="0.0" y="136.0"><title>2021-01-24</title></rect><rect fill="#EEEEEE" height="3.0" rx="0.6" ry="0.6" width="3.0" x="0.0" y="112.0"><title>2021-01-25</title></rect><rect fill="#EEEEEE" height="3.0" rx="0.6" ry="0.6" width="3.0" x="0.0" y="116.0"><title>2021-01-26</title></rect><rect fill="#EEEEEE" height="3.0" rx="0.6" ry="0.6" width="3.0" x="0.0" y="120.0"><title>2021-01-27</title></rect><rect fill="#EEEEEE" height="3.0" rx="0.6" ry="0.6" width="3.0" x="0.0" y="124.0"><title>2021-01-28</title></rect><rect fill="#EEEEEE" height="3.0" rx="0.6" ry="0.6" width="3.0" x="0.0" y="128.0"><title>2021-01-29</title></rect><rect fill="#EEEEEE" height="3.0" rx="0.6" ry="0.6" width="3.0" x="0.0" y="132.0"><title>2021-01-30</title></rect><rect fill="#EEEEEE" height="3.0" rx="0.6" ry="0.6" width="3.0" x="0.0" y="136.0"><title>2021-01-31</title></rect><text fill="#5A5A5A" style="font-size:8px; font-family:Arial; font-weight:bold;" x="0.0" y="105.0">2 月</text><rect fill="#EEEEEE" height="3.0" rx="0.6" ry="0.6" width="3.0" x="0.0" y="112.0"><title>2021-02-01</title></rect><rect fill="#EEEEEE" height="3.0" rx="0.6" ry="0.6" width="3.0" x="0.0" y="116.0"><title>2021-02-02</title></rect><rect fill="#EEEEEE" height="3.0" rx="0.6" ry="0.6" width="3.0" x="0.0" y="120.0"><title>2021-02-03</title></rect><rect fill="#EEEEEE" height="3.0" rx="0.6" ry="0.6" width="3.0" x="0.0" y="124.0"><title>2021-02-04</title></rect><rect fill="#EEEEEE" height="3.0" rx="0.6" ry="0.6" width="3.0" x="0.0" y="128.0"><title>2021-02-05</title></rect><rect fill="#EEEEEE" height="3.0" rx="0.6" ry="0.6" width="3.0" x="0.0" y="132.0"><title>2021-02-06</title></rect><rect fill="#EEEEEE" height="3.0" rx="0.6" ry="0.6" width="3.0" x="0.0" y="136.0"><title>2021-02-07</title></rect><rect fill="#EEEEEE" height="3.0" rx="0.6" ry="0.6" width="3.0" x="0.0" y="112.0"><title>2021-02-08</title></rect><rect fill="#EEEEEE" height="3.0" rx="0.6" ry="0.6" width="3.0" x="0.0" y="116.0"><title>2021-02-09</title></rect><rect fill="#EEEEEE" height="3.0" rx="0.6" ry="0.6" width="3.0" x="0.0" y="120.0"><title>2021-02-10</title></rect><rect fill="#EEEEEE" height="3.0" rx="0.6" ry="0.6" width="3.0" x="0.0" y="124.0"><title>2021-02-11</title></rect><rect fill="#EEEEEE" height="3.0" rx="0.6" ry="0.6" width="3.0" x="0.0" y="128.0"><title>2021-02-12</title></rect><rect fill="#EEEEEE" height="3.0" rx="0.6" ry="0.6" width="3.0" x="0.0" y="132.0"><title>2021-02-13</title></rect><rect fill="#EEEEEE" height="3.0" rx="0.6" ry="0.6" width="3.0" x="0.0" y="136.0"><title>2021-02-14</title></rect><rect fill="#ff9900" height="3.0" rx="0.6" ry="0.6" width="3.0" x="0.0" y="112.0"><title>2021-02-15 8.23 km</title></rect><rect fill="red" height="3.0" rx="0.6" ry="0.6" width="3.0" x="0.0" y="116.0"><title>2021-02-16 10.01 km</title></rect><rect fill="#EEEEEE" height="3.0" rx="0.6" ry="0.6" width="3.0" x="0.0" y="120.0"><title>2021-02-17</title></rect><rect fill="red" height="3.0" rx="0.6" ry="0.6" width="3.0" x="0.0" y="124.0"><title>2021-02-18 11.24 km</title></rect><rect fill="#EEEEEE" height="3.0" rx="0.6" ry="0.6" width="3.0" x="0.0" y="128.0"><title>2021-02-19</title></rect><rect fill="#EEEEEE" height="3.0" rx="0.6" ry="0.6" width="3.0" x="0.0" y="132.0"><title>2021-02-20</title></rect><rect fill="#EEEEEE" height="3.0" rx="0.6" ry="0.6" width="3.0" x="0.0" y="136.0"><title>2021-02-21</title></rect><rect fill="#EEEEEE" height="3.0" rx="0.6" ry="0.6" width="3.0" x="0.0" y="112.0"><title>2021-02-22</title></rect><rect fill="#EEEEEE" height="3.0" rx="0.6" ry="0.6" width="3.0" x="0.0" y="116.0"><title>2021-02-23</title></rect><rect fill="#EEEEEE" height="3.0" rx="0.6" ry="0.6" width="3.0" x="0.0" y="120.0"><title>2021-02-24</title></rect><rect fill="#EEEEEE" height="3.0" rx="0.6" ry="0.6" width="3.0" x="0.0" y="124.0"><title>2021-02-25</title></rect><rect fill="#EEEEEE" height="3.0" rx="0.6" ry="0.6" width="3.0" x="0.0" y="128.0"><title>2021-02-26</title></rect><rect fill="#EEEEEE" height="3.0" rx="0.6" ry="0.6" width="3.0" x="0.0" y="132.0"><title>2021-02-27</title></rect><rect fill="#EEEEEE" height="3.0" rx="0.6" ry="0.6" width="3.0" x="0.0" y="136.0"><title>2021-02-28</title></rect><text fill="#5A5A5A" style="font-size:8px; font-family:Arial; font-weight:bold;" x="0.0" y="105.0">3 月</text><rect fill="#EEEEEE" height="3.0" rx="0.6" ry="0.6" width="3.0" x="0.0" y="112.0"><title>2021-03-01</title></rect><rect fill="#EEEEEE" height="3.0" rx="0.6" ry="0.6" width="3.0" x="0.0" y="116.0"><title>2021-03-02</title></rect><rect fill="#EEEEEE" height="3.0" rx="0.6" ry="0.6" width="3.0" x="0.0" y="120.0"><title>2021-03-03</title></rect><rect fill="#EEEEEE" height="3.0" rx="0.6" ry="0.6" width="3.0" x="0.0" y="124.0"><title>2021-03-04</title></rect><rect fill="#EEEEEE" height="3.0" rx="0.6" ry="0.6" width="3.0" x="0.0" y="128.0"><title>2021-03-05</title></rect><rect fill="#EEEEEE" height="3.0" rx="0.6" ry="0.6" width="3.0" x="0.0" y="132.0"><title>2021-03-06</title></rect><rect fill="#EEEEEE" height="3.0" rx="0.6" ry="0.6" width="3.0" x="0.0" y="136.0"><title>2021-03-07</title></rect><rect fill="#EEEEEE" height="3.0" rx="0.6" ry="0.6" width="3.0" x="0.0" y="112.0"><title>2021-03-08</title></rect><rect fill="#EEEEEE" height="3.0" rx="0.6" ry="0.6" width="3.0" x="0.0" y="116.0"><title>2021-03-09</title></rect><rect fill="#EEEEEE" height="3.0" rx="0.6" ry="0.6" width="3.0" x="0.0" y="120.0"><title>2021-03-10</title></rect><rect fill="#EEEEEE" height="3.0" rx="0.6" ry="0.6" width="3.0" x="0.0" y="124.0"><title>2021-03-11</title></rect><rect fill="#EEEEEE" height="3.0" rx="0.6" ry="0.6" width="3.0" x="0.0" y="128.0"><title>2021-03-12</title></rect><rect fill="#4dd2ff" height="3.0" rx="0.6" ry="0.6" width="3.0" x="0.0" y="132.0"><title>2021-03-13 4.29 km</title></rect><rect fill="#EEEEEE" height="3.0" rx="0.6" ry="0.6" width="3.0" x="0.0" y="136.0"><title>2021-03-14</title></rect><rect fill="#EEEEEE" height="3.0" rx="0.6" ry="0.6" width="3.0" x="4.0" y="112.0"><title>2021-03-15</title></rect><rect fill="#EEEEEE" height="3.0" rx="0.6" ry="0.6" width="3.0" x="4.0" y="116.0"><title>2021-03-16</title></rect><rect fill="#EEEEEE" height="3.0" rx="0.6" ry="0.6" width="3.0" x="4.0" y="120.0"><title>2021-03-17</title></rect><rect fill="#EEEEEE" height="3.0" rx="0.6" ry="0.6" width="3.0" x="4.0" y="124.0"><title>2021-03-18</title></rect><rect fill="#EEEEEE" height="3.0" rx="0.6" ry="0.6" width="3.0" x="4.0" y="128.0"><title>2021-03-19</title></rect><rect fill="#EEEEEE" height="3.0" rx="0.6" ry="0.6" width="3.0" x="4.0" y="132.0"><title>2021-03-20</title></rect><rect fill="#EEEEEE" height="3.0" rx="0.6" ry="0.6" width="3.0" x="4.0" y="136.0"><title>2021-03-21</title></rect><rect fill="#EEEEEE" height="3.0" rx="0.6" ry="0.6" width="3.0" x="8.0" y="112.0"><title>2021-03-22</title></rect><rect fill="#EEEEEE" height="3.0" rx="0.6" ry="0.6" width="3.0" x="8.0" y="116.0"><title>2021-03-23</title></rect><rect fill="#EEEEEE" height="3.0" rx="0.6" ry="0.6" width="3.0" x="8.0" y="120.0"><title>2021-03-24</title></rect><rect fill="#EEEEEE" height="3.0" rx="0.6" ry="0.6" width="3.0" x="8.0" y="124.0"><title>2021-03-25</title></rect><rect fill="#EEEEEE" height="3.0" rx="0.6" ry="0.6" width="3.0" x="8.0" y="128.0"><title>2021-03-26</title></rect><rect fill="#EEEEEE" height="3.0" rx="0.6" ry="0.6" width="3.0" x="8.0" y="132.0"><title>2021-03-27</title></rect><rect fill="#EEEEEE" height="3.0" rx="0.6" ry="0.6" width="3.0" x="8.0" y="136.0"><title>2021-03-28</title></rect><rect fill="#EEEEEE" height="3.0" rx="0.6" ry="0.6" width="3.0" x="12.0" y="112.0"><title>2021-03-29</title></rect><rect fill="#EEEEEE" height="3.0" rx="0.6" ry="0.6" width="3.0" x="12.0" y="116.0"><title>2021-03-30</title></rect><rect fill="#EEEEEE" height="3.0" rx="0.6" ry="0.6" width="3.0" x="12.0" y="120.0"><title>2021-03-31</title></rect><text fill="#5A5A5A" style="font-size:8px; font-family:Arial; font-weight:bold;" x="22.0" y="105.0">4 月</text><rect fill="#EEEEEE" height="3.0" rx="0.6" ry="0.6" width="3.0" x="22.0" y="124.0"><title>2021-04-01</title></rect><rect fill="#EEEEEE" height="3.0" rx="0.6" ry="0.6" width="3.0" x="22.0" y="128.0"><title>2021-04-02</title></rect><rect fill="#EEEEEE" height="3.0" rx="0.6" ry="0.6" width="3.0" x="22.0" y="132.0"><title>2021-04-03</title></rect><rect fill="#EEEEEE" height="3.0" rx="0.6" ry="0.6" width="3.0" x="22.0" y="136.0"><title>2021-04-04</title></rect><rect fill="#EEEEEE" height="3.0" rx="0.6" ry="0.6" width="3.0" x="26.0" y="112.0"><title>2021-04-05</title></rect><rect fill="#EEEEEE" height="3.0" rx="0.6" ry="0.6" width="3.0" x="26.0" y="116.0"><title>2021-04-06</title></rect><rect fill="#EEEEEE" height="3.0" rx="0.6" ry="0.6" width="3.0" x="26.0" y="120.0"><title>2021-04-07</title></rect><rect fill="#EEEEEE" height="3.0" rx="0.6" ry="0.6" width="3.0" x="26.0" y="124.0"><title>2021-04-08</title></rect><rect fill="#EEEEEE" height="3.0" rx="0.6" ry="0.6" width="3.0" x="26.0" y="128.0"><title>2021-04-09</title></rect><rect fill="#ffc200" height="3.0" rx="0.6" ry="0.6" width="3.0" x="26.0" y="132.0"><title>2021-04-10 5.00 km</title></rect><rect fill="#EEEEEE" height="3.0" rx="0.6" ry="0.6" width="3.0" x="26.0" y="136.0"><title>2021-04-11</title></rect><rect fill="#EEEEEE" height="3.0" rx="0.6" ry="0.6" width="3.0" x="30.0" y="112.0"><title>2021-04-12</title></rect><rect fill="#EEEEEE" height="3.0" rx="0.6" ry="0.6" width="3.0" x="30.0" y="116.0"><title>2021-04-13</title></rect><rect fill="#EEEEEE" height="3.0" rx="0.6" ry="0.6" width="3.0" x="30.0" y="120.0"><title>2021-04-14</title></rect><rect fill="#EEEEEE" height="3.0" rx="0.6" ry="0.6" width="3.0" x="30.0" y="124.0"><title>2021-04-15</title></rect><rect fill="#EEEEEE" height="3.0" rx="0.6" ry="0.6" width="3.0" x="30.0" y="128.0"><title>2021-04-16</title></rect><rect fill="#EEEEEE" height="3.0" rx="0.6" ry="0.6" width="3.0" x="30.0" y="132.0"><title>2021-04-17</title></rect><rect fill="#EEEEEE" height="3.0" rx="0.6" ry="0.6" width="3.0" x="30.0" y="136.0"><title>2021-04-18</title></rect><rect fill="#EEEEEE" height="3.0" rx="0.6" ry="0.6" width="3.0" x="34.0" y="112.0"><title>2021-04-19</title></rect><rect fill="#EEEEEE" height="3.0" rx="0.6" ry="0.6" width="3.0" x="34.0" y="116.0"><title>2021-04-20</title></rect><rect fill="#EEEEEE" height="3.0" rx="0.6" ry="0.6" width="3.0" x="34.0" y="120.0"><title>2021-04-21</title></rect><rect fill="#EEEEEE" height="3.0" rx="0.6" ry="0.6" width="3.0" x="34.0" y="124.0"><title>2021-04-22</title></rect><rect fill="#EEEEEE" height="3.0" rx="0.6" ry="0.6" width="3.0" x="34.0" y="128.0"><title>2021-04-23</title></rect><rect fill="#EEEEEE" height="3.0" rx="0.6" ry="0.6" width="3.0" x="34.0" y="132.0"><title>2021-04-24</title></rect><rect fill="#EEEEEE" height="3.0" rx="0.6" ry="0.6" width="3.0" x="34.0" y="136.0"><title>2021-04-25</title></rect><rect fill="#EEEEEE" height="3.0" rx="0.6" ry="0.6" width="3.0" x="38.0" y="112.0"><title>2021-04-26</title></rect><rect fill="#EEEEEE" height="3.0" rx="0.6" ry="0.6" width="3.0" x="38.0" y="116.0"><title>2021-04-27</title></rect><rect fill="#EEEEEE" height="3.0" rx="0.6" ry="0.6" width="3.0" x="38.0" y="120.0"><title>2021-04-28</title></rect><rect fill="#EEEEEE" height="3.0" rx="0.6" ry="0.6" width="3.0" x="38.0" y="124.0"><title>2021-04-29</title></rect><rect fill="#EEEEEE" height="3.0" rx="0.6" ry="0.6" width="3.0" x="38.0" y="128.0"><title>2021-04-30</title></rect><text fill="#5A5A5A" style="font-size:8px; font-family:Arial; font-weight:bold;" x="52.0" y="105.0">5 月</text><rect fill="#EEEEEE" height="3.0" rx="0.6" ry="0.6" width="3.0" x="52.0" y="132.0"><title>2021-05-01</title></rect><rect fill="#EEEEEE" height="3.0" rx="0.6" ry="0.6" width="3.0" x="52.0" y="136.0"><title>2021-05-02</title></rect><rect fill="#EEEEEE" height="3.0" rx="0.6" ry="0.6" width="3.0" x="56.0" y="112.0"><title>2021-05-03</title></rect><rect fill="#EEEEEE" height="3.0" rx="0.6" ry="0.6" width="3.0" x="56.0" y="116.0"><title>2021-05-04</title></rect><rect fill="#ffc000" height="3.0" rx="0.6" ry="0.6" width="3.0" x="56.0" y="120.0"><title>2021-05-05 5.13 km</title></rect><rect fill="#EEEEEE" height="3.0" rx="0.6" ry="0.6" width="3.0" x="56.0" y="124.0"><title>2021-05-06</title></rect><rect fill="#EEEEEE" height="3.0" rx="0.6" ry="0.6" width="3.0" x="56.0" y="128.0"><title>2021-05-07</title></rect><rect fill="#EEEEEE" height="3.0" rx="0.6" ry="0.6" width="3.0" x="56.0" y="132.0"><title>2021-05-08</title></rect><rect fill="#EEEEEE" height="3.0" rx="0.6" ry="0.6" width="3.0" x="56.0" y="136.0"><title>2021-05-09</title></rect><rect fill="#EEEEEE" height="3.0" rx="0.6" ry="0.6" width="3.0" x="60.0" y="112.0"><title>2021-05-10</title></rect><rect fill="#EEEEEE" height="3.0" rx="0.6" ry="0.6" width="3.0" x="60.0" y="116.0"><title>2021-05-11</title></rect><rect fill="#EEEEEE" height="3.0" rx="0.6" ry="0.6" width="3.0" x="60.0" y="120.0"><title>2021-05-12</title></rect><rect fill="#EEEEEE" height="3.0" rx="0.6" ry="0.6" width="3.0" x="60.0" y="124.0"><title>2021-05-13</title></rect><rect fill="#EEEEEE" height="3.0" rx="0.6" ry="0.6" width="3.0" x="60.0" y="128.0"><title>2021-05-14</title></rect><rect fill="#EEEEEE" height="3.0" rx="0.6" ry="0.6" width="3.0" x="60.0" y="132.0"><title>2021-05-15</title></rect><rect fill="#EEEEEE" height="3.0" rx="0.6" ry="0.6" width="3.0" x="60.0" y="136.0"><title>2021-05-16</title></rect><rect fill="#EEEEEE" height="3.0" rx="0.6" ry="0.6" width="3.0" x="64.0" y="112.0"><title>2021-05-17</title></rect><rect fill="#EEEEEE" height="3.0" rx="0.6" ry="0.6" width="3.0" x="64.0" y="116.0"><title>2021-05-18</title></rect><rect fill="#EEEEEE" height="3.0" rx="0.6" ry="0.6" width="3.0" x="64.0" y="120.0"><title>2021-05-19</title></rect><rect fill="#EEEEEE" height="3.0" rx="0.6" ry="0.6" width="3.0" x="64.0" y="124.0"><title>2021-05-20</title></rect><rect fill="#EEEEEE" height="3.0" rx="0.6" ry="0.6" width="3.0" x="64.0" y="128.0"><title>2021-05-21</title></rect><rect fill="#ff9a00" height="3.0" rx="0.6" ry="0.6" width="3.0" x="64.0" y="132.0"><title>2021-05-22 8.15 km</title></rect><rect fill="#4dd2ff" height="3.0" rx="0.6" ry="0.6" width="3.0" x="64.0" y="136.0"><title>2021-05-23 4.34 km</title></rect><rect fill="#EEEEEE" height="3.0" rx="0.6" ry="0.6" width="3.0" x="68.0" y="112.0"><title>2021-05-24</title></rect><rect fill="#EEEEEE" height="3.0" rx="0.6" ry="0.6" width="3.0" x="68.0" y="116.0"><title>2021-05-25</title></rect><rect fill="#EEEEEE" height="3.0" rx="0.6" ry="0.6" width="3.0" x="68.0" y="120.0"><title>2021-05-26</title></rect><rect fill="#EEEEEE" height="3.0" rx="0.6" ry="0.6" width="3.0" x="68.0" y="124.0"><title>2021-05-27</title></rect><rect fill="#EEEEEE" height="3.0" rx="0.6" ry="0.6" width="3.0" x="68.0" y="128.0"><title>2021-05-28</title></rect><rect fill="#EEEEEE" height="3.0" rx="0.6" ry="0.6" width="3.0" x="68.0" y="132.0"><title>2021-05-29</title></rect><rect fill="#EEEEEE" height="3.0" rx="0.6" ry="0.6" width="3.0" x="68.0" y="136.0"><title>2021-05-30</title></rect><rect fill="#4dd2ff" height="3.0" rx="0.6" ry="0.6" width="3.0" x="72.0" y="112.0"><title>2021-05-31 3.21 km</title></rect><text fill="#5A5A5A" style="font-size:8px; font-family:Arial; font-weight:bold;" x="82.0" y="105.0">6 月</text><rect fill="#EEEEEE" height="3.0" rx="0.6" ry="0.6" width="3.0" x="82.0" y="116.0"><title>2021-06-01</title></rect><rect fill="#EEEEEE" height="3.0" rx="0.6" ry="0.6" width="3.0" x="82.0" y="120.0"><title>2021-06-02</title></rect><rect fill="#EEEEEE" height="3.0" rx="0.6" ry="0.6" width="3.0" x="82.0" y="124.0"><title>2021-06-03</title></rect><rect fill="#4dd2ff" height="3.0" rx="0.6" ry="0.6" width="3.0" x="82.0" y="128.0"><title>2021-06-04 3.12 km</title></rect><rect fill="#EEEEEE" height="3.0" rx="0.6" ry="0.6" width="3.0" x="82.0" y="132.0"><title>2021-06-05</title></rect><rect fill="#EEEEEE" height="3.0" rx="0.6" ry="0.6" width="3.0" x="82.0" y="136.0"><title>2021-06-06</title></rect><rect fill="#EEEEEE" height="3.0" rx="0.6" ry="0.6" width="3.0" x="86.0" y="112.0"><title>2021-06-07</title></rect><rect fill="#EEEEEE" height="3.0" rx="0.6" ry="0.6" width="3.0" x="86.0" y="116.0"><title>2021-06-08</title></rect><rect fill="#EEEEEE" height="3.0" rx="0.6" ry="0.6" width="3.0" x="86.0" y="120.0"><title>2021-06-09</title></rect><rect fill="#EEEEEE" height="3.0" rx="0.6" ry="0.6" width="3.0" x="86.0" y="124.0"><title>2021-06-10</title></rect><rect fill="#4dd2ff" height="3.0" rx="0.6" ry="0.6" width="3.0" x="86.0" y="128.0"><title>2021-06-11 1.21 km</title></rect><rect fill="#4dd2ff" height="3.0" rx="0.6" ry="0.6" width="3.0" x="86.0" y="132.0"><title>2021-06-12 0.21 km</title></rect><rect fill="#EEEEEE" height="3.0" rx="0.6" ry="0.6" width="3.0" x="86.0" y="136.0"><title>2021-06-13</title></rect><rect fill="#EEEEEE" height="3.0" rx="0.6" ry="0.6" width="3.0" x="90.0" y="112.0"><title>2021-06-14</title></rect><rect fill="#EEEEEE" height="3.0" rx="0.6" ry="0.6" width="3.0" x="90.0" y="116.0"><title>2021-06-15</title></rect><rect fill="#EEEEEE" height="3.0" rx="0.6" ry="0.6" width="3.0" x="90.0" y="120.0"><title>2021-06-16</title></rect><rect fill="#EEEEEE" height="3.0" rx="0.6" ry="0.6" width="3.0" x="90.0" y="124.0"><title>2021-06-17</title></rect><rect fill="#EEEEEE" height="3.0" rx="0.6" ry="0.6" width="3.0" x="90.0" y="128.0"><title>2021-06-18</title></rect><rect fill="#ffc100" height="3.0" rx="0.6" ry="0.6" width="3.0" x="90.0" y="132.0"><title>2021-06-19 5.04 km</title></rect><rect fill="#EEEEEE" height="3.0" rx="0.6" ry="0.6" width="3.0" x="90.0" y="136.0"><title>2021-06-20</title></rect><rect fill="#EEEEEE" height="3.0" rx="0.6" ry="0.6" width="3.0" x="94.0" y="112.0"><title>2021-06-21</title></rect><rect fill="#EEEEEE" height="3.0" rx="0.6" ry="0.6" width="3.0" x="94.0" y="116.0"><title>2021-06-22</title></rect><rect fill="#EEEEEE" height="3.0" rx="0.6" ry="0.6" width="3.0" x="94.0" y="120.0"><title>2021-06-23</title></rect><rect fill="#EEEEEE" height="3.0" rx="0.6" ry="0.6" width="3.0" x="94.0" y="124.0"><title>2021-06-24</title></rect><rect fill="#EEEEEE" height="3.0" rx="0.6" ry="0.6" width="3.0" x="94.0" y="128.0"><title>2021-06-25</title></rect><rect fill="#ffc200" height="3.0" rx="0.6" ry="0.6" width="3.0" x="94.0" y="132.0"><title>2021-06-26 5.01 km</title></rect><rect fill="#EEEEEE" height="3.0" rx="0.6" ry="0.6" width="3.0" x="94.0" y="136.0"><title>2021-06-27</title></rect><rect fill="#EEEEEE" height="3.0" rx="0.6" ry="0.6" width="3.0" x="98.0" y="112.0"><title>2021-06-28</title></rect><rect fill="#EEEEEE" height="3.0" rx="0.6" ry="0.6" width="3.0" x="98.0" y="116.0"><title>2021-06-29</title></rect><rect fill="#EEEEEE" height="3.0" rx="0.6" ry="0.6" width="3.0" x="98.0" y="120.0"><title>2021-06-30</title></rect><text fill="#5A5A5A" style="font-size:8px; font-family:Arial; font-weight:bold;" x="0.0" y="150.0">7 月</text><rect fill="#EEEEEE" height="3.0" rx="0.6" ry="0.6" width="3.0" x="0.0" y="169.0"><title>2021-07-01</title></rect><rect fill="#EEEEEE" height="3.0" rx="0.6" ry="0.6" width="3.0" x="0.0" y="173.0"><title>2021-07-02</title></rect><rect fill="#EEEEEE" height="3.0" rx="0.6" ry="0.6" width="3.0" x="0.0" y="177.0"><title>2021-07-03</title></rect><rect fill="#EEEEEE" height="3.0" rx="0.6" ry="0.6" width="3.0" x="0.0" y="181.0"><title>2021-07-04</title></rect><rect fill="#EEEEEE" height="3.0" rx="0.6" ry="0.6" width="3.0" x="0.0" y="157.0"><title>2021-07-05</title></rect><rect fill="#EEEEEE" height="3.0" rx="0.6" ry="0.6" width="3.0" x="0.0" y="161.0"><title>2021-07-06</title></rect><rect fill="#EEEEEE" height="3.0" rx="0.6" ry="0.6" width="3.0" x="0.0" y="165.0"><title>2021-07-07</title></rect><rect fill="#EEEEEE" height="3.0" rx="0.6" ry="0.6" width="3.0" x="0.0" y="169.0"><title>2021-07-08</title></rect><rect fill="#EEEEEE" height="3.0" rx="0.6" ry="0.6" width="3.0" x="0.0" y="173.0"><title>2021-07-09</title></rect><rect fill="#EEEEEE" height="3.0" rx="0.6" ry="0.6" width="3.0" x="0.0" y="177.0"><title>2021-07-10</title></rect><rect fill="#EEEEEE" height="3.0" rx="0.6" ry="0.6" width="3.0" x="0.0" y="181.0"><title>2021-07-11</title></rect><rect fill="#EEEEEE" height="3.0" rx="0.6" ry="0.6" width="3.0" x="0.0" y="157.0"><title>2021-07-12</title></rect><rect fill="#EEEEEE" height="3.0" rx="0.6" ry="0.6" width="3.0" x="0.0" y="161.0"><title>2021-07-13</title></rect><rect fill="#4dd2ff" height="3.0" rx="0.6" ry="0.6" width="3.0" x="0.0" y="165.0"><title>2021-07-14 3.14 km</title></rect><rect fill="#EEEEEE" height="3.0" rx="0.6" ry="0.6" width="3.0" x="0.0" y="169.0"><title>2021-07-15</title></rect><rect fill="#EEEEEE" height="3.0" rx="0.6" ry="0.6" width="3.0" x="0.0" y="173.0"><title>2021-07-16</title></rect><rect fill="#EEEEEE" height="3.0" rx="0.6" ry="0.6" width="3.0" x="0.0" y="177.0"><title>2021-07-17</title></rect><rect fill="#EEEEEE" height="3.0" rx="0.6" ry="0.6" width="3.0" x="0.0" y="181.0"><title>2021-07-18</title></rect><rect fill="#EEEEEE" height="3.0" rx="0.6" ry="0.6" width="3.0" x="0.0" y="157.0"><title>2021-07-19</title></rect><rect fill="#EEEEEE" height="3.0" rx="0.6" ry="0.6" width="3.0" x="0.0" y="161.0"><title>2021-07-20</title></rect><rect fill="red" height="3.0" rx="0.6" ry="0.6" width="3.0" x="0.0" y="165.0"><title>2021-07-21 11.52 km</title></rect><rect fill="#ffa500" height="3.0" rx="0.6" ry="0.6" width="3.0" x="0.0" y="169.0"><title>2021-07-22 7.28 km</title></rect><rect fill="#EEEEEE" height="3.0" rx="0.6" ry="0.6" width="3.0" x="0.0" y="173.0"><title>2021-07-23</title></rect><rect fill="#EEEEEE" height="3.0" rx="0.6" ry="0.6" width="3.0" x="0.0" y="177.0"><title>2021-07-24</title></rect><rect fill="#EEEEEE" height="3.0" rx="0.6" ry="0.6" width="3.0" x="0.0" y="181.0"><title>2021-07-25</title></rect><rect fill="#4dd2ff" height="3.0" rx="0.6" ry="0.6" width="3.0" x="0.0" y="157.0"><title>2021-07-26 3.24 km</title></rect><rect fill="#EEEEEE" height="3.0" rx="0.6" ry="0.6" width="3.0" x="0.0" y="161.0"><title>2021-07-27</title></rect><rect fill="#4dd2ff" height="3.0" rx="0.6" ry="0.6" width="3.0" x="0.0" y="165.0"><title>2021-07-28 3.87 km</title></rect><rect fill="#EEEEEE" height="3.0" rx="0.6" ry="0.6" width="3.0" x="0.0" y="169.0"><title>2021-07-29</title></rect><rect fill="#EEEEEE" height="3.0" rx="0.6" ry="0.6" width="3.0" x="0.0" y="173.0"><title>2021-07-30</title></rect><rect fill="#EEEEEE" height="3.0" rx="0.6" ry="0.6" width="3.0" x="0.0" y="177.0"><title>2021-07-31</title></rect><text fill="#5A5A5A" style="font-size:8px; font-family:Arial; font-weight:bold;" x="0.0" y="150.0">8 月</text><rect fill="#EEEEEE" height="3.0" rx="0.6" ry="0.6" width="3.0" x="0.0" y="181.0"><title>2021-08-01</title></rect><rect fill="#EEEEEE" height="3.0" rx="0.6" ry="0.6" width="3.0" x="0.0" y="157.0"><title>2021-08-02</title></rect><rect fill="#EEEEEE" height="3.0" rx="0.6" ry="0.6" width="3.0" x="0.0" y="161.0"><title>2021-08-03</title></rect><rect fill="#EEEEEE" height="3.0" rx="0.6" ry="0.6" width="3.0" x="0.0" y="165.0"><title>2021-08-04</title></rect><rect fill="#EEEEEE" height="3.0" rx="0.6" ry="0.6" width="3.0" x="0.0" y="169.0"><title>2021-08-05</title></rect><rect fill="#EEEEEE" height="3.0" rx="0.6" ry="0.6" width="3.0" x="0.0" y="173.0"><title>2021-08-06</title></rect><rect fill="#EEEEEE" height="3.0" rx="0.6" ry="0.6" width="3.0" x="0.0" y="177.0"><title>2021-08-07</title></rect><rect fill="#EEEEEE" height="3.0" rx="0.6" ry="0.6" width="3.0" x="0.0" y="181.0"><title>2021-08-08</title></rect><rect fill="#EEEEEE" height="3.0" rx="0.6" ry="0.6" width="3.0" x="0.0" y="157.0"><title>2021-08-09</title></rect><rect fill="#EEEEEE" height="3.0" rx="0.6" ry="0.6" width="3.0" x="0.0" y="161.0"><title>2021-08-10</title></rect><rect fill="#EEEEEE" height="3.0" rx="0.6" ry="0.6" width="3.0" x="0.0" y="165.0"><title>2021-08-11</title></rect><rect fill="#EEEEEE" height="3.0" rx="0.6" ry="0.6" width="3.0" x="0.0" y="169.0"><title>2021-08-12</title></rect><rect fill="#ffbb00" height="3.0" rx="0.6" ry="0.6" width="3.0" x="0.0" y="173.0"><title>2021-08-13 5.53 km</title></rect><rect fill="#EEEEEE" height="3.0" rx="0.6" ry="0.6" width="3.0" x="0.0" y="177.0"><title>2021-08-14</title></rect><rect fill="#ff9e00" height="3.0" rx="0.6" ry="0.6" width="3.0" x="0.0" y="181.0"><title>2021-08-15 7.79 km</title></rect><rect fill="#EEEEEE" height="3.0" rx="0.6" ry="0.6" width="3.0" x="0.0" y="157.0"><title>2021-08-16</title></rect><rect fill="#EEEEEE" height="3.0" rx="0.6" ry="0.6" width="3.0" x="0.0" y="161.0"><title>2021-08-17</title></rect><rect fill="#EEEEEE" height="3.0" rx="0.6" ry="0.6" width="3.0" x="0.0" y="165.0"><title>2021-08-18</title></rect><rect fill="#EEEEEE" height="3.0" rx="0.6" ry="0.6" width="3.0" x="0.0" y="169.0"><title>2021-08-19</title></rect><rect fill="#EEEEEE" height="3.0" rx="0.6" ry="0.6" width="3.0" x="0.0" y="173.0"><title>2021-08-20</title></rect><rect fill="#EEEEEE" height="3.0" rx="0.6" ry="0.6" width="3.0" x="0.0" y="177.0"><title>2021-08-21</title></rect><rect fill="#EEEEEE" height="3.0" rx="0.6" ry="0.6" width="3.0" x="0.0" y="181.0"><title>2021-08-22</title></rect><rect fill="#EEEEEE" height="3.0" rx="0.6" ry="0.6" width="3.0" x="0.0" y="157.0"><title>2021-08-23</title></rect><rect fill="#EEEEEE" height="3.0" rx="0.6" ry="0.6" width="3.0" x="0.0" y="161.0"><title>2021-08-24</title></rect><rect fill="#EEEEEE" height="3.0" rx="0.6" ry="0.6" width="3.0" x="0.0" y="165.0"><title>2021-08-25</title></rect><rect fill="#EEEEEE" height="3.0" rx="0.6" ry="0.6" width="3.0" x="0.0" y="169.0"><title>2021-08-26</title></rect><rect fill="#EEEEEE" height="3.0" rx="0.6" ry="0.6" width="3.0" x="0.0" y="173.0"><title>2021-08-27</title></rect><rect fill="#ffc200" height="3.0" rx="0.6" ry="0.6" width="3.0" x="0.0" y="177.0"><title>2021-08-28 5.03 km</title></rect><rect fill="#EEEEEE" height="3.0" rx="0.6" ry="0.6" width="3.0" x="0.0" y="181.0"><title>2021-08-29</title></rect><rect fill="#EEEEEE" height="3.0" rx="0.6" ry="0.6" width="3.0" x="0.0" y="157.0"><title>2021-08-30</title></rect><rect fill="#EEEEEE" height="3.0" rx="0.6" ry="0.6" width="3.0" x="0.0" y="161.0"><title>2021-08-31</title></rect><text fill="#5A5A5A" style="font-size:8px; font-family:Arial; font-weight:bold;" x="0.0" y="150.0">9 月</text><rect fill="#EEEEEE" height="3.0" rx="0.6" ry="0.6" width="3.0" x="0.0" y="165.0"><title>2021-09-01</title></rect><rect fill="#EEEEEE" height="3.0" rx="0.6" ry="0.6" width="3.0" x="0.0" y="169.0"><title>2021-09-02</title></rect><rect fill="#EEEEEE" height="3.0" rx="0.6" ry="0.6" width="3.0" x="0.0" y="173.0"><title>2021-09-03</title></rect><rect fill="#EEEEEE" height="3.0" rx="0.6" ry="0.6" width="3.0" x="0.0" y="177.0"><title>2021-09-04</title></rect><rect fill="#EEEEEE" height="3.0" rx="0.6" ry="0.6" width="3.0" x="0.0" y="181.0"><title>2021-09-05</title></rect><rect fill="#EEEEEE" height="3.0" rx="0.6" ry="0.6" width="3.0" x="0.0" y="157.0"><title>2021-09-06</title></rect><rect fill="#EEEEEE" height="3.0" rx="0.6" ry="0.6" width="3.0" x="0.0" y="161.0"><title>2021-09-07</title></rect><rect fill="#EEEEEE" height="3.0" rx="0.6" ry="0.6" width="3.0" x="0.0" y="165.0"><title>2021-09-08</title></rect><rect fill="#EEEEEE" height="3.0" rx="0.6" ry="0.6" width="3.0" x="0.0" y="169.0"><title>2021-09-09</title></rect><rect fill="#EEEEEE" height="3.0" rx="0.6" ry="0.6" width="3.0" x="0.0" y="173.0"><title>2021-09-10</title></rect><rect fill="#EEEEEE" height="3.0" rx="0.6" ry="0.6" width="3.0" x="0.0" y="177.0"><title>2021-09-11</title></rect><rect fill="#EEEEEE" height="3.0" rx="0.6" ry="0.6" width="3.0" x="0.0" y="181.0"><title>2021-09-12</title></rect><rect fill="#EEEEEE" height="3.0" rx="0.6" ry="0.6" width="3.0" x="0.0" y="157.0"><title>2021-09-13</title></rect><rect fill="#EEEEEE" height="3.0" rx="0.6" ry="0.6" width="3.0" x="0.0" y="161.0"><title>2021-09-14</title></rect><rect fill="#EEEEEE" height="3.0" rx="0.6" ry="0.6" width="3.0" x="0.0" y="165.0"><title>2021-09-15</title></rect><rect fill="#EEEEEE" height="3.0" rx="0.6" ry="0.6" width="3.0" x="0.0" y="169.0"><title>2021-09-16</title></rect><rect fill="#EEEEEE" height="3.0" rx="0.6" ry="0.6" width="3.0" x="0.0" y="173.0"><title>2021-09-17</title></rect><rect fill="#EEEEEE" height="3.0" rx="0.6" ry="0.6" width="3.0" x="0.0" y="177.0"><title>2021-09-18</title></rect><rect fill="#EEEEEE" height="3.0" rx="0.6" ry="0.6" width="3.0" x="0.0" y="181.0"><title>2021-09-19</title></rect><rect fill="#EEEEEE" height="3.0" rx="0.6" ry="0.6" width="3.0" x="4.0" y="157.0"><title>2021-09-20</title></rect><rect fill="#EEEEEE" height="3.0" rx="0.6" ry="0.6" width="3.0" x="4.0" y="161.0"><title>2021-09-21</title></rect><rect fill="#EEEEEE" height="3.0" rx="0.6" ry="0.6" width="3.0" x="4.0" y="165.0"><title>2021-09-22</title></rect><rect fill="#EEEEEE" height="3.0" rx="0.6" ry="0.6" width="3.0" x="4.0" y="169.0"><title>2021-09-23</title></rect><rect fill="#4dd2ff" height="3.0" rx="0.6" ry="0.6" width="3.0" x="4.0" y="173.0"><title>2021-09-24 3.00 km</title></rect><rect fill="#EEEEEE" height="3.0" rx="0.6" ry="0.6" width="3.0" x="4.0" y="177.0"><title>2021-09-25</title></rect><rect fill="#EEEEEE" height="3.0" rx="0.6" ry="0.6" width="3.0" x="4.0" y="181.0"><title>2021-09-26</title></rect><rect fill="#EEEEEE" height="3.0" rx="0.6" ry="0.6" width="3.0" x="8.0" y="157.0"><title>2021-09-27</title></rect><rect fill="#EEEEEE" height="3.0" rx="0.6" ry="0.6" width="3.0" x="8.0" y="161.0"><title>2021-09-28</title></rect><rect fill="#EEEEEE" height="3.0" rx="0.6" ry="0.6" width="3.0" x="8.0" y="165.0"><title>2021-09-29</title></rect><rect fill="#EEEEEE" height="3.0" rx="0.6" ry="0.6" width="3.0" x="8.0" y="169.0"><title>2021-09-30</title></rect><text fill="#5A5A5A" style="font-size:8px; font-family:Arial; font-weight:bold;" x="22.0" y="150.0">10 月</text><rect fill="#ffc100" height="3.0" rx="0.6" ry="0.6" width="3.0" x="22.0" y="173.0"><title>2021-10-01 5.04 km</title></rect><rect fill="#EEEEEE" height="3.0" rx="0.6" ry="0.6" width="3.0" x="22.0" y="177.0"><title>2021-10-02</title></rect><rect fill="#EEEEEE" height="3.0" rx="0.6" ry="0.6" width="3.0" x="22.0" y="181.0"><title>2021-10-03</title></rect><rect fill="#EEEEEE" height="3.0" rx="0.6" ry="0.6" width="3.0" x="26.0" y="157.0"><title>2021-10-04</title></rect><rect fill="#EEEEEE" height="3.0" rx="0.6" ry="0.6" width="3.0" x="26.0" y="161.0"><title>2021-10-05</title></rect><rect fill="#EEEEEE" height="3.0" rx="0.6" ry="0.6" width="3.0" x="26.0" y="165.0"><title>2021-10-06</title></rect><rect fill="#ffc100" height="3.0" rx="0.6" ry="0.6" width="3.0" x="26.0" y="169.0"><title>2021-10-07 5.04 km</title></rect><rect fill="#EEEEEE" height="3.0" rx="0.6" ry="0.6" width="3.0" x="26.0" y="173.0"><title>2021-10-08</title></rect><rect fill="#EEEEEE" height="3.0" rx="0.6" ry="0.6" width="3.0" x="26.0" y="177.0"><title>2021-10-09</title></rect><rect fill="#EEEEEE" height="3.0" rx="0.6" ry="0.6" width="3.0" x="26.0" y="181.0"><title>2021-10-10</title></rect><rect fill="#EEEEEE" height="3.0" rx="0.6" ry="0.6" width="3.0" x="30.0" y="157.0"><title>2021-10-11</title></rect><rect fill="#EEEEEE" height="3.0" rx="0.6" ry="0.6" width="3.0" x="30.0" y="161.0"><title>2021-10-12</title></rect><rect fill="#4dd2ff" height="3.0" rx="0.6" ry="0.6" width="3.0" x="30.0" y="165.0"><title>2021-10-13 3.08 km</title></rect><rect fill="#EEEEEE" height="3.0" rx="0.6" ry="0.6" width="3.0" x="30.0" y="169.0"><title>2021-10-14</title></rect><rect fill="#EEEEEE" height="3.0" rx="0.6" ry="0.6" width="3.0" x="30.0" y="173.0"><title>2021-10-15</title></rect><rect fill="#EEEEEE" height="3.0" rx="0.6" ry="0.6" width="3.0" x="30.0" y="177.0"><title>2021-10-16</title></rect><rect fill="#EEEEEE" height="3.0" rx="0.6" ry="0.6" width="3.0" x="30.0" y="181.0"><title>2021-10-17</title></rect><rect fill="#ffc100" height="3.0" rx="0.6" ry="0.6" width="3.0" x="34.0" y="157.0"><title>2021-10-18 5.07 km</title></rect><rect fill="#EEEEEE" height="3.0" rx="0.6" ry="0.6" width="3.0" x="34.0" y="161.0"><title>2021-10-19</title></rect><rect fill="#EEEEEE" height="3.0" rx="0.6" ry="0.6" width="3.0" x="34.0" y="165.0"><title>2021-10-20</title></rect><rect fill="#EEEEEE" height="3.0" rx="0.6" ry="0.6" width="3.0" x="34.0" y="169.0"><title>2021-10-21</title></rect><rect fill="#EEEEEE" height="3.0" rx="0.6" ry="0.6" width="3.0" x="34.0" y="173.0"><title>2021-10-22</title></rect><rect fill="#EEEEEE" height="3.0" rx="0.6" ry="0.6" width="3.0" x="34.0" y="177.0"><title>2021-10-23</title></rect><rect fill="#EEEEEE" height="3.0" rx="0.6" ry="0.6" width="3.0" x="34.0" y="181.0"><title>2021-10-24</title></rect><rect fill="#EEEEEE" height="3.0" rx="0.6" ry="0.6" width="3.0" x="38.0" y="157.0"><title>2021-10-25</title></rect><rect fill="#EEEEEE" height="3.0" rx="0.6" ry="0.6" width="3.0" x="38.0" y="161.0"><title>2021-10-26</title></rect><rect fill="#EEEEEE" height="3.0" rx="0.6" ry="0.6" width="3.0" x="38.0" y="165.0"><title>2021-10-27</title></rect><rect fill="#EEEEEE" height="3.0" rx="0.6" ry="0.6" width="3.0" x="38.0" y="169.0"><title>2021-10-28</title></rect><rect fill="#EEEEEE" height="3.0" rx="0.6" ry="0.6" width="3.0" x="38.0" y="173.0"><title>2021-10-29</title></rect><rect fill="#EEEEEE" height="3.0" rx="0.6" ry="0.6" width="3.0" x="38.0" y="177.0"><title>2021-10-30</title></rect><rect fill="#EEEEEE" height="3.0" rx="0.6" ry="0.6" width="3.0" x="38.0" y="181.0"><title>2021-10-31</title></rect><text fill="#5A5A5A" style="font-size:8px; font-family:Arial; font-weight:bold;" x="52.0" y="150.0">11 月</text><rect fill="#EEEEEE" height="3.0" rx="0.6" ry="0.6" width="3.0" x="56.0" y="157.0"><title>2021-11-01</title></rect><rect fill="#EEEEEE" height="3.0" rx="0.6" ry="0.6" width="3.0" x="56.0" y="161.0"><title>2021-11-02</title></rect><rect fill="#EEEEEE" height="3.0" rx="0.6" ry="0.6" width="3.0" x="56.0" y="165.0"><title>2021-11-03</title></rect><rect fill="#EEEEEE" height="3.0" rx="0.6" ry="0.6" width="3.0" x="56.0" y="169.0"><title>2021-11-04</title></rect><rect fill="#EEEEEE" height="3.0" rx="0.6" ry="0.6" width="3.0" x="56.0" y="173.0"><title>2021-11-05</title></rect><rect fill="#EEEEEE" height="3.0" rx="0.6" ry="0.6" width="3.0" x="56.0" y="177.0"><title>2021-11-06</title></rect><rect fill="#ffc200" height="3.0" rx="0.6" ry="0.6" width="3.0" x="56.0" y="181.0"><title>2021-11-07 5.01 km</title></rect><rect fill="#EEEEEE" height="3.0" rx="0.6" ry="0.6" width="3.0" x="60.0" y="157.0"><title>2021-11-08</title></rect><rect fill="#EEEEEE" height="3.0" rx="0.6" ry="0.6" width="3.0" x="60.0" y="161.0"><title>2021-11-09</title></rect><rect fill="#EEEEEE" height="3.0" rx="0.6" ry="0.6" width="3.0" x="60.0" y="165.0"><title>2021-11-10</title></rect><rect fill="#ffbb00" height="3.0" rx="0.6" ry="0.6" width="3.0" x="60.0" y="169.0"><title>2021-11-11 5.51 km</title></rect><rect fill="#EEEEEE" height="3.0" rx="0.6" ry="0.6" width="3.0" x="60.0" y="173.0"><title>2021-11-12</title></rect><rect fill="#EEEEEE" height="3.0" rx="0.6" ry="0.6" width="3.0" x="60.0" y="177.0"><title>2021-11-13</title></rect><rect fill="#EEEEEE" height="3.0" rx="0.6" ry="0.6" width="3.0" x="60.0" y="181.0"><title>2021-11-14</title></rect><rect fill="#ffab00" height="3.0" rx="0.6" ry="0.6" width="3.0" x="64.0" y="157.0"><title>2021-11-15 6.78 km</title></rect><rect fill="#ffc100" height="3.0" rx="0.6" ry="0.6" width="3.0" x="64.0" y="161.0"><title>2021-11-16 5.10 km</title></rect><rect fill="#EEEEEE" height="3.0" rx="0.6" ry="0.6" width="3.0" x="64.0" y="165.0"><title>2021-11-17</title></rect><rect fill="#EEEEEE" height="3.0" rx="0.6" ry="0.6" width="3.0" x="64.0" y="169.0"><title>2021-11-18</title></rect><rect fill="#EEEEEE" height="3.0" rx="0.6" ry="0.6" width="3.0" x="64.0" y="173.0"><title>2021-11-19</title></rect><rect fill="#EEEEEE" height="3.0" rx="0.6" ry="0.6" width="3.0" x="64.0" y="177.0"><title>2021-11-20</title></rect><rect fill="#EEEEEE" height="3.0" rx="0.6" ry="0.6" width="3.0" x="64.0" y="181.0"><title>2021-11-21</title></rect><rect fill="#EEEEEE" height="3.0" rx="0.6" ry="0.6" width="3.0" x="68.0" y="157.0"><title>2021-11-22</title></rect><rect fill="#EEEEEE" height="3.0" rx="0.6" ry="0.6" width="3.0" x="68.0" y="161.0"><title>2021-11-23</title></rect><rect fill="#EEEEEE" height="3.0" rx="0.6" ry="0.6" width="3.0" x="68.0" y="165.0"><title>2021-11-24</title></rect><rect fill="#EEEEEE" height="3.0" rx="0.6" ry="0.6" width="3.0" x="68.0" y="169.0"><title>2021-11-25</title></rect><rect fill="#EEEEEE" height="3.0" rx="0.6" ry="0.6" width="3.0" x="68.0" y="173.0"><title>2021-11-26</title></rect><rect fill="#EEEEEE" height="3.0" rx="0.6" ry="0.6" width="3.0" x="68.0" y="177.0"><title>2021-11-27</title></rect><rect fill="#EEEEEE" height="3.0" rx="0.6" ry="0.6" width="3.0" x="68.0" y="181.0"><title>2021-11-28</title></rect><rect fill="#EEEEEE" height="3.0" rx="0.6" ry="0.6" width="3.0" x="72.0" y="157.0"><title>2021-11-29</title></rect><rect fill="#EEEEEE" height="3.0" rx="0.6" ry="0.6" width="3.0" x="72.0" y="161.0"><title>2021-11-30</title></rect><text fill="#5A5A5A" style="font-size:8px; font-family:Arial; font-weight:bold;" x="82.0" y="150.0">12 月</text><rect fill="#ffab00" height="3.0" rx="0.6" ry="0.6" width="3.0" x="82.0" y="165.0"><title>2021-12-01 6.78 km</title></rect><rect fill="#EEEEEE" height="3.0" rx="0.6" ry="0.6" width="3.0" x="82.0" y="169.0"><title>2021-12-02</title></rect><rect fill="#EEEEEE" height="3.0" rx="0.6" ry="0.6" width="3.0" x="82.0" y="173.0"><title>2021-12-03</title></rect><rect fill="#EEEEEE" height="3.0" rx="0.6" ry="0.6" width="3.0" x="82.0" y="177.0"><title>2021-12-04</title></rect><rect fill="#EEEEEE" height="3.0" rx="0.6" ry="0.6" width="3.0" x="82.0" y="181.0"><title>2021-12-05</title></rect><rect fill="#EEEEEE" height="3.0" rx="0.6" ry="0.6" width="3.0" x="86.0" y="157.0"><title>2021-12-06</title></rect><rect fill="#EEEEEE" height="3.0" rx="0.6" ry="0.6" width="3.0" x="86.0" y="161.0"><title>2021-12-07</title></rect><rect fill="#EEEEEE" height="3.0" rx="0.6" ry="0.6" width="3.0" x="86.0" y="165.0"><title>2021-12-08</title></rect><rect fill="#EEEEEE" height="3.0" rx="0.6" ry="0.6" width="3.0" x="86.0" y="169.0"><title>2021-12-09</title></rect><rect fill="#EEEEEE" height="3.0" rx="0.6" ry="0.6" width="3.0" x="86.0" y="173.0"><title>2021-12-10</title></rect><rect fill="#EEEEEE" height="3.0" rx="0.6" ry="0.6" width="3.0" x="86.0" y="177.0"><title>2021-12-11</title></rect><rect fill="#EEEEEE" height="3.0" rx="0.6" ry="0.6" width="3.0" x="86.0" y="181.0"><title>2021-12-12</title></rect><rect fill="#EEEEEE" height="3.0" rx="0.6" ry="0.6" width="3.0" x="90.0" y="157.0"><title>2021-12-13</title></rect><rect fill="#4dd2ff" height="3.0" rx="0.6" ry="0.6" width="3.0" x="90.0" y="161.0"><title>2021-12-14 2.70 km</title></rect><rect fill="#EEEEEE" height="3.0" rx="0.6" ry="0.6" width="3.0" x="90.0" y="165.0"><title>2021-12-15</title></rect><rect fill="#EEEEEE" height="3.0" rx="0.6" ry="0.6" width="3.0" x="90.0" y="169.0"><title>2021-12-16</title></rect><rect fill="#EEEEEE" height="3.0" rx="0.6" ry="0.6" width="3.0" x="90.0" y="173.0"><title>2021-12-17</title></rect><rect fill="#EEEEEE" height="3.0" rx="0.6" ry="0.6" width="3.0" x="90.0" y="177.0"><title>2021-12-18</title></rect><rect fill="#4dd2ff" height="3.0" rx="0.6" ry="0.6" width="3.0" x="90.0" y="181.0"><title>2021-12-19 2.01 km</title></rect><rect fill="#EEEEEE" height="3.0" rx="0.6" ry="0.6" width="3.0" x="94.0" y="157.0"><title>2021-12-20</title></rect><rect fill="#ffb900" height="3.0" rx="0.6" ry="0.6" width="3.0" x="94.0" y="161.0"><title>2021-12-21 5.68 km</title></rect><rect fill="#EEEEEE" height="3.0" rx="0.6" ry="0.6" width="3.0" x="94.0" y="165.0"><title>2021-12-22</title></rect><rect fill="#EEEEEE" height="3.0" rx="0.6" ry="0.6" width="3.0" x="94.0" y="169.0"><title>2021-12-23</title></rect><rect fill="#EEEEEE" height="3.0" rx="0.6" ry="0.6" width="3.0" x="94.0" y="173.0"><title>2021-12-24</title></rect><rect fill="#EEEEEE" height="3.0" rx="0.6" ry="0.6" width="3.0" x="94.0" y="177.0"><title>2021-12-25</title></rect><rect fill="#EEEEEE" height="3.0" rx="0.6" ry="0.6" width="3.0" x="94.0" y="181.0"><title>2021-12-26</title></rect><rect fill="#EEEEEE" height="3.0" rx="0.6" ry="0.6" width="3.0" x="98.0" y="157.0"><title>2021-12-27</title></rect><rect fill="#EEEEEE" height="3.0" rx="0.6" ry="0.6" width="3.0" x="98.0" y="161.0"><title>2021-12-28</title></rect><rect fill="#EEEEEE" height="3.0" rx="0.6" ry="0.6" width="3.0" x="98.0" y="165.0"><title>2021-12-29</title></rect><rect fill="#EEEEEE" height="3.0" rx="0.6" ry="0.6" width="3.0" x="98.0" y="169.0"><title>2021-12-30</title></rect><rect fill="#EEEEEE" height="3.0" rx="0.6" ry="0.6" width="3.0" x="98.0" y="173.0"><title>2021-12-31</title></rect></g><text fill="#5A5A5A" style="font-size:12px; font-family:Arial; font-weight:bold;" x="0" y="20">年度跑步日历</text><text fill="#5A5A5A" style="font-size:4px; font-family:Arial" x="0" y="200">Runner</text><text fill="#5A5A5A" style="font-size:9px; font-family:Arial" x="0" y="210">Workouts</text><text fill="#5A5A5A" style="font-size:4px; font-family:Arial" x="0" y="200">SPECIAL TRACKS</text><rect fill="yellow" height="2.6" width="2.6" x="0" y="203" /><text fill="#5A5A5A" style="font-size:3px; font-family:Arial" x="0" y="205.5">Over 5.0 km</text><rect fill="red" height="2.6" width="2.6" x="0" y="207" /><text fill="#5A5A5A" style="font-size:3px; font-family:Arial" x="0" y="209.5">Over 10.0 km</text><text fill="#5A5A5A" style="font-size:4px; font-family:Arial" x="12" y="200">STATISTICS</text><text fill="#5A5A5A" style="font-size:3px; font-family:Arial" x="12" y="205">Number: 39 / 141</text><text fill="#5A5A5A" style="font-size:3px; font-family:Arial" x="12" y="210">Weekly: 1.50</text><text fill="#5A5A5A" style="font-size:3px; font-family:Arial" x="47" y="205">Total: 202.56 km / 708.43 km</text><text fill="#5A5A5A" style="font-size:3px; font-family:Arial" x="47" y="210">Avg: 5.19 km</text><text fill="#5A5A5A" style="font-size:3px; font-family:Arial" x="97" y="205">Min: 0.21 km</text><text fill="#5A5A5A" style="font-size:3px; font-family:Arial" x="97" y="210">Max: 20.22 km</text></svg>