<?xml version="1.0" encoding="utf-8" ?>
<svg baseProfile="full" height="220" version="1.1" viewBox="0 0 200 220" width="200" xmlns="http://www.w3.org/2000/svg" xmlns:ev="http://www.w3.org/2001/xml-events" xmlns:xlink="http://www.w3.org/1999/xlink"><defs /><rect fill="#FAF9F5" height="220" width="200" x="0" y="0" /><g id="tracks"><text fill="#5A5A5A" style="font-size:10px; font-family:Arial; font-weight:bold;" x="4" y="40">RUNNER'S</text><text fill="#5A5A5A" style="font-size:12px; font-family:Arial; font-weight:bold;" x="4" y="52">CALENDAR</text><text fill="#5A5A5A" style="font-size:36px; font-family:Arial; font-weight:bold;" x="4" y="90"><tspan fill="#5A5A5A" style="opacity: 0.2;">00</tspan><tspan>6</tspan></text><text fill="#5A5A5A" style="font-size:12px; font-family:Arial;" x="69" y="90">天</text><text fill="#5A5A5A" style="font-size:8px; font-family:Arial; font-weight:bold;" text-anchor="end" x="184" y="40">跑者年历</text><text fill="#5A5A5A" style="font-size:5px; font-family:Arial;" text-anchor="end" x="184" y="48">2026 Year</text><text fill="#5A5A5A" style="font-size:5px; font-family:Arial;" text-anchor="end" x="184" y="54">Annual Running Report</text><text fill="#5A5A5A" style="font-size:7px; font-family:Arial;" text-anchor="end" x="184" y="75"><tspan>今年运动 </tspan><tspan fill="#4DD2FF">6</tspan><tspan> 天 </tspan><tspan fill="#4DD2FF">6</tspan><tspan> 次</tspan></text><text fill="#5A5A5A" style="font-size:7px; font-family:Arial; opacity: 0.7;" text-anchor="end" x="184" y="88"><tspan>生涯累计运动 </tspan><tspan fill="#4DD2FF">885</tspan><tspan> 天 </tspan><tspan fill="#4DD2FF">1006</tspan><tspan> 次</tspan></text><text fill="#5A5A5A" style="font-size:8px; font-family:Arial; font-weight:bold;" x="4.0" y="105.0">1 月</text><rect fill="#ffd400" height="3.0" rx="0.6" ry="0.6" width="3.0" x="4.0" y="124.0"><title>2026-01-01 5.12 km</title></rect><rect fill="#EEEEEE" height="3.0" rx="0.6" ry="0.6" width="3.0" x="4.0" y="128.0"><title>2026-01-02</title></rect><rect fill="red" height="3.0" rx="0.6" ry="0.6" width="3.0" x="4.0" y="132.0"><title>2026-01-03 13.96 km</title></rect><rect fill="#EEEEEE" height="3.0" rx="0.6" ry="0.6" width="3.0" x="4.0" y="136.0"><title>2026-01-04</title></rect><rect fill="#ffd300" height="3.0" rx="0.6" ry="0.6" width="3.0" x="8.0" y="112.0"><title>2026-01-05 5.12 km</title></rect><rect fill="#EEEEEE" height="3.0" rx="0.6" ry="0.6" width="3.0" x="8.0" y="116.0"><title>2026-01-06</title></rect><rect fill="#EEEEEE" height="3.0" rx="0.6" ry="0.6" width="3.0" x="8.0" y="120.0"><title>2026-01-07</title></rect><rect fill="#EEEEEE" height="3.0" rx="0.6" ry="0.6" width="3.0" x="8.0" y="124.0"><title>2026-01-08</title></rect><rect fill="#4dd2ff" height="3.0" rx="0.6" ry="0.6" width="3.0" x="8.0" y="128.0"><title>2026-01-09 3.31 km</title></rect><rect fill="#EEEEEE" height="3.0" rx="0.6" ry="0.6" width="3.0" x="8.0" y="132.0"><title>2026-01-10</title></rect><rect fill="#ff6400" height="3.0" rx="0.6" ry="0.6" width="3.0" x="8.0" y="136.0"><title>2026-01-11 9.78 km</title></rect><rect fill="red" height="3.0" rx="0.6" ry="0.6" width="3.0" x="12.0" y="112.0"><title>2026-01-12 13.14 km</title></rect><rect fill="#EEEEEE" height="3.0" rx="0.6" ry="0.6" width="3.0" x="12.0" y="116.0"><title>2026-01-13</title></rect><rect fill="#EEEEEE" height="3.0" rx="0.6" ry="0.6" width="3.0" x="12.0" y="120.0"><title>2026-01-14</title></rect><rect fill="#EEEEEE" height="3.0" rx="0.6" ry="0.6" width="3.0" x="12.0" y="124.0"><title>2026-01-15</title></rect><rect fill="#EEEEEE" height="3.0" rx="0.6" ry="0.6" width="3.0" x="12.0" y="128.0"><title>2026-01-16</title></rect><rect fill="#EEEEEE" height="3.0" rx="0.6" ry="0.6" width="3.0" x="12.0" y="132.0"><title>2026-01-17</title></rect><rect fill="#EEEEEE" height="3.0" rx="0.6" ry="0.6" width="3.0" x="12.0" y="136.0"><title>2026-01-18</title></rect><rect fill="#EEEEEE" height="3.0" rx="0.6" ry="0.6" width="3.0" x="16.0" y="112.0"><title>2026-01-19</title></rect><rect fill="#EEEEEE" height="3.0" rx="0.6" ry="0.6" width="3.0" x="16.0" y="116.0"><title>2026-01-20</title></rect><rect fill="#EEEEEE" height="3.0" rx="0.6" ry="0.6" width="3.0" x="16.0" y="120.0"><title>2026-01-21</title></rect><rect fill="#EEEEEE" height="3.0" rx="0.6" ry="0.6" width="3.0" x="16.0" y="124.0"><title>2026-01-22</title></rect><rect fill="#EEEEEE" height="3.0" rx="0.6" ry="0.6" width="3.0" x="16.0" y="128.0"><title>2026-01-23</title></rect><rect fill="#EEEEEE" height="3.0" rx="0.6" ry="0.6" width="3.0" x="16.0" y="132.0"><title>2026-01-24</title></rect><rect fill="#EEEEEE" height="3.0" rx="0.6" ry="0.6" width="3.0" x="16.0" y="136.0"><title>2026-01-25</title></rect><rect fill="#EEEEEE" height="3.0" rx="0.6" ry="0.6" width="3.0" x="20.0" y="112.0"><title>2026-01-26</title></rect><rect fill="#EEEEEE" height="3.0" rx="0.6" ry="0.6" width="3.0" x="20.0" y="116.0"><title>2026-01-27</title></rect><rect fill="#EEEEEE" height="3.0" rx="0.6" ry="0.6" width="3.0" x="20.0" y="120.0"><title>2026-01-28</title></rect><rect fill="#EEEEEE" height="3.0" rx="0.6" ry="0.6" width="3.0" x="20.0" y="124.0"><title>2026-01-29</title></rect><rect fill="#EEEEEE" height="3.0" rx="0.6" ry="0.6" width="3.0" x="20.0" y="128.0"><title>2026-01-30</title></rect><rect fill="#EEEEEE" height="3.0" rx="0.6" ry="0.6" width="3.0" x="20.0" y="132.0"><title>2026-01-31</title></rect><text fill="#5A5A5A" style="font-size:8px; font-family:Arial; font-weight:bold;" x="34.0" y="105.0">2 月</text><rect fill="#EEEEEE" height="3.0" rx="0.6" ry="0.6" width="3.0" x="34.0" y="136.0"><title>2026-02-01</title></rect><rect fill="#EEEEEE" height="3.0" rx="0.6" ry="0.6" width="3.0" x="38.0" y="112.0"><title>2026-02-02</title></rect><rect fill="#EEEEEE" height="3.0" rx="0.6" ry="0.6" width="3.0" x="38.0" y="116.0"><title>2026-02-03</title></rect><rect fill="#EEEEEE" height="3.0" rx="0.6" ry="0.6" width="3.0" x="38.0" y="120.0"><title>2026-02-04</title></rect><rect fill="#EEEEEE" height="3.0" rx="0.6" ry="0.6" width="3.0" x="38.0" y="124.0"><title>2026-02-05</title></rect><rect fill="#EEEEEE" height="3.0" rx="0.6" ry="0.6" width="3.0" x="38.0" y="128.0"><title>2026-02-06</title></rect><rect fill="#EEEEEE" height="3.0" rx="0.6" ry="0.6" width="3.0" x="38.0" y="132.0"><title>2026-02-07</title></rect><rect fill="#EEEEEE" height="3.0" rx="0.6" ry="0.6" width="3.0" x="38.0" y="136.0"><title>2026-02-08</title></rect><rect fill="#EEEEEE" height="3.0" rx="0.6" ry="0.6" width="3.0" x="42.0" y="112.0"><title>2026-02-09</title></rect><rect fill="#EEEEEE" height="3.0" rx="0.6" ry="0.6" width="3.0" x="42.0" y="116.0"><title>2026-02-10</title></rect><rect fill="#EEEEEE" height="3.0" rx="0.6" ry="0.6" width="3.0" x="42.0" y="120.0"><title>2026-02-11</title></rect><rect fill="#EEEEEE" height="3.0" rx="0.6" ry="0.6" width="3.0" x="42.0" y="124.0"><title>2026-02-12</title></rect><rect fill="#EEEEEE" height="3.0" rx="0.6" ry="0.6" width="3.0" x="42.0" y="128.0"><title>2026-02-13</title></rect><rect fill="#EEEEEE" height="3.0" rx="0.6" ry="0.6" width="3.0" x="42.0" y="132.0"><title>2026-02-14</title></rect><rect fill="#EEEEEE" height="3.0" rx="0.6" ry="0.6" width="3.0" x="42.0" y="136.0"><title>2026-02-15</title></rect><rect fill="#EEEEEE" height="3.0" rx="0.6" ry="0.6" width="3.0" x="46.0" y="112.0"><title>2026-02-16</title></rect><rect fill="#EEEEEE" height="3.0" rx="0.6" ry="0.6" width="3.0" x="46.0" y="116.0"><title>2026-02-17</title></rect><rect fill="#EEEEEE" height="3.0" rx="0.6" ry="0.6" width="3.0" x="46.0" y="120.0"><title>2026-02-18</title></rect><rect fill="#EEEEEE" height="3.0" rx="0.6" ry="0.6" width="3.0" x="46.0" y="124.0"><title>2026-02-19</title></rect><rect fill="#EEEEEE" height="3.0" rx="0.6" ry="0.6" width="3.0" x="46.0" y="128.0"><title>2026-02-20</title></rect><rect fill="#EEEEEE" height="3.0" rx="0.6" ry="0.6" width="3.0" x="46.0" y="132.0"><title>2026-02-21</title></rect><rect fill="#EEEEEE" height="3.0" rx="0.6" ry="0.6" width="3.0" x="46.0" y="136.0"><title>2026-02-22</title></rect><rect fill="#EEEEEE" height="3.0" rx="0.6" ry="0.6" width="3.0" x="50.0" y="112.0"><title>2026-02-23</title></rect><rect fill="#EEEEEE" height="3.0" rx="0.6" ry="0.6" width="3.0" x="50.0" y="116.0"><title>2026-02-24</title></rect><rect fill="#EEEEEE" height="3.0" rx="0.6" ry="0.6" width="3.0" x="50.0" y="120.0"><title>2026-02-25</title></rect><rect fill="#EEEEEE" height="3.0" rx="0.6" ry="0.6" width="3.0" x="50.0" y="124.0"><title>2026-02-26</title></rect><rect fill="#EEEEEE" height="3.0" rx="0.6" ry="0.6" width="3.0" x="50.0" y="128.0"><title>2026-02-27</title></rect><rect fill="#EEEEEE" height="3.0" rx="0.6" ry="0.6" width="3.0" x="50.0" y="132.0"><title>2026-02-28</title></rect><text fill="#5A5A5A" style="font-size:8px; font-family:Arial; font-weight:bold;" x="64.0" y="105.0">3 月</text><rect fill="#EEEEEE" height="3.0" rx="0.6" ry="0.6" width="3.0" x="64.0" y="136.0"><title>2026-03-01</title></rect><rect fill="#EEEEEE" height="3.0" rx="0.6" ry="0.6" width="3.0" x="68.0" y="112.0"><title>2026-03-02</title></rect><rect fill="#EEEEEE" height="3.0" rx="0.6" ry="0.6" width="3.0" x="68.0" y="116.0"><title>2026-03-03</title></rect><rect fill="#EEEEEE" height="3.0" rx="0.6" ry="0.6" width="3.0" x="68.0" y="120.0"><title>2026-03-04</title></rect><rect fill="#EEEEEE" height="3.0" rx="0.6" ry="0.6" width="3.0" x="68.0" y="124.0"><title>2026-03-05</title></rect><rect fill="#EEEEEE" height="3.0" rx="0.6" ry="0.6" width="3.0" x="68.0" y="128.0"><title>2026-03-06</title></rect><rect fill="#EEEEEE" height="3.0" rx="0.6" ry="0.6" width="3.0" x="68.0" y="132.0"><title>2026-03-07</title></rect><rect fill="#EEEEEE" height="3.0" rx="0.6" ry="0.6" width="3.0" x="68.0" y="136.0"><title>2026-03-08</title></rect><rect fill="#EEEEEE" height="3.0" rx="0.6" ry="0.6" width="3.0" x="72.0" y="112.0"><title>2026-03-09</title></rect><rect fill="#EEEEEE" height="3.0" rx="0.6" ry="0.6" width="3.0" x="72.0" y="116.0"><title>2026-03-10</title></rect><rect fill="#EEEEEE" height="3.0" rx="0.6" ry="0.6" width="3.0" x="72.0" y="120.0"><title>2026-03-11</title></rect><rect fill="#EEEEEE" height="3.0" rx="0.6" ry="0.6" width="3.0" x="72.0" y="124.0"><title>2026-03-12</title></rect><rect fill="#EEEEEE" height="3.0" rx="0.6" ry="0.6" width="3.0" x="72.0" y="128.0"><title>2026-03-13</title></rect><rect fill="#EEEEEE" height="3.0" rx="0.6" ry="0.6" width="3.0" x="72.0" y="132.0"><title>2026-03-14</title></rect><rect fill="#EEEEEE" height="3.0" rx="0.6" ry="0.6" width="3.0" x="72.0" y="136.0"><title>2026-03-15</title></rect><rect fill="#EEEEEE" height="3.0" rx="0.6" ry="0.6" width="3.0" x="76.0" y="112.0"><title>2026-03-16</title></rect><rect fill="#EEEEEE" height="3.0" rx="0.6" ry="0.6" width="3.0" x="76.0" y="116.0"><title>2026-03-17</title></rect><rect fill="#EEEEEE" height="3.0" rx="0.6" ry="0.6" width="3.0" x="76.0" y="120.0"><title>2026-03-18</title></rect><rect fill="#EEEEEE" height="3.0" rx="0.6" ry="0.6" width="3.0" x="76.0" y="124.0"><title>2026-03-19</title></rect><rect fill="#EEEEEE" height="3.0" rx="0.6" ry="0.6" width="3.0" x="76.0" y="128.0"><title>2026-03-20</title></rect><rect fill="#EEEEEE" height="3.0" rx="0.6" ry="0.6" width="3.0" x="76.0" y="132.0"><title>2026-03-21</title></rect><rect fill="#EEEEEE" height="3.0" rx="0.6" ry="0.6" width="3.0" x="76.0" y="136.0"><title>2026-03-22</title></rect><rect fill="#EEEEEE" height="3.0" rx="0.6" ry="0.6" width="3.0" x="80.0" y="112.0"><title>2026-03-23</title></rect><rect fill="#EEEEEE" height="3.0" rx="0.6" ry="0.6" width="3.0" x="80.0" y="116.0"><title>2026-03-24</title></rect><rect fill="#EEEEEE" height="3.0" rx="0.6" ry="0.6" width="3.0" x="80.0" y="120.0"><title>2026-03-25</title></rect><rect fill="#EEEEEE" height="3.0" rx="0.6" ry="0.6" width="3.0" x="80.0" y="124.0"><title>2026-03-26</title></rect><rect fill="#EEEEEE" height="3.0" rx="0.6" ry="0.6" width="3.0" x="80.0" y="128.0"><title>2026-03-27</title></rect><rect fill="#EEEEEE" height="3.0" rx="0.6" ry="0.6" width="3.0" x="80.0" y="132.0"><title>2026-03-28</title></rect><rect fill="#EEEEEE" height="3.0" rx="0.6" ry="0.6" width="3.0" x="80.0" y="136.0"><title>2026-03-29</title></rect><rect fill="#EEEEEE" height="3.0" rx="0.6" ry="0.6" width="3.0" x="84.0" y="112.0"><title>2026-03-30</title></rect><rect fill="#EEEEEE" height="3.0" rx="0.6" ry="0.6" width="3.0" x="84.0" y="116.0"><title>2026-03-31</title></rect><text fill="#5A5A5A" style="font-size:8px; font-family:Arial; font-weight:bold;" x="94.0" y="105.0">4 月</text><rect fill="#EEEEEE" height="3.0" rx="0.6" ry="0.6" width="3.0" x="94.0" y="120.0"><title>2026-04-01</title></rect><rect fill="#EEEEEE" height="3.0" rx="0.6" ry="0.6" width="3.0" x="94.0" y="124.0"><title>2026-04-02</title></rect><rect fill="#EEEEEE" height="3.0" rx="0.6" ry="0.6" width="3.0" x="94.0" y="128.0"><title>2026-04-03</title></rect><rect fill="#EEEEEE" height="3.0" rx="0.6" ry="0.6" width="3.0" x="94.0" y="132.0"><title>2026-04-04</title></rect><rect fill="#EEEEEE" height="3.0" rx="0.6" ry="0.6" width="3.0" x="94.0" y="136.0"><title>2026-04-05</title></rect><rect fill="#EEEEEE" height="3.0" rx="0.6" ry="0.6" width="3.0" x="98.0" y="112.0"><title>2026-04-06</title></rect><rect fill="#EEEEEE" height="3.0" rx="0.6" ry="0.6" width="3.0" x="98.0" y="116.0"><title>2026-04-07</title></rect><rect fill="#EEEEEE" height="3.0" rx="0.6" ry="0.6" width="3.0" x="98.0" y="120.0"><title>2026-04-08</title></rect><rect fill="#EEEEEE" height="3.0" rx="0.6" ry="0.6" width="3.0" x="98.0" y="124.0"><title>2026-04-09</title></rect><rect fill="#EEEEEE" height="3.0" rx="0.6" ry="0.6" width="3.0" x="98.0" y="128.0"><title>2026-04-10</title></rect><rect fill="#EEEEEE" height="3.0" rx="0.6" ry="0.6" width="3.0" x="98.0" y="132.0"><title>2026-04-11</title></rect><rect fill="#EEEEEE" height="3.0" rx="0.6" ry="0.6" width="3.0" x="98.0" y="136.0"><title>2026-04-12</title></rect><rect fill="#EEEEEE" height="3.0" rx="0.6" ry="0.6" width="3.0" x="102.0" y="112.0"><title>2026-04-13</title></rect><rect fill="#EEEEEE" height="3.0" rx="0.6" ry="0.6" width="3.0" x="102.0" y="116.0"><title>2026-04-14</title></rect><rect fill="#EEEEEE" height="3.0" rx="0.6" ry="0.6" width="3.0" x="102.0" y="120.0"><title>2026-04-15</title></rect><rect fill="#EEEEEE" height="3.0" rx="0.6" ry="0.6" width="3.0" x="102.0" y="124.0"><title>2026-04-16</title></rect><rect fill="#EEEEEE" height="3.0" rx="0.6" ry="0.6" width="3.0" x="102.0" y="128.0"><title>2026-04-17</title></rect><rect fill="#EEEEEE" height="3.0" rx="0.6" ry="0.6" width="3.0" x="102.0" y="132.0"><title>2026-04-18</title></rect><rect fill="#EEEEEE" height="3.0" rx="0.6" ry="0.6" width="3.0" x="102.0" y="136.0"><title>2026-04-19</title></rect><rect fill="#EEEEEE" height="3.0" rx="0.6" ry="0.6" width="3.0" x="106.0" y="112.0"><title>2026-04-20</title></rect><rect fill="#EEEEEE" height="3.0" rx="0.6" ry="0.6" width="3.0" x="106.0" y="116.0"><title>2026-04-21</title></rect><rect fill="#EEEEEE" height="3.0" rx="0.6" ry="0.6" width="3.0" x="106.0" y="120.0"><title>2026-04-22</title></rect><rect fill="#EEEEEE" height="3.0" rx="0.6" ry="0.6" width="3.0" x="106.0" y="124.0"><title>2026-04-23</title></rect><rect fill="#EEEEEE" height="3.0" rx="0.6" ry="0.6" width="3.0" x="106.0" y="128.0"><title>2026-04-24</title></rect><rect fill="#EEEEEE" height="3.0" rx="0.6" ry="0.6" width="3.0" x="106.0" y="132.0"><title>2026-04-25</title></rect><rect fill="#EEEEEE" height="3.0" rx="0.6" ry="0.6" width="3.0" x="106.0" y="136.0"><title>2026-04-26</title></rect><rect fill="#EEEEEE" height="3.0" rx="0.6" ry="0.6" width="3.0" x="110.0" y="112.0"><title>2026-04-27</title></rect><rect fill="#EEEEEE" height="3.0" rx="0.6" ry="0.6" width="3.0" x="110.0" y="116.0"><title>2026-04-28</title></rect><rect fill="#EEEEEE" height="3.0" rx="0.6" ry="0.6" width="3.0" x="110.0" y="120.0"><title>2026-04-29</title></rect><rect fill="#EEEEEE" height="3.0" rx="0.6" ry="0.6" width="3.0" x="110.0" y="124.0"><title>2026-04-30</title></rect><text fill="#5A5A5A" style="font-size:8px; font-family:Arial; font-weight:bold;" x="124.0" y="105.0">5 月</text><rect fill="#EEEEEE" height="3.0" rx="0.6" ry="0.6" width="3.0" x="124.0" y="128.0"><title>2026-05-01</title></rect><rect fill="#EEEEEE" height="3.0" rx="0.6" ry="0.6" width="3.0" x="124.0" y="132.0"><title>2026-05-02</title></rect><rect fill="#EEEEEE" height="3.0" rx="0.6" ry="0.6" width="3.0" x="124.0" y="136.0"><title>2026-05-03</title></rect><rect fill="#EEEEEE" height="3.0" rx="0.6" ry="0.6" width="3.0" x="128.0" y="112.0"><title>2026-05-04</title></rect><rect fill="#EEEEEE" height="3.0" rx="0.6" ry="0.6" width="3.0" x="128.0" y="116.0"><title>2026-05-05</title></rect><rect fill="#EEEEEE" height="3.0" rx="0.6" ry="0.6" width="3.0" x="128.0" y="120.0"><title>2026-05-06</title></rect><rect fill="#EEEEEE" height="3.0" rx="0.6" ry="0.6" width="3.0" x="128.0" y="124.0"><title>2026-05-07</title></rect><rect fill="#EEEEEE" height="3.0" rx="0.6" ry="0.6" width="3.0" x="128.0" y="128.0"><title>2026-05-08</title></rect><rect fill="#EEEEEE" height="3.0" rx="0.6" ry="0.6" width="3.0" x="128.0" y="132.0"><title>2026-05-09</title></rect><rect fill="#EEEEEE" height="3.0" rx="0.6" ry="0.6" width="3.0" x="128.0" y="136.0"><title>2026-05-10</title></rect><rect fill="#EEEEEE" height="3.0" rx="0.6" ry="0.6" width="3.0" x="132.0" y="112.0"><title>2026-05-11</title></rect><rect fill="#EEEEEE" height="3.0" rx="0.6" ry="0.6" width="3.0" x="132.0" y="116.0"><title>2026-05-12</title></rect><rect fill="#EEEEEE" height="3.0" rx="0.6" ry="0.6" width="3.0" x="132.0" y="120.0"><title>2026-05-13</title></rect><rect fill="#EEEEEE" height="3.0" rx="0.6" ry="0.6" width="3.0" x="132.0" y="124.0"><title>2026-05-14</title></rect><rect fill="#EEEEEE" height="3.0" rx="0.6" ry="0.6" width="3.0" x="132.0" y="128.0"><title>2026-05-15</title></rect><rect fill="#EEEEEE" height="3.0" rx="0.6" ry="0.6" width="3.0" x="132.0" y="132.0"><title>2026-05-16</title></rect><rect fill="#EEEEEE" height="3.0" rx="0.6" ry="0.6" width="3.0" x="132.0" y="136.0"><title>2026-05-17</title></rect><rect fill="#EEEEEE" height="3.0" rx="0.6" ry="0.6" width="3.0" x="136.0" y="112.0"><title>2026-05-18</title></rect><rect fill="#EEEEEE" height="3.0" rx="0.6" ry="0.6" width="3.0" x="136.0" y="116.0"><title>2026-05-19</title></rect><rect fill="#EEEEEE" height="3.0" rx="0.6" ry="0.6" width="3.0" x="136.0" y="120.0"><title>2026-05-20</title></rect><rect fill="#EEEEEE" height="3.0" rx="0.6" ry="0.6" width="3.0" x="136.0" y="124.0"><title>2026-05-21</title></rect><rect fill="#EEEEEE" height="3.0" rx="0.6" ry="0.6" width="3.0" x="136.0" y="128.0"><title>2026-05-22</title></rect><rect fill="#EEEEEE" height="3.0" rx="0.6" ry="0.6" width="3.0" x="136.0" y="132.0"><title>2026-05-23</title></rect><rect fill="#EEEEEE" height="3.0" rx="0.6" ry="0.6" width="3.0" x="136.0" y="136.0"><title>2026-05-24</title></rect><rect fill="#EEEEEE" height="3.0" rx="0.6" ry="0.6" width="3.0" x="140.0" y="112.0"><title>2026-05-25</title></rect><rect fill="#EEEEEE" height="3.0" rx="0.6" ry="0.6" width="3.0" x="140.0" y="116.0"><title>2026-05-26</title></rect><rect fill="#EEEEEE" height="3.0" rx="0.6" ry="0.6" width="3.0" x="140.0" y="120.0"><title>2026-05-27</title></rect><rect fill="#EEEEEE" height="3.0" rx="0.6" ry="0.6" width="3.0" x="140.0" y="124.0"><title>2026-05-28</title></rect><rect fill="#EEEEEE" height="3.0" rx="0.6" ry="0.6" width="3.0" x="140.0" y="128.0"><title>2026-05-29</title></rect><rect fill="#EEEEEE" height="3.0" rx="0.6" ry="0.6" width="3.0" x="140.0" y="132.0"><title>2026-05-30</title></rect><rect fill="#EEEEEE" height="3.0" rx="0.6" ry="0.6" width="3.0" x="140.0" y="136.0"><title>2026-05-31</title></rect><text fill="#5A5A5A" style="font-size:8px; font-family:Arial; font-weight:bold;" x="154.0" y="105.0">6 月</text><rect fill="#EEEEEE" height="3.0" rx="0.6" ry="0.6" width="3.0" x="158.0" y="112.0"><title>2026-06-01</title></rect><rect fill="#EEEEEE" height="3.0" rx="0.6" ry="0.6" width="3.0" x="158.0" y="116.0"><title>2026-06-02</title></rect><rect fill="#EEEEEE" height="3.0" rx="0.6" ry="0.6" width="3.0" x="158.0" y="120.0"><title>2026-06-03</title></rect><rect fill="#EEEEEE" height="3.0" rx="0.6" ry="0.6" width="3.0" x="158.0" y="124.0"><title>2026-06-04</title></rect><rect fill="#EEEEEE" height="3.0" rx="0.6" ry="0.6" width="3.0" x="158.0" y="128.0"><title>2026-06-05</title></rect><rect fill="#EEEEEE" height="3.0" rx="0.6" ry="0.6" width="3.0" x="158.0" y="132.0"><title>2026-06-06</title></rect><rect fill="#EEEEEE" height="3.0" rx="0.6" ry="0.6" width="3.0" x="158.0" y="136.0"><title>2026-06-07</title></rect><rect fill="#EEEEEE" height="3.0" rx="0.6" ry="0.6" width="3.0" x="162.0" y="112.0"><title>2026-06-08</title></rect><rect fill="#EEEEEE" height="3.0" rx="0.6" ry="0.6" width="3.0" x="162.0" y="116.0"><title>2026-06-09</title></rect><rect fill="#EEEEEE" height="3.0" rx="0.6" ry="0.6" width="3.0" x="162.0" y="120.0"><title>2026-06-10</title></rect><rect fill="#EEEEEE" height="3.0" rx="0.6" ry="0.6" width="3.0" x="162.0" y="124.0"><title>2026-06-11</title></rect><rect fill="#EEEEEE" height="3.0" rx="0.6" ry="0.6" width="3.0" x="162.0" y="128.0"><title>2026-06-12</title></rect><rect fill="#EEEEEE" height="3.0" rx="0.6" ry="0.6" width="3.0" x="162.0" y="132.0"><title>2026-06-13</title></rect><rect fill="#EEEEEE" height="3.0" rx="0.6" ry="0.6" width="3.0" x="162.0" y="136.0"><title>2026-06-14</title></rect><rect fill="#EEEEEE" height="3.0" rx="0.6" ry="0.6" width="3.0" x="166.0" y="112.0"><title>2026-06-15</title></rect><rect fill="#EEEEEE" height="3.0" rx="0.6" ry="0.6" width="3.0" x="166.0" y="116.0"><title>2026-06-16</title></rect><rect fill="#EEEEEE" height="3.0" rx="0.6" ry="0.6" width="3.0" x="166.0" y="120.0"><title>2026-06-17</title></rect><rect fill="#EEEEEE" height="3.0" rx="0.6" ry="0.6" width="3.0" x="166.0" y="124.0"><title>2026-06-18</title></rect><rect fill="#EEEEEE" height="3.0" rx="0.6" ry="0.6" width="3.0" x="166.0" y="128.0"><title>2026-06-19</title></rect><rect fill="#EEEEEE" height="3.0" rx="0.6" ry="0.6" width="3.0" x="166.0" y="132.0"><title>2026-06-20</title></rect><rect fill="#EEEEEE" height="3.0" rx="0.6" ry="0.6" width="3.0" x="166.0" y="136.0"><title>2026-06-21</title></rect><rect fill="#EEEEEE" height="3.0" rx="0.6" ry="0.6" width="3.0" x="170.0" y="112.0"><title>2026-06-22</title></rect><rect fill="#EEEEEE" height="3.0" rx="0.6" ry="0.6" width="3.0" x="170.0" y="116.0"><title>2026-06-23</title></rect><rect fill="#EEEEEE" height="3.0" rx="0.6" ry="0.6" width="3.0" x="170.0" y="120.0"><title>2026-06-24</title></rect><rect fill="#EEEEEE" height="3.0" rx="0.6" ry="0.6" width="3.0" x="170.0" y="124.0"><title>2026-06-25</title></rect><rect fill="#EEEEEE" height="3.0" rx="0.6" ry="0.6" width="3.0" x="170.0" y="128.0"><title>2026-06-26</title></rect><rect fill="#EEEEEE" height="3.0" rx="0.6" ry="0.6" width="3.0" x="170.0" y="132.0"><title>2026-06-27</title></rect><rect fill="#EEEEEE" height="3.0" rx="0.6" ry="0.6" width="3.0" x="170.0" y="136.0"><title>2026-06-28</title></rect><rect fill="#EEEEEE" height="3.0" rx="0.6" ry="0.6" width="3.0" x="174.0" y="112.0"><title>2026-06-29</title></rect><rect fill="#EEEEEE" height="3.0" rx="0.6" ry="0.6" width="3.0" x="174.0" y="116.0"><title>2026-06-30</title></rect><text fill="#5A5A5A" style="font-size:8px; font-family:Arial; font-weight:bold;" x="4.0" y="150.0">7 月</text><rect fill="#EEEEEE" height="3.0" rx="0.6" ry="0.6" width="3.0" x="4.0" y="165.0"><title>2026-07-01</title></rect><rect fill="#EEEEEE" height="3.0" rx="0.6" ry="0.6" width="3.0" x="4.0" y="169.0"><title>2026-07-02</title></rect><rect fill="#EEEEEE" height="3.0" rx="0.6" ry="0.6" width="3.0" x="4.0" y="173.0"><title>2026-07-03</title></rect><rect fill="#EEEEEE" height="3.0" rx="0.6" ry="0.6" width="3.0" x="4.0" y="177.0"><title>2026-07-04</title></rect><rect fill="#EEEEEE" height="3.0" rx="0.6" ry="0.6" width="3.0" x="4.0" y="181.0"><title>2026-07-05</title></rect><rect fill="#EEEEEE" height="3.0" rx="0.6" ry="0.6" width="3.0" x="8.0" y="157.0"><title>2026-07-06</title></rect><rect fill="#EEEEEE" height="3.0" rx="0.6" ry="0.6" width="3.0" x="8.0" y="161.0"><title>2026-07-07</title></rect><rect fill="#EEEEEE" height="3.0" rx="0.6" ry="0.6" width="3.0" x="8.0" y="165.0"><title>2026-07-08</title></rect><rect fill="#EEEEEE" height="3.0" rx="0.6" ry="0.6" width="3.0" x="8.0" y="169.0"><title>2026-07-09</title></rect><rect fill="#EEEEEE" height="3.0" rx="0.6" ry="0.6" width="3.0" x="8.0" y="173.0"><title>2026-07-10</title></rect><rect fill="#EEEEEE" height="3.0" rx="0.6" ry="0.6" width="3.0" x="8.0" y="177.0"><title>2026-07-11</title></rect><rect fill="#EEEEEE" height="3.0" rx="0.6" ry="0.6" width="3.0" x="8.0" y="181.0"><title>2026-07-12</title></rect><rect fill="#EEEEEE" height="3.0" rx="0.6" ry="0.6" width="3.0" x="12.0" y="157.0"><title>2026-07-13</title></rect><rect fill="#EEEEEE" height="3.0" rx="0.6" ry="0.6" width="3.0" x="12.0" y="161.0"><title>2026-07-14</title></rect><rect fill="#EEEEEE" height="3.0" rx="0.6" ry="0.6" width="3.0" x="12.0" y="165.0"><title>2026-07-15</title></rect><rect fill="#EEEEEE" height="3.0" rx="0.6" ry="0.6" width="3.0" x="12.0" y="169.0"><title>2026-07-16</title></rect><rect fill="#EEEEEE" height="3.0" rx="0.6" ry="0.6" width="3.0" x="12.0" y="173.0"><title>2026-07-17</title></rect><rect fill="#EEEEEE" height="3.0" rx="0.6" ry="0.6" width="3.0" x="12.0" y="177.0"><title>2026-07-18</title></rect><rect fill="#EEEEEE" height="3.0" rx="0.6" ry="0.6" width="3.0" x="12.0" y="181.0"><title>2026-07-19</title></rect><rect fill="#EEEEEE" height="3.0" rx="0.6" ry="0.6" width="3.0" x="16.0" y="157.0"><title>2026-07-20</title></rect><rect fill="#EEEEEE" height="3.0" rx="0.6" ry="0.6" width="3.0" x="16.0" y="161.0"><title>2026-07-21</title></rect><rect fill="#EEEEEE" height="3.0" rx="0.6" ry="0.6" width="3.0" x="16.0" y="165.0"><title>2026-07-22</title></rect><rect fill="#EEEEEE" height="3.0" rx="0.6" ry="0.6" width="3.0" x="16.0" y="169.0"><title>2026-07-23</title></rect><rect fill="#EEEEEE" height="3.0" rx="0.6" ry="0.6" width="3.0" x="16.0" y="173.0"><title>2026-07-24</title></rect><rect fill="#EEEEEE" height="3.0" rx="0.6" ry="0.6" width="3.0" x="16.0" y="177.0"><title>2026-07-25</title></rect><rect fill="#EEEEEE" height="3.0" rx="0.6" ry="0.6" width="3.0" x="16.0" y="181.0"><title>2026-07-26</title></rect><rect fill="#EEEEEE" height="3.0" rx="0.6" ry="0.6" width="3.0" x="20.0" y="157.0"><title>2026-07-27</title></rect><rect fill="#EEEEEE" height="3.0" rx="0.6" ry="0.6" width="3.0" x="20.0" y="161.0"><title>2026-07-28</title></rect><rect fill="#EEEEEE" height="3.0" rx="0.6" ry="0.6" width="3.0" x="20.0" y="165.0"><title>2026-07-29</title></rect><rect fill="#EEEEEE" height="3.0" rx="0.6" ry="0.6" width="3.0" x="20.0" y="169.0"><title>2026-07-30</title></rect><rect fill="#EEEEEE" height="3.0" rx="0.6" ry="0.6" width="3.0" x="20.0" y="173.0"><title>2026-07-31</title></rect><text fill="#5A5A5A" style="font-size:8px; font-family:Arial; font-weight:bold;" x="34.0" y="150.0">8 月</text><rect fill="#EEEEEE" height="3.0" rx="0.6" ry="0.6" width="3.0" x="34.0" y="177.0"><title>2026-08-01</title></rect><rect fill="#EEEEEE" height="3.0" rx="0.6" ry="0.6" width="3.0" x="34.0" y="181.0"><title>2026-08-02</title></rect><rect fill="#EEEEEE" height="3.0" rx="0.6" ry="0.6" width="3.0" x="38.0" y="157.0"><title>2026-08-03</title></rect><rect fill="#EEEEEE" height="3.0" rx="0.6" ry="0.6" width="3.0" x="38.0" y="161.0"><title>2026-08-04</title></rect><rect fill="#EEEEEE" height="3.0" rx="0.6" ry="0.6" width="3.0" x="38.0" y="165.0"><title>2026-08-05</title></rect><rect fill="#EEEEEE" height="3.0" rx="0.6" ry="0.6" width="3.0" x="38.0" y="169.0"><title>2026-08-06</title></rect><rect fill="#EEEEEE" height="3.0" rx="0.6" ry="0.6" width="3.0" x="38.0" y="173.0"><title>2026-08-07</title></rect><rect fill="#EEEEEE" height="3.0" rx="0.6" ry="0.6" width="3.0" x="38.0" y="177.0"><title>2026-08-08</title></rect><rect fill="#EEEEEE" height="3.0" rx="0.6" ry="0.6" width="3.0" x="38.0" y="181.0"><title>2026-08-09</title></rect><rect fill="#EEEEEE" height="3.0" rx="0.6" ry="0.6" width="3.0" x="42.0" y="157.0"><title>2026-08-10</title></rect><rect fill="#EEEEEE" height="3.0" rx="0.6" ry="0.6" width="3.0" x="42.0" y="161.0"><title>2026-08-11</title></rect><rect fill="#EEEEEE" height="3.0" rx="0.6" ry="0.6" width="3.0" x="42.0" y="165.0"><title>2026-08-12</title></rect><rect fill="#EEEEEE" height="3.0" rx="0.6" ry="0.6" width="3.0" x="42.0" y="169.0"><title>2026-08-13</title></rect><rect fill="#EEEEEE" height="3.0" rx="0.6" ry="0.6" width="3.0" x="42.0" y="173.0"><title>2026-08-14</title></rect><rect fill="#EEEEEE" height="3.0" rx="0.6" ry="0.6" width="3.0" x="42.0" y="177.0"><title>2026-08-15</title></rect><rect fill="#EEEEEE" height="3.0" rx="0.6" ry="0.6" width="3.0" x="42.0" y="181.0"><title>2026-08-16</title></rect><rect fill="#EEEEEE" height="3.0" rx="0.6" ry="0.6" width="3.0" x="46.0" y="157.0"><title>2026-08-17</title></rect><rect fill="#EEEEEE" height="3.0" rx="0.6" ry="0.6" width="3.0" x="46.0" y="161.0"><title>2026-08-18</title></rect><rect fill="#EEEEEE" height="3.0" rx="0.6" ry="0.6" width="3.0" x="46.0" y="165.0"><title>2026-08-19</title></rect><rect fill="#EEEEEE" height="3.0" rx="0.6" ry="0.6" width="3.0" x="46.0" y="169.0"><title>2026-08-20</title></rect><rect fill="#EEEEEE" height="3.0" rx="0.6" ry="0.6" width="3.0" x="46.0" y="173.0"><title>2026-08-21</title></rect><rect fill="#EEEEEE" height="3.0" rx="0.6" ry="0.6" width="3.0" x="46.0" y="177.0"><title>2026-08-22</title></rect><rect fill="#EEEEEE" height="3.0" rx="0.6" ry="0.6" width="3.0" x="46.0" y="181.0"><title>2026-08-23</title></rect><rect fill="#EEEEEE" height="3.0" rx="0.6" ry="0.6" width="3.0" x="50.0" y="157.0"><title>2026-08-24</title></rect><rect fill="#EEEEEE" height="3.0" rx="0.6" ry="0.6" width="3.0" x="50.0" y="161.0"><title>2026-08-25</title></rect><rect fill="#EEEEEE" height="3.0" rx="0.6" ry="0.6" width="3.0" x="50.0" y="165.0"><title>2026-08-26</title></rect><rect fill="#EEEEEE" height="3.0" rx="0.6" ry="0.6" width="3.0" x="50.0" y="169.0"><title>2026-08-27</title></rect><rect fill="#EEEEEE" height="3.0" rx="0.6" ry="0.6" width="3.0" x="50.0" y="173.0"><title>2026-08-28</title></rect><rect fill="#EEEEEE" height="3.0" rx="0.6" ry="0.6" width="3.0" x="50.0" y="177.0"><title>2026-08-29</title></rect><rect fill="#EEEEEE" height="3.0" rx="0.6" ry="0.6" width="3.0" x="50.0" y="181.0"><title>2026-08-30</title></rect><rect fill="#EEEEEE" height="3.0" rx="0.6" ry="0.6" width="3.0" x="54.0" y="157.0"><title>2026-08-31</title></rect><text fill="#5A5A5A" style="font-size:8px; font-family:Arial; font-weight:bold;" x="64.0" y="150.0">9 月</text><rect fill="#EEEEEE" height="3.0" rx="0.6" ry="0.6" width="3.0" x="64.0" y="161.0"><title>2026-09-01</title></rect><rect fill="#EEEEEE" height="3.0" rx="0.6" ry="0.6" width="3.0" x="64.0" y="165.0"><title>2026-09-02</title></rect><rect fill="#EEEEEE" height="3.0" rx="0.6" ry="0.6" width="3.0" x="64.0" y="169.0"><title>2026-09-03</title></rect><rect fill="#EEEEEE" height="3.0" rx="0.6" ry="0.6" width="3.0" x="64.0" y="173.0"><title>2026-09-04</title></rect><rect fill="#EEEEEE" height="3.0" rx="0.6" ry="0.6" width="3.0" x="64.0" y="177.0"><title>2026-09-05</title></rect><rect fill="#EEEEEE" height="3.0" rx="0.6" ry="0.6" width="3.0" x="64.0" y="181.0"><title>2026-09-06</title></rect><rect fill="#EEEEEE" height="3.0" rx="0.6" ry="0.6" width="3.0" x="68.0" y="157.0"><title>2026-09-07</title></rect><rect fill="#EEEEEE" height="3.0" rx="0.6" ry="0.6" width="3.0" x="68.0" y="161.0"><title>2026-09-08</title></rect><rect fill="#EEEEEE" height="3.0" rx="0.6" ry="0.6" width="3.0" x="68.0" y="165.0"><title>2026-09-09</title></rect><rect fill="#EEEEEE" height="3.0" rx="0.6" ry="0.6" width="3.0" x="68.0" y="169.0"><title>2026-09-10</title></rect><rect fill="#EEEEEE" height="3.0" rx="0.6" ry="0.6" width="3.0" x="68.0" y="173.0"><title>2026-09-11</title></rect><rect fill="#EEEEEE" height="3.0" rx="0.6" ry="0.6" width="3.0" x="68.0" y="177.0"><title>2026-09-12</title></rect><rect fill="#EEEEEE" height="3.0" rx="0.6" ry="0.6" width="3.0" x="68.0" y="181.0"><title>2026-09-13</title></rect><rect fill="#EEEEEE" height="3.0" rx="0.6" ry="0.6" width="3.0" x="72.0" y="157.0"><title>2026-09-14</title></rect><rect fill="#EEEEEE" height="3.0" rx="0.6" ry="0.6" width="3.0" x="72.0" y="161.0"><title>2026-09-15</title></rect><rect fill="#EEEEEE" height="3.0" rx="0.6" ry="0.6" width="3.0" x="72.0" y="165.0"><title>2026-09-16</title></rect><rect fill="#EEEEEE" height="3.0" rx="0.6" ry="0.6" width="3.0" x="72.0" y="169.0"><title>2026-09-17</title></rect><rect fill="#EEEEEE" height="3.0" rx="0.6" ry="0.6" width="3.0" x="72.0" y="173.0"><title>2026-09-18</title></rect><rect fill="#EEEEEE" height="3.0" rx="0.6" ry="0.6" width="3.0" x="72.0" y="177.0"><title>2026-09-19</title></rect><rect fill="#EEEEEE" height="3.0" rx="0.6" ry="0.6" width="3.0" x="72.0" y="181.0"><title>2026-09-20</title></rect><rect fill="#EEEEEE" height="3.0" rx="0.6" ry="0.6" width="3.0" x="76.0" y="157.0"><title>2026-09-21</title></rect><rect fill="#EEEEEE" height="3.0" rx="0.6" ry="0.6" width="3.0" x="76.0" y="161.0"><title>2026-09-22</title></rect><rect fill="#EEEEEE" height="3.0" rx="0.6" ry="0.6" width="3.0" x="76.0" y="165.0"><title>2026-09-23</title></rect><rect fill="#EEEEEE" height="3.0" rx="0.6" ry="0.6" width="3.0" x="76.0" y="169.0"><title>2026-09-24</title></rect><rect fill="#EEEEEE" height="3.0" rx="0.6" ry="0.6" width="3.0" x="76.0" y="173.0"><title>2026-09-25</title></rect><rect fill="#EEEEEE" height="3.0" rx="0.6" ry="0.6" width="3.0" x="76.0" y="177.0"><title>2026-09-26</title></rect><rect fill="#EEEEEE" height="3.0" rx="0.6" ry="0.6" width="3.0" x="76.0" y="181.0"><title>2026-09-27</title></rect><rect fill="#EEEEEE" height="3.0" rx="0.6" ry="0.6" width="3.0" x="80.0" y="157.0"><title>2026-09-28</title></rect><rect fill="#EEEEEE" height="3.0" rx="0.6" ry="0.6" width="3.0" x="80.0" y="161.0"><title>2026-09-29</title></rect><rect fill="#EEEEEE" height="3.0" rx="0.6" ry="0.6" width="3.0" x="80.0" y="165.0"><title>2026-09-30</title></rect><text fill="#5A5A5A" style="font-size:8px; font-family:Arial; font-weight:bold;" x="94.0" y="150.0">10 月</text><rect fill="#EEEEEE" height="3.0" rx="0.6" ry="0.6" width="3.0" x="94.0" y="169.0"><title>2026-10-01</title></rect><rect fill="#EEEEEE" height="3.0" rx="0.6" ry="0.6" width="3.0" x="94.0" y="173.0"><title>2026-10-02</title></rect><rect fill="#EEEEEE" height="3.0" rx="0.6" ry="0.6" width="3.0" x="94.0" y="177.0"><title>2026-10-03</title></rect><rect fill="#EEEEEE" height="3.0" rx="0.6" ry="0.6" width="3.0" x="94.0" y="181.0"><title>2026-10-04</title></rect><rect fill="#EEEEEE" height="3.0" rx="0.6" ry="0.6" width="3.0" x="98.0" y="157.0"><title>2026-10-05</title></rect><rect fill="#EEEEEE" height="3.0" rx="0.6" ry="0.6" width="3.0" x="98.0" y="161.0"><title>2026-10-06</title></rect><rect fill="#EEEEEE" height="3.0" rx="0.6" ry="0.6" width="3.0" x="98.0" y="165.0"><title>2026-10-07</title></rect><rect fill="#EEEEEE" height="3.0" rx="0.6" ry="0.6" width="3.0" x="98.0" y="169.0"><title>2026-10-08</title></rect><rect fill="#EEEEEE" height="3.0" rx="0.6" ry="0.6" width="3.0" x="98.0" y="173.0"><title>2026-10-09</title></rect><rect fill="#EEEEEE" height="3.0" rx="0.6" ry="0.6" width="3.0" x="98.0" y="177.0"><title>2026-10-10</title></rect><rect fill="#EEEEEE" height="3.0" rx="0.6" ry="0.6" width="3.0" x="98.0" y="181.0"><title>2026-10-11</title></rect><rect fill="#EEEEEE" height="3.0" rx="0.6" ry="0.6" width="3.0" x="102.0" y="157.0"><title>2026-10-12</title></rect><rect fill="#EEEEEE" height="3.0" rx="0.6" ry="0.6" width="3.0" x="102.0" y="161.0"><title>2026-10-13</title></rect><rect fill="#EEEEEE" height="3.0" rx="0.6" ry="0.6" width="3.0" x="102.0" y="165.0"><title>2026-10-14</title></rect><rect fill="#EEEEEE" height="3.0" rx="0.6" ry="0.6" width="3.0" x="102.0" y="169.0"><title>2026-10-15</title></rect><rect fill="#EEEEEE" height="3.0" rx="0.6" ry="0.6" width="3.0" x="102.0" y="173.0"><title>2026-10-16</title></rect><rect fill="#EEEEEE" height="3.0" rx="0.6" ry="0.6" width="3.0" x="102.0" y="177.0"><title>2026-10-17</title></rect><rect fill="#EEEEEE" height="3.0" rx="0.6" ry="0.6" width="3.0" x="102.0" y="181.0"><title>2026-10-18</title></rect><rect fill="#EEEEEE" height="3.0" rx="0.6" ry="0.6" width="3.0" x="106.0" y="157.0"><title>2026-10-19</title></rect><rect fill="#EEEEEE" height="3.0" rx="0.6" ry="0.6" width="3.0" x="106.0" y="161.0"><title>2026-10-20</title></rect><rect fill="#EEEEEE" height="3.0" rx="0.6" ry="0.6" width="3.0" x="106.0" y="165.0"><title>2026-10-21</title></rect><rect fill="#EEEEEE" height="3.0" rx="0.6" ry="0.6" width="3.0" x="106.0" y="169.0"><title>2026-10-22</title></rect><rect fill="#EEEEEE" height="3.0" rx="0.6" ry="0.6" width="3.0" x="106.0" y="173.0"><title>2026-10-23</title></rect><rect fill="#EEEEEE" height="3.0" rx="0.6" ry="0.6" width="3.0" x="106.0" y="177.0"><title>2026-10-24</title></rect><rect fill="#EEEEEE" height="3.0" rx="0.6" ry="0.6" width="3.0" x="106.0" y="181.0"><title>2026-10-25</title></rect><rect fill="#EEEEEE" height="3.0" rx="0.6" ry="0.6" width="3.0" x="110.0" y="157.0"><title>2026-10-26</title></rect><rect fill="#EEEEEE" height="3.0" rx="0.6" ry="0.6" width="3.0" x="110.0" y="161.0"><title>2026-10-27</title></rect><rect fill="#EEEEEE" height="3.0" rx="0.6" ry="0.6" width="3.0" x="110.0" y="165.0"><title>2026-10-28</title></rect><rect fill="#EEEEEE" height="3.0" rx="0.6" ry="0.6" width="3.0" x="110.0" y="169.0"><title>2026-10-29</title></rect><rect fill="#EEEEEE" height="3.0" rx="0.6" ry="0.6" width="3.0" x="110.0" y="173.0"><title>2026-10-30</title></rect><rect fill="#EEEEEE" height="3.0" rx="0.6" ry="0.6" width="3.0" x="110.0" y="177.0"><title>2026-10-31</title></rect><text fill="#5A5A5A" style="font-size:8px; font-family:Arial; font-weight:bold;" x="124.0" y="150.0">11 月</text><rect fill="#EEEEEE" height="3.0" rx="0.6" ry="0.6" width="3.0" x="124.0" y="181.0"><title>2026-11-01</title></rect><rect fill="#EEEEEE" height="3.0" rx="0.6" ry="0.6" width="3.0" x="128.0" y="157.0"><title>2026-11-02</title></rect><rect fill="#EEEEEE" height="3.0" rx="0.6" ry="0.6" width="3.0" x="128.0" y="161.0"><title>2026-11-03</title></rect><rect fill="#EEEEEE" height="3.0" rx="0.6" ry="0.6" width="3.0" x="128.0" y="165.0"><title>2026-11-04</title></rect><rect fill="#EEEEEE" height="3.0" rx="0.6" ry="0.6" width="3.0" x="128.0" y="169.0"><title>2026-11-05</title></rect><rect fill="#EEEEEE" height="3.0" rx="0.6" ry="0.6" width="3.0" x="128.0" y="173.0"><title>2026-11-06</title></rect><rect fill="#EEEEEE" height="3.0" rx="0.6" ry="0.6" width="3.0" x="128.0" y="177.0"><title>2026-11-07</title></rect><rect fill="#EEEEEE" height="3.0" rx="0.6" ry="0.6" width="3.0" x="128.0" y="181.0"><title>2026-11-08</title></rect><rect fill="#EEEEEE" height="3.0" rx="0.6" ry="0.6" width="3.0" x="132.0" y="157.0"><title>2026-11-09</title></rect><rect fill="#EEEEEE" height="3.0" rx="0.6" ry="0.6" width="3.0" x="132.0" y="161.0"><title>2026-11-10</title></rect><rect fill="#EEEEEE" height="3.0" rx="0.6" ry="0.6" width="3.0" x="132.0" y="165.0"><title>2026-11-11</title></rect><rect fill="#EEEEEE" height="3.0" rx="0.6" ry="0.6" width="3.0" x="132.0" y="169.0"><title>2026-11-12</title></rect><rect fill="#EEEEEE" height="3.0" rx="0.6" ry="0.6" width="3.0" x="132.0" y="173.0"><title>2026-11-13</title></rect><rect fill="#EEEEEE" height="3.0" rx="0.6" ry="0.6" width="3.0" x="132.0" y="177.0"><title>2026-11-14</title></rect><rect fill="#EEEEEE" height="3.0" rx="0.6" ry="0.6" width="3.0" x="132.0" y="181.0"><title>2026-11-15</title></rect><rect fill="#EEEEEE" height="3.0" rx="0.6" ry="0.6" width="3.0" x="136.0" y="157.0"><title>2026-11-16</title></rect><rect fill="#EEEEEE" height="3.0" rx="0.6" ry="0.6" width="3.0" x="136.0" y="161.0"><title>2026-11-17</title></rect><rect fill="#EEEEEE" height="3.0" rx="0.6" ry="0.6" width="3.0" x="136.0" y="165.0"><title>2026-11-18</title></rect><rect fill="#EEEEEE" height="3.0" rx="0.6" ry="0.6" width="3.0" x="136.0" y="169.0"><title>2026-11-19</title></rect><rect fill="#EEEEEE" height="3.0" rx="0.6" ry="0.6" width="3.0" x="136.0" y="173.0"><title>2026-11-20</title></rect><rect fill="#EEEEEE" height="3.0" rx="0.6" ry="0.6" width="3.0" x="136.0" y="177.0"><title>2026-11-21</title></rect><rect fill="#EEEEEE" height="3.0" rx="0.6" ry="0.6" width="3.0" x="136.0" y="181.0"><title>2026-11-22</title></rect><rect fill="#EEEEEE" height="3.0" rx="0.6" ry="0.6" width="3.0" x="140.0" y="157.0"><title>2026-11-23</title></rect><rect fill="#EEEEEE" height="3.0" rx="0.6" ry="0.6" width="3.0" x="140.0" y="161.0"><title>2026-11-24</title></rect><rect fill="#EEEEEE" height="3.0" rx="0.6" ry="0.6" width="3.0" x="140.0" y="165.0"><title>2026-11-25</title></rect><rect fill="#EEEEEE" height="3.0" rx="0.6" ry="0.6" width="3.0" x="140.0" y="169.0"><title>2026-11-26</title></rect><rect fill="#EEEEEE" height="3.0" rx="0.6" ry="0.6" width="3.0" x="140.0" y="173.0"><title>2026-11-27</title></rect><rect fill="#EEEEEE" height="3.0" rx="0.6" ry="0.6" width="3.0" x="140.0" y="177.0"><title>2026-11-28</title></rect><rect fill="#EEEEEE" height="3.0" rx="0.6" ry="0.6" width="3.0" x="140.0" y="181.0"><title>2026-11-29</title></rect><rect fill="#EEEEEE" height="3.0" rx="0.6" ry="0.6" width="3.0" x="144.0" y="157.0"><title>2026-11-30</title></rect><text fill="#5A5A5A" style="font-size:8px; font-family:Arial; font-weight:bold;" x="154.0" y="150.0">12 月</text><rect fill="#EEEEEE" height="3.0" rx="0.6" ry="0.6" width="3.0" x="154.0" y="161.0"><title>2026-12-01</title></rect><rect fill="#EEEEEE" height="3.0" rx="0.6" ry="0.6" width="3.0" x="154.0" y="165.0"><title>2026-12-02</title></rect><rect fill="#EEEEEE" height="3.0" rx="0.6" ry="0.6" width="3.0" x="154.0" y="169.0"><title>2026-12-03</title></rect><rect fill="#EEEEEE" height="3.0" rx="0.6" ry="0.6" width="3.0" x="154.0" y="173.0"><title>2026-12-04</title></rect><rect fill="#EEEEEE" height="3.0" rx="0.6" ry="0.6" width="3.0" x="154.0" y="177.0"><title>2026-12-05</title></rect><rect fill="#EEEEEE" height="3.0" rx="0.6" ry="0.6" width="3.0" x="154.0" y="181.0"><title>2026-12-06</title></rect><rect fill="#EEEEEE" height="3.0" rx="0.6" ry="0.6" width="3.0" x="158.0" y="157.0"><title>2026-12-07</title></rect><rect fill="#EEEEEE" height="3.0" rx="0.6" ry="0.6" width="3.0" x="158.0" y="161.0"><title>2026-12-08</title></rect><rect fill="#EEEEEE" height="3.0" rx="0.6" ry="0.6" width="3.0" x="158.0" y="165.0"><title>2026-12-09</title></rect><rect fill="#EEEEEE" height="3.0" rx="0.6" ry="0.6" width="3.0" x="158.0" y="169.0"><title>2026-12-10</title></rect><rect fill="#EEEEEE" height="3.0" rx="0.6" ry="0.6" width="3.0" x="158.0" y="173.0"><title>2026-12-11</title></rect><rect fill="#EEEEEE" height="3.0" rx="0.6" ry="0.6" width="3.0" x="158.0" y="177.0"><title>2026-12-12</title></rect><rect fill="#EEEEEE" height="3.0" rx="0.6" ry="0.6" width="3.0" x="158.0" y="181.0"><title>2026-12-13</title></rect><rect fill="#EEEEEE" height="3.0" rx="0.6" ry="0.6" width="3.0" x="162.0" y="157.0"><title>2026-12-14</title></rect><rect fill="#EEEEEE" height="3.0" rx="0.6" ry="0.6" width="3.0" x="162.0" y="161.0"><title>2026-12-15</title></rect><rect fill="#EEEEEE" height="3.0" rx="0.6" ry="0.6" width="3.0" x="162.0" y="165.0"><title>2026-12-16</title></rect><rect fill="#EEEEEE" height="3.0" rx="0.6" ry="0.6" width="3.0" x="162.0" y="169.0"><title>2026-12-17</title></rect><rect fill="#EEEEEE" height="3.0" rx="0.6" ry="0.6" width="3.0" x="162.0" y="173.0"><title>2026-12-18</title></rect><rect fill="#EEEEEE" height="3.0" rx="0.6" ry="0.6" width="3.0" x="162.0" y="177.0"><title>2026-12-19</title></rect><rect fill="#EEEEEE" height="3.0" rx="0.6" ry="0.6" width="3.0" x="162.0" y="181.0"><title>2026-12-20</title></rect><rect fill="#EEEEEE" height="3.0" rx="0.6" ry="0.6" width="3.0" x="166.0" y="157.0"><title>2026-12-21</title></rect><rect fill="#EEEEEE" height="3.0" rx="0.6" ry="0.6" width="3.0" x="166.0" y="161.0"><title>2026-12-22</title></rect><rect fill="#EEEEEE" height="3.0" rx="0.6" ry="0.6" width="3.0" x="166.0" y="165.0"><title>2026-12-23</title></rect><rect fill="#EEEEEE" height="3.0" rx="0.6" ry="0.6" width="3.0" x="166.0" y="169.0"><title>2026-12-24</title></rect><rect fill="#EEEEEE" height="3.0" rx="0.6" ry="0.6" width="3.0" x="166.0" y="173.0"><title>2026-12-25</title></rect><rect fill="#EEEEEE" height="3.0" rx="0.6" ry="0.6" width="3.0" x="166.0" y="177.0"><title>2026-12-26</title></rect><rect fill="#EEEEEE" height="3.0" rx="0.6" ry="0.6" width="3.0" x="166.0" y="181.0"><title>2026-12-27</title></rect><rect fill="#EEEEEE" height="3.0" rx="0.6" ry="0.6" width="3.0" x="170.0" y="157.0"><title>2026-12-28</title></rect><rect fill="#EEEEEE" height="3.0" rx="0.6" ry="0.6" width="3.0" x="170.0" y="161.0"><title>2026-12-29</title></rect><rect fill="#EEEEEE" height="3.0" rx="0.6" ry="0.6" width="3.0" x="170.0" y="165.0"><title>2026-12-30</title></rect><rect fill="#EEEEEE" height="3.0" rx="0.6" ry="0.6" width="3.0" x="170.0" y="169.0"><title>2026-12-31</title></rect></g><text fill="#5A5A5A" style="font-size:12px; font-family:Arial; font-weight:bold;" x="4" y="20">年度跑步日历</text><text fill="#5A5A5A" style="font-size:4px; font-family:Arial" x="4" y="200">Runner</text><text fill="#5A5A5A" style="font-size:9px; font-family:Arial" x="4" y="210">蓝皮书</text><text fill="#5A5A5A" style="font-size:4px; font-family:Arial" x="44" y="200">SPECIAL TRACKS</text><rect fill="yellow" height="2.6" width="2.6" x="44" y="203" /><text fill="#5A5A5A" style="font-size:3px; font-family:Arial" x="49" y="205.5">Over 5.0 km</text><rect fill="red" height="2.6" width="2.6" x="44" y="207" /><text fill="#5A5A5A" style="font-size:3px; font-family:Arial" x="49" y="209.5">Over 10.0 km</text><text fill="#5A5A5A" style="font-size:4px; font-family:Arial" x="84" y="200">STATISTICS</text><text fill="#5A5A5A" style="font-size:3px; font-family:Arial" x="84" y="205">Number: 6 / 1006</text><text fill="#5A5A5A" style="font-size:3px; font-family:Arial" x="84" y="210">Weekly: 2.00</text><text fill="#5A5A5A" style="font-size:3px; font-family:Arial" x="119" y="205">Total: 50.43 km / 5941.88 km</text><text fill="#5A5A5A" style="font-size:3px; font-family:Arial" x="119" y="210">Avg: 8.41 km</text><text fill="#5A5A5A" style="font-size:3px; font-family:Arial" x="169" y="205">Min: 3.31 km</text><text fill="#5A5A5A" style="font-size:3px; font-family:Arial" x="169" y="210">Max: 13.96 km</text></svg>