<?xml version="1.0" encoding="utf-8" ?>
<svg baseProfile="full" height="220mm" version="1.1" viewBox="0,0,200,220" width="200mm" xmlns="http://www.w3.org/2000/svg" xmlns:ev="http://www.w3.org/2001/xml-events" xmlns:xlink="http://www.w3.org/1999/xlink"><defs /><rect fill="#FAF9F5" height="220" width="200" x="0" y="0" /><g id="svg_b81b6eb9_tracks"><text fill="#5A5A5A" style="font-size:10px; font-family:Arial; font-weight:bold;" x="0" y="40">RUNNER'S</text><text fill="#5A5A5A" style="font-size:12px; font-family:Arial; font-weight:bold;" x="0" y="52">CALENDAR</text><text fill="#5A5A5A" style="font-size:36px; font-family:Arial; font-weight:bold;" x="0" y="90"><tspan fill="#5A5A5A" style="opacity: 0.2;">0</tspan><tspan>46</tspan></text><text fill="#5A5A5A" style="font-size:12px; font-family:Arial;" x="0" y="90">天</text><text fill="#5A5A5A" style="font-size:8px; font-family:Arial; font-weight:bold;" text-anchor="end" x="76" y="40">跑者年历</text><text fill="#5A5A5A" style="font-size:5px; font-family:Arial;" text-anchor="end" x="76" y="48">2019 Year</text><text fill="#5A5A5A" style="font-size:5px; font-family:Arial;" text-anchor="end" x="76" y="54">Annual Running Report</text><text fill="#5A5A5A" style="font-size:7px; font-family:Arial;" text-anchor="end" x="76" y="75"><tspan>今年运动 </tspan><tspan fill="#4DD2FF">46</tspan><tspan> 天 </tspan><tspan fill="#4DD2FF">57</tspan><tspan> 次</tspan></text><text fill="#5A5A5A" style="font-size:7px; font-family:Arial; opacity: 0.7;" text-anchor="end" x="76" y="88"><tspan>生涯累计运动 </tspan><tspan fill="#4DD2FF">51</tspan><tspan> 天 </tspan><tspan fill="#4DD2FF">62</tspan><tspan> 次</tspan></text><text fill="#5A5A5A" style="font-size:8px; font-family:Arial; font-weight:bold;" x="0.0" y="105.0">1 月</text><rect fill="#EEEEEE" height="3.0" rx="0.6" ry="0.6" width="3.0" x="0.0" y="116.0"><title>2019-01-01</title></rect><rect fill="#EEEEEE" height="3.0" rx="0.6" ry="0.6" width="3.0" x="0.0" y="120.0"><title>2019-01-02</title></rect><rect fill="#EEEEEE" height="3.0" rx="0.6" ry="0.6" width="3.0" x="0.0" y="124.0"><title>2019-01-03</title></rect><rect fill="#EEEEEE" height="3.0" rx="0.6" ry="0.6" width="3.0" x="0.0" y="128.0"><title>2019-01-04</title></rect><rect fill="#EEEEEE" height="3.0" rx="0.6" ry="0.6" width="3.0" x="0.0" y="132.0"><title>2019-01-05</title></rect><rect fill="#EEEEEE" height="3.0" rx="0.6" ry="0.6" width="3.0" x="0.0" y="136.0"><title>2019-01-06</title></rect><rect fill="#EEEEEE" height="3.0" rx="0.6" ry="0.6" width="3.0" x="0.0" y="112.0"><title>2019-01-07</title></rect><rect fill="#EEEEEE" height="3.0" rx="0.6" ry="0.6" width="3.0" x="0.0" y="116.0"><title>2019-01-08</title></rect><rect fill="#EEEEEE" height="3.0" rx="0.6" ry="0.6" width="3.0" x="0.0" y="120.0"><title>2019-01-09</title></rect><rect fill="#EEEEEE" height="3.0" rx="0.6" ry="0.6" width="3.0" x="0.0" y="124.0"><title>2019-01-10</title></rect><rect fill="#EEEEEE" height="3.0" rx="0.6" ry="0.6" width="3.0" x="0.0" y="128.0"><title>2019-01-11</title></rect><rect fill="#4dd2ff" height="3.0" rx="0.6" ry="0.6" width="3.0" x="0.0" y="132.0"><title>2019-01-12 4.48 km</title></rect><rect fill="#EEEEEE" height="3.0" rx="0.6" ry="0.6" width="3.0" x="0.0" y="136.0"><title>2019-01-13</title></rect><rect fill="#EEEEEE" height="3.0" rx="0.6" ry="0.6" width="3.0" x="0.0" y="112.0"><title>2019-01-14</title></rect><rect fill="#EEEEEE" height="3.0" rx="0.6" ry="0.6" width="3.0" x="0.0" y="116.0"><title>2019-01-15</title></rect><rect fill="#EEEEEE" height="3.0" rx="0.6" ry="0.6" width="3.0" x="0.0" y="120.0"><title>2019-01-16</title></rect><rect fill="#EEEEEE" height="3.0" rx="0.6" ry="0.6" width="3.0" x="0.0" y="124.0"><title>2019-01-17</title></rect><rect fill="#EEEEEE" height="3.0" rx="0.6" ry="0.6" width="3.0" x="0.0" y="128.0"><title>2019-01-18</title></rect><rect fill="#EEEEEE" height="3.0" rx="0.6" ry="0.6" width="3.0" x="0.0" y="132.0"><title>2019-01-19</title></rect><rect fill="#EEEEEE" height="3.0" rx="0.6" ry="0.6" width="3.0" x="0.0" y="136.0"><title>2019-01-20</title></rect><rect fill="#EEEEEE" height="3.0" rx="0.6" ry="0.6" width="3.0" x="0.0" y="112.0"><title>2019-01-21</title></rect><rect fill="#EEEEEE" height="3.0" rx="0.6" ry="0.6" width="3.0" x="0.0" y="116.0"><title>2019-01-22</title></rect><rect fill="#EEEEEE" height="3.0" rx="0.6" ry="0.6" width="3.0" x="0.0" y="120.0"><title>2019-01-23</title></rect><rect fill="#EEEEEE" height="3.0" rx="0.6" ry="0.6" width="3.0" x="0.0" y="124.0"><title>2019-01-24</title></rect><rect fill="#EEEEEE" height="3.0" rx="0.6" ry="0.6" width="3.0" x="0.0" y="128.0"><title>2019-01-25</title></rect><rect fill="#EEEEEE" height="3.0" rx="0.6" ry="0.6" width="3.0" x="0.0" y="132.0"><title>2019-01-26</title></rect><rect fill="#EEEEEE" height="3.0" rx="0.6" ry="0.6" width="3.0" x="0.0" y="136.0"><title>2019-01-27</title></rect><rect fill="#EEEEEE" height="3.0" rx="0.6" ry="0.6" width="3.0" x="0.0" y="112.0"><title>2019-01-28</title></rect><rect fill="#EEEEEE" height="3.0" rx="0.6" ry="0.6" width="3.0" x="0.0" y="116.0"><title>2019-01-29</title></rect><rect fill="#EEEEEE" height="3.0" rx="0.6" ry="0.6" width="3.0" x="0.0" y="120.0"><title>2019-01-30</title></rect><rect fill="#EEEEEE" height="3.0" rx="0.6" ry="0.6" width="3.0" x="0.0" y="124.0"><title>2019-01-31</title></rect><text fill="#5A5A5A" style="font-size:8px; font-family:Arial; font-weight:bold;" x="0.0" y="105.0">2 月</text><rect fill="#EEEEEE" height="3.0" rx="0.6" ry="0.6" width="3.0" x="0.0" y="128.0"><title>2019-02-01</title></rect><rect fill="#EEEEEE" height="3.0" rx="0.6" ry="0.6" width="3.0" x="0.0" y="132.0"><title>2019-02-02</title></rect><rect fill="#EEEEEE" height="3.0" rx="0.6" ry="0.6" width="3.0" x="0.0" y="136.0"><title>2019-02-03</title></rect><rect fill="#EEEEEE" height="3.0" rx="0.6" ry="0.6" width="3.0" x="0.0" y="112.0"><title>2019-02-04</title></rect><rect fill="#EEEEEE" height="3.0" rx="0.6" ry="0.6" width="3.0" x="0.0" y="116.0"><title>2019-02-05</title></rect><rect fill="#ff8200" height="3.0" rx="0.6" ry="0.6" width="3.0" x="0.0" y="120.0"><title>2019-02-06 5.17 km</title></rect><rect fill="#EEEEEE" height="3.0" rx="0.6" ry="0.6" width="3.0" x="0.0" y="124.0"><title>2019-02-07</title></rect><rect fill="#EEEEEE" height="3.0" rx="0.6" ry="0.6" width="3.0" x="0.0" y="128.0"><title>2019-02-08</title></rect><rect fill="#EEEEEE" height="3.0" rx="0.6" ry="0.6" width="3.0" x="0.0" y="132.0"><title>2019-02-09</title></rect><rect fill="red" height="3.0" rx="0.6" ry="0.6" width="3.0" x="0.0" y="136.0"><title>2019-02-10 10.07 km</title></rect><rect fill="#ff7800" height="3.0" rx="0.6" ry="0.6" width="3.0" x="0.0" y="112.0"><title>2019-02-11 5.60 km</title></rect><rect fill="#ff7600" height="3.0" rx="0.6" ry="0.6" width="3.0" x="0.0" y="116.0"><title>2019-02-12 5.68 km</title></rect><rect fill="#EEEEEE" height="3.0" rx="0.6" ry="0.6" width="3.0" x="0.0" y="120.0"><title>2019-02-13</title></rect><rect fill="#EEEEEE" height="3.0" rx="0.6" ry="0.6" width="3.0" x="0.0" y="124.0"><title>2019-02-14</title></rect><rect fill="#EEEEEE" height="3.0" rx="0.6" ry="0.6" width="3.0" x="0.0" y="128.0"><title>2019-02-15</title></rect><rect fill="#ff7100" height="3.0" rx="0.6" ry="0.6" width="3.0" x="0.0" y="132.0"><title>2019-02-16 5.90 km</title></rect><rect fill="#ff6d00" height="3.0" rx="0.6" ry="0.6" width="3.0" x="0.0" y="136.0"><title>2019-02-17 6.06 km</title></rect><rect fill="#EEEEEE" height="3.0" rx="0.6" ry="0.6" width="3.0" x="0.0" y="112.0"><title>2019-02-18</title></rect><rect fill="#EEEEEE" height="3.0" rx="0.6" ry="0.6" width="3.0" x="0.0" y="116.0"><title>2019-02-19</title></rect><rect fill="#EEEEEE" height="3.0" rx="0.6" ry="0.6" width="3.0" x="0.0" y="120.0"><title>2019-02-20</title></rect><rect fill="#EEEEEE" height="3.0" rx="0.6" ry="0.6" width="3.0" x="0.0" y="124.0"><title>2019-02-21</title></rect><rect fill="#EEEEEE" height="3.0" rx="0.6" ry="0.6" width="3.0" x="0.0" y="128.0"><title>2019-02-22</title></rect><rect fill="#EEEEEE" height="3.0" rx="0.6" ry="0.6" width="3.0" x="0.0" y="132.0"><title>2019-02-23</title></rect><rect fill="#ff2400" height="3.0" rx="0.6" ry="0.6" width="3.0" x="0.0" y="136.0"><title>2019-02-24 9.07 km</title></rect><rect fill="#EEEEEE" height="3.0" rx="0.6" ry="0.6" width="3.0" x="0.0" y="112.0"><title>2019-02-25</title></rect><rect fill="#EEEEEE" height="3.0" rx="0.6" ry="0.6" width="3.0" x="0.0" y="116.0"><title>2019-02-26</title></rect><rect fill="#4dd2ff" height="3.0" rx="0.6" ry="0.6" width="3.0" x="0.0" y="120.0"><title>2019-02-27 4.97 km</title></rect><rect fill="#EEEEEE" height="3.0" rx="0.6" ry="0.6" width="3.0" x="0.0" y="124.0"><title>2019-02-28</title></rect><text fill="#5A5A5A" style="font-size:8px; font-family:Arial; font-weight:bold;" x="0.0" y="105.0">3 月</text><rect fill="#4dd2ff" height="3.0" rx="0.6" ry="0.6" width="3.0" x="0.0" y="128.0"><title>2019-03-01 4.77 km</title></rect><rect fill="red" height="3.0" rx="0.6" ry="0.6" width="3.0" x="0.0" y="132.0"><title>2019-03-02 10.57 km</title></rect><rect fill="#EEEEEE" height="3.0" rx="0.6" ry="0.6" width="3.0" x="0.0" y="136.0"><title>2019-03-03</title></rect><rect fill="#4dd2ff" height="3.0" rx="0.6" ry="0.6" width="3.0" x="0.0" y="112.0"><title>2019-03-04 4.98 km</title></rect><rect fill="#EEEEEE" height="3.0" rx="0.6" ry="0.6" width="3.0" x="0.0" y="116.0"><title>2019-03-05</title></rect><rect fill="#EEEEEE" height="3.0" rx="0.6" ry="0.6" width="3.0" x="0.0" y="120.0"><title>2019-03-06</title></rect><rect fill="#EEEEEE" height="3.0" rx="0.6" ry="0.6" width="3.0" x="0.0" y="124.0"><title>2019-03-07</title></rect><rect fill="#ff6d00" height="3.0" rx="0.6" ry="0.6" width="3.0" x="0.0" y="128.0"><title>2019-03-08 6.07 km</title></rect><rect fill="#EEEEEE" height="3.0" rx="0.6" ry="0.6" width="3.0" x="0.0" y="132.0"><title>2019-03-09</title></rect><rect fill="#EEEEEE" height="3.0" rx="0.6" ry="0.6" width="3.0" x="0.0" y="136.0"><title>2019-03-10</title></rect><rect fill="#EEEEEE" height="3.0" rx="0.6" ry="0.6" width="3.0" x="0.0" y="112.0"><title>2019-03-11</title></rect><rect fill="#EEEEEE" height="3.0" rx="0.6" ry="0.6" width="3.0" x="0.0" y="116.0"><title>2019-03-12</title></rect><rect fill="#EEEEEE" height="3.0" rx="0.6" ry="0.6" width="3.0" x="0.0" y="120.0"><title>2019-03-13</title></rect><rect fill="#EEEEEE" height="3.0" rx="0.6" ry="0.6" width="3.0" x="0.0" y="124.0"><title>2019-03-14</title></rect><rect fill="#EEEEEE" height="3.0" rx="0.6" ry="0.6" width="3.0" x="0.0" y="128.0"><title>2019-03-15</title></rect><rect fill="#EEEEEE" height="3.0" rx="0.6" ry="0.6" width="3.0" x="0.0" y="132.0"><title>2019-03-16</title></rect><rect fill="#EEEEEE" height="3.0" rx="0.6" ry="0.6" width="3.0" x="0.0" y="136.0"><title>2019-03-17</title></rect><rect fill="#EEEEEE" height="3.0" rx="0.6" ry="0.6" width="3.0" x="0.0" y="112.0"><title>2019-03-18</title></rect><rect fill="#EEEEEE" height="3.0" rx="0.6" ry="0.6" width="3.0" x="0.0" y="116.0"><title>2019-03-19</title></rect><rect fill="#EEEEEE" height="3.0" rx="0.6" ry="0.6" width="3.0" x="0.0" y="120.0"><title>2019-03-20</title></rect><rect fill="#EEEEEE" height="3.0" rx="0.6" ry="0.6" width="3.0" x="0.0" y="124.0"><title>2019-03-21</title></rect><rect fill="#EEEEEE" height="3.0" rx="0.6" ry="0.6" width="3.0" x="0.0" y="128.0"><title>2019-03-22</title></rect><rect fill="#EEEEEE" height="3.0" rx="0.6" ry="0.6" width="3.0" x="0.0" y="132.0"><title>2019-03-23</title></rect><rect fill="#ff1b00" height="3.0" rx="0.6" ry="0.6" width="3.0" x="0.0" y="136.0"><title>2019-03-24 9.44 km</title></rect><rect fill="#EEEEEE" height="3.0" rx="0.6" ry="0.6" width="3.0" x="0.0" y="112.0"><title>2019-03-25</title></rect><rect fill="#EEEEEE" height="3.0" rx="0.6" ry="0.6" width="3.0" x="0.0" y="116.0"><title>2019-03-26</title></rect><rect fill="#EEEEEE" height="3.0" rx="0.6" ry="0.6" width="3.0" x="0.0" y="120.0"><title>2019-03-27</title></rect><rect fill="#EEEEEE" height="3.0" rx="0.6" ry="0.6" width="3.0" x="0.0" y="124.0"><title>2019-03-28</title></rect><rect fill="#EEEEEE" height="3.0" rx="0.6" ry="0.6" width="3.0" x="0.0" y="128.0"><title>2019-03-29</title></rect><rect fill="#4dd2ff" height="3.0" rx="0.6" ry="0.6" width="3.0" x="0.0" y="132.0"><title>2019-03-30 0.56 km</title></rect><rect fill="#EEEEEE" height="3.0" rx="0.6" ry="0.6" width="3.0" x="0.0" y="136.0"><title>2019-03-31</title></rect><text fill="#5A5A5A" style="font-size:8px; font-family:Arial; font-weight:bold;" x="0.0" y="105.0">4 月</text><rect fill="#EEEEEE" height="3.0" rx="0.6" ry="0.6" width="3.0" x="0.0" y="112.0"><title>2019-04-01</title></rect><rect fill="#EEEEEE" height="3.0" rx="0.6" ry="0.6" width="3.0" x="0.0" y="116.0"><title>2019-04-02</title></rect><rect fill="#EEEEEE" height="3.0" rx="0.6" ry="0.6" width="3.0" x="0.0" y="120.0"><title>2019-04-03</title></rect><rect fill="#EEEEEE" height="3.0" rx="0.6" ry="0.6" width="3.0" x="0.0" y="124.0"><title>2019-04-04</title></rect><rect fill="#EEEEEE" height="3.0" rx="0.6" ry="0.6" width="3.0" x="0.0" y="128.0"><title>2019-04-05</title></rect><rect fill="#EEEEEE" height="3.0" rx="0.6" ry="0.6" width="3.0" x="0.0" y="132.0"><title>2019-04-06</title></rect><rect fill="#EEEEEE" height="3.0" rx="0.6" ry="0.6" width="3.0" x="0.0" y="136.0"><title>2019-04-07</title></rect><rect fill="#EEEEEE" height="3.0" rx="0.6" ry="0.6" width="3.0" x="0.0" y="112.0"><title>2019-04-08</title></rect><rect fill="#EEEEEE" height="3.0" rx="0.6" ry="0.6" width="3.0" x="0.0" y="116.0"><title>2019-04-09</title></rect><rect fill="#EEEEEE" height="3.0" rx="0.6" ry="0.6" width="3.0" x="0.0" y="120.0"><title>2019-04-10</title></rect><rect fill="#EEEEEE" height="3.0" rx="0.6" ry="0.6" width="3.0" x="0.0" y="124.0"><title>2019-04-11</title></rect><rect fill="#EEEEEE" height="3.0" rx="0.6" ry="0.6" width="3.0" x="0.0" y="128.0"><title>2019-04-12</title></rect><rect fill="#EEEEEE" height="3.0" rx="0.6" ry="0.6" width="3.0" x="0.0" y="132.0"><title>2019-04-13</title></rect><rect fill="#EEEEEE" height="3.0" rx="0.6" ry="0.6" width="3.0" x="0.0" y="136.0"><title>2019-04-14</title></rect><rect fill="#EEEEEE" height="3.0" rx="0.6" ry="0.6" width="3.0" x="0.0" y="112.0"><title>2019-04-15</title></rect><rect fill="#EEEEEE" height="3.0" rx="0.6" ry="0.6" width="3.0" x="0.0" y="116.0"><title>2019-04-16</title></rect><rect fill="#EEEEEE" height="3.0" rx="0.6" ry="0.6" width="3.0" x="0.0" y="120.0"><title>2019-04-17</title></rect><rect fill="#EEEEEE" height="3.0" rx="0.6" ry="0.6" width="3.0" x="0.0" y="124.0"><title>2019-04-18</title></rect><rect fill="#EEEEEE" height="3.0" rx="0.6" ry="0.6" width="3.0" x="0.0" y="128.0"><title>2019-04-19</title></rect><rect fill="#EEEEEE" height="3.0" rx="0.6" ry="0.6" width="3.0" x="0.0" y="132.0"><title>2019-04-20</title></rect><rect fill="#EEEEEE" height="3.0" rx="0.6" ry="0.6" width="3.0" x="0.0" y="136.0"><title>2019-04-21</title></rect><rect fill="#EEEEEE" height="3.0" rx="0.6" ry="0.6" width="3.0" x="2.0" y="112.0"><title>2019-04-22</title></rect><rect fill="#EEEEEE" height="3.0" rx="0.6" ry="0.6" width="3.0" x="2.0" y="116.0"><title>2019-04-23</title></rect><rect fill="#EEEEEE" height="3.0" rx="0.6" ry="0.6" width="3.0" x="2.0" y="120.0"><title>2019-04-24</title></rect><rect fill="#EEEEEE" height="3.0" rx="0.6" ry="0.6" width="3.0" x="2.0" y="124.0"><title>2019-04-25</title></rect><rect fill="#EEEEEE" height="3.0" rx="0.6" ry="0.6" width="3.0" x="2.0" y="128.0"><title>2019-04-26</title></rect><rect fill="#EEEEEE" height="3.0" rx="0.6" ry="0.6" width="3.0" x="2.0" y="132.0"><title>2019-04-27</title></rect><rect fill="#EEEEEE" height="3.0" rx="0.6" ry="0.6" width="3.0" x="2.0" y="136.0"><title>2019-04-28</title></rect><rect fill="#EEEEEE" height="3.0" rx="0.6" ry="0.6" width="3.0" x="6.0" y="112.0"><title>2019-04-29</title></rect><rect fill="#EEEEEE" height="3.0" rx="0.6" ry="0.6" width="3.0" x="6.0" y="116.0"><title>2019-04-30</title></rect><text fill="#5A5A5A" style="font-size:8px; font-family:Arial; font-weight:bold;" x="16.0" y="105.0">5 月</text><rect fill="#EEEEEE" height="3.0" rx="0.6" ry="0.6" width="3.0" x="16.0" y="120.0"><title>2019-05-01</title></rect><rect fill="#4dd2ff" height="3.0" rx="0.6" ry="0.6" width="3.0" x="16.0" y="124.0"><title>2019-05-02 3.78 km</title></rect><rect fill="#EEEEEE" height="3.0" rx="0.6" ry="0.6" width="3.0" x="16.0" y="128.0"><title>2019-05-03</title></rect><rect fill="#EEEEEE" height="3.0" rx="0.6" ry="0.6" width="3.0" x="16.0" y="132.0"><title>2019-05-04</title></rect><rect fill="#EEEEEE" height="3.0" rx="0.6" ry="0.6" width="3.0" x="16.0" y="136.0"><title>2019-05-05</title></rect><rect fill="#EEEEEE" height="3.0" rx="0.6" ry="0.6" width="3.0" x="20.0" y="112.0"><title>2019-05-06</title></rect><rect fill="#EEEEEE" height="3.0" rx="0.6" ry="0.6" width="3.0" x="20.0" y="116.0"><title>2019-05-07</title></rect><rect fill="#EEEEEE" height="3.0" rx="0.6" ry="0.6" width="3.0" x="20.0" y="120.0"><title>2019-05-08</title></rect><rect fill="#EEEEEE" height="3.0" rx="0.6" ry="0.6" width="3.0" x="20.0" y="124.0"><title>2019-05-09</title></rect><rect fill="#EEEEEE" height="3.0" rx="0.6" ry="0.6" width="3.0" x="20.0" y="128.0"><title>2019-05-10</title></rect><rect fill="#EEEEEE" height="3.0" rx="0.6" ry="0.6" width="3.0" x="20.0" y="132.0"><title>2019-05-11</title></rect><rect fill="#EEEEEE" height="3.0" rx="0.6" ry="0.6" width="3.0" x="20.0" y="136.0"><title>2019-05-12</title></rect><rect fill="#EEEEEE" height="3.0" rx="0.6" ry="0.6" width="3.0" x="24.0" y="112.0"><title>2019-05-13</title></rect><rect fill="#EEEEEE" height="3.0" rx="0.6" ry="0.6" width="3.0" x="24.0" y="116.0"><title>2019-05-14</title></rect><rect fill="#EEEEEE" height="3.0" rx="0.6" ry="0.6" width="3.0" x="24.0" y="120.0"><title>2019-05-15</title></rect><rect fill="#EEEEEE" height="3.0" rx="0.6" ry="0.6" width="3.0" x="24.0" y="124.0"><title>2019-05-16</title></rect><rect fill="#EEEEEE" height="3.0" rx="0.6" ry="0.6" width="3.0" x="24.0" y="128.0"><title>2019-05-17</title></rect><rect fill="#EEEEEE" height="3.0" rx="0.6" ry="0.6" width="3.0" x="24.0" y="132.0"><title>2019-05-18</title></rect><rect fill="#EEEEEE" height="3.0" rx="0.6" ry="0.6" width="3.0" x="24.0" y="136.0"><title>2019-05-19</title></rect><rect fill="#EEEEEE" height="3.0" rx="0.6" ry="0.6" width="3.0" x="28.0" y="112.0"><title>2019-05-20</title></rect><rect fill="#EEEEEE" height="3.0" rx="0.6" ry="0.6" width="3.0" x="28.0" y="116.0"><title>2019-05-21</title></rect><rect fill="#EEEEEE" height="3.0" rx="0.6" ry="0.6" width="3.0" x="28.0" y="120.0"><title>2019-05-22</title></rect><rect fill="#EEEEEE" height="3.0" rx="0.6" ry="0.6" width="3.0" x="28.0" y="124.0"><title>2019-05-23</title></rect><rect fill="#EEEEEE" height="3.0" rx="0.6" ry="0.6" width="3.0" x="28.0" y="128.0"><title>2019-05-24</title></rect><rect fill="#EEEEEE" height="3.0" rx="0.6" ry="0.6" width="3.0" x="28.0" y="132.0"><title>2019-05-25</title></rect><rect fill="#EEEEEE" height="3.0" rx="0.6" ry="0.6" width="3.0" x="28.0" y="136.0"><title>2019-05-26</title></rect><rect fill="#EEEEEE" height="3.0" rx="0.6" ry="0.6" width="3.0" x="32.0" y="112.0"><title>2019-05-27</title></rect><rect fill="#EEEEEE" height="3.0" rx="0.6" ry="0.6" width="3.0" x="32.0" y="116.0"><title>2019-05-28</title></rect><rect fill="#EEEEEE" height="3.0" rx="0.6" ry="0.6" width="3.0" x="32.0" y="120.0"><title>2019-05-29</title></rect><rect fill="#EEEEEE" height="3.0" rx="0.6" ry="0.6" width="3.0" x="32.0" y="124.0"><title>2019-05-30</title></rect><rect fill="#EEEEEE" height="3.0" rx="0.6" ry="0.6" width="3.0" x="32.0" y="128.0"><title>2019-05-31</title></rect><text fill="#5A5A5A" style="font-size:8px; font-family:Arial; font-weight:bold;" x="46.0" y="105.0">6 月</text><rect fill="#EEEEEE" height="3.0" rx="0.6" ry="0.6" width="3.0" x="46.0" y="132.0"><title>2019-06-01</title></rect><rect fill="#EEEEEE" height="3.0" rx="0.6" ry="0.6" width="3.0" x="46.0" y="136.0"><title>2019-06-02</title></rect><rect fill="#EEEEEE" height="3.0" rx="0.6" ry="0.6" width="3.0" x="50.0" y="112.0"><title>2019-06-03</title></rect><rect fill="#EEEEEE" height="3.0" rx="0.6" ry="0.6" width="3.0" x="50.0" y="116.0"><title>2019-06-04</title></rect><rect fill="#EEEEEE" height="3.0" rx="0.6" ry="0.6" width="3.0" x="50.0" y="120.0"><title>2019-06-05</title></rect><rect fill="#EEEEEE" height="3.0" rx="0.6" ry="0.6" width="3.0" x="50.0" y="124.0"><title>2019-06-06</title></rect><rect fill="#EEEEEE" height="3.0" rx="0.6" ry="0.6" width="3.0" x="50.0" y="128.0"><title>2019-06-07</title></rect><rect fill="#EEEEEE" height="3.0" rx="0.6" ry="0.6" width="3.0" x="50.0" y="132.0"><title>2019-06-08</title></rect><rect fill="#EEEEEE" height="3.0" rx="0.6" ry="0.6" width="3.0" x="50.0" y="136.0"><title>2019-06-09</title></rect><rect fill="#EEEEEE" height="3.0" rx="0.6" ry="0.6" width="3.0" x="54.0" y="112.0"><title>2019-06-10</title></rect><rect fill="#EEEEEE" height="3.0" rx="0.6" ry="0.6" width="3.0" x="54.0" y="116.0"><title>2019-06-11</title></rect><rect fill="#EEEEEE" height="3.0" rx="0.6" ry="0.6" width="3.0" x="54.0" y="120.0"><title>2019-06-12</title></rect><rect fill="#EEEEEE" height="3.0" rx="0.6" ry="0.6" width="3.0" x="54.0" y="124.0"><title>2019-06-13</title></rect><rect fill="#EEEEEE" height="3.0" rx="0.6" ry="0.6" width="3.0" x="54.0" y="128.0"><title>2019-06-14</title></rect><rect fill="#EEEEEE" height="3.0" rx="0.6" ry="0.6" width="3.0" x="54.0" y="132.0"><title>2019-06-15</title></rect><rect fill="#EEEEEE" height="3.0" rx="0.6" ry="0.6" width="3.0" x="54.0" y="136.0"><title>2019-06-16</title></rect><rect fill="#EEEEEE" height="3.0" rx="0.6" ry="0.6" width="3.0" x="58.0" y="112.0"><title>2019-06-17</title></rect><rect fill="#EEEEEE" height="3.0" rx="0.6" ry="0.6" width="3.0" x="58.0" y="116.0"><title>2019-06-18</title></rect><rect fill="#EEEEEE" height="3.0" rx="0.6" ry="0.6" width="3.0" x="58.0" y="120.0"><title>2019-06-19</title></rect><rect fill="#EEEEEE" height="3.0" rx="0.6" ry="0.6" width="3.0" x="58.0" y="124.0"><title>2019-06-20</title></rect><rect fill="#EEEEEE" height="3.0" rx="0.6" ry="0.6" width="3.0" x="58.0" y="128.0"><title>2019-06-21</title></rect><rect fill="#EEEEEE" height="3.0" rx="0.6" ry="0.6" width="3.0" x="58.0" y="132.0"><title>2019-06-22</title></rect><rect fill="#ff5900" height="3.0" rx="0.6" ry="0.6" width="3.0" x="58.0" y="136.0"><title>2019-06-23 6.87 km</title></rect><rect fill="#EEEEEE" height="3.0" rx="0.6" ry="0.6" width="3.0" x="62.0" y="112.0"><title>2019-06-24</title></rect><rect fill="#EEEEEE" height="3.0" rx="0.6" ry="0.6" width="3.0" x="62.0" y="116.0"><title>2019-06-25</title></rect><rect fill="#EEEEEE" height="3.0" rx="0.6" ry="0.6" width="3.0" x="62.0" y="120.0"><title>2019-06-26</title></rect><rect fill="#EEEEEE" height="3.0" rx="0.6" ry="0.6" width="3.0" x="62.0" y="124.0"><title>2019-06-27</title></rect><rect fill="#EEEEEE" height="3.0" rx="0.6" ry="0.6" width="3.0" x="62.0" y="128.0"><title>2019-06-28</title></rect><rect fill="#4dd2ff" height="3.0" rx="0.6" ry="0.6" width="3.0" x="62.0" y="132.0"><title>2019-06-29 1.11 km</title></rect><rect fill="#EEEEEE" height="3.0" rx="0.6" ry="0.6" width="3.0" x="62.0" y="136.0"><title>2019-06-30</title></rect><text fill="#5A5A5A" style="font-size:8px; font-family:Arial; font-weight:bold;" x="0.0" y="150.0">7 月</text><rect fill="#EEEEEE" height="3.0" rx="0.6" ry="0.6" width="3.0" x="0.0" y="157.0"><title>2019-07-01</title></rect><rect fill="#EEEEEE" height="3.0" rx="0.6" ry="0.6" width="3.0" x="0.0" y="161.0"><title>2019-07-02</title></rect><rect fill="#EEEEEE" height="3.0" rx="0.6" ry="0.6" width="3.0" x="0.0" y="165.0"><title>2019-07-03</title></rect><rect fill="#EEEEEE" height="3.0" rx="0.6" ry="0.6" width="3.0" x="0.0" y="169.0"><title>2019-07-04</title></rect><rect fill="#EEEEEE" height="3.0" rx="0.6" ry="0.6" width="3.0" x="0.0" y="173.0"><title>2019-07-05</title></rect><rect fill="#EEEEEE" height="3.0" rx="0.6" ry="0.6" width="3.0" x="0.0" y="177.0"><title>2019-07-06</title></rect><rect fill="#4dd2ff" height="3.0" rx="0.6" ry="0.6" width="3.0" x="0.0" y="181.0"><title>2019-07-07 0.02 km</title></rect><rect fill="#EEEEEE" height="3.0" rx="0.6" ry="0.6" width="3.0" x="0.0" y="157.0"><title>2019-07-08</title></rect><rect fill="#EEEEEE" height="3.0" rx="0.6" ry="0.6" width="3.0" x="0.0" y="161.0"><title>2019-07-09</title></rect><rect fill="#EEEEEE" height="3.0" rx="0.6" ry="0.6" width="3.0" x="0.0" y="165.0"><title>2019-07-10</title></rect><rect fill="#EEEEEE" height="3.0" rx="0.6" ry="0.6" width="3.0" x="0.0" y="169.0"><title>2019-07-11</title></rect><rect fill="#EEEEEE" height="3.0" rx="0.6" ry="0.6" width="3.0" x="0.0" y="173.0"><title>2019-07-12</title></rect><rect fill="#EEEEEE" height="3.0" rx="0.6" ry="0.6" width="3.0" x="0.0" y="177.0"><title>2019-07-13</title></rect><rect fill="#EEEEEE" height="3.0" rx="0.6" ry="0.6" width="3.0" x="0.0" y="181.0"><title>2019-07-14</title></rect><rect fill="#EEEEEE" height="3.0" rx="0.6" ry="0.6" width="3.0" x="0.0" y="157.0"><title>2019-07-15</title></rect><rect fill="#EEEEEE" height="3.0" rx="0.6" ry="0.6" width="3.0" x="0.0" y="161.0"><title>2019-07-16</title></rect><rect fill="#EEEEEE" height="3.0" rx="0.6" ry="0.6" width="3.0" x="0.0" y="165.0"><title>2019-07-17</title></rect><rect fill="#EEEEEE" height="3.0" rx="0.6" ry="0.6" width="3.0" x="0.0" y="169.0"><title>2019-07-18</title></rect><rect fill="#EEEEEE" height="3.0" rx="0.6" ry="0.6" width="3.0" x="0.0" y="173.0"><title>2019-07-19</title></rect><rect fill="#EEEEEE" height="3.0" rx="0.6" ry="0.6" width="3.0" x="0.0" y="177.0"><title>2019-07-20</title></rect><rect fill="#EEEEEE" height="3.0" rx="0.6" ry="0.6" width="3.0" x="0.0" y="181.0"><title>2019-07-21</title></rect><rect fill="#EEEEEE" height="3.0" rx="0.6" ry="0.6" width="3.0" x="0.0" y="157.0"><title>2019-07-22</title></rect><rect fill="#ff3000" height="3.0" rx="0.6" ry="0.6" width="3.0" x="0.0" y="161.0"><title>2019-07-23 8.58 km</title></rect><rect fill="#EEEEEE" height="3.0" rx="0.6" ry="0.6" width="3.0" x="0.0" y="165.0"><title>2019-07-24</title></rect><rect fill="#EEEEEE" height="3.0" rx="0.6" ry="0.6" width="3.0" x="0.0" y="169.0"><title>2019-07-25</title></rect><rect fill="#ff5700" height="3.0" rx="0.6" ry="0.6" width="3.0" x="0.0" y="173.0"><title>2019-07-26 6.97 km</title></rect><rect fill="#EEEEEE" height="3.0" rx="0.6" ry="0.6" width="3.0" x="0.0" y="177.0"><title>2019-07-27</title></rect><rect fill="#ff5100" height="3.0" rx="0.6" ry="0.6" width="3.0" x="0.0" y="181.0"><title>2019-07-28 7.20 km</title></rect><rect fill="#EEEEEE" height="3.0" rx="0.6" ry="0.6" width="3.0" x="0.0" y="157.0"><title>2019-07-29</title></rect><rect fill="#EEEEEE" height="3.0" rx="0.6" ry="0.6" width="3.0" x="0.0" y="161.0"><title>2019-07-30</title></rect><rect fill="#EEEEEE" height="3.0" rx="0.6" ry="0.6" width="3.0" x="0.0" y="165.0"><title>2019-07-31</title></rect><text fill="#5A5A5A" style="font-size:8px; font-family:Arial; font-weight:bold;" x="0.0" y="150.0">8 月</text><rect fill="#EEEEEE" height="3.0" rx="0.6" ry="0.6" width="3.0" x="0.0" y="169.0"><title>2019-08-01</title></rect><rect fill="#EEEEEE" height="3.0" rx="0.6" ry="0.6" width="3.0" x="0.0" y="173.0"><title>2019-08-02</title></rect><rect fill="#EEEEEE" height="3.0" rx="0.6" ry="0.6" width="3.0" x="0.0" y="177.0"><title>2019-08-03</title></rect><rect fill="#ff7900" height="3.0" rx="0.6" ry="0.6" width="3.0" x="0.0" y="181.0"><title>2019-08-04 5.57 km</title></rect><rect fill="#EEEEEE" height="3.0" rx="0.6" ry="0.6" width="3.0" x="0.0" y="157.0"><title>2019-08-05</title></rect><rect fill="#EEEEEE" height="3.0" rx="0.6" ry="0.6" width="3.0" x="0.0" y="161.0"><title>2019-08-06</title></rect><rect fill="#EEEEEE" height="3.0" rx="0.6" ry="0.6" width="3.0" x="0.0" y="165.0"><title>2019-08-07</title></rect><rect fill="#ff7900" height="3.0" rx="0.6" ry="0.6" width="3.0" x="0.0" y="169.0"><title>2019-08-08 5.57 km</title></rect><rect fill="#EEEEEE" height="3.0" rx="0.6" ry="0.6" width="3.0" x="0.0" y="173.0"><title>2019-08-09</title></rect><rect fill="#ff7600" height="3.0" rx="0.6" ry="0.6" width="3.0" x="0.0" y="177.0"><title>2019-08-10 5.67 km</title></rect><rect fill="#EEEEEE" height="3.0" rx="0.6" ry="0.6" width="3.0" x="0.0" y="181.0"><title>2019-08-11</title></rect><rect fill="#EEEEEE" height="3.0" rx="0.6" ry="0.6" width="3.0" x="0.0" y="157.0"><title>2019-08-12</title></rect><rect fill="#ff4800" height="3.0" rx="0.6" ry="0.6" width="3.0" x="0.0" y="161.0"><title>2019-08-13 7.57 km</title></rect><rect fill="#EEEEEE" height="3.0" rx="0.6" ry="0.6" width="3.0" x="0.0" y="165.0"><title>2019-08-14</title></rect><rect fill="#EEEEEE" height="3.0" rx="0.6" ry="0.6" width="3.0" x="0.0" y="169.0"><title>2019-08-15</title></rect><rect fill="#EEEEEE" height="3.0" rx="0.6" ry="0.6" width="3.0" x="0.0" y="173.0"><title>2019-08-16</title></rect><rect fill="#EEEEEE" height="3.0" rx="0.6" ry="0.6" width="3.0" x="0.0" y="177.0"><title>2019-08-17</title></rect><rect fill="#4dd2ff" height="3.0" rx="0.6" ry="0.6" width="3.0" x="0.0" y="181.0"><title>2019-08-18 0.73 km</title></rect><rect fill="#EEEEEE" height="3.0" rx="0.6" ry="0.6" width="3.0" x="0.0" y="157.0"><title>2019-08-19</title></rect><rect fill="#EEEEEE" height="3.0" rx="0.6" ry="0.6" width="3.0" x="0.0" y="161.0"><title>2019-08-20</title></rect><rect fill="#EEEEEE" height="3.0" rx="0.6" ry="0.6" width="3.0" x="0.0" y="165.0"><title>2019-08-21</title></rect><rect fill="#EEEEEE" height="3.0" rx="0.6" ry="0.6" width="3.0" x="0.0" y="169.0"><title>2019-08-22</title></rect><rect fill="#EEEEEE" height="3.0" rx="0.6" ry="0.6" width="3.0" x="0.0" y="173.0"><title>2019-08-23</title></rect><rect fill="#EEEEEE" height="3.0" rx="0.6" ry="0.6" width="3.0" x="0.0" y="177.0"><title>2019-08-24</title></rect><rect fill="#4dd2ff" height="3.0" rx="0.6" ry="0.6" width="3.0" x="0.0" y="181.0"><title>2019-08-25 4.57 km</title></rect><rect fill="#EEEEEE" height="3.0" rx="0.6" ry="0.6" width="3.0" x="0.0" y="157.0"><title>2019-08-26</title></rect><rect fill="#EEEEEE" height="3.0" rx="0.6" ry="0.6" width="3.0" x="0.0" y="161.0"><title>2019-08-27</title></rect><rect fill="#EEEEEE" height="3.0" rx="0.6" ry="0.6" width="3.0" x="0.0" y="165.0"><title>2019-08-28</title></rect><rect fill="#EEEEEE" height="3.0" rx="0.6" ry="0.6" width="3.0" x="0.0" y="169.0"><title>2019-08-29</title></rect><rect fill="#EEEEEE" height="3.0" rx="0.6" ry="0.6" width="3.0" x="0.0" y="173.0"><title>2019-08-30</title></rect><rect fill="#EEEEEE" height="3.0" rx="0.6" ry="0.6" width="3.0" x="0.0" y="177.0"><title>2019-08-31</title></rect><text fill="#5A5A5A" style="font-size:8px; font-family:Arial; font-weight:bold;" x="0.0" y="150.0">9 月</text><rect fill="#EEEEEE" height="3.0" rx="0.6" ry="0.6" width="3.0" x="0.0" y="181.0"><title>2019-09-01</title></rect><rect fill="#EEEEEE" height="3.0" rx="0.6" ry="0.6" width="3.0" x="0.0" y="157.0"><title>2019-09-02</title></rect><rect fill="#EEEEEE" height="3.0" rx="0.6" ry="0.6" width="3.0" x="0.0" y="161.0"><title>2019-09-03</title></rect><rect fill="#EEEEEE" height="3.0" rx="0.6" ry="0.6" width="3.0" x="0.0" y="165.0"><title>2019-09-04</title></rect><rect fill="#EEEEEE" height="3.0" rx="0.6" ry="0.6" width="3.0" x="0.0" y="169.0"><title>2019-09-05</title></rect><rect fill="#EEEEEE" height="3.0" rx="0.6" ry="0.6" width="3.0" x="0.0" y="173.0"><title>2019-09-06</title></rect><rect fill="#EEEEEE" height="3.0" rx="0.6" ry="0.6" width="3.0" x="0.0" y="177.0"><title>2019-09-07</title></rect><rect fill="#EEEEEE" height="3.0" rx="0.6" ry="0.6" width="3.0" x="0.0" y="181.0"><title>2019-09-08</title></rect><rect fill="#EEEEEE" height="3.0" rx="0.6" ry="0.6" width="3.0" x="0.0" y="157.0"><title>2019-09-09</title></rect><rect fill="#EEEEEE" height="3.0" rx="0.6" ry="0.6" width="3.0" x="0.0" y="161.0"><title>2019-09-10</title></rect><rect fill="#EEEEEE" height="3.0" rx="0.6" ry="0.6" width="3.0" x="0.0" y="165.0"><title>2019-09-11</title></rect><rect fill="#EEEEEE" height="3.0" rx="0.6" ry="0.6" width="3.0" x="0.0" y="169.0"><title>2019-09-12</title></rect><rect fill="#ff6b00" height="3.0" rx="0.6" ry="0.6" width="3.0" x="0.0" y="173.0"><title>2019-09-13 6.14 km</title></rect><rect fill="#ff3000" height="3.0" rx="0.6" ry="0.6" width="3.0" x="0.0" y="177.0"><title>2019-09-14 8.60 km</title></rect><rect fill="#EEEEEE" height="3.0" rx="0.6" ry="0.6" width="3.0" x="0.0" y="181.0"><title>2019-09-15</title></rect><rect fill="#EEEEEE" height="3.0" rx="0.6" ry="0.6" width="3.0" x="0.0" y="157.0"><title>2019-09-16</title></rect><rect fill="#EEEEEE" height="3.0" rx="0.6" ry="0.6" width="3.0" x="0.0" y="161.0"><title>2019-09-17</title></rect><rect fill="#EEEEEE" height="3.0" rx="0.6" ry="0.6" width="3.0" x="0.0" y="165.0"><title>2019-09-18</title></rect><rect fill="#EEEEEE" height="3.0" rx="0.6" ry="0.6" width="3.0" x="0.0" y="169.0"><title>2019-09-19</title></rect><rect fill="#EEEEEE" height="3.0" rx="0.6" ry="0.6" width="3.0" x="0.0" y="173.0"><title>2019-09-20</title></rect><rect fill="#EEEEEE" height="3.0" rx="0.6" ry="0.6" width="3.0" x="0.0" y="177.0"><title>2019-09-21</title></rect><rect fill="#4dd2ff" height="3.0" rx="0.6" ry="0.6" width="3.0" x="0.0" y="181.0"><title>2019-09-22 4.57 km</title></rect><rect fill="#ff5e00" height="3.0" rx="0.6" ry="0.6" width="3.0" x="0.0" y="157.0"><title>2019-09-23 6.66 km</title></rect><rect fill="#4dd2ff" height="3.0" rx="0.6" ry="0.6" width="3.0" x="0.0" y="161.0"><title>2019-09-24 3.49 km</title></rect><rect fill="#ff8600" height="3.0" rx="0.6" ry="0.6" width="3.0" x="0.0" y="165.0"><title>2019-09-25 5.01 km</title></rect><rect fill="#4dd2ff" height="3.0" rx="0.6" ry="0.6" width="3.0" x="0.0" y="169.0"><title>2019-09-26 4.26 km</title></rect><rect fill="#EEEEEE" height="3.0" rx="0.6" ry="0.6" width="3.0" x="0.0" y="173.0"><title>2019-09-27</title></rect><rect fill="#4dd2ff" height="3.0" rx="0.6" ry="0.6" width="3.0" x="0.0" y="177.0"><title>2019-09-28 3.15 km</title></rect><rect fill="#EEEEEE" height="3.0" rx="0.6" ry="0.6" width="3.0" x="0.0" y="181.0"><title>2019-09-29</title></rect><rect fill="#4dd2ff" height="3.0" rx="0.6" ry="0.6" width="3.0" x="0.0" y="157.0"><title>2019-09-30 2.45 km</title></rect><text fill="#5A5A5A" style="font-size:8px; font-family:Arial; font-weight:bold;" x="0.0" y="150.0">10 月</text><rect fill="#4dd2ff" height="3.0" rx="0.6" ry="0.6" width="3.0" x="0.0" y="161.0"><title>2019-10-01 3.00 km</title></rect><rect fill="#EEEEEE" height="3.0" rx="0.6" ry="0.6" width="3.0" x="0.0" y="165.0"><title>2019-10-02</title></rect><rect fill="#EEEEEE" height="3.0" rx="0.6" ry="0.6" width="3.0" x="0.0" y="169.0"><title>2019-10-03</title></rect><rect fill="#EEEEEE" height="3.0" rx="0.6" ry="0.6" width="3.0" x="0.0" y="173.0"><title>2019-10-04</title></rect><rect fill="#EEEEEE" height="3.0" rx="0.6" ry="0.6" width="3.0" x="0.0" y="177.0"><title>2019-10-05</title></rect><rect fill="#ff4900" height="3.0" rx="0.6" ry="0.6" width="3.0" x="0.0" y="181.0"><title>2019-10-06 7.56 km</title></rect><rect fill="#EEEEEE" height="3.0" rx="0.6" ry="0.6" width="3.0" x="0.0" y="157.0"><title>2019-10-07</title></rect><rect fill="#EEEEEE" height="3.0" rx="0.6" ry="0.6" width="3.0" x="0.0" y="161.0"><title>2019-10-08</title></rect><rect fill="#EEEEEE" height="3.0" rx="0.6" ry="0.6" width="3.0" x="0.0" y="165.0"><title>2019-10-09</title></rect><rect fill="#EEEEEE" height="3.0" rx="0.6" ry="0.6" width="3.0" x="0.0" y="169.0"><title>2019-10-10</title></rect><rect fill="#EEEEEE" height="3.0" rx="0.6" ry="0.6" width="3.0" x="0.0" y="173.0"><title>2019-10-11</title></rect><rect fill="#EEEEEE" height="3.0" rx="0.6" ry="0.6" width="3.0" x="0.0" y="177.0"><title>2019-10-12</title></rect><rect fill="#EEEEEE" height="3.0" rx="0.6" ry="0.6" width="3.0" x="0.0" y="181.0"><title>2019-10-13</title></rect><rect fill="#EEEEEE" height="3.0" rx="0.6" ry="0.6" width="3.0" x="0.0" y="157.0"><title>2019-10-14</title></rect><rect fill="#EEEEEE" height="3.0" rx="0.6" ry="0.6" width="3.0" x="0.0" y="161.0"><title>2019-10-15</title></rect><rect fill="#EEEEEE" height="3.0" rx="0.6" ry="0.6" width="3.0" x="0.0" y="165.0"><title>2019-10-16</title></rect><rect fill="#EEEEEE" height="3.0" rx="0.6" ry="0.6" width="3.0" x="0.0" y="169.0"><title>2019-10-17</title></rect><rect fill="#EEEEEE" height="3.0" rx="0.6" ry="0.6" width="3.0" x="0.0" y="173.0"><title>2019-10-18</title></rect><rect fill="#EEEEEE" height="3.0" rx="0.6" ry="0.6" width="3.0" x="0.0" y="177.0"><title>2019-10-19</title></rect><rect fill="#EEEEEE" height="3.0" rx="0.6" ry="0.6" width="3.0" x="0.0" y="181.0"><title>2019-10-20</title></rect><rect fill="#EEEEEE" height="3.0" rx="0.6" ry="0.6" width="3.0" x="0.0" y="157.0"><title>2019-10-21</title></rect><rect fill="#EEEEEE" height="3.0" rx="0.6" ry="0.6" width="3.0" x="0.0" y="161.0"><title>2019-10-22</title></rect><rect fill="#EEEEEE" height="3.0" rx="0.6" ry="0.6" width="3.0" x="0.0" y="165.0"><title>2019-10-23</title></rect><rect fill="#EEEEEE" height="3.0" rx="0.6" ry="0.6" width="3.0" x="0.0" y="169.0"><title>2019-10-24</title></rect><rect fill="#EEEEEE" height="3.0" rx="0.6" ry="0.6" width="3.0" x="0.0" y="173.0"><title>2019-10-25</title></rect><rect fill="#EEEEEE" height="3.0" rx="0.6" ry="0.6" width="3.0" x="0.0" y="177.0"><title>2019-10-26</title></rect><rect fill="#EEEEEE" height="3.0" rx="0.6" ry="0.6" width="3.0" x="0.0" y="181.0"><title>2019-10-27</title></rect><rect fill="#EEEEEE" height="3.0" rx="0.6" ry="0.6" width="3.0" x="2.0" y="157.0"><title>2019-10-28</title></rect><rect fill="#EEEEEE" height="3.0" rx="0.6" ry="0.6" width="3.0" x="2.0" y="161.0"><title>2019-10-29</title></rect><rect fill="#EEEEEE" height="3.0" rx="0.6" ry="0.6" width="3.0" x="2.0" y="165.0"><title>2019-10-30</title></rect><rect fill="#EEEEEE" height="3.0" rx="0.6" ry="0.6" width="3.0" x="2.0" y="169.0"><title>2019-10-31</title></rect><text fill="#5A5A5A" style="font-size:8px; font-family:Arial; font-weight:bold;" x="16.0" y="150.0">11 月</text><rect fill="#EEEEEE" height="3.0" rx="0.6" ry="0.6" width="3.0" x="16.0" y="173.0"><title>2019-11-01</title></rect><rect fill="#EEEEEE" height="3.0" rx="0.6" ry="0.6" width="3.0" x="16.0" y="177.0"><title>2019-11-02</title></rect><rect fill="#ff1900" height="3.0" rx="0.6" ry="0.6" width="3.0" x="16.0" y="181.0"><title>2019-11-03 9.51 km</title></rect><rect fill="#EEEEEE" height="3.0" rx="0.6" ry="0.6" width="3.0" x="20.0" y="157.0"><title>2019-11-04</title></rect><rect fill="#EEEEEE" height="3.0" rx="0.6" ry="0.6" width="3.0" x="20.0" y="161.0"><title>2019-11-05</title></rect><rect fill="#EEEEEE" height="3.0" rx="0.6" ry="0.6" width="3.0" x="20.0" y="165.0"><title>2019-11-06</title></rect><rect fill="#EEEEEE" height="3.0" rx="0.6" ry="0.6" width="3.0" x="20.0" y="169.0"><title>2019-11-07</title></rect><rect fill="#EEEEEE" height="3.0" rx="0.6" ry="0.6" width="3.0" x="20.0" y="173.0"><title>2019-11-08</title></rect><rect fill="#EEEEEE" height="3.0" rx="0.6" ry="0.6" width="3.0" x="20.0" y="177.0"><title>2019-11-09</title></rect><rect fill="#EEEEEE" height="3.0" rx="0.6" ry="0.6" width="3.0" x="20.0" y="181.0"><title>2019-11-10</title></rect><rect fill="#EEEEEE" height="3.0" rx="0.6" ry="0.6" width="3.0" x="24.0" y="157.0"><title>2019-11-11</title></rect><rect fill="#EEEEEE" height="3.0" rx="0.6" ry="0.6" width="3.0" x="24.0" y="161.0"><title>2019-11-12</title></rect><rect fill="#EEEEEE" height="3.0" rx="0.6" ry="0.6" width="3.0" x="24.0" y="165.0"><title>2019-11-13</title></rect><rect fill="#EEEEEE" height="3.0" rx="0.6" ry="0.6" width="3.0" x="24.0" y="169.0"><title>2019-11-14</title></rect><rect fill="#EEEEEE" height="3.0" rx="0.6" ry="0.6" width="3.0" x="24.0" y="173.0"><title>2019-11-15</title></rect><rect fill="#4dd2ff" height="3.0" rx="0.6" ry="0.6" width="3.0" x="24.0" y="177.0"><title>2019-11-16 2.84 km</title></rect><rect fill="#EEEEEE" height="3.0" rx="0.6" ry="0.6" width="3.0" x="24.0" y="181.0"><title>2019-11-17</title></rect><rect fill="#EEEEEE" height="3.0" rx="0.6" ry="0.6" width="3.0" x="28.0" y="157.0"><title>2019-11-18</title></rect><rect fill="#EEEEEE" height="3.0" rx="0.6" ry="0.6" width="3.0" x="28.0" y="161.0"><title>2019-11-19</title></rect><rect fill="#EEEEEE" height="3.0" rx="0.6" ry="0.6" width="3.0" x="28.0" y="165.0"><title>2019-11-20</title></rect><rect fill="#EEEEEE" height="3.0" rx="0.6" ry="0.6" width="3.0" x="28.0" y="169.0"><title>2019-11-21</title></rect><rect fill="#ff8500" height="3.0" rx="0.6" ry="0.6" width="3.0" x="28.0" y="173.0"><title>2019-11-22 5.07 km</title></rect><rect fill="#4dd2ff" height="3.0" rx="0.6" ry="0.6" width="3.0" x="28.0" y="177.0"><title>2019-11-23 4.73 km</title></rect><rect fill="#EEEEEE" height="3.0" rx="0.6" ry="0.6" width="3.0" x="28.0" y="181.0"><title>2019-11-24</title></rect><rect fill="#EEEEEE" height="3.0" rx="0.6" ry="0.6" width="3.0" x="32.0" y="157.0"><title>2019-11-25</title></rect><rect fill="#EEEEEE" height="3.0" rx="0.6" ry="0.6" width="3.0" x="32.0" y="161.0"><title>2019-11-26</title></rect><rect fill="#EEEEEE" height="3.0" rx="0.6" ry="0.6" width="3.0" x="32.0" y="165.0"><title>2019-11-27</title></rect><rect fill="#EEEEEE" height="3.0" rx="0.6" ry="0.6" width="3.0" x="32.0" y="169.0"><title>2019-11-28</title></rect><rect fill="#EEEEEE" height="3.0" rx="0.6" ry="0.6" width="3.0" x="32.0" y="173.0"><title>2019-11-29</title></rect><rect fill="#EEEEEE" height="3.0" rx="0.6" ry="0.6" width="3.0" x="32.0" y="177.0"><title>2019-11-30</title></rect><text fill="#5A5A5A" style="font-size:8px; font-family:Arial; font-weight:bold;" x="46.0" y="150.0">12 月</text><rect fill="#EEEEEE" height="3.0" rx="0.6" ry="0.6" width="3.0" x="46.0" y="181.0"><title>2019-12-01</title></rect><rect fill="#EEEEEE" height="3.0" rx="0.6" ry="0.6" width="3.0" x="50.0" y="157.0"><title>2019-12-02</title></rect><rect fill="#EEEEEE" height="3.0" rx="0.6" ry="0.6" width="3.0" x="50.0" y="161.0"><title>2019-12-03</title></rect><rect fill="#EEEEEE" height="3.0" rx="0.6" ry="0.6" width="3.0" x="50.0" y="165.0"><title>2019-12-04</title></rect><rect fill="#EEEEEE" height="3.0" rx="0.6" ry="0.6" width="3.0" x="50.0" y="169.0"><title>2019-12-05</title></rect><rect fill="#EEEEEE" height="3.0" rx="0.6" ry="0.6" width="3.0" x="50.0" y="173.0"><title>2019-12-06</title></rect><rect fill="#EEEEEE" height="3.0" rx="0.6" ry="0.6" width="3.0" x="50.0" y="177.0"><title>2019-12-07</title></rect><rect fill="#EEEEEE" height="3.0" rx="0.6" ry="0.6" width="3.0" x="50.0" y="181.0"><title>2019-12-08</title></rect><rect fill="#EEEEEE" height="3.0" rx="0.6" ry="0.6" width="3.0" x="54.0" y="157.0"><title>2019-12-09</title></rect><rect fill="#EEEEEE" height="3.0" rx="0.6" ry="0.6" width="3.0" x="54.0" y="161.0"><title>2019-12-10</title></rect><rect fill="#EEEEEE" height="3.0" rx="0.6" ry="0.6" width="3.0" x="54.0" y="165.0"><title>2019-12-11</title></rect><rect fill="#EEEEEE" height="3.0" rx="0.6" ry="0.6" width="3.0" x="54.0" y="169.0"><title>2019-12-12</title></rect><rect fill="#EEEEEE" height="3.0" rx="0.6" ry="0.6" width="3.0" x="54.0" y="173.0"><title>2019-12-13</title></rect><rect fill="#ff8500" height="3.0" rx="0.6" ry="0.6" width="3.0" x="54.0" y="177.0"><title>2019-12-14 5.06 km</title></rect><rect fill="#ff8600" height="3.0" rx="0.6" ry="0.6" width="3.0" x="54.0" y="181.0"><title>2019-12-15 5.03 km</title></rect><rect fill="#EEEEEE" height="3.0" rx="0.6" ry="0.6" width="3.0" x="58.0" y="157.0"><title>2019-12-16</title></rect><rect fill="#EEEEEE" height="3.0" rx="0.6" ry="0.6" width="3.0" x="58.0" y="161.0"><title>2019-12-17</title></rect><rect fill="#EEEEEE" height="3.0" rx="0.6" ry="0.6" width="3.0" x="58.0" y="165.0"><title>2019-12-18</title></rect><rect fill="#EEEEEE" height="3.0" rx="0.6" ry="0.6" width="3.0" x="58.0" y="169.0"><title>2019-12-19</title></rect><rect fill="#EEEEEE" height="3.0" rx="0.6" ry="0.6" width="3.0" x="58.0" y="173.0"><title>2019-12-20</title></rect><rect fill="#4dd2ff" height="3.0" rx="0.6" ry="0.6" width="3.0" x="58.0" y="177.0"><title>2019-12-21 3.88 km</title></rect><rect fill="#EEEEEE" height="3.0" rx="0.6" ry="0.6" width="3.0" x="58.0" y="181.0"><title>2019-12-22</title></rect><rect fill="#EEEEEE" height="3.0" rx="0.6" ry="0.6" width="3.0" x="62.0" y="157.0"><title>2019-12-23</title></rect><rect fill="#EEEEEE" height="3.0" rx="0.6" ry="0.6" width="3.0" x="62.0" y="161.0"><title>2019-12-24</title></rect><rect fill="#EEEEEE" height="3.0" rx="0.6" ry="0.6" width="3.0" x="62.0" y="165.0"><title>2019-12-25</title></rect><rect fill="#EEEEEE" height="3.0" rx="0.6" ry="0.6" width="3.0" x="62.0" y="169.0"><title>2019-12-26</title></rect><rect fill="#EEEEEE" height="3.0" rx="0.6" ry="0.6" width="3.0" x="62.0" y="173.0"><title>2019-12-27</title></rect><rect fill="#EEEEEE" height="3.0" rx="0.6" ry="0.6" width="3.0" x="62.0" y="177.0"><title>2019-12-28</title></rect><rect fill="#EEEEEE" height="3.0" rx="0.6" ry="0.6" width="3.0" x="62.0" y="181.0"><title>2019-12-29</title></rect><rect fill="#EEEEEE" height="3.0" rx="0.6" ry="0.6" width="3.0" x="66.0" y="157.0"><title>2019-12-30</title></rect><rect fill="#EEEEEE" height="3.0" rx="0.6" ry="0.6" width="3.0" x="66.0" y="161.0"><title>2019-12-31</title></rect></g><text fill="#5A5A5A" style="font-size:12px; font-family:Arial; font-weight:bold;" x="0" y="20">年度跑步日历</text><text fill="#5A5A5A" style="font-size:4px; font-family:Arial" x="0" y="200">Runner</text><text fill="#5A5A5A" style="font-size:9px; font-family:Arial" x="0" y="210">Workouts</text><text fill="#5A5A5A" style="font-size:4px; font-family:Arial" x="0" y="200">SPECIAL TRACKS</text><rect fill="yellow" height="2.6" width="2.6" x="0" y="203" /><text fill="#5A5A5A" style="font-size:3px; font-family:Arial" x="0" y="205.5">Over 5.0 km</text><rect fill="red" height="2.6" width="2.6" x="0" y="207" /><text fill="#5A5A5A" style="font-size:3px; font-family:Arial" x="0" y="209.5">Over 10.0 km</text><text fill="#5A5A5A" style="font-size:4px; font-family:Arial" x="0" y="200">STATISTICS</text><text fill="#5A5A5A" style="font-size:3px; font-family:Arial" x="0" y="205">Number: 57 / 62</text><text fill="#5A5A5A" style="font-size:3px; font-family:Arial" x="0" y="210">Weekly: 2.19</text><text fill="#5A5A5A" style="font-size:3px; font-family:Arial" x="11" y="205">Total: 248.59 km / 277.56 km</text><text fill="#5A5A5A" style="font-size:3px; font-family:Arial" x="11" y="210">Avg: 4.36 km</text><text fill="#5A5A5A" style="font-size:3px; font-family:Arial" x="61" y="205">Min: 0.02 km</text><text fill="#5A5A5A" style="font-size:3px; font-family:Arial" x="61" y="210">Max: 10.57 km</text></svg>