<?xml version="1.0" encoding="utf-8" ?>
<svg baseProfile="full" height="98mm" version="1.1" viewBox="0,0,200,98" width="200mm" xmlns="http://www.w3.org/2000/svg" xmlns:ev="http://www.w3.org/2001/xml-events" xmlns:xlink="http://www.w3.org/1999/xlink"><defs /><rect fill="#FAF9F5" height="98" width="200" x="0" y="0" /><g id="tracks" /><text fill="#5A5A5A" style="font-size:12px; font-family:Arial; font-weight:bold;" x="0" y="20">2025 Workouts</text><text fill="#5A5A5A" style="font-size:4px; font-family:Arial" x="0" y="78">Runner</text><text fill="#5A5A5A" style="font-size:9px; font-family:Arial" x="0" y="88">蓝皮书</text><text fill="#5A5A5A" style="font-size:4px; font-family:Arial" x="32" y="78">SPECIAL TRACKS</text><rect fill="yellow" height="2.6" width="2.6" x="32" y="81" /><text fill="#5A5A5A" style="font-size:3px; font-family:Arial" x="37" y="83.5">Over 10.0 km</text><rect fill="red" height="2.6" width="2.6" x="32" y="85" /><text fill="#5A5A5A" style="font-size:3px; font-family:Arial" x="37" y="87.5">Over 15.0 km</text><text fill="#5A5A5A" style="font-size:4px; font-family:Arial" x="72" y="78">STATISTICS</text><text fill="#5A5A5A" style="font-size:3px; font-family:Arial" x="72" y="83">Number: 219</text><text fill="#5A5A5A" style="font-size:3px; font-family:Arial" x="72" y="88">Weekly: 4.21</text><text fill="#5A5A5A" style="font-size:3px; font-family:Arial" x="107" y="83">Total: 1426.61 km</text><text fill="#5A5A5A" style="font-size:3px; font-family:Arial" x="107" y="88">Avg: 6.51 km</text><text fill="#5A5A5A" style="font-size:3px; font-family:Arial" x="157" y="83">Min: 1.00 km</text><text fill="#5A5A5A" style="font-size:3px; font-family:Arial" x="157" y="88">Max: 22.24 km</text><text dominant-baseline="hanging" fill="#5A5A5A" style="font-size:10.0px; font-family:Arial;" x="0" y="30">2025</text><text dominant-baseline="hanging" fill="#5A5A5A" style="font-size:4.125px; font-family:Arial;" x="157" y="35">1426.61 km</text><text fill="#5A5A5A" style="font-size:2.5px; font-family:Arial" x="0.0" y="44">Jan</text><text fill="#5A5A5A" style="font-size:2.5px; font-family:Arial" x="7.5" y="44">Feb</text><text fill="#5A5A5A" style="font-size:2.5px; font-family:Arial" x="23.0" y="44">Mar</text><text fill="#5A5A5A" style="font-size:2.5px; font-family:Arial" x="38.5" y="44">Apr</text><text fill="#5A5A5A" style="font-size:2.5px; font-family:Arial" x="54.0" y="44">May</text><text fill="#5A5A5A" style="font-size:2.5px; font-family:Arial" x="69.5" y="44">Jun</text><text fill="#5A5A5A" style="font-size:2.5px; font-family:Arial" x="85.0" y="44">Jul</text><text fill="#5A5A5A" style="font-size:2.5px; font-family:Arial" x="100.5" y="44">Aug</text><text fill="#5A5A5A" style="font-size:2.5px; font-family:Arial" x="116.0" y="44">Sep</text><text fill="#5A5A5A" style="font-size:2.5px; font-family:Arial" x="131.5" y="44">Oct</text><text fill="#5A5A5A" style="font-size:2.5px; font-family:Arial" x="147.0" y="44">Nov</text><text fill="#5A5A5A" style="font-size:2.5px; font-family:Arial" x="162.5" y="44">Dec</text><rect fill="red" height="2.6" width="2.6" x="0.0" y="52.5"><title>2025-01-01 20.25 km</title></rect><rect fill="#EEEEEE" height="2.6" width="2.6" x="0.0" y="56.0"><title>2025-01-02</title></rect><rect fill="#EEEEEE" height="2.6" width="2.6" x="0.0" y="59.5"><title>2025-01-03</title></rect><rect fill="#ff7100" height="2.6" width="2.6" x="0.0" y="63.0"><title>2025-01-04 14.71 km</title></rect><rect fill="#EEEEEE" height="2.6" width="2.6" x="0.0" y="66.5"><title>2025-01-05</title></rect><rect fill="#4dd2ff" height="2.6" width="2.6" x="0.0" y="45.5"><title>2025-01-06 5.57 km</title></rect><rect fill="#4dd2ff" height="2.6" width="2.6" x="0.0" y="49.0"><title>2025-01-07 3.33 km</title></rect><rect fill="#4dd2ff" height="2.6" width="2.6" x="0.0" y="52.5"><title>2025-01-08 5.56 km</title></rect><rect fill="#4dd2ff" height="2.6" width="2.6" x="0.0" y="56.0"><title>2025-01-09 6.79 km</title></rect><rect fill="#4dd2ff" height="2.6" width="2.6" x="0.0" y="59.5"><title>2025-01-10 6.03 km</title></rect><rect fill="#4dd2ff" height="2.6" width="2.6" x="0.0" y="63.0"><title>2025-01-11 5.68 km</title></rect><rect fill="#EEEEEE" height="2.6" width="2.6" x="0.0" y="66.5"><title>2025-01-12</title></rect><rect fill="#4dd2ff" height="2.6" width="2.6" x="0.0" y="45.5"><title>2025-01-13 5.12 km</title></rect><rect fill="#4dd2ff" height="2.6" width="2.6" x="0.0" y="49.0"><title>2025-01-14 6.13 km</title></rect><rect fill="#4dd2ff" height="2.6" width="2.6" x="0.0" y="52.5"><title>2025-01-15 5.23 km</title></rect><rect fill="#4dd2ff" height="2.6" width="2.6" x="0.0" y="56.0"><title>2025-01-16 5.96 km</title></rect><rect fill="#EEEEEE" height="2.6" width="2.6" x="0.0" y="59.5"><title>2025-01-17</title></rect><rect fill="#ff9f00" height="2.6" width="2.6" x="0.0" y="63.0"><title>2025-01-18 10.26 km</title></rect><rect fill="#4dd2ff" height="2.6" width="2.6" x="0.0" y="66.5"><title>2025-01-19 5.67 km</title></rect><rect fill="#4dd2ff" height="2.6" width="2.6" x="2.5" y="45.5"><title>2025-01-20 5.13 km</title></rect><rect fill="#EEEEEE" height="2.6" width="2.6" x="2.5" y="49.0"><title>2025-01-21</title></rect><rect fill="#EEEEEE" height="2.6" width="2.6" x="2.5" y="52.5"><title>2025-01-22</title></rect><rect fill="#ff9e00" height="2.6" width="2.6" x="2.5" y="56.0"><title>2025-01-23 10.33 km</title></rect><rect fill="#EEEEEE" height="2.6" width="2.6" x="2.5" y="59.5"><title>2025-01-24</title></rect><rect fill="#ff8a00" height="2.6" width="2.6" x="2.5" y="63.0"><title>2025-01-25 12.26 km</title></rect><rect fill="#EEEEEE" height="2.6" width="2.6" x="2.5" y="66.5"><title>2025-01-26</title></rect><rect fill="#EEEEEE" height="2.6" width="2.6" x="6.0" y="45.5"><title>2025-01-27</title></rect><rect fill="#EEEEEE" height="2.6" width="2.6" x="6.0" y="49.0"><title>2025-01-28</title></rect><rect fill="#4dd2ff" height="2.6" width="2.6" x="6.0" y="52.5"><title>2025-01-29 5.16 km</title></rect><rect fill="#4dd2ff" height="2.6" width="2.6" x="6.0" y="56.0"><title>2025-01-30 2.13 km</title></rect><rect fill="#4dd2ff" height="2.6" width="2.6" x="6.0" y="59.5"><title>2025-01-31 8.17 km</title></rect><rect fill="#EEEEEE" height="2.6" width="2.6" x="6.0" y="63.0"><title>2025-02-01</title></rect><rect fill="#4dd2ff" height="2.6" width="2.6" x="6.0" y="66.5"><title>2025-02-02 5.57 km</title></rect><rect fill="#4dd2ff" height="2.6" width="2.6" x="9.5" y="45.5"><title>2025-02-03 6.78 km</title></rect><rect fill="#4dd2ff" height="2.6" width="2.6" x="9.5" y="49.0"><title>2025-02-04 5.67 km</title></rect><rect fill="#EEEEEE" height="2.6" width="2.6" x="9.5" y="52.5"><title>2025-02-05</title></rect><rect fill="#EEEEEE" height="2.6" width="2.6" x="9.5" y="56.0"><title>2025-02-06</title></rect><rect fill="#EEEEEE" height="2.6" width="2.6" x="9.5" y="59.5"><title>2025-02-07</title></rect><rect fill="#EEEEEE" height="2.6" width="2.6" x="9.5" y="63.0"><title>2025-02-08</title></rect><rect fill="#4dd2ff" height="2.6" width="2.6" x="9.5" y="66.5"><title>2025-02-09 5.24 km</title></rect><rect fill="#4dd2ff" height="2.6" width="2.6" x="13.0" y="45.5"><title>2025-02-10 5.13 km</title></rect><rect fill="#EEEEEE" height="2.6" width="2.6" x="13.0" y="49.0"><title>2025-02-11</title></rect><rect fill="#EEEEEE" height="2.6" width="2.6" x="13.0" y="52.5"><title>2025-02-12</title></rect><rect fill="#4dd2ff" height="2.6" width="2.6" x="13.0" y="56.0"><title>2025-02-13 9.70 km</title></rect><rect fill="#EEEEEE" height="2.6" width="2.6" x="13.0" y="59.5"><title>2025-02-14</title></rect><rect fill="#ff8900" height="2.6" width="2.6" x="13.0" y="63.0"><title>2025-02-15 12.34 km</title></rect><rect fill="#EEEEEE" height="2.6" width="2.6" x="13.0" y="66.5"><title>2025-02-16</title></rect><rect fill="#EEEEEE" height="2.6" width="2.6" x="16.5" y="45.5"><title>2025-02-17</title></rect><rect fill="#4dd2ff" height="2.6" width="2.6" x="16.5" y="49.0"><title>2025-02-18 6.78 km</title></rect><rect fill="#EEEEEE" height="2.6" width="2.6" x="16.5" y="52.5"><title>2025-02-19</title></rect><rect fill="#4dd2ff" height="2.6" width="2.6" x="16.5" y="56.0"><title>2025-02-20 5.69 km</title></rect><rect fill="#4dd2ff" height="2.6" width="2.6" x="16.5" y="59.5"><title>2025-02-21 5.16 km</title></rect><rect fill="#4dd2ff" height="2.6" width="2.6" x="16.5" y="63.0"><title>2025-02-22 1.36 km</title></rect><rect fill="#EEEEEE" height="2.6" width="2.6" x="16.5" y="66.5"><title>2025-02-23</title></rect><rect fill="#EEEEEE" height="2.6" width="2.6" x="20.0" y="45.5"><title>2025-02-24</title></rect><rect fill="#4dd2ff" height="2.6" width="2.6" x="20.0" y="49.0"><title>2025-02-25 5.14 km</title></rect><rect fill="#4dd2ff" height="2.6" width="2.6" x="20.0" y="52.5"><title>2025-02-26 5.33 km</title></rect><rect fill="#4dd2ff" height="2.6" width="2.6" x="20.0" y="56.0"><title>2025-02-27 5.13 km</title></rect><rect fill="#ffa000" height="2.6" width="2.6" x="20.0" y="59.5"><title>2025-02-28 10.13 km</title></rect><rect fill="#EEEEEE" height="2.6" width="2.6" x="20.0" y="63.0"><title>2025-03-01</title></rect><rect fill="#EEEEEE" height="2.6" width="2.6" x="20.0" y="66.5"><title>2025-03-02</title></rect><rect fill="#EEEEEE" height="2.6" width="2.6" x="23.5" y="45.5"><title>2025-03-03</title></rect><rect fill="#EEEEEE" height="2.6" width="2.6" x="23.5" y="49.0"><title>2025-03-04</title></rect><rect fill="#4dd2ff" height="2.6" width="2.6" x="23.5" y="52.5"><title>2025-03-05 8.81 km</title></rect><rect fill="#4dd2ff" height="2.6" width="2.6" x="23.5" y="56.0"><title>2025-03-06 5.33 km</title></rect><rect fill="#4dd2ff" height="2.6" width="2.6" x="23.5" y="59.5"><title>2025-03-07 5.37 km</title></rect><rect fill="#EEEEEE" height="2.6" width="2.6" x="23.5" y="63.0"><title>2025-03-08</title></rect><rect fill="#4dd2ff" height="2.6" width="2.6" x="23.5" y="66.5"><title>2025-03-09 7.00 km</title></rect><rect fill="#EEEEEE" height="2.6" width="2.6" x="27.0" y="45.5"><title>2025-03-10</title></rect><rect fill="#EEEEEE" height="2.6" width="2.6" x="27.0" y="49.0"><title>2025-03-11</title></rect><rect fill="#4dd2ff" height="2.6" width="2.6" x="27.0" y="52.5"><title>2025-03-12 5.14 km</title></rect><rect fill="#4dd2ff" height="2.6" width="2.6" x="27.0" y="56.0"><title>2025-03-13 5.13 km</title></rect><rect fill="#4dd2ff" height="2.6" width="2.6" x="27.0" y="59.5"><title>2025-03-14 5.26 km</title></rect><rect fill="#EEEEEE" height="2.6" width="2.6" x="27.0" y="63.0"><title>2025-03-15</title></rect><rect fill="#ffa200" height="2.6" width="2.6" x="27.0" y="66.5"><title>2025-03-16 10.00 km</title></rect><rect fill="#EEEEEE" height="2.6" width="2.6" x="30.5" y="45.5"><title>2025-03-17</title></rect><rect fill="#ff9c00" height="2.6" width="2.6" x="30.5" y="49.0"><title>2025-03-18 10.52 km</title></rect><rect fill="#4dd2ff" height="2.6" width="2.6" x="30.5" y="52.5"><title>2025-03-19 8.14 km</title></rect><rect fill="#ff9900" height="2.6" width="2.6" x="30.5" y="56.0"><title>2025-03-20 10.86 km</title></rect><rect fill="#EEEEEE" height="2.6" width="2.6" x="30.5" y="59.5"><title>2025-03-21</title></rect><rect fill="#EEEEEE" height="2.6" width="2.6" x="30.5" y="63.0"><title>2025-03-22</title></rect><rect fill="#ff9000" height="2.6" width="2.6" x="30.5" y="66.5"><title>2025-03-23 11.76 km</title></rect><rect fill="#EEEEEE" height="2.6" width="2.6" x="34.0" y="45.5"><title>2025-03-24</title></rect><rect fill="#4dd2ff" height="2.6" width="2.6" x="34.0" y="49.0"><title>2025-03-25 5.21 km</title></rect><rect fill="#ffa200" height="2.6" width="2.6" x="34.0" y="52.5"><title>2025-03-26 10.01 km</title></rect><rect fill="#EEEEEE" height="2.6" width="2.6" x="34.0" y="56.0"><title>2025-03-27</title></rect><rect fill="#4dd2ff" height="2.6" width="2.6" x="34.0" y="59.5"><title>2025-03-28 5.27 km</title></rect><rect fill="#EEEEEE" height="2.6" width="2.6" x="34.0" y="63.0"><title>2025-03-29</title></rect><rect fill="#EEEEEE" height="2.6" width="2.6" x="34.0" y="66.5"><title>2025-03-30</title></rect><rect fill="#4dd2ff" height="2.6" width="2.6" x="37.5" y="45.5"><title>2025-03-31 3.34 km</title></rect><rect fill="#4dd2ff" height="2.6" width="2.6" x="37.5" y="49.0"><title>2025-04-01 9.55 km</title></rect><rect fill="#EEEEEE" height="2.6" width="2.6" x="37.5" y="52.5"><title>2025-04-02</title></rect><rect fill="#ff9900" height="2.6" width="2.6" x="37.5" y="56.0"><title>2025-04-03 10.83 km</title></rect><rect fill="red" height="2.6" width="2.6" x="37.5" y="59.5"><title>2025-04-04 15.10 km</title></rect><rect fill="#EEEEEE" height="2.6" width="2.6" x="37.5" y="63.0"><title>2025-04-05</title></rect><rect fill="#ff9c00" height="2.6" width="2.6" x="37.5" y="66.5"><title>2025-04-06 10.57 km</title></rect><rect fill="#4dd2ff" height="2.6" width="2.6" x="41.0" y="45.5"><title>2025-04-07 5.06 km</title></rect><rect fill="#EEEEEE" height="2.6" width="2.6" x="41.0" y="49.0"><title>2025-04-08</title></rect><rect fill="#EEEEEE" height="2.6" width="2.6" x="41.0" y="52.5"><title>2025-04-09</title></rect><rect fill="#EEEEEE" height="2.6" width="2.6" x="41.0" y="56.0"><title>2025-04-10</title></rect><rect fill="#EEEEEE" height="2.6" width="2.6" x="41.0" y="59.5"><title>2025-04-11</title></rect><rect fill="#EEEEEE" height="2.6" width="2.6" x="41.0" y="63.0"><title>2025-04-12</title></rect><rect fill="#EEEEEE" height="2.6" width="2.6" x="41.0" y="66.5"><title>2025-04-13</title></rect><rect fill="#4dd2ff" height="2.6" width="2.6" x="44.5" y="45.5"><title>2025-04-14 7.22 km</title></rect><rect fill="#4dd2ff" height="2.6" width="2.6" x="44.5" y="49.0"><title>2025-04-15 5.34 km</title></rect><rect fill="#4dd2ff" height="2.6" width="2.6" x="44.5" y="52.5"><title>2025-04-16 9.51 km</title></rect><rect fill="#4dd2ff" height="2.6" width="2.6" x="44.5" y="56.0"><title>2025-04-17 5.15 km</title></rect><rect fill="#EEEEEE" height="2.6" width="2.6" x="44.5" y="59.5"><title>2025-04-18</title></rect><rect fill="#EEEEEE" height="2.6" width="2.6" x="44.5" y="63.0"><title>2025-04-19</title></rect><rect fill="red" height="2.6" width="2.6" x="44.5" y="66.5"><title>2025-04-20 21.72 km</title></rect><rect fill="#EEEEEE" height="2.6" width="2.6" x="48.0" y="45.5"><title>2025-04-21</title></rect><rect fill="#4dd2ff" height="2.6" width="2.6" x="48.0" y="49.0"><title>2025-04-22 4.00 km</title></rect><rect fill="#EEEEEE" height="2.6" width="2.6" x="48.0" y="52.5"><title>2025-04-23</title></rect><rect fill="#4dd2ff" height="2.6" width="2.6" x="48.0" y="56.0"><title>2025-04-24 5.23 km</title></rect><rect fill="#EEEEEE" height="2.6" width="2.6" x="48.0" y="59.5"><title>2025-04-25</title></rect><rect fill="#ff7800" height="2.6" width="2.6" x="48.0" y="63.0"><title>2025-04-26 14.01 km</title></rect><rect fill="#EEEEEE" height="2.6" width="2.6" x="48.0" y="66.5"><title>2025-04-27</title></rect><rect fill="#4dd2ff" height="2.6" width="2.6" x="51.5" y="45.5"><title>2025-04-28 9.50 km</title></rect><rect fill="#4dd2ff" height="2.6" width="2.6" x="51.5" y="49.0"><title>2025-04-29 5.20 km</title></rect><rect fill="#EEEEEE" height="2.6" width="2.6" x="51.5" y="52.5"><title>2025-04-30</title></rect><rect fill="#4dd2ff" height="2.6" width="2.6" x="51.5" y="56.0"><title>2025-05-01 8.23 km</title></rect><rect fill="#4dd2ff" height="2.6" width="2.6" x="51.5" y="59.5"><title>2025-05-02 5.52 km</title></rect><rect fill="#4dd2ff" height="2.6" width="2.6" x="51.5" y="63.0"><title>2025-05-03 2.68 km</title></rect><rect fill="#EEEEEE" height="2.6" width="2.6" x="51.5" y="66.5"><title>2025-05-04</title></rect><rect fill="#ff9a00" height="2.6" width="2.6" x="55.0" y="45.5"><title>2025-05-05 10.75 km</title></rect><rect fill="#EEEEEE" height="2.6" width="2.6" x="55.0" y="49.0"><title>2025-05-06</title></rect><rect fill="#EEEEEE" height="2.6" width="2.6" x="55.0" y="52.5"><title>2025-05-07</title></rect><rect fill="#4dd2ff" height="2.6" width="2.6" x="55.0" y="56.0"><title>2025-05-08 9.31 km</title></rect><rect fill="#EEEEEE" height="2.6" width="2.6" x="55.0" y="59.5"><title>2025-05-09</title></rect><rect fill="red" height="2.6" width="2.6" x="55.0" y="63.0"><title>2025-05-10 18.34 km</title></rect><rect fill="#EEEEEE" height="2.6" width="2.6" x="55.0" y="66.5"><title>2025-05-11</title></rect><rect fill="#EEEEEE" height="2.6" width="2.6" x="58.5" y="45.5"><title>2025-05-12</title></rect><rect fill="#EEEEEE" height="2.6" width="2.6" x="58.5" y="49.0"><title>2025-05-13</title></rect><rect fill="#EEEEEE" height="2.6" width="2.6" x="58.5" y="52.5"><title>2025-05-14</title></rect><rect fill="#4dd2ff" height="2.6" width="2.6" x="58.5" y="56.0"><title>2025-05-15 6.27 km</title></rect><rect fill="#EEEEEE" height="2.6" width="2.6" x="58.5" y="59.5"><title>2025-05-16</title></rect><rect fill="#4dd2ff" height="2.6" width="2.6" x="58.5" y="63.0"><title>2025-05-17 5.25 km</title></rect><rect fill="#4dd2ff" height="2.6" width="2.6" x="58.5" y="66.5"><title>2025-05-18 5.13 km</title></rect><rect fill="#EEEEEE" height="2.6" width="2.6" x="62.0" y="45.5"><title>2025-05-19</title></rect><rect fill="#4dd2ff" height="2.6" width="2.6" x="62.0" y="49.0"><title>2025-05-20 6.24 km</title></rect><rect fill="#4dd2ff" height="2.6" width="2.6" x="62.0" y="52.5"><title>2025-05-21 6.24 km</title></rect><rect fill="#4dd2ff" height="2.6" width="2.6" x="62.0" y="56.0"><title>2025-05-22 6.69 km</title></rect><rect fill="#EEEEEE" height="2.6" width="2.6" x="62.0" y="59.5"><title>2025-05-23</title></rect><rect fill="#ff7b00" height="2.6" width="2.6" x="62.0" y="63.0"><title>2025-05-24 13.74 km</title></rect><rect fill="#4dd2ff" height="2.6" width="2.6" x="62.0" y="66.5"><title>2025-05-25 6.27 km</title></rect><rect fill="#EEEEEE" height="2.6" width="2.6" x="65.5" y="45.5"><title>2025-05-26</title></rect><rect fill="#4dd2ff" height="2.6" width="2.6" x="65.5" y="49.0"><title>2025-05-27 2.57 km</title></rect><rect fill="#ffa000" height="2.6" width="2.6" x="65.5" y="52.5"><title>2025-05-28 10.13 km</title></rect><rect fill="#4dd2ff" height="2.6" width="2.6" x="65.5" y="56.0"><title>2025-05-29 6.23 km</title></rect><rect fill="#EEEEEE" height="2.6" width="2.6" x="65.5" y="59.5"><title>2025-05-30</title></rect><rect fill="#4dd2ff" height="2.6" width="2.6" x="65.5" y="63.0"><title>2025-05-31 5.51 km</title></rect><rect fill="#EEEEEE" height="2.6" width="2.6" x="65.5" y="66.5"><title>2025-06-01</title></rect><rect fill="#4dd2ff" height="2.6" width="2.6" x="69.0" y="45.5"><title>2025-06-02 6.23 km</title></rect><rect fill="#4dd2ff" height="2.6" width="2.6" x="69.0" y="49.0"><title>2025-06-03 3.04 km</title></rect><rect fill="#4dd2ff" height="2.6" width="2.6" x="69.0" y="52.5"><title>2025-06-04 7.11 km</title></rect><rect fill="#4dd2ff" height="2.6" width="2.6" x="69.0" y="56.0"><title>2025-06-05 6.32 km</title></rect><rect fill="#4dd2ff" height="2.6" width="2.6" x="69.0" y="59.5"><title>2025-06-06 6.69 km</title></rect><rect fill="#4dd2ff" height="2.6" width="2.6" x="69.0" y="63.0"><title>2025-06-07 6.97 km</title></rect><rect fill="red" height="2.6" width="2.6" x="69.0" y="66.5"><title>2025-06-08 15.57 km</title></rect><rect fill="#4dd2ff" height="2.6" width="2.6" x="72.5" y="45.5"><title>2025-06-09 5.03 km</title></rect><rect fill="#4dd2ff" height="2.6" width="2.6" x="72.5" y="49.0"><title>2025-06-10 5.25 km</title></rect><rect fill="#4dd2ff" height="2.6" width="2.6" x="72.5" y="52.5"><title>2025-06-11 7.33 km</title></rect><rect fill="#4dd2ff" height="2.6" width="2.6" x="72.5" y="56.0"><title>2025-06-12 7.72 km</title></rect><rect fill="#4dd2ff" height="2.6" width="2.6" x="72.5" y="59.5"><title>2025-06-13 6.26 km</title></rect><rect fill="#4dd2ff" height="2.6" width="2.6" x="72.5" y="63.0"><title>2025-06-14 1.00 km</title></rect><rect fill="red" height="2.6" width="2.6" x="72.5" y="66.5"><title>2025-06-15 16.34 km</title></rect><rect fill="#4dd2ff" height="2.6" width="2.6" x="76.0" y="45.5"><title>2025-06-16 1.17 km</title></rect><rect fill="#4dd2ff" height="2.6" width="2.6" x="76.0" y="49.0"><title>2025-06-17 7.68 km</title></rect><rect fill="#4dd2ff" height="2.6" width="2.6" x="76.0" y="52.5"><title>2025-06-18 7.18 km</title></rect><rect fill="#4dd2ff" height="2.6" width="2.6" x="76.0" y="56.0"><title>2025-06-19 7.61 km</title></rect><rect fill="#4dd2ff" height="2.6" width="2.6" x="76.0" y="59.5"><title>2025-06-20 6.26 km</title></rect><rect fill="red" height="2.6" width="2.6" x="76.0" y="63.0"><title>2025-06-21 15.17 km</title></rect><rect fill="#4dd2ff" height="2.6" width="2.6" x="76.0" y="66.5"><title>2025-06-22 7.72 km</title></rect><rect fill="#ff8c00" height="2.6" width="2.6" x="79.5" y="45.5"><title>2025-06-23 12.10 km</title></rect><rect fill="#4dd2ff" height="2.6" width="2.6" x="79.5" y="49.0"><title>2025-06-24 5.77 km</title></rect><rect fill="#4dd2ff" height="2.6" width="2.6" x="79.5" y="52.5"><title>2025-06-25 6.13 km</title></rect><rect fill="red" height="2.6" width="2.6" x="79.5" y="56.0"><title>2025-06-26 22.24 km</title></rect><rect fill="#EEEEEE" height="2.6" width="2.6" x="79.5" y="59.5"><title>2025-06-27</title></rect><rect fill="#4dd2ff" height="2.6" width="2.6" x="79.5" y="63.0"><title>2025-06-28 1.07 km</title></rect><rect fill="#EEEEEE" height="2.6" width="2.6" x="79.5" y="66.5"><title>2025-06-29</title></rect><rect fill="#4dd2ff" height="2.6" width="2.6" x="83.0" y="45.5"><title>2025-06-30 6.03 km</title></rect><rect fill="#EEEEEE" height="2.6" width="2.6" x="83.0" y="49.0"><title>2025-07-01</title></rect><rect fill="#4dd2ff" height="2.6" width="2.6" x="83.0" y="52.5"><title>2025-07-02 6.78 km</title></rect><rect fill="#EEEEEE" height="2.6" width="2.6" x="83.0" y="56.0"><title>2025-07-03</title></rect><rect fill="#4dd2ff" height="2.6" width="2.6" x="83.0" y="59.5"><title>2025-07-04 6.96 km</title></rect><rect fill="#ffa100" height="2.6" width="2.6" x="83.0" y="63.0"><title>2025-07-05 10.03 km</title></rect><rect fill="#ff9c00" height="2.6" width="2.6" x="83.0" y="66.5"><title>2025-07-06 10.52 km</title></rect><rect fill="#4dd2ff" height="2.6" width="2.6" x="86.5" y="45.5"><title>2025-07-07 5.02 km</title></rect><rect fill="#EEEEEE" height="2.6" width="2.6" x="86.5" y="49.0"><title>2025-07-08</title></rect><rect fill="#4dd2ff" height="2.6" width="2.6" x="86.5" y="52.5"><title>2025-07-09 5.79 km</title></rect><rect fill="#EEEEEE" height="2.6" width="2.6" x="86.5" y="56.0"><title>2025-07-10</title></rect><rect fill="#EEEEEE" height="2.6" width="2.6" x="86.5" y="59.5"><title>2025-07-11</title></rect><rect fill="#EEEEEE" height="2.6" width="2.6" x="86.5" y="63.0"><title>2025-07-12</title></rect><rect fill="#4dd2ff" height="2.6" width="2.6" x="86.5" y="66.5"><title>2025-07-13 1.13 km</title></rect><rect fill="red" height="2.6" width="2.6" x="90.0" y="45.5"><title>2025-07-14 15.63 km</title></rect><rect fill="#EEEEEE" height="2.6" width="2.6" x="90.0" y="49.0"><title>2025-07-15</title></rect><rect fill="#EEEEEE" height="2.6" width="2.6" x="90.0" y="52.5"><title>2025-07-16</title></rect><rect fill="#4dd2ff" height="2.6" width="2.6" x="90.0" y="56.0"><title>2025-07-17 7.19 km</title></rect><rect fill="#4dd2ff" height="2.6" width="2.6" x="90.0" y="59.5"><title>2025-07-18 2.89 km</title></rect><rect fill="#EEEEEE" height="2.6" width="2.6" x="90.0" y="63.0"><title>2025-07-19</title></rect><rect fill="red" height="2.6" width="2.6" x="90.0" y="66.5"><title>2025-07-20 21.20 km</title></rect><rect fill="#EEEEEE" height="2.6" width="2.6" x="93.5" y="45.5"><title>2025-07-21</title></rect><rect fill="#4dd2ff" height="2.6" width="2.6" x="93.5" y="49.0"><title>2025-07-22 7.23 km</title></rect><rect fill="#4dd2ff" height="2.6" width="2.6" x="93.5" y="52.5"><title>2025-07-23 5.17 km</title></rect><rect fill="#EEEEEE" height="2.6" width="2.6" x="93.5" y="56.0"><title>2025-07-24</title></rect><rect fill="#EEEEEE" height="2.6" width="2.6" x="93.5" y="59.5"><title>2025-07-25</title></rect><rect fill="#EEEEEE" height="2.6" width="2.6" x="93.5" y="63.0"><title>2025-07-26</title></rect><rect fill="#4dd2ff" height="2.6" width="2.6" x="93.5" y="66.5"><title>2025-07-27 5.54 km</title></rect><rect fill="#EEEEEE" height="2.6" width="2.6" x="97.0" y="45.5"><title>2025-07-28</title></rect><rect fill="#4dd2ff" height="2.6" width="2.6" x="97.0" y="49.0"><title>2025-07-29 3.00 km</title></rect><rect fill="#EEEEEE" height="2.6" width="2.6" x="97.0" y="52.5"><title>2025-07-30</title></rect><rect fill="#EEEEEE" height="2.6" width="2.6" x="97.0" y="56.0"><title>2025-07-31</title></rect><rect fill="#4dd2ff" height="2.6" width="2.6" x="97.0" y="59.5"><title>2025-08-01 5.04 km</title></rect><rect fill="#EEEEEE" height="2.6" width="2.6" x="97.0" y="63.0"><title>2025-08-02</title></rect><rect fill="#EEEEEE" height="2.6" width="2.6" x="97.0" y="66.5"><title>2025-08-03</title></rect><rect fill="#EEEEEE" height="2.6" width="2.6" x="100.5" y="45.5"><title>2025-08-04</title></rect><rect fill="#4dd2ff" height="2.6" width="2.6" x="100.5" y="49.0"><title>2025-08-05 3.18 km</title></rect><rect fill="#4dd2ff" height="2.6" width="2.6" x="100.5" y="52.5"><title>2025-08-06 5.01 km</title></rect><rect fill="#4dd2ff" height="2.6" width="2.6" x="100.5" y="56.0"><title>2025-08-07 5.02 km</title></rect><rect fill="#EEEEEE" height="2.6" width="2.6" x="100.5" y="59.5"><title>2025-08-08</title></rect><rect fill="#EEEEEE" height="2.6" width="2.6" x="100.5" y="63.0"><title>2025-08-09</title></rect><rect fill="#4dd2ff" height="2.6" width="2.6" x="100.5" y="66.5"><title>2025-08-10 3.93 km</title></rect><rect fill="#4dd2ff" height="2.6" width="2.6" x="104.0" y="45.5"><title>2025-08-11 5.01 km</title></rect><rect fill="#4dd2ff" height="2.6" width="2.6" x="104.0" y="49.0"><title>2025-08-12 3.06 km</title></rect><rect fill="#EEEEEE" height="2.6" width="2.6" x="104.0" y="52.5"><title>2025-08-13</title></rect><rect fill="#EEEEEE" height="2.6" width="2.6" x="104.0" y="56.0"><title>2025-08-14</title></rect><rect fill="#EEEEEE" height="2.6" width="2.6" x="104.0" y="59.5"><title>2025-08-15</title></rect><rect fill="#EEEEEE" height="2.6" width="2.6" x="104.0" y="63.0"><title>2025-08-16</title></rect><rect fill="#EEEEEE" height="2.6" width="2.6" x="104.0" y="66.5"><title>2025-08-17</title></rect><rect fill="#EEEEEE" height="2.6" width="2.6" x="107.5" y="45.5"><title>2025-08-18</title></rect><rect fill="#EEEEEE" height="2.6" width="2.6" x="107.5" y="49.0"><title>2025-08-19</title></rect><rect fill="#EEEEEE" height="2.6" width="2.6" x="107.5" y="52.5"><title>2025-08-20</title></rect><rect fill="#EEEEEE" height="2.6" width="2.6" x="107.5" y="56.0"><title>2025-08-21</title></rect><rect fill="#EEEEEE" height="2.6" width="2.6" x="107.5" y="59.5"><title>2025-08-22</title></rect><rect fill="#4dd2ff" height="2.6" width="2.6" x="107.5" y="63.0"><title>2025-08-23 5.13 km</title></rect><rect fill="#EEEEEE" height="2.6" width="2.6" x="107.5" y="66.5"><title>2025-08-24</title></rect><rect fill="#EEEEEE" height="2.6" width="2.6" x="111.0" y="45.5"><title>2025-08-25</title></rect><rect fill="#4dd2ff" height="2.6" width="2.6" x="111.0" y="49.0"><title>2025-08-26 5.12 km</title></rect><rect fill="#4dd2ff" height="2.6" width="2.6" x="111.0" y="52.5"><title>2025-08-27 8.35 km</title></rect><rect fill="#EEEEEE" height="2.6" width="2.6" x="111.0" y="56.0"><title>2025-08-28</title></rect><rect fill="#4dd2ff" height="2.6" width="2.6" x="111.0" y="59.5"><title>2025-08-29 5.01 km</title></rect><rect fill="#EEEEEE" height="2.6" width="2.6" x="111.0" y="63.0"><title>2025-08-30</title></rect><rect fill="#4dd2ff" height="2.6" width="2.6" x="111.0" y="66.5"><title>2025-08-31 7.21 km</title></rect><rect fill="#4dd2ff" height="2.6" width="2.6" x="114.5" y="45.5"><title>2025-09-01 6.11 km</title></rect><rect fill="#4dd2ff" height="2.6" width="2.6" x="114.5" y="49.0"><title>2025-09-02 7.04 km</title></rect><rect fill="#EEEEEE" height="2.6" width="2.6" x="114.5" y="52.5"><title>2025-09-03</title></rect><rect fill="#4dd2ff" height="2.6" width="2.6" x="114.5" y="56.0"><title>2025-09-04 5.00 km</title></rect><rect fill="#EEEEEE" height="2.6" width="2.6" x="114.5" y="59.5"><title>2025-09-05</title></rect><rect fill="#EEEEEE" height="2.6" width="2.6" x="114.5" y="63.0"><title>2025-09-06</title></rect><rect fill="#EEEEEE" height="2.6" width="2.6" x="114.5" y="66.5"><title>2025-09-07</title></rect><rect fill="#EEEEEE" height="2.6" width="2.6" x="118.0" y="45.5"><title>2025-09-08</title></rect><rect fill="#4dd2ff" height="2.6" width="2.6" x="118.0" y="49.0"><title>2025-09-09 8.86 km</title></rect><rect fill="#EEEEEE" height="2.6" width="2.6" x="118.0" y="52.5"><title>2025-09-10</title></rect><rect fill="#4dd2ff" height="2.6" width="2.6" x="118.0" y="56.0"><title>2025-09-11 9.14 km</title></rect><rect fill="#4dd2ff" height="2.6" width="2.6" x="118.0" y="59.5"><title>2025-09-12 6.42 km</title></rect><rect fill="#EEEEEE" height="2.6" width="2.6" x="118.0" y="63.0"><title>2025-09-13</title></rect><rect fill="#EEEEEE" height="2.6" width="2.6" x="118.0" y="66.5"><title>2025-09-14</title></rect><rect fill="#4dd2ff" height="2.6" width="2.6" x="121.5" y="45.5"><title>2025-09-15 3.70 km</title></rect><rect fill="#EEEEEE" height="2.6" width="2.6" x="121.5" y="49.0"><title>2025-09-16</title></rect><rect fill="#4dd2ff" height="2.6" width="2.6" x="121.5" y="52.5"><title>2025-09-17 5.38 km</title></rect><rect fill="#EEEEEE" height="2.6" width="2.6" x="121.5" y="56.0"><title>2025-09-18</title></rect><rect fill="#EEEEEE" height="2.6" width="2.6" x="121.5" y="59.5"><title>2025-09-19</title></rect><rect fill="#EEEEEE" height="2.6" width="2.6" x="121.5" y="63.0"><title>2025-09-20</title></rect><rect fill="#EEEEEE" height="2.6" width="2.6" x="121.5" y="66.5"><title>2025-09-21</title></rect><rect fill="#EEEEEE" height="2.6" width="2.6" x="125.0" y="45.5"><title>2025-09-22</title></rect><rect fill="#ff9b00" height="2.6" width="2.6" x="125.0" y="49.0"><title>2025-09-23 10.63 km</title></rect><rect fill="#EEEEEE" height="2.6" width="2.6" x="125.0" y="52.5"><title>2025-09-24</title></rect><rect fill="#4dd2ff" height="2.6" width="2.6" x="125.0" y="56.0"><title>2025-09-25 5.06 km</title></rect><rect fill="#4dd2ff" height="2.6" width="2.6" x="125.0" y="59.5"><title>2025-09-26 6.02 km</title></rect><rect fill="red" height="2.6" width="2.6" x="125.0" y="63.0"><title>2025-09-27 25.60 km</title></rect><rect fill="#EEEEEE" height="2.6" width="2.6" x="125.0" y="66.5"><title>2025-09-28</title></rect><rect fill="#EEEEEE" height="2.6" width="2.6" x="128.5" y="45.5"><title>2025-09-29</title></rect><rect fill="#EEEEEE" height="2.6" width="2.6" x="128.5" y="49.0"><title>2025-09-30</title></rect><rect fill="#ffa200" height="2.6" width="2.6" x="128.5" y="52.5"><title>2025-10-01 10.01 km</title></rect><rect fill="#EEEEEE" height="2.6" width="2.6" x="128.5" y="56.0"><title>2025-10-02</title></rect><rect fill="#EEEEEE" height="2.6" width="2.6" x="128.5" y="59.5"><title>2025-10-03</title></rect><rect fill="#EEEEEE" height="2.6" width="2.6" x="128.5" y="63.0"><title>2025-10-04</title></rect><rect fill="#EEEEEE" height="2.6" width="2.6" x="128.5" y="66.5"><title>2025-10-05</title></rect><rect fill="#EEEEEE" height="2.6" width="2.6" x="132.0" y="45.5"><title>2025-10-06</title></rect><rect fill="red" height="2.6" width="2.6" x="132.0" y="49.0"><title>2025-10-07 23.74 km</title></rect><rect fill="#EEEEEE" height="2.6" width="2.6" x="132.0" y="52.5"><title>2025-10-08</title></rect><rect fill="#EEEEEE" height="2.6" width="2.6" x="132.0" y="56.0"><title>2025-10-09</title></rect><rect fill="#EEEEEE" height="2.6" width="2.6" x="132.0" y="59.5"><title>2025-10-10</title></rect><rect fill="#EEEEEE" height="2.6" width="2.6" x="132.0" y="63.0"><title>2025-10-11</title></rect><rect fill="#4dd2ff" height="2.6" width="2.6" x="132.0" y="66.5"><title>2025-10-12 4.53 km</title></rect><rect fill="#4dd2ff" height="2.6" width="2.6" x="135.5" y="45.5"><title>2025-10-13 5.10 km</title></rect><rect fill="#4dd2ff" height="2.6" width="2.6" x="135.5" y="49.0"><title>2025-10-14 4.56 km</title></rect><rect fill="#4dd2ff" height="2.6" width="2.6" x="135.5" y="52.5"><title>2025-10-15 5.12 km</title></rect><rect fill="#4dd2ff" height="2.6" width="2.6" x="135.5" y="56.0"><title>2025-10-16 5.15 km</title></rect><rect fill="#EEEEEE" height="2.6" width="2.6" x="135.5" y="59.5"><title>2025-10-17</title></rect><rect fill="#ff9000" height="2.6" width="2.6" x="135.5" y="63.0"><title>2025-10-18 11.74 km</title></rect><rect fill="#EEEEEE" height="2.6" width="2.6" x="135.5" y="66.5"><title>2025-10-19</title></rect><rect fill="#4dd2ff" height="2.6" width="2.6" x="139.0" y="45.5"><title>2025-10-20 5.11 km</title></rect><rect fill="#4dd2ff" height="2.6" width="2.6" x="139.0" y="49.0"><title>2025-10-21 5.14 km</title></rect><rect fill="#4dd2ff" height="2.6" width="2.6" x="139.0" y="52.5"><title>2025-10-22 5.81 km</title></rect><rect fill="#4dd2ff" height="2.6" width="2.6" x="139.0" y="56.0"><title>2025-10-23 5.61 km</title></rect><rect fill="#4dd2ff" height="2.6" width="2.6" x="139.0" y="59.5"><title>2025-10-24 5.12 km</title></rect><rect fill="#EEEEEE" height="2.6" width="2.6" x="139.0" y="63.0"><title>2025-10-25</title></rect><rect fill="#EEEEEE" height="2.6" width="2.6" x="139.0" y="66.5"><title>2025-10-26</title></rect><rect fill="#4dd2ff" height="2.6" width="2.6" x="142.5" y="45.5"><title>2025-10-27 5.36 km</title></rect><rect fill="#4dd2ff" height="2.6" width="2.6" x="142.5" y="49.0"><title>2025-10-28 4.61 km</title></rect><rect fill="#EEEEEE" height="2.6" width="2.6" x="142.5" y="52.5"><title>2025-10-29</title></rect><rect fill="#EEEEEE" height="2.6" width="2.6" x="142.5" y="56.0"><title>2025-10-30</title></rect><rect fill="#EEEEEE" height="2.6" width="2.6" x="142.5" y="59.5"><title>2025-10-31</title></rect><rect fill="red" height="2.6" width="2.6" x="142.5" y="63.0"><title>2025-11-01 15.88 km</title></rect><rect fill="#EEEEEE" height="2.6" width="2.6" x="142.5" y="66.5"><title>2025-11-02</title></rect><rect fill="#4dd2ff" height="2.6" width="2.6" x="146.0" y="45.5"><title>2025-11-03 6.44 km</title></rect><rect fill="#ff9800" height="2.6" width="2.6" x="146.0" y="49.0"><title>2025-11-04 10.90 km</title></rect><rect fill="#4dd2ff" height="2.6" width="2.6" x="146.0" y="52.5"><title>2025-11-05 5.11 km</title></rect><rect fill="#EEEEEE" height="2.6" width="2.6" x="146.0" y="56.0"><title>2025-11-06</title></rect><rect fill="#4dd2ff" height="2.6" width="2.6" x="146.0" y="59.5"><title>2025-11-07 3.68 km</title></rect><rect fill="#4dd2ff" height="2.6" width="2.6" x="146.0" y="63.0"><title>2025-11-08 2.97 km</title></rect><rect fill="#EEEEEE" height="2.6" width="2.6" x="146.0" y="66.5"><title>2025-11-09</title></rect><rect fill="#4dd2ff" height="2.6" width="2.6" x="149.5" y="45.5"><title>2025-11-10 5.06 km</title></rect><rect fill="#EEEEEE" height="2.6" width="2.6" x="149.5" y="49.0"><title>2025-11-11</title></rect><rect fill="#4dd2ff" height="2.6" width="2.6" x="149.5" y="52.5"><title>2025-11-12 5.56 km</title></rect><rect fill="#4dd2ff" height="2.6" width="2.6" x="149.5" y="56.0"><title>2025-11-13 6.60 km</title></rect><rect fill="#EEEEEE" height="2.6" width="2.6" x="149.5" y="59.5"><title>2025-11-14</title></rect><rect fill="#EEEEEE" height="2.6" width="2.6" x="149.5" y="63.0"><title>2025-11-15</title></rect><rect fill="#EEEEEE" height="2.6" width="2.6" x="149.5" y="66.5"><title>2025-11-16</title></rect><rect fill="#EEEEEE" height="2.6" width="2.6" x="153.0" y="45.5"><title>2025-11-17</title></rect><rect fill="#4dd2ff" height="2.6" width="2.6" x="153.0" y="49.0"><title>2025-11-18 4.52 km</title></rect><rect fill="#4dd2ff" height="2.6" width="2.6" x="153.0" y="52.5"><title>2025-11-19 3.31 km</title></rect><rect fill="#4dd2ff" height="2.6" width="2.6" x="153.0" y="56.0"><title>2025-11-20 3.38 km</title></rect><rect fill="#4dd2ff" height="2.6" width="2.6" x="153.0" y="59.5"><title>2025-11-21 7.08 km</title></rect><rect fill="#ff9500" height="2.6" width="2.6" x="153.0" y="63.0"><title>2025-11-22 11.22 km</title></rect><rect fill="#EEEEEE" height="2.6" width="2.6" x="153.0" y="66.5"><title>2025-11-23</title></rect><rect fill="#EEEEEE" height="2.6" width="2.6" x="156.5" y="45.5"><title>2025-11-24</title></rect><rect fill="#4dd2ff" height="2.6" width="2.6" x="156.5" y="49.0"><title>2025-11-25 2.54 km</title></rect><rect fill="#4dd2ff" height="2.6" width="2.6" x="156.5" y="52.5"><title>2025-11-26 1.61 km</title></rect><rect fill="#4dd2ff" height="2.6" width="2.6" x="156.5" y="56.0"><title>2025-11-27 5.31 km</title></rect><rect fill="#EEEEEE" height="2.6" width="2.6" x="156.5" y="59.5"><title>2025-11-28</title></rect><rect fill="#EEEEEE" height="2.6" width="2.6" x="156.5" y="63.0"><title>2025-11-29</title></rect><rect fill="#EEEEEE" height="2.6" width="2.6" x="156.5" y="66.5"><title>2025-11-30</title></rect><rect fill="#EEEEEE" height="2.6" width="2.6" x="160.0" y="45.5"><title>2025-12-01</title></rect><rect fill="#4dd2ff" height="2.6" width="2.6" x="160.0" y="49.0"><title>2025-12-02 1.73 km</title></rect><rect fill="#4dd2ff" height="2.6" width="2.6" x="160.0" y="52.5"><title>2025-12-03 7.03 km</title></rect><rect fill="#4dd2ff" height="2.6" width="2.6" x="160.0" y="56.0"><title>2025-12-04 2.63 km</title></rect><rect fill="#EEEEEE" height="2.6" width="2.6" x="160.0" y="59.5"><title>2025-12-05</title></rect><rect fill="#EEEEEE" height="2.6" width="2.6" x="160.0" y="63.0"><title>2025-12-06</title></rect><rect fill="#4dd2ff" height="2.6" width="2.6" x="160.0" y="66.5"><title>2025-12-07 6.03 km</title></rect><rect fill="#EEEEEE" height="2.6" width="2.6" x="163.5" y="45.5"><title>2025-12-08</title></rect><rect fill="#4dd2ff" height="2.6" width="2.6" x="163.5" y="49.0"><title>2025-12-09 6.17 km</title></rect><rect fill="#ff9000" height="2.6" width="2.6" x="163.5" y="52.5"><title>2025-12-10 11.72 km</title></rect><rect fill="#EEEEEE" height="2.6" width="2.6" x="163.5" y="56.0"><title>2025-12-11</title></rect><rect fill="#EEEEEE" height="2.6" width="2.6" x="163.5" y="59.5"><title>2025-12-12</title></rect><rect fill="#EEEEEE" height="2.6" width="2.6" x="163.5" y="63.0"><title>2025-12-13</title></rect><rect fill="#EEEEEE" height="2.6" width="2.6" x="163.5" y="66.5"><title>2025-12-14</title></rect><rect fill="#4dd2ff" height="2.6" width="2.6" x="167.0" y="45.5"><title>2025-12-15 6.30 km</title></rect><rect fill="#4dd2ff" height="2.6" width="2.6" x="167.0" y="49.0"><title>2025-12-16 7.08 km</title></rect><rect fill="#EEEEEE" height="2.6" width="2.6" x="167.0" y="52.5"><title>2025-12-17</title></rect><rect fill="#4dd2ff" height="2.6" width="2.6" x="167.0" y="56.0"><title>2025-12-18 5.77 km</title></rect><rect fill="#EEEEEE" height="2.6" width="2.6" x="167.0" y="59.5"><title>2025-12-19</title></rect><rect fill="#EEEEEE" height="2.6" width="2.6" x="167.0" y="63.0"><title>2025-12-20</title></rect><rect fill="#ffa000" height="2.6" width="2.6" x="167.0" y="66.5"><title>2025-12-21 10.16 km</title></rect><rect fill="#EEEEEE" height="2.6" width="2.6" x="170.5" y="45.5"><title>2025-12-22</title></rect><rect fill="#4dd2ff" height="2.6" width="2.6" x="170.5" y="49.0"><title>2025-12-23 8.93 km</title></rect><rect fill="#4dd2ff" height="2.6" width="2.6" x="170.5" y="52.5"><title>2025-12-24 8.37 km</title></rect><rect fill="#EEEEEE" height="2.6" width="2.6" x="170.5" y="56.0"><title>2025-12-25</title></rect><rect fill="#4dd2ff" height="2.6" width="2.6" x="170.5" y="59.5"><title>2025-12-26 3.33 km</title></rect><rect fill="#EEEEEE" height="2.6" width="2.6" x="170.5" y="63.0"><title>2025-12-27</title></rect><rect fill="#EEEEEE" height="2.6" width="2.6" x="170.5" y="66.5"><title>2025-12-28</title></rect><rect fill="#4dd2ff" height="2.6" width="2.6" x="174.0" y="45.5"><title>2025-12-29 8.49 km</title></rect><rect fill="#4dd2ff" height="2.6" width="2.6" x="174.0" y="49.0"><title>2025-12-30 3.66 km</title></rect><rect fill="#4dd2ff" height="2.6" width="2.6" x="174.0" y="52.5"><title>2025-12-31 5.35 km</title></rect></svg>