<?xml version="1.0" encoding="utf-8" ?>
<svg baseProfile="full" height="130mm" version="1.1" viewBox="0,0,100,130" width="100mm" xmlns="http://www.w3.org/2000/svg" xmlns:ev="http://www.w3.org/2001/xml-events" xmlns:xlink="http://www.w3.org/1999/xlink"><defs /><rect fill="#222222" height="130" width="100" x="0" y="0" /><text fill="#FFFFFF" style="font-size:6px; font-family:Arial; font-weight:bold;color:#0ed45e;" x="5" y="10">东丽湖半程马拉松</text><text fill="#FFFFFF" style="font-size:4px; font-family:Arial" x="5" y="121">Runner</text><text fill="#FFFFFF" style="font-size:6px; font-family:Arial" x="2" y="128">蓝皮书</text><text fill="#FFFFFF" style="font-size:4px; font-family:Arial" x="25" y="121">WORKOUTS INFO</text><text fill="#FFFFFF" style="font-size:3px; font-family:Arial" x="25" y="125">Type: Run</text><text fill="#FFFFFF" style="font-size:3px; font-family:Arial" x="22" y="129">Date: 2024-04-14</text><text fill="#FFFFFF" style="font-size:3px; font-family:Arial" x="47" y="125">Distance: 20.86 km</text><text fill="#FFFFFF" style="font-size:3px; font-family:Arial" x="47" y="129">Duration: 02:24:12</text><text fill="#FFFFFF" style="font-size:3px; font-family:Arial" x="75" y="125">Pace: 6:54/km</text><text fill="#FFFFFF" style="font-size:3px; font-family:Arial" x="75" y="129">Elevation: 0m</text><polyline fill="none" points="48.370004206954036,46.85847387633112 48.608540176646784,47.122260186813946 51.35738325613784,49.08598148670717 51.58456037018914,49.27648976993078 51.6186369372881,49.49630658195383 49.04017669329187,60.852870392125624 48.74484644510085,61.849257541231054 48.30185107275611,63.885960115228954 48.13146823726129,64.41344486516755 47.995161968807224,64.48670642240177 46.64345814049011,63.592911864994676 45.04185948672239,62.74306722556503 44.04228018503636,62.08370017584821 42.40660496422788,61.131273653874814 42.03176272608107,60.83821756803809 39.93037442147033,59.66598488827731 38.94215397560038,58.97729196885484 37.715397559979465,58.46443254870246 37.022507362184115,58.273941256673425 36.431846865743864,58.14206246350659 35.500420698313974,58.112756042137335 34.21687000419479,58.244634872768074 33.33087925956352,58.493738870070956 32.53575936052948,58.801454741013 31.945098864089232,58.94798578505288 31.093184686556924,59.255700299203454 30.63883045851253,59.372924634226365 29.53702145558782,59.60737290416 29.29848548589507,59.60737290416 28.28754732850939,59.768555780254246 26.958561211591586,59.82716767263628 26.3792595709092,59.79786173062894 26.20887673535617,59.768555780254246 26.18615902395686,59.59271990292473 26.00441733270418,59.372924634226365 24.02797644084785,59.153128896592534 23.73264619265683,59.05055739188538 23.664493058458902,58.97729196885484 24.550483803090174,53.965813357521256 24.56184265878983,53.45292898739717 24.78901977284113,52.42715258626413 24.766302061383612,52.25130417753098 24.629995792987756,52.09010953921825 24.4936895245919,52.03149324451806 22.880732015124522,51.78237362009531 22.21055952878669,51.3867118017879 21.619899032404646,50.85916034663387 20.858855700411368,50.463494982199336 20.13188893557526,50.18506288873323 19.700252418988384,50.229025900916895 19.39356331509771,50.375569139258005 18.746108540159184,50.917777308422956 18.07593605382135,51.3867118017879 17.837400084128603,51.66514064717194 17.689734959974885,52.00218508470425 16.781026503944304,53.013311780494405 16.099495161906816,53.379659583173634 15.599705511180218,53.81927522664046 15.28165755153168,54.02442855152185 15.247580984432716,54.08304371214035 15.304375262872782,54.405426499542955 15.202145561634097,54.71315458265599 14.884097601985559,55.05018904753524 14.793226756330114,55.0648426948901 14.05490113585256,54.434733975620475 13.952671434613876,54.30285026754427 13.964030290255323,54.185620163043495 13.895877156057395,54.05373613602569 13.37336979387328,53.599467639418435 12.919015565828886,53.10123537198524 11.692259150207974,51.29878674687643 10.726756415620912,49.08598148670717 10.385990744573064,48.148089416717994 9.931636516645085,46.58003203794942 9.886201093788259,45.979181295784656 9.613588556996547,44.51367698062677 9.52271771139931,44.57229755359003 9.5,44.704193720761396 9.602229701238684,45.68608210090315 9.52271771139931,45.89125162486744 9.534076567098964,46.404173646951676 9.659023979795165,47.019676701886056 10.295119899034034,49.100635982526 11.442364324757364,51.41602013674856 12.146613378135953,52.48576865578798 12.88493899878813,53.52619833947392 13.362010938173626,54.09769749715633 15.28165755153168,56.01732530301524 17.01956247369526,57.33613283717568 18.814261674298905,58.391166708832316 20.824779133370612,59.24104724791687 21.57446360954782,59.504801851719094 22.835296592325903,59.841820640569495 24.913967185479123,60.14953248491656 26.515565839246847,60.2374499858779 27.287968026881572,60.252102895443386 27.980858224618714,60.19349124477594 30.366217921720818,59.871126570084016 31.627050904440694,59.59271990292473 32.68342448462499,59.21174113914458 32.84244846442016,59.22639419454936 33.13777871261118,59.02125122892903 33.523979806457646,58.845414076065936 34.68258308788063,58.59631092919881 35.60265039966907,58.55235148777865 36.47728228860069,58.62561721300881 36.99978965084301,58.742842264982755 38.271981489262544,59.16778196037194 39.63504417327931,59.9736972578321 39.90765671012923,60.017656092684774 40.509676062269136,60.3253674118605 41.94089188048383,61.32175966272189 43.224442574661225,62.03974222251418 44.303533866186626,62.74306722556503 45.257677745074034,63.25590534674848 46.65481699624797,64.13505047259969 47.586243163619656,64.63322938061174 48.16554480436025,65.02884032690781 48.21098022715887,65.14605809327622 47.927008834667504,66.24496816792816 47.84749684471171,66.87500465780613 47.54080774082104,67.88598539270606 47.17732435837388,69.4976732983123 47.00694152293727,70.71374839427153 47.12053007987561,70.80165688111447 48.55174589814851,71.09468462884979 50.00567942782072,70.88956529289135 50.82351703825407,70.93351947071642 51.02797644084785,71.03607914594613 51.76630206138361,71.6074811821527 51.87989061838016,71.84190161374136 51.87989061838016,72.03236782167369 51.81173748418223,72.26678728654224 51.3687421118957,73.08725121396856 51.11884728644509,73.80515179143549 50.84623474965338,74.08352005741472 50.323727387411054,74.2446802887498 49.539966344076674,74.11282193637453 48.91522928053746,74.23002936901321 48.2791333613568,74.61095260430739 47.85885570041137,75.03582685941365 47.245477492630016,75.54860379971797 46.91607067728182,76.16393275994051 46.847917543083895,76.55949943689484 46.85927639884176,77.01366671199503 47.05237694567768,77.59968604469032 47.04101809003623,77.86339365719323 46.92742953298148,78.34685586066917 46.93878838873934,78.87426658666664 47.097812368534505,79.40167461348028 47.415860328124836,79.95838015781192 48.14282709296094,80.38323236574797 48.25641564995749,80.80808282207727 48.77892301219981,81.20363167251344 49.16512410598807,81.6724283440999 49.86937315936666,83.06415589981043 50.323727387411054,83.5768928931866 51.00525872944854,84.162874904825 51.53912494739052,84.3972667765629 52.436474547721446,84.57306033054192 53.33382414805237,84.61700867213949 54.560580563673284,84.51446251251036 55.53744215390179,84.60235922701395 55.90092553634895,84.69025586655334 56.63925115688471,85.0271922903703 56.820992848079186,84.86604892076866 56.80963399237953,84.71955472973787 56.83235170377884,85.04184167511994 56.83235170377884,85.08578981684695 57.60475389147177,85.4227249474934 58.808792595693376,85.77430825725605 59.399453092133626,85.78895753576944 60.080984434171114,85.71571112224774 60.75115692045074,85.83290535895503 61.2623054269352,86.05264419349987 62.39819099701708,86.72650703152613 63.10244005045388,86.96089307282818 63.76125368109206,87.06343679825659 64.11337820778135,87.19527858107904 64.329196466133,87.32712019523024 64.52229701302713,87.53220681534003 64.73811527132057,88.03027262229443 64.81762726121815,88.39649594478396 65.0561632309109,88.66017593123979 66.15797223383561,89.21683146504074 67.22570466971956,89.39261679845367 67.49831720656948,89.56840183204622 67.7709297433612,89.87602491943835 67.9185948674567,90.28618760775862 67.90723601175705,90.62310573776631 67.80500631040195,90.91607712952828 67.45288178371266,91.4873689482265 67.41880521661369,91.64850196558837 67.41880521661369,91.97076724456565 67.57782919640886,92.21978972460056 67.83908287750091,92.42486660933355 69.36116954137105,93.15728072386264 70.2812368531595,93.77250455815374 70.81510307104327,94.25589213753847 71.22402187628904,94.51955713442294 71.48527555743931,94.65138937995653 71.97370635252446,94.81251745104964 73.8479175430839,95.01758917725238 75.66533445514506,95.41308349704923 76.93752629356459,95.48632301936595 77.9143878838513,95.23730843116209 78.53912494739052,94.97364527028549 79.03891459817532,94.66603739683342 80.08392932265997,93.8018008396175 80.54964240634581,93.58207852569467 80.85633151023649,93.50883765026083 81.28796802688157,93.46489310005563 82.26482961716829,93.59672669451538 82.81005469075171,93.58207852569467 83.40071518713376,93.43559672282572 84.22991165332496,93.04009481529647 84.97959612950217,92.92290877350752 85.36579722334864,92.90826050889154 85.7747160285362,93.04009481529647 86.07004627678543,93.289114711828 86.34265881363535,93.72856012035481 86.67206562892534,93.93363400316593 87.16049642401049,93.94828212202265 87.46718552795937,93.83109711276484 88.05784602439962,93.23052184910921 88.27366428263485,92.9375570359989 88.63714766508201,91.853579986986 88.68258308788063,91.54596280185069 88.50084139668616,90.93072567728086 87.81931005464867,90.12505246058572 87.50126209505834,89.37796803208039 87.43310896086041,88.792015671439 87.72843920905143,87.7079950220359 87.73979806475108,87.42966355630051 87.51262095075799,86.44817291511572 87.52397980639944,86.16983804706251 87.68300378625281,85.71571112224774 88.00105174584314,85.4520236024473 88.9665544804302,85.12973793982383 90.10244005045388,84.98324412361399 90.35233487584628,84.8074512693347 90.46592343284283,82.91765914743883 90.5,81.08643217142526 90.42048801010242,80.07558094189153 90.2728228859487,79.75327846506116 90.01156920479843,79.59212684869271 89.6935212452081,79.56282652766822 89.11421960446751,79.82652911646437 88.50084139668616,80.19278159258101 87.97833403444383,80.33928221854148 87.51262095075799,80.4125324534325 87.11506100121187,80.38323236574797 86.76293647446437,80.29533205263579 86.02461085404502,79.87047948234249 85.44530921324622,79.1672713792359 85.26356752205174,78.66916273619427 84.94551956246141,78.0684991114249 84.61611274711322,77.61433648531965 84.20719394186744,77.23342435230006 83.51430374418851,76.8085591582203 82.50336558680283,76.42764404663467 81.90134623472113,76.1053301601496 79.98169962136308,74.7867628533786 78.87989061838016,73.9077086084726 78.17564156494336,72.72097348217358 77.7667227597558,71.28515221796988 76.69899032387184,69.55627965622989 75.99474127043504,68.89695620787097 75.67669331084471,68.13506607969612 75.29049221705645,67.63690410361596 74.93836769030895,66.87500465780613 74.65439629781758,66.5526608884611 72.5643668489065,65.01418809669849 71.34896928898524,64.17900753195136 71.05363904079422,64.09109339443967 70.71287336974638,64.12039811531577 70.36074884305708,64.42809718081844 70.0540597391664,65.13140587977978 69.929112326412,66.46474877637957 69.56562894402305,66.96291641987045 69.06583929318003,67.27060699635331 68.56604964239523,67.3585184208714 68.32751367264427,67.34386652197281 67.92995372315636,67.21199933832395 67.65734118636465,67.03617616423435 67.40744636097224,66.77244084061385 67.11211611272302,66.25962022305612 66.69183845183579,65.7907534248734 65.64682372735115,65.1167536642024 65.1811106436071,64.91162242709834 64.79490954981884,64.64788166498329 64.53365586872678,64.45740180579014 64.24968447617721,64.12039811531577 63.98843079508515,63.563606994153815 63.89755994948791,63.1533379267421 63.93163651658688,62.581889003136894 63.68174169113627,61.468287122115726 63.35233487590449,60.970092909810774 62.98885149345733,60.57446637797693 61.44404711818788,59.475495817969204 61.02376945730066,59.255700299203454 60.60349179635523,59.13847583071765 59.94467816571705,59.27035334838001 59.36537652503466,59.18243502203404 58.03639040805865,58.200675281310396 56.98001682787435,57.33613283717568 56.00315523770405,56.691384596488206 55.65103071095655,56.354355501061946 54.79911653342424,55.7828688627269 53.322465292410925,54.58127123102895 53.17480016825721,54.361465269750624 53.18615902395686,54.11235128000408 53.66323096334236,52.83746437243826 53.754101808939595,52.412498563644476 53.72002524184063,52.192687974617 53.52692469500471,51.95822282928566 53.18615902395686,51.70910302766424 52.87946992000798,51.70910302766424 52.55006310471799,51.60652411070623 52.05027345393319,51.269478378555505 51.652713504387066,51.07897378128837 51.53912494739052,51.07897378128837 51.35738325613784,51.210861616964394 51.27787126629846,51.181553223628725 51.2437946991995,50.741926323062216 51.41417753463611,50.24368023412535 51.60727808158845,49.423034363397164 51.56184265878983,49.24718082621257 50.868952461052686,48.792891132201476 48.710769877943676,47.10760540950287 48.30185107275611,46.71192563416116" stroke="#FFFF00" stroke-linecap="round" stroke-linejoin="round" stroke-width="0.5"><title>2024-04-14 20.86km</title><desc>11176407637</desc></polyline></svg>