<?xml version="1.0" encoding="utf-8" ?>
<svg baseProfile="full" height="130mm" version="1.1" viewBox="0,0,100,130" width="100mm" xmlns="http://www.w3.org/2000/svg" xmlns:ev="http://www.w3.org/2001/xml-events" xmlns:xlink="http://www.w3.org/1999/xlink"><defs /><rect fill="#222222" height="130" width="100" x="0" y="0" /><text fill="#FFFFFF" style="font-size:6px; font-family:Arial; font-weight:bold;color:#0ed45e;" x="5" y="10">飞龙初探</text><text fill="#FFFFFF" style="font-size:4px; font-family:Arial" x="5" y="121">Runner</text><text fill="#FFFFFF" style="font-size:6px; font-family:Arial" x="2" y="128">蓝皮书</text><text fill="#FFFFFF" style="font-size:4px; font-family:Arial" x="25" y="121">WORKOUTS INFO</text><text fill="#FFFFFF" style="font-size:3px; font-family:Arial" x="25" y="125">Type: Run</text><text fill="#FFFFFF" style="font-size:3px; font-family:Arial" x="22" y="129">Date: 2024-02-04</text><text fill="#FFFFFF" style="font-size:3px; font-family:Arial" x="47" y="125">Distance: 20.24 km</text><text fill="#FFFFFF" style="font-size:3px; font-family:Arial" x="47" y="129">Duration: 02:23:05</text><text fill="#FFFFFF" style="font-size:3px; font-family:Arial" x="75" y="125">Pace: 7:04/km</text><text fill="#FFFFFF" style="font-size:3px; font-family:Arial" x="75" y="129">Elevation: 0m</text><polyline fill="none" points="66.85572533810046,93.93517349338799 66.48859230708331,93.32266568292107 65.7543262449326,93.12777643286972 65.02006018278189,93.57323729118798 64.82569563691504,93.99085592666233 65.02006018278189,94.71472612096113 65.51676957774907,95.13234232501418 66.29422776121646,95.13234232501418 67.50360715761781,94.32495019461203 67.41722291510087,93.21130042086588 67.95712443126831,93.09993509562628 68.49702594755217,93.40618958792766 68.60500625078566,93.07209375438106 69.10171564586926,93.62891982732981 69.27448413101956,93.48971345738391 69.83598170790356,93.65676108951448 70.00875019317027,93.40618958792766 70.33269110287074,93.46187217159604 73.05379474489018,92.71015595897916 76.94108566211071,92.40390037931502 77.28662263252772,92.20901021595637 77.15704626857769,91.56865545801702 76.81150929816067,90.5941985524405 76.44437626714353,90.17657268160838 75.8180905082263,89.95383852013038 75.2565929312259,90.17657268160838 74.09040565614123,89.73110410562367 72.557085349923,89.00721551070455 71.54207049927209,89.34131827128294 71.39089807472192,89.11858316075813 71.56366655998863,87.3088510077796 71.34770595352165,87.19748232961865 71.11014928633813,87.28100884413288 70.7646123158047,87.92137760674814 70.35428716358729,89.89815494022332 69.62002110143658,90.64988193473255 68.907351099886,91.87491234234767 68.02191261330154,92.09764432132943 65.45198139571585,91.37376446436974 65.62474988098256,91.09534842304129 65.30080897116568,90.23225618245488 65.27921291056555,89.25779263446748 65.88390260876622,88.6174282371212 65.17123260733206,88.0327458736283 64.02664139284752,85.61047179186426 63.48673987656366,85.16499284037855 62.622897450462915,84.91441048537672 62.51491714734584,85.4434173036716 63.50833593716379,86.52926893213589 63.918661089614034,87.55943030229537 64.17781381728128,90.09304740082007 63.85387290758081,90.37146486534039 63.1196068454301,90.28793966754165 60.24733077886049,89.1464250634308 60.225734718260355,90.26009792699188 61.28394169011153,90.78909032099182 61.28394169011153,91.652180110279 60.87361653777771,93.7681260984682 60.636059870710596,94.10222074590274 59.534660777426325,93.99085592666233 60.78723229514435,94.43631482403725 60.83042441657744,96.49654905928764 61.067981083644554,97.47097662942542 61.39192199346144,97.77722429407004 61.80224714579526,97.86074630143412 63.6163162405137,96.94200226366229 64.09142957488075,96.99768384308845 63.50833593716379,97.72154293612402 61.49990229669493,99.05789116366941 59.10273956449237,100.22718839121808 58.6276262300089,100.22718839121808 58.044532592524774,100.6726331198879 56.85674925672356,101.03455621676403 53.91968500823714,101.47999911112129 51.263369548134506,101.0067160022736 50.09718227293342,100.50559146521846 47.85119196528103,98.86300761447637 45.64839377894532,96.07893576100469 44.22305377596058,94.57552052196115 44.050285290693864,93.71244360187848 43.61836407775991,93.40618958792766 42.60334922710899,90.81693198643916 42.236216196091846,87.08611358818598 42.36579255992547,85.63831419266353 42.560157105792314,85.52694456552854 42.4953689238755,85.97242269446724 42.84090589429252,85.38773244258482 43.68315225967672,85.52694456552854 43.899112866143696,85.33204756582563 45.540413475595415,85.38773244258482 45.475625293678604,87.92137760674814 45.75637408217881,83.9677631425875 45.69158590014558,82.74268332519569 45.73477802146226,83.9399205044756 46.25308347714599,84.69167034541897 48.62865014874842,85.4712597282196 49.21174378634896,85.49910214889678 51.155389244901016,86.30653062683996 49.924413787783124,85.94458034100535 49.64366499928292,85.58262938701955 50.33473894011695,84.07913365548302 49.79483742383309,84.32971707814431 49.082167422398925,85.35989000619156 47.354482570430264,84.85872547409963 47.764807722647674,83.52228045837546 48.45588166359812,82.15798344073119 47.613635298097506,83.80070725467522 47.721615601330996,83.9399205044756 46.965753478580154,84.88656798172451 46.46904408361297,84.77519792762178 46.0371228705626,84.38540223968448 43.74794044159353,84.35755966085708 43.359211349859834,84.07913365548302 42.927290136925876,84.19050410512136 42.581753166392446,83.49443775705004 42.3226004387252,83.63365122435789 42.560157105792314,83.46659505172283 42.64654134842567,82.60346922511235 42.90569407620933,82.46425502625061 42.970482258242555,80.40387332395767 42.77611771237571,80.40387332395767 42.90569407620933,78.56621731950145 43.29442316805944,77.84228749720205 43.16484680399299,76.53363834158517 43.359211349859834,76.17167001150665 43.143250743392855,75.41988749803568 43.38080741057638,71.80015355430078 43.53197983512655,70.43577495354111 43.92070892686024,68.79293913896254 44.02868923009373,65.86921422660816 44.37422620051075,64.81109351124906 44.503802564460784,61.35823881406395 44.287841957760975,58.90778890297224 43.74794044159353,57.26485646626679 41.825891043641604,54.17387845351186 40.20618649490643,52.22458797649597 40.68129982915707,51.528408107726136 43.59676801704336,49.55124379642075 45.45402923307847,49.82971884988365 45.56200953631196,49.69048137262871 43.92070892686024,49.634786354057724 43.85592074482702,49.24492078067851 47.829595904564485,46.59938390372554 48.47747772419825,47.796841861258144 49.06057136179879,48.437339625976165 48.06715257174801,46.543688006699085 49.85962560586631,45.17913358556689 49.60047287796624,45.067740968457656 48.02396045043133,45.81963990512304 45.99393074924592,44.56647340810741 46.123507113195956,44.956348288062145 47.440866812947206,46.07027224295598 47.33288650971372,46.37660022065393 46.08031499187928,47.072798389344825 42.94888619752601,49.384158574495814 42.732925590942614,50.02465115195082 42.10663983214181,50.10819350762176 39.70947709993925,51.44486635729845 38.60807800677139,50.47020997123036 37.31231436773669,48.91074967200984 36.66443254810292,48.882902053854195 34.245673755183816,46.90571105440904 30.379978898679838,40.6955307356111 26.665456466726027,36.26752414058137 26.98939737654291,35.376340907634585 25.758421919308603,34.70795082327095 22.19507191190496,29.5 26.23353525379207,35.06999573530629 24.203505552606657,36.65741553064436 24.484254340990447,37.8827834209369 25.067347978590988,38.57901176340238 25.73682585870847,38.43976629269309 27.010993437143043,40.16640313550306 27.464510710909963,41.224656907099416 27.24855010432657,41.36390039905382 27.334934346959926,41.9208733773703 27.68047131737694,42.394299164327094 28.263564954977483,42.115813545839046 27.9396240451606,42.22720784074045 27.745259499293752,42.61708737429581 28.67389010731131,42.812026850209804 29.27857980551198,43.3132988979778 30.76870799041353,45.65255150180019 30.271998595446348,46.51584005227778 30.70391980849672,46.90571105440904 31.351801628014073,46.90571105440904 31.65414647711441,47.490516103382106 31.48137799196411,47.96392843646754 31.48137799196411,47.768994084821315 29.775289200479165,47.46266828352236 29.42975223006215,47.21203772620356 28.177180712344125,47.23988558178826 27.507702832110226,46.90571105440904 26.51428404217586,46.850015244373935 26.36311161762569,48.15886259412218 28.544313743361272,48.604425655081286 32.19404799339827,49.16137805687322 34.353654058417305,50.21958326004096 34.95834375673439,50.38666776976606 36.23251133505255,51.61194982257439 36.362087699002586,51.97396350854251 39.10478740162216,54.67512144270586 40.7028958897572,56.95854550578224 41.026836799574085,57.905323291328386 41.588334376574494,58.68501921011193 41.91227528627496,60.857012915425 41.84748710435815,66.62103336919972 41.63152649777476,67.15008955581288 39.03999921970535,67.03870942466892 38.392117400188,66.25904673454352 37.05316163983662,66.81594897246396 35.88697436475195,67.70698926222394 37.787427701987326,66.42611757207487 36.64283648750279,64.9224749081186 36.31889557768591,64.56048513670976 37.161141943070106,65.50722620358283 37.247526185703464,65.95274982934643 37.895408005220816,66.56534316120087 38.392117400188,66.23120158113306 38.586481946054846,66.42611757207487 38.37052133958787,66.20335642380815 38.47850164270494,66.0641305774916 39.66628497862257,65.3401545829256 40.011821949039586,64.86678421756369 38.392117400188,62.38853246954386 38.32732921815477,62.13792099770217 40.011821949039586,64.78324815210362 39.42872831132263,65.84136901784223 39.12638346222229,65.75783336770837 38.50009770342149,66.14766609710932 38.60807800677139,66.42611757207487 39.2343637655722,66.87163910924573 40.875664375023916,67.03870942466892 41.24279740615748,67.2336246126215 41.761102861724794,67.03870942466892 41.80429498304147,67.17793457866355 41.026836799574085,71.80015355430078 39.947033767122775,84.88656798172451 39.64468891802244,85.16499284037855 39.77426528185606,88.78448002075311 40.227782555506565,91.4294476252253 40.962048617657274,93.62891982732981 41.372373770107515,94.15790313189791 41.609930437174626,94.96529595015454 39.536708614672534,96.21814029259258 39.19117164425552,95.99541299462726 38.867230734438635,95.2437064959231 39.839053463889286,96.94200226366229 40.68129982915707,96.46870820039476 39.88224558508955,97.13688772234309 40.61651164724026,98.05563084689493 39.81745740317274,97.13688772234309 41.99865952890832,95.71700351629988 42.75452165165916,96.63575329440937 42.99207831872627,97.27609150277567 43.985497108777054,98.58460220806592 45.21647256577853,99.83742342353798 44.741359231527895,99.86526380409487 44.46061044302769,100.39423028304009 46.46904408361297,104.90430756975547 47.39767469163053,106.12924891831062 48.671842269948684,107.02011054713512 48.69343833066523,107.79961115219339 48.02396045043133,109.27508595594554 49.924413787783124,110.16593329234456 51.371349851367995,110.5 49.51408863533288,109.60915418142395 47.160118024447,108.80182166236045 45.130088323378004,107.5490577242308 47.80799984396435,108.88533897361776 48.80141863389872,107.82745040222653 49.27653196814936,106.90875306494127 51.02581288095098,107.02011054713512 52.38636470201891,106.57468023867114 53.12063076416962,106.21276736800792 54.848315616254695,104.76510920496366 55.79854228487238,104.26399427368597 60.160946536343545,102.73280182607414 60.33371502161026,102.34304183922359 62.19097623752896,101.39647864553262 63.16279896674678,101.03455621676403 63.313971391296946,100.64479285401467 64.84729169751517,99.89310418063542 65.64634594169911,99.61470023699803 65.79751836624928,99.28061498272291 67.91393230995163,97.91642761994444 68.25946928036865,98.1948339750088 67.37403079366777,98.8351670915581 68.21627715905197,100.0044656474056 67.43881897558458,98.80732656482724 67.46041503630113,98.4732399348286 68.25946928036865,97.99994956795126 70.1383265570039,100.70047338180302 68.02191261330154,97.74938361706154 69.10171564586926,97.08120618246903 70.9805729225045,96.21814029259258 73.29135141207371,95.71700351629988 76.35799202451017,95.3829116205161 77.80492808809504,95.49427564903453 73.78806080704089,95.74484448188741 72.51389322860632,96.1067766752094 71.23972565017175,96.21814029259258 69.08011958515272,96.94200226366229 68.49702594755217,97.61018017258903 68.62660231150221,97.69370225112652 69.10171564586926,97.77722429407004 70.31109504227061,97.41529518437164 70.95897686178796,98.02779020936578 71.54207049927209,99.53117897683114 71.97399171232246,99.92094455329061 70.78620837652124,98.27835580454848 70.50545958813746,97.47097662942542 70.89418867975473,97.1647284863866 71.82281928777229,96.8863206684764 72.47070110728964,97.22041000245372 73.118582926807,98.16699335728481 72.42750898608938,97.30393224705767 71.75803110585548,96.96984305539809 68.4538338262355,98.05563084689493 68.0651047345018,97.80506496714952 66.83412927738391,95.77268544360413 66.7693410954671,95.57779862890311 67.35243473306764,95.0766602158983 67.6115874608513,94.54767939030717 69.05852352443617,93.46187217159604 67.50360715761781,94.60336164961336 67.00689776265062,95.3829116205161 68.36744958371855,97.49881734594237 68.49702594755217,97.35961372364545 68.1730850378517,97.30393224705767 67.82754806743469,96.46870820039476 67.0500898839673,95.52211664627248 66.70455291343387,95.63348059575947" stroke="#FFFF00" stroke-linecap="round" stroke-linejoin="round" stroke-width="0.5"><title>2024-02-04 20.24km</title><desc>10729822843</desc></polyline></svg>