<?xml version="1.0" encoding="utf-8" ?>
<svg baseProfile="full" height="200mm" version="1.1" viewBox="0,0,200,200" width="200mm" xmlns="http://www.w3.org/2000/svg" xmlns:ev="http://www.w3.org/2001/xml-events" xmlns:xlink="http://www.w3.org/1999/xlink"><defs /><rect fill="#1a1a1a" height="200" width="200" x="0" y="0" /><text alignment-baseline="middle" fill="#e1ed5e" style="dominant-baseline: central; font-size:9.0px; font-family:Arial;" text-anchor="middle" x="100.0" y="100.0">2024</text><line stroke="#e1ed5e" stroke-width="0.3" x1="100.0" x2="100.0" y1="15.0" y2="10.0" /><path d="M 100.0 14.0 a86.0,86.0 0 0,1 42.35913384403234,11.155469271406648" fill="none" id="id1" stroke="none" /><text fill="#e1ed5e" style="font-size:6.75px; font-family:Arial;" text-anchor="middle"><textPath startOffset="22.145653131862478" xlink:href="#id1">January</textPath></text><line stroke="#e1ed5e" stroke-width="0.3" x1="143.13028292997686" x2="145.6673583964461" y1="26.7553504044142" y2="22.446841604673864" /><path d="M 143.63769802327073 25.89364864446614 a86.0,86.0 0 0,1 29.32050498858742,28.57503671076993" fill="none" id="id2" stroke="none" /><text fill="#e1ed5e" style="font-size:6.75px; font-family:Arial;" text-anchor="middle"><textPath startOffset="20.669276256404974" xlink:href="#id2">February</textPath></text><line stroke="#e1ed5e" stroke-width="0.3" x1="172.87174338648825" x2="177.1583165268699" y1="56.24261187166439" y2="53.66864786411523" /><path d="M 173.72905801456457 55.72781907015455 a86.0,86.0 0 0,1 12.242430191666344,42.057860355516425" fill="none" id="id3" stroke="none" /><text fill="#e1ed5e" style="font-size:6.75px; font-family:Arial;" text-anchor="middle"><textPath startOffset="22.145653131862474" xlink:href="#id3">March</textPath></text><line stroke="#e1ed5e" stroke-width="0.3" x1="184.99686870605535" x2="189.99668451229388" y1="99.2704041080226" y2="99.22748670261217" /><path d="M 185.99683186730306 99.26182062694052 a86.0,86.0 0 0,1 -10.086455211305974,41.156179273409016" fill="none" id="id4" stroke="none" /><text fill="#e1ed5e" style="font-size:6.75px; font-family:Arial;" text-anchor="middle"><textPath startOffset="21.40746469413373" xlink:href="#id4">April</textPath></text><line stroke="#e1ed5e" stroke-width="0.3" x1="174.33088141563837" x2="178.70328620479359" y1="141.23008692659167" y2="143.65538615756765" /><path d="M 175.20536237346943 141.71514677278685 a86.0,86.0 0 0,1 -30.301960400862466,31.631185727798858" fill="none" id="id5" stroke="none" /><text fill="#e1ed5e" style="font-size:6.75px; font-family:Arial;" text-anchor="middle"><textPath startOffset="22.145653131862474" xlink:href="#id5">May</textPath></text><line stroke="#e1ed5e" stroke-width="0.3" x1="143.1302829299769" x2="145.66735839644613" y1="173.24464959558577" y2="177.55315839532614" /><path d="M 143.63769802327073 174.10635135553383 a86.0,86.0 0 0,1 -40.68552437913181,11.842963189579606" fill="none" id="id6" stroke="none" /><text fill="#e1ed5e" style="font-size:6.75px; font-family:Arial;" text-anchor="middle"><textPath startOffset="21.407464694133747" xlink:href="#id6">June</textPath></text><line stroke="#e1ed5e" stroke-width="0.3" x1="101.45913802915013" x2="101.54496967792366" y1="184.9874750549273" y2="189.98673829345242" /><path d="M 101.47630435890484 185.9873277026323 a86.0,86.0 0 0,1 -42.54439059252881,-10.42667462771756" fill="none" id="id7" stroke="none" /><text fill="#e1ed5e" style="font-size:6.75px; font-family:Arial;" text-anchor="middle"><textPath startOffset="22.145653131862474" xlink:href="#id7">July</textPath></text><line stroke="#e1ed5e" stroke-width="0.3" x1="58.13341422392154" x2="55.67067388415222" y1="173.97424548756322" y2="178.32567169271397" /><path d="M 57.64086615596768 174.84453072859336 a86.0,86.0 0 0,1 -31.369924170532247,-30.572349798747897" fill="none" id="id8" stroke="none" /><text fill="#e1ed5e" style="font-size:6.75px; font-family:Arial;" text-anchor="middle"><textPath startOffset="22.145653131862474" xlink:href="#id8">August</textPath></text><line stroke="#e1ed5e" stroke-width="0.3" x1="26.387840678322732" x2="22.057713659400548" y1="142.50000000000003" y2="145.00000000000006" /><path d="M 25.521815274538298 143.00000000000003 a86.0,86.0 0 0,1 -11.493303480769221,-40.785679425670985" fill="none" id="id9" stroke="none" /><text fill="#e1ed5e" style="font-size:6.75px; font-family:Arial;" text-anchor="middle"><textPath startOffset="21.40746469413373" xlink:href="#id9">September</textPath></text><line stroke="#e1ed5e" stroke-width="0.3" x1="15.003131293944662" x2="10.003315487706104" y1="100.72959589197737" y2="100.7725132973878" /><path d="M 14.003168132696942 100.73817937305945 a86.0,86.0 0 0,1 10.791469493833604,-42.45332614584628" fill="none" id="id10" stroke="none" /><text fill="#e1ed5e" style="font-size:6.75px; font-family:Arial;" text-anchor="middle"><textPath startOffset="22.145653131862435" xlink:href="#id10">October</textPath></text><line stroke="#e1ed5e" stroke-width="0.3" x1="26.387840678322718" x2="22.05771365940052" y1="57.49999999999999" y2="54.99999999999999" /><path d="M 25.521815274538284 56.99999999999999 a86.0,86.0 0 0,1 29.574782752854787,-30.34633250058573" fill="none" id="id11" stroke="none" /><text fill="#e1ed5e" style="font-size:6.75px; font-family:Arial;" text-anchor="middle"><textPath startOffset="21.40746469413373" xlink:href="#id11">November</textPath></text><path d="M 82.18462484594161 88.88188828441811 l -19.94218698302214 -12.445399595178037 a44.506994549484105,44.506994549484105 0 0,0 0.4100626687727676,-0.6446866249097117 l 19.725606622623484 12.785899894766422" fill="red" stroke="none" /><path d="M 82.576782715395 88.27688183743585 l -27.962456865187136 -18.814388903698028 a54.70282219276372,54.70282219276372 0 0,0 0.5309045994310615,-0.7746056768460937 l 27.635362528940764 19.291629315614156" fill="red" stroke="none" /><path d="M 82.98947788004972 87.6856937992154 l -46.16731530068496 -33.42157595586278 a77.99493610353787,77.99493610353787 0 0,0 0.7944266340588501,-1.0777923031535634 l 45.58678664704229 34.209174568285206" fill="red" stroke="none" /><path d="M 84.10781606972428 86.27271002978789 l -27.05211383571124 -23.366971623235717 a56.74677923703592,56.74677923703592 0 0,0 0.6431002673523244,-0.7317300519591411 l 26.647002504400323 23.827913953006156" fill="red" stroke="none" /><path d="M 84.83555147118756 85.47280134310135 l -38.21971582912855 -36.61362319935579 a73.92734720202539,73.92734720202539 0 0,0 0.8857664910446134,-0.908874451580625 l 37.58556253693314 37.26432034300415" fill="red" stroke="none" /><path d="M 85.86807049272753 84.46653392183569 l -28.83230617135702 -31.691755158950095 a63.844710574512135,63.844710574512135 0 0,0 0.8170145992242774,-0.7305794925883698 l 28.28402654530935 32.182030181421865" fill="red" stroke="none" /><path d="M 86.40962598614128 83.9905735841838 l -25.36566331748812 -29.88068760694784 a60.195310528176314,60.195310528176314 0 0,0 0.7935050912996694,-0.6619701691487211 l 24.848983892026546 30.311719960008446" fill="red" stroke="none" /><path d="M 86.68645165197937 83.75963576809568 l -39.940645044061895 -48.721092695712954 a84.0,84.0 0 0,0 1.1229969185790178,-0.9046068248264043 l 39.09839735512763 49.399547814332756" fill="red" stroke="none" /><path d="M 87.25179093698888 83.31218511350988 l -22.487510869535075 -29.43687358701801 a58.04345652993976,58.04345652993976 0 0,0 0.7969836763665145,-0.598071408805145 l 21.978874204257806 29.818564023087152" fill="red" stroke="none" /><path d="M 87.83215693770416 82.88440491214696 l -21.97057199769804 -30.90436096487346 a58.91814289430889,58.91814289430889 0 0,0 0.8293567742134876,-0.5789554394940466 l 21.436820132310785 31.276961220172637" fill="red" stroke="none" /><path d="M 88.72937992617638 82.28071324371311 l -26.27196909305581 -41.303899072363265 a69.95128638357168,69.95128638357168 0 0,0 1.0187434577809973,-0.6357712635957105 l 25.55906150648511 41.74880613280051" fill="red" stroke="none" /><line stroke="#e1ed5e" stroke-width="0.3" x1="56.869717070023135" x2="54.33264160355391" y1="26.7553504044142" y2="22.446841604673864" /><path d="M 56.362301976729285 25.89364864446614 a86.0,86.0 0 0,1 42.16139366436587,-11.88097634709845" fill="none" id="id12" stroke="none" /><text fill="#e1ed5e" style="font-size:6.75px; font-family:Arial;" text-anchor="middle"><textPath startOffset="22.145653131862474" xlink:href="#id12">December</textPath></text><path d="M 89.97174638481275 81.54914285379989 l -20.111906665635242 -37.00364301351153 a63.116011040916774,63.116011040916774 0 0,0 0.9563914579123125,-0.5092245823752043 l 19.473726391936367 37.343438063609305" fill="red" stroke="none" /><path d="M 90.61103034731259 81.2157712731953 l -15.430318932739134 -30.870974226352324 a55.512487479898596,55.512487479898596 0 0,0 0.8560547670635124,-0.4187392840221946 l 14.898103916413568 31.131307260471733" fill="red" stroke="none" /><path d="M 90.93487009805054 81.0573650232925 l -17.332742642459266 -36.21876581721255 a61.15249637110761,61.15249637110761 0 0,0 0.9508085828617808,-0.4450264259191126 l 16.708445345725963 36.5109684747022" fill="red" stroke="none" /><path d="M 91.5904679813234 80.7573450057729 l -23.309636624520095 -53.33701026529023 a79.20803916648322,79.20803916648322 0 0,0 1.2506003596253596,-0.533806928229914 l 22.390601189724304 53.72929184317955" fill="red" stroke="none" /><path d="M 92.25597844496254 80.48000691201159 l -13.387812682404412 -33.74603352618809 a57.30465957931239,57.30465957931239 0 0,0 0.9174960018538431,-0.35490716357604163 l 12.80654441805704 33.97088057790217" fill="red" stroke="none" /></svg>