<?xml version="1.0" encoding="utf-8" ?>
<svg baseProfile="full" height="200mm" version="1.1" viewBox="0,0,200,200" width="200mm" xmlns="http://www.w3.org/2000/svg" xmlns:ev="http://www.w3.org/2001/xml-events" xmlns:xlink="http://www.w3.org/1999/xlink"><defs /><rect fill="#1a1a1a" height="200" width="200" x="0" y="0" /><text alignment-baseline="middle" fill="#e1ed5e" style="dominant-baseline: central; font-size:9.5px; font-family:Arial;" text-anchor="middle" x="105.0" y="100.0">2022</text><line stroke="#e1ed5e" stroke-width="0.3" x1="105.0" x2="105.0" y1="10.0" y2="5.0" /><path d="M 105.0 9.0 a91.0,91.0 0 0,1 44.93357506455793,11.867365569458398" fill="none" id="id49" stroke="none" /><text fill="#e1ed5e" style="font-size:7.125px; font-family:Arial;" text-anchor="middle"><textPath startOffset="23.497391628219546" xlink:href="#id49">January</textPath></text><path d="M 105.7658808586061 77.76318533354157 l 0.3438258561643858 -9.982743079620581 a32.23866235354263,32.23866235354263 0 0,0 0.5544423076422309,0.023875452067449607 l -0.5156114266953132 9.975345631592972" fill="#ff6409" stroke="none" /><path d="M 115.65182794257629 80.46538811540523 l 5.9481579958341015 -10.90845238049957 a34.6747702949001,34.6747702949001 0 0,0 0.5215678406247385,0.29025193861814746 l -6.135047787975639 10.80444841351409" fill="#ff840c" stroke="none" /><line stroke="#e1ed5e" stroke-width="0.3" x1="150.7803849466894" x2="153.32373966594992" y1="22.513508569990506" y2="18.208703490545545" /><path d="M 151.2890558905415 21.652547554101517 a91.0,91.0 0 0,1 30.207219022196004,29.05932076620417" fill="none" id="id50" stroke="none" /><text fill="#e1ed5e" style="font-size:7.125px; font-family:Arial;" text-anchor="middle"><textPath startOffset="21.14765246539759" xlink:href="#id50">February</textPath></text><path d="M 117.29168571797953 81.45338407659182 l 7.784274669174722 -11.745496577440168 a36.34083467988373,36.34083467988373 0 0,0 0.5184544510210051,0.35006275966018335 l -7.985300760697896 11.609762863082585" fill="#ff990e" stroke="none" /><path d="M 118.23266878487698 82.11260284921973 l 10.009273849170517 -13.530139644668559 a39.080039863052036,39.080039863052036 0 0,0 0.5373577057967616,0.4047266834125712 l -10.240689979782708 13.355841812850983" fill="#ffbc11" stroke="none" /><path d="M 120.83435984576948 84.36876369973626 l 5.428628849432904 -5.35899026916367 a29.87815756850146,29.87815756850146 0 0,0 0.35816190450958285,0.3691173259173627 l -5.5200707476279245 5.2647513551039244" fill="#ff4406" stroke="none" /><path d="M 123.27785331097871 87.31210898760773 l 10.198163332371779 -7.079233140031129 a34.66443020056286,34.66443020056286 0 0,0 0.3360395190651657,0.4930965291293885 l -10.318509725776435 6.902639657674762" fill="#ff840c" stroke="none" /><line stroke="#e1ed5e" stroke-width="0.3" x1="181.4835382374775" x2="185.73262369511514" y1="52.563006222186495" y2="49.927617678974634" /><path d="M 182.33335532900503 52.03592851354413 a91.0,91.0 0 0,1 13.598395693806166,44.44034392526798" fill="none" id="id51" stroke="none" /><text fill="#e1ed5e" style="font-size:7.125px; font-family:Arial;" text-anchor="middle"><textPath startOffset="23.497391628219546" xlink:href="#id51">March</textPath></text><path d="M 124.4885904394594 89.2642027458129 l 7.621508941832393 -4.198506558217579 a30.9514283810089,30.9514283810089 0 0,0 0.2530528366970939,0.46886847433439904 l -7.692650121749051 4.066692756304741" fill="#ff5307" stroke="none" /><path d="M 126.67373512758635 94.96892599744058 l 12.104219716025872 -2.809724524918402 a34.67604872192916,34.67604872192916 0 0,0 0.12996188909555456,0.5825936658497944 l -12.15079113420692 2.600953988950194" fill="#ff840c" stroke="none" /><path d="M 126.8340689635433 95.71795230114904 l 12.19146641404207 -2.390962527004668 a34.67370939495352,34.67370939495352 0 0,0 0.10982365141739259,0.5866823373199659 l -12.230816606268718 2.1807522266588912" fill="#ff840c" stroke="none" /><path d="M 127.0259980156936 96.85072843142078 l 16.38178000792926 -2.342262719942701 a38.798380914078095,38.798380914078095 0 0,0 0.08883720878223626,0.6619403923382182 l -16.419671072856108 2.059930274702636" fill="#ffb811" stroke="none" /><line stroke="#e1ed5e" stroke-width="0.3" x1="194.97916517819016" x2="199.97800768808963" y1="98.06355123074" y2="97.95597074355888" /><path d="M 195.9789336801701 98.04203513330377 a91.0,91.0 0 0,1 -10.165717320886186,43.793644156837686" fill="none" id="id52" stroke="none" /><text fill="#e1ed5e" style="font-size:7.125px; font-family:Arial;" text-anchor="middle"><textPath startOffset="22.714145240612222" xlink:href="#id52">April</textPath></text><path d="M 127.24979395913023 99.90424627290857 l 12.423071360701712 -0.05346365844533691 a34.67318640268516,34.67318640268516 0 0,0 -0.002568627146105932,0.5968584878594078 l -12.422151037617919 -0.16038701465368918" fill="#ff840c" stroke="none" /><path d="M 127.20365682925498 101.43531300024729 l 10.180782538150774 0.6581172480762343 a32.45203172908863,32.45203172908863 0 0,0 -0.0408330646007917,0.5571347244569341 l -10.167945738774673 -0.8332651766785559" fill="#ff6709" stroke="none" /><path d="M 127.09996489619996 102.57954484099989 l 9.885665389648628 1.153871387375098 a32.20277847511436,32.20277847511436 0 0,0 -0.06900363949705865,0.5500269000780742 l -9.86433872249717 -1.323865908067198" fill="#ff6309" stroke="none" /><path d="M 126.93734633669523 103.71689866742214 l 2.6793157779000984 0.45396307701181404 a24.96750170432227,24.96750170432227 0 0,0 -0.07544175281150559,0.42311741417165283 l -2.671104580229214 -0.500015834222234" fill="#ff0000" stroke="none" /><path d="M 126.79640463911215 104.46981485165664 l 10.26007908084312 2.104046727616273 a32.72359706009102,32.72359706009102 0 0,0 -0.11790773466408455,0.5508256828445646 l -10.222341233720993 -2.280345385794636" fill="#ff6a09" stroke="none" /><path d="M 126.7162347515702 104.84434187632283 l 11.066534446029063 2.4686635070930705 a33.58853977178723,33.58853977178723 0 0,0 -0.1307384872459527,0.5632179813114555 l -11.022400835356692 -2.658789946785743" fill="#ff760a" stroke="none" /><path d="M 126.53661567228542 105.58897892143723 l 10.490256483776117 2.7223322020712484 a33.08773840401405,33.08773840401405 0 0,0 -0.14781068519907675,0.5500585465503295 l -10.441841765310157 -2.9025013802004325" fill="#ff6f0a" stroke="none" /><path d="M 126.21940217502741 106.69324071989361 l 11.844009226896462 3.7359584492703335 a34.66925682565116,34.66925682565116 0 0,0 -0.18442022090157648,0.5675870777910095 l -11.777946025751483 -3.9392800758473405" fill="#ff840c" stroke="none" /><path d="M 125.97643544043686 107.41968033092965 l 4.9659927862895366 1.756546249461518 a27.517498370192158,27.517498370192158 0 0,0 -0.16179730697842598,0.44519669962633246 l -4.93502096467462 -1.8417674006776799" fill="#ff2403" stroke="none" /><path d="M 125.70860746559504 108.13732614781424 l 9.242401473488835 3.631747586300413 a32.180336123603645,32.180336123603645 0 0,0 -0.2070228229817738,0.5138136688226213 l -9.178517547305777 -3.7903022520041105" fill="#ff6309" stroke="none" /><path d="M 125.41623567982151 108.84532761778686 l 9.124994315644594 3.953400886339343 a32.194591486263015,32.194591486263015 0 0,0 -0.22468592408316687,0.5066074434559033 l -9.055591051786626 -4.109886924412499" fill="#ff6309" stroke="none" /><path d="M 125.26095301959631 109.19544902316962 l 8.220489376047107 3.7308753902068257 a31.277506674544988,31.277506674544988 0 0,0 -0.22672525894415918,0.488346037339797 l -8.155050534975032 -3.871824832163479" fill="#ff5708" stroke="none" /><path d="M 125.09966660172424 109.54284561855276 l 8.255587978820571 3.919557629155226 a31.38879996959752,31.38879996959752 0 0,0 -0.23593427876062492,0.48609449567190194 l -8.186896082932451 -4.061083280552241" fill="#ff5808" stroke="none" /><path d="M 124.93242421885172 109.88741446282765 l 9.18954691194599 4.558444976204819 a32.50803066128889,32.50803066128889 0 0,0 -0.25297645777602773,0.4991465510748705 l -9.109719244515462 -4.71595253729802" fill="#ff6709" stroke="none" /><path d="M 124.75927542850623 110.22905345280931 l 10.051660882122006 5.20358030458971 a33.56870727934492,33.56870727934492 0 0,0 -0.27006423318943323,0.5108597528308295 l -9.960600539027626 -5.375832156737992" fill="#ff750a" stroke="none" /><line stroke="#e1ed5e" stroke-width="0.3" x1="184.2010983576182" x2="188.60115937748589" y1="142.7455964860345" y2="145.12035184636974" /><path d="M 185.08111056159174 143.22054755810154 a91.0,91.0 0 0,1 -31.78467617885582,33.90567642514608" fill="none" id="id53" stroke="none" /><text fill="#e1ed5e" style="font-size:7.125px; font-family:Arial;" text-anchor="middle"><textPath startOffset="23.497391628219564" xlink:href="#id53">May</textPath></text><path d="M 124.58027153841117 110.56766135349186 l 10.950859796724838 5.91028462676505 a34.693986284824476,34.693986284824476 0 0,0 -0.2881642694399604,0.523101852003697 l -10.847501474413635 -6.097910004214041" fill="#ff840c" stroke="none" /><path d="M 124.20491234911053 111.23538346755383 l 14.540732435780138 8.506714420003815 a39.096278223763534,39.096278223763534 0 0,0 -0.3448275436220929,0.5779507975538789 l -14.392148964334924 -8.755748864651304" fill="#ffbc11" stroke="none" /><path d="M 124.00866827693365 111.56429982046022 l 14.388447643250489 8.753497092663462 a39.09194575854667,39.09194575854667 0 0,0 -0.35468561767548284,0.5718661500521559 l -14.235638776402997 -8.999873641424061" fill="#ffbc11" stroke="none" /><path d="M 123.80679152610566 111.88978942175177 l 10.60543562970912 6.704832995471386 a34.79711322946699,34.79711322946699 0 0,0 -0.3244335970879875,0.503528147405832 l -10.488451641662117 -6.886394742793995" fill="#ff850c" stroke="none" /><path d="M 122.94417880564102 113.15556714821462 l 7.141345265040592 5.235594683959118 a31.104957023567007,31.104957023567007 0 0,0 -0.32029030982284423,0.4290812111020778 l -7.050165041695568 -5.357745493588922" fill="#ff5507" stroke="none" /><path d="M 121.99652163458958 114.35899551935749 l 12.856953814095279 10.861807267286679 a39.080927439967795,39.080927439967795 0 0,0 -0.438557775435681,0.5101417713000863 l -12.668080760661988 -11.08150929841267" fill="#ffbc11" stroke="none" /><path d="M 121.49218974138125 114.93553405587757 l 18.402929805955257 16.665924243832354 a47.07782423701431,47.07782423701431 0 0,0 -0.549137245266796,0.5959800238139792 l -18.113326723645372 -16.98023119237632" fill="#e3ff1b" stroke="none" /><path d="M 120.1472083608636 116.29799309340213 l 6.762803704329375 7.276596811725007 a32.18400096153094,32.18400096153094 0 0,0 -0.4090440169805472,0.37365201117169583 l -6.636547069461318 -7.391929254161059" fill="#ff6309" stroke="none" /><path d="M 119.86442097875113 116.55631266213777 l 8.64452469608341 9.628458040075857 a35.18966813526133,35.18966813526133 0 0,0 -0.4542108879400934,0.40078829841274305 l -8.47750583899229 -9.77583276250924" fill="#ff8a0c" stroke="none" /><path d="M 119.57722894790214 116.80972623811714 l 8.497933879016472 9.799389349403432 a35.22084853944943,35.22084853944943 0 0,0 -0.46145101797397237,0.3932585684834589 l -8.327994439431103 -9.94421542657549" fill="#ff8b0c" stroke="none" /><path d="M 117.76643296087123 118.22308122836478 l 9.9772667014692 14.24176526796444 a39.63889670968358,39.63889670968358 0 0,0 -0.5621986898154238,0.3866853852563974 l -9.73063988389858 -14.411397441952902" fill="#ffc312" stroke="none" /><path d="M 117.45086108862643 118.44013443963271 l 9.607904988627622 14.229623028671712 a39.41956638382577,39.41956638382577 0 0,0 -0.5656244150545848,0.3748650197415308 l -9.36154190466998 -14.392899046950474" fill="#ffc011" stroke="none" /><path d="M 117.13159975752949 118.65172344109548 l 12.518183386273607 19.2460762943303 a45.20901496187411,45.20901496187411 0 0,0 -0.656000455734078,0.41869052843681226 l -12.185039116465996 -19.4587047294971" fill="#f8ff18" stroke="none" /><line stroke="#e1ed5e" stroke-width="0.3" x1="151.44561519142675" x2="154.02592714650604" y1="177.08958963109032" y2="181.37234461059535" /><path d="M 151.9616775824426 177.94614062699134 a91.0,91.0 0 0,1 -43.04665437903033,12.969603847311603" fill="none" id="id54" stroke="none" /><text fill="#e1ed5e" style="font-size:7.125px; font-family:Arial;" text-anchor="middle"><textPath startOffset="22.714145240612233" xlink:href="#id54">June</textPath></text><path d="M 116.48238820010272 119.05825965879733 l 7.698654242842283 12.77808666859716 a37.16806877786176,37.16806877786176 0 0,0 -0.5508522464522588,0.32545321675987304 l -7.477559847324238 -12.908713134573029" fill="#ffa40f" stroke="none" /><path d="M 116.1526303491685 119.25308640958133 l 12.466577234957514 21.521388338155703 a47.12138323368576,47.12138323368576 0 0,0 -0.7053649963756121,0.40052465383766583 l -12.09427485458206 -21.732791346228154" fill="#e2ff1b" stroke="none" /><path d="M 115.48329904574346 119.62556855526775 l 14.446558443359342 27.045104969408378 a52.91171478674529,52.91171478674529 0 0,0 -0.8070525528151362,0.42221175197363475 l -13.978881005724466 -27.289771700978203" fill="#a2ff22" stroke="none" /><path d="M 114.80154295179851 119.9747905061367 l 12.282265573852328 25.030312368668216 a50.13136626673347,50.13136626673347 0 0,0 -0.7779608191509002,0.3734684697935556 l -11.849590142177373 -25.23802286951488" fill="#c0ff1e" stroke="none" /><path d="M 114.45625756432257 120.14054847508359 l 5.248400232238956 11.178381994676693 a34.5991671385838,34.5991671385838 0 0,0 -0.5412825583246179,0.24847627429384972 l -5.055205154589335 -11.267068379205455" fill="#ff830c" stroke="none" /><path d="M 114.10817008364758 120.30033836484868 l 10.165830527897835 22.6576576393256 a47.08371820776803,47.08371820776803 0 0,0 -0.7423069361348702,0.3254055464115446 l -9.774310019804155 -22.829288724346746" fill="#e3ff1b" stroke="none" /><path d="M 113.75738365560639 120.45411282623908 l 4.913553402793617 11.476301556590029 a34.73392984840493,34.73392984840493 0 0,0 -0.5516550918217175,0.23059187312203058 l -4.715279740790066 -11.559179963387983" fill="#ff840c" stroke="none" /><path d="M 113.04813050873734 120.74343499313292 l 6.295961628310696 16.227354988135232 a39.65592378289983,39.65592378289983 0 0,0 -0.6385166073456804,0.2414323452038961 l -6.015701572778534 -16.33332536023782" fill="#ffc312" stroke="none" /><path d="M 112.68987395692382 120.87889696623422 l 1.7635013282985064 4.788110018397597 a27.352541962903395,27.352541962903395 0 0,0 -0.4432159522395421,0.15892147160483422 l -1.6808206034869833 -4.817756384675722" fill="#ff2103" stroke="none" /><path d="M 112.3293387294958 121.00817207156094 l 5.696106672034214 16.32681931079109 a39.54192470566575,39.54192470566575 0 0,0 -0.6445903640317437,0.2186800489340636 l -5.414223376676123 -16.422449429176737" fill="#ffc112" stroke="none" /><path d="M 111.96663166082215 121.13122200210935 l 5.444302903661823 16.51368680089365 a39.63799257720194,39.63799257720194 0 0,0 -0.6498340365606845,0.20805633742422147 l -5.159240299088118 -16.6049548448978" fill="#ffc312" stroke="none" /><path d="M 111.60186022883516 121.24801029552943 l 4.3939266856287995 14.141801888846565 a37.05868503217167,37.05868503217167 0 0,0 -0.6108065859033951,0.18403101380986642 l -4.149847805378001 -14.215340853256546" fill="#ffa20f" stroke="none" /><path d="M 110.86655721319816 121.46266540913017 l 4.242741449963549 15.521972572457631 a38.34137929300549,38.34137929300549 0 0,0 -0.6381275475568938,0.16853528516080202 l -3.9749275999039972 -15.592704644380564" fill="#ffb210" stroke="none" /><path d="M 110.49624351570083 121.56046862236803 l 9.494333460471465 37.24403368956122 a60.685145548414404,60.685145548414404 0 0,0 -1.0144438576024295,0.24932561890224483 l -8.851831955938728 -37.401944927391426" fill="#52ff2b" stroke="none" /><path d="M 109.75084036853548 121.7368814642923 l 3.3205571802195273 15.192797952099319 a37.80143754128282,37.80143754128282 0 0,0 -0.63687958915952,0.13346431017263444 l -3.0585461616884047 -15.247704908517932" fill="#ffac0f" stroke="none" /><path d="M 109.37597179790707 121.81543881804632 l 2.7146551577920848 13.533312425649378 a36.052894545564094,36.052894545564094 0 0,0 -0.6095211977193528,0.11681618821559109 l -2.4812992255860453 -13.578035645448464" fill="#ff950d" stroke="none" /><path d="M 108.622456037882 121.95313900683936 l 1.7384811359907573 10.535702197641482 a32.92817107268765,32.92817107268765 0 0,0 -0.5600362754346424,0.0874661484951707 l -1.5568687669709003 -10.564066314635372" fill="#ff6d0a" stroke="none" /><path d="M 107.48441290845771 122.11086141470496 l 1.4589092683709404 12.98404968826365 a35.315755338312364,35.315755338312364 0 0,0 -0.6046854498051811,0.06267811928194397 l -1.2351940435907756 -13.007238686028481" fill="#ff8c0c" stroke="none" /><path d="M 107.10344268343269 122.15035053622208 l 1.9245336072061956 20.26634448093878 a42.60751822362794,42.60751822362794 0 0,0 -0.7307304664366865,0.06305049939760539 l -1.5753966612576376 -20.296469485726874" fill="#ffe715" stroke="none" /><path d="M 106.72184916294457 122.18327603083159 l 0.9731089179030614 12.536953990204118 a34.824663268596794,34.824663268596794 0 0,0 -0.5980509722852447,0.04124509653109134 l -0.7571616871734739 -12.55184697556794" fill="#ff860c" stroke="none" /><path d="M 106.3397454213889 122.20962814199885 l 0.8475700627472631 14.050591714948663 a36.32613237190704,36.32613237190704 0 0,0 -0.6244841530785614,0.03227869760198184 l -0.6055866467068006 -14.063099493524883" fill="#ff990e" stroke="none" /><path d="M 105.95724468435081 122.22939906102462 l 0.2501439971332845 5.80891262798361 a28.064295996838247,28.064295996838247 0 0,0 -0.48281233277315166,0.01662903295802036 l -0.15011605365722744 -5.812357792607372" fill="#ff2b04" stroke="none" /><line stroke="#e1ed5e" stroke-width="0.3" x1="107.32365962044197" x2="107.45275182157765" y1="189.96999836594603" y2="194.96833160849857" /><path d="M 107.34947806066911 190.96966501445652 a91.0,91.0 0 0,1 -45.22499325899069,-10.70329474347383" fill="none" id="id55" stroke="none" /><text fill="#e1ed5e" style="font-size:7.125px; font-family:Arial;" text-anchor="middle"><textPath startOffset="23.497391628219546" xlink:href="#id55">July</textPath></text><path d="M 105.57446029505371 122.24258292935887 l 0.3204339019552 12.40691079781275 a34.66104803916272,34.66104803916272 0 0,0 -0.596566664377148,0.010270436140563265 l -0.10682185185843951 -12.410588322975281" fill="#ff830c" stroke="none" /><path d="M 105.19150568077332 122.2491758403369 l 0.2162187229059634 25.12034299181992 a47.37127350599112,47.37127350599112 0 0,0 -0.8154488073585413,0.0 l 0.21621872290594607 -25.12034299181992" fill="#e0ff1b" stroke="none" /><path d="M 104.4255397049463 122.24258292935887 l -0.20142876400272558 7.79913951628302 a30.051740238011966,30.051740238011966 0 0,0 -0.5170039116549496,-0.017806660068011963 l 0.3356482863605708 -7.794516724549267" fill="#ff4606" stroke="none" /><path d="M 104.0427553156492 122.22939906102462 l -0.5471541466887697 12.706163923895701 a34.967939271798215,34.967939271798215 0 0,0 -0.6011353952434139,-0.031071833520921136 l 0.7657888048940945 -12.694863009400542" fill="#ff870c" stroke="none" /><path d="M 103.27815083705545 122.18327603083159 l -0.707696778973322 9.11754254202417 a31.3949667433288,31.3949667433288 0 0,0 -0.5384321746154854,-0.04645819363025895 l 0.8645354331006789 -9.104009843003423" fill="#ff5808" stroke="none" /><path d="M 102.89655731656732 122.15035053622208 l -1.2015278935216633 12.652716534743266 a34.959638271307185,34.959638271307185 0 0,0 -0.5985879217534118,-0.06204608556808456 l 1.4191455902500492 -12.630159570692292" fill="#ff870c" stroke="none" /><path d="M 102.5155870915423 122.11086141470497 l -1.1618366800039799 10.340153092360369 a32.6552213068465,32.6552213068465 0 0,0 -0.5580506391054848,-0.06757216077360695 l 1.3396532792472464 -10.318621978532525" fill="#ff6909" stroke="none" /><path d="M 100.62402820209293 121.81543881804632 l -9.351777332587005 46.621215963187666 a69.79990554317088,69.79990554317088 0 0,0 -1.175990598695054,-0.2464402638989746 l 10.152899360653672 -46.45333305304272" fill="#36ff6e" stroke="none" /><path d="M 99.87569883736889 121.65188300344008 l -15.372903487893348 64.95564901032024 a89.0,89.0 0 0,0 -1.4877694122787744,-0.3656575242881588 l 16.488730547102428 -64.68140586710412" fill="#4dd2ff" stroke="none" /><path d="M 99.50375648429919 121.56046862236803 l -6.358826657282807 24.944179097556287 a47.99192586634369,47.99192586634369 0 0,0 -0.7987446075318866,-0.21095571052593928 l 6.787257567317344 -24.83102660026822" fill="#d8ff1c" stroke="none" /><path d="M 98.76486747681744 121.35850234492932 l -6.9591290518969195 23.838558943369257 a47.083573437132365,47.083573437132365 0 0,0 -0.7760382409224763,-0.23381395605118155 l 7.368439587166799 -23.715237036717962" fill="#e3ff1b" stroke="none" /><path d="M 98.03336833917787 121.13122200210935 l -2.2289611992396474 6.760896259249414 a29.36884725612571,29.36884725612571 0 0,0 -0.4787545392626351,-0.1624195332653188 l 2.345008669828629 -6.721526656532513" fill="#ff3d05" stroke="none" /><path d="M 97.67066127050421 121.00817207156094 l -2.618700167380947 7.50601189965046 a30.199704724348905,30.199704724348905 0 0,0 -0.48935089487876027,-0.17546382063261967 l 2.7475158348316793 -7.459823184344551" fill="#ff4806" stroke="none" /><path d="M 97.31012604307618 120.87889696623424 l -3.6459187791374124 9.899091059656321 a32.799157670232944,32.799157670232944 0 0,0 -0.528112949632597,-0.19968712872227262 l 3.8157751769564996 -9.834865904035354" fill="#ff6b09" stroke="none" /><path d="M 96.95186949126267 120.74343499313292 l -4.134431501654009 10.656177977607891 a33.680120425101585,33.680120425101585 0 0,0 -0.5386877431982742,-0.21435497026659606 l 4.317247527801395 -10.583431707911059" fill="#ff770a" stroke="none" /><path d="M 96.24261634439362 120.45411282623908 l -1.458630455808606 3.4068385134409116 a25.955961611144495,25.955961611144495 0 0,0 -0.40921344089653494,-0.17938714681454793 l 1.5170574686639404 -3.3812258280167655" fill="#ff0e01" stroke="none" /><path d="M 95.89182991635242 120.30033836484868 l -8.017043480418803 17.86842953563174 a41.83452859368237,41.83452859368237 0 0,0 -0.6544753107146509,-0.3004375151621988 l 8.323431310458458 -17.727781910234633" fill="#ffdd14" stroke="none" /><path d="M 95.19845704820149 119.9747905061367 l -3.38094462620433 6.890105053193511 a29.924915908953185,29.924915908953185 0 0,0 -0.4604818875666769,-0.23089517787310757 l 3.4990455350063128 -6.830886805785548" fill="#ff4506" stroke="none" /><line stroke="#e1ed5e" stroke-width="0.3" x1="61.23545636021788" x2="58.804092824674434" y1="178.64263932499728" y2="183.01167484305267" /><path d="M 60.74918365310919 179.51644642860833 a91.0,91.0 0 0,1 -33.49250110034344,-32.21975952245642" fill="none" id="id56" stroke="none" /><text fill="#e1ed5e" style="font-size:7.125px; font-family:Arial;" text-anchor="middle"><textPath startOffset="23.497391628219546" xlink:href="#id56">August</textPath></text><path d="M 93.51761179989728 119.05825965879734 l -4.877127101461757 8.094967098202119 a31.70065400301945,31.70065400301945 0 0,0 -0.4649743242228148,-0.2856252069740201 l 5.015746054184279 -8.009816015659936" fill="#ff5d08" stroke="none" /><path d="M 93.19125642839698 118.85778553436549 l -3.6343838332744767 5.803871551776915 a29.09789535821717,29.09789535821717 0 0,0 -0.42222182084681553,-0.2694819427984782 l 3.733749468194818 -5.740451702248453" fill="#ff3905" stroke="none" /><path d="M 92.86840024247051 118.65172344109547 l -1.7757268329672158 2.730090545138589 a25.506777574532055,25.506777574532055 0 0,0 -0.3659922588961266,-0.2425597122484587 l 1.8224577607663972 -2.6991198343529" fill="#ff0801" stroke="none" /><path d="M 92.23356703912877 118.22308122836478 l -7.293324717458477 10.410648703396035 a34.961183731651914,34.961183731651914 0 0,0 -0.4899105218228206,-0.34953814938946903 l 7.471446336644999 -10.283563657528761" fill="#ff870c" stroke="none" /><path d="M 91.92177813649248 118.00062812484259 l -6.6573925207239375 9.163114703004444 a33.57623265854129,33.57623265854129 0 0,0 -0.46465513558548305,-0.3437407609707291 l 6.814134113062424 -9.047161020154675" fill="#ff750a" stroke="none" /><path d="M 91.61386459324548 117.77284104672162 l -3.7401924439296077 4.965872805721665 a28.46682654094789,28.46682654094789 0 0,0 -0.38887212978843233,-0.2981705667634801 l 3.8251176312885202 -4.900755793450617" fill="#ff3104" stroke="none" /><path d="M 89.3007646751153 115.76694359138423 l -11.69379827823556 11.744231741638684 a38.823228332868,38.823228332868 0 0,0 -0.46950108574959376,-0.4756021210947374 l 11.894223359579707 -11.541202192397767" fill="#ffb811" stroke="none" /><path d="M 88.50781025861875 114.93553405587758 l -10.776604655079398 9.759428454113033 a36.78897010254956,36.78897010254956 0 0,0 -0.4210430187952215,-0.47304629506283197 l 10.943000502668692 -9.572480955396191" fill="#ff9f0e" stroke="none" /><path d="M 85.99133172306635 111.56429982046022 l -7.558723105142605 4.598498904511883 a31.09762607454755,31.09762607454755 0 0,0 -0.2742797652091204,-0.4597086630331055 l 7.636758798174852 -4.46770659438516" fill="#ff5407" stroke="none" /><line stroke="#e1ed5e" stroke-width="0.3" x1="27.317208475507996" x2="23.001497835258448" y1="145.44649492493687" y2="147.9713001985445" /><path d="M 26.454066347458095 145.95145597965842 a91.0,91.0 0 0,1 -12.412777890007606,-43.210508238589746" fill="none" id="id57" stroke="none" /><text fill="#e1ed5e" style="font-size:7.125px; font-family:Arial;" text-anchor="middle"><textPath startOffset="22.71414524061225" xlink:href="#id57">September</textPath></text><path d="M 84.90033339827578 109.54284561855278 l -15.205269907324887 7.219101997521703 a39.08198344239982,39.08198344239982 0 0,0 -0.2832985668656601,-0.6101999096049545 l 15.327282056318458 -6.956298683299895" fill="#ffbc11" stroke="none" /><path d="M 84.5837643201785 108.84532761778688 l -14.382391203785748 6.231166416755113 a37.92420210575423,37.92420210575423 0 0,0 -0.2543612693171497,-0.6012349035614613 l 14.48751958412808 -5.982673980047364" fill="#ffad10" stroke="none" /><path d="M 84.43453143120368 108.49258515093317 l -2.946722876802131 1.2168599448016157 a25.43809093940741,25.43809093940741 0 0,0 -0.16364855162841768,-0.40616228442169094 l 2.9672325316318284 -1.1659566634988574" fill="#ff0701" stroke="none" /><path d="M 84.15439004492666 107.77965587933984 l -3.215926459468145 1.2001952085761312 a25.682586711416977,25.682586711416977 0 0,0 -0.15100839873760072,-0.4155102577993019 l 3.2361093728422334 -1.1446604991870148" fill="#ff0a01" stroke="none" /><path d="M 84.02356455956314 107.41968033092967 l -3.226986085603481 1.1414334554373269 a25.672909512369568,25.672909512369568 0 0,0 -0.1437795026199748,-0.4178905363069699 l 3.2461558733894953 -1.0857170789524115" fill="#ff0a01" stroke="none" /><path d="M 83.89895484472919 107.0575061711076 l -4.804961684443228 1.6070790091372826 a27.316592516729283,27.316592516729283 0 0,0 -0.14530833618810463,-0.44721307410045863 l 4.8319130008747395 -1.5241313862508181" fill="#ff2103" stroke="none" /><path d="M 83.78059782497259 106.69324071989361 l -4.779218519924536 1.5075099544734116 a27.26133873570986,27.26133873570986 0 0,0 -0.13731046589903234,-0.4487385472884265 l 4.804459732883634 -1.425020210076268" fill="#ff2003" stroke="none" /><path d="M 83.66852857203266 106.32699191700233 l -4.9192270834205285 1.4590606231642598 a27.381047943678418,27.381047943678418 0 0,0 -0.13013477116922406,-0.4530162105181581 l 4.9436135770047915 -1.3741680397900415" fill="#ff2203" stroke="none" /><path d="M 82.94771207614563 102.95957722038587 l -7.404255088292231 0.9937048150696262 a29.720638705759633,29.720638705759633 0 0,0 -0.06368494695137583,-0.5076316873806872 l 7.420263062898006 -0.8661055070748989" fill="#ff4206" stroke="none" /><path d="M 82.90003510380004 102.57954484099992 l -13.09833207663632 1.5288592127945217 a35.43725572977132,35.43725572977132 0 0,0 -0.06550441469278023,-0.6064895262661616 l 13.122708215538546 -1.3031664407218648" fill="#ff8e0d" stroke="none" /><path d="M 82.79634317074502 101.43531300024729 l -9.1604710356737 0.5921611591730027 a31.429590646311517,31.429590646311517 0 0,0 -0.030252700813002804,-0.5401822956310952 l 9.169306893974683 -0.43439097361507484" fill="#ff5908" stroke="none" /><path d="M 82.77492632823301 101.05290089017412 l -5.5840023227927915 0.26453910134262515 a27.840265009558532,27.840265009558532 0 0,0 -0.018557349094817214,-0.47888272241012525 l 5.587728598360905 -0.16838048626290808" fill="#ff2803" stroke="none" /><path d="M 82.7600952547063 100.67017678284371 l -5.671225241003219 0.17089657218976523 a27.923799553436677,27.923799553436677 0 0,0 -0.01034236012014511,-0.48056883525938415 l 5.673326691349145 -0.0732504321051255" fill="#ff2904" stroke="none" /><line stroke="#e1ed5e" stroke-width="0.3" x1="15.007500721073583" x2="10.007917427799896" y1="101.16192664675087" y2="101.22647812712593" /><path d="M 14.007584062418857 101.17483694282589 a91.0,91.0 0 0,1 11.286270769455006,-45.08304144309669" fill="none" id="id58" stroke="none" /><text fill="#e1ed5e" style="font-size:7.125px; font-family:Arial;" text-anchor="middle"><textPath startOffset="23.497391628219546" xlink:href="#id58">October</textPath></text><path d="M 82.76668724991704 99.13842925014913 l -8.020311344110564 -0.31079784359876844 a30.276331002148755,30.276331002148755 0 0,0 0.024662799017858207,-0.5205927074800655 l 8.013773174464355 0.4488082711913079" fill="#ff4906" stroke="none" /><path d="M 82.80951934834354 98.37363335976777 l -17.330668214498274 -1.2701852239910385 a39.627152564913104,39.627152564913104 0 0,0 0.05571486353536189,-0.6798624557058228 l 17.306236338344636 1.568315996738436" fill="#ffc212" stroke="none" /><path d="M 82.84080233572527 97.99190167680935 l -5.530334975375509 -0.5011668995867352 a27.80299677661558,27.80299677661558 0 0,0 0.04729537902421141,-0.47625801239497495 l 5.520888832235603 0.5962882718947375" fill="#ff2803" stroke="none" /><path d="M 82.87865157160957 97.61076503672237 l -3.6308140041602637 -0.3921491400933074 a25.90192980229388,25.90192980229388 0 0,0 0.05169241593047412,-0.4428690516658806 l 3.623525857071225 0.45458953355576776" fill="#ff0d01" stroke="none" /><path d="M 82.92305584045101 97.23033637851896 l -6.105294842363534 -0.7659399281488057 a28.403152776075316,28.403152776075316 0 0,0 0.06503510594501401,-0.4845870793906208 l 6.091205880273911 0.870919060441268" fill="#ff3004" stroke="none" /><path d="M 83.0314749067338 96.47205368145526 l -7.785072401608526 -1.250212174110753 a30.134819768300446,30.134819768300446 0 0,0 0.08665646043958324,-0.5114513348554003 l 7.762398611701088 1.384034165634114" fill="#ff4806" stroke="none" /><path d="M 83.24287440149914 95.34274912732218 l -5.78870020795566 -1.2391080325899924 a28.169834356974437,28.169834356974437 0 0,0 0.10557733719603503,-0.47328250101438896 l 5.766513341674133 1.3385674037227904" fill="#ff2d04" stroke="none" /><path d="M 83.41607773880396 94.59659368336543 l -12.668657795221415 -3.1715229848213866 a35.3096113409119,35.3096113409119 0 0,0 0.15267820142802838,-0.5883313914602595 l 12.612188242168896 3.38912320811318" fill="#ff8c0c" stroke="none" /><path d="M 83.61486230884131 93.85684234858132 l -16.20354113645449 -4.654676960702535 a39.108848210042936,39.108848210042936 0 0,0 0.191436141273609,-0.6454275003710044 l 16.12101779466967 4.93290464465023" fill="#ffbc11" stroke="none" /><path d="M 83.7237751083301 93.48964253215802 l -11.868725797893408 -3.6317367402116973 a34.661936344333384,34.661936344333384 0 0,0 0.1794902618772308,-0.5690331802879595 l 11.804452940118912 3.8354992634990723" fill="#ff830c" stroke="none" /><path d="M 84.08820271079281 92.40005038601522 l -5.858876436972001 -2.129284494285475 a28.48380185451144,28.48380185451144 0 0,0 0.1714391360209084,-0.45937165036017913 l 5.821356248848178 2.2298199445934084" fill="#ff3104" stroke="none" /><path d="M 84.2221216586899 92.04121418596297 l -23.72142973336959 -9.08628760595169 a47.652103280107774,47.652103280107774 0 0,0 0.29999597215876533,-0.7634570270191484 l 23.561509642883795 9.49326679291992" fill="#dcff1b" stroke="none" /><path d="M 84.98321315023759 90.28451008897758 l -11.176397034088238 -5.4246554874792 a34.67331428490057,34.67331428490057 0 0,0 0.2652343217899369,-0.5346962079108113 l 11.081364603335757 5.616235068918673" fill="#ff840c" stroke="none" /><path d="M 85.15341504127504 89.94139346250624 l -11.156785209484042 -5.654459589844696 a34.757868302142796,34.757868302142796 0 0,0 0.27506808739424843,-0.531343992431937 l 11.05779998457491 5.845667538004846" fill="#ff850c" stroke="none" /><path d="M 85.32949790376016 89.60125741823445 l -12.078458039944941 -6.385234872375391 a35.912370694652864,35.912370694652864 0 0,0 0.2936125326731333,-0.5440194310277473 l 11.966757164052238 6.592199630981592" fill="#ff940d" stroke="none" /><path d="M 85.51140956054059 89.26420274581291 l -4.364994555977854 -2.404570854633268 a27.23348657755472,27.23348657755472 0 0,0 0.2297240022942368,-0.4086533667884381 l 4.322957100409495 2.479350797424037" fill="#ff2003" stroke="none" /><line stroke="#e1ed5e" stroke-width="0.3" x1="26.928928074336255" x2="22.591646300688268" y1="55.22380399835377" y2="52.73623755381787" /><path d="M 26.061471719606658 54.726290709446594 a91.0,91.0 0 0,1 31.307708010128266,-32.26534512966574" fill="none" id="id59" stroke="none" /><text fill="#e1ed5e" style="font-size:7.125px; font-family:Arial;" text-anchor="middle"><textPath startOffset="22.71414524061225" xlink:href="#id59">November</textPath></text><path d="M 85.69909610726646 88.93032932181524 l -2.3695116662727194 -1.3589888825689083 a24.981562981069338,24.981562981069338 0 0,0 0.2171496494668798,-0.371179141031977 l 2.3457678379027573 1.399574781928223" fill="#ff0000" stroke="none" /><path d="M 85.89250192836337 88.59973608014258 l -11.320167466231974 -6.754044734072 a35.43193125962135,35.43193125962135 0 0,0 0.3170047676138854,-0.5210724871658442 l 11.202230483767217 6.947902123802483" fill="#ff8d0d" stroke="none" /><path d="M 86.09156971351251 88.27252098270722 l -4.228418335688275 -2.6225702798585995 a27.225680505657735,27.225680505657735 0 0,0 0.25044048319606377,-0.3961367010040451 l 4.18264861361256 2.694966988559849" fill="#ff2003" stroke="none" /><path d="M 86.50645356336078 87.62861203438075 l -4.025644440178733 -2.692983163165523 a27.093343006213264,27.093343006213264 0 0,0 0.26264484663380766,-0.3853989037632706 l 3.978692719205427 2.761879020155782" fill="#ff1e03" stroke="none" /><path d="M 86.9432559370862 86.9993656367688 l -10.781578894561294 -7.762604630056611 a35.53534809864709,35.53534809864709 0 0,0 0.36167773647730733,-0.49332802609343607 l 10.646361009111208 7.947041673849614" fill="#ff8f0d" stroke="none" /><path d="M 87.40145913716171 86.3855275717709 l -9.827004192125345 -7.602305138166143 a34.6743734170314,34.6743734170314 0 0,0 0.36927533917523603,-0.4689421802547223 l 9.69468702946364 7.770334497728261" fill="#ff840c" stroke="none" /><path d="M 88.37987104875165 85.20696739529463 l -12.575559956307053 -11.193094169230537 a39.085381352851385,39.085381352851385 0 0,0 0.4516341116293543,-0.49870566628585705 l 12.381026034977365 11.407903383932949" fill="#ffbc11" stroke="none" /><path d="M 88.89892014791596 84.64364211159388 l -13.228774693074584 -12.616905231089143 a40.53077617308453,40.53077617308453 0 0,0 0.4858592753626448,-0.5007206914972413 l 13.009635424026493 12.842747510728778" fill="#ffce13" stroke="none" /><line stroke="#e1ed5e" stroke-width="0.3" x1="59.21961505331055" x2="56.67626033405003" y1="22.513508569990535" y2="18.20870349054556" /><path d="M 58.710944109458445 21.65254755410153 a91.0,91.0 0 0,1 44.72264048036054,-12.639064922131116" fill="none" id="id60" stroke="none" /><text fill="#e1ed5e" style="font-size:7.125px; font-family:Arial;" text-anchor="middle"><textPath startOffset="23.497391628219546" xlink:href="#id60">December</textPath></text><path d="M 95.02689714627584 80.11031122744654 l -7.755397539654614 -15.466845738340721 a39.552297769131975,39.552297769131975 0 0,0 0.6112312896115598,-0.2999285392640455 l 7.488012169520103 15.598050578223813" fill="#ffc112" stroke="none" /><path d="M 95.37074306575289 79.94158752806558 l -1.3487557648791377 -2.8095521430761816 a25.3665245639909,25.3665245639909 0 0,0 0.39526093052102484,-0.18558030675006743 l 1.3001941104811467 2.8323524909567332" fill="#ff0600" stroke="none" /><path d="M 96.06689224016708 79.62201958605287 l -3.1179964773325395 -7.112695027763447 a30.01610150530039,30.01610150530039 0 0,0 0.47499228847743324,-0.20336690909005067 l 2.995101159767756 7.165312389099784" fill="#ff4606" stroke="none" /><path d="M 96.41898921107973 79.47127003829915 l -4.906281955591129 -11.737514362800285 a34.97166836718762,34.97166836718762 0 0,0 0.5574086433287372,-0.22738098131131576 l 4.703513021865179 11.82022890209182" fill="#ff880c" stroke="none" /></svg>