<?xml version="1.0" encoding="utf-8" ?>
<svg baseProfile="full" height="200mm" version="1.1" viewBox="0,0,200,200" width="200mm" xmlns="http://www.w3.org/2000/svg" xmlns:ev="http://www.w3.org/2001/xml-events" xmlns:xlink="http://www.w3.org/1999/xlink"><defs /><rect fill="#1a1a1a" height="200" width="200" x="0" y="0" /><text alignment-baseline="middle" fill="#e1ed5e" style="dominant-baseline: central; font-size:9.0px; font-family:Arial;" text-anchor="middle" x="100.0" y="100.0">2025</text><line stroke="#e1ed5e" stroke-width="0.3" x1="100.0" x2="100.0" y1="15.0" y2="10.0" /><path d="M 100.0 14.0 a86.0,86.0 0 0,1 42.46469731375804,11.215312516191453" fill="none" id="id85" stroke="none" /><text fill="#e1ed5e" style="font-size:6.75px; font-family:Arial;" text-anchor="middle"><textPath startOffset="22.20632615414155" xlink:href="#id85">January</textPath></text><path d="M 100.0 79.0 l 0.0 -58.75447772876706 a79.75447772876706,79.75447772876706 0 0,0 1.3728422301678527,0.011816486496815005 l -1.0113617508953243 58.7457726188788" fill="#47fcff" stroke="none" /><path d="M 101.08401301168833 79.027996857942 l 2.2032786819345516 -42.62602657176048 a63.682930759809565,63.682930759809565 0 0,0 1.094248488536121,0.06600805709150104 l -2.9366892193102845 42.58178524528867" fill="#33ff4e" stroke="none" /><path d="M 101.80526077348638 79.07773832637324 l 1.3877964015306343 -16.084013949113075 a37.14377538147026,37.14377538147026 0 0,0 0.6365291164188156,0.06044610944344166 l -1.664450645039694 16.057742295154455" fill="#ffb010" stroke="none" /><path d="M 102.16513564639614 79.11191278185805 l 0.9966247402756813 -9.614910055768267 a30.66642417098708,30.66642417098708 0 0,0 0.5245905069767967,0.05894385581561972 l -1.1619819507622031 9.596330246482045" fill="#ff5507" stroke="none" /><path d="M 102.52436894288641 79.15227682838746 l 1.9398445530189314 -16.020377033738118 a37.1373937546619,37.1373937546619 0 0,0 0.6339623182214758,0.08230650374550867 l -2.215321599748253 15.984612206828471" fill="#ffb010" stroke="none" /><path d="M 102.88285421437855 79.19881850522331 l 2.7033677157698706 -19.5060999693912 a40.69254003480887,40.69254003480887 0 0,0 0.6929959324569733,0.10212958634928686 l -3.0387326286554996 19.456675898880945" fill="#ffe015" stroke="none" /><path d="M 103.2404852339499 79.25152402106235 l 2.701279687230891 -17.296001264164005 a38.50567255716298,38.50567255716298 0 0,0 0.653992799958088,0.10791441561962764 l -2.998601693327854 17.246940585604754" fill="#ffc312" stroke="none" /><path d="M 103.59715602781102 79.31037775812273 l 2.82007386545785 -16.220109030416147 a37.46343686977983,37.46343686977983 0 0,0 0.6343895681498655,0.11593063866331604 l -3.0988585547106164 16.16916291040209" fill="#ffb510" stroke="none" /><path d="M 104.307194497241 79.44645832069477 l 3.046287136110069 -14.536606057440892 a35.852366174615305,35.852366174615305 0 0,0 0.602929712898921,0.13177708238116623 l -3.296059573162518 14.482015476963854" fill="#ff9f0e" stroke="none" /><path d="M 104.66035177308747 79.52364482259891 l 3.948808373441179 -17.3500213543986 a38.79371598537659,38.79371598537659 0 0,0 0.6498433513504186,0.15379692566803482 l -4.246875411754121 17.279478516589695" fill="#ffc712" stroke="none" /><path d="M 105.01212808612495 79.60689891045804 l 3.6238498855180126 -14.744542792766037 a36.18334054681241,36.18334054681241 0 0,0 0.6035572652967196,0.15386018568723175 l -3.8771160394997572 14.679979610909937" fill="#ffa30f" stroke="none" /><path d="M 105.36241919743992 79.69619591428918 l 4.415688737342881 -16.719185077752226 a38.29246820697466,38.29246820697466 0 0,0 0.6358411662193337,0.173799409766949 l -4.702827792785926 16.64069912715898" fill="#ffc011" stroke="none" /><path d="M 106.0581310904928 79.89281104454417 l 8.589711678150115 -28.509610176065156 a50.77551039201421,50.77551039201421 0 0,0 0.8346880426382018,0.2593416379008866 l -9.079185093499035 28.357528403281748" fill="#a1ff22" stroke="none" /><path d="M 106.40334571778207 80.00007090966166 l 5.016247995164163 -15.667528917614746 a37.45096369010894,37.45096369010894 0 0,0 0.6122647218280906,0.201854052523143 l -5.285195539234671 15.578861140832368" fill="#ffb510" stroke="none" /><path d="M 106.74666289553966 80.11325718540242 l 4.780654276218844 -14.091654429558647 a35.88050334736125,35.88050334736125 0 0,0 0.5831743569391592,0.20345808220740624 l -5.022510637221277 14.007275494179032" fill="#ff9f0e" stroke="none" /><path d="M 107.76421540070413 80.48803036053334 l 11.074908650010304 -27.831953415314867 a50.954486016594075,50.954486016594075 0 0,0 0.8121565898374756,0.33129906503223594 l -11.552349109436168 27.637193464099052" fill="#9fff22" stroke="none" /><path d="M 108.43124777332544 80.76684994638697 l 14.278726067728558 -32.57227025208659 a56.56451612903226,56.56451612903226 0 0,0 0.8883804228394792,0.398590400060311 l -14.837288609034818 32.321659521509744" fill="#60ff29" stroke="none" /><path d="M 109.73455568895987 81.39251694778311 l 6.939276225541496 -13.264340858191927 a35.969846122678256,35.969846122678256 0 0,0 0.5461506481823992,0.29173476186430963 l -7.166571920252207 13.142927369825863" fill="#ffa00e" stroke="none" /><path d="M 110.05341064243156 81.56283822128135 l 2.955671066922085 -5.420467497420385 a27.173933863140352,27.173933863140352 0 0,0 0.4087424339293205,0.2274647219456234 l -3.048537589923441 5.368787377914582" fill="#ff2203" stroke="none" /><path d="M 110.36928655335952 81.73862282372117 l 11.705015052909857 -20.61373206683694 a44.705132927536766,44.705132927536766 0 0,0 0.6659005550145402,0.38573258237118413 l -12.058112340389727 20.409195327075704" fill="#ebff1a" stroke="none" /><line stroke="#e1ed5e" stroke-width="0.3" x1="143.23703022742887" x2="145.7803849466894" y1="26.81831364943548" y2="22.513508569990506" /><path d="M 143.74570117128098 25.957352633546492 a86.0,86.0 0 0,1 28.547481713284135,27.462654790039103" fill="none" id="id86" stroke="none" /><text fill="#e1ed5e" style="font-size:6.75px; font-family:Arial;" text-anchor="middle"><textPath startOffset="19.985693538727396" xlink:href="#id86">February</textPath></text><path d="M 110.99172775467656 82.1063720568725 l 8.454155214920393 -13.762668741943203 a37.15189745195363,37.15189745195363 0 0,0 0.5420299920146813,0.3394191312736664 l -8.689804359307338 13.615105269346593" fill="#ffb110" stroke="none" /><path d="M 111.2981086023043 82.29822771554956 l 10.587821683000735 -16.58890129473708 a40.67977678119216,40.67977678119216 0 0,0 0.5870149404017259,0.3818108461201537 l -10.87180364918674 16.4041915244574" fill="#ffe015" stroke="none" /><path d="M 111.60114157652 82.49532879139004 l 9.088894513510017 -13.714004700256098 a37.45241405983811,37.45241405983811 0 0,0 0.5343127350223775,0.3607703438077644 l -9.323611942938935 13.555522444149663" fill="#ffb510" stroke="none" /><path d="M 113.06298171725822 83.55741782278167 l 9.449258606485389 -11.893931608711922 a36.190592395458275,36.190592395458275 0 0,0 0.4844310726810044,0.39170957085175345 l -9.652593077730884 11.72951594059604" fill="#ffa30f" stroke="none" /><path d="M 113.34407831869373 83.78471172551755 l 9.460529183998153 -11.496126168023073 a35.88833534389878,35.88833534389878 0 0,0 0.4736276976973938,0.39664957601816153 l -9.657014418654665 11.331575434611091" fill="#ff9f0e" stroke="none" /><path d="M 114.16331599549186 84.49514656593476 l 18.983197043196604 -20.781269581108614 a49.146455112207974,49.146455112207974 0 0,0 0.6196949453877676,0.5759389149429963 l -19.338099872379217 20.451426080090975" fill="#b5ff20" stroke="none" /><path d="M 114.68862486808459 84.99185889309783 l 25.04612555435204 -25.59094468520668 a56.80788816958736,56.80788816958736 0 0,0 0.6929593912926938,0.6899836034447135 l -25.482920745812056 25.156025231111848" fill="#5eff2a" stroke="none" /><path d="M 115.4437574822437 85.77008943001954 l 14.464523165630391 -13.327642014644487 a40.66846389730462,40.66846389730462 0 0,0 0.46992673290752995,0.5189048355862736 l -14.691793539153956 13.076684391788664" fill="#ffe014" stroke="none" /><path d="M 115.9244219780498 86.31012108654704 l 12.526773004170966 -10.768994054527907 a37.519421141325864,37.519421141325864 0 0,0 0.4168039400180188,0.4933643982511252 l -12.710287557676102 10.551770706647675" fill="#ffb610" stroke="none" /><path d="M 116.15771136456269 86.58626213691792 l 11.526502676362757 -9.569021372540684 a35.98086893261997,35.98086893261997 0 0,0 0.3915087051192741,0.47994337996585373 l -11.689509873558439 9.36919382296673" fill="#ffa10e" stroke="none" /><path d="M 116.38621287248628 86.86637796730983 l 3.0843828259653567 -2.4721464657869614 a24.952837659885997,24.952837659885997 0 0,0 0.26574287239213157,0.33746646132679475 l -3.1264797789514525 2.418687610507128" fill="#ff0000" stroke="none" /><path d="M 117.04232023915458 87.72973835380427 l 12.095413003711126 -8.708549082028997 a35.904289410919674,35.904289410919674 0 0,0 0.3567986711889531,0.5046664170724429 l -12.243524294703963 8.499056164624761" fill="#ffa00e" stroke="none" /><path d="M 117.2510076193507 88.02491185347247 l 12.701039069539634 -8.816648033916513 a36.46123138692181,36.46123138692181 0 0,0 0.35345784104612177,0.5186557673283992 l -12.850921376254488 8.596714243317708" fill="#ffa70f" stroke="none" /><path d="M 117.45458315368197 88.32363383020206 l 12.380051234084078 -8.281722349784763 a35.89471697070714,35.89471697070714 0 0,0 0.3391253628506328,0.5165111936753202 l -12.520773232292637 8.067393092131768" fill="#ff9f0e" stroke="none" /><path d="M 117.65298651832404 88.62581576622439 l 24.69577922061489 -15.91200119936358 a50.37810908622102,50.37810908622102 0 0,0 0.4634124013699417,0.7330071302383407 l -24.966019218230787 15.484546421411034" fill="#a6ff21" stroke="none" /><line stroke="#e1ed5e" stroke-width="0.3" x1="172.23445277983987" x2="176.4835382374775" y1="55.19839476539836" y2="52.563006222186495" /><path d="M 173.08426987136738 54.67131705675599 a86.0,86.0 0 0,1 12.851231095245387,41.99856678651699" fill="none" id="id87" stroke="none" /><text fill="#e1ed5e" style="font-size:6.75px; font-family:Arial;" text-anchor="middle"><textPath startOffset="22.20632615414155" xlink:href="#id87">March</textPath></text><path d="M 118.56541770881063 90.18545643968196 l 22.58408105417639 -11.93899597372256 a46.545652113856335,46.545652113856335 0 0,0 0.3683546813682768,0.7115439994632536 l -22.786245168704784 11.548479251998963" fill="#d4ff1c" stroke="none" /><path d="M 118.73160827565052 90.50648371742162 l 13.789318806587698 -6.988675008017083 a36.459200869300965,36.459200869300965 0 0,0 0.27889550263683804,0.5622363148816129 l -13.907574322177943 6.75027910463652" fill="#ffa70f" stroke="none" /><path d="M 118.89224826269711 90.83032412892265 l 14.004912206783578 -6.797523712022521 a36.56739845109722,36.56739845109722 0 0,0 0.2699750239222038,0.5686362525952454 l -14.119845424547538 6.555445043786736" fill="#ffa90f" stroke="none" /><path d="M 119.196687751892 91.48605970444005 l 18.565507347831616 -8.234004905384733 a41.30952731759874,41.30952731759874 0 0,0 0.2826934689307859,0.6524955022843144 l -18.704491526605082 7.913210258513816" fill="#ffe815" stroke="none" /><path d="M 119.61058180528143 92.48833698450437 l 13.91899296661729 -5.3315493501638365 a35.905159632757176,35.905159632757176 0 0,0 0.21610702031891318,0.5790593728039627 l -14.008704575437829 5.091166840330541" fill="#ffa00e" stroke="none" /><path d="M 119.7369772167798 92.82701384747503 l 13.993982676654674 -5.085816478167653 a35.88949563968212,35.88949563968212 0 0,0 0.20601753003111678,0.5824393000169206 l -14.079453287495602 4.844179551724118" fill="#ff9f0e" stroke="none" /><path d="M 119.85752413597 93.16781622104841 l 14.428628117711499 -4.964316714579073 a36.25875977272937,36.25875977272937 0 0,0 0.19797750095335376,0.591927528798573 l -14.511942912436623 4.715216082858186" fill="#ffa40f" stroke="none" /><path d="M 120.08093135843002 93.85539295169968 l 27.750362975801355 -8.491392798990796 a50.02044791100715,50.02044791100715 0 0,0 0.2448479556706098,0.8255055860824289 l -27.892416828583666 8.012457826161837" fill="#aaff21" stroke="none" /><path d="M 120.28053869075195 94.5502522615342 l 29.457140215510762 -7.915666625973507 a51.50214562632951,51.50214562632951 0 0,0 0.22269446378193175,0.8581326117407778 l -29.589031011162998 7.407437588683879" fill="#99ff23" stroke="none" /><path d="M 120.37134235888165 94.90015583598534 l 22.89531927974739 -5.73170674544011 a44.601866602819705,44.601866602819705 0 0,0 0.18003692071721453,0.7463692676089504 l -22.990589000725425 5.336752246171753" fill="#ecff1a" stroke="none" /><path d="M 120.45610955862082 95.25157060432595 l 30.69490166211275 -7.125136523737279 a52.511022809941714,52.511022809941714 0 0,0 0.19680534473364045,0.8822397707908207 l -30.813001393848428 6.595718583396494" fill="#8dff24" stroke="none" /><path d="M 120.67395015179393 96.31383870115 l 33.56906312046167 -5.985357437971815 a55.098482406784974,55.098482406784974 0 0,0 0.1584426088384041,0.9351372462860925 l -33.6671175908203 5.4066344033698845" fill="#71ff27" stroke="none" /><path d="M 120.78858239683441 97.02765380044208 l 14.963288243026406 -2.13944712982554 a36.11546324348715,36.11546324348715 0 0,0 0.08269409374411993,0.6161670499037738 l -14.997898335828364 1.881561737857102" fill="#ffa20f" stroke="none" /><path d="M 120.83666639777658 97.38593545837742 l 28.81027510637478 -3.614393835954597 a50.03611190408222,50.03611190408222 0 0,0 0.09985694223680992,0.8555132994780522 l -28.86822240161518 3.1179367981516917" fill="#aaff21" stroke="none" /><path d="M 120.91429891909075 98.10471618934814 l 15.218444366931324 -1.37911728925432 a36.280805392612784,36.280805392612784 0 0,0 0.05100997650768338,0.6224509169262723 l -15.239928827258503 1.1169524551202787" fill="#ffa50f" stroke="none" /><path d="M 120.98425023603335 99.18683210126433 l 9.674826706762703 -0.3749125375116142 a30.682088164062144,30.682088164062144 0 0,0 0.01590837860329261,0.5279216377625597 l -9.679846779821641 0.2083207523240553" fill="#ff5607" stroke="none" /><line stroke="#e1ed5e" stroke-width="0.3" x1="184.98032266829074" x2="189.97916517819016" y1="98.17113171792111" y2="98.06355123074" /><path d="M 185.9800911702706 98.14961562048488 a86.0,86.0 0 0,1 -9.607161424134198,41.387399972396054" fill="none" id="id88" stroke="none" /><text fill="#e1ed5e" style="font-size:6.75px; font-family:Arial;" text-anchor="middle"><textPath startOffset="21.466115282336823" xlink:href="#id88">April</textPath></text><path d="M 120.99513854157772 99.54816195383933 l 27.699708949843725 -0.5961276390880165 a48.70612286243128,48.70612286243128 0 0,0 0.010824339462982792,0.8383570202486312 l -27.705866296424425 0.11923436077892244" fill="#baff1f" stroke="none" /><path d="M 120.99824983174949 100.27111621757518 l 31.425442404495218 0.40574558111273445 a52.42806166143306,52.42806166143306 0 0,0 -0.0194181989118662,0.90228740108694 l -31.413802142898344 -0.9466227979897893" fill="#8eff24" stroke="none" /><path d="M 120.9904718944345 100.63252640178507 l 43.781292386152096 1.319304467178533 a64.80116582100135,64.80116582100135 0 0,0 -0.043194195726168054,1.1146502625982855 l -43.752096057574725 -2.0727319767908248" fill="#34ff5c" stroke="none" /><path d="M 120.95626037817324 101.35467743843564 l 30.586533615416695 1.9772080638926572 a51.65037341265091,51.65037341265091 0 0,0 -0.06498955294448734,0.8867308154873161 l -30.547967503807868 -2.503412015876744" fill="#97ff23" stroke="none" /><path d="M 120.92983693683757 101.71520430193887 l 14.618294110222411 1.1979721113226043 a35.66729899717293,35.66729899717293 0 0,0 -0.055412382356620604,0.61147102186596 l -14.595507131588716 -1.4494245217371349" fill="#ff9c0e" stroke="none" /><path d="M 120.5718875245553 104.21870165774334 l 20.504446787502797 4.204871504877529 a41.93115578352196,41.93115578352196 0 0,0 -0.15108386713120556,0.705813528827752 l -20.42902888164715 -4.55719885312145" fill="#fff016" stroke="none" /><path d="M 120.49622156327973 104.57218783832717 l 15.105896297141905 3.369742814478619 a36.47718545394271,36.47718545394271 0 0,0 -0.14198211883102607,0.6116552519067735 l -15.045653612380326 -3.629266723733957" fill="#ffa70f" stroke="none" /><path d="M 120.41448212921028 104.9243191809786 l 26.809834267881012 6.466986538702413 a48.578780400209965,48.578780400209965 0 0,0 -0.20307939449920429,0.8112012324943363 l -26.694543559086746 -6.927515610594145" fill="#bbff1f" stroke="none" /><path d="M 120.32669344350535 105.2749913415812 l 14.471910162145761 3.7556133275503973 a35.95128139014486,35.95128139014486 0 0,0 -0.16060280310416924,0.5976627760598452 l -14.405119282699815 -4.00416703678579" fill="#ffa00e" stroke="none" /><path d="M 120.02730092923936 106.31721596034902 l 60.08190278771807 18.951647881047055 a84.0,84.0 0 0,0 -0.4468309959350121,1.375204400088819 l -59.746779540766816 -19.98305118111367" fill="#4dd2ff" stroke="none" /><path d="M 119.79798401119884 107.00284435728193 l 10.933348384809282 3.8672895684454525 a32.597156354461156,32.597156354461156 0 0,0 -0.19166466523786954,0.52737884203637 l -10.865159458566186 -4.0549162074879535" fill="#ff710a" stroke="none" /><path d="M 119.54520255179757 107.68017299344265 l 14.122859079596518 5.5494948494835565 a36.174058180545714,36.174058180545714 0 0,0 -0.2327152710425101,0.5775802178870391 l -14.025241194296614 -5.791774435213409" fill="#ffa30f" stroke="none" /><path d="M 119.26925614724726 108.34839909993367 l 37.30198865611921 16.16107472664266 a61.65241313896844,61.65241313896844 0 0,0 -0.43027194254031587,0.9701496419529619 l -37.01827562884762 -16.80077270508831" fill="#30ff34" stroke="none" /><path d="M 118.97047184881838 109.00673069616215 l 24.900611336446385 11.822220462647289 a48.56456677686407,48.56456677686407 0 0,0 -0.36503612903072546,0.7520825459332411 l -24.693421950800943 -12.249091964545805" fill="#bcff1f" stroke="none" /><path d="M 118.81262510543309 109.33194174019688 l 13.49996804838739 6.696615417360714 a36.06963156004531,36.06963156004531 0 0,0 -0.28069272237437026,0.5538333705701041 l -13.38269665622675 -6.928002999633513" fill="#ffa20e" stroke="none" /><line stroke="#e1ed5e" stroke-width="0.3" x1="174.80103733775053" x2="179.2010983576182" y1="140.37084112569926" y2="142.7455964860345" /><path d="M 175.68104954172406 140.8457921977663 a86.0,86.0 0 0,1 -30.038265399797805,32.042727171017184" fill="none" id="id89" stroke="none" /><text fill="#e1ed5e" style="font-size:6.75px; font-family:Arial;" text-anchor="middle"><textPath startOffset="22.206326154141568" xlink:href="#id89">May</textPath></text><line stroke="#e1ed5e" stroke-width="0.3" x1="143.8653032363475" x2="146.44561519142675" y1="172.8068346515853" y2="177.08958963109032" /><path d="M 144.38136562736335 173.6633856474863 a86.0,86.0 0 0,1 -40.68145358897372,12.25698825130547" fill="none" id="id90" stroke="none" /><text fill="#e1ed5e" style="font-size:6.75px; font-family:Arial;" text-anchor="middle"><textPath startOffset="21.466115282336833" xlink:href="#id90">June</textPath></text><line stroke="#e1ed5e" stroke-width="0.3" x1="102.19456741930631" x2="102.32365962044197" y1="184.97166512339345" y2="189.96999836594603" /><path d="M 102.22038585953345 185.97133177190398 a86.0,86.0 0 0,1 -42.740103519485714,-10.115201625700543" fill="none" id="id91" stroke="none" /><text fill="#e1ed5e" style="font-size:6.75px; font-family:Arial;" text-anchor="middle"><textPath startOffset="22.20632615414155" xlink:href="#id91">July</textPath></text><line stroke="#e1ed5e" stroke-width="0.3" x1="58.666819895761336" x2="56.23545636021788" y1="174.27360380694188" y2="178.64263932499728" /><path d="M 58.180547188652646 175.14741091055294 a86.0,86.0 0 0,1 -31.652253787137756,-30.449443065178592" fill="none" id="id92" stroke="none" /><text fill="#e1ed5e" style="font-size:6.75px; font-family:Arial;" text-anchor="middle"><textPath startOffset="22.20632615414155" xlink:href="#id92">August</textPath></text><line stroke="#e1ed5e" stroke-width="0.3" x1="26.63291911575756" x2="22.317208475507996" y1="142.92168965132927" y2="145.44649492493687" /><path d="M 25.769776987707644 143.4266507060508 a86.0,86.0 0 0,1 -11.730757126820373,-40.83630448921669" fill="none" id="id93" stroke="none" /><text fill="#e1ed5e" style="font-size:6.75px; font-family:Arial;" text-anchor="middle"><textPath startOffset="21.46611528233685" xlink:href="#id93">September</textPath></text><line stroke="#e1ed5e" stroke-width="0.3" x1="15.007084014347285" x2="10.007500721073583" y1="101.09737516637583" y2="101.16192664675087" /><path d="M 14.007167355692545 101.11028546245083 a86.0,86.0 0 0,1 10.666146001902534,-42.60595125391555" fill="none" id="id94" stroke="none" /><text fill="#e1ed5e" style="font-size:6.75px; font-family:Arial;" text-anchor="middle"><textPath startOffset="22.20632615414155" xlink:href="#id94">October</textPath></text><line stroke="#e1ed5e" stroke-width="0.3" x1="26.266209847984243" x2="21.928928074336255" y1="57.711370442889674" y2="55.22380399835377" /><path d="M 25.398753493254645 57.213857153982495 a86.0,86.0 0 0,1 29.58750427330803,-30.492523968695096" fill="none" id="id95" stroke="none" /><text fill="#e1ed5e" style="font-size:6.75px; font-family:Arial;" text-anchor="middle"><textPath startOffset="21.46611528233685" xlink:href="#id95">November</textPath></text><line stroke="#e1ed5e" stroke-width="0.3" x1="56.762969772571076" x2="54.21961505331055" y1="26.818313649435495" y2="22.513508569990535" /><path d="M 56.25429882871897 25.957352633546506 a86.0,86.0 0 0,1 42.265352541879196,-11.944610805530505" fill="none" id="id96" stroke="none" /><text fill="#e1ed5e" style="font-size:6.75px; font-family:Arial;" text-anchor="middle"><textPath startOffset="22.20632615414155" xlink:href="#id96">December</textPath></text></svg>