<?xml version="1.0" encoding="utf-8" ?>
<svg baseProfile="full" height="200mm" version="1.1" viewBox="0,0,200,200" width="200mm" xmlns="http://www.w3.org/2000/svg" xmlns:ev="http://www.w3.org/2001/xml-events" xmlns:xlink="http://www.w3.org/1999/xlink"><defs /><rect fill="#1a1a1a" height="200" width="200" x="0" y="0" /><text alignment-baseline="middle" fill="#e1ed5e" style="dominant-baseline: central; font-size:9.5px; font-family:Arial;" text-anchor="middle" x="105.0" y="100.0">2025</text><line stroke="#e1ed5e" stroke-width="0.3" x1="105.0" x2="105.0" y1="10.0" y2="5.0" /><path d="M 105.0 9.0 a91.0,91.0 0 0,1 44.93357506455793,11.867365569458398" fill="none" id="id85" stroke="none" /><text fill="#e1ed5e" style="font-size:7.125px; font-family:Arial;" text-anchor="middle"><textPath startOffset="23.497391628219546" xlink:href="#id85">January</textPath></text><path d="M 105.0 77.75 l 0.0 -62.25176806976509 a84.50176806976509,84.50176806976509 0 0,0 1.4545590295826056,0.012519848788292088 l -1.071561855115284 62.24254479857397" fill="#47fcff" stroke="none" /><path d="M 106.1485375957174 77.77966333758141 l 2.334426222525894 -45.16329005817479 a67.47358140027441,67.47358140027441 0 0,0 1.1593823271394614,0.06993710810885229 l -3.1114921490311342 45.116415319412994" fill="#33ff4e" stroke="none" /><path d="M 106.91271677190818 77.83236560770497 l 1.4704033301931716 -17.04139573179837 a39.35471439227206,39.35471439227206 0 0,0 0.6744177543008878,0.06404409214840842 l -1.763525088196818 17.01356028891364" fill="#ffb010" stroke="none" /><path d="M 107.29401276820542 77.86857425696866 l 1.0559476414825668 -10.187226130516374 a32.49180656211726,32.49180656211726 0 0,0 0.5558161323920822,0.06245241866178756 l -1.2311475430694767 10.167540380201212" fill="#ff5507" stroke="none" /><path d="M 107.6746289990106 77.91134092531529 l 2.0553114906986303 -16.97397090479396 a39.34795290672511,39.34795290672511 0 0,0 0.6716981704965637,0.08720570039702705 l -2.3471859806856497 16.936077219139694" fill="#ffb010" stroke="none" /><path d="M 108.05445267952014 77.96065294005804 l 2.8642824607561725 -20.667177348521633 a43.11471503688083,43.11471503688083 0 0,0 0.734245690341317,0.10820872839388727 l -3.219609570837375 20.614811369052433" fill="#ffe015" stroke="none" /><path d="M 108.43337125978026 78.01649568898273 l 2.862070144804159 -18.325525148935675 a40.797676876041734,40.797676876041734 0 0,0 0.6929209428127362,0.11433789273984359 l -3.1770898893592747 18.273544191890753" fill="#ffc312" stroke="none" /><path d="M 108.81127245803788 78.07885262467765 l 2.9879354050684355 -17.185591710798054 a39.69340335012386,39.69340335012386 0 0,0 0.6721508519683097,0.12283127191708483 l -3.2833144210624376 17.131613083640307" fill="#ffb510" stroke="none" /><path d="M 109.56357512207677 78.22303322073614 l 3.227613751354716 -15.401880227526657 a37.98643558977098,37.98643558977098 0 0,0 0.6388183862857615,0.1396209563324261 l -3.4922535953745726 15.344040207735512" fill="#ff9f0e" stroke="none" /><path d="M 109.93775366434268 78.30481415727742 l 4.183856490907916 -18.382760720731845 a41.10286574641091,41.10286574641091 0 0,0 0.6885245032165149,0.16295150457684643 l -4.499665614834723 18.308018904481937" fill="#ffc712" stroke="none" /><path d="M 110.3104690436324 78.39302384560435 l 3.839555235846466 -15.622194149478302 a38.33711081745601,38.33711081745601 0 0,0 0.639483292992953,0.16301853007337652 l -4.107896756136648 15.55378792108315" fill="#ffa30f" stroke="none" /><path d="M 110.68161081633517 78.48763614728257 l 4.678527352660911 -17.71437466571367 a40.57178179072316,40.57178179072316 0 0,0 0.6736888546847704,0.18414461272926738 l -4.982758018546995 17.63121693234702" fill="#ffc011" stroke="none" /><path d="M 111.41873413159355 78.69595455910037 l 9.101004039944767 -30.20661078178333 a53.797862201062685,53.797862201062685 0 0,0 0.8843718546999997,0.27477864015689185 l -9.619612777635885 30.04547652252472" fill="#a1ff22" stroke="none" /><path d="M 111.78449724860243 78.80959893999866 l 5.314834185352504 -16.60011992461562 a39.68018771928209,39.68018771928209 0 0,0 0.6487090505083339,0.2138691746971396 l -5.599790511808162 16.506174303977147" fill="#ffb510" stroke="none" /><path d="M 112.14824997265511 78.92952249405732 l 5.065217030755681 -14.930443383699043 a38.01624759422799,38.01624759422799 0 0,0 0.6178871162807759,0.2155686823387995 l -5.321469603722544 14.841041892642071" fill="#ff9f0e" stroke="none" /><path d="M 113.22637107931747 79.32660359627937 l 11.734129402987106 -29.488617309083605 a53.98749113662943,53.98749113662943 0 0,0 0.8604992439944682,0.3510192474746309 l -12.239988937378794 29.282264503628753" fill="#9fff22" stroke="none" /><path d="M 113.9331077598329 79.62201958605286 l 15.128650238426687 -34.51109586232984 a59.93145161290323,59.93145161290323 0 0,0 0.9412602099132577,0.42231601911152 l -15.720460550048795 34.245567826361516" fill="#60ff29" stroke="none" /><path d="M 115.31399352758844 80.28492867086543 l 7.352328381823729 -14.053884956893828 a38.110908391885296,38.110908391885296 0 0,0 0.5786596153361134,0.30909992626099475 l -7.593153582171982 13.925244475172642" fill="#ffa00e" stroke="none" /><path d="M 115.65182794257629 80.46538811540523 l 3.1316038685245906 -5.743114372266837 a28.791429926422516,28.791429926422516 0 0,0 0.43307234071082773,0.24100428872810098 l -3.2299981607522175 5.688358055171403" fill="#ff2203" stroke="none" /><path d="M 115.98650599105949 80.6516360870379 l 12.40174213939259 -21.84073992795819 a47.366152744652055,47.366152744652055 0 0,0 0.7055374928130248,0.4086928551313737 l -12.775857122555784 21.624028382258786" fill="#ebff1a" stroke="none" /><line stroke="#e1ed5e" stroke-width="0.3" x1="150.7803849466894" x2="153.32373966594992" y1="22.513508569990506" y2="18.208703490545545" /><path d="M 151.2890558905415 21.652547554101517 a91.0,91.0 0 0,1 30.207219022196004,29.05932076620417" fill="none" id="id86" stroke="none" /><text fill="#e1ed5e" style="font-size:7.125px; font-family:Arial;" text-anchor="middle"><textPath startOffset="21.14765246539759" xlink:href="#id86">February</textPath></text><path d="M 116.64599726388349 81.04127515549587 l 8.957378739618031 -14.581875214677911 a39.363319919331815,39.363319919331815 0 0,0 0.5742936820155551,0.3596226509923369 l -9.207054618789913 14.425528202045788" fill="#ffb110" stroke="none" /><path d="M 116.97061506672716 81.24455079385608 l 11.218049164131731 -17.57633589561429 a43.10119206578693,43.10119206578693 0 0,0 0.6219563059018286,0.40453768219873426 l -11.51893481878119 17.38063149615129" fill="#ffe015" stroke="none" /><path d="M 117.29168571797953 81.45338407659182 l 9.629900139314184 -14.53031450384277 a39.681724420542764,39.681724420542764 0 0,0 0.5661170644879953,0.38224476903441706 l -9.87858884430435 14.362398780110954" fill="#ffb510" stroke="none" /><path d="M 118.8405401528093 82.57869269318536 l 10.01171447591904 -12.601903728278105 a38.34479432375936,38.34479432375936 0 0,0 0.5132662555786832,0.41502561673578636 l -10.227152189500577 12.427701413250563" fill="#ffa30f" stroke="none" /><path d="M 119.13836869480645 82.81951599489359 l 10.0236559211409 -12.18041939231016 a38.02454578103561,38.02454578103561 0 0,0 0.5018198225603339,0.4202596698287664 l -10.231836705479347 12.006073972385561" fill="#ff9f0e" stroke="none" /><path d="M 120.00637051903304 83.57223862343088 l 20.11314924814878 -22.018249913317455 a52.07183934507749,52.07183934507749 0 0,0 0.6565815492798965,0.6102209932134127 l -20.48917724573512 21.668772870572578" fill="#b5ff20" stroke="none" /><path d="M 120.56294777689915 84.09851716054412 l 26.536966361158708 -27.114215202183267 a60.18931008444375,60.18931008444375 0 0,0 0.734206974107735,0.7310540560307084 l -26.999761266396106 26.653407685344696" fill="#5eff2a" stroke="none" /><path d="M 121.36302876094868 84.92307094371117 l 15.325506687394103 -14.120954039325705 a43.0892057959537,43.0892057959537 0 0,0 0.49789856224726387,0.5497920281806946 l -15.56630505934169 13.855058462728465" fill="#ffe014" stroke="none" /><path d="M 121.87230423864801 85.49524734169864 l 13.272414254419239 -11.410005605392664 a39.75272001878574,39.75272001878574 0 0,0 0.4416136983524247,0.5227313267184541 l -13.46685229325206 11.179852296329084" fill="#ffb610" stroke="none" /><path d="M 122.11947989816761 85.78782535935352 l 12.212604026146254 -10.138605978049059 a38.1225873214664,38.1225873214664 0 0,0 0.4148127947097071,0.5085114382971546 l -12.385314032698824 9.926883931476656" fill="#ffa10e" stroke="none" /><path d="M 122.36158268632475 86.08461475107828 l 3.267977041796627 -2.619298041131423 a26.43812561583159,26.43812561583159 0 0,0 0.2815609005107108,0.35755375069148493 l -3.3125797657938 2.5626571111325522" fill="#ff0000" stroke="none" /><path d="M 123.05674406291378 86.9993656367688 l 12.81537806345584 -9.22691509881644 a38.04144949490299,38.04144949490299 0 0,0 0.37803668733115275,0.5347060847553264 l -12.97230550272206 9.004952364900046" fill="#ffa00e" stroke="none" /><path d="M 123.27785331097871 87.31210898760773 l 13.457053299869376 -9.34144851212583 a38.63154277900049,38.63154277900049 0 0,0 0.3744969982512481,0.5495281344312801 l -13.615857172460114 9.108423424467572" fill="#ffa70f" stroke="none" /><path d="M 123.49354643663922 87.62861203438075 l 13.116959045636701 -8.774682013462426 a38.03130726658256,38.03130726658256 0 0,0 0.3593113963536466,0.5472559075845654 l -13.266057353262434 8.547595061901514" fill="#ff9f0e" stroke="none" /><path d="M 123.70375952536713 87.94878099040442 l 26.165766078984827 -16.859144127897128 a53.376806055638944,53.376806055638944 0 0,0 0.4909964728800573,0.776638507038242 l -26.45209179074453 16.40624561316169" fill="#a6ff21" stroke="none" /><line stroke="#e1ed5e" stroke-width="0.3" x1="181.4835382374775" x2="185.73262369511514" y1="52.563006222186495" y2="49.927617678974634" /><path d="M 182.33335532900503 52.03592851354413 a91.0,91.0 0 0,1 13.598395693806166,44.44034392526798" fill="none" id="id87" stroke="none" /><text fill="#e1ed5e" style="font-size:7.125px; font-family:Arial;" text-anchor="middle"><textPath startOffset="23.497391628219546" xlink:href="#id87">March</textPath></text><path d="M 124.67050209623984 89.60125741823445 l 23.92837159311546 -12.64965049596795 a49.31622664444302,49.31622664444302 0 0,0 0.39028055525924565,0.7538978089551139 l -24.142569285889593 12.235888731284614" fill="#d4ff1c" stroke="none" /><path d="M 124.84658495872495 89.94139346250623 l 14.610111592694112 -7.404667568018102 a38.62939139723555,38.62939139723555 0 0,0 0.2954964254128403,0.5957027621959946 l -14.735406127069492 7.152081432293458" fill="#ffa70f" stroke="none" /><path d="M 125.01678684976241 90.28451008897758 l 14.83853793337784 -7.202138218690529 a38.74402931128158,38.74402931128158 0 0,0 0.286044965822335,0.6024836485830577 l -14.96031241410394 6.945650105916899" fill="#ffa90f" stroke="none" /><path d="M 125.33934773712367 90.97927754399007 l 19.670597070916827 -8.724124244990966 a43.768427753170094,43.768427753170094 0 0,0 0.29952046112904696,0.6913345202774284 l -19.81785411747443 8.384234678663447" fill="#ffe815" stroke="none" /><path d="M 125.77787834131009 92.04121418596296 l 14.747504452725464 -5.64890347814978 a38.04237151565939,38.04237151565939 0 0,0 0.22897053343313423,0.6135271926137225 l -14.84255603826151 5.394212485588311" fill="#ffa00e" stroke="none" /><path d="M 125.91179728920717 92.40005038601521 l 14.826957835979357 -5.388543649487156 a38.02577514204415,38.02577514204415 0 0,0 0.2182804782472547,0.6171083059703087 l -14.917515983179863 5.132523572660077" fill="#ff9f0e" stroke="none" /><path d="M 126.03951962025393 92.76113861515844 l 15.287475029480035 -5.25981175711354 a38.41701928301087,38.41701928301087 0 0,0 0.20976187601010096,0.6271613102746784 l -15.375749038176892 4.995883706837838" fill="#ffa40f" stroke="none" /><path d="M 126.2762248916699 93.489642532158 l 29.402170295789535 -8.996832846549774 a52.99785552475758,52.99785552475758 0 0,0 0.2594222387462413,0.8746428233492402 l -29.552679735046983 8.489389839623852" fill="#aaff21" stroke="none" /><path d="M 126.48771361282053 94.22586251519695 l 31.21054141881497 -8.386837258471928 a54.56774953265864,54.56774953265864 0 0,0 0.23595008662609432,0.909211933868205 l -31.35028285706555 7.848356492772203" fill="#99ff23" stroke="none" /><path d="M 126.58392226119604 94.59659368336543 l 24.25813590354188 -6.072879766002021 a47.25673961489231,47.25673961489231 0 0,0 0.1907534040932392,0.7907960097285308 l -24.3590764412448 5.654416070348644" fill="#ecff1a" stroke="none" /><path d="M 126.67373512758635 94.96892599744058 l 32.52197914200041 -7.549251793007356 a55.6366789295811,55.6366789295811 0 0,0 0.20851994858683334,0.9347540428617029 l -32.647108619672736 6.9883208800272385" fill="#8dff24" stroke="none" /><path d="M 126.90454242273405 96.09442433812322 l 35.56722163953677 -6.3416287140415655 a58.37815397861741,58.37815397861741 0 0,0 0.16787371650735675,0.9908001776126456 l -35.67111268551198 5.728457879760949" fill="#71ff27" stroke="none" /><path d="M 127.0259980156936 96.85072843142078 l 15.85396016225417 -2.2667951732675364 a38.26519319845662,38.26519319845662 0 0,0 0.08761636122888897,0.6528436600170937 l -15.890630379627671 1.9935594603485962" fill="#ffa20f" stroke="none" /><path d="M 127.07694415954899 97.23033637851894 l 30.525172434135186 -3.8295363261899893 a53.014451898372826,53.014451898372826 0 0,0 0.10580080784614385,0.9064367101612696 l -30.586568973139894 3.3035282742321495" fill="#aaff21" stroke="none" /><path d="M 127.15919766427473 97.99190167680933 l 16.12430415067723 -1.461207604090886 a38.44037714217306,38.44037714217306 0 0,0 0.05404628463314071,0.6595015667433123 l -16.147067447928645 1.1834377203060091" fill="#ffa50f" stroke="none" /><path d="M 127.23331275008296 99.13842925014912 l 10.250709248831908 -0.3972287599825434 a32.508402935732505,32.508402935732505 0 0,0 0.016855305901107644,0.5593455447722359 l -10.256028135763401 0.220720797105249" fill="#ff5607" stroke="none" /><line stroke="#e1ed5e" stroke-width="0.3" x1="194.97916517819016" x2="199.97800768808963" y1="98.06355123074" y2="97.95597074355888" /><path d="M 195.9789336801701 98.04203513330377 a91.0,91.0 0 0,1 -10.165717320886186,43.793644156837686" fill="none" id="id88" stroke="none" /><text fill="#e1ed5e" style="font-size:7.125px; font-family:Arial;" text-anchor="middle"><textPath startOffset="22.714145240612222" xlink:href="#id88">April</textPath></text><path d="M 127.24484916905257 99.52126683204405 l 29.34850114923919 -0.6316114271289699 a51.60529684233791,51.60529684233791 0 0,0 0.011468645383398436,0.8882592238348593 l -29.35502500454493 0.12633164415862022" fill="#baff1f" stroke="none" /><path d="M 127.24814565506792 100.28725408766894 l 33.29600445238184 0.4298971037980162 a55.54877961747074,55.54877961747074 0 0,0 -0.02057404408519157,0.9559949844849721 l -33.283671318070866 -1.002969393108229" fill="#8eff24" stroke="none" /><path d="M 127.2399047452937 100.67017678284371 l 46.387321694851636 1.3978344949867791 a68.65837807225144,68.65837807225144 0 0,0 -0.045765278805106634,1.1809984925148502 l -46.35638748957323 -2.196108880171231" fill="#34ff5c" stroke="none" /><path d="M 127.20365682925498 101.43531300024729 l 32.40716061633435 2.094899020076744 a54.724800401499174,54.724800401499174 0 0,0 -0.06885797871499254,0.9395124116472755 l -32.36629890284405 -2.652424635869407" fill="#97ff23" stroke="none" /><path d="M 127.17566056403028 101.81729979610189 l 15.488430664402319 1.2692799750918071 a37.790352508909415,37.790352508909415 0 0,0 -0.0587107384492766,0.6478681065008386 l -15.46428731799281 -1.535699790888155" fill="#ff9c0e" stroke="none" /><path d="M 126.79640463911215 104.46981485165664 l 21.724949572473204 4.455161475405954 a44.427057913493506,44.427057913493506 0 0,0 -0.160076954460444,0.7478262388770229 l -21.645042505554716 -4.828460689616775" fill="#fff016" stroke="none" /><path d="M 126.7162347515702 104.84434187632283 l 16.0050567910194 3.5703227439118694 a38.64844649286787,38.64844649286787 0 0,0 -0.15043343542811094,0.64806330261551 l -15.941228232164868 -3.845294504908597" fill="#ffa70f" stroke="none" /><path d="M 126.62962987499661 105.21743341794162 l 28.405657736207257 6.851926213625173 a51.47037447165103,51.47037447165103 0 0,0 -0.2151674536955855,0.8594870201428086 l -28.283504485222856 -7.339867730272366" fill="#bbff1f" stroke="none" /><path d="M 126.53661567228542 105.58897892143723 l 15.333333386083007 3.979161739904587 a38.091238615748715,38.091238615748715 0 0,0 -0.1701624937651317,0.6332379413015026 l -15.262566859050992 -4.242510312784944" fill="#ffa00e" stroke="none" /><path d="M 126.21940217502741 106.69324071989361 l 63.65820652508224 20.07972215968081 a89.0,89.0 0 0,0 -0.47342807902638184,1.4570618048560107 l -63.30313546581246 -21.172518513322817" fill="#4dd2ff" stroke="none" /><path d="M 125.97643544043686 107.41968033092965 l 11.584142931524118 4.097485376091015 a34.53746328032194,34.53746328032194 0 0,0 -0.2030732762639332,0.5587704397766301 l -11.511895140623695 -4.296280267457474" fill="#ff710a" stroke="none" /><path d="M 125.70860746559504 108.13732614781424 l 14.963505453382021 5.879821923857576 a38.32727592938772,38.32727592938772 0 0,0 -0.24656737050932617,0.6119599927612676 l -14.86007697967141 -6.13652291349992" fill="#ffa30f" stroke="none" /><path d="M 125.41623567982151 108.84532761778686 l 39.522345123745346 17.12304346037139 a65.32219963533561,65.32219963533561 0 0,0 -0.45588336769152515,1.027896644450162 l -39.22174441627902 -17.800818699438803" fill="#30ff34" stroke="none" /><path d="M 125.09966660172424 109.54284561855276 l 26.382790582663436 12.525924061614392 a51.45531479929646,51.45531479929646 0 0,0 -0.38676447004445913,0.7968493641435531 l -26.16326849549148 -12.978204581483059" fill="#bcff1f" stroke="none" /><path d="M 124.93242421885172 109.88741446282765 l 14.303537575077119 7.095223477917902 a38.21663343861944,38.21663343861944 0 0,0 -0.2974006225157019,0.5867996426278485 l -14.179285742906918 -7.340384130564082" fill="#ffa20e" stroke="none" /><line stroke="#e1ed5e" stroke-width="0.3" x1="184.2010983576182" x2="188.60115937748589" y1="142.7455964860345" y2="145.12035184636974" /><path d="M 185.08111056159174 143.22054755810154 a91.0,91.0 0 0,1 -31.78467617885582,33.90567642514608" fill="none" id="id89" stroke="none" /><text fill="#e1ed5e" style="font-size:7.125px; font-family:Arial;" text-anchor="middle"><textPath startOffset="23.497391628219564" xlink:href="#id89">May</textPath></text><path d="M 124.58027153841117 110.56766135349186 l 22.262364667193562 12.01521287737638 a47.54779083366331,47.54779083366331 0 0,0 -0.39492649523124557,0.7169063029996386 l -22.052244119091075 -12.396642705821312" fill="#e9ff1a" stroke="none" /><path d="M 124.39546559128242 110.90313782804657 l 14.798033141194423 8.318696664593743 a39.22593882662787,39.22593882662787 0 0,0 -0.335938418905614,0.5857369496955366 l -14.652647964460694 -8.572187974782018" fill="#ffaf10" stroke="none" /><path d="M 124.20491234911053 111.23538346755383 l 7.117152027491916 4.163722841955767 a30.495631624506185,30.495631624506185 0 0,0 -0.2689701992628802,0.4508095251015431 l -7.044425900405915 -4.2856160141509205" fill="#ff3a05" stroke="none" /><path d="M 123.80679152610566 111.88978942175177 l 27.935081266309695 17.66076011822109 a55.29952667298997,55.29952667298997 0 0,0 -0.515589446672501,0.8002062709756729 l -27.626941428678176 -18.13899998911354" fill="#91ff24" stroke="none" /><path d="M 123.16797164467164 112.84473846827593 l 23.35839047741677 16.514359587867364 a50.8566159881392,50.8566159881392 0 0,0 -0.511521189909,0.7104581938760359 l -23.07066212653838 -16.913989101804717" fill="#c2ff1e" stroke="none" /><path d="M 122.7150687191632 113.46249754968689 l 44.88490059332629 34.11010557367671 a78.62511510870868,78.62511510870868 0 0,0 -0.8281590217852861,1.0705071726170663 l -44.29110101520281 -34.87767157338996" fill="#40ffc8" stroke="none" /><path d="M 121.49218974138125 114.93553405587757 l 14.277826269295495 12.930178698702406 a41.51255030250569,41.51255030250569 0 0,0 -0.48422134808843076,0.525526638472267 l -14.053139084163979 -13.174032261904658" fill="#ffcc13" stroke="none" /><path d="M 120.96831132929016 115.4943710195304 l 11.586594819108212 11.242704082987842 a38.39458344460509,38.39458344460509 0 0,0 -0.46431735299261856,0.4703510271798693 l -11.391353470521038 -11.44048253831389" fill="#ffa40f" stroke="none" /><path d="M 120.69923532488471 115.76694359138423 l 11.125490166602155 11.17347260890264 a38.01778429548866,38.01778429548866 0 0,0 -0.46770935158601323,0.4577520402964841 l -10.931508841665597 -11.363324163009946" fill="#ff9f0e" stroke="none" /><path d="M 120.1472083608636 116.29799309340213 l 13.049826406979605 14.041265927296203 a41.419118865856916,41.419118865856916 0 0,0 -0.5264181659991775,0.480870513386002 l -12.806195623092918 -14.263816871946561" fill="#ffcb12" stroke="none" /><path d="M 119.86442097875113 116.55631266213777 l 12.807632883508202 14.26541772359402 a41.421270247621855,41.421270247621855 0 0,0 -0.5346453358543211,0.47176234674415063 l -12.560179578502852 -14.48376649435881" fill="#ffcb12" stroke="none" /><path d="M 119.57722894790214 116.80972623811714 l 13.473731387596882 15.537228429414531 a42.815672971554335,42.815672971554335 0 0,0 -0.5609557037172191,0.4780586203819094 l -13.204287262268268 -15.766854558485038" fill="#ffdc14" stroke="none" /><path d="M 118.98997262475733 117.3015365201632 l 26.548457208664946 32.83273772365042 a64.47332585894118,64.47332585894118 0 0,0 -0.8689853239983788,0.6903744969986763 l -25.97936216023985 -33.2848612485831" fill="#33ff2f" stroke="none" /><path d="M 118.69008234918404 117.5397874922292 l 11.85251786232295 15.185492625278906 a41.51347232326209,41.51347232326209 0 0,0 -0.5670963138106835,0.4348252712026633 l -11.58936849094178 -15.387264341989141" fill="#ffcc13" stroke="none" /><line stroke="#e1ed5e" stroke-width="0.3" x1="151.44561519142675" x2="154.02592714650604" y1="177.08958963109032" y2="181.37234461059535" /><path d="M 151.9616775824426 177.94614062699134 a91.0,91.0 0 0,1 -43.04665437903033,12.969603847311603" fill="none" id="id90" stroke="none" /><text fill="#e1ed5e" style="font-size:7.125px; font-family:Arial;" text-anchor="middle"><textPath startOffset="22.714145240612233" xlink:href="#id90">June</textPath></text><line stroke="#e1ed5e" stroke-width="0.3" x1="107.32365962044197" x2="107.45275182157765" y1="189.96999836594603" y2="194.96833160849857" /><path d="M 107.34947806066911 190.96966501445652 a91.0,91.0 0 0,1 -45.22499325899069,-10.70329474347383" fill="none" id="id91" stroke="none" /><text fill="#e1ed5e" style="font-size:7.125px; font-family:Arial;" text-anchor="middle"><textPath startOffset="23.497391628219546" xlink:href="#id91">July</textPath></text><line stroke="#e1ed5e" stroke-width="0.3" x1="61.23545636021788" x2="58.804092824674434" y1="178.64263932499728" y2="183.01167484305267" /><path d="M 60.74918365310919 179.51644642860833 a91.0,91.0 0 0,1 -33.49250110034344,-32.21975952245642" fill="none" id="id92" stroke="none" /><text fill="#e1ed5e" style="font-size:7.125px; font-family:Arial;" text-anchor="middle"><textPath startOffset="23.497391628219546" xlink:href="#id92">August</textPath></text><line stroke="#e1ed5e" stroke-width="0.3" x1="27.317208475507996" x2="23.001497835258448" y1="145.44649492493687" y2="147.9713001985445" /><path d="M 26.454066347458095 145.95145597965842 a91.0,91.0 0 0,1 -12.412777890007606,-43.210508238589746" fill="none" id="id93" stroke="none" /><text fill="#e1ed5e" style="font-size:7.125px; font-family:Arial;" text-anchor="middle"><textPath startOffset="22.71414524061225" xlink:href="#id93">September</textPath></text><line stroke="#e1ed5e" stroke-width="0.3" x1="15.007500721073583" x2="10.007917427799896" y1="101.16192664675087" y2="101.22647812712593" /><path d="M 14.007584062418857 101.17483694282589 a91.0,91.0 0 0,1 11.286270769455006,-45.08304144309669" fill="none" id="id94" stroke="none" /><text fill="#e1ed5e" style="font-size:7.125px; font-family:Arial;" text-anchor="middle"><textPath startOffset="23.497391628219546" xlink:href="#id94">October</textPath></text><line stroke="#e1ed5e" stroke-width="0.3" x1="26.928928074336255" x2="22.591646300688268" y1="55.22380399835377" y2="52.73623755381787" /><path d="M 26.061471719606658 54.726290709446594 a91.0,91.0 0 0,1 31.307708010128266,-32.26534512966574" fill="none" id="id95" stroke="none" /><text fill="#e1ed5e" style="font-size:7.125px; font-family:Arial;" text-anchor="middle"><textPath startOffset="22.71414524061225" xlink:href="#id95">November</textPath></text><line stroke="#e1ed5e" stroke-width="0.3" x1="59.21961505331055" x2="56.67626033405003" y1="22.513508569990535" y2="18.20870349054556" /><path d="M 58.710944109458445 21.65254755410153 a91.0,91.0 0 0,1 44.72264048036054,-12.639064922131116" fill="none" id="id96" stroke="none" /><text fill="#e1ed5e" style="font-size:7.125px; font-family:Arial;" text-anchor="middle"><textPath startOffset="23.497391628219546" xlink:href="#id96">December</textPath></text></svg>