<?xml version="1.0" encoding="utf-8" ?>
<svg baseProfile="full" height="200mm" version="1.1" viewBox="0,0,200,200" width="200mm" xmlns="http://www.w3.org/2000/svg" xmlns:ev="http://www.w3.org/2001/xml-events" xmlns:xlink="http://www.w3.org/1999/xlink"><defs /><rect fill="#1a1a1a" height="200" width="200" x="0" y="0" /><text alignment-baseline="middle" fill="#e1ed5e" style="dominant-baseline: central; font-size:9.0px; font-family:Arial;" text-anchor="middle" x="100.0" y="100.0">2024</text><line stroke="#e1ed5e" stroke-width="0.3" x1="100.0" x2="100.0" y1="15.0" y2="10.0" /><path d="M 100.0 14.0 a86.0,86.0 0 0,1 42.35913384403234,11.155469271406648" fill="none" id="id13" stroke="none" /><text fill="#e1ed5e" style="font-size:6.75px; font-family:Arial;" text-anchor="middle"><textPath startOffset="22.145653131862478" xlink:href="#id13">January</textPath></text><path d="M 100.0 79.0 l 0.0 -38.439545005417976 a59.439545005417976,59.439545005417976 0 0,0 1.0203588300327744,0.008758553368704666 l -0.6598659051839197 38.4338808502437" fill="#44ff2d" stroke="none" /><path d="M 100.36049292484886 79.00309439819443 l 0.278417936882714 -16.216449021924202 a37.21883890505866,37.21883890505866 0 0,0 0.6387225717680499,0.0164512277438044 l -0.5567538227215053 16.209280076830353" fill="#ffac0f" stroke="none" /><path d="M 100.72087961077811 79.0123766808444 l 0.5491696752854553 -15.988475899260473 a36.997904516326074,36.997904516326074 0 0,0 0.6345567675490775,0.027250597928281647 l -0.8235522034353692 15.976692732906361" fill="#ffa90f" stroke="none" /><path d="M 101.08105385017728 79.02784411241856 l 0.6390899274482628 -12.398173858249676 a33.4146345477727,33.4146345477727 0 0,0 0.5725926173069404,0.03444574998428594 l -0.8518268968876656 12.385376130440697" fill="#ff760a" stroke="none" /><path d="M 101.44090949804482 79.04949213459386 l 1.3448457451973899 -19.553761982100273 a40.59995453390149,40.59995453390149 0 0,0 0.6948991652476204,0.05378959023963977 l -1.6803139052202436 19.527794624865578" fill="#ffd914" stroke="none" /><path d="M 101.80034050326958 79.07731436759882 l 3.4717550403211 -40.34705610934415 a61.496148208818084,61.496148208818084 0 0,0 1.0509997353468936,0.09953076765765564 l -4.163854339053007 40.28151358618131" fill="#2fff30" stroke="none" /><path d="M 102.15924093988457 79.11130261209362 l 3.412697617356581 -33.01475369821473 a54.19066836900539,54.19066836900539 0 0,0 0.9245033783272353,0.10359253187107959 l -3.9789368972846133 32.951305405836685" fill="#7eff26" stroke="none" /><path d="M 102.51750503828377 79.15144685158666 l 1.8464268744266585 -15.29106327127189 a36.40213972695499,36.40213972695499 0 0,0 0.619741537286509,0.08023794965956485 l -2.108646233603959 15.257113725411928" fill="#ffa00e" stroke="none" /><path d="M 102.87502721639298 79.19773525538626 l 2.4169055304509617 -17.487524438199877 a38.653751536706366,38.653751536706366 0 0,0 0.6565153689153164,0.09648515088218201 l -2.71674600497396 17.443458214018815" fill="#ffbf11" stroke="none" /><path d="M 103.23170211078529 79.25015418208739 l 3.797109408641399 -24.380166265977003 a45.67408654880411,45.67408654880411 0 0,0 0.7736809577576554,0.1273089071788892 l -4.215067869452125 24.311391360302444" fill="#e3ff1b" stroke="none" /><path d="M 103.58742460773223 79.30868818359171 l 2.8497018949600132 -16.436323251320132 a37.6815323910013,37.6815323910013 0 0,0 0.6363967012218608,0.11597267845213313 l -3.1314333297329275 16.384982398936632" fill="#ffb210" stroke="none" /><path d="M 103.94208987418118 79.37332000966035 l 3.1040059968782816 -16.24147100375343 a37.53542359888067,37.53542359888067 0 0,0 0.6318525790137416,0.12638821186628604 l -3.38235506142298 16.185793395224284" fill="#ffb010" stroke="none" /><path d="M 104.29559338865022 79.4440306129975 l 0.9200718946104833 -4.402877085486303 a25.49798387293157,25.49798387293157 0 0,0 0.42768324859455753,0.09321157345023386 l -0.995517559824175 4.3864340539023505" fill="#ff0000" stroke="none" /><path d="M 104.9986988182912 79.60360301121754 l 4.091505363957705 -16.694738114576428 a38.18879567792885,38.18879567792885 0 0,0 0.6353791937126322,0.16151090641074203 l -4.377489850895731 16.62204197633042" fill="#ffb911" stroke="none" /><path d="M 105.3480935250658 79.69241777938227 l 3.9847141520766622 -15.13060867198657 a36.646509695729435,36.646509695729435 0 0,0 0.6069684601429434,0.16543195288081228 l -4.243864013154298 15.059976224961616" fill="#ffa40f" stroke="none" /><path d="M 105.69591212413111 79.78721728523813 l 2.999101205304076 -10.642752149488103 a32.057250171497884,32.057250171497884 0 0,0 0.5283950560686708,0.15380809990953162 l -3.1813562737543513 10.589700355276054" fill="#ff6209" stroke="none" /><path d="M 106.38641147887787 79.99465700312896 l 4.339608833902121 -13.593762863791756 a35.2696388751883,35.2696388751883 0 0,0 0.5751928269584403,0.18907730700248285 l -4.572324398508304 13.517264635387251" fill="#ff900d" stroke="none" /><path d="M 108.73861861582097 80.90454125486305 l 4.746965268188957 -10.372975801826357 a32.407554788063365,32.407554788063365 0 0,0 0.5038777330538207,0.2358402213474401 l -4.924331715114282 10.289959348908383" fill="#ff6809" stroke="none" /><path d="M 109.06512990194946 81.05736502329252 l 7.018403115795254 -14.66576318043779 a37.25861593003812,37.25861593003812 0 0,0 0.5745628997916152,0.28104750600215594 l -7.269126264848937 14.543121924338411" fill="#ffac0f" stroke="none" /><path d="M 110.34350942703115 81.72400993836675 l 8.694287560737033 -15.361973049278598 a38.651652958166515,38.651652958166515 0 0,0 0.5746351039612161,0.3317657319578168 l -8.956715132558646 15.21046042004461" fill="#ffbf11" stroke="none" /><line stroke="#e1ed5e" stroke-width="0.3" x1="143.13028292997686" x2="145.6673583964461" y1="26.7553504044142" y2="22.446841604673864" /><path d="M 143.63769802327073 25.89364864446614 a86.0,86.0 0 0,1 29.32050498858742,28.57503671076993" fill="none" id="id14" stroke="none" /><text fill="#e1ed5e" style="font-size:6.75px; font-family:Arial;" text-anchor="middle"><textPath startOffset="20.669276256404974" xlink:href="#id14">February</textPath></text><path d="M 110.65571695917076 81.90426304109057 l 9.142032578932925 -15.52516995825167 a39.016871590452965,39.016871590452965 0 0,0 0.5742303309625645,0.3448088147655162 l -9.407195666452925 15.365947142950233" fill="#ffc412" stroke="none" /><path d="M 111.27062007382361 82.28071324371311 l 13.248449889593156 -20.828763735477207 a45.685194413360236,45.685194413360236 0 0,0 0.6581156049130178,0.42658258397745247 l -13.604051126763181 20.59826730979586" fill="#e3ff1b" stroke="none" /><path d="M 111.5731344415666 82.4767994020092 l 34.719403324699805 -52.56960179397238 a84.0,84.0 0 0,0 1.196414847611996,0.8050013037715247 l -35.6167144604088 51.965850816143735" fill="#4dd2ff" stroke="none" /><path d="M 117.01052211995028 87.68569379921539 l 9.234263086565349 -6.684894348610415 a32.39997487734016,32.39997487734016 0 0,0 0.3222793123754738,0.4533262130001183 l -9.347657497470784 6.525390908900793" fill="#ff6709" stroke="none" /><path d="M 117.21940702142032 87.97951657250589 l 14.474476453833399 -10.104308709267432 a38.65240842221693,38.65240842221693 0 0,0 0.37513131110731335,0.5473277938406295 l -14.645797501756038 9.854346180356755" fill="#ffbf11" stroke="none" /><path d="M 117.42321728460499 88.27688183743584 l 12.947527858444046 -8.71167457297035 a36.60550388518496,36.60550388518496 0 0,0 0.3463151915704155,0.5243653396286381 l -13.095167488935186 8.488129355002654" fill="#ffa30f" stroke="none" /><path d="M 117.62189284568427 88.57770195909679 l 13.395561717516319 -8.682841264708838 a36.96348352196097,36.96348352196097 0 0,0 0.3405609579703518,0.5354183916009889 l -13.542640367112561 8.451609198429177" fill="#ffa80f" stroke="none" /><line stroke="#e1ed5e" stroke-width="0.3" x1="172.87174338648825" x2="177.1583165268699" y1="56.24261187166439" y2="53.66864786411523" /><path d="M 173.72905801456457 55.72781907015455 a86.0,86.0 0 0,1 12.242430191666344,42.057860355516425" fill="none" id="id15" stroke="none" /><text fill="#e1ed5e" style="font-size:6.75px; font-family:Arial;" text-anchor="middle"><textPath startOffset="22.145653131862474" xlink:href="#id15">March</textPath></text><line stroke="#e1ed5e" stroke-width="0.3" x1="184.99686870605535" x2="189.99668451229388" y1="99.2704041080226" y2="99.22748670261217" /><path d="M 185.99683186730306 99.26182062694052 a86.0,86.0 0 0,1 -10.086455211305974,41.156179273409016" fill="none" id="id16" stroke="none" /><text fill="#e1ed5e" style="font-size:6.75px; font-family:Arial;" text-anchor="middle"><textPath startOffset="21.40746469413373" xlink:href="#id16">April</textPath></text><line stroke="#e1ed5e" stroke-width="0.3" x1="174.33088141563837" x2="178.70328620479359" y1="141.23008692659167" y2="143.65538615756765" /><path d="M 175.20536237346943 141.71514677278685 a86.0,86.0 0 0,1 -30.301960400862466,31.631185727798858" fill="none" id="id17" stroke="none" /><text fill="#e1ed5e" style="font-size:6.75px; font-family:Arial;" text-anchor="middle"><textPath startOffset="22.145653131862474" xlink:href="#id17">May</textPath></text><line stroke="#e1ed5e" stroke-width="0.3" x1="143.1302829299769" x2="145.66735839644613" y1="173.24464959558577" y2="177.55315839532614" /><path d="M 143.63769802327073 174.10635135553383 a86.0,86.0 0 0,1 -40.68552437913181,11.842963189579606" fill="none" id="id18" stroke="none" /><text fill="#e1ed5e" style="font-size:6.75px; font-family:Arial;" text-anchor="middle"><textPath startOffset="21.407464694133747" xlink:href="#id18">June</textPath></text><line stroke="#e1ed5e" stroke-width="0.3" x1="101.45913802915013" x2="101.54496967792366" y1="184.9874750549273" y2="189.98673829345242" /><path d="M 101.47630435890484 185.9873277026323 a86.0,86.0 0 0,1 -42.54439059252881,-10.42667462771756" fill="none" id="id19" stroke="none" /><text fill="#e1ed5e" style="font-size:6.75px; font-family:Arial;" text-anchor="middle"><textPath startOffset="22.145653131862474" xlink:href="#id19">July</textPath></text><line stroke="#e1ed5e" stroke-width="0.3" x1="58.13341422392154" x2="55.67067388415222" y1="173.97424548756322" y2="178.32567169271397" /><path d="M 57.64086615596768 174.84453072859336 a86.0,86.0 0 0,1 -31.369924170532247,-30.572349798747897" fill="none" id="id20" stroke="none" /><text fill="#e1ed5e" style="font-size:6.75px; font-family:Arial;" text-anchor="middle"><textPath startOffset="22.145653131862474" xlink:href="#id20">August</textPath></text><line stroke="#e1ed5e" stroke-width="0.3" x1="26.387840678322732" x2="22.057713659400548" y1="142.50000000000003" y2="145.00000000000006" /><path d="M 25.521815274538298 143.00000000000003 a86.0,86.0 0 0,1 -11.493303480769221,-40.785679425670985" fill="none" id="id21" stroke="none" /><text fill="#e1ed5e" style="font-size:6.75px; font-family:Arial;" text-anchor="middle"><textPath startOffset="21.40746469413373" xlink:href="#id21">September</textPath></text><line stroke="#e1ed5e" stroke-width="0.3" x1="15.003131293944662" x2="10.003315487706104" y1="100.72959589197737" y2="100.7725132973878" /><path d="M 14.003168132696942 100.73817937305945 a86.0,86.0 0 0,1 10.791469493833604,-42.45332614584628" fill="none" id="id22" stroke="none" /><text fill="#e1ed5e" style="font-size:6.75px; font-family:Arial;" text-anchor="middle"><textPath startOffset="22.145653131862435" xlink:href="#id22">October</textPath></text><line stroke="#e1ed5e" stroke-width="0.3" x1="26.387840678322718" x2="22.05771365940052" y1="57.49999999999999" y2="54.99999999999999" /><path d="M 25.521815274538284 56.99999999999999 a86.0,86.0 0 0,1 29.574782752854787,-30.34633250058573" fill="none" id="id23" stroke="none" /><text fill="#e1ed5e" style="font-size:6.75px; font-family:Arial;" text-anchor="middle"><textPath startOffset="21.40746469413373" xlink:href="#id23">November</textPath></text><line stroke="#e1ed5e" stroke-width="0.3" x1="56.869717070023135" x2="54.33264160355391" y1="26.7553504044142" y2="22.446841604673864" /><path d="M 56.362301976729285 25.89364864446614 a86.0,86.0 0 0,1 42.16139366436587,-11.88097634709845" fill="none" id="id24" stroke="none" /><text fill="#e1ed5e" style="font-size:6.75px; font-family:Arial;" text-anchor="middle"><textPath startOffset="22.145653131862474" xlink:href="#id24">December</textPath></text></svg>