<?xml version="1.0" encoding="utf-8" ?>
<svg baseProfile="full" height="200mm" version="1.1" viewBox="0,0,200,200" width="200mm" xmlns="http://www.w3.org/2000/svg" xmlns:ev="http://www.w3.org/2001/xml-events" xmlns:xlink="http://www.w3.org/1999/xlink"><defs /><rect fill="#FAF9F5" height="200" width="200" x="0" y="0" /><text alignment-baseline="middle" fill="#5A5A5A" style="dominant-baseline: central; font-size:9.0px; font-family:Arial;" text-anchor="middle" x="100.0" y="100.0">2025</text><line stroke="#5A5A5A" stroke-width="0.3" x1="100.0" x2="100.0" y1="15.0" y2="10.0" /><path d="M 100.0 14.0 a86.0,86.0 0 0,1 42.46469731375804,11.215312516191453" fill="none" id="id85" stroke="none" /><text fill="#5A5A5A" style="font-size:6.75px; font-family:Arial;" text-anchor="middle"><textPath startOffset="22.20632615414155" xlink:href="#id85">January</textPath></text><path d="M 100.0 79.0 l 0.0 -57.38760293039634 a78.38760293039634,78.38760293039634 0 0,0 1.3493137274430629,0.011613969245649326 l -0.9878332481705344 57.37910033775925" fill="#46fff6" stroke="none" /><path d="M 101.08401301168833 79.027996857942 l 2.152021208112276 -41.634366978689286 a62.68994733741382,62.68994733741382 0 0,0 1.0771862931230967,0.06497881886935286 l -2.868369550074984 41.591154890439626" fill="#32ff46" stroke="none" /><path d="M 101.80526077348638 79.07773832637324 l 1.355510454997694 -15.70983253905653 a36.768203670640716,36.768203670640716 0 0,0 0.6300929820519926,0.059834920933293914 l -1.6257285641399306 15.684172073608057" fill="#ffb711" stroke="none" /><path d="M 102.16513564639614 79.11191278185805 l 0.9734390820318225 -9.391227048925773 a30.441542730449406,30.441542730449406 0 0,0 0.5207436069194714,0.058511611771359676 l -1.1349493924610192 9.373079483683812" fill="#ff6008" stroke="none" /><path d="M 102.52436894288641 79.15227682838746 l 1.8947156584261022 -15.647676084392566 a36.761970507152846,36.761970507152846 0 0,0 0.6275535703734877,0.08147446434254502 l -2.163783957307436 15.612743296885885" fill="#ffb711" stroke="none" /><path d="M 102.88285421437855 79.19881850522331 l 2.6404760802000147 -19.052306531114986 a40.234409221124395,40.234409221124395 0 0,0 0.68519394245721,0.10097977583228708 l -2.96803900308588 19.00403227112173" fill="#ffe415" stroke="none" /><path d="M 103.2404852339499 79.25152402106235 l 2.6384366279346834 -16.893623961965666 a38.09841742407548,38.09841742407548 0 0,0 0.647075847023691,0.10677305911871239 l -2.9288416810972495 16.84570463990733" fill="#ffc912" stroke="none" /><path d="M 103.59715602781102 79.31037775812273 l 2.7544671569098997 -15.84276147976902 a37.08042849626055,37.08042849626055 0 0,0 0.6279038707078703,0.1147454189113262 l -3.0267661487206707 15.793000579506955" fill="#ffbb11" stroke="none" /><path d="M 104.307194497241 79.44645832069477 l 2.9754177611124413 -14.198423824497127 a35.506838041185645,35.506838041185645 0 0,0 0.5971189617403336,0.13050707724169486 l -3.2193794470063026 14.145103249159561" fill="#ffa60f" stroke="none" /><path d="M 104.66035177308747 79.52364482259891 l 3.8569425811152027 -16.946387319048977 a38.379759757869024,38.379759757869024 0 0,0 0.6429090658517751,0.15215580432828485 l -4.148075333929501 16.877485602579824" fill="#ffcc13" stroke="none" /><path d="M 105.01212808612495 79.60689891045804 l 3.5395439862389875 -14.40152308199661 a35.8301125657158,35.8301125657158 0 0,0 0.5976652356754875,0.15235817614526762 l -3.7869181105995 14.338461909682474" fill="#ffab0f" stroke="none" /><path d="M 105.36241919743992 79.69619591428918 l 4.312961355774001 -16.33022693165869 a37.89017309845789,37.89017309845789 0 0,0 0.6291611112910113,0.1719734984145016 l -4.593420356288723 16.253566892417894" fill="#ffc612" stroke="none" /><path d="M 106.0581310904928 79.89281104454417 l 8.389879071819495 -27.846357447635974 a50.08280753196407,50.08280753196407 0 0,0 0.8233008445594195,0.255803580027769 l -8.867965289089632 27.697813732725685" fill="#a2ff22" stroke="none" /><path d="M 106.40334571778207 80.00007090966166 l 4.899549094382166 -15.303036690671735 a37.068245494897894,37.068245494897894 0 0,0 0.6060078775111223,0.19979126932437324 l -5.162239794135705 15.216431697088126" fill="#ffbb11" stroke="none" /><path d="M 106.74666289553966 80.11325718540242 l 4.669436270332507 -13.763823631776196 a35.53432062565491,35.53432062565491 0 0,0 0.5775477668057911,0.20149507539086747 l -4.905666041201571 13.681407703213122" fill="#ffa70f" stroke="none" /><path d="M 107.76421540070413 80.48803036053334 l 10.817259971762498 -27.184465816353615 a50.25761943523761,50.25761943523761 0 0,0 0.8010493286220087,0.3267681342957269 l -11.283593169972894 26.994236795874308" fill="#a0ff22" stroke="none" /><path d="M 108.43124777332544 80.76684994638697 l 13.946543201515091 -31.8145030647272 a55.737136792304334,55.737136792304334 0 0,0 0.8753859228364331,0.39276014668952763 l -14.492111242818304 31.569722587521145" fill="#64ff29" stroke="none" /><path d="M 109.73455568895987 81.39251694778311 l 6.77783964813862 -12.955756832992018 a35.62158491448513,35.62158491448513 0 0,0 0.5408628000236176,0.28891017650766726 l -6.99984749469055 12.837167929982597" fill="#ffa80f" stroke="none" /><path d="M 110.05341064243156 81.56283822128135 l 2.8869098005501908 -5.29436476101594 a27.03030234890425,27.03030234890425 0 0,0 0.4065819703389733,0.22626242629667945 l -2.977615859961199 5.243886937159081" fill="#ff2f04" stroke="none" /><path d="M 110.36928655335952 81.73862282372117 l 11.432707465320856 -20.1341704750788 a44.153652426931224,44.153652426931224 0 0,0 0.6576860358444893,0.3809742026573661 l -11.777590233630674 19.934392115031386" fill="#e9ff1a" stroke="none" /><line stroke="#5A5A5A" stroke-width="0.3" x1="143.23703022742887" x2="145.7803849466894" y1="26.81831364943548" y2="22.513508569990506" /><path d="M 143.74570117128098 25.957352633546492 a86.0,86.0 0 0,1 28.547481713284135,27.462654790039103" fill="none" id="id86" stroke="none" /><text fill="#5A5A5A" style="font-size:6.75px; font-family:Arial;" text-anchor="middle"><textPath startOffset="19.985693538727396" xlink:href="#id86">February</textPath></text><path d="M 110.99172775467656 82.1063720568725 l 8.257476218672057 -13.44249152670985 a36.776136787807104,36.776136787807104 0 0,0 0.5365478076915207,0.33598618795343976 l -8.48764317873584 13.298360997433466" fill="#ffb711" stroke="none" /><path d="M 111.2981086023043 82.29822771554956 l 10.341504684065843 -16.202974094139503 a40.22194289414865,40.22194289414865 0 0,0 0.5804083325689858,0.3775137246109869 l -10.618880042419109 16.02256144536899" fill="#ffe415" stroke="none" /><path d="M 111.60114157652 82.49532879139004 l 8.877448827397075 -13.394959614091718 a37.069662122963315,37.069662122963315 0 0,0 0.5288522262845445,0.3570833839327938 l -9.10670574808816 13.240164317860254" fill="#ffbb11" stroke="none" /><path d="M 113.06298171725822 83.55741782278167 l 9.229429344924808 -11.617229032194368 a35.837195706042934,35.837195706042934 0 0,0 0.47970066275942286,0.3878845750064606 l -9.428033406248723 11.456638359923778" fill="#ffab0f" stroke="none" /><path d="M 113.34407831869373 83.78471172551755 l 9.240437721683508 -11.22867820923938 a35.54197041720821,35.54197041720821 0 0,0 0.4690566296548224,0.39282143798938746 l -9.432351888297447 11.067955613856173" fill="#ffa70f" stroke="none" /><path d="M 114.16331599549186 84.49514656593476 l 18.54156851318677 -20.29781036631148 a48.4916508888779,48.4916508888779 0 0,0 0.6114384217689275,0.568265376067735 l -18.888214818750548 19.975640404169106" fill="#b5ff20" stroke="none" /><path d="M 114.68862486808459 84.99185889309783 l 24.463447958695177 -24.995592318733653 a55.97484698168277,55.97484698168277 0 0,0 0.6827977089437774,0.6798655585891755 l -24.89008146780628 24.57079090949436" fill="#61ff29" stroke="none" /><path d="M 115.4437574822437 85.77008943001954 l 14.128017882121258 -13.01758533988989 a40.21089319523833,40.21089319523833 0 0,0 0.4646394738254266,0.5130665120507604 l -14.35000099656272 12.772466040569581" fill="#ffe415" stroke="none" /><path d="M 115.9244219780498 86.31012108654704 l 12.235347890950557 -10.518462228768332 a37.13511033958598,37.13511033958598 0 0,0 0.41253462424810583,0.48831087499106174 l -12.41459312868578 10.306292404148165" fill="#ffbc11" stroke="none" /><path d="M 116.15771136456269 86.58626213691792 l 11.258348032994038 -9.34640592832591 a35.63235128778237,35.63235128778237 0 0,0 0.3877164761962565,0.4752945557044293 l -11.417563001266702 9.151227203013379" fill="#ffa80f" stroke="none" /><path d="M 116.38621287248628 86.86637796730983 l 3.0126271859475517 -2.4146340032038585 a24.860878129511285,24.860878129511285 0 0,0 0.2647635212626649,0.33622278484703644 l -3.0537447878041806 2.362418824403784" fill="#ff0f01" stroke="none" /><path d="M 117.04232023915458 87.72973835380427 l 11.814023127573 -8.505951820837248 a35.55755332592789,35.55755332592789 0 0,0 0.3533529833224582,0.49979273594538204 l -11.95868873069934 8.301332584560072" fill="#ffa70f" stroke="none" /><path d="M 117.2510076193507 88.02491185347247 l 12.40555979905034 -8.611535939153315 a36.10153850305137,36.10153850305137 0 0,0 0.349970951949499,0.5135391878386208 l -12.551955216668574 8.396718728044288" fill="#ffae10" stroke="none" /><path d="M 117.45458315368197 88.32363383020206 l 12.092039482664452 -8.089054862903474 a35.54820358069608,35.54820358069608 0 0,0 0.33585158082816974,0.5115249990538345 l -12.229487698850546 7.8797117998719655" fill="#ffa70f" stroke="none" /><path d="M 117.65298651832404 88.62581576622439 l 24.121252145442572 -15.541821525033743 a49.69465144203742,49.69465144203742 0 0,0 0.457125489179893,0.7230627449589119 l -24.385205230868422 15.124311132360624" fill="#a7ff21" stroke="none" /><line stroke="#5A5A5A" stroke-width="0.3" x1="172.23445277983987" x2="176.4835382374775" y1="55.19839476539836" y2="52.563006222186495" /><path d="M 173.08426987136738 54.67131705675599 a86.0,86.0 0 0,1 12.851231095245387,41.99856678651699" fill="none" id="id87" stroke="none" /><text fill="#5A5A5A" style="font-size:6.75px; font-family:Arial;" text-anchor="middle"><textPath startOffset="22.20632615414155" xlink:href="#id87">March</textPath></text><path d="M 118.56541770881063 90.18545643968196 l 22.058680907147238 -11.661245011665404 a45.95135344195648,45.95135344195648 0 0,0 0.3636514988370755,0.7024589478059058 l -22.25614183914443 11.279813341599153" fill="#d3ff1c" stroke="none" /><path d="M 118.73160827565052 90.50648371742162 l 13.46852159942955 -6.826089208402619 a36.09955522375977,36.09955522375977 0 0,0 0.27614438493011895,0.5566902294603452 l -13.584025997313079 6.593239390443324" fill="#ffae10" stroke="none" /><path d="M 118.89224826269711 90.83032412892265 l 13.679099395763146 -6.639384890736705 a36.205235677440534,36.205235677440534 0 0,0 0.26730119675310804,0.563004490666186 l -13.79135878635801 6.402937984429978" fill="#ffb010" stroke="none" /><path d="M 119.196687751892 91.48605970444005 l 18.13359602645342 -8.042447525761892 a40.8370428001565,40.8370428001565 0 0,0 0.27946011585402647,0.6450324775888299 l -18.26934685215013 7.729115903586459" fill="#ffec16" stroke="none" /><path d="M 119.61058180528143 92.48833698450437 l 13.595178996342593 -5.207515221622165 a35.55840330276715,35.55840330276715 0 0,0 0.21401995322278194,0.5734670706108083 l -13.682803538067 4.972725013982024" fill="#ffa70f" stroke="none" /><path d="M 119.7369772167798 92.82701384747503 l 13.66842413220028 -4.967499123612356 a35.54310371966055,35.54310371966055 0 0,0 0.2040291262791656,0.5768178148488258 l -13.751906339289256 4.731483682336916" fill="#ffa70f" stroke="none" /><path d="M 119.85752413597 93.16781622104841 l 14.092957903090449 -4.848825952502802 a35.90377722511794,35.90377722511794 0 0,0 0.19603925049750054,0.5861324066407464 l -14.17433444735972 4.605520442939741" fill="#ffac0f" stroke="none" /><path d="M 120.08093135843002 93.85539295169968 l 27.104773511584387 -8.293847500850493 a49.345310961103436,49.345310961103436 0 0,0 0.24154318914241482,0.8143635562367999 l -27.243522597838503 7.826054557867164" fill="#abff21" stroke="none" /><path d="M 120.28053869075195 94.5502522615342 l 28.771843976838884 -7.731515125669216 a50.792538192742356,50.792538192742356 0 0,0 0.21962613245327392,0.8463090794803373 l -28.900666441162464 7.235109620640029" fill="#9aff22" stroke="none" /><path d="M 120.37134235888165 94.90015583598534 l 22.3626784303366 -5.598363282867594 a44.05278850867291,44.05278850867291 0 0,0 0.1778205486944074,0.7371809746920223 l -22.455731779291828 5.212597076516166" fill="#eaff1a" stroke="none" /><path d="M 120.45610955862082 95.25157060432595 l 29.980809917240226 -6.9593760587356694 a51.77794467505251,51.77794467505251 0 0,0 0.19405785121069483,0.8699232960567965 l -30.09616215545296 6.442274593128909" fill="#8fff24" stroke="none" /><path d="M 120.67395015179393 96.31383870115 l 32.78810636349591 -5.84611299980368 a54.30520914377201,54.30520914377201 0 0,0 0.156161451902255,0.9216737289200502 l -32.88387967691839 5.2808534825677915" fill="#73ff27" stroke="none" /><path d="M 120.78858239683441 97.02765380044208 l 14.615179598531801 -2.0896746447784427 a35.763814372253876,35.763814372253876 0 0,0 0.08188891828432508,0.6101675574944144 l -14.648984515873963 1.8377887452193638" fill="#ffaa0f" stroke="none" /><path d="M 120.83666639777658 97.38593545837742 l 28.140027654617587 -3.5303079239231816 a49.36061054421003,49.36061054421003 0 0,0 0.09850884587786521,0.8439636331431862 l -28.19662685349904 3.045400552455143" fill="#abff21" stroke="none" /><path d="M 120.91429891909075 98.10471618934814 l 14.864399724213303 -1.3470332551593984 a35.92530997171241,35.92530997171241 0 0,0 0.05051015813616483,0.6163518668002356 l -14.885384366168964 1.090967471151394" fill="#ffac0f" stroke="none" /><path d="M 120.98425023603335 99.18683210126433 l 9.449749788112753 -0.3661905044185187 a30.456842313556006,30.456842313556006 0 0,0 0.015791590715535042,0.5240460163360592 l -9.454653073283934 0.2034743406574605" fill="#ff6108" stroke="none" /><line stroke="#5A5A5A" stroke-width="0.3" x1="184.98032266829074" x2="189.97916517819016" y1="98.17113171792111" y2="98.06355123074" /><path d="M 185.9800911702706 98.14961562048488 a86.0,86.0 0 0,1 -9.607161424134198,41.387399972396054" fill="none" id="id88" stroke="none" /><text fill="#5A5A5A" style="font-size:6.75px; font-family:Arial;" text-anchor="middle"><textPath startOffset="21.466115282336823" xlink:href="#id88">April</textPath></text><path d="M 120.99513854157772 99.54816195383933 l 27.05529791004978 -0.5822592178547751 a48.06156260821464,48.06156260821464 0 0,0 0.010681093838286007,0.8272624887536482 l -27.061312011005786 0.11646047104066419" fill="#baff1f" stroke="none" /><path d="M 120.99824983174949 100.27111621757518 l 30.69435522763952 0.39630624251570795 a51.696913549710146,51.696913549710146 0 0,0 -0.019147397760392107,0.889704335670631 l -30.68298576719412 -0.9246003939764539" fill="#90ff24" stroke="none" /><path d="M 120.9904718944345 100.63252640178507 l 42.76275648019118 1.2886119293963225 a63.78216757585706,63.78216757585706 0 0,0 -0.04251496705662582,1.0971223887221466 l -42.73423938028335 -2.0245115651324754" fill="#33ff54" stroke="none" /><path d="M 120.95626037817324 101.35467743843564 l 29.874962964385922 1.9312099378239271 a50.93731758102887,50.93731758102887 0 0,0 -0.06409234394753893,0.8744891115598219 l -29.837294061774045 -2.4451721858805193" fill="#99ff23" stroke="none" /><path d="M 120.92983693683757 101.71520430193887 l 14.278211471641642 1.1701022714156435 a35.32607630003732,35.32607630003732 0 0,0 -0.054882261963598016,0.6056211875031756 l -14.25595461340097 -1.4157048474673897" fill="#ffa40f" stroke="none" /><path d="M 120.5718875245553 104.21870165774334 l 20.02742762825243 4.107048613540854 a41.44420958899797,41.44420958899797 0 0,0 -0.14932933132653262,0.6976169216633655 l -19.953764258201453 -4.45117935462039" fill="#fff417" stroke="none" /><path d="M 120.49622156327973 104.57218783832717 l 14.754469993079029 3.2913485080673723 a36.11712141177105,36.11712141177105 0 0,0 -0.1405806221150323,0.6056176407348492 l -14.695628805033444 -3.5448348061507864" fill="#ffae10" stroke="none" /><path d="M 120.41448212921028 104.9243191809786 l 26.186125433663598 6.316537394009785 a47.937182664070264,47.937182664070264 0 0,0 -0.20039725059411054,0.8004874008576769 l -26.073516868774426 -6.766352634264858" fill="#bbff1f" stroke="none" /><path d="M 120.32669344350535 105.2749913415812 l 14.135233026213417 3.6682420597203644 a35.60345207524769,35.60345207524769 0 0,0 -0.15904896800249188,0.5918803776056576 l -14.069995981869148 -3.9110133705015704" fill="#ffa80f" stroke="none" /><path d="M 120.02730092923936 106.31721596034902 l 58.684146532649166 18.510753316452607 a82.53435660351053,82.53435660351053 0 0,0 -0.4390346280952625,1.351209647138659 l -58.356819653537656 -19.518161863569063" fill="#4be0ff" stroke="none" /><path d="M 119.79798401119884 107.00284435728193 l 10.678992990178893 3.777320244345378 a32.32735801114414,32.32735801114414 0 0,0 -0.19007830572260126,0.5230138619646533 l -10.612390423451066 -3.9605819033161627" fill="#ff7b0b" stroke="none" /><path d="M 119.54520255179757 107.68017299344265 l 13.794302331190766 5.420390397420095 a35.821046146097075,35.821046146097075 0 0,0 -0.2304442709001439,0.5719437817770523 l -13.698955446033228 -5.657033547039961" fill="#ffab0f" stroke="none" /><path d="M 119.26925614724726 108.34839909993367 l 36.43418844421816 15.785100560717638 a60.7066680458178,60.7066680458178 0 0,0 -0.42367159135113114,0.9552675924631758 l -36.157075768135755 -16.409916489673503" fill="#31ff2f" stroke="none" /><path d="M 118.97047184881838 109.00673069616215 l 24.32131900987792 11.54718618720409 a47.923299709029095,47.923299709029095 0 0,0 -0.3602160376832025,0.7421517300934459 l -24.118949715580005 -11.964126873262812" fill="#bbff1f" stroke="none" /><path d="M 118.81262510543309 109.33194174019688 l 13.185902349610599 6.540824144895884 a35.719048925386424,35.719048925386424 0 0,0 -0.2779644994931422,0.5484503279988693 l -13.071359180331187 -6.7668286845974475" fill="#ffa90f" stroke="none" /><line stroke="#5A5A5A" stroke-width="0.3" x1="174.80103733775053" x2="179.2010983576182" y1="140.37084112569926" y2="142.7455964860345" /><path d="M 175.68104954172406 140.8457921977663 a86.0,86.0 0 0,1 -30.038265399797805,32.042727171017184" fill="none" id="id89" stroke="none" /><text fill="#5A5A5A" style="font-size:6.75px; font-family:Arial;" text-anchor="middle"><textPath startOffset="22.206326154141568" xlink:href="#id89">May</textPath></text><path d="M 118.48025628344425 109.97397251340804 l 20.52285073061396 11.076380432413034 a44.321097864264544,44.321097864264544 0 0,0 -0.36812595364457396,0.6682555352762968 l -20.329148367517874 -11.428006486087137" fill="#e6ff1a" stroke="none" /><path d="M 118.30583269289576 110.29060199501025 l 13.64175952570524 7.668698831993183 a36.64949023875804,36.64949023875804 0 0,0 -0.31387322197492784,0.5472644189659011 l -13.507734307577932 -7.902383096817399" fill="#ffb610" stroke="none" /><path d="M 118.12598468904814 110.60418214915192 l 6.561039263836488 3.838382114682973 a28.601342873461384,28.601342873461384 0 0,0 -0.25226265147034604,0.4228067139849024 l -6.493995736667914 -3.9507509225539796" fill="#ff4606" stroke="none" /><path d="M 117.75023020441432 111.22182372390056 l 25.752318387852394 16.28080166297638 a51.467136477498094,51.467136477498094 0 0,0 -0.4798578580097017,0.7447500518764928 l -25.46825566646564 -16.721673314774325" fill="#93ff23" stroke="none" /><path d="M 117.14729908036423 112.12312394758627 l 21.533236394328206 15.223977407616978 a47.37138141473922,47.37138141473922 0 0,0 -0.47646633418455847,0.6617700652591113 l -21.267990267768045 -15.592381078327222" fill="#c2ff1e" stroke="none" /><path d="M 116.71984013943494 112.70617746262583 l 41.37773002581065 31.44484494612756 a72.97013388259526,72.97013388259526 0 0,0 -0.7685950553102339,0.9935127166445782 l -40.83032815328235 -32.15243565688539" fill="#3fffbd" stroke="none" /><path d="M 115.56566222782051 114.09645910891815 l 13.162200047607483 11.919853587911154 a38.75743280011153,38.75743280011153 0 0,0 -0.4520843991072258,0.49064832747767806 l -12.955069240504535 -12.144653170190168" fill="#ffd113" stroke="none" /><path d="M 115.07121518719521 114.62390073753431 l 10.681253294672542 10.36423314202723 a35.88309445536272,35.88309445536272 0 0,0 -0.43394515423605207,0.4395841501919888 l -10.501267515380954 -10.546557786199882" fill="#ffab0f" stroke="none" /><path d="M 114.81725581225074 114.88116024355365 l 10.25617796704939 10.300411206228798 a35.535737253720335,35.535737253720335 0 0,0 -0.43717425770761487,0.4278670241511291 l -10.077353756965982 -10.4754283333025" fill="#ffa70f" stroke="none" /><path d="M 114.29624159901734 115.38237550388516 l 12.030152385632835 12.944123816254184 a38.67130181373365,38.67130181373365 0 0,0 -0.49149466079944726,0.4489687194143646 l -11.805558175366524 -13.14928530225513" fill="#ffd013" stroke="none" /><path d="M 114.0293411484842 115.62618273729858 l 11.806883132593882 13.15076106818987 a38.67328509302524,38.67328509302524 0 0,0 -0.49917569822324565,0.4404645155187788 l -11.578765081464047 -13.352048725480937" fill="#ffd013" stroke="none" /><path d="M 113.75828350139079 115.86535959552629 l 12.42093471137527 14.323196326678586 a39.958733399592546,39.958733399592546 0 0,0 -0.5235250985943676,0.4461594466565792 l -12.172544136203856 -14.53488016355811" fill="#ffe115" stroke="none" /><path d="M 113.20401910651253 116.32954008644616 l 24.474040946082827 30.26728676189719 a59.924122702476616,59.924122702476616 0 0,0 -0.8076701874486707,0.6416620442277375 l -23.949413265916803 -30.684082720130053" fill="#38ff2e" stroke="none" /><path d="M 112.92097659922987 116.55440617244103 l 10.926397914451815 13.998944095938448 a38.758282776950786,38.758282776950786 0 0,0 -0.5294589457920283,0.4059665423456642 l -10.683810240166293 -14.184949980111483" fill="#ffd113" stroke="none" /><path d="M 112.34349029814194 116.9893568818739 l 4.274777082956012 5.883725891025156 a28.272685162282613,28.272685162282613 0 0,0 -0.39618469579009985,0.2826672610901445 l -4.1728650593170284 -5.956437413959519" fill="#ff4106" stroke="none" /><path d="M 112.04921762599082 117.19931262002967 l 16.47037268104578 23.510164518786198 a49.70541781533466,49.70541781533466 0 0,0 -0.704972213963834,0.4848863170441736 l -16.063243582459062 -23.790191625195465" fill="#a7ff21" stroke="none" /><path d="M 111.7513745106137 117.40417183066458 l 9.88439000656192 14.639106426242504 a38.663652022180344,38.663652022180344 0 0,0 -0.5547779330188899,0.36767656288886014 l -9.630937374803066 -14.807081010222683" fill="#ffd013" stroke="none" /><path d="M 111.1453310114006 117.79835938074945 l 8.280543015607305 13.223481681143252 a36.60217486137282,36.60217486137282 0 0,0 -0.5368681516675045,0.3297882677588642 l -8.051695664007491 -13.364058415730495" fill="#ffb510" stroke="none" /><line stroke="#5A5A5A" stroke-width="0.3" x1="143.8653032363475" x2="146.44561519142675" y1="172.8068346515853" y2="177.08958963109032" /><path d="M 144.38136562736335 173.6633856474863 a86.0,86.0 0 0,1 -40.68145358897372,12.25698825130547" fill="none" id="id90" stroke="none" /><text fill="#5A5A5A" style="font-size:6.75px; font-family:Arial;" text-anchor="middle"><textPath startOffset="21.466115282336833" xlink:href="#id90">June</textPath></text><path d="M 110.5260780823613 118.17145234162733 l 8.851630752011344 15.280808777714723 a38.65940213798407,38.65940213798407 0 0,0 -0.578696701531644,0.32859909018583466 l -8.5872852835585 -15.430911033695185" fill="#ffd013" stroke="none" /><path d="M 110.21172684928248 118.3499491758327 l 4.1879014706529505 7.5254440580024164 a29.612248660949184,29.612248660949184 0 0,0 -0.4475358197265917,0.2440322120567369 l -4.057742839057711 -7.596416921818923" fill="#ff5507" stroke="none" /><path d="M 109.89434966115114 118.52300852407294 l 9.485643012723715 17.757877212573906 a41.13255141460431,41.13255141460431 0 0,0 -0.6273871628759249,0.3282193114681693 l -9.178564947321295 -17.918525942986793" fill="#fff016" stroke="none" /><path d="M 109.57404056367764 118.69057910512821 l 8.168842717689017 15.94733174534082 a38.917795097117725,38.917795097117725 0 0,0 -0.598863495582696,0.30028258888739817 l -7.8931253144235605 -16.08558217513752" fill="#ffd313" stroke="none" /><path d="M 109.2508944713604 118.85261126421891 l 8.353550343833414 17.023892964721533 a39.96298328378883,39.96298328378883 0 0,0 -0.6201633333859639,0.29771608728896815 l -8.059274342447218 -17.165163328510058" fill="#ffe115" stroke="none" /><path d="M 108.92500713936063 119.00905698771935 l 8.388484801916071 17.866337040450087 a40.73759550996361,40.73759550996361 0 0,0 -0.6373144714525962,0.2925598155430033 l -8.079702334696057 -18.008083926327163" fill="#ffeb16" stroke="none" /><path d="M 108.59647513512805 119.15986991738527 l 18.054070742824514 40.23900976555742 a65.10359823528617,65.10359823528617 0 0,0 -1.026402637194819,0.4499447529531723 l -17.358747430971942 -40.543819071805046" fill="#35ff64" stroke="none" /><path d="M 108.2653958097858 119.30500536409082 l 5.611060325343144 13.105428000282751 a35.25609487360529,35.25609487360529 0 0,0 -0.5599482793815531,0.23405842619463932 l -5.38464058646413 -13.200071469497365" fill="#ffa30f" stroke="none" /><path d="M 107.93186726928326 119.44442032107085 l 5.622319437399935 13.782724623178106 a35.88536106026741,35.88536106026741 0 0,0 -0.57395887898913,0.22839008311106265 l -5.3842394823689395 -13.877461550695237" fill="#ffab0f" stroke="none" /><path d="M 107.59598834532513 119.57807347666477 l 7.5090146391688775 19.353905464254268 a41.75955099636174,41.75955099636174 0 0,0 -0.6723879885499925,0.2542396033164873 l -7.17475642985861 -19.480293317677386" fill="#fff817" stroke="none" /><path d="M 107.2578585660854 119.70592522655815 l 7.5552767378444505 20.513449953078762 a42.860554328810615,42.860554328810615 0 0,0 -0.6945051551743238,0.24902483933564593 l -7.201052022040392 -20.640462333454366" fill="#f8ff18" stroke="none" /><path d="M 106.91757812671514 119.82793768551818 l 5.845062483460291 16.75377315110204 a38.74411649629653,38.74411649629653 0 0,0 -0.6315849403470657,0.21426790310243035 l -5.555807810175999 -16.851904041102593" fill="#ffd113" stroke="none" /><path d="M 106.57524785965236 119.94407469862006 l 0.8912818718279087 2.7034406320009863 a23.846572434666463,23.846572434666463 0 0,0 -0.39094599438087757,0.12516856173316165 l -0.8446145323560907 -2.7183820403938546" fill="#ff0000" stroke="none" /><path d="M 106.2309692047433 120.05430185196036 l 13.733750066880642 44.201914718330165 a67.28633875849414,67.28633875849414 0 0,0 -1.1090231296479076,0.3341395715074606 l -12.970851962792487 -44.43176965894335" fill="#38ff7d" stroke="none" /><path d="M 105.88484417918355 120.15858648285463 l 0.9271132557754753 3.1758347675645258 a24.30839318399525,24.30839318399525 0 0,0 -0.40267296867478053,0.11379940313906153 l -0.8723091189960891 -3.191322964042106" fill="#ff0701" stroke="none" /><path d="M 105.53697534728816 120.25689768951611 l 5.734216663024735 20.978500532660117 a42.74807406041582,42.74807406041582 0 0,0 -0.7114695445484402,0.187905573161307 l -5.372256675664797 -21.074097455125006" fill="#faff18" stroke="none" /><path d="M 105.18746579009965 120.34920634021253 l 5.027147274053239 19.720314566234677 a41.35099546229296,41.35099546229296 0 0,0 -0.6912443395064917,0.16989104075947112 l -4.686949649803537 -19.803926865308178" fill="#fff316" stroke="none" /><path d="M 104.83641907484287 120.43548508189849 l 4.964007498486739 20.97458876328947 a42.55399601545248,42.55399601545248 0 0,0 -0.714258388488735,0.16256288379437145 l -4.602228960605141 -21.056928380661528" fill="#fcff18" stroke="none" /><path d="M 104.48393922423573 120.51570834832081 l 3.7883165263497163 17.332972883672767 a38.742133217004934,38.742133217004934 0 0,0 -0.6527284540293745,0.1367855939017392 l -3.4893966108909638 -17.395614458301047" fill="#ffd113" stroke="none" /><path d="M 104.13013068566511 120.58985236759428 l 8.451649471587421 42.13382774705534 a63.97312903907644,63.97312903907644 0 0,0 -1.0815491717169274,0.20728147286827295 l -7.72513268529879 -42.27306641827209" fill="#33ff56" stroke="none" /><path d="M 103.7750983002368 120.6578951692458 l 3.9331078248357874 21.522546612813056 a42.87897049366115,42.87897049366115 0 0,0 -0.7272090211208114,0.12643460973920628 l -3.5620498322429257 -21.587059801073266" fill="#f8ff18" stroke="none" /><path d="M 103.41894727170886 120.7198165907248 l 5.580215695083728 33.817732930706754 a55.27503271736246,55.27503271736246 0 0,0 -0.9401075868813201,0.1468254707818374 l -4.997272244593891 -33.9087767088357" fill="#69ff28" stroke="none" /><path d="M 103.06178313531738 120.77559828337769 l 2.3838807013347396 16.175720362145576 a37.35043780553069,37.35043780553069 0 0,0 -0.6368630421340497,0.08826341453052305 l -2.1050890680138594 -16.2143583421687" fill="#ffbf11" stroke="none" /><path d="M 102.70371172650421 120.8252237178851 l 2.2368098849505267 17.228932290314948 a38.37352659438116,38.37352659438116 0 0,0 -0.6557717321681884,0.07940482424297707 l -1.939910729730958 -17.264882643283276" fill="#ffcc13" stroke="none" /><path d="M 102.34483914955558 120.86867818915974 l 7.034517448666764 62.60603456747921 a84.0,84.0 0 0,0 -1.4382696135775894,0.14908252617696638 l -5.955815238483573 -62.71784646211194" fill="#4dd2ff" stroke="none" /><path d="M 101.62511606390274 120.93702456842531 l 0.2344939890461782 3.021080474718477 a24.030167431945635,24.030167431945635 0 0,0 -0.4126749162227112,0.028460478361111256 l -0.18245631204453663 -3.0246692975958736" fill="#ff0300" stroke="none" /><path d="M 100.90346689309514 120.98055641714683 l 0.7352342301104898 17.07381129573522 a38.08963433006984,38.08963433006984 0 0,0 -0.6552861759813677,0.022569380849782727 l -0.44122770245446974 -17.083937475011094" fill="#ffc912" stroke="none" /><line stroke="#5A5A5A" stroke-width="0.3" x1="102.19456741930631" x2="102.32365962044197" y1="184.97166512339345" y2="189.96999836594603" /><path d="M 102.22038585953345 185.97133177190398 a86.0,86.0 0 0,1 -42.740103519485714,-10.115201625700543" fill="none" id="id91" stroke="none" /><text fill="#5A5A5A" style="font-size:6.75px; font-family:Arial;" text-anchor="middle"><textPath startOffset="22.20632615414155" xlink:href="#id91">July</textPath></text><path d="M 100.18074693466247 120.99922214144158 l 0.1654358869364783 19.220380951041392 a40.22109291730939,40.22109291730939 0 0,0 -0.6923656431978543,0.0 l 0.16543588693646505 -19.220380951041392" fill="#ffe415" stroke="none" /><path d="M 99.45781275523022 120.99299961872073 l -0.5089282625893431 19.70524191698907 a40.71181287917287,40.71181287917287 0 0,0 -0.700397592365491,-0.02412310924260472 l 0.8480462066294772 -19.693562009320374" fill="#ffea16" stroke="none" /><path d="M 99.09653310690486 120.98055641714683 l -1.2230134699117272 28.40115481875382 a49.42747538889813,49.42747538889813 0 0,0 -0.8497099220757549,-0.043920297238730914 l 1.7117114604009709 -28.37589471475289" fill="#aaff21" stroke="none" /><path d="M 98.73552117531835 120.96189622390904 l -1.7945375842884153 29.748944685751297 a50.80302124042652,50.80302124042652 0 0,0 -0.8724505392493712,-0.0601692972297017 l 2.3063508843167164 -29.713647044005313" fill="#9aff23" stroke="none" /><path d="M 98.37488393609728 120.93702456842531 l -1.0998963029921862 14.170406920453715 a35.21302938041635,35.21302938041635 0 0,0 -0.6039129819471899,-0.05210815321570628 l 1.3436536026809178 -14.149374514959344" fill="#ffa20f" stroke="none" /><path d="M 97.65516085044442 120.86867818915974 l -1.8307037525778014 16.292958721485917 a37.39548657801123,37.39548657801123 0 0,0 -0.6390578397380035,-0.07738100463360958 l 2.1108890153671944 -16.25903218812696" fill="#ffbf11" stroke="none" /><path d="M 96.22490169976321 120.6578951692458 l -0.5760972599352184 3.152489248368711 a24.20469600960609,24.20469600960609 0 0,0 -0.4092119506122583,-0.0784264442674882 l 0.6302768251191717 -3.1421056057527545" fill="#ff0500" stroke="none" /><path d="M 95.86986931433489 120.58985236759428 l -8.709421604290206 43.418893659195064 a65.28379332520834,65.28379332520834 0 0,0 -1.0999030242256151,-0.23049537288327376 l 9.455516089945208 -43.26254230558525" fill="#35ff66" stroke="none" /><path d="M 94.81253420990036 120.34920634021253 l -5.031906438382892 19.738983646835887 a41.37026160398275,41.37026160398275 0 0,0 -0.6885381816181361,-0.1818491917914996 l 5.370935062812517 -19.649443105740808" fill="#fff316" stroke="none" /><path d="M 94.46302465271185 120.25689768951611 l -2.1610885076164976 7.906292885738984 a29.19632666094019,29.19632666094019 0 0,0 -0.4836424786274944,-0.13668219543427285 l 2.296862154348606 -7.86792189696619" fill="#ff4f07" stroke="none" /><path d="M 93.76903079525671 120.05430185196036 l -17.82122371993304 57.35740108919014 a81.06219671792012,81.06219671792012 0 0,0 -1.328951621429482,-0.42548834227272436 l 18.805896686453462 -57.04213990025771" fill="#49eeff" stroke="none" /><path d="M 93.08242187328487 119.8279376855182 l -6.743269057849079 19.328313497372175 a41.47084219662797,41.47084219662797 0 0,0 -0.6719864954154209,-0.2409504491216408 l 7.074975113894227 -19.209375507210577" fill="#fff417" stroke="none" /><path d="M 92.7421414339146 119.70592522655815 l -5.058687501507084 13.734921498062423 a35.63688449759174,35.63688449759174 0 0,0 -0.5738043756172375,-0.2169637163697571 l 5.294362097884605 -13.645809531586034" fill="#ffa80f" stroke="none" /><path d="M 91.40352486487194 119.15986991738527 l -6.421753539414707 14.3128387533993 a36.68745587091145,36.68745587091145 0 0,0 -0.5739525432126139,-0.26347346199435806 l 6.667174078394741 -14.200178221070866" fill="#ffb610" stroke="none" /><path d="M 90.7491055286396 118.85261126421891 l -3.7501737215174415 7.642565544763002 a29.513084696369383,29.513084696369383 0 0,0 -0.4541446662790233,-0.22771756356092215 l 3.8811722954792254 -7.576880140292778" fill="#ff5307" stroke="none" /><line stroke="#5A5A5A" stroke-width="0.3" x1="58.666819895761336" x2="56.23545636021788" y1="174.27360380694188" y2="178.64263932499728" /><path d="M 58.180547188652646 175.14741091055294 a86.0,86.0 0 0,1 -31.652253787137756,-30.449443065178592" fill="none" id="id92" stroke="none" /><text fill="#5A5A5A" style="font-size:6.75px; font-family:Arial;" text-anchor="middle"><textPath startOffset="22.20632615414155" xlink:href="#id92">August</textPath></text><path d="M 89.7882731507175 118.34994917583269 l -6.941029578297062 12.472674002110793 a35.27394438722966,35.27394438722966 0 0,0 -0.5280194244608765,-0.299823209669365 l 7.154697769679145 -12.351347626646795" fill="#ffa30f" stroke="none" /><path d="M 88.54995079064634 117.60387380957326 l -4.917889312954827 7.561007056981251 a30.019670892565625,30.019670892565625 0 0,0 -0.43074697025854936,-0.2854756039729858 l 5.047310981953338 -7.475233431916947" fill="#ff5a08" stroke="none" /><path d="M 88.24862548938628 117.40417183066458 l -7.9395065821667155 11.758670160832576 a35.18809672646486,35.18809672646486 0 0,0 -0.4990729692000653,-0.3432669390060981 l 8.140736435989671 -11.620262432461377" fill="#ffa20f" stroke="none" /><path d="M 87.95078237400918 117.19931262002967 l -8.168209816137889 11.659478526697972 a35.23597875507625,35.23597875507625 0 0,0 -0.49376122019600666,-0.3522855204363544 l 8.367698364182782 -11.517148744417398" fill="#ffa30f" stroke="none" /><path d="M 87.07902340077011 116.55440617244103 l -6.85327357622841 8.78044113155538 a32.13837982721635,32.13837982721635 0 0,0 -0.43316798125224737,-0.3441348419982193 l 7.0033990501980155 -8.661172375552031" fill="#ff780b" stroke="none" /><path d="M 86.79598089348748 116.32954008644616 l -8.918988040780755 11.030200090412535 a35.184980144720924,35.184980144720924 0 0,0 -0.46767518975969663,-0.3848648420074084 l 9.107533359085142 -10.875040129547946" fill="#ffa20f" stroke="none" /><path d="M 86.51685102203217 116.09983520530335 l -5.5735571962811035 6.655222197283977 a29.680813459315793,29.680813459315793 0 0,0 -0.38886745075876833,-0.3314012778358047 l 5.687290123616928 -6.55829652922522" fill="#ff5607" stroke="none" /><path d="M 83.72743513129214 113.27417163493432 l -11.268340806326249 9.192029106102824 a35.54197041720821,35.54197041720821 0 0,0 -0.3826382324574666,-0.47740002830853945 l 11.424896950838576 -8.996701244216025" fill="#ffa70f" stroke="none" /><path d="M 83.06392112726016 112.41649034213515 l -11.68827763990566 8.56912556457673 a35.49295508614448,35.49295508614448 0 0,0 -0.35699187345231786,-0.49583048883366154 l 11.834049305733584 -8.36666147029193" fill="#ffa60f" stroke="none" /><path d="M 82.85270091963577 112.12312394758628 l -19.327582257115054 13.66458205528647 a44.67015501958544,44.67015501958544 0 0,0 -0.4384888206030569,-0.6316758501203131 l 19.559931984880244 -13.329864942979144" fill="#e2ff1b" stroke="none" /><path d="M 82.44556493220864 111.52570212397912 l -11.861849431800774 7.788125488656228 a35.19008000575646,35.19008000575646 0 0,0 -0.32809745345237046,-0.5092145338469287 l 11.99415174863019 -7.5827893548878516" fill="#ffa20f" stroke="none" /><path d="M 82.05923443525364 110.91462005526583 l -17.455533286734745 10.619419388720427 a41.432026587635306,41.432026587635306 0 0,0 -0.36542874679092313,-0.6124795990438322 l 17.6357429092239 -10.317377695790483" fill="#fff417" stroke="none" /><line stroke="#5A5A5A" stroke-width="0.3" x1="26.63291911575756" x2="22.317208475507996" y1="142.92168965132927" y2="145.44649492493687" /><path d="M 25.769776987707644 143.4266507060508 a86.0,86.0 0 0,1 -11.730757126820373,-40.83630448921669" fill="none" id="id93" stroke="none" /><text fill="#5A5A5A" style="font-size:6.75px; font-family:Arial;" text-anchor="middle"><textPath startOffset="21.46611528233685" xlink:href="#id93">September</textPath></text><path d="M 81.87401531095188 110.60418214915194 l -14.943978058612693 8.742623812443528 a38.313461564407106,38.313461564407106 0 0,0 -0.3281237896595827,-0.5721114849080292 l 15.092253844424652 -8.484092481677191" fill="#ffcc13" stroke="none" /><path d="M 81.69416730710424 110.29060199501025 l -17.381234151915127 9.770840028973524 a40.93932334648024,40.93932334648024 0 0,0 -0.34003732251040186,-0.6172665108733315 l 17.546847883877046 -9.47020299970237" fill="#ffed16" stroke="none" /><path d="M 81.35079622478065 109.6543875284942 l -12.588520769770161 6.5168711429574 a35.175347073876026,35.175347073876026 0 0,0 -0.2737334290258367,-0.5401020245651242 l 12.698832868582265 -6.299214906689591" fill="#ffa20f" stroke="none" /><path d="M 80.58989483394504 108.01547362559985 l -23.205812121633848 9.582924637980538 a46.10661587792713,46.10661587792713 0 0,0 -0.29661348907365576,-0.736170354785615 l 23.36732822496489 -9.182054915352118" fill="#d1ff1c" stroke="none" /><path d="M 80.32549172779594 107.34259656027581 l -24.256930316814113 9.052772788162624 a46.8911445005599,46.8911445005599 0 0,0 -0.2757104152151163,-0.758636649760463 l 24.409164993034455 -8.633888341396045" fill="#c7ff1d" stroke="none" /><path d="M 80.20201598880116 107.00284435728193 l -17.14301576062234 6.06374220315374 a39.183837847804675,39.183837847804675 0 0,0 -0.2194466004635992,-0.6378145416239226 l 17.24485319202917 -5.76775495844052" fill="#ffd714" stroke="none" /><path d="M 79.86692584326677 105.97154293290107 l -10.062779539532992 2.9846569667823637 a31.49608066235232,31.49608066235232 0 0,0 -0.14969241711104542,-0.5210989417637413 l 10.112664593530141 -2.8110005495140267" fill="#ff6f0a" stroke="none" /><line stroke="#5A5A5A" stroke-width="0.3" x1="15.007084014347285" x2="10.007500721073583" y1="101.09737516637583" y2="101.16192664675087" /><path d="M 14.007167355692545 101.11028546245083 a86.0,86.0 0 0,1 10.666146001902534,-42.60595125391555" fill="none" id="id94" stroke="none" /><text fill="#5A5A5A" style="font-size:6.75px; font-family:Arial;" text-anchor="middle"><textPath startOffset="22.20632615414155" xlink:href="#id94">October</textPath></text><line stroke="#5A5A5A" stroke-width="0.3" x1="26.266209847984243" x2="21.928928074336255" y1="57.711370442889674" y2="55.22380399835377" /><path d="M 25.398753493254645 57.213857153982495 a86.0,86.0 0 0,1 29.58750427330803,-30.492523968695096" fill="none" id="id95" stroke="none" /><text fill="#5A5A5A" style="font-size:6.75px; font-family:Arial;" text-anchor="middle"><textPath startOffset="21.46611528233685" xlink:href="#id95">November</textPath></text><line stroke="#5A5A5A" stroke-width="0.3" x1="56.762969772571076" x2="54.21961505331055" y1="26.818313649435495" y2="22.513508569990535" /><path d="M 56.25429882871897 25.957352633546506 a86.0,86.0 0 0,1 42.265352541879196,-11.944610805530505" fill="none" id="id96" stroke="none" /><text fill="#5A5A5A" style="font-size:6.75px; font-family:Arial;" text-anchor="middle"><textPath startOffset="22.20632615414155" xlink:href="#id96">December</textPath></text></svg>