<?xml version="1.0" encoding="utf-8" ?>
<svg baseProfile="full" height="200mm" version="1.1" viewBox="0,0,200,200" width="200mm" xmlns="http://www.w3.org/2000/svg" xmlns:ev="http://www.w3.org/2001/xml-events" xmlns:xlink="http://www.w3.org/1999/xlink"><defs /><rect fill="#1a1a1a" height="200" width="200" x="0" y="0" /><text alignment-baseline="middle" fill="#e1ed5e" style="dominant-baseline: central; font-size:9.0px; font-family:Arial;" text-anchor="middle" x="100.0" y="100.0">2023</text><line stroke="#e1ed5e" stroke-width="0.3" x1="100.0" x2="100.0" y1="15.0" y2="10.0" /><path d="M 100.0 14.0 a86.0,86.0 0 0,1 42.46469731375804,11.215312516191453" fill="none" id="id1" stroke="none" /><text fill="#e1ed5e" style="font-size:6.75px; font-family:Arial;" text-anchor="middle"><textPath startOffset="22.20632615414155" xlink:href="#id1">January</textPath></text><line stroke="#e1ed5e" stroke-width="0.3" x1="143.23703022742887" x2="145.7803849466894" y1="26.81831364943548" y2="22.513508569990506" /><path d="M 143.74570117128098 25.957352633546492 a86.0,86.0 0 0,1 28.547481713284135,27.462654790039103" fill="none" id="id2" stroke="none" /><text fill="#e1ed5e" style="font-size:6.75px; font-family:Arial;" text-anchor="middle"><textPath startOffset="19.985693538727396" xlink:href="#id2">February</textPath></text><line stroke="#e1ed5e" stroke-width="0.3" x1="172.23445277983987" x2="176.4835382374775" y1="55.19839476539836" y2="52.563006222186495" /><path d="M 173.08426987136738 54.67131705675599 a86.0,86.0 0 0,1 12.851231095245387,41.99856678651699" fill="none" id="id3" stroke="none" /><text fill="#e1ed5e" style="font-size:6.75px; font-family:Arial;" text-anchor="middle"><textPath startOffset="22.20632615414155" xlink:href="#id3">March</textPath></text><line stroke="#e1ed5e" stroke-width="0.3" x1="184.98032266829074" x2="189.97916517819016" y1="98.17113171792111" y2="98.06355123074" /><path d="M 185.9800911702706 98.14961562048488 a86.0,86.0 0 0,1 -9.607161424134198,41.387399972396054" fill="none" id="id4" stroke="none" /><text fill="#e1ed5e" style="font-size:6.75px; font-family:Arial;" text-anchor="middle"><textPath startOffset="21.466115282336823" xlink:href="#id4">April</textPath></text><path d="M 120.41448212921028 104.9243191809786 l 3.2725467217881565 0.7893937495329184 a24.36640825481522,24.36640825481522 0 0,0 -0.10186166457334324,0.4068867156591038 l -3.2584737429197523 -0.8456083045894182" fill="#ff1502" stroke="none" /><path d="M 120.32669344350535 105.2749913415812 l 12.489934369671769 3.241269704787476 a33.90365412810965,33.90365412810965 0 0,0 -0.15145557203814342,0.5636225264096825 l -12.432290721291848 -3.455783164372707" fill="#ff9b0e" stroke="none" /><path d="M 120.23288151984713 105.62410040840565 l 9.159810526664288 2.546137290103615 a30.507099662065507,30.507099662065507 0 0,0 -0.1449920558820822,0.504736367696255 l -9.114625833896106 -2.7034311333044516" fill="#ff6d0a" stroke="none" /><path d="M 120.13307415673323 105.97154293290107 l 12.771979656841154 3.7882155633673653 a34.3219383540573,34.3219383540573 0 0,0 -0.1728734377882949,0.5649603970823168 l -12.704879446546725 -4.0075029330017395" fill="#ffa00e" stroke="none" /><path d="M 120.02730092923936 106.31721596034902 l 5.957512043483511 1.8791793411422475 a27.24686039098257,27.24686039098257 0 0,0 -0.14493740195958302,0.4460714559319642 l -5.924282390507681 -1.9814496970520068" fill="#ff3f05" stroke="none" /><path d="M 119.9155931802556 106.66101706037122 l 9.031374538259806 3.0206551887990893 a30.523134138504318,30.523134138504318 0 0,0 -0.17094287823989515,0.49684002075274414 l -8.97804082907668 -3.175667912641134" fill="#ff6d0a" stroke="none" /><path d="M 119.67450827220406 107.3425965602758 l 8.954622219606081 3.341896905303598 a30.55790426932289,30.55790426932289 0 0,0 -0.18815770598368817,0.49122039658534605 l -8.895770234028888 -3.495540868722088" fill="#ff6d0a" stroke="none" /><path d="M 119.41010516605496 108.01547362559984 l 6.248024482919359 2.5801444673532874 a27.759804391517072,27.759804391517072 0 0,0 -0.18618767670660064,0.4400926687838257 l -6.202685825020449 -2.6873116618032764" fill="#ff4606" stroke="none" /><path d="M 119.26925614724726 108.34839909993367 l 6.0138631871431905 2.6055043139712843 a27.554021907485435,27.554021907485435 0 0,0 -0.19229940771675277,0.43358439884026134 l -5.968122694695165 -2.708637049304233" fill="#ff4306" stroke="none" /><path d="M 118.81262510543309 109.33194174019688 l 1.7361632636372832 0.8612181626398393 a22.938029824761323,22.938029824761323 0 0,0 -0.17850301649736805,0.3522033861348702 l -1.721081577353646 -0.8909757604774038" fill="#ff0000" stroke="none" /><line stroke="#e1ed5e" stroke-width="0.3" x1="174.80103733775053" x2="179.2010983576182" y1="140.37084112569926" y2="142.7455964860345" /><path d="M 175.68104954172406 140.8457921977663 a86.0,86.0 0 0,1 -30.038265399797805,32.042727171017184" fill="none" id="id5" stroke="none" /><text fill="#e1ed5e" style="font-size:6.75px; font-family:Arial;" text-anchor="middle"><textPath startOffset="22.206326154141568" xlink:href="#id5">May</textPath></text><path d="M 118.48025628344425 109.97397251340804 l 3.833014728130726 2.0687150088991575 a25.355638150043195,25.355638150043195 0 0,0 -0.2106010212751818,0.38230202681623876 l -3.7968372974040343 -2.1343875541132014" fill="#ff2303" stroke="none" /><path d="M 118.12598468904814 110.60418214915192 l 9.947828459776417 5.8197436876201065 a32.52513373695645,32.52513373695645 0 0,0 -0.28687032326462475,0.4808111625416759 l -9.846177260813565 -5.9901169440478865" fill="#ff880c" stroke="none" /><path d="M 117.94076556474637 110.91462005526583 l 7.4074953216056825 4.506496487271174 a29.67061113932562,29.67061113932562 0 0,0 -0.26920478974776957,0.43404383774453387 l -7.32882589218995 -4.6333366563809815" fill="#ff6108" stroke="none" /><path d="M 117.75023020441432 111.22182372390056 l 8.252626424537985 5.217370024437077 a30.763544073484645,30.763544073484645 0 0,0 -0.2868263007082886,0.4451607882760182 l -8.161595260452646 -5.358652412634548" fill="#ff700a" stroke="none" /><path d="M 117.55443506779139 111.5257021239791 l 4.424665221981039 2.9050990903405682 a26.293133575804234,26.293133575804234 0 0,0 -0.2516589617979883,0.3761960023516689 l -4.37400315477233 -2.9808320068980443" fill="#ff3104" stroke="none" /><path d="M 117.35343817320211 111.8261652097733 l 5.517956152369037 3.7604225990773763 a27.67747094513478,27.67747094513478 0 0,0 -0.27168613107982936,0.3913841351296506 l -5.452409114127072 -3.8548479963940463" fill="#ff4506" stroke="none" /><path d="M 117.14729908036423 112.12312394758627 l 7.9707417854012474 5.635306771389901 a30.76162932185065,30.76162932185065 0 0,0 -0.30940370153457325,0.42973468021905187 l -7.872558291491072 -5.771675057060085" fill="#ff700a" stroke="none" /><path d="M 116.93607887273984 112.41649034213515 l 8.909134887398677 6.531629199260412 a32.04693914342319,32.04693914342319 0 0,0 -0.3299899774606334,0.44207550099992776 l -8.795383643242952 -6.684017579769655" fill="#ff820b" stroke="none" /><path d="M 116.71984013943494 112.70617746262583 l 6.068855319213502 4.612002987938469 a28.622439009024564,28.622439009024564 0 0,0 -0.30148039920894565,0.3897040559443518 l -5.988568102786488 -4.715785037996073" fill="#ff5207" stroke="none" /><path d="M 116.498646956653 112.99209946851258 l 8.494804084136682 6.689357007068167 a31.812455484110778,31.812455484110778 0 0,0 -0.3424869694528465,0.4273051541713619 l -8.378399202628982 -6.834589994817779" fill="#ff7e0b" stroke="none" /><path d="M 116.27256486870786 113.27417163493432 l 8.86324050716139 7.2300941297833 a32.438150786438925,32.438150786438925 0 0,0 -0.3566713701259595,0.42963364196638476 l -8.737473137141887 -7.381589028863455" fill="#ff870c" stroke="none" /><path d="M 116.0416608686014 113.55231037782055 l 2.02618659380791 1.7117622562642971 a23.65246340877644,23.65246340877644 0 0,0 -0.26542286520863045,0.308746756266172 l -1.996421219028501 -1.7463861116919972" fill="#ff0b01" stroke="none" /><path d="M 115.80600337817218 113.82643327865902 l 7.951711752207765 6.955826173291855 a31.56471663336273,31.56471663336273 0 0,0 -0.3612523955326966,0.4058708959913358 l -7.83080050702673 -7.091671239024057" fill="#ff7b0b" stroke="none" /><path d="M 115.56566222782051 114.09645910891815 l 9.559465361715823 8.6571718313211 a33.89689893419593,33.89689893419593 0 0,0 -0.3953889119874894,0.4291165737039028 l -9.409030041732612 -8.820439659826338" fill="#ff9b0e" stroke="none" /><path d="M 115.32070863581623 114.36230785411682 l 6.955572750760399 6.5204606081071645 a30.533960291138087,30.533960291138087 0 0,0 -0.36276300252827615,0.3803555578435258 l -6.842303196853158 -6.639223282533197" fill="#ff6d0a" stroke="none" /><path d="M 115.07121518719521 114.62390073753431 l 8.561376015667769 8.307273930784655 a32.92928998066296,32.92928998066296 0 0,0 -0.3982239000406752,0.4033987082853715 l -8.417111490571557 -8.453413133050692" fill="#ff8e0d" stroke="none" /><path d="M 114.81725581225074 114.88116024355365 l 9.096677294582516 9.135909794623164 a33.89241581617908,33.89241581617908 0 0,0 -0.4169574876290119,0.40808065956315587 l -8.938069854577709 -9.291140557108891" fill="#ff9b0e" stroke="none" /><path d="M 114.55890576462653 115.13401014063108 l 9.228098561061255 9.59262594728572 a34.310757890413306,34.310757890413306 0 0,0 -0.42915269489068686,0.40579065937977343 l -9.061610031779761 -9.750051243411415" fill="#ffa00e" stroke="none" /><path d="M 114.29624159901734 115.38237550388516 l 9.318452744517648 10.026407167127916 a34.688038655440835,34.688038655440835 0 0,0 -0.4408691973927618,0.40272355891050937 l -9.144483997658023 -10.185323492625008" fill="#ffa50f" stroke="none" /><path d="M 113.75828350139079 115.86535959552629 l 7.073161414362866 8.156413502071265 a31.796142533812812,31.796142533812812 0 0,0 -0.416581739177565,0.3550199956749455 l -6.931714198608254 -8.276957887969157" fill="#ff7e0b" stroke="none" /><path d="M 113.48314897796784 116.09983520530334 l 8.141632720551167 9.721686329889927 a33.68059022495081,33.68059022495081 0 0,0 -0.44767899142997397,0.36840933211630505 l -7.973083600576501 -9.86039078086341" fill="#ff980e" stroke="none" /><path d="M 113.20401910651253 116.32954008644616 l 7.572332201339684 9.364777590231983 a33.04322524417596,33.04322524417596 0 0,0 -0.44536368199128007,0.3538238442526125 l -7.410011026631053 -9.493735348489722" fill="#ff8f0d" stroke="none" /><path d="M 112.92097659922987 116.55440617244103 l 7.790718455241499 9.98149920733446 a33.661975378070316,33.661975378070316 0 0,0 -0.45984065133941615,0.3525862028357697 l -7.617749075408589 -10.1141247519976" fill="#ff970e" stroke="none" /><path d="M 112.63410532772338 116.77436683061366 l 6.020114503246444 7.992937087374301 a31.006439022695425,31.006439022695425 0 0,0 -0.42909224732360063,0.3174321864231674 l -5.881637285504279 -8.095379222537238" fill="#ff730a" stroke="none" /><path d="M 112.04921762599082 117.19931262002967 l 3.965979905471049 5.661125091791439 a27.912115010292492,27.912115010292492 0 0,0 -0.39587768054428085,0.27228827848377274 l -3.8679453403038853 -5.728554159640305" fill="#ff4806" stroke="none" /><path d="M 111.7513745106137 117.40417183066458 l 8.40143147928582 12.442796113508317 a36.013568064370055,36.013568064370055 0 0,0 -0.516752345068815,0.34247527666748556 l -8.186004435477042 -12.585569411267121" fill="#ffb710" stroke="none" /><path d="M 111.1453310114006 117.79835938074945 l 6.7274318549464365 10.743265475144607 a33.6758073680686,33.6758073680686 0 0,0 -0.493945196592283,0.30342148299545046 l -6.541507458421845 -10.857475424968436" fill="#ff980e" stroke="none" /><line stroke="#e1ed5e" stroke-width="0.3" x1="143.8653032363475" x2="146.44561519142675" y1="172.8068346515853" y2="177.08958963109032" /><path d="M 144.38136562736335 173.6633856474863 a86.0,86.0 0 0,1 -40.68145358897372,12.25698825130547" fill="none" id="id6" stroke="none" /><text fill="#e1ed5e" style="font-size:6.75px; font-family:Arial;" text-anchor="middle"><textPath startOffset="21.466115282336833" xlink:href="#id6">June</textPath></text><path d="M 110.8373102113329 117.98757091392108 l 7.008271095421195 11.632201243168753 a34.58027869774744,34.58027869774744 0 0,0 -0.5124997028348487,0.30279385797246855 l -6.807003521557965 -11.75111367343497" fill="#ffa40f" stroke="none" /><path d="M 110.5260780823613 118.17145234162733 l 5.729488991853892 9.890971294599778 a32.43058866630987,32.43058866630987 0 0,0 -0.4854569303202807,0.27565511468347215 l -5.558383294612413 -9.988129575077878" fill="#ff870c" stroke="none" /><path d="M 110.21172684928248 118.3499491758327 l 5.254927191590585 9.442834528536553 a31.80654356037305,31.80654356037305 0 0,0 -0.48069863616040653,0.2621152237301252 l -5.091605743561529 -9.531890404026448" fill="#ff7e0b" stroke="none" /><path d="M 109.89434966115114 118.52300852407294 l 6.5273728568559 12.21976049038047 a34.853849387613636,34.853849387613636 0 0,0 -0.5316192876582846,0.2781180854236069 l -6.31606266667112 -12.330307994748793" fill="#ffa70f" stroke="none" /><path d="M 109.57404056367764 118.69057910512821 l 4.998258831344884 9.757672474208954 a31.96333724096145,31.96333724096145 0 0,0 -0.49184892984927564,0.2466232640427188 l -4.829555993812848 -9.842263579160976" fill="#ff810b" stroke="none" /><path d="M 109.2508944713604 118.85261126421891 l 5.578093916592685 11.367726280998385 a33.662556319402086,33.662556319402086 0 0,0 -0.5223905079629453,0.25077918944110317 l -5.381590740629507 -11.462059746939047" fill="#ff970e" stroke="none" /><path d="M 108.59647513512805 119.15986991738527 l 5.624083179173169 12.534986773495445 a34.73885748590342,34.73885748590342 0 0,0 -0.5476817856949211,0.24008759996461304 l -5.407480718820494 -12.629938926754512" fill="#ffa60f" stroke="none" /><path d="M 107.59598834532513 119.57807347666477 l 2.4169343040287283 6.229461558043071 a27.68189813848784,27.68189813848784 0 0,0 -0.4457178145954025,0.16853233892265082 l -2.309346268673051 -6.270142147072353" fill="#ff4506" stroke="none" /><path d="M 106.57524785965236 119.94407469862006 l 3.1295668609227594 9.492617857278674 a30.995197973092473,30.995197973092473 0 0,0 -0.5081421460388709,0.16269106856156268 l -2.9657033697929482 -9.545081772499943" fill="#ff730a" stroke="none" /><path d="M 106.2309692047433 120.05430185196036 l 2.8233658026239294 9.086969969490514 a30.51548305036842,30.51548305036842 0 0,0 -0.5029605881322388,0.15153789935562656 l -2.666530240051445 -9.134223237951867" fill="#ff6d0a" stroke="none" /><path d="M 105.53697534728816 120.25689768951611 l 2.948728656203137 10.78785635773261 a32.18359716204878,32.18359716204878 0 0,0 -0.5356416568019436,0.14146782993265367 l -2.762596556589696 -10.837015536968847" fill="#ff840c" stroke="none" /><path d="M 105.18746579009965 120.34920634021253 l 2.892708033511433 11.347412212001064 a32.71031697590686,32.71031697590686 0 0,0 -0.5468023490190707,0.13439071375383188 l -2.6969523997491516 -11.395524184068925" fill="#ff8b0c" stroke="none" /><path d="M 104.48393922423573 120.51570834832081 l 2.5176380002256433 11.519140727890376 a32.79106035134767,32.79106035134767 0 0,0 -0.5524646257662564,0.1157743338422606 l -2.318981913030009 -11.560771042459177" fill="#ff8c0c" stroke="none" /><path d="M 104.13013068566511 120.58985236759428 l 3.4469356058438345 17.183934515984824 a38.52623663313059,38.52623663313059 0 0,0 -0.6513362711159686,0.12483014655276597 l -3.1506317201561616 -17.240721860886058" fill="#ffd714" stroke="none" /><path d="M 103.7750983002368 120.6578951692458 l 2.706065984415101 14.807992529254781 a36.053220115924496,36.053220115924496 0 0,0 -0.6114472107633852,0.10630793516538567 l -2.450769802179666 -14.852379042941173" fill="#ffb711" stroke="none" /><path d="M 103.41894727170886 120.7198165907248 l 4.458749396349344 27.02132041661691 a48.38671581692342,48.38671581692342 0 0,0 -0.8229523603605504,0.12852823381821707 l -3.992961172380276 -27.094066957782232" fill="#b0ff20" stroke="none" /><path d="M 102.70371172650421 120.8252237178851 l 1.3881082566006553 10.691844365275049 a31.7815759730805,31.7815759730805 0 0,0 -0.5431207651879874,0.06576436096120494 l -1.2038600683612877 -10.714154254961606" fill="#ff7e0b" stroke="none" /><path d="M 101.98527174616119 120.90594882070398 l 0.9491333258170435 9.994869856947323 a31.0398345368582,31.0398345368582 0 0,0 -0.5323415611815154,0.04593266987521124 l -0.7769474468939863 -10.009726779101198" fill="#ff740a" stroke="none" /><path d="M 101.62511606390274 120.93702456842531 l 0.8271038316290633 10.655911678006088 a31.68796306307998,31.68796306307998 0 0,0 -0.5441837864575426,0.037530100013600305 l -0.6435572843925904 -10.668570122535973" fill="#ff7d0b" stroke="none" /><path d="M 101.26447882468166 120.96189622390904 l 1.4798040218338417 24.53144942558724 a45.576041806262864,45.576041806262864 0 0,0 -0.7834997565022364,0.04049798795803953 l -1.0573161969181257 -24.55328722030748" fill="#d0ff1d" stroke="none" /><line stroke="#e1ed5e" stroke-width="0.3" x1="102.19456741930631" x2="102.32365962044197" y1="184.97166512339345" y2="189.96999836594603" /><path d="M 102.22038585953345 185.97133177190398 a86.0,86.0 0 0,1 -42.740103519485714,-10.115201625700543" fill="none" id="id7" stroke="none" /><text fill="#e1ed5e" style="font-size:6.75px; font-family:Arial;" text-anchor="middle"><textPath startOffset="22.20632615414155" xlink:href="#id7">July</textPath></text><path d="M 100.18074693466247 120.99922214144158 l 0.02065211839411905 2.3993680593219127 a23.399456937327354,23.399456937327354 0 0,0 -0.4027981061131473,0.0 l 0.020652118394117396 -2.3993680593219127" fill="#ff0701" stroke="none" /><path d="M 99.81925306533755 120.99922214144158 l -0.20827944398672427 24.19795566625362 a45.198852013117545,45.198852013117545 0 0,0 -0.7779374803865055,-0.013392899219405908 l 0.6247766142658977 -24.190785289755055" fill="#d5ff1c" stroke="none" /><path d="M 99.45781275523022 120.99299961872073 l -0.2648271332203152 10.253867017992327 a31.257286299658432,31.257286299658432 0 0,0 -0.5377438762831236,-0.01852098638475938 l 0.4412913611780819 -10.247789233181475" fill="#ff770a" stroke="none" /><path d="M 99.09653310690486 120.98055641714683 l -0.5623210558633127 13.05837405582439 a34.070475811985375,34.070475811985375 0 0,0 -0.5857070610931593,-0.0302743648740654 l 0.7870161853699609 -13.046759884188122" fill="#ff9d0e" stroke="none" /><path d="M 98.73552117531835 120.96189622390904 l -1.2284214947328773 20.364155879235664 a41.40117310456755,41.40117310456755 0 0,0 -0.7109907032830882,-0.04903408162278308 l 1.5787749587948958 -20.339993453096596" fill="#fffb17" stroke="none" /><path d="M 98.01472825383883 120.90594882070398 l -0.7193973155858029 7.575629628775068 a28.609710688984617,28.609710688984617 0 0,0 -0.48986282782397145,-0.05077628503221092 l 0.8496927400153675 -7.562123975287096" fill="#ff5207" stroke="none" /><path d="M 97.65516085044442 120.86867818915974 l -2.0488338251564198 18.234280064949495 a39.34902421193344,39.34902421193344 0 0,0 -0.6724421771118966,-0.08142338296681069 l 2.3624034253197053 -18.196311153257334" fill="#ffe215" stroke="none" /><path d="M 97.2962882734958 120.8252237178851 l -0.5827986101609021 4.488981321527903 a25.526655224890877,25.526655224890877 0 0,0 -0.43525549517451034,-0.060322445574079855 l 0.6599826965222434 -4.478284310461218" fill="#ff2603" stroke="none" /><path d="M 96.93821686468263 120.77559828337769 l -1.539102887728099 10.443516702207965 a31.556319377903915,31.556319377903915 0 0,0 -0.5367040742048984,-0.08382213851403841 l 1.7186428255415147 -10.415476256346821" fill="#ff7b0b" stroke="none" /><path d="M 96.22490169976321 120.6578951692458 l -2.4406923912289975 13.355829053569783 a34.577008104025786,34.577008104025786 0 0,0 -0.5845694127688622,-0.11203411924407794 l 2.6702294185695545 -13.311837735977237" fill="#ffa40f" stroke="none" /><path d="M 95.86986931433489 120.58985236759428 l -4.913082251033239 24.4930840977328 a45.980983684075156,45.980983684075156 0 0,0 -0.7746887923477068,-0.1623435685945078 l 5.333962504810333 -24.40488454841175" fill="#ccff1d" stroke="none" /><path d="M 95.16358092515715 120.4354850818985 l -2.00626445239098 8.477137041419702 a29.71131158161259,29.71131158161259 0 0,0 -0.49666944460457646,-0.12206926557625347 l 2.151887181738767 -8.44134651752942" fill="#ff6109" stroke="none" /><path d="M 94.81253420990036 120.34920634021253 l -3.022812973495655 11.857783244167276 a33.23701032680727,33.23701032680727 0 0,0 -0.553173941028208,-0.146098265545262 l 3.226477357335352 -11.803993629318432" fill="#ff920d" stroke="none" /><path d="M 94.46302465271185 120.25689768951611 l -4.513904861079483 16.514017711110103 a38.119816531076935,38.119816531076935 0 0,0 -0.6314617166062935,-0.17845738861354069 l 4.797497745790391 -16.43387152915804" fill="#ffd213" stroke="none" /><path d="M 94.11515582081647 120.15858648285463 l -3.5484916450626214 12.155389936018048 a33.66275236477947,33.66275236477947 0 0,0 -0.5548343344129033,-0.16716703358316146 l 3.7572009539157705 -12.092507533329162" fill="#ff970e" stroke="none" /><path d="M 92.40401165467489 119.57807347666478 l -3.5451037824415983 9.137231283110031 a30.80085487849536,30.80085487849536 0 0,0 -0.49263609493237653,-0.19603006902389067 l 3.7018609534158333 -9.074854369680073" fill="#ff710a" stroke="none" /><path d="M 92.06813273071674 119.44442032107085 l -4.169157246312054 10.220398694247852 a32.03804428392365,32.03804428392365 0 0,0 -0.5088381976463202,-0.21269440788416236 l 4.344466903455836 -10.147119243343715" fill="#ff820b" stroke="none" /><path d="M 91.7346041902142 119.30500536409082 l -4.3775856176306975 10.224472702211411 a32.122189437244515,32.122189437244515 0 0,0 -0.5064282289237656,-0.22200325300641482 l 4.552934521212206 -10.147604895910543" fill="#ff830c" stroke="none" /><path d="M 91.40352486487194 119.15986991738527 l -3.9933881294394107 8.90048489491151 a30.755294978466594,30.755294978466594 0 0,0 -0.48114755714475477,-0.22087124468772754 l 4.1460036823515845 -8.830426579889709" fill="#ff700a" stroke="none" /><path d="M 91.07499286063937 119.00905698771935 l -4.583682904163758 9.762624071707544 a31.785127617761724,31.785127617761724 0 0,0 -0.4932557350773424,-0.23679272793878448 l 4.751051307241342 -9.682277067269197" fill="#ff7e0b" stroke="none" /><line stroke="#e1ed5e" stroke-width="0.3" x1="58.666819895761336" x2="56.23545636021788" y1="174.27360380694188" y2="178.64263932499728" /><path d="M 58.180547188652646 175.14741091055294 a86.0,86.0 0 0,1 -31.652253787137756,-30.449443065178592" fill="none" id="id8" stroke="none" /><text fill="#e1ed5e" style="font-size:6.75px; font-family:Arial;" text-anchor="middle"><textPath startOffset="22.20632615414155" xlink:href="#id8">August</textPath></text><path d="M 89.7882731507175 118.34994917583269 l -1.9062372844989237 3.425410589599773 a24.920099270701712,24.920099270701712 0 0,0 -0.3730316159138575,-0.21181708704303465 l 1.9649176673339885 -3.3920903367621054" fill="#ff1d02" stroke="none" /><path d="M 89.4739219176387 118.17145234162733 l -5.469213333919791 9.44165041014229 a31.911327002673236,31.911327002673236 0 0,0 -0.4729442972072128,-0.2794238271072656 l 5.630925502155386 -9.346108010741274" fill="#ff800b" stroke="none" /><path d="M 89.1626897886671 117.98757091392108 l -6.888799748319995 11.433904868306549 a34.34877307133273,34.34877307133273 0 0,0 -0.5038160267988322,-0.30948495311385643 l 7.084594975051136 -11.313631448364315" fill="#ffa10e" stroke="none" /><path d="M 88.8546689885994 117.79835938074946 l -6.729073701542605 10.745887395995306 a33.67890093060921,33.67890093060921 0 0,0 -0.48869400002930624,-0.3119076325750497 l 6.913049503618835 -10.628465334596452" fill="#ff980e" stroke="none" /><path d="M 88.24862548938628 117.40417183066458 l -6.4694818310082995 9.58151519556589 a32.56112574988295,32.56112574988295 0 0,0 -0.4618146254062364,-0.3176403104049857 l 6.633453341037426 -9.468734095795803" fill="#ff890c" stroke="none" /><path d="M 87.65650970185807 116.9893568818739 l -9.855721202036035 13.565236475686826 a37.767554414808586,37.767554414808586 0 0,0 -0.5226580449275277,-0.3866499266482547 l 10.087764217382126 -13.393576600298804" fill="#ffcd13" stroke="none" /><path d="M 87.36589467227662 116.77436683061367 l -4.5383155037087235 6.025544910190273 a28.54344079819832,28.54344079819832 0 0,0 -0.3899187216642875,-0.2989730487849187 l 4.641362953866498 -5.946532519577988" fill="#ff5107" stroke="none" /><path d="M 87.07902340077011 116.55440617244103 l -13.096716825954315 16.779565243947015 a42.28562428953188,42.28562428953188 0 0,0 -0.5699347200438518,-0.4527906108493625 l 13.383609038715525 -16.55164071909252" fill="#f8ff18" stroke="none" /><path d="M 86.24171649860922 115.8653595955263 l -4.988581859231486 5.752581349295942 a28.614337866585707,28.614337866585707 0 0,0 -0.3693397664406025,-0.3258994014855332 l 5.086863978578676 -5.665858806038119" fill="#ff5207" stroke="none" /><path d="M 85.97065885151581 115.62618273729859 l -13.177581585703036 14.6774745666588 a40.72503272754638,40.72503272754638 0 0,0 -0.5175966468075818,-0.4728122647606777 l 13.428277781977473 -14.448469535311547" fill="#fff316" stroke="none" /><path d="M 85.18274418774928 114.88116024355367 l -6.926858979245316 6.956733403321758 a30.81720504844654,30.81720504844654 0 0,0 -0.37268181579233084,-0.3775247117933297 l 7.04558142009318 -6.836468197547764" fill="#ff710a" stroke="none" /><path d="M 84.9287848128048 114.62390073753433 l -8.101671472682028 7.86121344251503 a32.288744723841035,32.288744723841035 0 0,0 -0.3836109653712186,-0.4022145635352934 l 8.235788989432205 -7.720591762397237" fill="#ff850c" stroke="none" /><path d="M 84.67929136418377 114.36230785411682 l -1.9387897696215406 1.8175070225290066 a23.657487073859702,23.657487073859702 0 0,0 -0.27595173507316884,-0.2994911072923344 l 1.9697879126904385 -1.783864660435328" fill="#ff0b01" stroke="none" /><path d="M 83.95833913139862 113.55231037782056 l -17.51856694619676 14.80002965866128 a43.93340501856694,43.93340501856694 0 0,0 -0.4830666170040233,-0.5818848591702945 l 17.770729563094317 -14.496283542377226" fill="#e4ff1a" stroke="none" /><path d="M 83.50135304334701 112.99209946851258 l -26.91184200941146 21.19212134096719 a55.254244222720786,55.254244222720786 0 0,0 -0.5819934353254174,-0.7523049686626927 l 27.272642261954942 -20.725738378191245" fill="#64ff29" stroke="none" /><path d="M 83.28015986056508 112.70617746262583 l -39.07505209324127 29.694933810225574 a70.07798681774953,70.07798681774953 0 0,0 -0.7215988143823184,-0.9666995338580254 l 39.580412174318674 -29.01792139685824" fill="#3bff9f" stroke="none" /><path d="M 83.06392112726016 112.41649034213515 l -12.278554812557305 9.001880446535207 a36.22487306543759,36.22487306543759 0 0,0 -0.3643535814309044,-0.5060552573427429 l 12.431688186363818 -8.789191583741326" fill="#ffb911" stroke="none" /><path d="M 82.85270091963577 112.12312394758628 l -16.502175382910945 11.667022114341464 a41.2099281885138,41.2099281885138 0 0,0 -0.4045227244139925,-0.5827451552488052 l 16.70055901448707 -11.381235696905645" fill="#fff917" stroke="none" /><path d="M 82.44556493220864 111.52570212397912 l -16.286327742142984 10.693101858563798 a40.4829899831139,40.4829899831139 0 0,0 -0.37744631212616564,-0.5858050584030804 l 16.467978917646192 -10.41117520023927" fill="#fff016" stroke="none" /><path d="M 82.05923443525364 110.91462005526583 l -5.796261056836559 3.5262702111674913 a27.78463144475566,27.78463144475566 0 0,0 -0.24505929072595303,-0.4107334670407649 l 5.856101223260744 -3.425974650240615" fill="#ff4606" stroke="none" /><line stroke="#e1ed5e" stroke-width="0.3" x1="26.63291911575756" x2="22.317208475507996" y1="142.92168965132927" y2="145.44649492493687" /><path d="M 25.769776987707644 143.4266507060508 a86.0,86.0 0 0,1 -11.730757126820373,-40.83630448921669" fill="none" id="id9" stroke="none" /><text fill="#e1ed5e" style="font-size:6.75px; font-family:Arial;" text-anchor="middle"><textPath startOffset="21.46611528233685" xlink:href="#id9">September</textPath></text><path d="M 81.87401531095188 110.60418214915194 l -14.798366665762186 8.657437282758801 a38.14476235703614,38.14476235703614 0 0,0 -0.3266790174835663,-0.5695924028389354 l 14.94519767939813 -8.401425034061559" fill="#ffd213" stroke="none" /><path d="M 81.69416730710424 110.29060199501025 l -54.91749807868727 30.871805985030743 a84.0,84.0 0 0,0 -0.6976943621939338,-1.2665179264087099 l 55.44076885033272 -29.92191754022421" fill="#4dd2ff" stroke="none" /><path d="M 81.35079622478065 109.6543875284942 l -16.827175738937896 8.711153438606862 a39.9482990682555,39.9482990682555 0 0,0 -0.31087638921477884,-0.6133886087714543 l 16.974630797938943 -8.420210618132723" fill="#ffe915" stroke="none" /><path d="M 81.18737489456691 109.33194174019688 l -6.355951150183445 3.1528489779940156 a28.09496805500604,28.09496805500604 0 0,0 -0.21117615299981937,-0.43508542349002316 l 6.409280559797984 -3.042974598538708" fill="#ff4b07" stroke="none" /><path d="M 81.02952815118164 109.00673069616217 l -17.55028021166536 8.33245734573016 a40.42787124021531,40.42787124021531 0 0,0 -0.29305467570913935,-0.6312137001096207 l 17.691109504214324 -8.029123578341713" fill="#ffef16" stroke="none" /><path d="M 80.87730276802145 108.67885076344099 l -8.66762457471136 3.9338080420818544 a30.518537780567357,30.518537780567357 0 0,0 -0.21298875203368595,-0.4802334084475711 l 8.734054411476325 -3.7840262971415872" fill="#ff6d0a" stroke="none" /><path d="M 80.73074385275274 108.34839909993369 l -8.008064217126417 3.469491276237976 a29.72733992815176,29.72733992815176 0 0,0 -0.19938412669728298,-0.4712851783934886 l 8.066599325016007 -3.331131572178329" fill="#ff6209" stroke="none" /><path d="M 80.45479744820244 107.68017299344265 l -14.705494952164338 5.778438206895568 a36.80006107263644,36.80006107263644 0 0,0 -0.2265932575238151,-0.5915634932010745 l 14.802782489281663 -5.5244511468613355" fill="#ffc111" stroke="none" /><path d="M 80.32549172779594 107.34259656027581 l -9.26328392841938 3.45709055436793 a30.887360832882187,30.887360832882187 0 0,0 -0.1816114144970674,-0.49971661369708076 l 9.321419603921672 -3.297126143664732" fill="#ff720a" stroke="none" /><path d="M 80.20201598880116 107.00284435728193 l -18.224522159823803 6.4462872633340185 a40.331006891399404,40.331006891399404 0 0,0 -0.22587124798668623,-0.656487574636857 l 18.332784238753717 -6.1316269856078645" fill="#ffee16" stroke="none" /><path d="M 80.0844068197444 106.66101706037122 l -16.512474895683827 5.522801956918156 a38.411581451319336,38.411581451319336 0 0,0 -0.20432720470632734,-0.6288544741217044 l 16.605094351406404 -5.237748582818647" fill="#ffd614" stroke="none" /><path d="M 79.97269907076064 106.31721596034903 l -17.367816565663333 5.4783342195073175 a39.211348057712655,39.211348057712655 0 0,0 -0.19750051611665448,-0.6454431139726149 l 17.459543854286117 -5.178564132982655" fill="#ffe015" stroke="none" /><path d="M 79.76711848015287 105.62410040840567 l -29.035893567155256 8.071059018918003 a51.13677336627174,51.13677336627174 0 0,0 -0.2284399561506973,-0.8501100585863373 l 29.170521599647728 -7.5700580271561275" fill="#91ff24" stroke="none" /><path d="M 79.67330655649465 105.27499134158121 l -15.281809943111892 3.9657908630171885 a36.78800849716595,36.78800849716595 0 0,0 -0.1537890912223056,-0.6143109725699186 l 15.347810348629256 -3.702152051049878" fill="#ffc111" stroke="none" /><path d="M 79.58551787078972 104.9243191809786 l -13.237987775193538 3.193227078029607 a34.617673057759724,34.617673057759724 0 0,0 -0.13474423831154037,-0.5804746520617629 l 13.290992579435633 -2.96488376861927" fill="#ffa40f" stroke="none" /><path d="M 79.50377843672027 104.57218783832718 l -9.294302856785858 2.073323532160622 a30.522748346074717,30.522748346074717 0 0,0 -0.1099777663989395,-0.5137795111321694 l 9.328614661909238 -1.9130302016122889" fill="#ff6d0a" stroke="none" /><path d="M 79.4281124754447 104.21870165774334 l -8.076742846073541 1.656307346286334 a29.244824378175814,29.244824378175814 0 0,0 -0.09688401867164548,-0.49400952392696684 l 8.104056797720853 -1.5170340952914123" fill="#ff5b08" stroke="none" /><path d="M 79.35854240842038 103.8639653848113 l -19.82653425492411 3.711416295187104 a41.17092143353544,41.17092143353544 0 0,0 -0.12440197319674154,-0.6977123311062524 l 19.887482670460038 -3.3695852133476376" fill="#fff817" stroke="none" /><path d="M 79.29508885075956 103.50808413554451 l -11.729155691846064 1.987299762327463 a32.896321010670135,32.896321010670135 0 0,0 -0.08978854325235346,-0.5591133445422716 l 11.761625989459707 -1.7851071880919778" fill="#ff8d0d" stroke="none" /><path d="M 79.23777060512086 103.15116336523772 l -17.364199914227907 2.6354313689393423 a38.563056031387646,38.563056031387646 0 0,0 -0.09395787416885781,-0.6571411531002663 l 17.406991839413365 -2.336144743858675" fill="#ffd814" stroke="none" /><path d="M 79.18660465613746 102.79330883721812 l -40.01920560643388 5.3708680795257315 a61.378001947814326,61.378001947814326 0 0,0 -0.131519878718841,-1.0483428369520882 l 40.10572699439957 -4.681207488286235" fill="#30ff3a" stroke="none" /><path d="M 79.1416061653843 102.43462659150553 l -12.057577960036621 1.4073806527681305 a33.13943600683932,33.13943600683932 0 0,0 -0.06125698263517494,-0.5671635805486639 l 12.080017244172849 -1.1996207503346845" fill="#ff900d" stroke="none" /><path d="M 79.10278846688536 102.07522291339032 l -12.299295491787479 1.2213964424234047 a33.359792832562704,33.359792832562704 0 0,0 -0.05182746234645175,-0.57191172828032 l 12.318497550411006 -1.0095033255945187" fill="#ff930d" stroke="none" /><path d="M 79.07016306316243 101.71520430193888 l -11.70383579210339 0.959131672185649 a32.74307054450028,32.74307054450028 0 0,0 -0.0411992668420063,-0.5621312630892376 l 11.718611617609731 -0.7575272725996507" fill="#ff8b0c" stroke="none" /><path d="M 79.04373962182676 101.35467743843564 l -12.336517111555445 0.7974705934320986 a33.36226572239447,33.36226572239447 0 0,0 -0.03211300632901966,-0.5733993003021379 l 12.348416468771996 -0.584999576794523" fill="#ff930d" stroke="none" /><path d="M 79.0095281055655 100.63252640178507 l -19.70843797046588 0.5938936207321976 a40.71738412843975,40.71738412843975 0 0,0 -0.015080821970546509,-0.7007465380192139 l 19.71574085512143 -0.25455726692285485" fill="#fff316" stroke="none" /><line stroke="#e1ed5e" stroke-width="0.3" x1="15.007084014347285" x2="10.007500721073583" y1="101.09737516637583" y2="101.16192664675087" /><path d="M 14.007167355692545 101.11028546245083 a86.0,86.0 0 0,1 10.666146001902534,-42.60595125391555" fill="none" id="id10" stroke="none" /><text fill="#e1ed5e" style="font-size:6.75px; font-family:Arial;" text-anchor="middle"><textPath startOffset="22.20632615414155" xlink:href="#id10">October</textPath></text><path d="M 79.00019446554 99.90962569577889 l -18.827416865697323 -0.08102525981615641 a39.82759121415887,39.82759121415887 0 0,0 0.008851194510238766,-0.6855347691765589 l 18.82323266406937 0.40509628705318723" fill="#ffe815" stroke="none" /><path d="M 79.00486145842228 99.54816195383935 l -26.869115976310074 -0.5782523816528952 a47.875337563745845,47.875337563745845 0 0,0 0.02482291921110467,-0.823751841137472 l 26.85518136264332 1.0406743702153616" fill="#b6ff1f" stroke="none" /><path d="M 79.08570108090925 98.10471618934814 l -9.698809083530461 -0.8789200111240248 a30.738552152385243,30.738552152385243 0 0,0 0.05228902072618653,-0.5265433028538559 l 9.682242937122046 1.045738844682311" fill="#ff700a" stroke="none" /><path d="M 79.12142395522702 97.74499172005258 l -12.299182935491945 -1.3283836645107738 a33.370711541412454,33.370711541412454 0 0,0 0.06659784479617416,-0.5705696635951879 l 12.274494737692182 1.5398970664308234" fill="#ff940d" stroke="none" /><path d="M 79.16333360222342 97.38593545837743 l -10.138091340140358 -1.2718745209079887 a31.21756139291386,31.21756139291386 0 0,0 0.07147929768709521,-0.5326037929786409 l 10.11469604339543 1.446196655951289" fill="#ff760a" stroke="none" /><path d="M 79.21141760316559 97.0276538004421 l -19.019748289967996 -2.71943875090025 a40.213177044248525,40.213177044248525 0 0,0 0.10387275527297252,-0.684391674721351 l 18.97011964125572 3.046429538013693" fill="#ffec16" stroke="none" /><path d="M 79.26566170972629 96.67025291283419 l -19.181922128527646 -3.0804431006929023 a40.4276932815377,40.4276932815377 0 0,0 0.11625491144302133,-0.6861430681499409 l 19.1260553555644 3.410171957158671" fill="#ffef16" stroke="none" /><path d="M 79.32604984820605 96.31383870115002 l -5.647857280985696 -1.0070118568410618 a26.736929905986443,26.736929905986443 0 0,0 0.08468512083664095,-0.4523913017592161 l 5.629686436239194 1.1040812360628507" fill="#ff3705" stroke="none" /><path d="M 79.46518482838121 95.60439243477599 l -9.313449630853945 -1.993603025572648 a30.524431586715604,30.524431586715604 0 0,0 0.11440209997365801,-0.5128421821843829 l 9.27775314387825 2.15362337730699" fill="#ff6d0a" stroke="none" /><path d="M 79.62865764111835 94.90015583598534 l -10.892697757649618 -2.726921972596731 a32.22884534955112,32.22884534955112 0 0,0 0.13935701796780134,-0.5369994375352769 l 10.844144407811509 2.914017835680872" fill="#ff840c" stroke="none" /><path d="M 79.81627453868168 94.20196356495316 l -13.712871952188895 -3.9391999935937525 a35.26745085033265,35.26745085033265 0 0,0 0.17263266530080537,-0.5820315270993368 l 13.643033389776381 4.174660907439629" fill="#ffad10" stroke="none" /><path d="M 79.91906864156998 93.8553929516997 l -11.598332348640026 -3.5489984715307945 a33.129167466089235,33.129167466089235 0 0,0 0.1715531090124778,-0.5438702366840813 l 11.535523755859344 3.7481188746412903" fill="#ff900d" stroke="none" /><path d="M 80.02781315780177 93.51064311812611 l -18.264581914204424 -5.934522407384332 a40.20451792429141,40.20451792429141 0 0,0 0.2195218489428827,-0.6563423870708907 l 18.15972277148977 6.248037897377545" fill="#ffec16" stroke="none" /><path d="M 80.38941819471856 92.48833698450439 l -18.17046507432433 -6.960038811107475 a40.457850376374125,40.457850376374125 0 0,0 0.25470422750848143,-0.6481944770909233 l 18.04796729693416 7.271782293094162" fill="#ffef16" stroke="none" /><path d="M 80.803312248108 91.48605970444005 l -17.84326724680513 -7.913683546894509 a40.519440906985466,40.519440906985466 0 0,0 0.2882624090211437,-0.6351480076478043 l 17.704402520820633 8.219653563384384" fill="#fff016" stroke="none" /><path d="M 80.95270993114464 91.15688171328213 l -18.123730744118735 -8.414335802494485 a40.98175825803263,40.98175825803263 0 0,0 0.3025659914221949,-0.6372811418831812 l 17.976206558854788 8.725059360018198" fill="#fff617" stroke="none" /><line stroke="#e1ed5e" stroke-width="0.3" x1="26.266209847984243" x2="21.928928074336255" y1="57.711370442889674" y2="55.22380399835377" /><path d="M 25.398753493254645 57.213857153982495 a86.0,86.0 0 0,1 29.58750427330803,-30.492523968695096" fill="none" id="id11" stroke="none" /><text fill="#e1ed5e" style="font-size:6.75px; font-family:Arial;" text-anchor="middle"><textPath startOffset="21.46611528233685" xlink:href="#id11">November</textPath></text><path d="M 82.15384107792192 88.93136811851018 l -17.833050163813976 -11.06050150339096 a41.984574612119715,41.984574612119715 0 0,0 0.38620291421018543,-0.6108802634500574 l 17.640019653357825 11.365829414555233" fill="#fcff18" stroke="none" /><path d="M 82.34701348167596 88.62581576622439 l -16.528675020750335 -10.649767087912988 a40.66251858151368,40.66251858151368 0 0,0 0.3841705000663525,-0.5851180280240902 l 16.34290788532606 10.932703179914746" fill="#fff216" stroke="none" /><path d="M 82.7489923806493 88.02491185347247 l -9.37797936035472 -6.5098881152074055 a32.41600368586826,32.41600368586826 0 0,0 0.3221338516967464,-0.4556354882483549 l 9.264532888854095 6.670350103787547" fill="#ff870c" stroke="none" /><path d="M 82.95767976084542 87.72973835380427 l -14.685466641929613 -10.5733559494417 a39.09582235005698,39.09582235005698 0 0,0 0.39791613955868,-0.5427571671708923 l 14.5012878898573 10.824575560284092" fill="#ffde14" stroke="none" /><path d="M 83.39014120810768 87.1503855733568 l -8.713840248496817 -6.741146253645694 a32.01698981979036,32.01698981979036 0 0,0 0.34097472023145164,-0.43300326816896684 l 8.596511447671395 6.890141915767709" fill="#ff810b" stroke="none" /><path d="M 83.6137871275137 86.86637796730984 l -9.651570321063726 -7.735776265400583 a33.369116544473705,33.369116544473705 0 0,0 0.3630901642138495,-0.4451056090619016 l 9.516981664773484 7.900766044070567" fill="#ff940d" stroke="none" /><path d="M 84.5562425177563 85.77008943001954 l -9.100412038335314 -8.385138759422643 a33.37449196057156,33.37449196057156 0 0,0 0.3929173821565522,-0.41913686791239835 l 8.954727334208306 8.540545044213092" fill="#ff940d" stroke="none" /><path d="M 84.80347519578584 85.50635884689758 l -8.769303785213694 -8.363697875858039 a33.11825610539716,33.11825610539716 0 0,0 0.39700231359813565,-0.40914578165146387 l 8.62403720791244 8.513407853059627" fill="#ff900d" stroke="none" /><path d="M 85.05521093208273 85.24692304244772 l -8.806715165899037 -8.693742413847131 a33.37495006743868,33.37495006743868 0 0,0 0.40711749421339555,-0.4053692023117296 l 8.655761871518328 8.844047466808972" fill="#ff940d" stroke="none" /><path d="M 85.31137513191541 84.99185889309783 l -3.7919929464059967 -3.8744787702826105 a26.421327904394225,26.421327904394225 0 0,0 0.32777136405263047,-0.31531579252571573 l 3.7247383387409387 3.93917764957064" fill="#ff3304" stroke="none" /><path d="M 86.10567301691215 84.25364557470407 l -7.702280297486434 -8.728946396239309 a32.64128974682217,32.64128974682217 0 0,0 0.42450184047736295,-0.3681238129513686 l 7.550884658362297 8.860235202610358" fill="#ff8a0c" stroke="none" /><path d="M 86.37877921826538 84.01681056812374 l -3.4322153839648646 -4.027373869930356 a26.29148776150176,26.29148776150176 0 0,0 0.34697560358247637,-0.2905820895161574 l 3.362382243423278 4.085857116840327" fill="#ff3104" stroke="none" /><path d="M 86.65592168130627 83.78471172551755 l -7.123279429119733 -8.655976579592968 a32.210131148732486,32.210131148732486 0 0,0 0.4311503998904964,-0.3486269722109276 l 6.973225630664736 8.77730964906803" fill="#ff840c" stroke="none" /><path d="M 86.93701828274178 83.55741782278169 l -6.27001385802734 -7.892165842711651 a31.07965056282803,31.07965056282803 0 0,0 0.4217470765441439,-0.32918028288398155 l 6.133234226323771 7.998924514818855" fill="#ff740a" stroke="none" /><path d="M 88.39885842347998 82.49532879139004 l -6.498885940872482 -9.80600580269405 a32.76406682550466,32.76406682550466 0 0,0 0.4727901246445261,-0.3075158485817075 l 6.329128790443669 9.916420575435293" fill="#ff8b0c" stroke="none" /><path d="M 88.70189139769569 82.29822771554957 l -3.7575954400577296 -5.887365855504778 a27.984311004509046,27.984311004509046 0 0,0 0.40827890123048904,-0.255664210494955 l 3.6556973864549986 5.951174407322663" fill="#ff4906" stroke="none" /><line stroke="#e1ed5e" stroke-width="0.3" x1="56.762969772571076" x2="54.21961505331055" y1="26.818313649435495" y2="22.513508569990535" /><path d="M 56.25429882871897 25.957352633546506 a86.0,86.0 0 0,1 42.265352541879196,-11.944610805530505" fill="none" id="id12" stroke="none" /><text fill="#e1ed5e" style="font-size:6.75px; font-family:Arial;" text-anchor="middle"><textPath startOffset="22.20632615414155" xlink:href="#id12">December</textPath></text><path d="M 90.26544431104013 81.39251694778311 l -2.904896116222051 -5.55267307293282 a27.266625862528826,27.266625862528826 0 0,0 0.41775004333855376,-0.21398779769771956 l 2.8088855852947336 5.601853395943045" fill="#ff3f05" stroke="none" /><path d="M 91.23893434514133 80.91482961587045 l -4.526356875164952 -9.860249378908785 a31.84953567557728,31.84953567557728 0 0,0 0.5002164944921804,-0.22443256011780696 l 4.355958262205998 9.936702269543122" fill="#ff7f0b" stroke="none" /><path d="M 91.56875222667455 80.76684994638697 l -4.324740340398348 -9.865488732634851 a31.771780119628048,31.771780119628048 0 0,0 0.5027751703651135,-0.21526208918491643 l 4.154281412242926 9.938470349782554" fill="#ff7e0b" stroke="none" /><path d="M 92.91201910852362 80.23233633223022 l -3.563976902429011 -9.93957204535325 a31.55921511315189,31.55921511315189 0 0,0 0.5129394312265086,-0.17895449572518235 l 3.392355467139217 9.999447394250641" fill="#ff7b0b" stroke="none" /><path d="M 93.25333710446033 80.11325718540243 l -4.133587903436907 -12.184334805215709 a33.86641222723067,33.86641222723067 0 0,0 0.5536629079346664,-0.18253395584294207 l 3.9232421732598315 12.253682485317885" fill="#ff9a0e" stroke="none" /><path d="M 93.59665428221793 80.00007090966166 l -2.978931398543912 -9.304263639929909 a30.76951145956401,30.76951145956401 0 0,0 0.5058135919231596,-0.15715874518492523 l 2.8183324339100233 9.35416251999736" fill="#ff700a" stroke="none" /><path d="M 93.94186890950719 79.89281104454417 l -2.0119241122227427 -6.677659773983132 a27.974165089128284,27.974165089128284 0 0,0 0.4622528065213083,-0.1349442700301377 l 1.896681087978013 6.711302372931969" fill="#ff4906" stroke="none" /><path d="M 96.04723909329186 79.375362276772 l -1.5046390756483996 -7.850876026120407 a28.993759636458943,28.993759636458943 0 0,0 0.49096773258546683,-0.08972121494322563 l 1.3692762219600394 7.875612722414369" fill="#ff5708" stroke="none" /><path d="M 96.40284397218896 79.31037775812273 l -0.6676978160146899 -3.8403715263574068 a24.897983303449042,24.897983303449042 0 0,0 0.42287540335152096,-0.06977806488927367 l 0.6014932065242833 3.851295854186308" fill="#ff1d02" stroke="none" /><path d="M 97.47563105711357 79.15227682838746 l -1.1702768716739536 -9.66483458115377 a30.73542887794065,30.73542887794065 0 0,0 0.5257709254697728,-0.059076489587157485 l 1.0037392426944627 9.683547024211524" fill="#ff700a" stroke="none" /><path d="M 97.83486435360386 79.11191278185805 l -0.9854750389840986 -9.507343616029221 a30.558281419047688,30.558281419047688 0 0,0 0.5236741734295514,-0.049729172764182414 l 0.821675738464311 9.522898333308584" fill="#ff6d0a" stroke="none" /><path d="M 98.19473922651362 79.07773832637324 l -0.4578652696943128 -5.306478224367385 a26.326194866025602,26.326194866025602 0 0,0 0.45181994792736085,-0.03506992375964376 l 0.36645513240461774 5.313573410315491" fill="#ff3204" stroke="none" /></svg>