<?xml version="1.0" encoding="utf-8" ?>
<svg baseProfile="full" height="200mm" version="1.1" viewBox="0,0,200,200" width="200mm" xmlns="http://www.w3.org/2000/svg" xmlns:ev="http://www.w3.org/2001/xml-events" xmlns:xlink="http://www.w3.org/1999/xlink"><defs /><rect fill="#1a1a1a" height="200" width="200" x="0" y="0" /><text alignment-baseline="middle" fill="#e1ed5e" style="dominant-baseline: central; font-size:9.0px; font-family:Arial;" text-anchor="middle" x="100.0" y="100.0">2025</text><line stroke="#e1ed5e" stroke-width="0.3" x1="100.0" x2="100.0" y1="15.0" y2="10.0" /><path d="M 100.0 14.0 a86.0,86.0 0 0,1 42.46469731375804,11.215312516191453" fill="none" id="id85" stroke="none" /><text fill="#e1ed5e" style="font-size:6.75px; font-family:Arial;" text-anchor="middle"><textPath startOffset="22.20632615414155" xlink:href="#id85">January</textPath></text><path d="M 100.0 79.0 l 0.0 -63.0 a84.0,84.0 0 0,0 1.4459219170901134,0.012445506434235476 l -1.084441437817585 62.990665870174325" fill="#4dd2ff" stroke="none" /><path d="M 101.08401301168833 79.027996857942 l 2.3624847386553323 -45.70612790429213 a66.7671439150827,66.7671439150827 0 0,0 1.1472437816737722,0.06920487789743213 l -3.1488905691687163 45.6586897570144" fill="#35ff6a" stroke="none" /><path d="M 101.80526077348638 79.07773832637324 l 1.488076767528177 -17.246223912871248 a38.31030362873364,38.31030362873364 0 0,0 0.6565197928345083,0.062344465046198304 l -1.7847216874529295 17.21805390330987" fill="#ffa30f" stroke="none" /><path d="M 102.16513564639614 79.11191278185805 l 1.068639549945762 -10.309670971967842 a31.364907430264132,31.364907430264132 0 0,0 0.5365390042993379,0.06028640870978474 l -1.2459452577548251 10.289748609787456" fill="#ff3b05" stroke="none" /><path d="M 102.52436894288641 79.15227682838746 l 2.0800152016389517 -17.177988676620327 a38.303460873858306,38.303460873858306 0 0,0 0.6538679319263899,0.08489082369934511 l -2.375397862073188 17.139639529756842" fill="#ffa30f" stroke="none" /><path d="M 102.88285421437855 79.19881850522331 l 2.898709556737572 -20.915585425584784 a42.115497408047396,42.115497408047396 0 0,0 0.7172289656092521,0.1057009055099292 l -3.2583075027754798 20.862590035913886" fill="#ffd814" stroke="none" /><path d="M 103.2404852339499 79.25152402106235 l 2.896470649967555 -18.545787857609106 a39.77060972599358,39.77060972599358 0 0,0 0.6754769020624335,0.11145947654973486 l -3.215276758168864 18.493182118119744" fill="#ffb811" stroke="none" /><path d="M 103.59715602781102 79.31037775812273 l 3.0238487412655073 -17.392153048037326 a38.65306344112565,38.65306344112565 0 0,0 0.6545341878087323,0.11961193914480556 l -3.3227780501771407 17.337525627541783" fill="#ffa80f" stroke="none" /><path d="M 104.307194497241 79.44645832069477 l 3.2664078891296047 -15.58700233617061 a36.925578869414956,36.925578869414956 0 0,0 0.6209779448846018,0.13572172684358 l -3.5342285581677344 15.528467111231159" fill="#ff8f0d" stroke="none" /><path d="M 104.66035177308747 79.52364482259891 l 4.234144139196228 -18.60371136942194 a40.079466798321405,40.079466798321405 0 0,0 0.6713812885153074,0.15889425953212324 l -4.5537491146740585 18.528071197748947" fill="#ffbc11" stroke="none" /><path d="M 105.01212808612495 79.60689891045804 l 3.885704572876402 -15.809964309995976 a37.28046901999507,37.28046901999507 0 0,0 0.6218579487313127,0.15852543737642394 l -4.15727141029274 15.740735876450685" fill="#ff940d" stroke="none" /><path d="M 105.36241919743992 79.69619591428918 l 4.734760671975075 -17.92729168253121 a39.541999506294744,39.541999506294744 0 0,0 0.6565894615314267,0.17947070264714007 l -5.042648022730212 17.843134439057774" fill="#ffb410" stroke="none" /><path d="M 106.0581310904928 79.89281104454417 l 9.210393090746535 -30.569677589231727 a52.92705011108367,52.92705011108367 0 0,0 0.87005675607709,0.27033086933242423 l -9.735235219534344 30.40660658501678" fill="#9aff23" stroke="none" /><path d="M 106.40334571778207 80.00007090966166 l 5.378715561973457 -16.799644213779686 a38.63968896568748,38.63968896568748 0 0,0 0.6316985221490776,0.2082610709432215 l -5.667096906364952 16.70456941857723" fill="#ffa80f" stroke="none" /><path d="M 106.74666289553966 80.11325718540242 l 5.126098146802597 -15.109899081402736 a36.955749197728956,36.955749197728956 0 0,0 0.6006505835480538,0.20955519451654486 l -5.385430734413924 15.019423033713982" fill="#ff8f0d" stroke="none" /><path d="M 107.76421540070413 80.48803036053334 l 11.875167168902188 -29.843054230849543 a53.118958281905705,53.118958281905705 0 0,0 0.8466558175054931,0.3453721662220393 l -12.387106855996068 29.634221178443923" fill="#97ff23" stroke="none" /><path d="M 108.43124777332544 80.76684994638697 l 15.310488273244601 -34.9259002072065 a59.134361885954085,59.134361885954085 0 0,0 0.9287414268116263,0.41669920604758653 l -15.909411818523008 34.65718067064238" fill="#52ff2b" stroke="none" /><path d="M 109.73455568895987 81.39251694778311 l 7.440699315331797 -14.222804905590086 a37.051547765983706,37.051547765983706 0 0,0 0.5625747399512758,0.3005079428849253 l -7.684419101811384 14.092618236203407" fill="#ff910d" stroke="none" /><path d="M 110.05341064243156 81.56283822128135 l 3.1692440204420635 -5.812143440605992 a27.62005430757838,27.62005430757838 0 0,0 0.415452848299342,0.23119906027732884 l -3.268820957813441 5.756728982768484" fill="#ff0000" stroke="none" /><path d="M 110.36928655335952 81.73862282372117 l 7.933540886006803 -13.971779226784033 a37.067099481609475,37.067099481609475 0 0,0 0.552129039803818,0.31982877731795656 l -8.17286665827595 13.833146292076027" fill="#ff910d" stroke="none" /><line stroke="#e1ed5e" stroke-width="0.3" x1="143.23703022742887" x2="145.7803849466894" y1="26.81831364943548" y2="22.513508569990506" /><path d="M 143.74570117128098 25.957352633546492 a86.0,86.0 0 0,1 28.547481713284135,27.462654790039103" fill="none" id="id86" stroke="none" /><text fill="#e1ed5e" style="font-size:6.75px; font-family:Arial;" text-anchor="middle"><textPath startOffset="19.985693538727396" xlink:href="#id86">February</textPath></text><line stroke="#e1ed5e" stroke-width="0.3" x1="172.23445277983987" x2="176.4835382374775" y1="55.19839476539836" y2="52.563006222186495" /><path d="M 173.08426987136738 54.67131705675599 a86.0,86.0 0 0,1 12.851231095245387,41.99856678651699" fill="none" id="id87" stroke="none" /><text fill="#e1ed5e" style="font-size:6.75px; font-family:Arial;" text-anchor="middle"><textPath startOffset="22.20632615414155" xlink:href="#id87">March</textPath></text><line stroke="#e1ed5e" stroke-width="0.3" x1="184.98032266829074" x2="189.97916517819016" y1="98.17113171792111" y2="98.06355123074" /><path d="M 185.9800911702706 98.14961562048488 a86.0,86.0 0 0,1 -9.607161424134198,41.387399972396054" fill="none" id="id88" stroke="none" /><text fill="#e1ed5e" style="font-size:6.75px; font-family:Arial;" text-anchor="middle"><textPath startOffset="21.466115282336823" xlink:href="#id88">April</textPath></text><line stroke="#e1ed5e" stroke-width="0.3" x1="174.80103733775053" x2="179.2010983576182" y1="140.37084112569926" y2="142.7455964860345" /><path d="M 175.68104954172406 140.8457921977663 a86.0,86.0 0 0,1 -30.038265399797805,32.042727171017184" fill="none" id="id89" stroke="none" /><text fill="#e1ed5e" style="font-size:6.75px; font-family:Arial;" text-anchor="middle"><textPath startOffset="22.206326154141568" xlink:href="#id89">May</textPath></text><line stroke="#e1ed5e" stroke-width="0.3" x1="143.8653032363475" x2="146.44561519142675" y1="172.8068346515853" y2="177.08958963109032" /><path d="M 144.38136562736335 173.6633856474863 a86.0,86.0 0 0,1 -40.68145358897372,12.25698825130547" fill="none" id="id90" stroke="none" /><text fill="#e1ed5e" style="font-size:6.75px; font-family:Arial;" text-anchor="middle"><textPath startOffset="21.466115282336833" xlink:href="#id90">June</textPath></text><line stroke="#e1ed5e" stroke-width="0.3" x1="102.19456741930631" x2="102.32365962044197" y1="184.97166512339345" y2="189.96999836594603" /><path d="M 102.22038585953345 185.97133177190398 a86.0,86.0 0 0,1 -42.740103519485714,-10.115201625700543" fill="none" id="id91" stroke="none" /><text fill="#e1ed5e" style="font-size:6.75px; font-family:Arial;" text-anchor="middle"><textPath startOffset="22.20632615414155" xlink:href="#id91">July</textPath></text><line stroke="#e1ed5e" stroke-width="0.3" x1="58.666819895761336" x2="56.23545636021788" y1="174.27360380694188" y2="178.64263932499728" /><path d="M 58.180547188652646 175.14741091055294 a86.0,86.0 0 0,1 -31.652253787137756,-30.449443065178592" fill="none" id="id92" stroke="none" /><text fill="#e1ed5e" style="font-size:6.75px; font-family:Arial;" text-anchor="middle"><textPath startOffset="22.20632615414155" xlink:href="#id92">August</textPath></text><line stroke="#e1ed5e" stroke-width="0.3" x1="26.63291911575756" x2="22.317208475507996" y1="142.92168965132927" y2="145.44649492493687" /><path d="M 25.769776987707644 143.4266507060508 a86.0,86.0 0 0,1 -11.730757126820373,-40.83630448921669" fill="none" id="id93" stroke="none" /><text fill="#e1ed5e" style="font-size:6.75px; font-family:Arial;" text-anchor="middle"><textPath startOffset="21.46611528233685" xlink:href="#id93">September</textPath></text><line stroke="#e1ed5e" stroke-width="0.3" x1="15.007084014347285" x2="10.007500721073583" y1="101.09737516637583" y2="101.16192664675087" /><path d="M 14.007167355692545 101.11028546245083 a86.0,86.0 0 0,1 10.666146001902534,-42.60595125391555" fill="none" id="id94" stroke="none" /><text fill="#e1ed5e" style="font-size:6.75px; font-family:Arial;" text-anchor="middle"><textPath startOffset="22.20632615414155" xlink:href="#id94">October</textPath></text><line stroke="#e1ed5e" stroke-width="0.3" x1="26.266209847984243" x2="21.928928074336255" y1="57.711370442889674" y2="55.22380399835377" /><path d="M 25.398753493254645 57.213857153982495 a86.0,86.0 0 0,1 29.58750427330803,-30.492523968695096" fill="none" id="id95" stroke="none" /><text fill="#e1ed5e" style="font-size:6.75px; font-family:Arial;" text-anchor="middle"><textPath startOffset="21.46611528233685" xlink:href="#id95">November</textPath></text><line stroke="#e1ed5e" stroke-width="0.3" x1="56.762969772571076" x2="54.21961505331055" y1="26.818313649435495" y2="22.513508569990535" /><path d="M 56.25429882871897 25.957352633546506 a86.0,86.0 0 0,1 42.265352541879196,-11.944610805530505" fill="none" id="id96" stroke="none" /><text fill="#e1ed5e" style="font-size:6.75px; font-family:Arial;" text-anchor="middle"><textPath startOffset="22.20632615414155" xlink:href="#id96">December</textPath></text></svg>