<?xml version="1.0" encoding="utf-8" ?>
<svg baseProfile="full" height="200mm" version="1.1" viewBox="0,0,200,200" width="200mm" xmlns="http://www.w3.org/2000/svg" xmlns:ev="http://www.w3.org/2001/xml-events" xmlns:xlink="http://www.w3.org/1999/xlink"><defs /><rect fill="#1a1a1a" height="200" width="200" x="0" y="0" /><text alignment-baseline="middle" fill="#e1ed5e" style="dominant-baseline: central; font-size:9.5px; font-family:Arial;" text-anchor="middle" x="105.0" y="100.0">2018</text><line stroke="#e1ed5e" stroke-width="0.3" x1="105.0" x2="105.0" y1="10.0" y2="5.0" /><path d="M 105.0 9.0 a91.0,91.0 0 0,1 44.93357506455793,11.867365569458398" fill="none" id="id1" stroke="none" /><text fill="#e1ed5e" style="font-size:7.125px; font-family:Arial;" text-anchor="middle"><textPath startOffset="23.497391628219546" xlink:href="#id1">January</textPath></text><line stroke="#e1ed5e" stroke-width="0.3" x1="150.7803849466894" x2="153.32373966594992" y1="22.513508569990506" y2="18.208703490545545" /><path d="M 151.2890558905415 21.652547554101517 a91.0,91.0 0 0,1 30.207219022196004,29.05932076620417" fill="none" id="id2" stroke="none" /><text fill="#e1ed5e" style="font-size:7.125px; font-family:Arial;" text-anchor="middle"><textPath startOffset="21.14765246539759" xlink:href="#id2">February</textPath></text><line stroke="#e1ed5e" stroke-width="0.3" x1="181.4835382374775" x2="185.73262369511514" y1="52.563006222186495" y2="49.927617678974634" /><path d="M 182.33335532900503 52.03592851354413 a91.0,91.0 0 0,1 13.598395693806166,44.44034392526798" fill="none" id="id3" stroke="none" /><text fill="#e1ed5e" style="font-size:7.125px; font-family:Arial;" text-anchor="middle"><textPath startOffset="23.497391628219546" xlink:href="#id3">March</textPath></text><line stroke="#e1ed5e" stroke-width="0.3" x1="194.97916517819016" x2="199.97800768808963" y1="98.06355123074" y2="97.95597074355888" /><path d="M 195.9789336801701 98.04203513330377 a91.0,91.0 0 0,1 -10.165717320886186,43.793644156837686" fill="none" id="id4" stroke="none" /><text fill="#e1ed5e" style="font-size:7.125px; font-family:Arial;" text-anchor="middle"><textPath startOffset="22.714145240612222" xlink:href="#id4">April</textPath></text><path d="M 126.79640463911215 104.46981485165664 l 34.08621930316661 6.990101890690774 a57.04557257505338,57.04557257505338 0 0,0 -0.20554324216218858,0.9602295985130168 l -33.96084594854638 -7.575804464537589" fill="red" stroke="none" /><line stroke="#e1ed5e" stroke-width="0.3" x1="184.2010983576182" x2="188.60115937748589" y1="142.7455964860345" y2="145.12035184636974" /><path d="M 185.08111056159174 143.22054755810154 a91.0,91.0 0 0,1 -31.78467617885582,33.90567642514608" fill="none" id="id5" stroke="none" /><text fill="#e1ed5e" style="font-size:7.125px; font-family:Arial;" text-anchor="middle"><textPath startOffset="23.497391628219564" xlink:href="#id5">May</textPath></text><line stroke="#e1ed5e" stroke-width="0.3" x1="151.44561519142675" x2="154.02592714650604" y1="177.08958963109032" y2="181.37234461059535" /><path d="M 151.9616775824426 177.94614062699134 a91.0,91.0 0 0,1 -43.04665437903033,12.969603847311603" fill="none" id="id6" stroke="none" /><text fill="#e1ed5e" style="font-size:7.125px; font-family:Arial;" text-anchor="middle"><textPath startOffset="22.714145240612233" xlink:href="#id6">June</textPath></text><path d="M 112.68987395692382 120.87889696623422 l 21.9835287757957 59.68782256187904 a85.85748147517393,85.85748147517393 0 0,0 -1.3912200723617423,0.4988420207096211 l -20.952843930861977 -60.05738947726195" fill="red" stroke="none" /><path d="M 110.86655721319816 121.46266540913017 l 17.5996716395945 64.3879962273905 a89.0,89.0 0 0,0 -1.481254789989368,0.39121285295147745 l -16.488730547102474 -64.6814058671041" fill="red" stroke="none" /><path d="M 108.24403213146722 122.01224103834065 l 7.401081767474127 50.219723235732964 a73.01215729460732,73.01215729460732 0 0,0 -1.2449317153794655,0.17253619190796832 l -6.535535235241949 -50.33968009822238" fill="red" stroke="none" /><line stroke="#e1ed5e" stroke-width="0.3" x1="107.32365962044197" x2="107.45275182157765" y1="189.96999836594603" y2="194.96833160849857" /><path d="M 107.34947806066911 190.96966501445652 a91.0,91.0 0 0,1 -45.22499325899069,-10.70329474347383" fill="none" id="id7" stroke="none" /><text fill="#e1ed5e" style="font-size:7.125px; font-family:Arial;" text-anchor="middle"><textPath startOffset="23.497391628219546" xlink:href="#id7">July</textPath></text><line stroke="#e1ed5e" stroke-width="0.3" x1="61.23545636021788" x2="58.804092824674434" y1="178.64263932499728" y2="183.01167484305267" /><path d="M 60.74918365310919 179.51644642860833 a91.0,91.0 0 0,1 -33.49250110034344,-32.21975952245642" fill="none" id="id8" stroke="none" /><text fill="#e1ed5e" style="font-size:7.125px; font-family:Arial;" text-anchor="middle"><textPath startOffset="23.497391628219546" xlink:href="#id8">August</textPath></text><line stroke="#e1ed5e" stroke-width="0.3" x1="27.317208475507996" x2="23.001497835258448" y1="145.44649492493687" y2="147.9713001985445" /><path d="M 26.454066347458095 145.95145597965842 a91.0,91.0 0 0,1 -12.412777890007606,-43.210508238589746" fill="none" id="id9" stroke="none" /><text fill="#e1ed5e" style="font-size:7.125px; font-family:Arial;" text-anchor="middle"><textPath startOffset="22.71414524061225" xlink:href="#id9">September</textPath></text><line stroke="#e1ed5e" stroke-width="0.3" x1="15.007500721073583" x2="10.007917427799896" y1="101.16192664675087" y2="101.22647812712593" /><path d="M 14.007584062418857 101.17483694282589 a91.0,91.0 0 0,1 11.286270769455006,-45.08304144309669" fill="none" id="id10" stroke="none" /><text fill="#e1ed5e" style="font-size:7.125px; font-family:Arial;" text-anchor="middle"><textPath startOffset="23.497391628219546" xlink:href="#id10">October</textPath></text><line stroke="#e1ed5e" stroke-width="0.3" x1="26.928928074336255" x2="22.591646300688268" y1="55.22380399835377" y2="52.73623755381787" /><path d="M 26.061471719606658 54.726290709446594 a91.0,91.0 0 0,1 31.307708010128266,-32.26534512966574" fill="none" id="id11" stroke="none" /><text fill="#e1ed5e" style="font-size:7.125px; font-family:Arial;" text-anchor="middle"><textPath startOffset="22.71414524061225" xlink:href="#id11">November</textPath></text><line stroke="#e1ed5e" stroke-width="0.3" x1="59.21961505331055" x2="56.67626033405003" y1="22.513508569990535" y2="18.20870349054556" /><path d="M 58.710944109458445 21.65254755410153 a91.0,91.0 0 0,1 44.72264048036054,-12.639064922131116" fill="none" id="id12" stroke="none" /><text fill="#e1ed5e" style="font-size:7.125px; font-family:Arial;" text-anchor="middle"><textPath startOffset="23.497391628219546" xlink:href="#id12">December</textPath></text><path d="M 98.58126586840643 78.69595455910039 l -16.624118029482975 -55.17613888566793 a79.87610174728721,79.87610174728721 0 0,0 1.3198946988775229,-0.3853134564981064 l 15.67188845706516 55.45412080971085" fill="red" stroke="none" /></svg>