<?xml version="1.0" encoding="utf-8" ?>
<svg baseProfile="full" height="200mm" version="1.1" viewBox="0,0,200,200" width="200mm" xmlns="http://www.w3.org/2000/svg" xmlns:ev="http://www.w3.org/2001/xml-events" xmlns:xlink="http://www.w3.org/1999/xlink"><defs /><rect fill="#1a1a1a" height="200" width="200" x="0" y="0" /><text alignment-baseline="middle" fill="#e1ed5e" style="dominant-baseline: central; font-size:9.5px; font-family:Arial;" text-anchor="middle" x="105.0" y="100.0">2023</text><line stroke="#e1ed5e" stroke-width="0.3" x1="105.0" x2="105.0" y1="10.0" y2="5.0" /><path d="M 105.0 9.0 a91.0,91.0 0 0,1 44.93357506455793,11.867365569458398" fill="none" id="id61" stroke="none" /><text fill="#e1ed5e" style="font-size:7.125px; font-family:Arial;" text-anchor="middle"><textPath startOffset="23.497391628219546" xlink:href="#id61">January</textPath></text><path d="M 107.6746289990106 77.91134092531529 l 2.1573647911573977 -17.816787071863846 a40.19692520757415,40.19692520757415 0 0,0 0.6861907450565249,0.08908725251458491 l -2.4637318557043786 17.777011834092022" fill="#ffd013" stroke="none" /><path d="M 109.56357512207677 78.22303322073614 l 0.6880605493952445 -3.2833625667333095 a25.604682855987974,25.604682855987974 0 0,0 0.43059428792064663,0.09411123342944508 l -0.7444762950499862 3.2710322698451444" fill="#ff1202" stroke="none" /><path d="M 110.68161081633517 78.48763614728257 l 1.3056560053133028 -4.943623905395005 a27.363135527462934,27.363135527462934 0 0,0 0.45436110075638064,0.1241940524267349 l -1.3905589172709962 4.920416732330887" fill="#ff2a04" stroke="none" /><path d="M 111.41873413159355 78.69595455910037 l 3.3018403378330543 -10.958945354903978 a33.69555079095423,33.69555079095423 0 0,0 0.553914143219349,0.17210382061413942 l -3.4899913640435214 10.90048591518812" fill="#ff7e0b" stroke="none" /><path d="M 112.14824997265511 78.92952249405732 l 2.5675857982425323 -7.568322178631426 a30.2419958352655,30.2419958352655 0 0,0 0.4915303529342688,0.17148528868728907 l -2.6974816078628887 7.523004081225965" fill="#ff5107" stroke="none" /><path d="M 112.86929371842427 79.18806312778246 l 3.254654986064946 -8.607592566057505 a31.45235996152975,31.45235996152975 0 0,0 0.5047607051202834,0.19583931165861215 l -3.40233833029202 8.550293722895814" fill="#ff6109" stroke="none" /><path d="M 114.97310285372413 80.11031122744653 l 5.130611513913766 -10.232148181096745 a33.69639816303041,33.69639816303041 0 0,0 0.5162601292851694,0.2644484898720732 l -5.30598096933464 10.14231713464357" fill="#ff7e0b" stroke="none" /><path d="M 115.98650599105949 80.6516360870379 l 2.944302925225558 -5.185219442252287 a28.21283660515722,28.21283660515722 0 0,0 0.4202413084054749,0.24343089052801511 l -3.033121723981202 5.133769861156243" fill="#ff3605" stroke="none" /><line stroke="#e1ed5e" stroke-width="0.3" x1="150.7803849466894" x2="153.32373966594992" y1="22.513508569990506" y2="18.208703490545545" /><path d="M 151.2890558905415 21.652547554101517 a91.0,91.0 0 0,1 30.207219022196004,29.05932076620417" fill="none" id="id62" stroke="none" /><text fill="#e1ed5e" style="font-size:7.125px; font-family:Arial;" text-anchor="middle"><textPath startOffset="21.14765246539759" xlink:href="#id62">February</textPath></text><path d="M 117.29168571797953 81.45338407659182 l 10.644373907987807 -16.061028498949284 a41.518091040295424,41.518091040295424 0 0,0 0.5923154844225869,0.39993405912147995 l -10.919261032912564 15.875423485130405" fill="#ffdf14" stroke="none" /><path d="M 120.2869240707266 83.83298257389941 l 7.338949757123094 -7.76146516223563 a32.931784729256364,32.931784729256364 0 0,0 0.40853722570095075,0.3930124874406949 l -7.4714632766514875 7.633987261439638" fill="#ff740a" stroke="none" /><path d="M 120.56294777689915 84.09851716054412 l 7.072505402342548 -7.226351003647516 a32.361403537297974,32.361403537297974 0 0,0 0.39475395440925304,0.3930587554766261 l -7.195847287881464 7.103538787363026" fill="#ff6d0a" stroke="none" /><path d="M 120.83435984576948 84.36876369973626 l 7.351830030771312 -7.257520579909311 a32.58058612902279,32.58058612902279 0 0,0 0.39055703991303925,0.40250336056341973 l -7.475667064369789 7.129895631203508" fill="#ff700a" stroke="none" /><path d="M 121.10107985208404 84.64364211159388 l 7.332641272464309 -6.993485199856634 a32.38293951779348,32.38293951779348 0 0,0 0.3812438504501242,0.4066843582014456 l -7.451936214049804 6.866229673772487" fill="#ff6d0a" stroke="none" /><line stroke="#e1ed5e" stroke-width="0.3" x1="181.4835382374775" x2="185.73262369511514" y1="52.563006222186495" y2="49.927617678974634" /><path d="M 182.33335532900503 52.03592851354413 a91.0,91.0 0 0,1 13.598395693806166,44.44034392526798" fill="none" id="id63" stroke="none" /><text fill="#e1ed5e" style="font-size:7.125px; font-family:Arial;" text-anchor="middle"><textPath startOffset="23.497391628219546" xlink:href="#id63">March</textPath></text><path d="M 123.90843028648749 88.27252098270722 l 10.362136669274395 -6.426855033549692 a34.44337287115358,34.44337287115358 0 0,0 0.3081602674393629,0.5065344543836743 l -10.471229151564637 6.247535676601371" fill="#ff880c" stroke="none" /><path d="M 124.10749807163661 88.59973608014258 l 11.897526043975617 -7.098518936711937 a36.10424473083741,36.10424473083741 0 0,0 0.31383240886523955,0.5364413170206984 l -12.017952631743942 6.8926708613638965" fill="#ff9d0e" stroke="none" /><path d="M 125.01678684976241 90.28451008897758 l 6.200818900485198 -3.0096735265208734 a29.142625753140457,29.142625753140457 0 0,0 0.21515834918860224,0.4531783556113012 l -6.251706764577566 2.9024907067189996" fill="#ff4206" stroke="none" /><path d="M 125.18105733485865 90.630505624787 l 7.081132532757807 -3.287569641914241 a30.05708345651032,30.05708345651032 0 0,0 0.2138313632019979,0.4711490643943112 l -7.136673493694779 3.165192496722982" fill="#ff4f07" stroke="none" /><path d="M 125.33934773712367 90.97927754399007 l 9.238949406566112 -4.097574782579365 a32.35684447470716,32.35684447470716 0 0,0 0.22142757862814016,0.5110853805113629 l -9.308113570622806 3.937934356017911" fill="#ff6d0a" stroke="none" /><path d="M 126.03951962025393 92.76113861515844 l 5.989813624353922 -2.0608564896126733 a28.58442947117375,28.58442947117375 0 0,0 0.15607466853117874,0.4666433933494503 l -6.024400425571858 1.9574463562621998" fill="#ff3b05" stroke="none" /><path d="M 126.2762248916699 93.489642532158 l 10.725491557997218 -3.281916054958707 a33.46637829927581,33.46637829927581 0 0,0 0.1638164921044977,0.5523077738358401 l -10.780395250612923 3.0968080975461865" fill="#ff7b0b" stroke="none" /><path d="M 126.67373512758635 94.96892599744058 l 7.0939611396088775 -1.6467047905935879 a29.532576557623322,29.532576557623322 0 0,0 0.11068474006557134,0.49617798661745177 l -7.121255408759941 1.524349933857722" fill="#ff4806" stroke="none" /><path d="M 126.75712559850086 95.34274912732218 l 12.092325666398457 -2.588439084362281 a34.616258808374226,34.616258808374226 0 0,0 0.1197074803548965,0.5837361874568114 l -12.13508978171091 2.3799060707323307" fill="#ff8a0c" stroke="none" /><path d="M 127.0259980156936 96.85072843142078 l 12.241761437069854 -1.750323922467652 a34.616258808374226,34.616258808374226 0 0,0 0.07926134386457392,0.5905890760658564 l -12.270076637079042 1.5393427934999488" fill="#ff8a0c" stroke="none" /><path d="M 127.15919766427473 97.99190167680933 l 12.535989776693645 -1.1360294010418435 a34.83735883660266,34.83735883660266 0 0,0 0.048980523905532355,0.5976864547650902 l -12.553687313217452 0.9200746292351887" fill="#ff8d0d" stroke="none" /><line stroke="#e1ed5e" stroke-width="0.3" x1="194.97916517819016" x2="199.97800768808963" y1="98.06355123074" y2="97.95597074355888" /><path d="M 195.9789336801701 98.04203513330377 a91.0,91.0 0 0,1 -10.165717320886186,43.793644156837686" fill="none" id="id64" stroke="none" /><text fill="#e1ed5e" style="font-size:7.125px; font-family:Arial;" text-anchor="middle"><textPath startOffset="22.714145240612222" xlink:href="#id64">April</textPath></text><path d="M 127.24979395913023 99.90424627290857 l 10.8128113235655 -0.04653377853609334 a33.06291145397812,33.06291145397812 0 0,0 -0.0024493362364702677,0.5691394816001866 l -10.812010291391342 -0.1395978883037116" fill="#ff760a" stroke="none" /><path d="M 127.24814565506792 100.28725408766894 l 12.102996594841054 0.1562662928772891 a34.35400535893073,34.35400535893073 0 0,0 -0.012723966676222912,0.5912327335770732 l -12.09851353793905 -0.364576331279603" fill="#ff870c" stroke="none" /><path d="M 127.2399047452937 100.67017678284371 l 3.024628384484761 0.09114408281990069 a25.27600133973268,25.27600133973268 0 0,0 -0.016848100419351815,0.43477460897218606 l -3.02261135759211 -0.1431945844616885" fill="#ff0e01" stroke="none" /><path d="M 127.225073671767 101.0529008901741 l 2.7606517066007945 0.13078438714167553 a25.01374789028918,25.01374789028918 0 0,0 -0.024077101087719512,0.42991281400288095 l -2.757991448025097 -0.17828509107137405" fill="#ff0a01" stroke="none" /><path d="M 127.14109317199052 102.19874808680639 l 10.077449215280271 1.0007533056234381 a32.37701781697204,32.37701781697204 0 0,0 -0.05984768171020438,0.5541152042772092 l -10.058729809360619 -1.1740717557071525" fill="#ff6d0a" stroke="none" /><path d="M 127.09996489619996 102.57954484099989 l 10.279140223509959 1.199798427644959 a32.598924581885775,32.598924581885775 0 0,0 -0.06985249554098488,0.5567931179450779 l -10.256964700314574 -1.3765591662040624" fill="#ff700a" stroke="none" /><path d="M 127.05228792385437 102.95957722038585 l 11.116710279483241 1.491943267854695 a33.46637829927581,33.46637829927581 0 0,0 -0.0815399526057079,0.5702902386101151 l -11.089381868062326 -1.6830781136821487" fill="#ff7b0b" stroke="none" /><path d="M 126.93734633669523 103.71689866742214 l 10.641080174287788 1.8029444451803665 a33.042738111713234,33.042738111713234 0 0,0 -0.09984187085917536,0.559966234209124 l -10.608468858569234 -1.9858460224282575" fill="#ff760a" stroke="none" /><path d="M 126.8701157815546 104.09396332438338 l 16.02176231350269 2.999184273125293 a38.550060550026714,38.550060550026714 0 0,0 -0.12771096648845548,0.6511954667057869 l -15.967762489456687 -3.274528212557831" fill="#ffbb11" stroke="none" /><path d="M 126.62962987499661 105.21743341794162 l 9.47356323722412 2.285184060315965 a31.995279195549326,31.995279195549326 0 0,0 -0.13375350044475515,0.5342787468850871 l -9.43282393949055 -2.4479173037054363" fill="#ff6809" stroke="none" /><path d="M 126.53661567228542 105.58897892143723 l 13.253591243928222 3.43944671822243 a35.942606566633756,35.942606566633756 0 0,0 -0.1605640506336468,0.5975185637007582 l -13.192423160027692 -3.667075913502043" fill="#ff9b0e" stroke="none" /><path d="M 126.43721970555231 105.95886828985837 l 9.719857686924719 2.701812667318541 a32.33838069976309,32.33838069976309 0 0,0 -0.15369564309603856,0.5350346965914091 l -9.671910321413646 -2.8687237367659955" fill="#ff6d0a" stroke="none" /><path d="M 126.33147142796734 106.32699191700233 l 13.552881283233496 4.019833822559771 a36.38646543653739,36.38646543653739 0 0,0 -0.18327208982460044,0.5989437935989436 l -13.481678446348827 -4.252528813267442" fill="#ffa10e" stroke="none" /><path d="M 126.21940217502741 106.69324071989361 l 6.321764960337816 1.9940757192456093 a28.878804582112817,28.878804582112817 0 0,0 -0.1536183930099769,0.4727887991741273 l -6.286503587084434 -2.102599067205734" fill="#ff3f05" stroke="none" /><path d="M 126.10104515527081 107.0575061711076 l 9.583568893009485 3.2053434370645166 a32.3553955527031,32.3553955527031 0 0,0 -0.18120434216459513,0.526664638202713 l -9.526974265678847 -3.3698339154451786" fill="#ff6d0a" stroke="none" /><path d="M 125.84560995507334 107.77965587933983 l 9.502123800637326 3.5462264453361234 a32.392291591363346,32.392291591363346 0 0,0 -0.1994527904684967,0.5207082979768183 l -9.439673499647137 -3.709264474838535" fill="#ff6d0a" stroke="none" /><path d="M 125.56546856879632 108.49258515093315 l 6.630039848707816 2.7378991040672727 a29.423110894131355,29.423110894131355 0 0,0 -0.19734363331944224,0.466462054800274 l -6.581929104363189 -2.851618692013839" fill="#ff4606" stroke="none" /><path d="M 125.41623567982151 108.84532761778686 l 6.381561513473178 2.764809496959311 a29.204746501830133,29.204746501830133 0 0,0 -0.20381980800030366,0.4595598601828156 l -6.333024365698074 -2.8742479517593793" fill="#ff4306" stroke="none" /><path d="M 124.93242421885172 109.88741446282765 l 1.842315383565754 0.9138745778513876 a24.30652442644528,24.30652442644528 0 0,0 -0.18915259784010624,0.37321602045013635 l -1.8263115760711484 -0.9454516083198549" fill="#ff0000" stroke="none" /><line stroke="#e1ed5e" stroke-width="0.3" x1="184.2010983576182" x2="188.60115937748589" y1="142.7455964860345" y2="145.12035184636974" /><path d="M 185.08111056159174 143.22054755810154 a91.0,91.0 0 0,1 -31.78467617885582,33.90567642514608" fill="none" id="id65" stroke="none" /><text fill="#e1ed5e" style="font-size:7.125px; font-family:Arial;" text-anchor="middle"><textPath startOffset="23.497391628219564" xlink:href="#id65">May</textPath></text><path d="M 124.58027153841117 110.56766135349186 l 4.067372088195874 2.1951999359344345 a26.871949638687273,26.871949638687273 0 0,0 -0.22319533052466878,0.40516435636846865 l -4.028982704799963 -2.2648878177481966" fill="#ff2403" stroke="none" /><path d="M 124.20491234911053 111.23538346755383 l 10.556056442597427 6.175573201364661 a34.47980097894958,34.47980097894958 0 0,0 -0.30411040682954515,0.5097065342442364 l -10.448190107944761 -6.356363382702508" fill="#ff880c" stroke="none" /><path d="M 124.00866827693365 111.56429982046022 l 7.860402803417801 4.7820317238432475 a31.45074777612242,31.45074777612242 0 0,0 -0.2853561695350238,0.4600850046728701 l -7.776923384710769 -4.9166271272245625" fill="#ff6109" stroke="none" /><path d="M 123.80679152610566 111.88978942175177 l 8.75720673002557 5.5363693375460095 a32.610504580092844,32.610504580092844 0 0,0 -0.3040465809334574,0.47188704559774974 l -8.660609758133097 -5.6862899830605365" fill="#ff700a" stroke="none" /><path d="M 123.59934191706468 112.211755821835 l 4.6951971489745095 3.082722032549275 a27.86676520763536,27.86676520763536 0 0,0 -0.2667206318563462,0.3987111554946847 l -4.641437512575852 -3.163085394762017" fill="#ff3104" stroke="none" /><path d="M 123.38638092160699 112.53010361511694 l 5.855333837702145 3.9903415468396464 a29.335743433922396,29.335743433922396 0 0,0 -0.28796397805681345,0.41483358775919155 l -5.785779136580687 -4.090540281439846" fill="#ff4506" stroke="none" /><path d="M 123.16797164467164 112.84473846827593 l 8.458087161060321 5.979859482969039 a32.60847275712729,32.60847275712729 0 0,0 -0.32797944695594883,0.45553476592873543 l -8.353900553134984 -6.124565568959092" fill="#ff700a" stroke="none" /><path d="M 122.94417880564102 113.15556714821462 l 9.45385529177169 6.930984663466946 a33.97236871468278,33.97236871468278 0 0,0 -0.34981628467763276,0.4686360794859185 l -9.333149093571878 -7.092690341480591" fill="#ff820c" stroke="none" /><path d="M 122.7150687191632 113.46249754968689 l 6.439915962625595 4.893989080225923 a30.33848853142851,30.33848853142851 0 0,0 -0.3195555637647524,0.4130686426894342 l -6.354719842522652 -5.004116550011542" fill="#ff5207" stroke="none" /><path d="M 122.4807092755014 113.7654387225907 l 9.014191563871156 7.0983562308917465 a33.723548306030075,33.723548306030075 0 0,0 -0.3630614387593463,0.4529749681004967 l -8.890669480196548 -7.252469022664437" fill="#ff7f0b" stroke="none" /><path d="M 122.24116992041665 114.0643008989185 l 9.405154847233291 7.67215498617476 a34.38749973562604,34.38749973562604 0 0,0 -0.3781052972674177,0.4554521879746465 l -9.271697835792953 -7.832912553710426" fill="#ff870c" stroke="none" /><path d="M 121.99652163458958 114.35899551935749 l 2.150071257657294 1.8164224550611063 a25.06463975461412,25.06463975461412 0 0,0 -0.2812700049088026,0.32718055990505285 l -2.1184859747508806 -1.8531632747920639" fill="#ff0b01" stroke="none" /><path d="M 121.74683691258718 114.64943525953159 l 8.437893597680414 7.381117797422854 a33.46066225988494,33.46066225988494 0 0,0 -0.3829511456699609,0.4302496717974231 l -8.30958962321638 -7.52526867287429" fill="#ff7b0b" stroke="none" /><path d="M 121.49218974138125 114.93553405587757 l 10.14394813173078 9.186486764845563 a35.93543834811027,35.93543834811027 0 0,0 -0.41916736683894706,0.45492339014329086 l -9.984314927848747 -9.35973707971884" fill="#ff9b0e" stroke="none" /><path d="M 121.23265557842434 115.21720713114759 l 7.380848880185618 6.91913320472148 a32.36688363562696,32.36688363562696 0 0,0 -0.3845393056842062,0.4031879246420058 l -7.260653823635604 -7.045157240980666" fill="#ff6d0a" stroke="none" /><path d="M 120.96831132929016 115.4943710195304 l 9.084833822086233 8.81519548231654 a34.90866805656803,34.90866805656803 0 0,0 -0.4221611199899909,0.4276469857155068 l -8.931748706501686 -8.970269896178227" fill="#ff8e0d" stroke="none" /><path d="M 120.69923532488471 115.76694359138423 l 9.652864376379258 9.694495621478412 a35.93068112425824,35.93068112425824 0 0,0 -0.44203300855344135,0.43262233448526577 l -9.484559394475271 -9.859217469774498" fill="#ff9b0e" stroke="none" /><path d="M 120.42550729823526 116.03484407757341 l 9.792320973597095 10.179136214673784 a36.37460137939591,36.37460137939591 0 0,0 -0.45496687241361927,0.43019957546742726 l -9.61565303855512 -10.346186774312486" fill="#ffa00e" stroke="none" /><path d="M 120.1472083608636 116.29799309340213 l 9.888199573056976 10.639439592331334 a36.77494976361267,36.77494976361267 0 0,0 -0.4673928885829365,0.42695232194208566 l -9.703594066586529 -10.808072345537775" fill="#ffa50f" stroke="none" /><path d="M 119.57722894790214 116.80972623811714 l 7.505627124504597 8.65511117779801 a33.70623795284225,33.70623795284225 0 0,0 -0.4416071293112331,0.37634717606110185 l -7.3555315735819695 -8.78302586254771" fill="#ff7e0b" stroke="none" /><path d="M 119.28571736951355 117.05815872942854 l 8.639426672921115 10.31608757936427 a35.705904138403135,35.705904138403135 0 0,0 -0.4745992586832404,0.3905628793432797 l -8.460572158994095 -10.463272667972895" fill="#ff980e" stroke="none" /><path d="M 118.98997262475733 117.3015365201632 l 8.035318104111765 9.937356802499801 a35.02956952539699,35.02956952539699 0 0,0 -0.47213605654763013,0.3750934377743494 l -7.863072323137418 -10.074199268208153" fill="#ff8f0d" stroke="none" /><path d="M 118.69008234918404 117.5397874922292 l 8.267056883263047 10.591785879742858 a35.68615114656824,35.68615114656824 0 0,0 -0.48749197878997136,0.3737880616117645 l -8.083511846902589 -10.732520386862193" fill="#ff980e" stroke="none" /><path d="M 118.38613540675453 117.77284104672162 l 6.3881950461977635 8.481639523401045 a32.868250559917314,32.868250559917314 0 0,0 -0.4548575051790672,0.33649270822432087 l -6.241251084265694 -8.590345153504407" fill="#ff740a" stroke="none" /><path d="M 117.76643296087123 118.22308122836478 l 4.206152012871811 6.003951928024081 a29.580699387467043,29.580699387467043 0 0,0 -0.4195432219331977,0.2885656536449972 l -4.102180663183415 -6.075464370401143" fill="#ff4806" stroke="none" /><path d="M 117.45086108862643 118.44013443963271 l 8.911723355631205 13.198555151881738 a38.17547240318373,38.17547240318373 0 0,0 -0.5477731296492154,0.36303416117569304 l -8.683211557078932 -13.35000031159466" fill="#ffb711" stroke="none" /><path d="M 117.13159975752949 118.65172344109548 l 3.3437938829342353 5.140914635747665 a28.382696048524902,28.382696048524902 0 0,0 -0.4118439996645817,0.2628583263103614 l -3.25480606919612 -5.197710868788015" fill="#ff3805" stroke="none" /><path d="M 116.80874357160302 118.85778553436549 l 7.138759042909609 11.400127896453853 a35.70082884911666,35.70082884911666 0 0,0 -0.5236475173897442,0.32166707438281106 l -6.941466897020156 -11.521320846404826" fill="#ff980e" stroke="none" /><line stroke="#e1ed5e" stroke-width="0.3" x1="151.44561519142675" x2="154.02592714650604" y1="177.08958963109032" y2="181.37234461059535" /><path d="M 151.9616775824426 177.94614062699134 a91.0,91.0 0 0,1 -43.04665437903033,12.969603847311603" fill="none" id="id66" stroke="none" /><text fill="#e1ed5e" style="font-size:7.125px; font-family:Arial;" text-anchor="middle"><textPath startOffset="22.714145240612233" xlink:href="#id66">June</textPath></text><path d="M 116.48238820010272 119.05825965879733 l 7.436769295673293 12.343414783541718 a36.66060116982027,36.66060116982027 0 0,0 -0.5433312834029784,0.3210096992226661 l -7.223195863204529 -12.46959773198038" fill="#ffa40f" stroke="none" /><path d="M 116.1526303491685 119.25308640958133 l 6.079800172449866 10.495722928886622 a34.37947525397854,34.37947525397854 0 0,0 -0.5146300208900132,0.29222035687986103 l -5.89823276756001 -10.598821640001267" fill="#ff870c" stroke="none" /><path d="M 115.81956773316836 119.44220805534655 l 5.576222816915856 10.020186281296212 a33.71727491672585,33.71727491672585 0 0,0 -0.5095759002153425,0.2778614105488197 l -5.402915604125398 -10.114687191923837" fill="#ff7f0b" stroke="none" /><path d="M 115.48329904574346 119.62556855526775 l 6.9264680806928505 12.9668984515619 a36.95089845982127,36.95089845982127 0 0,0 -0.5636051874524025,0.2948515964489057 l -6.702238008420709 -13.084205027606995" fill="#ffa80f" stroke="none" /><path d="M 115.1439239305632 119.80311357567156 l 5.303861295128674 10.35427398076022 a33.883655242726256,33.883655242726256 0 0,0 -0.521398608814835,0.26144008651732287 l -5.124843665078533 -10.444037136812398" fill="#ff810b" stroke="none" /><path d="M 114.80154295179851 119.9747905061367 l 5.919148532139562 12.062769350258188 a35.68676760768967,35.68676760768967 0 0,0 -0.5538031182555097,0.2658591513227178 l -5.710630801359995 -12.162870532634011" fill="#ff980e" stroke="none" /><path d="M 114.10817008364758 120.30033836484868 l 5.967949660296925 13.301398232112668 a36.828875748050265,36.828875748050265 0 0,0 -0.5806323493227569,0.2545321587312526 l -5.738103739015357 -13.40215592945352" fill="#ffa60f" stroke="none" /><path d="M 113.04813050873734 120.74343499313292 l 2.5647099801267177 6.610341953481121 a29.340441313776893,29.340441313776893 0 0,0 -0.4724227116296902,0.17862984593381323 l -2.450543820310546 -6.653509826313626" fill="#ff4506" stroke="none" /><path d="M 111.96663166082215 121.13122200210935 l 3.3209141631625587 10.073013451590421 a32.856322212483235,32.856322212483235 0 0,0 -0.5386538293605898,0.17245994603397516 l -3.147031765788949 -10.128685104204324" fill="#ff730a" stroke="none" /><path d="M 111.60186022883516 121.24801029552943 l 2.995991425777706 9.642563528109491 a32.34727666338607,32.34727666338607 0 0,0 -0.5331524743763306,0.16063446701315204 l -2.8295666570539724 -9.692705945722757" fill="#ff6d0a" stroke="none" /><path d="M 110.86655721319816 121.46266540913017 l 3.129019187920774 11.447445145170743 a34.117382248418124,34.117382248418124 0 0,0 -0.5678262458131189,0.14996807241168256 l -2.931506639604997 -11.499610004344557" fill="#ff840c" stroke="none" /><path d="M 110.49624351570083 121.56046862236803 l 3.069573364395148 12.041213242834182 a34.676306651568254,34.676306651568254 0 0,0 -0.579666835584294,0.14246800496257822 l -2.861848881880547 -12.09226686672472" fill="#ff8b0c" stroke="none" /><path d="M 109.75084036853548 121.7368814642923 l 2.6715708800036273 12.22344154661535 a34.76198682106106,34.76198682106106 0 0,0 -0.5856708454748016,0.12273302004021297 l -2.4607686051572224 -12.267617212901541" fill="#ff8c0c" stroke="none" /><path d="M 109.37597179790707 121.81543881804632 l 3.657687399457235 18.234590935106535 a40.84782201449454,40.84782201449454 0 0,0 -0.6905856994931641,0.13235239291568232 l -3.343266965477384 -18.294850359605714" fill="#ffd714" stroke="none" /><path d="M 108.99980653239376 121.88753178646282 l 2.871519687375148 15.713379615704365 a38.22360085460434,38.22360085460434 0 0,0 -0.648255940876627,0.11270760471251352 l -2.6006142410102777 -15.760480000040326" fill="#ffb711" stroke="none" /><path d="M 108.622456037882 121.95313900683936 l 4.72939467362602 28.661509650513967 a51.29908448515077,51.29908448515077 0 0,0 -0.8724853908482187,0.13626427448216835 l -4.235333189192587 -28.738671893494853" fill="#afff20" stroke="none" /><path d="M 107.86464694831993 122.06482036775921 l 1.4729796723335697 11.345562808171637 a33.69078076659436,33.69078076659436 0 0,0 -0.575747491100891,0.06971500309726067 l -1.2774662210949068 -11.369236764323139" fill="#ff7e0b" stroke="none" /><path d="M 107.10344268343269 122.15035053622208 l 1.0071650309800486 10.605974034731489 a32.90368793540657,32.90368793540657 0 0,0 -0.5643071512950361,0.04869079549439433 l -0.8244514001731409 -10.621739335616372" fill="#ff740a" stroke="none" /><path d="M 106.72184916294457 122.18327603083159 l 0.8776744357693944 11.30743313228518 a33.59144419623461,33.59144419623461 0 0,0 -0.5768726522085083,0.039784515583294267 l -0.6829055251165432 -11.320865536701206" fill="#ff7d0b" stroke="none" /><path d="M 106.3397454213889 122.20962814199885 l 1.5702818802739789 26.031346017102845 a48.328664855503106,48.328664855503106 0 0,0 -0.83082022145156,0.042943915482308095 l -1.1219623958605178 -26.05451901355939" fill="#d0ff1d" stroke="none" /><line stroke="#e1ed5e" stroke-width="0.3" x1="107.32365962044197" x2="107.45275182157765" y1="189.96999836594603" y2="194.96833160849857" /><path d="M 107.34947806066911 190.96966501445652 a91.0,91.0 0 0,1 -45.22499325899069,-10.70329474347383" fill="none" id="id67" stroke="none" /><text fill="#e1ed5e" style="font-size:7.125px; font-family:Arial;" text-anchor="middle"><textPath startOffset="23.497391628219546" xlink:href="#id67">July</textPath></text><path d="M 105.19150568077332 122.2491758403369 l 0.021914825764137176 2.5460697038735254 a24.796164016038812,24.796164016038812 0 0,0 -0.42684101307490435,0.0 l 0.02191482576413542 -2.5460697038735254" fill="#ff0701" stroke="none" /><path d="M 104.8084943192267 122.2491758403369 l -0.22101402084350827 25.67746185424114 a47.92841300535176,47.92841300535176 0 0,0 -0.8249171647431727,-0.01420169709045814 l 0.6629765713062934 -25.669853068128717" fill="#d4ff1c" stroke="none" /><path d="M 104.4255397049463 122.24258292935887 l -0.28101913669988504 10.880806744354333 a33.13443508700283,33.13443508700283 0 0,0 -0.5700379550329405,-0.019633259753575567 l 0.46827270243572117 -10.874357352935014" fill="#ff770b" stroke="none" /><path d="M 104.0427553156492 122.22939906102462 l -0.596702368617997 13.856786346809427 a36.11962802593633,36.11962802593633 0 0,0 -0.6209341277061693,-0.032095201840064765 l 0.8351357592860771 -13.844462063995124" fill="#ff9d0e" stroke="none" /><path d="M 103.66025457861112 122.20962814199885 l -1.3035293769019816 21.60925670725683 a43.89853723179861,43.89853723179861 0 0,0 -0.7538784415771048,-0.05199187115563447 l 1.675304076923429 -21.583616947268464" fill="#fffc17" stroke="none" /><path d="M 102.89655731656732 122.15035053622208 l -0.7633825511449848 8.03881714214444 a30.32498197918905,30.32498197918905 0 0,0 -0.5192321442018658,-0.053820534758669075 l 0.9016444703218245 -8.024485728902881" fill="#ff5207" stroke="none" /><path d="M 102.5155870915423 122.11086141470497 l -2.1741031811419105 19.349156485159373 a41.72091629403805,41.72091629403805 0 0,0 -0.7129758449094625,-0.08633144565006724 l 2.506844986189155 -19.308866086455065" fill="#ffe215" stroke="none" /><path d="M 102.13535305168008 122.06482036775921 l -0.6184319571252526 4.763445649612574 a27.05342300265204,27.05342300265204 0 0,0 -0.4612884422751527,-0.06393037482947451 l 0.7003352162531191 -4.752094604201649" fill="#ff2603" stroke="none" /><path d="M 101.75596786853279 122.01224103834065 l -1.6332063846412221 11.082051948671614 a33.45175158124341,33.45175158124341 0 0,0 -0.5689412363951059,-0.08885692025742326 l 1.8237237146215426 -11.052297059915471" fill="#ff7b0b" stroke="none" /><path d="M 101.00019346760625 121.88753178646282 l -2.589920679172069 14.17242827389224 a36.65713060616247,36.65713060616247 0 0,0 -0.6197365962887041,-0.11877399366425767 l 2.83349200994745 -14.125747248644487" fill="#ffa40f" stroke="none" /><path d="M 100.62402820209293 121.81543881804632 l -5.213476866708671 25.990634964644737 a48.758365602298454,48.758365602298454 0 0,0 -0.8214821941352797,-0.1721495809028175 l 5.660090490215563 -25.89704273749594" fill="#cbff1d" stroke="none" /><path d="M 99.87569883736889 121.65188300344008 l -2.128931040965296 8.995444326637593 a31.49393671607622,31.49393671607622 0 0,0 -0.5264687159373217,-0.12939320145717276 l 2.2834574038329243 -8.95746550625246" fill="#ff6209" stroke="none" /><path d="M 99.50375648429919 121.56046862236803 l -7.371099551307841 28.915087210807446 a52.08982870265664,52.08982870265664 0 0,0 -0.8669472839948047,-0.22896865726427615 l 7.867733137805295 -28.78392176678104" fill="#a7ff21" stroke="none" /><path d="M 99.13344278680184 121.46266540913017 l -4.789893058845614 17.52371422138996 a40.416552662189986,40.416552662189986 0 0,0 -0.6695075697063994,-0.18920952672938543 l 5.0908253185676156 -17.438667758861424" fill="#ffd213" stroke="none" /><path d="M 98.76486747681744 121.35850234492932 l -3.765452756129281 12.898592166643684 a35.68697563963124,35.68697563963124 0 0,0 -0.5881978740675089,-0.17721919439580508 l 3.9869229245441935 -12.831865021647765" fill="#ff980e" stroke="none" /><path d="M 96.95186949126267 120.74343499313292 l -3.7618577535423467 9.69589790812941 a32.65009663429888,32.65009663429888 0 0,0 -0.5222133011741742,-0.20779944979147194 l 3.9281993376656326 -9.629707158907701" fill="#ff710a" stroke="none" /><path d="M 96.59599777421178 120.60182629256316 l -4.424066959747639 10.845292107575624 a33.96293000760155,33.96293000760155 0 0,0 -0.539409832220247,-0.22547335361549675 l 4.610095362149722 -10.767532220284203" fill="#ff820b" stroke="none" /><path d="M 96.24261634439362 120.45411282623908 l -4.645239013605884 10.849615207655685 a34.05221994574409,34.05221994574409 0 0,0 -0.5368564764782424,-0.23534210253053015 l 4.8313090620429255 -10.768047566515556" fill="#ff830c" stroke="none" /><path d="M 95.89182991635242 120.30033836484868 l -4.23755100542902 9.444676423308909 a32.6017511206858,32.6017511206858 0 0,0 -0.5100342208176516,-0.2341316951785714 l 4.399497745571675 -9.370334617895427" fill="#ff700a" stroke="none" /><path d="M 95.54374243567743 120.14054847508359 l -4.863937455995195 10.359528327765448 a33.694549565168906,33.694549565168906 0 0,0 -0.5228869933679285,-0.25101753260686693 l 5.04153906188719 -10.274268764105473" fill="#ff7e0b" stroke="none" /><line stroke="#e1ed5e" stroke-width="0.3" x1="61.23545636021788" x2="58.804092824674434" y1="178.64263932499728" y2="183.01167484305267" /><path d="M 60.74918365310919 179.51644642860833 a91.0,91.0 0 0,1 -33.49250110034344,-32.21975952245642" fill="none" id="id68" stroke="none" /><text fill="#e1ed5e" style="font-size:7.125px; font-family:Arial;" text-anchor="middle"><textPath startOffset="23.497391628219546" xlink:href="#id68">August</textPath></text><path d="M 94.18043226683164 119.44220805534654 l -2.0227880335409956 3.6348463053110214 a26.409781135092306,26.409781135092306 0 0,0 -0.39533082215034787,-0.2244791583176475 l 2.0850562396911942 -3.599488792758584" fill="#ff1d03" stroke="none" /><path d="M 93.8473696508315 119.25308640958133 l -5.803610796356792 10.0189297637904 a33.828465005662636,33.828465005662636 0 0,0 -0.5013573896930599,-0.2962107829691514 l 5.975210335115637 -9.917545731605252" fill="#ff800b" stroke="none" /><path d="M 93.51761179989728 119.05825965879734 l -7.309993257227036 12.132994214482682 a36.4149408763106,36.4149408763106 0 0,0 -0.5341218677685174,-0.3281012758838425 l 7.517759753495262 -12.005367063030677" fill="#ffa10e" stroke="none" /><path d="M 93.19125642839698 118.85778553436549 l -7.140501274936359 11.40291012622389 a35.704111557591126,35.704111557591126 0 0,0 -0.5180805968259419,-0.33066354902936784 l 7.335725685835828 -11.27830867046454" fill="#ff980e" stroke="none" /><path d="M 92.54913891137357 118.44013443963271 l -6.8650374942248495 10.167346131767905 a34.51799360777013,34.51799360777013 0 0,0 -0.4895688929859721,-0.3367299487232511 l 7.039034514966027 -10.047669394312583" fill="#ff890c" stroke="none" /><path d="M 91.92177813649248 118.00062812484259 l -10.029863676514262 13.804923029144769 a39.31382328817524,39.31382328817524 0 0,0 -0.5440565675167802,-0.40248004209335947 l 10.266006700784045 -13.630230065172372" fill="#ffc512" stroke="none" /><path d="M 91.61386459324548 117.77284104672162 l -4.876310704183923 6.474302881782983 a30.35524545518531,30.35524545518531 0 0,0 -0.4146689457438723,-0.31795046520544734 l 4.987032707498274 -6.389405971069969" fill="#ff5307" stroke="none" /><path d="M 91.30991765081596 117.53978749222918 l -23.642034584518907 30.290267941383874 a60.674551152309064,60.674551152309064 0 0,0 -0.8177846231618318,-0.6496975636721538 l 24.159928932107462 -29.878821349777713" fill="#50ff2b" stroke="none" /><path d="M 90.71428263048647 117.05815872942854 l -4.585145876947837 5.474989049795572 a29.391363161769128,29.391363161769128 0 0,0 -0.38507517601257163,-0.3281694190254522 l 4.678709474571813 -5.395252122081516" fill="#ff4606" stroke="none" /><path d="M 90.42277105209786 116.80972623811715 l -5.293592655672785 6.104304437831653 a30.329892070685354,30.329892070685354 0 0,0 -0.39148329434652923,-0.3454384902786711 l 5.397883919170342 -6.012279523532342" fill="#ff5207" stroke="none" /><path d="M 90.13557902124889 116.55631266213778 l -7.089888145256788 7.8968703214376985 a32.86259038999698,32.86259038999698 0 0,0 -0.4176685800369718,-0.3815303450373209 l 7.2247693431812605 -7.77365954513603" fill="#ff740a" stroke="none" /><path d="M 89.3007646751153 115.76694359138423 l -7.62186909024564 7.654740980685357 a33.05221958257773,33.05221958257773 0 0,0 -0.39971052503422394,-0.4049046515550737 l 7.752503610874417 -7.522408900984103" fill="#ff760a" stroke="none" /><path d="M 89.03168867070985 115.49437101953042 l -9.1859646497985 8.91332474180887 a35.04958220022395,35.04958220022395 0 0,0 -0.41641148266002764,-0.43660577477786966 l 9.338031883324327 -8.753882855413828" fill="#ff900d" stroke="none" /><path d="M 88.76734442157566 115.21720713114759 l -41.25210367190053 38.671541026549484 a78.79400182800408,78.79400182800408 0 0,0 -0.9190892274362237,-0.997489834055023 l 41.91165873637985 -37.95572426776447" fill="#41ffcd" stroke="none" /><path d="M 88.25316308741282 114.6494352595316 l -8.899683931329644 7.785072743158748 a34.07420110171678,34.07420110171678 0 0,0 -0.38237336761958013,-0.44478661189314206 l 9.032372576946834 -7.630725871439699" fill="#ff830c" stroke="none" /><path d="M 88.00347836541043 114.3589955193575 l -18.642233437349205 15.749325194453405 a46.65438713865328,46.65438713865328 0 0,0 -0.5129849815633615,-0.6179234566129967 l 18.91057013308548 -15.426096358279398" fill="#e3ff1b" stroke="none" /><path d="M 87.51929072449862 113.76543872259072 l -28.593662270469228 22.51649516248298 a58.644918277690564,58.644918277690564 0 0,0 -0.6177074346585071,-0.7984701270962694 l 28.977010261465924 -22.020966208290524" fill="#63ff29" stroke="none" /><path d="M 87.28493128083682 113.4624975496869 l -41.42667459228731 31.482040178994513 a74.28160790910741,74.28160790910741 0 0,0 -0.7648838477198923,-1.0246869095527589 l 41.96244835352938 -30.764283670914036" fill="#3bffa0" stroke="none" /><path d="M 87.05582119435898 113.15556714821462 l -13.029287563508538 9.552271479887931 a38.405748971746206,38.405748971746206 0 0,0 -0.38628906056107304,-0.5365217193233258 l 13.191783785039004 -9.326578440503281" fill="#ffba11" stroke="none" /><path d="M 86.83202835532838 112.84473846827595 l -17.842500733907734 12.614630847592823 a44.10140141639749,44.10140141639749 0 0,0 -0.43290585146927446,-0.6236331666855855 l 18.056997308441648 -12.305632534066236" fill="#fffe18" stroke="none" /><path d="M 86.40065808293534 112.21175582183501 l -17.337778550173407 11.383452118459719 a42.99081838279575,42.99081838279575 0 0,0 -0.40082824565676717,-0.6220943384872173 l 17.531157186789187 -11.08332418005573" fill="#fff116" stroke="none" /><path d="M 85.99133172306635 111.56429982046022 l -6.150654800632873 3.7418726641141347 a29.44945591770606,29.44945591770606 0 0,0 -0.2597429731543352,-0.4353441633945687 l 6.214153701610335 -3.6354448536259483" fill="#ff4606" stroke="none" /><line stroke="#e1ed5e" stroke-width="0.3" x1="27.317208475507996" x2="23.001497835258448" y1="145.44649492493687" y2="147.9713001985445" /><path d="M 26.454066347458095 145.95145597965842 a91.0,91.0 0 0,1 -12.412777890007606,-43.210508238589746" fill="none" id="id69" stroke="none" /><text fill="#e1ed5e" style="font-size:7.125px; font-family:Arial;" text-anchor="middle"><textPath startOffset="22.71414524061225" xlink:href="#id69">September</textPath></text><path d="M 85.79508765088949 111.23538346755385 l -15.703165209741549 9.18676844645783 a40.44302372046138,40.44302372046138 0 0,0 -0.34636176598509705,-0.6039109339151633 l 15.85897373355476 -8.915103152049936" fill="#ffd313" stroke="none" /><path d="M 85.6045344087176 110.90313782804657 l -58.18639677384722 32.709413484139716 a89.0,89.0 0 0,0 -0.7392237885150013,-1.3419058982187522 l 58.740814615233475 -31.70298406047565" fill="#4dd2ff" stroke="none" /><path d="M 85.24072457149379 110.22905345280932 l -8.9811900714236 4.649415088262557 a32.36329994423192,32.36329994423192 0 0,0 -0.25185016795202003,-0.49692427440096726 l 9.059891449030115 -4.494129803843268" fill="#ff6d0a" stroke="none" /><path d="M 85.06757578114828 109.88741446282765 l -6.7445653449915275 3.3456197904158933 a29.77876706206821,29.77876706206821 0 0,0 -0.22383244775125427,-0.46116113934865677 l 6.801155409870281 -3.2290274953421134" fill="#ff4b07" stroke="none" /><path d="M 84.90033339827578 109.54284561855278 l -9.269487948692468 4.400933319452147 a32.51117054303353,32.51117054303353 0 0,0 -0.23566787585233423,-0.5076076385874482 l 9.343869406672715 -4.240722276247847" fill="#ff6f0a" stroke="none" /><path d="M 84.5837643201785 108.84532761778688 l -16.92858797603289 7.334305358873476 a40.699095532287906,40.699095532287906 0 0,0 -0.2729727462896824,-0.645226937383108 l 17.052327833347753 -7.0418208883440805" fill="#ffd614" stroke="none" /><path d="M 84.29139253440496 108.13732614781424 l -15.604615153855114 6.1317422298436 a39.01610500006403,39.01610500006403 0 0,0 -0.2402383602137415,-0.6271865505706957 l 15.707851024590552 -5.862225947747296" fill="#ffc112" stroke="none" /><path d="M 84.15439004492666 107.77965587933984 l -10.072202953950265 3.7589820157568834 a33.00077755980227,33.00077755980227 0 0,0 -0.19403787602851394,-0.5339088988787579 l 10.135415344615268 -3.5850486652883107" fill="#ff750a" stroke="none" /><path d="M 84.02356455956314 107.41968033092967 l -19.533858264469142 6.9094191128705456 a42.96983810684027,42.96983810684027 0 0,0 -0.24064985496426103,-0.6994411242262731 l 19.649898404599444 -6.572152148466327" fill="#fff116" stroke="none" /><path d="M 83.89895484472919 107.0575061711076 l -17.48505452644596 5.8480932728453565 a40.68711817830236,40.68711817830236 0 0,0 -0.21643173258733334,-0.6661083803063554 l 17.5831292392767 -5.546250343752995" fill="#ffd513" stroke="none" /><path d="M 83.78059782497259 106.69324071989361 l -18.429715861419393 5.81328934916434 a41.57482237408047,41.57482237408047 0 0,0 -0.20940491166623024,-0.6843473674123455 l 18.52705152014569 -5.4951907846432775" fill="#ffe015" stroke="none" /><path d="M 83.56278029444769 105.95886828985839 l -30.590594501180078 8.503216650514897 a54.000419923856484,54.000419923856484 0 0,0 -0.24123253673375822,-0.897716009892694 l 30.73243107118072 -7.975390009043358" fill="#93ff23" stroke="none" /><path d="M 83.46338432771458 105.58897892143723 l -16.059993508472065 4.167737706011827 a38.841968812599596,38.841968812599596 0 0,0 -0.1623754948690688,-0.6486093869320677 l 16.129354800629947 -3.8906738225753794" fill="#ffbf11" stroke="none" /><path d="M 83.37037012500339 105.21743341794162 l -14.047381969481455 3.388466679537877 a36.70028188772977,36.70028188772977 0 0,0 -0.1428504891281966,-0.6153961684196232 l 14.103627582036072 -3.146162052737026" fill="#ffa40f" stroke="none" /><path d="M 83.2837652484298 104.84434187632284 l -9.86257311809648 2.200090232531501 a32.354986172235954,32.354986172235954 0 0,0 -0.11657957765617431,-0.5446209754698343 l 9.898982808210693 -2.029996281727874" fill="#ff6d0a" stroke="none" /><path d="M 83.20359536088785 104.46981485165664 l -8.570569315729184 1.757576932933991 a30.998927652626936,30.998927652626936 0 0,0 -0.10269511783217726,-0.523640193351571 l 8.599553291118912 -1.6097882668556582" fill="#ff5b08" stroke="none" /><path d="M 83.1298842184454 104.0939633243834 l -21.25446891588552 3.9787176752978737 a43.87365933962315,43.87365933962315 0 0,0 -0.13256856060464617,-0.743514890270976 l 21.319806921349546 -3.6122674419881355" fill="#fffb17" stroke="none" /><path d="M 83.06265366330477 103.71689866742216 l -12.543148393104868 2.125216552269341 a34.97191483250414,34.97191483250414 0 0,0 -0.09545375261073769,-0.5943906086247954 l 12.57787209974126 -1.9089919978981642" fill="#ff8f0d" stroke="none" /><path d="M 83.00192361733043 103.33873261316855 l -18.48456353899784 2.8054732629466743 a40.9462501442497,40.9462501442497 0 0,0 -0.09976446409248836,-0.6977524295020444 l 18.530116461905536 -2.4868762262273005" fill="#ffd914" stroke="none" /><path d="M 82.94771207614563 102.95957722038587 l -42.46605124701979 5.6992525376229395 a65.09678503694428,65.09678503694428 0 0,0 -0.1394884323592787,-1.1118600497962376 l 42.557862707033465 -4.967424867212662" fill="#31ff3b" stroke="none" /><path d="M 82.90003510380004 102.57954484099992 l -13.141470010894741 1.5338943445827555 a35.48068652442453,35.48068652442453 0 0,0 -0.06558469485908584,-0.6072328209014868 l 13.165926429963275 -1.3074582778747734" fill="#ff950d" stroke="none" /><path d="M 82.85890682800948 102.1987480868064 l -12.9380797196178 1.2848316842117737 a35.251719089718094,35.251719089718094 0 0,0 -0.054766741296627765,-0.6043464265693481 l 12.958279068874663 -1.061933548346921" fill="#ff920d" stroke="none" /><path d="M 82.82433943596972 101.8172997961019 l -12.419429196622085 1.0177746940865644 a34.71106283179056,34.71106283179056 0 0,0 -0.043675511068304175,-0.5959176481718723 l 12.435108442465696 -0.8038438417693147" fill="#ff8b0c" stroke="none" /><path d="M 82.79634317074502 101.43531300024729 l -13.089789776167004 0.8461644665432767 a35.36711060747323,35.36711060747323 0 0,0 -0.03404277923530104,-0.6078566918919072 l 13.102415712890286 -0.6207198847245369" fill="#ff940d" stroke="none" /><path d="M 82.7600952547063 100.67017678284371 l -11.508106077287621 0.3467850063131611 a33.763329897414906,33.763329897414906 0 0,0 -0.012505193499405086,-0.5810672037030177 l 11.512370361012808 -0.14864049778488783" fill="#ff7f0b" stroke="none" /><line stroke="#e1ed5e" stroke-width="0.3" x1="15.007500721073583" x2="10.007917427799896" y1="101.16192664675087" y2="101.22647812712593" /><path d="M 14.007584062418857 101.17483694282589 a91.0,91.0 0 0,1 11.286270769455006,-45.08304144309669" fill="none" id="id70" stroke="none" /><text fill="#e1ed5e" style="font-size:7.125px; font-family:Arial;" text-anchor="middle"><textPath startOffset="23.497391628219546" xlink:href="#id70">October</textPath></text><path d="M 82.75020604086977 99.90424627290858 l -19.978558728291397 -0.08597928878185458 a42.22874373672899,42.22874373672899 0 0,0 0.009384821259387055,-0.7268647489754032 l 19.974118697109667 0.4298645968927578" fill="#ffe815" stroke="none" /><path d="M 82.75515083094743 99.52126683204408 l -28.51194167204208 -0.6136077640940285 a50.768543658435405,50.768543658435405 0 0,0 0.026323019780712758,-0.873532875978581 l 28.49715507123098 1.1043030581776632" fill="#b5ff1f" stroke="none" /><path d="M 82.80951934834354 98.37363335976777 l -20.13547353425306 -1.4757527317887824 a42.439480938696455,42.439480938696455 0 0,0 0.059668932435601306,-0.7281121115780048 l 20.107087589199182 1.822133160408362" fill="#ffea16" stroke="none" /><path d="M 82.84080233572527 97.99190167680935 l -11.147499549227787 -1.010202422114888 a33.44317895567119,33.44317895567119 0 0,0 0.05688983231524652,-0.5728728476850279 l 11.128458952796844 1.201938629712943" fill="#ff7b0b" stroke="none" /><path d="M 82.87865157160957 97.61076503672237 l -13.05430310643756 -1.4099410578016816 a35.380223279945405,35.380223279945405 0 0,0 0.07060822230079608,-0.6049281289585188 l 13.0280991529782 1.6344405285567802" fill="#ff940d" stroke="none" /><path d="M 82.92305584045101 97.23033637851896 l -10.757952334969705 -1.3496391986345173 a33.092281328575226,33.092281328575226 0 0,0 0.0757718707896018,-0.5645884485364118 l 10.733126608035494 1.5346197000727706" fill="#ff760a" stroke="none" /><path d="M 82.9740019843064 96.85072843142079 l -20.718731901682276 -2.9623589936080488 a43.17943913297242,43.17943913297242 0 0,0 0.11153476655048189,-0.7348747558350466 l 20.6646700575592 3.318558999477574" fill="#fff316" stroke="none" /><path d="M 83.0314749067338 96.47205368145526 l -20.17866748458965 -3.2405113844996913 a42.68720958170923,42.68720958170923 0 0,0 0.12275243445407237,-0.7244918167648539 l 20.119897720667723 3.587373857932506" fill="#ffed16" stroke="none" /><path d="M 83.09545757726595 96.09442433812323 l -5.993177353116501 -1.0685823586686578 a28.337696037349957,28.337696037349957 0 0,0 0.08975530180889121,-0.4794764112510677 l 5.973895510498351 1.1715867329455465" fill="#ff3805" stroke="none" /><path d="M 83.24287440149914 95.34274912732218 l -10.06207744847721 -2.1538515630530344 a32.540018422472315,32.540018422472315 0 0,0 0.12195629032884159,-0.5467061363187967 l 10.023511629062876 2.32673456949024" fill="#ff6f0a" stroke="none" /><path d="M 83.41607773880396 94.59659368336543 l -12.299387706754311 -3.0790784187030877 a34.92894561347994,34.92894561347994 0 0,0 0.15103220883840554,-0.5819887105698078 l 12.244564146291413 3.2903359611044296" fill="#ff8e0d" stroke="none" /><path d="M 83.51228638717947 94.22586251519697 l -10.27783582398733 -2.761840471409136 a32.892446711839845,32.892446711839845 0 0,0 0.15163923762605255,-0.5455270186965995 l 10.228772508023109 2.9383473234900914" fill="#ff740a" stroke="none" /><path d="M 83.61486230884131 93.85684234858132 l -14.551301412436148 -4.180049710265074 a37.3897882539966,37.3897882539966 0 0,0 0.18302141622632465,-0.6170572306954594 l 14.477192795698612 4.429907124537223" fill="#ffad10" stroke="none" /><path d="M 83.7237751083301 93.48964253215802 l -12.307475084366242 -3.765990570872094 a35.12076640811235,35.12076640811235 0 0,0 0.1818662263209569,-0.5765656368654051 l 12.24082626214802 3.9772855507369145" fill="#ff910d" stroke="none" /><path d="M 83.83899251243284 93.12437187515742 l -19.48644119820482 -6.331528554781096 a42.73925680475264,42.73925680475264 0 0,0 0.23336184987695857,-0.6977222282752084 l 19.3745672156411 6.666017523057337" fill="#ffee16" stroke="none" /><path d="M 84.2221216586899 92.04121418596297 l -19.31862602431222 -7.399831889634989 a42.9373590257938,42.9373590257938 0 0,0 0.27031408639312043,-0.6879198653036286 l 19.188387819592073 7.7312739148877" fill="#fff016" stroke="none" /><path d="M 84.36219754036287 91.68473634591206 l -5.3846416925186364 -2.1695485962546646 a28.055282703565826,28.055282703565826 0 0,0 0.18433431339851383,-0.4463801611610818 l 5.346498687062125 2.2619149094436595" fill="#ff3404" stroke="none" /><path d="M 84.66065226287633 90.97927754399007 l -18.86977041969815 -8.368948894759152 a42.892372472543116,42.892372472543116 0 0,0 0.3051438603496599,-0.6723440479290189 l 18.72291696161351 8.692521023485126" fill="#fff016" stroke="none" /><path d="M 84.81894266514135 90.63050562478702 l -18.73481033666853 -8.698042781281623 a42.90548514501529,42.90548514501529 0 0,0 0.31676875766567003,-0.6671957897489154 l 18.5823120640991 9.019243035221102" fill="#fff016" stroke="none" /><path d="M 85.51140956054059 89.26420274581291 l -18.07323826130489 -9.956113670854497 a42.88410140221451,42.88410140221451 0 0,0 0.3617424225448981,-0.6434994054031724 l 17.89918238548587 10.265739652260002" fill="#fff016" stroke="none" /><line stroke="#e1ed5e" stroke-width="0.3" x1="26.928928074336255" x2="22.591646300688268" y1="55.22380399835377" y2="52.73623755381787" /><path d="M 26.061471719606658 54.726290709446594 a91.0,91.0 0 0,1 31.307708010128266,-32.26534512966574" fill="none" id="id71" stroke="none" /><text fill="#e1ed5e" style="font-size:7.125px; font-family:Arial;" text-anchor="middle"><textPath startOffset="22.71414524061225" xlink:href="#id71">November</textPath></text><path d="M 85.89250192836337 88.59973608014258 l -1.9579742186051647 -1.1682022814650788 a24.529991142777252,24.529991142777252 0 0,0 0.21946656209080348,-0.3607453232302209 l 1.9375754416634885 1.201732507259938" fill="#ff0300" stroke="none" /><path d="M 86.09156971351251 88.27252098270722 l -19.1129422460394 -11.854322424074383 a44.740654090851834,44.740654090851834 0 0,0 0.4115552236313215,-0.6509815285840183 l 18.906057783528425 12.181563960355605" fill="#f9ff18" stroke="none" /><path d="M 86.29624047463285 87.94878099040442 l -17.539267705095934 -11.300912850989455 a43.11472005315863,43.11472005315863 0 0,0 0.4073383582927628,-0.6204042655583037 l 17.342142435531088 11.601148160524096" fill="#fff216" stroke="none" /><path d="M 86.72214668902127 87.31210898760774 l -10.151631453526502 -7.046932223870683 a34.60778600462298,34.60778600462298 0 0,0 0.34391467598537034,-0.486442919559676 l 10.02882602560607 7.220631792591418" fill="#ff8a0c" stroke="none" /><path d="M 86.9432559370862 86.9993656367688 l -15.596430509572425 -11.22923876641441 a41.468336242064915,41.468336242064915 0 0,0 0.4220635167516747,-0.575694162524769 l 15.400826843847973 11.496041946638744" fill="#ffdf14" stroke="none" /><path d="M 87.16971578811344 86.69047465446837 l -19.46483064402321 -14.52964258586524 a46.53971275403424,46.53971275403424 0 0,0 0.48473118639838997,-0.6378494217492863 l 19.211842806673086 14.862544924917042" fill="#e4ff1a" stroke="none" /><path d="M 87.40145913716171 86.3855275717709 l -9.246619990165872 -7.1533119644171554 a33.94058823596181,33.94058823596181 0 0,0 0.36146066958157763,-0.4590183434628984 l 9.122117497097824 7.31141748718745" fill="#ff810b" stroke="none" /><path d="M 87.63841731367523 86.08461475107828 l -9.946691242320862 -7.972316988012495 a34.99733324375789,34.99733324375789 0 0,0 0.380806829500175,-0.46682414586085297 l 9.807987200977841 8.142351742148579" fill="#ff8f0d" stroke="none" /><path d="M 88.63697123905132 84.92307094371118 l -9.813746116479855 -9.042406276747164 a35.594464174798475,35.594464174798475 0 0,0 0.4190530809981949,-0.44701660917775976 l 9.656641944346298 9.20999405380762" fill="#ff970d" stroke="none" /><path d="M 88.89892014791596 84.64364211159388 l -9.305474666486113 -8.87506928807395 a35.10918790735746,35.10918790735746 0 0,0 0.42086844136400964,-0.4337419242060549 l 9.151326231436657 9.033932800422399" fill="#ff900d" stroke="none" /><path d="M 89.1656401542305 84.36876369973626 l -9.446141446787646 -9.32496611916409 a35.523454010026086,35.523454010026086 0 0,0 0.43332557960817053,-0.43146474185891737 l 9.284227936049822 9.48618432183086" fill="#ff960d" stroke="none" /><path d="M 89.43705222310085 84.09851716054412 l -4.023842161537704 -4.111371315872887 a28.002797566223826,28.002797566223826 0 0,0 0.34739038055859234,-0.33418927086032446 l 3.952475487151659 4.180026000088519" fill="#ff3304" stroke="none" /><path d="M 90.27862974410931 83.31636257319835 l -8.06982692025587 -9.145484699749272 a34.446802733349195,34.446802733349195 0 0,0 0.4479826401556637,-0.38848613104874863 l 7.911206802962554 9.283038502397444" fill="#ff880c" stroke="none" /><path d="M 90.56799226697166 83.06543024479777 l -3.6420671569459904 -4.273614694737345 a27.86501876530966,27.86501876530966 0 0,0 0.36774190158564424,-0.307973266887051 l 3.567964293582241 4.33567371172022" fill="#ff3104" stroke="none" /><path d="M 90.86163130519355 82.8195159948936 l -7.558809444113702 -9.185218433293974 a34.14553857039461,34.14553857039461 0 0,0 0.4570568974439377,-0.36957489155633444 l 7.399581088666901 9.31397002314207" fill="#ff840c" stroke="none" /><path d="M 91.15945984719069 82.57869269318536 l -6.653373693447485 -8.374706945024672 a32.94593838425145,32.94593838425145 0 0,0 0.44707237520167314,-0.348947080189414 l 6.508231110993564 8.487993032843452" fill="#ff750a" stroke="none" /><path d="M 92.70831428202045 81.45338407659183 l -6.8962394238344835 -10.405562495194332 a34.733342862881074,34.733342862881074 0 0,0 0.501207056771093,-0.32599901170521883 l 6.716103018315753 10.52272822416382" fill="#ff8c0c" stroke="none" /><path d="M 93.02938493327281 81.24455079385609 l -3.9873415302727877 -6.2473299092580135 a29.661344242048663,29.661344242048663 0 0,0 0.4327460852694086,-0.27098555889550274 l 3.879213247847075 6.315039829793287" fill="#ff4906" stroke="none" /><line stroke="#e1ed5e" stroke-width="0.3" x1="59.21961505331055" x2="56.67626033405003" y1="22.513508569990535" y2="18.20870349054556" /><path d="M 58.710944109458445 21.65254755410153 a91.0,91.0 0 0,1 44.72264048036054,-12.639064922131116" fill="none" id="id72" stroke="none" /><text fill="#e1ed5e" style="font-size:7.125px; font-family:Arial;" text-anchor="middle"><textPath startOffset="23.497391628219546" xlink:href="#id72">December</textPath></text><path d="M 94.68600647241156 80.28492867086544 l -3.0825066482309658 -5.892173412737669 a28.89977854985869,28.89977854985869 0 0,0 0.4427714599725829,-0.22680473913476387 l 2.9806258621226687 5.944360708453539" fill="#ff3f05" stroke="none" /><path d="M 95.37074306575289 79.94158752806558 l -5.4391202849502305 -11.330066162423728 a34.81799223102307,34.81799223102307 0 0,0 0.5425336046091288,-0.2547268019453957 l 5.243285956464136 11.42201300549961" fill="#ff8d0d" stroke="none" /><path d="M 95.71744234187592 79.77880756919606 l -4.8031064112915 -10.463122620450449 a33.7628956465683,33.7628956465683 0 0,0 0.5302669865037392,-0.2379153399325763 l 4.622289323078917 10.544249977239824" fill="#ff7f0b" stroke="none" /><path d="M 96.06689224016708 79.62201958605287 l -4.5891626818270455 -10.468682317612362 a33.68038597718221,33.68038597718221 0 0,0 0.5329780621004376,-0.228193391201383 l 4.408281590639257 10.54612616106003" fill="#ff7e0b" stroke="none" /><path d="M 97.49011548403098 79.05568968533916 l -3.7653576315888166 -10.501202583605464 a33.405858272481154,33.405858272481154 0 0,0 0.5429533618147233,-0.1894257667684349 l 3.5840388130879934 10.564461159092073" fill="#ff7b0b" stroke="none" /><path d="M 97.85175002734488 78.92952249405732 l -4.381212002979175 -12.914241850897362 a35.887179371061954,35.887179371061954 0 0,0 0.5866992923501628,-0.19342553237387392 l 4.158265434681698 12.987743829212567" fill="#ff9a0e" stroke="none" /><path d="M 98.21550275139757 78.80959893999866 l -3.16106857982169 -9.87314292129587 a32.61683682280524,32.61683682280524 0 0,0 0.5361813889114138,-0.16659416753203687 l 2.990650307919147 9.926092707929628" fill="#ff700a" stroke="none" /><path d="M 98.58126586840643 78.69595455910039 l -2.1349367424982026 -7.08594380810348 a29.650577987297268,29.650577987297268 0 0,0 0.48995431484508295,-0.14303109993522176 l 2.012647554112828 7.121643375583513" fill="#ff4906" stroke="none" /><path d="M 100.8119557059878 78.14770526943698 l -1.5966353935941413 -8.330892595369967 a30.732512364604467,30.732512364604467 0 0,0 0.5204110160770955,-0.09510178680458901 l 1.4529962134913614 8.357141737415217" fill="#ff5808" stroke="none" /><path d="M 101.18872754196212 78.07885262467765 l -0.7085220519181034 -4.075178694193519 a26.386312958138326,26.386312958138326 0 0,0 0.4481536757070002,-0.07394919642052314 l 0.6382695744687124 4.086770954919123" fill="#ff1d02" stroke="none" /><path d="M 102.32537100098938 77.91134092531529 l -1.2418296878366406 -10.255759813264778 a32.58067037132486,32.58067037132486 0 0,0 0.5573362675882995,-0.06262322356320237 l 1.065109651053521 10.275616368481353" fill="#ff700a" stroke="none" /><path d="M 102.70598723179457 77.86857425696866 l -1.0457287413378713 -10.088639569507459 a32.3926918006953,32.3926918006953 0 0,0 0.5551102783323983,-0.052714409713158945 l 0.8719144593027226 10.10514532995694" fill="#ff6d0a" stroke="none" /><path d="M 103.0872832280918 77.83236560770499 l -0.48585996929292496 -5.630925771823696 a27.901847924135044,27.901847924135044 0 0,0 0.47886189175135524,-0.03716889905405135 l 0.3888608530981442 5.638454770101236" fill="#ff3204" stroke="none" /><path d="M 103.46914600364839 77.80272570692847 l -0.6953754271734691 -10.082894338988282 a32.35684447470716,32.35684447470716 0 0,0 0.5559798793461094,-0.033538224637346264 l 0.5217119484615688 10.093370194278572" fill="#ff6d0a" stroke="none" /></svg>