<?xml version="1.0" encoding="utf-8" ?>
<svg baseProfile="full" height="200mm" version="1.1" viewBox="0,0,200,200" width="200mm" xmlns="http://www.w3.org/2000/svg" xmlns:ev="http://www.w3.org/2001/xml-events" xmlns:xlink="http://www.w3.org/1999/xlink"><defs /><rect fill="#1a1a1a" height="200" width="200" x="0" y="0" /><rect fill="#1a1a1a" height="200" width="180" x="10" y="0" /><text alignment-baseline="middle" fill="#e1ed5e" style="dominant-baseline: central; font-size:9.0px; font-family:Arial;" text-anchor="middle" x="100.0" y="100.0">2025</text><line stroke="#e1ed5e" stroke-width="0.3" x1="100.0" x2="100.0" y1="15.0" y2="10.0" /><path d="M 100.0 14.0 a86.0,86.0 0 0,1 42.46469731375804,11.215312516191453" fill="none" id="id85" stroke="none" /><text fill="#e1ed5e" style="font-size:6.75px; font-family:Arial;" text-anchor="middle"><textPath startOffset="22.20632615414155" xlink:href="#id85">January</textPath></text><path d="M 100.0 79.0 l 0.0 -40.03215585393399 a61.03215585393399,61.03215585393399 0 0,0 1.0505682356721766,0.009042572480659499 l -0.6890877563996483 40.02622465806189" fill="#30ff36" stroke="none" /><path d="M 101.08401301168833 79.027996857942 l 1.50119614699033 -29.043092630864514 a50.08186409838123,50.08186409838123 0 0,0 0.8605446300739467,0.051910402131508784 l -2.000902825903889 29.012948959352702" fill="#9dff22" stroke="none" /><path d="M 101.80526077348638 79.07773832637324 l 0.9455701758778776 -10.95878608844294 a31.999504329275943,31.999504329275943 0 0,0 0.5483722644606362,0.052074554106533465 l -1.1340675674287581 10.940885989821227" fill="#ff800b" stroke="none" /><path d="M 102.16513564639614 79.11191278185805 l 0.6790467462715338 -6.551085002422157 a27.58618396285607,27.58618396285607 0 0,0 0.4718988477411398,0.05302333395453751 l -0.7917122975223989 6.538425714997018" fill="#ff4306" stroke="none" /><path d="M 102.52436894288641 79.15227682838746 l 1.321706233818452 -10.915427300945687 a31.995156230392773,31.995156230392773 0 0,0 0.5461805841755348,0.07090991531370947 l -1.509401546501833 10.891059062467841" fill="#ff800b" stroke="none" /><path d="M 102.88285421437855 79.19881850522331 l 1.8419300436604193 -13.290412310052073 a34.417442590036394,34.417442590036394 0 0,0 0.5861307183101391,0.08638043169371928 l -2.0704297423992144 13.256737394197385" fill="#ffa10e" stroke="none" /><path d="M 103.2404852339499 79.25152402106235 l 1.8405073727912167 -11.784569364282605 a32.92742815911657,32.92742815911657 0 0,0 0.5592500924436793,0.09228105709290692 l -2.043086671373771 11.751142044250074" fill="#ff8d0d" stroke="none" /><path d="M 103.59715602781102 79.31037775812273 l 1.9214473664930627 -11.051513991341327 a32.217304555151216,32.217304555151216 0 0,0 0.5455538421297861,0.09969647755681718 l -2.1113963297257494 11.016802032433771" fill="#ff830c" stroke="none" /><path d="M 104.307194497241 79.44645832069477 l 2.075576979367554 -9.904465187574845 a31.119607228008533,31.119607228008533 0 0,0 0.5233388435264608,0.11438160107430674 l -2.2457585470475427 9.867270088404668" fill="#ff740a" stroke="none" /><path d="M 104.66035177308747 79.52364482259891 l 2.690506636322611 -11.82137576194131 a33.123685531434305,33.123685531434305 0 0,0 0.5548632366886078,0.13131820121201285 l -2.8935935599737426 11.773311648588429" fill="#ff900d" stroke="none" /><path d="M 105.01212808612495 79.60689891045804 l 2.4690973184719387 -10.046142147664968 a31.345115447358516,31.345115447358516 0 0,0 0.5228531106834001,0.13328689972333585 l -2.641659317840364 10.002152251772763" fill="#ff770b" stroke="none" /><path d="M 105.36241919743992 79.69619591428918 l 3.008613923041006 -11.391557693238468 a32.78216212824695,32.78216212824695 0 0,0 0.54434329190144,0.14878958436364234 l -3.2042551041661564 11.338081568048533" fill="#ff8b0c" stroke="none" /><path d="M 106.0581310904928 79.89281104454417 l 5.85256970928194 -19.424922185026 a41.28743882544861,41.28743882544861 0 0,0 0.6787156098026792,0.21088024378399053 l -6.186070691795337 19.32130180635949" fill="#fff917" stroke="none" /><path d="M 106.40334571778207 80.00007090966166 l 3.417802851919073 -10.67501548343919 a32.20880599824319,32.20880599824319 0 0,0 0.5265636368694452,0.17359975223799623 l -3.601049311030936 10.614602006941956" fill="#ff830c" stroke="none" /><path d="M 106.74666289553966 80.11325718540242 l 3.257281903735933 -9.601298967681403 a31.138778391266158,31.138778391266158 0 0,0 0.5061059731630859,0.1765704363853179 l -3.422069880962293 9.543807678123878" fill="#ff750a" stroke="none" /><path d="M 107.76421540070413 80.48803036053334 l 7.545849887254165 -18.96320314486941 a41.40938323503576,41.40938323503576 0 0,0 0.6600185009125081,0.26923811859982527 l -7.87115225775506 18.830504140086006" fill="#fffb17" stroke="none" /><path d="M 108.43124777332544 80.76684994638697 l 9.728759567529469 -22.193001276727557 a45.23175743506086,45.23175743506086 0 0,0 0.7103924959645826,0.31873240549508264 l -10.109334181960833 22.022248540715943" fill="#d5ff1c" stroke="none" /><path d="M 109.73455568895987 81.39251694778311 l 4.728051343708293 -9.037611788264751 a31.199651775630567,31.199651775630567 0 0,0 0.4737220721548371,0.25304592491081934 l -4.882918462391441 8.954887136852177" fill="#ff750a" stroke="none" /><path d="M 110.05341064243156 81.56283822128135 l 2.013836040721984 -3.6932163819009385 a25.206588028610867,25.206588028610867 0 0,0 0.3791501883296854,0.21099666930827093 l -2.0771103181237045 3.6580043150324877" fill="#ff2103" stroke="none" /><path d="M 110.36928655335952 81.73862282372117 l 7.975170659057851 -14.045093527004793 a37.151408583260135,37.151408583260135 0 0,0 0.5533848570647342,0.3205562277328746 l -8.215752248587913 13.905733141881868" fill="#ffc512" stroke="none" /><line stroke="#e1ed5e" stroke-width="0.3" x1="143.23703022742887" x2="145.7803849466894" y1="26.81831364943548" y2="22.513508569990506" /><path d="M 143.74570117128098 25.957352633546492 a86.0,86.0 0 0,1 28.547481713284135,27.462654790039103" fill="none" id="id86" stroke="none" /><text fill="#e1ed5e" style="font-size:6.75px; font-family:Arial;" text-anchor="middle"><textPath startOffset="19.985693538727396" xlink:href="#id86">February</textPath></text><path d="M 110.99172775467656 82.1063720568725 l 5.7602087919051925 -9.377145731546225 a32.00503827330907,32.00503827330907 0 0,0 0.4669395597397423,0.2923975094719091 l -5.920767504017198 9.27660388075137" fill="#ff810b" stroke="none" /><path d="M 111.2981086023043 82.29822771554956 l 7.213974902886803 -11.30278929790051 a34.40874639227005,34.40874639227005 0 0,0 0.4965230837278101,0.322952425344685 l -7.407465012398893 11.176937948396297" fill="#ffa10e" stroke="none" /><path d="M 111.60114157652 82.49532879139004 l 6.192686170821892 -9.34398865864544 a32.20979420253482,32.20979420253482 0 0,0 0.4595191970100389,0.31026941307067385 l -6.3526100622384725 9.236007333276097" fill="#ff830c" stroke="none" /><path d="M 113.06298171725822 83.55741782278167 l 6.438218972606775 -8.10388828701753 a31.350056468816668,31.350056468816668 0 0,0 0.419637825152174,0.3393179374184409 l -6.57676019632344 7.991864252334959" fill="#ff780b" stroke="none" /><path d="M 113.34407831869373 83.78471172551755 l 6.445898140782477 -7.832844955227313 a31.144114694440958,31.144114694440958 0 0,0 0.4110169836021482,0.3442149035511376 l -6.579772661343743 7.720728894282356" fill="#ff750a" stroke="none" /><path d="M 114.16331599549186 84.49514656593476 l 12.934134248411647 -14.159244620537878 a40.17748776508972,40.17748776508972 0 0,0 0.5066039051964171,0.4708331181919439 l -13.175946037402912 13.934506916271294" fill="#ffec16" stroke="none" /><path d="M 114.68862486808459 84.99185889309783 l 17.065089172567138 -17.436299762835038 a45.39757811519638,45.39757811519638 0 0,0 0.5537730605819405,0.5513949830713025 l -17.362698033316402 17.139968929113618" fill="#d3ff1c" stroke="none" /><path d="M 115.4437574822437 85.77008943001954 l 9.855351763868121 -9.08074180760628 a34.401038398795336,34.401038398795336 0 0,0 0.3975062255656971,0.43893630257097266 l -10.010201630049854 8.909752717765757" fill="#ffa10e" stroke="none" /><path d="M 115.9244219780498 86.31012108654704 l 8.535072536340433 -7.33741605824664 a32.25544924080813,32.25544924080813 0 0,0 0.35832637928978855,0.4241454111210379 l -8.660109529117339 7.189411697496495" fill="#ff840c" stroke="none" /><path d="M 116.15771136456269 86.58626213691792 l 7.853541881881418 -6.51981891020398 a31.207162128246956,31.207162128246956 0 0,0 0.3395658859200198,0.41626762541564394 l -7.964606259877847 6.383667115180235" fill="#ff760a" stroke="none" /><path d="M 116.38621287248628 86.86637796730983 l 2.101533343079783 -1.6843882617593386 a23.693251976408582,23.693251976408582 0 0,0 0.25232852961822744,0.3204316082517735 l -2.1302159532919744 1.6479642595545267" fill="#ff0a01" stroke="none" /><path d="M 117.04232023915458 87.72973835380427 l 8.241166923779662 -5.933539154629031 a31.15498494164889,31.15498494164889 0 0,0 0.3096024851201041,0.4379107589207994 l -8.342082028703649 5.790801895376438" fill="#ff750a" stroke="none" /><path d="M 117.2510076193507 88.02491185347247 l 8.653808104395265 -6.007191993644723 a31.534455389634836,31.534455389634836 0 0,0 0.3056973145614477,0.4485730880515668 l -8.755929884625447 5.85734088232275" fill="#ff7a0b" stroke="none" /><path d="M 117.45458315368197 88.32363383020206 l 8.435104176577315 -5.642722268353475 a31.148462793324132,31.148462793324132 0 0,0 0.29428380102971413,0.4482144186193369 l -8.530984612964954 5.496689785756463" fill="#ff750a" stroke="none" /><path d="M 117.65298651832404 88.62581576622439 l 16.8263819356521 -10.84158580902553 a41.01667084954197,41.01667084954197 0 0,0 0.37729947152354576,0.596797155286176 l -17.010509003421603 10.550341006025146" fill="#fff617" stroke="none" /><line stroke="#e1ed5e" stroke-width="0.3" x1="172.23445277983987" x2="176.4835382374775" y1="55.19839476539836" y2="52.563006222186495" /><path d="M 173.08426987136738 54.67131705675599 a86.0,86.0 0 0,1 12.851231095245387,41.99856678651699" fill="none" id="id87" stroke="none" /><text fill="#e1ed5e" style="font-size:6.75px; font-family:Arial;" text-anchor="middle"><textPath startOffset="22.20632615414155" xlink:href="#id87">March</textPath></text><path d="M 118.56541770881063 90.18545643968196 l 15.387583849392499 -8.134592732930441 a38.40543982933869,38.40543982933869 0 0,0 0.3039343721415639,0.5871044666098442 l -15.525327654694179 7.868515544060252" fill="#ffd513" stroke="none" /><path d="M 118.73160827565052 90.50648371742162 l 9.395303658952049 -4.761709029649887 a31.53307190362655,31.53307190362655 0 0,0 0.2412129648637057,0.48627061815060113 l -9.475876636769163 4.599278823000335" fill="#ff7a0b" stroke="none" /><path d="M 118.89224826269711 90.83032412892265 l 9.54219746060515 -4.631468769354131 a31.606791943782156,31.606791943782156 0 0,0 0.2333511480872293,0.49149702983397764 l -9.620506802534136 4.466529323879613" fill="#ff7b0b" stroke="none" /><path d="M 119.196687751892 91.48605970444005 l 12.649542849937749 -5.610210156170438 a34.83782469569582,34.83782469569582 0 0,0 0.23840566941159874,0.5502731548716323 l -12.74423922919203 5.391637856712202" fill="#ffa70f" stroke="none" /><path d="M 119.61058180528143 92.48833698450437 l 9.483656689822256 -3.6326323163655503 a31.155577864223865,31.155577864223865 0 0,0 0.1875200992675348,0.502460636909223 l -9.544781377591415 3.468848542426994" fill="#ff750a" stroke="none" /><path d="M 119.7369772167798 92.82701384747503 l 9.534750663859713 -3.465203092067135 a31.144905257874264,31.144905257874264 0 0,0 0.17878201796700507,0.5054408398381791 l -9.592985762636529 3.300564625802341" fill="#ff750a" stroke="none" /><path d="M 119.85752413597 93.16781622104841 l 9.830894799765618 -3.3824196573364604 a31.396502070523276,31.396502070523276 0 0,0 0.1714289473098297,0.5125507325681257 l -9.887661040847217 3.2126958218460206" fill="#ff780b" stroke="none" /><path d="M 120.08093135843002 93.85539295169968 l 18.907611787120064 -5.7855804882721005 a40.772979671226,40.772979671226 0 0,0 0.1995819936850703,0.6728912651822887 l -19.00439967791684 5.459259836343282" fill="#fff316" stroke="none" /><path d="M 120.28053869075195 94.5502522615342 l 20.070518430310955 -5.393311494003896 a41.782529175555275,41.782529175555275 0 0,0 0.1806669958512627,0.6961836337207731 l -20.16038175803252 5.047031434734272" fill="#ffff18" stroke="none" /><path d="M 120.37134235888165 94.90015583598534 l 15.5996449149555 -3.90527814410577 a37.08104843769607,37.08104843769607 0 0,0 0.14967888759316247,0.6205156212647288 l -15.664556602809482 3.636177291181635" fill="#ffc412" stroke="none" /><path d="M 120.45610955862082 95.25157060432595 l 20.91386281963741 -4.854686601343974 a42.46992408081316,42.46992408081316 0 0,0 0.1591724480360631,0.7135388739650745 l -20.99432965467551 4.493969557828935" fill="#f6ff19" stroke="none" /><path d="M 120.67395015179393 96.31383870115 l 22.872162576485714 -4.078102147456852 a44.232880537081186,44.232880537081186 0 0,0 0.12719720548727098,0.7507251070068337 l -22.938971643493208 3.6837912521341805" fill="#e1ff1b" stroke="none" /><path d="M 120.78858239683441 97.02765380044208 l 10.195183587495084 -1.4577047444418676 a31.298867486510225,31.298867486510225 0 0,0 0.07166546541476275,0.5339909587888216 l -10.218765051967683 1.2819954435883816" fill="#ff770a" stroke="none" /><path d="M 120.83666639777658 97.38593545837742 l 19.629779173212174 -2.4626544725048154 a40.783652277575605,40.783652277575605 0 0,0 0.08139183191321765,0.6973155106783525 l -19.66926135812898 2.12439522350161" fill="#fff316" stroke="none" /><path d="M 120.91429891909075 98.10471618934814 l 10.36903331119446 -0.9396566933868387 a31.411522775756055,31.411522775756055 0 0,0 0.04416387733189974,0.5389111664483859 l -10.383671672345855 0.7610316097306841" fill="#ff780b" stroke="none" /><path d="M 120.98425023603335 99.18683210126433 l 6.591909000925349 -0.25544533307816986 a27.596856569205674,27.596856569205674 0 0,0 0.014308714589964291,0.47483657693735865 l -6.595329409970958 0.14193860871581213" fill="#ff4306" stroke="none" /><line stroke="#e1ed5e" stroke-width="0.3" x1="184.98032266829074" x2="189.97916517819016" y1="98.17113171792111" y2="98.06355123074" /><path d="M 185.9800911702706 98.14961562048488 a86.0,86.0 0 0,1 -9.607161424134198,41.387399972396054" fill="none" id="id88" stroke="none" /><text fill="#e1ed5e" style="font-size:6.75px; font-family:Arial;" text-anchor="middle"><textPath startOffset="21.466115282336823" xlink:href="#id88">April</textPath></text><path d="M 120.99513854157772 99.54816195383933 l 18.873098845466053 -0.40616946110857677 a39.877468942150834,39.877468942150834 0 0,0 0.008862279224597005,0.6863932925194058 l -18.877294131808366 0.08123991052870827" fill="#ffe815" stroke="none" /><path d="M 120.99824983174949 100.27111621757518 l 21.411614173869676 0.2764533184199722 a42.413398795331915,42.413398795331915 0 0,0 -0.015708988435517712,0.7299349653137251 l -21.403683122749154 -0.6449780995238122" fill="#f7ff19" stroke="none" /><path d="M 120.9904718944345 100.63252640178507 l 29.830228912595153 0.8989034383505989 a50.84376960722801,50.84376960722801 0 0,0 -0.0338906824907624,0.8745679252242144 l -29.810336097253188 -1.4122486105888197" fill="#94ff23" stroke="none" /><path d="M 120.95626037817324 101.35467743843564 l 20.84002663382448 1.347163729967972 a41.88352365415987,41.88352365415987 0 0,0 -0.05270032524792946,0.7190540674046472 l -20.813749749912212 -1.7056909338693895" fill="#fdff18" stroke="none" /><path d="M 120.92983693683757 101.71520430193887 l 9.960123053779537 0.8162340662872103 a30.993512360396537,30.993512360396537 0 0,0 -0.04815123112139965,0.5313448230472704 l -9.944597226381061 -0.9875602778830512" fill="#ff730a" stroke="none" /><path d="M 120.5718875245553 104.21870165774334 l 13.970632387973966 2.864974346399582 a35.261369055088466,35.261369055088466 0 0,0 -0.12705168502121164,0.5935431747352433 l -13.91924666422831 -3.1050313405509944" fill="#ffac0f" stroke="none" /><path d="M 120.49622156327973 104.57218783832717 l 10.29234908141254 2.295962363236771 a31.54532563684277,31.54532563684277 0 0,0 -0.12278557452818814,0.5289570414703896 l -10.2513029409538 -2.472788062055726" fill="#ff7a0b" stroke="none" /><path d="M 120.41448212921028 104.9243191809786 l 18.26678587433807 4.406258433914611 a39.79070460534571,39.79070460534571 0 0,0 -0.16634160288460803,0.6644520169455509 l -18.188232957158398 -4.720038290257558" fill="#ffe715" stroke="none" /><path d="M 120.32669344350535 105.2749913415812 l 9.860384867849755 2.5588738742544868 a31.187002760697702,31.187002760697702 0 0,0 -0.13931965343406455,0.5184602586113702 l -9.814877138073912 -2.7282250660414054" fill="#ff750a" stroke="none" /><path d="M 120.02730092923936 106.31721596034902 l 40.93659222880329 12.912638338226522 a63.92482745639352,63.92482745639352 0 0,0 -0.3400427894918348,1.0465440951541776 l -40.70825718829521 -13.615381333358494" fill="#34ff59" stroke="none" /><path d="M 119.79798401119884 107.00284435728193 l 7.4493983006123345 2.6349640864989134 a28.90168151587401,28.90168151587401 0 0,0 -0.16993602301733915,0.46759095072597023 l -7.4029380165897685 -2.762802834231015" fill="#ff5607" stroke="none" /><path d="M 119.54520255179757 107.68017299344265 l 9.622560145756209 3.7811287124480346 a31.338790939892085,31.338790939892085 0 0,0 -0.20160898706254932,0.5003769720565583 l -9.556048544436266 -3.9462050523474064" fill="#ff770b" stroke="none" /><path d="M 119.26925614724726 108.34839909993367 l 25.415578203877228 11.011291177000292 a48.69837809009913,48.69837809009913 0 0,0 -0.33986578420148933,0.7663076214276814 l -25.222271334944466 -11.44714713492066" fill="#acff20" stroke="none" /><path d="M 118.97047184881838 109.00673069616215 l 16.965943574217103 8.055028150961583 a39.78102020328774,39.78102020328774 0 0,0 -0.29901449941110597,0.6160584339560798 l -16.824775818191284 -8.345875540882938" fill="#ffe715" stroke="none" /><path d="M 118.81262510543309 109.33194174019688 l 9.198155541965944 4.562715259238626 a31.26764023089472,31.26764023089472 0 0,0 -0.24332377900843738,0.4801009001165427 l -9.118253093171237 -4.7203703710578635" fill="#ff760a" stroke="none" /><line stroke="#e1ed5e" stroke-width="0.3" x1="174.80103733775053" x2="179.2010983576182" y1="140.37084112569926" y2="142.7455964860345" /><path d="M 175.68104954172406 140.8457921977663 a86.0,86.0 0 0,1 -30.038265399797805,32.042727171017184" fill="none" id="id89" stroke="none" /><text fill="#e1ed5e" style="font-size:6.75px; font-family:Arial;" text-anchor="middle"><textPath startOffset="22.206326154141568" xlink:href="#id89">May</textPath></text><path d="M 118.48025628344425 109.97397251340804 l 14.316227147724277 7.726605836902154 a37.26821433053081,37.26821433053081 0 0,0 -0.30954551223151855,0.561915018272165 l -14.181105226041248 -7.971891373572124" fill="#ffc612" stroke="none" /><path d="M 118.30583269289576 110.29060199501025 l 9.516150101569496 5.349492419322289 a31.916692809637347,31.916692809637347 0 0,0 -0.27334064243957035,0.4765924500447088 l -9.422657462977545 -5.512504715225313" fill="#ff7f0b" stroke="none" /><path d="M 118.12598468904814 110.60418214915192 l 4.5768168203896895 2.6775593193587373 a26.30250658802861,26.30250658802861 0 0,0 -0.23198701129410804,0.3888235747968835 l -4.530048933397354 -2.7559449880417253" fill="#ff3104" stroke="none" /><path d="M 117.75023020441432 111.22182372390056 l 17.964172933882764 11.35707986252279 a42.25311205922951,42.25311205922951 0 0,0 -0.39395018325626874,0.6114194328999155 l -17.766017887249447 -11.664620895344159" fill="#f9ff18" stroke="none" /><path d="M 117.14729908036423 112.12312394758627 l 15.021046904901581 10.619865705798423 a39.39601581126867,39.39601581126867 0 0,0 -0.39624926853477155,0.5503555770543865 l -14.836017843991208 -10.87685488830394" fill="#ffe215" stroke="none" /><path d="M 116.71984013943494 112.70617746262583 l 28.864069114095972 21.93513702276314 a57.2530650018823,57.2530650018823 0 0,0 -0.6030470319898648,0.7795195804048818 l -28.482215264888037 -22.428734597281274" fill="#50ff2b" stroke="none" /><path d="M 115.56566222782051 114.09645910891815 l 9.181621409166619 8.314991604826 a33.38714079558288,33.38714079558288 0 0,0 -0.3894428602205045,0.42266330887032727 l -9.037132140950392 -8.471806168497663" fill="#ff930d" stroke="none" /><path d="M 115.07121518719521 114.62390073753431 l 7.450975032469858 7.229829706450096 a31.38207428786548,31.38207428786548 0 0,0 -0.3795129509812888,0.3844446156742075 l -7.325421456433033 -7.357014816104969" fill="#ff780b" stroke="none" /><path d="M 114.81725581225074 114.88116024355365 l 7.1544531201378305 7.185309120987041 a31.139766595557784,31.139766595557784 0 0,0 -0.38309334204614315,0.3749374656524722 l -7.029709825715893 -7.3073966895620845" fill="#ff750a" stroke="none" /><path d="M 114.29624159901734 115.38237550388516 l 8.391933286224534 9.02949688686932 a33.32705797465178,33.32705797465178 0 0,0 -0.42357175182754786,0.3869227525051623 l -8.235261984930121 -9.172612405961065" fill="#ff920d" stroke="none" /><path d="M 114.0293411484842 115.62618273729858 l 8.236186241938897 9.173641863350582 a33.32844146066006,33.32844146066006 0 0,0 -0.43018709160081164,0.37959009134223154 l -8.0770567974315 -9.314055096465104" fill="#ff920d" stroke="none" /><path d="M 113.75828350139079 115.86535959552629 l 8.664533258522694 9.991503363044057 a34.22513803488518,34.22513803488518 0 0,0 -0.44840557344347176,0.3821409576396913 l -8.491262208502175 -10.139168710906695" fill="#ff9e0e" stroke="none" /><path d="M 113.20401910651253 116.32954008644616 l 17.072478575511457 21.11370189825793 a48.15249403940268,48.15249403940268 0 0,0 -0.6490096497535877,0.5156125174062849 l -16.706511433040518 -21.404448329669343" fill="#b3ff20" stroke="none" /><path d="M 112.92097659922987 116.55440617244103 l 7.621981785228985 9.765313120306116 a33.38773371815786,33.38773371815786 0 0,0 -0.4560943630689808,0.34971370873992697 l -7.45275869366651 -9.895066170873413" fill="#ff930d" stroke="none" /><path d="M 112.34349029814194 116.9893568818739 l 2.981977529768528 4.104339959224691 a26.073243192370434,26.073243192370434 0 0,0 -0.36536394980308223,0.2606774771699676 l -2.910886252116561 -4.155061698238878" fill="#ff2d04" stroke="none" /><path d="M 112.04921762599082 117.19931262002967 l 11.489319861289554 16.400102497906822 a41.02418120215836,41.02418120215836 0 0,0 -0.5818461873831522,0.4001991132389288 l -11.205316789283518 -16.595442400510844" fill="#fff617" stroke="none" /><path d="M 111.7513745106137 117.40417183066458 l 6.8951031417652855 10.211874343809944 a33.32172167147697,33.32172167147697 0 0,0 -0.4781275152933745,0.31687684563991675 l -6.7183009277319465 -10.329049210541179" fill="#ff920d" stroke="none" /><path d="M 111.1453310114006 117.79835938074945 l 5.77629961227075 9.224369943334585 a31.8836867862969,31.8836867862969 0 0,0 -0.4676589863344213,0.28727434571423893 l -5.616661426004021 -9.322432755877202" fill="#ff7f0b" stroke="none" /><line stroke="#e1ed5e" stroke-width="0.3" x1="143.8653032363475" x2="146.44561519142675" y1="172.8068346515853" y2="177.08958963109032" /><path d="M 144.38136562736335 173.6633856474863 a86.0,86.0 0 0,1 -40.68145358897372,12.25698825130547" fill="none" id="id90" stroke="none" /><text fill="#e1ed5e" style="font-size:6.75px; font-family:Arial;" text-anchor="middle"><textPath startOffset="21.466115282336833" xlink:href="#id90">June</textPath></text><path d="M 110.5260780823613 118.17145234162733 l 6.174676127451658 10.65950984754633 a33.31875705860208,33.31875705860208 0 0,0 -0.49875201742974123,0.2832044121246833 l -5.990275343100718 -10.764217425465642" fill="#ff920d" stroke="none" /><path d="M 110.21172684928248 118.3499491758327 l 2.921375276424017 5.249561473501567 a27.007689170535826,27.007689170535826 0 0,0 -0.40817259270810513,0.2225682421584588 l -2.830579871847263 -5.299070367419796" fill="#ff3b05" stroke="none" /><path d="M 109.89434966115114 118.52300852407294 l 6.616947216295123 12.38745080659657 a35.043964110929856,35.043964110929856 0 0,0 -0.5345190722031343,0.27963511564519083 l -6.402737241565493 -12.499515341186479" fill="#ffa90f" stroke="none" /><path d="M 109.57404056367764 118.69057910512821 l 5.698380279403352 11.124459592051199 a33.49900552139541,33.49900552139541 0 0,0 -0.5154796538453599,0.2584721996201385 l -5.506046717875232 -11.22089963258064" fill="#ff950d" stroke="none" /><path d="M 109.2508944713604 118.85261126421891 l 5.82722769765483 11.875441761019305 a34.22810264776007,34.22810264776007 0 0,0 -0.5311669072044142,0.2549923944179118 l -5.621948122450182 -11.973988431936776" fill="#ff9f0e" stroke="none" /><path d="M 108.92500713936063 119.00905698771935 l 5.85159710148468 12.46310966864551 a34.76845275442339,34.76845275442339 0 0,0 -0.5439309270226906,0.24969201046885303 l -5.6361981786945705 -12.561988749448437" fill="#ffa60f" stroke="none" /><path d="M 108.59647513512805 119.15986991738527 l 12.594068001956698 28.06972635355623 a51.765566570460535,51.765566570460535 0 0,0 -0.8161194693384385,0.3577627918175924 l -12.109027857960507 -28.282353698668278" fill="#8aff24" stroke="none" /><path d="M 108.2653958097858 119.30500536409082 l 3.914135283231825 9.142018649500795 a30.94469506839001,30.94469506839001 0 0,0 -0.49147328487886827,0.20543587293903054 l -3.7561905388554955 -9.208039565459798" fill="#ff720a" stroke="none" /><path d="M 107.93186726928326 119.44442032107085 l 3.9219893580775897 9.614483826343521 a31.38365541473209,31.38365541473209 0 0,0 -0.5019575433606225,0.1997392657262622 l -3.7559107386751007 -9.680569936475854" fill="#ff780b" stroke="none" /><path d="M 107.59598834532513 119.57807347666477 l 5.238100722019554 13.500800179213563 a35.48134333040532,35.48134333040532 0 0,0 -0.5712999422589927,0.2160167539695115 l -5.004930559000286 -13.588965183289705" fill="#ffaf10" stroke="none" /><path d="M 107.2578585660854 119.70592522655815 l 5.270372004487246 14.309669400541603 a36.24937570586021,36.24937570586021 0 0,0 -0.5873787377184728,0.2106131174113493 l -5.0232737061390385 -14.398270058992912" fill="#ffb911" stroke="none" /><path d="M 106.91757812671514 119.82793768551818 l 4.077369333541682 11.687012937965548 a33.37785167524156,33.37785167524156 0 0,0 -0.5441070894270033,0.18459066653904926 l -3.8755925111774525 -11.75546659140272" fill="#ff930d" stroke="none" /><path d="M 106.57524785965236 119.94407469862006 l 0.6217359321677187 1.8858525395002745 a22.985697703601456,22.985697703601456 0 0,0 -0.3768326232162938,0.12064990597183373 l -0.5891819638604845 -1.896275292131815" fill="#ff0000" stroke="none" /><path d="M 106.2309692047433 120.05430185196036 l 9.580320401309804 30.834149688960906 a53.28819174300414,53.28819174300414 0 0,0 -0.8783036537657328,0.26462568604488135 l -9.048141773103826 -30.994490744111513" fill="#7aff26" stroke="none" /><path d="M 105.88484417918355 120.15858648285463 l 0.6467310090380816 2.215382868242189 a23.307852302672856,23.307852302672856 0 0,0 -0.38609882640577053,0.10911538497920696 l -0.6085010145277053 -2.226187046559915" fill="#ff0500" stroke="none" /><path d="M 105.53697534728816 120.25689768951611 l 4.0000460627855325 14.634077048380503 a36.17091228510478,36.17091228510478 0 0,0 -0.6020037874224351,0.15899467178554477 l -3.7475518325516 -14.70076306946963" fill="#ffb811" stroke="none" /><path d="M 105.18746579009965 120.34920634021253 l 3.5068121493010542 13.756398000481164 a35.19634521269921,35.19634521269921 0 0,0 -0.588360065522003,0.1446045893760335 l -3.26949879903584 -13.814723848171228" fill="#ffab0f" stroke="none" /><path d="M 104.83641907484287 120.43548508189849 l 3.462767421746809 14.631348295947683 a36.03552829715146,36.03552829715146 0 0,0 -0.6048475062252018,0.13766132320244162 l -3.210399766128745 -14.68878635272781" fill="#ffb610" stroke="none" /><path d="M 104.48393922423573 120.51570834832081 l 2.642634817676611 12.091048178694294 a33.37646818923328,33.37646818923328 0 0,0 -0.5623275920324514,0.11784121431916654 l -2.4341157642147815 -12.134745373740001" fill="#ff930d" stroke="none" /><path d="M 104.13013068566511 120.58985236759428 l 5.895659194543567 29.39150396538926 a50.97697954573974,50.97697954573974 0 0,0 -0.8618323166692101,0.16517221466785553 l -5.388859263302653 -29.48863337840558" fill="#93ff23" stroke="none" /><path d="M 103.7750983002368 120.6578951692458 l 2.743637604538401 15.013589980795889 a36.262222361651396,36.262222361651396 0 0,0 -0.6149917995624464,0.10692420736289575 l -2.484796833503905 -15.05859276667979" fill="#ffb911" stroke="none" /><path d="M 103.41894727170886 120.7198165907248 l 3.8926188409559628 23.590404306497124 a44.90940519513113,44.90940519513113 0 0,0 -0.7638109010654374,0.11929155418186173 l -3.4859720762820086 -23.65391416802609" fill="#d9ff1c" stroke="none" /><path d="M 103.06178313531738 120.77559828337769 l 1.6629355278833335 11.28377777640334 a32.4056562931359,32.4056562931359 0 0,0 -0.5525494763046916,0.07657832257353556 l -1.4684574603918115 -11.310730664469478" fill="#ff860c" stroke="none" /><path d="M 102.70371172650421 120.8252237178851 l 1.5603426063738048 12.018472064067451 a33.119337432551134,33.119337432551134 0 0,0 -0.5659819986309765,0.0685325379570573 l -1.353233184691448 -12.043550130749859" fill="#ff900d" stroke="none" /><path d="M 102.34483914955558 120.86867818915974 l 4.907103354775044 43.672403188574826 a64.947223616514,64.947223616514 0 0,0 -1.1120430739745342,0.11526781148726473 l -4.1546276841949075 -43.75040036851785" fill="#35ff65" stroke="none" /><path d="M 101.62511606390274 120.93702456842531 l 0.16357713925937759 2.1074301458085287 a23.113768979796713,23.113768979796713 0 0,0 -0.39693742061273746,0.027375128523603756 l -0.1272769578677098 -2.1099336188484177" fill="#ff0200" stroke="none" /><path d="M 100.90346689309514 120.98055641714683 l 0.5128810019235113 11.910263539679974 a32.921301292508474,32.921301292508474 0 0,0 -0.5663712453985846,0.019506970859903914 l -0.3077894048502744 -11.917327308965971" fill="#ff8d0d" stroke="none" /><line stroke="#e1ed5e" stroke-width="0.3" x1="102.19456741930631" x2="102.32365962044197" y1="184.97166512339345" y2="189.96999836594603" /><path d="M 102.22038585953345 185.97133177190398 a86.0,86.0 0 0,1 -42.740103519485714,-10.115201625700543" fill="none" id="id91" stroke="none" /><text fill="#e1ed5e" style="font-size:6.75px; font-family:Arial;" text-anchor="middle"><textPath startOffset="22.20632615414155" xlink:href="#id91">July</textPath></text><path d="M 100.18074693466247 120.99922214144158 l 0.115403935196726 13.4076568198413 a34.408153469695065,34.408153469695065 0 0,0 -0.5923017397183536,0.0 l 0.11540393519671677 -13.4076568198413" fill="#ffa10e" stroke="none" /><path d="M 99.45781275523022 120.99299961872073 l -0.3550156215996479 13.74588369751466 a34.75046743631572,34.75046743631572 0 0,0 -0.5978398406920912,-0.02059081290940669 l 0.591575813966382 -13.73773608617916" fill="#ffa50f" stroke="none" /><path d="M 99.09653310690486 120.98055641714683 l -0.8531435944161807 19.81193494900013 a40.830295520140545,40.830295520140545 0 0,0 -0.7019154215701908,-0.036281009731534516 l 1.1940470843998605 -19.794314132506393" fill="#fff417" stroke="none" /><path d="M 98.73552117531835 120.96189622390904 l -1.2518245159517751 20.752119435873304 a41.789841887313344,41.789841887313344 0 0,0 -0.7176653907488434,-0.049494407149532044 l 1.6088526674795485 -20.727496684207487" fill="#feff18" stroke="none" /><path d="M 98.37488393609728 120.93702456842531 l -0.7672601394059467 9.884921296352015 a30.914653657924458,30.914653657924458 0 0,0 -0.5301946752358918,-0.045747427522197896 l 0.9372991323833801 -9.870249616551153" fill="#ff720a" stroke="none" /><path d="M 97.65516085044442 120.86867818915974 l -1.2770531300020316 11.365560322345617 a32.43708118960974,32.43708118960974 0 0,0 -0.5543228054860264,-0.06712077203749676 l 1.4725033585394474 -11.341894021582773" fill="#ff860c" stroke="none" /><path d="M 96.22490169976321 120.6578951692458 l -0.401871033448159 2.199097618201838 a23.235515748525536,23.235515748525536 0 0,0 -0.39282669442171275,-0.07528617092133182 l 0.4396653424415668 -2.191854248932038" fill="#ff0400" stroke="none" /><path d="M 95.86986931433489 120.58985236759428 l -6.075474584353011 30.287933790829957 a51.89126615635588,51.89126615635588 0 0,0 -0.8742653830170951,-0.18321081133433484 l 6.595931428799493 -30.178866998769077" fill="#89ff24" stroke="none" /><path d="M 94.81253420990036 120.34920634021253 l -3.5101320232538 13.769421083971578 a35.209784791065374,35.209784791065374 0 0,0 -0.5860074424299057,-0.15476989168450084 l 3.746629908495195 -13.706959842983496" fill="#ffac0f" stroke="none" /><path d="M 94.46302465271185 120.25689768951611 l -1.5075212682428691 5.515232086146429 a26.71755239051324,26.71755239051324 0 0,0 -0.44258113053293435,-0.12507784831202998 l 1.6022335668804175 -5.488465444495877" fill="#ff3705" stroke="none" /><path d="M 93.76903079525671 120.05430185196036 l -12.43163974507652 40.01108780521782 a62.89788555653156,62.89788555653156 0 0,0 -1.0311618779060312,-0.3301454702866682 l 13.118522968073492 -39.79116948827144" fill="#32ff4d" stroke="none" /><path d="M 93.08242187328487 119.8279376855182 l -4.703935764946239 13.482947863477788 a35.27994729577111,35.27994729577111 0 0,0 -0.5716702841316705,-0.20498062483512972 l 4.935325609707637 -13.399979697602701" fill="#ffac10" stroke="none" /><path d="M 92.7421414339146 119.70592522655815 l -3.528813822774544 9.581137562390708 a31.210324381980175,31.210324381980175 0 0,0 -0.5025304806323293,-0.19001402795122746 l 3.693214524167156 -9.518975284332848" fill="#ff760a" stroke="none" /><path d="M 91.40352486487194 119.15986991738527 l -4.479654584234895 9.984278179091213 a31.94317668465303,31.94317668465303 0 0,0 -0.49973123132211894,-0.22940209803089584 l 4.650853811324433 -9.905689010726244" fill="#ff800b" stroke="none" /><path d="M 90.7491055286396 118.85261126421891 l -2.6160273514333574 5.3312624920565845 a26.938514870121722,26.938514870121722 0 0,0 -0.41452741967188966,-0.20785265367155686 l 2.7074086787880076 -5.285441997475726" fill="#ff3a05" stroke="none" /><line stroke="#e1ed5e" stroke-width="0.3" x1="58.666819895761336" x2="56.23545636021788" y1="174.27360380694188" y2="178.64263932499728" /><path d="M 58.180547188652646 175.14741091055294 a86.0,86.0 0 0,1 -31.652253787137756,-30.449443065178592" fill="none" id="id92" stroke="none" /><text fill="#e1ed5e" style="font-size:6.75px; font-family:Arial;" text-anchor="middle"><textPath startOffset="22.20632615414155" xlink:href="#id92">August</textPath></text><path d="M 89.7882731507175 118.34994917583269 l -4.8418885556549 8.700625293121323 a30.95714644246455,30.95714644246455 0 0,0 -0.46340081698997587,-0.2631310779053266 l 4.990938139566083 -8.615991049421364" fill="#ff720a" stroke="none" /><path d="M 88.54995079064634 117.60387380957326 l -3.4305965294871457 5.274369331733261 a27.291896724808634,27.291896724808634 0 0,0 -0.39160661916956246,-0.25953551352931664 l 3.52087784739667 -5.214535797112626" fill="#ff3f05" stroke="none" /><path d="M 88.24862548938628 117.40417183066458 l -5.538401129702622 8.202554079221262 a30.897261262391766,30.897261262391766 0 0,0 -0.4382160262386311,-0.30140897871399125 l 5.678774040564144 -8.10600431114217" fill="#ff710a" stroke="none" /><path d="M 87.95078237400918 117.19931262002967 l -5.697938783117721 8.133360477218078 a30.930662567448866,30.930662567448866 0 0,0 -0.4334308916727422,-0.3092414329045763 l 5.83709700263935 -8.034074782469283" fill="#ff720a" stroke="none" /><path d="M 87.07902340077011 116.55440617244103 l -4.780672164438994 6.125016029525423 a28.769855063370564,28.769855063370564 0 0,0 -0.38776628149021974,-0.30806498584475295 l 4.885395938646572 -6.041817129675539" fill="#ff5407" stroke="none" /><path d="M 86.79598089348748 116.32954008644616 l -6.2216628866858095 7.694391585845279 a30.895087212950184,30.895087212950184 0 0,0 -0.4106543677310197,-0.3379405874356075 l 6.353187382961518 -7.586155879552491" fill="#ff710a" stroke="none" /><path d="M 86.51685102203217 116.09983520530335 l -3.887974038799942 4.642516478121054 a27.05551825825072,27.05551825825072 0 0,0 -0.35447176771164557,-0.30208853054463847 l 3.967311283088644 -4.574903557353465" fill="#ff3b05" stroke="none" /><path d="M 83.72743513129214 113.27417163493432 l -7.860512590519192 6.41212950183184 a31.144114694440958,31.144114694440958 0 0,0 -0.33529173701533804,-0.4183279953880057 l 7.969722239589391 -6.275873672865575" fill="#ff750a" stroke="none" /><path d="M 83.06392112726016 112.41649034213515 l -8.1534500179815 5.977607577530798 a31.10992282595056,31.10992282595056 0 0,0 -0.3129068742131479,-0.4346002806734502 l 8.255136684570255 -5.83637369140621" fill="#ff740a" stroke="none" /><path d="M 82.85270091963577 112.12312394758628 l -13.482437768571483 9.532070527140935 a37.51170786798845,37.51170786798845 0 0,0 -0.36822044908124685,-0.5304490200803504 l 13.644519124814865 -9.298580244873571" fill="#ffca12" stroke="none" /><path d="M 82.44556493220864 111.52570212397912 l -8.274529356901079 5.432801466721389 a30.89864474840005,30.89864474840005 0 0,0 -0.28808592237986275,-0.44711574908282625 l 8.366820142657987 -5.289564117717115" fill="#ff710a" stroke="none" /><path d="M 82.05923443525364 110.91462005526583 l -12.176543249168818 7.407841246883191 a35.25287049818045,35.25287049818045 0 0,0 -0.31092884775221996,-0.5211346334266298 l 12.30225297261927 -7.1971445195704495" fill="#ffac0f" stroke="none" /><line stroke="#e1ed5e" stroke-width="0.3" x1="26.63291911575756" x2="22.317208475507996" y1="142.92168965132927" y2="145.44649492493687" /><path d="M 25.769776987707644 143.4266507060508 a86.0,86.0 0 0,1 -11.730757126820373,-40.83630448921669" fill="none" id="id93" stroke="none" /><text fill="#e1ed5e" style="font-size:6.75px; font-family:Arial;" text-anchor="middle"><textPath startOffset="21.46611528233685" xlink:href="#id93">September</textPath></text><path d="M 81.87401531095188 110.60418214915194 l -10.424545166065567 6.098635613976441 a33.07743757058602,33.07743757058602 0 0,0 -0.28328148187925034,-0.4939251415236473 l 10.527978644097194 -5.918290626594486" fill="#ff8f0d" stroke="none" /><path d="M 81.69416730710424 110.29060199501025 l -12.124714031828633 6.815893518642626 a34.90917304555151,34.90917304555151 0 0,0 -0.2899515859849253,-0.5263463506939848 l 12.240242027265074 -6.606176649550819" fill="#ffa80f" stroke="none" /><path d="M 81.35079622478065 109.6543875284942 l -8.781437099527306 4.546006244437398 a30.888367423767097,30.888367423767097 0 0,0 -0.24037229012012212,-0.4742773325320803 l 8.858388059433693 -4.394174700202632" fill="#ff710a" stroke="none" /><path d="M 80.58989483394504 108.01547362559985 l -16.187793881146884 6.684808443897335 a38.51374701970134,38.51374701970134 0 0,0 -0.24776697797685587,-0.6149373201165776 l 16.30046347338113 -6.405171755937952" fill="#ffd614" stroke="none" /><path d="M 80.32549172779594 107.34259656027581 l -16.9210276330671 6.314987778902789 a39.06101455640607,39.06101455640607 0 0,0 -0.22967083991609175,-0.6319555117483375 l 17.027222733988417 -6.022784470148334" fill="#ffdd14" stroke="none" /><path d="M 80.20201598880116 107.00284435728193 l -11.95853884275387 4.229914834204613 a33.684590287363534,33.684590287363534 0 0,0 -0.18864841303402965,-0.5483005926416191 l 12.029578086731128 -4.023441538473697" fill="#ff970e" stroke="none" /><path d="M 79.86692584326677 105.97154293290107 l -7.0195432163101295 2.082022018059856 a28.32180323754549,28.32180323754549 0 0,0 -0.13460592856047696,-0.4685808959578529 l 7.054341781756711 -1.9608836465974073" fill="#ff4d07" stroke="none" /><path d="M 79.67330655649465 105.27499134158121 l -10.29215811827633 2.6709235868089083 a31.633078177939517,31.633078177939517 0 0,0 -0.1322393503829988,-0.5282304700556792 l 10.336608782954388 -2.493365277355837" fill="#ff7b0b" stroke="none" /><path d="M 79.23777060512086 103.15116336523772 l -20.777210298257305 3.1534370745299953 a42.015152465804995,42.015152465804995 0 0,0 -0.10236881655215203,-0.7159672645391503 l 20.828413165826056 -2.7953243380104444" fill="#fcff18" stroke="none" /><path d="M 79.1416061653843 102.43462659150553 l -9.93927724532966 1.1601290527781083 a31.00675429790438,31.00675429790438 0 0,0 -0.05731480189366742,-0.5306638829086512 l 9.957774348724378 -0.988868847984675" fill="#ff730a" stroke="none" /><path d="M 79.10278846688536 102.07522291339032 l -11.841709496883228 1.1759553107218357 a32.89995607980926,32.89995607980926 0 0,0 -0.0511130642652508,-0.5640284049840993 l 11.860197157425553 -0.9719455171891702" fill="#ff8d0d" stroke="none" /><path d="M 79.07016306316243 101.71520430193888 l -62.78951081051271 5.145612905816642 a84.0,84.0 0 0,0 -0.10569376534265862,-1.4421074540129575 l 62.86878113451971 -4.064032315306924" fill="#4dd2ff" stroke="none" /><line stroke="#e1ed5e" stroke-width="0.3" x1="15.007084014347285" x2="10.007500721073583" y1="101.09737516637583" y2="101.16192664675087" /><path d="M 14.007167355692545 101.11028546245083 a86.0,86.0 0 0,1 10.666146001902534,-42.60595125391555" fill="none" id="id94" stroke="none" /><text fill="#e1ed5e" style="font-size:6.75px; font-family:Arial;" text-anchor="middle"><textPath startOffset="22.20632615414155" xlink:href="#id94">October</textPath></text><path d="M 79.00175016825051 100.2711162175752 l -19.786153593500686 0.2554663919904893 a40.78780273560045,40.78780273560045 0 0,0 -0.003021604536713811,-0.7021144806579888 l 19.7876194953269 0.08515756687117479" fill="#fff316" stroke="none" /><path d="M 79.08570108090925 98.10471618934814 l -46.725506797355635 -4.2343325454096234 a67.91697515372067,67.91697515372067 0 0,0 0.1155328365456934,-1.1633998973015505 l 46.645696835127715 5.0380079734156045" fill="#39ff87" stroke="none" /><path d="M 79.32604984820605 96.31383870115002 l -8.822100393705192 -1.5729787876567676 a29.96123415735977,29.96123415735977 0 0,0 0.09489760955923392,-0.5069468248755766 l 8.793717060236096 1.7246036899949169" fill="#ff6409" stroke="none" /><path d="M 79.3925641242962 95.95851677861259 l -9.898240971443274 -1.9412203948430913 a31.086798845526417,31.086798845526417 0 0,0 0.1075021533290982,-0.5242186782453495 l 9.86335952219918 2.111314729251843" fill="#ff740a" stroke="none" /><path d="M 79.46518482838121 95.60439243477599 l -8.812783020069803 -1.886432158748413 a30.012423139666204,30.012423139666204 0 0,0 0.11248315051246002,-0.5042399080180091 l 8.779005482555306 2.0378502363163813" fill="#ff6509" stroke="none" /><path d="M 79.54389044137918 95.25157060432595 l -9.855203742368559 -2.2876656490577987 a31.117235537708623,31.117235537708623 0 0,0 0.12560575810267713,-0.5207169579944696 l 9.814365184005068 2.4569678387116647" fill="#ff740a" stroke="none" /><path d="M 79.62865764111835 94.90015583598534 l -9.87993488302694 -2.473382822123256 a31.184828711256117,31.184828711256117 0 0,0 0.13484270652277197,-0.5196039540340445 l 9.835895844633859 2.643083201706164" fill="#ff750a" stroke="none" /><path d="M 79.81627453868168 94.20196356495316 l -22.296380750617114 -6.4049240171002335 a44.19809574601581,44.19809574601581 0 0,0 0.21634779055155126,-0.7294171974919941 l 22.182827062953855 6.787770601338766" fill="#e1ff1b" stroke="none" /><path d="M 80.02781315780177 93.51064311812611 l -9.598002928877456 -3.118580196093406 a31.091937507842893,31.091937507842893 0 0,0 0.16976598554896194,-0.5075786885688974 l 9.542899649556722 3.2833319875846256" fill="#ff740a" stroke="none" /><path d="M 80.14247586403 93.16781622104843 l -9.613917272580329 -3.307766325356004 a31.167041034006775,31.167041034006775 0 0,0 0.17890908461541735,-0.5058000743642247 l 9.555555107155103 3.47276402614684" fill="#ff750a" stroke="none" /><path d="M 80.2630227832202 92.82701384747504 l -10.784874801162967 -3.91953422024971 a32.475028234408335,32.475028234408335 0 0,0 0.1954616455766335,-0.5237400327291896 l 10.715808567084707 4.104597390008241" fill="#ff870c" stroke="none" /><path d="M 80.38941819471856 92.48833698450439 l -10.363106015040286 -3.969497741156952 a32.09733655414732,32.09733655414732 0 0,0 0.20207023447983097,-0.5142467058970692 l 10.293242230678763 4.147293451949785" fill="#ff820b" stroke="none" /><path d="M 80.52162464483688 92.15188598940014 l -9.386907485830667 -3.7821183138985335 a31.12020015058351,31.12020015058351 0 0,0 0.20447203431149266,-0.49514524966155443 l 9.320413764632976 3.943138134013399" fill="#ff740a" stroke="none" /><path d="M 80.95270993114464 91.15688171328213 l -9.601504925755696 -4.457707289699736 a31.5858420127996,31.5858420127996 0 0,0 0.23319647593778745,-0.49117125084093466 l 9.523350255976158 4.622320956181203" fill="#ff7b0b" stroke="none" /><path d="M 81.10775173730289 90.83032412892265 l -8.201556678505112 -3.9807658323364086 a30.116579872004017,30.116579872004017 0 0,0 0.23037747621553498,-0.46442693422636544 l 8.131819189336165 4.1213523550617355" fill="#ff6709" stroke="none" /><line stroke="#e1ed5e" stroke-width="0.3" x1="26.266209847984243" x2="21.928928074336255" y1="57.711370442889674" y2="55.22380399835377" /><path d="M 25.398753493254645 57.213857153982495 a86.0,86.0 0 0,1 29.58750427330803,-30.492523968695096" fill="none" id="id95" stroke="none" /><text fill="#e1ed5e" style="font-size:6.75px; font-family:Arial;" text-anchor="middle"><textPath startOffset="21.46611528233685" xlink:href="#id95">November</textPath></text><path d="M 81.78341655067845 89.55222093294921 l -27.22612295852106 -15.615031123390008 a52.386158865604216,52.386158865604216 0 0,0 0.45536126155126977,-0.7783600035127718 l 26.953302022499468 16.08137053925667" fill="#83ff25" stroke="none" /><path d="M 82.15384107792192 88.93136811851018 l -10.811997631047799 -6.705869997243794 a33.72273497302045,33.72273497302045 0 0,0 0.31020484647136676,-0.49066957126268995 l 10.69496518833047 6.8909872162207" fill="#ff980e" stroke="none" /><path d="M 82.34701348167596 88.62581576622439 l -18.103504291340002 -11.664462150521008 a42.53593612749404,42.53593612749404 0 0,0 0.4018701355188292,-0.6120757871204022 l 17.90003752046325 11.974356001619077" fill="#f5ff19" stroke="none" /><path d="M 82.54541684631803 88.32363383020206 l -8.395185770506808 -5.6160185698411675 a31.10043606475091,31.10043606475091 0 0,0 0.3014898995150878,-0.442399225638783 l 8.29727140532298 5.759695818750366" fill="#ff740a" stroke="none" /><path d="M 82.95767976084542 87.72973835380427 l -5.904397283006888 -4.251093660306412 a28.2755552766972,28.2755552766972 0 0,0 0.2877877768841718,-0.39254220424760505 l 5.830346893609082 4.352098308225519" fill="#ff4d07" stroke="none" /><path d="M 83.17141714833178 87.43820079747576 l -4.6991848400896865 -3.5077354342347924 a26.864004266532817,26.864004266532817 0 0,0 0.27980019404823425,-0.36818425755739054 l 4.638108705817343 3.58810446767321" fill="#ff3905" stroke="none" /><path d="M 83.6137871275137 86.86637796730984 l -7.798821542492457 -6.250789931545438 a30.99469820554649,30.99469820554649 0 0,0 0.33725406083830967,-0.41343360121873995 l 7.690068989577755 6.384107702372261" fill="#ff730a" stroke="none" /><path d="M 84.07557802195018 86.31012108654704 l -8.337391090214373 -7.167473622368443 a31.99476094867612,31.99476094867612 0 0,0 0.362619687079371,-0.4145369874828732 l 8.212779539557157 7.309926166054259" fill="#ff800b" stroke="none" /><path d="M 84.31358615837235 86.03803664274999 l -9.737820212640486 -8.667314936418101 a34.03639101518384,34.03639101518384 0 0,0 0.39329270144348893,-0.4342836239962874 l 9.587183870580951 8.833651347683945" fill="#ff9c0e" stroke="none" /><path d="M 85.57189188830299 84.74124197986013 l -6.14217543810131 -6.495790577785669 a29.93988894466056,29.93988894466056 0 0,0 0.37751650250493624,-0.35086044584358694 l 6.029451051801518 6.600555609703902" fill="#ff6409" stroke="none" /><path d="M 85.83668400450813 84.49514656593479 l -4.406552580427001 -4.823937553237495 a27.533611494541347,27.533611494541347 0 0,0 0.3526780458968042,-0.3166378318139674 l 4.322863546934226 4.899074393820741" fill="#ff4206" stroke="none" /><path d="M 86.10567301691215 84.25364557470407 l -4.41335364235677 -5.001626256623208 a27.67037896850295,27.67037896850295 0 0,0 0.35985486143295475,-0.312062589765968 l 4.3266049822770425 5.076853839808857" fill="#ff4406" stroke="none" /><path d="M 86.37877921826538 84.01681056812374 l -9.079460677622858 -10.653871798650734 a34.99791379093989,34.99791379093989 0 0,0 0.46187657282446665,-0.3868083468813467 l 8.894726567839282 10.808581302925893" fill="#ffa90f" stroke="none" /><path d="M 86.65592168130627 83.78471172551755 l -14.095300195431587 -17.128148570898524 a43.18222173422011,43.18222173422011 0 0,0 0.5780178939011159,-0.467383605084591 l 13.79837890296597 17.368238273247247" fill="#edff19" stroke="none" /><path d="M 87.51073957382395 83.11751280151077 l -2.9914513538039302 -4.043725365807043 a26.029959844397037,26.029959844397037 0 0,0 0.3625039843627096,-0.2633745612108996 l 2.921402053087439 4.09461916183461" fill="#ff2d04" stroke="none" /><path d="M 87.80319425747018 82.90503203632743 l -1.8469689207928066 -2.588700287383848 a24.180041410465556,24.180041410465556 0 0,0 0.3409027288198305,-0.2388241471964806 l 1.8021350523893158 2.6201092773442713" fill="#ff1202" stroke="none" /><path d="M 88.09926311788651 82.69761687909137 l -5.949845758422945 -8.6504316364874 a31.499077675994478,31.499077675994478 0 0,0 0.4493798001072245,-0.30342324702060575 l 5.80006126390918 8.751566795806673" fill="#ff7a0b" stroke="none" /><line stroke="#e1ed5e" stroke-width="0.3" x1="56.762969772571076" x2="54.21961505331055" y1="26.818313649435495" y2="22.513508569990535" /><path d="M 56.25429882871897 25.957352633546506 a86.0,86.0 0 0,1 42.265352541879196,-11.944610805530505" fill="none" id="id96" stroke="none" /><text fill="#e1ed5e" style="font-size:6.75px; font-family:Arial;" text-anchor="middle"><textPath startOffset="22.20632615414155" xlink:href="#id96">December</textPath></text><path d="M 89.63071344664047 81.73862282372117 l -1.689286769720041 -2.9750072680517 a24.42116325762329,24.42116325762329 0 0,0 0.36733605666295466,-0.20442211782662562 l 1.637826623985041 3.0036447834385105" fill="#ff1502" stroke="none" /><path d="M 89.94658935756843 81.56283822128135 l -6.6497085576931605 -12.195040749858947 a34.89019952315221,34.89019952315221 0 0,0 0.5297577593129925,-0.2829782483519685 l 6.438805751851863 12.307697724712666" fill="#ffa70f" stroke="none" /><path d="M 90.26544431104013 81.39251694778311 l -2.406764756703877 -4.600501127322166 a26.19202534822437,26.19202534822437 0 0,0 0.4012861649809738,-0.20555435974246236 l 2.3272181041341393 4.641248012377133" fill="#ff2f04" stroke="none" /><path d="M 91.23893434514133 80.91482961587045 l -4.971181908000654 -10.829259528728548 a32.91576734847534,32.91576734847534 0 0,0 0.516962316948317,-0.23194592252486715 l 4.784037472585562 10.913225781769944" fill="#ff8d0d" stroke="none" /><path d="M 91.90106846888425 80.62456947434976 l -4.69913849504285 -11.241955940892868 a33.18455891579872,33.18455891579872 0 0,0 0.5289241499863121,-0.2157614412739065 l 4.504930475468157 11.321178268350351" fill="#ff910d" stroke="none" /><path d="M 92.23578459929587 80.48803036053334 l -8.561048574937523 -21.514462344904953 a44.15520767975906,44.15520767975906 0 0,0 0.7086213495721134,-0.2749340745407834 l 8.189444060365734 21.658639123336286" fill="#e2ff1b" stroke="none" /><path d="M 93.94186890950719 79.89281104454417 l -3.591432526573051 -11.92011386909426 a33.44939766595558,33.44939766595558 0 0,0 0.5527270572069498,-0.16135618477258454 l 3.38571525164268 11.980168382785545" fill="#ff940d" stroke="none" /><path d="M 94.28887869178378 79.79150937346287 l -3.8043743418958114 -13.461570693208092 a34.98882231145689,34.98882231145689 0 0,0 0.5809845806467205,-0.1588050327104301 l 3.5720918720253687 13.525062266744818" fill="#ffa90f" stroke="none" /><path d="M 94.98787191387505 79.60689891045804 l -2.719672275117963 -11.065669249443546 a32.3949836867863,32.3949836867863 0 0,0 0.5426565677260258,-0.12842927705022655 l 2.528792020429403 11.110844438634645" fill="#ff860c" stroke="none" /></svg>