<?xml version="1.0" encoding="utf-8" ?>
<svg baseProfile="full" height="200" version="1.1" viewBox="0 0 200 200" width="200" xmlns="http://www.w3.org/2000/svg" xmlns:ev="http://www.w3.org/2001/xml-events" xmlns:xlink="http://www.w3.org/1999/xlink"><defs /><rect fill="#FAF9F5" height="200" width="200" x="0" y="0" /><g id="tracks"><text alignment-baseline="middle" fill="#5A5A5A" style="dominant-baseline: central; font-size:9.0px; font-family:Arial;" text-anchor="middle" x="100.0" y="100.0">2022</text><line stroke="#5A5A5A" stroke-width="0.3" x1="100.0" x2="100.0" y1="15.0" y2="10.0" /><path d="M 100.0 14.0 a86.0,86.0 0 0,1 42.46469731375804,11.215312516191453" fill="none" id="year_2022_id49" stroke="none" /><text fill="#5A5A5A" style="font-size:6.75px; font-family:Arial;" text-anchor="middle"><textPath startOffset="22.20632615414155" xlink:href="#year_2022_id49">January</textPath></text><path d="M 100.72285384407766 79.0124445844662 l 0.32450979682930803 -9.42191481672055 a30.427501547163832,30.427501547163832 0 0,0 0.5232938633926675,0.02253413453557042 l -0.486644492611307 9.414932955660786" fill="#ff6409" stroke="none" /><path d="M 110.05341064243156 81.56283822128135 l 5.6139918162928595 -10.295617977100717 a32.72674949181582,32.72674949181582 0 0,0 0.49226627654469696,0.2739456499317347 l -5.7903821819095915 10.197456929608803" fill="#ff840c" stroke="none" /><line stroke="#5A5A5A" stroke-width="0.3" x1="143.23703022742887" x2="145.7803849466894" y1="26.81831364943548" y2="22.513508569990506" /><path d="M 143.74570117128098 25.957352633546492 a86.0,86.0 0 0,1 28.547481713284135,27.462654790039103" fill="none" id="year_2022_id50" stroke="none" /><text fill="#5A5A5A" style="font-size:6.75px; font-family:Arial;" text-anchor="middle"><textPath startOffset="19.985693538727396" xlink:href="#year_2022_id50">February</textPath></text><path d="M 111.60114157652 82.49532879139004 l 7.346955867535696 -11.085637219157018 a34.29921475404757,34.29921475404757 0 0,0 0.48932779646926333,0.33039631248826296 l -7.536688358411501 10.957528994370085" fill="#ff990e" stroke="none" /><path d="M 112.48926042617603 83.11751280151076 l 9.446955093599142 -12.770019439911902 a36.884532005577206,36.884532005577206 0 0,0 0.5071690706396401,0.3819892292882695 l -9.665370317997166 12.605513621117785" fill="#ffbc11" stroke="none" /><path d="M 114.94478906791727 85.2469230424477 l 5.12364970058836 -5.057923400109533 a28.199609390495763,28.199609390495763 0 0,0 0.33804044920005577,0.34838039749503896 l -5.209954413491525 4.968978807064379" fill="#ff4406" stroke="none" /><path d="M 117.2510076193507 88.02491185347247 l 9.625232808081225 -6.681523413063086 a32.71699030165483,32.71699030165483 0 0,0 0.31716089439858336,0.4653944769311082 l -9.738818168148542 6.514850912861571" fill="#ff840c" stroke="none" /><line stroke="#5A5A5A" stroke-width="0.3" x1="172.23445277983987" x2="176.4835382374775" y1="55.19839476539836" y2="52.563006222186495" /><path d="M 173.08426987136738 54.67131705675599 a86.0,86.0 0 0,1 12.851231095245387,41.99856678651699" fill="none" id="year_2022_id51" stroke="none" /><text fill="#5A5A5A" style="font-size:6.75px; font-family:Arial;" text-anchor="middle"><textPath startOffset="22.20632615414155" xlink:href="#year_2022_id51">March</textPath></text><path d="M 118.3937258080291 89.86733742301442 l 7.193334282178887 -3.962635403261535 a29.212584089940982,29.212584089940982 0 0,0 0.23883638519725717,0.4425275488099946 l -7.260478766594609 3.8382268711190815" fill="#ff5307" stroke="none" /><path d="M 120.45610955862082 95.25157060432595 l 11.424207372428913 -2.651874832507256 a32.72795609710168,32.72795609710168 0 0,0 0.12266065937108521,0.5498636846222779 l -11.468162418802036 2.4548329783350145" fill="#ff840c" stroke="none" /><path d="M 120.6074358757038 95.95851677861258 l 11.506552570556561 -2.256638789532496 a32.72574819298984,32.72574819298984 0 0,0 0.1036537833602357,0.5537226554480578 l -11.543692077826657 2.0582380566218754" fill="#ff840c" stroke="none" /><path d="M 120.78858239683441 97.02765380044208 l 15.461455288382668 -2.210674926687492 a36.61869659306247,36.61869659306247 0 0,0 0.08384635435626792,0.624752729847307 l -15.497217641796771 1.944203854775521" fill="#ffb811" stroke="none" /><line stroke="#5A5A5A" stroke-width="0.3" x1="184.98032266829074" x2="189.97916517819016" y1="98.17113171792111" y2="98.06355123074" /><path d="M 185.9800911702706 98.14961562048488 a86.0,86.0 0 0,1 -9.607161424134198,41.387399972396054" fill="none" id="year_2022_id52" stroke="none" /><text fill="#5A5A5A" style="font-size:6.75px; font-family:Arial;" text-anchor="middle"><textPath startOffset="21.466115282336823" xlink:href="#year_2022_id52">April</textPath></text><path d="M 120.99980553446 99.90962569577887 l 11.725146003358919 -0.05046008212818315 a32.72525458230959,32.72525458230959 0 0,0 -0.002424322250257284,0.5633271121369691 l -11.724277383819159 -0.15137650821247067" fill="#ff840c" stroke="none" /><path d="M 120.95626037817324 101.35467743843564 l 9.608828462973765 0.6211443689708278 a30.62888387913983,30.62888387913983 0 0,0 -0.0385390722074888,0.5258350208357581 l -9.596712832101938 -0.7864525263033562" fill="#ff6709" stroke="none" /><path d="M 120.8583938346157 102.4346265915055 l 9.330290929556007 1.089047152129306 a30.393633616961864,30.393633616961864 0 0,0 -0.06512703053654974,0.5191265124332385 l -9.310162389772609 -1.2494914188499395" fill="#ff6309" stroke="none" /><path d="M 120.70491114924044 103.5080841355445 l 2.528792419591104 0.42845953335946496 a23.564833069247985,23.564833069247985 0 0,0 -0.07120345209175807,0.39934677292605436 l -2.521042525160157 -0.47192505701873766" fill="#ff0000" stroke="none" /><path d="M 120.5718875245553 104.21870165774334 l 9.6836701437171 1.98584185527828 a30.885192730872426,30.885192730872426 0 0,0 -0.11128370462677642,0.5198804197634093 l -9.64805240036588 -2.1522360944578582" fill="#ff6a09" stroke="none" /><path d="M 120.49622156327973 104.57218783832717 l 10.444819027712825 2.329974546020426 a31.701543155394692,31.701543155394692 0 0,0 -0.12339362841191041,0.5315765216872165 l -10.403164833370361 -2.5094197250562074" fill="#ff760a" stroke="none" /><path d="M 120.32669344350535 105.2749913415812 l 9.900916231878583 2.5693921907189314 a31.228876695923372,31.228876695923372 0 0,0 -0.13950671412047694,0.5191563810137941 l -9.85522144141633 -2.739439504908274" fill="#ff6f0a" stroke="none" /><path d="M 120.02730092923936 106.31721596034902 l 11.178615450104529 3.5260731431315513 a32.72154576803031,32.72154576803031 0 0,0 -0.17405953433407217,0.5357001633083686 l -11.116263664754209 -3.717972206417715" fill="#ff840c" stroke="none" /><path d="M 119.79798401119884 107.00284435728193 l 4.687004427509224 1.657863875896264 a25.97157149546226,25.97157149546226 0 0,0 -0.1527075706313234,0.42018564908552725 l -4.657772595872674 -1.7382973219879223" fill="#ff2403" stroke="none" /><path d="M 119.54520255179757 107.68017299344265 l 8.723165435652383 3.4277168230251083 a30.3724520717158,30.3724520717158 0 0,0 -0.19539232730864042,0.48494773237191213 l -8.66287049408635 -3.577363923239834" fill="#ff6309" stroke="none" /><path d="M 119.26925614724726 108.34839909993367 l 8.6123541855522 3.731299712949492 a30.385906571304417,30.385906571304417 0 0,0 -0.21206311935939345,0.4781463511269199 l -8.546849981461532 -3.8789944005690993" fill="#ff6309" stroke="none" /><path d="M 119.12269723197855 108.67885076344098 l 7.7586641302017645 3.5212756491839707 a29.520343378222236,29.520343378222236 0 0,0 -0.21398788484617273,0.46091086670272974 l -7.696901628515761 -3.654306583165531" fill="#ff5708" stroke="none" /><path d="M 118.97047184881838 109.00673069616215 l 7.791790901358741 3.6993577623487526 a29.625384240968447,29.625384240968447 0 0,0 -0.22267954399879208,0.4587858161397726 l -7.726958100745235 -3.8329325344538008" fill="#ff5808" stroke="none" /><path d="M 118.81262510543309 109.33194174019688 l 8.673280231499586 4.302352561811289 a30.68173680391311,30.68173680391311 0 0,0 -0.2387642972268127,0.47110461000324855 l -8.597937264486504 -4.4510113835172325" fill="#ff6709" stroke="none" /><path d="M 118.64920377521936 109.65438752849418 l 9.486960832564588 4.911244332421749 a31.682824847921047,31.682824847921047 0 0,0 -0.2548920852574426,0.48215976671673794 l -9.401016239082253 -5.073819114224621" fill="#ff750a" stroke="none" /><line stroke="#5A5A5A" stroke-width="0.3" x1="174.80103733775053" x2="179.2010983576182" y1="140.37084112569926" y2="142.7455964860345" /><path d="M 175.68104954172406 140.8457921977663 a86.0,86.0 0 0,1 -30.038265399797805,32.042727171017184" fill="none" id="year_2022_id53" stroke="none" /><text fill="#5A5A5A" style="font-size:6.75px; font-family:Arial;" text-anchor="middle"><textPath startOffset="22.206326154141568" xlink:href="#year_2022_id53">May</textPath></text><path d="M 118.48025628344425 109.97397251340804 l 10.335642954212206 5.578246164587239 a32.74488593174445,32.74488593174445 0 0,0 -0.271975265538839,0.4937141075091072 l -10.238091279221857 -5.755330790494151" fill="#ff840c" stroke="none" /><path d="M 118.12598468904814 110.60418214915192 l 13.723837355118329 8.028809115509217 a36.89985809883299,36.89985809883299 0 0,0 -0.3254552097107393,0.5454816516238856 l -13.583601269709362 -8.263852861019206" fill="#ffbc11" stroke="none" /><path d="M 117.94076556474637 110.91462005526583 l 13.580107888011698 8.261727593075626 a36.89576903053843,36.89576903053843 0 0,0 -0.3347594593791074,0.539738838251473 l -13.435883788964627 -8.494262762692374" fill="#ffbc11" stroke="none" /><path d="M 117.75023020441432 111.22182372390056 l 10.009624639276026 6.328156984489848 a32.84221922781154,32.84221922781154 0 0,0 -0.3062069905100107,0.47524004923696506 l -9.899212785388965 -6.499518633648266" fill="#ff850c" stroke="none" /><path d="M 116.93607887273984 112.41649034213515 l 6.740146092847302 4.941460151152427 a29.357487527860997,29.357487527860997 0 0,0 -0.3022964721923474,0.4049755250851072 l -6.654088353959862 -5.056748555746848" fill="#ff5507" stroke="none" /><path d="M 116.0416608686014 113.55231037782055 l 12.134653038022513 10.25159337586608 a36.88536971862129,36.88536971862129 0 0,0 -0.4139196981640135,0.48148212122704775 l -11.95639083028772 -10.458952596254655" fill="#ffbc11" stroke="none" /><path d="M 115.56566222782051 114.09645910891815 l 17.369057344946533 15.729636364965367 a44.433002650665195,44.433002650665195 0 0,0 -0.5182868382293355,0.562498000004205 l -17.095724098721476 -16.026285619770906" fill="#e3ff1b" stroke="none" /><path d="M 114.29624159901734 115.38237550388516 l 6.382870911951321 6.867799238032592 a30.3759110198719,30.3759110198719 0 0,0 -0.3860640160265839,0.352660325150814 l -6.263707346457873 -6.976652329769989" fill="#ff6309" stroke="none" /><path d="M 114.0293411484842 115.62618273729858 l 8.15887724124726 9.087533431082829 a33.212720487212934,33.212720487212934 0 0,0 -0.4286934223254813,0.37827210187270127 l -8.001241466015191 -9.226628674727818" fill="#ff8a0c" stroke="none" /><path d="M 113.75828350139079 115.86535959552629 l 8.020521863341388 9.248861857863913 a33.24214918330058,33.24214918330058 0 0,0 -0.43552680348105255,0.37116539047877023 l -7.860129583283289 -9.38555163856563" fill="#ff8b0c" stroke="none" /><path d="M 112.04921762599082 117.19931262002967 l 9.416746100263065 13.44166609560689 a37.411992400150794,37.411992400150794 0 0,0 -0.5306144937583774,0.3649614872082852 l -9.183974721881805 -13.601768372180269" fill="#ffc312" stroke="none" /><path d="M 111.7513745106137 117.40417183066458 l 9.068135045446295 13.430206004589031 a37.20498400271196,37.20498400271196 0 0,0 -0.5338477625234284,0.3538051871717819 l -8.835612584182902 -13.584309212852132" fill="#ffc011" stroke="none" /><path d="M 111.45004920935366 117.60387380957326 l 11.814914656707673 18.16483605307579 a42.66918266064523,42.66918266064523 0 0,0 -0.6191464975467702,0.39516858863699134 l -11.500486357113973 -18.36551907053659" fill="#f8ff18" stroke="none" /><line stroke="#5A5A5A" stroke-width="0.3" x1="143.8653032363475" x2="146.44561519142675" y1="172.8068346515853" y2="177.08958963109032" /><path d="M 144.38136562736335 173.6633856474863 a86.0,86.0 0 0,1 -40.68145358897372,12.25698825130547" fill="none" id="year_2022_id54" stroke="none" /><text fill="#5A5A5A" style="font-size:6.75px; font-family:Arial;" text-anchor="middle"><textPath startOffset="21.466115282336833" xlink:href="#year_2022_id54">June</textPath></text><path d="M 110.8373102113329 117.98757091392108 l 7.266145577514065 12.060216631035521 a35.079975026296495,35.079975026296495 0 0,0 -0.5199054910335926,0.3071693281778577 l -7.05747221545209 -12.183504531507129" fill="#ffa40f" stroke="none" /><path d="M 110.5260780823613 118.17145234162733 l 11.766207727375633 20.31232157758516 a44.47411451269218,44.47411451269218 0 0,0 -0.6657377493882182,0.37802326879060594 l -11.414821211066215 -20.511848012170393" fill="#e2ff1b" stroke="none" /><path d="M 109.89434966115114 118.52300852407294 l 13.634954036429042 25.525717049778695 a49.93914654029893,49.93914654029893 0 0,0 -0.7617125217581061,0.39849199062680135 l -13.19355061214444 -25.756638459350214" fill="#a2ff22" stroke="none" /><path d="M 109.2508944713604 118.85261126421891 l 11.592250653972984 23.624115044585732 a47.31499737534395,47.31499737534395 0 0,0 -0.7342551551536586,0.35248709508605247 l -11.183882830819092 -23.820156416171343" fill="#c0ff1e" stroke="none" /><path d="M 108.92500713936063 119.00905698771935 l 4.953546286607556 10.550383006211712 a32.655393703831905,32.655393703831905 0 0,0 -0.5108734258344708,0.23451693304138627 l -4.771204865005665 -10.634087009587173" fill="#ff830c" stroke="none" /><path d="M 108.59647513512805 119.15986991738527 l 9.594716453296837 21.384755524756756 a44.43856549946646,44.43856549946646 0 0,0 -0.7006042992733608,0.30712433593898597 l -9.225191479365721 -21.546744413990194" fill="#e3ff1b" stroke="none" /><path d="M 108.2653958097858 119.30500536409082 l 4.637511076793976 10.831565514084968 a32.78258547489903,32.78258547489903 0 0,0 -0.5206632327306097,0.21763727350843334 l -4.450376384565905 -10.909787830613375" fill="#ff840c" stroke="none" /><path d="M 107.59598834532513 119.57807347666477 l 5.9422559188550395 15.315705831498423 a37.42806289622007,37.42806289622007 0 0,0 -0.6026448878318782,0.2278687303048008 l -5.677740810262886 -15.415722811909854" fill="#ffc312" stroke="none" /><path d="M 107.2578585660854 119.70592522655815 l 1.6644282199671308 4.519115073543802 a25.81588230206613,25.81588230206613 0 0,0 -0.41831617964181506,0.1499932990427649 l -1.5863924796955808 -4.547095913626527" fill="#ff2103" stroke="none" /><path d="M 106.91757812671514 119.82793768551818 l 5.3761006792233035 15.409582270859007 a37.320468261527225,37.320468261527225 0 0,0 -0.6083774222322076,0.20639465292653195 l -5.1100535240538685 -15.499839910683662" fill="#ffc112" stroke="none" /><path d="M 106.57524785965236 119.94407469862006 l 5.138443189972958 15.585951587360304 a37.4111390616288,37.4111390616288 0 0,0 -0.6133265064168258,0.19636777914196185 l -4.869395338465191 -15.672092213161973" fill="#ffc312" stroke="none" /><path d="M 106.2309692047433 120.05430185196036 l 4.147076871829428 13.347318636664173 a34.97673643485865,34.97673643485865 0 0,0 -0.5764916091672493,0.1736921928093121 l -3.916710288221933 -13.41672619857921" fill="#ffa20f" stroke="none" /><path d="M 105.53697534728816 120.25689768951611 l 4.004385188729642 14.649951641420685 a36.18736922036473,36.18736922036473 0 0,0 -0.6022776853345964,0.15906701071356594 l -3.7516170605835475 -14.716710001437836" fill="#ffb210" stroke="none" /><path d="M 105.18746579009965 120.34920634021253 l 8.960943940220258 35.15167224632744 a57.27586770861584,57.27586770861584 0 0,0 -0.9574526296472369,0.23531856166054568 l -8.354538025829811 -35.30071206630202" fill="#52ff2b" stroke="none" /><path d="M 104.48393922423573 120.51570834832081 l 3.1340090240274185 14.339269977262276 a35.677761274918616,35.677761274918616 0 0,0 -0.6010998369595469,0.12596631521911564 l -2.8867177256384933 -14.391092273207933" fill="#ffac0f" stroke="none" /><path d="M 104.13013068566511 120.58985236759428 l 2.5621464410621924 12.773013974770198 a34.02745103176836,34.02745103176836 0 0,0 -0.5752784338025352,0.110253481012468 l -2.3419003926879527 -12.815224654131134" fill="#ff950d" stroke="none" /><path d="M 103.41894727170886 120.7198165907248 l 1.6408136564407152 9.943808815751513 a31.078273821413063,31.078273821413063 0 0,0 -0.5285735633315727,0.0825523199280263 l -1.4694042295006255 -9.970579443026645" fill="#ff6d0a" stroke="none" /><path d="M 102.34483914955558 120.86867818915974 l 1.3769480735186403 12.254608694540973 a33.33172413953077,33.33172413953077 0 0,0 -0.5707143571194968,0.059156876625654976 l -1.165801119793541 -12.276494939622387" fill="#ff8c0c" stroke="none" /><path d="M 101.98527174616119 120.90594882070398 l 1.8164137416328137 19.127785802234353 a40.21383742454772,40.21383742454772 0 0,0 -0.689678193041367,0.059508336510099465 l -1.486891230849905 -19.156218391023113" fill="#ffe715" stroke="none" /><path d="M 101.62511606390274 120.93702456842531 l 0.9184398775714288 11.832630732327482 a32.86822151193405,32.86822151193405 0 0,0 -0.5644526030557366,0.03892795627653565 l -0.7146245137367618 -11.846687033120302" fill="#ff860c" stroke="none" /><path d="M 101.26447882468166 120.96189622390904 l 0.7999537670873045 13.261232629839188 a34.28533841842912,34.28533841842912 0 0,0 -0.5894007736921254,0.03046528762434241 l -0.5715649249816995 -13.273037724225732" fill="#ff990e" stroke="none" /><path d="M 100.90346689309514 120.98055641714683 l 0.23609096358647091 5.482569221917118 a26.487650154319248,26.487650154319248 0 0,0 -0.4556880444151095,0.015694817623300116 l -0.14168256749670913 -5.485820837966512" fill="#ff2b04" stroke="none" /><line stroke="#5A5A5A" stroke-width="0.3" x1="102.19456741930631" x2="102.32365962044197" y1="184.97166512339345" y2="189.96999836594603" /><path d="M 102.22038585953345 185.97133177190398 a86.0,86.0 0 0,1 -42.740103519485714,-10.115201625700543" fill="none" id="year_2022_id55" stroke="none" /><text fill="#5A5A5A" style="font-size:6.75px; font-family:Arial;" text-anchor="middle"><textPath startOffset="22.20632615414155" xlink:href="#year_2022_id55">July</textPath></text><path d="M 100.54218724476979 120.99299961872073 l 0.30243199735097537 11.709893337261477 a32.71379814932212,32.71379814932212 0 0,0 -0.5630516832323644,0.009693445346149599 l -0.10082062422594294 -11.713364259886784" fill="#ff830c" stroke="none" /><path d="M 100.18074693466247 120.99922214144158 l 0.2040716036415834 23.709087767560373 a44.709966005654536,44.709966005654536 0 0,0 -0.7696370766080614,0.0 l 0.20407160364156704 -23.709087767560373" fill="#e0ff1b" stroke="none" /><path d="M 99.45781275523022 120.99299961872073 l -0.1901125413059433 7.360985610873864 a28.36344022464051,28.36344022464051 0 0,0 -0.4879587480788289,-0.016806285906887698 l 0.31679164105941526 -7.356622526540883" fill="#ff4606" stroke="none" /><path d="M 99.09653310690486 120.98055641714683 l -0.5164151496837828 11.992334489968977 a33.003448301472474,33.003448301472474 0 0,0 -0.5673637438252446,-0.029326224896150287 l 0.7227669619225162 -11.981668458310626" fill="#ff870c" stroke="none" /><path d="M 98.37488393609728 120.93702456842531 l -0.6679385329635847 8.605321050899217 a29.631204566737296,29.631204566737296 0 0,0 -0.5081831760415817,-0.04384818275215452 l 0.8159660267467082 -8.592548615868399" fill="#ff5808" stroke="none" /><path d="M 98.01472825383883 120.90594882070398 l -1.134026326469884 11.941889763128472 a32.99561364932363,32.99561364932363 0 0,0 -0.5649593868234448,-0.05856035042381014 l 1.3394183098989223 -11.920600044248902" fill="#ff870c" stroke="none" /><path d="M 97.65516085044442 120.86867818915974 l -1.096564956408251 9.759245615261474 a30.820658312079843,30.820658312079843 0 0,0 -0.5266994796051767,-0.06377597196610094 l 1.2643918590648169 -9.738924114570024" fill="#ff6909" stroke="none" /><path d="M 95.86986931433489 120.58985236759428 l -8.826396583565263 44.00204652705353 a65.87856253512757,65.87856253512757 0 0,0 -1.109923711127916,-0.2325953052529648 l 9.582511756122566 -43.84359524107403" fill="#36ff6e" stroke="none" /><path d="M 95.16358092515715 120.4354850818985 l -14.509257224528554 61.30645524569551 a84.0,84.0 0 0,0 -1.4041868610271577,-0.3451149667438802 l 15.562397370298923 -61.0476190206376" fill="#4dd2ff" stroke="none" /><path d="M 94.81253420990036 120.34920634021253 l -6.001589204626471 23.542820721289086 a45.29575025587495,45.29575025587495 0 0,0 -0.7538713149739155,-0.19910426611436968 l 6.405950962411876 -23.436025105871135" fill="#d8ff1c" stroke="none" /><path d="M 94.11515582081647 120.15858648285463 l -6.568166745610577 22.499314058910315 a44.43842886201257,44.43842886201257 0 0,0 -0.7324405869380676,-0.2206783405426882 l 6.95448230698889 -22.382920349261898" fill="#e3ff1b" stroke="none" /><path d="M 93.42475214034765 119.94407469862007 l -2.1037386599565218 6.381070626707313 a27.718912017017526,27.718912017017526 0 0,0 -0.45185821683215005,-0.1532948403852447 l 2.2132666097258973 -6.343912799423945" fill="#ff3d05" stroke="none" /><path d="M 93.08242187328487 119.8279376855182 l -2.471582180449433 7.084325837872344 a28.503092099385483,28.503092099385483 0 0,0 -0.46185927157096474,-0.16560630261955117 l 2.5931610126501243 -7.040731994212835" fill="#ff4806" stroke="none" /><path d="M 92.7421414339146 119.70592522655815 l -3.441091881433065 9.342962348439679 a30.95650836291649,30.95650836291649 0 0,0 -0.4984436827993051,-0.18846875070416744 l 3.6014057849926533 -9.282345347628878" fill="#ff6b09" stroke="none" /><path d="M 92.40401165467489 119.57807347666478 l -3.9021600689768174 10.057516293472615 a31.787978828185764,31.787978828185764 0 0,0 -0.5084243868388205,-0.20231255620667493 l 4.074705531857496 -9.988856892859873" fill="#ff770a" stroke="none" /><path d="M 91.7346041902142 119.30500536409082 l -1.3766849245834039 3.2154430913374905 a24.49776152063076,24.49776152063076 0 0,0 -0.3862239217450442,-0.169309217218225 l 1.4318295209861913 -3.191269320824813" fill="#ff0e01" stroke="none" /><path d="M 91.40352486487194 119.15986991738527 l -7.566647779271681 16.86458517969738 a39.48427417830696,39.48427417830696 0 0,0 -0.6177070348318054,-0.2835590030744348 l 7.855822809870906 -16.73183910628887" fill="#ffdd14" stroke="none" /><path d="M 90.7491055286396 118.85261126421891 l -3.191003916867009 6.503020499643315 a28.2437408578884,28.2437408578884 0 0,0 -0.4346121186022569,-0.21792353866675324 l 3.302469943152026 -6.4471291200672605" fill="#ff4506" stroke="none" /><line stroke="#5A5A5A" stroke-width="0.3" x1="58.666819895761336" x2="56.23545636021788" y1="174.27360380694188" y2="178.64263932499728" /><path d="M 58.180547188652646 175.14741091055294 a86.0,86.0 0 0,1 -31.652253787137756,-30.449443065178592" fill="none" id="year_2022_id56" stroke="none" /><text fill="#5A5A5A" style="font-size:6.75px; font-family:Arial;" text-anchor="middle"><textPath startOffset="22.20632615414155" xlink:href="#year_2022_id56">August</textPath></text><path d="M 89.1626897886671 117.98757091392108 l -4.603131196885255 7.640193665718855 a29.919718384872294,29.919718384872294 0 0,0 -0.4388521711765893,-0.26957884703165946 l 4.733962567994153 -7.559826351858818" fill="#ff5d08" stroke="none" /><path d="M 88.8546689885994 117.79835938074946 l -3.4302049662365848 5.477811352238886 a27.46318213584542,27.46318213584542 0 0,0 -0.39850149383294947,-0.25434250780979967 l 3.5239882621164575 -5.417954415605282" fill="#ff3905" stroke="none" /><path d="M 88.54995079064634 117.60387380957326 l -1.6759668985308553 2.5767146718161964 a24.073812542254974,24.073812542254974 0 0,0 -0.3454308960367936,-0.2289327621221408 l 1.7200724933076108 -2.5474838886027373" fill="#ff0801" stroke="none" /><path d="M 87.95078237400918 117.19931262002967 l -6.883587373781036 9.825780798710866 a32.997072286053495,32.997072286053495 0 0,0 -0.4623874587990666,-0.32990117470466745 l 7.05170216042899 -9.705835362161979" fill="#ff870c" stroke="none" /><path d="M 87.65650970185807 116.9893568818739 l -6.283381704952931 8.648332978116555 a31.68992745300526,31.68992745300526 0 0,0 -0.438550914485175,-0.32442948226450835 l 6.43131758985667 -8.538893547112279" fill="#ff750a" stroke="none" /><path d="M 87.36589467227662 116.77436683061367 l -3.5300692729223253 4.686891187422693 a26.867566622917106,26.867566622917106 0 0,0 -0.3670253809239137,-0.2814194113273295 l 3.6102233823397256 -4.625432434267997" fill="#ff3104" stroke="none" /><path d="M 85.18274418774928 114.88116024355367 l -11.036843318784124 11.084443441546624 a36.64214808944845,36.64214808944845 0 0,0 -0.4431246202580435,-0.44888290080851617 l 11.2260085640977 -10.892820046757443" fill="#ffb811" stroke="none" /><path d="M 84.43433777217949 114.09645910891817 l -10.17117742726595 9.211145956690956 a34.722174029372624,34.722174029372624 0 0,0 -0.39738891661571474,-0.44647066050874035 l 10.328225193530004 -9.034701126441352" fill="#ff9f0e" stroke="none" /><path d="M 82.05923443525364 110.91462005526583 l -7.134075739685158 4.340156269426948 a29.350568429910048,29.350568429910048 0 0,0 -0.2588707896355743,-0.4338823336492232 l 7.2077274050189635 -4.216711841891613" fill="#ff5407" stroke="none" /><line stroke="#5A5A5A" stroke-width="0.3" x1="26.63291911575756" x2="22.317208475507996" y1="142.92168965132927" y2="145.44649492493687" /><path d="M 25.769776987707644 143.4266507060508 a86.0,86.0 0 0,1 -11.730757126820373,-40.83630448921669" fill="none" id="year_2022_id57" stroke="none" /><text fill="#5A5A5A" style="font-size:6.75px; font-family:Arial;" text-anchor="middle"><textPath startOffset="21.46611528233685" xlink:href="#year_2022_id57">September</textPath></text><path d="M 81.02952815118164 109.00673069616217 l -14.35104126084596 6.813534469571045 a36.886366395073985,36.886366395073985 0 0,0 -0.26738291704174655,-0.5759190158069234 l 14.466198794727534 -6.565495386485295" fill="#ffbc11" stroke="none" /><path d="M 80.73074385275274 108.34839909993369 l -13.574391697955088 5.881100887723926 a35.79362895374557,35.79362895374557 0 0,0 -0.24007131036674803,-0.5674576617883454 l 13.673613989514143 -5.646568700269422" fill="#ffad10" stroke="none" /><path d="M 80.58989483394504 108.01547362559985 l -2.781176647768303 1.148497026554334 a24.00898470685643,24.00898470685643 0 0,0 -0.1544548127728886,-0.3833441785553038 l 2.8005340747985796 -1.1004534801562247" fill="#ff0701" stroke="none" /><path d="M 80.32549172779594 107.34259656027581 l -3.035256433655326 1.132768511465112 a24.23974476133737,24.23974476133737 0 0,0 -0.1425247808309939,-0.3921669848892287 l 3.054305475491544 -1.080353729569766" fill="#ff0a01" stroke="none" /><path d="M 80.20201598880116 107.00284435728193 l -3.04569473247969 1.0773079804127579 a24.230611225157794,24.230611225157794 0 0,0 -0.13570200247278522,-0.39441353988523 l 3.0637875658957032 -1.0247217374382311" fill="#ff0a01" stroke="none" /><path d="M 80.0844068197444 106.66101706037122 l -4.535020016777879 1.5167936715453008 a25.78195248769955,25.78195248769955 0 0,0 -0.13714494651461562,-0.4220887440948149 l 4.560457214308744 -1.4385060274726824" fill="#ff2103" stroke="none" /><path d="M 79.97269907076064 106.31721596034903 l -4.5107230974568635 1.4228183839973767 a25.729802851681214,25.729802851681214 0 0,0 -0.12959639478110918,-0.42352851654188567 l 4.534546264744103 -1.3449628949034433" fill="#ff2003" stroke="none" /><path d="M 79.86692584326677 105.97154293290107 l -4.642866011318252 1.3770909252336834 a25.842786823247046,25.842786823247046 0 0,0 -0.12282382896870586,-0.42756586161264365 l 4.665882477173062 -1.2969675881164437" fill="#ff2203" stroke="none" /><path d="M 79.18660465613746 102.79330883721812 l -6.98828570130952 0.9378787018634671 a28.05093990206527,28.05093990206527 0 0,0 -0.060107140942871576,-0.47911305325817666 l 7.0033943514992405 -0.8174478943178819" fill="#ff4206" stroke="none" /><path d="M 79.1416061653843 102.43462659150553 l -12.3624707240163 1.4429682457835933 a33.44639866630102,33.44639866630102 0 0,0 -0.06182439139543302,-0.5724170809703099 l 12.385477416912783 -1.2299548429285014" fill="#ff8e0d" stroke="none" /><path d="M 79.04373962182676 101.35467743843564 l -8.64583783142237 0.5588936783205869 a29.663883306631096,29.663883306631096 0 0,0 -0.028553110879688044,-0.5098349756518202 l 8.654177293189589 -0.4099869863333291" fill="#ff5908" stroke="none" /><path d="M 79.0235259727143 100.99374915477108 l -5.270294327130275 0.2496773540761855 a26.27620517756086,26.27620517756086 0 0,0 -0.017514801392861188,-0.4519791986792193 l 5.273811261374337 -0.15892090838296938" fill="#ff2803" stroke="none" /><path d="M 79.0095281055655 100.63252640178507 l -5.352617081396296 0.1612956411678683 a26.35504676953574,26.35504676953574 0 0,0 -0.009761328652721226,-0.45357058608750866 l 5.354600472734025 -0.0691352392902308" fill="#ff2904" stroke="none" /><line stroke="#5A5A5A" stroke-width="0.3" x1="15.007084014347285" x2="10.007500721073583" y1="101.09737516637583" y2="101.16192664675087" /><path d="M 14.007167355692545 101.11028546245083 a86.0,86.0 0 0,1 10.666146001902534,-42.60595125391555" fill="none" id="year_2022_id58" stroke="none" /><text fill="#5A5A5A" style="font-size:6.75px; font-family:Arial;" text-anchor="middle"><textPath startOffset="22.20632615414155" xlink:href="#year_2022_id58">October</textPath></text><path d="M 79.01574976396665 99.18683210126434 l -7.5697320551155896 -0.2933372905876018 a28.575413530117928,28.575413530117928 0 0,0 0.02327724851123696,-0.49134592616096073 l 7.563561198370854 0.4235943233715716" fill="#ff4906" stroke="none" /><path d="M 79.05617556472873 98.46500227214037 l -16.357035168739948 -1.1988265035421037 a37.40090803879439,37.40090803879439 0 0,0 0.05258481502213931,-0.6416679357223497 l 16.33397586989831 1.480208356472232" fill="#ffc212" stroke="none" /><path d="M 79.08570108090925 98.10471618934814 l -5.219641999230821 -0.4730114557897279 a26.241030665569763,26.241030665569763 0 0,0 0.044638335258806276,-0.44950194428289775 l 5.210726538289785 0.5627889307770559" fill="#ff2803" stroke="none" /><path d="M 79.12142395522702 97.74499172005258 l -3.4268356893198013 -0.3701182895262679 a24.446765206659393,24.446765206659393 0 0,0 0.048788347619773326,-0.4179887678644267 l 3.419956988696439 0.4290507957155563" fill="#ff0d01" stroke="none" /><path d="M 79.16333360222342 97.38593545837743 l -5.7623007500959185 -0.7229095951067378 a26.807470035846364,26.807470035846364 0 0,0 0.06138144830765367,-0.45736308616642857 l 5.749003302730431 0.8219910233378257" fill="#ff3004" stroke="none" /><path d="M 79.26566170972629 96.67025291283419 l -7.347708783540634 -1.1799755351157672 a28.44185236558694,28.44185236558694 0 0,0 0.08178811996544935,-0.48271811379610824 l 7.326308802054961 1.3062794372277033" fill="#ff4806" stroke="none" /><path d="M 79.46518482838121 95.60439243477599 l -5.463492331104219 -1.1694952217703298 a26.58725939309947,26.58725939309947 0 0,0 0.09964602611760609,-0.4466935964630188 l 5.442551917984575 1.2633669877833078" fill="#ff2d04" stroke="none" /><path d="M 79.62865764111835 94.90015583598534 l -11.956935447175265 -2.9933475362359143 a33.32592531052359,33.32592531052359 0 0,0 0.14410077438150992,-0.5552790660973235 l 11.903638340923449 3.1987230278821017" fill="#ff8c0c" stroke="none" /><path d="M 79.81627453868168 94.20196356495316 l -15.29322983665368 -4.39317825504509 a36.91172190610794,36.91172190610794 0 0,0 0.18068130187621526,-0.6091675284400492 l 15.215342637665758 4.655775170231679" fill="#ffbc11" stroke="none" /><path d="M 79.91906864156998 93.8553929516997 l -11.201943449697154 -3.427706586267222 a32.71463654970792,32.71463654970792 0 0,0 0.1694065392998583,-0.5370650240920068 l 11.141281426629092 3.6200217767856433" fill="#ff830c" stroke="none" /><path d="M 80.2630227832202 92.82701384747504 l -5.529726075344361 -2.0096617698874146 a26.883588267179338,26.883588267179338 0 0,0 0.16180772388490233,-0.43356425427252865 l 5.494313762957831 2.1045491611892846" fill="#ff3104" stroke="none" /><path d="M 80.38941819471856 92.48833698450439 l -22.38876514160725 -8.575822010111706 a44.97501882616913,44.97501882616913 0 0,0 0.2831422658577111,-0.7205661828045895 l 22.23782932586785 8.959937197812058" fill="#dcff1b" stroke="none" /><path d="M 81.10775173730289 90.83032412892265 l -10.548509560263057 -5.119899561216324 a32.725375280130876,32.725375280130876 0 0,0 0.25033351719499664,-0.5046570951068331 l 10.458816030114647 5.300716244822119" fill="#ff840c" stroke="none" /><path d="M 81.26839172434947 90.50648371742162 l -10.529999523557972 -5.336793320752298 a32.80517907168534,32.80517907168534 0 0,0 0.25961482405749287,-0.5014932063402552 l 10.436575266340366 5.517259249352889" fill="#ff850c" stroke="none" /><path d="M 81.43458229118936 90.18545643968196 l -11.399892981521065 -6.02651381212958 a33.89482177922292,33.89482177922292 0 0,0 0.2771174465679011,-0.5134565416441659 l 11.294467435734692 6.221851337106219" fill="#ff940d" stroke="none" /><path d="M 81.6062741919709 89.86733742301443 l -4.119770142720672 -2.2694826043729717 a25.70351542151232,25.70351542151232 0 0,0 0.2168181594687179,-0.3856953124744809 l 4.080094341959523 2.3400614267822375" fill="#ff2003" stroke="none" /><line stroke="#5A5A5A" stroke-width="0.3" x1="26.266209847984243" x2="21.928928074336255" y1="57.711370442889674" y2="55.22380399835377" /><path d="M 25.398753493254645 57.213857153982495 a86.0,86.0 0 0,1 29.58750427330803,-30.492523968695096" fill="none" id="year_2022_id59" stroke="none" /><text fill="#5A5A5A" style="font-size:6.75px; font-family:Arial;" text-anchor="middle"><textPath startOffset="21.46611528233685" xlink:href="#year_2022_id59">November</textPath></text><path d="M 81.78341655067845 89.55222093294921 l -2.236393033336048 -1.282641192536946 a23.57810438662724,23.57810438662724 0 0,0 0.20495023095750453,-0.3503263802998434 l 2.2139831279082185 1.3209469851906812" fill="#ff0000" stroke="none" /><path d="M 81.96595687620814 89.24020034530311 l -10.684203001836924 -6.374604018674699 a33.44137332368757,33.44137332368757 0 0,0 0.29919551100636377,-0.4917987519318081 l 10.572891692544342 6.557570543813582" fill="#ff8d0d" stroke="none" /><path d="M 82.15384107792192 88.93136811851018 l -3.9908667437956757 -2.4752348708777796 a25.696147892980335,25.696147892980335 0 0,0 0.2363707931288692,-0.37388183016112125 l 3.947668354420844 2.5435643487531165" fill="#ff2003" stroke="none" /><path d="M 82.54541684631803 88.32363383020206 l -3.79948464016869 -2.541691974223639 a25.571245084515887,25.571245084515887 0 0,0 0.2478895181712342,-0.3637472799563452 l 3.7551706563287155 2.6067172774503997" fill="#ff1e03" stroke="none" /><path d="M 82.95767976084542 87.72973835380427 l -10.175872215091555 -7.326503246345563 a33.53898022793658,33.53898022793658 0 0,0 0.34135876251790803,-0.46561296844773736 l 10.048250840060014 7.500578658464802" fill="#ff8f0d" stroke="none" /><path d="M 83.39014120810768 87.1503855733568 l -9.274925304927292 -7.175209343887146 a32.7263749104566,32.7263749104566 0 0,0 0.34852953360359357,-0.4425971139482772 l 9.150041690729728 7.333798851788471" fill="#ff840c" stroke="none" /><path d="M 84.31358615837235 86.03803664274999 l -11.869067823930255 -10.564268654105229 a36.88957341167996,36.88957341167996 0 0,0 0.4262614087288288,-0.4706884940226067 l 11.68546277458538 10.767009935397391" fill="#ffbc11" stroke="none" /><path d="M 84.80347519578584 85.50635884689758 l -12.485585103576016 -11.908090330466162 a38.25376627572024,38.25376627572024 0 0,0 0.4585638104546311,-0.47259031557043 l 12.278757029418266 12.121244841586716" fill="#ffce13" stroke="none" /><line stroke="#5A5A5A" stroke-width="0.3" x1="56.762969772571076" x2="54.21961505331055" y1="26.818313649435495" y2="22.513508569990535" /><path d="M 56.25429882871897 25.957352633546506 a86.0,86.0 0 0,1 42.265352541879196,-11.944610805530505" fill="none" id="year_2022_id60" stroke="none" /><text fill="#5A5A5A" style="font-size:6.75px; font-family:Arial;" text-anchor="middle"><textPath startOffset="22.20632615414155" xlink:href="#year_2022_id60">December</textPath></text><path d="M 90.58718382345135 81.22770947309562 l -7.3197010486627825 -14.597921820456412 a37.330258568618945,37.330258568618945 0 0,0 0.5768924531165284,-0.2830786213278632 l 7.067337328535828 14.721755601919105" fill="#ffc112" stroke="none" /><path d="M 90.91171255644093 81.06846463323043 l -1.2729829690994108 -2.651712135038194 a23.94143891432849,23.94143891432849 0 0,0 0.37305526026703467,-0.17515444682028836 l 1.2271494975327675 2.6732315644984896" fill="#ff0600" stroke="none" /><path d="M 91.56875222667455 80.76684994638697 l -2.942828135909362 -6.713105419462128 a28.32980366792396,28.32980366792396 0 0,0 0.4483073284506111,-0.19194180183780063 l 2.826837049668443 6.762766749262714" fill="#ff4606" stroke="none" /><path d="M 91.90106846888425 80.62456947434976 l -4.630648137861291 -11.078103443541846 a33.0069678971209,33.0069678971209 0 0,0 0.526093551006898,-0.2146067688780958 l 4.439270717266012 11.156171098603519" fill="#ff880c" stroke="none" /></g></svg>