<?xml version="1.0" encoding="utf-8" ?>
<svg baseProfile="full" height="200mm" version="1.1" viewBox="0,0,200,200" width="200mm" xmlns="http://www.w3.org/2000/svg" xmlns:ev="http://www.w3.org/2001/xml-events" xmlns:xlink="http://www.w3.org/1999/xlink"><defs /><rect fill="#1a1a1a" height="200" width="200" x="0" y="0" /><text alignment-baseline="middle" fill="#e1ed5e" style="dominant-baseline: central; font-size:9.0px; font-family:Arial;" text-anchor="middle" x="100.0" y="100.0">2019</text><line stroke="#e1ed5e" stroke-width="0.3" x1="100.0" x2="100.0" y1="15.0" y2="10.0" /><path d="M 100.0 14.0 a86.0,86.0 0 0,1 42.46469731375804,11.215312516191453" fill="none" id="id13" stroke="none" /><text fill="#e1ed5e" style="font-size:6.75px; font-family:Arial;" text-anchor="middle"><textPath startOffset="22.20632615414155" xlink:href="#id13">January</textPath></text><path d="M 103.95276090670814 79.375362276772 l 5.033597676839781 -26.264206457091536 a47.742207208699426,47.742207208699426 0 0,0 0.8057829486163728,0.16163247908003409 l -5.4849470349232785 26.173670021934296" fill="red" stroke="none" /><line stroke="#e1ed5e" stroke-width="0.3" x1="143.23703022742887" x2="145.7803849466894" y1="26.81831364943548" y2="22.513508569990506" /><path d="M 143.74570117128098 25.957352633546492 a86.0,86.0 0 0,1 28.547481713284135,27.462654790039103" fill="none" id="id14" stroke="none" /><text fill="#e1ed5e" style="font-size:6.75px; font-family:Arial;" text-anchor="middle"><textPath startOffset="19.985693538727396" xlink:href="#id14">February</textPath></text><path d="M 112.19680574252982 82.90503203632743 l 17.895150744121665 -25.081733294245204 a51.81119545227816,51.81119545227816 0 0,0 0.7215441321584777,0.5242324978458515 l -18.32424019263393 24.76998156158268" fill="red" stroke="none" /><path d="M 113.34407831869373 83.78471172551755 l 38.14308360923288 -46.350229789564345 a81.02698250592269,81.02698250592269 0 0,0 1.0693341668791392,0.8955366123569477 l -38.93527531307114 45.68679201981358" fill="red" stroke="none" /><path d="M 113.6212207817346 84.01681056812373 l 21.644427938238856 -25.397649551746838 a54.36947502624159,54.36947502624159 0 0,0 0.7070781330469743,0.6131711893147117 l -22.078399869932593 25.021313369012457" fill="red" stroke="none" /><path d="M 113.89432698308785 84.25364557470407 l 22.392569662778186 -25.37736004287367 a54.84431383331645,54.84431383331645 0 0,0 0.7025008482856845,0.6307121978149359 l -22.82608149865986 24.988148836289437" fill="red" stroke="none" /><path d="M 114.94478906791727 85.2469230424477 l 25.04944674594347 -24.728111846045213 a56.19878261741987,56.19878261741987 0 0,0 0.6736781867231004,0.6942845894025989 l -25.471389196369678 24.2932630610925" fill="red" stroke="none" /><path d="M 115.19652480421416 85.50635884689758 l 25.31659170453754 -24.145625405317862 a55.98486875419415,55.98486875419415 0 0,0 0.6591090014872177,0.7030915277404378 l -25.72846802799522 23.70626446069937" fill="red" stroke="none" /><path d="M 116.82858285166822 87.43820079747576 l 43.32613888946798 -32.34106292534442 a75.06568840041304,75.06568840041304 0 0,0 0.7640163870747839,1.04211749335112 l -43.87641788905639 31.590482988321803" fill="red" stroke="none" /><path d="M 117.45458315368197 88.32363383020206 l 24.656855223683632 -16.494376729168316 a50.66521486868794,50.66521486868794 0 0,0 0.4786737666791132,0.7290529865717743 l -24.937125625720668 16.067505678618865" fill="red" stroke="none" /><line stroke="#e1ed5e" stroke-width="0.3" x1="172.23445277983987" x2="176.4835382374775" y1="55.19839476539836" y2="52.563006222186495" /><path d="M 173.08426987136738 54.67131705675599 a86.0,86.0 0 0,1 12.851231095245387,41.99856678651699" fill="none" id="id15" stroke="none" /><text fill="#e1ed5e" style="font-size:6.75px; font-family:Arial;" text-anchor="middle"><textPath startOffset="22.20632615414155" xlink:href="#id15">March</textPath></text><path d="M 117.84615892207809 88.93136811851018 l 24.18594932623013 -15.000727661638194 a49.46018227611357,49.46018227611357 0 0,0 0.4425136601697835,0.7273761061864665 l -24.44057878468614 14.582183782244647" fill="red" stroke="none" /><path d="M 118.03404312379186 89.2402003453031 l 54.10212937137558 -32.279398964090696 a84.0,84.0 0 0,0 0.7301613021186908,1.2480823505844187 l -54.6497503479646 31.34333720115238" fill="red" stroke="none" /><path d="M 118.3937258080291 89.86733742301442 l 25.98401441926321 -14.313970603551887 a50.665784327737335,50.665784327737335 0 0,0 0.4142335626579304,0.7675118804299774 l -26.226556081139606 13.864577739789452" fill="red" stroke="none" /><path d="M 119.04729006885535 91.15688171328212 l 32.844912852004065 -15.248964467766251 a57.2121418531815,57.2121418531815 0 0,0 0.4070172111633162,0.8968084726225347 l -33.102532380130725 14.681333986301654" fill="red" stroke="none" /><path d="M 120.73433829027371 96.67025291283417 l 52.777423782787984 -8.47557663276338 a74.45364216221229,74.45364216221229 0 0,0 0.19231768091806087,1.2671332283055698 l -52.91549735714535 7.565844292065728" fill="red" stroke="none" /><line stroke="#e1ed5e" stroke-width="0.3" x1="184.98032266829074" x2="189.97916517819016" y1="98.17113171792111" y2="98.06355123074" /><path d="M 185.9800911702706 98.14961562048488 a86.0,86.0 0 0,1 -9.607161424134198,41.387399972396054" fill="none" id="id16" stroke="none" /><text fill="#e1ed5e" style="font-size:6.75px; font-family:Arial;" text-anchor="middle"><textPath startOffset="21.466115282336823" xlink:href="#id16">April</textPath></text><line stroke="#e1ed5e" stroke-width="0.3" x1="174.80103733775053" x2="179.2010983576182" y1="140.37084112569926" y2="142.7455964860345" /><path d="M 175.68104954172406 140.8457921977663 a86.0,86.0 0 0,1 -30.038265399797805,32.042727171017184" fill="none" id="id17" stroke="none" /><text fill="#e1ed5e" style="font-size:6.75px; font-family:Arial;" text-anchor="middle"><textPath startOffset="22.206326154141568" xlink:href="#id17">May</textPath></text><path d="M 118.30583269289576 110.29060199501025 l 19.631284143044155 11.035702945401846 a43.52052522931221,43.52052522931221 0 0,0 -0.37271807566151455,0.6498653814159433 l -19.438414071230262 -11.371988172676106" fill="red" stroke="none" /><line stroke="#e1ed5e" stroke-width="0.3" x1="143.8653032363475" x2="146.44561519142675" y1="172.8068346515853" y2="177.08958963109032" /><path d="M 144.38136562736335 173.6633856474863 a86.0,86.0 0 0,1 -40.68145358897372,12.25698825130547" fill="none" id="id18" stroke="none" /><text fill="#e1ed5e" style="font-size:6.75px; font-family:Arial;" text-anchor="middle"><textPath startOffset="21.466115282336833" xlink:href="#id18">June</textPath></text><path d="M 103.41894727170886 120.7198165907248 l 6.67293413745236 40.439925059415465 a61.98677333987046,61.98677333987046 0 0,0 -1.0542596365537822,0.16465367328520344 l -5.97583863729006 -40.54879704004777" fill="red" stroke="none" /><path d="M 101.26447882468166 120.96189622390904 l 0.39785607870152057 6.595458675151985 a27.607447661162162,27.607447661162162 0 0,0 -0.47460085744428177,0.024531443245699204 l -0.28426715284375925 -6.601329925159886" fill="red" stroke="none" /><line stroke="#e1ed5e" stroke-width="0.3" x1="102.19456741930631" x2="102.32365962044197" y1="184.97166512339345" y2="189.96999836594603" /><path d="M 102.22038585953345 185.97133177190398 a86.0,86.0 0 0,1 -42.740103519485714,-10.115201625700543" fill="none" id="id19" stroke="none" /><text fill="#e1ed5e" style="font-size:6.75px; font-family:Arial;" text-anchor="middle"><textPath startOffset="22.20632615414155" xlink:href="#id19">July</textPath></text><path d="M 92.7421414339146 119.70592522655815 l -17.676842629929453 47.99467169761966 a72.14644930711793,72.14644930711793 0 0,0 -1.1616601417688202,-0.43924046630990987 l 18.500372992458555 -47.683282981203114" fill="red" stroke="none" /><path d="M 91.7346041902142 119.30500536409082 l -16.349161383334025 38.18578752513843 a62.53852966648336,62.53852966648336 0 0,0 -0.9859625814226676,-0.4322170209263436 l 17.004044639414438 -37.89870595091764" fill="red" stroke="none" /><path d="M 91.07499286063937 119.00905698771935 l -18.25414339069873 38.878854275140725 a63.95089126753737,63.95089126753737 0 0,0 -0.9924183492468749,-0.47642111680227156 l 18.920674407945846 -38.55887888183889" fill="red" stroke="none" /><line stroke="#e1ed5e" stroke-width="0.3" x1="58.666819895761336" x2="56.23545636021788" y1="174.27360380694188" y2="178.64263932499728" /><path d="M 58.180547188652646 175.14741091055294 a86.0,86.0 0 0,1 -31.652253787137756,-30.449443065178592" fill="none" id="id20" stroke="none" /><text fill="#e1ed5e" style="font-size:6.75px; font-family:Arial;" text-anchor="middle"><textPath startOffset="22.20632615414155" xlink:href="#id20">August</textPath></text><path d="M 88.8546689885994 117.79835938074946 l -17.61603447302414 28.131646524794775 a54.19208048240985,54.19208048240985 0 0,0 -0.7863482432346676,-0.5018846536118025 l 18.09766451830573 -27.82424744235917" fill="red" stroke="none" /><path d="M 87.65650970185807 116.9893568818739 l -19.51005864174694 26.85329198183288 a54.19249430919548,54.19249430919548 0 0,0 -0.7499596827027919,-0.5548022442597066 l 19.969403294868297 -26.513479788833408" fill="red" stroke="none" /><path d="M 87.07902340077011 116.55440617244103 l -20.814995734530367 26.66825461843039 a54.829866269643325,54.829866269643325 0 0,0 -0.7390087058538953,-0.5871132106512763 l 21.27096193310162 -26.306007493773983" fill="red" stroke="none" /><path d="M 86.24171649860922 115.8653595955263 l -27.4463682159649 31.6497694856694 a62.892851857355545,62.892851857355545 0 0,0 -0.8117899258785399,-0.7163102243915794 l 27.987100494750024 -31.17263611950553" fill="red" stroke="none" /><path d="M 83.28015986056508 112.70617746262583 l -21.690943568726833 16.483948172805942 a48.24367046242933,48.24367046242933 0 0,0 -0.4967690567035932,-0.6655033322934764 l 21.97147389212551 -16.108131961003156" fill="red" stroke="none" /><line stroke="#e1ed5e" stroke-width="0.3" x1="26.63291911575756" x2="22.317208475507996" y1="142.92168965132927" y2="145.44649492493687" /><path d="M 25.769776987707644 143.4266507060508 a86.0,86.0 0 0,1 -11.730757126820373,-40.83630448921669" fill="none" id="id21" stroke="none" /><text fill="#e1ed5e" style="font-size:6.75px; font-family:Arial;" text-anchor="middle"><textPath startOffset="21.46611528233685" xlink:href="#id21">September</textPath></text><path d="M 80.0844068197444 106.66101706037122 l -34.69761384623283 11.605047145322509 a57.58690374802774,57.58690374802774 0 0,0 -0.30632873279219497,-0.9427828978782996 l 34.892234830041275 -11.006065347466405" fill="red" stroke="none" /><path d="M 79.97269907076064 106.31721596034903 l -46.41699342912275 14.641322500615516 a69.67140437224155,69.67140437224155 0 0,0 -0.3509223478324995,-1.1468345369477728 l 46.66214254946138 -13.840160991115695" fill="red" stroke="none" /><path d="M 79.29508885075956 103.50808413554451 l -26.871973335686082 4.552984684174977 a48.254955888574756,48.254955888574756 0 0,0 -0.13170901975744795,-0.8201521917557189 l 26.946364109804822 -4.089753262726044" fill="red" stroke="none" /><path d="M 79.23777060512086 103.15116336523772 l -39.27047438402475 5.96023085290478 a60.72020279613716,60.72020279613716 0 0,0 -0.14794318088232933,-1.0347142625174297 l 39.36725161592368 -5.28337111840695" fill="red" stroke="none" /><path d="M 79.18660465613746 102.79330883721812 l -20.647412825815948 2.7710327776505532 a41.83252934846085,41.83252934846085 0 0,0 -0.08963812786036525,-0.7145040747878012 l 20.692052462923165 -2.4152109485753432" fill="red" stroke="none" /><path d="M 79.1416061653843 102.43462659150553 l -29.65451277665644 3.461324296426514 a50.85583517347844,50.85583517347844 0 0,0 -0.09400507031791842,-0.8703702007128297 l 29.70970014847541 -2.950357773828902" fill="red" stroke="none" /><path d="M 79.10278846688536 102.07522291339032 l -20.199987939464172 2.005984279565558 a41.29934692753346,41.29934692753346 0 0,0 -0.06416227938113846,-0.7080254064143636 l 20.231524815122388 -1.6579774846026283" fill="red" stroke="none" /><path d="M 79.04373962182676 101.35467743843564 l -18.77026049350848 1.2133676498217054 a39.80943752608778,39.80943752608778 0 0,0 -0.03831876197700329,-0.6842072361877374 l 18.788365606373016 -0.8900886972985305" fill="red" stroke="none" /><path d="M 79.0095281055655 100.63252640178507 l -14.60384462908749 0.44007192129464373 a35.6104736831644,35.6104736831644 0 0,0 -0.013189334860230686,-0.6128565644587245 l 14.609256026632728 -0.18862554104579032" fill="red" stroke="none" /><line stroke="#e1ed5e" stroke-width="0.3" x1="15.007084014347285" x2="10.007500721073583" y1="101.09737516637583" y2="101.16192664675087" /><path d="M 14.007167355692545 101.11028546245083 a86.0,86.0 0 0,1 10.666146001902534,-42.60595125391555" fill="none" id="id22" stroke="none" /><text fill="#e1ed5e" style="font-size:6.75px; font-family:Arial;" text-anchor="middle"><textPath startOffset="22.20632615414155" xlink:href="#id22">October</textPath></text><path d="M 79.00175016825051 100.2711162175752 l -17.891213853785555 0.23100011985443175 a38.89270505589529,38.89270505589529 0 0,0 -0.002881213651143627,-0.6694925830821972 l 17.8925393647262 0.07700194143144083" fill="red" stroke="none" /><path d="M 79.05617556472873 98.46500227214037 l -44.98553687974855 -3.2970433413617073 a66.10619717016759,66.10619717016759 0 0,0 0.09294379019901426,-1.1341496584157107 l 44.92211860573004 4.070906916985197" fill="red" stroke="none" /><line stroke="#e1ed5e" stroke-width="0.3" x1="26.266209847984243" x2="21.928928074336255" y1="57.711370442889674" y2="55.22380399835377" /><path d="M 25.398753493254645 57.213857153982495 a86.0,86.0 0 0,1 29.58750427330803,-30.492523968695096" fill="none" id="id23" stroke="none" /><text fill="#e1ed5e" style="font-size:6.75px; font-family:Arial;" text-anchor="middle"><textPath startOffset="21.46611528233685" xlink:href="#id23">November</textPath></text><path d="M 82.15384107792192 88.93136811851018 l -48.204561173303006 -29.897668454356573 a77.72345455732875,77.72345455732875 0 0,0 0.7149536449955658,-1.1308849698937655 l 47.68277993206148 30.723001071964553" fill="red" stroke="none" /><path d="M 85.05521093208273 85.24692304244772 l -12.05573441620847 -11.901083167774809 a37.94038113149897,37.94038113149897 0 0,0 0.46280797018560005,-0.46082052568173454 l 11.849090645855556 12.106839544106652" fill="red" stroke="none" /><path d="M 86.65592168130627 83.78471172551755 l -19.213817707584138 -23.34800392660848 a51.237395361657704,51.237395361657704 0 0,0 0.6858408429794766,-0.554568931322463 l 18.80907346604016 23.67527895519508" fill="red" stroke="none" /><path d="M 86.93701828274178 83.55741782278169 l -17.526868577297314 -22.0613473347189 a49.176127632252104,49.176127632252104 0 0,0 0.6673140685008022,-0.5208492152252355 l 17.14452195363709 22.359774939167355" fill="red" stroke="none" /><line stroke="#e1ed5e" stroke-width="0.3" x1="56.762969772571076" x2="54.21961505331055" y1="26.818313649435495" y2="22.513508569990535" /><path d="M 56.25429882871897 25.957352633546506 a86.0,86.0 0 0,1 42.265352541879196,-11.944610805530505" fill="none" id="id24" stroke="none" /><text fill="#e1ed5e" style="font-size:6.75px; font-family:Arial;" text-anchor="middle"><textPath startOffset="22.20632615414155" xlink:href="#id24">December</textPath></text><path d="M 93.59665428221793 80.00007090966166 l -9.204977313224918 -28.750422303676228 a51.188050450082216,51.188050450082216 0 0,0 0.8414697027518832,-0.26144873270963387 l 8.708722237762306 28.90461117126839" fill="red" stroke="none" /><path d="M 93.94186890950719 79.89281104454417 l -8.644548687664782 -28.69161649048667 a50.96559825617659,50.96559825617659 0 0,0 0.8421695787843532,-0.24585239385756846 l 8.149388891157008 28.836167213262936" fill="red" stroke="none" /><path d="M 96.04723909329186 79.375362276772 l -4.359455130834466 -22.7466788065882 a44.160661600391464,44.160661600391464 0 0,0 0.7477974628773008,-0.1366552065397365 l 3.9672625468542715 22.81834949447867" fill="red" stroke="none" /></svg>