<?xml version="1.0" encoding="utf-8" ?>
<svg baseProfile="full" height="200mm" version="1.1" viewBox="0,0,200,200" width="200mm" xmlns="http://www.w3.org/2000/svg" xmlns:ev="http://www.w3.org/2001/xml-events" xmlns:xlink="http://www.w3.org/1999/xlink"><defs /><rect fill="#1a1a1a" height="200" width="200" x="0" y="0" /><text alignment-baseline="middle" fill="#e1ed5e" style="dominant-baseline: central; font-size:9.5px; font-family:Arial;" text-anchor="middle" x="105.0" y="100.0">2020</text><line stroke="#e1ed5e" stroke-width="0.3" x1="105.0" x2="105.0" y1="10.0" y2="5.0" /><path d="M 105.0 9.0 a91.0,91.0 0 0,1 44.82187418380166,11.804043066255872" fill="none" id="id25" stroke="none" /><text fill="#e1ed5e" style="font-size:7.125px; font-family:Arial;" text-anchor="middle"><textPath startOffset="23.43319110464518" xlink:href="#id25">January</textPath></text><path d="M 105.0 77.75 l 0.0 -12.257894049397379 a34.50789404939738,34.50789404939738 0 0,0 0.5923738883924596,0.0050848173828669735 l -0.21042305135022066 12.256087820577664" fill="#ff5e08" stroke="none" /><path d="M 112.49017957449375 79.04863465208444 l 6.898725885003256 -19.296964113386334 a42.74305352624967,42.74305352624967 0 0,0 0.6887958573672052,0.2529353796419906 l -7.228967391146855 19.17569485800891" fill="#ffcd13" stroke="none" /><line stroke="#e1ed5e" stroke-width="0.3" x1="150.6673583964461" x2="153.20443386291532" y1="22.446841604673864" y2="18.138332804933526" /><path d="M 151.17477348973995 21.585139844725788 a91.0,91.0 0 0,1 31.02518551117971,30.236376054419345" fill="none" id="id26" stroke="none" /><text fill="#e1ed5e" style="font-size:7.125px; font-family:Arial;" text-anchor="middle"><textPath startOffset="21.870978364335496" xlink:href="#id26">February</textPath></text><line stroke="#e1ed5e" stroke-width="0.3" x1="182.1583165268699" x2="186.44488966725157" y1="53.66864786411523" y2="51.09468385656608" /><path d="M 183.01563115494622 53.1538550626054 a91.0,91.0 0 0,1 12.954199388856248,44.50308479479063" fill="none" id="id27" stroke="none" /><text fill="#e1ed5e" style="font-size:7.125px; font-family:Arial;" text-anchor="middle"><textPath startOffset="23.433191104645175" xlink:href="#id27">March</textPath></text><path d="M 127.11161990813409 97.522346868868 l 6.8542726391831446 -0.7680355458650593 a29.147168405365125,29.147168405365125 0 0,0 0.05144837136765989,0.49771632278198835 l -6.866446997823045 0.6502596697118698" fill="#ff1201" stroke="none" /><line stroke="#e1ed5e" stroke-width="0.3" x1="194.99668451229388" x2="199.99650031853244" y1="99.22748670261217" y2="99.18456929720173" /><path d="M 195.9966476735416 99.21890322153008 a91.0,91.0 0 0,1 -10.672877025916787,43.54898039395605" fill="none" id="id28" stroke="none" /><text fill="#e1ed5e" style="font-size:7.125px; font-family:Arial;" text-anchor="middle"><textPath startOffset="22.65208473449034" xlink:href="#id28">April</textPath></text><path d="M 127.24918033776154 100.19098245407643 l 6.704144322079052 0.057547015920410595 a28.954391303489537,28.954391303489537 0 0,0 -0.00853267767145557,0.4969856972181482 l -6.702168579975674 -0.17262408839150314" fill="#ff0f01" stroke="none" /><path d="M 126.95475538969158 103.6126466446095 l 26.142845836607417 4.301795333894163 a48.74441132637854,48.74441132637854 0 0,0 -0.14294921275088682,0.8244930718721075 l -26.065147591037377 -4.749938166836894" fill="#e6ff1a" stroke="none" /><path d="M 124.63960326274344 110.45698253235787 l 11.766200464415585 6.2648390134245355 a35.5801043219076,35.5801043219076 0 0,0 -0.29168002000894144,0.5366583842111242 l -11.656922395409438 -6.465898352150418" fill="#ff6d0a" stroke="none" /><line stroke="#e1ed5e" stroke-width="0.3" x1="183.70328620479359" x2="188.07569099394877" y1="143.65538615756765" y2="146.08068538854363" /><path d="M 184.5777671626246 144.14044600376286 a91.0,91.0 0 0,1 -32.063702284633536,33.470208153833674" fill="none" id="id29" stroke="none" /><text fill="#e1ed5e" style="font-size:7.125px; font-family:Arial;" text-anchor="middle"><textPath startOffset="23.433191104645175" xlink:href="#id29">May</textPath></text><path d="M 124.45720131174063 110.79258157784311 l 26.474552604499547 14.684988048540626 a52.52459016393442,52.52459016393442 0 0,0 -0.44412451090671645,0.7847254555834587 l -26.218564171129703 -15.137295081967203" fill="#baff1f" stroke="none" /><path d="M 124.26906523420377 111.125 l 27.309807805853612 15.767324888226518 a53.78464977645305,53.78464977645305 0 0,0 -0.46850602074173814,0.795625648418845 l -27.035116544617242 -16.233810703051624" fill="#abff21" stroke="none" /><path d="M 123.67081503887977 112.10219673381413 l 43.60233556769685 28.26250712650779 a74.21087928464976,74.21087928464976 0 0,0 -0.7020899085744768,1.0630536064273142 l -43.11074714645636 -29.006834651651488" fill="#3aff96" stroke="none" /><path d="M 120.80050409960391 115.66545786749943 l 18.390750673309476 18.23356571463048 a48.147540983606554,48.147540983606554 0 0,0 -0.5869599770322351,0.5819432552368621 l -18.075037352330018 -18.54658064737152" fill="#eeff19" stroke="none" /><path d="M 119.97311578746728 116.4580771542455 l 17.0665978019836 18.759180612269517 a47.61090727435476,47.61090727435476 0 0,0 -0.609272185204208,0.5448149449683342 l -16.742056719311766 -19.0493872496143" fill="#f4ff19" stroke="none" /><path d="M 119.10602146397423 117.20705257904149 l 5.269660875383216 6.42812943309459 a30.562049912636567,30.562049912636567 0 0,0 -0.4085843794922399,0.32912665394828194 l -5.158536989205054 -6.517642969752549" fill="#ff2603" stroke="none" /><line stroke="#e1ed5e" stroke-width="0.3" x1="150.66735839644613" x2="153.20443386291535" y1="177.55315839532614" y2="181.86166719506645" /><path d="M 151.17477348973998 178.4148601552742 a91.0,91.0 0 0,1 -43.05096184303483,12.531507561066793" fill="none" id="id30" stroke="none" /><text fill="#e1ed5e" style="font-size:7.125px; font-family:Arial;" text-anchor="middle"><textPath startOffset="22.652084734490362" xlink:href="#id30">June</textPath></text><line stroke="#e1ed5e" stroke-width="0.3" x1="106.54496967792366" x2="106.6308013266972" y1="189.98673829345242" y2="194.98600153197754" /><path d="M 106.56213600767838 190.98659094115743 a91.0,91.0 0 0,1 -45.01790167348979,-11.032876640956953" fill="none" id="id31" stroke="none" /><text fill="#e1ed5e" style="font-size:7.125px; font-family:Arial;" text-anchor="middle"><textPath startOffset="23.433191104645175" xlink:href="#id31">July</textPath></text><path d="M 98.23344498071273 121.19613722287527 l -3.196718243091006 10.013674366097554 a32.76154992548435,32.76154992548435 0 0,0 -0.5342898061379359,-0.17563167162155705 l 3.368145235546194 -9.957322908704809" fill="#ff4606" stroke="none" /><path d="M 94.37482652676589 119.54912245252154 l -3.594943690837339 6.61429148419424 a29.778112112487143,29.778112112487143 0 0,0 -0.44703442424765377,-0.24796245947692752 l 3.7079570763456253 -6.5516048643179055" fill="#ff1b02" stroke="none" /><line stroke="#e1ed5e" stroke-width="0.3" x1="60.67067388415222" x2="58.207933544382904" y1="178.32567169271397" y2="182.67709789786477" /><path d="M 60.17812581619836 179.19595693374413 a91.0,91.0 0 0,1 -33.19375697114459,-32.34981199634952" fill="none" id="id32" stroke="none" /><text fill="#e1ed5e" style="font-size:7.125px; font-family:Arial;" text-anchor="middle"><textPath startOffset="23.433191104645175" xlink:href="#id32">August</textPath></text><path d="M 91.49296896895251 117.68113720116216 l -8.172659610440057 10.698273775963989 a35.71274217585693,35.71274217585693 0 0,0 -0.4839757749073781,-0.37634248986928026 l 8.355105445734761 -10.556402790925059" fill="#ff6f0a" stroke="none" /><path d="M 90.89397853602577 117.20705257904149 l -7.008841375819164 8.549646856832702 a33.30532988236642,33.30532988236642 0 0,0 -0.43903667241161415,-0.3662600070061157 l 7.154574664188021 -8.42807096449139" fill="#ff4d07" stroke="none" /><path d="M 89.47074255644887 115.93438618999525 l -11.039427422613848 11.327425056077104 a38.067064083457524,38.067064083457524 0 0,0 -0.46407028487122043,-0.46010389601372165 l 11.232251051432291 -11.136249482559206" fill="#ff8f0d" stroke="none" /><path d="M 86.32918496112023 112.10219673381413 l -14.191714898276445 9.198898137627708 a39.16225882903913,39.16225882903913 0 0,0 -0.3608192494946126,-0.5672677906899118 l 14.34753503532706 -8.953923001147299" fill="#ff9e0e" stroke="none" /><line stroke="#e1ed5e" stroke-width="0.3" x1="27.057713659400548" x2="22.72758664047835" y1="145.00000000000006" y2="147.50000000000006" /><path d="M 26.191688255616114 145.50000000000006 a91.0,91.0 0 0,1 -12.161518799418594,-43.15693985739604" fill="none" id="id33" stroke="none" /><text fill="#e1ed5e" style="font-size:7.125px; font-family:Arial;" text-anchor="middle"><textPath startOffset="22.65208473449034" xlink:href="#id33">September</textPath></text><path d="M 84.84812464645951 109.4320951932944 l -11.202160218883163 5.243176612665891 a34.61847988077496,34.61847988077496 0 0,0 -0.24730046596280622,-0.5403961487570075 l 11.290515653561446 -5.050104042276653" fill="#ff6008" stroke="none" /><path d="M 84.689179615175 109.08477161492664 l -10.957038255816624 4.900943843926652 a34.253163662166386,34.253163662166386 0 0,0 -0.2354760126925913,-0.5388151994185301 l 11.03955492921767 -4.712129546769424" fill="#ff5b08" stroke="none" /><path d="M 84.38929170640424 108.38219563338288 l -19.142386404641428 7.785041903842309 a42.91489377444708,42.91489377444708 0 0,0 -0.2716744210506196,-0.6847970119145292 l 19.273206326549012 -7.455290242737216" fill="#ffcf13" stroke="none" /><path d="M 84.11369828892174 107.66973929373152 l -9.739130109731628 3.5763434773018155 a32.625012672855895,32.625012672855895 0 0,0 -0.18854123763295183,-0.5273833976220961 l 9.799087718006376 -3.408631375895172" fill="#ff4406" stroke="none" /><path d="M 83.86272421337236 106.94824239070894 l -17.86115554548118 5.871316595427667 a41.05141579731743,41.05141579731743 0 0,0 -0.21431826850880892,-0.6713489236004379 l 17.95931261999208 -5.56384095755897" fill="#ffb711" stroke="none" /><path d="M 83.53306347502874 105.85090900910744 l -11.453298473829673 3.121647429598308 a34.12108792846497,34.12108792846497 0 0,0 -0.14917499039141618,-0.566441736374891 l 11.505198033168961 -2.924576349304614" fill="#ff5908" stroke="none" /><path d="M 82.98646381031206 103.23523174213211 l -10.563872806377825 1.5525255155984197 a32.927347242921016,32.927347242921016 0 0,0 -0.07738786389184554,-0.5599400324001319 l 10.58896736042936 -1.3709538233196255" fill="#ff4806" stroke="none" /><path d="M 82.84910607913815 102.0977126845032 l -26.024011563363192 2.464500952113301 a48.390446491845324,48.390446491845324 0 0,0 -0.07121778081436937,-0.827658566093575 l 26.06248330155969 -2.0174010382050365" fill="#ebff1a" stroke="none" /><path d="M 82.81636003652028 101.71715403231788 l -10.37009097054553 0.8027106261592211 a32.65111201202731,32.65111201202731 0 0,0 -0.03845996070158499,-0.5591993877999396 l 10.382342509148197 -0.6245759437195605" fill="#ff4406" stroke="none" /><line stroke="#e1ed5e" stroke-width="0.3" x1="15.003315487706104" x2="10.00349968146756" y1="100.7725132973878" y2="100.81543070279824" /><path d="M 14.003352326458398 100.78109677846989 a91.0,91.0 0 0,1 11.418880510916955,-44.92154278223269" fill="none" id="id34" stroke="none" /><text fill="#e1ed5e" style="font-size:7.125px; font-family:Arial;" text-anchor="middle"><textPath startOffset="23.433191104645132" xlink:href="#id34">October</textPath></text><path d="M 82.75081966223846 100.19098245407643 l -40.817795820841226 0.3503716854964011 a63.06929955290611,63.06929955290611 0 0,0 0.0,-1.0827082791456386 l 40.817795820841226 0.35037168549638603" fill="#47ff2c" stroke="none" /><path d="M 82.79015161442136 98.66391067304241 l -9.96298712974541 -0.5993485654459558 a32.23099850968703,32.23099850968703 0 0,0 0.03796510622973289,-0.552004312384814 l 9.951230445614597 0.7702881724704712" fill="#ff3e05" stroke="none" /><path d="M 83.63666531080686 93.78144462455168 l -5.481012105105837 -1.5954427426699864 a27.958496408114403,27.958496408114403 0 0,0 0.13809324450547275,-0.4596674985650347 l 5.452816569167947 1.6892965117061447" fill="#ff0000" stroke="none" /><path d="M 85.54279868825935 89.2074184221569 l -14.556654334566023 -8.074330778058474 a38.89605067064083,38.89605067064083 0 0,0 0.3288876586449532,-0.5811129794188438 l 14.415902753457951 8.323025335320418" fill="#ff9a0e" stroke="none" /><line stroke="#e1ed5e" stroke-width="0.3" x1="27.05771365940052" x2="22.727586640478336" y1="54.99999999999999" y2="52.49999999999999" /><path d="M 26.191688255616086 54.49999999999999 a91.0,91.0 0 0,1 31.294246866392854,-32.11065415759653" fill="none" id="id35" stroke="none" /><text fill="#e1ed5e" style="font-size:7.125px; font-family:Arial;" text-anchor="middle"><textPath startOffset="22.65208473449034" xlink:href="#id35">November</textPath></text><path d="M 88.1618527405412 85.45560943632287 l -8.00364511242494 -6.913358022972615 a32.82605097564509,32.82605097564509 0 0,0 0.37201128314927523,-0.4232805510545277 l 7.883788773414774 7.049732535041496" fill="#ff4706" stroke="none" /><path d="M 90.60067515198303 83.03763153562332 l -10.772669260364415 -12.690177301217728 a38.89605067064083,38.89605067064083 0 0,0 0.5127345297796321,-0.4277413807776465 l 10.553238114627522 12.873234567330584" fill="#ff9a0e" stroke="none" /><path d="M 93.05850968368688 81.22599379393412 l -4.5737153670528645 -7.1906402309373 a30.77198211624441,30.77198211624441 0 0,0 0.4481512361614011,-0.279679516486833 l 4.449604518245235 7.268094579791951" fill="#ff2904" stroke="none" /><line stroke="#e1ed5e" stroke-width="0.3" x1="59.33264160355391" x2="56.79556613708468" y1="22.446841604673864" y2="18.138332804933526" /><path d="M 58.82522651026006 21.585139844725788 a91.0,91.0 0 0,1 44.61263748206156,-12.571730785883243" fill="none" id="id36" stroke="none" /><text fill="#e1ed5e" style="font-size:7.125px; font-family:Arial;" text-anchor="middle"><textPath startOffset="23.433191104645175" xlink:href="#id36">December</textPath></text><path d="M 95.39527903245832 79.92982722705992 l -22.45872905823085 -46.93010593255288 a74.27719821162444,74.27719821162444 0 0,0 1.154873500861778,-0.5405391113848657 l 21.649802039100436 47.308724622625576" fill="#3aff96" stroke="none" /><path d="M 97.50982042550623 79.04863465208444 l -10.850155806867269 -30.349816867621332 a54.48099850968703,54.48099850968703 0 0,0 0.8833555012272931,-0.30727689803408925 l 10.32756204716372 30.531602104924517" fill="#a3ff21" stroke="none" /><path d="M 100.44871652869205 78.22046100662828 l -13.653850413923884 -65.33861698011515 a89.0,89.0 0 0,0 1.4981815613210985,-0.29967827128594826 l 12.53021424293306 65.56337568357961" fill="#4dd2ff" stroke="none" /><path d="M 103.09249637153579 77.83191641328922 l -2.422467615496109 -28.152745706520292 a50.506776889166325,50.506776889166325 0 0,0 0.8644619803779467,-0.06691482452091548 l 1.9388313430348965 28.19018221273835" fill="#d1ff1c" stroke="none" /></svg>