<?xml version="1.0" encoding="utf-8" ?>
<svg baseProfile="full" height="200mm" version="1.1" viewBox="0,0,200,200" width="200mm" xmlns="http://www.w3.org/2000/svg" xmlns:ev="http://www.w3.org/2001/xml-events" xmlns:xlink="http://www.w3.org/1999/xlink"><defs /><rect fill="#1a1a1a" height="200" width="200" x="0" y="0" /><text alignment-baseline="middle" fill="#e1ed5e" style="dominant-baseline: central; font-size:9.5px; font-family:Arial;" text-anchor="middle" x="105.0" y="100.0">2019</text><line stroke="#e1ed5e" stroke-width="0.3" x1="105.0" x2="105.0" y1="10.0" y2="5.0" /><path d="M 105.0 9.0 a91.0,91.0 0 0,1 44.93357506455793,11.867365569458398" fill="none" id="id13" stroke="none" /><text fill="#e1ed5e" style="font-size:7.125px; font-family:Arial;" text-anchor="middle"><textPath startOffset="23.497391628219546" xlink:href="#id13">January</textPath></text><path d="M 109.18804429401219 78.14770526943698 l 5.333216586175483 -27.82755207953747 a50.584005256836306,50.584005256836306 0 0,0 0.8537462193673475,0.17125345997765518 l -5.811431977478238 27.731626570858964" fill="red" stroke="none" /><line stroke="#e1ed5e" stroke-width="0.3" x1="150.7803849466894" x2="153.32373966594992" y1="22.513508569990506" y2="18.208703490545545" /><path d="M 151.2890558905415 21.652547554101517 a91.0,91.0 0 0,1 30.207219022196004,29.05932076620417" fill="none" id="id14" stroke="none" /><text fill="#e1ed5e" style="font-size:7.125px; font-family:Arial;" text-anchor="middle"><textPath startOffset="21.14765246539759" xlink:href="#id14">February</textPath></text><path d="M 117.92280608434707 81.88747441944216 l 18.96033828841462 -26.574693609378844 a54.89519518158043,54.89519518158043 0 0,0 0.7644931876441013,0.5554368131938188 l -19.414968775528806 26.2443852259626" fill="red" stroke="none" /><path d="M 119.13836869480645 82.81951599489359 l 40.4135052526396 -49.10917203894318 a85.85001717889428,85.85001717889428 0 0,0 1.1329850101457546,0.9488423630924803 l -41.25285122456347 48.406243925754865" fill="red" stroke="none" /><path d="M 119.43200773302834 83.06543024479777 l 22.932786744086407 -26.909414406017486 a57.60575330161311,57.60575330161311 0 0,0 0.7491661171569134,0.6496694743929684 l -23.392590338380963 26.510677260025105" fill="red" stroke="none" /><path d="M 119.72137025589069 83.31636257319835 l 23.725460714134034 -26.887917188282817 a58.10885632339481,58.10885632339481 0 0,0 0.7443163749693562,0.6682545905420155 l -24.184776825961045 26.475538647973334" fill="red" stroke="none" /><path d="M 120.83435984576948 84.36876369973626 l 26.540485242725815 -26.200023265452664 a59.54394824940915,59.54394824940915 0 0,0 0.7137780787899516,0.7356110530575154 l -26.987543315201204 25.739290624252767" fill="red" stroke="none" /><path d="M 121.10107985208404 84.64364211159388 l 26.82353168695049 -25.582865012777262 a59.317301418134285,59.317301418134285 0 0,0 0.6983416801471712,0.7449422139154639 l -27.259924458233034 25.117351630979098" fill="red" stroke="none" /><path d="M 122.83028421188655 86.69047465446836 l 45.905075728126796 -34.26612619471016 a79.53388413853287,79.53388413853287 0 0,0 0.8094935529720926,1.104148296526782 l -46.48810943007166 33.47086888048382" fill="red" stroke="none" /><path d="M 123.49354643663922 87.62861203438075 l 26.12452517747432 -17.476184867809284 a53.6810014680146,53.6810014680146 0 0,0 0.5071662527909652,0.772448997677237 l -26.421478341537373 17.023904826155704" fill="red" stroke="none" /><line stroke="#e1ed5e" stroke-width="0.3" x1="181.4835382374775" x2="185.73262369511514" y1="52.563006222186495" y2="49.927617678974634" /><path d="M 182.33335532900503 52.03592851354413 a91.0,91.0 0 0,1 13.598395693806166,44.44034392526798" fill="none" id="id15" stroke="none" /><text fill="#e1ed5e" style="font-size:7.125px; font-family:Arial;" text-anchor="middle"><textPath startOffset="23.497391628219546" xlink:href="#id15">March</textPath></text><path d="M 123.90843028648749 88.27252098270722 l 25.625589167077166 -15.89362811768809 a52.40424074492986,52.40424074492986 0 0,0 0.4688537589894135,0.77067230298328 l -25.89537514091746 15.450170912140164" fill="red" stroke="none" /><path d="M 124.10749807163661 88.59973608014258 l 57.322494214909845 -34.20079175957228 a89.0,89.0 0 0,0 0.7736232843876605,1.322372966690634 l -57.90271167820059 33.20901203455431" fill="red" stroke="none" /><path d="M 124.4885904394594 89.2642027458129 l 27.530681944219356 -15.16599266328712 a53.68160482343599,53.68160482343599 0 0,0 0.4388903223399501,0.8131971114079523 l -27.78766060977887 14.68985022430073" fill="red" stroke="none" /><path d="M 125.18105733485865 90.630505624787 l 34.79996718843287 -16.15664092418091 a60.61762648729945,60.61762648729945 0 0,0 0.4312444261135136,0.950189929326257 l -35.072921212281365 15.555222914057705" fill="red" stroke="none" /><path d="M 126.9685250932662 96.47205368145525 l 55.918937103192036 -8.98007524185644 a78.88540657662969,78.88540657662969 0 0,0 0.2037651619250883,1.3425578252285206 l -56.06522934268971 8.01619216659345" fill="red" stroke="none" /><line stroke="#e1ed5e" stroke-width="0.3" x1="194.97916517819016" x2="199.97800768808963" y1="98.06355123074" y2="97.95597074355888" /><path d="M 195.9789336801701 98.04203513330377 a91.0,91.0 0 0,1 -10.165717320886186,43.793644156837686" fill="none" id="id16" stroke="none" /><text fill="#e1ed5e" style="font-size:7.125px; font-family:Arial;" text-anchor="middle"><textPath startOffset="22.714145240612222" xlink:href="#id16">April</textPath></text><line stroke="#e1ed5e" stroke-width="0.3" x1="184.2010983576182" x2="188.60115937748589" y1="142.7455964860345" y2="145.12035184636974" /><path d="M 185.08111056159174 143.22054755810154 a91.0,91.0 0 0,1 -31.78467617885582,33.90567642514608" fill="none" id="id17" stroke="none" /><text fill="#e1ed5e" style="font-size:7.125px; font-family:Arial;" text-anchor="middle"><textPath startOffset="23.497391628219564" xlink:href="#id17">May</textPath></text><path d="M 124.39546559128242 110.90313782804657 l 20.7998129610825 11.692590025485291 a46.11103268343794,46.11103268343794 0 0,0 -0.39490367540327137,0.6885478445954638 l -20.59546252785111 -12.048892230573493" fill="red" stroke="none" /><line stroke="#e1ed5e" stroke-width="0.3" x1="151.44561519142675" x2="154.02592714650604" y1="177.08958963109032" y2="181.37234461059535" /><path d="M 151.9616775824426 177.94614062699134 a91.0,91.0 0 0,1 -43.04665437903033,12.969603847311603" fill="none" id="id18" stroke="none" /><text fill="#e1ed5e" style="font-size:7.125px; font-family:Arial;" text-anchor="middle"><textPath startOffset="22.714145240612233" xlink:href="#id18">June</textPath></text><path d="M 108.622456037882 121.95313900683936 l 7.070132598014999 42.847063455809234 a65.67646222914846,65.67646222914846 0 0,0 -1.11701318634865,0.17445448717122744 l -6.331543318081135 -42.962415911479184" fill="red" stroke="none" /><path d="M 106.3397454213889 122.20962814199885 l 0.4215379881480396 6.988045501053888 a29.25074811718372,29.25074811718372 0 0,0 -0.5028509084826318,0.025991648200800348 l -0.30118781670350675 -6.994266230228926" fill="red" stroke="none" /><line stroke="#e1ed5e" stroke-width="0.3" x1="107.32365962044197" x2="107.45275182157765" y1="189.96999836594603" y2="194.96833160849857" /><path d="M 107.34947806066911 190.96966501445652 a91.0,91.0 0 0,1 -45.22499325899069,-10.70329474347383" fill="none" id="id19" stroke="none" /><text fill="#e1ed5e" style="font-size:7.125px; font-family:Arial;" text-anchor="middle"><textPath startOffset="23.497391628219546" xlink:href="#id19">July</textPath></text><path d="M 97.31012604307618 120.87889696623424 l -18.72903564361573 50.85149739390655 a76.440880813494,76.440880813494 0 0,0 -1.2308065787788691,-0.46538573216169027 l 19.60158567058109 -50.52157363484616" fill="red" stroke="none" /><path d="M 96.24261634439362 120.45411282623908 l -17.322325751389624 40.45875106830143 a66.26106119425023,66.26106119425023 0 0,0 -1.044650830316874,-0.45794422455291167 l 18.016190153665296 -40.154581305138926" fill="red" stroke="none" /><path d="M 95.54374243567743 120.14054847508359 l -19.340699544906986 41.19307179151815 a67.75749193822412,67.75749193822412 0 0,0 -1.0514908700353793,-0.5047795166119305 l 20.046905027466433 -40.85405024385311" fill="red" stroke="none" /><line stroke="#e1ed5e" stroke-width="0.3" x1="61.23545636021788" x2="58.804092824674434" y1="178.64263932499728" y2="183.01167484305267" /><path d="M 60.74918365310919 179.51644642860833 a91.0,91.0 0 0,1 -33.49250110034344,-32.21975952245642" fill="none" id="id20" stroke="none" /><text fill="#e1ed5e" style="font-size:7.125px; font-family:Arial;" text-anchor="middle"><textPath startOffset="23.497391628219546" xlink:href="#id20">August</textPath></text><path d="M 93.19125642839698 118.85778553436549 l -18.66460795356129 29.806149294127795 a57.417799558743766,57.417799558743766 0 0,0 -0.8331546862843502,-0.5317587401363145 l 19.174906453919167 -29.480452647261497" fill="red" stroke="none" /><path d="M 91.92177813649248 118.00062812484259 l -20.671371656136643 28.451702218846744 a57.41823801807617,57.41823801807617 0 0,0 -0.7946001400065296,-0.5878261873704034 l 21.158058252896172 -28.091663109597302" fill="red" stroke="none" /><path d="M 91.30991765081596 117.53978749222918 l -22.053983575871463 28.255650726670297 a58.09354878569353,58.09354878569353 0 0,0 -0.7829973192975797,-0.6220604255709952 l 22.53709061959577 -27.871841273165295" fill="red" stroke="none" /><path d="M 90.42277105209786 116.80972623811715 l -29.08008060977233 33.53368433600686 a66.63647399172194,66.63647399172194 0 0,0 -0.8601107547998815,-0.758947737748221 l 29.652999333723237 -33.028150174238" fill="red" stroke="none" /><path d="M 87.28493128083682 113.4624975496869 l -22.98207116210343 17.46513556404439 a51.11531751376441,51.11531751376441 0 0,0 -0.5263386434121405,-0.7051166258823738 l 23.279299719037745 -17.0669493396343" fill="red" stroke="none" /><line stroke="#e1ed5e" stroke-width="0.3" x1="27.317208475507996" x2="23.001497835258448" y1="145.44649492493687" y2="147.9713001985445" /><path d="M 26.454066347458095 145.95145597965842 a91.0,91.0 0 0,1 -12.412777890007606,-43.210508238589746" fill="none" id="id21" stroke="none" /><text fill="#e1ed5e" style="font-size:7.125px; font-family:Arial;" text-anchor="middle"><textPath startOffset="22.71414524061225" xlink:href="#id21">September</textPath></text><path d="M 83.89895484472919 107.0575061711076 l -36.762948003746686 12.295823761115514 a61.01469563779129,61.01469563779129 0 0,0 -0.32456258593458753,-0.9989009275139127 l 36.96915356992468 -11.661188284815596" fill="red" stroke="none" /><path d="M 83.78059782497259 106.69324071989361 l -49.17990970466577 15.51282979231882 a73.81851177535117,73.81851177535117 0 0,0 -0.3718105828225292,-1.2150984974803785 l 49.43965103454836 -14.663980097729723" fill="red" stroke="none" /><path d="M 83.06265366330477 103.71689866742216 l -28.471495558048353 4.823995677280631 a51.12727469146611,51.12727469146611 0 0,0 -0.13954884236205795,-0.8689707745983212 l 28.550314354436065 -4.333190956935928" fill="red" stroke="none" /><path d="M 83.00192361733043 103.33873261316855 l -41.60800262116908 6.315006498911017 a64.33450058162151,64.33450058162151 0 0,0 -0.15674932260151558,-1.0963043971910862 l 41.7105404025858 -5.597857494502602" fill="red" stroke="none" /><path d="M 82.94771207614563 102.95957722038587 l -21.87642549401928 2.935975204891658 a44.32256085729781,44.32256085729781 0 0,0 -0.09497373070919651,-0.7570340792394561 l 21.923722252382877 -2.5589735050381615" fill="red" stroke="none" /><path d="M 82.90003510380004 102.57954484099992 l -31.419662346695503 3.667355504547139 a53.882968219518816,53.882968219518816 0 0,0 -0.09960061021779451,-0.9221779507552599 l 31.478134681122746 -3.1259743079853837" fill="red" stroke="none" /><path d="M 82.85890682800948 102.1987480868064 l -21.40236817395608 2.125388105730174 a43.757641387505686,43.757641387505686 0 0,0 -0.06798146267763477,-0.75016977584379 l 21.435782244593952 -1.7566666205908794" fill="red" stroke="none" /><path d="M 82.79634317074502 101.43531300024729 l -19.887537903836368 1.2855919146920451 a42.17904690264062,42.17904690264062 0 0,0 -0.04059964066611063,-0.7249338573893884 l 19.90672070199046 -0.9430701673758239" fill="red" stroke="none" /><path d="M 82.7600952547063 100.67017678284371 l -15.473121095104602 0.466266678514563 a37.73014473573371,37.73014473573371 0 0,0 -0.013974414316196797,-0.649336121866982 l 15.478854599646581 -0.19985325182232547" fill="red" stroke="none" /><line stroke="#e1ed5e" stroke-width="0.3" x1="15.007500721073583" x2="10.007917427799896" y1="101.16192664675087" y2="101.22647812712593" /><path d="M 14.007584062418857 101.17483694282589 a91.0,91.0 0 0,1 11.286270769455006,-45.08304144309669" fill="none" id="id22" stroke="none" /><text fill="#e1ed5e" style="font-size:7.125px; font-family:Arial;" text-anchor="middle"><textPath startOffset="23.497391628219546" xlink:href="#id22">October</textPath></text><path d="M 82.75185434493208 100.28725408766897 l -18.956167059368028 0.2447501269886241 a41.207747023508105,41.207747023508105 0 0,0 -0.0030527144637117,-0.7093433320751851 l 18.957571469769427 0.08158539032616945" fill="red" stroke="none" /><path d="M 82.80951934834354 98.37363335976777 l -47.66324740830502 -3.4932959212046666 a70.04108985886805,70.04108985886805 0 0,0 0.09847615866324132,-1.2016585666547412 l 47.5960542370235 4.313222804900983" fill="red" stroke="none" /><line stroke="#e1ed5e" stroke-width="0.3" x1="26.928928074336255" x2="22.591646300688268" y1="55.22380399835377" y2="52.73623755381787" /><path d="M 26.061471719606658 54.726290709446594 a91.0,91.0 0 0,1 31.307708010128266,-32.26534512966574" fill="none" id="id23" stroke="none" /><text fill="#e1ed5e" style="font-size:7.125px; font-family:Arial;" text-anchor="middle"><textPath startOffset="22.71414524061225" xlink:href="#id23">November</textPath></text><path d="M 86.09156971351251 88.27252098270722 l -51.07388029076153 -31.67729157663971 a82.34985066193167,82.34985066193167 0 0,0 0.7575104095786354,-1.1981995514350614 l 50.52104064230325 32.55175113577197" fill="red" stroke="none" /><path d="M 89.1656401542305 84.36876369973626 l -12.773337655268499 -12.609480975380453 a40.19873715123105,40.19873715123105 0 0,0 0.4903560636490286,-0.4882503188770759 l 12.554393660489817 12.827484755065383" fill="red" stroke="none" /><path d="M 90.86163130519355 82.8195159948936 l -20.357497333035575 -24.73776606509708 a54.28724032366114,54.28724032366114 0 0,0 0.7266647026806359,-0.5875789867583239 l 19.928661172352072 25.084521750147164" fill="red" stroke="none" /><path d="M 91.15945984719069 82.57869269318536 l -18.570134564041208 -23.374522771309316 a52.103278086552834,52.103278086552834 0 0,0 0.7070351440068025,-0.5518521447029283 l 18.16502921278216 23.69071392364161" fill="red" stroke="none" /><line stroke="#e1ed5e" stroke-width="0.3" x1="59.21961505331055" x2="56.67626033405003" y1="22.513508569990535" y2="18.20870349054556" /><path d="M 58.710944109458445 21.65254755410153 a91.0,91.0 0 0,1 44.72264048036054,-12.639064922131116" fill="none" id="id24" stroke="none" /><text fill="#e1ed5e" style="font-size:7.125px; font-family:Arial;" text-anchor="middle"><textPath startOffset="23.497391628219546" xlink:href="#id24">December</textPath></text><path d="M 98.21550275139757 78.80959893999866 l -9.752892629488304 -30.461756964609336 a54.23495821496806,54.23495821496806 0 0,0 0.8915571850585429,-0.27701115727568354 l 9.227098561438632 30.625123740986744" fill="red" stroke="none" /><path d="M 98.58126586840643 78.69595455910039 l -9.159105157168637 -30.399450805396587 a53.99926481904424,53.99926481904424 0 0,0 0.8922987203786599,-0.26048646492051897 l 8.634471563249686 30.552605737861917" fill="red" stroke="none" /><path d="M 100.8119557059878 78.14770526943698 l -4.618946507669851 -24.10064778317083 a46.789272409938576,46.789272409938576 0 0,0 0.7923092166199973,-0.14478944502424465 l 4.203409127024169 24.176584583435737" fill="red" stroke="none" /></svg>