<?xml version="1.0" encoding="utf-8" ?>
<svg baseProfile="full" height="200mm" version="1.1" viewBox="0,0,200,200" width="200mm" xmlns="http://www.w3.org/2000/svg" xmlns:ev="http://www.w3.org/2001/xml-events" xmlns:xlink="http://www.w3.org/1999/xlink"><defs /><rect fill="#eeeeee" height="200" width="200" x="0" y="0" /><text alignment-baseline="middle" fill="#2AA198" style="dominant-baseline: central; font-size:9.0px; font-family:Arial;" text-anchor="middle" x="100.0" y="100.0">2021</text><line stroke="#2AA198" stroke-width="0.3" x1="100.0" x2="100.0" y1="15.0" y2="10.0" /><path d="M 100.0 14.0 a86.0,86.0 0 0,1 42.46469731375804,11.215312516191453" fill="none" id="id37" stroke="none" /><text fill="#2AA198" style="font-size:6.75px; font-family:Arial;" text-anchor="middle"><textPath startOffset="22.20632615414155" xlink:href="#id37">January</textPath></text><path d="M 100.0 79.0 l 0.0 -63.0 a84.0,84.0 0 0,0 1.4459219170901134,0.012445506434235476 l -1.084441437817585 62.990665870174325" fill="#4dd2ff" stroke="none" /><line stroke="#2AA198" stroke-width="0.3" x1="143.23703022742887" x2="145.7803849466894" y1="26.81831364943548" y2="22.513508569990506" /><path d="M 143.74570117128098 25.957352633546492 a86.0,86.0 0 0,1 28.547481713284135,27.462654790039103" fill="none" id="id38" stroke="none" /><text fill="#2AA198" style="font-size:6.75px; font-family:Arial;" text-anchor="middle"><textPath startOffset="19.985693538727396" xlink:href="#id38">February</textPath></text><path d="M 114.68862486808459 84.99185889309783 l 17.936765607902963 -18.32693745414858 a46.643794510975255,46.643794510975255 0 0,0 0.5689747760982766,0.5665314175901222 l -18.24957618416856 18.01547018590834" fill="#e6ff1a" stroke="none" /><path d="M 114.94478906791727 85.2469230424477 l 22.189860495239575 -21.905208435922187 a52.180571922583304,52.180571922583304 0 0,0 0.6255102234916372,0.6446432692090722 l -22.56363498243432 21.520000971163" fill="#a0ff22" stroke="none" /><path d="M 115.4437574822437 85.77008943001954 l 25.750379548349862 -23.726453781559748 a56.01466344165778,56.01466344165778 0 0,0 0.6472530620414628,0.7147129972012616 l -26.154976251007362 23.27968799708894" fill="#73ff27" stroke="none" /><line stroke="#2AA198" stroke-width="0.3" x1="172.23445277983987" x2="176.4835382374775" y1="55.19839476539836" y2="52.563006222186495" /><path d="M 173.08426987136738 54.67131705675599 a86.0,86.0 0 0,1 12.851231095245387,41.99856678651699" fill="none" id="id39" stroke="none" /><text fill="#2AA198" style="font-size:6.75px; font-family:Arial;" text-anchor="middle"><textPath startOffset="22.20632615414155" xlink:href="#id39">March</textPath></text><path d="M 119.7369772167798 92.82701384747503 l 12.578507348997388 -4.571391963561915 a34.38344020098344,34.38344020098344 0 0,0 0.19737227558993795,0.5579980015292247 l -12.655332705397136 4.354196335606075" fill="#ff6e0a" stroke="none" /><line stroke="#2AA198" stroke-width="0.3" x1="184.98032266829074" x2="189.97916517819016" y1="98.17113171792111" y2="98.06355123074" /><path d="M 185.9800911702706 98.14961562048488 a86.0,86.0 0 0,1 -9.607161424134198,41.387399972396054" fill="none" id="id40" stroke="none" /><text fill="#2AA198" style="font-size:6.75px; font-family:Arial;" text-anchor="middle"><textPath startOffset="21.466115282336823" xlink:href="#id40">April</textPath></text><path d="M 120.81339534386255 102.79330883721812 l 15.45015489931699 2.0735230126389266 a36.588674866608514,36.588674866608514 0 0,0 -0.08914734626643105,0.6234963321548785 l -15.412173502033957 -2.3391648167742147" fill="#ff8e0d" stroke="none" /><line stroke="#2AA198" stroke-width="0.3" x1="174.80103733775053" x2="179.2010983576182" y1="140.37084112569926" y2="142.7455964860345" /><path d="M 175.68104954172406 140.8457921977663 a86.0,86.0 0 0,1 -30.038265399797805,32.042727171017184" fill="none" id="id41" stroke="none" /><text fill="#2AA198" style="font-size:6.75px; font-family:Arial;" text-anchor="middle"><textPath startOffset="22.206326154141568" xlink:href="#id41">May</textPath></text><path d="M 117.75023020441432 111.22182372390056 l 13.517747701103605 8.5460177191517 a36.99262085359203,36.99262085359203 0 0,0 -0.34490358352714423,0.5352980209381829 l -13.368639254199412 -8.777437340011337" fill="#ff940d" stroke="none" /><path d="M 113.75828350139079 115.86535959552629 l 16.637184583234443 19.185163326768052 a46.39421986853267,46.39421986853267 0 0,0 -0.607840551100401,0.5180149044668988 l -16.304478555556994 -19.468702621457897" fill="#e9ff1a" stroke="none" /><path d="M 113.48314897796784 116.09983520530334 l 8.683052031475448 10.368179348478794 a34.523850619684175,34.523850619684175 0 0,0 -0.4588875231245109,0.3776331906279563 l -8.503294379806245 -10.516107657963929" fill="#ff700a" stroke="none" /><path d="M 111.1453310114006 117.79835938074945 l 5.3066282751279825 8.474335759445987 a30.998733430500724,30.998733430500724 0 0,0 -0.4546787939213296,0.2793008513696882 l -5.159970281274345 -8.564425077644053" fill="#ff3a05" stroke="none" /><line stroke="#2AA198" stroke-width="0.3" x1="143.8653032363475" x2="146.44561519142675" y1="172.8068346515853" y2="177.08958963109032" /><path d="M 144.38136562736335 173.6633856474863 a86.0,86.0 0 0,1 -40.68145358897372,12.25698825130547" fill="none" id="id42" stroke="none" /><text fill="#2AA198" style="font-size:6.75px; font-family:Arial;" text-anchor="middle"><textPath startOffset="21.466115282336833" xlink:href="#id42">June</textPath></text><path d="M 109.89434966115114 118.52300852407294 l 4.585989160783965 8.585335997376156 a30.73341105526068,30.73341105526068 0 0,0 -0.46877100749489387,0.24523883563528082 l -4.437527250762576 -8.663004251956153" fill="#ff3605" stroke="none" /><path d="M 104.83641907484287 120.43548508189849 l 3.6139578770066305 15.27017843973292 a36.69200564357732,36.69200564357732 0 0,0 -0.6158663175106854,0.1401691687768481 l -3.350571410103083 -15.330124342087451" fill="#ff900d" stroke="none" /><path d="M 102.34483914955558 120.86867818915974 l 1.741703548618164 15.500871718181083 a36.59841515266135,36.59841515266135 0 0,0 -0.6266474811806004,0.06495457363133475 l -1.474623470831961 -15.528555660268177" fill="#ff8e0d" stroke="none" /><line stroke="#2AA198" stroke-width="0.3" x1="102.19456741930631" x2="102.32365962044197" y1="184.97166512339345" y2="189.96999836594603" /><path d="M 102.22038585953345 185.97133177190398 a86.0,86.0 0 0,1 -42.740103519485714,-10.115201625700543" fill="none" id="id43" stroke="none" /><text fill="#2AA198" style="font-size:6.75px; font-family:Arial;" text-anchor="middle"><textPath startOffset="22.20632615414155" xlink:href="#id43">July</textPath></text><path d="M 95.86986931433489 120.58985236759428 l -1.9218499203799135 9.580957394553469 a30.77180902968908,30.77180902968908 0 0,0 -0.5184442277127759,-0.10864502865602196 l 2.086485609522076 -9.546456385170904" fill="#ff3705" stroke="none" /><path d="M 93.42475214034765 119.94407469862007 l -11.236696420993363 34.08320379239017 a56.887715547400965,56.887715547400965 0 0,0 -0.927351755044424,-0.3146080650411598 l 11.821717908975012 -33.88473274045089" fill="#69ff28" stroke="none" /><path d="M 93.08242187328487 119.8279376855182 l -7.471582764724893 21.415887866741798 a43.68181655271448,43.68181655271448 0 0,0 -0.7078127490023506,-0.2537964690208651 l 7.839115074356971 -21.284103856680975" fill="#fff116" stroke="none" /><path d="M 91.7346041902142 119.30500536409082 l -3.978398421784575 9.292114333122553 a31.107969270940607,31.107969270940607 0 0,0 -0.4904383561424128,-0.21499376267811518 l 4.137757452584731 -9.222256017149986" fill="#ff3c05" stroke="none" /><path d="M 91.07499286063937 119.00905698771935 l -5.120890282781127 10.906803063937732 a33.049143968091826,33.049143968091826 0 0,0 -0.5128713025065399,-0.24620939234086903 l 5.307874253287908 -10.8170393950973" fill="#ff5a08" stroke="none" /><line stroke="#2AA198" stroke-width="0.3" x1="58.666819895761336" x2="56.23545636021788" y1="174.27360380694188" y2="178.64263932499728" /><path d="M 58.180547188652646 175.14741091055294 a86.0,86.0 0 0,1 -31.652253787137756,-30.449443065178592" fill="none" id="id44" stroke="none" /><text fill="#2AA198" style="font-size:6.75px; font-family:Arial;" text-anchor="middle"><textPath startOffset="22.20632615414155" xlink:href="#id44">August</textPath></text><path d="M 86.24171649860922 115.8653595955263 l -11.282218538016467 13.010086187194068 a38.22065032853813,38.22065032853813 0 0,0 -0.49333331183017143,-0.43530928880950887 l 11.504494202753227 -12.81395375661227" fill="#ffa60f" stroke="none" /><path d="M 85.70375840098266 115.38237550388516 l -16.51760950390245 17.772508253710132 a45.26300627192771,45.26300627192771 0 0,0 -0.5661414178751957,-0.535322047366597 l 16.821086756168462 -17.485551569597604" fill="#f8ff18" stroke="none" /><path d="M 82.6465618267979 111.8261652097733 l -12.954925891319686 8.828630519322964 a36.67720707576149,36.67720707576149 0 0,0 -0.351047844020745,-0.5247688960140665 l 13.104976840751162 -8.604324709103077" fill="#ff8f0d" stroke="none" /><line stroke="#2AA198" stroke-width="0.3" x1="26.63291911575756" x2="22.317208475507996" y1="142.92168965132927" y2="145.44649492493687" /><path d="M 25.769776987707644 143.4266507060508 a86.0,86.0 0 0,1 -11.730757126820373,-40.83630448921669" fill="none" id="id45" stroke="none" /><text fill="#2AA198" style="font-size:6.75px; font-family:Arial;" text-anchor="middle"><textPath startOffset="21.46611528233685" xlink:href="#id45">September</textPath></text><path d="M 79.18660465613746 102.79330883721812 l -9.275885180286762 1.2448911683578867 a30.35904909159681,30.35904909159681 0 0,0 -0.06505292332489061,-0.5185358050415596 l 9.295939612858502 -1.0850376090289184" fill="#ff3104" stroke="none" /><line stroke="#2AA198" stroke-width="0.3" x1="15.007084014347285" x2="10.007500721073583" y1="101.09737516637583" y2="101.16192664675087" /><path d="M 14.007167355692545 101.11028546245083 a86.0,86.0 0 0,1 10.666146001902534,-42.60595125391555" fill="none" id="id46" stroke="none" /><text fill="#2AA198" style="font-size:6.75px; font-family:Arial;" text-anchor="middle"><textPath startOffset="22.20632615414155" xlink:href="#id46">October</textPath></text><path d="M 79.00175016825051 100.2711162175752 l -15.690697850717122 0.2025884388693068 a36.69200564357732,36.69200564357732 0 0,0 -0.002718183458727808,-0.6316101078976406 l 15.691860331465351 0.06753114723200916" fill="#ff900d" stroke="none" /><path d="M 79.08570108090925 98.10471618934814 l -15.627966508087392 -1.4162287739490298 a36.69200564357732,36.69200564357732 0 0,0 0.062416376479641364,-0.628524393215519 l 15.601273005925522 1.685028697868979" fill="#ff900d" stroke="none" /><path d="M 79.3925641242962 95.95851677861259 l -9.407487430444018 -1.8449749321010065 a30.586696628872915,30.586696628872915 0 0,0 0.10577273546777205,-0.515785422563271 l 9.374335399061252 2.00663601082768" fill="#ff3405" stroke="none" /><path d="M 79.81627453868168 94.20196356495316 l -15.174887377680637 -4.359182851656665 a36.78859341611749,36.78859341611749 0 0,0 0.18007859317771246,-0.6071354943312414 l 15.097602887391217 4.619747732734446" fill="#ff910d" stroke="none" /><line stroke="#2AA198" stroke-width="0.3" x1="26.266209847984243" x2="21.928928074336255" y1="57.711370442889674" y2="55.22380399835377" /><path d="M 25.398753493254645 57.213857153982495 a86.0,86.0 0 0,1 29.58750427330803,-30.492523968695096" fill="none" id="id47" stroke="none" /><text fill="#2AA198" style="font-size:6.75px; font-family:Arial;" text-anchor="middle"><textPath startOffset="21.46611528233685" xlink:href="#id47">November</textPath></text><path d="M 82.95767976084542 87.72973835380427 l -12.661671143136852 -9.116248000517706 a36.6020477420077,36.6020477420077 0 0,0 0.3725345743346662,-0.5081367407297138 l 12.502873956288552 9.33284718491892" fill="#ff8e0d" stroke="none" /><path d="M 83.84228863543731 86.58626213691792 l -13.200858400370688 -10.959030654464838 a38.157010677624974,38.157010677624974 0 0,0 0.4238869339118277,-0.5017484289301143 l 13.010260852971737 11.184638033024068" fill="#ffa50f" stroke="none" /><path d="M 84.80347519578584 85.50635884689758 l -15.294508487807832 -14.587092805184868 a42.13540315183749,42.13540315183749 0 0,0 0.5050946065044646,-0.5205443910722293 l 15.041149617600249 14.84820139180722" fill="#ffdc14" stroke="none" /><path d="M 85.05521093208273 85.24692304244772 l -11.300528318420687 -11.155564871809418 a36.879186625409254,36.879186625409254 0 0,0 0.4498632063037279,-0.44793135072980356 l 11.106829311949646 11.34843207318933" fill="#ff920d" stroke="none" /><line stroke="#2AA198" stroke-width="0.3" x1="56.762969772571076" x2="54.21961505331055" y1="26.818313649435495" y2="22.513508569990535" /><path d="M 56.25429882871897 25.957352633546506 a86.0,86.0 0 0,1 42.265352541879196,-11.944610805530505" fill="none" id="id48" stroke="none" /><text fill="#2AA198" style="font-size:6.75px; font-family:Arial;" text-anchor="middle"><textPath startOffset="22.20632615414155" xlink:href="#id48">December</textPath></text><path d="M 89.3179101791058 81.91981866633112 l -10.751921596908538 -18.1983764803453 a42.13728280897176,42.13728280897176 0 0,0 0.6276514165561552,-0.36357621256502465 l 10.437073447887064 18.38075685030037" fill="#ffdc14" stroke="none" /><path d="M 93.59665428221793 80.00007090966166 l -2.5683954395652284 -8.022013636497071 a29.423144182437127,29.423144182437127 0 0,0 0.48368094060088207,-0.15028202268286756 l 2.429929126253618 8.065035794062464" fill="#ff2203" stroke="none" /><path d="M 95.33964822691252 79.52364482259891 l -1.391572804240577 -6.1142034726628784 a27.270562891369863,27.270562891369863 0 0,0 0.45860941435791724,-0.10023425497816503 l 1.2861206657291389 6.137251225736911" fill="#ff0000" stroke="none" /><path d="M 96.04723909329186 79.375362276772 l -3.329467503590359 -17.372429725328136 a38.68860278311797,38.68860278311797 0 0,0 0.6551359955899492,-0.11972191567016616 l 3.0299363868975164 17.42716712234904" fill="#ffac0f" stroke="none" /></svg>