<?xml version="1.0" encoding="utf-8" ?>
<svg baseProfile="full" height="200mm" version="1.1" viewBox="0,0,200,200" width="200mm" xmlns="http://www.w3.org/2000/svg" xmlns:ev="http://www.w3.org/2001/xml-events" xmlns:xlink="http://www.w3.org/1999/xlink"><defs /><rect fill="#1a1a1a" height="200" width="200" x="0" y="0" /><text alignment-baseline="middle" fill="#e1ed5e" style="dominant-baseline: central; font-size:9.5px; font-family:Arial;" text-anchor="middle" x="105.0" y="100.0">2024</text><line stroke="#e1ed5e" stroke-width="0.3" x1="105.0" x2="105.0" y1="10.0" y2="5.0" /><path d="M 105.0 9.0 a91.0,91.0 0 0,1 44.82187418380166,11.804043066255872" fill="none" id="id73" stroke="none" /><text fill="#e1ed5e" style="font-size:7.125px; font-family:Arial;" text-anchor="middle"><textPath startOffset="23.43319110464518" xlink:href="#id73">January</textPath></text><path d="M 105.0 77.75 l 0.0 -39.46522854580768 a61.71522854580768,61.71522854580768 0 0,0 1.059423964104464,0.00909388056101358 l -0.6774731270622252 39.45941325380982" fill="#48ff2c" stroke="none" /><path d="M 105.38195083704224 77.75327858856315 l 0.24009955565750665 -13.984595418314612 a36.23665638423183,36.23665638423183 0 0,0 0.6218670715938391,0.016017089849892023 l -0.4801283528739169 13.978413127939078" fill="#ff980e" stroke="none" /><path d="M 105.76378911141967 77.76311338803751 l 0.47358800403783 -13.78799800772295 a36.04612897368463,36.04612897368463 0 0,0 0.6182327183990962,0.026549573019720975 l -0.7102075402163837 13.77783654672824" fill="#ff960d" stroke="none" /><path d="M 106.14540229364022 77.77950150006252 l 0.5511326221419282 -10.691825633289794 a32.95602085463417,32.95602085463417 0 0,0 0.5647338207514505,0.03397298429862104 l -0.7345908159861066 10.680789243915012" fill="#ff6d0a" stroke="none" /><path d="M 106.52667792054748 77.80243809498636 l 1.1597559750103483 -16.86259734520146 a39.1524324624584,39.1524324624584 0 0,0 0.6701237217607716,0.051871814222902046 l -1.449053988854403 16.84020384928142" fill="#ffbd11" stroke="none" /><path d="M 106.9075036284642 77.83191641328922 l 2.993940878471319 -34.79413127043924 a57.17270397389554,57.17270397389554 0 0,0 0.9771099246995483,0.09253332576640556 l -3.5907872453287975 34.73760929895901" fill="#75ff27" stroke="none" /><path d="M 107.28776718630627 77.8679277675754 l 2.900994514106958 -28.064490353909395 a50.464028212851,50.464028212851 0 0,0 0.8609261699651916,0.09646857306474618 l -3.382331341720613 28.01055555840274" fill="#bdff1f" stroke="none" /><path d="M 107.6673565286578 77.91046154513349 l 1.5923049968245209 -13.186569579781784 a35.53235869434863,35.53235869434863 0 0,0 0.6049336320838661,0.07832076986649252 l -1.8184353687688686 13.157292475845823" fill="#ff8f0d" stroke="none" /><path d="M 108.04615978879733 77.95950521106401 l 2.0842692479683937 -15.080734000734788 a37.47408343050395,37.47408343050395 0 0,0 0.6364792738106625,0.09354053488262627 l -2.342842978911005 15.042732566761678" fill="#ffa80f" stroke="none" /><path d="M 108.42406533166537 78.01504431197353 l 3.274517051614359 -21.02474845140138 a43.52821678068954,43.52821678068954 0 0,0 0.7373317124225771,0.12132765269151215 l -3.6349523089384035 20.96543896697041" fill="#fff216" stroke="none" /><path d="M 108.8009617867639 78.07706248023408 l 2.457500283196496 -14.174208578190651 a36.63566983007619,36.63566983007619 0 0,0 0.6187333143723617,0.11275382096978039 l -2.700457303355093 14.129933715793591" fill="#ff9d0e" stroke="none" /><path d="M 109.17673808097767 78.14554143880679 l 2.6768047667943993 -14.006173649897432 a36.50966984437628,36.50966984437628 0 0,0 0.6145855524805456,0.12293432296836497 l -2.916844928944649 13.95815889475056" fill="#ff9b0e" stroke="none" /><path d="M 109.55128347130797 78.22046100662828 l 0.7934433231649048 -3.7969135310603352 a26.12893086680132,26.12893086680132 0 0,0 0.4382662602308481,0.09551809157948596 l -0.8585054771945975 3.7827335374106" fill="#ff1101" stroke="none" /><path d="M 110.29624041461805 78.38953176188525 l 3.528395587064425 -14.397058063169304 a37.0731189799274,37.0731189799274 0 0,0 0.6168167397719904,0.15679240320694238 l -3.7750203160871307 14.334367021470232" fill="#ffa30f" stroke="none" /><path d="M 110.66643242536733 78.48363312339312 l 3.4363019424959504 -13.048198185959418 a35.74309626957712,35.74309626957712 0 0,0 0.5920054128924154,0.16135370781496527 l -3.659785268283457 12.987286811729826" fill="#ff920d" stroke="none" /><path d="M 111.03495451247225 78.5840754569785 l 2.5863379163991946 -9.178000852515177 a31.78545192775746,31.78545192775746 0 0,0 0.5239150446056702,0.1525040338650388 l -2.7435094026948983 9.132250523496284" fill="#ff5e08" stroke="none" /><path d="M 111.76655501928727 78.80386277712473 l 3.742352825443912 -11.72286692392539 a34.55572279820133,34.55572279820133 0 0,0 0.5635499686919756,0.18525006823374587 l -3.9430399804531384 11.656897069920454" fill="#ff820c" stroke="none" /><path d="M 114.2587744858103 79.76790680574776 l 4.093645202514061 -8.945353552827097 a32.08754447152046,32.08754447152046 0 0,0 0.49890216257625825,0.23351140313265945 l -4.246600883358938 8.87376257100661" fill="#ff6209" stroke="none" /><path d="M 114.60472096754168 79.92982722705992 l 6.052467338832305 -12.64732891288067 a36.27095893718469,36.27095893718469 0 0,0 0.5593323000592233,0.2735974564579575 l -6.268683712514433 12.541566649772086" fill="#ff980e" stroke="none" /><path d="M 115.95919451197348 80.63615338707905 l 7.497701489580837 -13.247720116208445 a37.472273677222354,37.472273677222354 0 0,0 0.5571012423059706,0.3216425522112271 l -7.724011418072229 13.117060018073655" fill="#ffa80f" stroke="none" /><line stroke="#e1ed5e" stroke-width="0.3" x1="150.6673583964461" x2="153.20443386291532" y1="22.446841604673864" y2="18.138332804933526" /><path d="M 151.17477348973995 21.585139844725788 a91.0,91.0 0 0,1 31.02518551117971,30.236376054419345" fill="none" id="id74" stroke="none" /><text fill="#e1ed5e" style="font-size:7.125px; font-family:Arial;" text-anchor="middle"><textPath startOffset="21.870978364335496" xlink:href="#id74">February</textPath></text><path d="M 116.28998582578807 80.82713584115548 l 7.883823810291746 -13.388456398388499 a37.78722763569077,37.78722763569077 0 0,0 0.5561330610809375,0.33394192417839696 l -8.112492768201394 13.251147259356566" fill="#ffac0f" stroke="none" /><path d="M 116.94149031631311 81.22599379393412 l 22.789809397879896 -35.82936566019464 a64.7131470336765,64.7131470336765 0 0,0 0.9322217504548557,0.6042548758611729 l -23.40150997298801 35.43286873776624" fill="#30ff34" stroke="none" /><path d="M 117.26201149165985 81.4337517473669 l 29.940119142948973 -45.33315639929782 a76.57776273156458,76.57776273156458 0 0,0 1.090699670582767,0.733871414747809 l -30.71391130925356 44.81251449656092" fill="#3effb6" stroke="none" /><path d="M 117.89211943505154 81.86561949025095 l 31.32511141452068 -44.06269215570064 a76.31277319135762,76.31277319135762 0 0,0 1.0611799487095621,0.768212447001643 l -32.07689029088838 43.51846222474419" fill="#3effb3" stroke="none" /><path d="M 123.02305319851875 86.95269938250202 l 7.963360725723811 -5.764859048556469 a32.081007776302684,32.081007776302684 0 0,0 0.31910657849583585,0.4488633654660582 l -8.061148777662105 5.627307907172007" fill="#ff6209" stroke="none" /><path d="M 123.24437172507629 87.26401160658362 l 12.48236878647818 -8.713662842575316 a37.472925167513715,37.472925167513715 0 0,0 0.3636841305090763,0.5306260152446646 l -12.630111090517778 8.49810240564929" fill="#ffa80f" stroke="none" /><path d="M 123.46031355154577 87.57907718490226 l 11.165572593784322 -7.512695544770574 a35.707734047583315,35.707734047583315 0 0,0 0.3378216236558652,0.5115049952585976 l -11.292892730106193 7.319916630795593" fill="#ff910d" stroke="none" /><path d="M 123.67081503887977 87.89780326618587 l 11.551944002491679 -7.487830535787184 a36.01644530622813,36.01644530622813 0 0,0 0.331835475108519,0.5217004832780061 l -11.6787803651562 7.288422706718681" fill="#ff950d" stroke="none" /><path d="M 123.87581415132377 88.22009592039538 l 5.820229752135111 -3.632253827663606 a29.11063715963872,29.11063715963872 0 0,0 0.2609311661218572,0.42621145012162964 l -5.881724594882335 3.531806623552865" fill="#ff3a05" stroke="none" /><line stroke="#e1ed5e" stroke-width="0.3" x1="182.1583165268699" x2="186.44488966725157" y1="53.66864786411523" y2="51.09468385656608" /><path d="M 183.01563115494622 53.1538550626054 a91.0,91.0 0 0,1 12.954199388856248,44.50308479479063" fill="none" id="id75" stroke="none" /><text fill="#e1ed5e" style="font-size:7.125px; font-family:Arial;" text-anchor="middle"><textPath startOffset="23.433191104645175" xlink:href="#id75">March</textPath></text><path d="M 124.0752504746984 88.54586016640627 l 12.420175395301507 -7.4579584642540935 a36.737301381023045,36.737301381023045 0 0,0 0.32001039245119556,0.5434476073363012 l -12.546371028247338 7.243650690511524" fill="#ff9e0e" stroke="none" /><path d="M 124.26906523420377 88.875 l 8.52427508200208 -4.921492513240321 a32.09298502648064,32.09298502648064 0 0,0 0.2713639694081683,0.47947413235088937 l -8.607502973873373 4.774436803046319" fill="#ff6209" stroke="none" /><path d="M 124.45720131174063 89.20741842215688 l 13.459617680852062 -7.465823038975392 a37.641550336597064,37.641550336597064 0 0,0 0.30857942562540003,0.5677513871256923 l -13.585795155474669 7.233670697334942" fill="#ffaa0f" stroke="none" /><path d="M 124.63960326274344 89.54301746764213 l 17.937444767533982 -9.550679008117367 a42.57159920637217,42.57159920637217 0 0,0 0.33792105135880446,0.6480081725412584 l -18.09875174911624 9.241351601810628" fill="#ffe615" stroke="none" /><path d="M 124.81621733251998 89.88169823387665 l 12.320033460332526 -6.290696868559679 a36.083151902434224,36.083151902434224 0 0,0 0.2769469312013536,0.5540793817971144 l -12.426206251960602 6.078280162970019" fill="#ff960d" stroke="none" /><path d="M 124.98699147209325 90.2233609100841 l 7.263179468656823 -3.552785040684665 a30.335546211557432,30.335546211557432 0 0,0 0.22480191483971185,0.4697495414773709 l -7.323097502049298 3.4275793958287917" fill="#ff4a06" stroke="none" /><path d="M 125.31082038482502 90.91522838507338 l 15.470825352536824 -6.9199033992355705 a39.19790547954077,39.19790547954077 0 0,0 0.26946902129271566,0.6165978554873044 l -15.587335034537997 6.6533064460095686" fill="#ffbd11" stroke="none" /><path d="M 125.46377972411656 91.26522928733468 l 26.092853667572264 -11.137487653699395 a50.62041846278701,50.62041846278701 0 0,0 0.33427351331127625,0.8021347439473353 l -26.28019861140434 10.687927989034515" fill="#bbff1f" stroke="none" /><path d="M 125.7515627927388 91.97284971742657 l 25.69771450146339 -9.940428018948658 a49.80330542418861,49.80330542418861 0 0,0 0.3015929664083155,0.8000111747979607 l -25.864568549532244 9.497827832992602" fill="#c4ff1e" stroke="none" /><path d="M 125.88630171107826 92.33026070626848 l 12.758053517947992 -4.684933969245237 a35.841046165141705,35.841046165141705 0 0,0 0.20712682228803703,0.579370585704924 l -12.836596710877826 4.4652346797557705" fill="#ff930d" stroke="none" /><path d="M 126.01488534043646 92.68993200248393 l 25.508835696448976 -8.873297210891867 a49.258074755177404,49.258074755177404 0 0,0 0.2709536066429166,0.8010261927390312 l -25.65739885690071 8.434096624959974" fill="#caff1d" stroke="none" /><path d="M 126.13727578662764 93.05175760929107 l 18.376192131567148 -6.040619351200597 a41.59356532292766,41.59356532292766 0 0,0 0.21714868361982828,0.6802151586225458 l -18.47717962118907 5.724277478309796" fill="#ffdb14" stroke="none" /><path d="M 126.36333468919314 93.78144462455168 l 33.5803674184898 -9.774755550003787 a57.224089295121054,57.224089295121054 0 0,0 0.2664503686159859,0.9455383593939721 l -33.74321595132766 9.196863556950671" fill="#75ff27" stroke="none" /><path d="M 126.65513231483351 94.88944773756755 l 15.95048951282177 -3.7642720940947103 a38.63865034397334,38.63865034397334 0 0,0 0.1468068867390576,0.6468582306607646 l -16.012757907639784 3.489906057236644" fill="#ffb610" stroke="none" /><path d="M 126.73967080675456 95.26193993137025 l 17.07240776322183 -3.720851811295746 a39.7231750130118,39.7231750130118 0 0,0 0.13948942184684776,0.6675073792763121 l -17.133765473918306 3.427232953871803" fill="#ffc412" stroke="none" /><path d="M 126.81780251790494 95.63582845322262 l 16.83968222456349 -3.3684080677190904 a39.423266152219114,39.423266152219114 0 0,0 0.12704374242228633,0.6647465439290352 l -16.895024062379967 3.078836187028567" fill="#ffc011" stroke="none" /><path d="M 126.88950442251074 96.01100311646113 l 16.896851874822897 -3.079169275343305 a39.425124066682145,39.425124066682145 0 0,0 0.11561921243037737,0.6668608926883578 l -16.947220120072426 2.788658621584319" fill="#ffc011" stroke="none" /><path d="M 127.01353618968795 96.7647682578679 l 42.76422918957817 -6.284869023757535 a65.47359166964907,65.47359166964907 0 0,0 0.1538800366534352,1.1133992899697696 l -42.86581591639129 5.549838073909104" fill="#31ff3d" stroke="none" /><path d="M 127.06582949952826 97.14313659798924 l 12.143635335512712 -1.5722367182313544 a34.49499111719024,34.49499111719024 0 0,0 0.07099055002744743,0.5879035921577662 l -12.168835476934326 1.363543396952353" fill="#ff820b" stroke="none" /><path d="M 127.20984838557864 98.66391067304241 l 21.448805918538262 -1.2903069019756066 a43.737581698097344,43.737581698097344 0 0,0 0.03865238082523733,0.7498458619430817 l -21.467795221525822 0.9219194970500365" fill="#fff417" stroke="none" /><path d="M 127.24262340219346 99.4271089211765 l 26.82025900383624 -0.690794733930447 a49.079153739864495,49.079153739864495 0 0,0 0.014463319047558924,0.8424158251029756 l -26.828165387315718 0.23028753357453205" fill="#ccff1d" stroke="none" /><line stroke="#e1ed5e" stroke-width="0.3" x1="194.99668451229388" x2="199.99650031853244" y1="99.22748670261217" y2="99.18456929720173" /><path d="M 195.9966476735416 99.21890322153008 a91.0,91.0 0 0,1 -10.672877025916787,43.54898039395605" fill="none" id="id76" stroke="none" /><text fill="#e1ed5e" style="font-size:7.125px; font-family:Arial;" text-anchor="middle"><textPath startOffset="22.65208473449034" xlink:href="#id76">April</textPath></text><path d="M 127.24918033776154 100.19098245407643 l 27.14138253136939 0.23297612604949097 a49.39238242287203,49.39238242287203 0 0,0 -0.014555625577555912,0.8477922177123463 l -27.133383841359915 -0.6988597190147816" fill="#c9ff1d" stroke="none" /><path d="M 127.15089392086185 102.0977126845032 l 28.08034050714681 2.6592374410467507 a50.45597572794061,50.45597572794061 0 0,0 -0.08906106215418504,0.8615849866591276 l -28.030553457720384 -3.1408819810770794" fill="#bdff1f" stroke="none" /><path d="M 126.95475538969158 103.6126466446095 l 32.188795711631315 5.296654085075589 a54.871666325650544,54.871666325650544 0 0,0 -0.16091817072240042,0.9281332463870396 l -32.09312850808976 -5.848437092533253" fill="#8dff24" stroke="none" /><path d="M 126.81780251790494 104.36417154677738 l 13.230126081586564 2.6463957476081226 a35.74220688351744,35.74220688351744 0 0,0 -0.1255101026561778,0.6006112763784149 l -13.182747690080761 -2.873118502134173" fill="#ff920d" stroke="none" /><path d="M 126.73967080675456 104.73806006862975 l 54.710789477396595 11.923961924277169 a78.24510115368685,78.24510115368685 0 0,0 -0.2972909146850523,1.3099186239573766 l -54.49803705463259 -12.861388354431837" fill="#40ffc7" stroke="none" /><path d="M 126.65513231483351 105.11055226243245 l 15.331385391251853 3.6181652071373365 a38.002539397863124,38.002539397863124 0 0,0 -0.15529009068535957,0.6336365628696662 l -15.267015659376609 -3.8808156794132036" fill="#ffae10" stroke="none" /><path d="M 126.5642119560234 105.48153835302625 l 24.85267664768269 6.317453218204899 a47.89304489951378,47.89304489951378 0 0,0 -0.20938501514603453,0.7950690074723421 l -24.740567063588784 -6.743151569596045" fill="#d9ff1c" stroke="none" /><path d="M 126.46693652497126 105.85090900910745 l 28.054537374099443 7.646388914297113 a51.32790107114728,51.32790107114728 0 0,0 -0.2389961697801703,0.8481130930656375 l -27.919143040097396 -8.12685564102189" fill="#b3ff20" stroke="none" /><path d="M 126.13727578662764 106.94824239070893 l 59.21745324910361 19.465953091057827 a84.5848225236347,84.5848225236347 0 0,0 -0.4652752435806662,1.375503583653408 l -58.87456845171413 -20.479631067904094" fill="#48faff" stroke="none" /><path d="M 126.01488534043646 107.31006799751607 l 53.10023052401816 18.471016592579197 a78.47110756350506,78.47110756350506 0 0,0 -0.45348763192240066,1.2684856167563165 l -52.77532652145396 -19.379830913120063" fill="#40ffc9" stroke="none" /><path d="M 125.88630171107826 107.66973929373152 l 9.291208925442763 3.411860614076064 a32.14784603568427,32.14784603568427 0 0,0 -0.19467712367602924,0.5164041995843222 l -9.231270720106195 -3.5708538248184833" fill="#ff6309" stroke="none" /><path d="M 125.61070829359576 108.38219563338286 l 21.16550774074826 8.607827738649714 a45.09892593322369,45.09892593322369 0 0,0 -0.29781216505244695,0.7146407814139297 l -21.014624145175013 -8.969893440781188" fill="#faff18" stroke="none" /><path d="M 125.46377972411656 108.73477071266532 l 11.261039779362148 4.806668258992807 a34.49398124240582,34.49398124240582 0 0,0 -0.23713153170217774,0.5426033508955799 l -11.17686758695152 -4.999270707627079" fill="#ff810b" stroke="none" /><path d="M 125.310820384825 109.08477161492662 l 13.624480770523625 6.094056952256047 a37.175280781402684,37.175280781402684 0 0,0 -0.26556522098027013,0.5803079347336347 l -13.517860580827879 -6.3270413086219115" fill="#ffa40f" stroke="none" /><path d="M 125.15187535354049 109.4320951932944 l 28.198006773326256 13.19809097074659 a53.383859241357406,53.383859241357406 0 0,0 -0.3956017041954119,0.8266554103240817 l -27.96728895057808 -13.680202484449174" fill="#9dff22" stroke="none" /><path d="M 124.98699147209325 109.7766390899159 l 9.282487832156766 4.540529950104993 a32.58348888720256,32.58348888720256 0 0,0 -0.25008616984304116,0.5003398657697823 l -9.203175801887008 -4.699207139667315" fill="#ff6809" stroke="none" /><path d="M 124.81621733251997 110.11830176612335 l 5.704445503443777 2.912730519841831 a28.655052504310795,28.655052504310795 0 0,0 -0.22745552550322776,0.4361759612876509 l -5.653604047717091 -3.0102257148949674" fill="#ff3404" stroke="none" /><path d="M 124.63960326274344 110.45698253235787 l 8.946258680098767 4.763378847128494 a32.38535013763776,32.38535013763776 0 0,0 -0.26548993478713634,0.4884715772537786 l -8.863170696314427 -4.91625137889703" fill="#ff6609" stroke="none" /><line stroke="#e1ed5e" stroke-width="0.3" x1="183.70328620479359" x2="188.07569099394877" y1="143.65538615756765" y2="146.08068538854363" /><path d="M 184.5777671626246 144.14044600376286 a91.0,91.0 0 0,1 -32.063702284633536,33.470208153833674" fill="none" id="id77" stroke="none" /><text fill="#e1ed5e" style="font-size:7.125px; font-family:Arial;" text-anchor="middle"><textPath startOffset="23.433191104645175" xlink:href="#id77">May</textPath></text><path d="M 124.45720131174063 110.79258157784311 l 20.813754310735163 11.545038658989817 a46.05126648195881,46.05126648195881 0 0,0 -0.38938897265262934,0.6880130041464652 l -20.61250141561941 -11.900633240979401" fill="#efff19" stroke="none" /><path d="M 124.26906523420377 111.125 l 21.680922691944374 12.517486552473544 a47.2849731049471,47.2849731049471 0 0,0 -0.41188879508103815,0.6994772215391786 l -21.462848656368703 -12.887823940418983" fill="#e0ff1b" stroke="none" /><path d="M 124.0752504746984 111.45413983359373 l 13.986141193250088 8.398275932070298 a38.563895430237324,38.563895430237324 0 0,0 -0.34566478739821377,0.564617452497704 l -13.839912729226505 -8.637129138557116" fill="#ffb510" stroke="none" /><path d="M 123.87581415132377 111.77990407960462 l 6.8483416329870614 4.2738716801411645 a30.322531341556783,30.322531341556783 0 0,0 -0.27937492189098606,0.4392237801537599 l -6.773965823540073 -4.390802806085421" fill="#ff4a06" stroke="none" /><path d="M 123.67081503887977 112.10219673381413 l 13.825567317766746 8.961565699610887 a38.72592095897957,38.72592095897957 0 0,0 -0.3663759083255646,0.5547398216339114 l -13.669692896775175 -9.197579439961183" fill="#ffb711" stroke="none" /><path d="M 123.24437172507629 112.73598839341638 l 12.49295717636788 8.721054361054128 a37.485838282779945,37.485838282779945 0 0,0 -0.37286788743906274,0.5244853792078784 l -12.34140781548636 -8.934227516180409" fill="#ffa80f" stroke="none" /><path d="M 123.02305319851875 113.04730061749798 l 12.57839972061444 9.105791379198566 a37.77841190119068,37.77841190119068 0 0,0 -0.3847964766188076,0.5220503228365282 l -12.420233247055624 -9.320374577331881" fill="#ffab0f" stroke="none" /><path d="M 122.79642319545876 113.35476774220119 l 12.82621162412439 9.625028320084674 a38.285986866708754,38.285986866708754 0 0,0 -0.39899107241991816,0.5222921215831662 l -12.659095242364792 -9.843789028315912" fill="#ffb210" stroke="none" /><path d="M 122.08533992431435 114.2531982260344 l 25.87524065889743 21.586046042476404 a55.94696518833365,55.94696518833365 0 0,0 -0.6215586254150691,0.7321944978520182 l -25.500874698337917 -22.02704820268569" fill="#82ff25" stroke="none" /><path d="M 121.58599231531969 114.83129660266277 l 10.051999331718505 8.988559786126476 a35.73469123093441,35.73469123093441 0 0,0 -0.4128246786823906,0.45376663811137985 l -9.896217565239361 -9.159791236435867" fill="#ff920d" stroke="none" /><path d="M 121.32894940311644 115.11383179046477 l 9.877306842554082 9.142287753839067 a35.70892327922117,35.70892327922117 0 0,0 -0.4202500986675701,0.44629104146754034 l -9.718911872427855 -9.310497723104945" fill="#ff910d" stroke="none" /><path d="M 121.06709427457508 115.39191286266643 l 11.855475343565276 11.357277197433573 a38.66767465146111,38.66767465146111 0 0,0 -0.46329987195780853,0.4753864831197535 l -11.658765646578637 -11.559118675720333" fill="#ffb710" stroke="none" /><path d="M 119.97311578746728 116.4580771542455 l 9.396754430321856 10.328679188013881 a36.21354566693877,36.21354566693877 0 0,0 -0.46342124873500806,0.41439413821607096 l -9.218064284119222 -10.488465018606398" fill="#ff980e" stroke="none" /><path d="M 119.68838468493492 116.71268546186906 l 9.241808481075742 10.5154815560808 a36.24951343287184,36.24951343287184 0 0,0 -0.47093386252854524,0.4067814540835849 l -9.059934455465124 -10.672580007656764" fill="#ff980e" stroke="none" /><path d="M 119.39932484801699 116.96236846437668 l 4.10090844825468 4.830859840456393 a28.5867702261563,28.5867702261563 0 0,0 -0.37683579533412537,0.3143698230972242 l -4.0173760369633085 -4.900545548888813" fill="#ff3304" stroke="none" /><path d="M 119.10602146397423 117.20705257904149 l 8.906191209139653 10.864105148716158 a36.298096758497834,36.298096758497834 0 0,0 -0.48526965250089393,0.3908988816184006 l -8.718382049952837 -11.015390913044236" fill="#ff990e" stroke="none" /><path d="M 118.80856097066015 117.4466656963318 l 8.37772264471078 10.584978882985666 a35.74918570377311,35.74918570377311 0 0,0 -0.48446965422296234,0.376726533412284 l -8.194782930100489 -10.7272339115676" fill="#ff920d" stroke="none" /><path d="M 117.57891899593803 118.35301874062219 l 7.769934848448593 11.336567151202686 a35.9937128288852,35.9937128288852 0 0,0 -0.512659672013813,0.3449403066051203 l -7.574182680712955 -11.468277945796899" fill="#ff950d" stroke="none" /><path d="M 117.26201149165985 118.5662482526331 l 5.852932174438401 8.862085297372142 a32.87042234830968,32.87042234830968 0 0,0 -0.47351309686399823,0.306925468564309 l -5.6999402529211425 -8.961252812503673" fill="#ff6c0a" stroke="none" /><path d="M 116.94149031631311 118.77400620606588 l 7.208803047904237 11.333435741665944 a35.681813246689536,35.681813246689536 0 0,0 -0.5196561162220946,0.32430385012276697 l -7.013187319035897 -11.455514424156542" fill="#ff910d" stroke="none" /><path d="M 116.61744992895936 118.97623137369806 l 7.46463558382876 12.192921237041446 a36.54643706285097,36.54643706285097 0 0,0 -0.5378717409839278,0.3229765261504843 l -7.25422794601612 -12.319264978045469" fill="#ff9c0e" stroke="none" /><line stroke="#e1ed5e" stroke-width="0.3" x1="150.66735839644613" x2="153.20443386291535" y1="177.55315839532614" y2="181.86166719506645" /><path d="M 151.17477348973998 178.4148601552742 a91.0,91.0 0 0,1 -43.05096184303483,12.531507561066793" fill="none" id="id78" stroke="none" /><text fill="#e1ed5e" style="font-size:7.125px; font-family:Arial;" text-anchor="middle"><textPath startOffset="22.652084734490362" xlink:href="#id78">June</textPath></text><path d="M 115.9591945119735 119.36384661292095 l 12.28700214764233 21.70995547707748 a47.195793003888525,47.195793003888525 0 0,0 -0.7085118113837046,0.3929995584005152 l -11.912511374998003 -21.917679195877398" fill="#e1ff1b" stroke="none" /><path d="M 115.28802114710321 119.72863707600597 l 6.282626157456879 12.047764052233566 a35.83749462162369,35.83749462162369 0 0,0 -0.5479259030947271,0.2797748702467953 l -6.07488450754657 -12.153838418895628" fill="#ff930d" stroke="none" /><path d="M 114.94783689391878 119.9023375795907 l 6.063723837879795 12.131509603325858 a35.81253191840149,35.81253191840149 0 0,0 -0.5522629242737772,0.2701394705103556 l -5.854576839983111 -12.233813880486844" fill="#ff930d" stroke="none" /><path d="M 114.2587744858103 120.23209319425224 l 6.848107284024706 14.964350302187936 a38.70686341135833,38.70686341135833 0 0,0 -0.6065671412464738,0.27130976705698584 l -6.590215227847866 -15.079702138661311" fill="#ffb711" stroke="none" /><path d="M 113.91009940074068 120.38805112483585 l 3.6288331811249277 8.303480476786326 a31.311799947295512,31.311799947295512 0 0,0 -0.49437593313350164,0.21101968844455504 l -3.4857581802513264 -8.364550686893821" fill="#ff5808" stroke="none" /><path d="M 113.55879846848077 120.53800060317292 l 4.299056511023971 10.31617060988671 a33.42610231419111,33.42610231419111 0 0,0 -0.5315475117912382,0.21617574557864738 l -4.121332248685718 -10.388449520174367" fill="#ff740a" stroke="none" /><path d="M 112.49017957449377 120.95136534791556 l 4.611194792270807 12.898332519591277 a35.94781366489599,35.94781366489599 0 0,0 -0.5828582409761036,0.2027483522001202 l -4.389098292818431 -12.9755892110605" fill="#ff940d" stroke="none" /><path d="M 112.12941783297003 121.07685700864644 l 2.1491375635081322 6.353543329792678 a28.957183098025183,28.957183098025183 0 0,0 -0.47224651394499845,0.15523680914136656 l -2.0397538632458914 -6.389499924705231" fill="#ff3805" stroke="none" /><path d="M 111.76655501928728 121.19613722287527 l 5.0615086459270335 15.855103743047561 a38.89341264511563,38.89341264511563 0 0,0 -0.637776712568323,0.19758485584881627 l -4.788588881863775 -15.939654983596276" fill="#ffb911" stroke="none" /><path d="M 111.40169807078222 121.30917083817536 l 9.70645715262927 32.30963900700386 a55.98615394823087,55.98615394823087 0 0,0 -0.9228117444972423,0.2686170496206773 l -9.15038896644199 -32.4715023517784" fill="#82ff25" stroke="none" /><path d="M 110.29624041461805 121.61046823811475 l 6.410410042739001 26.156660532166057 a49.18073053429897,49.18073053429897 0 0,0 -0.8217112857175639,0.1939216260255143 l -5.960451594130375 -26.26284950086436" fill="#cbff1d" stroke="none" /><path d="M 109.92448757750913 121.69820089544196 l 1.7858423570860065 7.868750935349475 a30.31885829637166,30.31885829637166 0 0,0 -0.5085448274848008,0.11083497821251695 l -1.6505016358023594 -7.898247815632241" fill="#ff4a06" stroke="none" /><path d="M 109.55128347130797 121.77953899337172 l 2.2029565594390754 10.541944616167537 a33.01966173531552,33.01966173531552 0 0,0 -0.5558364985720458,0.111182866823447 l -2.0216654511973235 -10.578207915169491" fill="#ff6e0a" stroke="none" /><path d="M 109.17673808097767 121.85445856119321 l 3.1302231759884 16.378650363182956 a38.92508575242982,38.92508575242982 0 0,0 -0.6573988528539748,0.11979997009799048 l -2.8486006173481857 -16.429971374708224" fill="#ffba11" stroke="none" /><path d="M 108.42406533166539 121.98495568802646 l 5.430057257748718 34.864862854993696 a57.53518362882569,57.53518362882569 0 0,0 -0.9772074068882775,0.14361583682736925 l -4.830755393728488 -34.95293959091155" fill="#72ff27" stroke="none" /><path d="M 108.04615978879734 122.04049478893597 l 2.495065298675484 18.053049585827463 a40.474652265352,40.474652265352 0 0,0 -0.6890755160058147,0.08921462131939156 l -2.184793042809205 -18.093220541216322" fill="#ffcd13" stroke="none" /><path d="M 107.6673565286578 122.08953845486651 l 1.6661794152416254 13.798355739195857 a36.148588955328314,36.148588955328314 0 0,0 -0.6167019824040002,0.069102743445608 l -1.4290667751891593 -13.824924705083376" fill="#ff970d" stroke="none" /><path d="M 107.28776718630627 122.1320722324246 l 1.811282800094425 17.52251802761523 a39.865884406126725,39.865884406126725 0 0,0 -0.681327777114352,0.06452244886654855 l -1.51021858082214 -17.551029122195605" fill="#ffc512" stroke="none" /><path d="M 106.9075036284642 122.16808358671078 l 2.3442916686412336 27.244222703738856 a49.59489667485654,49.59489667485654 0 0,0 -0.8488544555172381,0.06570670338781417 l -1.8762629210407098 -27.28045108882381" fill="#c6ff1e" stroke="none" /><path d="M 105.76378911141967 122.23688661196249 l 0.37440504204293873 10.900394287345845 a33.15682239495579,33.15682239495579 0 0,0 -0.5690132066125266,0.014655761773539722 l -0.18723010980783827 -10.905215249645028" fill="#ff700a" stroke="none" /><line stroke="#e1ed5e" stroke-width="0.3" x1="106.54496967792366" x2="106.6308013266972" y1="189.98673829345242" y2="194.98600153197754" /><path d="M 106.56213600767838 190.98659094115743 a91.0,91.0 0 0,1 -45.01790167348979,-11.032876640956953" fill="none" id="id79" stroke="none" /><text fill="#e1ed5e" style="font-size:7.125px; font-family:Arial;" text-anchor="middle"><textPath startOffset="23.433191104645175" xlink:href="#id79">July</textPath></text><path d="M 105.0 122.25 l 2.3094200737168664e-15 18.85784599547212 a41.10784599547212,41.10784599547212 0 0,0 -0.7056708398639961,-0.006057335448833205 l 0.3237200028217576 -18.855067248586437" fill="#ffd513" stroke="none" /><path d="M 104.23621088858035 122.23688661196249 l -0.4629892344483302 13.479426395396814 a35.73737539257121,35.73737539257121 0 0,0 -0.6129372381019828,-0.026322162310717725 l 0.6943132903297731 -13.469492345111112" fill="#ff920d" stroke="none" /><path d="M 103.0924963715358 122.16808358671078 l -3.3665754220585353 39.1247095122159 a61.519284746321595,61.519284746321595 0 0,0 -1.0513951502712566,-0.09956821386210482 l 4.037707014487725 -39.06115265263997" fill="#4aff2c" stroke="none" /><path d="M 102.71223281369373 122.1320722324246 l -0.984311829608371 9.522324055751225 a31.823062477631986,31.823062477631986 0 0,0 -0.5429076565166789,-0.06083393530969942 l 1.147630143773516 -9.504023897999616" fill="#ff5e08" stroke="none" /><path d="M 102.3326434713422 122.08953845486651 l -0.6966547767474167 5.769300922240059 a28.061209943662764,28.061209943662764 0 0,0 -0.47773832854466763,-0.0618527912846522 l 0.7955898451525685 -5.756491796885938" fill="#ff2b04" stroke="none" /><path d="M 101.95384021120267 122.04049478893599 l -2.7363880937386083 19.799141116088432 a42.237341212235755,42.237341212235755 0 0,0 -0.7173809150612556,-0.10543029014544186 l 3.0758634659318154 -19.749249926852507" fill="#ffe215" stroke="none" /><path d="M 101.57593466833464 121.98495568802647 l -2.481377177232704 15.93222149771546 a38.37429578455934,38.37429578455934 0 0,0 -0.650028586431607,-0.10696195653243158 l 2.754509308565771 -15.88727770944357" fill="#ffb310" stroke="none" /><path d="M 101.1990382132361 121.92293751976592 l -0.9311004464598575 5.370339944865515 a27.70045861967742,27.70045861967742 0 0,0 -0.46782812081456226,-0.08525386778706599 l 1.0231522730606588 -5.353565035651168" fill="#ff2603" stroke="none" /><path d="M 100.82326191902233 121.85445856119321 l -2.582469390878457 13.512571100769689 a36.00713363706918,36.00713363706918 0 0,0 -0.606126108888591,-0.12124219732943509 l 2.8140501094367534 -13.466248471261746" fill="#ff950d" stroke="none" /><path d="M 100.44871652869203 121.77953899337172 l -8.033985957179732 38.445531140760046 a61.525995150413586,61.525995150413586 0 0,0 -1.031988945089734,-0.2249171873604353 l 8.692770796068315 -38.30195205132936" fill="#4aff2c" stroke="none" /><path d="M 99.70375958538196 121.61046823811475 l -2.280624192436789 9.305724970056088 a31.831114962542372,31.831114962542372 0 0,0 -0.5296010989831788,-0.1346225283725377 l 2.440033280670667 -9.265203803191426" fill="#ff5e08" stroke="none" /><path d="M 99.33356757463265 121.51636687660688 l -3.423429240209208 12.999318438650507 a35.692549893236716,35.692549893236716 0 0,0 -0.5911682238540044,-0.16112552821972917 l 3.646075376958306 -12.93863524401615" fill="#ff910d" stroke="none" /><path d="M 98.59830192921778 121.30917083817536 l -3.960011484297148 13.181590307290682 a36.013575624997486,36.013575624997486 0 0,0 -0.5905529576311284,-0.18295481585514403 l 4.185707493423221 -13.111669106735635" fill="#ff950d" stroke="none" /><path d="M 97.50982042550625 120.95136534791556 l -9.10410979964031 25.465815429758184 a49.29427057153542,49.29427057153542 0 0,0 -0.7943674248907002,-0.29170272155519844 l 9.539922873307399 -25.305778832467556" fill="#caff1d" stroke="none" /><path d="M 97.15126607428265 120.81969922365099 l -4.754480543499158 12.611824507900607 a35.7282492430061,35.7282492430061 0 0,0 -0.5720394480020596,-0.22127714729415907 l 4.970278698190788 -12.528349145793523" fill="#ff910d" stroke="none" /><path d="M 96.79502478097221 120.6818974384639 l -5.015711404656509 12.642869244927619 a35.85145226213503,35.85145226213503 0 0,0 -0.5701158353706605,-0.23186114701605387 l 5.232003990574184 -12.554904933202554" fill="#ff930d" stroke="none" /><path d="M 96.08990059925932 120.38805112483585 l -5.569613809041851 12.744366361939536 a36.15825193722078,36.15825193722078 0 0,0 -0.5666283851766013,-0.2534456694673986 l 5.787567109148828 -12.646878623055743" fill="#ff970d" stroke="none" /><path d="M 95.3952790324583 120.07017277294007 l -5.020443316569589 10.490795630692176 a33.880203956072236,33.880203956072236 0 0,0 -0.5224646097183182,-0.2555636216486998 l 5.199791999910815 -10.40306720239285" fill="#ff790b" stroke="none" /><path d="M 94.37482652676589 119.54912245252154 l -10.46268605071808 19.250163896431864 a44.15973777650886,44.15973777650886 0 0,0 -0.6629339992165203,-0.3677183142959413 l 10.791599011195233 -19.067721421736515" fill="#fff917" stroke="none" /><line stroke="#e1ed5e" stroke-width="0.3" x1="60.67067388415222" x2="58.207933544382904" y1="178.32567169271397" y2="182.67709789786477" /><path d="M 60.17812581619836 179.19595693374413 a91.0,91.0 0 0,1 -33.19375697114459,-32.34981199634952" fill="none" id="id80" stroke="none" /><text fill="#e1ed5e" style="font-size:7.125px; font-family:Arial;" text-anchor="middle"><textPath startOffset="23.433191104645175" xlink:href="#id80">August</textPath></text><path d="M 94.04080548802652 119.36384661292095 l -6.913677978725449 12.215806532578949 a36.286554863459614,36.286554863459614 0 0,0 -0.5394731306556636,-0.3114649572046199 l 7.122359795566536 -12.095324029450767" fill="#ff990e" stroke="none" /><path d="M 93.71001417421195 119.17286415884452 l -6.996784859024821 11.882070333899579 a36.03907516054704,36.03907516054704 0 0,0 -0.5304046483852366,-0.31849275159196516 l 7.19972540423876 -11.76021036745408" fill="#ff950d" stroke="none" /><path d="M 93.38255007104064 118.97623137369806 l -8.282935667599375 13.529552926241998 a38.11366368962647,38.11366368962647 0 0,0 -0.5550726447396576,-0.34640638331284734 l 8.513967924985275 -13.38537171056132" fill="#ffb010" stroke="none" /><path d="M 92.42108100406197 118.35301874062219 l -7.590569127868423 11.074867204466722 a35.67644492341594,35.67644492341594 0 0,0 -0.5021967737538356,-0.350572350647127 l 7.7795654625087485 -10.942933084692733" fill="#ff910d" stroke="none" /><path d="M 92.10788056494847 118.13438050974906 l -10.544662009118033 14.832387660026134 a40.44861589747508,40.44861589747508 0 0,0 -0.5624649498167952,-0.40718124760730456 l 10.797725886592946 -14.649188928464033" fill="#ffcd13" stroke="none" /><path d="M 91.79847949260659 117.91039799370385 l -9.674157212110448 13.12485223391663 a38.554939862715685,38.554939862715685 0 0,0 -0.5293905558161531,-0.3972645424415156 l 9.898037244272532 -12.956848484016813" fill="#ffb510" stroke="none" /><path d="M 91.49296896895251 117.68113720116216 l -8.25621284270384 10.80764763909207 a35.8503785974803,35.8503785974803 0 0,0 -0.4858410109478545,-0.377792908696134 l 8.440523914039021 -10.664326235226286" fill="#ff930d" stroke="none" /><path d="M 90.89397853602577 117.20705257904149 l -15.417238614304281 18.806524301517772 a46.56823601320568,46.56823601320568 0 0,0 -0.6138706162505614,-0.5121127011412531 l 15.737805846512087 -18.539095715041324" fill="#e9ff1a" stroke="none" /><path d="M 90.60067515198301 116.96236846437668 l -13.716882511615212 16.158453108072248 a43.44548236495751,43.44548236495751 0 0,0 -0.5644199571790994,-0.48753251605727 l 13.992242631876392 -15.920603594522595" fill="#fff116" stroke="none" /><path d="M 90.3116153150651 116.71268546186907 l -8.872533059751976 10.095313913568486 a35.6901341477636,35.6901341477636 0 0,0 -0.45672320204140693,-0.40840470356044456 l 9.044525159261003 -9.9415175176316" fill="#ff910d" stroke="none" /><path d="M 90.02688421253272 116.45807715424552 l -1.9090826491498152 2.098416253471968 a25.086890433929412,25.086890433929412 0 0,0 -0.31605925424410247,-0.2925397272376542 l 1.9448234468099066 -2.0653351047369144" fill="#ff0200" stroke="none" /><path d="M 89.74656575594871 116.19861857574291 l -9.635239409770113 10.23229035426571 a36.304807162589825,36.304807162589825 0 0,0 -0.45005429522743506,-0.4311418341878527 l 9.809470505497703 -10.065380905825515" fill="#ff990e" stroke="none" /><path d="M 89.47074255644887 115.93438618999525 l -9.633746061546802 9.88507214585331 a36.05303280105838,36.05303280105838 0 0,0 -0.43951750956621116,-0.4357609722281164 l 9.802016915060236 -9.71823949612102" fill="#ff960d" stroke="none" /><path d="M 89.19949590039609 115.66545786749943 l -10.626031365974315 10.53521113079999 a37.21339587664518,37.21339587664518 0 0,0 -0.4458753131697129,-0.4575073507833246 l 10.805316504172861 -10.351248784849657" fill="#ffa40f" stroke="none" /><path d="M 87.91466007568565 114.2531982260344 l -10.995431443605233 9.172779976326181 a36.5691970838142,36.5691970838142 0 0,0 -0.3980003005426265,-0.48549565271835443 l 11.151274207388788 -8.982677144189182" fill="#ff9c0e" stroke="none" /><path d="M 87.20357680454123 113.35476774220119 l -21.399203984309448 16.058361612313405 a49.004381114761486,49.004381114761486 0 0,0 -0.4991399119996078,-0.6771791532231928 l 21.671713893249066 -15.688649583793424" fill="#cdff1d" stroke="none" /><path d="M 86.53968644845423 112.42092281509774 l -11.411973262558194 7.678484911234094 a36.00471789159606,36.00471789159606 0 0,0 -0.3406313108863713,-0.5157592198341767 l 11.542103086110572 -7.481451772683531" fill="#ff950d" stroke="none" /><path d="M 86.32918496112023 112.10219673381413 l -22.799955643482736 14.778655786856284 a49.42069458462851,49.42069458462851 0 0,0 -0.45533476522313354,-0.7158618800250383 l 23.05029129626187 -14.385086561040747" fill="#c8ff1d" stroke="none" /><line stroke="#e1ed5e" stroke-width="0.3" x1="27.057713659400548" x2="22.72758664047835" y1="145.00000000000006" y2="147.50000000000006" /><path d="M 26.191688255616114 145.50000000000006 a91.0,91.0 0 0,1 -12.161518799418594,-43.15693985739604" fill="none" id="id81" stroke="none" /><text fill="#e1ed5e" style="font-size:7.125px; font-family:Arial;" text-anchor="middle"><textPath startOffset="22.65208473449034" xlink:href="#id81">September</textPath></text><path d="M 85.73093476579625 111.12500000000001 l -20.96304388215098 12.10301902839382 a46.45603805678762,46.45603805678762 0 0,0 -0.39281154058012213,-0.6940603537302227 l 21.16771934519423 -11.74137709682048" fill="#eaff1a" stroke="none" /><path d="M 85.54279868825938 110.79258157784312 l -4.0457170649445855 2.244091057326907 a26.87642099718113,26.87642099718113 0 0,0 -0.22032861239813958,-0.4053798306837735 l 4.083643726339919 -2.174310272128392" fill="#ff1b02" stroke="none" /><path d="M 85.36039673725656 110.45698253235787 l -11.853607523353014 6.3113783490865405 a35.67912908505274,35.67912908505274 0 0,0 -0.28321061545140447,-0.5430936978474529 l 11.960204069027878 -6.106965417473603" fill="#ff910d" stroke="none" /><path d="M 85.18378266748002 110.11830176612335 l -10.359485985315565 5.2896273583621864 a33.88181445305432,33.88181445305432 0 0,0 -0.2600511330517676,-0.5202764674514553 l 10.448762978794054 -5.111013567118183" fill="#ff7a0b" stroke="none" /><path d="M 85.01300852790675 109.7766390899159 l -22.52843475621653 11.019786353527639 a47.329195837237265,47.329195837237265 0 0,0 -0.35073355125483374,-0.7328982273134214 l 22.71428442602413 -10.631432022835714" fill="#e0ff1b" stroke="none" /><path d="M 84.53622027588344 108.73477071266534 l -61.391339172349674 26.204312137995995 a89.0,89.0 0 0,0 -0.5877142779167994,-1.4103003171298076 l 61.832124880787276 -25.146586900148638" fill="#4dd2ff" stroke="none" /><path d="M 84.2484372072612 108.02715028257344 l -13.361622872269777 5.168562767345413 a36.57644432023355,36.57644432023355 0 0,0 -0.22149530536683135,-0.5875426127108325 l 13.448379259297141 -4.938431143476498" fill="#ff9c0e" stroke="none" /><path d="M 84.11369828892174 107.66973929373152 l -12.744389083359868 4.679916199592336 a35.826489558912826,35.826489558912826 0 0,0 -0.20704269908533826,-0.5791352781349907 l 12.822848153087005 -4.460452217672798" fill="#ff930d" stroke="none" /><path d="M 83.98511465956354 107.31006799751607 l -14.011331983487791 4.873868587709374 a37.084824534242664,37.084824534242664 0 0,0 -0.2039922796255129,-0.6030669276601618 l 14.092933816922121 -4.632627266856351" fill="#ffa30f" stroke="none" /><path d="M 83.86272421337236 106.94824239070894 l -6.6917721313868315 2.199718415070407 a29.29404538344305,29.29404538344305 0 0,0 -0.15293623769751305,-0.47907058633924154 l 6.728547175086436 -2.0845211144629054" fill="#ff3c05" stroke="none" /><path d="M 83.74656301937445 106.5843691049772 l -13.168651124475643 4.07968178028157 a36.03612258274657,36.03612258274657 0 0,0 -0.17799044033727524,-0.5924722876294062 l 13.236743856245335 -3.8530232221810405" fill="#ff950d" stroke="none" /><path d="M 83.4357880439766 105.48153835302625 l -26.68807634562078 6.784004644146068 a49.78681423188744,49.78681423188744 0 0,0 -0.2034442702910505,-0.8301220483149504 l 26.80060025710171 -6.324868686424917" fill="#c4ff1e" stroke="none" /><path d="M 82.93417050047174 102.85686340201077 l -21.026961504866517 2.722361141239977 a43.45246118521319,43.45246118521319 0 0,0 -0.08942498663371229,-0.7405671719727793 l 21.070596082894394 -2.361004240145977" fill="#fff116" stroke="none" /><path d="M 82.88838009186591 102.47765313113199 l -15.114406897608108 1.6936008185128857 a37.45899666641199,37.45899666641199 0 0,0 -0.06611978030767328,-0.6396488954473375 l 15.141252665188023 -1.433892369694347" fill="#ffa70f" stroke="none" /><path d="M 82.79015161442136 101.3360893269576 l -8.846303868972498 0.5321716734470171 a31.112296476208478,31.112296476208478 0 0,0 -0.02749498909306211,-0.5333954430600379 l 8.854135780227882 -0.3802346874044906" fill="#ff5507" stroke="none" /><path d="M 82.75737659780654 100.5728910788235 l -13.59264970405758 0.35009843992861106 a35.84715760351615,35.84715760351615 0 0,0 -0.010563932705845661,-0.6152961196157538 l 13.596656701195347 -0.11671094505993268" fill="#ff930d" stroke="none" /><line stroke="#e1ed5e" stroke-width="0.3" x1="15.003315487706104" x2="10.00349968146756" y1="100.7725132973878" y2="100.81543070279824" /><path d="M 14.003352326458398 100.78109677846989 a91.0,91.0 0 0,1 11.418880510916955,-44.92154278223269" fill="none" id="id82" stroke="none" /><text fill="#e1ed5e" style="font-size:7.125px; font-family:Arial;" text-anchor="middle"><textPath startOffset="23.433191104645132" xlink:href="#id82">October</textPath></text><path d="M 82.75081966223846 100.19098245407643 l -20.14791707513727 0.17294563615934316 a42.39865932660718,42.39865932660718 0 0,0 0.0,-0.7278561804715303 l 20.14791707513727 0.17294563615933575" fill="#ffe415" stroke="none" /><path d="M 82.77048853658368 99.04536913005994 l -56.95024542628509 -2.445688580429085 a79.25273543213999,79.25273543213999 0 0,0 0.07003832384949848,-1.3587247717915845 l 56.899870180273275 3.422954895203138" fill="#41ffd1" stroke="none" /><path d="M 82.84910607913815 97.90228731549682 l -31.476446894529445 -2.980852246850373 a53.86727675214431,53.86727675214431 0 0,0 0.09508243203476595,-0.9198362781073208 l 31.42063847522244 3.520748078328875" fill="#98ff23" stroke="none" /><path d="M 82.93417050047174 97.14313659798925 l -14.280264547734165 -1.8488661465604739 a36.6494535167544,36.6494535167544 0 0,0 0.08613578553842144,-0.6232356356624366 l 14.246422072036058 2.093733442101553" fill="#ff9d0e" stroke="none" /><path d="M 82.98646381031206 96.7647682578679 l -26.86148727145314 -3.9477136027873456 a49.40002654002517,49.40002654002517 0 0,0 0.1305066552747895,-0.8379463460217614 l 26.78976141617471 4.408245046331714" fill="#c8ff1d" stroke="none" /><path d="M 83.04524461030842 96.3873533553905 l -19.527982471166073 -3.213322084361522 a42.040592164258626,42.040592164258626 0 0,0 0.12328940672240053,-0.7111005350899335 l 19.46994403162452 3.5480723805220835" fill="#ffe015" stroke="none" /><path d="M 83.11049557748926 96.01100311646114 l -5.379050330582681 -0.9802421558263805 a27.717637254152912,27.717637254152912 0 0,0 0.08932168010317516,-0.46736877404917093 l 5.361430555085312 1.0724362666370395" fill="#ff2703" stroke="none" /><path d="M 83.34486768516649 94.88944773756754 l -17.941171886704097 -4.234067713983866 a40.68401687302206,40.68401687302206 0 0,0 0.16624743424412772,-0.6783462637920827 l 17.865844811270083 4.541427887182168" fill="#ffd013" stroke="none" /><path d="M 83.4357880439766 94.51846164697376 l -13.337014310237704 -3.3902168836736535 a36.01115987952437,36.01115987952437 0 0,0 0.15743825168396033,-0.5978186854357525 l 13.27685148960588 3.6186649130281894" fill="#ff950d" stroke="none" /><path d="M 83.74656301937445 93.41563089502282 l -2.5806053925711594 -0.7994781472037916 a24.951608687434906,24.951608687434906 0 0,0 0.13026555763150405,-0.40805500392762073 l 2.5665010289375614 0.8436598653996726" fill="#ff0000" stroke="none" /><path d="M 83.86272421337235 93.05175760929107 l -62.71391247501438 -20.615308687119438 a88.265344960009,88.265344960009 0 0,0 0.48552067203929616,-1.4353555955144557 l 62.35078224916627 21.688838675826755" fill="#4cd8ff" stroke="none" /><path d="M 83.98511465956354 92.68993200248393 l -18.767041918318935 -6.528151370455987 a42.12004334870778,42.12004334870778 0 0,0 0.24341339516861504,-0.6808705882193603 l 18.652212152508522 6.849350662459895" fill="#ffe115" stroke="none" /><path d="M 84.11369828892174 92.33026070626848 l -12.696263770688418 -4.662243918174336 a35.77522207165002,35.77522207165002 0 0,0 0.21664335843992527,-0.5746722470412422 l 12.614359330587959 4.87950517637366" fill="#ff920d" stroke="none" /><path d="M 84.2484372072612 91.97284971742657 l -15.405645256803128 -5.95923453628488 a38.76806229667727,38.76806229667727 0 0,0 0.24542274146265897,-0.6186256304865241 l 15.301077014483496 6.222814815961986" fill="#ffb811" stroke="none" /><path d="M 84.38929170640424 91.61780436661715 l -12.463593615512345 -5.068835019739131 a35.70489703676598,35.70489703676598 0 0,0 0.23577840202311962,-0.5657823327420318 l 12.374743782968432 5.282042273198693" fill="#ff910d" stroke="none" /><path d="M 85.18378266748002 89.88169823387665 l -12.107462482941674 -6.182156612875723 a35.84447344187936,35.84447344187936 0 0,0 0.2845230711715882,-0.5456105047446759 l 11.999553481546638 6.389086351385867" fill="#ff930d" stroke="none" /><path d="M 85.36039673725658 89.54301746764213 l -12.408723400053768 -6.606946286403601 a36.30802815655397,36.30802815655397 0 0,0 0.2976474234975026,-0.5476377345074233 l 12.29347792755905 6.818984975425799" fill="#ff990e" stroke="none" /><line stroke="#e1ed5e" stroke-width="0.3" x1="27.05771365940052" x2="22.727586640478336" y1="54.99999999999999" y2="52.49999999999999" /><path d="M 26.191688255616086 54.49999999999999 a91.0,91.0 0 0,1 31.294246866392854,-32.11065415759653" fill="none" id="id83" stroke="none" /><text fill="#e1ed5e" style="font-size:7.125px; font-family:Arial;" text-anchor="middle"><textPath startOffset="22.65208473449034" xlink:href="#id83">November</textPath></text><path d="M 85.92474952530159 88.54586016640629 l -14.63590801900951 -8.788442241621526 a39.32180484234823,39.32180484234823 0 0,0 0.35245825556014243,-0.5757140721912521 l 14.48288608682401 9.038392067801878" fill="#ffbf11" stroke="none" /><path d="M 86.12418584867623 88.22009592039538 l -19.340468818936728 -12.069882957905739 a45.047714989748584,45.047714989748584 0 0,0 0.41504456586645505,-0.6525189946121014 l 19.13042336551427 12.400109298308339" fill="#faff18" stroke="none" /><path d="M 86.53968644845422 87.57907718490226 l -24.83348705786621 -16.709078375846776 a52.181511482439355,52.181511482439355 0 0,0 0.5064346470767006,-0.7389032850676954 l 24.542994237259002 17.13291608259582" fill="#aaff21" stroke="none" /><path d="M 86.75562827492371 87.26401160658361 l -6.898396053326141 -4.8156162016581465 a30.66296781820887,30.66296781820887 0 0,0 0.30500147673739,-0.4290227734125171 l 6.81471310314628 4.9333267509890835" fill="#ff4f07" stroke="none" /><path d="M 86.97694680148125 86.95269938250203 l -44.14495353233474 -31.95754199566958 a76.74826981452694,76.74826981452694 0 0,0 0.7817285673220703,-1.0605649368907935 l 43.58985496807267 32.71063980785714" fill="#3effb8" stroke="none" /><path d="M 88.1618527405412 85.45560943632287 l -23.373663358546267 -20.189613711783917 a53.136059001266275,53.136059001266275 0 0,0 0.6021806736735625,-0.685171065858917 l 23.023637629011816 20.58787873865719" fill="#a0ff22" stroke="none" /><path d="M 88.9329057254249 84.60808713733357 l -35.234647502132994 -33.75399526707144 a71.04357110408141,71.04357110408141 0 0,0 0.8512142944365876,-0.8734208539784057 l 34.650023382667584 34.353871116216844" fill="#37ff7b" stroke="none" /><path d="M 89.47074255644884 84.06561381000476 l -12.674640703562764 -13.005297936758149 a40.40996396990522,40.40996396990522 0 0,0 0.5009440698361048,-0.4798930870896855 l 12.44951983322652 13.220958638100162" fill="#ffcc13" stroke="none" /><path d="M 90.02688421253274 83.54192284575448 l -25.56169918154378 -28.096785151130096 a60.234599522391974,60.234599522391974 0 0,0 0.7708163565216066,-0.6892687390911406 l 25.07561392755453 28.531445582597698" fill="#57ff2a" stroke="none" /><path d="M 90.31161531506508 83.28731453813094 l -18.08297793738516 -20.57510944626891 a49.64213791966415,49.64213791966415 0 0,0 0.6449235187108189,-0.5570695751316638 l 17.727114255592276 20.882496018892947" fill="#c6ff1e" stroke="none" /><path d="M 90.60067515198303 83.03763153562332 l -20.832612457190837 -24.540765091711897 a54.440788947742305,54.440788947742305 0 0,0 0.7176479832957023,-0.5986874717002746 l 20.408267857937876 24.89476844874738" fill="#92ff23" stroke="none" /><path d="M 90.89397853602576 82.79294742095851 l -38.22920467164202 -46.633413717672745 a82.55047565973194,82.55047565973194 0 0,0 1.1036182118227522,-0.888996710410232 l 37.42304695313336 47.282797310792645" fill="#45fff1" stroke="none" /><path d="M 91.4929689689525 82.31886279883786 l -19.121967236388354 -25.031268935826944 a53.74942944764563,53.74942944764563 0 0,0 0.7380232061419528,-0.5538263727565008 l 18.689454553900486 25.35583451604173" fill="#99ff23" stroke="none" /><path d="M 92.10788056494846 81.86561949025095 l -18.505152272651106 -26.029814135193106 a54.18731179274022,54.18731179274022 0 0,0 0.7627635886681771,-0.532468224095997 l 18.05558912309644 26.343644128415963" fill="#94ff23" stroke="none" /><path d="M 92.73798850834015 81.4337517473669 l -7.397856571785549 -11.201297743242563 a35.67376076177915,35.67376076177915 0 0,0 0.5138964372316064,-0.33310146189291434 l 7.204481309900665 11.32664125170271" fill="#ff910d" stroke="none" /><path d="M 93.05850968368688 81.22599379393412 l -22.87486889797939 -35.963093322358425 a64.87163427664882,64.87163427664882 0 0,0 0.944765370754045,-0.5896034658952322 l 22.254143914579114 36.35047162062147" fill="#30ff36" stroke="none" /><path d="M 93.38255007104064 81.02376862630194 l -2.249388630733319 -3.6742072801844974 a26.55807942705715,26.55807942705715 0 0,0 0.3908682095071081,-0.23470512925317774 l 2.185984524397501 3.7122796242912126" fill="#ff1702" stroke="none" /><line stroke="#e1ed5e" stroke-width="0.3" x1="59.33264160355391" x2="56.79556613708468" y1="22.446841604673864" y2="18.138332804933526" /><path d="M 58.82522651026006 21.585139844725788 a91.0,91.0 0 0,1 44.61263748206156,-12.571730785883243" fill="none" id="id84" stroke="none" /><text fill="#e1ed5e" style="font-size:7.125px; font-family:Arial;" text-anchor="middle"><textPath startOffset="23.433191104645175" xlink:href="#id84">December</textPath></text><path d="M 93.71001417421193 80.82713584115548 l -10.913442614046566 -18.53341146509848 a43.75791877948053,43.75791877948053 0 0,0 0.650550087319366,-0.3755952680351685 l 10.593683840541777 18.718024279057218" fill="#fff517" stroke="none" /><path d="M 94.37482652676589 80.45087754747846 l -19.100996939924592 -35.143682979339296 a62.249081707600624,62.249081707600624 0 0,0 0.9432549526845079,-0.5022301332579979 l 18.49489431337099 35.466398489112876" fill="#43ff2d" stroke="none" /><path d="M 95.05216310608121 80.0976624204093 l -14.626951459011746 -29.26370112436172 a54.96562184156455,54.96562184156455 0 0,0 0.847621584587072,-0.41461419188080467 l 14.122445800801785 29.510480122893146" fill="#8cff24" stroke="none" /><path d="M 95.39527903245832 79.92982722705992 l -16.155607945936236 -33.75900703649635 a59.67558248301565,59.67558248301565 0 0,0 0.9278452946188325,-0.4342784475370167 l 15.573709133048764 34.03136506272121" fill="#5cff2a" stroke="none" /><path d="M 95.74122551418968 79.76790680574776 l -6.339338406030022 -13.852598485605819 a37.48422778579787,37.48422778579787 0 0,0 0.5874074746958612,-0.26273989191001856 l 6.100606016403803 13.95938044693222" fill="#ffa80f" stroke="none" /><path d="M 96.08990059925932 79.61194887516415 l -23.807317966556816 -54.47580257152176 a81.70083224457127,81.70083224457127 0 0,0 1.2899585857944995,-0.5506066145967248 l 22.868660313022218 54.87645970778142" fill="#44ffe9" stroke="none" /><path d="M 96.7950247809722 79.3181025615361 l -11.367185014895545 -28.652731832378386 a53.07518348073626,53.07518348073626 0 0,0 0.8497785171175598,-0.32871258574278944 l 10.873647791088413 28.8436426329341" fill="#a0ff22" stroke="none" /><path d="M 97.50982042550623 79.04863465208444 l -3.0178965133064115 -8.441593663227566 a31.214831450734074,31.214831450734074 0 0,0 0.5061176159791912,-0.17605397924439756 l 2.8725406388509653 8.492155981741062" fill="#ff5608" stroke="none" /><path d="M 98.59830192921778 78.69082916182464 l -4.736923463001621 -15.767677607470961 a38.713842231613995,38.713842231613995 0 0,0 0.6381147081290771,-0.1857458915529756 l 4.4655523131824895 15.8466697941778" fill="#ffb711" stroke="none" /><path d="M 99.33356757463265 78.48363312339312 l -3.6599473842383574 -13.89741635597905 a36.62126981956804,36.62126981956804 0 0,0 0.6092989443010612,-0.1548814089963436 l 3.420840450686598 13.958196403467518" fill="#ff9d0e" stroke="none" /><path d="M 100.07551242249087 78.30179910455804 l -3.569664866524208 -15.728602049275779 a38.37859044317821,38.37859044317821 0 0,0 0.6437324738699853,-0.14029849653362697 l 3.299136498855395 15.787562447879651" fill="#ffb310" stroke="none" /><path d="M 100.82326191902231 78.1455414388068 l -6.915120708515633 -36.18283359882801 a59.08770271954834,59.08770271954834 0 0,0 0.9979217061374114,-0.181854577379299 l 6.292975296592002 36.29620921763458" fill="#62ff29" stroke="none" /><path d="M 102.3326434713422 77.91046154513349 l -2.1351101340194685 -17.681774784914307 a40.06021770863074,40.06021770863074 0 0,0 0.6834351323361089,-0.0765803320875314 l 1.8312643440348937 17.715821339443746" fill="#ffc812" stroke="none" /><path d="M 102.71223281369372 77.8679277675754 l -1.5668952702701768 -15.158290367060706 a37.4890592767441,37.4890592767441 0 0,0 0.64070665441469,-0.060675586313268554 l 1.3064521736975536 15.1829545990878" fill="#ffa80f" stroke="none" /><path d="M 103.47332207945253 77.80243809498636 l -0.2177109594073337 -3.165469568794956 a25.422947470856236,25.422947470856236 0 0,0 0.43564720156318115,-0.026207453838606357 l 0.1633393847514019 3.1687404277097264" fill="#ff0701" stroke="none" /><path d="M 104.23621088858033 77.76311338803751 l -0.5229913418899756 -15.226322285518288 a37.48530145045259,37.48530145045259 0 0,0 0.6432954076565592,-0.016569007775326917 l 0.2615342086108425 15.233056493819257" fill="#ffa80f" stroke="none" /><path d="M 104.61804916295776 77.75327858856315 l -0.40447491015287135 -23.55863574947925 a45.81210768012032,45.81210768012032 0 0,0 0.7864257471951018,-0.0067505192042200965 l 5.771051950324923e-15 23.56210768012032" fill="#f1ff19" stroke="none" /></svg>