<?xml version="1.0" encoding="utf-8" ?>
<svg baseProfile="full" height="200" version="1.1" viewBox="0 0 200 200" width="200" xmlns="http://www.w3.org/2000/svg" xmlns:ev="http://www.w3.org/2001/xml-events" xmlns:xlink="http://www.w3.org/1999/xlink"><defs /><rect fill="#FAF9F5" height="200" width="200" x="0" y="0" /><g id="tracks"><text alignment-baseline="middle" fill="#5A5A5A" style="dominant-baseline: central; font-size:9.0px; font-family:Arial;" text-anchor="middle" x="100.0" y="100.0">2026</text><line stroke="#5A5A5A" stroke-width="0.3" x1="100.0" x2="100.0" y1="15.0" y2="10.0" /><path d="M 100.0 14.0 a86.0,86.0 0 0,1 42.46469731375804,11.215312516191453" fill="none" id="id97" stroke="none" /><text fill="#5A5A5A" style="font-size:6.75px; font-family:Arial;" text-anchor="middle"><textPath startOffset="22.20632615414155" xlink:href="#id97">January</textPath></text><path d="M 100.0 79.0 l 0.0 -21.27397928896511 a42.27397928896511,42.27397928896511 0 0,0 0.7276770616253355,0.006263346205256578 l -0.3661965823528071 21.27082731936841" fill="red" stroke="none" /><path d="M 100.72285384407766 79.0124445844662 l 1.996389675736125 -57.963776901503174 a78.99814656025328,78.99814656025328 0 0,0 1.3586145168803174,0.05850479901841912 l -2.993845025005774 57.920824375960564" fill="red" stroke="none" /><path d="M 101.44485096284872 79.0497635885617 l 1.4649593694947878 -21.241806880590296 a42.29226304333487,42.29226304333487 0 0,0 0.7258355483279227,0.05633880809970402 l -1.8303851071850517 21.21344281030213" fill="red" stroke="none" /><path d="M 102.88285421437855 79.19881850522331 l 1.8864716483642043 -13.61180143853832 a34.741903568366205,34.741903568366205 0 0,0 0.5916563045240061,0.08719475946669591 l -2.120496933316866 13.577312194910656" fill="red" stroke="none" /><path d="M 103.59715602781102 79.31037775812273 l 6.962457898879302 -40.04569795946443 a61.646448123474705,61.646448123474705 0 0,0 1.0438941771135488,0.19076498846384152 l -7.650747197095752 39.91991748964985" fill="red" stroke="none" /><path d="M 103.95276090670814 79.375362276772 l 10.281141286389222 -53.644735772721376 a75.62105402018337,75.62105402018337 0 0,0 1.2763162712501936,0.2560170370527028 l -11.20302396710654 53.45981477959146" fill="red" stroke="none" /><path d="M 106.74666289553966 80.11325718540242 l 6.687032737370514 -19.710974492115152 a41.81439219048875,41.81439219048875 0 0,0 0.6796192639890439,0.23710581653171958 l -7.025334005422832 19.592947822411226" fill="red" stroke="none" /><path d="M 107.08798089147638 80.2323363322302 l 5.3773468909545095 -14.996878009807276 a36.931798694017544,36.931798694017544 0 0,0 0.5965675646676205,0.21972086870786653 l -5.634696781394706 14.902093873293085" fill="red" stroke="none" /><path d="M 108.43124777332544 80.76684994638697 l 11.733120376012751 -26.76529866705027 a50.224088120836356,50.224088120836356 0 0,0 0.7888001117119998,0.35391161715380826 l -12.192102606191531 26.55936671937993" fill="red" stroke="none" /><path d="M 108.76106565485865 80.91482961587045 l 13.974596051147472 -30.442363656711642 a54.496669085152696,54.496669085152696 0 0,0 0.8491665493455984,0.39869508099806905 l -14.496540811792668 30.19730359307357" fill="red" stroke="none" /><path d="M 109.41281617654863 81.2277094730956 l 9.683509920561233 -19.312144010825662 a42.60391794736495,42.60391794736495 0 0,0 0.6527316089139935,0.33435448231898346 l -10.014502017063982 19.14259700319418" fill="red" stroke="none" /><line stroke="#5A5A5A" stroke-width="0.3" x1="143.23703022742887" x2="145.7803849466894" y1="26.81831364943548" y2="22.513508569990506" /><path d="M 143.74570117128098 25.957352633546492 a86.0,86.0 0 0,1 28.547481713284135,27.462654790039103" fill="none" id="id98" stroke="none" /><text fill="#5A5A5A" style="font-size:6.75px; font-family:Arial;" text-anchor="middle"><textPath startOffset="19.985693538727396" xlink:href="#id98">February</textPath></text><path d="M 111.60114157652 82.49532879139004 l 12.100508702226557 -18.25815372498348 a42.9039377349779,42.9039377349779 0 0,0 0.6120865874701622,0.4132835961555051 l -12.412999984103262 18.047158216529304" fill="red" stroke="none" /><path d="M 112.19680574252982 82.90503203632743 l 3.8687711111289427 -5.422445810784342 a27.66110414880285,27.66110414880285 0 0,0 0.38521997443538286,0.2798786940644419 l -3.961536401918114 5.355047881903225" fill="red" stroke="none" /><path d="M 112.48926042617603 83.11751280151076 l 25.35581003348712 -34.27497895715975 a63.63439087131456,63.63439087131456 0 0,0 0.8749845293968821,0.6590202072100697 l -25.942040716642385 33.83344216044384" fill="red" stroke="none" /><path d="M 113.34407831869373 83.78471172551755 l 3.2530646702652866 -3.953017971274133 a26.119451223534067,26.119451223534067 0 0,0 0.3447051926364965,0.2886806856424212 l -3.3206273998609004 3.8964361282378923" fill="red" stroke="none" /><path d="M 113.89432698308785 84.25364557470407 l 25.161003130089057 -28.514808487277556 a59.02854692962206,59.02854692962206 0 0,0 0.756096692487752,0.6788310759243701 l -25.6481108101728 28.077478402583885" fill="red" stroke="none" /><path d="M 114.68862486808459 84.99185889309783 l 25.37544477491178 -25.927427465300998 a57.27870852846118,57.27870852846118 0 0,0 0.6987025970305912,0.6957021460319878 l -25.817983172109695 25.48678946861889" fill="red" stroke="none" /><path d="M 115.19652480421416 85.50635884689758 l 45.58957441264248 -43.480923459307235 a84.0,84.0 0 0,0 0.9889307121181483,1.0549223324877808 l -46.331272446731084 42.689731709941405" fill="red" stroke="none" /><path d="M 115.4437574822437 85.77008943001954 l 40.173531270016944 -37.01597606087261 a75.62687157839193,75.62687157839193 0 0,0 0.8738733966100567,0.9649528308073275 l -40.80474830724303 36.31897044279574" fill="red" stroke="none" /><path d="M 115.9244219780498 86.31012108654704 l 26.80231154822823 -23.04136377456267 a56.344990435987064,56.344990435987064 0 0,0 0.6259375358040795,0.7409126115300673 l -27.194959697519426 22.576592213403494" fill="red" stroke="none" /><path d="M 116.15771136456269 86.58626213691792 l 16.01777946678767 -13.297569814706453 a41.81813204933711,41.81813204933711 0 0,0 0.45502410627720874,0.5578057516399122 l -16.244302065141287 13.019879893458441" fill="red" stroke="none" /><line stroke="#5A5A5A" stroke-width="0.3" x1="172.23445277983987" x2="176.4835382374775" y1="55.19839476539836" y2="52.563006222186495" /><path d="M 173.08426987136738 54.67131705675599 a86.0,86.0 0 0,1 12.851231095245387,41.99856678651699" fill="none" id="id99" stroke="none" /><text fill="#5A5A5A" style="font-size:6.75px; font-family:Arial;" text-anchor="middle"><textPath startOffset="22.20632615414155" xlink:href="#id99">March</textPath></text><line stroke="#5A5A5A" stroke-width="0.3" x1="184.98032266829074" x2="189.97916517819016" y1="98.17113171792111" y2="98.06355123074" /><path d="M 185.9800911702706 98.14961562048488 a86.0,86.0 0 0,1 -9.607161424134198,41.387399972396054" fill="none" id="id100" stroke="none" /><text fill="#5A5A5A" style="font-size:6.75px; font-family:Arial;" text-anchor="middle"><textPath startOffset="21.466115282336823" xlink:href="#id100">April</textPath></text><line stroke="#5A5A5A" stroke-width="0.3" x1="174.80103733775053" x2="179.2010983576182" y1="140.37084112569926" y2="142.7455964860345" /><path d="M 175.68104954172406 140.8457921977663 a86.0,86.0 0 0,1 -30.038265399797805,32.042727171017184" fill="none" id="id101" stroke="none" /><text fill="#5A5A5A" style="font-size:6.75px; font-family:Arial;" text-anchor="middle"><textPath startOffset="22.206326154141568" xlink:href="#id101">May</textPath></text><line stroke="#5A5A5A" stroke-width="0.3" x1="143.8653032363475" x2="146.44561519142675" y1="172.8068346515853" y2="177.08958963109032" /><path d="M 144.38136562736335 173.6633856474863 a86.0,86.0 0 0,1 -40.68145358897372,12.25698825130547" fill="none" id="id102" stroke="none" /><text fill="#5A5A5A" style="font-size:6.75px; font-family:Arial;" text-anchor="middle"><textPath startOffset="21.466115282336833" xlink:href="#id102">June</textPath></text><line stroke="#5A5A5A" stroke-width="0.3" x1="102.19456741930631" x2="102.32365962044197" y1="184.97166512339345" y2="189.96999836594603" /><path d="M 102.22038585953345 185.97133177190398 a86.0,86.0 0 0,1 -42.740103519485714,-10.115201625700543" fill="none" id="id103" stroke="none" /><text fill="#5A5A5A" style="font-size:6.75px; font-family:Arial;" text-anchor="middle"><textPath startOffset="22.20632615414155" xlink:href="#id103">July</textPath></text><line stroke="#5A5A5A" stroke-width="0.3" x1="58.666819895761336" x2="56.23545636021788" y1="174.27360380694188" y2="178.64263932499728" /><path d="M 58.180547188652646 175.14741091055294 a86.0,86.0 0 0,1 -31.652253787137756,-30.449443065178592" fill="none" id="id104" stroke="none" /><text fill="#5A5A5A" style="font-size:6.75px; font-family:Arial;" text-anchor="middle"><textPath startOffset="22.20632615414155" xlink:href="#id104">August</textPath></text><line stroke="#5A5A5A" stroke-width="0.3" x1="26.63291911575756" x2="22.317208475507996" y1="142.92168965132927" y2="145.44649492493687" /><path d="M 25.769776987707644 143.4266507060508 a86.0,86.0 0 0,1 -11.730757126820373,-40.83630448921669" fill="none" id="id105" stroke="none" /><text fill="#5A5A5A" style="font-size:6.75px; font-family:Arial;" text-anchor="middle"><textPath startOffset="21.46611528233685" xlink:href="#id105">September</textPath></text><line stroke="#5A5A5A" stroke-width="0.3" x1="15.007084014347285" x2="10.007500721073583" y1="101.09737516637583" y2="101.16192664675087" /><path d="M 14.007167355692545 101.11028546245083 a86.0,86.0 0 0,1 10.666146001902534,-42.60595125391555" fill="none" id="id106" stroke="none" /><text fill="#5A5A5A" style="font-size:6.75px; font-family:Arial;" text-anchor="middle"><textPath startOffset="22.20632615414155" xlink:href="#id106">October</textPath></text><line stroke="#5A5A5A" stroke-width="0.3" x1="26.266209847984243" x2="21.928928074336255" y1="57.711370442889674" y2="55.22380399835377" /><path d="M 25.398753493254645 57.213857153982495 a86.0,86.0 0 0,1 29.58750427330803,-30.492523968695096" fill="none" id="id107" stroke="none" /><text fill="#5A5A5A" style="font-size:6.75px; font-family:Arial;" text-anchor="middle"><textPath startOffset="21.46611528233685" xlink:href="#id107">November</textPath></text><line stroke="#5A5A5A" stroke-width="0.3" x1="56.762969772571076" x2="54.21961505331055" y1="26.818313649435495" y2="22.513508569990535" /><path d="M 56.25429882871897 25.957352633546506 a86.0,86.0 0 0,1 42.265352541879196,-11.944610805530505" fill="none" id="id108" stroke="none" /><text fill="#5A5A5A" style="font-size:6.75px; font-family:Arial;" text-anchor="middle"><textPath startOffset="22.20632615414155" xlink:href="#id108">December</textPath></text></g></svg>