<?xml version="1.0" encoding="utf-8" ?>
<svg baseProfile="full" height="200mm" version="1.1" viewBox="0,0,200,200" width="200mm" xmlns="http://www.w3.org/2000/svg" xmlns:ev="http://www.w3.org/2001/xml-events" xmlns:xlink="http://www.w3.org/1999/xlink"><defs /><rect fill="#FAF9F5" height="200" width="200" x="0" y="0" /><text alignment-baseline="middle" fill="#5A5A5A" style="dominant-baseline: central; font-size:9.0px; font-family:Arial;" text-anchor="middle" x="100.0" y="100.0">2025</text><line stroke="#5A5A5A" stroke-width="0.3" x1="100.0" x2="100.0" y1="15.0" y2="10.0" /><path d="M 100.0 14.0 a86.0,86.0 0 0,1 42.46469731375804,11.215312516191453" fill="none" id="id85" stroke="none" /><text fill="#5A5A5A" style="font-size:6.75px; font-family:Arial;" text-anchor="middle"><textPath startOffset="22.20632615414155" xlink:href="#id85">January</textPath></text><path d="M 100.0 79.0 l 0.0 -49.83869644858791 a70.83869644858791,70.83869644858791 0 0,0 1.2193717115846052,0.010495517290997078 l -0.857891232312077 49.83131230790547" fill="#3cffa6" stroke="none" /><path d="M 101.08401301168833 79.027996857942 l 1.8689390437184865 -36.15767991210078 a57.20594909369276,57.20594909369276 0 0,0 0.9829560697692169,0.059294594465068955 l -2.491057162327315 36.120152048255406" fill="#53ff2b" stroke="none" /><path d="M 101.80526077348638 79.07773832637324 l 1.1772032747465515 -13.643322515523307 a34.69401536484676,34.69401536484676 0 0,0 0.5945478271501592,0.05645948017503232 l -1.411876228986955 13.621037490833096" fill="#ff9f0e" stroke="none" /><path d="M 102.16513564639614 79.11191278185805 l 0.8453905102016258 -8.15588193740831 a29.19957897039123,29.19957897039123 0 0,0 0.49949814331722586,0.05612443639046368 l -0.985655357028577 8.140121547547245" fill="#ff5407" stroke="none" /><path d="M 102.52436894288641 79.15227682838746 l 1.6454800990941596 -13.589342273831118 a34.688602127019706,34.688602127019706 0 0,0 0.5921596643422841,0.07687931952779006 l -1.8791544919442897 13.55900463113919" fill="#ff9f0e" stroke="none" /><path d="M 102.88285421437855 79.19881850522331 l 2.293141360172455 -16.546119255083006 a37.704267709216175,37.704267709216175 0 0,0 0.642105509668471,0.09462966090224571 l -2.5776158502695816 16.504195110019793" fill="#ffc712" stroke="none" /><path d="M 103.2404852339499 79.25152402106235 l 2.291370182475827 -14.671395102147423 a35.84924952839216,35.84924952839216 0 0,0 0.6088752518389136,0.10046963359789411 l -2.543574640453616 14.629779205609903" fill="#ffaf10" stroke="none" /><path d="M 103.59715602781102 79.31037775812273 l 2.3921377701964475 -13.758765656325632 a34.96516936872898,34.96516936872898 0 0,0 0.5920849913801632,0.10819974766270259 l -2.6286178826795115 13.715550427312191" fill="#ffa30f" stroke="none" /><path d="M 104.307194497241 79.44645832069477 l 2.5840239883111615 -12.330728221838694 a33.59857287366378,33.59857287366378 0 0,0 0.5650276413520129,0.12349315757567055 l -2.7958943538167023 12.284421566167152" fill="#ff910d" stroke="none" /><path d="M 104.66035177308747 79.52364482259891 l 3.3495908646502905 -14.717217837424819 a36.093583399404,36.093583399404 0 0,0 0.6046127472644288,0.1430923030230888 l -3.6024272988772426 14.65737962226086" fill="#ffb210" stroke="none" /><path d="M 105.01212808612495 79.60689891045804 l 3.073943661848839 -12.507111303315838 a33.87932307187577,33.87932307187577 0 0,0 0.5651250347355444,0.14406295438787878 l -3.2887775852694086 12.452345352759092" fill="#ff940d" stroke="none" /><path d="M 105.36241919743992 79.69619591428918 l 3.745623807734569 -14.182108703348693 a35.66839817371572,35.66839817371572 0 0,0 0.5922688443420862,0.1618894482439027 l -3.989190541300366 14.115532714278496" fill="#ffac10" stroke="none" /><path d="M 106.0581310904928 79.89281104454417 l 7.286253736855366 -24.1833790777924 a46.25718347595483,46.25718347595483 0 0,0 0.760412207290651,0.23626377430216255 l -7.701451316856735 24.054375168607717" fill="#ccff1d" stroke="none" /><path d="M 106.40334571778207 80.00007090966166 l 4.255050352007795 -13.290037593886385 a34.95458894933975,34.95458894933975 0 0,0 0.5714528965601764,0.1883990353916678 l -4.483186070810389 13.21482483423548" fill="#ffa30f" stroke="none" /><path d="M 106.74666289553966 80.11325718540242 l 4.055207134986724 -11.95329640772743 a33.62244033135577,33.62244033135577 0 0,0 0.5464735215428815,0.1906538813774384 l -4.26036266059288 11.881721673177784" fill="#ff910d" stroke="none" /><path d="M 107.76421540070413 80.48803036053334 l 9.39433098106592 -23.608554300159636 a46.40900019137709,46.40900019137709 0 0,0 0.739706712396644,0.3017449409160346 l -9.799321563050952 23.44334847306002" fill="#caff1d" stroke="none" /><path d="M 108.43124777332544 80.76684994638697 l 12.11198059571274 -27.62954505747045 a51.16772835388359,51.16772835388359 0 0,0 0.8036205604069119,0.36056112047750505 l -12.585783274586433 27.416963606476415" fill="#94ff23" stroke="none" /><path d="M 109.73455568895987 81.39251694778311 l 5.886265945111705 -11.251524703764945 a33.69822566093447,33.69822566093447 0 0,0 0.5116593416759873,0.27331070043817274 l -6.079070333316004 11.148535276825017" fill="#ff920d" stroke="none" /><path d="M 110.05341064243156 81.56283822128135 l 2.507158582639909 -4.597930994476401 a26.2370615414058,26.2370615414058 0 0,0 0.3946502721173635,0.21962244915452914 l -2.5859329438293077 4.554093147761692" fill="#ff2904" stroke="none" /><path d="M 110.36928655335952 81.73862282372117 l 9.92882099711872 -17.485672154117328 a41.107964021106156,41.107964021106156 0 0,0 0.6123193079761775,0.3546948656563742 l -10.228337037560225 17.312173131070903" fill="#fff316" stroke="none" /><line stroke="#5A5A5A" stroke-width="0.3" x1="143.23703022742887" x2="145.7803849466894" y1="26.81831364943548" y2="22.513508569990506" /><path d="M 143.74570117128098 25.957352633546492 a86.0,86.0 0 0,1 28.547481713284135,27.462654790039103" fill="none" id="id86" stroke="none" /><text fill="#5A5A5A" style="font-size:6.75px; font-family:Arial;" text-anchor="middle"><textPath startOffset="19.985693538727396" xlink:href="#id86">February</textPath></text><path d="M 110.99172775467656 82.1063720568725 l 7.171267480765427 -11.674233118343981 a34.700904940263,34.700904940263 0 0,0 0.5062710794784427,0.3170269035240027 l -7.3711577126161325 11.549061873497033" fill="#ffa00e" stroke="none" /><path d="M 111.2981086023043 82.29822771554956 l 8.981157714427086 -14.071595017160533 a37.69344123356207,37.69344123356207 0 0,0 0.5439216954967507,0.3537818009173663 l -9.222046435708116 13.914914292083639" fill="#ffc712" stroke="none" /><path d="M 111.60114157652 82.49532879139004 l 7.709687367202597 -11.63295367045575 a34.955819230664076,34.955819230664076 0 0,0 0.4986952068895469,0.33672122981925756 l -7.908787268498686 11.498520528337822" fill="#ffa30f" stroke="none" /><path d="M 113.06298171725822 83.55741782278167 l 8.0153675014671 -10.089070143102052 a33.885474478497414,33.885474478497414 0 0,0 0.45357579590168073,0.36676008287020995 l -8.18784669593327 9.949603962967712" fill="#ff950d" stroke="none" /><path d="M 113.34407831869373 83.78471172551755 l 8.02492780926274 -9.751630251361155 a33.62908385050715,33.62908385050715 0 0,0 0.4438117680065677,0.37167959236232906 l -8.191597114228426 9.612049501605007" fill="#ff910d" stroke="none" /><path d="M 114.16331599549186 84.49514656593476 l 16.10256497261627 -17.62778645144941 a44.87533149246795,44.87533149246795 0 0,0 0.5658397138713497,0.5258863466036486 l -16.40361257028247 17.34799551877112" fill="#ddff1b" stroke="none" /><path d="M 114.68862486808459 84.99185889309783 l 21.24546582609486 -21.707610607764042 a51.374169560106075,51.374169560106075 0 0,0 0.6266772874968033,0.6239861360669058 l -21.615978913758987 21.338688621047016" fill="#91ff23" stroke="none" /><path d="M 115.4437574822437 85.77008943001954 l 12.269583650344677 -11.305220136747044 a37.6838450392323,37.6838450392323 0 0,0 0.43543926880045597,0.4808229163442156 l -12.462366559761168 11.09234443313328" fill="#ffc712" stroke="none" /><path d="M 115.9244219780498 86.31012108654704 l 10.625880126402134 -9.134837828325756 a35.0126582278481,35.0126582278481 0 0,0 0.38895626467428196,0.460401534253099 l -10.781547004563532 8.95057734444355" fill="#ffa40f" stroke="none" /><path d="M 116.15771136456269 86.58626213691792 l 9.777397233501619 -8.116956697286822 a33.70757579899937,33.70757579899937 0 0,0 0.36677294754857637,0.4496202659730758 l -9.915668673126605 7.947452261705646" fill="#ff920d" stroke="none" /><path d="M 116.38621287248628 86.86637796730983 l 2.6163387938560616 -2.0970071056300297 a24.353008721327612,24.353008721327612 0 0,0 0.25935481075164407,0.32935427176119203 l -2.6520476852016697 2.0516604399157994" fill="#ff0d01" stroke="none" /><path d="M 117.04232023915458 87.72973835380427 l 10.259977458996502 -7.387057990890256 a33.64261694507478,33.64261694507478 0 0,0 0.33432331396234055,0.47287661817498283 l -10.385613392762727 7.2093548723834795" fill="#ff910d" stroke="none" /><path d="M 117.2510076193507 88.02491185347247 l 10.773701941333293 -7.4787533145114296 a34.1150449736173,34.1150449736173 0 0,0 0.33071373853520636,0.4852816033684736 l -10.900840145537233 7.292193687872549" fill="#ff980e" stroke="none" /><path d="M 117.45458315368197 88.32363383020206 l 10.501422858727713 -7.025000684506476 a33.6344970883342,33.6344970883342 0 0,0 0.31777130430331346,0.4839874974900055 l -10.620790798388951 6.843195123038797" fill="#ff910d" stroke="none" /><path d="M 117.65298651832404 88.62581576622439 l 20.948283292031544 -13.497412083647328 a45.920086393088546,45.920086393088546 0 0,0 0.42240445091172846,0.6681424006940513 l -21.17751533918923 13.13482203523907" fill="#d0ff1d" stroke="none" /><line stroke="#5A5A5A" stroke-width="0.3" x1="172.23445277983987" x2="176.4835382374775" y1="55.19839476539836" y2="52.563006222186495" /><path d="M 173.08426987136738 54.67131705675599 a86.0,86.0 0 0,1 12.851231095245387,41.99856678651699" fill="none" id="id87" stroke="none" /><text fill="#5A5A5A" style="font-size:6.75px; font-family:Arial;" text-anchor="middle"><textPath startOffset="22.20632615414155" xlink:href="#id87">March</textPath></text><path d="M 118.56541770881063 90.18545643968196 l 19.157027749023985 -10.127296152339712 a42.66919102168029,42.66919102168029 0 0,0 0.33767700202344386,0.6522844874782552 l -19.328514184207545 9.796038942601111" fill="#f8ff18" stroke="none" /><path d="M 118.73160827565052 90.50648371742162 l 11.696839131255611 -5.928168639508817 a34.113322579763235,34.113322579763235 0 0,0 0.26095065225377984,0.5260605915189805 l -11.797149796462799 5.725948459490886" fill="#ff980e" stroke="none" /><path d="M 118.89224826269711 90.83032412892265 l 11.879717006168972 -5.766023867142596 a34.20510156655822,34.20510156655822 0 0,0 0.2525343203193029,0.531901682873582 l -11.977209520330032 5.560679768628473" fill="#ff990e" stroke="none" /><path d="M 119.196687751892 91.48605970444005 l 15.748258190534083 -6.984524191161847 a38.22762938458594,38.22762938458594 0 0,0 0.2616031182502821,0.6038160651092132 l -15.866152018627044 6.712408981466031" fill="#ffce13" stroke="none" /><path d="M 119.61058180528143 92.48833698450437 l 11.806835702559932 -4.522505857172864 a33.64335511386937,33.64335511386937 0 0,0 0.20249360541921282,0.5425821890368293 l -11.88293389648077 4.318600531106701" fill="#ff910d" stroke="none" /><path d="M 119.7369772167798 92.82701384747503 l 11.870445993039818 -4.314062067213666 a33.63006807556661,33.63006807556661 0 0,0 0.1930476713650444,0.5457717630279827 l -11.942946745214671 4.109092677759069" fill="#ff910d" stroke="none" /><path d="M 119.85752413597 93.16781622104841 l 12.239135547214635 -4.210999457006823 a33.9432977007409,33.9432977007409 0 0,0 0.18533477965130507,0.5541274013013884 l -12.309807620637711 3.999698952783121" fill="#ff950d" stroke="none" /><path d="M 120.08093135843002 93.85539295169968 l 23.539344917228988 -7.20285439500082 a45.616699018508896,45.616699018508896 0 0,0 0.22329179296824347,0.7528289215925522 l -23.659842607308935 6.796596086661738" fill="#d4ff1c" stroke="none" /><path d="M 120.28053869075195 94.5502522615342 l 24.98712483194325 -6.7144926039731505 a46.873554419443906,46.873554419443906 0 0,0 0.20268050855059483,0.7810106780282811 l -25.09900167236415 6.283385500396019" fill="#c5ff1e" stroke="none" /><path d="M 120.37134235888165 94.90015583598534 l 19.421036690079305 -4.861940802827519 a41.020367990813895,41.020367990813895 0 0,0 0.16558008223104811,0.686436338797037 l -19.501849572571174 4.5269192323710765" fill="#fff216" stroke="none" /><path d="M 120.45610955862082 95.25157060432595 l 26.037060418091066 -6.043922609619646 a47.72933810864751,47.72933810864751 0 0,0 0.17888413399181477,0.8019024970315085 l -26.137238939084916 5.5948419430381735" fill="#bbff1f" stroke="none" /><path d="M 120.67395015179393 96.31383870115 l 28.47507818293536 -5.07710091245219 a49.92415999125133,49.92415999125133 0 0,0 0.14356319462086795,0.847318101298849 l -28.55825323907645 4.586197022837503" fill="#a2ff22" stroke="none" /><path d="M 120.78858239683441 97.02765380044208 l 12.692662916000815 -1.8147937007186001 a33.821745905897146,33.821745905897146 0 0,0 0.07744213628594206,0.5770338665444038 l -12.722021051344594 1.596041492109532" fill="#ff940d" stroke="none" /><path d="M 120.83666639777658 97.38593545837742 l 24.438419183222525 -3.0659225338938003 a45.62998605681165,45.62998605681165 0 0,0 0.09106364800438745,0.780177724468947 l -24.4875731842305 2.6448010711000007" fill="#d4ff1c" stroke="none" /><path d="M 120.91429891909075 98.10471618934814 l 12.909100013186839 -1.1698411866316794 a33.961997976870705,33.961997976870705 0 0,0 0.047749786704208694,0.5826683435659251 l -12.927324283710542 0.9474589258579855" fill="#ff960d" stroke="none" /><path d="M 120.98425023603335 99.18683210126433 l 8.20670645149748 -0.31802090451844206 a29.212866008693986,29.212866008693986 0 0,0 0.015146600520426696,0.5026419318197454 l -8.210964746473552 0.17670882527369758" fill="#ff5407" stroke="none" /><line stroke="#5A5A5A" stroke-width="0.3" x1="184.98032266829074" x2="189.97916517819016" y1="98.17113171792111" y2="98.06355123074" /><path d="M 185.9800911702706 98.14961562048488 a86.0,86.0 0 0,1 -9.607161424134198,41.387399972396054" fill="none" id="id88" stroke="none" /><text fill="#5A5A5A" style="font-size:6.75px; font-family:Arial;" text-anchor="middle"><textPath startOffset="21.466115282336823" xlink:href="#id88">April</textPath></text><path d="M 120.99513854157772 99.54816195383933 l 23.496377458046464 -0.5056674077893208 a44.501818082401506,44.501818082401506 0 0,0 0.009889984201870724,0.7659901755798767 l -23.50160044936605 0.10114097414898139" fill="#e1ff1b" stroke="none" /><path d="M 120.99824983174949 100.27111621757518 l 26.656744222804715 0.34417514433172414 a47.65896601689586,47.65896601689586 0 0,0 -0.017651830960798854,0.820211223210428 l -26.646870329158908 -0.8029761833322671" fill="#bcff1f" stroke="none" /><path d="M 120.9904718944345 100.63252640178507 l 37.137638282366474 1.1191047457951204 a58.154495994750796,58.154495994750796 0 0,0 -0.03876375757332179,1.0003203400827063 l -37.11287239194195 -1.758202332891833" fill="#49ff2c" stroke="none" /><path d="M 120.95626037817324 101.35467743843564 l 25.945136833833477 1.6771738311920865 a46.999289170790384,46.999289170790384 0 0,0 -0.0591372838201052,0.806881252934589 l -25.912422991349032 -2.1235282206234456" fill="#c3ff1e" stroke="none" /><path d="M 120.92983693683757 101.71520430193887 l 12.400020405574008 1.0161841397978864 a33.44158897667933,33.44158897667933 0 0,0 -0.05195454007144143,0.5733140203863581 l -12.38069126922549 -1.229479548732815" fill="#ff8f0d" stroke="none" /><path d="M 120.5718875245553 104.21870165774334 l 17.392970523984953 3.56679733422772 a38.75492796019357,38.75492796019357 0 0,0 -0.1396394703939526,0.6523491173071593 l -17.32899701486656 -3.8656602709510484" fill="#ffd513" stroke="none" /><path d="M 120.49622156327973 104.57218783832717 l 12.8136307093492 2.85839642751828 a34.12857806818492,34.12857806818492 0 0,0 -0.13284050747087534,0.5722734294254418 l -12.762529635947772 -3.0785385142922865" fill="#ff980e" stroke="none" /><path d="M 120.41448212921028 104.9243191809786 l 22.74153806765377 5.485644524445971 a44.39379938212538,44.39379938212538 0 0,0 -0.18558444291454887,0.7413175974613551 l -22.643742310444164 -5.876289961304722" fill="#e3ff1b" stroke="none" /><path d="M 120.32669344350535 105.2749913415812 l 12.275849696631326 3.1857124741049616 a33.68247805998305,33.68247805998305 0 0,0 -0.15046752668489968,0.5599456420883692 l -12.21919409360465 -3.396549049368879" fill="#ff920d" stroke="none" /><path d="M 120.02730092923936 106.31721596034902 l 50.96468951547747 16.07580328267602 a74.4399759411652,74.4399759411652 0 0,0 -0.39597724508534743,1.218692648295193 l -50.680420019375866 -16.950694830949008" fill="#41ffcd" stroke="none" /><path d="M 119.79798401119884 107.00284435728193 l 9.274251978421992 3.280442245956256 a30.837329469338655,30.837329469338655 0 0,0 -0.18131724023104237,0.49890717245978866 l -9.216410477185722 -3.439597215422176" fill="#ff6b09" stroke="none" /><path d="M 119.54520255179757 107.68017299344265 l 11.9797658640334 4.707378908603514 a33.87144927140006,33.87144927140006 0 0,0 -0.21790210704188082,0.540815159656215 l -11.896961142734128 -4.912893436102542" fill="#ff940d" stroke="none" /><path d="M 119.26925614724726 108.34839909993367 l 31.641545656200446 13.708689596431064 a55.483555239631464,55.483555239631464 0 0,0 -0.3872195081510899,0.8730777679160034 l -31.400885063318086 -14.251315700839756" fill="#65ff29" stroke="none" /><path d="M 118.97047184881838 109.00673069616215 l 21.1220328688889 10.028240906270197 a44.381742625146956,44.381742625146956 0 0,0 -0.33359588281635083,0.6873063264383085 l -20.946283729457836 -10.39033618867378" fill="#e3ff1b" stroke="none" /><path d="M 118.81262510543309 109.33194174019688 l 11.451396312893987 5.68042804430147 a33.78286901604834,33.78286901604834 0 0,0 -0.26289720919232645,0.5187211348011586 l -11.35192043391539 -5.876703390805323" fill="#ff930d" stroke="none" /><line stroke="#5A5A5A" stroke-width="0.3" x1="174.80103733775053" x2="179.2010983576182" y1="140.37084112569926" y2="142.7455964860345" /><path d="M 175.68104954172406 140.8457921977663 a86.0,86.0 0 0,1 -30.038265399797805,32.042727171017184" fill="none" id="id89" stroke="none" /><text fill="#5A5A5A" style="font-size:6.75px; font-family:Arial;" text-anchor="middle"><textPath startOffset="22.206326154141568" xlink:href="#id89">May</textPath></text><path d="M 118.48025628344425 109.97397251340804 l 17.823224452558353 9.619366098801079 a41.2533832736419,41.2533832736419 0 0,0 -0.34264586823150756,0.6220017790604712 l -17.65500217487534 -9.924738396259356" fill="#fff517" stroke="none" /><path d="M 118.30583269289576 110.29060199501025 l 11.847288914486827 6.65993932011597 a34.59091778986795,34.59091778986795 0 0,0 -0.29624321503642354,0.5165250158309115 l -11.730893703298023 -6.862884181805196" fill="#ff9e0e" stroke="none" /><path d="M 118.12598468904814 110.60418214915192 l 5.697984016760796 3.333471887637396 a27.601443530087213,27.601443530087213 0 0,0 -0.2434435809575041,0.4080254445333911 l -5.639759560105065 -3.4310594260568914" fill="#ff3d05" stroke="none" /><path d="M 117.75023020441432 111.22182372390056 l 22.364795067956333 14.13918495611124 a47.45941438608962,47.45941438608962 0 0,0 -0.44249154875093333,0.6867567101099854 l -22.11809865582835 -14.522063266142679" fill="#beff1f" stroke="none" /><path d="M 117.14729908036423 112.12312394758627 l 18.700701500187183 13.221377963436446 a43.90242502118817,43.90242502118817 0 0,0 -0.44157520610428075,0.6133093400199057 l -18.4703465017073 -13.541320908907483" fill="#e9ff1a" stroke="none" /><path d="M 116.71984013943494 112.70617746262583 l 35.93480161541497 27.308512677271743 a66.13385460808706,66.13385460808706 0 0,0 -0.6965884662095375,0.9004344936460362 l -35.45940633198737 -27.92302516503103" fill="#36ff71" stroke="none" /><path d="M 115.56566222782051 114.09645910891815 l 11.430811870011807 10.351886720204098 a36.421576400470244,36.421576400470244 0 0,0 -0.42483790313111564,0.46107763734392054 l -11.25092755888497 -10.547115612349353" fill="#ffb610" stroke="none" /><path d="M 115.07121518719521 114.62390073753431 l 9.276214956901455 9.000896415108764 a33.92533559340569,33.92533559340569 0 0,0 -0.4102693820039286,0.4156007179190344 l -9.119904949841992 -9.159237627008462" fill="#ff950d" stroke="none" /><path d="M 114.81725581225074 114.88116024355365 l 8.907055083698717 8.945469773768176 a33.6236706126801,33.6236706126801 0 0,0 -0.41365128114697675,0.4048448406562621 l -8.751753850175946 -9.097464717347009" fill="#ff910d" stroke="none" /><path d="M 114.29624159901734 115.38237550388516 l 10.44767654270221 11.24142192266984 a36.346775295951005,36.346775295951005 0 0,0 -0.46195098580552296,0.42198127278118797 l -10.252626007429821 -11.41959596203761" fill="#ffb510" stroke="none" /><path d="M 114.0293411484842 115.62618273729858 l 10.253776676523668 11.420877602090432 a36.34849768980507,36.34849768980507 0 0,0 -0.46916848853232834,0.41398664184499023 l -10.055665835084751 -11.595687385707711" fill="#ffb610" stroke="none" /><path d="M 113.75828350139079 115.86535959552629 l 10.787054399863669 12.439087842101882 a37.46485496350165,37.46485496350165 0 0,0 -0.4908511912139558,0.41831403394170985 l -10.571337732072665 -12.622926266266537" fill="#ffc412" stroke="none" /><path d="M 113.20401910651253 116.32954008644616 l 21.254665385859308 26.285853393774765 a54.80394783607184,54.80394783607184 0 0,0 -0.7386593716432988,0.5868356784268914 l -20.79904852149866 -26.647822986206783" fill="#6cff28" stroke="none" /><path d="M 112.92097659922987 116.55440617244103 l 9.489112650258717 12.157488547560247 a36.42231456926484,36.42231456926484 0 0,0 -0.49754836627118826,0.3814988707060006 l -9.278435555494035 -12.31902676009362" fill="#ffb610" stroke="none" /><path d="M 112.34349029814194 116.9893568818739 l 3.7124623881089067 5.109766111422335 a27.31601826284277,27.31601826284277 0 0,0 -0.38277893746359104,0.27310260846914003 l -3.6239561227964314 -5.172912981735695" fill="#ff3905" stroke="none" /><path d="M 112.04921762599082 117.19931262002967 l 14.303819336056845 20.417579635261735 a45.929436531153456,45.929436531153456 0 0,0 -0.6514174506644904,0.44805086250848125 l -13.95024500076947 -20.66077128713531" fill="#d0ff1d" stroke="none" /><path d="M 111.7513745106137 117.40417183066458 l 8.584173026254211 12.7134423499266 a36.34013177679962,36.34013177679962 0 0,0 -0.5214381502606452,0.34558077283948324 l -8.364060177253602 -12.859321143857402" fill="#ffb510" stroke="none" /><path d="M 111.1453310114006 117.79835938074945 l 7.191300014479921 11.48403236669934 a34.54982639363534,34.54982639363534 0 0,0 -0.5067650079984474,0.3112964582263386 l -6.9925558065491655 -11.606117291754057" fill="#ff9e0e" stroke="none" /><line stroke="#5A5A5A" stroke-width="0.3" x1="143.8653032363475" x2="146.44561519142675" y1="172.8068346515853" y2="177.08958963109032" /><path d="M 144.38136562736335 173.6633856474863 a86.0,86.0 0 0,1 -40.68145358897372,12.25698825130547" fill="none" id="id90" stroke="none" /><text fill="#5A5A5A" style="font-size:6.75px; font-family:Arial;" text-anchor="middle"><textPath startOffset="21.466115282336833" xlink:href="#id90">June</textPath></text><path d="M 110.5260780823613 118.17145234162733 l 7.687265464974047 13.2707335952877 a36.33644093282663,36.33644093282663 0 0,0 -0.5439240482347175,0.30885427013333483 l -7.457692649818131 -13.401091031215664" fill="#ffb510" stroke="none" /><path d="M 110.21172684928248 118.3499491758327 l 3.6370146075907157 6.535528631549721 a28.47937228312874,28.47937228312874 0 0,0 -0.4304144330935877,0.23469626693376747 l -3.5239773626284796 -6.5971655502432585" fill="#ff4906" stroke="none" /><path d="M 109.89434966115114 118.52300852407294 l 8.237878193034001 15.421962353823917 a38.48426606884107,38.48426606884107 0 0,0 -0.586993358640033,0.307087182221039 l -7.971193931867473 -15.561478954989672" fill="#ffd113" stroke="none" /><path d="M 109.57404056367764 118.69057910512821 l 7.09429304856921 13.849580491886938 a36.56084424638434,36.56084424638434 0 0,0 -0.5625949500018252,0.282096787210494 l -6.854844190884625 -13.969645120006735" fill="#ffb811" stroke="none" /><path d="M 109.2508944713604 118.85261126421891 l 7.25470377912917 14.784528199776261 a37.46854580747464,37.46854580747464 0 0,0 -0.5814535441480465,0.2791330360647498 l -6.999137566980891 -14.90721551234057" fill="#ffc412" stroke="none" /><path d="M 108.92500713936063 119.00905698771935 l 7.285042872645403 15.51615510909448 a38.14126363561801,38.14126363561801 0 0,0 -0.5966964660082299,0.2739140814308565 l -7.0168784108697535 -15.639256260859412" fill="#ffcd13" stroke="none" /><path d="M 108.59647513512805 119.15986991738527 l 15.679193858372031 34.94587141982113 a59.30210241408535,59.30210241408535 0 0,0 -0.9349380980301032,0.4098493868783944 l -15.075335085684173 -35.21058535999398" fill="#3dff2e" stroke="none" /><path d="M 108.2653958097858 119.30500536409082 l 4.872967645096945 11.381507757470047 a33.38081307925746,33.38081307925746 0 0,0 -0.5301644698625143,0.2216087914001426 l -4.676331715736969 -11.463701591890162" fill="#ff8e0d" stroke="none" /><path d="M 107.93186726928326 119.44442032107085 l 4.882745705852672 11.969711116217688 a33.92730404352462,33.92730404352462 0 0,0 -0.5426412559494995,0.21592815458151446 l -4.675983373861307 -12.051986115205272" fill="#ff950d" stroke="none" /><path d="M 107.59598834532513 119.57807347666477 l 6.52126037889131 16.80804512252475 a39.02878858298931,39.02878858298931 0 0,0 -0.6284188413123849,0.2376142341215966 l -6.230971316818651 -16.917807606752977" fill="#ffd814" stroke="none" /><path d="M 107.2578585660854 119.70592522655815 l 6.561437047287149 17.81506027642914 a39.984963228258195,39.984963228258195 0 0,0 -0.6479095645483617,0.23231731832888364 l -6.253807922109053 -17.925365135797986" fill="#ffe515" stroke="none" /><path d="M 106.91757812671514 119.82793768551818 l 5.076188583613228 14.54994061102371 a36.41001175602155,36.41001175602155 0 0,0 -0.5935356689617887,0.2013595243975509 l -4.824983181714212 -14.635163122319383" fill="#ffb610" stroke="none" /><path d="M 106.57524785965236 119.94407469862006 l 0.7740404615616444 2.3478233999160563 a23.47212729310769,23.47212729310769 0 0,0 -0.3848072577297782,0.1232031321123937 l -0.7335118587409258 -2.3607993786881565" fill="#ff0000" stroke="none" /><path d="M 106.2309692047433 120.05430185196036 l 11.92717879354908 38.38748610505891 a61.19771987861224,61.19771987861224 0 0,0 -1.0086696360563494,0.30390388710058464 l -11.264634183052484 -38.587105361265216" fill="#30ff36" stroke="none" /><path d="M 105.88484417918355 120.15858648285463 l 0.8051584971077809 2.758077648642906 a23.87319900483911,23.87319900483911 0 0,0 -0.3954638976866509,0.11176204766835235 l -0.7575634313165243 -2.771528489649777" fill="#ff0601" stroke="none" /><path d="M 105.53697534728816 120.25689768951611 l 4.979923695114873 18.218936958595254 a39.88727889110643,39.88727889110643 0 0,0 -0.6638564372707103,0.17533051878046058 l -4.665576815032665 -18.3019588266793" fill="#ffe315" stroke="none" /><path d="M 105.18746579009965 120.34920634021253 l 4.365863953191521 17.126255869743964 a38.673975449052676,38.673975449052676 0 0,0 -0.6464939070148399,0.15889247322563635 l -4.07041676143347 -17.198869601283633" fill="#ffd413" stroke="none" /><path d="M 104.83641907484287 120.43548508189849 l 4.311029739047618 18.21553975299187 a39.718730349673294,39.718730349673294 0 0,0 -0.6666691495218113,0.15173172794275966 l -3.996840440132945 -18.287048214512314" fill="#ffe115" stroke="none" /><path d="M 104.48393922423573 120.51570834832081 l 3.2899920499712794 15.052950985750579 a36.40828936216748,36.40828936216748 0 0,0 -0.6134077929087999,0.12854556705629577 l -3.0303927956331016 -15.107352533533415" fill="#ffb610" stroke="none" /><path d="M 104.13013068566511 120.58985236759428 l 7.339898706262358 36.5914403821585 a58.320337917270415,58.320337917270415 0 0,0 -0.9859813661787045,0.1889656754835783 l -6.708949725511949 -36.712363255990546" fill="#47ff2c" stroke="none" /><path d="M 103.7750983002368 120.6578951692458 l 3.4157371448203633 18.691417878832908 a40.00095688547448,40.00095688547448 0 0,0 -0.6783991398506629,0.11794838623183454 l -3.0934890334976504 -18.747444843585747" fill="#ffe515" stroke="none" /><path d="M 103.41894727170886 120.7198165907248 l 4.846180393389767 29.369265138275903 a50.7664105858873,50.7664105858873 0 0,0 -0.8634257711716129,0.1348493482091715 l -4.339918758609637 -29.44833279383218" fill="#98ff23" stroke="none" /><path d="M 103.06178313531738 120.77559828337769 l 2.0702991687519927 14.047926308126218 a35.19966098914618,35.19966098914618 0 0,0 -0.6001901047680732,0.08318087957616505 l -1.828180472797089 -14.081481753194986" fill="#ffa60f" stroke="none" /><path d="M 102.70371172650421 120.8252237178851 l 1.9425744093974515 14.962596148017065 a36.08817016157695,36.08817016157695 0 0,0 -0.6167168868212097,0.07467582636385206 l -1.6847300995248615 -14.993817503106268" fill="#ffb210" stroke="none" /><path d="M 102.34483914955558 120.86867818915974 l 6.109179716246718 54.37068274907383 a75.71282499931652,75.71282499931652 0 0,0 -1.2963744708885074,0.1343745144630081 l -5.172372648752608 -54.467786631992595" fill="#42ffdb" stroke="none" /><path d="M 101.62511606390274 120.93702456842531 l 0.20364807279484443 2.6236801162241936 a23.631571752740793,23.631571752740793 0 0,0 -0.40582975216014544,0.02798839577013601 l -0.15845555985576865 -2.6267968565106146" fill="#ff0200" stroke="none" /><path d="M 100.90346689309514 120.98055641714683 l 0.6385197105641655 14.827880150712925 a35.841621784181314,35.841621784181314 0 0,0 -0.6166118339809117,0.02123735831410839 l -0.3831875249086015 -14.836674307453128" fill="#ffaf10" stroke="none" /><line stroke="#5A5A5A" stroke-width="0.3" x1="102.19456741930631" x2="102.32365962044197" y1="184.97166512339345" y2="189.96999836594603" /><path d="M 102.22038585953345 185.97133177190398 a86.0,86.0 0 0,1 -42.740103519485714,-10.115201625700543" fill="none" id="id91" stroke="none" /><text fill="#5A5A5A" style="font-size:6.75px; font-family:Arial;" text-anchor="middle"><textPath startOffset="22.20632615414155" xlink:href="#id91">July</textPath></text><path d="M 100.18074693466247 120.99922214144158 l 0.14367404334225797 16.692084752294043 a37.69270306476748,37.69270306476748 0 0,0 -0.6488419560094154,0.0 l 0.14367404334224648 -16.692084752294043" fill="#ffc712" stroke="none" /><path d="M 99.45781275523022 120.99299961872073 l -0.44198258679772906 17.1131659138638 a38.118872515515214,38.118872515515214 0 0,0 -0.6557891836649739,-0.02258670545145663 l 0.736492122137346 -17.10302240998625" fill="#ffcd13" stroke="none" /><path d="M 99.09653310690486 120.98055641714683 l -1.0621352690648758 24.665197037729726 a45.68805533532001,45.68805533532001 0 0,0 -0.785425386049299,-0.040597521010299245 l 1.4865487235276638 -24.643259709957224" fill="#d3ff1c" stroke="none" /><path d="M 98.73552117531835 120.96189622390904 l -1.5584796952994964 25.835695309616792 a46.88265850124395,46.88265850124395 0 0,0 -0.8051253585348973,-0.05552615859064734 l 2.002967814613324 -25.805040806509858" fill="#c5ff1e" stroke="none" /><path d="M 98.37488393609728 120.93702456842531 l -0.9552132371905824 12.30639673028393 a33.34341252699784,33.34341252699784 0 0,0 -0.5718485470231491,-0.049341498850354236 l 1.1669061019552733 -12.288130979154914" fill="#ff8d0d" stroke="none" /><path d="M 97.65516085044442 120.86867818915974 l -1.5898884768314492 14.149742845234075 a35.23878393525986,35.23878393525986 0 0,0 -0.6022015809229528,-0.07291822496516176 l 1.8332174808057913 -14.120279091543564" fill="#ffa70f" stroke="none" /><path d="M 96.22490169976321 120.6578951692458 l -0.5003160089749419 2.737803056479746 a23.783142411898186,23.783142411898186 0 0,0 -0.402085037308443,-0.0770605543706154 l 0.54736866085508 -2.7287853037606626" fill="#ff0500" stroke="none" /><path d="M 95.86986931433489 120.58985236759428 l -7.563762858425339 37.70746556253131 a59.45859419854006,59.45859419854006 0 0,0 -1.0017599199451714,-0.2099285311537772 l 8.211714239799898 -37.571681050650994" fill="#3cff2e" stroke="none" /><path d="M 94.81253420990036 120.34920634021253 l -4.369997085336145 17.142469173550825 a38.69070727506356,38.69070727506356 0 0,0 -0.6439415222389407,-0.1700708087167245 l 4.664429050386575 -17.06470701553052" fill="#ffd413" stroke="none" /><path d="M 94.46302465271185 120.25689768951611 l -1.8768136083373892 6.86627966747267 a28.1181616863056,28.1181616863056 0 0,0 -0.46578247908860615,-0.13163478116586955 l 1.9947272555306093 -6.832956092968279" fill="#ff4406" stroke="none" /><path d="M 93.76903079525671 120.05430185196036 l -15.476976105751822 49.812467431880414 a73.161467588922,73.161467588922 0 0,0 -1.1994253167946107,-0.3840181098345244 l 16.332122767637372 -49.53867647538618" fill="#3fffc0" stroke="none" /><path d="M 93.08242187328487 119.8279376855182 l -5.856242855323851 16.785819585930973 a38.778057249090956,38.778057249090956 0 0,0 -0.6283530646974421,-0.22530505326927988 l 6.14431548065102 -16.682526991621735" fill="#ffd513" stroke="none" /><path d="M 92.7421414339146 119.70592522655815 l -4.393255301526772 11.9281961317911 a33.711512699237225,33.711512699237225 0 0,0 -0.5428031593728572,-0.20524170905475886 l 4.597928681659913 -11.850806172629708" fill="#ff920d" stroke="none" /><path d="M 91.40352486487194 119.15986991738527 l -5.577020279218068 12.430092729494783 a34.623889329359976,34.623889329359976 0 0,0 -0.5416693217000805,-0.248653818389979 l 5.790157596685568 -12.332251840770729" fill="#ff9f0e" stroke="none" /><path d="M 90.7491055286396 118.85261126421891 l -3.256866643530465 6.63724366978451 a28.393252590425675,28.393252590425675 0 0,0 -0.43691279156059026,-0.21907714384924873 l 3.3706333427738158 -6.58019868502596" fill="#ff4806" stroke="none" /><line stroke="#5A5A5A" stroke-width="0.3" x1="58.666819895761336" x2="56.23545636021788" y1="174.27360380694188" y2="178.64263932499728" /><path d="M 58.180547188652646 175.14741091055294 a86.0,86.0 0 0,1 -31.652253787137756,-30.449443065178592" fill="none" id="id92" stroke="none" /><text fill="#5A5A5A" style="font-size:6.75px; font-family:Arial;" text-anchor="middle"><textPath startOffset="22.20632615414155" xlink:href="#id92">August</textPath></text><path d="M 89.7882731507175 118.34994917583269 l -6.027989470356298 10.831987777000197 a33.39631462394401,33.39631462394401 0 0,0 -0.49991298487257707,-0.2838636397381144 l 6.213551222150082 -10.72662097146745" fill="#ff8e0d" stroke="none" /><path d="M 88.54995079064634 117.60387380957326 l -4.27097805310645 6.566413586146228 a28.833201192005905,28.833201192005905 0 0,0 -0.41372252549868915,-0.2741927303007493 l 4.383375277345102 -6.491922834754161" fill="#ff4e07" stroke="none" /><path d="M 88.24862548938628 117.40417183066458 l -6.8951243525556976 10.21190575768758 a33.32175957568964,33.32175957568964 0 0,0 -0.4726026991366876,-0.3250604458876982 l 7.069883936315275 -10.09170452243478" fill="#ff8d0d" stroke="none" /><path d="M 87.95078237400918 117.19931262002967 l -7.093743400445261 10.125762035151025 a33.36334308445198,33.36334308445198 0 0,0 -0.46752000577885916,-0.3335631106971751 l 7.266990734073007 -10.002154662609632" fill="#ff8d0d" stroke="none" /><path d="M 87.07902340077011 116.55440617244103 l -5.951777108708334 7.625440302342701 a30.6732099406731,30.6732099406731 0 0,0 -0.41342010704833193,-0.3284459363932418 l 6.0821547084740235 -7.521860451944328" fill="#ff6809" stroke="none" /><path d="M 86.79598089348748 116.32954008644616 l -7.745762410257689 9.579260432606132 a33.31905295677612,33.31905295677612 0 0,0 -0.4428734747065536,-0.3644547190108362 l 7.909506013508932 -9.444510594738114" fill="#ff8d0d" stroke="none" /><path d="M 86.51685102203217 116.09983520530335 l -4.840397769901733 5.779777895421665 a28.53891789922629,28.53891789922629 0 0,0 -0.3739067416766731,-0.3186514369903909 l 4.939169988155463 -5.695602068208323" fill="#ff4a06" stroke="none" /><path d="M 83.72743513129214 113.27417163493432 l -9.786075532844206 7.982886982076628 a33.62908385050715,33.62908385050715 0 0,0 -0.36204445202880065,-0.45170612078528166 l 9.922037896927868 -7.8132530277130865" fill="#ff910d" stroke="none" /><path d="M 83.06392112726016 112.41649034213515 l -10.150772842152103 7.441921704950093 a33.586516116685345,33.586516116685345 0 0,0 -0.33781670988315643,-0.46919786374329614 l 10.277369344410866 -7.266090235755658" fill="#ff900d" stroke="none" /><path d="M 82.85270091963577 112.12312394758628 l -16.785184534816363 11.867109312376023 a41.55652459195669,41.55652459195669 0 0,0 -0.4079249657562108,-0.5876463376534204 l 16.986970407734706 -11.57642171253559" fill="#fff817" stroke="none" /><path d="M 82.44556493220864 111.52570212397912 l -10.30151257349774 6.76365630053277 a33.3234819695437,33.3234819695437 0 0,0 -0.31069408118949354,-0.48220411361673354 l 10.41641151806428 -6.585330586994588" fill="#ff8d0d" stroke="none" /><path d="M 82.05923443525364 110.91462005526583 l -15.159389491854958 9.22251483506999 a38.74434754080433,38.74434754080433 0 0,0 -0.3417235296738638,-0.5727482916340998 l 15.315893897227053 -8.96020444954978" fill="#ffd513" stroke="none" /><line stroke="#5A5A5A" stroke-width="0.3" x1="26.63291911575756" x2="22.317208475507996" y1="142.92168965132927" y2="145.44649492493687" /><path d="M 25.769776987707644 143.4266507060508 a86.0,86.0 0 0,1 -11.730757126820373,-40.83630448921669" fill="none" id="id93" stroke="none" /><text fill="#5A5A5A" style="font-size:6.75px; font-family:Arial;" text-anchor="middle"><textPath startOffset="21.46611528233685" xlink:href="#id93">September</textPath></text><path d="M 81.87401531095188 110.60418214915194 l -12.978210417690507 7.592597566429841 a36.036006233425375,36.036006233425375 0 0,0 -0.30861922798676406,-0.5381036375870734 l 13.106981641829648 -7.368074082984461" fill="#ffb110" stroke="none" /><path d="M 81.69416730710424 110.29060199501025 l -15.094863848029773 8.485559692088016 a38.31645569620253,38.31645569620253 0 0,0 -0.3182520847439779,-0.5777199763772098 l 15.238692342225267 -8.224469197312983" fill="#ffcf13" stroke="none" /><path d="M 81.35079622478065 109.6543875284942 l -10.93259577582057 5.659625879170221 a33.31068704377067,33.31068704377067 0 0,0 -0.259222704144113,-0.5114709877406568 l 11.02839714975095 -5.470600679726879" fill="#ff8d0d" stroke="none" /><path d="M 80.58989483394504 108.01547362559985 l -20.153262501237627 8.322363153959804 a42.8040298548268,42.8040298548268 0 0,0 -0.2753672634588488,-0.6834389651999456 l 20.293532378953863 -7.974224820917054" fill="#f6ff19" stroke="none" /><path d="M 80.32549172779594 107.34259656027581 l -21.066114022928026 7.861948782814544 a43.485359652240476,43.485359652240476 0 0,0 -0.2556850913578091,-0.7035355590395242 l 21.19832337529106 -7.498165426768902" fill="#eeff19" stroke="none" /><path d="M 80.20201598880116 107.00284435728193 l -14.887981290023093 5.266102634954293 a36.79189107909342,36.79189107909342 0 0,0 -0.20605065418282964,-0.5988796512285484 l 14.976422775149151 -5.009050280636448" fill="#ffbb11" stroke="none" /><path d="M 79.86692584326677 105.97154293290107 l -8.739096761161452 2.592047846135783 a30.115400388222106,30.115400388222106 0 0,0 -0.14313041437464982,-0.4982557493844647 l 8.782419812422205 -2.441234621246722" fill="#ff6008" stroke="none" /><path d="M 79.67330655649465 105.27499134158121 l -12.813392966625248 3.3252106223317823 a34.23782704978538,34.23782704978538 0 0,0 -0.1431282780044644,-0.57172632313746 l 12.868732558924771 -3.1041564597969304" fill="#ff990e" stroke="none" /><path d="M 79.23777060512086 103.15116336523772 l -25.866932594926933 3.9259237923799932 a47.16316264319107,47.16316264319107 0 0,0 -0.11491180827130275,-0.803692919409083 l 25.930678454214835 -3.4800854009905096" fill="#c2ff1e" stroke="none" /><path d="M 79.1416061653843 102.43462659150553 l -12.374068070572386 1.4443219074576528 a33.45807474642535,33.45807474642535 0 0,0 -0.06184597418390521,-0.5726169107866266 l 12.397096346257344 -1.231108674786244" fill="#ff8f0d" stroke="none" /><path d="M 79.10278846688536 102.07522291339032 l -14.742532658018892 1.4640250697967596 a35.8150477075758,35.8150477075758 0 0,0 -0.055641923372165135,-0.6140039878451571 l 14.765549177668133 -1.2100396934030364" fill="#ffae10" stroke="none" /><path d="M 79.07016306316243 101.71520430193888 l -62.78951081051271 5.145612905816642 a84.0,84.0 0 0,0 -0.10569376534265862,-1.4421074540129575 l 62.86878113451971 -4.064032315306924" fill="#4dd2ff" stroke="none" /><line stroke="#5A5A5A" stroke-width="0.3" x1="15.007084014347285" x2="10.007500721073583" y1="101.09737516637583" y2="101.16192664675087" /><path d="M 14.007167355692545 101.11028546245083 a86.0,86.0 0 0,1 10.666146001902534,-42.60595125391555" fill="none" id="id94" stroke="none" /><text fill="#5A5A5A" style="font-size:6.75px; font-family:Arial;" text-anchor="middle"><textPath startOffset="22.20632615414155" xlink:href="#id94">October</textPath></text><path d="M 79.00175016825051 100.2711162175752 l -24.633100111562214 0.318047122160641 a45.63515323837384,45.63515323837384 0 0,0 -0.0033807015041373107,-0.7855559693521424 l 24.634925110355855 0.1060183253951768" fill="#d4ff1c" stroke="none" /><path d="M 79.08570108090925 98.10471618934814 l -58.17169472902597 -5.271602537796084 a79.41006643519151,79.41006643519151 0 0,0 0.13508361061096275,-1.3602735240535808 l 58.07233399273278 6.272151592554095" fill="#47feff" stroke="none" /><path d="M 79.32604984820605 96.31383870115002 l -10.983220218394337 -1.9583060328835504 a32.156437105284745,32.156437105284745 0 0,0 0.1018505778902895,-0.5440898597239828 l 10.947883916594186 2.147073970070106" fill="#ff7d0b" stroke="none" /><path d="M 79.3925641242962 95.95851677861259 l -12.322979280723864 -2.4167545298184403 a33.55772753369604,33.55772753369604 0 0,0 0.1160469429042752,-0.5658861068341634 l 12.279553041904595 2.628516292816006" fill="#ff900d" stroke="none" /><path d="M 79.46518482838121 95.60439243477599 l -10.971620399538548 -2.3485450065132425 a32.22016567788501,32.22016567788501 0 0,0 0.12075751859875469,-0.5413322777083318 l 10.929568493937756 2.5370554537715337" fill="#ff7e0b" stroke="none" /><path d="M 79.54389044137918 95.25157060432595 l -12.269399368523548 -2.848067295582562 a33.595620198485385,33.595620198485385 0 0,0 0.13560984036794363,-0.5621903375861729 l 12.21855672789479 3.0588428648281316" fill="#ff910d" stroke="none" /><path d="M 79.62865764111835 94.90015583598534 l -12.300188812304633 -3.079278970703716 a33.67977144106952,33.67977144106952 0 0,0 0.145630799458037,-0.5611748768536914 l 12.245361680976288 3.2905502731062715" fill="#ff920d" stroke="none" /><path d="M 79.81627453868168 94.20196356495316 l -27.75824904825715 -7.973916394341762 a49.88085408863493,49.88085408863493 0 0,0 0.24416464987347963,-0.8232018186240289 l 27.61687850127196 8.45054759971233" fill="#a2ff22" stroke="none" /><path d="M 80.02781315780177 93.51064311812611 l -11.949192949546658 -3.8825281433950836 a33.56412499658255,33.56412499658255 0 0,0 0.18326444782336457,-0.5479373726526533 l 11.880591207951522 4.087638618970059" fill="#ff900d" stroke="none" /><path d="M 80.14247586403 93.16781622104843 l -11.969005775712708 -4.118058553073867 a33.657626377231594,33.657626377231594 0 0,0 0.19320586509665522,-0.5462189980098491 l 11.896346829806244 4.3234751775103275" fill="#ff910d" stroke="none" /><path d="M 80.2630227832202 92.82701384747504 l -13.426808773736452 -4.879689141290184 a35.28602673811412,35.28602673811412 0 0,0 0.2123805652241193,-0.5690743258268224 l 13.340823620010704 5.110086604146348" fill="#ffa70f" stroke="none" /><path d="M 80.38941819471856 92.48833698450439 l -12.901720727522923 -4.941892055394647 a34.81581321595538,34.81581321595538 0 0,0 0.219184527298265,-0.5578007143748295 l 12.814742650342966 5.16324177466524" fill="#ffa10e" stroke="none" /><path d="M 80.52162464483688 92.15188598940014 l -11.686386176259802 -4.708610929343953 a33.599311042458375,33.599311042458375 0 0,0 0.22076077425829946,-0.5345897254540098 l 11.603603715115304 4.909075225251274" fill="#ff910d" stroke="none" /><path d="M 80.95270993114464 91.15688171328213 l -11.953552818648275 -5.549696630844082 a34.179019602482434,34.179019602482434 0 0,0 0.2523417586612884,-0.5314960989124553 l 11.856252866145235 5.754635145397069" fill="#ff990e" stroke="none" /><path d="M 81.10775173730289 90.83032412892265 l -10.210664027121997 -4.955920452413708 a32.34983732946934,32.34983732946934 0 0,0 0.2474608309316742,-0.498865934893667 l 10.12384318323691 5.130945975806336" fill="#ff800b" stroke="none" /><line stroke="#5A5A5A" stroke-width="0.3" x1="26.266209847984243" x2="21.928928074336255" y1="57.711370442889674" y2="55.22380399835377" /><path d="M 25.398753493254645 57.213857153982495 a86.0,86.0 0 0,1 29.58750427330803,-30.492523968695096" fill="none" id="id95" stroke="none" /><text fill="#5A5A5A" style="font-size:6.75px; font-family:Arial;" text-anchor="middle"><textPath startOffset="21.46611528233685" xlink:href="#id95">November</textPath></text><path d="M 81.78341655067845 89.55222093294921 l -33.89561338022009 -19.44019200548275 a60.07471908576427,60.07471908576427 0 0,0 0.522193275143771,-0.892597578657859 l 33.555960430606 20.020768996494503" fill="#35ff2f" stroke="none" /><path d="M 82.15384107792192 88.93136811851018 l -13.46057579069125 -8.348584084149026 a36.83937993821254,36.83937993821254 0 0,0 0.3388738845463226,-0.5360171046128847 l 13.314874309898965 8.579048836476126" fill="#ffbc11" stroke="none" /><path d="M 82.34701348167596 88.62581576622439 l -22.538257952528863 -14.521865634141967 a47.811520901112715,47.811520901112715 0 0,0 0.4517126959731373,-0.6879894261938324 l 22.284948621197803 14.907673124313467" fill="#baff1f" stroke="none" /><path d="M 82.54541684631803 88.32363383020206 l -10.451725776958785 -6.991755472106088 a33.574705415971785,33.574705415971785 0 0,0 0.32547564738433776,-0.4775953509510747 l 10.329825663905707 7.1706288463275785" fill="#ff900d" stroke="none" /><path d="M 82.95767976084542 87.72973835380427 l -7.350777334434501 -5.29246956580549 a30.057823222243485,30.057823222243485 0 0,0 0.30592764804996975,-0.4172849681317564 l 7.258587073870898 5.418216977608748" fill="#ff6008" stroke="none" /><path d="M 83.17141714833178 87.43820079747576 l -5.850328112619514 -4.367013412084416 a28.300489378571232,28.300489378571232 0 0,0 0.29476180621550413,-0.38787198538905265 l 5.774290366179901 4.467070173354496" fill="#ff4706" stroke="none" /><path d="M 83.6137871275137 86.86637796730984 l -9.709272239326417 -7.782024607889518 a33.44306531426853,33.44306531426853 0 0,0 0.3638948025665739,-0.44609200054083203 l 9.57387894468345 7.948000778038432" fill="#ff8f0d" stroke="none" /><path d="M 84.07557802195018 86.31012108654704 l -10.379773331081331 -8.923265173923365 a34.68811001448998,34.68811001448998 0 0,0 0.39314535335978584,-0.4494331009363631 l 10.224636114143703 9.100613831062672" fill="#ff9f0e" stroke="none" /><path d="M 84.31358615837235 86.03803664274999 l -12.123260796133717 -10.790517495899586 a37.22987123055472,37.22987123055472 0 0,0 0.43019357205427877,-0.47503048697811817 l 11.935723583463394 10.99760077014726" fill="#ffc112" stroke="none" /><path d="M 85.57189188830299 84.74124197986013 l -7.64680319267445 -8.087042226281776 a32.129863028679225,32.129863028679225 0 0,0 0.4051302107021612,-0.37652437816227113 l 7.506465098177433 8.217471190518694" fill="#ff7d0b" stroke="none" /><path d="M 85.83668400450813 84.49514656593479 l -5.486010727025614 -6.005641072141292 a29.1341280039369,29.1341280039369 0 0,0 0.37317906281102575,-0.3350438472187369 l 5.3818206766186165 6.099183928129307" fill="#ff5307" stroke="none" /><path d="M 86.10567301691215 84.25364557470407 l -5.494477821885119 -6.226857570765444 a29.3043989392241,29.3043989392241 0 0,0 0.3811053846300483,-0.33049083407635454 l 5.386478638608296 6.320513398261479" fill="#ff5507" stroke="none" /><path d="M 86.37877921826538 84.01681056812374 l -11.303625172723933 -13.263714412796132 a38.42693495912732,38.42693495912732 0 0,0 0.5071302572230768,-0.42470700613889056 l 11.073637378541747 13.456322576328834" fill="#ffd113" stroke="none" /><path d="M 86.65592168130627 83.78471172551755 l -17.548177778759374 -21.32397267002141 a48.61612488722421,48.61612488722421 0 0,0 0.6507536895601206,-0.5261975600719733 l 17.178520690634752 21.622876327357517" fill="#b1ff20" stroke="none" /><path d="M 87.51073957382395 83.11751280151077 l -3.724256982485249 -5.034302967925405 a27.262131940837136,27.262131940837136 0 0,0 0.3796637224894756,-0.27584184072943024 l 3.637047943641992 5.097664043471504" fill="#ff3805" stroke="none" /><path d="M 87.80319425747018 82.90503203632743 l -2.299414593838887 -3.2228453618646964 a24.95904530169232,24.95904530169232 0 0,0 0.3518855285500878,-0.2465183002720187 l 2.2435979257051386 3.2619485049006576" fill="#ff1602" stroke="none" /><path d="M 88.09926311788651 82.69761687909137 l -7.407359167763103 -10.76949835160551 a34.0710009022063,34.0710009022063 0 0,0 0.48607199653197924,-0.328197981837036 l 7.220882476824585 10.895408245741212" fill="#ff970d" stroke="none" /><line stroke="#5A5A5A" stroke-width="0.3" x1="56.762969772571076" x2="54.21961505331055" y1="26.818313649435495" y2="22.513508569990535" /><path d="M 56.25429882871897 25.957352633546506 a86.0,86.0 0 0,1 42.265352541879196,-11.944610805530505" fill="none" id="id96" stroke="none" /><text fill="#5A5A5A" style="font-size:6.75px; font-family:Arial;" text-anchor="middle"><textPath startOffset="22.20632615414155" xlink:href="#id96">December</textPath></text><path d="M 89.63071344664047 81.73862282372117 l -2.103105584367851 -3.703784645167962 a25.25923394482872,25.25923394482872 0 0,0 0.37994207293643234,-0.21143735223457175 l 2.039039422359373 3.739437394962718" fill="#ff1b02" stroke="none" /><path d="M 89.94658935756843 81.56283822128135 l -8.278664968423842 -15.18241826215943 a38.2928342947754,38.2928342947754 0 0,0 0.5814218998742822,-0.3105754429973157 l 8.016098022021254 15.322672431658496" fill="#ffcf13" stroke="none" /><path d="M 90.26544431104013 81.39251694778311 l -2.996341705157916 -5.727470187530858 a27.463898078027174,27.463898078027174 0 0,0 0.42077243697792155,-0.21553598511020955 l 2.897308780591231 5.778198697953572" fill="#ff3b05" stroke="none" /><path d="M 91.23893434514133 80.91482961587045 l -6.188955373963686 -13.482066276534088 a35.83473220876507,35.83473220876507 0 0,0 0.5628064505907305,-0.2525148489657976 l 5.955966804906181 13.586601456016416" fill="#ffaf10" stroke="none" /><path d="M 91.90106846888425 80.62456947434976 l -5.850270414584727 -13.995859520303588 a36.16936872898269,36.16936872898269 0 0,0 0.5764986257331487,-0.2351682644549876 l 5.608487919263197 14.094488670942152" fill="#ffb310" stroke="none" /><path d="M 92.23578459929587 80.48803036053334 l -10.658219426521294 -26.784786759290203 a49.82745987915903,49.82745987915903 0 0,0 0.799652039265704,-0.3102525678952792 l 10.195584222255913 26.96428203107603" fill="#a3ff22" stroke="none" /><path d="M 93.94186890950719 79.89281104454417 l -4.471213495484771 -14.840143481705853 a36.499084123902996,36.499084123902996 0 0,0 0.6031209159585766,-0.1760675340327792 l 4.215102361802773 14.914909344657332" fill="#ffb711" stroke="none" /><path d="M 94.28887869178378 79.79150937346287 l -4.7363189405626045 -16.75920572321799 a38.41561637094348,38.41561637094348 0 0,0 0.637886024539034,-0.17435834679069515 l 4.447135026799848 16.83825061083498" fill="#ffd113" stroke="none" /><path d="M 94.98787191387505 79.60689891045804 l -3.385901110442557 -13.776388479694987 a35.186373950843425,35.186373950843425 0 0,0 0.5894158522659636,-0.1394956889689375 l 3.1482615712140594 13.832630080804796" fill="#ffa60f" stroke="none" /><path d="M 96.04723909329186 79.375362276772 l -4.703825463714499 -24.543527522184583 a45.99021242857533,45.99021242857533 0 0,0 0.7787782819578926,-0.14231675320230275 l 4.280652060653713 24.620859756737623" fill="#cfff1d" stroke="none" /><path d="M 96.75951476605007 79.25152402106235 l -3.389233756458652 -21.700896657742256 a42.963966426989636,42.963966426989636 0 0,0 0.7316784341958861,-0.10783038157263335 l 3.0151863418341174 21.75602152347586" fill="#f4ff19" stroke="none" /><path d="M 97.11714578562143 79.19881850522333 l -2.826568303959927 -20.395051544681618 a41.58998824397845,41.58998824397845 0 0,0 0.7099713441427438,-0.0921746567837428 l 2.4750822313093255 20.440684524629496" fill="#fff917" stroke="none" /><path d="M 97.83486435360386 79.11191278185805 l -0.8453651413830557 -8.155637192421594 a29.199332914126366,29.199332914126366 0 0,0 0.5003860105486241,-0.04751768108858262 l 0.7048540037441954 8.168980418025356" fill="#ff5407" stroke="none" /><path d="M 98.91598698831166 79.02799685794201 l -1.078369381832806 -20.86281790001142 a41.89066899964459,41.89066899964459 0 0,0 0.7204380545983803,-0.031023578112714608 l 0.7190904948451017 20.87828920464833" fill="#fffd17" stroke="none" /></svg>