<?xml version="1.0" encoding="utf-8" ?>
<svg baseProfile="full" height="200mm" version="1.1" viewBox="0,0,200,200" width="200mm" xmlns="http://www.w3.org/2000/svg" xmlns:ev="http://www.w3.org/2001/xml-events" xmlns:xlink="http://www.w3.org/1999/xlink"><defs /><rect fill="#1a1a1a" height="200" width="200" x="0" y="0" /><text alignment-baseline="middle" fill="#e1ed5e" style="dominant-baseline: central; font-size:9.5px; font-family:Arial;" text-anchor="middle" x="105.0" y="100.0">2021</text><line stroke="#e1ed5e" stroke-width="0.3" x1="105.0" x2="105.0" y1="10.0" y2="5.0" /><path d="M 105.0 9.0 a91.0,91.0 0 0,1 44.93357506455793,11.867365569458398" fill="none" id="id37" stroke="none" /><text fill="#e1ed5e" style="font-size:7.125px; font-family:Arial;" text-anchor="middle"><textPath startOffset="23.497391628219546" xlink:href="#id37">January</textPath></text><path d="M 105.0 77.75 l 0.0 -66.75 a89.0,89.0 0 0,0 1.531988697869287,0.013186310388654254 l -1.1489915234019652 66.74011026720851" fill="#4dd2ff" stroke="none" /><line stroke="#e1ed5e" stroke-width="0.3" x1="150.7803849466894" x2="153.32373966594992" y1="22.513508569990506" y2="18.208703490545545" /><path d="M 151.2890558905415 21.652547554101517 a91.0,91.0 0 0,1 30.207219022196004,29.05932076620417" fill="none" id="id38" stroke="none" /><text fill="#e1ed5e" style="font-size:7.125px; font-family:Arial;" text-anchor="middle"><textPath startOffset="21.14765246539759" xlink:href="#id38">February</textPath></text><path d="M 120.56294777689915 84.09851716054412 l 19.004430227420997 -19.417826588324093 a49.42021085091426,49.42021085091426 0 0,0 0.6028423222946027,0.6002535257800105 l -19.335860480845263 19.087819601736218" fill="#e6ff1a" stroke="none" /><path d="M 120.83435984576948 84.36876369973626 l 23.51068552471812 -23.209089890441366 a55.2865583465466,55.2865583465466 0 0,0 0.662742974889949,0.683014892376279 l -23.906708493293507 22.800953409922705" fill="#a0ff22" stroke="none" /><path d="M 121.36302876094868 84.92307094371117 l 27.283140235751645 -25.138742697128784 a59.34886959889932,59.34886959889932 0 0,0 0.6857800300201214,0.7572554375108604 l -27.71182007547209 24.66538371120138" fill="#73ff27" stroke="none" /><line stroke="#e1ed5e" stroke-width="0.3" x1="181.4835382374775" x2="185.73262369511514" y1="52.563006222186495" y2="49.927617678974634" /><path d="M 182.33335532900503 52.03592851354413 a91.0,91.0 0 0,1 13.598395693806166,44.44034392526798" fill="none" id="id39" stroke="none" /><text fill="#e1ed5e" style="font-size:7.125px; font-family:Arial;" text-anchor="middle"><textPath startOffset="23.497391628219546" xlink:href="#id39">March</textPath></text><path d="M 125.91179728920717 92.40005038601521 l 13.32722802453294 -4.8434986280596455 a36.43007354628007,36.43007354628007 0 0,0 0.20912062532743422,0.5912121682869165 l -13.408626318813624 4.613374688915959" fill="#ff6e0a" stroke="none" /><line stroke="#e1ed5e" stroke-width="0.3" x1="194.97916517819016" x2="199.97800768808963" y1="98.06355123074" y2="97.95597074355888" /><path d="M 195.9789336801701 98.04203513330377 a91.0,91.0 0 0,1 -10.165717320886186,43.793644156837686" fill="none" id="id40" stroke="none" /><text fill="#e1ed5e" style="font-size:7.125px; font-family:Arial;" text-anchor="middle"><textPath startOffset="22.714145240612222" xlink:href="#id40">April</textPath></text><path d="M 127.05228792385437 102.95957722038585 l 16.369806976657284 2.196947001486482 a38.766572180097114,38.766572180097114 0 0,0 -0.09445373592514716,0.6606092090688593 l -16.32956478191693 -2.4784008177726795" fill="#ff8e0d" stroke="none" /><line stroke="#e1ed5e" stroke-width="0.3" x1="184.2010983576182" x2="188.60115937748589" y1="142.7455964860345" y2="145.12035184636974" /><path d="M 185.08111056159174 143.22054755810154 a91.0,91.0 0 0,1 -31.78467617885582,33.90567642514608" fill="none" id="id41" stroke="none" /><text fill="#e1ed5e" style="font-size:7.125px; font-family:Arial;" text-anchor="middle"><textPath startOffset="23.497391628219564" xlink:href="#id41">May</textPath></text><path d="M 123.80679152610566 111.88978942175177 l 14.322375540455013 9.05470925005359 a39.19456257106775,39.19456257106775 0 0,0 -0.3654335587370933,0.5671609983749796 l -14.164391590758903 -9.299903848345346" fill="#ff940d" stroke="none" /><path d="M 119.57722894790214 116.80972623811714 l 17.62749318937935 20.327137334313772 a49.15578057499295,49.15578057499295 0 0,0 -0.6440215362849487,0.5488491249708809 l -17.274983231483006 -20.62755396797325" fill="#e9ff1a" stroke="none" /><path d="M 119.28571736951355 117.05815872942854 l 9.199900366682318 10.98533288112634 a36.57884172799871,36.57884172799871 0 0,0 -0.48620225664382705,0.4001113567367632 l -9.009442854794711 -11.142066447128446" fill="#ff700a" stroke="none" /><path d="M 116.80874357160302 118.85778553436549 l 5.622499005790363 8.978760507032058 a32.8438961346972,32.8438961346972 0 0,0 -0.4817430078452183,0.2959259020464553 l -5.467111369445436 -9.074212284646675" fill="#ff3a05" stroke="none" /><line stroke="#e1ed5e" stroke-width="0.3" x1="151.44561519142675" x2="154.02592714650604" y1="177.08958963109032" y2="181.37234461059535" /><path d="M 151.9616775824426 177.94614062699134 a91.0,91.0 0 0,1 -43.04665437903033,12.969603847311603" fill="none" id="id42" stroke="none" /><text fill="#e1ed5e" style="font-size:7.125px; font-family:Arial;" text-anchor="middle"><textPath startOffset="22.714145240612233" xlink:href="#id42">June</textPath></text><path d="M 115.48329904574346 119.62556855526775 l 4.858964706068726 9.096367901981882 a32.56278076093096,32.56278076093096 0 0,0 -0.49667404365530426,0.25983638537547615 l -4.701665777593683 -9.178659266953545" fill="#ff3605" stroke="none" /><path d="M 110.12430116263113 121.65188300344008 l 3.829074417304645 16.17911763257417 a38.87605359855216,38.87605359855216 0 0,0 -0.6525250268863215,0.14851257168023194 l -3.5500101845139813 -16.242631743402185" fill="#ff900d" stroke="none" /><path d="M 107.48441290845771 122.11086141470496 l 1.8453763788930546 16.4235426537871 a38.77689224508167,38.77689224508167 0 0,0 -0.6639479264889695,0.06882091729986657 l -1.5623986774291012 -16.45287444956985" fill="#ff8e0d" stroke="none" /><line stroke="#e1ed5e" stroke-width="0.3" x1="107.32365962044197" x2="107.45275182157765" y1="189.96999836594603" y2="194.96833160849857" /><path d="M 107.34947806066911 190.96966501445652 a91.0,91.0 0 0,1 -45.22499325899069,-10.70329474347383" fill="none" id="id43" stroke="none" /><text fill="#e1ed5e" style="font-size:7.125px; font-family:Arial;" text-anchor="middle"><textPath startOffset="23.497391628219546" xlink:href="#id43">July</textPath></text><path d="M 100.62402820209293 121.81543881804632 l -2.0362457489739563 10.151252477562604 a32.60346432907534,32.60346432907534 0 0,0 -0.5493040031718697,-0.11511199464745185 l 2.210681181517438 -10.114697836669174" fill="#ff3705" stroke="none" /><path d="M 98.03336833917787 121.13122200210935 l -11.905547398433441 36.11196592288958 a60.27388909188911,60.27388909188911 0 0,0 -0.9825512642732587,-0.333334735579324 l 12.525391594033046 -35.90168111785867" fill="#69ff28" stroke="none" /><path d="M 97.67066127050421 121.00817207156094 l -7.916319834053759 22.690643096905006 a46.281924680852256,46.281924680852256 0 0,0 -0.7499444602524907,-0.26890340170067856 l 8.305729066878222 -22.55101480053104" fill="#fff116" stroke="none" /><path d="M 96.24261634439362 120.45411282623908 l -4.215207851652707 9.845216376760805 a32.9596341084966,32.9596341084966 0 0,0 -0.5196311154366041,-0.22779101045657446 l 4.384052539048111 -9.771199827694632" fill="#ff3c05" stroke="none" /><path d="M 95.54374243567743 120.14054847508359 l -5.425705180565718 11.556017532029264 a35.016354918573484,35.016354918573484 0 0,0 -0.5433993562271673,-0.26086471331353983 l 5.623819149316951 -11.460910787662616" fill="#ff5a08" stroke="none" /><line stroke="#e1ed5e" stroke-width="0.3" x1="61.23545636021788" x2="58.804092824674434" y1="178.64263932499728" y2="183.01167484305267" /><path d="M 60.74918365310919 179.51644642860833 a91.0,91.0 0 0,1 -33.49250110034344,-32.21975952245642" fill="none" id="id44" stroke="none" /><text fill="#e1ed5e" style="font-size:7.125px; font-family:Arial;" text-anchor="middle"><textPath startOffset="23.497391628219546" xlink:href="#id44">August</textPath></text><path d="M 90.42277105209786 116.80972623811715 l -11.953779165279355 13.784496079288957 a40.49568903857016,40.49568903857016 0 0,0 -0.5226983899153007,-0.4612205560005511 l 12.189285524345683 -13.576689099267766" fill="#ffa60f" stroke="none" /><path d="M 89.8527916391364 116.29799309340214 l -17.5008005458014 18.830395649764302 a47.957232835732924,47.957232835732924 0 0,0 -0.5998403117963382,-0.5671864549479421 l 17.822341920226105 -18.52635821064508" fill="#f8ff18" stroke="none" /><path d="M 86.61361907839301 112.53010361511694 l -13.726052432469668 9.354144240711236 a38.86037416360443,38.86037416360443 0 0,0 -0.37194354902197985,-0.5560051398244277 l 13.885034986033968 -9.116486894168736" fill="#ff8f0d" stroke="none" /><line stroke="#e1ed5e" stroke-width="0.3" x1="27.317208475507996" x2="23.001497835258448" y1="145.44649492493687" y2="147.9713001985445" /><path d="M 26.454066347458095 145.95145597965842 a91.0,91.0 0 0,1 -12.412777890007606,-43.210508238589746" fill="none" id="id45" stroke="none" /><text fill="#e1ed5e" style="font-size:7.125px; font-family:Arial;" text-anchor="middle"><textPath startOffset="22.71414524061225" xlink:href="#id45">September</textPath></text><path d="M 82.94771207614563 102.95957722038587 l -9.82802120292288 1.3189918331410941 a32.166135347049,32.166135347049 0 0,0 -0.06892512114184839,-0.5494010315321286 l 9.849269351719126 -1.1496231809949256" fill="#ff3104" stroke="none" /><line stroke="#e1ed5e" stroke-width="0.3" x1="15.007500721073583" x2="10.007917427799896" y1="101.16192664675087" y2="101.22647812712593" /><path d="M 14.007584062418857 101.17483694282589 a91.0,91.0 0 0,1 11.286270769455006,-45.08304144309669" fill="none" id="id46" stroke="none" /><text fill="#e1ed5e" style="font-size:7.125px; font-family:Arial;" text-anchor="middle"><textPath startOffset="23.497391628219546" xlink:href="#id46">October</textPath></text><path d="M 82.75185434493208 100.28725408766897 l -16.62466796087886 0.21464727451628937 a38.87605359855216,38.87605359855216 0 0,0 -0.0028799800931758918,-0.6692059476534525 l 16.625899636909722 0.07155085837677162" fill="#ff900d" stroke="none" /><path d="M 82.84080233572527 97.99190167680935 l -16.558202609759263 -1.5005281057317104 a38.87605359855216,38.87605359855216 0 0,0 0.06613163698438193,-0.6659365594783475 l 16.52992020865919 1.7853280251230854" fill="#ff900d" stroke="none" /><path d="M 83.16593103645668 95.71795230114905 l -9.967456920351399 -1.9547948685355898 a32.40733333297249,32.40733333297249 0 0,0 0.112068731626568,-0.5464869358110847 l 9.932331553767277 2.1260786305198036" fill="#ff3405" stroke="none" /><path d="M 83.61486230884131 93.85684234858132 l -16.078154483494963 -4.618658021398134 a38.978390643267346,38.978390643267346 0 0,0 0.19079755705733822,-0.6432745118509582 l 15.99626972592641 4.894732716825782" fill="#ff910d" stroke="none" /><line stroke="#e1ed5e" stroke-width="0.3" x1="26.928928074336255" x2="22.591646300688268" y1="55.22380399835377" y2="52.73623755381787" /><path d="M 26.061471719606658 54.726290709446594 a91.0,91.0 0 0,1 31.307708010128266,-32.26534512966574" fill="none" id="id47" stroke="none" /><text fill="#e1ed5e" style="font-size:7.125px; font-family:Arial;" text-anchor="middle"><textPath startOffset="22.71414524061225" xlink:href="#id47">November</textPath></text><path d="M 86.9432559370862 86.9993656367688 l -13.415342044514047 -9.658881810072334 a38.78074105998435,38.78074105998435 0 0,0 0.39470925137839635,-0.5383829752969588 l 13.247092644162873 9.888373803068859" fill="#ff8e0d" stroke="none" /><path d="M 87.88052010183239 85.78782535935352 l -13.986623781345138 -11.611353907706796 a40.42826131319789,40.42826131319789 0 0,0 0.449118299025627,-0.5316144068426212 l 13.784681141839105 11.850390296894552" fill="#ffa50f" stroke="none" /><path d="M 88.89892014791596 84.64364211159388 l -16.204895897796394 -15.455372138826828 a44.64346286325639,44.64346286325639 0 0,0 0.5351597616535398,-0.5515291762551001 l 15.93645614245741 15.73202290322432" fill="#ffdc14" stroke="none" /><path d="M 89.1656401542305 84.36876369973626 l -11.973178813564777 -11.819586590369502 a39.07437630549314,39.07437630549314 0 0,0 0.47664077810752126,-0.4745939311303871 l 11.767950104327603 12.023933982307744" fill="#ff920d" stroke="none" /><line stroke="#e1ed5e" stroke-width="0.3" x1="59.21961505331055" x2="56.67626033405003" y1="22.513508569990535" y2="18.20870349054556" /><path d="M 58.710944109458445 21.65254755410153 a91.0,91.0 0 0,1 44.72264048036054,-12.639064922131116" fill="none" id="id48" stroke="none" /><text fill="#e1ed5e" style="font-size:7.125px; font-family:Arial;" text-anchor="middle"><textPath startOffset="23.497391628219546" xlink:href="#id48">December</textPath></text><path d="M 93.68207149929066 80.84361739646988 l -11.391916930057855 -19.281613175603944 a44.64545440474389,44.64545440474389 0 0,0 0.6650116199225931,-0.3852176537891332 l 11.058327819785102 19.474849519961104" fill="#ffdc14" stroke="none" /><path d="M 98.21550275139757 78.80959893999866 l -2.7212761204917304 -8.499514448193326 a31.1745218123441,31.1745218123441 0 0,0 0.512471472779506,-0.15922738117589538 l 2.574567764721095 8.545097448470944" fill="#ff2203" stroke="none" /><path d="M 100.0622463356573 78.30481415727742 l -1.4744045187787063 -6.478144155559476 a28.89381068252283,28.89381068252283 0 0,0 0.48590759378398374,-0.10620057967924627 l 1.362675467260635 6.50256379869744" fill="#ff0000" stroke="none" /><path d="M 100.8119557059878 78.14770526943698 l -3.5276500930897847 -18.406502923264334 a40.99149580592261,40.99149580592261 0 0,0 0.6941321858036366,-0.1268482201743427 l 3.2102897432604633 18.464498498679337" fill="#ffac0f" stroke="none" /></svg>