<?xml version="1.0" encoding="utf-8" ?>
<svg baseProfile="full" height="200mm" version="1.1" viewBox="0,0,200,200" width="200mm" xmlns="http://www.w3.org/2000/svg" xmlns:ev="http://www.w3.org/2001/xml-events" xmlns:xlink="http://www.w3.org/1999/xlink"><defs /><rect fill="#1a1a1a" height="200" width="200" x="0" y="0" /><text alignment-baseline="middle" fill="#e1ed5e" style="dominant-baseline: central; font-size:9.0px; font-family:Arial;" text-anchor="middle" x="100.0" y="100.0">2023</text><line stroke="#e1ed5e" stroke-width="0.3" x1="100.0" x2="100.0" y1="15.0" y2="10.0" /><path d="M 100.0 14.0 a86.0,86.0 0 0,1 42.46469731375804,11.215312516191453" fill="none" id="id1" stroke="none" /><text fill="#e1ed5e" style="font-size:6.75px; font-family:Arial;" text-anchor="middle"><textPath startOffset="22.20632615414155" xlink:href="#id1">January</textPath></text><line stroke="#e1ed5e" stroke-width="0.3" x1="143.23703022742887" x2="145.7803849466894" y1="26.81831364943548" y2="22.513508569990506" /><path d="M 143.74570117128098 25.957352633546492 a86.0,86.0 0 0,1 28.547481713284135,27.462654790039103" fill="none" id="id2" stroke="none" /><text fill="#e1ed5e" style="font-size:6.75px; font-family:Arial;" text-anchor="middle"><textPath startOffset="19.985693538727396" xlink:href="#id2">February</textPath></text><line stroke="#e1ed5e" stroke-width="0.3" x1="172.23445277983987" x2="176.4835382374775" y1="55.19839476539836" y2="52.563006222186495" /><path d="M 173.08426987136738 54.67131705675599 a86.0,86.0 0 0,1 12.851231095245387,41.99856678651699" fill="none" id="id3" stroke="none" /><text fill="#e1ed5e" style="font-size:6.75px; font-family:Arial;" text-anchor="middle"><textPath startOffset="22.20632615414155" xlink:href="#id3">March</textPath></text><line stroke="#e1ed5e" stroke-width="0.3" x1="184.98032266829074" x2="189.97916517819016" y1="98.17113171792111" y2="98.06355123074" /><path d="M 185.9800911702706 98.14961562048488 a86.0,86.0 0 0,1 -9.607161424134198,41.387399972396054" fill="none" id="id4" stroke="none" /><text fill="#e1ed5e" style="font-size:6.75px; font-family:Arial;" text-anchor="middle"><textPath startOffset="21.466115282336823" xlink:href="#id4">April</textPath></text><line stroke="#e1ed5e" stroke-width="0.3" x1="174.80103733775053" x2="179.2010983576182" y1="140.37084112569926" y2="142.7455964860345" /><path d="M 175.68104954172406 140.8457921977663 a86.0,86.0 0 0,1 -30.038265399797805,32.042727171017184" fill="none" id="id5" stroke="none" /><text fill="#e1ed5e" style="font-size:6.75px; font-family:Arial;" text-anchor="middle"><textPath startOffset="22.206326154141568" xlink:href="#id5">May</textPath></text><line stroke="#e1ed5e" stroke-width="0.3" x1="143.8653032363475" x2="146.44561519142675" y1="172.8068346515853" y2="177.08958963109032" /><path d="M 144.38136562736335 173.6633856474863 a86.0,86.0 0 0,1 -40.68145358897372,12.25698825130547" fill="none" id="id6" stroke="none" /><text fill="#e1ed5e" style="font-size:6.75px; font-family:Arial;" text-anchor="middle"><textPath startOffset="21.466115282336833" xlink:href="#id6">June</textPath></text><line stroke="#e1ed5e" stroke-width="0.3" x1="102.19456741930631" x2="102.32365962044197" y1="184.97166512339345" y2="189.96999836594603" /><path d="M 102.22038585953345 185.97133177190398 a86.0,86.0 0 0,1 -42.740103519485714,-10.115201625700543" fill="none" id="id7" stroke="none" /><text fill="#e1ed5e" style="font-size:6.75px; font-family:Arial;" text-anchor="middle"><textPath startOffset="22.20632615414155" xlink:href="#id7">July</textPath></text><path d="M 95.86986931433489 120.58985236759428 l -6.056223315761293 30.191960852354143 a51.79338144732494,51.79338144732494 0 0,0 -0.872616218928969,-0.18286521296514593 l 6.575030996119648 -30.083239658662457" fill="#8eff24" stroke="none" /><path d="M 94.81253420990036 120.34920634021253 l -4.882328764348224 19.152225665967922 a40.764738352008166,40.764738352008166 0 0,0 -0.6784602690626607,-0.1791875234888767 l 5.211279476222375 -19.065346793175465" fill="#ffed16" stroke="none" /><line stroke="#e1ed5e" stroke-width="0.3" x1="58.666819895761336" x2="56.23545636021788" y1="174.27360380694188" y2="178.64263932499728" /><path d="M 58.180547188652646 175.14741091055294 a86.0,86.0 0 0,1 -31.652253787137756,-30.449443065178592" fill="none" id="id8" stroke="none" /><text fill="#e1ed5e" style="font-size:6.75px; font-family:Arial;" text-anchor="middle"><textPath startOffset="22.20632615414155" xlink:href="#id8">August</textPath></text><path d="M 87.65650970185807 116.9893568818739 l -11.761615740469455 16.18847526071134 a41.01005587431284,41.01005587431284 0 0,0 -0.567530409573798,-0.41984542926683566 l 12.038531120461817 -15.983619882704735" fill="#fff016" stroke="none" /><path d="M 87.36589467227662 116.77436683061367 l -5.71825246917829 7.592153307253101 a30.504693742677762,30.504693742677762 0 0,0 -0.4167104895656547,-0.31951583395209554 l 5.848091687237432 -7.492598131473638" fill="#ff6309" stroke="none" /><path d="M 87.07902340077011 116.55440617244103 l -11.42705296654759 14.640385323002661 a39.57197948271201,39.57197948271201 0 0,0 -0.5333596329011462,-0.42373314958793923 l 11.677370092166093 -14.441518259409593" fill="#ffdd14" stroke="none" /><path d="M 85.18274418774928 114.88116024355367 l -8.937857816905616 8.976405354188708 a33.66732629397098,33.66732629397098 0 0,0 -0.40714919722229903,-0.4124399872085121 l 9.091047639183449 -8.821224872999531" fill="#ff8f0d" stroke="none" /><path d="M 84.9287848128048 114.62390073753433 l -10.772009461051256 10.452295660673323 a36.00955270509778,36.00955270509778 0 0,0 -0.42781654703314453,-0.4485639391762362 l 10.950332559463359 -10.265324604914586" fill="#ffaf10" stroke="none" /><path d="M 84.67929136418377 114.36230785411682 l -45.9621259074487 43.08692356235048 a84.0,84.0 0 0,0 -0.9798143680170841,-1.0633949807946235 l 46.69698668346152 -42.28937732675451" fill="#4dd2ff" stroke="none" /><path d="M 84.19399662182784 113.82643327865904 l -10.436299633566703 9.129240144214778 a34.86576271441017,34.86576271441017 0 0,0 -0.39125610205612443,-0.4551192388199939 l 10.591898245193606 -8.948243806233254" fill="#ffa00e" stroke="none" /><path d="M 83.95833913139862 113.55231037782056 l -14.93307121952159 12.615752054525297 a40.54875484394245,40.54875484394245 0 0,0 -0.44585093775250734,-0.5370561760903066 l 15.148018157167634 -12.35683462132123" fill="#ffea16" stroke="none" /><path d="M 83.50135304334701 112.99209946851258 l -13.990754982381196 11.017223463733009 a38.80787572471387,38.80787572471387 0 0,0 -0.408763692788339,-0.5283821748292284 l 14.178325492387604 -10.774763294790528" fill="#ffd413" stroke="none" /><path d="M 83.28015986056508 112.70617746262583 l -9.377882039214885 7.12668496948099 a32.77855297545736,32.77855297545736 0 0,0 -0.33752346547528334,-0.45216783930056414 l 9.499166771385253 -6.964204250671118" fill="#ff830c" stroke="none" /><path d="M 82.85270091963577 112.12312394758628 l -12.948363940649186 9.154480844782261 a36.85763690708642,36.85763690708642 0 0,0 -0.3617999921987738,-0.521199873080846 l 13.104024840010094 -8.930239709514403" fill="#ffba11" stroke="none" /><path d="M 82.44556493220864 111.52570212397912 l -20.331312137171814 13.348914196198422 a45.321919402805726,45.321919402805726 0 0,0 -0.4225624476898511,-0.6558263026958893 l 20.55807944823871 -12.996966293581083" fill="#d9ff1c" stroke="none" /><line stroke="#e1ed5e" stroke-width="0.3" x1="26.63291911575756" x2="22.317208475507996" y1="142.92168965132927" y2="145.44649492493687" /><path d="M 25.769776987707644 143.4266507060508 a86.0,86.0 0 0,1 -11.730757126820373,-40.83630448921669" fill="none" id="id9" stroke="none" /><text fill="#e1ed5e" style="font-size:6.75px; font-family:Arial;" text-anchor="middle"><textPath startOffset="21.46611528233685" xlink:href="#id9">September</textPath></text><path d="M 81.69416730710424 110.29060199501025 l -11.355428779780835 6.383440732568204 a34.02666796839797,34.02666796839797 0 0,0 -0.28262160006900217,-0.5130402971182508 l 11.463626789301355 -6.18702991705213" fill="#ff940d" stroke="none" /><path d="M 81.35079622478065 109.6543875284942 l -10.531878589691372 5.452181151188879 a32.85945807924539,32.85945807924539 0 0,0 -0.25571125473393747,-0.5045425649230885 l 10.624168514211577 -5.270084374563106" fill="#ff840c" stroke="none" /><path d="M 81.02952815118164 109.00673069616217 l -10.86995385776998 5.160796624188418 a33.03285995373847,33.03285995373847 0 0,0 -0.23944951253972305,-0.5157529475818903 l 10.95717798714953 -4.9729236093277" fill="#ff870c" stroke="none" /><path d="M 80.73074385275274 108.34839909993369 l -9.886571470484139 4.283353946561701 a31.77457268166662,31.77457268166662 0 0,0 -0.21311511358316584,-0.5037411753237605 l 9.95883756525961 -4.112538245571781" fill="#ff750a" stroke="none" /><path d="M 80.32549172779594 107.34259656027581 l -11.811265299824628 4.40800627711352 a33.60700231307639,33.60700231307639 0 0,0 -0.19760235457172573,-0.5437168129470582 l 11.885391915401577 -4.204041667160344" fill="#ff8e0d" stroke="none" /><path d="M 80.20201598880116 107.00284435728193 l -22.90656605567403 8.102396524663584 a45.297316681185976,45.297316681185976 0 0,0 -0.2536847512083676,-0.7373266342113287 l 23.042641637825625 -7.706897187362959" fill="#d9ff1c" stroke="none" /><path d="M 80.0844068197444 106.66101706037122 l -14.203074285675696 4.75039429005807 a35.9764336567635,35.9764336567635 0 0,0 -0.19137363906001412,-0.5889874983843271 l 14.28274017575196 -4.505207891695939" fill="#ffae10" stroke="none" /><path d="M 79.76711848015287 105.62410040840567 l -35.87235374274195 9.971378478004954 a58.23243413740274,58.23243413740274 0 0,0 -0.26013793646336414,-0.9680700352678839 l 36.03867975554709 -9.352417509561532" fill="#49ff2c" stroke="none" /><path d="M 79.67330655649465 105.27499134158121 l -18.83290526504233 4.887337553745568 a40.45673120249933,40.45673120249933 0 0,0 -0.16912586953264344,-0.6755737781761615 l 18.914242448870034 -4.562435936172015" fill="#ffe915" stroke="none" /><path d="M 79.35854240842038 103.8639653848113 l -14.322417844708616 2.6810764953601613 a35.57119844393043,35.57119844393043 0 0,0 -0.10748186150124286,-0.6028153590544155 l 14.366446148549048 -2.434142385572532" fill="#ffa90f" stroke="none" /><path d="M 79.29508885075956 103.50808413554451 l -14.708843144182943 2.4921555525831733 a35.918475322178494,35.918475322178494 0 0,0 -0.09803733292783538,-0.610478565725583 l 14.74956223147207 -2.2385977571643765" fill="#ffae10" stroke="none" /><path d="M 79.23777060512086 103.15116336523772 l -21.676100542130385 3.2898651021752863 a42.92433686803448,42.92433686803448 0 0,0 -0.10458402049219859,-0.7314603957364175 l 21.729518613639183 -2.9162592344584684" fill="#f6ff19" stroke="none" /><path d="M 79.1416061653843 102.43462659150553 l -15.410470722047117 1.7987359000408207 a36.51509132145754,36.51509132145754 0 0,0 -0.06749675264656646,-0.6249361013164244 l 15.439149776194736 -1.533203476839614" fill="#ffb610" stroke="none" /><path d="M 79.10278846688536 102.07522291339032 l -15.171963148216065 1.5066701849860964 a36.246590465318874,36.246590465318874 0 0,0 -0.05631236416716857,-0.6214022461510896 l 15.19565010866031 -1.2452865502864405" fill="#ffb210" stroke="none" /><path d="M 79.04373962182676 101.35467743843564 l -15.349867399624273 0.9922628691380289 a36.38190543422752,36.38190543422752 0 0,0 -0.03501957478526101,-0.6252980326105788 l 15.364673325297066 -0.7278931201920125" fill="#ffb410" stroke="none" /><path d="M 79.0095281055655 100.63252640178507 l -13.495090855378272 0.4066607603413797 a34.50121661810208,34.50121661810208 0 0,0 -0.012778490483170335,-0.5937662406387114 l 13.50009140854645 -0.1743047039125394" fill="#ff9b0e" stroke="none" /><line stroke="#e1ed5e" stroke-width="0.3" x1="15.007084014347285" x2="10.007500721073583" y1="101.09737516637583" y2="101.16192664675087" /><path d="M 14.007167355692545 101.11028546245083 a86.0,86.0 0 0,1 10.666146001902534,-42.60595125391555" fill="none" id="id10" stroke="none" /><text fill="#e1ed5e" style="font-size:6.75px; font-family:Arial;" text-anchor="middle"><textPath startOffset="22.20632615414155" xlink:href="#id10">October</textPath></text><path d="M 79.05617556472873 98.46500227214037 l -23.612055966106844 -1.7305555807195179 a44.67538826639431,44.67538826639431 0 0,0 0.06281256662522264,-0.7664724112247994 l 23.578768915662124 2.1367419091520956" fill="#e1ff1b" stroke="none" /><path d="M 79.08570108090925 98.10471618934814 l -13.072222155131021 -1.1846235494534771 a34.12578854876986,34.12578854876986 0 0,0 0.05805101215821646,-0.5845657702380509 l 13.049894017290574 1.4094648503959584" fill="#ff960d" stroke="none" /><path d="M 79.12142395522702 97.74499172005258 l -15.308253616353822 -1.6533808906501173 a36.39728213523987,36.39728213523987 0 0,0 0.0726379640912706,-0.622317717076882 l 15.277525299258963 1.916642346051861" fill="#ffb410" stroke="none" /><path d="M 79.21141760316559 97.0276538004421 l -24.29601947910845 -3.4738386574213695 a45.543107332752555,45.543107332752555 0 0,0 0.11764024606014886,-0.7751022373879992 l 24.232623339608995 3.8915400072014608" fill="#d6ff1c" stroke="none" /><path d="M 79.26566170972629 96.67025291283419 l -23.662707765827857 -3.800016723691692 a44.96588963321217,44.96588963321217 0 0,0 0.1293050652398469,-0.7631658145856571 l 23.59379083906779 4.206768326593178" fill="#ddff1b" stroke="none" /><path d="M 79.46518482838121 95.60439243477599 l -11.799391528815057 -2.525734672342361 a33.06668869596564,33.06668869596564 0 0,0 0.12393019064898905,-0.5555547444110605 l 11.75416695116403 2.7284675863033803" fill="#ff870c" stroke="none" /><path d="M 79.62865764111835 94.90015583598534 l -14.422994839763641 -3.610710809595372 a35.868087055784194,35.868087055784194 0 0,0 0.15509304159335013,-0.5976367556925437 l 14.358705466299984 3.8584439908367796" fill="#ffad10" stroke="none" /><path d="M 79.71946130924805 94.55025226153421 l -12.052402655125787 -3.2386986911152635 a33.479967106251316,33.479967106251316 0 0,0 0.15434779699467635,-0.5552711478577594 l 11.994868087564749 3.4456811423919653" fill="#ff8d0d" stroke="none" /><path d="M 80.02781315780177 93.51064311812611 l -22.850961978596963 -7.424727624715413 a45.02692330799964,45.02692330799964 0 0,0 0.2458528037917189,-0.7350685906017184 l 22.719771881033473 7.816969318239453" fill="#ddff1b" stroke="none" /><path d="M 80.38941819471856 92.48833698450439 l -22.65417190702635 -8.67748376618077 a45.25922977560155,45.25922977560155 0 0,0 0.28493152874862604,-0.725119661697735 l 22.501446828396034 9.066152432774269" fill="#daff1c" stroke="none" /><path d="M 80.52162464483688 92.15188598940014 l -6.314351673175026 -2.544141948725915 a27.807620385112198,27.807620385112198 0 0,0 0.1827070739260336,-0.44243967170699383 l 6.269622912362793 2.65245619088622" fill="#ff3d05" stroke="none" /><path d="M 80.803312248108 91.48605970444005 l -22.12781708160747 -9.813928107743976 a45.206475862897655,45.206475862897655 0 0,0 0.3216067977223371,-0.7086179481846694 l 21.955607966921782 10.193368064770716" fill="#daff1b" stroke="none" /><path d="M 80.95270993114464 91.15688171328213 l -21.969554847135317 -10.199843206956984 a45.22185256391,45.22185256391 0 0,0 0.3338703666347917,-0.7032161396919264 l 21.79072628665877 10.576501762289443" fill="#daff1c" stroke="none" /><path d="M 81.6062741919709 89.86733742301443 l -21.1937560141689 -11.675132089703716 a45.19677671302833,45.19677671302833 0 0,0 0.38125064918691337,-0.6782023638128929 l 20.989647723689558 12.038217963451395" fill="#daff1b" stroke="none" /><line stroke="#e1ed5e" stroke-width="0.3" x1="26.266209847984243" x2="21.928928074336255" y1="57.711370442889674" y2="55.22380399835377" /><path d="M 25.398753493254645 57.213857153982495 a86.0,86.0 0 0,1 29.58750427330803,-30.492523968695096" fill="none" id="id11" stroke="none" /><text fill="#e1ed5e" style="font-size:6.75px; font-family:Arial;" text-anchor="middle"><textPath startOffset="21.46611528233685" xlink:href="#id11">November</textPath></text><path d="M 81.96595687620814 89.24020034530311 l -2.2960372275950265 -1.36990359838142 a23.673653459100603,23.673653459100603 0 0,0 0.2118050229434217,-0.34815176733800396 l 2.272116406365388 1.4092231389264984" fill="#ff0000" stroke="none" /><path d="M 82.15384107792192 88.93136811851018 l -22.412974853694756 -13.901084771677457 a47.373881011745624,47.373881011745624 0 0,0 0.43577745096174514,-0.6892952752402731 l 22.17036980648705 14.284827694631945" fill="#c1ff1e" stroke="none" /><path d="M 82.7489923806493 88.02491185347247 l -11.90440789088947 -8.263652591846965 a35.491476163297186,35.491476163297186 0 0,0 0.35269634189579013,-0.49886396321482956 l 11.760398929189803 8.467343055393581" fill="#ffa80f" stroke="none" /><path d="M 82.95767976084542 87.72973835380427 l -18.289303672796954 -13.16807443134162 a43.536566132956835,43.536566132956835 0 0,0 0.44311390025645814,-0.6044068619683971 l 18.059927160026863 13.480943736981516" fill="#efff19" stroke="none" /><path d="M 83.17141714833178 87.43820079747576 l -22.82562015517639 -17.03832459273255 a49.48356439063955,49.48356439063955 0 0,0 0.515392671223924,-0.6781963416808369 l 22.528951543728358 17.428705710294416" fill="#a8ff21" stroke="none" /><path d="M 83.6137871275137 86.86637796730984 l -11.664082788603631 -9.348813902005828 a35.948282465679355,35.948282465679355 0 0,0 0.39115413098435764,-0.4795087140017614 l 11.501430165542882 9.54820678561567" fill="#ffae10" stroke="none" /><path d="M 84.5562425177563 85.77008943001954 l -11.50818341298483 -10.603664359401426 a36.64851377331851,36.64851377331851 0 0,0 0.4314623907609603,-0.4602539956185763 l 11.323953700253412 10.800187771898052" fill="#ffb711" stroke="none" /><path d="M 85.05521093208273 85.24692304244772 l -11.077108274900336 -10.935010865932451 a36.56524302322088,36.56524302322088 0 0,0 0.4460336295586243,-0.4441182194042789 l 10.8872388451744 11.12406493598684" fill="#ffb610" stroke="none" /><path d="M 86.10567301691215 84.25364557470407 l -9.463159858333357 -10.72454025977116 a35.30269758779176,35.30269758779176 0 0,0 0.45911360170112003,-0.39813879121465184 l 9.277152457985464 10.885844044405493" fill="#ffa50f" stroke="none" /><line stroke="#e1ed5e" stroke-width="0.3" x1="56.762969772571076" x2="54.21961505331055" y1="26.818313649435495" y2="22.513508569990535" /><path d="M 56.25429882871897 25.957352633546506 a86.0,86.0 0 0,1 42.265352541879196,-11.944610805530505" fill="none" id="id12" stroke="none" /><text fill="#e1ed5e" style="font-size:6.75px; font-family:Arial;" text-anchor="middle"><textPath startOffset="22.20632615414155" xlink:href="#id12">December</textPath></text></svg>