<?xml version="1.0" encoding="utf-8" ?>
<svg baseProfile="full" height="200" version="1.1" viewBox="0 0 200 200" width="200" xmlns="http://www.w3.org/2000/svg" xmlns:ev="http://www.w3.org/2001/xml-events" xmlns:xlink="http://www.w3.org/1999/xlink"><defs /><rect fill="#FAF9F5" height="200" width="200" x="0" y="0" /><g id="tracks"><text alignment-baseline="middle" fill="#5A5A5A" style="dominant-baseline: central; font-size:9.0px; font-family:Arial;" text-anchor="middle" x="100.0" y="100.0">2026</text><line stroke="#5A5A5A" stroke-width="0.3" x1="100.0" x2="100.0" y1="15.0" y2="10.0" /><path d="M 100.0 14.0 a86.0,86.0 0 0,1 42.46469731375804,11.215312516191453" fill="none" id="id97" stroke="none" /><text fill="#5A5A5A" style="font-size:6.75px; font-family:Arial;" text-anchor="middle"><textPath startOffset="22.20632615414155" xlink:href="#id97">January</textPath></text><path d="M 100.0 79.0 l 0.0 -23.108681478509453 a44.10868147850945,44.10868147850945 0 0,0 0.759258443853852,0.006535177132695626 l -0.39777796458132364 23.105257677985318" fill="red" stroke="none" /><path d="M 100.72285384407766 79.0124445844662 l 2.1685615322329816 -62.9626662466014 a84.0,84.0 0 0,0 1.4446366704426739,0.062209093903220936 l -3.2520390350649873 62.916009426173986" fill="red" stroke="none" /><path d="M 101.44485096284872 79.0497635885617 l 1.5912998216639664 -23.073734469892425 a44.12854205326245,44.12854205326245 0 0,0 0.7573504516729659,0.05878497114025402 l -1.9882404626992736 23.042924236563707" fill="red" stroke="none" /><path d="M 102.88285421437855 79.19881850522331 l 2.049163997395607 -14.785705086920787 a35.927027433672706,35.927027433672706 0 0,0 0.611839021489144,0.09016916730736856 l -2.3033719993134065 14.74824143545245" fill="red" stroke="none" /><path d="M 103.59715602781102 79.31037775812273 l 7.562911466036347 -43.49930335834583 a65.15186318270726,65.15186318270726 0 0,0 1.1032533531908089,0.20161249847765578 l -8.310559940330057 43.36267537851744" fill="red" stroke="none" /><path d="M 103.95276090670814 79.375362276772 l 11.167803446436418 -58.2711440644128 a80.33166156778174,80.33166156778174 0 0,0 1.3558209163305055,0.27196492091494506 l -12.169190772234048 58.07027518742065" fill="red" stroke="none" /><path d="M 106.74666289553966 80.11325718540242 l 7.263733195623392 -21.41088063414542 a43.60945884949095,43.60945884949095 0 0,0 0.7087949094473042,0.2472846263532909 l -7.63121010913397 21.282675154619923" fill="red" stroke="none" /><path d="M 107.08798089147638 80.2323363322302 l 5.8410979354002075 -16.290232889361704 a38.30578263704298,38.30578263704298 0 0,0 0.6187618331237592,0.22789520508539884 l -6.120642094296543 16.18727441646998" fill="red" stroke="none" /><path d="M 108.43124777332544 80.76684994638697 l 12.745003548016403 -29.07358107163629 a52.74442048247154,52.74442048247154 0 0,0 0.8283834774393395,0.3716715195282494 l -13.243569143922521 28.84988922159151" fill="red" stroke="none" /><path d="M 108.76106565485865 80.91482961587045 l 15.179787690416257 -33.06776205995466 a57.38547570088771,57.38547570088771 0 0,0 0.8941799049651397,0.41982945502464636 l -15.746745806680995 32.801567622290015" fill="red" stroke="none" /><path d="M 109.41281617654863 81.2277094730956 l 10.518631390428586 -20.977654370696907 a44.46707457746126,44.46707457746126 0 0,0 0.6812768996622299,0.34897648894533795 l -10.878168777679571 20.793485356439067" fill="red" stroke="none" /><line stroke="#5A5A5A" stroke-width="0.3" x1="143.23703022742887" x2="145.7803849466894" y1="26.81831364943548" y2="22.513508569990506" /><path d="M 143.74570117128098 25.957352633546492 a86.0,86.0 0 0,1 28.547481713284135,27.462654790039103" fill="none" id="id98" stroke="none" /><text fill="#5A5A5A" style="font-size:6.75px; font-family:Arial;" text-anchor="middle"><textPath startOffset="19.985693538727396" xlink:href="#id98">February</textPath></text><path d="M 111.60114157652 82.49532879139004 l 13.144076034366021 -19.83276626743529 a44.792968554089974,44.792968554089974 0 0,0 0.6390363382095594,0.43148018815584116 l -13.483517066982122 19.603574166980778" fill="red" stroke="none" /><path d="M 112.19680574252982 82.90503203632743 l 4.202420154028782 -5.8900862586102924 a28.235568483875824,28.235568483875824 0 0,0 0.39322020231061133,0.2856911998495293 l -4.303185672693182 5.816875823944088" fill="red" stroke="none" /><line stroke="#5A5A5A" stroke-width="0.3" x1="172.23445277983987" x2="176.4835382374775" y1="55.19839476539836" y2="52.563006222186495" /><path d="M 173.08426987136738 54.67131705675599 a86.0,86.0 0 0,1 12.851231095245387,41.99856678651699" fill="none" id="id99" stroke="none" /><text fill="#5A5A5A" style="font-size:6.75px; font-family:Arial;" text-anchor="middle"><textPath startOffset="22.20632615414155" xlink:href="#id99">March</textPath></text><line stroke="#5A5A5A" stroke-width="0.3" x1="184.98032266829074" x2="189.97916517819016" y1="98.17113171792111" y2="98.06355123074" /><path d="M 185.9800911702706 98.14961562048488 a86.0,86.0 0 0,1 -9.607161424134198,41.387399972396054" fill="none" id="id100" stroke="none" /><text fill="#5A5A5A" style="font-size:6.75px; font-family:Arial;" text-anchor="middle"><textPath startOffset="21.466115282336823" xlink:href="#id100">April</textPath></text><line stroke="#5A5A5A" stroke-width="0.3" x1="174.80103733775053" x2="179.2010983576182" y1="140.37084112569926" y2="142.7455964860345" /><path d="M 175.68104954172406 140.8457921977663 a86.0,86.0 0 0,1 -30.038265399797805,32.042727171017184" fill="none" id="id101" stroke="none" /><text fill="#5A5A5A" style="font-size:6.75px; font-family:Arial;" text-anchor="middle"><textPath startOffset="22.206326154141568" xlink:href="#id101">May</textPath></text><line stroke="#5A5A5A" stroke-width="0.3" x1="143.8653032363475" x2="146.44561519142675" y1="172.8068346515853" y2="177.08958963109032" /><path d="M 144.38136562736335 173.6633856474863 a86.0,86.0 0 0,1 -40.68145358897372,12.25698825130547" fill="none" id="id102" stroke="none" /><text fill="#5A5A5A" style="font-size:6.75px; font-family:Arial;" text-anchor="middle"><textPath startOffset="21.466115282336833" xlink:href="#id102">June</textPath></text><line stroke="#5A5A5A" stroke-width="0.3" x1="102.19456741930631" x2="102.32365962044197" y1="184.97166512339345" y2="189.96999836594603" /><path d="M 102.22038585953345 185.97133177190398 a86.0,86.0 0 0,1 -42.740103519485714,-10.115201625700543" fill="none" id="id103" stroke="none" /><text fill="#5A5A5A" style="font-size:6.75px; font-family:Arial;" text-anchor="middle"><textPath startOffset="22.20632615414155" xlink:href="#id103">July</textPath></text><line stroke="#5A5A5A" stroke-width="0.3" x1="58.666819895761336" x2="56.23545636021788" y1="174.27360380694188" y2="178.64263932499728" /><path d="M 58.180547188652646 175.14741091055294 a86.0,86.0 0 0,1 -31.652253787137756,-30.449443065178592" fill="none" id="id104" stroke="none" /><text fill="#5A5A5A" style="font-size:6.75px; font-family:Arial;" text-anchor="middle"><textPath startOffset="22.20632615414155" xlink:href="#id104">August</textPath></text><line stroke="#5A5A5A" stroke-width="0.3" x1="26.63291911575756" x2="22.317208475507996" y1="142.92168965132927" y2="145.44649492493687" /><path d="M 25.769776987707644 143.4266507060508 a86.0,86.0 0 0,1 -11.730757126820373,-40.83630448921669" fill="none" id="id105" stroke="none" /><text fill="#5A5A5A" style="font-size:6.75px; font-family:Arial;" text-anchor="middle"><textPath startOffset="21.46611528233685" xlink:href="#id105">September</textPath></text><line stroke="#5A5A5A" stroke-width="0.3" x1="15.007084014347285" x2="10.007500721073583" y1="101.09737516637583" y2="101.16192664675087" /><path d="M 14.007167355692545 101.11028546245083 a86.0,86.0 0 0,1 10.666146001902534,-42.60595125391555" fill="none" id="id106" stroke="none" /><text fill="#5A5A5A" style="font-size:6.75px; font-family:Arial;" text-anchor="middle"><textPath startOffset="22.20632615414155" xlink:href="#id106">October</textPath></text><line stroke="#5A5A5A" stroke-width="0.3" x1="26.266209847984243" x2="21.928928074336255" y1="57.711370442889674" y2="55.22380399835377" /><path d="M 25.398753493254645 57.213857153982495 a86.0,86.0 0 0,1 29.58750427330803,-30.492523968695096" fill="none" id="id107" stroke="none" /><text fill="#5A5A5A" style="font-size:6.75px; font-family:Arial;" text-anchor="middle"><textPath startOffset="21.46611528233685" xlink:href="#id107">November</textPath></text><line stroke="#5A5A5A" stroke-width="0.3" x1="56.762969772571076" x2="54.21961505331055" y1="26.818313649435495" y2="22.513508569990535" /><path d="M 56.25429882871897 25.957352633546506 a86.0,86.0 0 0,1 42.265352541879196,-11.944610805530505" fill="none" id="id108" stroke="none" /><text fill="#5A5A5A" style="font-size:6.75px; font-family:Arial;" text-anchor="middle"><textPath startOffset="22.20632615414155" xlink:href="#id108">December</textPath></text></g></svg>