<?xml version="1.0" encoding="utf-8" ?>
<svg baseProfile="full" height="200mm" version="1.1" viewBox="0,0,200,200" width="200mm" xmlns="http://www.w3.org/2000/svg" xmlns:ev="http://www.w3.org/2001/xml-events" xmlns:xlink="http://www.w3.org/1999/xlink"><defs /><rect fill="#1a1a1a" height="200" width="200" x="0" y="0" /><text alignment-baseline="middle" fill="#e1ed5e" style="dominant-baseline: central; font-size:9.0px; font-family:Arial;" text-anchor="middle" x="100.0" y="100.0">2024</text><line stroke="#e1ed5e" stroke-width="0.3" x1="100.0" x2="100.0" y1="15.0" y2="10.0" /><path d="M 100.0 14.0 a86.0,86.0 0 0,1 42.35913384403234,11.155469271406648" fill="none" id="id13" stroke="none" /><text fill="#e1ed5e" style="font-size:6.75px; font-family:Arial;" text-anchor="middle"><textPath startOffset="22.145653131862478" xlink:href="#id13">January</textPath></text><path d="M 100.0 79.0 l 0.0 -59.800535173219416 a80.80053517321942,80.80053517321942 0 0,0 1.3870486311403158,0.01190614429282784 l -1.0265557062914612 59.79172342712102" fill="#49f3ff" stroke="none" /><path d="M 100.36049292484886 79.00309439819443 l 0.4331357622745849 -25.22798669920816 a46.23170464879424,46.23170464879424 0 0,0 0.7933948011066313,0.020435035711397237 l -0.8661438774519575 25.216833946146718" fill="#f1ff19" stroke="none" /><path d="M 100.72087961077811 79.0123766808444 l 0.8543451926484704 -24.873328111587536 a45.8879962442719,45.8879962442719 0 0,0 0.7870321021348722,0.033798544856381105 l -1.281203055384179 24.854996998305324" fill="#f6ff19" stroke="none" /><path d="M 101.08105385017728 79.02784411241856 l 0.994234444758213 -19.287882616442207 a40.313490568946804,40.313490568946804 0 0,0 0.6908112984042962,0.041557492276220985 l -1.3251900952949716 19.267973146341294" fill="#ffbb11" stroke="none" /><path d="M 101.44090949804482 79.04949213459386 l 2.0921812492030174 -30.41985619274458 a51.49171810782032,51.49171810782032 0 0,0 0.8813200000116271,0.06821974185813295 l -2.614070243989878 30.379458683891393" fill="#aeff20" stroke="none" /><path d="M 101.80034050326958 79.07731436759882 l 5.401021509808744 -62.76805689720356 a84.0,84.0 0 0,0 1.4356017464599482,0.1359529779792652 l -6.477722819653705 62.666092163719114" fill="#4dd2ff" stroke="none" /><path d="M 102.15924093988457 79.11130261209362 l 5.309145669479945 -51.361168283521366 a72.6348393547221,72.6348393547221 0 0,0 1.239164534942404,0.13885097079017442 l -6.190046106023146 51.26246155222422" fill="#3dffb0" stroke="none" /><path d="M 102.51750503828377 79.15144685158666 l 2.8724927736102464 -23.78836083675635 a44.96116286898794,44.96116286898794 0 0,0 0.765457756154449,0.09910383153235379 l -3.280428351655487 23.7355454090236" fill="#fffc17" stroke="none" /><path d="M 102.87502721639298 79.19773525538626 l 3.7599884224360545 -27.20540318860974 a48.46400326958308,48.46400326958308 0 0,0 0.8231377737146428,0.12097290643004754 l -4.226451301758379 27.13684920888081" fill="#d4ff1c" stroke="none" /><path d="M 103.23170211078529 79.25015418208739 l 5.907176443322037 -37.92831028858433 a59.38556310489232,59.38556310489232 0 0,0 1.0059419423938927,0.16552736381511182 l -6.557395888768999 37.821316926273546" fill="#51ff2b" stroke="none" /><path d="M 103.58742460773223 79.30868818359171 l 4.433291246780543 -25.57004581012693 a46.951518529958335,46.951518529958335 0 0,0 0.7929558490290626,0.14450297044221502 l -4.87158182936066 25.49017466575335" fill="#e8ff1a" stroke="none" /><path d="M 103.94208987418118 79.37332000966035 l 4.82891303130775 -25.266913484222677 a46.72421656888947,46.72421656888947 0 0,0 0.7865321318054819,0.15732845447816227 l -5.261941648644188 25.180295633081656" fill="#ebff1a" stroke="none" /><path d="M 104.29559338865022 79.4440306129975 l 1.431359077944075 -6.8495713457814 a27.99752930904634,27.99752930904634 0 0,0 0.4696086697358784,0.1023490238530457 l -1.5487301642990874 6.823990863794635" fill="#ff0000" stroke="none" /><path d="M 104.9986988182912 79.60360301121754 l 6.36516926499214 -25.972062720505626 a47.7406698070538,47.7406698070538 0 0,0 0.7943017775456584,0.2019084057591676 l -6.810076335763193 25.85896908291119" fill="#deff1b" stroke="none" /><path d="M 105.3480935250658 79.69241777938227 l 6.199033801594149 -23.53874105309569 a45.3413300876924,45.3413300876924 0 0,0 0.7509789481361349,0.2046826517695516 l -6.602194150664977 23.428857907181996" fill="#fdff18" stroke="none" /><path d="M 105.69591212413111 79.78721728523813 l 4.665712278606638 -16.55696689868765 a38.20180292733815,38.20180292733815 0 0,0 0.6296748377271054,0.18328916828294878 l -4.949247128715348 16.47443403610219" fill="#ff9d0e" stroke="none" /><path d="M 106.38641147887787 79.99465700312896 l 6.751144704579619 -21.147864631540365 a43.19932731629788,43.19932731629788 0 0,0 0.7045136835592761,0.23158764120577602 l -7.113181125786637 21.028856068932566" fill="#ffe415" stroke="none" /><line stroke="#e1ed5e" stroke-width="0.3" x1="143.13028292997686" x2="145.6673583964461" y1="26.7553504044142" y2="22.446841604673864" /><path d="M 143.63769802327073 25.89364864446614 a86.0,86.0 0 0,1 29.32050498858742,28.57503671076993" fill="none" id="id14" stroke="none" /><text fill="#e1ed5e" style="font-size:6.75px; font-family:Arial;" text-anchor="middle"><textPath startOffset="20.669276256404974" xlink:href="#id14">February</textPath></text><line stroke="#e1ed5e" stroke-width="0.3" x1="172.87174338648825" x2="177.1583165268699" y1="56.24261187166439" y2="53.66864786411523" /><path d="M 173.72905801456457 55.72781907015455 a86.0,86.0 0 0,1 12.242430191666344,42.057860355516425" fill="none" id="id15" stroke="none" /><text fill="#e1ed5e" style="font-size:6.75px; font-family:Arial;" text-anchor="middle"><textPath startOffset="22.145653131862474" xlink:href="#id15">March</textPath></text><line stroke="#e1ed5e" stroke-width="0.3" x1="184.99686870605535" x2="189.99668451229388" y1="99.2704041080226" y2="99.22748670261217" /><path d="M 185.99683186730306 99.26182062694052 a86.0,86.0 0 0,1 -10.086455211305974,41.156179273409016" fill="none" id="id16" stroke="none" /><text fill="#e1ed5e" style="font-size:6.75px; font-family:Arial;" text-anchor="middle"><textPath startOffset="21.40746469413373" xlink:href="#id16">April</textPath></text><line stroke="#e1ed5e" stroke-width="0.3" x1="174.33088141563837" x2="178.70328620479359" y1="141.23008692659167" y2="143.65538615756765" /><path d="M 175.20536237346943 141.71514677278685 a86.0,86.0 0 0,1 -30.301960400862466,31.631185727798858" fill="none" id="id17" stroke="none" /><text fill="#e1ed5e" style="font-size:6.75px; font-family:Arial;" text-anchor="middle"><textPath startOffset="22.145653131862474" xlink:href="#id17">May</textPath></text><line stroke="#e1ed5e" stroke-width="0.3" x1="143.1302829299769" x2="145.66735839644613" y1="173.24464959558577" y2="177.55315839532614" /><path d="M 143.63769802327073 174.10635135553383 a86.0,86.0 0 0,1 -40.68552437913181,11.842963189579606" fill="none" id="id18" stroke="none" /><text fill="#e1ed5e" style="font-size:6.75px; font-family:Arial;" text-anchor="middle"><textPath startOffset="21.407464694133747" xlink:href="#id18">June</textPath></text><line stroke="#e1ed5e" stroke-width="0.3" x1="101.45913802915013" x2="101.54496967792366" y1="184.9874750549273" y2="189.98673829345242" /><path d="M 101.47630435890484 185.9873277026323 a86.0,86.0 0 0,1 -42.54439059252881,-10.42667462771756" fill="none" id="id19" stroke="none" /><text fill="#e1ed5e" style="font-size:6.75px; font-family:Arial;" text-anchor="middle"><textPath startOffset="22.145653131862474" xlink:href="#id19">July</textPath></text><line stroke="#e1ed5e" stroke-width="0.3" x1="58.13341422392154" x2="55.67067388415222" y1="173.97424548756322" y2="178.32567169271397" /><path d="M 57.64086615596768 174.84453072859336 a86.0,86.0 0 0,1 -31.369924170532247,-30.572349798747897" fill="none" id="id20" stroke="none" /><text fill="#e1ed5e" style="font-size:6.75px; font-family:Arial;" text-anchor="middle"><textPath startOffset="22.145653131862474" xlink:href="#id20">August</textPath></text><line stroke="#e1ed5e" stroke-width="0.3" x1="26.387840678322732" x2="22.057713659400548" y1="142.50000000000003" y2="145.00000000000006" /><path d="M 25.521815274538298 143.00000000000003 a86.0,86.0 0 0,1 -11.493303480769221,-40.785679425670985" fill="none" id="id21" stroke="none" /><text fill="#e1ed5e" style="font-size:6.75px; font-family:Arial;" text-anchor="middle"><textPath startOffset="21.40746469413373" xlink:href="#id21">September</textPath></text><line stroke="#e1ed5e" stroke-width="0.3" x1="15.003131293944662" x2="10.003315487706104" y1="100.72959589197737" y2="100.7725132973878" /><path d="M 14.003168132696942 100.73817937305945 a86.0,86.0 0 0,1 10.791469493833604,-42.45332614584628" fill="none" id="id22" stroke="none" /><text fill="#e1ed5e" style="font-size:6.75px; font-family:Arial;" text-anchor="middle"><textPath startOffset="22.145653131862435" xlink:href="#id22">October</textPath></text><line stroke="#e1ed5e" stroke-width="0.3" x1="26.387840678322718" x2="22.05771365940052" y1="57.49999999999999" y2="54.99999999999999" /><path d="M 25.521815274538284 56.99999999999999 a86.0,86.0 0 0,1 29.574782752854787,-30.34633250058573" fill="none" id="id23" stroke="none" /><text fill="#e1ed5e" style="font-size:6.75px; font-family:Arial;" text-anchor="middle"><textPath startOffset="21.40746469413373" xlink:href="#id23">November</textPath></text><line stroke="#e1ed5e" stroke-width="0.3" x1="56.869717070023135" x2="54.33264160355391" y1="26.7553504044142" y2="22.446841604673864" /><path d="M 56.362301976729285 25.89364864446614 a86.0,86.0 0 0,1 42.16139366436587,-11.88097634709845" fill="none" id="id24" stroke="none" /><text fill="#e1ed5e" style="font-size:6.75px; font-family:Arial;" text-anchor="middle"><textPath startOffset="22.145653131862474" xlink:href="#id24">December</textPath></text></svg>