<?xml version="1.0" encoding="utf-8" ?>
<svg baseProfile="full" height="200" version="1.1" viewBox="0 0 200 200" width="200" xmlns="http://www.w3.org/2000/svg" xmlns:ev="http://www.w3.org/2001/xml-events" xmlns:xlink="http://www.w3.org/1999/xlink"><defs /><rect fill="#FAF9F5" height="200" width="200" x="0" y="0" /><g id="tracks"><text alignment-baseline="middle" fill="#5A5A5A" style="dominant-baseline: central; font-size:9.0px; font-family:Arial;" text-anchor="middle" x="100.0" y="100.0">2023</text><line stroke="#5A5A5A" stroke-width="0.3" x1="100.0" x2="100.0" y1="15.0" y2="10.0" /><path d="M 100.0 14.0 a86.0,86.0 0 0,1 42.46469731375804,11.215312516191453" fill="none" id="id61" stroke="none" /><text fill="#5A5A5A" style="font-size:6.75px; font-family:Arial;" text-anchor="middle"><textPath startOffset="22.20632615414155" xlink:href="#id61">January</textPath></text><path d="M 102.52436894288641 79.15227682838746 l 2.0361645219912514 -16.815843977938908 a37.93867098242953,37.93867098242953 0 0,0 0.6476407031994167,0.08408235068792283 l -2.325319953698514 16.778303304086847" fill="#ffd013" stroke="none" /><path d="M 104.307194497241 79.44645832069477 l 0.6494054623505674 -3.0989039955685147 a24.166217526999883,24.166217526999883 0 0,0 0.40640359758802597,0.08882408548397062 l -0.7026517840921213 3.0872664119886735" fill="#ff1202" stroke="none" /><path d="M 105.36241919743992 79.69619591428918 l 1.2323045443406455 -4.665892225316634 a25.825880722549286,25.825880722549286 0 0,0 0.42883519621950533,0.11721685847017675 l -1.3124376297838616 4.643988826020164" fill="#ff2a04" stroke="none" /><path d="M 106.0581310904928 79.89281104454417 l 3.1163436896401873 -10.343274267549825 a31.80254231955231,31.80254231955231 0 0,0 0.5227953711283743,0.16243506664705296 l -3.2939244334792797 10.288099066020251" fill="#ff7e0b" stroke="none" /><path d="M 106.74666289553966 80.11325718540242 l 2.4233394050828396 -7.14313553938247 a28.543007305194404,28.543007305194404 0 0,0 0.46391628816268066,0.1618512837048571 l -2.545937697308794 7.100363402505406" fill="#ff5107" stroke="none" /><path d="M 107.4271985657038 80.35727306442388 l 3.0718092003309607 -8.12401994998686 a29.68537344683707,29.68537344683707 0 0,0 0.4764033621359978,0.1848371031384654 l -3.2111957274666256 8.069940142957847" fill="#ff6109" stroke="none" /><path d="M 109.41281617654863 81.2277094730956 l 4.842374912008497 -9.65730839564187 a31.803342086455665,31.803342086455665 0 0,0 0.4872567512354407,0.24959183313768704 l -5.007892150832693 9.572524037191682" fill="#ff7e0b" stroke="none" /><path d="M 110.36928655335952 81.73862282372117 l 2.778892648527494 -4.893914979204408 a26.627845784642773,26.627845784642773 0 0,0 0.3966322461355044,0.22975499780172215 l -2.8627216271283262 4.8453558240126355" fill="#ff3605" stroke="none" /><line stroke="#5A5A5A" stroke-width="0.3" x1="143.23703022742887" x2="145.7803849466894" y1="26.81831364943548" y2="22.513508569990506" /><path d="M 143.74570117128098 25.957352633546492 a86.0,86.0 0 0,1 28.547481713284135,27.462654790039103" fill="none" id="id62" stroke="none" /><text fill="#5A5A5A" style="font-size:6.75px; font-family:Arial;" text-anchor="middle"><textPath startOffset="19.985693538727396" xlink:href="#id62">February</textPath></text><path d="M 111.60114157652 82.49532879139004 l 10.046375373831191 -15.158723527098203 a39.18561401555973,39.18561401555973 0 0,0 0.5590393336123293,0.3774658535528575 l -10.305819401850062 14.983545761246676" fill="#ffdf14" stroke="none" /><path d="M 114.42810811169701 84.74124197986012 l 6.9266492089701135 -7.325427793570709 a31.081684463567807,31.081684463567807 0 0,0 0.3855856961671895,0.3709331342136896 l -7.051718148749721 7.205111572594717" fill="#ff740a" stroke="none" /><path d="M 114.68862486808459 84.99185889309783 l 6.675173638166001 -6.820376228161701 a30.54334715879809,30.54334715879809 0 0,0 0.372576765959295,0.37097680292175944 l -6.791586204292618 6.7044635745898224" fill="#ff6d0a" stroke="none" /><path d="M 114.94478906791727 85.2469230424477 l 6.938805871739218 -6.849794704633509 a30.750216121774322,30.750216121774322 0 0,0 0.3686156331763517,0.37989081221716026 l -7.055685768618679 6.7293396968662345" fill="#ff700a" stroke="none" /><path d="M 115.19652480421416 85.50635884689758 l 6.920695133561821 -6.6005927728983975 a30.563673252748906,30.563673252748906 0 0,0 0.35982565660461163,0.38383692234743183 l -7.033288112136896 6.480486433672911" fill="#ff6d0a" stroke="none" /><line stroke="#5A5A5A" stroke-width="0.3" x1="172.23445277983987" x2="176.4835382374775" y1="55.19839476539836" y2="52.563006222186495" /><path d="M 173.08426987136738 54.67131705675599 a86.0,86.0 0 0,1 12.851231095245387,41.99856678651699" fill="none" id="id63" stroke="none" /><text fill="#5A5A5A" style="font-size:6.75px; font-family:Arial;" text-anchor="middle"><textPath startOffset="22.20632615414155" xlink:href="#id63">March</textPath></text><path d="M 117.84615892207809 88.93136811851018 l 9.779994159764595 -6.0657957620019545 a32.50835192333596,32.50835192333596 0 0,0 0.2908478928641178,0.4780774625643667 l -9.882957850914936 5.896550526230506" fill="#ff880c" stroke="none" /><path d="M 118.03404312379186 89.2402003453031 l 11.229125704426425 -6.699725738020254 a34.07591637517238,34.07591637517238 0 0,0 0.2962013746593272,0.5063041643790861 l -11.342786753556078 6.505442161287273" fill="#ff9d0e" stroke="none" /><path d="M 118.89224826269711 90.83032412892265 l 5.852458288098389 -2.84059074413206 a27.50539958723369,27.50539958723369 0 0,0 0.20307080148137738,0.42771889743089103 l -5.900487283421523 2.7394294310606284" fill="#ff4206" stroke="none" /><path d="M 119.04729006885535 91.15688171328212 l 6.683316098333211 -3.1028747182111935 a28.368483262324347,28.368483262324347 0 0,0 0.2018183652693014,0.44468001583283306 l -6.735736780565859 2.9873726935362974" fill="#ff4f07" stroke="none" /><path d="M 119.196687751892 91.48605970444005 l 8.719907305073633 -3.867373952097378 a30.539044223319117,30.539044223319117 0 0,0 0.2089878270198177,0.4823727186848818 l -8.785185841936132 3.7167020888258935" fill="#ff6d0a" stroke="none" /><path d="M 119.85752413597 93.16781622104841 l 5.653307240963252 -1.945078035140051 a26.978562646950504,26.978562646950504 0 0,0 0.14730642872605634,0.4404274723747621 l -5.685950963461078 1.8474774598429748" fill="#ff3b05" stroke="none" /><path d="M 120.08093135843002 93.85539295169968 l 10.122935852491754 -3.097538748500352 a31.58624468695694,31.58624468695694 0 0,0 0.15461331839076184,0.5212792472158491 l -10.174755067994218 2.922830114537973" fill="#ff7b0b" stroke="none" /><path d="M 120.45610955862082 95.25157060432595 l 6.6954239969342195 -1.55419328550406 a27.8734430431501,27.8734430431501 0 0,0 0.10446649624166283,0.46830281882995445 l -6.72118488017792 1.4387122971241417" fill="#ff4806" stroke="none" /><path d="M 120.53481517161879 95.60439243477599 l 11.412981527836747 -2.4430211582745125 a32.67152516745433,32.67152516745433 0 0,0 0.1129823410091158,0.550942019622159 l -11.45334316476086 2.2462034824889416" fill="#ff8a0c" stroke="none" /><path d="M 120.78858239683441 97.02765380044208 l 11.554022030492897 -1.6519911178346378 a32.67152516745433,32.67152516745433 0 0,0 0.07480845937780012,0.5574099144891229 l -11.580746488928535 1.4528628612808507" fill="#ff8a0c" stroke="none" /><path d="M 120.91429891909075 98.10471618934814 l 11.831720688115347 -1.072207524578818 a32.88020384578228,32.88020384578228 0 0,0 0.046228809079378846,0.5641085640479503 l -11.848423981014221 0.8683850433230991" fill="#ff8d0d" stroke="none" /><line stroke="#5A5A5A" stroke-width="0.3" x1="184.98032266829074" x2="189.97916517819016" y1="98.17113171792111" y2="98.06355123074" /><path d="M 185.9800911702706 98.14961562048488 a86.0,86.0 0 0,1 -9.607161424134198,41.387399972396054" fill="none" id="id64" stroke="none" /><text fill="#5A5A5A" style="font-size:6.75px; font-family:Arial;" text-anchor="middle"><textPath startOffset="21.466115282336823" xlink:href="#id64">April</textPath></text><path d="M 120.99980553446 99.90962569577887 l 10.205350013252831 -0.043919521314964495 a31.205444518361368,31.205444518361368 0 0,0 -0.0023117330771180054,0.5371653534204008 l -10.20459398288621 -0.13175531030912105" fill="#ff760a" stroke="none" /><path d="M 120.99824983174949 100.27111621757518 l 11.423052965917401 0.1474872876594639 a32.424005057867205,32.424005057867205 0 0,0 -0.012009137087671064,0.5580174114660017 l -11.418821766144722 -0.3440945149155804" fill="#ff870c" stroke="none" /><path d="M 120.9904718944345 100.63252640178507 l 2.8547054415361806 0.0860236287288951 a23.8560012644668,23.8560012644668 0 0,0 -0.015901577923882613,0.41034906914228797 l -2.852801730761095 -0.13514994488518925" fill="#ff0e01" stroke="none" /><path d="M 120.9764740272857 100.99374915477107 l 2.6055589140951314 0.12343694966180609 a23.608481154879676,23.608481154879676 0 0,0 -0.022724454959195943,0.40576040872182023 l -2.603048108248406 -0.16826907471904964" fill="#ff0a01" stroke="none" /><path d="M 120.89721153311464 102.0752229133903 l 9.511300382961155 0.9445312098018964 a30.558084231748893,30.558084231748893 0 0,0 -0.05648545240064234,0.5229851366211862 l -9.49363262905946 -1.1081126683078741" fill="#ff6d0a" stroke="none" /><path d="M 120.8583938346157 102.4346265915055 l 9.70166043567232 1.1323940215974893 a30.76752432447646,30.76752432447646 0 0,0 -0.06592819803868236,0.5255126057009724 l -9.68073072838679 -1.2992243815858564" fill="#ff700a" stroke="none" /><path d="M 120.81339534386255 102.79330883721812 l 10.492175994119012 1.4081262303347681 a31.58624468695694,31.58624468695694 0 0,0 -0.07695905639190409,0.5382514611601086 l -10.466382886710507 -1.5885231634752859" fill="#ff7b0b" stroke="none" /><path d="M 120.70491114924044 103.5080841355445 l 10.043266681350271 1.7016554314061885 a31.18640450993159,31.18640450993159 0 0,0 -0.09423277699068236,0.5285074570063643 l -10.0124874620204 -1.874281639145771" fill="#ff760a" stroke="none" /><path d="M 120.64145759157962 103.86396538481128 l 15.121663307126136 2.830690774635108 a36.38432681126117,36.38432681126117 0 0,0 -0.12053619309022764,0.6146114517223157 l -15.070697181060243 -3.0905659534253687" fill="#ffbb11" stroke="none" /><path d="M 120.41448212921028 104.9243191809786 l 8.941340583447486 2.1568029333319227 a30.197791600293748,30.197791600293748 0 0,0 -0.12623925884673518,0.5042630869477227 l -8.90289001030569 -2.3103938596770415" fill="#ff6809" stroke="none" /><path d="M 120.32669344350535 105.2749913415812 l 12.509007466179446 3.2462193745020693 a33.92335900671051,33.92335900671051 0 0,0 -0.15154359835085765,0.5639501050658842 l -12.451275791486811 -3.4610604127435014" fill="#ff9b0e" stroke="none" /><path d="M 120.23288151984713 105.62410040840565 l 9.17379826631097 2.5500254388174994 a30.521617739102243,30.521617739102243 0 0,0 -0.14506105640524988,0.5049765675694198 l -9.128544573019619 -2.707559481891501" fill="#ff6d0a" stroke="none" /><path d="M 120.13307415673323 105.97154293290107 l 12.791483458332737 3.7940004617418057 a34.342281985046526,34.342281985046526 0 0,0 -0.17297590500299367,0.5652952658686659 l -12.72428078082361 -4.013622700162529" fill="#ffa10e" stroke="none" /><path d="M 120.02730092923936 106.31721596034902 l 5.9666096254873775 1.8820489934452944 a27.256399830308727,27.256399830308727 0 0,0 -0.1449881462116636,0.44622763068119886 l -5.933329228259467 -1.9844755241042884" fill="#ff3f05" stroke="none" /><path d="M 119.9155931802556 106.66101706037122 l 9.045166146211203 3.025267963072129 a30.53767670142765,30.53767670142765 0 0,0 -0.1710243229418651,0.49707673718008877 l -8.991750992326107 -3.1805174033415184" fill="#ff6d0a" stroke="none" /><path d="M 119.67450827220406 107.3425965602758 l 8.968296620826239 3.3470002405419583 a30.5724999289272,30.5724999289272 0 0,0 -0.18824757752082832,0.4914550228095813 l -8.909354763711903 -3.500878830184684" fill="#ff6d0a" stroke="none" /><path d="M 119.41010516605496 108.01547362559984 l 6.257565699904003 2.5840845476589975 a27.770127136034084,27.770127136034084 0 0,0 -0.18625691234643985,0.4402563213845282 l -6.212157806365254 -2.691415394709689" fill="#ff4606" stroke="none" /><path d="M 119.26925614724726 108.34839909993367 l 6.02304682170502 2.609483120725641 a27.564030406221697,27.564030406221697 0 0,0 -0.19236925698905064,0.4337418905096237 l -5.977236479984697 -2.7127733477279525" fill="#ff4306" stroke="none" /><path d="M 118.81262510543309 109.33194174019688 l 1.7388145193204851 0.8625333094327695 a22.9409893463079,22.9409893463079 0 0,0 -0.17852604739965083,0.3522488282900163 l -1.7237098021345651 -0.8923363494254801" fill="#ff0000" stroke="none" /><line stroke="#5A5A5A" stroke-width="0.3" x1="174.80103733775053" x2="179.2010983576182" y1="140.37084112569926" y2="142.7455964860345" /><path d="M 175.68104954172406 140.8457921977663 a86.0,86.0 0 0,1 -30.038265399797805,32.042727171017184" fill="none" id="id65" stroke="none" /><text fill="#5A5A5A" style="font-size:6.75px; font-family:Arial;" text-anchor="middle"><textPath startOffset="22.206326154141568" xlink:href="#id65">May</textPath></text><path d="M 118.48025628344425 109.97397251340804 l 3.8388680382972296 2.071874096836994 a25.36228954662619,25.36228954662619 0 0,0 -0.21065626701204693,0.38240231387585805 l -3.8026353618336732 -2.1376469291106575" fill="#ff2403" stroke="none" /><path d="M 118.12598468904814 110.60418214915192 l 9.963019563799818 5.828630886681252 a32.54273350822207,32.54273350822207 0 0,0 -0.2870255525132786,0.4810713356911894 l -9.861213135588311 -5.999264316258546" fill="#ff880c" stroke="none" /><path d="M 117.94076556474637 110.91462005526583 l 7.418807140304442 4.513378256211605 a29.683851833643633,29.683851833643633 0 0,0 -0.2693249240555281,0.434237532500237 l -7.340017576580951 -4.640412120077116" fill="#ff6109" stroke="none" /><path d="M 117.75023020441432 111.22182372390056 l 8.26522882384436 5.225337352290616 a30.778453760986505,30.778453760986505 0 0,0 -0.2869653123416901,0.44537653741810085 l -8.17405864812562 -5.366835489630169" fill="#ff700a" stroke="none" /><path d="M 117.55443506779139 111.5257021239791 l 4.431422028245604 2.9095354015071804 a26.301216600464834,26.301216600464834 0 0,0 -0.2517363266958773,0.3763116523770058 l -4.380682596139006 -2.985383968089993" fill="#ff3104" stroke="none" /><path d="M 117.35343817320211 111.8261652097733 l 5.526382498505395 3.7661650554441604 a27.68766796010653,27.68766796010653 0 0,0 -0.271786226480588,0.39152833001991116 l -5.46073536486267 -3.860734647651091" fill="#ff4506" stroke="none" /><path d="M 117.14729908036423 112.12312394758627 l 7.982913725045693 5.643912321004484 a30.77653608537856,30.77653608537856 0 0,0 -0.3095536353292101,0.4299429251462221 l -7.8845802973408805 -5.780488851601837" fill="#ff700a" stroke="none" /><path d="M 116.93607887273984 112.41649034213515 l 8.92273982594182 6.541603502598016 a32.06380867453206,32.06380867453206 0 0,0 -0.3301636844148444,0.44230820985187813 l -8.808814874831883 -6.694224591959209" fill="#ff820c" stroke="none" /><path d="M 116.71984013943494 112.70617746262583 l 6.078122931017415 4.6190458734716575 a28.634079063370727,28.634079063370727 0 0,0 -0.3016030040026877,0.38986253916755587 l -5.997713109796659 -4.722986406752466" fill="#ff5207" stroke="none" /><path d="M 116.498646956653 112.99209946851258 l 8.507776307473902 6.69957217297648 a31.82896694052277,31.82896694052277 0 0,0 -0.3426647287166864,0.42752693618473847 l -8.39119366670236 -6.8450269427394685" fill="#ff7f0b" stroke="none" /><path d="M 116.27256486870786 113.27417163493432 l 8.876775361433666 7.241135043131234 a32.455617728006594,32.455617728006594 0 0,0 -0.35686342663441667,0.4298649864030371 l -8.750815934905706 -7.392861286648041" fill="#ff870c" stroke="none" /><path d="M 116.0416608686014 113.55231037782055 l 2.0292807375641884 1.7143762497205954 a23.656513925703216,23.656513925703216 0 0,0 -0.26546831923976877,0.3087996295733083 l -1.999469908753641 -1.7490529784554318" fill="#ff0b01" stroke="none" /><path d="M 115.80600337817218 113.82643327865902 l 7.963854631518592 6.966448258241793 a31.58084977337455,31.58084977337455 0 0,0 -0.3614370363626597,0.4060783419211634 l -7.842758745507594 -7.102500769903823" fill="#ff7b0b" stroke="none" /><path d="M 115.56566222782051 114.09645910891815 l 9.574063405229047 8.670392002775586 a33.91659349709283,33.91659349709283 0 0,0 -0.3956186383648489,0.4293658963150161 l -9.423398358868477 -8.833909153891938" fill="#ff9b0e" stroke="none" /><path d="M 115.32070863581623 114.36230785411682 l 6.96619444871452 6.530417856141626 a30.548519386434442,30.548519386434442 0 0,0 -0.3629359739041947,0.380536917639646 l -6.852751923431361 -6.649361890363779" fill="#ff6d0a" stroke="none" /><path d="M 115.07121518719521 114.62390073753431 l 8.57444989949712 8.319959781062803 a32.94750692979455,32.94750692979455 0 0,0 -0.39844420313662066,0.4036218741584559 l -8.429965071304965 -8.466322149201924" fill="#ff8e0d" stroke="none" /><path d="M 114.81725581225074 114.88116024355365 l 9.110568624897276 9.149861036002097 a33.91210353300778,33.91210353300778 0 0,0 -0.41719969346616936,0.40831770895238567 l -8.951718979055313 -9.305328847877053" fill="#ff9b0e" stroke="none" /><path d="M 114.55890576462653 115.13401014063108 l 9.242190581821978 9.60727462957975 a34.331084447969175,34.331084447969175 0 0,0 -0.4294069357611688,0.40603105999172906 l -9.075447811670001 -9.7649403263174" fill="#ffa00e" stroke="none" /><path d="M 114.29624159901734 115.38237550388516 l 9.332682743109954 10.04171826691946 a34.70894134992656,34.70894134992656 0 0,0 -0.4411348611344569,0.4029662364397213 l -9.158448332508632 -10.200877269945765" fill="#ffa50f" stroke="none" /><path d="M 113.75828350139079 115.86535959552629 l 7.083962679307709 8.168868976798121 a31.812629079087067,31.812629079087067 0 0,0 -0.41679774002408515,0.35520407628238826 l -6.942299462706576 -8.289597443303457" fill="#ff7e0b" stroke="none" /><path d="M 113.48314897796784 116.09983520530334 l 8.154065623880607 9.736532097377518 a33.699954467706334,33.699954467706334 0 0,0 -0.44793637898193484,0.36862114454871353 l -7.985259116353981 -9.875448360783409" fill="#ff980e" stroke="none" /><path d="M 113.20401910651253 116.32954008644616 l 7.58389573871223 9.379078330449254 a33.061616181273564,33.061616181273564 0 0,0 -0.4456115589887745,0.35402077273084664 l -7.421326687006104 -9.508233017185226" fill="#ff8f0d" stroke="none" /><path d="M 112.92097659922987 116.55440617244103 l 7.80261548532692 9.996741729195504 a33.681311194513846,33.681311194513846 0 0,0 -0.46010478897031004,0.3527887323077327 l -7.629381967863116 -10.12956980333061" fill="#ff980e" stroke="none" /><path d="M 112.63410532772338 116.77436683061366 l 6.029307684051821 8.005142920962783 a31.02171962958488,31.02171962958488 0 0,0 -0.4293037127532769,0.31758862349261746 l -5.89061900087998 -8.107741493195169" fill="#ff740a" stroke="none" /><path d="M 112.04921762599082 117.19931262002967 l 3.969851337991374 5.666651257910372 a27.918862343227325,27.918862343227325 0 0,0 -0.39597337800436644,0.2723541000694356 l -3.871721075364124 -5.734146147344902" fill="#ff4806" stroke="none" /><path d="M 111.7513745106137 117.40417183066458 l 8.411064740146308 12.457063289416473 a36.03078294233072,36.03078294233072 0 0,0 -0.5169993583206078,0.342638983581553 l -8.195390683085735 -12.600000294089345" fill="#ffb711" stroke="none" /><path d="M 111.45004920935366 117.60387380957326 l 3.1559402940053447 4.852099206773076 a26.788162562652715,26.788162562652715 0 0,0 -0.3887066963126389,0.24809100460753208 l -3.0719517956457754 -4.905704640204417" fill="#ff3805" stroke="none" /><path d="M 111.1453310114006 117.79835938074945 l 6.737705164094462 10.759671273057569 a33.695164307031455,33.695164307031455 0 0,0 -0.49422911753638776,0.30359589042872054 l -6.551496846625765 -10.874055630314666" fill="#ff980e" stroke="none" /><line stroke="#5A5A5A" stroke-width="0.3" x1="143.8653032363475" x2="146.44561519142675" y1="172.8068346515853" y2="177.08958963109032" /><path d="M 144.38136562736335 173.6633856474863 a86.0,86.0 0 0,1 -40.68145358897372,12.25698825130547" fill="none" id="id66" stroke="none" /><text fill="#5A5A5A" style="font-size:6.75px; font-family:Arial;" text-anchor="middle"><textPath startOffset="21.466115282336833" xlink:href="#id66">June</textPath></text><path d="M 110.8373102113329 117.98757091392108 l 7.018973267826481 11.649964514803422 a34.60101683443711,34.60101683443711 0 0,0 -0.5128070539983168,0.3029754464573478 l -6.817398342799782 -11.769058533554519" fill="#ffa40f" stroke="none" /><path d="M 110.5260780823613 118.17145234162733 l 5.738238365008861 9.906075573331192 a32.4480440599348,32.4480440599348 0 0,0 -0.4857182219636079,0.27580348289784634 l -5.5668713761240545 -10.003382222023667" fill="#ff870c" stroke="none" /><path d="M 110.21172684928248 118.3499491758327 l 5.262951872145301 9.457254467740242 a31.8230459888199,31.8230459888199 0 0,0 -0.4809480406526827,0.2622512189449534 l -5.09938101962397 -9.546446338444966" fill="#ff7f0b" stroke="none" /><path d="M 109.89434966115114 118.52300852407294 l 6.537340660429208 12.238421010462918 a34.8750052879212,34.8750052879212 0 0,0 -0.5319419746741777,0.27828690001919193 l -6.325707783228535 -12.349137329426826" fill="#ffa80f" stroke="none" /><path d="M 109.57404056367764 118.69057910512821 l 5.0058915594472895 9.772573195324256 a31.980079105494447,31.980079105494447 0 0,0 -0.49210655213984433,0.24675244120736095 l -4.836931099624684 -9.857293477440917" fill="#ff810b" stroke="none" /><path d="M 109.2508944713604 118.85261126421891 l 5.586612097749698 11.385085678895368 a33.681893022988,33.681893022988 0 0,0 -0.522690583522054,0.25092324394503707 l -5.389808846227411 -11.479563199339966" fill="#ff980e" stroke="none" /><path d="M 108.59647513512805 119.15986991738527 l 5.632671589493727 12.554128668510833 a34.759837784676655,34.759837784676655 0 0,0 -0.548012554416984,0.24023259925196877 l -5.415738360418989 -12.649225821057255" fill="#ffa60f" stroke="none" /><path d="M 107.59598834532513 119.57807347666477 l 2.4206251497825204 6.238974428004655 a27.692101914126507,27.692101914126507 0 0,0 -0.4458821098527413,0.16859446133079 l -2.3128728191695047 -6.279717139442075" fill="#ff4506" stroke="none" /><path d="M 106.57524785965236 119.94407469862006 l 3.1343459517489327 9.507113819478603 a31.010461414029123,31.010461414029123 0 0,0 -0.5083923782729163,0.16277118502083052 l -2.970232228385076 -9.55965785115914" fill="#ff730a" stroke="none" /><path d="M 106.2309692047433 120.05430185196036 l 2.8276773007340137 9.100846475968506 a30.53001392948797,30.53001392948797 0 0,0 -0.5032000881754131,0.15161005875398617 l -2.670602238118355 -9.148171903828217" fill="#ff6d0a" stroke="none" /><path d="M 105.53697534728816 120.25689768951611 l 2.953231593093765 10.804330249374637 a32.20067538052947,32.20067538052947 0 0,0 -0.5359258949247415,0.14154289980428467 l -2.766815255357526 -10.853564498482505" fill="#ff840c" stroke="none" /><path d="M 105.18746579009965 120.34920634021253 l 2.8971254225751966 11.364740588742377 a32.728199536311614,32.728199536311614 0 0,0 -0.5471012830233787,0.1344641844590626 l -2.7010708548086066 -11.41292603151547" fill="#ff8b0c" stroke="none" /><path d="M 104.48393922423573 120.51570834832081 l 2.5214826283180294 11.536731347367294 a32.809066213136276,32.809066213136276 0 0,0 -0.5527679889874532,0.11583790655480775 l -2.322523177901198 -11.578425234648643" fill="#ff8c0c" stroke="none" /><path d="M 104.13013068566511 120.58985236759428 l 3.452199343307953 17.210175714033138 a38.553000553006086,38.553000553006086 0 0,0 -0.6517887500834357,0.12491686522379007 l -3.155442978652813 -17.267049777605397" fill="#ffd714" stroke="none" /><path d="M 103.7750983002368 120.6578951692458 l 2.7101983566237355 14.830605479990638 a36.0762075481659,36.0762075481659 0 0,0 -0.6118370677936704,0.10637571680731613 l -2.4545123173580152 -14.875059775318961" fill="#ffb711" stroke="none" /><path d="M 103.41894727170886 120.7198165907248 l 4.46369834364703 27.05131247913678 a48.41711344665916,48.41711344665916 0 0,0 -0.8234693576544986,0.12860897816294542 l -3.9973931223840147 -27.12413976464683" fill="#afff20" stroke="none" /><path d="M 102.70371172650421 120.8252237178851 l 1.3902280053485374 10.708171639173228 a31.798040274089054,31.798040274089054 0 0,0 -0.5434021264323016,0.0657984298895494 l -1.2056984558648556 -10.730515597788129" fill="#ff7e0b" stroke="none" /><path d="M 101.98527174616119 120.90594882070398 l 0.9505827258688102 10.010132796825228 a31.055166141282612,31.055166141282612 0 0,0 -0.5326045023458769,0.04595535754527106 l -0.7781339057813916 -10.025012406649164" fill="#ff740a" stroke="none" /><path d="M 101.62511606390274 120.93702456842531 l 0.8283668831980798 10.672184079909606 a31.704284409929294,31.704284409929294 0 0,0 -0.5444640762417381,0.03754943043816537 l -0.6445400461774115 -10.684861854864057" fill="#ff7d0b" stroke="none" /><path d="M 101.26447882468166 120.96189622390904 l 1.4820637971125192 24.568910847602684 a45.613571324295066,45.613571324295066 0 0,0 -0.7841449281115848,0.04053133596083011 l -1.058930800587455 -24.590781990325716" fill="#d0ff1d" stroke="none" /><line stroke="#5A5A5A" stroke-width="0.3" x1="102.19456741930631" x2="102.32365962044197" y1="184.97166512339345" y2="189.96999836594603" /><path d="M 102.22038585953345 185.97133177190398 a86.0,86.0 0 0,1 -42.740103519485714,-10.115201625700543" fill="none" id="id67" stroke="none" /><text fill="#5A5A5A" style="font-size:6.75px; font-family:Arial;" text-anchor="middle"><textPath startOffset="22.20632615414155" xlink:href="#id67">July</textPath></text><path d="M 100.18074693466247 120.99922214144158 l 0.020683655777387896 2.403032080060406 a23.40312109378944,23.40312109378944 0 0,0 -0.40286118087968503,0.0 l 0.02068365577738624 -2.403032080060406" fill="#ff0701" stroke="none" /><path d="M 99.81925306533755 120.99922214144158 l -0.20859750281859213 24.234907817486025 a45.23580553314099,45.23580553314099 0 0,0 -0.7785735038025451,-0.013403848939308809 l 0.6257306965138051 -24.227726491267557" fill="#d4ff1c" stroke="none" /><path d="M 99.45781275523022 120.99299961872073 l -0.2652315447504533 10.269525466581616 a31.272949969755476,31.272949969755476 0 0,0 -0.5380133508176067,-0.018530267632588176 l 0.44196524724270303 -10.263438400522933" fill="#ff770b" stroke="none" /><path d="M 99.09653310690486 120.98055641714683 l -0.5631797636394578 13.078315203730245 a34.09043544020957,34.09043544020957 0 0,0 -0.5860501879473957,-0.03029210061309483 l 0.7882180200003424 -13.066683296354947" fill="#ff9d0e" stroke="none" /><path d="M 98.73552117531835 120.96189622390904 l -1.2302973894355782 20.395253521455885 a41.432327274955995,41.432327274955995 0 0,0 -0.7115257201401889,-0.049070979517677485 l 1.581185870354697 -20.371054197421923" fill="#fffc17" stroke="none" /><path d="M 98.01472825383883 120.90594882070398 l -0.7204958909683001 7.587198201574526 a28.6213313062009,28.6213313062009 0 0,0 -0.4900617990219857,-0.05079690921042924 l 0.8509902865958792 -7.573671923908336" fill="#ff5207" stroke="none" /><path d="M 97.65516085044442 120.86867818915974 l -2.0519625529878707 18.26212522194817 a39.3770445921258,39.3770445921258 0 0,0 -0.67292102216174,-0.08148136443377134 l 2.3660109982010002 -18.224098328789054" fill="#ffe215" stroke="none" /><path d="M 97.2962882734958 120.8252237178851 l -0.5836885887474293 4.495836343454565 a25.533567777783947,25.533567777783947 0 0,0 -0.43537336124845877,-0.060338780737930996 l 0.6609905411827192 -4.485122997224028" fill="#ff2603" stroke="none" /><path d="M 96.93821686468263 120.77559828337769 l -1.5414532169647492 10.459464760543998 a31.5724396946567,31.5724396946567 0 0,0 -0.5369782455863921,-0.08386495844520847 l 1.7212673261596585 -10.431381494751683" fill="#ff7b0b" stroke="none" /><path d="M 96.22490169976321 120.6578951692458 l -2.4444195174208287 13.376224438280316 a34.5977412462657,34.5977412462657 0 0,0 -0.5849199335758556,-0.11210129739098476 l 2.6743070655683794 -13.332165942540863" fill="#ffa40f" stroke="none" /><path d="M 95.86986931433489 120.58985236759428 l -4.9205849079048125 24.530486932923118 a46.019131579697415,46.019131579697415 0 0,0 -0.7753315090715,-0.1624782561329963 l 5.342107878405699 -24.44215269606358" fill="#cbff1d" stroke="none" /><path d="M 95.16358092515715 120.4354850818985 l -2.0093281734953363 8.490082285815257 a29.72461442865621,29.72461442865621 0 0,0 -0.49689182178353963,-0.12212392047643274 l 2.1551732800220864 -8.454237107024795" fill="#ff6209" stroke="none" /><path d="M 94.81253420990036 120.34920634021253 l -6.956992834942232 27.29064410907669 a49.16343383172087,49.16343383172087 0 0,0 -0.818242380399591,-0.21610524955279994 l 7.425725658153312 -27.16684751022031" fill="#a7ff21" stroke="none" /><path d="M 94.46302465271185 120.25689768951611 l -4.52079794318013 16.53923589434558 a38.14595981599954,38.14595981599954 0 0,0 -0.6318947848914331,-0.17857977803672334 l 4.8048238961761776 -16.458967322970338" fill="#ffd213" stroke="none" /><path d="M 94.11515582081647 120.15858648285463 l -3.5539104664590986 12.173952157281686 a33.68208936774185,33.68208936774185 0 0,0 -0.555153049681694,-0.16726305987918685 l 3.762938490581038 -12.110973728296774" fill="#ff980e" stroke="none" /><path d="M 92.40401165467489 119.57807347666478 l -3.5505174303096307 9.151184542504163 a30.81582154248434,30.81582154248434 0 0,0 -0.4928754752655128,-0.19612532339869262 l 3.7075139816170015 -9.088712374699405" fill="#ff710a" stroke="none" /><path d="M 92.06813273071674 119.44442032107085 l -4.175523872121368 10.236006034116318 a32.0549002318936,32.0549002318936 0 0,0 -0.5091059090618062,-0.2128063112775475 l 4.351101240680636 -10.162614679818798" fill="#ff820b" stroke="none" /><path d="M 91.7346041902142 119.30500536409082 l -4.384270529695442 10.240086263405368 a32.13917388137645,32.13917388137645 0 0,0 -0.5066960002715997,-0.22212063609623073 l 4.559887204624785 -10.163101074014687" fill="#ff830c" stroke="none" /><path d="M 91.40352486487194 119.15986991738527 l -3.99948634220267 8.914076624246611 a30.770192068961876,30.770192068961876 0 0,0 -0.4813806129065476,-0.22097822915730334 l 4.152334950876637 -8.843911324755233" fill="#ff700a" stroke="none" /><path d="M 91.07499286063937 119.00905698771935 l -4.5906825427370395 9.77753235429548 a31.80159734240661,31.80159734240661 0 0,0 -0.4935113195832135,-0.23691542403344742 l 4.758306530320494 -9.69706265376247" fill="#ff7e0b" stroke="none" /><line stroke="#5A5A5A" stroke-width="0.3" x1="58.666819895761336" x2="56.23545636021788" y1="174.27360380694188" y2="178.64263932499728" /><path d="M 58.180547188652646 175.14741091055294 a86.0,86.0 0 0,1 -31.652253787137756,-30.449443065178592" fill="none" id="id68" stroke="none" /><text fill="#5A5A5A" style="font-size:6.75px; font-family:Arial;" text-anchor="middle"><textPath startOffset="22.20632615414155" xlink:href="#id68">August</textPath></text><path d="M 89.7882731507175 118.34994917583269 l -1.9091482563757711 3.4306414566980425 a24.926085565705097,24.926085565705097 0 0,0 -0.3731212254003283,-0.21186796964811674 l 1.9679182486973066 -3.397270321255293" fill="#ff1d03" stroke="none" /><path d="M 89.4739219176387 118.17145234162733 l -5.477565245999668 9.456068541105545 a31.927989443546757,31.927989443546757 0 0,0 -0.47319124420468567,-0.27956972774616534 l 5.639524361232736 -9.360380241065629" fill="#ff800b" stroke="none" /><path d="M 89.1626897886671 117.98757091392108 l -6.899319478731135 11.451365326028599 a34.369157681012254,34.369157681012254 0 0,0 -0.5041150212646681,-0.30966861993531203 l 7.095413699928112 -11.33090823926491" fill="#ffa10e" stroke="none" /><path d="M 88.8546689885994 117.79835938074946 l -6.739349517917463 10.762297197784346 a33.69826259368151,33.69826259368151 0 0,0 -0.48897494531886654,-0.31208694515131347 l 6.9236062652832535 -10.644695823809228" fill="#ff980e" stroke="none" /><path d="M 88.24862548938628 117.40417183066458 l -6.479361230504352 9.596146910882068 a32.5787804837381,32.5787804837381 0 0,0 -0.4620650225935018,-0.3178125358736303 l 6.643583137720745 -9.483193585643336" fill="#ff890c" stroke="none" /><path d="M 87.65650970185807 116.9893568818739 l -9.466388189069644 13.029365555597314 a37.105181530412594,37.105181530412594 0 0,0 -0.5134915918135904,-0.37986880377350785 l 9.689264751301797 -12.86448680308404" fill="#ffc512" stroke="none" /><path d="M 87.36589467227662 116.77436683061367 l -4.602360664623028 6.110578000783939 a28.649894586916474,28.649894586916474 0 0,0 -0.3913729375560143,-0.3000880795197481 l 4.7068623306725295 -6.030450579436825" fill="#ff5307" stroke="none" /><path d="M 87.07902340077011 116.55440617244103 l -22.313830394377398 28.588567495238713 a57.26586850330294,57.26586850330294 0 0,0 -0.7718416668044256,-0.6131977005445047 l 22.80262955389918 -28.20023588068908" fill="#50ff2b" stroke="none" /><path d="M 86.51685102203217 116.09983520530335 l -4.327553411950769 5.167405395312676 a27.74016298414165,27.74016298414165 0 0,0 -0.3634417391579328,-0.3097329348105392 l 4.415860627685758 -5.092148070279186" fill="#ff4606" stroke="none" /><path d="M 86.24171649860922 115.8653595955263 l -4.996199809848473 5.761365986268078 a28.625965549860336,28.625965549860336 0 0,0 -0.3694898508439153,-0.3260318335214424 l 5.094632013598975 -5.674511010974347" fill="#ff5207" stroke="none" /><path d="M 85.97065885151581 115.62618273729859 l -6.691579822489552 7.453225921356928 a31.016377446738723,31.016377446738723 0 0,0 -0.39420405306860257,-0.3600960559902804 l 6.8188834250250085 -7.336937098780072" fill="#ff740a" stroke="none" /><path d="M 85.18274418774928 114.88116024355367 l -7.193674197535209 7.224699352556965 a31.195353313893584,31.195353313893584 0 0,0 -0.3772548775603911,-0.382157199220519 l 7.316969700151134 -7.099801659355781" fill="#ff760a" stroke="none" /><path d="M 84.9287848128048 114.62390073753433 l -8.669899220034536 8.412576160808369 a33.08050454852597,33.08050454852597 0 0,0 -0.3930175791398013,-0.41207736046450616 l 8.813423350553293 -8.262091683761362" fill="#ff900d" stroke="none" /><path d="M 84.67929136418377 114.36230785411682 l -38.93456975774881 36.49898254191187 a74.36737251182407,74.36737251182407 0 0,0 -0.8674550011757616,-0.9414510793328306 l 39.5570711669203 -35.823380207777696" fill="#41ffcd" stroke="none" /><path d="M 84.19399662182784 113.82643327865904 l -8.399701687996519 7.34770910590264 a32.15992014094618,32.15992014094618 0 0,0 -0.3608917177533116,-0.419798599989033 l 8.524935915320608 -7.202033406752077" fill="#ff830c" stroke="none" /><path d="M 83.95833913139862 113.55231037782056 l -17.594916952104864 14.864531644203211 a44.03335415333567,44.03335415333567 0 0,0 -0.4841656005766557,-0.5832086556796823 l 17.848178552575057 -14.559461731409767" fill="#e3ff1b" stroke="none" /><path d="M 83.50135304334701 112.99209946851258 l -26.98727674965635 21.251523524141238 a55.35025994748323,55.35025994748323 0 0,0 -0.5830047697900517,-0.7536122547874903 l 27.34908833666447 -20.783833275240497" fill="#63ff29" stroke="none" /><path d="M 83.28015986056508 112.70617746262583 l -39.09933332305769 29.713386236354378 a70.10848386926992,70.10848386926992 0 0,0 -0.7219128450389994,-0.9671202292408063 l 39.60500743479178 -29.035953127604262" fill="#3bffa0" stroke="none" /><path d="M 83.06392112726016 112.41649034213515 l -12.29730511612042 9.01562701472569 a36.248122625018894,36.248122625018894 0 0,0 -0.3645874279452824,-0.5063800496984199 l 12.45067233644131 -8.802613359576132" fill="#ffba11" stroke="none" /><path d="M 82.85270091963577 112.12312394758628 l -16.840113052227522 11.905943721323563 a41.62379459525157,41.62379459525157 0 0,0 -0.40858529801594445,-0.588597595523474 l 17.0425592574056 -11.614304863613077" fill="#fffe18" stroke="none" /><path d="M 82.44556493220864 111.52570212397912 l -16.363746047354674 10.743932336523777 a40.575603866908345,40.575603866908345 0 0,0 -0.37830980488953303,-0.5871452183474859 l 16.54626071562125 -10.460665518254844" fill="#fff116" stroke="none" /><path d="M 82.05923443525364 110.91462005526583 l -5.805112396102934 3.5316550987144626 a27.794992102104594,27.794992102104594 0 0,0 -0.2451506712917321,-0.4108866261252109 l 5.865043943092898 -3.431206378703141" fill="#ff4606" stroke="none" /><line stroke="#5A5A5A" stroke-width="0.3" x1="26.63291911575756" x2="22.317208475507996" y1="142.92168965132927" y2="145.44649492493687" /><path d="M 25.769776987707644 143.4266507060508 a86.0,86.0 0 0,1 -11.730757126820373,-40.83630448921669" fill="none" id="id69" stroke="none" /><text fill="#5A5A5A" style="font-size:6.75px; font-family:Arial;" text-anchor="middle"><textPath startOffset="21.46611528233685" xlink:href="#id69">September</textPath></text><path d="M 81.87401531095188 110.60418214915194 l -14.820964917059442 8.670657859578178 a38.1709437361658,38.1709437361658 0 0,0 -0.32690323980615904,-0.5699833533581317 l 14.968020153017978 -8.41425466036174" fill="#ffd313" stroke="none" /><path d="M 81.69416730710424 110.29060199501025 l -54.91749807868727 30.871805985030743 a84.0,84.0 0 0,0 -0.6976943621939338,-1.2665179264087099 l 55.44076885033272 -29.92191754022421" fill="#4dd2ff" stroke="none" /><path d="M 81.35079622478065 109.6543875284942 l -8.476628831455981 4.388211993416346 a30.545137026016643,30.545137026016643 0 0,0 -0.2377012821120189,-0.4690071803334972 l 8.550908783354267 -4.241650601380163" fill="#ff6d0a" stroke="none" /><path d="M 81.18737489456691 109.33194174019688 l -6.365657179542566 3.1576636224150008 a28.105802620378984,28.105802620378984 0 0,0 -0.21125759113601528,-0.43525321017176594 l 6.4190680272933 -3.04762145627795" fill="#ff4b07" stroke="none" /><path d="M 81.02952815118164 109.00673069616217 l -8.748730198765923 4.153689874539103 a30.684700287806923,30.684700287806923 0 0,0 -0.2224281075460233,-0.47909035552073753 l 8.818932923151772 -4.002479451739539" fill="#ff6f0a" stroke="none" /><path d="M 80.73074385275274 108.34839909993369 l -15.977543707716437 6.922265731970472 a38.41262949114814,38.41262949114814 0 0,0 -0.2576371987453182,-0.6089782330357424 l 16.094331887654064 -6.646212973268571" fill="#ffd614" stroke="none" /><path d="M 80.45479744820244 107.68017299344265 l -14.727951381166623 5.787262329290587 a36.824188988824474,36.824188988824474 0 0,0 -0.22674182312308183,-0.591951351100432 l 14.825387483883214 -5.532887411356997" fill="#ffc112" stroke="none" /><path d="M 80.32549172779594 107.34259656027581 l -9.506348855413734 3.547803250826721 a31.14680129239765,31.14680129239765 0 0,0 -0.18313687175724913,-0.5039140169192772 l 9.566009988176207 -3.383641436901327" fill="#ff750a" stroke="none" /><path d="M 80.20201598880116 107.00284435728193 l -18.436450496802333 6.521249499787929 a40.55580225814138,40.55580225814138 0 0,0 -0.22713020019098792,-0.6601466790450218 l 18.54597152793655 -6.202930117653612" fill="#fff116" stroke="none" /><path d="M 80.0844068197444 106.66101706037122 l -16.502748092375963 5.519548706955168 a38.40132502221796,38.40132502221796 0 0,0 -0.20427264648692134,-0.6286865611880209 l 16.595312989879133 -5.234663245789343" fill="#ffd513" stroke="none" /><path d="M 79.97269907076064 106.31721596034903 l -17.394338565834033 5.486700059885444 a39.23915819576134,39.23915819576134 0 0,0 -0.19764059078610494,-0.6459008860970452 l 17.486205929126267 -5.186472201236351" fill="#ffe015" stroke="none" /><path d="M 79.76711848015287 105.62410040840567 l -28.87202177639469 8.025507849924175 a50.96668846746006,50.96668846746006 0 0,0 -0.22768014702961453,-0.8472825261908573 l 29.00588999976608 -7.527334390557778" fill="#93ff23" stroke="none" /><path d="M 79.67330655649465 105.27499134158121 l -15.157746682153407 3.9335951382583523 a36.659835733240065,36.659835733240065 0 0,0 -0.15325327605619973,-0.6121706573291426 l 15.223211272504667 -3.672096641531818" fill="#ffbf11" stroke="none" /><path d="M 79.58551787078972 104.9243191809786 l -13.258203207151036 3.1981033829346255 a34.63846829853147,34.63846829853147 0 0,0 -0.13482518075020802,-0.5808233499690826 l 13.311288953831799 -2.9694113756169687" fill="#ffa40f" stroke="none" /><path d="M 79.50377843672027 104.57218783832718 l -9.308495976630384 2.0764896576701806 a30.537290319863146,30.537290319863146 0 0,0 -0.11003016318110834,-0.5140242914546751 l 9.342860178535933 -1.9159515467993415" fill="#ff6d0a" stroke="none" /><path d="M 79.4281124754447 104.21870165774334 l -8.089076657542153 1.6588366558028682 a29.257414863153514,29.257414863153514 0 0,0 -0.09692572918992012,-0.4942222049610333 l 8.116432319707739 -1.51935072377388" fill="#ff5b08" stroke="none" /><path d="M 79.35854240842038 103.8639653848113 l -20.060397628476224 3.7551942103934985 a41.40884701717241,41.40884701717241 0 0,0 -0.12512088866056492,-0.7017443908175504 l 20.122064959475978 -3.4093310688427345" fill="#fffb17" stroke="none" /><path d="M 79.29508885075956 103.50808413554451 l -11.838477135065268 2.0058223639396022 a33.00720051607132,33.00720051607132 0 0,0 -0.09009118223934792,-0.5609978778031777 l 11.871250071665907 -1.801745256443211" fill="#ff8f0d" stroke="none" /><path d="M 79.23777060512086 103.15116336523772 l -17.446104913211435 2.647862405477759 a38.645899012550274,38.645899012550274 0 0,0 -0.09415971891875305,-0.6585528548109182 l 17.48909868314679 -2.3471640786864403" fill="#ffd914" stroke="none" /><path d="M 79.18660465613746 102.79330883721812 l -40.08031803089509 5.379069810790192 a61.439662282059786,61.439662282059786 0 0,0 -0.13165200357504958,-1.0493960020548763 l 40.16697154371699 -4.688356054447907" fill="#31ff3b" stroke="none" /><path d="M 79.1416061653843 102.43462659150553 l -12.403185178822003 1.4477205049994546 a33.48738952867034,33.48738952867034 0 0,0 -0.06190016144003608,-0.573118617480055 l 12.426267641763092 -1.2340055656346176" fill="#ff950d" stroke="none" /><path d="M 79.10278846688536 102.07522291339032 l -12.211221308403317 1.2126501289189773 a33.27128543299236,33.27128543299236 0 0,0 -0.05168995807771609,-0.5703943801328679 l 12.230285862758107 -1.0022743602375432" fill="#ff920d" stroke="none" /><path d="M 79.07016306316243 101.71520430193888 l -11.721708455238819 0.9605963404861954 a32.7610031221394,32.7610031221394 0 0,0 -0.04122183067120843,-0.5624391286116548 l 11.736506844574363 -0.75868407537778" fill="#ff8b0c" stroke="none" /><path d="M 79.04373962182676 101.35467743843564 l -12.354408328067738 0.798627136962194 a33.38019428121069,33.38019428121069 0 0,0 -0.03213026354792458,-0.5737074395384293 l 12.366324942503194 -0.585847981088327" fill="#ff940d" stroke="none" /><path d="M 79.0095281055655 100.63252640178507 l -10.86158326395686 0.3273027025877027 a31.866513611043285,31.866513611043285 0 0,0 -0.011802654538764352,-0.548422978775882 l 10.86560798118063 -0.14028990802169194" fill="#ff7f0b" stroke="none" /><line stroke="#5A5A5A" stroke-width="0.3" x1="15.007084014347285" x2="10.007500721073583" y1="101.09737516637583" y2="101.16192664675087" /><path d="M 14.007167355692545 101.11028546245083 a86.0,86.0 0 0,1 10.666146001902534,-42.60595125391555" fill="none" id="id70" stroke="none" /><text fill="#5A5A5A" style="font-size:6.75px; font-family:Arial;" text-anchor="middle"><textPath startOffset="22.20632615414155" xlink:href="#id70">October</textPath></text><path d="M 79.00019446554 99.90962569577889 l -18.85616778849975 -0.0811489916592785 a39.85634240320489,39.85634240320489 0 0,0 0.00885758410998329,-0.6860296507183582 l 18.85197719727205 0.4057149004381086" fill="#ffe815" stroke="none" /><path d="M 79.00486145842228 99.54816195383935 l -26.910147196084658 -0.5791354177966112 a47.916378284366,47.916378284366 0 0,0 0.024844198444717656,-0.8244579953056269 l 26.896191303184295 1.0422635605272323" fill="#b5ff1f" stroke="none" /><path d="M 79.05617556472873 98.46500227214037 l -19.004267155924236 -1.3928452749467157 a40.055240436522496,40.055240436522496 0 0,0 0.056316745220118085,-0.6872069367702518 l 18.97747592688462 1.719766128924746" fill="#ffea16" stroke="none" /><path d="M 79.08570108090925 98.10471618934814 l -10.521235529608244 -0.9534494770522535 a31.564348677262696,31.564348677262696 0 0,0 0.05369377432000794,-0.5406889798375544 l 10.503264629606008 1.134413987594238" fill="#ff7b0b" stroke="none" /><path d="M 79.12142395522702 97.74499172005258 l -12.32091529146916 -1.3307308860150704 a33.392570286690045,33.392570286690045 0 0,0 0.0666414682389536,-0.5709434026125346 l 12.296183470226616 1.5426180269524667" fill="#ff940d" stroke="none" /><path d="M 79.16333360222342 97.38593545837743 l -10.153572990308486 -1.2738167717449378 a31.233164400003584,31.233164400003584 0 0,0 0.07151502411602868,-0.5328699963714448 l 10.130141967134625 1.448405110181042" fill="#ff760a" stroke="none" /><path d="M 79.21141760316559 97.0276538004421 l -19.554758199340572 -2.7959343310457987 a40.75362794572678,40.75362794572678 0 0,0 0.1052687684296683,-0.6935896571926282 l 19.5037335374716 3.132123100630519" fill="#fff316" stroke="none" /><path d="M 79.26566170972629 96.67025291283419 l -19.045034479837426 -3.058460183123305 a40.28905174004018,40.28905174004018 0 0,0 0.11585623027125933,-0.6837900293061543 l 18.989566388045944 3.3858360007452872" fill="#ffed16" stroke="none" /><path d="M 79.32604984820605 96.31383870115002 l -5.656481996199843 -1.0085496418895197 a26.745690641993217,26.745690641993217 0 0,0 0.08471286912299844,-0.4525395342144909 l 5.638283403166983 1.1057672535665832" fill="#ff3805" stroke="none" /><path d="M 79.46518482838121 95.60439243477599 l -9.496792198562755 -2.032848666252301 a30.711927499861506,30.711927499861506 0 0,0 0.1151048133440752,-0.5159923084357182 l 9.460392998216642 2.1960191442379786" fill="#ff6f0a" stroke="none" /><path d="M 79.62865764111835 94.90015583598534 l -11.608410869296199 -2.9060964850680815 a32.96664529811589,32.96664529811589 0 0,0 0.1425472532856861,-0.5492927155939759 l 11.556667284140206 3.105485626210921" fill="#ff8e0d" stroke="none" /><path d="M 79.71946130924805 94.55025226153421 l -9.700429317021747 -2.6066808943636786 a31.04455644712974,31.04455644712974 0 0,0 0.14312017933245408,-0.5148794333765657 l 9.654122367122932 2.773271631159187" fill="#ff740a" stroke="none" /><path d="M 79.81627453868168 94.20196356495316 l -13.733812569040866 -3.945215456879397 a35.289238352086684,35.289238352086684 0 0,0 0.1727393141911379,-0.5823910941395347 l 13.66386735773802 4.181035937765471" fill="#ffad10" stroke="none" /><path d="M 79.91906864156998 93.8553929516997 l -11.616043899851283 -3.554418066890515 a33.147689643611656,33.147689643611656 0 0,0 0.17164902259506043,-0.5441743089516182 l 11.553139393488019 3.753842542268548" fill="#ff910d" stroke="none" /><path d="M 80.02781315780177 93.51064311812611 l -18.39169731066522 -5.975824703388899 a40.33817496178901,40.33817496178901 0 0,0 0.22025163359173616,-0.6585243502822191 l 18.286108383301713 6.29152215659344" fill="#ffee16" stroke="none" /><path d="M 80.38941819471856 92.48833698450439 l -18.233309955530636 -6.984110996958865 a40.52514784456943,40.52514784456943 0 0,0 0.2551279017642934,-0.6492726818596045 l 18.11038850388465 7.296932683714233" fill="#fff016" stroke="none" /><path d="M 80.52162464483688 92.15188598940014 l -5.082133732264779 -2.0476638436560877 a26.479143225837408,26.479143225837408 0 0,0 0.17397845309522653,-0.4213026240172008 l 5.046133592283353 2.1348410381266" fill="#ff3404" stroke="none" /><path d="M 80.803312248108 91.48605970444005 l -17.80967095791736 -7.898783226514256 a40.48268862577103,40.48268862577103 0 0,0 0.28800094684687,-0.6345719104049168 l 17.671067694107137 8.204177145761243" fill="#fff016" stroke="none" /><path d="M 80.95270993114464 91.15688171328213 l -17.68229290202423 -8.209388692445577 a40.495064631250386,40.495064631250386 0 0,0 0.29897276004400314,-0.6297128802124595 l 17.538361948138476 8.512543988298567" fill="#fff016" stroke="none" /><path d="M 81.6062741919709 89.86733742301443 l -17.057887797186638 -9.396781442154806 a40.47488222231482,40.47488222231482 0 0,0 0.34141981453675774,-0.6073477534142301 l 16.893610341357448 9.68901270550382" fill="#fff016" stroke="none" /><line stroke="#5A5A5A" stroke-width="0.3" x1="26.266209847984243" x2="21.928928074336255" y1="57.711370442889674" y2="55.22380399835377" /><path d="M 25.398753493254645 57.213857153982495 a86.0,86.0 0 0,1 29.58750427330803,-30.492523968695096" fill="none" id="id71" stroke="none" /><text fill="#5A5A5A" style="font-size:6.75px; font-family:Arial;" text-anchor="middle"><textPath startOffset="21.46611528233685" xlink:href="#id71">November</textPath></text><path d="M 81.96595687620814 89.24020034530311 l -1.8479756669981329 -1.1025729398097373 a23.151901752733586,23.151901752733586 0 0,0 0.20713697995087071,-0.3404787320375119 l 1.8287228887610454 1.1342194450543235" fill="#ff0300" stroke="none" /><path d="M 82.15384107792192 88.93136811851018 l -18.03918144570011 -11.188349254182564 a42.22713419810735,42.22713419810735 0 0,0 0.3884341436520338,-0.6144095325961522 l 17.84391970580211 11.497206434492933" fill="#f9ff18" stroke="none" /><path d="M 82.34701348167596 88.62581576622439 l -16.553915586832115 -10.666030106551844 a40.69254476927331,40.69254476927331 0 0,0 0.38445418086058514,-0.5855500933359271 l 16.36786477061361 10.949398263865438" fill="#fff216" stroke="none" /><path d="M 82.7489923806493 88.02491185347247 l -9.581315079732875 -6.651037155113901 a32.66352836391382,32.66352836391382 0 0,0 0.3245936267727091,-0.45911466565182896 l 9.465408833156287 6.814978321097516" fill="#ff8a0c" stroke="none" /><path d="M 82.95767976084542 87.72973835380427 l -14.720226548360491 -10.59838265594169 a39.138654430712954,39.138654430712954 0 0,0 0.3983520832262997,-0.5433517938436022 l 14.535611852620558 10.850196893456793" fill="#ffdf14" stroke="none" /><path d="M 83.17141714833178 87.43820079747576 l -18.37130083256123 -13.71337053047955 a43.92512214987501,43.92512214987501 0 0,0 0.45749909727488486,-0.6020151845723599 l 18.132525795062232 14.027570490932936" fill="#e4ff1a" stroke="none" /><path d="M 83.39014120810768 87.1503855733568 l -8.727146957010486 -6.751440505742035 a32.03381361596396,32.03381361596396 0 0,0 0.3411538903916013,-0.4332307960773423 l 8.609638986024914 6.900663695772424" fill="#ff810b" stroke="none" /><path d="M 83.6137871275137 86.86637796730984 l -9.38788836353879 -7.524434011157861 a33.031190926692844,33.031190926692844 0 0,0 0.3594131873934236,-0.4405980702506927 l 9.256976684068976 7.684916251016635" fill="#ff8f0d" stroke="none" /><path d="M 84.5562425177563 85.77008943001954 l -9.262412064992224 -8.534405924120918 a33.59477517621429,33.59477517621429 0 0,0 0.395510773076948,-0.4219033165273238 l 9.11413396994482 8.692578657526292" fill="#ff970d" stroke="none" /><path d="M 84.80347519578584 85.50635884689758 l -8.782695190840826 -8.376469889867549 a33.136761620427265,33.136761620427265 0 0,0 0.3972241469053574,-0.4093744003742541 l 8.63720678023235 8.526408485791928" fill="#ff900d" stroke="none" /><path d="M 85.05521093208273 85.24692304244772 l -8.91545934303553 -8.801091618087453 a33.52775434654147,33.52775434654147 0 0,0 0.4089814459223182,-0.40722514961965234 l 8.762642096945898 8.953252618357215" fill="#ff960d" stroke="none" /><path d="M 85.31137513191541 84.99185889309783 l -3.79778361313671 -3.8803953992508147 a26.42960669171687,26.42960669171687 0 0,0 0.3278740670440647,-0.315414592722104 l 3.7304263024802182 3.9451930787352323" fill="#ff3304" stroke="none" /><path d="M 86.10567301691215 84.25364557470407 l -7.61646585732015 -8.63169342448246 a32.51158909664419,32.51158909664419 0 0,0 0.4228150761019748,-0.36666106750668415 l 7.466756982571401 8.761519485408826" fill="#ff880c" stroke="none" /><path d="M 86.37877921826538 84.01681056812374 l -3.4374566425108233 -4.0335239815498545 a26.299568272876535,26.299568272876535 0 0,0 0.34708224419319234,-0.2906713979608122 l 3.3675168613585207 4.092096536904479" fill="#ff3104" stroke="none" /><path d="M 86.65592168130627 83.78471172551755 l -7.13415722815226 -8.66919492580555 a32.22724988666458,32.22724988666458 0 0,0 0.4313795436549524,-0.34881225719923703 l 6.9838742859328065 8.790713280268921" fill="#ff840c" stroke="none" /><path d="M 86.93701828274178 83.55741782278169 l -6.279588654489761 -7.904217790809801 a31.09504296940586,31.09504296940586 0 0,0 0.4219559496285454,-0.3293433116394469 l 6.1426001497017895 8.01113949167247" fill="#ff750a" stroke="none" /><path d="M 88.39885842347998 82.49532879139004 l -6.5088102427201875 -9.820980332542966 a32.782031466090004,32.782031466090004 0 0,0 0.47304935695249234,-0.30768446048582454 l 6.338793859983408 9.931563717188325" fill="#ff8c0c" stroke="none" /><path d="M 88.70189139769569 82.29822771554957 l -3.7633335791338682 -5.896356318850262 a27.994976588000988,27.994976588000988 0 0,0 0.4084345074452846,-0.25576165109238463 l 3.6612799193163417 5.960262311265576" fill="#ff4906" stroke="none" /><line stroke="#5A5A5A" stroke-width="0.3" x1="56.762969772571076" x2="54.21961505331055" y1="26.818313649435495" y2="22.513508569990535" /><path d="M 56.25429882871897 25.957352633546506 a86.0,86.0 0 0,1 42.265352541879196,-11.944610805530505" fill="none" id="id72" stroke="none" /><text fill="#5A5A5A" style="font-size:6.75px; font-family:Arial;" text-anchor="middle"><textPath startOffset="22.20632615414155" xlink:href="#id72">December</textPath></text><path d="M 90.26544431104013 81.39251694778311 l -2.909332117431474 -5.561152434493981 a27.27619548525989,27.27619548525989 0 0,0 0.4178966588505277,-0.21406289985752996 l 2.8131749709921827 5.610407859664016" fill="#ff3f05" stroke="none" /><path d="M 90.91171255644093 81.06846463323043 l -5.133551729615949 -10.69354559150105 a32.86192525175211,32.86192525175211 0 0,0 0.512054188619852,-0.24041630745408135 l 4.948719329696488 10.780326881595137" fill="#ff8d0d" stroke="none" /><path d="M 91.23893434514133 80.91482961587045 l -4.533268972454898 -9.875306742897049 a31.866103756311652,31.866103756311652 0 0,0 0.5004767063630796,-0.22454930959928546 l 4.362610147625043 9.951876383012863" fill="#ff7f0b" stroke="none" /><path d="M 91.56875222667455 80.76684994638697 l -4.331344553634516 -9.880554097521781 a31.78822946161018,31.78822946161018 0 0,0 0.503035474341986,-0.21537353776310306 l 4.160625321502221 9.95364716324767" fill="#ff7e0b" stroke="none" /><path d="M 92.91201910852362 80.23233633223022 l -3.5538206859939403 -9.911247382279317 a31.52912466166761,31.52912466166761 0 0,0 0.5124503639599636,-0.17878386975897229 l 3.3826883179706915 9.970952105210499" fill="#ff7b0b" stroke="none" /><path d="M 93.25333710446033 80.11325718540243 l -4.135076497193827 -12.188722645790767 a33.87104569853038,33.87104569853038 0 0,0 0.5537386579484682,-0.1825589294315214 l 3.9246550170029497 12.258095299481521" fill="#ff9a0e" stroke="none" /><path d="M 93.59665428221793 80.00007090966166 l -2.983480457359797 -9.318471970661268 a30.784430259726292,30.784430259726292 0 0,0 0.5060588389725703,-0.1572349446369786 l 2.822636245676498 9.368447050180771" fill="#ff700a" stroke="none" /><path d="M 93.94186890950719 79.89281104454417 l -2.0149964760657197 -6.6878570773111505 a27.984815179022142,27.984815179022142 0 0,0 0.46242879153917943,-0.1349956448826812 l 1.8995774668031191 6.721551051112531" fill="#ff4906" stroke="none" /><path d="M 96.04723909329186 79.375362276772 l -1.5069367759764933 -7.862864921472781 a29.005966726143544,29.005966726143544 0 0,0 0.4911744421401801,-0.08975898979309525 l 1.37136721273342 7.887639392616612" fill="#ff5808" stroke="none" /><path d="M 96.40284397218896 79.31037775812273 l -0.6687174422597831 -3.846236070924221 a24.903935825658646,24.903935825658646 0 0,0 0.42297650291447214,-0.0697947471834151 l 0.6024117332064253 3.857177081047263" fill="#ff1d02" stroke="none" /><path d="M 97.47563105711357 79.15227682838746 l -1.172063975036829 -9.679593531620686 a30.750295631362782,30.750295631362782 0 0,0 0.5260252413192938,-0.059105064936056155 l 1.005272030207817 9.69833455002734" fill="#ff700a" stroke="none" /><path d="M 97.83486435360386 79.11191278185805 l -0.9869799356447322 -9.521862065602543 a30.572877654588822,30.572877654588822 0 0,0 0.523924307639567,-0.04975292602140843 l 0.8229305009149289 9.537440536139131" fill="#ff6d0a" stroke="none" /><path d="M 98.19473922651362 79.07773832637324 l -0.45856446540006407 -5.314581627339219 a26.334328377835323,26.334328377835323 0 0,0 0.451959538282178,-0.03508075865775633 l 0.3670147377555519 5.321687648185438" fill="#ff3204" stroke="none" /><path d="M 98.55514903715128 79.0497635885617 l -0.6563093919390046 -9.516439600842872 a30.539044223319117,30.539044223319117 0 0,0 0.5247450546637437,-0.03165405471389984 l 0.49240228843563794 9.526326924937079" fill="#ff6d0a" stroke="none" /></g></svg>