<?xml version="1.0" encoding="utf-8" ?>
<svg baseProfile="full" height="200mm" version="1.1" viewBox="0,0,200,200" width="200mm" xmlns="http://www.w3.org/2000/svg" xmlns:ev="http://www.w3.org/2001/xml-events" xmlns:xlink="http://www.w3.org/1999/xlink"><defs /><rect fill="#1a1a1a" height="200" width="200" x="0" y="0" /><text alignment-baseline="middle" fill="#e1ed5e" style="dominant-baseline: central; font-size:9.0px; font-family:Arial;" text-anchor="middle" x="100.0" y="100.0">2024</text><line stroke="#e1ed5e" stroke-width="0.3" x1="100.0" x2="100.0" y1="15.0" y2="10.0" /><path d="M 100.0 14.0 a86.0,86.0 0 0,1 42.35913384403234,11.155469271406648" fill="none" id="id13" stroke="none" /><text fill="#e1ed5e" style="font-size:6.75px; font-family:Arial;" text-anchor="middle"><textPath startOffset="22.145653131862478" xlink:href="#id13">January</textPath></text><path d="M 100.0 79.0 l 0.0 -14.223487843940546 a35.223487843940546,35.223487843940546 0 0,0 0.60465800744001,0.005190261770761412 l -0.24416508259115519 14.22139198036422" fill="#ffb610" stroke="none" /><path d="M 102.15924093988457 79.11130261209362 l 1.0455345560420364 -10.114598397216698 a31.16849267319678,31.16849267319678 0 0,0 0.5317405679059534,0.05958263973854932 l -1.2190110255487863 10.095159996971178" fill="#ff810b" stroke="none" /><path d="M 103.23170211078529 79.25015418208739 l 0.7452815528713741 -4.785242198346574 a25.842931704028782,25.842931704028782 0 0,0 0.43775772353267073,0.07203286682095049 l -0.8273167794571153 4.7717433330299555" fill="#ff3805" stroke="none" /><line stroke="#e1ed5e" stroke-width="0.3" x1="143.13028292997686" x2="145.6673583964461" y1="26.7553504044142" y2="22.446841604673864" /><path d="M 143.63769802327073 25.89364864446614 a86.0,86.0 0 0,1 29.32050498858742,28.57503671076993" fill="none" id="id14" stroke="none" /><text fill="#e1ed5e" style="font-size:6.75px; font-family:Arial;" text-anchor="middle"><textPath startOffset="20.669276256404974" xlink:href="#id14">February</textPath></text><path d="M 111.27062007382361 82.28071324371311 l 5.343999608032951 -8.401654998569747 a30.957215400183344,30.957215400183344 0 0,0 0.44595249732714765,0.2890610209222372 l -5.487437737617106 8.308680135943614" fill="#ff7e0b" stroke="none" /><path d="M 111.5731344415666 82.4767994020092 l 10.7867344481568 -16.332490777383782 a40.57304000528224,40.57304000528224 0 0,0 0.5778831842270853,0.3888255964550765 l -11.065513920480885 16.144915506871587" fill="#fff917" stroke="none" /><path d="M 112.16784306229584 82.88440491214696 l 11.289744360592293 -15.880439296593874 a40.48452411480271,40.48452411480271 0 0,0 0.562964277499782,0.40754272234273564 l -11.560689648466042 15.684295802878063" fill="#fff817" stroke="none" /><line stroke="#e1ed5e" stroke-width="0.3" x1="172.87174338648825" x2="177.1583165268699" y1="56.24261187166439" y2="53.66864786411523" /><path d="M 173.72905801456457 55.72781907015455 a86.0,86.0 0 0,1 12.242430191666344,42.057860355516425" fill="none" id="id15" stroke="none" /><text fill="#e1ed5e" style="font-size:6.75px; font-family:Arial;" text-anchor="middle"><textPath startOffset="22.145653131862474" xlink:href="#id15">March</textPath></text><path d="M 120.16314734710363 94.1308016681162 l 12.102551166466887 -3.522876260087903 a33.60485628164161,33.60485628164161 0 0,0 0.1564730248017081,0.5552675641956044 l -12.161242683343177 3.3146007719892854" fill="#ffa10e" stroke="none" /><path d="M 120.51834098615036 95.52812308129327 l 5.418445833428537 -1.1809250501357353 a26.545641461890334,26.545641461890334 0 0,0 0.09321601757311405,0.4460723886655793 l -5.437919561826018 1.0877362101847516" fill="#ff4106" stroke="none" /><path d="M 120.592083275326 95.88100663000786 l 6.069115123427918 -1.2139930001678199 a27.18934062609887,27.18934062609887 0 0,0 0.0876192138367377,0.4584607511493859 l -6.089060629546812 1.1096296839851196" fill="#ff4a06" stroke="none" /><path d="M 120.65975698304385 96.23510406497455 l 5.071964803539202 -0.9242809432419342 a26.155494373033555,26.155494373033555 0 0,0 0.07670432831162427,0.4424101823194168 l -5.08708394934306 0.8370777280019247" fill="#ff3c05" stroke="none" /><path d="M 120.77682067341334 96.94652285012252 l 15.412466022525207 -2.265101747894726 a36.57802281497269,36.57802281497269 0 0,0 0.08596790473749727,0.622020933816703 l -15.449078443817916 2.0001925058779375" fill="#ffc812" stroke="none" /><path d="M 120.82617615685814 97.30363454192243 l 3.6192588075229213 -0.46858551271949184 a24.649466632065955,24.649466632065955 0 0,0 0.050728501078567884,0.42010476038484523 l -3.626769394861153 0.4063870754112337" fill="#ff2703" stroke="none" /><path d="M 120.96210409425399 98.7389718711861 l 7.316952056927984 -0.44016966614998404 a28.330179857164573,28.330179857164573 0 0,0 0.02503633850278074,0.48569827844236335 l -7.323429984887337 0.31449959433089003" fill="#ff5a08" stroke="none" /><path d="M 120.99303781780057 99.45929381324524 l 5.629968487631556 -0.14500801736828706 a26.631835624094993,26.631835624094993 0 0,0 0.007848235067275937,0.45712034686237735 l -5.631628154297498 0.04834075453684331" fill="#ff4306" stroke="none" /><line stroke="#e1ed5e" stroke-width="0.3" x1="184.99686870605535" x2="189.99668451229388" y1="99.2704041080226" y2="99.22748670261217" /><path d="M 185.99683186730306 99.26182062694052 a86.0,86.0 0 0,1 -10.086455211305974,41.156179273409016" fill="none" id="id16" stroke="none" /><text fill="#e1ed5e" style="font-size:6.75px; font-family:Arial;" text-anchor="middle"><textPath startOffset="21.40746469413373" xlink:href="#id16">April</textPath></text><path d="M 120.9064616781168 101.97986365728391 l 10.120310880590143 0.9584039624394365 a31.165590512853193,31.165590512853193 0 0,0 -0.05501113700988351,0.5321828484900539 l -10.102367351098593 -1.1319913332124216" fill="#ff810b" stroke="none" /><path d="M 120.592083275326 104.11899336999214 l 4.768211015852261 0.9537757447082774 a25.862666394365203,25.862666394365203 0 0,0 -0.0908177249574414,0.434595690307866 l -4.751135580070455 -1.0354878863015526" fill="#ff3805" stroke="none" /><path d="M 120.51834098615036 104.47187691870673 l 19.71807278807221 4.297462189651569 a41.180945858586476,41.180945858586476 0 0,0 -0.15646629477605223,0.689419364752154 l -19.641395631738494 -4.635315888342739" fill="#fdff18" stroke="none" /><path d="M 120.43855184770803 104.8234425847677 l 5.525516556685522 1.3040068621762322 a26.677302802811255,26.677302802811255 0 0,0 -0.10901168282776127,0.4448048662652562 l -5.502317347341465 -1.3986675530495878" fill="#ff4306" stroke="none" /><path d="M 120.26092885502905 105.52220625578681 l 4.914692136309089 1.3395211964162117 a26.09396857374942,26.09396857374942 0 0,0 -0.12150036166189271,0.43116192042928403 l -4.890973282572617 -1.4236910407485042" fill="#ff3b05" stroke="none" /><path d="M 119.94978838288452 106.5578916946017 l 21.34229947408265 7.015637749063275 a43.46581669709584,43.46581669709584 0 0,0 -0.23909216627513738,0.7068335056986336 l -21.218721886235148 -7.380972929236069" fill="#e2ff1b" stroke="none" /><path d="M 119.83427380445688 106.89939002012753 l 19.137618384552447 6.657057101920239 a41.26239982556327,41.26239982556327 0 0,0 -0.23845703935281834,0.6670067788863188 l -19.020521175155686 -6.984598837187479" fill="#fcff18" stroke="none" /><path d="M 119.71291397450082 107.23885506374661 l 3.3486033674720863 1.2296535395253791 a24.567238755664203,24.567238755664203 0 0,0 -0.14877137872024712,0.39463375715851984 l -3.3270013049373985 -1.286955576878058" fill="#ff2503" stroke="none" /><path d="M 119.4528033332814 107.91128576633889 l 7.628166696461261 3.1023089872977394 a29.234879974940075,29.234879974940075 0 0,0 -0.19305344240962027,0.4632579831450594 l -7.573787409515155 -3.2327994798840765" fill="#ff6709" stroke="none" /><path d="M 119.16976305983485 108.57439118712176 l 4.910338638850483 2.196332016171815 a26.37915419684632,26.37915419684632 0 0,0 -0.18844204445289972,0.41177987550399303 l -4.871912129542527 -2.280300873890497" fill="#ff3f05" stroke="none" /><path d="M 119.0197475246899 108.90220220490707 l 10.16271845729282 4.75666538375025 a32.22081601378296,32.22081601378296 0 0,0 -0.23877272843819308,0.49894316861632027 l -10.079566470894715 -4.930421054431673" fill="#ff8f0d" stroke="none" /><line stroke="#e1ed5e" stroke-width="0.3" x1="174.33088141563837" x2="178.70328620479359" y1="141.23008692659167" y2="143.65538615756765" /><path d="M 175.20536237346943 141.71514677278685 a86.0,86.0 0 0,1 -30.301960400862466,31.631185727798858" fill="none" id="id17" stroke="none" /><text fill="#e1ed5e" style="font-size:6.75px; font-family:Arial;" text-anchor="middle"><textPath startOffset="22.145653131862474" xlink:href="#id17">May</textPath></text><path d="M 118.36410011445183 110.18625677009912 l 7.501392804095518 4.160896137554717 a29.578108804908794,29.578108804908794 0 0,0 -0.2500992975961522,0.44190149480055535 l -7.428860141477988 -4.289054402454395" fill="#ff6b09" stroke="none" /><path d="M 117.62189284568427 111.42229804090321 l 4.982811348769616 3.229798115653644 a26.938013540343867,26.938013540343867 0 0,0 -0.2548535692613752,0.38588078621477445 l -4.926633340587514 -3.3148587802074796" fill="#ff4706" stroke="none" /><path d="M 117.21940702142032 112.02048342749411 l 4.502531242830328 3.143116491693928 a26.49108084743082,26.49108084743082 0 0,0 -0.2635041339357349,0.3706515639073746 l -4.447912010364632 -3.2199452823108063" fill="#ff4106" stroke="none" /><path d="M 117.01052211995028 112.31430620078461 l 4.5333252109442 3.2817778526522106 a26.5965260065813,26.5965260065813 0 0,0 -0.27090205709018733,0.3675306686893388 l -4.476321134270185 -3.3591148306104266" fill="#ff4206" stroke="none" /><path d="M 116.79662413953412 112.60449989151573 l 4.62263799911332 3.4689137337543876 a26.77945884690567,26.77945884690567 0 0,0 -0.2790776960079564,0.36532166258881166 l -4.5624083257510595 -3.5477563095840763" fill="#ff4506" stroke="none" /><path d="M 116.1254893667686 113.45245675266167 l 9.3255806321679 7.779731039123027 a33.14457365114804,33.14457365114804 0 0,0 -0.3682290106215088,0.4337728486134601 l -9.190657058039278 -7.9386706701860446" fill="#ff9b0e" stroke="none" /><path d="M 115.6541949942343 113.99807769240083 l 3.6227964608400747 3.2395269345547475 a25.859957711377852,25.859957711377852 0 0,0 -0.2987469141386679,0.32837519139486193 l -3.566651845859527 -3.301239701507281" fill="#ff3805" stroke="none" /><path d="M 115.41159269507618 114.26474011684316 l 3.559836316236481 3.2949313490381384 a25.850670798278358,25.850670798278358 0 0,0 -0.30423059437137695,0.3230823484367409 l -3.502749888128844 -3.3555551574193765" fill="#ff3805" stroke="none" /><path d="M 115.16444852881244 114.52719865689866 l 4.272779245091954 4.093225862621279 a26.91702124719189,26.91702124719189 0 0,0 -0.3225084675951258,0.3309220991978818 l -4.2018839763460205 -4.165970653886898" fill="#ff4706" stroke="none" /><path d="M 114.13192950727249 115.5334660781643 l 3.386642554395528 3.7225134197349816 a26.03253951314341,26.03253951314341 0 0,0 -0.33313589560875945,0.2978921720712247 l -3.3222416319633905 -3.7801011216895932" fill="#ff3a05" stroke="none" /><path d="M 113.86319453409587 115.77377054828091 l 3.3307991725939536 3.789838032041108 a26.04550249601145,26.04550249601145 0 0,0 -0.33836893051427086,0.29227502314714 l -3.2652507623168274 -3.8464571876529656" fill="#ff3a05" stroke="none" /><path d="M 113.31354834802062 116.24036423190432 l 3.2098408413363857 3.915483913610104 a26.063012196751117,26.063012196751117 0 0,0 -0.3484366950695016,0.28067593700850463 l -3.1421533759116316 -3.9700081444120126" fill="#ff3b05" stroke="none" /><path d="M 113.03279911837588 116.46651593811092 l 3.019377831770024 3.814885255149682 a25.865181599996315,25.865181599996315 0 0,0 -0.35052254588394116,0.2725684517960188 l -2.9534453412508523 -3.866154758566494" fill="#ff3805" stroke="none" /><path d="M 111.8722381534696 117.32195027204791 l 2.8003277299367997 4.085761846785908 a25.953310535763368,25.953310535763368 0 0,0 -0.3696538817818083,0.2487196287913871 l -2.729777560057988 -4.133231149634416" fill="#ff3905" stroke="none" /><path d="M 111.5731344415666 117.5232005979908 l 2.1094293052909863 3.193944825451339 a24.827659277162454,24.827659277162454 0 0,0 -0.35765350708424704,0.23182668224492595 l -2.0542901659497295 -3.2296853494001594" fill="#ff2904" stroke="none" /><path d="M 111.27062007382361 117.71928675628689 l 2.5980927084259724 4.084633269374313 a25.84090019178827,25.84090019178827 0 0,0 -0.3763368677625518,0.23486203923822693 l -2.527591711873706 -4.128631105454088" fill="#ff3805" stroke="none" /><path d="M 110.96478420261333 117.91015095944535 l 2.683618385960513 4.383488951715107 a26.139725968500045,26.139725968500045 0 0,0 -0.3847110975918238,0.23100796045624566 l -2.6079745318112524 -4.428910912707277" fill="#ff3c05" stroke="none" /><line stroke="#e1ed5e" stroke-width="0.3" x1="143.1302829299769" x2="145.66735839644613" y1="173.24464959558577" y2="177.55315839532614" /><path d="M 143.63769802327073 174.10635135553383 a86.0,86.0 0 0,1 -40.68552437913181,11.842963189579606" fill="none" id="id18" stroke="none" /><text fill="#e1ed5e" style="font-size:6.75px; font-family:Arial;" text-anchor="middle"><textPath startOffset="21.407464694133747" xlink:href="#id18">June</textPath></text><path d="M 110.34350942703117 118.27599006163325 l 4.428303905110083 7.824388688444689 a29.99060252841123,29.99060252841123 0 0,0 -0.45022436894200807,0.24973186802603145 l -4.293335348011981 -7.899253471903864" fill="#ff710a" stroke="none" /><path d="M 109.71004243097381 118.62028667847754 l 2.2642934064068267 4.342081165061728 a25.897008625097698,25.897008625097698 0 0,0 -0.3959440242174971,0.2021718399783211 l -2.1894221604757473 -4.3803109567128855" fill="#ff3805" stroke="none" /><path d="M 109.3889696526874 118.78422872680471 l 2.185399793060559 4.372263527405399 a25.888011928032565,25.888011928032565 0 0,0 -0.39921749189879235,0.19527728033133265 l -2.1100220518996973 -4.409134557833955" fill="#ff3805" stroke="none" /><path d="M 108.73861861582097 119.09545874513695 l 2.4680959492042063 5.393235069412727 a26.93114509419737,26.93114509419737 0 0,0 -0.4220323283928947,0.18876969245564 l -2.3751502179556847 -5.4348085127782175" fill="#ff4706" stroke="none" /><path d="M 107.06938296918513 119.77432235084164 l 1.6619002471448505 4.648630770921968 a25.936768221804897,25.936768221804897 0 0,0 -0.4205390414919367,0.14628530868074976 l -1.5818554336078918 -4.676474512171308" fill="#ff3905" stroke="none" /><path d="M 106.72888874123015 119.89276391827305 l 0.7745611297811967 2.289852349704827 a23.417306088855245,23.417306088855245 0 0,0 -0.3818997562369614,0.12553803536810515 l -0.7351386358965012 -2.3028113064749514" fill="#ff1502" stroke="none" /><path d="M 106.38641147887787 120.00534299687104 l 1.8241958643108063 5.714267563201767 a26.998378475490565,26.998378475490565 0 0,0 -0.4427211678720139,0.13715614949776098 l -1.725834063567168 -5.744740300506173" fill="#ff4806" stroke="none" /><path d="M 106.0420521117495 120.11202640906438 l 3.4982611378496133 11.644573580128036 a33.15869749815352,33.15869749815352 0 0,0 -0.5465500543549003,0.15909275531687042 l -3.297851071113106 -11.702910029747423" fill="#ff9b0e" stroke="none" /><path d="M 104.9986988182912 120.39639698878246 l 2.3103474293007316 9.427005919540395 a30.705985053106467,30.705985053106467 0 0,0 -0.5130353734704252,0.12107495121612312 l -2.1481799020904275 -9.465277014402742" fill="#ff7b0b" stroke="none" /><path d="M 104.64783097203109 120.47920084513623 l 0.6436275170109271 2.835941597196915 a23.90806140295652,23.90806140295652 0 0,0 -0.40101513199517697,0.08739938155973763 l -0.5948499683966143 -2.8465724368903715" fill="#ff1c02" stroke="none" /><path d="M 104.29559338865022 120.5559693870025 l 0.7939577952156395 3.7993754660640793 a24.88144598219701,24.88144598219701 0 0,0 -0.4188418380846786,0.08378009796674152 l -0.7286194716000022 -3.812444960693682" fill="#ff2a04" stroke="none" /><path d="M 103.94208987418118 120.62667999033965 l 1.1281498405821733 5.9029566766725905 a27.00979363950869,27.00979363950869 0 0,0 -0.4561636027565386,0.08312820403135651 l -1.0266515042745776 -5.921453054635311" fill="#ff4806" stroke="none" /><path d="M 103.2317021107853 120.74984581791261 l 1.9570228336025817 12.565490465184084 a33.71697640958235,33.71697640958235 0 0,0 -0.5726666190531402,0.08416227214272419 l -1.7410311089417558 -12.59723381062569" fill="#ffa30f" stroke="none" /><path d="M 102.875027216393 120.80226474461374 l 0.8992354093263834 6.506419468267588 a27.56826602829376,27.56826602829376 0 0,0 -0.4693460246252442,0.06076623952250489 l -0.7874115628103638 -6.5208973039904885" fill="#ff5007" stroke="none" /><path d="M 102.51750503828377 120.84855314841334 l 0.600500327294588 4.973004144522254 a26.00912875303844,26.00912875303844 0 0,0 -0.4437208125169545,0.04971984255557169 l -0.5150436131768342 -4.982579747584797" fill="#ff3a05" stroke="none" /><path d="M 102.15924093988457 120.88869738790638 l 0.6527963941518435 6.315212944268882 a27.348862706318265,27.348862706318265 0 0,0 -0.4674056555343285,0.044263801538928976 l -0.5442911752324998 -6.325488501312994" fill="#ff4d07" stroke="none" /><path d="M 101.80034050326958 120.92268563240118 l 0.844895754572078 9.81896937438116 a30.85525283344517,30.85525283344517 0 0,0 -0.5281111686852119,0.040879144464697266 l -0.6762155911116302 -9.83202628584091" fill="#ff7d0b" stroke="none" /><path d="M 100.72087961077811 120.9876233191556 l 0.1349376593125923 3.928562720985241 a24.930879446716183,24.930879446716183 0 0,0 -0.4278455724335168,0.011019784273160515 l -0.06747877280833166 -3.930300222608447" fill="#ff2b04" stroke="none" /><line stroke="#e1ed5e" stroke-width="0.3" x1="101.45913802915013" x2="101.54496967792366" y1="184.9874750549273" y2="189.98673829345242" /><path d="M 101.47630435890484 185.9873277026323 a86.0,86.0 0 0,1 -42.54439059252881,-10.42667462771756" fill="none" id="id19" stroke="none" /><text fill="#e1ed5e" style="font-size:6.75px; font-family:Arial;" text-anchor="middle"><textPath startOffset="22.145653131862474" xlink:href="#id19">July</textPath></text><path d="M 100.0 121.0 l 8.323278378316527e-16 6.79647256997815 a27.79647256997815,27.79647256997815 0 0,0 -0.4771634141539197,-0.004095874025342853 l 0.11667048930506671 -6.795471094147242" fill="#ff5307" stroke="none" /><path d="M 99.27912038922189 120.98762331915562 l -0.1668638948944009 4.8580602353710285 a25.860925098159047,25.860925098159047 0 0,0 -0.4435447155899102,-0.019047718542883195 l 0.25023437108514984 -4.854479948402317" fill="#ff3805" stroke="none" /><path d="M 98.19965949673042 120.92268563240118 l -1.2134237324878097 14.101823098258475 a35.15393273437248,35.15393273437248 0 0,0 -0.6007981812904803,-0.05689621241572276 l 1.4553214771633052 -14.078915130337569" fill="#ffb510" stroke="none" /><path d="M 97.84075906011543 120.88869738790638 l -0.3547514573957478 3.431898545724444 a24.450184955139356,24.450184955139356 0 0,0 -0.4171249270784144,-0.046739718118474875 l 0.41361228607496153 -3.4253030670989983" fill="#ff2403" stroke="none" /><path d="M 97.48249496171623 120.84855314841334 l -7.552515114851309 62.54565944524002 a84.0,84.0 0 0,0 -1.4300887124368238,-0.1851536151984119 l 8.625081649178927 -62.40679423384121" fill="#4dd2ff" stroke="none" /><path d="M 97.12497278360702 120.80226474461374 l -0.9862094867237062 7.135720566226459 a28.203548927505878,28.203548927505878 0 0,0 -0.4790237064384119,-0.07039998875915782 l 1.108558298769803 -7.117739504168418" fill="#ff5908" stroke="none" /><path d="M 96.76829788921471 120.74984581791261 l -0.8943021342353299 5.742061230855248 a26.81128587200705,26.81128587200705 0 0,0 -0.4541608360356414,-0.07473199274119649 l 0.9927404733240348 -5.725863239618383" fill="#ff4506" stroke="none" /><path d="M 96.41257539226777 120.69131181640829 l -0.33557377898717927 1.9355003819365226 a22.964375597898773,22.964375597898773 0 0,0 -0.3878412566791604,-0.07067759663896084 l 0.3687497692173969 -1.9294546113661957" fill="#ff0e01" stroke="none" /><path d="M 96.05791012581884 120.62667999033965 l -0.930736330232407 4.87000577151343 a25.958147469669353,25.958147469669353 0 0,0 -0.43696649331589443,-0.08740553662355884 l 1.0141993090792596 -4.853310838227009" fill="#ff3905" stroke="none" /><path d="M 95.70440661134978 120.55596938700252 l -2.8954932179779265 13.855983228368432 a35.155287075866156,35.155287075866156 0 0,0 -0.589667302983981,-0.12851524417641746 l 3.1329229375810437 -13.804236526058295" fill="#ffb510" stroke="none" /><path d="M 95.00130118170881 120.39639698878247 l -0.821949642077197 3.3538350306780913 a24.453087115482948,24.453087115482948 0 0,0 -0.4068466286880207,-0.10341882205113025 l 0.8794015639905964 -3.339230976791698" fill="#ff2403" stroke="none" /><path d="M 94.6519064749342 120.30758222061772 l -1.233822936719795 4.685026657758933 a25.844769738913058,25.844769738913058 0 0,0 -0.42806150494067263,-0.11667006667653945 l 1.3140658425951628 -4.663156096938249" fill="#ff3805" stroke="none" /><path d="M 93.95794788825049 120.11202640906438 l -1.4272101615574908 4.750718452876416 a25.960469197944228,25.960469197944228 0 0,0 -0.4257014639695011,-0.1318834017227179 l 1.5085522583986255 -4.72551846334705" fill="#ff3905" stroke="none" /><path d="M 92.93061703081489 119.77432235084164 l -3.2811718020277296 9.178021502669758 a30.7469055139511,30.7469055139511 0 0,0 -0.49548030376127816,-0.1819472306584677 l 3.4382412574431265 -9.12034342300257" fill="#ff7b0b" stroke="none" /><path d="M 92.59220618246901 119.65005319985036 l -1.7135412287355383 4.545371690165759 a25.857635983102977,25.857635983102977 0 0,0 -0.4140025925649832,-0.16014509659277146 l 1.7913160837940496 -4.515286705434947" fill="#ff3805" stroke="none" /><path d="M 92.25597844496254 119.51999308798841 l -1.8076902838669673 4.55656038603786 a25.902039036359923,25.902039036359923 0 0,0 -0.41189858963159276,-0.16751557055801578 l 1.885643334689001 -4.524857558900552" fill="#ff3805" stroke="none" /><path d="M 91.59046798132341 119.24265499422711 l -2.007319790797601 4.593140511459872 a26.01261134545075,26.01261134545075 0 0,0 -0.4076381785958708,-0.18233137233762392 l 2.085871372249107 -4.558005388212393" fill="#ff3a05" stroke="none" /><path d="M 90.93487009805054 118.94263497670748 l -1.8093956912357898 3.7809410872464255 a25.191590184248792,25.191590184248792 0 0,0 -0.3884780136171061,-0.1900240633416431 l 1.8740339541149653 -3.749323273807561" fill="#ff2e04" stroke="none" /><path d="M 89.97174638481275 118.45085714620012 l -3.770810238299339 6.9378661232622605 a28.89639134019922,28.89639134019922 0 0,0 -0.4337978719673081,-0.24062036705540266 l 3.8893522984227498 -6.872112840773709" fill="#ff6209" stroke="none" /><line stroke="#e1ed5e" stroke-width="0.3" x1="58.13341422392154" x2="55.67067388415222" y1="173.97424548756322" y2="178.32567169271397" /><path d="M 57.64086615596768 174.84453072859336 a86.0,86.0 0 0,1 -31.369924170532247,-30.572349798747897" fill="none" id="id20" stroke="none" /><text fill="#e1ed5e" style="font-size:6.75px; font-family:Arial;" text-anchor="middle"><textPath startOffset="22.145653131862474" xlink:href="#id20">August</textPath></text><path d="M 89.65649057296885 118.27599006163327 l -2.4917279922294266 4.402644609504572 a26.058852433591966,26.058852433591966 0 0,0 -0.3874176194610364,-0.22367566688463508 l 2.5669380795508627 -4.359222045343765" fill="#ff3b05" stroke="none" /><path d="M 89.34428304082925 118.09573695890944 l -2.5216801740675217 4.282364227509849 a25.969659372365598,25.969659372365598 0 0,0 -0.38220814454093377,-0.2295050090648674 l 2.594821075165883 -4.238445217909062" fill="#ff3905" stroke="none" /><path d="M 89.03521579738668 117.91015095944536 l -2.985216078084927 4.876126115853841 a26.717352615552816,26.717352615552816 0 0,0 -0.3891011816004784,-0.24282791511766094 l 3.068481388475118 -4.824162403894633" fill="#ff4406" stroke="none" /><path d="M 88.1277618465304 117.32195027204791 l -2.735683326741961 3.9914437306032458 a25.838965418225875,25.838965418225875 0 0,0 -0.3637202388866137,-0.2539049746801382 l 2.80379865680234 -3.9438939401179787" fill="#ff3805" stroke="none" /><path d="M 87.83215693770417 117.11559508785305 l -3.8003548295955425 5.345674999300272 a27.55888237651615,27.55888237651615 0 0,0 -0.3832246184196807,-0.27742507029599695 l 3.891560458389177 -5.2796491576312095" fill="#ff5007" stroke="none" /><path d="M 87.54013794807813 116.9041958592261 l -3.486620059658562 4.730269735697754 a26.876391002381613,26.876391002381613 0 0,0 -0.36903461973344337,-0.2769304585108577 l 3.567307668302772 -4.669720249922881" fill="#ff4606" stroke="none" /><path d="M 87.2517909369889 116.68781488649013 l -2.9755850233802486 3.895136313167216 a25.901652081647445,25.901652081647445 0 0,0 -0.3510167904740524,-0.2729527793786987 l 3.042011758489529 -3.8434824821677243" fill="#ff3805" stroke="none" /><path d="M 86.68645165197938 116.24036423190432 l -5.556458535724916 6.777975946064195 a29.76442749896735,29.76442749896735 0 0,0 -0.3923598790805575,-0.3273205658916664 l 5.671992748967367 -6.681593196260658" fill="#ff6e0a" stroke="none" /><path d="M 86.40962598614128 116.0094264158162 l -4.943640740209145 5.823596361358548 a28.63896971772268,28.63896971772268 0 0,0 -0.37206183892593936,-0.3213781549593564 l 5.042882058897947 -5.737874073934469" fill="#ff5f08" stroke="none" /><path d="M 86.13680546590413 115.77377054828092 l -3.1977102571156566 3.6384072770220546 a25.843899090809977,25.843899090809977 0 0,0 -0.33072188233087274,-0.29573354651259187 l 3.2596971662699 -3.5829782006260804" fill="#ff3805" stroke="none" /><path d="M 85.86807049272751 115.53346607816431 l -0.6880440036408886 0.7562808875702397 a22.022431089047185,22.022431089047185 0 0,0 -0.2774514109262672,-0.25680488384429906 l 0.700925185881123 -0.7443582575935633" fill="#ff0100" stroke="none" /><path d="M 85.60350026404147 115.28858382429668 l -3.472593867263446 3.6877743480096665 a26.065430663704106,26.065430663704106 0 0,0 -0.32312136997771895,-0.3095429631375578 l 3.5353877231064796 -3.6276192545665262" fill="#ff3b05" stroke="none" /><path d="M 85.34317274990678 115.03919595460226 l -3.4720556562588847 3.5626349747303228 a25.974689783627824,25.974689783627824 0 0,0 -0.31665383127268754,-0.3139474045330552 l 3.5327014076615346 -3.5025075599686084" fill="#ff3905" stroke="none" /><path d="M 85.08716467003676 114.78537596483092 l -3.829680798321943 3.7969486804910164 a26.39289108913932,26.39289108913932 0 0,0 -0.3162285597055543,-0.32447836047349493 l 3.8942961591783067 -3.730647627949784" fill="#ff3f05" stroke="none" /><path d="M 83.8745106332314 113.45245675266167 l -3.9628146406265814 3.30592091559739 a26.160718261652022,26.160718261652022 0 0,0 -0.28471977950964905,-0.3473118362131949 l 4.0189812393748605 -3.2374067976856997" fill="#ff3c05" stroke="none" /><path d="M 83.20337586046588 112.60449989151573 l -7.712392122284121 5.787522829653153 a30.642427741581816,30.642427741581816 0 0,0 -0.3121120670939409,-0.42343996187101407 l 7.810606208961892 -5.65427655851326" fill="#ff7a0b" stroke="none" /><path d="M 82.576782715395 111.72311816256416 l -4.112938628670726 2.7673686639886634 a25.957276821566275,25.957276821566275 0 0,0 -0.24557507317212837,-0.3718319605452494 l 4.159838140763581 -2.696356825104353" fill="#ff3905" stroke="none" /><path d="M 82.37810715431573 111.42229804090323 l -8.217230810181373 5.326309733393437 a30.79246943134548,30.79246943134548 0 0,0 -0.28370466981504494,-0.44603086304239553 l 8.307453171622308 -5.184465195672369" fill="#ff7c0b" stroke="none" /><line stroke="#e1ed5e" stroke-width="0.3" x1="26.387840678322732" x2="22.057713659400548" y1="142.50000000000003" y2="145.00000000000006" /><path d="M 25.521815274538298 143.00000000000003 a86.0,86.0 0 0,1 -11.493303480769221,-40.785679425670985" fill="none" id="id21" stroke="none" /><text fill="#e1ed5e" style="font-size:6.75px; font-family:Arial;" text-anchor="middle"><textPath startOffset="21.40746469413373" xlink:href="#id21">September</textPath></text><path d="M 81.81346652052679 110.50000000000001 l -7.555197595870519 4.361995365756663 a29.723990731513318,29.723990731513318 0 0,0 -0.251332810110979,-0.4440809932213697 l 7.628963771002876 -4.231657602436171" fill="#ff6d0a" stroke="none" /><path d="M 81.63589988554817 110.18625677009913 l -1.4580989294530495 0.8087828970136701 a22.667387856071272,22.667387856071272 0 0,0 -0.18582363007122252,-0.34189454957940096 l 1.4717679091396016 -0.7836335139596822" fill="#ff0a01" stroke="none" /><path d="M 81.4637452351635 109.86951160357371 l -4.272106072300041 2.274655856168305 a25.839932805007074,25.839932805007074 0 0,0 -0.20510991889638977,-0.39332531424036726 l 4.310524060171379 -2.200984298823435" fill="#ff3805" stroke="none" /><path d="M 81.29705330413844 109.54985784667822 l -3.733616360806832 1.9064111168977933 a25.19217061631751,25.19217061631751 0 0,0 -0.19335601172965647,-0.3868415475166646 l 3.7657922857482258 -1.842037713217376" fill="#ff2e04" stroke="none" /><path d="M 81.1358732173502 109.22738970284198 l -8.1193731724149 3.9715922856063757 a30.038681651436722,30.038681651436722 0 0,0 -0.22260199659535998,-0.46515255845207415 l 8.186354426970171 -3.831627225089197" fill="#ff720a" stroke="none" /><path d="M 80.68587082218212 108.24405325689762 l -22.125780050345234 9.44417982328403 a45.05707121348691,45.05707121348691 0 0,0 -0.2975357761042727,-0.7139775485541676 l 22.284641670985994 -9.062969765288582" fill="#cfff1d" stroke="none" /><path d="M 80.41425534168474 107.57618678355246 l -4.8156031905011165 1.8627787650248024 a26.163330205961252,26.163330205961252 0 0,0 -0.15843680054424786,-0.4202724368678755 l 4.8468706748598 -1.779838047962782" fill="#ff3c05" stroke="none" /><path d="M 80.28708602549918 107.23885506374661 l -4.59314870038612 1.686667824520507 a25.89304233929479,25.89304233929479 0 0,0 -0.1496369150162759,-0.41856108319711205 l 4.6214257854463385 -1.6075717849424733" fill="#ff3805" stroke="none" /><path d="M 80.16572619554312 106.89939002012753 l -5.049761967379365 1.75656934381575 a26.34655326231998,26.34655326231998 0 0,0 -0.14492433300562205,-0.42844303916474225 l 5.079171721957355 -1.669624630176846" fill="#ff3f05" stroke="none" /><path d="M 80.05021161711548 106.5578916946017 l -2.4117518907745326 0.7927907499770387 a23.538713129895477,23.538713129895477 0 0,0 -0.12288921448732161,-0.38494871408862524 l 2.425005821039109 -0.7512730021970218" fill="#ff1702" stroke="none" /><path d="M 79.94057633289273 106.21446072829308 l -4.746055099431835 1.4703400017467985 a25.968595246906283,25.968595246906283 0 0,0 -0.12826467920692242,-0.4269514012537815 l 4.770596098642388 -1.3886509969022935" fill="#ff3905" stroke="none" /><path d="M 79.64726062577567 105.17358676015961 l -9.618531134046057 2.444993001301091 a30.92442098830076,30.92442098830076 0 0,0 -0.1263667169551207,-0.5156193279247879 l 9.65908537751747 -2.2795178487682035" fill="#ff7e0b" stroke="none" /><path d="M 79.17382384314188 102.69636545807758 l -7.5782338625591255 0.9811540950357995 a28.641484923353794,28.641484923353794 0 0,0 -0.058944058324414995,-0.488141359827212 l 7.5939600071432025 -0.8509190582851883" fill="#ff5f08" stroke="none" /><path d="M 79.13060592940153 102.33845913500099 l -5.447316300904508 0.6103831535308495 a26.48140697961885,26.48140697961885 0 0,0 -0.04674297145018002,-0.45219584697507315 l 5.456991664836354 -0.516782784272845" fill="#ff4106" stroke="none" /><path d="M 79.03789590574601 101.26102812881392 l -3.188257110891625 0.19179763065041763 a24.19402093547837,24.19402093547837 0 0,0 -0.02138107491508968,-0.4147871413526718 l 3.191079775263287 -0.13703869592101506" fill="#ff2003" stroke="none" /><path d="M 79.00696218219943 100.54070618675478 l -4.89886654547558 0.12617742473547963 a25.90049121751001,25.90049121751001 0 0,0 -0.007632712453700499,-0.4445672351079979 l 4.900310689527947 -0.042063273658429344" fill="#ff3805" stroke="none" /><line stroke="#e1ed5e" stroke-width="0.3" x1="15.003131293944662" x2="10.003315487706104" y1="100.72959589197737" y2="100.7725132973878" /><path d="M 14.003168132696942 100.73817937305945 a86.0,86.0 0 0,1 10.791469493833604,-42.45332614584628" fill="none" id="id22" stroke="none" /><text fill="#e1ed5e" style="font-size:6.75px; font-family:Arial;" text-anchor="middle"><textPath startOffset="22.145653131862435" xlink:href="#id22">October</textPath></text><path d="M 79.00077361379809 100.18025310272382 l -7.261421361498218 0.06233056906587437 a28.26168887305582,28.26168887305582 0 0,0 0.0,-0.4851673435793812 l 7.261421361498218 0.0623305690658717" fill="#ff5908" stroke="none" /><path d="M 79.01933749520258 99.09900007780938 l -20.525185166227676 -0.8814397654740702 a41.54410285624786,41.54410285624786 0 0,0 0.03671392935546269,-0.7122404212908731 l 20.507029647415642 1.2336519801416552" fill="#f9ff18" stroke="none" /><path d="M 79.0935383218832 98.0201363427161 l -11.344286509202 -1.0743157270316384 a32.39504237307655,32.39504237307655 0 0,0 0.05718127220119401,-0.5531769378780319 l 11.324172844519143 1.268897187192583" fill="#ff910d" stroke="none" /><path d="M 79.17382384314186 97.30363454192245 l -5.146686759135178 -0.6663416412286207 a26.189643126409813,26.189643126409813 0 0,0 0.06155249989288254,-0.4453632268813664 l 5.134489742687088 0.7545931763100542" fill="#ff3c05" stroke="none" /><path d="M 79.22317932658666 96.9465228501225 l -9.681029396097681 -1.4227779366697546 a30.785020553130263,30.785020553130263 0 0,0 0.08132890498954443,-0.5221899114527719 l 9.655178998969868 1.5887560300539765" fill="#ff7c0b" stroke="none" /><path d="M 79.2786578344484 96.59031103205396 l -7.037993482615227 -1.158099149293713 a28.132639476444133,28.132639476444133 0 0,0 0.08250255888485646,-0.475852835446006 l 7.017076106238136 1.2787450176603117" fill="#ff5808" stroke="none" /><path d="M 79.34024301695615 96.23510406497455 l -1.9386396533896286 -0.3532847243322419 a22.970566873298434,22.970566873298434 0 0,0 0.07402397279508159,-0.3873247052174139 l 1.9322893883123877 0.3865119945829703" fill="#ff0f01" stroke="none" /><path d="M 79.56144815229197 95.17655741523228 l -6.466098123323592 -1.525981550831994 a27.64372219722713,27.64372219722713 0 0,0 0.11296077038287486,-0.4609184911195413 l 6.43894982642442 1.6367558665596529" fill="#ff5107" stroke="none" /><path d="M 79.64726062577567 94.8264132398404 l -4.806734127890374 -1.2218530187221386 a25.95959854984115,25.95959854984115 0 0,0 0.11349353433151467,-0.4309534358633626 l 4.785051112754134 1.3041869589582857" fill="#ff3905" stroke="none" /><path d="M 79.94057633289273 93.78553927170692 l -0.9300645348762957 -0.2881363703506845 a21.973674795274853,21.973674795274853 0 0,0 0.11471857531419423,-0.35935430325201684 l 0.9249812437848443 0.30405970729409304" fill="#ff0000" stroke="none" /><path d="M 80.05021161711548 93.44210830539832 l -22.602442823787356 -7.429871897738541 a44.79229745147327,44.79229745147327 0 0,0 0.24638873128153166,-0.7284045036253999 l 22.471568670933458 7.816778075838102" fill="#d2ff1c" stroke="none" /><path d="M 80.16572619554312 93.10060997987247 l -6.763746275587904 -2.352782058598979 a28.161274125167566,28.161274125167566 0 0,0 0.16274511615124937,-0.4552270547270874 l 6.722360989392711 2.468544069706988" fill="#ff5808" stroke="none" /><path d="M 80.28708602549916 92.7611449362534 l -4.5758040700624 -1.680298636017472 a25.874565251773927,25.874565251773927 0 0,0 0.15668813188889746,-0.41563388550522457 l 4.546285254359066 1.7586008017168415" fill="#ff3805" stroke="none" /><path d="M 80.41425534168474 92.42381321644754 l -5.552280225207934 -2.147741267674546 a26.95320151280866,26.95320151280866 0 0,0 0.1706283010960788,-0.4300947814180716 l 5.514593249145723 2.2427370663062005" fill="#ff4706" stroke="none" /><path d="M 80.5471966667186 92.08871423366112 l -4.491948452199866 -1.8268363301764874 a25.84921971810656,25.84921971810656 0 0,0 0.17069612922854446,-0.40960857040455817 l 4.459926478434843 1.9036774100223095" fill="#ff3805" stroke="none" /><path d="M 81.29705330413844 90.45014215332179 l -4.3635968114868735 -2.228083623803449 a25.89952383072881,25.89952383072881 0 0,0 0.2055829352368451,-0.3942323854427307 l 4.324705807275088 2.3026622523506663" fill="#ff3805" stroke="none" /><path d="M 81.46374523516351 90.13048839642627 l -4.472172921401573 -2.3811801845047844 a26.066591527841545,26.066591527841545 0 0,0 0.21368975958071548,-0.3931650892492971 l 4.430637812205507 2.4576001072287013" fill="#ff3b05" stroke="none" /><line stroke="#e1ed5e" stroke-width="0.3" x1="26.387840678322718" x2="22.05771365940052" y1="57.49999999999999" y2="54.99999999999999" /><path d="M 25.521815274538284 56.99999999999999 a86.0,86.0 0 0,1 29.574782752854787,-30.34633250058573" fill="none" id="id23" stroke="none" /><text fill="#e1ed5e" style="font-size:6.75px; font-family:Arial;" text-anchor="middle"><textPath startOffset="21.40746469413373" xlink:href="#id23">November</textPath></text><path d="M 81.99639281039701 89.18935116829357 l -5.27486264400533 -3.167403458611318 a27.152773405769615,27.152773405769615 0 0,0 0.24338199089759455,-0.39754619126451135 l 5.219712688652342 3.2574867660003726" fill="#ff4a06" stroke="none" /><path d="M 82.18462484594161 88.88188828441811 l -3.5289400586781987 -2.2023195958934636 a25.15976315914741,25.15976315914741 0 0,0 0.23180805019893966,-0.3644407572064752 l 3.490614316853369 2.262574027778611" fill="#ff2e04" stroke="none" /><path d="M 82.576782715395 88.27688183743585 l -4.1245765980165485 -2.7751992091506 a25.971303929893633,25.971303929893633 0 0,0 0.25205801377148135,-0.3677601749375938 l 4.076328847429754 2.845594119158229" fill="#ff3905" stroke="none" /><path d="M 82.78059297857968 87.97951657250589 l -2.486220301328898 -1.7355748599267613 a24.03208038830598,24.03208038830598 0 0,0 0.2390447020967181,-0.3362463098872291 l 2.4560605007022076 1.7779983965235107" fill="#ff1e03" stroke="none" /><path d="M 82.98947788004972 87.6856937992154 l -7.9428791287585065 -5.750031951849301 a30.805722630247878,30.805722630247878 0 0,0 0.3137753264700511,-0.4256964926529205 l 7.843001782704637 5.8855347537710845" fill="#ff7c0b" stroke="none" /><path d="M 84.10781606972428 86.27271002978789 l -3.7555481632974095 -3.2439530564750174 a25.96259744886286,25.96259744886286 0 0,0 0.29422909255839197,-0.33477869644189157 l 3.699308006780425 3.3079440307282093" fill="#ff3905" stroke="none" /><path d="M 84.83555147118756 85.47280134310135 l -6.103092152811311 -5.84662422486341 a29.45167135260634,29.45167135260634 0 0,0 0.3528775828802168,-0.3620834868534215 l 6.0018277687802914 5.950530403784562" fill="#ff6a09" stroke="none" /><path d="M 85.34317274990677 84.96080404539775 l -4.568010996419014 -4.687181702130414 a27.54495200686691,27.54495200686691 0 0,0 0.3414623277574889,-0.3271131858013283 l 4.486876182796225 4.764907018237311" fill="#ff4f07" stroke="none" /><path d="M 85.86807049272753 84.46653392183569 l -4.236916254041057 -4.657113161674136 a27.296043388064902,27.296043388064902 0 0,0 0.3493048327485311,-0.31235053536422064 l 4.156346394469134 4.729159226921758" fill="#ff4c07" stroke="none" /><path d="M 86.13680546590413 84.22622945171909 l -6.517205812608051 -7.415383867777953 a30.87227884079424,30.87227884079424 0 0,0 0.4010757702024708,-0.3464396977627964 l 6.388950562642732 7.52616769800546" fill="#ff7d0b" stroke="none" /><path d="M 86.40962598614128 83.9905735841838 l -3.1307742181520783 -3.6880441567633544 a25.83770781541032,25.83770781541032 0 0,0 0.3405971747490957,-0.28413827693398863 l 3.067002709241074 3.7412446176092247" fill="#ff3705" stroke="none" /><path d="M 86.68645165197937 83.75963576809568 l -6.885362205214516 -8.399022346127314 a31.86056117646517,31.86056117646517 0 0,0 0.42594419077819845,-0.3431104890836853 l 6.740167244081072 8.515981129004398" fill="#ff8a0c" stroke="none" /><path d="M 87.25179093698888 83.31218511350988 l -3.0109380436505333 -3.941414551548209 a25.959888765875508,25.959888765875508 0 0,0 0.3564503016118829,-0.26748695158468944 l 2.942834753127898 3.992520530396899" fill="#ff3905" stroke="none" /><path d="M 87.83215693770416 82.88440491214696 l -2.877843918305229 -4.048047873363928 a25.966757212022006,25.966757212022006 0 0,0 0.36551909038917785,-0.25516071273477886 l 2.8079297367422855 4.096853401903833" fill="#ff3905" stroke="none" /><path d="M 88.4268655584334 82.4767994020092 l -2.666228649806847 -4.037009999889984 a25.837998031444677,25.837998031444677 0 0,0 0.3722078875346045,-0.24126065581181036 l 2.596535130015216 4.0821844974057" fill="#ff3805" stroke="none" /><path d="M 88.72937992617638 82.28071324371311 l -3.7104113708291666 -5.833382957891232 a27.913429631824876,27.913429631824876 0 0,0 0.4065203842817431,-0.2536987859094339 l 3.609726857757725 5.896217540642202" fill="#ff5507" stroke="none" /><path d="M 89.03521579738668 82.08984904055464 l -0.8106921719304764 -1.32420473696645 a22.5526557838213,22.5526557838213 0 0,0 0.33191843597212795,-0.19930748400998877 l 0.7878409794009141 1.3379262215123622" fill="#ff0801" stroke="none" /><line stroke="#e1ed5e" stroke-width="0.3" x1="56.869717070023135" x2="54.33264160355391" y1="26.7553504044142" y2="22.446841604673864" /><path d="M 56.362301976729285 25.89364864446614 a86.0,86.0 0 0,1 42.16139366436587,-11.88097634709845" fill="none" id="id24" stroke="none" /><text fill="#e1ed5e" style="font-size:6.75px; font-family:Arial;" text-anchor="middle"><textPath startOffset="22.145653131862474" xlink:href="#id24">December</textPath></text><path d="M 89.34428304082924 81.90426304109057 l -3.9332654104931986 -6.679544560969723 a28.751573539054018,28.751573539054018 0 0,0 0.42745037236944233,-0.24678858755270197 l 3.8180225702633566 6.746080045798599" fill="#ff6008" stroke="none" /><path d="M 89.97174638481275 81.54914285379989 l -3.4133441169169365 -6.280168722166981 a28.147827448908927,28.147827448908927 0 0,0 0.42652159550251567,-0.2270987256806805 l 3.3050337056278587 6.337837915570237" fill="#ff5808" stroke="none" /><path d="M 90.61103034731259 81.2157712731953 l -2.608786401956022 -5.2193203606418495 a26.83498684814638,26.83498684814638 0 0,0 0.41382073580760986,-0.20242045870502126 l 2.518805416886359 5.263334569444084" fill="#ff4606" stroke="none" /><path d="M 90.93487009805054 81.0573650232925 l -2.8314167428941395 -5.916572008090874 a27.559172592550507,27.559172592550507 0 0,0 0.42849432799192155,-0.20055698144720857 l 2.729433701030695 5.964305221108626" fill="#ff5007" stroke="none" /><path d="M 91.26138138417902 80.90454125486306 l -2.284732816183623 -4.992553531985919 a26.490500415362103,26.490500415362103 0 0,0 0.4151270780163491,-0.18568106179345134 l 2.198692335311655 5.031038344689216" fill="#ff4106" stroke="none" /><path d="M 91.5904679813234 80.7573450057729 l -4.557688231189939 -10.428882607172566 a32.38130548078355,32.38130548078355 0 0,0 0.5112621484580621,-0.2182274096501789 l 4.377991007561445 10.505584666482148" fill="#ff910d" stroke="none" /><path d="M 92.25597844496254 80.48000691201159 l -1.7864287953191278 -4.502967545865013 a25.844382784200576,25.844382784200576 0 0,0 0.41379039765633047,-0.1600630150436393 l 1.708866135169268 4.532970449046693" fill="#ff3805" stroke="none" /><path d="M 92.93061703081487 80.22567764915836 l -1.0876666866748494 -3.042397302046224 a24.230975110520102,24.230975110520102 0 0,0 0.39288129346920275,-0.13666450821340886 l 1.0352796211606423 3.0606202428282185" fill="#ff2103" stroke="none" /><path d="M 93.95794788825049 79.88797359093562 l -1.7072135592848994 -5.682758697741301 a26.93366029982848,26.93366029982848 0 0,0 0.4439436591761985,-0.12922552908198015 l 1.6094098877270766 5.711227921125802" fill="#ff4706" stroke="none" /><path d="M 94.6519064749342 79.69241777938228 l -1.3190653911646038 -5.008706141711847 a26.179485565207244,26.179485565207244 0 0,0 0.4355701753602872,-0.11072023529266475 l 1.2328899225789385 5.0306116088397745" fill="#ff3c05" stroke="none" /><path d="M 95.35216902796891 79.52079915486377 l -1.2865270696967053 -5.668675649258778 a26.812833690856966,26.812833690856966 0 0,0 0.4497375115648068,-0.09801819741668162 l 1.1890271415127802 5.689925304809173" fill="#ff4506" stroke="none" /><path d="M 96.05791012581881 79.37332000966035 l -2.2177104336716433 -11.603998104199452 a32.814017588013,32.814017588013 0 0,0 0.5541901091006447,-0.10099189892198608 l 2.01818559101996 11.640358177052798" fill="#ff970d" stroke="none" /><path d="M 97.48249496171623 79.15144685158666 l -0.7695055661834295 -6.372609965266225 a27.41890150927693,27.41890150927693 0 0,0 0.4677718108722659,-0.05241480708686626 l 0.6599978537103643 6.384880532860062" fill="#ff4e07" stroke="none" /><path d="M 97.84075906011542 79.11130261209362 l -0.5647177693028531 -5.4631321473422005 a26.492241711568255,26.492241711568255 0 0,0 0.4527655770091214,-0.04287737088135964 l 0.47085262890871615 5.472021273728744" fill="#ff4106" stroke="none" /><path d="M 98.5590905019552 79.04949213459386 l -0.07846424051563725 -1.140852836563685 a22.14354791405306,22.14354791405306 0 0,0 0.37945146574747385,-0.02282685791825571 l 0.05886842263567961 1.1420316723066348" fill="#ff0200" stroke="none" /><path d="M 99.27912038922189 79.0123766808444 l -0.18848898810313444 -5.487651229096872 a26.49088737007458,26.49088737007458 0 0,0 0.4546172907917317,-0.011709328772245363 l 0.09425838324065886 5.490078275219163" fill="#ff4106" stroke="none" /><path d="M 99.63950707515114 79.00309439819443 l -0.1457750070054883 -8.490663339592821 a29.49191464270414,29.49191464270414 0 0,0 0.5062679318543384,-0.004345701305752962 l 2.0799192171640326e-15 8.491914642704138" fill="#ff6a09" stroke="none" /></svg>