<?xml version="1.0" encoding="utf-8" ?>
<svg baseProfile="full" height="200" version="1.1" viewBox="0 0 200 200" width="200" xmlns="http://www.w3.org/2000/svg" xmlns:ev="http://www.w3.org/2001/xml-events" xmlns:xlink="http://www.w3.org/1999/xlink"><defs /><rect fill="#1a1a1a" height="200" width="200" x="0" y="0" /><g id="tracks"><text alignment-baseline="middle" fill="#e1ed5e" style="dominant-baseline: central; font-size:9.0px; font-family:Arial;" text-anchor="middle" x="100.0" y="100.0">2026</text><line stroke="#e1ed5e" stroke-width="0.3" x1="100.0" x2="100.0" y1="15.0" y2="10.0" /><path d="M 100.0 14.0 a86.0,86.0 0 0,1 42.46469731375804,11.215312516191453" fill="none" id="id97" stroke="none" /><text fill="#e1ed5e" style="font-size:6.75px; font-family:Arial;" text-anchor="middle"><textPath startOffset="22.20632615414155" xlink:href="#id97">January</textPath></text><path d="M 100.0 79.0 l 0.0 -15.099236927110155 a36.099236927110155,36.099236927110155 0 0,0 0.6213890221802063,0.005348491493420718 l -0.25990854290767795 15.096999812225294" fill="#ffa60f" stroke="none" /><path d="M 100.72285384407766 79.0124445844662 l 1.4169403995054255 -41.139872740212994 a62.16426665418285,62.16426665418285 0 0,0 1.0691045142834434,0.046037889306130085 l -2.1248857461782005 41.109387124382664" fill="#31ff3c" stroke="none" /><path d="M 101.44485096284872 79.0497635885617 l 1.039756987075066 -15.076402514705753 a36.11221384766631,36.11221384766631 0 0,0 0.6197712454544788,0.048106176865836466 l -1.299118421891886 15.056271075651454" fill="#ffa60f" stroke="none" /><path d="M 102.88285421437855 79.19881850522331 l 1.338925923919746 -9.660995347112936 a30.753335518000092,30.753335518000092 0 0,0 0.5237307969772383,0.07718430534509475 l -1.50502570132564 9.636516557606871" fill="#ff5b08" stroke="none" /><path d="M 103.59715602781102 79.31037775812273 l 4.941614353490432 -28.422490836732376 a49.84887411638032,49.84887411638032 0 0,0 0.844119183014865,0.15425738522193355 l -5.430128657608197 28.333217970159705" fill="#aaff21" stroke="none" /><path d="M 103.95276090670814 79.375362276772 l 7.297054587470016 -38.07442718272688 a59.76737044145874,59.76737044145874 0 0,0 1.0087411286797439,0.20234398066931958 l -7.951362125616885 37.94317924598035" fill="#3dff2e" stroke="none" /><path d="M 106.74666289553966 80.11325718540242 l 4.746130955071128 -13.989892059124472 a35.77304433313047,35.77304433313047 0 0,0 0.5814278000161789,0.2028487427915226 l -4.98624075915058 13.906122463160742" fill="#ffa10e" stroke="none" /><path d="M 107.08798089147638 80.2323363322302 l 3.8165795708890644 -10.644055405022616 a32.30761668461214,32.30761668461214 0 0,0 0.5218721234088207,0.19220990731149062 l -3.9992340200704617 10.5767822299048" fill="#ff710a" stroke="none" /><path d="M 108.43124777332544 80.76684994638697 l 8.327598802524662 -18.996708632140308 a41.74183792893591,41.74183792893591 0 0,0 0.6555811693821259,0.294140160969355 l -8.653362090373568 18.85054814065442" fill="#fff016" stroke="none" /><path d="M 108.76106565485865 80.91482961587045 l 9.918489337177418 -21.606510715762617 a44.77430831889893,44.77430831889893 0 0,0 0.6976728217111142,0.3275667445645666 l -10.288940370188131 21.43257898855805" fill="#e7ff1a" stroke="none" /><path d="M 109.41281617654863 81.2277094730956 l 6.87288487924858 -13.70682156023257 a36.333411357146204,36.333411357146204 0 0,0 0.5566616216326377,0.2851437034549228 l -7.107806988469973 13.586485331465147" fill="#ffa90f" stroke="none" /><line stroke="#e1ed5e" stroke-width="0.3" x1="143.23703022742887" x2="145.7803849466894" y1="26.81831364943548" y2="22.513508569990506" /><path d="M 143.74570117128098 25.957352633546492 a86.0,86.0 0 0,1 28.547481713284135,27.462654790039103" fill="none" id="id98" stroke="none" /><text fill="#e1ed5e" style="font-size:6.75px; font-family:Arial;" text-anchor="middle"><textPath startOffset="19.985693538727396" xlink:href="#id98">February</textPath></text><path d="M 111.60114157652 82.49532879139004 l 8.588353187325351 -12.958750462266492 a36.546350826272175,36.546350826272175 0 0,0 0.5213864354344164,0.352042448624215 l -8.810144317166309 12.808996101343606" fill="#ffac0f" stroke="none" /><path d="M 112.19680574252982 82.90503203632743 l 2.7458657748151256 -3.848588593104321 a25.72772810261692,25.72772810261692 0 0,0 0.3582949801517415,0.2603165406510753 l -2.8117060713206556 3.800752817636571" fill="#ff1101" stroke="none" /><path d="M 112.48926042617603 83.11751280151076 l 17.99632207844662 -24.326714852745614 a51.2598192968494,51.2598192968494 0 0,0 0.7048319037912155,0.5308647772377517 l -18.41240013599622 24.013333486002015" fill="#9aff23" stroke="none" /><path d="M 113.34407831869373 83.78471172551755 l 2.3088672564904273 -2.8056601031078667 a24.633537755723047,24.633537755723047 0 0,0 0.32509520604912673,0.27225788582852245 l -2.3568199994986716 2.765501059885525" fill="#ff0000" stroke="none" /><path d="M 113.89432698308785 84.25364557470407 l 17.858057602887513 -20.238425704583822 a47.99081503674922,47.99081503674922 0 0,0 0.6147143781523182,0.5518966381592496 l -18.20378296863582 19.928030057655274" fill="#c0ff1e" stroke="none" /><path d="M 114.68862486808459 84.99185889309783 l 18.01025786397816 -18.402028360162372 a46.748864753522774,46.748864753522774 0 0,0 0.5702564539367724,0.5678075914966636 l -18.324350118082258 18.08928491801559" fill="#cfff1d" stroke="none" /><path d="M 115.19652480421416 85.50635884689758 l 32.35726500023747 -30.860646999979263 a65.71433921632882,65.71433921632882 0 0,0 0.7736539080664003,0.8252800476664625 l -32.88368623027433 30.299097535434747" fill="#35ff68" stroke="none" /><path d="M 115.4437574822437 85.77008943001954 l 28.513220709925886 -26.272141428720083 a59.77149946163569,59.77149946163569 0 0,0 0.6906635454419573,0.7626479372126159 l -28.96122789598388 25.777440704237918" fill="#3dff2e" stroke="none" /><path d="M 115.9244219780498 86.31012108654704 l 19.0229785769715 -16.35364056861311 a46.08615701512101,46.08615701512101 0 0,0 0.5119719665139986,0.6060133240815921 l -19.301661156972614 16.02376829490241" fill="#d7ff1c" stroke="none" /><path d="M 116.15771136456269 86.58626213691792 l 11.368641659845885 -9.437969007104753 a35.77569870324423,35.77569870324423 0 0,0 0.38927624289101764,0.4772066452433165 l -11.52941639481331 9.240878192253335" fill="#ffa10e" stroke="none" /><path d="M 116.60985879189232 87.15038557335679 l 49.829576375676965 -38.54884327992963 a84.0,84.0 0 0,0 0.874896239103546,1.1512608964758657 l -50.48574855500462 37.68539760757273" fill="#4dd2ff" stroke="none" /><path d="M 117.04232023915458 87.72973835380427 l 11.997758344105169 -8.638238924285199 a35.78395674359815,35.78395674359815 0 0,0 0.3556028659939369,0.5029750354277902 l -12.144673829902988 8.430437388525615" fill="#ffa10e" stroke="none" /><path d="M 117.2510076193507 88.02491185347247 l 7.842541781354554 -5.444037310562654 a30.546884509152193,30.546884509152193 0 0,0 0.296123730290769,0.43452503445259727 l -7.935089977314056 5.30823425283965" fill="#ff5808" stroke="none" /><line stroke="#e1ed5e" stroke-width="0.3" x1="172.23445277983987" x2="176.4835382374775" y1="55.19839476539836" y2="52.563006222186495" /><path d="M 173.08426987136738 54.67131705675599 a86.0,86.0 0 0,1 12.851231095245387,41.99856678651699" fill="none" id="id99" stroke="none" /><text fill="#e1ed5e" style="font-size:6.75px; font-family:Arial;" text-anchor="middle"><textPath startOffset="22.20632615414155" xlink:href="#id99">March</textPath></text><path d="M 118.21658344932153 89.55222093294921 l 14.086490586390767 -8.079041928259214 a37.23884649595057,37.23884649595057 0 0,0 0.3141227192305572,0.5587892667562353 l -14.223470946913757 7.835369151568184" fill="#ffb510" stroke="none" /><path d="M 118.56541770881063 90.18545643968196 l 18.82267924346763 -9.950543976677494 a42.29099761247133,42.29099761247133 0 0,0 0.33468404121146555,0.6465030398298061 l -18.99117271783921 9.625068214587344" fill="#fff717" stroke="none" /><path d="M 118.73160827565052 90.50648371742162 l 17.362756605864906 -8.799757614112268 a40.46538083423061,40.46538083423061 0 0,0 0.30954086919267676,0.624015503852569 l -17.511657488010993 8.499582521760749" fill="#ffe015" stroke="none" /><path d="M 118.89224826269711 90.83032412892265 l 23.89120737652215 -11.596006190748863 a47.55667805814335,47.55667805814335 0 0,0 0.3511082505247937,0.7395235193727528 l -24.0872738208887 11.18304025573557" fill="#c5ff1e" stroke="none" /><path d="M 119.196687751892 91.48605970444005 l 14.499021636753898 -6.4304741606888935 a36.861041149758904,36.861041149758904 0 0,0 0.25225114562340895,0.582230422895403 l -14.607563492219988 6.179944593206888" fill="#ffb010" stroke="none" /><path d="M 119.34039704204932 91.81776055985345 l 15.03156554899597 -6.3593248998320755 a37.32142689948972,37.32142689948972 0 0,0 0.24521654888531846,0.5938113235279834 l -15.138803784767484 6.099639005850789" fill="#ffb610" stroke="none" /><path d="M 119.47837535516314 92.15188598940014 l 13.872221538228391 -5.589315034092763 a35.95590094096718,35.95590094096718 0 0,0 0.22636200115288088,0.5760666024503339 l -13.966377089262973 5.349699426746645" fill="#ffa40f" stroke="none" /><path d="M 119.7369772167798 92.82701384747503 l 15.458984402132058 -5.61824031262091 a37.448246804924864,37.448246804924864 0 0,0 0.2149652753051231,0.6077357808228734 l -15.553402758246992 5.3513069053714215" fill="#ffb811" stroke="none" /><path d="M 120.08093135843002 93.85539295169968 l 20.266126034597367 -6.201275162551295 a42.193670708300175,42.193670708300175 0 0,0 0.20653621562018865,0.6963374444185986 l -20.369868147329257 5.851508331386166" fill="#fff617" stroke="none" /><line stroke="#e1ed5e" stroke-width="0.3" x1="184.98032266829074" x2="189.97916517819016" y1="98.17113171792111" y2="98.06355123074" /><path d="M 185.9800911702706 98.14961562048488 a86.0,86.0 0 0,1 -9.607161424134198,41.387399972396054" fill="none" id="id100" stroke="none" /><text fill="#e1ed5e" style="font-size:6.75px; font-family:Arial;" text-anchor="middle"><textPath startOffset="21.466115282336823" xlink:href="#id100">April</textPath></text><line stroke="#e1ed5e" stroke-width="0.3" x1="174.80103733775053" x2="179.2010983576182" y1="140.37084112569926" y2="142.7455964860345" /><path d="M 175.68104954172406 140.8457921977663 a86.0,86.0 0 0,1 -30.038265399797805,32.042727171017184" fill="none" id="id101" stroke="none" /><text fill="#e1ed5e" style="font-size:6.75px; font-family:Arial;" text-anchor="middle"><textPath startOffset="22.206326154141568" xlink:href="#id101">May</textPath></text><line stroke="#e1ed5e" stroke-width="0.3" x1="143.8653032363475" x2="146.44561519142675" y1="172.8068346515853" y2="177.08958963109032" /><path d="M 144.38136562736335 173.6633856474863 a86.0,86.0 0 0,1 -40.68145358897372,12.25698825130547" fill="none" id="id102" stroke="none" /><text fill="#e1ed5e" style="font-size:6.75px; font-family:Arial;" text-anchor="middle"><textPath startOffset="21.466115282336833" xlink:href="#id102">June</textPath></text><line stroke="#e1ed5e" stroke-width="0.3" x1="102.19456741930631" x2="102.32365962044197" y1="184.97166512339345" y2="189.96999836594603" /><path d="M 102.22038585953345 185.97133177190398 a86.0,86.0 0 0,1 -42.740103519485714,-10.115201625700543" fill="none" id="id103" stroke="none" /><text fill="#e1ed5e" style="font-size:6.75px; font-family:Arial;" text-anchor="middle"><textPath startOffset="22.20632615414155" xlink:href="#id103">July</textPath></text><line stroke="#e1ed5e" stroke-width="0.3" x1="58.666819895761336" x2="56.23545636021788" y1="174.27360380694188" y2="178.64263932499728" /><path d="M 58.180547188652646 175.14741091055294 a86.0,86.0 0 0,1 -31.652253787137756,-30.449443065178592" fill="none" id="id104" stroke="none" /><text fill="#e1ed5e" style="font-size:6.75px; font-family:Arial;" text-anchor="middle"><textPath startOffset="22.20632615414155" xlink:href="#id104">August</textPath></text><line stroke="#e1ed5e" stroke-width="0.3" x1="26.63291911575756" x2="22.317208475507996" y1="142.92168965132927" y2="145.44649492493687" /><path d="M 25.769776987707644 143.4266507060508 a86.0,86.0 0 0,1 -11.730757126820373,-40.83630448921669" fill="none" id="id105" stroke="none" /><text fill="#e1ed5e" style="font-size:6.75px; font-family:Arial;" text-anchor="middle"><textPath startOffset="21.46611528233685" xlink:href="#id105">September</textPath></text><line stroke="#e1ed5e" stroke-width="0.3" x1="15.007084014347285" x2="10.007500721073583" y1="101.09737516637583" y2="101.16192664675087" /><path d="M 14.007167355692545 101.11028546245083 a86.0,86.0 0 0,1 10.666146001902534,-42.60595125391555" fill="none" id="id106" stroke="none" /><text fill="#e1ed5e" style="font-size:6.75px; font-family:Arial;" text-anchor="middle"><textPath startOffset="22.20632615414155" xlink:href="#id106">October</textPath></text><line stroke="#e1ed5e" stroke-width="0.3" x1="26.266209847984243" x2="21.928928074336255" y1="57.711370442889674" y2="55.22380399835377" /><path d="M 25.398753493254645 57.213857153982495 a86.0,86.0 0 0,1 29.58750427330803,-30.492523968695096" fill="none" id="id107" stroke="none" /><text fill="#e1ed5e" style="font-size:6.75px; font-family:Arial;" text-anchor="middle"><textPath startOffset="21.46611528233685" xlink:href="#id107">November</textPath></text><line stroke="#e1ed5e" stroke-width="0.3" x1="56.762969772571076" x2="54.21961505331055" y1="26.818313649435495" y2="22.513508569990535" /><path d="M 56.25429882871897 25.957352633546506 a86.0,86.0 0 0,1 42.265352541879196,-11.944610805530505" fill="none" id="id108" stroke="none" /><text fill="#e1ed5e" style="font-size:6.75px; font-family:Arial;" text-anchor="middle"><textPath startOffset="22.20632615414155" xlink:href="#id108">December</textPath></text></g></svg>