<?xml version="1.0" encoding="utf-8" ?>
<svg baseProfile="full" height="200" version="1.1" viewBox="0 0 200 200" width="200" xmlns="http://www.w3.org/2000/svg" xmlns:ev="http://www.w3.org/2001/xml-events" xmlns:xlink="http://www.w3.org/1999/xlink"><defs /><rect fill="#FAF9F5" height="200" width="200" x="0" y="0" /><g id="tracks"><text alignment-baseline="middle" fill="#5A5A5A" style="dominant-baseline: central; font-size:9.0px; font-family:Arial;" text-anchor="middle" x="100.0" y="100.0">2026</text><line stroke="#5A5A5A" stroke-width="0.3" x1="100.0" x2="100.0" y1="15.0" y2="10.0" /><path d="M 100.0 14.0 a86.0,86.0 0 0,1 42.46469731375804,11.215312516191453" fill="none" id="id97" stroke="none" /><text fill="#5A5A5A" style="font-size:6.75px; font-family:Arial;" text-anchor="middle"><textPath startOffset="22.20632615414155" xlink:href="#id97">January</textPath></text><path d="M 100.0 79.0 l 0.0 -12.378998272884289 a33.37899827288429,33.37899827288429 0 0,0 0.5745645853961481,0.00494545878301805 l -0.2130841061236197 12.377164190709829" fill="#ff880c" stroke="none" /><path d="M 100.72285384407766 79.0124445844662 l 1.161668158658046 -33.728221899968894 a54.74822107081174,54.74822107081174 0 0,0 0.9415629500047251,0.040545681257481266 l -1.7420719410521026 33.70322849218722" fill="#6fff27" stroke="none" /><path d="M 101.44485096284872 79.0497635885617 l 0.85243711383268 -12.360277647922837 a33.38963730569948,33.38963730569948 0 0,0 0.5730453742193933,0.04447934996424795 l -1.0650726774144144 12.343773035770123" fill="#ff880c" stroke="none" /><path d="M 102.88285421437855 79.19881850522331 l 1.097708564991353 -7.920495935892514 a28.996200345423144,28.996200345423144 0 0,0 0.4938066996775544,0.07277427126559129 l -1.2338842450975631 7.900427180465954" fill="#ff4a06" stroke="none" /><path d="M 103.59715602781102 79.31037775812273 l 4.05134616023447 -23.301969939107284 a44.65153713298791,44.65153713298791 0 0,0 0.7561097359402615,0.1381742213112783 l -4.451851017277632 23.228780236445267" fill="#e4ff1b" stroke="none" /><path d="M 103.95276090670814 79.375362276772 l 5.982436501360469 -31.215038919601948 a52.78314335060449,52.78314335060449 0 0,0 0.8908628103507703,0.17869869895417076 l -6.518865721178364 31.10743626457057" fill="#85ff25" stroke="none" /><path d="M 106.74666289553966 80.11325718540242 l 3.8910805346871755 -11.469510047014309 a33.111571675302244,33.111571675302244 0 0,0 0.5381702517394968,0.1877570335820139 l -4.087932790489946 11.400832160260087" fill="#ff840c" stroke="none" /><path d="M 107.08798089147638 80.2323363322302 l 3.1289946733356873 -8.726450489606147 a30.270466321243525,30.270466321243525 0 0,0 0.48896558015579916,0.18009014972166046 l -3.2787425792640628 8.671297072078161" fill="#ff5c08" stroke="none" /><path d="M 108.43124777332544 80.76684994638697 l 6.827320591852976 -15.574311767075383 a38.005043177892915,38.005043177892915 0 0,0 0.59689251564339,0.2678082727699787 l -7.0943952259631455 15.454483163788872" fill="#ffc612" stroke="none" /><path d="M 108.76106565485865 80.91482961587045 l 8.131600488637375 -17.71393879867224 a40.49119170984456,40.49119170984456 0 0,0 0.6309333418050583,0.2962316638699494 l -8.43531204174203 17.571342152162284" fill="#ffe615" stroke="none" /><path d="M 109.41281617654863 81.2277094730956 l 5.634684087723236 -11.237436781735864 a33.57098445595855,33.57098445595855 0 0,0 0.5143386747631224,0.2634642462361822 l -5.827283250075114 11.138780010187181" fill="#ff8a0c" stroke="none" /><line stroke="#5A5A5A" stroke-width="0.3" x1="143.23703022742887" x2="145.7803849466894" y1="26.81831364943548" y2="22.513508569990506" /><path d="M 143.74570117128098 25.957352633546492 a86.0,86.0 0 0,1 28.547481713284135,27.462654790039103" fill="none" id="id98" stroke="none" /><text fill="#5A5A5A" style="font-size:6.75px; font-family:Arial;" text-anchor="middle"><textPath startOffset="19.985693538727396" xlink:href="#id98">February</textPath></text><path d="M 111.60114157652 82.49532879139004 l 7.041098155227668 -10.624136197446733 a33.74556131260795,33.74556131260795 0 0,0 0.48142913113683605,0.32506309839692576 l -7.222931980771046 10.501361186751137" fill="#ff8d0d" stroke="none" /><path d="M 112.19680574252982 82.90503203632743 l 2.25117784746981 -3.155237034630643 a24.875993091537133,24.875993091537133 0 0,0 0.34643336618908716,0.2516985736564248 l -2.305156530012686 3.1160192261575435" fill="#ff0d01" stroke="none" /><path d="M 112.48926042617603 83.11751280151076 l 14.754152213306401 -19.944078141220462 a45.80829015544042,45.80829015544042 0 0,0 0.6298723796254962,0.47440681771004284 l -15.09527074669028 19.687154734004572" fill="#d5ff1c" stroke="none" /><path d="M 113.34407831869373 83.78471172551755 l 1.8929078282821725 -2.3001997874683218 a23.978929188255613,23.978929188255613 0 0,0 0.3164561664912416,0.26502293864427096 l -1.9322215317325315 2.2672756914302314" fill="#ff0000" stroke="none" /><path d="M 113.89432698308785 84.25364557470407 l 14.64079710056727 -16.592324370585878 a43.12822107081175,43.12822107081175 0 0,0 0.5524294091704507,0.49597657802942424 l -14.92423749733371 16.337848783787155" fill="#f6ff19" stroke="none" /><path d="M 114.68862486808459 84.99185889309783 l 14.76557736451497 -15.08676752260328 a42.11001727115717,42.11001727115717 0 0,0 0.513670422819343,0.511464558779834 l -15.023083587501636 14.830367113173327" fill="#fffb17" stroke="none" /><path d="M 115.19652480421416 85.50635884689758 l 26.527865579354156 -25.300874326100825 a57.6587219343696,57.6587219343696 0 0,0 0.6788152493140289,0.7241127789436851 l -26.959448150638647 24.840492130279085" fill="#50ff2b" stroke="none" /><path d="M 115.4437574822437 85.77008943001954 l 23.37635415792465 -21.539021802298585 a52.78652849740932,52.78652849740932 0 0,0 0.6099517537952015,0.6735239609808261 l -23.74364955233589 21.13344505404821" fill="#85ff25" stroke="none" /><path d="M 115.9244219780498 86.31012108654704 l 15.595848988013365 -13.407411866672218 a41.566701208981,41.566701208981 0 0,0 0.4617652487813086,0.5465844063000523 l -15.824324850281792 13.13696851074306" fill="#fff417" stroke="none" /><path d="M 116.15771136456269 86.58626213691792 l 9.32049719807975 -7.737649432383978 a33.11374784110535,33.11374784110535 0 0,0 0.3603114911759111,0.4416992844713896 l -9.452307181332069 7.576065978304487" fill="#ff840c" stroke="none" /><path d="M 116.60985879189232 87.15038557335679 l 40.85241147422129 -31.60398546546064 a72.65008635578585,72.65008635578585 0 0,0 0.7566819919431533,0.9957048041310842 l -41.39036940638856 30.89609588544852" fill="#3effb9" stroke="none" /><path d="M 117.04232023915458 87.72973835380427 l 9.836273881728287 -7.081996609543509 a33.12051813471503,33.12051813471503 0 0,0 0.32913496001293646,0.46553805945943544 l -9.956721461545108 6.9116320497522805" fill="#ff840c" stroke="none" /><path d="M 117.2510076193507 88.02491185347247 l 6.429650162790814 -4.463253924042559 a28.82694300518135,28.82694300518135 0 0,0 0.2794504916865125,0.41005911417043345 l -6.50552512014606 4.351916786601719" fill="#ff4806" stroke="none" /><line stroke="#5A5A5A" stroke-width="0.3" x1="172.23445277983987" x2="176.4835382374775" y1="55.19839476539836" y2="52.563006222186495" /><path d="M 173.08426987136738 54.67131705675599 a86.0,86.0 0 0,1 12.851231095245387,41.99856678651699" fill="none" id="id99" stroke="none" /><text fill="#5A5A5A" style="font-size:6.75px; font-family:Arial;" text-anchor="middle"><textPath startOffset="22.20632615414155" xlink:href="#id99">March</textPath></text><path d="M 118.21658344932153 89.55222093294921 l 11.548705638683284 -6.623543067723852 a34.313298791018994,34.313298791018994 0 0,0 0.2894446991846958,0.5148898227421231 l -11.661007979160413 6.4237697350469345" fill="#ff950d" stroke="none" /><path d="M 118.56541770881063 90.18545643968196 l 15.431635053529531 -8.157880248927574 a38.4552677029361,38.4552677029361 0 0,0 0.30432870178716287,0.5878661859725361 l -15.56977318847681 7.891041340694693" fill="#ffcc13" stroke="none" /><path d="M 118.73160827565052 90.50648371742162 l 14.234728223292278 -7.214416518712421 a36.95854922279793,36.95854922279793 0 0,0 0.282715279448147,0.5699367518472713 l -14.356803515693832 6.9683201783662" fill="#ffb811" stroke="none" /><path d="M 118.89224826269711 90.83032412892265 l 19.587030541926293 -9.50690033546676 a42.77229706390328,42.77229706390328 0 0,0 0.3157854376345006,0.6651246669854031 l -19.74777417340255 9.168333252840817" fill="#fbff18" stroke="none" /><path d="M 119.196687751892 91.48605970444005 l 11.886916184329305 -5.271976916003664 a34.00355785837651,34.00355785837651 0 0,0 0.23269653155479159,0.5370956775582111 l -11.975903425726777 5.06658209385885" fill="#ff900d" stroke="none" /><path d="M 119.34039704204932 91.81776055985345 l 12.323518391560274 -5.213645718108347 a34.38100172711572,34.38100172711572 0 0,0 0.22589679149857905,0.5470269985865841 l -12.41143686994505 5.00074414906846" fill="#ff960d" stroke="none" /><path d="M 119.47837535516314 92.15188598940014 l 11.373038736445855 -4.582358796517196 a33.26148531951641,33.26148531951641 0 0,0 0.20939918570262855,0.5328980873521693 l -11.450231472030184 4.385911704269242" fill="#ff860c" stroke="none" /><path d="M 119.7369772167798 92.82701384747503 l 12.673934592743922 -4.606072973244876 a34.48497409326425,34.48497409326425 0 0,0 0.19795511358554935,0.5596457630286268 l -12.751342787139281 4.387229583789635" fill="#ff970d" stroke="none" /><path d="M 120.08093135843002 93.85539295169968 l 16.615034282288782 -5.0840698041549865 a38.3754749568221,38.3754749568221 0 0,0 0.1878463105285173,0.633324375699001 l -16.700086489929003 4.797316041709456" fill="#ffcb12" stroke="none" /><path d="M 120.37134235888165 94.90015583598534 l 17.757196007819637 -4.445408203071145 a39.30518134715026,39.30518134715026 0 0,0 0.1586566741923143,0.6577343427473257 l -17.83108548227277 4.139088628664413" fill="#ffd714" stroke="none" /><path d="M 120.45610955862082 95.25157060432595 l 5.433764507972166 -1.261327186622918 a26.578238341968913,26.578238341968913 0 0,0 0.09961221624336244,0.4465420334262288 l -5.454671111217566 1.1676069836467253" fill="#ff2703" stroke="none" /><path d="M 120.53481517161879 95.60439243477599 l 61.60444551485638 -13.186822695672053 a84.0,84.0 0 0,0 0.2904828163400124,1.4164973753463528 l -61.822307627111385 12.124449664162288" fill="#4dd2ff" stroke="none" /><path d="M 120.73433829027371 96.67025291283417 l 14.63292800029645 -2.3499158113259093 a35.82041450777202,35.82041450777202 0 0,0 0.09252601817181114,0.6096308542648218 l -14.671209911907562 2.0976858446690057" fill="#ffa90f" stroke="none" /><path d="M 120.83666639777658 97.38593545837742 l 13.204952429863244 -1.6566276611503352 a34.30846286701209,34.30846286701209 0 0,0 0.06846931274980736,0.5866032581357127 l -13.23151209561664 1.4290806646897698" fill="#ff950d" stroke="none" /><path d="M 120.91429891909075 98.10471618934814 l 24.23313447122558 -2.196041455768779 a45.33243523316062,45.33243523316062 0 0,0 0.06373635952278049,0.7777450244565699 l -24.267345314567855 1.77858251410444" fill="#dbff1b" stroke="none" /><line stroke="#5A5A5A" stroke-width="0.3" x1="184.98032266829074" x2="189.97916517819016" y1="98.17113171792111" y2="98.06355123074" /><path d="M 185.9800911702706 98.14961562048488 a86.0,86.0 0 0,1 -9.607161424134198,41.387399972396054" fill="none" id="id100" stroke="none" /><text fill="#5A5A5A" style="font-size:6.75px; font-family:Arial;" text-anchor="middle"><textPath startOffset="21.466115282336823" xlink:href="#id100">April</textPath></text><path d="M 120.99980553446 99.90962569577887 l 17.12360654168016 -0.07369277893651363 a38.12376511226252,38.12376511226252 0 0,0 -0.0028242497485474883,0.6562561782510447 l -17.12233799464211 -0.22107287751821575" fill="#ffc812" stroke="none" /><path d="M 120.92983693683757 101.71520430193887 l 24.131607962085983 1.9775900745993182 a45.212504317789296,45.212504317789296 0 0,0 -0.07024172412820716,0.7751115726062981 l -24.0939916416807 -2.3926830357541866" fill="#ddff1b" stroke="none" /><path d="M 120.70491114924044 103.5080841355445 l 50.81893494371083 8.610377420906733 a72.54321243523316,72.54321243523316 0 0,0 -0.21919642443616905,1.229369955584586 l -50.66319207693547 -9.483866127224537" fill="#3effb8" stroke="none" /><path d="M 120.5718875245553 104.21870165774334 l 12.148901682607264 2.491389844854988 a33.40172711571675,33.40172711571675 0 0,0 -0.12035113287974016,0.562240425858957 l -12.10421651100308 -2.700144090130114" fill="#ff880c" stroke="none" /><path d="M 120.32669344350535 105.2749913415812 l 7.260034894847852 1.8840556294283135 a28.500518134715026,28.500518134715026 0 0,0 -0.1273184967368419,0.47379949000112986 l -7.226528321769233 -2.0087460526049914" fill="#ff4306" stroke="none" /><path d="M 120.13307415673323 105.97154293290107 l 49.214644900665256 14.597242461033556 a72.33381692573403,72.33381692573403 0 0,0 -0.36433244158025785,1.190659499218273 l -48.95608568657887 -15.442228932803886" fill="#3effb6" stroke="none" /><line stroke="#5A5A5A" stroke-width="0.3" x1="174.80103733775053" x2="179.2010983576182" y1="140.37084112569926" y2="142.7455964860345" /><path d="M 175.68104954172406 140.8457921977663 a86.0,86.0 0 0,1 -30.038265399797805,32.042727171017184" fill="none" id="id101" stroke="none" /><text fill="#5A5A5A" style="font-size:6.75px; font-family:Arial;" text-anchor="middle"><textPath startOffset="22.206326154141568" xlink:href="#id101">May</textPath></text><line stroke="#5A5A5A" stroke-width="0.3" x1="143.8653032363475" x2="146.44561519142675" y1="172.8068346515853" y2="177.08958963109032" /><path d="M 144.38136562736335 173.6633856474863 a86.0,86.0 0 0,1 -40.68145358897372,12.25698825130547" fill="none" id="id102" stroke="none" /><text fill="#5A5A5A" style="font-size:6.75px; font-family:Arial;" text-anchor="middle"><textPath startOffset="21.466115282336833" xlink:href="#id102">June</textPath></text><line stroke="#5A5A5A" stroke-width="0.3" x1="102.19456741930631" x2="102.32365962044197" y1="184.97166512339345" y2="189.96999836594603" /><path d="M 102.22038585953345 185.97133177190398 a86.0,86.0 0 0,1 -42.740103519485714,-10.115201625700543" fill="none" id="id103" stroke="none" /><text fill="#5A5A5A" style="font-size:6.75px; font-family:Arial;" text-anchor="middle"><textPath startOffset="22.20632615414155" xlink:href="#id103">July</textPath></text><line stroke="#5A5A5A" stroke-width="0.3" x1="58.666819895761336" x2="56.23545636021788" y1="174.27360380694188" y2="178.64263932499728" /><path d="M 58.180547188652646 175.14741091055294 a86.0,86.0 0 0,1 -31.652253787137756,-30.449443065178592" fill="none" id="id104" stroke="none" /><text fill="#5A5A5A" style="font-size:6.75px; font-family:Arial;" text-anchor="middle"><textPath startOffset="22.20632615414155" xlink:href="#id104">August</textPath></text><line stroke="#5A5A5A" stroke-width="0.3" x1="26.63291911575756" x2="22.317208475507996" y1="142.92168965132927" y2="145.44649492493687" /><path d="M 25.769776987707644 143.4266507060508 a86.0,86.0 0 0,1 -11.730757126820373,-40.83630448921669" fill="none" id="id105" stroke="none" /><text fill="#5A5A5A" style="font-size:6.75px; font-family:Arial;" text-anchor="middle"><textPath startOffset="21.46611528233685" xlink:href="#id105">September</textPath></text><line stroke="#5A5A5A" stroke-width="0.3" x1="15.007084014347285" x2="10.007500721073583" y1="101.09737516637583" y2="101.16192664675087" /><path d="M 14.007167355692545 101.11028546245083 a86.0,86.0 0 0,1 10.666146001902534,-42.60595125391555" fill="none" id="id106" stroke="none" /><text fill="#5A5A5A" style="font-size:6.75px; font-family:Arial;" text-anchor="middle"><textPath startOffset="22.20632615414155" xlink:href="#id106">October</textPath></text><line stroke="#5A5A5A" stroke-width="0.3" x1="26.266209847984243" x2="21.928928074336255" y1="57.711370442889674" y2="55.22380399835377" /><path d="M 25.398753493254645 57.213857153982495 a86.0,86.0 0 0,1 29.58750427330803,-30.492523968695096" fill="none" id="id107" stroke="none" /><text fill="#5A5A5A" style="font-size:6.75px; font-family:Arial;" text-anchor="middle"><textPath startOffset="21.46611528233685" xlink:href="#id107">November</textPath></text><line stroke="#5A5A5A" stroke-width="0.3" x1="56.762969772571076" x2="54.21961505331055" y1="26.818313649435495" y2="22.513508569990535" /><path d="M 56.25429882871897 25.957352633546506 a86.0,86.0 0 0,1 42.265352541879196,-11.944610805530505" fill="none" id="id108" stroke="none" /><text fill="#5A5A5A" style="font-size:6.75px; font-family:Arial;" text-anchor="middle"><textPath startOffset="22.20632615414155" xlink:href="#id108">December</textPath></text></g></svg>