<?xml version="1.0" encoding="utf-8" ?>
<svg baseProfile="full" height="130mm" version="1.1" viewBox="0,0,100,130" width="100mm" xmlns="http://www.w3.org/2000/svg" xmlns:ev="http://www.w3.org/2001/xml-events" xmlns:xlink="http://www.w3.org/1999/xlink"><defs /><rect fill="#222222" height="130" width="100" x="0" y="0" /><text fill="#FFFFFF" style="font-size:6px; font-family:Arial; font-weight:bold;color:#0ed45e;" x="5" y="10">MY TRACKS</text><text fill="#FFFFFF" style="font-size:4px; font-family:Arial" x="5" y="121">Runner</text><text fill="#FFFFFF" style="font-size:6px; font-family:Arial" x="2" y="128">蓝皮书</text><text fill="#FFFFFF" style="font-size:4px; font-family:Arial" x="25" y="121">WORKOUTS INFO</text><text fill="#FFFFFF" style="font-size:3px; font-family:Arial" x="25" y="125">Type: Run</text><text fill="#FFFFFF" style="font-size:3px; font-family:Arial" x="22" y="129">Date: 2022-08-31</text><text fill="#FFFFFF" style="font-size:3px; font-family:Arial" x="47" y="125">Distance: 3.56 km</text><text fill="#FFFFFF" style="font-size:3px; font-family:Arial" x="47" y="129">Duration: 26:00min</text><text fill="#FFFFFF" style="font-size:3px; font-family:Arial" x="75" y="125">Pace: 7:17/km</text><text fill="#FFFFFF" style="font-size:3px; font-family:Arial" x="75" y="129">Elevation: 0m</text><polyline fill="none" points="25.68567639309913,57.313518564624246 26.33023872738704,56.7599057215848 27.261273209471256,56.298561325646006 28.192307692952454,56.20629240735434 28.980106101371348,56.02175453113159 29.911140583921224,55.6526786222239 30.77055702963844,55.19133344129659 31.629973475355655,54.822257061547134 32.41777188377455,54.545449639088474 33.277188329491764,54.176372893038206 34.2798408488743,53.807295937498566 34.996021220460534,53.43821877252776 35.85543766617775,52.97687202214729 36.786472148727626,52.792333230376244 37.78912466857582,52.51552494481439 38.57692307699472,52.88460263272282 39.36472148587927,52.792333230376244 40.36737400572747,52.70006381475832 41.226790451444685,52.33098602219252 42.15782493399456,52.238716541207395 42.945623342413455,51.961908020079136 43.80503978813067,51.77736894058762 44.664456233847886,51.592829808651004 45.45225464226678,51.316021012899 46.383289124816656,50.94694243511185 47.385941644664854,50.76240306784166 48.38859416497871,50.57786364847561 49.31962864752859,50.393324176140595 50.250663130544126,50.11651487002382 51.25331564992666,50.11651487002382 52.11273209564388,49.83970544603653 53.043766578659415,49.65516576502705 53.90318302437663,49.37835614505457 54.762599469628185,49.10154640709516 55.6220159153454,49.10154640709516 56.55305039789528,49.28608624538174 57.41246684407815,49.10154640709516 58.34350132662803,49.19381633278681 59.274535809177905,49.00927646824857 60.13395225489512,48.917006516538095 60.993368700612336,48.917006516538095 61.85278514632955,48.73246657353593 62.92705570301041,48.917006516538095 63.786472148727626,48.824736551672686 64.64588859444484,48.824736551672686 65.64854111429304,48.64019658259349 66.50795756001025,48.824736551672686 67.51061007985845,49.10154640709516 68.44164456240833,49.19381633278681 69.44429708225653,49.28608624538174 70.30371352797374,49.28608624538174 71.16312997369096,49.47062603145605 72.02254641940817,49.65516576502705 72.88196286512539,49.931975267478265 73.74137931037694,50.02424507535761 74.7440318306908,50.20878465188434 75.5318302391097,50.670133364677895 76.39124668436125,50.670133364677895 77.39389920467511,50.76240306784166 78.25331564992666,51.223751388140954 79.25596817024052,51.13148175011156 80.11538461549208,50.76240306784166 81.04641909850761,50.94694243511185 81.8342175069265,51.40829062444391 82.69363395217806,51.77736894058762 83.55305039836094,52.238716541207395 84.34084880631417,52.792333230376244 85.0570291779004,53.34594944847049 85.77320954902098,53.899565195839386 86.41777188330889,54.545449639088474 87.13395225489512,55.283602503710426 87.77851458918303,55.92948557349155 88.2798408488743,56.667636868485715 88.85278514586389,57.40578732610447 89.42572944285348,58.23620559001574 89.7122015915811,59.066622794489376 90.07029177714139,59.80477053136565 90.35676392586902,60.7274540248909 90.35676392586902,61.650136210548226 90.5,62.66508510388667 90.5,63.587764542142395 90.5,64.41817491839174 90.35676392586902,65.34085187176242 90.21352785173804,66.35579500941094 89.92705570301041,67.09393447893672 89.7122015915811,68.0166076386231 89.42572944285348,68.93927949049976 88.99602122046053,69.76968303864123 88.4946949603036,70.50781863642624 88.13660477474332,71.43048695649486 87.56366047728807,72.26088732632343 86.8474801061675,72.72222040704219 86.13129973504692,73.27581967262086 85.48673740075901,73.82941846718313 84.69893899234012,74.29075043625198 83.8395225466229,74.75208207819378 82.8368700267747,75.02888090640772 82.19230769248679,75.67474438156933 81.6193633954972,76.50513933581533 81.04641909850761,77.42779915401479 80.83156498661265,78.44272344303317 80.90318302391097,79.27311486599501 80.83156498661265,80.19577075995039 80.90318302391097,81.21069073292892 80.90318302391097,82.13334388023941 80.68832891248167,83.05599571968196 80.97480106120929,84.07091123226564 81.6193633954972,84.62450084491866 80.90318302391097,85.36261959577678 80.616710875649,86.28526685741963 80.616710875649,87.30017733463319 80.54509283835068,88.22282184951473 80.54509283835068,89.23772930540144 80.04376657819375,89.97584282484604 79.9721485413611,90.89848354685819 79.11273209564388,90.99074754706817 78.181697613094,91.17527550866362 77.25066313007846,91.17527550866362 76.39124668436125,91.26753946952522 75.46021220181137,91.26753946952522 74.52917771879584,91.26753946952522 73.52652519894764,91.08301153435605 72.5238726795651,91.08301153435605 71.59283819654956,91.08301153435605 70.80503978813067,90.6216914676479 69.87400530511513,90.89848354685819 69.01458885986358,90.80621953360969 68.08355437684804,90.80621953360969 67.15251989429817,90.80621953360969 66.29310344858095,90.71395550708985 65.50530504016206,90.99074754706817 64.50265252031386,90.80621953360969 63.57161803729832,90.99074754706817 62.712201591581106,90.89848354685819 61.78116710903123,90.99074754706817 60.85013262601569,91.17527550866362 59.99071618076414,91.08301153435605 59.0596816977486,91.08301153435605 58.128647215198725,91.26753946952522 57.19761273218319,91.3598034173483 56.409814323764294,91.17527550866362 55.4071618039161,91.26753946952522 54.47612732136622,91.3598034173483 53.54509283835068,91.26753946952522 52.542440318502486,91.3598034173483 51.61140583595261,91.26753946952522 50.751989390235394,91.17527550866362 49.82095490721986,91.17527550866362 48.88992042466998,91.08301153435605 47.88726790482178,91.08301153435605 46.95623342227191,90.99074754706817 46.02519893925637,91.08301153435605 45.094164456706494,91.17527550866362 44.16312997369096,91.08301153435605 43.66180371399969,90.25263517868007 43.518567639403045,89.42225776379928 43.446949602570385,88.59187928936444 43.37533156527206,87.66923529742053 43.446949602570385,86.7465899977833 43.446949602570385,85.91620810964378 43.518567639403045,84.9935603251215 43.446949602570385,84.16317620046902 43.446949602570385,83.33279101620428 43.59018567670137,82.4101395693724 43.518567639403045,81.48748681438155 43.446949602570385,80.65709821670316 43.518567639403045,79.73444297659444 43.446949602570385,78.81178642855957 43.446949602570385,77.98139441694366 42.73076923098415,77.1510013458319 42.15782493399456,76.41287328215549 41.799734748434275,75.67474438156933 41.298408488277346,74.84434836736182 40.79708222858608,74.10621768777492 39.86604774557054,73.73715203400934 38.935013263020664,73.64488558802987 38.00397878000513,73.64488558802987 37.14456233475357,73.55261912854621 36.213527851738036,73.36808617110364 35.28249336918816,73.27581967262086 34.35145888617262,72.81448698410532 33.77851458918303,72.16862067073816 33.277188329491764,71.43048695649486 32.56100795790553,70.69235240516718 31.844827586319298,70.04648398584686 31.057029177900404,69.40061492583482 30.19761273264885,68.93927949049976 29.338196286931634,68.47794372821227 28.478779840748757,67.92434038157808 27.762599470093846,67.55527122231433 26.75994695024565,67.27846921549644 25.82891246676445,67.4630038998439 24.969496021047235,67.73980582813965 24.396551724057645,68.57021090673516 24.03846153896302,69.49288197373971 23.60875331563875,70.23101788538042 23.250663130544126,71.15368659776868 22.89257294498384,72.0763540022308 22.606100796256214,72.9067535479553 22.53448275849223,73.82941846718313 22.606100796256214,74.75208207819378 22.89257294498384,75.58247820992256 23.107427055947483,76.41287328215549 23.751989389769733,77.42779915401479 24.253315650392324,78.25819187186426 25.041114058811218,78.90405214211205 25.68567639309913,79.36538051441312 26.545092838350683,79.64217738067964 27.33289124723524,79.91897412913386 28.263925729319453,79.82670855923789 28.908488064073026,79.08858353015967 29.553050398360938,78.62725496198982 30.412466844078153,78.53498920897255 31.41511936392635,78.53498920897255 32.13129973458126,77.98139441694366 32.63262599520385,77.24326729489258 32.99071618076414,76.41287328215549 33.348806366324425,75.49021202529548 33.63527851505205,74.56754946056753 33.63527851505205,73.73715203400934 33.42042440362275,72.81448698410532 33.348806366324425,71.98408732074313 32.84748010663316,71.15368659776868 32.13129973458126,70.50781863642624 31.48673740075901,69.95421701663872 30.77055702963844,69.21608079079306 29.911140583921224,68.75474522484001 29.12334217550233,68.0166076386231 28.335543767083436,67.4630038998439 27.33289124723524,67.18620185396867 26.4018567642197,67.18620185396867 25.82891246676445,66.44806248880923 25.542440318502486,65.52538710524095 25.1843501329422,64.69497814180795 24.468169761821628,63.95683595130686 23.823607427533716,63.2186929237796 22.89257294498384,63.2186929237796 22.033156499266624,63.68003241397673 21.24535809038207,64.23363937088288 20.529177718795836,64.78724585677264 19.741379310376942,65.15631658572238 18.881962864659727,65.43311949493363 18.165782494004816,66.07899249228649 17.87931034481153,66.90939968993189 17.30636604782194,67.55527122231433 16.446949602104723,68.0166076386231 15.444297082256526,68.0166076386231 14.728116711601615,67.4630038998439 14.155172414146364,66.72486484865658 13.29575596889481,66.54032995511079 12.436339522711933,66.54032995511079 11.6485411147587,67.00166709109908 10.789124668575823,67.55527122231433 10.00132626015693,67.92434038157808 9.5,67.00166709109908 9.929708222858608,66.26352751679951 10.717506631277502,65.70992228650721 11.505305040162057,65.15631658572238 12.221485411282629,64.51044267276302 12.006631299853325,63.49549665726954 12.221485411282629,62.572817087813746 12.579575596842915,61.650136210548226 12.722811670973897,60.7274540248909 12.937665782868862,59.80477053136565 13.152519893832505,58.78981717757415 13.43899204256013,57.867130936763715 13.8687002658844,56.94444338802714 14.441644562408328,56.20629240735434 15.014588859397918,55.37587155291112 15.65915119368583,54.637718793179374 16.375331565272063,53.99183444143273 17.163129974156618,53.34594944847049 18.022546419408172,52.88460263272282 18.95358090242371,52.60779438633472 19.59814323671162,51.869638486998156 20.17108753370121,51.13148175011156 21.030503979418427,50.48559391882736 22.033156499266624,50.301054420589935 22.96419098135084,50.57786364847561 23.895225464832038,51.13148175011156 24.468169761821628,51.961908020079136 24.826259946916252,52.70006381475832 24.897877984680235,53.622757381002884 24.539787798654288,54.453180472308304 24.03846153896302,55.09906436613528 23.322281167376786,55.6526786222239 22.462864722125232,55.92948557349155 21.603448276408017,55.744947618979495 20.815649867989123,55.283602503710426 20.17108753370121,54.7299879337661 19.741379310376942,53.899565195839386 19.454907161649317,52.97687202214729 19.59814323671162,52.05417754006339 20.099469495937228,51.40829062444391 20.815649867989123,50.94694243511185 21.675066313240677,50.670133364677895 22.606100796256214,50.670133364677895 23.393899204209447,50.94694243511185 24.11007957579568,51.592829808651004 24.539787798654288,52.42325549013913 24.68302387325093,53.34594944847049 24.539787798654288,54.26864209934138 24.03846153896302,55.00679527781904 23.46551724197343,55.744947618979495 23.107427055947483,56.483099123171996 23.107427055947483,57.40578732610447 23.035809019114822,58.23620559001574 22.176392572931945,58.60528003406944 22.96419098135084,58.14393694646424 23.895225464832038,57.774862240825314 24.61140583548695,57.313518564624246 25.470822281669825,57.03671220171964 26.4018567642197,56.667636868485715 27.118037135805935,56.20629240735434 27.118037135805935,56.20629240735434" stroke="#4DD2FF" stroke-linecap="round" stroke-linejoin="round" stroke-width="0.5"><title>2022-08-31 3.56km</title><desc>360054338</desc></polyline></svg>