<?xml version="1.0" encoding="utf-8" ?>
<svg baseProfile="full" height="130mm" version="1.1" viewBox="0,0,100,130" width="100mm" xmlns="http://www.w3.org/2000/svg" xmlns:ev="http://www.w3.org/2001/xml-events" xmlns:xlink="http://www.w3.org/1999/xlink"><defs /><rect fill="#222222" height="130" width="100" x="0" y="0" /><text fill="#FFFFFF" style="font-size:6px; font-family:Arial; font-weight:bold;color:#0ed45e;" x="5" y="10">MY TRACKS</text><text fill="#FFFFFF" style="font-size:4px; font-family:Arial" x="5" y="121">Runner</text><text fill="#FFFFFF" style="font-size:6px; font-family:Arial" x="2" y="128">蓝皮书</text><text fill="#FFFFFF" style="font-size:4px; font-family:Arial" x="25" y="121">WORKOUTS INFO</text><text fill="#FFFFFF" style="font-size:3px; font-family:Arial" x="25" y="125">Type: Run</text><text fill="#FFFFFF" style="font-size:3px; font-family:Arial" x="22" y="129">Date: 2022-07-21</text><text fill="#FFFFFF" style="font-size:3px; font-family:Arial" x="47" y="125">Distance: 2.87 km</text><text fill="#FFFFFF" style="font-size:3px; font-family:Arial" x="47" y="129">Duration: 29:39min</text><text fill="#FFFFFF" style="font-size:3px; font-family:Arial" x="75" y="125">Pace: 10:20/km</text><text fill="#FFFFFF" style="font-size:3px; font-family:Arial" x="75" y="129">Elevation: 0m</text><polyline fill="none" points="9.5,66.37430201057578 10.39237288152799,66.72804982995149 11.216101695084944,66.46273898420623 11.833898304961622,65.8436799054034 12.45169491530396,65.22462021239335 13.069491525413468,64.60555990500143 13.687288135755807,63.98649898322765 14.23644067789428,63.367437447130214 14.785593220265582,62.74837529670913 15.472033898578957,62.217750107171014 16.227118644164875,61.863999730034266 16.91355932224542,61.33337378845317 17.462711864616722,60.53743402927648 18.08050847472623,59.91836907021934 18.49237288138829,59.21086550765904 19.1101694914978,58.680237309017684 19.72796610184014,58.06117050681496 20.41440677968785,57.53054133016849 21.16949152573943,56.999911702179816 21.993220338830724,56.557720000622794 22.81694915262051,56.29240482929163 23.70932203391567,56.20396641379921 24.601694915210828,56.20396641379921 25.494067796505988,56.20396641379921 26.455084745772183,56.469281622732524 27.210169491590932,56.64615836599842 28.033898305380717,56.999911702179816 28.85762711870484,57.44210309011396 29.75000000023283,57.707417772500776 30.50508474581875,57.88429416506551 31.328813559375703,57.97273234219756 32.2898305086419,58.06117050681496 33.18220338970423,58.14960865897592 33.86864406755194,58.41492304042913 34.692372881574556,58.41492304042913 35.51610169466585,58.50336114264792 36.339830508455634,58.50336114264792 37.16355932201259,58.59179923211923 37.91864406783134,58.680237309017684 38.81101694935933,58.768675373576116 39.77203389815986,58.85711342538707 40.3898305085022,58.3264849257539 41.213559321826324,58.23804679868044 42.03728813561611,58.06117050681496 42.79237288120203,57.795855975011364 43.75338983023539,57.618979557650164 44.50847457605414,57.17678829480428 45.332203389611095,56.999911702179816 46.087288135662675,56.999911702179816 47.04830508469604,56.73459671897581 47.872033898252994,56.64615836599842 48.69576271180995,56.469281622732524 49.51949152559973,56.027089545095805 50.34322033892386,55.8502126262174 51.16694915248081,55.496458638401236 52.0593220340088,55.319581568823196 52.81440677959472,55.14270444936119 53.638135593384504,54.96582727995701 54.46186440670863,54.7005114313215 55.35423728800379,54.612072790041566 56.31525423726998,54.435195470112376 57.0703389828559,54.169879395805765 57.894067796645686,54.25831809983356 58.71779661020264,54.08144067943795 59.541525423526764,54.08144067943795 60.50254237279296,53.99300195038086 61.39491525408812,53.99300195038086 62.28728813538328,53.99300195038086 63.11101694917306,53.99300195038086 64.07203389820643,53.90456320915837 64.96440677973442,53.90456320915837 65.78813559305854,53.90456320915837 66.74915254232474,54.169879395805765 67.57288135588169,54.169879395805765 68.32796610146761,54.25831809983356 69.1516949152574,54.25831809983356 69.97542372858152,54.3467567912885 70.86779661034234,54.52363413630519 71.76016949140467,54.612072790041566 72.65254237293266,54.87738867616281 73.54491525422782,54.87738867616281 74.29999999981374,55.14270444936119 75.19237288157456,55.319581568823196 76.08474576263689,55.40802010986954 76.90847457619384,55.58489715406904 77.7322033897508,55.938651091826614 78.55593220330775,56.29240482929163 79.44830508460291,56.38084323215298 80.27203389815986,56.73459671897581 81.02711864397861,57.08835000480758 81.85084745753556,57.44210309011396 82.67457627109252,57.795855975011364 83.4296610171441,58.3264849257539 84.18474576249719,58.85711342538707 84.87118644057773,59.29930349672213 85.4203389827162,59.91836907021934 86.17542372830212,60.27212055091513 86.72457627090625,60.89118515898008 87.3423728812486,61.59868681570515 87.75423728767782,62.39462522033136 88.30338983028196,62.92525025928626 89.0584745761007,63.27900003478862 89.33305084728636,64.07493629527744 89.67627118621022,64.78243434126489 90.0194915253669,65.57836868375307 90.22542372858152,66.46273898420623 90.5,67.25867118261522 90.22542372858152,68.23147582367528 90.29406779631972,69.02740576543147 90.29406779631972,69.82333469152218 90.36271186429076,70.70769897394348 90.36271186429076,71.50362575618783 90.15677966084331,72.29955152288312 90.0194915253669,73.27234830288216 89.81355932191946,74.06827181275003 89.4703389829956,74.86419430712704 89.0584745761007,75.66011578595499 88.64661016943865,76.5444717934588 88.16610169457272,77.25195569702191 87.68559322040528,77.87100345431827 87.13644067780115,78.49005059729097 86.51864406745881,79.19753229431808 85.90084745758213,79.81657812092453 85.14576271176338,80.3471883405582 84.52796610165387,80.78936317877378 83.70423728786409,81.23153770359932 83.01779661001638,81.67371191486018 82.33135593193583,82.11588581296382 81.57627118634991,82.5580593975028 80.75254237256013,82.64649407664547 79.99745762697421,82.29275528428843 79.17372881318443,81.939016291406 78.2813559321221,81.8505815116223 77.3889830505941,82.11588581296382 76.56525423703715,82.38119000120787 75.74152542371303,82.38119000120787 74.91779661015607,82.20432055497076 74.02542372862808,82.20432055497076 73.20169491530396,82.20432055497076 72.44661016925238,82.46962470555445 71.62288135592826,82.38119000120787 70.79915254213847,82.20432055497076 70.11271186429076,81.67371191486018 69.28898305096664,81.76214671944035 68.46525423717685,81.76214671944035 67.71016949159093,81.76214671944035 67.29830508469604,80.96623302635271 66.40593220340088,81.05466793116648 65.58220338984393,81.58527709782356 64.82711864425801,81.939016291406 64.07203389820643,81.8505815116223 63.17966101691127,81.67371191486018 62.35593220312148,81.58527709782356 61.53220338979736,81.67371191486018 61.53220338979736,81.67371191486018 60.98305084765889,81.58527709782356 60.15932203363627,81.31997257075273 59.40423728781752,81.1431028235238 58.5805084744934,81.05466793116648 57.68813559319824,81.05466793116648 56.864406779408455,80.96623302635271 55.972033898346126,80.87779810861684 55.14830508478917,81.05466793116648 54.32457627099939,81.1431028235238 53.50084745767526,81.05466793116648 52.60847457614727,81.05466793116648 51.78474576259032,81.1431028235238 50.961016948800534,81.05466793116648 50.068644067738205,81.05466793116648 49.31355932215229,80.87779810861684 48.4898305083625,80.87779810861684 47.73474576277658,80.61249328113627 46.979661016725004,80.25875333521981 46.15593220340088,80.08188328711549 45.332203389611095,79.99344824434957 44.50847457605414,79.90501318871975 43.68474576273002,79.90501318871975 42.79237288120203,79.81657812092453 41.968644067877904,79.81657812092453 41.14491525455378,79.63970794749912 40.25254237279296,79.63970794749912 39.36016949173063,79.72814304055646 38.46779660996981,79.55127284198534 37.57542372890748,79.46283772372408 36.68305084761232,79.37440259306459 35.99661016953178,78.75535632757237 35.37881355918944,78.2247447539703 34.96694915252738,77.51726195396623 34.555084745632485,76.63290732546011 33.86864406755194,76.01385833945824 33.31949152541347,75.39480873919092 32.56440677959472,74.95263007702306 31.80932203377597,74.5988869217108 31.05423728795722,74.15670769556891 30.299152542371303,73.89140000939369 29.406779661076143,73.62609221047023 28.7203389829956,74.06827181275003 27.82796610170044,74.15670769556891 27.004237288143486,74.51045110158157 26.661016948753968,75.21793731179787 26.249152542557567,75.9254227198544 25.90593220340088,76.80977835145313 25.562711864709854,77.51726195396623 25.288135593524203,78.31318004772766 25.01355932210572,79.19753229431808 24.944915254134685,80.08188328711549 24.87627118662931,80.96623302635271 25.082203389843926,81.8505815116223 25.425423729000613,82.64649407664547 25.699999999953434,83.53084018005757 26.18050847458653,84.23831616027746 26.866949152434245,84.85735698457574 27.6906779659912,85.211094322789 28.445762711577117,85.47639719501603 29.200847457628697,85.74169995414559 30.093220338923857,86.09543679084163 30.91694915271364,86.00700260029407 31.740677966270596,85.65326571348123 32.56440677959472,85.29952862602659 33.45677966112271,85.03422567888629 34.21186440670863,84.68048824038124 34.82966101705097,84.06144724035403 35.447457627393305,83.35397105966695 35.85932203382254,82.46962470555445 36.06525423726998,81.49684226815589 36.13389830500819,80.61249328113627 35.92796610156074,79.72814304055646 35.584745762636885,78.75535632757237 35.24152542394586,77.95943879830884 34.82966101705097,77.25195569702191 34.417796610156074,76.45603624929208 33.662711864570156,75.9254227198544 33.04491525422782,75.30637303186813 32.2898305086419,74.86419430712704 31.53474576259032,74.5988869217108 30.77966101677157,74.15670769556891 30.02457627095282,73.89140000939369 29.132203389890492,73.71452815592056 28.308474576100707,73.97983591724187 27.96525423740968,73.18391229450935 27.622033898485824,72.47642377746524 27.278813559096307,71.7689344577957 27.278813559096307,71.7689344577957 26.592372881481424,71.7689344577957 25.76864406769164,71.8573706667521 25.082203389843926,72.29955152288312 24.395762711763382,72.83016813622089 23.70932203391567,73.44922028155997 23.160169491544366,74.06827181275003 22.267796610249206,73.97983591724187 21.44406779645942,74.06827181275003 20.688983050873503,74.24514356598957 19.796610169811174,74.42201526899589 19.041525423759595,74.68732272950001 18.21779661043547,74.5988869217108 17.531355932122096,74.15670769556891 17.050847457489,73.53765625221422 16.638983051059768,72.83016813622089 15.883898305008188,73.18391229450935 15.060169491684064,73.18391229450935 14.305084745632485,73.62609221047023 13.687288135755807,74.15670769556891 12.932203389704227,74.5988869217108 12.932203389704227,74.5988869217108" stroke="#4DD2FF" stroke-linecap="round" stroke-linejoin="round" stroke-width="0.5"><title>2022-07-21 2.87km</title><desc>357731430</desc></polyline></svg>