<?xml version="1.0" encoding="utf-8" ?>
<svg baseProfile="full" height="130mm" version="1.1" viewBox="0,0,100,130" width="100mm" xmlns="http://www.w3.org/2000/svg" xmlns:ev="http://www.w3.org/2001/xml-events" xmlns:xlink="http://www.w3.org/1999/xlink"><defs /><rect fill="#222222" height="130" width="100" x="0" y="0" /><text fill="#FFFFFF" style="font-size:6px; font-family:Arial; font-weight:bold;color:#0ed45e;" x="5" y="10">MY TRACKS</text><text fill="#FFFFFF" style="font-size:4px; font-family:Arial" x="5" y="121">Runner</text><text fill="#FFFFFF" style="font-size:6px; font-family:Arial" x="2" y="128">蓝皮书</text><text fill="#FFFFFF" style="font-size:4px; font-family:Arial" x="25" y="121">WORKOUTS INFO</text><text fill="#FFFFFF" style="font-size:3px; font-family:Arial" x="25" y="125">Type: Run</text><text fill="#FFFFFF" style="font-size:3px; font-family:Arial" x="22" y="129">Date: 2022-06-14</text><text fill="#FFFFFF" style="font-size:3px; font-family:Arial" x="47" y="125">Distance: 7.01 km</text><text fill="#FFFFFF" style="font-size:3px; font-family:Arial" x="47" y="129">Duration: 40:21min</text><text fill="#FFFFFF" style="font-size:3px; font-family:Arial" x="75" y="125">Pace: 5:45/km</text><text fill="#FFFFFF" style="font-size:3px; font-family:Arial" x="75" y="129">Elevation: 0m</text><polyline fill="none" points="25.225523012923077,52.229362702637445 26.92008368205279,52.31669098784914 28.885774058755487,52.84066043875646 30.376987447729334,53.4519575680024 31.935983263654634,53.53928567975527 33.90167364035733,53.36462944379309 35.52845188300125,52.66600400471361 36.884100418537855,51.70539273193572 38.171966527355835,50.832108456932474 39.86652719671838,49.871494323946536 41.42552301264368,49.34752234752523 43.05230125552043,48.823549925058614 44.74686192488298,48.648892352124676 46.3736401675269,48.386905899387784 48.20376569055952,48.29957705695415 49.69497907953337,47.775603743386455 51.32175732241012,48.47423472942319 52.81297071138397,48.99820744880708 54.43974895402789,49.26019364153035 56.20209205034189,48.823549925058614 57.625523012597114,48.21224820241332 59.32008368219249,48.03759045613697 60.94686192483641,48.21224820241332 62.302510460373014,48.99820744880708 64.06485355668701,49.17286492296262 65.82719665300101,49.871494323946536 67.58953974908218,49.95882294344483 69.35188284539618,50.133480145188514 71.04644351499155,50.30813729745569 72.7410041843541,50.74477996118367 74.43556485348381,51.181422315421514 76.40125523018651,51.61806436011102 78.3669456068892,52.0547060953686 80.33263598335907,53.102644997125026 81.48493723850697,54.58722205564845 83.24728033482097,54.93653378484305 84.80627615074627,55.98446778336074 86.56861924706027,56.77041711244965 87.51757322158664,58.25498533091741 88.60209205048159,59.73954997147666 89.41548117180355,61.3987650416675 89.82217573258094,63.05797564226668 89.48326359828934,64.8918347901199 89.48326359828934,66.63836223637918 89.61882845195942,68.47221072507091 89.1443514644634,70.39337947661988 88.60209205048159,72.05256584926974 87.7887029289268,73.62442250078311 86.90753138088621,74.84697490109829 85.34853556519374,75.54557518335059 83.78953974880278,76.5934741209494 82.02719665295444,76.68079895188566 81.07824267796241,78.16531918512192 80.53598326374777,79.73716023843735 80.67154811741784,81.3089972808375 80.87489539734088,83.23012599680806 80.60376569023356,84.97660144866677 80.53598326374777,86.98504209675593 80.197071129689,88.7315069027245 80.197071129689,90.65261247038143 79.45146443508565,91.9624537404161 77.75690376572311,91.70048570929794 76.0623430965934,91.70048570929794 74.23221757332794,91.87513107579434 72.46987447701395,91.70048570929794 70.84309623437002,92.57371204684023 69.28410041867755,92.13709903293056 67.2506276150234,91.87513107579434 65.55606694566086,92.13709903293056 63.79372384934686,91.87513107579434 61.96359832631424,91.87513107579434 60.60794979101047,92.48638946859865 58.91338912141509,92.22442166029941 57.08326359838247,92.04977639287245 55.18535564886406,92.13709903293056 53.42301255255006,92.13709903293056 51.660669456236064,92.31174427538645 49.830543933203444,92.04977639287245 48.068200837122276,92.04977639287245 46.64476987463422,91.43851756694494 45.28912133909762,91.17654931271682 45.56025104620494,89.430091438815 45.76359832682647,87.59630534192547 46.509205020964146,85.76251378655434 46.64476987463422,84.10336434148485 46.30585774080828,82.35688641399611 45.62803347292356,80.7850520455977 45.08577405870892,79.30053812603 44.407949790591374,77.72869595867814 44.136820083949715,75.80755008477718 42.78117154818028,76.0695248748525 41.42552301264368,75.10895009984961 39.59539748961106,74.84697490109829 38.51087866118178,74.32302416930906 38.37531380774453,72.48919309925986 37.56192468642257,71.09198480990017 36.95188284525648,69.43279585009441 35.93514644377865,67.94825457129627 34.44393305457197,66.9876671312959 32.749372385209426,66.20173083903501 30.987029288895428,65.41579354408896 29.563598326640204,64.71718177315779 27.733472803607583,64.10589582374087 26.10669456073083,64.54252870683558 24.751046025194228,65.50311995961238 23.5309623433277,66.72568847856019 22.44644351466559,67.94825457129627 21.294142259517685,69.34546999144368 19.59958159015514,69.95675074117025 17.972803347278386,69.69477335124975 16.820502092130482,68.38488473038888 15.261506276438013,67.86092850216664 13.566945606842637,68.47221072507091 11.940167364431545,68.29755872342503 10.991213388973847,66.72568847856019 9.77112970710732,65.5904463629704 10.381171548273414,64.28054901433643 10.855648535536602,62.621341706835665 12.482426778646186,62.0100536775426 13.63472803379409,61.04945697722724 14.787029288941994,59.826877191779204 15.939330544089898,58.60429498000303 17.362761506112292,57.381710341665894 18.85397489578463,55.89714001811808 19.938493723981082,54.32523812894942 21.294142259517685,53.277301307127345 22.98870292911306,52.57867576915305 24.751046025194228,51.96737777302042 26.513389121508226,51.44340757949976 28.411297071026638,52.4040192606044 29.9702928874176,53.71394186653197 31.732635983265936,53.53928567975527 33.15606694598682,53.53928567975527 34.85062761511654,52.84066043875646 35.46066945628263,51.792721091303974 37.29079497931525,51.181422315421514 38.78200836852193,50.22080872760853 40.3410041842144,49.085536192171276 41.76443514646962,48.561563546885736 43.391213389346376,48.12491933553247 45.08577405870892,47.862932659860235 46.84811715502292,48.386905899387784 48.271548117278144,47.68827481428161 49.830543933203444,48.03759045613697 51.45732217584737,48.12491933553247 52.88075313810259,48.99820744880708 54.71087866113521,49.085536192171276 56.26987447706051,48.29957705695415 57.422175732208416,47.775603743386455 58.77782426774502,47.68827481428161 60.47238493710756,47.51361691945931 62.03138075303286,48.47423472942319 63.72594142262824,48.99820744880708 65.35271966527216,49.52217972255312 66.91171548119746,49.696837048220914 68.67405857751146,49.696837048220914 70.50418410054408,49.871494323946536 72.3343096235767,50.133480145188514 73.893305439502,50.74477996118367 75.655648535816,51.26875074929558 77.14686192478985,51.96737777302042 78.63807531399652,52.14203440526035 80.46820083702914,52.57867576915305 81.95941422600299,53.4519575680024 83.38284518849105,54.58722205564845 83.78953974880278,55.809812240710016 85.21297071129084,56.42110642325133 86.56861924706027,57.469037896138616 87.31422594143078,58.691622361249756 88.66987447696738,60.00153159542242 88.39874477009289,61.48609202669468 88.87322175735608,63.232629129313864 89.68661087867804,64.9791612799163 89.68661087867804,66.813014708634 90.22887029265985,67.86092850216664 89.61882845195942,69.34546999144368 89.3476987448521,71.00465918664122 88.66987447696738,72.75116930069635 87.31422594143078,74.32302416930906 86.0263598326128,75.6329001627746 85.14518828480504,74.41034932230832 83.65397489559837,75.4582501911791 81.89163179928437,76.0695248748525 81.1460251044482,77.72869595867814 81.01046025101095,79.38786257314496 80.12928870297037,80.34843067580368 80.33263598335907,82.00759023439605 80.40041841031052,83.75406915246276 80.40041841031052,85.6751902429969 80.12928870297037,87.50898205843987 79.9259414228145,89.25544537906535 79.85815899586305,91.17654931271682 78.90920502110384,92.13709903293056 77.41799163166434,91.6131630075397 75.79121338925324,91.43851756694494 73.96108786622062,91.35119482752634 72.3343096235767,91.43851756694494 70.50418410054408,91.78780839883257 68.67405857751146,91.6131630075397 66.97949790814891,91.70048570929794 65.35271966527216,91.6131630075397 63.658158995909616,91.6131630075397 61.89581589959562,91.52584029338323 60.20125523023307,91.70048570929794 58.64225941430777,91.52584029338323 56.9476987447124,91.78780839883257 55.18535564886406,92.04977639287245 53.55857740598731,91.6131630075397 51.931799163576216,91.35119482752634 50.23723849374801,91.43851756694494 48.40711297094822,91.26387207629159 46.91589958174154,91.6131630075397 45.56025104620494,91.6131630075397 45.35690376604907,89.60473744897172 45.76359832682647,88.2075679806876 46.03472803346813,86.46110168943414 46.91589958174154,84.88927779346704 47.45815899572335,83.23012599680806 47.11924686213024,81.57096973131411 46.30585774080828,79.91180899675237 45.62803347292356,78.6019421024248 45.01799163175747,77.29207242233679 44.679079497931525,75.6329001627746 43.865690376609564,74.23569900426082 41.76443514646962,74.41034932230832 40.20543933054432,75.37092518701684 38.51087866118178,75.37092518701684 37.56192468642257,75.80755008477718 36.27405857737176,74.49767446302576 35.39288702933118,72.92582003970165 34.44393305457197,71.26663601939799 32.81715481192805,70.48070518678287 31.25815899623558,69.86942495696712 30.03807531390339,69.17081823712215 28.14016736438498,69.52012169605587 27.055648535490036,71.00465918664122 26.31004184135236,72.66384391259635 25.767782426904887,74.32302416930906 24.954393305582926,75.89487502729753 25.632217573467642,77.29207242233679 26.174476987682283,78.95124021306401 27.597907949937508,80.08645770559087 29.22468619258143,80.87237628246658 31.32594142272137,81.22167310595978 32.749372385209426,81.92026615841314 33.83389121340588,81.3089972808375 34.98619246855378,80.08645770559087 36.40962343104184,78.86391570389969 36.612970711430535,77.11742292152485 36.54518828447908,75.4582501911791 36.070711297448725,74.14837382652331 35.46066945628263,72.48919309925986 33.96945606707595,71.70326382637722 32.61380753153935,70.65535656962311 30.987029288895428,70.56803088419838 29.834728033747524,69.17081823712215 28.546861924696714,69.95675074117025 26.784518828382716,70.04407651309157 26.37782426807098,71.79058935085777 25.56443514651619,73.18779605533928 24.954393305582926,75.19627514126478 25.157740585738793,76.85544857673813 25.767782426904887,78.3399683892494 26.784518828382716,79.91180899675237 28.614644351415336,80.69772779638879 30.105857740622014,81.39632144320058 31.52928870287724,80.61040353478165 32.952719665598124,79.38786257314496 34.511715481290594,80.17378204135457 36.00292887049727,79.91180899675237 37.22301255259663,78.95124021306401 36.884100418537855,77.03009815246332 36.884100418537855,75.10895009984961 36.138493723701686,73.44977195968386 34.91841004206799,72.22721678647213 33.35941422614269,71.09198480990017 31.52928870287724,70.13140227249824 30.03807531390339,69.25814412062755 28.411297071026638,69.78209916024935 27.530125523218885,70.65535656962311 26.716736401664093,72.22721678647213 25.903347280574962,74.06104863644578 25.29330543940887,75.80755008477718 25.56443514651619,77.37939715437824 26.37782426807098,79.0385647098301 27.66569037665613,80.08645770559087 28.072384937433526,80.7850520455977 29.156903765629977,82.26956238766434 30.851464435225353,81.74561796954367 32.749372385209426,82.0949142978061 34.308368201134726,80.7850520455977 35.596234309719875,79.5625114304712 35.73179916338995,77.90334528632229 36.00292887049727,76.15684978029458" stroke="#4DD2FF" stroke-linecap="round" stroke-linejoin="round" stroke-width="0.5"><title>2022-06-14 7.01km</title><desc>355583498</desc></polyline></svg>