<?xml version="1.0" encoding="utf-8" ?>
<svg baseProfile="full" height="130mm" version="1.1" viewBox="0,0,100,130" width="100mm" xmlns="http://www.w3.org/2000/svg" xmlns:ev="http://www.w3.org/2001/xml-events" xmlns:xlink="http://www.w3.org/1999/xlink"><defs /><rect fill="#222222" height="130" width="100" x="0" y="0" /><text fill="#FFFFFF" style="font-size:6px; font-family:Arial; font-weight:bold;color:#0ed45e;" x="5" y="10">MY TRACKS</text><text fill="#FFFFFF" style="font-size:4px; font-family:Arial" x="5" y="121">Runner</text><text fill="#FFFFFF" style="font-size:6px; font-family:Arial" x="2" y="128">蓝皮书</text><text fill="#FFFFFF" style="font-size:4px; font-family:Arial" x="25" y="121">WORKOUTS INFO</text><text fill="#FFFFFF" style="font-size:3px; font-family:Arial" x="25" y="125">Type: Run</text><text fill="#FFFFFF" style="font-size:3px; font-family:Arial" x="22" y="129">Date: 2022-05-03</text><text fill="#FFFFFF" style="font-size:3px; font-family:Arial" x="47" y="125">Distance: 6.79 km</text><text fill="#FFFFFF" style="font-size:3px; font-family:Arial" x="47" y="129">Duration: 48:05min</text><text fill="#FFFFFF" style="font-size:3px; font-family:Arial" x="75" y="125">Pace: 7:05/km</text><text fill="#FFFFFF" style="font-size:3px; font-family:Arial" x="75" y="129">Elevation: 0m</text><polyline fill="none" points="28.35207100585103,53.276841362705454 30.18934911256656,52.659346612985246 32.346153846010566,52.247683154186234 34.343195266555995,51.733103502949234 36.42011834308505,51.01269137818599 38.25739644980058,50.29227853839984 40.3343195267953,49.880613737914246 42.57100591715425,49.57186498376541 44.56804733723402,49.26311609870754 46.48520710039884,48.645617934293114 48.642011833842844,48.33686865505297 50.79881656821817,47.82228623132687 52.79585798783228,47.51353660202585 54.71301775146276,47.41062002972467 56.710059171542525,47.41062002972467 58.707100592087954,47.51353660202585 60.94378698198125,47.616453159658704 62.940828402061015,47.616453159658704 65.0177514795214,47.719369702914264 67.1745562129654,48.02811924461275 69.09171597659588,48.23395219951635 71.32840236695483,48.74853433133103 73.48520710039884,49.36603240808472 75.6420118343085,49.67478124960326 77.55917159793898,50.086446167202666 79.4763313611038,49.57186498376541 81.07396449707448,50.80685921118129 82.9911242602393,51.83601946249837 84.66863905312493,52.865178254491184 86.26627218956128,54.40891370706959 87.46449704142287,55.95264587632846 88.74260355019942,57.70220503304154 89.62130177533254,59.657589688838925 90.26035502972081,61.715883635915816 90.34023668663576,63.77417174709262 90.26035502972081,65.72954004723579 90.02071005897596,67.7878167781164 89.22189349122345,69.84608767315513 88.50295857992023,71.80143961764406 87.22485207114369,73.44804769649636 85.78698224853724,74.78591401054291 84.26923076948151,76.12377785885474 82.75147929042578,77.25581457390217 80.8343195267953,78.38784952374408 79.55621301801875,79.82861872500507 79.07692307699472,81.98976716544712 79.07692307699472,84.04799779388122 79.15680473390967,86.0033114856924 79.23668639035895,88.16444154403871 78.99704142007977,90.22265466616955 79.07692307699472,92.38377216423396 79.07692307699472,94.4419733240502 77.23964497074485,94.85361285554245 75.08284023636952,94.75070299464278 72.92603550292552,94.85361285554245 70.76923076901585,94.95652270194842 68.77218934893608,94.85361285554245 66.69526627240703,94.85361285554245 64.69822485232726,94.85361285554245 63.5,93.82451358874096 63.57988165691495,91.86922096234048 63.26035502925515,89.70810193271609 63.100591715890914,87.64988735195948 62.78106508869678,85.5916669354774 63.100591715890914,83.32761773752281 63.1804733723402,81.16647328005638 62.221893491223454,79.72570673382143 60.06508875731379,79.82861872500507 57.82840236695483,80.03444266319275 55.831360946875066,79.93153070140397 53.8343195267953,80.03444266319275 52.236686390824616,80.96064966282574 52.07692307699472,82.91597167012515 52.15680473390967,84.97419967269525 52.07692307699472,87.13533279497642 52.15680473390967,89.2964594832738 52.15680473390967,91.14884866739158 52.15680473390967,93.30996340804268 51.357988165691495,94.75070299464278 49.360946745146066,94.75070299464278 47.20414201170206,94.95652270194842 45.127218935173005,95.05943253391888 43.05029585817829,95.05943253391888 40.97337278118357,95.05943253391888 38.89644970372319,95.05943253391888 37.21893491130322,94.4419733240502 37.21893491130322,92.28086195298238 37.21893491130322,90.22265466616955 37.29881656775251,88.16444154403871 37.29881656775251,86.0033114856924 37.29881656775251,84.04799779388122 37.37869822466746,81.98976716544712 36.899408284109086,79.93153070140397 35.70118343178183,78.38784952374408 34.50295857992023,76.63834022072842 32.90532544394955,75.40338993922342 31.307692307513207,74.58008858415997 30.828402366954833,72.52183111174963 30.349112425930798,70.56648110755486 29.31065088743344,68.71403940301389 28.032544378656894,67.27324814232998 26.6745562129654,65.72954004723579 25.076923076994717,64.59748535748804 23.07988165691495,63.77417174709262 20.923076923005283,63.36251459206687 18.846153846010566,63.15668592636939 16.849112425930798,62.6421140084276 14.772189349401742,61.92171270959079 13.174556212965399,60.68673739186488 11.25739644980058,61.40713991597295 10.937869822606444,59.55467483843677 10.778106508776546,57.496374763024505 9.819526627194136,55.64389970502816 9.819526627194136,53.68850423779804 10.059171597473323,51.630187529022805 11.417159763164818,49.880613737914246 11.497041420079768,47.82228623132687 11.656804733909667,45.96978648548247 13.813609467353672,46.175620024092495 15.81065088743344,46.484370222722646 17.967455621343106,46.07270326203434 19.884615384507924,45.66103606834076 21.881656804587692,45.5581192332902 23.95857988158241,45.146451747918036 25.875739644747227,44.323116076004226 27.233727810438722,45.5581192332902 28.43195266276598,47.41062002972467 29.789940827991813,49.16019977448741 30.588757396675646,51.01269137818599 32.5059171593748,51.01269137818599 34.50295857992023,50.80685921118129 36.42011834308505,50.39519470202504 38.41715976316482,50.18936236004811 40.41420118371025,49.777697501005605 42.4911242602393,49.16019977448741 44.40828402340412,48.74853433133103 46.3254437870346,48.13103572919499 48.40236686402932,47.82228623132687 50.55917159747332,47.82228623132687 52.63609467446804,47.719369702914264 54.71301775146276,47.616453159658704 56.94970414182171,47.616453159658704 59.02662721881643,47.719369702914264 61.0236686388962,47.616453159658704 63.1804733723402,47.719369702914264 65.09763313597068,47.925202745362185 67.09467455651611,48.13103572919499 69.25147928996012,48.43978509603767 71.16863905312493,48.85145071404986 73.24556213011965,49.16019977448741 75.24260355066508,49.777697501005605 77.3195266276598,49.98352995986352 79.31656804773957,49.67478124960326 81.07396449707448,50.49811085133115 82.67159763304517,51.733103502949234 84.5088757397607,52.76226244115969 86.02662721881643,53.99725124082761 87.38461538450792,55.33515340246959 88.42307692347094,57.08471404731972 89.3017751481384,58.937185428629164 89.78106508916244,60.892566757742316 90.18047337280586,62.53919958084589 90.42011834308505,64.70039949315833 90.18047337280586,66.86159297142876 89.62130177533254,68.71403940301389 88.90236686402932,70.9781341777416 87.78402366861701,72.83057010459015 86.58579881628975,74.37426309980219 85.06804733723402,75.91795281181112 83.23076923051849,77.04998984799022 81.55325443809852,78.18202511884738 80.11538461549208,79.21114656043937 79.23668639035895,80.96064966282574 79.15680473390967,83.22470624261769 79.23668639035895,85.38584457297111 79.23668639035895,87.44406557275215 79.23668639035895,89.60519134247443 79.31656804773957,91.66340037976624 79.23668639035895,93.61869356024545 77.87869822466746,94.95652270194842 75.72189349122345,94.85361285554245 73.48520710039884,95.05943253391888 71.40828402340412,95.16234235139564 69.33136094687507,95.05943253391888 67.25443786988035,95.16234235139564 65.25739644933492,95.16234235139564 63.34023668663576,95.05943253391888 63.42011834308505,93.10414323396981 63.42011834308505,90.84011746500619 63.42011834308505,88.88481680082623 63.100591715890914,86.72368888661731 63.26035502925515,84.87128841120284 63.73964497027919,82.71014854917303 63.73964497027919,80.6519141275785 61.90236686356366,80.03444266319275 59.82544378656894,80.1373546103132 57.82840236695483,80.2402665426489 55.751479289960116,80.1373546103132 53.6745562129654,80.1373546103132 52.07692307699472,81.26938506658189 52.39644970418885,83.12179473292781 52.316568047273904,85.07711091969395 52.15680473390967,86.92951086984249 52.07692307699472,89.09063817118295 52.316568047273904,91.25175903888885 52.39644970418885,93.41287347342586 51.357988165691495,94.95652270194842 49.20118343178183,95.05943253391888 47.20414201170206,95.3681619418785 45.44674556190148,95.3681619418785 43.36982248490676,95.3681619418785 41.372781065292656,95.26525215391302 39.37573964474723,95.16234235139564 37.45857988158241,94.54488322878024 37.29881656775251,92.38377216423396 37.37869822466746,90.42847565747797 37.29881656775251,88.16444154403871 37.21893491130322,86.10622258676449 37.13905325438827,84.15090917207999 36.979289941024035,82.19559049070813 36.899408284109086,80.1373546103132 36.3402366861701,78.18202511884738 34.66272189375013,76.84416506352136 33.224852070678025,75.30047732102685 31.467455621343106,74.58008858415997 31.06804733723402,72.41891808493529 30.349112425930798,70.56648110755486 29.39053254434839,68.81695295497775 28.032544378656894,67.27324814232998 26.434911242686212,66.03828192874789 25.076923076994717,64.49457120720763 23.239644970279187,63.671257480280474 21.08284023683518,63.05377157207113 19.085798816755414,62.95085720316274 17.008875739760697,62.53919958084589 15.171597633045167,61.510054504091386 13.174556212965399,60.68673739186488 11.25739644980058,61.715883635915816 11.017751479055732,59.966334152792115 10.937869822606444,57.9080352447927 9.979289940558374,56.05556123761926 9.819526627194136,53.79141991981305 9.979289940558374,51.83601946249837 11.25739644980058,49.880613737914246 11.736686390358955,47.719369702914264 12.615384615026414,45.66103606834076 14.452662722207606,46.175620024092495 16.52958579873666,46.381453504320234 18.60650887573138,45.86686969449511 20.443786981981248,45.86686969449511 22.680473373271525,45.66103606834076 24.67751479288563,45.249368641292676 26.6745562129654,44.220199051254895 27.55325443763286,46.07270326203434 28.751479289960116,47.616453159658704 30.588757396675646,48.74853433133103 30.428994082845747,50.70394310593838 31.387573964428157,52.14476725325221 33.384615384507924,51.11560743965674 35.221893491223454,50.90977530210512 37.059171597938985,51.11560743965674 39.05621301755309,50.39519470202504 41.05325443809852,49.67478124960326 42.97041420079768,49.16019977448741 45.127218935173005,48.954367082042154 47.12426035478711,48.33686865505297 49.04142011841759,48.33686865505297 50.95857988158241,47.925202745362185 53.035502958577126,47.719369702914264 54.872781064826995,47.719369702914264 57.02958579920232,47.41062002972467 59.02662721881643,47.51353660202585 61.10355029627681,47.82228623132687 63.020710058975965,47.51353660202585 64.93786982260644,47.719369702914264 66.85502958577126,48.13103572919499 69.09171597659588,48.33686865505297 71.16863905312493,48.85145071404986 73.16568047367036,49.26311609870754 75.24260355066508,49.57186498376541 77.15976331336424,49.98352995986352 79.31656804773957,49.57186498376541 81.15384615398943,50.49811085133115 83.31065088743344,51.42435553704854 84.58875739667565,52.865178254491184 86.18639053264633,54.20308250305243 87.54437869833782,55.84973050048575 88.42307692347094,57.80512014607666 89.46153846150264,59.8634193460457 90.02071005897596,61.715883635915816 90.26035502972081,63.671257480280474 90.34023668663576,65.83245402225293 89.94082840252668,67.89073046133853 89.22189349122345,69.84608767315513 88.34319526609033,71.90435273206094 87.30473372759297,73.65387344377814 85.86686390545219,75.09465204062872 84.26923076948151,76.22669036028674 82.43195266276598,77.3587269152631 81.63313609454781,77.8732884018682" stroke="#4DD2FF" stroke-linecap="round" stroke-linejoin="round" stroke-width="0.5"><title>2022-05-03 6.79km</title><desc>353000275</desc></polyline></svg>