<?xml version="1.0" encoding="utf-8" ?>
<svg baseProfile="full" height="130mm" version="1.1" viewBox="0,0,100,130" width="100mm" xmlns="http://www.w3.org/2000/svg" xmlns:ev="http://www.w3.org/2001/xml-events" xmlns:xlink="http://www.w3.org/1999/xlink"><defs /><rect fill="#222222" height="130" width="100" x="0" y="0" /><text fill="#FFFFFF" style="font-size:6px; font-family:Arial; font-weight:bold;color:#0ed45e;" x="5" y="10">MY TRACKS</text><text fill="#FFFFFF" style="font-size:4px; font-family:Arial" x="5" y="121">Runner</text><text fill="#FFFFFF" style="font-size:6px; font-family:Arial" x="2" y="128">蓝皮书</text><text fill="#FFFFFF" style="font-size:4px; font-family:Arial" x="25" y="121">WORKOUTS INFO</text><text fill="#FFFFFF" style="font-size:3px; font-family:Arial" x="25" y="125">Type: Run</text><text fill="#FFFFFF" style="font-size:3px; font-family:Arial" x="22" y="129">Date: 2022-04-28</text><text fill="#FFFFFF" style="font-size:3px; font-family:Arial" x="47" y="125">Distance: 3.68 km</text><text fill="#FFFFFF" style="font-size:3px; font-family:Arial" x="47" y="129">Duration: 24:01min</text><text fill="#FFFFFF" style="font-size:3px; font-family:Arial" x="75" y="125">Pace: 6:31/km</text><text fill="#FFFFFF" style="font-size:3px; font-family:Arial" x="75" y="129">Elevation: 0m</text><polyline fill="none" points="25.08389261760749,49.92286622809479 25.808724832255393,49.61157940910198 26.533557047136128,49.06682705075946 27.016778523335233,48.522074152191635 27.922818791819736,48.36643036722671 28.466442952863872,47.7438547872589 29.191275167744607,47.58821078186156 29.674496644409373,47.121278500999324 30.33892617467791,46.73216796340421 31.003355704713613,46.96563431894174 30.942953020101413,47.821676773251966 31.12416107370518,48.67771789251128 31.607382550369948,49.2224706368288 31.48657718114555,50.07850957137998 31.728187919594347,50.77890407043742 31.728187919594347,51.634940577321686 31.728187919594347,52.41315442539053 31.788590603973716,53.26918838371057 31.848993288585916,54.04739991441602 31.848993288585916,54.825610342028085 31.607382550369948,55.52599878347246 31.969798657577485,56.38202788698254 32.090604026801884,57.16023500444135 32.45302013424225,57.938441018457524 33.177852348890156,57.938441018457524 33.96308724838309,58.17190260748612 34.567114093806595,58.483184572076425 35.47315436252393,58.71664592938032 36.2583892615512,59.02792758488795 37.043624161044136,59.261388710467145 37.76845637569204,59.417029405827634 38.493288590572774,59.572670057066716 39.27852349006571,59.806130950921215 40.12416107393801,59.65049036598066 40.969798657577485,59.65049036598066 41.81543624144979,59.49484973709332 42.54026845633052,59.72831066395156 43.32550335559063,60.03959174576448 44.17114093946293,60.1952322202269 45.016778523800895,60.27305244113086 45.8624161076732,60.27305244113086 46.64765100670047,60.03959174576448 47.312080536736175,59.883951226773206 48.15771812084131,59.72831066395156 48.822147651109844,59.33920906361891 49.54697986575775,59.183568346255925 50.33221476501785,58.95010718755657 51.177852349122986,58.79446635971544 51.96308724815026,58.5610050354735 52.687919463030994,58.405364097387064 53.5335570469033,58.01626155927079 54.31879194662906,57.938441018457524 55.104026845656335,57.6271587452502 56.01006711414084,57.54933814937249 56.73489932902157,57.6271587452502 57.45973154366948,57.47151754255174 58.36577181215398,57.39369692467153 59.090604027034715,57.39369692467153 59.93624161090702,57.23805565544171 60.66107382555492,57.16023500444135 61.506711409427226,57.004593669145834 62.23154362430796,56.926772985141724 62.956375838723034,56.84895228978712 63.68120805360377,56.84895228978712 64.52684563747607,56.84895228978712 65.1912751677446,56.693310866248794 66.03691275161691,56.61549013789045 66.94295302033424,56.77113158348948 67.60738255036995,56.77113158348948 68.45302013424225,56.84895228978712 69.23825503350236,56.926772985141724 69.96308724838309,56.926772985141724 70.687919463031,56.926772985141724 71.47315436252393,57.08241434226511 72.37919463100843,57.16023500444135 73.04362416127697,57.16023500444135 73.88926174514927,57.47151754255174 74.67449664440937,57.54933814937249 75.45973154366948,57.6271587452502 76.12416107393801,57.86062046675943 76.84899328881875,57.86062046675943 77.63422818784602,58.17190260748612 78.41946308757178,58.24972311523743 79.08389261760749,58.483184572076425 79.92953020147979,58.63882548781112 80.6543624161277,58.95010718755657 81.4395973153878,59.33920906361891 82.22483221488073,59.65049036598066 82.94966442952864,59.961771491740365 83.67449664440937,60.35087265074253 84.33892617444508,60.739973533840384 85.00335570448078,61.051254042075016 85.72818791959435,61.51817447290523 86.33221476525068,62.06291447352851 86.99664429551922,62.529834044049494 87.54026845633052,62.99675321712857 88.08389261760749,63.38585222460097 88.5671140938066,64.08622974331956 88.8691275168676,64.78660636831773 89.29194630868733,65.33134312537732 89.65436241589487,66.10953755484661 89.89597315434366,66.96555015305057 90.13758389255963,67.6659231040394 90.25838926178403,68.44411422370467 90.3791946307756,69.22230424027657 90.5,70.07831198419444 90.5,70.93431839317782 90.43959731562063,71.71250487916404 90.31879194662906,72.5685087396414 90.01677852333523,73.42451126530068 89.7147651007399,74.12487597513245 89.47315436252393,74.82523979147663 89.05033557047136,75.52560271410039 88.6275167784188,76.14814678410767 88.02348993276246,76.77069014799781 87.47986577195115,77.31541501224274 86.93624161067419,77.86013933585491 86.39261744963005,78.48268075822853 85.78859060420655,79.02740392362466 85.12416107393801,79.4164915678557 84.52013422804885,79.72776148474077 83.85570469801314,80.19466602918692 83.2516778523568,80.6615701764822 82.7080536915455,81.20629117963836 82.5268456377089,81.9844631034066 82.58724832208827,82.76263392431429 82.3456375838723,83.61862055299571 82.4060402684845,84.39678905718029 82.2852348992601,85.4084064635681 82.4664429530967,86.10875588346971 82.3456375838723,86.80910440982552 82.3456375838723,87.58726839110022 82.16442953026854,88.36543126945617 82.04362416104414,89.1435930445441 81.98322147666477,90.07738571870141 81.92281879205257,90.777729181631 81.92281879205257,91.55588753725169 81.80201342282817,92.41186045430368 81.74161073821597,93.19001649343409 80.95637583895586,93.26783203659579 80.17114093946293,93.19001649343409 79.32550335559063,93.11220093927113 78.60067114094272,93.11220093927113 77.75503355707042,93.11220093927113 77.03020134218968,93.11220093927113 76.24496644316241,92.8787542101345 75.45973154366948,92.7231230022735 74.73489932878874,92.7231230022735 73.88926174514927,92.80093861161731 73.10402684565634,92.80093861161731 72.43959731562063,92.7231230022735 71.7147651007399,92.80093861161731 70.92953020124696,92.7231230022735 70.8087248322554,91.94496630126378 70.92953020124696,91.24462432734435 70.92953020124696,90.46646553068422 71.05033557047136,89.76612167048734 71.11073825508356,88.98796077788575 71.05033557047136,88.28761503117858 71.17114093969576,87.50945204263553 71.05033557047136,86.7312879509409 71.11073825508356,85.87530617619632 71.17114093969576,85.17495645821327 71.17114093969576,84.31897225655848 70.92953020124696,83.54080364183756 70.98993288609199,82.68481689185137 70.14429530198686,82.45136572810588 69.41946308733895,82.45136572810588 68.57382550346665,82.217914465582 67.78859060397372,82.14009735593572 66.94295302033424,82.06228023511358 66.21812080568634,82.217914465582 65.49328859057277,82.14009735593572 64.76845637592487,82.217914465582 64.10402684565634,82.217914465582 63.31879194639623,82.14009735593572 62.53355704713613,81.9844631034066 62.23154362430796,82.76263392431429 62.23154362430796,83.54080364183756 62.23154362430796,84.31897225655848 62.17114093969576,85.17495645821327 62.05033557070419,85.95312275621109 62.11073825485073,86.8869208576507 62.23154362430796,87.6650847287383 62.29194630868733,88.44324749649968 62.41275167791173,89.22140916140052 62.35234899329953,89.92175371659687 62.35234899329953,90.85554506682092 62.23154362430796,91.71151907602325 62.05033557070419,92.4896761077107 61.80872483225539,93.19001649343409 60.96308724838309,93.03438537358306 60.057046979665756,93.03438537358306 59.27181208063848,92.8787542101345 58.36577181215398,92.8787542101345 57.52013422828168,92.7231230022735 56.79530201340094,92.8787542101345 56.07046979852021,92.7231230022735 55.3456375838723,92.80093861161731 54.6812080538366,92.64530738192843 53.895973154343665,92.8787542101345 53.17114093946293,92.8787542101345 52.446308724815026,92.80093861161731 51.66107382555492,92.7231230022735 51.177852349122986,92.10059772973182 51.54026845656335,91.32244014652679 51.298657718114555,90.69991328549804 51.66107382555492,90.07738571870141 51.66107382555492,89.22140916140052 51.359060402726755,88.44324749649968 51.238255033502355,87.6650847287383 51.238255033502355,86.80910440982552 51.177852349122986,85.95312275621109 51.117449664277956,85.0193230662262 51.05704698013142,84.16333862167085 50.75503355683759,83.38516978663392 50.81543624168262,82.68481689185137 50.57382550346665,81.90664596064016 50.21140939602628,81.20629117963836 49.848993288353086,80.58375284605427 49.42617449676618,79.96121380652767 48.942953020334244,79.4164915678557 48.27852348983288,78.94958636176307 47.372483221581206,78.7939512047451 46.4664429530967,78.56049838650506 46.5268456377089,77.78232160862535 46.4664429530967,77.08196156518534 46.224832214647904,76.30378269118955 45.92281879205257,75.52560271410039 45.50000000023283,74.82523979147663 44.895973154343665,74.28051245608367 44.53355704713613,73.42451126530068 43.86912751663476,72.87978253985057 43.44630872504786,72.3350532738259 42.84228187915869,71.86814204405528 42.298657718114555,71.24559312005294 41.69463087245822,70.77868096349994 41.090604026801884,70.38958719646325 40.36577181215398,70.07831198419444 39.701342282118276,69.92267431184882 38.79530201363377,69.68921772076283 37.88926174491644,69.61139883473516 37.043624161044136,69.7670365953818 36.3187919461634,69.61139883473516 35.714765100739896,68.98884735105094 35.5939597315155,68.2106570036849 34.98993288609199,67.74374226562213 34.20469798636623,67.6659231040394 33.419463087338954,67.51028474769555 32.69463087245822,67.6659231040394 32.030201342189685,67.97719968424644 31.36577181215398,68.2884760882589 30.701342282118276,67.8993805560167 31.24496644292958,67.19900790270185 30.520134228281677,67.19900790270185 29.734899329021573,67.12118866376113 29.070469798520207,67.04336941393558 28.345637583872303,66.80991159833502 27.802013422828168,66.26517630839953 27.197986577171832,65.72044047800591 26.593959731748328,65.17570410715416 26.050335570704192,64.5531475925236 25.506711409427226,64.08622974331956 24.90268456353806,63.61931149690645 24.238255033502355,63.38585222460097 23.69463087222539,62.76329368032748 23.936241610674188,61.98509450646816 24.057046979898587,61.20689422969008 23.815436241449788,60.35087265074253 23.63422818807885,59.572670057066716 23.271812080638483,58.8722867789329 22.788590604206547,58.09408208890818 22.24496644292958,57.39369692467153 21.459731543669477,57.47151754255174 20.795302013400942,57.938441018457524 20.01006711414084,57.938441018457524 19.406040268251672,58.405364097387064 18.802013422828168,59.02792758488795 18.077181207947433,59.10574797092704 17.29194630892016,59.33920906361891 16.506711409427226,59.72831066395156 15.721476510167122,60.03959174576448 15.298657718114555,60.817793677560985 14.513422818854451,60.8956138099893 13.788590603973716,60.662153379409574 13.36577181215398,60.03959174576448 12.942953020101413,59.33920906361891 12.459731543436646,58.71664592938032 12.399328859057277,57.86062046675943 11.795302013633773,57.47151754255174 11.251677852589637,57.004593669145834 10.76845637592487,56.30420711450279 10.285234899260104,55.68164053768851 9.922818792052567,54.98125229513971 9.5,54.436505266290624 9.922818792052567,53.81393657118315 10.70805369131267,53.658294287044555 11.493288590572774,53.42483077815268 12.09731543646194,52.88008220435586 12.822147650877014,53.26918838371057 13.546979865524918,53.73611543467268 14.271812080405653,53.81393657118315 15.117449664277956,53.58047312818235 15.84228187915869,53.191367169783916 16.506711409427226,52.646618364495225 17.23154362407513,52.49097574938787 18.016778523568064,52.568797062383965 18.68120805360377,52.41315442539053 18.922818791819736,53.191367169783916 18.862416107440367,52.49097574938787 18.5,51.86840484768618 19.043624161044136,51.32365472917445 19.76845637569204,51.24583323969273 20.372483221581206,51.7905834352714 21.03691275184974,52.25751174404286 21.701342281885445,51.86840484768618 22.30536912754178,51.47929767536698 22.969798657810315,51.09019022731809 23.57382550323382,50.77890407043742 24.298657718114555,50.31197450379841 24.96308724838309,49.92286622809479 24.96308724838309,49.92286622809479" stroke="#4DD2FF" stroke-linecap="round" stroke-linejoin="round" stroke-width="0.5"><title>2022-04-28 3.68km</title><desc>352716312</desc></polyline></svg>