<?xml version="1.0" encoding="utf-8" ?>
<svg baseProfile="full" height="130mm" version="1.1" viewBox="0,0,100,130" width="100mm" xmlns="http://www.w3.org/2000/svg" xmlns:ev="http://www.w3.org/2001/xml-events" xmlns:xlink="http://www.w3.org/1999/xlink"><defs /><rect fill="#222222" height="130" width="100" x="0" y="0" /><text fill="#FFFFFF" style="font-size:6px; font-family:Arial; font-weight:bold;color:#0ed45e;" x="5" y="10">MY TRACKS</text><text fill="#FFFFFF" style="font-size:4px; font-family:Arial" x="5" y="121">Runner</text><text fill="#FFFFFF" style="font-size:6px; font-family:Arial" x="2" y="128">蓝皮书</text><text fill="#FFFFFF" style="font-size:4px; font-family:Arial" x="25" y="121">WORKOUTS INFO</text><text fill="#FFFFFF" style="font-size:3px; font-family:Arial" x="25" y="125">Type: Run</text><text fill="#FFFFFF" style="font-size:3px; font-family:Arial" x="22" y="129">Date: 2022-10-19</text><text fill="#FFFFFF" style="font-size:3px; font-family:Arial" x="47" y="125">Distance: 5.00 km</text><text fill="#FFFFFF" style="font-size:3px; font-family:Arial" x="47" y="129">Duration: 35:29min</text><text fill="#FFFFFF" style="font-size:3px; font-family:Arial" x="75" y="125">Pace: 7:05/km</text><text fill="#FFFFFF" style="font-size:3px; font-family:Arial" x="75" y="129">Elevation: 0m</text><polyline fill="none" points="12.454198473598808,59.06917946052272 13.828244274714962,57.918520245468244 15.270992366597056,56.856371395348106 16.919847328448668,55.61719545320375 17.950381679460406,54.37801705149468 19.187022900674492,53.13883619016269 20.492366412188858,51.8996528693242 22.1412213742733,51.01452041970333 23.85877862619236,50.306413556449115 25.57633587787859,50.660467088688165 27.3625954198651,51.10303372098133 29.011450381716713,51.81113968102727 30.797709923936054,52.25370549748186 32.65267175575718,51.98816604516469 34.301526717841625,51.45708680135431 35.88167938939296,50.57195372437127 37.53053435124457,50.306413556449115 39.11068702302873,51.10303372098133 40.89694656501524,50.92600710579427 42.61450381716713,51.63411326613277 44.194656488485634,52.43073173664743 46.049618321005255,51.98816604516469 47.767175572691485,51.63411326613277 49.4160305345431,51.191547010152135 51.20229007629678,50.92600710579427 52.98854961828329,50.57195372437127 54.7748091602698,50.217900142248254 56.42366412235424,49.8638463592506 58.1412213742733,49.77533288218547 59.99618320656009,49.68681939254748 61.78244274831377,49.50979237572756 63.56870229030028,49.68681939254748 65.35496183205396,49.68681939254748 67.0038167941384,49.77533288218547 68.79007633612491,49.77533288218547 70.57633587787859,50.306413556449115 72.29389313003048,50.306413556449115 74.01145038171671,50.660467088688165 75.72900763363577,51.10303372098133 77.17175572551787,51.98816604516469 78.8893129772041,52.43073173664743 80.67557251919061,52.519244837225415 82.32442748080939,52.78478406369686 83.90458015282638,53.66991400351981 85.48473282437772,54.64355548733147 86.92748091602698,55.882733362261206 87.95801526750438,57.1219087773934 88.91984732844867,58.626618474780116 89.74427480949089,60.219836554839276 90.3625954198651,61.90156233945163 90.5,63.58328359387815 90.5,65.353511599591 90.01908396952786,67.12373458588263 89.40076335868798,68.98246331990231 88.50763358781114,70.66416550119175 87.3396946566645,72.25735286308918 86.37786259572022,73.58500589249888 85.07251908420585,74.64712628308916 83.49236641218886,75.355205539905 82.04961832077242,76.24030348146334 81.2251908397302,77.92198611347703 81.15648854966275,79.69217346492223 81.01908396952786,81.46235579694621 80.81297709932551,83.23253311013104 80.81297709932551,85.00270540488418 80.81297709932551,86.77287268056534 80.81297709932551,88.54303493781481 80.40076335868798,90.22468443383696 78.82061068713665,90.49020762427244 77.03435114515014,90.31319217645796 75.17938931309618,90.40169990679715 73.39312977110967,90.40169990679715 71.67557251919061,90.22468443383696 69.82061068713665,90.31319217645796 68.10305343521759,89.95916113012936 67.89694656501524,88.3660189381335 67.96564885508269,86.59585617913399 68.03435114491731,84.73717988061253 67.75954198488034,83.14402436371893 67.89694656501524,81.19682876719162 68.03435114491731,79.33813639607979 67.14122137404047,78.36453342204913 65.28625954198651,78.36453342204913 63.56870229030028,78.36453342204913 61.78244274831377,78.36453342204913 60.20229007652961,78.36453342204913 58.27862595417537,78.45304284594022 58.20992366434075,80.2232286913204 58.1412213742733,81.99340951791964 57.93511450383812,83.85209398443112 57.660305343335494,85.62226452230243 57.79770992370322,87.5694463175023 57.52290076343343,89.33960631623631 56.698473282391205,90.31319217645796 54.980916030704975,90.22468443383696 53.194656488718465,90.22468443383696 51.477099236799404,90.1361766786431 49.82824427494779,90.04766891093459 48.04198473296128,90.22468443383696 46.049618321005255,90.31319217645796 45.156488549662754,88.63154291902902 45.29389312979765,86.86138091277098 45.43129771016538,85.00270540488418 45.63740458036773,83.3210418439703 45.50000000046566,81.37384679942625 45.3625954198651,79.60366421641083 45.087786259828135,77.83347661443986 44.263358778785914,76.06328399362974 43.57633587787859,74.55861631972948 41.85877862595953,73.76202608307358 40.4160305345431,73.14245519635733 40.07251908397302,71.46075969032245 39.52290076343343,69.51352765579941 38.49236641218886,67.92033329221886 37.2557251912076,66.50415711151436 35.81297709932551,65.26500031840988 34.370229007676244,64.55690961802611 32.99618320609443,63.76030662015546 31.416030534543097,63.1407258080435 29.767175572691485,62.78667935379781 28.118320610607043,62.698167708702385 26.263358778553084,63.229237390100025 24.68320610700175,63.93732959654881 23.446564885554835,65.0879777186201 22.20992366410792,66.50415711151436 20.835877862758934,67.743311445578 19.255725190974772,68.3628876900766 17.60687022912316,67.83182237512665 16.232824427541345,66.94671251333784 14.583969465922564,67.30075660848524 13.14122137404047,68.27437683555763 11.904580152826384,67.12373458588263 11.148854962084442,65.53053412400186 10.255725190741941,64.0258410659153 9.5,62.60965605103411 9.980916030704975,60.92793217394501 11.629770992789418,60.48537250596564 12.866412213770673,59.157691619882826 13.896946565015242,57.83000791037921 15.202290076296777,56.76785890973406 16.576335878111422,55.70570810226491 17.812977099325508,54.55504268803634 19.118320610607043,53.050323177536484 20.28625954198651,51.8996528693242 21.797709923936054,50.92600710579427 23.652671755757183,50.48344034765614 25.57633587787859,50.57195372437127 27.3625954198651,51.191547010152135 29.14885496185161,51.81113968102727 30.866412213770673,52.076679208432324 32.583969466155395,51.98816604516469 34.301526717841625,51.36857355001848 35.88167938939296,50.48344034765614 37.59923664131202,50.04087327583693 39.17938931332901,50.92600710579427 40.96564885531552,51.01452041970333 42.61450381716713,51.45708680135431 43.85114503838122,52.78478406369686 44.74427480902523,54.46652987593552 46.66793893137947,54.909093810711056 47.97328244289383,56.148271158279385 46.805343511747196,57.387446046224795 46.25572519097477,59.06917946052272 47.28625954221934,60.48537250596564 48.660305343801156,61.63602699030889 50.17175572551787,62.875190986087546 51.13358778646216,64.3798868173617 51.06488549616188,66.15011256450089 49.82824427494779,67.30075660848524 48.31679389323108,68.09735508903395 47.08015267201699,69.51352765579941 46.32442748104222,71.01820748858154 46.11832061083987,72.96543483011192 45.56870229006745,73.93904622353148 43.78244274808094,73.76202608307358 42.06488549616188,73.76202608307358 40.34732824447565,73.49649577843957 38.49236641218886,73.67351599415997 37.11832061060704,73.40798565157456 35.95038167969324,71.99182191846194 34.78244274808094,70.66416550119175 33.339694656664506,69.3365062607918 31.690839694812894,68.53990936116315 30.17938931332901,67.743311445578 28.32442748104222,68.09735508903395 26.881679389160126,68.98246331990231 26.125954198651016,70.57565497310134 25.507633588043973,72.16884256055346 25.095419847639278,74.02755627478473 25.232824427541345,75.62073505407898 26.057251908583567,77.39092892967165 27.156488549662754,78.63006165635306 28.667938931146637,79.51515495555941 30.17938931332901,80.2232286913204 31.759541984880343,79.60366421641083 33.54580152686685,78.89558977796696 35.125954198651016,78.36453342204913 36.019083969527856,76.94838093145518 37.049618320539594,75.26669567660429 38.42366412235424,74.29308635374764 40.34732824447565,74.11606631375616 42.06488549616188,74.20457633992191 43.98854961828329,74.20457633992191 45.70610687043518,74.29308635374764 46.32442748104222,73.14245519635733 46.53053435101174,71.28373884723987 47.49236641218886,69.51352765579941 48.59160305373371,68.3628876900766 50.10305343521759,67.65480050316546 51.270992366597056,66.32713486306602 51.545801527099684,64.46839822403854 50.583969465689734,62.875190986087546 49.27862595417537,61.63602699030889 47.90458015259355,60.3968605347909 47.011450381949544,58.89215510385111 47.629770992323756,57.1219087773934 47.698473282391205,55.440170117944945 46.18702290090732,54.55504268803634 44.53816793905571,54.2895042145974 43.91984732821584,52.69627100083744 42.13358778646216,52.43073173664743" stroke="#4DD2FF" stroke-linecap="round" stroke-linejoin="round" stroke-width="0.5"><title>2022-10-19 5.00km</title><desc>362877438</desc></polyline></svg>