<?xml version="1.0" encoding="utf-8" ?>
<svg baseProfile="full" height="130mm" version="1.1" viewBox="0,0,100,130" width="100mm" xmlns="http://www.w3.org/2000/svg" xmlns:ev="http://www.w3.org/2001/xml-events" xmlns:xlink="http://www.w3.org/1999/xlink"><defs /><rect fill="#222222" height="130" width="100" x="0" y="0" /><text fill="#FFFFFF" style="font-size:6px; font-family:Arial; font-weight:bold;color:#0ed45e;" x="5" y="10">MY TRACKS</text><text fill="#FFFFFF" style="font-size:4px; font-family:Arial" x="5" y="121">Runner</text><text fill="#FFFFFF" style="font-size:6px; font-family:Arial" x="2" y="128">蓝皮书</text><text fill="#FFFFFF" style="font-size:4px; font-family:Arial" x="25" y="121">WORKOUTS INFO</text><text fill="#FFFFFF" style="font-size:3px; font-family:Arial" x="25" y="125">Type: Run</text><text fill="#FFFFFF" style="font-size:3px; font-family:Arial" x="22" y="129">Date: 2022-04-30</text><text fill="#FFFFFF" style="font-size:3px; font-family:Arial" x="47" y="125">Distance: 4.56 km</text><text fill="#FFFFFF" style="font-size:3px; font-family:Arial" x="47" y="129">Duration: 42:27min</text><text fill="#FFFFFF" style="font-size:3px; font-family:Arial" x="75" y="125">Pace: 9:18/km</text><text fill="#FFFFFF" style="font-size:3px; font-family:Arial" x="75" y="129">Elevation: 0m</text><polyline fill="none" points="21.178752108011395,49.63083360722521 22.954468802548945,49.27886976697482 24.593591905431822,49.36686074582394 26.505902191856876,49.454851712042 28.145025294972584,50.24676984682446 29.78414839785546,50.510742333717644 31.55986509239301,50.77471470867749 33.33558178739622,50.77471470867749 35.24789207428694,50.95069622917799 37.02360876882449,51.12667769996915 38.73102866765112,51.30265912099276 40.370151770533994,50.59873313771095 42.07757166959345,50.33476068807067 43.78499156818725,49.80681545211701 45.56070826295763,49.36686074582394 47.26812816201709,49.014896756154485 48.83895446872339,48.92690572765423 50.61467116349377,48.92690572765423 52.253794266376644,48.838914686464705 53.82462057331577,48.134985908924136 55.60033726808615,48.22297704970697 57.30775716691278,48.134985908924136 59.15177065785974,47.95900358969811 60.79089376050979,47.783021220588125 62.49831365956925,47.695030017290264 64.20573355816305,47.695030017290264 65.91315345675685,47.87101241154596 67.68887015199289,48.04699475551024 69.46458684676327,48.134985908924136 71.17200674535707,48.310968178266194 72.81112984847277,48.39895929431077 74.45025295112282,48.838914686464705 76.0893760540057,49.1908787759603 77.66020236094482,49.63083360722521 79.50421585165896,49.982797247415874 81.07504215859808,50.68672392942244 82.6458684655372,51.566631158813834 84.14839797629975,52.446537140989676 85.51433389540762,53.41443228023127 86.67537942668423,54.558306408056524 87.76812816178426,55.79016849555774 88.7925801014062,57.19800788763678 89.47554806084372,58.78182338620536 90.09021922433749,60.453624249843415 90.5,62.12542061012937 90.43170320405625,63.797212467645295 90.22681281622499,65.5569885050063 89.95362563244998,67.14078267267905 89.20236087706871,68.72457279876107 88.1779089376796,70.22037087369245 87.1534569982905,71.54018971032929 85.99241146724671,72.68403043219587 84.6947723440826,73.651894011884 83.2605396292638,74.44378127274103 81.89460371015593,75.41164210822899 81.07504215859808,76.9074240673217 80.73355817864649,78.49118927138625 80.59696458699182,80.16293704661075 80.52866779104806,81.83468031947268 80.52866779104806,83.59440521587385 80.52866779104806,85.17815335671185 80.59696458699182,86.84988312132191 80.73355817864649,88.43362295557745 79.2993254638277,89.22549135732697 77.59190556500107,89.04952068871353 75.88448566640727,89.04952068871353 74.10876897140406,88.87354997039074 72.40134907257743,89.13750602939399 70.69392917351797,89.22549135732697 68.98650927492417,89.22549135732697 67.68887015199289,88.43362295557745 67.55227655987255,86.84988312132191 67.41568296821788,85.00218154070899 67.41568296821788,83.24246063566534 67.41568296821788,81.57072115456685 67.3473861720413,79.89897717098938 67.4839797639288,78.13924179738387 66.80101180449128,76.99541112908628 65.0252951097209,76.81943699286785 63.454468802781776,76.81943699286785 61.678752107778564,76.81943699286785 59.971332209184766,76.9074240673217 58.195615514414385,76.99541112908628 57.58094435068779,78.57917610858567 57.78583473875187,80.25092364702141 57.71753794257529,81.92266668262891 57.10286677908152,83.50641908933176 57.44435075856745,85.17815335671185 57.78583473875187,86.93786877387902 57.71753794257529,88.60959379881388 56.55649241153151,89.31347667286173 54.84907251270488,89.31347667286173 53.0733558179345,89.48944726696936 51.29763912316412,89.40146197611466 49.65851602028124,89.40146197611466 47.95109612122178,89.48944726696936 46.311973018804565,89.40146197611466 45.15092748729512,88.43362295557745 45.21922428323887,86.76189745665761 45.21922428323887,85.00218154070899 45.21922428323887,83.41843295068247 45.21922428323887,81.83468031947268 45.15092748729512,80.16293704661075 45.08263069135137,78.40320242149755 44.80944350757636,76.81943699286785 43.921585160307586,75.32365482207388 42.96543001686223,73.73988153540995 41.59949409775436,72.77201809297549 39.89207419892773,72.68403043219587 39.755480606807396,70.92427460243925 39.41399662732147,69.4284782242612 38.73102866765112,67.75670153519604 37.77487352443859,66.43687465280527 36.68212478910573,65.11704496358288 35.24789207428694,64.32514580286806 33.81365935923532,63.44525666127447 32.17453625611961,62.82933352020336 30.603709949180484,62.47737716516713 28.896290050586686,62.38938804512145 27.871838110964745,61.333517632621806 27.052276559872553,59.92568762169685 25.413153456989676,59.74970864568604 23.910623945761472,60.453624249843415 22.40809443499893,61.24552835029317 20.97386172018014,62.213409767718986 19.471332208951935,63.093300655600615 18.037099494133145,63.97319029585924 17.080944350687787,65.29302241757978 17.49072512658313,66.9648057425511 18.788364249514416,67.93267824093346 19.60792580107227,69.3404900895548 20.495784148108214,70.66031079762615 21.38364249584265,71.98012869915692 21.72512647556141,73.651894011884 22.13490725122392,75.23566752317129 22.81787521042861,76.81943699286785 23.364249578444287,78.57917610858567 23.1593591903802,79.98696380882757 21.451939291553572,80.25092364702141 21.04215851589106,81.13078896398656 21.861720067216083,82.71454339119373 22.681281618773937,84.21030775079271 23.637436761986464,85.6180826787022 24.661888701608405,87.02585441368865 25.61804384482093,88.52160838362761 26.91568296775222,88.52160838362761 28.281618886860088,87.46578242594842 29.920741989975795,87.64175354357576 31.49156829691492,87.90571012650616 33.1306913997978,87.7297390839085 34.70151770627126,87.46578242594842 36.34064080915414,86.67391177918762 37.911467116326094,86.76189745665761 39.41399662732147,87.37779684847919 40.096964586758986,88.87354997039074 39.48229342349805,90.19332914281404 37.84317032038234,89.92937353305751 36.75042158528231,88.78556459251558 35.521079257829115,87.81772461143555 35.38448566617444,89.31347667286173 35.65767284971662,91.07318036601646 33.95025295088999,91.33713548973901 32.31112984823994,91.33713548973901 30.535413153469563,91.33713548973901 28.896290050586686,91.5131055098027 27.188870151760057,91.16116541967494 26.91568296775222,90.98519529972691 26.30101180402562,91.42512050579535 24.935075885383412,92.30496998276794 23.569139966275543,91.42512050579535 22.544688026886433,90.01735874905717 21.72512647556141,88.60959379881388 20.837268128059804,87.11384004115826 20.154300168622285,85.6180826787022 19.33473861706443,84.38627979136072 18.378583473619074,82.97850206959993 17.695615514414385,81.48273474141024 16.87605396285653,79.98696380882757 15.783305227290839,78.66716293321224 15.032040471909568,77.17138521530433 14.144182124640793,75.76359112892533 13.256323777372018,74.26780641340883 12.368465429870412,72.94799337658333 11.9586846542079,71.27622616756707 12.231871837982908,69.5164663461619 11.9586846542079,67.75670153519604 11.548903878312558,66.08492034336086 10.456155143212527,64.6771011101082 9.5,63.18128967570374 9.5,61.50949615921127 9.636593591887504,59.83769813977415 11.139123102650046,59.22177141846623 12.30016863392666,57.901926385995466 13.597807757323608,56.84604833897902 14.622259696479887,55.43820814869832 16.056492411298677,54.558306408056524 17.354131534229964,53.41443228023127 18.310286677908152,52.094574897841085 19.60792580107227,50.95069622917799 20.905564924003556,49.894806356111076 22.40809443499893,49.36686074582394 24.047217537881806,49.014896756154485 25.754637436941266,49.27886976697482 27.32546374341473,49.894806356111076 28.896290050586686,50.33476068807067 30.262225969461724,49.36686074582394 31.628161888569593,48.39895929431077 33.19898819550872,48.04699475551024 34.428330522961915,49.1908787759603 35.521079257829115,50.510742333717644" stroke="#4DD2FF" stroke-linecap="round" stroke-linejoin="round" stroke-width="0.5"><title>2022-04-30 4.56km</title><desc>352827416</desc></polyline></svg>