<?xml version="1.0" encoding="utf-8" ?>
<svg baseProfile="full" height="130mm" version="1.1" viewBox="0,0,100,130" width="100mm" xmlns="http://www.w3.org/2000/svg" xmlns:ev="http://www.w3.org/2001/xml-events" xmlns:xlink="http://www.w3.org/1999/xlink"><defs /><rect fill="#FAF9F5" height="130" width="100" x="0" y="0" /><text fill="#5A5A5A" style="font-size:6px; font-family:Arial; font-weight:bold;color:#0ed45e;" x="5" y="10">MY TRACKS</text><text fill="#5A5A5A" style="font-size:4px; font-family:Arial" x="5" y="121">Runner</text><text fill="#5A5A5A" style="font-size:6px; font-family:Arial" x="2" y="128">蓝皮书</text><text fill="#5A5A5A" style="font-size:4px; font-family:Arial" x="25" y="121">WORKOUTS INFO</text><text fill="#5A5A5A" style="font-size:3px; font-family:Arial" x="25" y="125">Type: Run</text><text fill="#5A5A5A" style="font-size:3px; font-family:Arial" x="22" y="129">Date: 2022-07-02</text><text fill="#5A5A5A" style="font-size:3px; font-family:Arial" x="47" y="125">Distance: 10.12 km</text><text fill="#5A5A5A" style="font-size:3px; font-family:Arial" x="47" y="129">Duration: 01:08:50</text><text fill="#5A5A5A" style="font-size:3px; font-family:Arial" x="75" y="125">Pace: 6:48/km</text><text fill="#5A5A5A" style="font-size:3px; font-family:Arial" x="75" y="129">Elevation: 0m</text><polyline fill="none" points="9.5,58.59952368406812 10.66267942567356,60.846421904629096 12.729665071470663,61.84504057531012 15.119617224670947,61.512167873675935 16.799043061910197,59.76458309422014 18.47846889938228,57.93377441150369 20.416267942404374,56.26939792645862 22.095693779876456,54.35535913408967 24.098086124286056,52.69097250228515 26.3588516744785,51.692338257911615 28.81339712906629,51.94199697824661 30.944976076250896,53.19028898741817 33.52870813361369,53.35672772146063 36.04784688982181,53.772824349754956 38.63157894718461,54.02248218544992 41.02153110061772,54.18892068328569 43.21770334942266,53.273508360260166 45.736842105165124,52.774191945791245 48.12679425836541,52.191655592410825 50.38755980832502,51.52589905197965 52.84210526291281,51.442679431289434 55.425837320275605,50.943361459707376 57.944976076250896,50.61048257583752 60.39952153083868,50.360823289025575 63.112440191209316,50.194383705675136 65.5669856457971,50.277603503200226 68.0861244017724,50.527262825286016 70.47607655497268,50.86014175636228 72.47846889961511,51.609118660737295 74.80382775096223,51.94199697824661 77.19377990416251,52.441314100520685 79.51913875597529,53.10706960276002 82.03827751195058,53.43994707096135 84.36363636353053,54.272139914683066 86.55980861210264,55.520426968229 88.04545454517938,57.60089949175017 89.0789473685436,59.51492770109326 89.9186602870468,61.76182241749484 90.24162679421715,64.258362015069 90.24162679421715,66.83810844446998 89.78947368403897,69.25140935654053 88.69138755998574,71.66470034670783 87.52870813384652,73.99476499215234 85.84928229660727,75.65909121907316 83.58851674641483,76.99054880271433 81.90909090894274,78.82129804953001 80.81100478442386,81.15133428800618 80.55263157864101,83.48136127745965 80.2296650717035,86.14423794124741 80.03588516730815,88.7238881897647 78.93779904325493,89.88888781209243 76.54784688982181,89.63924523058813 74.02870813407935,89.55603101319866 71.4449760762509,89.47281678405125 68.99043062212877,89.38960254314588 68.0861244017724,87.8917441869271 68.21531100478023,85.56173470325302 68.2799043059349,83.14850084512727 68.66746411449276,80.73525706637884 68.99043062212877,78.73808229871793 66.47129186568782,78.32200336683309 63.88755980855785,78.15557171148248 61.433014353737235,78.15557171148248 58.97846889938228,77.7394923667307 58.72009569359943,80.31917955010431 58.46172248804942,82.7324250395759 58.267942583654076,85.22887545044068 58.33253588504158,87.6421007560566 58.46172248804942,90.05531614110805 56.13636363623664,90.30495854571927 53.68181818188168,90.13853028760059 51.098086124286056,89.88888781209243 48.38516746391542,89.63924523058813 46.89952153083868,88.22460192965809 46.96411483222619,85.72816425852943 47.22248803824186,83.23171597102191 47.093301435466856,80.73525706637884 47.15789473662153,78.23878754500765 46.447368420893326,75.99195589794545 47.80382775096223,74.41084699123167 48.12679425836541,72.08078399737133 49.418660287046805,70.00036279455526 51.35645932983607,68.25280328601366 52.77751196175814,66.17236851592315 51.80861244001426,63.842272819485515 49.612440191209316,62.42756734852446 48.32057416252792,60.34711193211842 49.418660287046805,58.01699311187258 48.255980861140415,56.18617897806689 46.12440191372298,55.27076976990793 48.32057416252792,54.35535913408967 50.775119617115706,53.93926291860407 53.16507177031599,53.273508360260166 55.61961722467095,52.774191945791245 58.074162679258734,52.524533579475246 60.916267942404374,52.27487510693027 63.62918660277501,52.191655592410825 66.0837320573628,52.10843606619164 68.53827751171775,52.35809460974997 71.18660287093371,52.69097250228515 73.77033492783085,53.273508360260166 76.41866028681397,53.85604364000028 78.87320574163459,54.18892068328569 81.13397129159421,54.10570144030498 83.26555023901165,55.18755068036262 85.33253588504158,56.76871136756381 87.14114832528867,58.433086436707526 88.04545454517938,60.67998529429315 88.62679425836541,63.093311524251476 88.88516746391542,65.50662783213193 89.14354066969827,67.83671692170901 88.43301435397007,70.16679676208878 87.14114832528867,72.24721737508662 85.52631578943692,73.99476499215234 83.39473684178665,75.07657757616835 81.32775119622238,76.49125256278785 78.80861244001426,76.57446863222867 76.48325358843431,76.49125256278785 73.83492822945118,76.32482038851595 71.31578947347589,76.32482038851595 68.7966507175006,75.99195589794545 66.40669856430031,75.57587501959642 63.95215310994536,75.99195589794545 61.49760765512474,75.40944258571835 58.97846889938228,75.32622635090956 56.45933014340699,74.99336129450239 53.940191387431696,75.24301010451745 51.421052631456405,75.24301010451745 48.96650717663579,74.66049604903674 46.64114832528867,74.16119782696478 44.31578947347589,73.99476499215234 41.99043062166311,73.41224969772156 41.99043062166311,71.74791710043792 41.2153110045474,69.4178435364156 39.600478468695655,67.25419551634695 37.79186602844857,65.50662783213193 35.46650717710145,64.42479761078721 32.947368420893326,63.75905494514154 30.622009569313377,63.259747450298164 28.425837320508435,62.177913087711204 25.84210526291281,62.594003463105764 23.6459330143407,63.75905494514154 21.51435406692326,65.17375720717246 19.576555023668334,66.42202107748017 17.574162679258734,68.00315150275128 16.34688995196484,69.91714579309337 17.70334928203374,71.99756729078945 17.897129186429083,72.74651722516865 16.86363636353053,70.58288147451822 17.574162679258734,68.50245496275602 19.447368420893326,66.92132588248933 21.772727272473276,65.58984545886051 23.83971291850321,64.09192637220258 26.100478468695655,62.760439530655276 28.3612440188881,62.34434927353868 30.36363636353053,64.00870853324886 33.01196172228083,64.42479761078721 35.46650717710145,65.17375720717246 37.72727272706106,66.25558604829712 39.600478468695655,68.00315150275128 40.82775119598955,70.08357978408458 42.11961722467095,72.08078399737133 43.088516746181995,74.07798141549574 44.96172248781659,75.40944258571835 46.38277511927299,77.24019676365424 46.576555023901165,79.73667053197278 46.705741626909,82.14991841593292 46.96411483222619,84.72958621761063 46.770334927830845,87.39245721884072 46.96411483222619,89.97210198245011 49.35406698542647,90.30495854571927 52.0023923444096,90.05531614110805 54.52153110015206,90.22174442239339 56.911483253352344,90.22174442239339 59.236842105165124,89.55603101319866 59.430622009560466,86.97638442111202 59.36602870794013,84.3967264930834 59.36602870794013,81.81705722864717 59.49521531071514,79.15416093560634 61.49760765512474,78.40521917678416 63.88755980855785,78.32200336683309 66.34210526291281,78.40521917678416 67.95693779899739,79.3205923078931 68.0861244017724,81.90027254319284 67.24641148303635,84.23029656003928 67.18181818141602,86.80995521956356 67.4401913874317,89.22317402530462 69.11961722467095,90.30495854571927 71.63875598064624,90.05531614110805 74.09330143523403,89.80567363009322 76.61244019120932,89.80567363009322 79.00239234417677,89.88888781209243 80.423444975866,88.3078163357568 80.16507177031599,85.89459376694867 80.423444975866,83.48136127745965 80.48803827725351,81.06811886728974 81.32775119622238,78.65486653585685 83.13636363623664,76.82411676988704 85.2033492824994,75.57587501959642 87.01196172251366,73.74511565093417 88.36842105234973,71.49826680391561 89.53110047825612,69.4178435364156 90.30622009560466,66.75489099486731 90.5,64.09192637220258 89.8540669856593,61.76182241749484 88.62679425836541,59.51492770109326 87.20574162667617,57.51768073259154 85.33253588504158,55.68686504167272 83.58851674641483,53.85604364000028 81.19856459298171,53.19028898741817 78.87320574163459,52.27487510693027 76.87081339699216,51.10980083083268 74.48086124402471,50.86014175636228 71.89712918666191,50.44404306309298 69.50717703346163,50.02794407494366 67.05263157864101,49.7782845403417 64.59808612428606,49.52862489997642 62.1435406699311,49.44540499598952 59.55980861233547,49.44540499598952 57.55741626792587,50.44404306309298 55.102870813338086,50.86014175636228 52.38995215296745,51.19302049878752 50.064593301387504,51.692338257911615 47.80382775096223,52.524533579475246 45.34928229660727,52.69097250228515 43.02392344479449,53.689605047693476 40.63397129182704,54.18892068328569 38.244019138626754,53.85604364000028 35.66028708103113,53.43994707096135 33.14114832505584,53.35672772146063 30.944976076250896,52.35809460974997 28.49043062189594,51.692338257911615 26.100478468695655,51.85877741663717 23.83971291850321,52.94063079811167 22.03110047825612,54.52179753774544 20.480861243791878,56.519054700038396 18.607655502157286,58.266649142082315 16.66985645913519,59.59814617736265 15.119617224670947,61.512167873675935 12.729665071470663,61.67860424797982 13.440191387198865,61.67860424797982 15.571770334849134,61.262513223977294 17.122009569080546,59.51492770109326 18.543062200769782,57.68411823944189 20.739234449807554,56.35261686274316 22.224880382651463,54.272139914683066 24.033492822898552,52.857411378005054 26.229665071703494,51.94199697824661 28.81339712906629,52.10843606619164 31.074162679491565,52.774191945791245 33.593301435234025,53.523166408296674 36.17703349282965,53.60638573387405 38.63157894718461,54.18892068328569 41.02153110061772,54.35535913408967 43.54066985636018,53.772824349754956 45.736842105165124,54.605016721994616 47.416267942637205,56.10296001803363 49.418660287046805,57.51768073259154 48.06220095674507,59.76458309422014 49.16028708103113,61.84504057531012 50.96889952127822,63.509401250921655 52.6483253587503,65.42341019352898 52.6483253587503,67.75349961355096 50.19377990439534,68.50245496275602 48.51435406692326,70.250013728044 47.739234449574724,72.58008398878155 48.901913875481114,74.5772797082318 50.96889952127822,75.49265880841995 53.423444975866005,75.57587501959642 56.071770334849134,75.57587501959642 58.84928229660727,75.57587501959642 61.36842105258256,75.8255235819961 63.758373205550015,76.158388166863 66.40669856430031,76.158388166863 68.8612440188881,76.158388166863 71.4449760762509,75.99195589794545 73.77033492783085,75.90873974579154 76.09569377964363,76.158388166863 78.74401913862675,75.90873974579154 81.32775119622238,75.57587501959642 83.71770334918983,74.4940633555525 85.84928229660727,73.41224969772156 87.72248803824186,71.83113384252647 89.0789473685436,69.66749471781077 89.78947368403897,67.33741289557656 89.59569377987646,64.75766866048798 89.2081339713186,62.2611311863875 88.17464114818722,60.180675180396065 87.07655502366833,57.85055569920223 85.26794258342125,56.26939792645862 83.20095693762414,54.77145505452063 81.0693779902067,53.60638573387405 78.67942583723925,53.93926291860407 75.96650717710145,53.19028898741817 73.51196172228083,52.774191945791245 70.7344497605227,52.441314100520685 68.21531100478023,52.191655592410825" stroke="#89CFF0" stroke-linecap="round" stroke-linejoin="round" stroke-width="0.5"><title>2022-07-02 10.12km</title><desc>356620668</desc></polyline></svg>