<?xml version="1.0" encoding="utf-8" ?>
<svg baseProfile="full" height="130mm" version="1.1" viewBox="0,0,100,130" width="100mm" xmlns="http://www.w3.org/2000/svg" xmlns:ev="http://www.w3.org/2001/xml-events" xmlns:xlink="http://www.w3.org/1999/xlink"><defs /><rect fill="#222222" height="130" width="100" x="0" y="0" /><text fill="#FFFFFF" style="font-size:6px; font-family:Arial; font-weight:bold;color:#0ed45e;" x="5" y="10">MY TRACKS</text><text fill="#FFFFFF" style="font-size:4px; font-family:Arial" x="5" y="121">Runner</text><text fill="#FFFFFF" style="font-size:6px; font-family:Arial" x="2" y="128">蓝皮书</text><text fill="#FFFFFF" style="font-size:4px; font-family:Arial" x="25" y="121">WORKOUTS INFO</text><text fill="#FFFFFF" style="font-size:3px; font-family:Arial" x="25" y="125">Type: Run</text><text fill="#FFFFFF" style="font-size:3px; font-family:Arial" x="22" y="129">Date: 2022-09-06</text><text fill="#FFFFFF" style="font-size:3px; font-family:Arial" x="47" y="125">Distance: 6.78 km</text><text fill="#FFFFFF" style="font-size:3px; font-family:Arial" x="47" y="129">Duration: 44:07min</text><text fill="#FFFFFF" style="font-size:3px; font-family:Arial" x="75" y="125">Pace: 6:30/km</text><text fill="#FFFFFF" style="font-size:3px; font-family:Arial" x="75" y="129">Elevation: 0m</text><polyline fill="none" points="9.5,57.61076434684219 10.08087649405934,58.52544012537692 11.049003984313458,59.939027159125544 12.339840637752786,61.0200031803688 14.017928286921233,61.43576265772572 15.6314741037786,61.18630700651556 16.92231075721793,60.022179231455084 18.148605577647686,58.94120137125719 19.116733067901805,57.361307068611495 20.536653386661783,56.61293459805893 21.50478087668307,55.36564502475085 22.5374501994811,54.11835279891966 23.828286852687597,53.03736405755626 25.312749003991485,52.37213922647061 26.861752988304943,51.62376038962975 28.6043824700173,51.70691364083905 30.217928286641836,52.039526527922135 31.766932270955294,52.78790483425837 33.31593625526875,53.2036701477482 34.99402390467003,53.536282185756136 36.54302788851783,53.785741090832744 38.092031872831285,54.03519988962216 39.70557768945582,54.284658582299016 41.25458167353645,54.45096431853017 42.73904382484034,53.8688940355205 44.288047808920965,53.2036701477482 45.77250996022485,52.87105792056536 47.38605577684939,52.37213922647061 48.93505976116285,52.039526527922135 50.419521912466735,51.540607126487885 51.96852589631453,51.291147266631015 53.58207171340473,50.9585339553887 55.13107569725253,50.70907384774182 56.809163346653804,50.625920454913285 58.29362549819052,50.45961363427341 59.84262948203832,50.2101533144596 61.39163346611895,50.293306766077876 63.069721115520224,50.2101533144596 64.81235059769824,50.2101533144596 66.68406374519691,50.04384637565818 68.4266932271421,50.2101533144596 70.1047808767762,50.45961363427341 71.71832669316791,50.9585339553887 73.52549800788984,50.9585339553887 75.33266932261176,51.20799395645736 76.88167330692522,51.87322010792559 78.5597609563265,52.28898606944131 80.17330677295104,52.95421099499799 81.91593625512905,53.536282185756136 83.65856573707424,54.284658582299016 85.01394422305748,55.2824922921136 86.30478087672964,56.19717170158401 87.5310756971594,57.44445950654335 88.43466135463677,58.77489690843504 89.20916334656067,60.27163537766319 89.91912350594066,61.768370027595665 90.2418326693587,63.34825245873071 90.43545816745609,64.92813063442009 90.37091633467935,66.59115569549613 89.91912350594066,68.33732693467755 89.40278884465806,69.91719167178962 88.88645418314263,71.58020258723991 88.30557768931612,73.16005858918652 87.20836653374135,74.40731032186886 85.59482071711682,75.23881000332767 84.23944223113358,76.15345829178113 83.14223107579164,77.40070365910651 82.43227091641165,78.89739459892735 81.5286852591671,80.39408171968535 81.5286852591671,82.22336079209344 81.3996015933808,83.88633681641659 81.1414342627395,85.79875341558363 81.01235059765168,87.62801563250832 80.68964143446647,89.29097633383935 79.26972111570649,89.78986362495925 77.46254980098456,89.7067157724523 75.71992031857371,89.45727214467479 74.04183266940527,89.45727214467479 72.36374502000399,89.37412424507784 70.62111553782597,89.37412424507784 69.00756972120143,89.29097633383935 68.62031872523949,87.87746003817301 68.4266932271421,86.21449532936094 68.62031872523949,84.80097162007587 68.7494023903273,82.97170058649499 68.62031872523949,81.30872196902055 68.7494023903273,79.64573863672558 68.4266932271421,77.89960106340004 66.619521912653,78.06590010394575 64.94143426278606,78.06590010394575 63.327888446394354,78.06590010394575 61.649800796760246,77.89960106340004 60.10079681267962,77.81645152537385 59.32629482075572,79.06369335658383 59.32629482075572,80.72667833912419 59.26175298797898,82.38965860678582 59.13266932265833,83.9694854937843 59.13266932265833,85.54930812586099 59.06812749034725,87.12912650266662 59.13266932265833,88.7920886183856 58.48725099605508,90.03930711129215 56.938247011974454,89.95615929405903 55.00199203193188,89.87301146535901 53.45298804785125,89.87301146535901 51.90398406400345,89.95615929405903 50.354980079689994,89.95615929405903 48.67689243028872,89.95615929405903 47.57968127494678,88.95838457060745 47.45059760962613,87.46171930304263 47.32151394453831,85.8819018220529 47.45059760962613,84.2189314555726 47.70876494050026,82.47280749643687 47.90239043836482,80.8929765780922 47.77330677304417,79.14684271777514 47.45059760962613,77.65015241428046 46.86972111556679,76.07030850643059 45.9015936255455,74.82306030986365 44.481673306785524,73.82525984337553 42.80358565761708,73.5758094615303 42.54541832674295,71.7465034192428 42.09362549800426,70.16664360964205 41.19003984075971,68.75308122555725 40.28645418351516,67.33951543469448 39.06015936261974,66.17539987218333 37.640239043859765,65.17758469411638 36.22031872533262,64.42922219657339 34.80039840633981,63.930313334218226 32.99322709185071,63.930313334218226 31.315139442216605,63.597707190550864 29.701593625359237,63.18194924556883 28.41075697238557,62.35043247108115 26.990836653392762,62.599887627293356 25.312749003991485,63.26510085823247 24.021912350552157,64.17976781859761 22.60199203202501,64.76182786899153 21.11752988048829,65.84279500151752 19.568525896640494,66.67430682474514 18.277689243201166,67.92157234926708 17.11593625531532,69.16883522161515 17.825896414462477,69.25198598532006 18.729482071939856,67.83842139673652 20.149402390467003,66.75745794235263 21.44023904390633,65.67649249540409 22.92470119521022,64.67867646872764 24.538247012067586,63.76401028619148 25.958167331060395,62.849342677160166 27.636254980461672,62.18412897491362 29.24980079708621,62.766191005532164 30.476095617515966,63.76401028619148 32.089641434373334,64.17976781859761 33.57410358591005,64.17976781859761 35.2521912350785,64.67867646872764 36.67211155383848,65.26073602383258 38.027490039821714,65.84279500151752 39.25378486071713,66.84060904785292 40.41553784860298,67.92157234926708 41.31912350608036,69.16883522161515 42.02908366522752,70.58239660365507 42.22270916355774,72.07910494238604 42.67450199229643,73.5758094615303 44.223505975911394,73.82525984337553 45.9015936255455,74.0747101191082 47.51513944240287,73.99156003911048 48.41872509964742,73.07690837944392 48.61235059797764,71.24760078126565 49.38685258990154,69.8340410021483 50.613147410564125,68.50362868641969 51.96852589631453,67.67211945663439 53.00119521934539,66.34170223702677 53.19482071720995,64.8449792577303 52.35577689274214,63.51455562521005 50.87131474097259,62.51673592021689 49.709561753086746,61.26945890201023 48.80597609560937,59.855875074863434 49.12868525926024,58.27598323643906 49.709561753086746,56.8623921945109 48.41872509964742,55.61510315153282 46.80517928302288,55.36564502475085 47.32151394453831,54.201505696401 48.99960159370676,53.70258813415421 50.742231075884774,53.286823174858 52.29123505973257,53.03736405755626 53.90478087658994,52.62159862671979 55.389243027893826,52.20583290082868 57.002788844751194,52.039526527922135 58.74541832669638,51.87322010792559 60.61713147419505,51.70691364083905 62.295219123363495,51.540607126487885 63.908764940686524,51.62376038962975 65.45776892430149,51.62376038962975 67.13585657346994,51.79006688017398 68.81394422333688,51.79006688017398 70.49203187273815,51.956373323802836 72.17011952167377,52.20583290082868 73.78366533876397,52.455292371625546 75.46175298793241,52.78790483425837 77.13984063756652,53.286823174858 78.68884462141432,53.61943516577594 80.36693227104843,53.61943516577594 81.91593625512905,53.8688940355205 83.52948207175359,54.78357564948965 84.82031872519292,55.78140851057833 86.17569721094333,56.696087142045144 87.2729083665181,57.94337388576241 88.047410358442,59.27381015586434 88.82191235059872,60.853699306433555 89.33824701188132,62.43358420167351 89.59641434275545,64.01346484088572 89.91912350594066,65.7596437545144 89.46733067720197,67.42266645794734 89.01553784869611,69.00253365858225 88.3701195216272,70.49924602848478 87.5310756971594,71.91280420444673 86.49840637436137,73.16005858918652 85.2075697213877,74.24101024400443 83.72310756985098,75.15566008840688 82.2386454185471,76.07030850643059 80.81872509955429,76.48605731566204 79.20517928269692,76.56920704210643 77.59163346607238,76.56920704210643 75.97808764944784,76.56920704210643 74.23545816750266,76.48605731566204 72.55737051810138,76.56920704210643 71.00836653402075,76.6523567570257 69.39482071716338,76.56920704210643 67.7167330677621,76.48605731566204 66.03864541836083,76.31975782726659 64.48964143451303,76.31975782726659 62.940637450432405,76.48605731566204 61.26254980103113,76.40290757751791 59.51992031862028,76.40290757751791 57.71274900389835,76.56920704210643 56.099203187273815,76.6523567570257 54.61474103596993,76.6523567570257 53.00119521934539,76.56920704210643 51.32310756994411,76.31975782726659 50.032270916504785,75.4051097984775 48.87051792861894,74.15786018758081 48.35418326710351,72.411706276529 48.99960159370676,70.74869771872181 49.838645418407395,69.25198598532006 51.00039840629324,68.33732693467755 52.48486055782996,67.50581746920943 53.3239043825306,66.09224867227022 53.25936254998669,64.51237363246037 52.16215139441192,63.18194924556883 50.806772908661515,62.26728072867263 49.515936255222186,61.0200031803688 48.80597609560937,59.52326662041014 49.580478087533265,58.192830916377716 50.032270916504785,56.529782042547595 48.54780876496807,55.61510315153282 46.86972111556679,55.033034023828804 47.32151394453831,54.11835279891966 48.99960159370676,53.785741090832744 50.613147410564125,53.536282185756136 52.29123505973257,53.2036701477482 53.96932270936668,52.78790483425837 55.711952191311866,52.37213922647061 57.39003984071314,52.1226797203999 58.87450199224986,51.956373323802836 60.68167330673896,51.79006688017398 62.424302788916975,51.70691364083905 64.10239043831825,51.62376038962975 65.84501992049627,51.62376038962975 67.58764940244146,51.79006688017398 69.20119521929882,51.87322010792559 70.81474103592336,52.1226797203999 72.4282868525479,52.28898606944131 74.17091633472592,52.70475173648447 75.97808764944784,52.87105792056536 77.5270916337613,53.286823174858 79.20517928269692,53.785741090832744 80.88326693233103,53.536282185756136 82.36772908363491,54.11835279891966 83.78764940239489,54.94988124433439 85.07848605560139,56.03086646075826 86.30478087672964,57.361307068611495 87.33745019929484,58.60859239799902 88.24103585653938,60.10533129191026 88.88645418314263,61.685218202881515 89.33824701188132,63.34825245873071 89.66095617553219,64.92813063442009 89.59641434275545,66.67430682474514 89.27370517957024,68.33732693467755 88.75737051805481,69.91719167178962 87.91832669335417,71.41390170773957 87.0147410358768,72.74430742237018 85.78844621544704,73.90840994694736 84.49760956154205,74.98936022270937 82.94860557769425,75.82085907936562 81.5286852591671,76.6523567570257 80.04422310763039,77.23440442990977 78.5597609563265,76.90180583053734 77.01075697201304,76.90180583053734 75.33266932261176,76.98495549801737 73.65458167367615,77.06810515373945 72.04103585658595,76.90180583053734 70.49203187273815,76.90180583053734 68.9430278884247,76.81865615112474 67.39402390480973,76.48605731566204" stroke="#4DD2FF" stroke-linecap="round" stroke-linejoin="round" stroke-width="0.5"><title>2022-09-06 6.78km</title><desc>360406663</desc></polyline></svg>