<?xml version="1.0" encoding="utf-8" ?>
<svg baseProfile="full" height="130mm" version="1.1" viewBox="0,0,100,130" width="100mm" xmlns="http://www.w3.org/2000/svg" xmlns:ev="http://www.w3.org/2001/xml-events" xmlns:xlink="http://www.w3.org/1999/xlink"><defs /><rect fill="#222222" height="130" width="100" x="0" y="0" /><text fill="#FFFFFF" style="font-size:6px; font-family:Arial; font-weight:bold;color:#0ed45e;" x="5" y="10">MY TRACKS</text><text fill="#FFFFFF" style="font-size:4px; font-family:Arial" x="5" y="121">Runner</text><text fill="#FFFFFF" style="font-size:6px; font-family:Arial" x="2" y="128">蓝皮书</text><text fill="#FFFFFF" style="font-size:4px; font-family:Arial" x="25" y="121">WORKOUTS INFO</text><text fill="#FFFFFF" style="font-size:3px; font-family:Arial" x="25" y="125">Type: Run</text><text fill="#FFFFFF" style="font-size:3px; font-family:Arial" x="22" y="129">Date: 2022-12-08</text><text fill="#FFFFFF" style="font-size:3px; font-family:Arial" x="47" y="125">Distance: 3.13 km</text><text fill="#FFFFFF" style="font-size:3px; font-family:Arial" x="47" y="129">Duration: 22:12min</text><text fill="#FFFFFF" style="font-size:3px; font-family:Arial" x="75" y="125">Pace: 7:05/km</text><text fill="#FFFFFF" style="font-size:3px; font-family:Arial" x="75" y="129">Elevation: 0m</text><polyline fill="none" points="12.688442211132497,60.77971095015528 13.366834170883521,60.16791034722701 14.045226130634546,59.64350934699178 14.79145728633739,59.11910790071124 15.266331658465788,58.50730564969126 16.012562814168632,57.8081023338018 16.690954773686826,57.19629878172418 17.369346733903512,56.58449462254066 18.047738693654537,56.060090574086644 18.726130653405562,55.44828528736252 19.20100502530113,54.74907850159798 19.675879396963865,54.137271913699806 20.21859296481125,53.52546471840469 20.693467336706817,52.91365691612009 21.304020100273192,52.38924974540714 22.050251256441697,52.03964471677318 22.72864321595989,51.60263815248618 23.474874371662736,51.16563127824338 24.4246231156867,51.07822986622341 25.306532663526013,51.07822986622341 26.052763819228858,51.16563127824338 26.866834171116352,51.34043406526325 27.680904522305354,51.86484212841606 28.5628140703775,52.12704599258723 29.444723617983982,52.38924974540714 30.258793970104307,52.56405218533473 31.20854271366261,52.73885457549477 32.09045226150192,52.73885457549477 32.90452261315659,52.65145338658476 33.7864321609959,52.73885457549477 34.7361809045542,52.82625575206475 35.61809045262635,53.08845920761814 36.43216080404818,53.35066255135462 37.314070351887494,53.52546471840469 38.12814070354216,53.787667876516934 39.01005025138147,53.87506890424993 39.891959799220785,53.70026683638571 40.70603015064262,53.52546471840469 41.58793969871476,53.2632614489994 42.469849246321246,53.08845920761814 43.35175879439339,52.73885457549477 44.097989949863404,52.56405218533473 45.11557788960636,52.30184850678779 45.92964824126102,52.12704599258723 46.8115577888675,51.777440815232694 47.69346733670682,51.60263815248618 48.57537688454613,51.34043406526325 49.389447236200795,51.07822986622341 50.20351758808829,50.90342700504698 51.01758793974295,50.72862409427762 51.899497487582266,50.553821133915335 52.71356783923693,50.466419635224156 53.663316583260894,50.291616600588895 54.613065326586366,50.02941195573658 55.56281407061033,50.02941195573658 56.37688442203216,49.854608797119 57.19095477391966,49.76720719912555 58.07286432152614,49.67980558890849 59.022613065782934,49.59240396635141 59.90452261315659,49.50500233116327 60.71859296481125,49.33019902382512 61.668341708835214,49.33019902382512 62.68592964857817,49.33019902382512 63.56783919618465,49.4176006836351 64.51758793974295,49.33019902382512 65.46733668353409,49.4176006836351 66.28140703542158,49.50500233116327 67.09547738684341,49.4176006836351 67.97738693491556,49.50500233116327 68.85929648252204,49.59240396635141 69.80904522631317,49.76720719912555 70.7587939701043,49.942010382481385 71.57286432175897,50.02941195573658 72.45477386936545,50.11681351659354 73.3366834174376,50.291616600588895 74.21859296504408,50.466419635224156 75.16834170860238,50.72862409427762 76.0502512564417,50.990828441747 76.79648241237737,51.16563127824338 77.67839195998386,51.42783544003032 78.56030150759034,51.60263815248618 79.374371859245,51.95224342891015 80.12060301518068,52.214447255886625 81.07035175897181,52.476650971744675 81.81658291467465,52.82625575206475 82.63065326656215,53.2632614489994 83.376884422265,53.787667876516934 84.12311557796784,54.22467289213091 84.80150753771886,54.83647939329967 85.5477386934217,55.44828528736252 86.15829145722091,55.97268985613482 86.76884422125295,56.58449462254066 87.37939698505215,57.28369932633359 87.92211055289954,57.98290323687252 88.4648241205141,58.68210635485593 88.93969849264249,59.38130867952714 89.34673366835341,60.16791034722701 89.61809045262635,60.95451101078652 89.88944723643363,61.741110670845956 90.09296482428908,62.61510911618825 90.22864321619272,63.489106322289445 90.36432160832919,64.27570274838945 90.5,65.14969760034 90.43216080404818,65.93629190779757 90.29648241237737,66.81028440530645 90.22864321619272,67.6842756641563 89.95728643238544,68.55826568370685 89.61809045262635,69.34485564188799 89.34673366835341,70.30624200589955 89.00753768859431,71.00543114711763 88.39698492502794,71.70461949519813 87.7864321609959,72.31640864955261 87.31155778933316,73.01559551083483 86.70100502530113,73.62738336401526 86.09045226173475,74.15177246928215 85.34422110556625,74.67616112856194 84.66582914581522,75.02575332007837 83.9874371860642,75.46274328092113 83.17336683440953,75.8123350267997 82.35929648252204,76.33672227349598 81.81658291467465,77.03590457513928 81.54522613086738,78.17207412462449 81.40954773896374,78.95865181682166 81.54522613086738,79.83262585342163 81.54522613086738,80.79399586265208 81.47738693468273,81.6679672972532 81.34170854277909,82.54193749336991 81.34170854277909,83.41590644995449 81.27386934682727,84.28987416805467 81.20603015064262,85.25123722676653 81.20603015064262,86.12520234298427 81.13819095492363,87.08656253985828 81.13819095492363,88.0479212377104 80.93467336683534,88.92188238928793 80.86683417088352,89.79584230226465 80.45979899493977,90.49500934046227 79.64572864351794,90.582405164605 78.83165829163045,90.582405164605 77.94974874402396,90.49500934046227 77.13567839190364,90.49500934046227 76.18592964857817,90.49500934046227 75.30402010050602,90.40761350409593 74.42211055289954,90.40761350409593 73.47236180934124,90.40761350409593 72.59045226150192,90.32021765538957 71.70854271366261,90.32021765538957 70.82663316605613,90.32021765538957 69.94472361821681,90.32021765538957 68.99497487442568,90.32021765538957 68.18090452253819,90.14542592031648 67.97738693491556,89.27146650321083 68.18090452253819,88.39750584709691 68.18090452253819,87.52354395197472 68.04522613086738,86.73697718715994 68.18090452253819,85.77561644517118 68.18090452253819,84.90165083348984 68.31658291444182,84.02768398268381 68.31658291444182,83.06631901592482 68.24874371872284,82.1923495635856 68.31658291444182,81.23098173487233 68.45226130681112,80.26961240707897 68.38442211062647,79.3082415801473 67.70603015064262,78.69645936432062 66.89195979922079,78.78385686076945 65.94221105542965,78.69645936432062 65.12814070377499,78.60906185541535 64.17839195975102,78.60906185541535 63.22864321642555,78.52166433399543 62.27889447240159,78.52166433399543 61.464824120746925,78.25947169528808 60.58291457290761,78.25947169528808 59.63316582934931,78.17207412462449 58.751256281509995,78.17207412462449 58.47989949746989,79.04604927630862 58.54773869365454,80.00742051214911 58.54773869365454,80.88139306177618 58.47989949746989,81.75536437274422 58.4120603017509,82.71673138381448 58.4120603017509,83.67809689539718 58.20854271366261,84.46466756303562 58.14070351771079,85.33863379416289 58.34422110556625,86.12520234298427 58.34422110556625,86.99916622007731 58.27638190984726,87.9605250544846 58.20854271366261,88.7470902579953 58.14070351771079,89.62105041876202 58.00502512580715,90.40761350409593 57.258793969871476,90.66980097611668 56.37688442203216,90.40761350409593 55.56281407061033,90.23282179428497 54.613065326586366,90.23282179428497 53.663316583260894,90.14542592031648 52.78140703542158,90.14542592031648 51.967336683534086,90.14542592031648 51.01758793974295,90.05803003441542 50.13567839213647,89.97063413617434 49.185929648345336,90.05803003441542 48.2361809045542,90.05803003441542 47.42211055289954,90.14542592031648 46.472361808875576,90.23282179428497 45.92964824126102,89.53365445835516 45.79396984935738,88.65969417401357 45.8618090453092,87.78573265054729 45.92964824126102,86.99916622007731 46.06532663363032,86.12520234298427 46.06532663363032,85.25123722676653 45.92964824126102,84.28987416805467 45.65829145768657,83.41590644995449 45.72613065317273,82.62933444464579 45.72613065317273,81.75536437274422 45.79396984935738,80.88139306177618 45.8618090453092,80.09481782279909 45.92964824126102,79.3082415801473 45.72613065317273,78.52166433399543 45.319095477228984,77.64768843888305 45.04773869365454,76.77371130499523 44.77638190961443,75.8123350267997 44.097989949863404,75.2005493415636 43.41959798987955,74.76355919498019 42.469849246321246,74.50136495841434 41.65577889443375,74.23917060997337 41.180904522538185,73.71478157909587 41.113065326586366,72.84079886967083 40.90954773896374,72.05421337188454 40.63819095492363,71.09282973391237 40.36683417088352,70.30624200589955 39.959798994939774,69.60705207160208 39.68844221136533,68.82046244805679 39.14572864305228,68.20866982475854 38.603015075437725,67.59687659388874 37.92462311591953,66.98508275614586 37.246231155702844,66.46068755519809 36.5,65.8488925898564 35.61809045262635,65.41189581435174 35.00753768859431,64.88749927474419 34.26130653265864,64.53790133423172 33.58291457290761,64.18830319511471 32.83668341720477,63.83870485780062 31.954773869365454,63.83870485780062 31.20854271366261,63.751305242301896 30.394472361775115,63.663905614754185 29.512562814168632,63.663905614754185 28.63065326656215,63.751305242301896 27.680904522305354,63.751305242301896 26.866834171116352,63.83870485780062 26.052763819228858,64.10090362944175 25.170854271389544,64.53790133423172 24.49246231163852,65.06229817087296 23.746231155935675,65.6740939168958 23.20351758808829,66.2858890555217 22.72864321595989,67.07248191320105 21.982412060257047,67.7716747217346 21.236180904554203,68.12127082882216 20.35427135694772,68.55826568370685 19.540201005293056,68.73306353896623 18.726130653405562,68.38346777879633 18.183417085325345,67.7716747217346 17.84422110556625,66.89768358709989 16.962311557959765,66.81028440530645 16.14824120607227,67.33467930939514 15.266331658465788,67.7716747217346 14.655778894666582,68.47086673753802 13.909547738963738,69.08265910082264 13.163316582795233,68.47086673753802 12.688442211132497,67.6842756641563 12.28140703518875,66.98508275614586 11.874371859245002,66.2858890555217 11.331658291397616,65.58669456164353 10.85678391973488,64.80009980825707 10.449748744023964,64.10090362944175 9.907035175943747,63.489106322289445 9.5,62.70250889239833 10.246231155935675,62.178110048524104 10.585427135694772,61.47891089570476 11.060301507590339,60.86711098667001 12.010050251614302,60.86711098667001 12.756281407317147,60.43011067988118 12.756281407317147,60.43011067988118" stroke="#4DD2FF" stroke-linecap="round" stroke-linejoin="round" stroke-width="0.5"><title>2022-12-08 3.13km</title><desc>365382012</desc></polyline></svg>