<?xml version="1.0" encoding="utf-8" ?>
<svg baseProfile="full" height="130mm" version="1.1" viewBox="0,0,100,130" width="100mm" xmlns="http://www.w3.org/2000/svg" xmlns:ev="http://www.w3.org/2001/xml-events" xmlns:xlink="http://www.w3.org/1999/xlink"><defs /><rect fill="#FAF9F5" height="130" width="100" x="0" y="0" /><text fill="#5A5A5A" style="font-size:6px; font-family:Arial; font-weight:bold;color:#0ed45e;" x="5" y="10">MY TRACKS</text><text fill="#5A5A5A" style="font-size:4px; font-family:Arial" x="5" y="121">Runner</text><text fill="#5A5A5A" style="font-size:6px; font-family:Arial" x="2" y="128">蓝皮书</text><text fill="#5A5A5A" style="font-size:4px; font-family:Arial" x="25" y="121">WORKOUTS INFO</text><text fill="#5A5A5A" style="font-size:3px; font-family:Arial" x="25" y="125">Type: Run</text><text fill="#5A5A5A" style="font-size:3px; font-family:Arial" x="22" y="129">Date: 2022-05-21</text><text fill="#5A5A5A" style="font-size:3px; font-family:Arial" x="47" y="125">Distance: 5.21 km</text><text fill="#5A5A5A" style="font-size:3px; font-family:Arial" x="47" y="129">Duration: 34:04min</text><text fill="#5A5A5A" style="font-size:3px; font-family:Arial" x="75" y="125">Pace: 6:32/km</text><text fill="#5A5A5A" style="font-size:3px; font-family:Arial" x="75" y="129">Elevation: 0m</text><polyline fill="none" points="9.823999999789521,65.867980654235 10.666399999754503,67.20371783844894 11.379200000083074,68.7064185491763 12.545599999604747,70.04214929509908 13.38800000003539,71.46135989279719 14.42479999968782,72.630118993402 15.007999999914318,74.29977082763799 15.8503999998793,76.05290015833452 16.75759999989532,77.47209627047414 17.664799999911338,79.1417343764333 18.83119999966584,80.3104782339069 19.73839999991469,81.81314549956005 20.4511999997776,83.56625246355543 21.423199999611825,84.81846852804301 22.07119999988936,86.4880858057295 23.043200000189245,87.90725676977308 23.755999999819323,89.40990465163486 24.72799999988638,90.74558843870182 25.829599999822676,91.5803892670665 27.51439999975264,90.82906857470516 28.93999999971129,90.57862813095562 30.624799999874085,91.07950891187647 32.244799999985844,91.49690923729213 33.67039999994449,91.8308292850852 35.61439999984577,91.49690923729213 37.29920000000857,91.41342919605086 38.85439999983646,90.99602881114697 40.539199999999255,91.16298900078982 42.35359999979846,90.74558843870182 43.0663999998942,89.40990465163486 43.26079999981448,87.65681508352282 42.74239999987185,85.98720111936564 42.4183999998495,84.31758242152864 42.93680000002496,82.5644776946283 41.51120000006631,81.47921977174701 39.95600000000559,81.89662690204568 38.9839999997057,83.39929012017092 38.206399999791756,84.81846852804301 36.71599999978207,85.98720111936564 35.03120000008494,86.23764351592399 33.475999999791384,87.3228926693555 31.726399999577552,86.65504727314692 30.36559999990277,85.90372029703576 28.810399999609217,86.4880858057295 27.3847999998834,87.57333449786529 26.801600000122562,86.57156654517166 25.505599999800324,85.5697968886816 24.663200000068173,84.06713920878246 23.496799999848008,82.5644776946283 22.524800000013784,81.22877535189036 21.941599999787286,79.47566142934375 20.515999999828637,79.05825258337427 19.608799999812618,77.63906029390637 18.636799999978393,76.05290015833452 17.79440000001341,74.6337006263202 16.822399999713525,73.2144976737909 16.04479999956675,71.79529130127048 15.461599999805912,70.20911542524118 14.878399999812245,68.62293527682777 15.13759999978356,66.78630029392662 16.04479999956675,65.36707842891337 17.405599999940023,64.3652727001463 19.02559999981895,63.53043329110369 20.321599999908358,62.52862443798222 22.006399999838322,61.94423515320523 23.237599999876693,61.02590796223376 24.85759999998845,60.85893922863761 26.412800000049174,60.94242360146018 27.90319999982603,62.02771937235957 29.32880000001751,62.94604500051355 31.07839999976568,62.86256091186078 32.69839999964461,63.27998123760335 34.44800000009127,63.86436919675907 35.87359999981709,65.03314337535994 37.10479999962263,66.2853988497518 38.07679999968968,67.53765166114317 39.17839999985881,68.95686829474289 39.76159999985248,70.45956453174585 40.21519999974407,72.12922252010321 41.51120000006631,72.5466362775187 42.80720000015572,73.54842808801914 44.03839999996126,74.88414785114583 44.751199999824166,76.38682896312093 45.01040000002831,77.97298819932621 45.07519999984652,79.55914316314738 45.139999999897555,81.14529385475907 45.139999999897555,82.73144027439412 45.139999999897555,84.48454450443387 45.139999999897555,86.0706819301704 45.139999999897555,87.82377621962223 46.50079999980517,88.82554204191547 48.18559999996796,88.90902245044708 49.93519999994896,88.74206162191695 51.74959999974817,88.74206162191695 53.30480000004172,88.90902245044708 54.98960000020452,88.82554204191547 56.60960000008345,88.65858119016048 57.06319999997504,87.4898539003334 56.99839999969117,85.73675861663651 57.19280000007711,84.15062029170804 57.19280000007711,82.48099638696294 57.38719999999739,80.89484929275932 57.38719999999739,79.1417343764333 57.711200000019744,77.47209627047414 59.07200000016019,76.88772181503009 60.886399999726564,76.7207575783832 62.50639999983832,77.05468600417953 64.12639999971725,77.13816808117554 65.74640000006184,77.13816808117554 66.19999999995343,78.05647014593706 66.3296000000555,79.47566142934375 66.13519999966957,81.06181234592805 66.26479999977164,82.64795899024466 65.81119999988005,84.23410136252642 65.81119999988005,85.82023946277332 66.13519999966957,87.4898539003334 67.43119999975897,88.24117885273881 69.11599999992177,88.3246593439253 70.80079999985173,88.3246593439253 72.61519999988377,88.49162029050058 74.23519999999553,88.49162029050058 75.9199999999255,88.24117885273881 77.41039999970235,88.40813982312102 79.03039999981411,87.90725676977308 79.09519999986514,86.32112429098925 78.90079999971204,84.48454450443387 78.70639999979176,82.73144027439412 78.96559999976307,81.14529385475907 78.77119999984279,79.39217968389858 79.22479999973439,77.8060242702486 79.48399999993853,75.88593568501528 80.90959999966435,74.9676302355947 82.52959999977611,74.38325329485815 84.01999999955297,73.2144976737909 85.38079999992624,72.12922252010321 86.48239999986254,71.04394536616746 87.58399999979883,69.54125062027015 88.8151999998372,68.4559686970315 89.13920000009239,66.78630029392662 89.33360000001267,65.03314337535994 89.65760000003502,63.363465267349966 89.72240000008605,61.69378242478706 89.65760000003502,60.19106381904567 88.87999999988824,58.6048566858517 87.97279999987222,57.352584878273774 86.74159999983385,56.35076551488601 86.74159999983385,56.35076551488601 87.84319999977015,57.60303945292253 88.8151999998372,58.93879538483452 89.33360000001267,60.44151718635112 89.46319999988191,62.02771937235957 89.59279999975115,63.86436919675907 89.13920000009239,65.45056216273224 89.00959999975748,67.12023435311858 88.750400000019,68.78990180941764 88.1023999999743,70.20911542524118 88.87999999988824,71.29439411772182 90.5,71.62832562049152 89.07439999980852,70.96046242536977 88.23199999984354,69.54125062027015 89.00959999975748,67.87158529425506 89.2039999999106,66.20191523444373 89.72240000008605,64.69920813263161 90.11119999969378,63.0295290776412 89.98159999982454,61.2763609745889 89.33360000001267,59.523187652172055 88.62079999991693,58.18743304593954 87.45439999992959,57.0186452800408 86.28799999970943,55.849855194217525 84.86239999998361,55.01500371249858 83.69599999976344,53.84620964946225 82.27040000003763,52.84438432077877 80.65039999969304,52.343471017084084 79.15999999991618,51.675585949618835 77.54000000003725,51.09118589403806 76.04959999979474,50.42329940601485 74.49439999996684,50.08935587789165 72.93919999990612,49.75541216065176 71.44880000012927,49.17101019946858 69.76399999973364,49.08752415748313 68.20879999990575,48.9205520383548 66.39439999987371,48.75357987184543 64.5800000000745,48.58660765818786 62.89519999991171,48.58660765818786 61.53439999977127,48.419635396800004 59.979200000176206,48.50312153343111 58.35920000006445,48.75357987184543 56.804000000003725,48.75357987184543 55.054399999789894,49.00403810379794 53.30480000004172,49.42146825377131 51.81440000003204,49.588440230931155 50.06480000005104,49.92238404287491 48.44479999993928,50.25632766564377 46.69519999995828,50.42329940601485 45.07519999984652,51.09118589403806 43.39039999991655,51.42512885405449 41.83520000008866,51.84255728760036 40.21519999974407,52.17649982124567 38.78959999978542,52.59392772230785 37.10479999962263,52.51044216589071 35.4847999997437,52.093014205631334 33.73519999999553,52.00952857820084 32.244799999985844,52.00952857820084 30.56000000005588,51.84255728760036 28.875199999893084,51.25815739744576 27.31999999959953,50.75724274467211 25.699999999720603,50.42329940601485 24.5335999999661,49.337982247408945 23.237599999876693,48.83706596097909 21.617599999764934,49.671926201845054 20.515999999828637,51.09118589403806 19.41439999989234,52.25998542510206 17.923999999649823,52.76089879981009 16.433599999872968,52.76089879981009 16.692799999844283,54.681062788236886 16.36880000005476,56.183795455202926 15.720799999777228,57.68652428739006 14.359999999869615,58.77182605903363 13.19359999988228,60.024094848311506 11.703199999872595,60.69197044702014 10.73119999980554,62.02771937235957 9.953599999891594,63.61391728540184 9.629599999869242,65.28359468345298 10.342399999732152,66.61933319299715 11.379200000083074,68.28900206956314 12.351199999917299,69.70821689255536 13.323199999751523,71.29439411772182" stroke="#4DD2FF" stroke-linecap="round" stroke-linejoin="round" stroke-width="0.5"><title>2022-05-21 5.21km</title><desc>354073938</desc></polyline></svg>