<?xml version="1.0" encoding="utf-8" ?>
<svg baseProfile="full" height="130mm" version="1.1" viewBox="0,0,100,130" width="100mm" xmlns="http://www.w3.org/2000/svg" xmlns:ev="http://www.w3.org/2001/xml-events" xmlns:xlink="http://www.w3.org/1999/xlink"><defs /><rect fill="#222222" height="130" width="100" x="0" y="0" /><text fill="#FFFFFF" style="font-size:6px; font-family:Arial; font-weight:bold;color:#0ed45e;" x="5" y="10">MY TRACKS</text><text fill="#FFFFFF" style="font-size:4px; font-family:Arial" x="5" y="121">Runner</text><text fill="#FFFFFF" style="font-size:6px; font-family:Arial" x="2" y="128">蓝皮书</text><text fill="#FFFFFF" style="font-size:4px; font-family:Arial" x="25" y="121">WORKOUTS INFO</text><text fill="#FFFFFF" style="font-size:3px; font-family:Arial" x="25" y="125">Type: Run</text><text fill="#FFFFFF" style="font-size:3px; font-family:Arial" x="22" y="129">Date: 2022-06-09</text><text fill="#FFFFFF" style="font-size:3px; font-family:Arial" x="47" y="125">Distance: 5.03 km</text><text fill="#FFFFFF" style="font-size:3px; font-family:Arial" x="47" y="129">Duration: 35:33min</text><text fill="#FFFFFF" style="font-size:3px; font-family:Arial" x="75" y="125">Pace: 7:04/km</text><text fill="#FFFFFF" style="font-size:3px; font-family:Arial" x="75" y="129">Elevation: 0m</text><polyline fill="none" points="20.25877862609923,68.08854494884145 18.836641221307218,68.24786492733983 17.723664122400805,69.12412400130415 16.301526717608795,69.44276332575828 15.55954198492691,68.08854494884145 14.69389312993735,66.73432330827927 13.828244274947792,65.53941915044561 12.962595419958234,64.26485191454412 12.28244274831377,62.91062105866149 11.84961832081899,61.476726006367244 10.798473282717168,60.44113285961794 9.93282442772761,59.08689278794918 9.809160305419937,57.81231091544032 10.180152671644464,59.48519903019769 10.612977099372074,61.23774314194452 11.911450381856412,62.193673989735544 13.27175572514534,63.38858526293188 14.755725190741941,62.830960318329744 16.363358778879046,62.193673989735544 17.600000000093132,60.998760175774805 18.774809160269797,60.122488430701196 19.022137404652312,58.608924924745224 20.7534351143986,58.29027945629787 21.24809160316363,56.85637261340162 22.23740458022803,55.66144744917983 23.412213740404695,54.705505487916525 24.64885496185161,53.82922392827459 26.256488549755886,53.19192738994025 27.80229007638991,53.35125159227755 29.22442748094909,53.510575749271084 30.770229008048773,54.227533897268586 32.19236641237512,54.864829261321574 33.61450381670147,55.10381483606761 35.03664122172631,54.705505487916525 36.520610687322915,55.02415298903361 37.32442748080939,53.669899861328304 38.56106870225631,52.47496792051243 39.98320610681549,51.758007536118384 41.03435114515014,50.802058933943044 42.58015267201699,50.56307152914815 44.18778625968844,50.324084022897296 45.67175572528504,49.84610870515462 47.341221374226734,49.68678350909613 49.07251908420585,49.68678350909613 50.55648855003528,49.36813298088964 51.97862595436163,50.00543385621859 53.58625954226591,50.40374653611798 55.07022900786251,50.881721379526425 56.67786259553395,50.00543385621859 57.9145038172137,50.00543385621859 59.46030534361489,50.00543385621859 61.006106870481744,50.16475896217162 62.61374045815319,50.483409038221 64.0358778629452,51.04104623693274 65.64351145061664,51.35969581606332 66.88015267183073,51.519020537904 68.42595419869758,51.28003343846649 69.9717557253316,51.758007536118384 71.20839694677852,52.395305700658355 72.8160305346828,52.63429232616909 74.3000000002794,53.0326031424338 75.84580152714625,53.510575749271084 77.14427480939776,53.74956190038938 78.7519083970692,54.46651974343695 80.05038167978637,55.42246211139718 81.2251908397302,56.53772615158232 82.52366412244737,57.573326492507476 83.20381679409184,58.84790890692966 84.50229007657617,59.72418264020234 85.49160305364057,61.078421175829135 86.41908396990038,62.273334820521995 86.66641221381724,63.78688845562283 87.09923664154485,65.38009840407176 86.17175572528504,66.81398349523079 86.23358778655529,68.40718486072728 85.98625954217277,69.92072197352536 85.24427480949089,71.5139145302237 84.5641221376136,72.9477839692263 83.38931297743693,74.06301322521176 82.09083969471976,74.54096794320503 80.97786259581335,75.97482965741074 79.67938931332901,76.61210035625845 78.19541984773241,76.77141791803297 76.40229007648304,77.16971162462141 74.91832061088644,77.88663958519464 73.43435114528984,77.96629819099326 71.82671755738556,77.72732233966235 70.83740458032116,78.28493250149768 69.10610687057488,78.12561536894646 67.43664122140035,78.36459105066024 65.58167938957922,77.96629819099326 64.09770992374979,77.88663958519464 62.490076336078346,77.72732233966235 61.006106870481744,77.6476637001033 59.33664122154005,78.04595678573241 57.790839694673195,78.36459105066024 56.55419847345911,77.48834638681728 54.946564885554835,77.88663958519464 53.524427481228486,78.04595678573241 51.85496183228679,77.96629819099326 50.247328244382516,77.48834638681728 49.38167938962579,76.53244155849097 47.95954198483378,76.21380625438178 46.97022900800221,75.49687615933362 45.42442748090252,75.57653510378441 44.064122137613595,75.01892225444317 42.58015267201699,74.7002860919456 40.9106870230753,74.62062702327967 39.2412213741336,74.38164974906249 37.942748091649264,73.58505810087081 36.644274809164926,72.86812465178082 36.025954198790714,71.4342550097499 34.54198473296128,70.39868021494476 33.36717557278462,70.15970114513766 32.1305343513377,68.96480427123606 30.70839694677852,69.36310351151042 30.64656488550827,68.00888494285755 29.6572519086767,66.6546631102683 28.420610687229782,65.6190795066068 27.060305343708023,66.09704140701797 25.823664122261107,67.29194437904516 24.710687023121864,68.40718486072728 23.288549618562683,69.04446414206177 22.11374045815319,69.84106222714763 20.7534351143986,69.44276332575828 19.578625954221934,68.32752489956329 17.97099236655049,68.56650474871276 19.33129770983942,67.84956489672186 20.38244274817407,68.88514438923448 21.68091603065841,69.84106222714763 23.041221373947337,69.20378384948708 24.09236641228199,68.1682049438823 25.205343511421233,67.530924668652 26.627480916213244,66.73432330827927 27.86412213742733,65.77840018534334 29.28625954221934,65.93772081873612 30.770229008048773,66.33602220466128 32.316030534682795,66.25636195007246 33.92366412258707,66.49534268002026 35.46946564898826,66.89364367094822 36.644274809164926,67.84956489672186 37.38625954207964,68.96480427123606 38.31374045833945,70.00038170878543 38.499236641218886,71.19527638040017 39.61221374035813,72.46982789621688 39.98320610681549,73.90369489561999 40.97251908411272,75.01892225444317 42.765648854896426,75.57653510378441 43.631297710351646,76.45278274925658 44.68244274822064,77.80698096810374 45.11526717571542,79.08151748706587 45.60992366448045,80.43570937070763 45.67175572528504,81.9492140847724 45.60992366448045,83.542372537544 45.85725190863013,85.13552647351753 46.22824427508749,86.56936115393182 46.29007633612491,88.16250650788425 45.54809160344303,89.51667650736636 46.475572519004345,90.7115296793636 48.08320610690862,90.23358871531673 49.62900763377547,89.99461808102205 51.36030534352176,90.31324557104381 52.96793893142603,90.47255924803903 54.63740458036773,90.47255924803903 56.245038168272,90.23358871531673 57.790839694673195,90.47255924803903 57.667175572831184,88.87942044355441 57.35801526764408,87.12696254160255 57.48167938948609,85.53381425171392 57.35801526764408,84.02031919267029 57.17251908406615,82.34750412142603 57.234351145336404,80.59502584830625 57.60534351156093,78.92220058030216 59.089312977390364,78.36459105066024 60.82061068713665,78.44424958887976 62.3664122140035,78.52390811574878 64.0358778629452,78.44424958887976 65.5198473285418,78.52390811574878 66.32366412249394,79.5594679362257 66.32366412249394,81.07297501037829 66.20000000018626,82.66613594745286 66.20000000018626,84.25929236772936 65.95267175603658,85.77278678293806 65.89083969476633,87.2862771221553 66.26183206122369,89.03873452730477 67.37480916059576,89.5963334646658 68.61145038204268,89.43701953900745 70.34274809178896,89.43701953900745 71.95038167969324,89.51667650736636 73.55801526759751,89.51667650736636 75.04198473296128,89.35736255929805 76.77328244317323,89.51667650736636 78.4427480918821,89.1183915521251 78.8755725196097,87.52524890820496 78.99923664145172,86.09141666686628 78.07175572542474,84.57792310981313 78.69007633603178,83.0644254758954 78.62824427499436,81.47126566799125 78.69007633603178,79.87810134328902 79.06106870248914,78.44424958887976 79.92671755771153,77.16971162462141 81.34885496180505,76.05448853439884 82.64732824452221,75.41721720329951 83.82213740493171,74.4613088517217 84.74961832072586,73.1867618529941 85.67709923698567,71.99187141645234 86.79007633635774,71.59357403963804 87.59389313007705,72.86812465178082 88.95419847359881,73.26642112527043 90.5,73.58505810087081 89.1396946569439,72.9477839692263 88.45954198483378,72.86812465178082" stroke="#4DD2FF" stroke-linecap="round" stroke-linejoin="round" stroke-width="0.5"><title>2022-06-09 5.03km</title><desc>355264640</desc></polyline></svg>