<?xml version="1.0" encoding="utf-8" ?>
<svg baseProfile="full" height="130mm" version="1.1" viewBox="0,0,100,130" width="100mm" xmlns="http://www.w3.org/2000/svg" xmlns:ev="http://www.w3.org/2001/xml-events" xmlns:xlink="http://www.w3.org/1999/xlink"><defs /><rect fill="#FAF9F5" height="130" width="100" x="0" y="0" /><text fill="#5A5A5A" style="font-size:6px; font-family:Arial; font-weight:bold;color:#0ed45e;" x="5" y="10">MY TRACKS</text><text fill="#5A5A5A" style="font-size:4px; font-family:Arial" x="5" y="121">Runner</text><text fill="#5A5A5A" style="font-size:6px; font-family:Arial" x="2" y="128">蓝皮书</text><text fill="#5A5A5A" style="font-size:4px; font-family:Arial" x="25" y="121">WORKOUTS INFO</text><text fill="#5A5A5A" style="font-size:3px; font-family:Arial" x="25" y="125">Type: Run</text><text fill="#5A5A5A" style="font-size:3px; font-family:Arial" x="22" y="129">Date: 2022-07-05</text><text fill="#5A5A5A" style="font-size:3px; font-family:Arial" x="47" y="125">Distance: 5.12 km</text><text fill="#5A5A5A" style="font-size:3px; font-family:Arial" x="47" y="129">Duration: 35:08min</text><text fill="#5A5A5A" style="font-size:3px; font-family:Arial" x="75" y="125">Pace: 6:51/km</text><text fill="#5A5A5A" style="font-size:3px; font-family:Arial" x="75" y="129">Elevation: 0m</text><polyline fill="none" points="9.5,58.709741205733735 10.402147971326485,60.038059125537984 11.368735083611682,61.61543274158612 13.04415274481289,61.86449134506984 14.7195704060141,61.53241318342043 16.07279236265458,60.28711840003962 17.297136038541794,59.04182096821023 17.941527446266264,57.54746055434225 19.55250596650876,56.966319363738876 20.58353221975267,55.55497407069197 21.74343675444834,54.14362537598936 23.03221957036294,52.89831487915944 24.514319808920845,52.068106410093606 26.060859188670292,51.56998076371383 27.7362768498715,51.56998076371383 29.347255370114,51.985085498483386 30.893794749630615,52.64925246190978 32.50477326987311,53.064356431830674 34.24463007156737,53.23039793741191 35.92004773276858,53.14737719041295 37.53102625324391,53.562480807013344 39.077565632527694,53.977584129432216 40.62410501204431,54.30966657522367 42.170644391328096,54.06060475844424 43.71718377107754,53.64550149498973 45.19928400986828,53.064356431830674 46.68138424819335,52.64925246190978 48.22792362770997,52.151127310004085 49.77446300745942,51.653001734171994 51.385441527469084,51.403938787349034 53.12529832939617,51.071854693756904 54.7362768498715,50.82279149960959 56.41169451107271,50.65674931136891 57.958233890123665,50.32466479373397 59.698090692050755,50.15862246428151 61.30906921252608,49.992580087913666 62.98448687372729,49.909558881947305 64.78878281638026,49.992580087913666 66.52863961854018,49.992580087913666 68.20405727927573,50.15862246428151 69.81503579951823,50.40768594073597 71.42601431999356,50.65674931136891 73.10143198119476,50.90581257594749 74.77684964239597,51.23789676401066 76.38782816217281,51.73602269298863 77.99880668264814,52.068106410093606 79.60978520289063,52.4832107918337 81.22076372313313,52.73227327974746 83.0250596657861,52.98133566143224 84.57159904530272,53.47946010727901 85.98926014336757,54.30966657522367 87.21360381878912,55.63799447618658 88.30906921252608,57.13235976273427 89.08233890216798,58.62672123586526 89.6622911693994,60.28711840003962 90.04892601445317,62.11354984273203 90.37112171854824,63.773937120160554 90.43556085927412,65.43431968969526 90.24224343663082,67.01167877030093 89.8556085920427,68.6720521596726 89.40453460626304,70.33242084126687 88.63126491638832,71.90976672811667 87.79355608625337,73.40409049158916 86.76252983277664,74.64935738150962 85.40930787613615,75.64556898677256 83.92720763734542,76.64177889737766 82.63842482119799,77.55496982694604 81.67183770891279,78.96626209845999 80.7052505966276,80.37755096924957 80.51193317421712,82.03788646258181 80.31861575180665,83.78123366436921 80.12529832939617,85.35854332736926 79.99642004771158,87.01886469870806 79.99642004771158,88.67918136296794 79.0942720763851,90.00743130483897 77.61217183782719,89.92441577184945 75.8723150359001,90.00743130483897 74.13245823397301,89.8414002271602 72.32816229132004,89.75838467030553 70.58830548939295,89.8414002271602 68.97732696891762,89.92441577184945 67.68854415300302,89.26029108336661 68.01073985663243,87.59997606655816 68.07517899759114,85.9396563427872 68.07517899759114,84.2793319116463 68.20405727927573,82.70201934169745 68.13961813854985,81.20771930424962 68.20405727927573,79.5473814571742 67.62410501204431,77.8870389025542 65.94868735107593,77.72100438829511 64.3377088306006,77.97005614219233 62.597852028673515,77.97005614219233 60.92243436770514,77.8870389025542 59.24701670650393,77.97005614219233 58.40930787590332,79.04927918501198 58.66706443903968,80.62660159321968 58.28042959421873,82.20391975273378 58.08711217204109,83.86425006814534 58.08711217204109,85.52457567601232 58.473747016862035,86.93584874190856 58.66706443903968,88.51314990810351 58.21599045372568,90.17346233583521 56.47613365156576,90.00743130483897 54.80071599036455,89.8414002271602 52.93198090721853,89.75838467030553 51.1276849640999,89.75838467030553 49.32338902144693,89.75838467030553 47.64797136047855,89.5923535216134 46.55250596650876,88.51314990810351 46.29474940360524,86.93584874190856 46.48806682601571,85.27552713506157 46.423627685057,83.6982172486023 46.745823388919234,82.12090311356587 47.00357995252125,80.29453407082474 46.87470167106949,78.71721076843096 46.35918854433112,77.05686586012598 45.90811455878429,75.47953383711865 46.29474940360524,73.98521536955377 47.905727923847735,73.90219756530132 47.64797136047855,72.24183900520438 48.22792362770997,70.49845745059429 49.5167064438574,69.1701632582699 50.61217183782719,68.09092200890882 52.029832935659215,67.34375382465078 52.41646778071299,65.60035768779926 51.965393794933334,64.10601401072927 50.74105011951178,63.10978277423419 49.45226730289869,62.27958878251957 48.35680190939456,61.03429558791686 47.77684964239597,59.4569204064901 48.614558472530916,58.0455811159336 48.614558472530916,56.55121816002065 47.325775656383485,55.80403525166912 45.84367541759275,55.2228923306684 46.810262530110776,54.14362537598936 48.35680190939456,53.81154283572687 49.96778042986989,53.396439395844936 51.57875895011239,53.064356431830674 53.318615751573816,52.73227327974746 55.058472553733736,52.40018993895501 56.733890214934945,52.151127310004085 58.40930787590332,51.985085498483386 60.08472553710453,51.81904363987269 61.82458233903162,51.73602269298863 63.37112171854824,51.653001734171994 65.1109785202425,51.653001734171994 66.59307875903323,51.81904363987269 68.26849642023444,51.902064574940596 69.94391408120282,52.151127310004085 71.61933174240403,52.40018993895501 73.16587112192065,52.81529408541974 74.84128878288902,53.064356431830674 76.5167064438574,53.313418672652915 78.12768496433273,53.81154283572687 79.80310262553394,53.81154283572687 81.4140811455436,54.06060475844424 82.83174224360846,54.80778989120154 84.24940334144048,55.63799447618658 85.47374701686203,56.80027891753707 86.76252983277664,58.0455811159336 87.66467780433595,59.53994025872089 88.43794749397784,61.20033483352745 88.82458233903162,62.61166652030079 88.88902147999033,64.27205238543684 88.69570405757986,65.76639563875506 88.50238663493656,67.42677255900344 88.0513126491569,69.1701632582699 87.53579952265136,70.66449401248246 86.63365155132487,72.158820953744 85.66706443927251,73.40409049158916 84.37828162289225,74.56633967108792 82.89618138433434,75.39651624439284 81.54295942746103,76.30970911559416 80.06085918867029,76.64177889737766 78.32100238651037,76.55876146961236 76.58114558504894,76.30970911559416 75.0346062052995,75.97763914545067 73.23031026264653,75.8116040895693 71.55489260144532,76.06065665563801 69.81503579951823,75.8116040895693 68.33293556119315,75.8116040895693 66.46420047758147,75.56255141791189 64.78878281638026,75.8116040895693 63.177804296137765,75.7285865439917 61.56682577566244,75.39651624439284 59.89140811492689,75.39651624439284 58.34486873517744,75.23048102395842 56.60501193348318,75.14746339590056 54.80071599036455,74.98142810497666 53.189737470122054,75.06444575625937 51.51431980938651,75.23048102395842 49.8389021481853,75.06444575625937 48.22792362770997,74.31728646968259 46.48806682601571,73.98521536955377 44.8126491648145,74.06823316245573 43.201670644572005,73.90219756530132 41.977326969150454,73.15503679582616 41.59069212409668,71.4946761172032 40.946300716139376,69.91732911206782 40.04415274458006,68.33997785829706 39.142004773486406,67.09469755139435 37.85322195710614,66.09847139945487 36.30668257758953,65.01922448875848 34.56682577566244,64.3550715551828 32.82696897373535,64.10601401072927 31.022673031315207,63.85695636062883 29.47613365156576,62.943744070013054 27.929594272049144,62.11354984273203 26.383054892765358,62.445627674867865 24.900954653974622,63.02676342782797 23.289976133732125,63.773937120160554 22.065632458310574,64.68714811612153 20.776849642395973,65.51733869477175 19.359188544098288,66.34752809628844 17.941527446266264,67.09469755139435 16.58830548939295,68.00790336873615 16.394988066749647,69.58525551692583 17.361575179034844,70.99656699562911 17.16825775662437,70.83053052757168 16.58830548939295,69.33620019705268 17.03937947517261,70.83053052757168 17.490453460719436,70.66449401248246 16.846062052529305,69.41921864898177 17.81264916458167,68.17394063709071 18.90811455878429,67.01167877030093 20.06801909324713,65.84941459668335 20.776849642395973,65.43431968969526" stroke="#4DD2FF" stroke-linecap="round" stroke-linejoin="round" stroke-width="0.5"><title>2022-07-05 5.12km</title><desc>356782308</desc></polyline></svg>