<?xml version="1.0" encoding="utf-8" ?>
<svg baseProfile="full" height="130mm" version="1.1" viewBox="0,0,100,130" width="100mm" xmlns="http://www.w3.org/2000/svg" xmlns:ev="http://www.w3.org/2001/xml-events" xmlns:xlink="http://www.w3.org/1999/xlink"><defs /><rect fill="#222222" height="130" width="100" x="0" y="0" /><text fill="#FFFFFF" style="font-size:6px; font-family:Arial; font-weight:bold;color:#0ed45e;" x="5" y="10">MY TRACKS</text><text fill="#FFFFFF" style="font-size:4px; font-family:Arial" x="5" y="121">Runner</text><text fill="#FFFFFF" style="font-size:6px; font-family:Arial" x="2" y="128">蓝皮书</text><text fill="#FFFFFF" style="font-size:4px; font-family:Arial" x="25" y="121">WORKOUTS INFO</text><text fill="#FFFFFF" style="font-size:3px; font-family:Arial" x="25" y="125">Type: Run</text><text fill="#FFFFFF" style="font-size:3px; font-family:Arial" x="22" y="129">Date: 2022-08-08</text><text fill="#FFFFFF" style="font-size:3px; font-family:Arial" x="47" y="125">Distance: 4.56 km</text><text fill="#FFFFFF" style="font-size:3px; font-family:Arial" x="47" y="129">Duration: 34:12min</text><text fill="#FFFFFF" style="font-size:3px; font-family:Arial" x="75" y="125">Pace: 7:29/km</text><text fill="#FFFFFF" style="font-size:3px; font-family:Arial" x="75" y="129">Elevation: 0m</text><polyline fill="none" points="75.49842819012702,67.75025756820105 72.00549282319844,59.65024149371311 65.36891562119126,53.350214700214565 56.985870737582445,48.85018790746108 48.9521193895489,42.550139679107815 40.91836804151535,40.75012360140681 32.18602962233126,43.45014733308926 27.64521364122629,51.550204747822136 24.501571809872985,61.00024560885504 21.008636441081762,69.10025823884644 20.65934290550649,77.65024914685637 22.755104126408696,85.30022149253637 26.59733303077519,94.30016535148025 32.18602962233126,100.60011087264866 40.219780968502164,103.75007894448936 48.60282585397363,106.45004908880219 57.68445781059563,104.20007412717678 65.01962208561599,99.7001194213517 72.35478635877371,96.55014733108692 77.94348294846714,88.45020474633202 81.08712478168309,79.45024429843761 78.29277648590505,70.0002583663445 72.70407989434898,61.900248031830415 66.41679623164237,54.70022149500437 59.08163195848465,48.85018790746108 52.09576122276485,43.000143537763506 44.0620098747313,41.20012771640904 35.32967145368457,44.35015473375097 28.693094251677394,50.65019939024933 24.501571809872985,58.30023680487648 22.40581058897078,67.30025721853599 20.310049368068576,75.8502529754769 21.008636441081762,84.85022362950258 24.8508653473109,94.30016535148025 30.7888554725796,100.15011517843232 38.822606820613146,103.75007894448936 47.55494524165988,108.7000224548392 55.93799012713134,110.5 62.57456732727587,106.00005422369577 68.86185098998249,101.05010650283657 73.75196050666273,93.85016876575537 77.94348294846714,85.75021929084323 79.34065709635615,77.20025020022877 76.54630880244076,68.65025808033533 72.70407989434898,60.55024430016056 66.76608976908028,54.25021929340437 60.47880610637367,48.85018790746108 53.84222890622914,43.45014733308926 46.15777109563351,38.05009757401422 38.12401974759996,42.550139679107815 31.138149010017514,47.95018178294413 26.946626568213105,55.600225704256445 22.755104126408696,63.70025211572647 19.262168757617474,71.35025807865895 19.61146229505539,79.45024429843761 22.056517051532865,88.00020732870325 25.549452420324087,96.1001510634087 33.233910232782364,101.05010650283657 40.56907450594008,105.10006430419162 48.9521193895489,103.75007894448936 56.985870737582445,101.50010206946172 66.0675026960671,100.60011087264866 72.35478635877371,95.6501547312364 77.59418941102922,88.00020732870325 79.34065709635615,79.90024292655289 77.59418941102922,71.80025785625912 74.45054757967591,63.25025118957274 69.2111445274204,55.600225704256445 62.57456732727587,49.750193775165826 55.58869658969343,43.900151065783575 47.20565170608461,40.75012360140681 38.473313285037875,42.550139679107815 31.48744254745543,48.40018487605266 26.946626568213105,55.600225704256445 22.755104126408696,64.15025297622196 19.262168757617474,72.25025756889954 21.357929980382323,81.25023842952214 24.152278274297714,89.35019938764162 29.740974862128496,96.55014733108692 37.42543267458677,101.50010206946172 45.459184020757675,104.20007412717678 54.191522443667054,103.30008369754069 62.57456732727587,100.60011087264866 69.2111445274204,95.20015833573416 73.40266696922481,87.55020984914154 75.49842819012702,79.0002456069924 75.14913465455174,70.45025833440013 72.00549282319844,62.80025020171888 66.76608976908028,56.050227714469656 59.430925495922565,51.100202101049945 52.79434829391539,46.15016876836307 45.459184020757675,42.10013575502671 37.07613913714886,43.900151065783575 30.090268399566412,48.85018790746108 26.946626568213105,56.950231542112306 23.104397663846612,64.60025377338752 21.008636441081762,73.15025680325925 22.056517051532865,82.15023511298932 25.200158884748816,90.70019087009132 29.740974862128496,97.90013575227931 36.377552062273026,103.30008369754069 44.76059694774449,105.55005929572508 53.84222890622914,103.75007894448936 62.57456732727587,102.85008838563226 69.90973160043359,97.90013575227931 75.49842819012702,89.80019661271945 76.54630880244076,81.25023842952214 77.59418941102922,73.15025680325925 74.45054757967591,64.60025377338752 69.56043806299567,56.50022965925746 64.32103501074016,50.20019661495462 58.03375134803355,44.80015833838843 50.0,42.10013575502671 41.61695511639118,41.65013176831417 33.58320376649499,43.45014733308926 29.740974862128496,51.100202101049945 24.8508653473109,58.750238431151956 21.357929980382323,66.40025632479228 20.310049368068576,75.40025377226993 21.357929980382323,85.30022149253637 24.501571809872985,93.40017211530358 30.090268399566412,99.7001194213517 37.42543267458677,104.65006924746558 46.15777109563351,106.00005422369577 53.84222890622914,103.30008369754069 62.92386086471379,101.05010650283657 71.65619928389788,97.45013967598788 77.2448958735913,91.60018487344496 78.99136355891824,82.60023335763253 77.94348294846714,73.60025632381439 74.10125404410064,65.95025578327477 69.90973160043359,57.85023511433974 62.92386086471379,52.45020985137671 55.93799012713134,47.50017862417735 47.904238779097795,43.900151065783575 39.52119389362633,41.20012771640904 34.63108437880874,33.550049090525135 26.59733303077519,30.40001135529019 34.63108437880874,34.4500592967961 39.52119389362633,42.10013575502671 32.53532315790653,47.050175403477624 28.693094251677394,55.600225704256445 25.200158884748816,63.25025118957274 22.056517051532865,72.25025756889954 21.357929980382323,81.70023680361919 24.501571809872985,90.25019377330318 30.090268399566412,96.55014733108692 37.42543267458677,101.50010206946172 46.85635816864669,103.75007894448936 54.540815979242325,104.65006924746558 62.57456732727587,99.7001194213517 69.2111445274204,93.40017211530358 73.75196050666273,85.75021929084323 75.84772172756493,77.65024914685637 74.45054757967591,68.20025785593316 71.65619928389788,60.10024292883463 65.01962208561599,54.25021929340437 57.335164273157716,49.750193775165826 49.650706462562084,44.80015833838843 40.91836804151535,43.000143537763506 35.32967145368457,35.35006924835034 27.994507178664207,30.40001135529019 34.63108437880874,35.35006924835034 39.17190035805106,42.550139679107815 32.18602962233126,47.95018178294413 28.343800716102123,55.600225704256445 24.8508653473109,63.25025118957274 22.40581058897078,71.80025785625912 21.70722351409495,80.80023999186233 24.152278274297714,89.35019938764162 29.391681326553226,96.55014733108692 36.377552062273026,101.05010650283657 45.459184020757675,103.30008369754069 53.49293536879122,99.7001194213517 62.2252737917006,99.25012360024266 68.51255745254457,94.30016535148025 73.75196050666273,86.6502146977 76.54630880244076,77.65024914685637 76.89560233801603,69.10025823884644 73.40266696922481,60.55024430016056 67.81397037953138,52.45020985137671 60.12951256893575,47.95018178294413 52.79434829391539,43.900151065783575 44.0620098747313,41.20012771640904 38.12401974759996,36.70008369884454 31.8367360830307,29.950005708727986 31.48744254745543,31.300022455165163 37.42543267458677,37.60009301197715 37.42543267458677,37.60009301197715 31.48744254745543,32.20003330009058 31.48744254745543,31.750027908943594 36.377552062273026,37.60009301197715 38.822606820613146,37.15008838684298 31.138149010017514,31.750027908943594 30.7888554725796,30.850016937358305 37.42543267458677,36.70008369884454 36.72684559971094,38.05009757401422 31.138149010017514,31.300022455165163 30.7888554725796,31.750027908943594 36.377552062273026,38.05009757401422 39.52119389362633,41.65013176831417" stroke="#4DD2FF" stroke-linecap="round" stroke-linejoin="round" stroke-width="0.5"><title>2022-08-08 4.56km</title><desc>358781260</desc></polyline></svg>