<?xml version="1.0" encoding="utf-8" ?>
<svg baseProfile="full" height="130mm" version="1.1" viewBox="0,0,100,130" width="100mm" xmlns="http://www.w3.org/2000/svg" xmlns:ev="http://www.w3.org/2001/xml-events" xmlns:xlink="http://www.w3.org/1999/xlink"><defs /><rect fill="#FAF9F5" height="130" width="100" x="0" y="0" /><text fill="#5A5A5A" style="font-size:6px; font-family:Arial; font-weight:bold;color:#0ed45e;" x="5" y="10">MY TRACKS</text><text fill="#5A5A5A" style="font-size:4px; font-family:Arial" x="5" y="121">Runner</text><text fill="#5A5A5A" style="font-size:6px; font-family:Arial" x="2" y="128">蓝皮书</text><text fill="#5A5A5A" style="font-size:4px; font-family:Arial" x="25" y="121">WORKOUTS INFO</text><text fill="#5A5A5A" style="font-size:3px; font-family:Arial" x="25" y="125">Type: Run</text><text fill="#5A5A5A" style="font-size:3px; font-family:Arial" x="22" y="129">Date: 2022-10-23</text><text fill="#5A5A5A" style="font-size:3px; font-family:Arial" x="47" y="125">Distance: 10.23 km</text><text fill="#5A5A5A" style="font-size:3px; font-family:Arial" x="47" y="129">Duration: 01:10:44</text><text fill="#5A5A5A" style="font-size:3px; font-family:Arial" x="75" y="125">Pace: 6:54/km</text><text fill="#5A5A5A" style="font-size:3px; font-family:Arial" x="75" y="129">Elevation: 0m</text><polyline fill="none" points="43.44156928220764,74.7041212755721 40.93989983317442,74.18148342275526 40.0609348914586,71.65539419965353 39.04674457432702,69.30350869061658 37.221202003303915,66.95161417941563 35.19282136927359,65.29657190467697 33.02921535912901,64.0770642181742 30.662771285511553,63.554417325532995 27.89065108494833,63.728633005870506 25.321368948323652,64.33838749746792 23.42821368947625,65.9063248403836 21.805509181926027,68.17111616110196 19.4390651085414,69.2164016472525 17.41068447427824,67.64847275102511 15.247078464133665,68.17111616110196 13.015859766164795,68.43243769917171 11.73121869773604,66.16764734184835 10.176126878010109,63.98995643341914 10.311352253658697,62.16069010546198 12.06928213685751,61.028284411586355 14.232888146769255,59.37322618125472 16.464106844970956,57.89238082797965 18.2896494155284,56.063096346275415 19.77712854766287,54.05958804563852 21.467445743037388,52.143182688741945 24.10434056748636,51.0978681560955 26.538397328928113,51.44630653120112 29.107679465785623,52.2302921526134 31.879799666348845,52.75294867804041 34.38146911514923,52.31740160443587 36.74791318876669,50.83653924521059 39.114357262151316,51.620525644742884 41.61602671118453,51.53341609425843 44.18530884827487,51.7076351827709 46.68697829730809,51.18497776828008 49.25626043439843,50.13966160576092 51.960767946904525,49.87833228724776 54.46243739570491,49.52989302290371 57.099332220386714,49.442783175909426 59.871452420949936,49.442783175909426 62.440734557574615,49.00723375583766 65.01001669466496,49.094343664706685 67.57929883152246,49.442783175909426 70.1485809686128,49.791222489846405 72.65025041741319,50.13966160576092 75.28714524186216,50.57521022297442 77.8564273789525,50.57521022297442 80.29048414039426,52.05607321229763 82.85976627701893,52.75294867804041 85.63188647758216,52.8400580555317 87.38981636078097,54.84357033256674 88.26878130226396,57.45683739782544 89.48580968310125,59.808768253191374 90.22954924893565,62.33490618108772 90.43238731240854,65.12235666904598 90.22954924893565,67.73558001680067 89.35058430721983,70.00036459486 88.1335559268482,72.17803420120617 86.24040066776797,74.00727070629364 84.00918197003193,75.4009710548562 81.98080133576877,76.8817742113024 80.89899833034724,79.23363071325002 80.89899833034724,81.84679404675262 81.03422370646149,84.54705114965327 80.96661101840436,87.160191886127 80.6285475792829,89.77332151000155 78.6001669447869,90.7314662541612 76.0308848079294,90.90567422902677 73.59682804672047,90.81857024767669 70.95993322203867,90.7314662541612 68.45826377300546,90.7314662541612 67.44407345610671,88.98938378953608 67.78213689476252,86.55046004167525 67.71452420717105,84.02442166861147 67.64691151911393,81.32416226918576 67.37646076804958,78.88520809583133 64.80717863119207,78.62389100319706 62.102671118685976,78.53678528091405 59.60100166941993,78.44967954611639 58.04590984992683,79.58205313317012 57.978297161869705,82.19521498505492 58.11352253775112,84.9825753774494 57.978297161869705,87.50860981142614 57.77545909862965,89.94752975628944 55.94991652760655,90.90567422902677 53.31302170292474,90.99277819809504 50.54090150259435,90.90567422902677 48.039232053561136,90.90567422902677 45.605175292352214,90.12173795333365 45.469949916470796,87.50860981142614 45.4023372286465,84.9825753774494 45.53756260452792,82.54363572533475 45.06427378975786,80.01758088025963 44.11769616021775,77.49151565047214 42.96828046743758,75.05254626407987 40.39899833058007,74.09437707066536 40.0609348914586,71.5682874894701 38.97913188650273,69.30350869061658 37.35642737871967,67.21293623652309 35.39565943251364,65.47078709100606 33.02921535912901,64.0770642181742 30.527545910095796,63.64152517175535 27.89065108494833,63.46730946702883 25.524207011796534,64.33838749746792 23.56343906512484,65.9063248403836 22.075959933223203,67.90979451144813 19.844741235254332,69.2164016472525 17.613522537751123,67.99690174026182 15.720367278670892,67.4742581822793 13.759599331999198,68.9550804423634 12.06928213685751,67.21293623652309 10.784641068428755,64.9481413840549 10.243739565834403,62.85755411058199 11.798831385793164,61.55093345284695 13.827212020056322,59.89587663038401 15.85559265455231,58.24081534991274 17.681135225342587,56.324423034267966 19.168614357477054,54.32091558590764 21.061769616091624,52.6658392882091 23.2253756262362,51.3591969559202 25.727045075036585,51.0978681560955 28.22871452430263,51.881854222214315 30.527545910095796,52.75294867804041 33.16444073454477,52.6658392882091 35.4632721201051,51.53341609425843 37.82971619372256,50.74942958337488 40.0609348914586,51.96896372316405 42.76544240419753,51.620525644742884 45.33472454105504,51.620525644742884 47.90400667814538,51.0978681560955 50.47328881477006,50.48810052429326 53.11018363945186,50.13966160576092 55.61185308871791,49.791222489846405 58.11352253775112,49.35567331657512 60.81803005049005,49.00723375583766 63.25208681146614,48.833013901428785 65.95659432373941,49.35567331657512 68.59348914842121,49.52989302290371 71.16277128551155,49.61700285744155 73.73205342236906,50.22677135403501 76.30133555922657,50.662319909373764 78.80300500825979,51.620525644742884 81.43989983340725,52.40451104386011 83.73873121896759,53.71115115255816 85.96994991670363,55.10489753948059 87.8631051753182,57.10840243118582 89.14774624397978,59.37322618125472 90.0943238735199,61.899365899851546 90.29716193652712,64.51260295539396 90.0943238735199,67.12582889635814 89.28297161962837,69.651936741604 87.99833055096678,72.0038209167542 86.17278798017651,73.74595153896371 84.21202003350481,75.4880772214965 81.98080133576877,76.8817742113024 80.76377295493148,79.23363071325002 80.76377295493148,81.75968878128333 80.69616026734002,84.63415601989254 80.5609348914586,87.2472963858745 80.6285475792829,89.94752975628944 78.6001669447869,90.7314662541612 75.96327212033793,90.6443622483639 73.05592654435895,90.29594610136701 70.08096828055568,90.2088420332293 67.44407345610671,89.86042563931551 67.37646076804958,87.2472963858745 67.51168614369817,84.72126087761717 67.57929883152246,82.10810976882931 67.64691151911393,79.49494754668558 65.95659432373941,78.53678528091405 63.116861436050385,78.44967954611639 60.61519198655151,78.44967954611639 58.04590984992683,78.71099671314005 58.24874791339971,81.32416226918576 58.11352253775112,83.76310676138382 58.45158597687259,86.55046004167525 58.11352253775112,89.07648803014308 56.69365609367378,91.16698609851301 54.05676126899198,90.81857024767669 51.35225375625305,90.55725822999375 48.51252086809836,90.4701541994582 45.7404006680008,90.03463386109797 45.267111852997914,87.68281869980274 45.19949916563928,84.9825753774494 45.33472454105504,82.28232018859126 45.33472454105504,79.40784194797743 44.45575959933922,77.05598611274036 43.23873121896759,74.96544003527379 40.804674457525834,74.09437707066536 40.39899833058007,71.5682874894701 38.97913188650273,69.12929459114093 37.559265442192554,67.12582889635814 35.328046744689345,65.55789466557326 33.02921535912901,64.51260295539396 30.59515859745443,63.64152517175535 27.89065108494833,63.728633005870506 25.659432387445122,64.68681836401811 23.495826377533376,66.16764734184835 21.737896494334564,68.25822335272096 19.371452420717105,69.04218752292218 17.545909849694,67.30004356399877 15.179465776309371,67.99690174026182 12.813021702691913,68.86797334934818 11.257929883198813,66.60318459756672 10.311352253658697,64.42549523251364 10.243739565834403,62.16069010546198 12.06928213685751,61.2025008079363 14.165275459410623,59.634551461436786 15.990818029968068,57.89238082797965 17.883973288582638,56.063096346275415 19.64190317178145,54.05958804563852 21.467445743037388,52.40451104386011 23.90150250401348,51.27208736835746 26.606010016752407,51.44630653120112 29.107679465785623,52.49162047082791 31.81218697829172,53.01427677372703 34.38146911514923,52.31740160443587 36.545075125293806,50.662319909373764 38.70868113520555,51.3591969559202 41.41318864771165,51.620525644742884 43.8472454091534,51.881854222214315 44.793823038227856,54.233806418138556 45.943238731473684,55.19200658350019 47.836393990088254,57.02129365853034 46.61936560925096,59.286117729963735 47.76878130203113,61.463825310289394 49.86477462458424,63.0317699884763 51.35225375625305,64.86103372310754 50.946577629540116,67.4742581822793 48.64774624397978,68.86797334934818 46.822203672956675,70.6972197087598 46.28130217036232,73.22331287077395 44.86143572605215,74.5299087073654 47.2954924874939,75.57518337597139 49.79716193675995,76.6204562666826 52.501669449266046,77.23019796493463 54.93572621047497,78.1012564842822 57.36978297168389,78.44967954611639 60.209515859605744,78.3625737989787 62.778797996696085,78.44967954611639 65.28046744549647,78.3625737989787 68.05258764605969,78.62389100319706 70.48664440750144,78.27546803990845 72.98831385630183,78.1012564842822 75.48998330556788,78.18836226832354 78.19449081784114,77.83993905800162 80.6285475792829,77.66572737880051 82.79215358942747,76.5333502603462 84.95575959933922,75.13965248013847 86.71368948277086,73.39752580982167 88.40400667791255,71.48118076688843 89.55342237092555,69.04218752292218 90.22954924893565,66.77739941311302 90.22954924893565,64.0770642181742 89.68864774657413,61.463825310289394 88.9449081805069,58.93768380075926 87.93071786337532,56.41153190541081 85.4966611021664,55.19200658350019 83.19782971660607,53.79826039454201 81.03422370646149,52.75294867804041 78.66777963284403,51.7076351827709 76.0308848079294,51.18497776828008 73.59682804672047,50.31388108996907 71.23038397310302,49.9654420724255 68.7963272118941,49.35567331657512 66.22704507550225,49.61700285744155 63.657762938179076,49.442783175909426 61.0884808015544,49.61700285744155 58.38397328881547,49.791222489846405 55.61185308871791,49.9654420724255 53.04257095162757,50.400990813272074 50.405676126945764,50.74942958337488 47.97161936550401,51.44630653120112 45.33472454105504,52.05607321229763 44.388146911747754,54.233806418138556 46.34891485795379,55.36622463486856 47.701168614439666,57.28261993918568 46.61936560925096,59.547443047049455 48.10684474138543,61.63804158300627 50.270450751064345,63.29309371247655 51.48747913190164,65.38367950392421 50.13522537564859,67.90979451144813 47.90400667814538,69.12929459114093 46.34891485795379,71.21986052527791 46.01085141883232,74.00727070629364 44.590984975220636,74.96544003527379 42.08931552595459,74.44280240481021 40.466611018637195,73.22331287077395 39.587646076921374,70.6972197087598 38.438230383908376,68.25822335272096 36.40984974941239,66.5160771709634 33.9757929884363,65.03524903260404 31.33889816328883,64.16417199018179 30.662771285511553,64.0770642181742 33.23205342260189,64.51260295539396 35.59849749598652,65.81921731535112 37.559265442192554,67.64847275102511 38.97913188650273,69.9132576501579 39.92570951581001,72.35224743629806 40.93989983317442,74.35569608956575 43.576794657856226,74.44280240481021 46.21368948253803,74.35569608956575" stroke="#89CFF0" stroke-linecap="round" stroke-linejoin="round" stroke-width="0.5"><title>2022-10-23 10.23km</title><desc>363113114</desc></polyline></svg>