<?xml version="1.0" encoding="utf-8" ?>
<svg baseProfile="full" height="130mm" version="1.1" viewBox="0,0,100,130" width="100mm" xmlns="http://www.w3.org/2000/svg" xmlns:ev="http://www.w3.org/2001/xml-events" xmlns:xlink="http://www.w3.org/1999/xlink"><defs /><rect fill="#222222" height="130" width="100" x="0" y="0" /><text fill="#FFFFFF" style="font-size:6px; font-family:Arial; font-weight:bold;color:#0ed45e;" x="5" y="10">MY TRACKS</text><text fill="#FFFFFF" style="font-size:4px; font-family:Arial" x="5" y="121">Runner</text><text fill="#FFFFFF" style="font-size:6px; font-family:Arial" x="2" y="128">蓝皮书</text><text fill="#FFFFFF" style="font-size:4px; font-family:Arial" x="25" y="121">WORKOUTS INFO</text><text fill="#FFFFFF" style="font-size:3px; font-family:Arial" x="25" y="125">Type: Run</text><text fill="#FFFFFF" style="font-size:3px; font-family:Arial" x="22" y="129">Date: 2022-06-18</text><text fill="#FFFFFF" style="font-size:3px; font-family:Arial" x="47" y="125">Distance: 11.23 km</text><text fill="#FFFFFF" style="font-size:3px; font-family:Arial" x="47" y="129">Duration: 01:17:32</text><text fill="#FFFFFF" style="font-size:3px; font-family:Arial" x="75" y="125">Pace: 6:54/km</text><text fill="#FFFFFF" style="font-size:3px; font-family:Arial" x="75" y="129">Elevation: 0m</text><polyline fill="none" points="9.88297872338444,54.00587623286992 11.98936170223169,54.746007852605544 14.28723404277116,54.3348237357568 16.07446808507666,52.77232143445872 17.73404255323112,50.88086564838886 19.84042553184554,52.032187296194024 22.07446808507666,51.20981492387364 24.24468085099943,49.81177921470953 25.90425531915389,50.30520396749489 26.4148936169222,53.01903260417748 26.47872340446338,55.40390183276031 26.47872340446338,58.03547029173933 28.13829787238501,59.26901389664272 30.37234042561613,58.61112430051435 32.86170212761499,58.94006919203093 35.41489361715503,59.43348617927404 37.77659574477002,58.44665178487776 39.62765957415104,59.51572230301099 41.67021276592277,58.44665178487776 43.96808510622941,57.788761255913414 46.4574468084611,57.29534286935814 49.01063829800114,57.13086998061044 51.56382978730835,57.13086998061044 53.79787234053947,58.03547029173933 56.09574468084611,57.788761255913414 58.4574468084611,57.213106430717744 60.81914893607609,57.29534286935814 63.24468085123226,58.03547029173933 65.79787234053947,58.7755967695266 68.22340425522998,58.94006919203093 70.58510638284497,59.186777737981174 72.81914893607609,59.59795841493178 75.43617021292448,60.17361087317113 77.60638297884725,60.50255487870891 79.96808510622941,61.40714993112488 81.81914893630892,62.47621499275556 83.92553191492334,63.54527808399871 85.71276595746167,64.86104533739854 87.3723404253833,66.58798532828223 88.77659574453719,68.89056398440152 89.60638297884725,71.27536795689957 90.18085106392391,73.74239623104222 90.11702127661556,76.29164775827667 89.35106382961385,78.75865469791461 88.07446808484383,81.06118504196638 86.60638297861442,83.03477520542219 84.69148936169222,84.51496342103928 82.90425531938672,85.9951478598523 81.3723404253833,87.63979280652711 80.54255319130607,90.02451969671529 80.4148936169222,92.491468231834 79.77659574477002,94.87617517646868 79.52127659576945,97.67202600644669 78.11702127661556,98.82325478451094 75.81914893630892,98.98771585198119 73.26595744653605,98.74102423316799 71.03191489353776,98.41210191178834 68.60638297861442,98.32987130235415 67.39361702138558,96.52079494373174 67.39361702138558,93.97163231705781 67.3297872338444,91.42245848797029 67.90425531915389,89.11996927158907 67.4574468084611,86.89970315760002 64.90425531915389,86.81747091619764 62.54255319177173,86.89970315760002 60.05319148930721,87.146399812249 58.01063829776831,87.72202493157238 57.88297872338444,90.27121502225054 57.43617021269165,92.73816250823438 57.30851063807495,95.205099502753 58.01063829776831,97.50756456592353 56.86170212784782,99.0699463681085 54.62765957438387,98.74102423316799 52.3297872338444,98.57656309590675 50.03191489353776,98.65879367029993 47.35106382984668,98.08317940367851 46.58510638284497,96.10964043909917 46.64893617015332,93.6427072911174 47.09574468084611,90.9290687108878 46.96808510622941,88.29764947958756 46.01063829800114,86.07738021813566 44.28723404253833,83.93933511927025 42.30851063807495,82.78807680204045 41.79787234030664,80.321086999611 40.58510638284497,78.10078720661113 39.18085106392391,76.04494648711989 37.52127659576945,74.23580062692054 35.22340425546281,73.41345973400166 32.73404255299829,72.92005463893292 30.30851063854061,72.5088834054186 27.94680851069279,72.92005463893292 26.03191489377059,74.89367250161013 23.86170212761499,76.04494648711989 22.64893617038615,78.01855371770216 20.60638297861442,77.60738609841792 18.69148936169222,76.62058262294158 16.32978723407723,76.70281631016405 14.73404255299829,75.88047891500173 13.4574468084611,73.82463032606756 13.01063829776831,71.27536795689957 15.24468085099943,70.69972651626449 17.22340425546281,69.21950304618804 18.69148936169222,67.08139580959687 20.4148936169222,65.35445728775812 21.94680851092562,63.54527808399871 23.79787234053947,61.818329034082126 26.15957446815446,61.24267820827663 25.26595744653605,63.38080696744146 25.07446808507666,65.93010403320659 26.86170212761499,67.32810089294799 29.47872340423055,66.67022043763427 30.18085106369108,64.44986839144258 28.5851063830778,62.7229220350855 26.22340425522998,62.7229220350855 27.11702127638273,61.16044232941931 29.47872340423055,61.32491407543421 31.90425531915389,62.14727210684214 34.39361702115275,62.14727210684214 36.88297872361727,61.32491407543421 38.98936170223169,59.84466668125242 41.35106382984668,58.85783298674505 43.90425531915389,58.03547029173933 46.39361702138558,57.45981571159791 48.94680851045996,56.9663970451802 51.50000000023283,57.048633518628776 53.60638297861442,58.28217922250042 56.22340425522998,57.870997612772044 58.52127659600228,57.048633518628776 61.20212765969336,57.13086998061044 63.30851063807495,58.19994292373303 65.73404255323112,58.7755967695266 68.09574468084611,58.94006919203093 70.39361702138558,59.26901389664272 72.75531914876774,59.92690274678171 74.98936170199886,60.17361087317113 77.41489361715503,60.74926275998587 79.71276595722884,61.57162160729058 82.13829787215218,62.14727210684214 83.98936170223169,63.62751362466952 85.77659574477002,64.86104533739854 87.62765957438387,66.83469062112272 89.09574468084611,68.64385956549086 89.79787234053947,71.11089903209358 90.2446808507666,73.33122558041941 89.98936170223169,75.88047891500173 89.22340425522998,78.18302068376215 88.52127659576945,80.65001957950881 86.92553191492334,82.70584397763014 85.01063829776831,84.26826564740622 83.15957446792163,85.91291549033485 81.5,87.72202493157238 79.5851063830778,88.21541743620764 77.54255319130607,87.31086419033818 75.18085106369108,87.80425704462687 72.75531914876774,88.62657753640087 70.20212765946053,89.03773734491551 68.22340425522998,87.39309636189137 65.73404255323112,87.39309636189137 63.24468085123226,87.22863200708525 60.75531914876774,86.98193538724445 58.20212765946053,86.89970315760002 55.71276595746167,87.22863200708525 53.22340425546281,87.72202493157238 50.47872340423055,87.0641676055966 48.69148936192505,85.58398589468561 46.90425531938672,84.1038004066213 44.47872340423055,83.11700798309175 41.98936170223169,82.87030961492565 41.5425531915389,80.65001957950881 43.07446808530949,78.67642130242893 43.71276595746167,76.70281631016405 43.52127659576945,74.40026866534026 42.75531914876774,72.17994620889658 43.96808510622941,69.95961525361054 42.24468085099943,68.23268530122004 41.2872340423055,65.93010403320659 41.22340425546281,63.54527808399871 43.39361702138558,62.55845068505732 45.88297872338444,62.3117435729946 48.11702127661556,61.32491407543421 50.5425531915389,61.16044232941931 52.90425531938672,60.42031889472855 55.39361702138558,60.00913880072767 57.81914893607609,59.680194515385665 60.18085106369108,59.351250043779146 62.67021276592277,59.26901389664272 65.22340425546281,59.26901389664272 67.71276595746167,59.51572230301099 70.26595744676888,60.00913880072767 72.75531914876774,60.338082899106666 75.30851063830778,60.99597053666366 77.60638297884725,61.653857428056654 79.96808510622941,62.55845068505732 82.52127659576945,63.79198467131937 84.56382978754118,65.27222199202515 86.15957446815446,67.24586587696103 87.30851063830778,69.54844192153541 88.07446808484383,71.68654006428551 88.4574468084611,73.98909848142648 88.52127659576945,76.37388149177423 87.94680851069279,78.67642130242893 86.79787234030664,80.814485799463 85.39361702115275,82.87030961492565 83.22340425522998,84.26826564740622 81.18085106369108,85.50175346672768 78.88297872338444,85.9951478598523 76.39361702161841,86.07738021813566 73.96808510646224,85.91291549033485 71.54255319130607,85.9951478598523 68.98936170199886,85.9951478598523 66.56382978730835,85.91291549033485 64.13829787238501,85.91291549033485 61.5851063830778,85.74845071573509 58.96808510622941,85.9951478598523 56.54255319177173,85.9951478598523 54.11702127661556,85.91291549033485 51.56382978730835,85.74845071573509 49.90425531915389,84.8438936228049 47.98936170199886,83.69263710087398 47.03191489377059,81.71904917585198 47.73404255323112,79.33428814070066 49.64893617015332,77.68961964553455 51.69148936169222,76.20941401273012 52.07446808507666,73.906864409626 50.73404255323112,71.93324318912346 48.81914893607609,70.45302286715014 47.47872340423055,68.39715504174819 48.62765957438387,66.34127993002767 46.90425531938672,64.86104533739854 46.58510638284497,63.62751362466952 49.01063829800114,63.13410020497395 51.30851063807495,62.55845068505732 53.79787234053947,61.9828005937743 56.35106383007951,61.818329034082126 59.09574468107894,61.40714993112488 61.64893616992049,61.16044232941931 64.13829787238501,61.078206438804045 66.56382978730835,61.40714993112488 69.05319148954004,61.24267820827663 71.47872340423055,61.73609323694836 74.03191489353776,61.9828005937743 76.26595744676888,62.88739333790727 78.30851063830778,62.7229220350855 80.4148936169222,62.7229220350855 82.5851063830778,64.28539753129007 84.43617021269165,65.60116310592275 85.90425531892106,67.5748058714089 87.18085106369108,69.7129112892435 87.88297872338444,72.2621805255767 88.07446808484383,75.05814035370713 87.75531914900057,77.52515253977617 87.05319148930721,79.74545453611063 85.90425531892106,81.88351509271888 84.11702127661556,83.69263710087398 81.81914893630892,84.9261261440115 79.64893617015332,86.07738021813566 77.28723404253833,85.66621831117664 74.86170212761499,85.83068310871022 72.30851063830778,85.74845071573509 69.81914893607609,85.83068310871022 67.39361702138558,85.74845071573509 65.15957446792163,85.83068310871022 62.60638297861442,85.74845071573509 60.11702127638273,85.91291549033485 57.88297872338444,85.74845071573509 55.3297872338444,86.15961256460287 52.90425531938672,85.9951478598523 50.47872340423055,85.58398589468561 48.56382978730835,84.1038004066213 46.39361702138558,83.03477520542219 44.15957446792163,83.03477520542219 41.86170212761499,82.37691256368998 41.67021276592277,79.82768778002355 43.45744680822827,78.26525414927164 43.39361702138558,76.04494648711989 43.26595744676888,73.57792800589232 43.07446808530949,71.19313350017183 43.32978723407723,69.21950304618804 41.86170212761499,67.08139580959687 41.41489361715503,64.69657459395239 41.60638297861442,62.3117435729946 39.69148936169222,60.58479085075669 38.5425531915389,58.52888804860413 36.24468085099943,59.0223053857917 33.88297872338444,59.0223053857917 31.52127659576945,58.52888804860413 29.22340425546281,58.85783298674505 26.79787234053947,58.7755967695266 27.24468085099943,61.32491407543421 28.90425531915389,62.805157692346256 30.11702127661556,64.6143392045633 29.22340425546281,66.99916075845249 26.79787234053947,67.65704084094614 25.13829787238501,65.60116310592275 25.58510638284497,63.21633580420166 25.96808510646224,60.99597053666366 26.47872340446338,58.61112430051435 26.73404255299829,56.144031668722164 26.60638297861442,53.84140241128625 26.6702127661556,53.01903260417748 26.73404255299829,55.56837521144189 26.47872340446338,56.47297795902705 26.6702127661556,54.08811312599573 26.5425531915389,51.53876401257003 25.64893617015332,49.236116472806316 23.60638297838159,48.66045315947849 24.24468085099943,47.26241130568087 25.07446808507666,47.097935571626294 22.96808510646224,48.08478927478427 20.60638297861442,47.59136263310211 18.5,47.015697687340435 16.90425531915389,45.69988995161839 16.84042553184554,43.479457628622185 15.436170213157311,41.75244883366395 12.94680851069279,41.09453936875798 10.58510638284497,40.847823126998264 11.28723404253833,41.01230063330149 13.71276595746167,41.67021019139793 14.47872340446338,41.58797153760679 12.05319148930721,41.09453936875798 9.5,41.01230063330149 12.05319148930721,41.17677809268935 14.47872340446338,41.75244883366395 16.77659574477002,42.73931163188536" stroke="#FFFF00" stroke-linecap="round" stroke-linejoin="round" stroke-width="0.5"><title>2022-06-18 11.23km</title><desc>355795142</desc></polyline></svg>