<?xml version="1.0" encoding="utf-8" ?>
<svg baseProfile="full" height="130mm" version="1.1" viewBox="0,0,100,130" width="100mm" xmlns="http://www.w3.org/2000/svg" xmlns:ev="http://www.w3.org/2001/xml-events" xmlns:xlink="http://www.w3.org/1999/xlink"><defs /><rect fill="#FAF9F5" height="130" width="100" x="0" y="0" /><text fill="#5A5A5A" style="font-size:6px; font-family:Arial; font-weight:bold;color:#0ed45e;" x="5" y="10">MY TRACKS</text><text fill="#5A5A5A" style="font-size:4px; font-family:Arial" x="5" y="121">Runner</text><text fill="#5A5A5A" style="font-size:6px; font-family:Arial" x="2" y="128">蓝皮书</text><text fill="#5A5A5A" style="font-size:4px; font-family:Arial" x="25" y="121">WORKOUTS INFO</text><text fill="#5A5A5A" style="font-size:3px; font-family:Arial" x="25" y="125">Type: Run</text><text fill="#5A5A5A" style="font-size:3px; font-family:Arial" x="22" y="129">Date: 2022-10-16</text><text fill="#5A5A5A" style="font-size:3px; font-family:Arial" x="47" y="125">Distance: 5.26 km</text><text fill="#5A5A5A" style="font-size:3px; font-family:Arial" x="47" y="129">Duration: 32:54min</text><text fill="#5A5A5A" style="font-size:3px; font-family:Arial" x="75" y="125">Pace: 6:15/km</text><text fill="#5A5A5A" style="font-size:3px; font-family:Arial" x="75" y="129">Elevation: 0m</text><polyline fill="none" points="81.43181818164885,86.60192151780939 81.09090909082443,88.35867494909326 81.2272727272939,90.02758609532611 79.86363636376336,90.64244696358219 78.0227272727061,90.4667724922183 76.25,90.29109797056299 74.40909090917557,90.20326069131261 72.7727272727061,90.02758609532611 70.79545454541221,89.76407410798129 68.95454545482062,89.93974877870642 67.86363636376336,89.1492123681237 68.13636363646947,87.39246117818402 68.13636363646947,85.63570500758942 68.2727272727061,83.8789438562817 68.2727272727061,81.94650083704619 68.2727272727061,80.101890514954 66.97727272706106,78.78430835116887 65.34090909082443,78.52079158223933 63.50000000023283,78.34511367377127 61.79545454541221,77.99375770817278 60.090909090824425,77.99375770817278 58.38636363646947,78.08159671834437 58.659090909175575,79.92621305491775 58.45454545482062,81.77082389994757 58.04545454541221,83.61542925378308 58.04545454541221,85.46002911654068 58.04545454541221,87.21678578521824 57.840909091057256,88.88570000696927 57.772727272706106,90.7302841807832 56.1363636367023,90.7302841807832 54.22727272706106,90.55460973415757 52.522727272706106,90.64244696358219 50.88636363623664,90.3789352378808 49.25,90.20326069131261 47.409090909175575,90.3789352378808 45.909090908942744,89.85191144968849 45.56818181811832,88.095162251906 46.18181818188168,86.25057023379486 46.11363636353053,84.49381082574837 46.11363636353053,82.73704643698875 46.18181818188168,80.89243846817408 46.04545454541221,78.95998613489792 45.090909090591595,77.55456247070106 44.272727272706106,75.79777840751922 43.04545454541221,74.5680265998235 41.272727272706106,74.04098936350783 40.45454545435496,72.5477147596539 39.977272727526724,70.9665965505992 39.227272727293894,69.29763406416168 38.340909090824425,67.80434802861419 37.1136363632977,66.66242098499788 35.75,65.6083326151711 33.909090909175575,64.81776516104583 32.272727272706106,63.85151468048571 30.43181818188168,63.67583261302207 28.454545454587787,63.76367365277838 26.61363636353053,63.9393556957948 24.977272727293894,64.55424245225731 23.613636363763362,65.6083326151711 22.386363636236638,67.10162394325016 21.295454545412213,68.24355017754715 19.795454545412213,68.85843266261509 18.227272727526724,68.15570977254538 17.06818181811832,67.01378337631468 15.5,67.452986085671 14.136363636469468,68.59491167217493 12.772727272706106,67.98002892546356 11.81818181835115,66.57458035595482 10.8636363632977,64.99344690464204 10.045454545645043,63.41230941849062 9.5,61.655485257157125 10.8636363632977,61.30411982740043 12.56818181835115,60.864912759454455 13.863636363530532,59.81081452674698 15.363636363763362,58.932397962897085 16.659090908942744,57.79045456799213 17.68181818188168,56.297140798938926 18.909090908942744,54.97950801369734 20.06818181811832,53.57402995444136 21.36363636353053,52.34423403721303 22.863636363763362,51.64149241702398 24.49999999976717,51.026592845562845 26.409090909175575,51.202278499666136 28.045454545412213,51.64149241702398 29.68181818188168,52.16854870686075 31.38636363646947,52.69560454826569 33.159090909175575,52.432076683908235 34.99999999976717,51.9928633266245 36.29545454541221,50.93874999968102 38.06818181788549,50.675221387820784 39.77272727293894,51.55364965845365 41.20454545435496,51.46580688736867 42.772727272473276,51.026592845562845 44.54545454541221,51.29012130817864 46.31818181811832,51.29012130817864 48.090909091057256,50.8509071416338 50.0,50.58737849240424 51.70454545458779,50.323849730950315 53.272727272706106,49.97247787489323 55.04545454541221,49.62110581930028 56.68181818188168,49.44541971682338 58.659090909175575,49.53326277440647 60.36363636376336,49.181890469626524 62.06818181811832,49.181890469626524 63.70454545458779,49.181890469626524 65.81818181835115,49.181890469626524 67.5227272727061,49.26973356452072 69.2272727272939,49.62110581930028 71.06818181811832,49.97247787489323 72.6363636367023,50.323849730950315 74.40909090917557,50.58737849240424 76.04545454541221,50.76306427101372 77.8863636367023,51.377964104060084 79.59090909105726,51.9928633266245 81.2272727272939,52.69560454826569 82.86363636376336,53.31050246342784 84.29545454564504,54.276769382704515 85.93181818164885,55.067350286466535 86.88636363646947,56.56066701980308 88.18181818188168,57.87829644221347 88.79545454517938,59.547289688372985 89.75000000023283,61.1284370374633 90.09090909105726,62.79742152878316 90.36363636376336,64.55424245225731 90.5,66.31105839437805 90.0227272727061,67.89218848320888 89.54545454564504,69.82467533508316 88.59090909105726,71.3179565013852 87.56818181811832,72.63555454165908 86.13636363623664,73.95314978063107 84.84090909105726,75.27074221719522 83.27272727293894,76.32481414958602 81.97727272752672,77.55456247070106 81.36363636376336,79.04782500799047 81.2272727272939,80.71676123235375 81.29545454541221,82.47353134909645 81.2272727272939,84.40597272466403 81.36363636376336,86.16273238154827 81.36363636376336,87.83164944249438 81.2272727272939,89.50056200835388 80.34090909105726,90.81812138529494 78.70454545435496,90.64244696358219 76.93181818188168,90.4667724922183 75.15909090894274,90.4667724922183 73.38636363646947,90.29109797056299 71.54545454541221,90.20326069131261 69.9090909094084,90.29109797056299 68.20454545435496,90.29109797056299 68.13636363646947,88.44651248969603 68.34090909105726,86.8654348499258 68.2727272727061,84.93300114467274 68.2727272727061,83.1762380010332 68.20454545435496,81.50730840128381 68.2727272727061,79.83837430633139 67.38636363623664,78.52079158223933 65.54545454541221,78.52079158223933 63.77272727293894,78.25727470120182 62.0,78.16943571605952 60.159090909175575,78.16943571605952 58.31818181811832,78.08159671834437 56.545454545877874,78.34511367377127 54.840909090824425,78.16943571605952 53.06818181835115,78.08159671834437 51.29545454541221,77.99375770817278 49.93181818188168,77.02752777468413 48.36363636353053,76.14913561852882 47.20454545458779,74.74370557884686 46.86363636353053,73.07475326617714 47.272727272706106,71.3179565013852 48.159090909408405,69.82467533508316 49.52272727293894,68.6827520148363 51.159090908942744,67.98002892546356 52.25000000023283,66.66242098499788 52.18181818188168,64.90560603898484 51.090909090824425,63.32446832890855 49.52272727293894,62.53389796044212 48.43181818164885,61.391961203480605 47.13636363646947,59.81081452674698 47.61363636376336,58.05398015351966 48.29545454541221,56.56066701980308 47.20454545458779,55.24303479475202 45.43181818211451,54.89166572858812 45.56818181811832,53.57402995444136 47.340909091057256,53.134817407117225 48.840909090824425,52.871289729024284 50.54545454541221,52.432076683908235 52.25000000023283,52.16854870686075 54.22727272706106,51.729335162905045 55.86363636376336,51.29012130817864 57.5,50.93874999968102 59.340909090824425,51.11443567881361 61.18181818211451,50.93874999968102 63.29545454564504,50.76306427101372 65.06818181811832,50.8509071416338 66.90909090917557,50.675221387820784 68.54545454564504,51.202278499666136 70.45454545458779,51.11443567881361 72.09090909105726,51.29012130817864 73.7272727272939,51.9928633266245 75.22727272706106,52.432076683908235 77.06818181811832,52.51991931773955 77.8863636367023,52.78344714490231 79.7272727272939,53.134817407117225 81.36363636376336,53.134817407117225 83.00000000023283,53.31050246342784 84.56818181811832,54.276769382704515 86.20454545458779,55.24303479475202 87.5,56.56066701980308 88.65909090894274,58.05398015351966 89.34090909082443,59.459448050532956 89.75000000023283,61.21627843863098 90.1590909094084,63.06094498501625 90.43181818188168,64.90560603898484 90.29545454564504,66.83810220548185 90.09090909105726,68.50707131717354 89.40909090894274,70.17603593308013 88.31818181835115,71.58147633366752 87.5,73.07475326617714 86.34090909082443,74.39234757085796 84.90909090917557,75.27074221719522 83.54545454541221,76.32481414958602 81.90909090917557,77.20320605655434 80.20454545482062,77.46672338590724 78.36363636353053,77.64240154298022 76.59090909105726,77.73024060291937 74.95454545482062,78.16943571605952 73.38636363646947,78.43295263423352 71.54545454541221,78.34511367377127 69.70454545482062,78.43295263423352 68.0,78.696469440707" stroke="#4DD2FF" stroke-linecap="round" stroke-linejoin="round" stroke-width="0.5"><title>2022-10-16 5.26km</title><desc>362713512</desc></polyline></svg>