<?xml version="1.0" encoding="utf-8" ?>
<svg baseProfile="full" height="130mm" version="1.1" viewBox="0,0,100,130" width="100mm" xmlns="http://www.w3.org/2000/svg" xmlns:ev="http://www.w3.org/2001/xml-events" xmlns:xlink="http://www.w3.org/1999/xlink"><defs /><rect fill="#FAF9F5" height="130" width="100" x="0" y="0" /><text fill="#5A5A5A" style="font-size:6px; font-family:Arial; font-weight:bold;color:#0ed45e;" x="5" y="10">MY TRACKS</text><text fill="#5A5A5A" style="font-size:4px; font-family:Arial" x="5" y="121">Runner</text><text fill="#5A5A5A" style="font-size:6px; font-family:Arial" x="2" y="128">蓝皮书</text><text fill="#5A5A5A" style="font-size:4px; font-family:Arial" x="25" y="121">WORKOUTS INFO</text><text fill="#5A5A5A" style="font-size:3px; font-family:Arial" x="25" y="125">Type: Run</text><text fill="#5A5A5A" style="font-size:3px; font-family:Arial" x="22" y="129">Date: 2022-03-20</text><text fill="#5A5A5A" style="font-size:3px; font-family:Arial" x="47" y="125">Distance: 5.01 km</text><text fill="#5A5A5A" style="font-size:3px; font-family:Arial" x="47" y="129">Duration: 35:04min</text><text fill="#5A5A5A" style="font-size:3px; font-family:Arial" x="75" y="125">Pace: 7:00/km</text><text fill="#5A5A5A" style="font-size:3px; font-family:Arial" x="75" y="129">Elevation: 0m</text><polyline fill="none" points="16.945106382481754,55.39063339744462 17.84127659536898,53.79197618429316 19.21999999973923,52.459758723853156 20.80553191481158,51.92687094624853 22.735744680743665,51.74924158625072 24.390212765662,52.37094412575243 26.320425531594083,52.72620244254358 27.97489361697808,53.2590895400499 29.767234042519704,53.2590895400499 31.62851063790731,52.63738788216142 33.14510638290085,51.838056272652466 34.73063829774037,50.77227920643054 35.97148936148733,49.79531530285021 37.488085106248036,48.81834987603361 39.211489361710846,48.37427417800063 40.86595744662918,48.01901339291362 42.72723404248245,47.7525676721707 44.58851063833572,47.84138292510761 46.38085106364451,48.01901339291362 48.10425531864166,48.46308934286935 49.827659574570134,48.995980067003984 51.68893616995774,49.351240297663026 53.619148935889825,49.44005532399751 55.342553191352636,49.52887033758452 57.203829786973074,49.884130266087595 58.85829787235707,49.262425258697476 60.71957446774468,49.262425258697476 62.44297872297466,49.084795143280644 64.3731914893724,49.262425258697476 66.0276595740579,49.262425258697476 67.81999999983236,49.61768533848226 69.54340425506234,49.97294521686854 71.12893616990186,50.41701978142373 72.78340425528586,50.594649519363884 74.23106382926926,51.57161217596149 75.95446808473207,52.10450025572209 77.60893616988324,52.459758723853156 79.26340425526723,53.2590895400499 80.71106382948346,54.14723369537387 82.29659574455582,54.94656235846924 83.60638297861442,56.012332323007286 85.05404255283065,57.16691440483555 86.08808510610834,58.67674930096837 87.05319148907438,60.275394048250746 87.53574468079023,61.96284796693362 88.29404255305417,63.561484328180086 88.6387234039139,65.42655492736958 88.4319148932118,67.2028074785485 88.15617021266371,68.71261818689527 87.53574468079023,70.57767345040338 87.74255319149233,70.75529747147812 88.6387234039139,69.24549168592785 88.91446808469482,67.64686982927378 88.77659574453719,65.87061853718478 88.77659574453719,64.09436220885254 88.50085106352344,62.31810084404424 87.81148936133832,60.45302099065157 86.91531914868392,58.854376696632244 86.0191489357967,57.43335612118244 87.46680851047859,58.499121854954865 88.36297872313298,59.8313264719327 89.32808510609902,61.3411549468874 90.01744680828415,63.117419081681874 90.43106382945552,64.80486534466036 90.43106382945552,66.66993224195903 90.15531914844178,68.35736893577268 89.74170212703757,69.95598897937452 89.39702127641067,71.55460494372528 88.6387234039139,71.55460494372528 88.70765957445838,69.77836473158095 89.12127659539692,67.82449468149571 89.39702127641067,66.0482438931358 89.25914893602021,64.18317514483351 88.91446808469482,62.58454037003685 88.50085106352344,60.71946130960714 87.12212765938602,59.476072184566874 87.12212765938602,59.74251291906694 87.94936170172878,61.16352825600188 88.4319148932118,62.93979289458366 88.845531914616,64.98249100253452 88.77659574453719,66.84755737090018 88.4319148932118,68.44618126755813 88.2251063825097,70.31123732408741 87.3289361698553,71.82104054128285 86.36382978712209,73.33084011962637 85.05404255283065,74.57420174620347 83.8821276591625,75.72874961839989 82.29659574455582,76.61686191853369 80.77999999979511,77.59378399437992 79.60808510612696,79.01475883985404 79.0565957443323,80.7909728641389 79.0565957443323,82.4783715227968 79.0565957443323,84.34338580502663 78.91872340394184,86.38601412472781 78.84978723386303,88.4286357848323 78.98765957402065,90.20482311886735 78.50510638277046,91.80338741431478 76.78170212754048,91.80338741431478 74.92042553145438,91.89219642215176 73.3348936168477,91.89219642215176 71.61148936138488,91.9810054175905 69.81914893607609,92.06981440051459 68.1646808506921,91.9810054175905 66.23446808476001,91.89219642215176 65.75191489327699,90.1160138718551 65.75191489327699,88.2510167741566 65.61404255311936,86.38601412472781 65.47617021249607,84.69862599100452 65.61404255311936,82.92242304573301 65.75191489327699,81.1462150645093 65.33829787187278,79.37000204756623 63.614893616875634,79.1923804685357 61.753617020789534,79.2811912643374 59.82340425509028,79.2811912643374 58.0999999998603,79.1923804685357 56.16978723369539,79.2811912643374 56.100851063849404,81.05740453343606 55.61829787213355,82.92242304573301 55.61829787213355,84.78743600624148 55.825106382835656,86.47482390049845 55.68723404221237,88.16220725013409 55.962978722993284,89.84958605479915 56.16978723369539,91.62576936068945 54.44638297846541,91.9810054175905 52.58510638284497,92.06981440051459 50.65489361691289,92.15862337045837 48.931489361450076,92.06981440051459 47.27702127629891,92.15862337045837 45.41574468067847,92.15862337045837 43.5544680848252,92.24743232788751 43.20978723373264,90.56005998153705 43.34765957458876,88.51744527096162 43.278723404044285,86.74125315272249 43.34765957458876,84.87624600890558 43.278723404044285,83.1888538087369 43.20978723373264,81.32383608951932 43.00297872303054,79.54762357589789 42.175744680687785,78.12664993898943 41.27957446780056,76.43923955934588 39.969787233974785,75.37350434612017 38.17744680843316,75.19588163431035 37.76382978702895,73.50846336025279 37.143404255155474,71.82104054128285 35.69574468070641,71.28816923301201 34.59276595711708,69.77836473158095 33.076170212589204,68.71261818689527 31.62851063790731,67.64686982927378 30.18085106369108,66.75874481274514 28.250638297758996,66.58111965848366 26.45829787198454,66.40349445375614 24.665957446210086,66.9363699167152 23.14936170214787,68.00211948313517 21.908510638400912,69.24549168592785 21.012340425280854,70.66648546728538 20.32297872309573,72.26509961852571 20.185106382938102,74.04133277991787 20.185106382938102,75.90637217916083 20.529787234030664,77.77140602644067 21.219148935982957,79.2811912643374 21.70170212746598,81.05740453343606 21.977446808246896,82.7448024743353 22.391063829418272,84.34338580502663 21.977446808246896,82.65599216963165 20.736595744499937,82.4783715227968 19.08212765934877,82.92242304573301 17.427659574430436,82.12313007737976 16.462553191464394,80.61335168831283 15.428510638419539,79.2811912643374 14.394468084909022,77.77140602644067 13.222553191473708,76.43923955934588 12.32638297858648,74.9294474722119 11.84382978710346,73.15321682888316 11.292340425541624,71.37698114936939 10.671914893668145,69.60074043349596 11.085531914839521,68.09093186532846 12.395319148665294,66.75874481274514 13.360425531631336,65.337742167525 13.015744680771604,63.47267130413093 12.46425531920977,61.874034715991 12.533191489288583,60.18658055824926 13.084680851083249,58.41030811314704 14.256595744518563,57.16691440483555 15.359574467875063,56.012332323007286 16.669361702166498,54.94656235846924 17.082978723105043,54.76893385499716 17.01404255302623,53.08146055805264 15.290638297563419,52.90383152553113 13.705106382956728,51.838056272652466 12.050638297805563,51.92687094624853 10.60297872312367,52.90383152553113 10.809787233825773,54.502491004997864 10.947659574449062,56.36758857459063 10.327234042342752,57.96623921475839 9.5,59.38725858106045 9.98255319148302,60.98590151517419 11.361276595387608,59.92014001245843 12.602127659367397,58.854376696632244 14.394468084909022,58.41030811314704 16.048936170060188,58.41030811314704 17.49659574450925,59.564885775442235 18.944255319191143,60.36420752562117 19.909361702157184,61.6964081764454 21.494893616996706,60.89708812604658 23.14936170214787,60.18658055824926 24.73489361675456,59.476072184566874 26.320425531594083,58.321494358591735 28.043829786824062,57.87742539745523 29.69829787220806,57.07810047396924 31.352765957126394,56.27877453068504 33.14510638290085,55.65707586938515 34.799574467819184,54.857748113106936 36.45404255320318,54.591305300768 38.03957446780987,54.05841933633201 39.831914893351495,53.43671847175574 41.693191489204764,52.90383152553113 43.5544680848252,52.459758723853156 45.27787234028801,52.01568560715532 46.93234042543918,51.838056272652466 48.51787234004587,51.393982715322636 50.10340425511822,50.683464369154535" stroke="#4DD2FF" stroke-linecap="round" stroke-linejoin="round" stroke-width="0.5"><title>2022-03-20 5.01km</title><desc>350509654</desc></polyline></svg>