<?xml version="1.0" encoding="utf-8" ?>
<svg baseProfile="full" height="130mm" version="1.1" viewBox="0,0,100,130" width="100mm" xmlns="http://www.w3.org/2000/svg" xmlns:ev="http://www.w3.org/2001/xml-events" xmlns:xlink="http://www.w3.org/1999/xlink"><defs /><rect fill="#222222" height="130" width="100" x="0" y="0" /><text fill="#FFFFFF" style="font-size:6px; font-family:Arial; font-weight:bold;color:#0ed45e;" x="5" y="10">MY TRACKS</text><text fill="#FFFFFF" style="font-size:4px; font-family:Arial" x="5" y="121">Runner</text><text fill="#FFFFFF" style="font-size:6px; font-family:Arial" x="2" y="128">蓝皮书</text><text fill="#FFFFFF" style="font-size:4px; font-family:Arial" x="25" y="121">WORKOUTS INFO</text><text fill="#FFFFFF" style="font-size:3px; font-family:Arial" x="25" y="125">Type: Run</text><text fill="#FFFFFF" style="font-size:3px; font-family:Arial" x="22" y="129">Date: 2022-04-27</text><text fill="#FFFFFF" style="font-size:3px; font-family:Arial" x="47" y="125">Distance: 3.64 km</text><text fill="#FFFFFF" style="font-size:3px; font-family:Arial" x="47" y="129">Duration: 24:03min</text><text fill="#FFFFFF" style="font-size:3px; font-family:Arial" x="75" y="125">Pace: 6:36/km</text><text fill="#FFFFFF" style="font-size:3px; font-family:Arial" x="75" y="129">Elevation: 0m</text><polyline fill="none" points="9.790114613249898,46.7892237463966 9.5,47.38727295404533 9.616045845439658,48.060077501810156 9.732091690646484,48.882393005362246 9.906160458689556,49.77946300106123 10.080229226499796,50.452264496299904 10.254297994542867,51.19982070609694 10.544412607559934,51.872620389040094 10.77650429843925,52.694929946330376 11.066618911456317,53.292972455441486 11.472779369913042,54.04052463785047 11.704871060326695,54.71332069556229 12.053008596180007,55.31136091524968 12.401146132033318,55.909400456701405 12.807306590257213,56.582194129703566 13.329512894153595,57.25498694437556 13.677650430006906,57.85302428150317 14.257879656506702,58.376306394464336 15.012177650583908,58.60056999826338 15.302292263833806,59.27336023747921 15.824498567497358,59.946149618481286 16.230659025721252,60.544183902733494 16.52077363920398,61.36647993646329 16.868911175057292,62.18877468747087 17.217048710910603,62.9363142575603 17.565186246531084,63.60909896425437 17.913323782384396,64.20712909422582 18.725644699297845,64.50614390493138 19.47994269360788,64.65565124666318 19.886103152064607,65.32843375974335 20.002148997271433,66.00121541431872 20.234240687917918,66.59924283094006 20.698424068978056,67.12251626432408 21.336676218081266,67.34677614824614 22.09097421215847,67.34677614824614 22.439111748011783,68.01955522742355 22.961318051675335,68.54282725130906 23.657593123381957,68.99134571535978 24.295845272485167,69.43986379809212 24.99212034419179,69.51461677468615 25.862464183475822,69.66412269661669 26.500716332811862,69.81362857570639 27.255014326889068,69.9631344123627 27.95128939859569,69.88838149933144 28.76361031550914,69.81362857570639 29.459885386982933,69.66412269661669 30.098137536086142,69.14085178554524 30.678366762120277,68.84183960326482 31.490687679266557,68.54282725130906 32.24498567357659,68.46807413676288 32.99928366788663,68.31856787623838 33.63753581652418,68.01955522742355 34.27578796562739,67.87004883983172 35.03008595993742,68.2438147298526 35.726361031644046,68.54282725130906 36.364613180747256,68.91659266478382 37.06088825245388,69.43986379809212 37.64111747848801,69.73887564131292 38.453438395634294,69.73887564131292 39.26575931254774,69.88838149933144 40.02005730685778,70.0378873149748 40.83237822377123,70.11264020687668 41.586676218081266,70.41165166848805 42.28295128955506,70.78541575704003 43.037249284097925,71.15917958086357 43.733524355338886,71.60769581934437 44.31375358160585,72.13096428225981 44.89398280810565,72.72898474696558 45.4161891117692,73.25225209718337 45.93839541566558,73.85027129016817 46.28653295151889,74.59779432753567 46.634670487372205,75.27056415507104 46.92478510038927,75.94333312427625 47.156876790802926,76.61610123503488 47.27292263624258,77.36362035147613 47.330945558846,78.18589015561156 48.08524355315603,78.55964873352787 48.83954154723324,78.55964873352787 49.36174785089679,79.00815867719939 49.82593123218976,79.60617134236963 50.17406876804307,80.2041833291878 50.63825214910321,80.80219463765388 51.16045845276676,81.54970781959128 51.566618911223486,82.14771760231815 51.74068767926656,82.8952288767905 51.62464183405973,83.56798811786575 51.68266475643031,84.39024824689841 51.62464183405973,85.28725783451227 51.68266475643031,85.96001402370166 51.74068767926656,86.78227042267099 51.79871060186997,87.45502470456995 51.79871060186997,88.27727877232246 51.79871060186997,89.09953155787662 51.79871060186997,89.84703297755914 51.856733524473384,90.66928331542294 51.79871060186997,91.41678250982659 51.9147564470768,92.23903040011646 52.378939828136936,92.76227838988416 53.07521489984356,92.98652736935765 53.829512893920764,93.06127700785873 54.641833811067045,93.13602663599886 55.454154727980494,93.06127700785873 56.266475644893944,93.13602663599886 57.078796561807394,93.13602663599886 57.891117478720844,93.13602663599886 58.52936962759122,93.2107762536034 59.399713467108086,93.2107762536034 60.212034384254366,93.13602663599886 61.024355301167816,93.13602663599886 61.72063037264161,92.98652736935765 62.35888252151199,92.76227838988416 62.53295128955506,91.86528151790844 62.474928366951644,91.11778295930708 62.474928366951644,90.29553332080832 62.59097421192564,89.47328240016941 62.70702005759813,88.72578045073897 62.76504297996871,87.90352708223509 62.823065902804956,87.15602290746756 63.05515759345144,86.40851767285494 63.05515759345144,85.6610113789211 63.05515759345144,84.91350402514217 63.05515759345144,84.16599561163457 63.05515759345144,83.3437351329485 63.17120343865827,82.59622449427843 63.809455587528646,82.29721994203283 64.56375358160585,82.37197109585395 65.3760744985193,82.44672223931411 66.13037249306217,82.29721994203283 66.94269340974279,82.37197109585395 67.92908309469931,82.14771760231815 68.74140401137993,82.22246877750149 69.55372492829338,82.22246877750149 70.25,82.14771760231815 71.1203438397497,82.14771760231815 71.06232091691345,82.8952288767905 71.0042979940772,83.71749005507445 70.88825214910321,84.39024824689841 70.88825214910321,85.13775634247577 70.8302292264998,85.88526337820804 70.65616045845672,86.70751989411656 70.77220630389638,87.45502470456995 70.59813753585331,88.35202907846542 70.42406876804307,89.02478135755518 70.25,89.84703297755914 70.133954155026,90.59453333774582 70.25,91.34203263814561 70.42406876804307,92.01478110253811 70.71418338129297,92.61277901701396 71.52650429797359,92.61277901701396 72.28080229251646,92.61277901701396 73.0931232094299,92.61277901701396 73.7893982809037,92.5380293148337 74.54369627521373,92.38852987857535 75.2979942697566,92.38852987857535 76.0522922638338,92.46327960211784 76.86461318051443,92.46327960211784 77.61891117482446,92.5380293148337 78.43123209173791,92.5380293148337 79.24355300888419,92.5380293148337 79.9978510029614,92.5380293148337 80.75214899750426,92.5380293148337 81.44842406874523,92.31378014467191 81.97063037240878,91.86528151790844 81.9126074500382,91.11778295930708 82.08667621784844,90.29553332080832 81.85458452743478,89.62278266297653 81.97063037240878,88.95003114681458 82.20272206328809,88.2025284555857 81.9126074500382,87.52977512730286 81.9126074500382,86.70751989411656 81.97063037240878,85.96001402370166 82.08667621784844,85.21250709390733 82.26074498565868,84.5397499508108 82.31876790826209,83.79224100755528 82.37679083109833,83.04473100457108 82.84097421215847,82.37197109585395 83.13108882517554,81.62445907964138 83.53724928363226,81.0264487034292 84.17550143273547,80.50318906811299 84.81375358183868,80.0546803958714 85.45200573070906,79.53141979617067 86.09025787957944,79.08291029755492 86.78653295128606,78.55964873352787 87.07664756430313,77.96163488161983 87.5408309455961,77.43837220489513 88.00501432665624,76.76560514309676 88.52722063031979,76.31709329178557 88.81733524380252,75.64432479941752 89.28151862462983,75.04630764113972 89.68767908331938,74.37353752768831 89.97779369633645,73.62601417221595 90.15186246437952,72.9532422462944 90.32593123218976,72.20571687753545 90.38395415479317,71.38343774783425 90.5,70.7106629605405 90.44197707739659,69.88838149933144 90.32593123218976,69.06609875574941 90.20988538698293,68.2438147298526 90.20988538698293,67.42152942181565 89.80372492852621,66.67399621050572 89.57163323787972,65.92646193958353 89.16547277965583,65.25368018943118 88.75931232096627,64.65565124666318 88.41117478511296,63.908114114252385 87.88896848121658,63.310083645104896 87.36676217778586,62.78680642833933 86.78653295128606,62.33828268619254 86.14828080241568,61.9645126099349 85.56805157591589,61.590742268250324 84.98782234964892,61.291725804505404 84.34957020077854,60.76844658446498 83.76934097404592,60.31992112559965 83.01504298020154,59.946149618481286 82.31876790826209,59.72188658680534 81.56446991418488,59.34811465576058 80.98424068768509,59.049096919829026 80.28796561597846,58.750079014571384 79.59169054450467,58.60056999826338 78.77936962782405,58.376306394464336 78.0830945558846,58.376306394464336 77.38681948441081,58.07728810765548 76.69054441270418,57.92777890077559 75.82020057318732,57.703515010653064 75.12392550171353,57.479251025244594 74.36962750717066,57.479251025244594 73.61532951309346,57.4044963424094 72.97707736399025,57.10547750419937 72.1647564470768,56.881213264598045 71.35243552993052,56.80645849672146 70.5401146132499,56.80645849672146 69.90186246414669,56.582194129703566 69.14756447006948,56.65694892936153 68.27722063055262,56.73170371825108 67.580945558846,56.73170371825108 66.82664756476879,56.65694892936153 66.07234957022592,56.582194129703566 65.3760744985193,56.73170371825108 64.56375358160585,56.881213264598045 63.75143266492523,57.030722768220585 62.997134670615196,57.10547750419937 62.24283667607233,57.10547750419937 61.43051575915888,57.4044963424094 60.73424068791792,57.77826965134591 59.92191977077164,57.554005697660614 59.225644699297845,57.554005697660614 58.47134670522064,57.554005697660614 57.775071633048356,57.554005697660614 57.02077363897115,57.77826965134591 56.266475644893944,57.77826965134591 55.628223495790735,57.92777890077559 54.815902578644454,57.85302428150317 54.003581661963835,58.22679727221839 53.24928366788663,58.152042695262935 52.55300859618001,58.22679727221839 51.79871060186997,58.451060939754825 51.10243553039618,58.67532451177249 50.46418338129297,59.27336023747921 49.767908309586346,59.57237784616882 49.12965616071597,59.72188658680534 48.31733524356969,59.87139528535772 47.621060172095895,60.17041255446384 46.982808023225516,60.46942965441849 46.34455587412231,60.544183902733494 45.7063037250191,60.9179549862165 44.95200573070906,60.99270917096874 44.25573065900244,61.291725804505404 43.559455587528646,61.590742268250324 42.92120343842544,61.9645126099349 42.28295128955506,62.18877468747087 41.586676218081266,62.26352869201219 41.00644699158147,62.56254460493801 40.31017191987485,62.71205249772174 39.84598853881471,63.310083645104896 39.2077363897115,63.60909896425437 38.627507163444534,63.98286787519464 37.815186246531084,64.2818828127929 37.23495702003129,64.58089758089045 36.538681948557496,64.87991217983654 35.726361031644046,65.02941941533936 34.9140401147306,65.10417301725829 34.10171919781715,65.10417301725829 33.34742120350711,65.17892660875805 32.65114613180049,65.4031873193453 31.954871060559526,65.55269440659322 31.316618911456317,65.77695495804073 30.678366762120277,66.00121541431872 30.098137536086142,66.22547577501973 29.343839541776106,66.52448944112984 28.531518624629825,66.67399621050572 27.661174785112962,66.59924283094006 26.848853868199512,66.52448944112984 26.15257879672572,66.52448944112984 25.456303725251928,66.52448944112984 24.81805157614872,66.67399621050572 24.17979942704551,66.44973604060942 23.54154727817513,66.00121541431872 23.135386819718406,65.47794086823706 23.251432664925233,64.80515854601981 23.71561604575254,64.2818828127929 24.121776504442096,63.68385276768822 24.469914040295407,62.9363142575603 24.585959885502234,62.11402067204472 24.52793696266599,61.36647993646329 24.295845272485167,60.61893814074574 24.121776504442096,59.87139528535772 24.063753581838682,59.19860580895329 24.643982808105648,58.60056999826338 24.17979942704551,57.92777890077559 23.425501432735473,58.07728810765548 22.671203438425437,58.152042695262935 21.858882521511987,58.376306394464336 21.39469914045185,58.97434245952172 20.814469914184883,59.34811465576058 20.002148997271433,59.42286906321533 19.247851003194228,59.647132221842185 18.551575931254774,59.87139528535772 17.97134670498781,60.46942965441849 17.449140401091427,60.99270917096874 17.449140401091427,60.99270917096874" stroke="#4DD2FF" stroke-linecap="round" stroke-linejoin="round" stroke-width="0.5"><title>2022-04-27 3.64km</title><desc>352631101</desc></polyline></svg>