<?xml version="1.0" encoding="utf-8" ?>
<svg baseProfile="full" height="130mm" version="1.1" viewBox="0,0,100,130" width="100mm" xmlns="http://www.w3.org/2000/svg" xmlns:ev="http://www.w3.org/2001/xml-events" xmlns:xlink="http://www.w3.org/1999/xlink"><defs /><rect fill="#222222" height="130" width="100" x="0" y="0" /><text fill="#FFFFFF" style="font-size:6px; font-family:Arial; font-weight:bold;color:#0ed45e;" x="5" y="10">MY TRACKS</text><text fill="#FFFFFF" style="font-size:4px; font-family:Arial" x="5" y="121">Runner</text><text fill="#FFFFFF" style="font-size:6px; font-family:Arial" x="2" y="128">蓝皮书</text><text fill="#FFFFFF" style="font-size:4px; font-family:Arial" x="25" y="121">WORKOUTS INFO</text><text fill="#FFFFFF" style="font-size:3px; font-family:Arial" x="25" y="125">Type: Run</text><text fill="#FFFFFF" style="font-size:3px; font-family:Arial" x="22" y="129">Date: 2022-07-08</text><text fill="#FFFFFF" style="font-size:3px; font-family:Arial" x="47" y="125">Distance: 5.12 km</text><text fill="#FFFFFF" style="font-size:3px; font-family:Arial" x="47" y="129">Duration: 37:21min</text><text fill="#FFFFFF" style="font-size:3px; font-family:Arial" x="75" y="125">Pace: 7:17/km</text><text fill="#FFFFFF" style="font-size:3px; font-family:Arial" x="75" y="129">Elevation: 0m</text><polyline fill="none" points="9.5,57.99123299168423 10.33571428549476,59.39921115175821 11.235714285401627,60.8071859186166 12.58571428549476,61.22129549825331 14.385714285541326,61.304117379128 15.607142856810242,60.22743201395497 17.021428571315482,59.0679224783089 18.17857142840512,57.65994351939298 19.528571428265423,56.6660739761428 20.621428571175784,55.423734669107944 21.58571428549476,54.264215598930605 22.807142856763676,53.18751725880429 24.028571428265423,52.11081693414599 25.50714285671711,51.448231132526416 27.114285713993013,51.199761263269465 28.785714285448194,51.448231132526416 30.392857142724097,52.19364010647405 31.99999999976717,52.690578894049395 33.73571428540163,52.939048129541334 35.27857142826542,53.18751725880429 36.82142857136205,53.35316328634508 38.36428571399301,53.51880926731974 40.03571428544819,54.09856982989004 41.57857142831199,53.767278150247876 43.18571428558789,53.27034027851187 44.92142857122235,52.6077557921526 46.52857142849825,52.11081693414599 48.135714285541326,51.69670089619467 49.871428571175784,51.36540785455145 51.60714285704307,51.03411462495569 53.214285713853315,50.78564457956236 54.75714285694994,50.61999782390194 56.4928571425844,50.3715276021976 57.971428571036085,50.12305727490457 59.57857142807916,50.040233808918856 61.24999999953434,49.95741033129161 62.85714285681024,49.87458684184821 64.59285714267753,49.95741033129161 66.32857142831199,49.791763340705074 67.8071428569965,50.040233808918856 69.41428571427241,50.20588072919054 70.95714285667054,50.45435102120973 72.62857142812572,50.78564457956236 74.36428571422584,51.03411462495569 76.03571428568102,51.28258456470212 77.6428571427241,51.77952412725426 79.37857142835855,52.02799374994356 81.0499999995809,52.4421095532598 82.59285714267753,52.690578894049395 84.1357142853085,53.27034027851187 85.48571428540163,54.18139272026019 86.83571428526193,55.34091195475776 87.92857142817229,56.6660739761428 88.8928571427241,58.074055330245756 89.5357142854482,59.56485541805159 90.0499999995809,61.13847360573709 90.5,62.794909223914146 90.3071428569965,64.53416156844469 90.37142857117578,66.19058755860897 90.2428571425844,67.92982979334192 89.72857142845169,69.3377840006724 89.08571428526193,70.74573481461266 88.31428571417928,72.15368223545374 87.54285714263096,73.64444639434805 86.3857142853085,74.63828705344349 85.09999999962747,75.79776568571106 83.55714285653085,76.46032387105515 82.14285714249127,77.28852054581512 81.49999999976717,78.69645219866652 80.72857142821886,80.02156124293106 80.27857142826542,81.67794332175981 80.08571428549476,83.41713945026277 79.89285714249127,85.15633040148532 79.95714285667054,86.89551617496181 80.02142857131548,88.55187876505079 79.44285714253783,90.04260108090239 77.70714285690337,90.20823665929493 76.09999999962747,90.12541887618136 74.36428571422584,89.87696545629296 72.75714285718277,89.4628761880449 71.14999999967404,89.38005829934264 69.47857142845169,89.62851193058304 68.06428571394645,88.96596867888002 68.06428571394645,87.30960726266494 68.19285714253783,85.65324115054682 68.32142857136205,84.07968899456318 68.4499999997206,82.42331372492481 68.4499999997206,80.76693375961622 68.6428571427241,79.11054909793893 67.87142857117578,77.70261844305787 66.26428571389988,77.61979888705537 64.52857142826542,77.61979888705537 62.792857142630965,77.61979888705537 61.121428571175784,77.53697931941133 59.4499999997206,77.28852054581512 58.549999999813735,78.36517446796643 58.292857142398134,80.10438045836054 58.292857142398134,81.84358127135783 58.0999999998603,83.58277690678369 58.16428571403958,85.32196736481274 58.03571428544819,86.89551617496181 57.971428571036085,88.55187876505079 57.1999999997206,89.62851193058304 55.721428571036085,89.29724039864959 54.17857142840512,89.2144224861986 52.50714285694994,89.2144224861986 50.89999999990687,89.2144224861986 49.22857142845169,89.13160456222249 47.55714285699651,88.96596867888002 46.8499999998603,87.64087992167333 46.78571428544819,85.90169636695646 46.8499999998603,84.07968899456318 47.10714285681024,82.5061326000141 47.17142857122235,80.84975286934059 47.23571428563446,79.11054909793893 46.97857142821886,77.37134014850017 46.39999999990687,75.88058549998095 46.39999999990687,74.05854687443934 47.878571428125724,73.7272665137425 47.878571428125724,72.15368223545374 48.26428571389988,70.5800937184249 49.0999999998603,69.17214250512188 50.32142857112922,68.01265072292881 51.799999999813735,67.18444089812692 52.635714285308495,65.77648150117602 52.44285714277066,64.12005433690501 51.285714285681024,62.87773088173708 49.93571428535506,61.801048416877165 48.714285714086145,60.64154200453777 48.1999999997206,59.150744664191734 49.03571428544819,57.577121122099925 48.714285714086145,56.251961167610716 47.42857142840512,55.506557371874806 46.20714285667054,54.6783298170194 46.464285714086145,53.104694227396976 47.81428571417928,52.19364010647405 49.35714285681024,51.86234734673053 50.964285714086145,51.531054398743436 52.57142857136205,51.28258456470212 54.2428571425844,51.03411462495569 55.78571428544819,50.78564457956236 57.392857142491266,50.45435102120973 58.99999999976717,50.3715276021976 60.60714285704307,50.20588072919054 62.214285714086145,50.20588072919054 63.9499999997206,50.28870417148573 65.5571428569965,50.20588072919054 67.35714285681024,50.28870417148573 69.02857142849825,50.3715276021976 70.57142857112922,50.61999782390194 72.11428571399301,51.03411462495569 73.72142857126892,51.28258456470212 75.39285714249127,51.61387765337713 76.87142857117578,51.94517055427423 78.54285714263096,52.35928641608916 80.21428571385331,52.85622506268555 81.82142857112922,53.35316328634508 83.29999999981374,54.264215598930605 84.64999999967404,55.25808922882425 85.87142857117578,56.33478375268169 87.02857142849825,57.577121122099925 87.86428571399301,58.9851002804935 88.82857142831199,60.3930760450894 89.27857142849825,61.88387021532981 89.40714285685681,63.54030371981207 89.34285714267753,65.11391119920881 89.08571428526193,66.85315663937945 88.69999999995343,68.59239690168761 87.99285714235157,70.0831701484276 86.96428571408615,71.57393959077308 85.80714285676368,72.73342430480989 84.58571428549476,73.97572680190206 83.23571428563446,75.0523868293385 81.75714285694994,75.88058549998095 80.27857142826542,76.54314359143609 78.60714285704307,76.54314359143609 76.87142857117578,76.62596329988446 75.26428571413271,76.79160268174019 73.59285714267753,76.87442235508934 71.92142857122235,76.95724201668054 70.18571428535506,77.04006166668842 68.51428571389988,77.37134014850017 66.77857142826542,77.37134014850017 64.91428571380675,77.37134014850017 63.17857142840512,77.37134014850017 61.50714285694994,77.37134014850017 59.89999999990687,77.37134014850017 58.16428571403958,77.37134014850017 56.4928571425844,77.28852054581512 54.885714285541326,77.04006166668842 53.3428571424447,76.79160268174019 51.86428571399301,76.21186463942286 50.38571428577416,75.63212602207204 49.03571428544819,74.80392699904041 47.878571428125724,73.81008662167005 46.39999999990687,73.47880612005247 44.66428571403958,73.39598596538417 42.9928571425844,73.31316579884151 42.09285714267753,72.5677837721887 41.89999999990687,70.8285553449532 41.128571428358555,69.50342544884188 40.16428571380675,67.7641878988361 39.07142857112922,66.52187219273765 37.97857142845169,65.36237515043467 36.43571428558789,64.36851871112594 34.957142856903374,63.623125271638855 33.41428571403958,63.37466058071004 31.742857142351568,63.12619578401791 30.26428571413271,62.46362247603247 28.785714285448194,61.46976110507967 27.2428571425844,61.386939247953705 25.76428571413271,62.29797903180588 24.221428571268916,62.87773088173708 22.93571428535506,63.78876834071707 21.457142856903374,64.61698297940893 20.107142857043073,65.52801772597013 18.628571428358555,66.35622989910189 17.149999999674037,67.18444089812692 16.957142856903374,68.67521773756016 16.76428571389988,69.75188753323164 17.278571428265423,71.32547828112729 18.049999999813735,72.73342430480989 17.66428571403958,71.15983734937618 16.82857142854482,69.6690668502124 17.149999999674037,68.09547164093237 18.307142856763676,66.93597772164503 19.721428571268916,66.02494517085142" stroke="#4DD2FF" stroke-linecap="round" stroke-linejoin="round" stroke-width="0.5"><title>2022-07-08 5.12km</title><desc>356967383</desc></polyline></svg>