<?xml version="1.0" encoding="utf-8" ?>
<svg baseProfile="full" height="130mm" version="1.1" viewBox="0,0,100,130" width="100mm" xmlns="http://www.w3.org/2000/svg" xmlns:ev="http://www.w3.org/2001/xml-events" xmlns:xlink="http://www.w3.org/1999/xlink"><defs /><rect fill="#222222" height="130" width="100" x="0" y="0" /><text fill="#FFFFFF" style="font-size:6px; font-family:Arial; font-weight:bold;color:#0ed45e;" x="5" y="10">MY TRACKS</text><text fill="#FFFFFF" style="font-size:4px; font-family:Arial" x="5" y="121">Runner</text><text fill="#FFFFFF" style="font-size:6px; font-family:Arial" x="2" y="128">蓝皮书</text><text fill="#FFFFFF" style="font-size:4px; font-family:Arial" x="25" y="121">WORKOUTS INFO</text><text fill="#FFFFFF" style="font-size:3px; font-family:Arial" x="25" y="125">Type: Run</text><text fill="#FFFFFF" style="font-size:3px; font-family:Arial" x="22" y="129">Date: 2022-04-20</text><text fill="#FFFFFF" style="font-size:3px; font-family:Arial" x="47" y="125">Distance: 5.00 km</text><text fill="#FFFFFF" style="font-size:3px; font-family:Arial" x="47" y="129">Duration: 33:17min</text><text fill="#FFFFFF" style="font-size:3px; font-family:Arial" x="75" y="125">Pace: 6:39/km</text><text fill="#FFFFFF" style="font-size:3px; font-family:Arial" x="75" y="129">Elevation: 0m</text><polyline fill="none" points="12.021149241831154,60.38109694910236 11.180766161065549,61.88021766516613 10.469672785373405,62.46320802188711 9.6292897046078,64.4620277088834 9.693934557028115,66.0444218046614 10.27573822834529,67.37696089502424 11.43934557074681,68.87606375885662 12.409018355887383,70.20859642641153 13.443335993681103,71.95754096569726 14.477653631241992,73.623197590583 15.253391859587282,75.03900200902717 16.481644054409117,76.62136761500733 17.45131683954969,78.12044688948663 18.48563447734341,79.4529585884884 19.067438148194924,81.11859396228101 20.03711093380116,82.45109886152204 20.942138866521418,84.11672573490068 22.041101356502622,85.61578588362318 22.946129289455712,86.9482805824955 23.915802075061947,88.53061411192175 24.820830007782206,89.9463826045394 25.91979249799624,91.36214768589707 25.66121308831498,91.27886748150922 27.148044692585245,90.69590571988374 28.89345570630394,90.4460647876258 30.57422186760232,90.52934511034982 32.44892258569598,90.36278445343487 34.065043894574046,90.27950410731137 35.487230646191165,89.86310219956795 36.133679170161486,89.2801390333334 35.616520351031795,87.69780752249062 35.228651237208396,87.11484220746206 33.74181963293813,87.8643689348246 31.931763766799122,87.8643689348246 30.250997605500743,87.28140378487296 29.02274541091174,86.6984380565118 27.85913806827739,88.03093029977754 26.4369513168931,87.28140378487296 25.467278531519696,85.94890984182712 24.562250598566607,84.36656935873907 23.721867517801,83.03406880440889 22.946129289455712,81.53500206815079 21.976456504315138,80.2024950911873 20.55426975246519,79.11983094719471 19.584596967557445,77.87060060922522 18.808858738979325,76.53808532102266 17.903830806259066,75.2055670102709 16.998802873305976,73.70648029801669 16.093774939887226,72.37395556445699 15.511971268802881,70.7915785178775 14.736233040690422,69.45904717280064 13.960494812345132,68.04322930664057 14.606943336082622,66.71069172758143 15.964485235279426,65.79457038850524 17.19273743010126,64.79516366211465 18.679569034371525,64.0456075015245 19.972466081148013,63.21276620152639 21.265363128157333,62.37992372055305 22.687549880472943,61.54708005907014 24.303671189118177,61.3805111850379 25.79050279338844,60.88080427952809 27.018754987977445,61.79693328141002 28.440941739594564,62.713060854701325 30.121707900892943,63.12948200647952 31.802474061958492,63.296050384582486 33.48324022325687,63.629186999227386 35.099361532134935,64.29545966128353 36.4569034317974,65.2115833380958 37.36193136451766,66.4608405950712 38.59018355910666,67.54352806886891 39.62450119713321,69.20919720915845 40.20630486821756,70.87486162676942 40.5295291300863,72.62380418233806 42.145650438731536,73.04021830903366 43.309257781365886,74.45602413243614 44.27893056650646,75.87182654358912 45.119313647272065,77.28762554260902 45.119313647272065,78.86998509196565 45.18395849945955,80.3690586287994 45.248603351647034,82.28453591448488 45.31324820430018,83.95016326016048 45.44253790890798,85.61578588362318 45.377893056720495,87.19812300207559 46.024341579992324,88.53061411192175 47.89904229831882,88.61389470589347 49.45051875477657,88.28077225910965 51.19592976849526,88.28077225910965 52.87669592979364,88.28077225910965 54.622106943046674,88.28077225910965 56.30287310434505,88.19749161793152 57.27254588971846,87.36468455608701 57.07861133269034,85.69906689081108 57.07861133269034,83.95016326016048 57.01396648027003,82.36781739379512 57.01396648027003,80.70218556164764 57.07861133269034,79.03654900717083 57.14325618511066,77.45418990642065 58.17757382267155,76.70464989705943 59.987629688344896,76.70464989705943 61.60375099768862,76.62136761500733 63.219872306101024,76.62136761500733 64.77134876255877,76.70464989705943 66.45211492385715,76.78793216764461 66.45211492385715,78.53685711993603 66.38747007166967,80.11921330488985 66.5167597765103,81.7015652275295 66.58140462846495,83.36719422630267 66.5167597765103,85.28266173682641 66.58140462846495,86.86499975225888 66.5167597765103,88.44733350619208 68.06823623296805,88.53061411192175 69.74900239380077,88.44733350619208 71.49441340775229,88.36405288847163 73.11053471639752,88.28077225910965 74.98523543449119,88.28077225910965 76.53671189094894,88.19749161793152 78.08818834763952,88.11421096499544 78.73463687114418,86.86499975225888 78.73463687114418,85.28266173682641 78.79928172356449,83.617038168828 78.66999201895669,81.78484678949462 78.86392657575198,80.03593150665984 79.05786113324575,78.20372895913897 79.44573024706915,76.78793216764461 80.41540303244255,75.37213196448283 81.57901037484407,74.03961100894958 83.0011971264612,73.12350109912222 84.29409417370334,72.04082390898839 85.39305666345172,70.87486162676942 86.29808459663764,69.54233047034359 87.0738228247501,68.12651280517457 87.59098164387979,66.54412431764649 87.84956105309539,64.87844762107125 87.91420590574853,63.296050384582486 87.65562649606727,61.54708005907014 87.0738228247501,59.798104526184034 86.49201915389858,58.298978496924974 85.78092577774078,56.71656353754224 87.13846767740324,57.21627398522105 88.17278531496413,58.298978496924974 89.14245810033754,59.631535156280734 89.53032721439376,61.21394226356642 89.7889066238422,62.79634510847973 89.65961691900156,64.62859570910223 89.72426177142188,66.29427311435575 89.20710295275785,67.95994579669787 88.56065442925319,69.62561375630321 89.01316839572974,71.04142780881375 90.5,71.54112607124262 88.94852354307659,71.20799394341884 88.04349561035633,69.87546354281949 88.56065442925319,68.29307976650307 89.01316839572974,66.62740802863846 89.20710295275785,65.04501550318673 89.33639265736565,63.21276620152639 89.07781324791722,61.46379562781658 88.68994413386099,59.798104526184034 87.78491620067507,58.298978496924974 86.62130885827355,57.13298894005129 85.39305666345172,55.966997068957426 84.22944932128303,54.634432096616365 82.80726256943308,53.46843526622979 81.32043096562847,52.635578970599454 79.70430965651758,51.96929308382096 78.21747805224732,51.38629231299274 76.47206703899428,50.969862836704124 74.85594572988339,50.63671904313378 73.30446927342564,50.053716949769296 71.6883479647804,49.80385873274645 70.00758180348203,49.47071427782066 68.32681564218365,49.30414197954815 66.5167597765103,48.97099724126747 64.77134876255877,48.97099724126747 63.219872306101024,48.7211385636474 61.60375099768862,48.7211385636474 59.85833998396993,48.804424801433925 58.1129289700184,49.05428344348911 56.30287310434505,49.137569634011015 54.492817238438874,49.30414197954815 52.87669592979364,49.55400040920358 51.32521947287023,49.88714481709758 49.709098164225,49.97043088928331 48.092976855579764,50.38686107401736 46.282920989673585,51.05314875568729 44.66679968032986,51.38629231299274 43.11532322433777,51.30300644139061 41.24062250577845,51.30300644139061 39.68914604908787,51.55286402098136 37.943735035834834,51.55286402098136 36.780127693433315,50.63671904313378 35.29329608916305,50.969862836704124 33.935754189733416,51.886007294931915 32.2549880289007,52.13586462667445 30.638866719789803,51.96929308382096 29.02274541091174,51.55286402098136 27.406624102033675,51.05314875568729 25.79050279338844,50.969862836704124 24.045091779436916,51.05314875568729 22.493615323211998,51.886007294931915 21.265363128157333,52.968721630692016 20.101755786221474,54.13471945282072 19.13208300084807,55.38400026562158 18.033120510866866,56.54999329376733 16.6755786112044,57.46612904960057 15.576616121223196,58.548833100590855 14.219074221793562,59.548250453779474 12.602952912915498,60.38109694910236 11.43934557074681,61.3805111850379 11.503990422701463,61.54708005907014 12.409018355887383,60.297812352655455 13.895849959924817,59.631535156280734 15.124102154979482,58.548833100590855 16.28770949714817,57.13298894005129 15.188747006934136,58.715402777539566 14.219074221793562,60.047958492767066 12.602952912915498,60.714235216611996 11.827214684803039,60.714235216611996 10.92218675184995,62.13007074617781 11.827214684803039,60.714235216611996" stroke="#4DD2FF" stroke-linecap="round" stroke-linejoin="round" stroke-width="0.5"><title>2022-04-20 5.00km</title><desc>352196564</desc></polyline></svg>