<?xml version="1.0" encoding="utf-8" ?>
<svg baseProfile="full" height="130mm" version="1.1" viewBox="0,0,100,130" width="100mm" xmlns="http://www.w3.org/2000/svg" xmlns:ev="http://www.w3.org/2001/xml-events" xmlns:xlink="http://www.w3.org/1999/xlink"><defs /><rect fill="#222222" height="130" width="100" x="0" y="0" /><text fill="#FFFFFF" style="font-size:6px; font-family:Arial; font-weight:bold;color:#0ed45e;" x="5" y="10">MY TRACKS</text><text fill="#FFFFFF" style="font-size:4px; font-family:Arial" x="5" y="121">Runner</text><text fill="#FFFFFF" style="font-size:6px; font-family:Arial" x="2" y="128">蓝皮书</text><text fill="#FFFFFF" style="font-size:4px; font-family:Arial" x="25" y="121">WORKOUTS INFO</text><text fill="#FFFFFF" style="font-size:3px; font-family:Arial" x="25" y="125">Type: Run</text><text fill="#FFFFFF" style="font-size:3px; font-family:Arial" x="22" y="129">Date: 2022-06-28</text><text fill="#FFFFFF" style="font-size:3px; font-family:Arial" x="47" y="125">Distance: 5.07 km</text><text fill="#FFFFFF" style="font-size:3px; font-family:Arial" x="47" y="129">Duration: 30:28min</text><text fill="#FFFFFF" style="font-size:3px; font-family:Arial" x="75" y="125">Pace: 6:00/km</text><text fill="#FFFFFF" style="font-size:3px; font-family:Arial" x="75" y="129">Elevation: 0m</text><polyline fill="none" points="14.886010362766683,62.520435723417904 16.215025906451046,61.07854876836063 17.474093263968825,59.81689499976346 18.94300518091768,58.6453571151942 20.411917098332196,57.74417265772354 21.950777201680467,57.02322417171672 23.76943005155772,57.20346136990702 25.588082901434973,57.56393561285222 27.126943004783243,58.375001912005246 28.805699481861666,59.09594886476407 30.694300518138334,59.09594886476407 32.44300518115051,59.09594886476407 34.19170984462835,59.54654029512312 36.080310880439356,59.81689499976346 37.89896373031661,59.81689499976346 39.71761658019386,59.6366585426731 41.396373056806624,59.09594886476407 43.075129533419386,58.6453571151942 44.68393782363273,57.924409651430324 46.502590673509985,57.113342777243815 48.32124352338724,56.752868278708775 50.069948186399415,56.48251227079891 51.88860103627667,56.21215614763787 53.917098445585,55.8516811382724 55.73575129546225,55.8516811382724 57.62435233150609,55.49120592401596 59.373056994983926,55.4010870885686 61.33160621742718,55.22084937954787 63.15025906730443,55.4010870885686 64.89896373078227,55.49120592401596 66.64766839379445,55.67144355655182 68.39637305680662,55.941799909691326 70.14507772028446,56.12203741451958 71.89378238352947,56.30227486824151 73.5725388599094,56.57263095281087 75.32124352315441,56.93310555355856 77.0,57.383698516874574 78.88860103627667,58.10464659379795 80.77720207255334,58.82559385366039 82.38601036276668,59.54654029512312 84.13471502624452,60.71807651879499 85.32383419689722,61.97972849867074 86.7227979276795,63.061142488440964 87.98186528519727,64.1425546380342 89.03108808328398,65.67455203435384 89.66062176204287,67.47689718514448 90.15025906753726,69.18912034470122 90.22020725416951,70.9914555301657 90.36010362696834,72.70366922300309 89.94041450787336,74.59611057006987 89.24093264248222,76.48854628315894 88.54145077732392,78.02051392453723 87.28238341980614,79.55247787362896 85.88341968948953,80.90420770423952 84.27461139904335,81.89547441940522 82.59585492243059,82.79662463755812 81.12694300501607,83.87800321291434 79.44818652863614,84.23846232937649 77.69948186539114,84.32857707631774 76.02072538877837,84.5088065325399 74.27202072553337,84.5088065325399 72.45336787565611,84.68903593719006 70.77461139881052,84.77915062045213 68.88601036276668,84.77915062045213 66.92746113962494,84.41869181086076 65.17875647684559,84.5088065325399 63.50000000023283,84.41869181086076 61.54145077732392,84.23846232937649 59.79274611384608,84.5088065325399 57.90414507780224,84.68903593719006 56.08549222792499,84.41869181086076 54.19689119141549,84.41869181086076 52.378238341771066,84.5088065325399 50.559585492126644,84.41869181086076 48.60103626945056,84.05823279661126 47.20207253866829,82.79662463755812 45.66321243508719,81.62512910494115 43.77461139881052,81.08443813113263 42.09585492219776,81.08443813113263 40.34715025895275,81.08443813113263 38.5284974090755,81.08443813113263 37.54922279785387,79.91293944296194 37.199481865158305,78.11062955326634 36.430051813367754,76.21819866908481 35.38082901528105,74.77634278545156 33.911917098099366,73.69494872656651 32.30310880788602,72.70366922300309 30.624352331273258,72.16297066037077 28.665803108597174,71.80250469635939 27.05699481861666,71.17168876773212 25.588082901434973,69.81993824080564 24.189119170885533,68.91876962617971 22.580310880672187,68.46818483993411 20.901554403593764,69.00888654531445 19.362694300245494,68.64841879246524 17.963730569696054,69.7298214372131 16.075129533652216,70.2705220694188 14.536269429838285,69.63970462034922 12.997409326024354,68.64841879246524 12.297927460866049,66.9361941763782 12.57772020692937,65.22396494820714 12.927461139392108,63.601848793099634 14.46632124343887,62.88090695103165 15.655440414324403,61.70937471347861 16.77461139857769,60.17736776068341 18.17357512912713,59.00583054043818 19.71243523294106,58.01452812907519 21.391191709553823,57.383698516874574 23.209844559431076,57.20346136990702 24.888601036043838,57.383698516874574 26.70725388568826,58.01452812907519 28.455958548933268,58.735475490801036 29.9948186527472,59.54654029512312 31.323834196664393,60.62795842444757 33.002590673277155,61.16866679897066 34.75129533675499,61.439020813733805 36.430051813367754,60.808194600220304 38.108808289980516,60.08724958979292 39.92746113985777,59.6366585426731 41.536269430071115,59.186067176342476 43.35492227971554,58.6453571151942 45.03367875609547,58.01452812907519 46.71243523317389,57.65405414177803 48.531088082818314,57.02322417171672 50.13989637303166,56.752868278708775 52.02849740930833,56.39239357603947 53.84715025895275,56.21215614763787 55.525906735798344,56.12203741451958 57.48445595847443,55.941799909691326 59.233160621719435,55.581324746715836 61.261658031027764,55.4010870885686 63.15025906730443,55.49120592401596 64.96891191694885,55.761562353756744 66.85751295345835,56.031918668420985 68.6761658033356,56.21215614763787 70.63471502601169,56.21215614763787 72.38341968902387,56.21215614763787 74.34196891193278,56.57263095281087 76.16062176181003,57.02322417171672 77.8393782384228,57.74417265772354 79.5880829016678,58.01452812907519 81.40673575131223,58.6453571151942 83.01554404152557,59.45642203465104 84.62435233173892,60.537840317119844 86.02331606228836,61.70937471347861 87.28238341980614,62.88090695103165 88.61139896395616,64.1425546380342 89.45077720237896,65.76466941315448 90.08031088137068,67.5670143084717 90.43005181360058,69.18912034470122 90.5,71.08157215535175 90.5,72.97401833167532 90.43005181360058,74.68622668407625 89.94041450787336,76.48854628315894 89.03108808328398,78.02051392453723 87.84196891216561,79.46236244955799 86.7227979276795,80.81409247149713 85.32383419689722,81.98558949888684 83.64507772051729,82.61639469623333 82.24611398996785,83.51754389231792 80.4274611400906,84.32857707631774 78.67875647684559,84.41869181086076 77.0,84.59892124123871 75.25129533698782,84.41869181086076 73.43264248711057,84.5088065325399 71.6839378240984,84.41869181086076 70.00518134748563,84.32857707631774 68.2564766840078,84.5088065325399 66.3678756474983,84.5088065325399 64.68911917111836,84.59892124123871 62.87046632124111,84.59892124123871 60.91191709856503,84.59892124123871 59.233160621719435,84.68903593719006 57.41450777184218,84.32857707631774 55.805699481861666,84.05823279661126 54.126943005248904,84.1483475692221 52.238341968739405,84.1483475692221 50.27979274606332,84.1483475692221 48.391191710019484,83.69777357811108 46.85233160597272,82.70650967315305 45.52331606205553,81.35478367563337 43.77461139881052,81.08443813113263 42.02590673556551,81.08443813113263 40.20725388592109,80.63386196806096 39.15803108806722,79.91293944296194 38.66839378233999,78.02051392453723 38.17875647661276,76.30831455346197 37.12953367852606,74.68622668407625 36.01036269403994,73.33448363130447 34.47150259069167,72.52343641978223 32.79274611384608,71.44203852815554 30.974093264201656,70.9914555301657 29.295336787588894,70.72110557818087 27.546632124111056,70.36063879652647 25.93782383389771,69.91005503217457 24.25906735751778,69.18912034470122 22.6502590670716,68.28795083559817 21.1113989634905,69.00888654531445 19.43264248687774,69.36935409315629 17.823834196431562,70.00017181073781 16.00518134701997,70.63098890217952 14.676165802869946,71.62227163766511 12.787564766593277,71.7123881734442 11.388601035811007,70.54087221290683 9.989637305261567,69.00888654531445 9.989637305261567,67.20654573838692 11.388601035811007,65.76466941315448 12.647668393561617,64.59314249095041 14.186528497142717,63.2413779743365 15.655440414324403,61.88961058325367 16.91450777184218,60.267485918768216 18.383419688791037,58.82559385366039 19.852331606205553,57.74417265772354 21.531088082585484,57.02322417171672 23.27979274559766,56.93310555355856 25.16839378210716,57.113342777243815 26.84715025871992,57.56393561285222 28.59585492219776,58.28488348564133 30.204663212411106,58.19476504629711 32.093264248687774,58.28488348564133 33.632124352501705,57.56393561285222 34.401554404059425,56.93310555355856" stroke="#4DD2FF" stroke-linecap="round" stroke-linejoin="round" stroke-width="0.5"><title>2022-06-28 5.07km</title><desc>356377572</desc></polyline></svg>