<?xml version="1.0" encoding="utf-8" ?>
<svg baseProfile="full" height="130mm" version="1.1" viewBox="0,0,100,130" width="100mm" xmlns="http://www.w3.org/2000/svg" xmlns:ev="http://www.w3.org/2001/xml-events" xmlns:xlink="http://www.w3.org/1999/xlink"><defs /><rect fill="#FAF9F5" height="130" width="100" x="0" y="0" /><text fill="#5A5A5A" style="font-size:6px; font-family:Arial; font-weight:bold;color:#0ed45e;" x="5" y="10">MY TRACKS</text><text fill="#5A5A5A" style="font-size:4px; font-family:Arial" x="5" y="121">Runner</text><text fill="#5A5A5A" style="font-size:6px; font-family:Arial" x="2" y="128">蓝皮书</text><text fill="#5A5A5A" style="font-size:4px; font-family:Arial" x="25" y="121">WORKOUTS INFO</text><text fill="#5A5A5A" style="font-size:3px; font-family:Arial" x="25" y="125">Type: Run</text><text fill="#5A5A5A" style="font-size:3px; font-family:Arial" x="22" y="129">Date: 2022-06-13</text><text fill="#5A5A5A" style="font-size:3px; font-family:Arial" x="47" y="125">Distance: 6.97 km</text><text fill="#5A5A5A" style="font-size:3px; font-family:Arial" x="47" y="129">Duration: 40:09min</text><text fill="#5A5A5A" style="font-size:3px; font-family:Arial" x="75" y="125">Pace: 5:45/km</text><text fill="#5A5A5A" style="font-size:3px; font-family:Arial" x="75" y="129">Elevation: 0m</text><polyline fill="none" points="24.608463434502482,52.03610558563378 26.40550534101203,52.55060362588847 28.002875924576074,53.236600332311355 29.467132292687893,54.00834569724975 31.131059983512387,54.265593932941556 32.528759244363755,53.75109735154547 33.99301561224274,53.06510122859618 35.6569433035329,52.37910432787612 36.78841413301416,51.178607879264746 38.45234182430431,50.23535899765557 40.24938373058103,49.720858987944666 41.84675431391224,49.206358540279325 43.64379622018896,48.8633579989546 45.640509449411184,48.520357262925245 47.10476581775583,48.17735633230768 48.83525061653927,47.92010550678242 50.49917830736376,48.520357262925245 52.16310599842109,49.03485829400597 53.76047658198513,49.206358540279325 55.357847165549174,48.60610746499151 56.955217748647556,48.17735633230768 58.818816762650385,48.34885682188906 60.41618734621443,48.8633579989546 61.813886606600136,49.206358540279325 63.21158586698584,50.063859043235425 64.80895645031705,50.32110895682126 66.4063270338811,49.97810904774815 68.07025472493842,50.063859043235425 69.40139687783085,49.89235903986264 70.93221035366878,50.66410867171362 72.32990961405449,51.77885640144814 73.92728019761853,51.60735688445857 75.79087921138853,52.20760498108575 77.32169268722646,52.464853982964996 78.91906327055767,52.722102875472046 80.51643385388888,53.40809938748134 82.31347575993277,54.09409512125421 83.91084634372965,54.78009007673245 85.24198849638924,56.066328521526884 86.50657354155555,56.666572192974854 87.37181594083086,58.210053184244316 87.97082990966737,59.753530236834195 88.56984387827106,61.3827517410391 88.90262941666879,63.097717004304286 89.43508627801202,64.55543365504127 89.96754313912243,66.01314679253846 89.63475760095753,67.89959387277486 88.8360723091755,69.44304619880859 88.4367296632845,71.32948258140823 87.83771569444798,73.04441964213038 87.17214461811818,74.75935184047557 86.10723089566454,76.21704038605094 85.30854560411535,77.84621754428372 84.04396055871621,77.76047148747602 82.57970419083722,78.01770962146111 81.31511914590374,79.30389865033794 80.64954806910828,80.84732187527698 79.71774856210686,82.21925032429863 79.65119145438075,83.93415650964016 79.11873459327035,85.6490578330122 79.51807723916136,87.36395429429831 79.18529170122929,89.16459034575382 79.25184880872257,90.79373263090383 78.45316351717338,91.39394184038974 76.85579293360934,91.65117417630972 75.05875102756545,91.82266233954579 73.32826622878201,91.82266233954579 71.46466721477918,91.39394184038974 70.00041084643453,91.3081977039692 68.26992604788393,91.13670939503936 66.4063270338811,90.87947684002575 66.0735414957162,88.99310142890317 66.20665571070276,87.36395429429831 66.20665571070276,85.39182294451166 66.73911257181317,84.01990169123746 66.2732128186617,82.21925032429863 66.47288414160721,80.33284790464677 65.47452752687968,79.38964448851766 64.07682826649398,78.10345564171439 62.34634346771054,79.98986501438776 60.54930156143382,79.73262771917507 58.8853738703765,79.56113612820627 57.288003286812454,78.87516927800607 56.68898931797594,80.24710220040288 56.82210353319533,82.21925032429863 56.888660641154274,84.01990169123746 56.888660641154274,85.90629261202412 56.888660641154274,87.7926776498789 57.08833196386695,89.59331242507324 56.62243221071549,90.96522103704046 54.75883319671266,91.05096522235544 53.02834839792922,91.65117417630972 51.49753492209129,90.96522103704046 49.63393590808846,91.05096522235544 47.83689400181174,91.05096522235544 46.17296631075442,90.62224417593097 44.77526705013588,89.67905680462718 44.974938373081386,88.04991151724244 45.17460969602689,86.3350170008489 45.10805258853361,84.5343725256389 45.04149548104033,82.81946804228937 44.575595727190375,81.27604984981008 44.04313886607997,79.47539031453198 43.57723911246285,77.67472541850293 42.64543960546143,76.13129409810062 41.513968775747344,74.75935184047557 39.716926869470626,74.58785883936798 39.317584223579615,73.21591308072675 38.65201314748265,71.67247038258938 37.387428101850674,70.98649458598811 36.5221857028082,69.27155169041362 35.25760065764189,67.98534132767236 33.660230074077845,67.38510888878955 32.26253081345931,66.35613760829438 30.265817584237084,66.44188528187806 28.402218570699915,66.35613760829438 26.538619556231424,65.41291239671409 24.741577650187537,65.75590355298482 23.210764174349606,66.69912822975311 21.946179129416123,67.55660393228754 20.681594083784148,68.58557317062514 19.749794576782733,69.95752943202388 17.952752670738846,69.70028787007323 17.02095316327177,68.15683620068012 15.556696795392781,68.49982580076903 13.826211996609345,68.92856252769707 12.162284305784851,68.58557317062514 11.097370583564043,67.12786623300053 10.032456861110404,65.92739905806957 9.5,64.46968571387697 9.566557107493281,63.097717004304286 10.498356614727527,62.84047252481105 12.228841413510963,62.068738430098165 13.62654067389667,61.03975810483098 14.75801150361076,59.753530236834195 15.82292522629723,58.29580201249337 17.420295809628442,57.35256423096871 18.55176663934253,55.98057937680278 19.550123253837228,54.608591410913505 20.814708299236372,53.49384889676003 22.345521774841473,52.722102875472046 24.14256368135102,52.29335466050543 25.806491372408345,52.97935165872332 27.47041906323284,53.32234986574622 29.200903862016276,53.49384889676003 30.93138866056688,53.92259626073064 32.46220213640481,53.66534787870478 33.72678718180396,52.55060362588847 35.39071487286128,52.37910432787612 36.655299918027595,51.092858041636646 38.05299917864613,50.14960902673192 39.650369761744514,49.37785873818211 41.580525883473456,49.292108645197004 42.57888249820098,48.8633579989546 44.509038619929925,48.43460704857716 46.17296631075442,48.34885682188906 47.77033689408563,48.00585579400649 49.56737880059518,47.92010550678242 51.09819227620028,48.8633579989546 52.89523418270983,49.292108645197004 54.49260476604104,48.94910815253388 56.35620377981104,48.520357262925245 57.88701725564897,48.09160606912337 59.61750205443241,48.26310658303555 61.21487263799645,49.206358540279325 63.07847165199928,49.46360881894361 64.60928512760438,49.720858987944666 66.20665571070276,49.97810904774815 67.9371405094862,50.14960902673192 69.66762530826963,50.14960902673192 71.33155299909413,50.66410867171362 72.928923582891,51.178607879264746 74.792522596661,51.69310664921068 76.32333607249893,52.20760498108575 78.05382087128237,52.722102875472046 79.51807723916136,53.06510122859618 81.11544782249257,53.06510122859618 82.57970419083722,53.92259626073064 84.04396055871621,54.608591410913505 85.50821692706086,55.551833471807186 86.63968775700778,57.00956830929499 87.37181594083086,58.55304842512123 88.37017255555838,59.925027443736326 88.96918652462773,61.3827517410391 89.43508627801202,63.01196885667741 90.10065735410899,64.46968571387697 90.16721446206793,65.92739905806957 90.10065735410899,67.72809892694931 89.63475760095753,69.27155169041362 89.03574363212101,71.07224160304759 87.90427280217409,72.70143261906924 86.24034511088394,73.30165978200966 84.57641741982661,74.33061924675712 83.71117502078414,75.6168161163223 82.31347575993277,76.5600254154997 80.64954806910828,77.07450259523466 79.45152013166808,78.27494764601579 77.58792111743242,78.61793150869198 75.79087921138853,78.87516927800607 73.99383730487898,79.13240693812259 72.19679539860226,79.13240693812259 70.53286770754494,78.87516927800607 68.86894001648761,78.70367744396208 67.07189811044373,79.04666106362129 65.34141331166029,79.13240693812259 63.61092851287685,78.87516927800607 62.08011503703892,78.70367744396208 60.283073130529374,78.87516927800607 58.61914543970488,78.61793150869198 56.75554642570205,78.5321855613729 54.95850451965816,78.36069363012211 53.22801972087473,78.78942336706677 51.630649137310684,78.96091517695459 50.03327855397947,79.81837349629495 48.302793755196035,79.47539031453198 46.90509449481033,78.10345564171439 46.039852095535025,76.73151785728987 45.5739523419179,74.84509832266485 44.10969597380608,75.18808413040824 42.57888249820098,75.10233769670594 40.91495480737649,74.84509832266485 38.98479868564755,74.75935184047557 37.32087099412456,74.75935184047557 35.72350041102618,74.24487269140081 34.392358258133754,72.8729261548724 32.928101890254766,71.7582173026749 31.330731306690723,71.07224160304759 29.79991783085279,69.7860350694973 28.20254724775441,69.44304619880859 26.871405094396323,70.38626512541668 26.472062448970973,71.92971110576764 25.873048480134457,73.38740647077793 25.074363188352436,75.01659125095466 25.27403451129794,76.645771642623 25.27403451129794,78.36069363012211 26.272391125792637,79.64688192983158 27.86976170912385,80.41859359672526 29.134346754522994,81.44754095457029 30.06614626152441,80.59008494461887 31.19761709147133,80.50433927675476 32.99465899774805,79.38964448851766 34.59202958107926,78.5321855613729 35.85661462624557,77.24599489121465 36.05628594919108,75.44532335840631 35.6569433035329,73.73039310477907 34.791700904024765,72.10120486043161 33.46055875113234,71.07224160304759 31.66351684485562,70.30051801120862 29.999589153798297,69.61454065830912 28.468775677960366,69.44304619880859 26.80484798690304,70.04327659506816 26.33894823328592,71.67247038258938 25.54026294196956,73.13016636751126 25.007806080626324,74.67360534606269 24.675020542461425,76.3027866614866 24.608463434502482,78.27494764601579 26.072719803079963,79.13240693812259 27.337304848013446,80.41859359672526 28.468775677960366,81.6190320107271 29.267460969742388,82.56223195046186 28.735004108631983,80.76157624402549 30.731717337621376,80.16135648370255 34.392358258133754,79.04666106362129 35.79005751851946,77.93196358910063 35.85661462624557,75.87405516195577 35.523829088080674,74.15912612422835 34.52547247335315,72.52993903448805 33.46055875113234,71.15798860794166 31.730073952581733,70.21477088454412 29.79991783085279,69.35729895054828 28.002875924576074,69.95752943202388 26.80484798690304,70.98649458598811 25.806491372408345,72.61568583291955 25.207477403339,74.24487269140081 25.27403451129794,75.95980148605304 25.60682004923001,77.41748713870766 26.139276910573244,78.87516927800607 27.337304848013446,80.33284790464677 29.200903862016276,81.44754095457029 29.600246507907286,82.99095870938618 29.600246507907286,80.84732187527698 31.064502876019105,81.3617954084184 32.66187345935032,79.38964448851766 34.59202958107926,78.5321855613729 35.45727198012173,76.9030102508259 35.6569433035329,75.27383055182872 34.99137222697027,73.47315314778825 34.12612982746214,71.7582173026749 33.39400164340623,71.50097650638781" stroke="#4DD2FF" stroke-linecap="round" stroke-linejoin="round" stroke-width="0.5"><title>2022-06-13 6.97km</title><desc>355518850</desc></polyline></svg>