<?xml version="1.0" encoding="utf-8" ?>
<svg baseProfile="full" height="130mm" version="1.1" viewBox="0,0,100,130" width="100mm" xmlns="http://www.w3.org/2000/svg" xmlns:ev="http://www.w3.org/2001/xml-events" xmlns:xlink="http://www.w3.org/1999/xlink"><defs /><rect fill="#FAF9F5" height="130" width="100" x="0" y="0" /><text fill="#5A5A5A" style="font-size:6px; font-family:Arial; font-weight:bold;color:#0ed45e;" x="5" y="10">MY TRACKS</text><text fill="#5A5A5A" style="font-size:4px; font-family:Arial" x="5" y="121">Runner</text><text fill="#5A5A5A" style="font-size:6px; font-family:Arial" x="2" y="128">蓝皮书</text><text fill="#5A5A5A" style="font-size:4px; font-family:Arial" x="25" y="121">WORKOUTS INFO</text><text fill="#5A5A5A" style="font-size:3px; font-family:Arial" x="25" y="125">Type: Run</text><text fill="#5A5A5A" style="font-size:3px; font-family:Arial" x="22" y="129">Date: 2022-06-11</text><text fill="#5A5A5A" style="font-size:3px; font-family:Arial" x="47" y="125">Distance: 7.01 km</text><text fill="#5A5A5A" style="font-size:3px; font-family:Arial" x="47" y="129">Duration: 01:04:39</text><text fill="#5A5A5A" style="font-size:3px; font-family:Arial" x="75" y="125">Pace: 9:13/km</text><text fill="#5A5A5A" style="font-size:3px; font-family:Arial" x="75" y="129">Elevation: 0m</text><polyline fill="none" points="17.920103092910722,52.607802159909625 19.52061855653301,51.71126234723488 21.469072164734825,51.80091638577869 23.3479381443467,51.98022442456568 24.67010309267789,52.87676385557279 26.131443299120292,53.593994485156145 27.662371133919805,52.966417728806846 29.19329896918498,52.428494298947044 30.724226804217324,51.173337849846575 32.32474226830527,50.635412894771434 33.646907216636464,49.46990725543583 35.45618556719273,48.84232640598202 37.265463917749,48.214744933880866 38.93556701019406,47.58716283884132 40.605670103337616,47.31819889321923 42.27577319601551,47.31819889321923 44.085051546338946,47.049234833044466 45.894329896895215,47.13888953253627 47.42525773216039,47.85612667031819 49.09536082483828,48.3043994680047 50.835051546338946,48.12509038718417 52.5051546394825,47.49750820314512 54.38402061839588,47.407853554643225 56.26288659800775,47.67681746184826 58.00257731974125,48.12509038718417 59.67268041265197,48.57336299441522 61.34278350532986,48.931980851397384 63.08247422706336,49.111289703752846 64.96134020620957,49.111289703752846 66.70103092794307,49.02163528406527 68.30154639179818,49.82852460403228 69.90206185588613,50.5457586912089 71.64175257761963,50.90437542961445 73.4510309281759,50.99402958236169 75.26030927849934,51.53195423242869 76.86082474235445,52.06987842498347 78.32216494879685,52.787109969591256 79.9226804128848,53.23537927237339 81.59278350532986,54.131916923623066 82.84536082507111,55.20776042743819 84.23711340245791,56.28360210126266 85.1417525773868,57.62840161920758 85.62886597961187,59.42146319465246 86.67268041265197,60.76625603984576 87.22938144369982,62.38000367896166 87.36855670134537,64.0833994972636 87.50773195875809,65.78679072693922 87.43814433040097,67.66948095837142 86.88144329912029,69.37286252883496 86.32474226807244,70.98658820509445 85.62886597961187,72.6899608404492 85.00257731974125,74.39332888746867 84.1675257734023,75.73808989458485 82.7757731960155,76.6345956439618 81.31443299003877,77.62075050029671 79.9226804128848,78.69655404420337 78.53092783526517,79.59305559936911 77.83505154657178,81.11710532673169 76.58247422706336,82.46185203606728 76.79123711376451,84.07554431265453 76.65206185588613,85.77888169290964 76.58247422706336,87.48221448552795 76.09536082507111,89.18554269039305 76.30412371153943,90.79921781038865 75.32989690755494,92.14394393202383 74.91237113438547,93.13007460377412 72.96391752618365,92.95077823247993 71.2938144330401,92.59218533703825 69.41494845342822,92.50253708130913 67.88402061886154,92.2335922383354 65.93556701065972,92.2335922383354 64.26546391798183,92.14394393202383 63.29123711353168,91.15781172242714 63.221649484708905,89.45448882965138 63.36082474235445,87.5718634526711 63.43041237141006,85.95818009763025 63.15206185611896,84.2548432003241 63.15206185611896,82.55150171479909 62.80412371153943,80.75850572128547 63.221649484708905,79.77235575788654 61.412371134152636,79.9516558657051 59.67268041265197,79.9516558657051 57.7938144330401,79.86200581822777 55.84536082483828,79.9516558657051 54.17525773216039,79.77235575788654 52.644329896895215,80.3999059125199 52.992268041241914,82.01360345049761 52.78350515477359,83.8065958857187 52.92268041265197,85.68923247163184 52.992268041241914,87.3925655055209 53.40979381441139,89.18554269039305 53.61855670111254,90.97851479187375 53.201030927943066,92.68183358007809 51.46134020620957,92.59218533703825 49.721649484708905,92.77148181007942 47.98195876297541,92.77148181007942 46.17268041265197,92.86113002744969 44.57216494856402,92.77148181007942 42.83247422683053,92.77148181007942 41.162371134152636,92.68183358007809 40.67525773239322,90.88886630767956 40.88402061862871,89.0958939518896 40.88402061862871,87.30291651294101 41.02319587650709,85.59958323731553 40.88402061862871,83.7169463847531 40.81443298980594,82.01360345049761 40.53608247428201,80.3999059125199 39.77061855676584,78.87585445691366 38.86597938160412,77.53110012219986 37.75257731974125,76.09669234685134 36.08247422706336,75.55878859211225 34.27319587650709,75.55878859211225 33.57731958758086,73.94507458317094 33.15979381441139,72.24170532863354 32.394329896895215,70.62798285513418 31.489690721500665,69.19355942169204 30.30670103104785,67.93843624810688 28.706185567192733,67.22122188768117 27.314432989805937,66.41435476019979 25.505154639249668,65.96609479974722 23.6958762886934,65.96609479974722 22.09536082460545,65.24887820257572 20.564432989805937,65.24887820257572 19.033505154773593,66.14539882203098 17.572164948331192,67.31087372731417 15.762886597774923,68.02808798610931 14.78865979379043,66.6833105837577 13.88402061839588,65.42818242817884 12.561855669831857,64.17305178125389 11.51804123679176,62.7386137060239 10.613402061862871,61.21451968600741 9.778350515291095,59.869727794255596 10.05670103104785,58.25597374892095 11.239690721733496,57.090482155035716 12.561855669831857,55.92498841311317 13.744845360983163,54.75949252338614 15.136597937904298,53.593994485156145 16.45876288646832,52.69745607121149 18.128865979146212,51.89057041151682 19.798969072289765,51.2629919644678 21.53865979379043,51.71126234723488 23.069587628822774,52.24918638722738 24.600515463855118,52.87676385557279 26.340206185588613,53.056071589235216 28.149484536377713,52.69745607121149 29.889175257878378,52.06987842498347 31.42010309267789,50.72506708587753 32.74226804100908,49.7388702860917 34.34278350532986,49.111289703752846 36.29123711329885,48.48370849847561 37.89175257761963,47.85612667031819 39.56185567006469,47.49750820314512 41.23195876320824,47.49750820314512 43.11082474212162,47.58716283884132 44.780927835265175,47.13888953253627 46.451030927710235,47.49750820314512 48.12113402062096,48.12509038718417 49.86082474235445,48.12509038718417 51.739690721966326,47.945781255257316 53.40979381441139,47.766472072398756 55.28865979402326,47.67681746184826 57.09793814457953,47.945781255257316 58.837628866080195,48.39405398955569 60.43814433016814,48.663017477840185 62.317010309314355,49.02163528406527 64.05670103104785,49.46990725543583 65.72680412372574,49.38025288656354 67.46649484569207,49.55956161173526 69.06701030954719,50.09748748195125 70.66752577316947,50.5457586912089 72.33762886631303,50.81472126423614 74.07731958781369,51.173337849846575 75.60824742284603,51.35264606657438 77.34793814457953,51.89057041151682 78.94845360843465,52.24918638722738 80.6185567015782,52.966417728806846 82.14948453614488,53.77330201549921 83.47164948494174,54.938799723167904 84.65463917562738,56.37325549137313 85.48969072219916,57.89736117958091 86.46391752618365,59.242157266126014 87.2989690725226,60.85590879438678 87.92525773216039,62.559308718075044 88.20360824768431,64.26270405307878 88.20360824768431,66.14539882203098 87.71649484569207,67.84878449776443 87.43814433040097,69.64181709405966 86.95103092794307,71.34519335150253 86.04639175301418,72.77961190469796 85.2113402064424,74.21402720396873 84.09793814481236,75.6484392498387 82.63659793836996,76.36564405245008 81.38402061862871,77.53110012219986 80.06185567029752,78.69655404420337 78.94845360843465,79.9516558657051 77.83505154657178,81.29640505317366 76.58247422706336,79.9516558657051 75.05154639179818,79.23445512971375 73.31185567029752,79.32410526630701 71.57216494879685,79.23445512971375 69.76288659824058,78.96550464408938 67.95360824768431,79.14480498054763 66.2835051547736,79.5034055011347 64.5438144330401,79.5034055011347 62.873711340129375,79.68270568479784 60.99484536098316,79.77235575788654 59.185567010426894,79.59305559936911 57.51546391798183,79.4137553900946 55.7061855669599,79.4137553900946 53.96649484569207,79.14480498054763 52.296391752781346,79.05515481869224 50.48711340222508,79.32410526630701 48.67783505166881,79.4137553900946 46.93814432993531,79.4137553900946 45.19845360843465,79.32410526630701 43.6675257734023,78.60690381861059 42.20618556719273,77.62075050029671 40.53608247428201,76.99319758760976 38.93556701019406,76.45529459579848 37.40463917539455,75.82774052681634 35.73453608248383,75.6484392498387 33.92525773192756,75.46913792198757 33.22938144323416,73.8554236839991 32.67268041241914,72.06240303488448 31.9072164951358,70.35902870894643 30.793814432807267,68.924604665488 29.40206185542047,67.84878449776443 27.801546391798183,67.0419181707548 25.992268041009083,66.59365865512518 24.11340206186287,66.23505081410985 22.582474227063358,65.5178345219465 20.773195876274258,65.33853032166371 19.242268041241914,66.23505081410985 17.780927835032344,67.13157003559172 16.110824742354453,67.75913273438346 14.719072164734825,66.77296249970095 13.327319587348029,65.78679072693922 12.213917525717989,64.44200855825329 11.935567010194063,63.00757109292317 12.353092783363536,61.21451968600741 11.796391752548516,59.60076907259645 10.195876288460568,59.331810236675665 10.195876288460568,60.317992075753864 11.51804123679176,61.304172376869246 12.42268041241914,62.7386137060239 13.048969072289765,64.35235631215619 14.649484535912052,64.26270405307878 16.389175257645547,63.54548552376218 18.198453608201817,63.276528365619015 19.72938144323416,62.91791864368133 20.703608247684315,64.53166079177754 22.3041237113066,65.06957392615732 23.835051546338946,65.87644276971696 25.505154639249668,65.96609479974722 27.03608247404918,66.41435476019979 28.706185567192733,66.95226629305398 30.167525773169473,67.93843624810688 31.350515463855118,69.10390784882475 32.603092783363536,70.35902870894643 33.15979381441139,71.88310069026193 33.36855670087971,73.6761218480533 33.78608247404918,75.28983654337935 35.317010309314355,75.91739114606753 37.126288659870625,75.73808989458485 38.86597938160412,75.82774052681634 40.53608247428201,75.6484392498387 42.20618556719273,76.00704175286228 43.59793814457953,76.99319758760976 44.989690721966326,77.88970155786956 46.72938144346699,77.97935188486008 48.608247422846034,78.24830278998706 50.34793814457953,78.33795306610409 52.15721649490297,78.24830278998706 53.82731958758086,78.15865250088973 55.49742268072441,78.06900219927775 57.1675257734023,78.15865250088973 58.837628866080195,78.69655404420337 60.57731958758086,78.96550464408938 62.24742268049158,79.05515481869224 63.91752577316947,79.05515481869224 65.65721649490297,79.05515481869224 67.3969072168693,78.96550464408938 69.06701030954719,79.05515481869224 70.80670103128068,79.05515481869224 72.54639175254852,79.05515481869224 74.35567010357045,79.14480498054763 76.09536082507111,79.23445512971375 77.765463917749,79.14480498054763 79.36597938206978,78.24830278998706 80.82731958781369,77.35179932822939 82.21907216520049,76.18634292797651 83.40206185588613,75.02088437997736 84.72422680445015,73.8554236839991 85.83762886631303,72.51065867382567 87.15979381487705,73.40716899855761 88.89948453637771,73.8554236839991 90.5,74.48297971038846 89.24742268095724,74.30367805226706 89.10824742307886,76.09669234685134 89.03865979402326,74.21402720396873 87.36855670134537,73.6761218480533 86.53350515500642,72.24170532863354 87.02061855699867,70.4486801038147 87.43814433040097,68.74530143127777 87.78608247451484,67.0419181707548 87.78608247451484,65.15922607079847 87.6469072168693,63.54548552376218 87.15979381487705,61.842088256787974 86.46391752618365,60.317992075753864 85.280927835498,58.973198277526535 84.09793814481236,57.62840161920758 83.05412371177226,56.37325549137313 81.59278350532986,55.20776042743819 80.13144329912029,54.22157061879989" stroke="#4DD2FF" stroke-linecap="round" stroke-linejoin="round" stroke-width="0.5"><title>2022-06-11 7.01km</title><desc>355385854</desc></polyline></svg>