<?xml version="1.0" encoding="utf-8" ?>
<svg baseProfile="full" height="130mm" version="1.1" viewBox="0,0,100,130" width="100mm" xmlns="http://www.w3.org/2000/svg" xmlns:ev="http://www.w3.org/2001/xml-events" xmlns:xlink="http://www.w3.org/1999/xlink"><defs /><rect fill="#222222" height="130" width="100" x="0" y="0" /><text fill="#FFFFFF" style="font-size:6px; font-family:Arial; font-weight:bold;color:#0ed45e;" x="5" y="10">MY TRACKS</text><text fill="#FFFFFF" style="font-size:4px; font-family:Arial" x="5" y="121">Runner</text><text fill="#FFFFFF" style="font-size:6px; font-family:Arial" x="2" y="128">蓝皮书</text><text fill="#FFFFFF" style="font-size:4px; font-family:Arial" x="25" y="121">WORKOUTS INFO</text><text fill="#FFFFFF" style="font-size:3px; font-family:Arial" x="25" y="125">Type: Run</text><text fill="#FFFFFF" style="font-size:3px; font-family:Arial" x="22" y="129">Date: 2022-04-15</text><text fill="#FFFFFF" style="font-size:3px; font-family:Arial" x="47" y="125">Distance: 4.57 km</text><text fill="#FFFFFF" style="font-size:3px; font-family:Arial" x="47" y="129">Duration: 31:18min</text><text fill="#FFFFFF" style="font-size:3px; font-family:Arial" x="75" y="125">Pace: 6:51/km</text><text fill="#FFFFFF" style="font-size:3px; font-family:Arial" x="75" y="129">Elevation: 0m</text><polyline fill="none" points="12.253229095833376,47.22771331455442 11.867777022300288,47.29865874850657 11.922841604333371,48.93040095563629 11.922841604333371,50.27835789564415 12.088035349966958,51.69725601465325 12.308293677866459,53.045205500908196 12.638681168900803,54.46409577396116 13.079197824466974,55.7410935794469 13.574779061600566,57.018088126176735 14.125424881000072,58.366023278736975 14.731135281967,59.713954800070496 16.05268524773419,59.43018004464102 17.37423521396704,58.86263005097862 18.530591434100643,59.643011126318015 20.18252889160067,59.643011126318015 21.338885112199932,58.93357383547118 22.440176750533283,58.153191653836984 23.651597552467138,57.58564021185157 25.083276682300493,57.44375225069234 26.34976206650026,56.80525592796039 27.23079537693411,55.67014934247709 28.27702243370004,55.102595084143104 29.488443235866725,55.812037806463195 30.865057783666998,55.102595084143104 32.076478585833684,54.393151355790906 33.12270564236678,53.612762092991034 34.33412644453347,52.83237161277793 34.88477226370014,54.03842911450192 35.2702243370004,55.31542800646275 35.32528891903348,56.73431184189394 35.2702243370004,58.153191653836984 35.43541808286682,59.572067442466505 35.43541808286682,61.0618826902064 35.76580557436682,62.33886365778744 37.19748470420018,62.69358001492219 38.629163834266365,62.480750230839476 40.06084296386689,62.12603372291778 41.60265125776641,62.26792035615654 43.14445955120027,62.12603372291778 44.355880353366956,61.48754337488208 45.56730115553364,61.0618826902064 46.44833446643315,61.98414704928291 47.824949014233425,61.55848678725306 49.311692726099864,61.34565652022138 50.633242692099884,61.41659995241207 52.11998640396632,61.34565652022138 53.55166553356685,61.41659995241207 54.92828008159995,61.55848678725306 56.359959211433306,61.62943018937949 57.846702923066914,61.842260335426545 59.33344663493335,61.91320369730238 60.76512576499954,61.842260335426545 62.251869476400316,61.70037358155241 63.62848402443342,61.55848678725306 65.06016315426677,61.48754337488208 66.49184228410013,61.48754337488208 67.92352141393349,61.48754337488208 69.35520054376684,61.70037358155241 70.89700883743353,61.70037358155241 72.27362338546664,61.91320369730238 73.54010876943357,62.196977044513915 74.97178789926693,62.409806949290214 76.2382732834667,62.76452325624996 77.61488783126697,63.19018249239889 79.10163154313341,63.33206882397644 80.42318150913343,63.68678447694401 81.85486063896678,64.39621502891532 83.17641060519964,65.1056445746508 84.38783140713349,65.95695870209602 85.599252209533,66.80827138121822 86.53535010199994,67.73052514914889 87.58157715853304,68.86560437601293 88.6278042148333,69.92973881296348 89.45377294369973,71.13575510593364 90.11454792669974,72.62553592491895 90.27974167256616,74.18625393105322 90.22467709053308,75.67602566824644 90.05948334466666,77.23673415987287 89.61896668933332,78.72649681553594 89.6740312713664,78.72649681553594 90.1696125085,77.44955766786006 90.44493541796692,76.03073257100186 90.27974167256616,74.54096188972471 90.11454792669974,73.0511867729656 89.78416043519974,71.703291178972 89.17845003423281,70.49727625394007 88.13222297746688,69.36220072809374 87.41638341266662,69.43314302407089 88.13222297746688,70.85198682785267 88.6278042148333,72.12894281148328 88.95819170633331,73.40589553653263 89.06832086993381,74.89566959708463 89.01325628813356,76.38543922241661 88.6278042148333,77.59143995636259 88.18728755949996,78.93931969007826 87.52651257649995,80.14531426897156 86.59041468380019,81.28036533526029 85.599252209533,82.27353290643077 84.38783140713349,82.98293710744474 83.17641060519964,83.7632805670728 82.24031271249987,84.7564432102663 81.57953772949986,86.10430364485364 81.52447314746678,87.66497961230925 81.63460231153294,89.01283221290214 81.52447314746678,90.50255981070222 81.41434398363344,91.99228297380614 81.19408565596677,93.34012391904253 81.30421482003294,94.75889993953751 80.80863358266652,95.82297931527137 79.37695445260033,95.75204076053342 78.00033990480006,95.61016362119699 76.62372535676695,95.75204076053342 75.24711080873385,95.68110219590017 73.76036709733307,95.61016362119699 72.32868796726689,95.68110219590017 70.95207341946661,95.5392250364821 71.00713800126687,94.12045122811105 71.00713800126687,92.63073440038715 71.00713800126687,91.21195234628976 71.06220258329995,89.7222268601181 71.06220258329995,88.1615573085146 71.00713800126687,86.74276258339523 70.23623385466635,85.89148381748237 68.80455472460017,85.82054385481752 67.2627464311663,85.96242377004819 65.83106730110012,85.96242377004819 64.28925900743343,85.96242377004819 63.077838205266744,86.38806327362545 63.02277362323366,87.87779868539656 62.96770904166624,89.50940857155365 63.077838205266744,90.8572562042682 62.96770904166624,92.27603926410666 62.857579877600074,93.76575714760111 62.80251529556699,95.18453196136397 62.08667573076673,95.96485639424645 60.54486743710004,95.89391785976477 59.00305914343335,95.75204076053342 57.51631543156691,95.75204076053342 56.08463630173355,95.82297931527137 54.6529571719002,96.1067334334075 53.16621346003376,95.89391785976477 53.056084296433255,94.4751450571639 53.16621346003376,92.98542928541428 53.22127804229967,91.70852652279427 53.22127804229967,90.28974185400875 53.22127804229967,88.7290740723547 53.16621346003376,87.38122070749523 53.00101971440017,86.03336371245678 52.23011556756683,84.96926352017908 51.34908225690015,83.83422082138713 50.468048946000636,82.62823513269541 48.98130523436703,82.34447337177699 48.65091774309985,80.71284012388787 48.15533650573343,79.43590604513884 47.49456152250059,78.2299097564246 46.503399048233405,77.09485177087481 45.51223657373339,76.17261526177754 44.24575118953362,75.25037705298746 43.034330387599766,74.54096188972471 41.60265125776641,74.04437067676918 40.06084296386689,73.90248738287482 38.79435757989995,73.68966236623237 37.63800135953352,72.98024499032181 36.37151597533375,72.3417684918677 35.10503059136681,72.98024499032181 34.60944935400039,72.19988471493707 33.398028551833704,71.84517509661964 32.02141400403343,71.20669715016265 30.92012236570008,70.35539195401361 29.653636981500313,69.43314302407089 28.662474507000297,68.43994996746187 28.442216179333627,67.02109932445455 28.111828687833622,65.74413030591677 27.506118286633864,64.32527201873017 26.625084975967184,63.19018249239889 25.193405846133828,63.261125663266284 23.981985043967143,64.04149987871642 22.715499660000205,64.46715802876861 21.338885112199932,64.96375874607475 20.347722637467086,65.88601591356564 19.852141400100663,66.38261522274115 18.64072059816681,67.02109932445455 17.539428959833458,67.80146767615224 16.878653976600617,68.01429519723752 15.722297756699845,66.31167249448481 15.17165193730034,64.96375874607475 14.400747790466994,63.68678447694401 13.574779061600566,62.69358001492219 13.024133242666721,61.41659995241207 12.308293677866459,60.13961663120426 11.757647858466953,58.79168625656166 11.207002039300278,57.51469623637968 10.766485383734107,56.09581461388734 10.38103331043385,54.74787334559369 10.050645819166675,53.328983877261635 9.775322909466922,51.910090385295916 9.610129163833335,50.56213784121792 9.610129163833335,49.143236503296066 9.555064581800252,47.58244038428529 9.5,46.09258500149008 9.555064581800252,44.60272518257261 9.72025832766667,43.893266566621605" stroke="#4DD2FF" stroke-linecap="round" stroke-linejoin="round" stroke-width="0.5"><title>2022-04-15 4.57km</title><desc>351909202</desc></polyline></svg>