<?xml version="1.0" encoding="utf-8" ?>
<svg baseProfile="full" height="130mm" version="1.1" viewBox="0,0,100,130" width="100mm" xmlns="http://www.w3.org/2000/svg" xmlns:ev="http://www.w3.org/2001/xml-events" xmlns:xlink="http://www.w3.org/1999/xlink"><defs /><rect fill="#FAF9F5" height="130" width="100" x="0" y="0" /><text fill="#5A5A5A" style="font-size:6px; font-family:Arial; font-weight:bold;color:#0ed45e;" x="5" y="10">MY TRACKS</text><text fill="#5A5A5A" style="font-size:4px; font-family:Arial" x="5" y="121">Runner</text><text fill="#5A5A5A" style="font-size:6px; font-family:Arial" x="2" y="128">蓝皮书</text><text fill="#5A5A5A" style="font-size:4px; font-family:Arial" x="25" y="121">WORKOUTS INFO</text><text fill="#5A5A5A" style="font-size:3px; font-family:Arial" x="25" y="125">Type: Run</text><text fill="#5A5A5A" style="font-size:3px; font-family:Arial" x="22" y="129">Date: 2022-04-06</text><text fill="#5A5A5A" style="font-size:3px; font-family:Arial" x="47" y="125">Distance: 4.11 km</text><text fill="#5A5A5A" style="font-size:3px; font-family:Arial" x="47" y="129">Duration: 32:41min</text><text fill="#5A5A5A" style="font-size:3px; font-family:Arial" x="75" y="125">Pace: 7:57/km</text><text fill="#5A5A5A" style="font-size:3px; font-family:Arial" x="75" y="129">Elevation: 0m</text><polyline fill="none" points="20.311563169350848,82.62644997425377 20.600642398465425,83.37131701916223 20.947537473402917,84.04169645695947 21.236616702517495,84.78656149539165 21.641327623045072,85.53142547793686 22.103854389628395,86.2018021591357 22.56638115644455,86.87217798514757 23.028907922795042,87.46806689025834 23.31798715214245,88.2129270710866 23.72269807290286,88.80881445558043 24.127408993663266,89.33021536254091 24.532119914423674,90.00058719696244 25.283725910121575,89.92610147973755 26.035331905819476,89.62815850554034 26.671306209871545,89.33021536254091 27.307280513923615,89.03227205044823 28.0010706637986,88.80881445558043 28.868308351375163,88.58535676554311 29.3886509637814,88.13844110042555 30.02462526783347,87.76601108920295 30.77623126329854,87.46806689025834 31.354389721760526,87.09563640365377 31.990364025812596,86.79769182467135 32.56852248380892,86.42526086280122 33.20449678786099,86.12731590331532 33.84047109214589,85.90385707293171 34.418629550375044,85.53142547793686 35.11241970025003,85.08450721512781 35.7483940043021,84.78656149539165 36.26873661670834,84.1906695489306 36.96252676658332,83.89272332220571 37.598501070868224,83.59477692691144 38.23447537468746,83.29683036229108 38.87044967873953,82.99888362869387 39.5064239827916,82.77542346762493 40.20021413289942,82.47747643856565 40.95182012859732,82.32850286061876 41.70342612429522,82.03055557812331 42.397216274170205,81.73260812624358 43.033190578222275,81.28568663203623 43.84261241974309,81.13671271636849 44.47858672379516,80.76427774160402 45.172376873437315,80.46632957208203 45.86616702377796,80.3173554239329 46.559957173420116,80.01940700085834 47.195931477472186,79.94491986860521 47.83190578175709,79.4979968535481 48.52569593139924,79.2745352035272 49.219486081274226,79.125560717599 50.02890792302787,78.97658618912101 50.66488222707994,78.67863700556336 51.3586723767221,78.4551750071114 52.22591006429866,78.23171291343169 52.919700214173645,78.15722552791703 53.61349036428146,77.93376330751926 54.307280513923615,77.71030099224299 54.943254817975685,77.41235109057743 55.694860813673586,77.33786358882207 56.3886509637814,77.18888855358819 57.19807280506939,77.03991347632837 57.94967880076729,76.81645078054862 58.58565310458653,76.74196319427574 59.27944325492717,76.51850037212716 59.97323340456933,76.36952510435367 60.6092077086214,76.22054979443783 61.418629550142214,76.14606212376384 62.11241970025003,76.14606212376384 62.86402569594793,76.14606212376384 63.50000000023283,75.92259904800449 64.19379014964215,75.84811133501353 64.94539614557289,75.84811133501353 65.7548179870937,75.69913587730844 66.5064239827916,75.69913587730844 67.20021413266659,75.62464813265251 67.83618843695149,75.62464813265251 68.52997858659364,75.69913587730844 69.22376873670146,75.69913587730844 69.97537473239936,75.69913587730844 70.72698072786443,75.69913587730844 71.42077087797225,75.84811133501353 72.1145610276144,75.92259904800449 72.80835117748939,75.99708675045986 73.5021413275972,75.99708675045986 74.25374732306227,76.14606212376384 74.94753747317009,76.29503745475085 75.64132762304507,76.36952510435367 76.33511777315289,76.44401274330448 77.08672376861796,76.66747559735086 77.72269807267003,76.89093835622771 78.41648822254501,76.96542592154583 79.11027837265283,77.03991347632837 79.80406852229498,77.26337607647292 80.44004282657988,77.41235109057743 81.13383297622204,77.6358135328046 81.94325481797569,77.56132606271422 82.63704496785067,77.26337607647292 83.33083511749282,77.56132606271422 83.90899357595481,77.85927587974584 84.54496788000688,78.23171291343169 85.18094218405895,78.60414968343684 85.81691648811102,78.90209890896222 86.510706637986,79.42350964737125 87.03104925039224,79.79594557255041 87.55139186279848,80.24286833382212 88.12955032102764,80.68979071517242 88.53426124202088,81.28568663203623 88.9967880086042,81.95606873097131 89.40149892913178,82.55196321179392 89.74839400406927,83.14785701665096 90.03747323341668,83.89272332220571 90.26873661647551,84.63758857210632 90.5,85.45693912712159 90.44218415394425,86.2018021591357 90.5,87.09563640365377 90.44218415394425,87.84049711260013 90.384368308587,88.65984267264139 90.44218415394425,89.33021536254091 90.384368308587,90.00058719696244 90.15310492506251,90.74544378748396 89.97965738759376,91.49029932229314 89.74839400406927,92.1606684003491 89.45931477495469,92.83103662356734 89.2280513914302,93.5014039913076 88.82334047090262,94.17177050339524 88.30299785849638,94.69316608848749 87.89828693773597,95.21456115599722 87.32012847950682,95.6614708022098 86.62633832963184,95.95941035501892 86.04817987140268,96.40631936740829 85.47002141317353,96.77874325413723 84.83404710912146,97.07668217347236 84.2558886508923,97.44910558516858 83.73554603848606,97.89601333049359 82.92612419696525,98.04498249461176 82.29014989268035,98.11946706060553 81.53854389698245,98.26843616145197 80.78693790151738,98.34292069583898 80.03533190581948,98.26843616145197 79.28372590988874,98.34292069583898 78.53211991442367,98.34292069583898 77.83832976454869,98.26843616145197 77.08672376861796,98.19395161635475 76.39293361874297,98.11946706060553 75.58351177698933,98.04498249461176 74.94753747317009,98.19395161635475 74.25374732306227,98.26843616145197 73.6177730190102,98.41740521969041 72.86616702354513,98.5663742358447 72.05674518202431,98.64085872803116 71.42077087797225,98.64085872803116 70.66916488204151,98.5663742358447 69.97537473239936,98.49188973300625 69.16595289064571,98.5663742358447 68.41434689518064,98.49188973300625 67.72055674507283,98.49188973300625 66.91113490355201,98.34292069583898 66.21734475367703,98.26843616145197 65.52355460380204,98.11946706060553 64.88758029974997,98.34292069583898 64.19379014964215,98.41740521969041 63.50000000023283,98.49188973300625 62.74839400406927,98.49188973300625 61.9967880086042,98.64085872803116 61.30299785872921,98.71534320985666 60.4935760172084,98.71534320985666 59.7419700215105,98.64085872803116 58.990364025579765,98.64085872803116 58.238758030114695,98.64085872803116 57.54496788023971,98.71534320985666 56.90899357595481,98.71534320985666 56.215203426079825,98.86431214160984 55.579229122260585,98.5663742358447 55.0010706637986,98.19395161635475 54.24946466786787,97.97049791767495 53.786937901517376,97.37462092394708 53.38222698075697,96.85322799987625 52.7462526767049,96.55528895382304 52.05246252682991,96.55528895382304 51.3586723767221,96.48080416605808 50.66488222707994,96.33183455857215 50.375802997965366,95.6614708022098 49.56638115621172,95.6614708022098 48.81477516074665,95.5125009623589 48.12098501063883,95.28904612356564 47.42719486076385,95.36353108036565 47.13811563164927,94.69316608848749 47.080299785826355,93.94831509457435 46.964668094180524,93.27794829703635 46.61777301924303,92.60758064413676 46.328693790361285,91.93721213599201 46.03961456101388,91.2668427725439 45.63490364025347,90.6709581760224 45.172376873437315,90.07507290341891 44.65203426126391,89.55367273563752 44.01605995721184,89.10675789427478 43.38008565315977,88.65984267264139 42.7441113491077,88.2129270710866 42.05032119923271,87.98946912778774 41.35653104935773,87.76601108920295 40.604925053194165,87.61703901074361 39.968950749374926,87.84049711260013 39.33297644555569,87.98946912778774 38.63918629521504,88.06395511940354 37.94539614580572,87.84049711260013 37.13597430381924,87.91498312540352 36.38436830835417,88.28741303127026 35.806209850125015,88.7343285693787 35.11241970025003,89.10675789427478 34.59207708784379,89.7026442650822 34.12955032126047,90.37301562423818 33.49357601697557,90.59647255379241 32.79978586733341,90.37301562423818 32.04817987163551,90.52198692120146 31.354389721760526,90.6709581760224 30.718415417708457,91.04338612809079 29.966809421777725,90.96890055882977 29.27301927190274,90.74544378748396 28.868308351375163,90.07507290341891 28.810492505319417,89.4047011640505 28.11670235544443,89.18124372768216 27.48072805139236,89.62815850554034 26.84475374734029,90.00058719696244 26.035331905819476,90.07507290341891 26.09314775164239,89.4047011640505 26.4978586724028,88.80881445558043 26.84475374734029,88.13844110042555 27.422912205802277,87.76601108920295 28.11670235544443,87.3190947273979 28.694860813906416,86.87217798514757 29.330835117958486,86.49974707636284 29.966809421777725,86.2018021591357 30.602783725829795,85.90385707293171 31.238758029881865,85.60591181786731 31.93254817975685,85.38245276571251 32.56852248380892,85.01002080109902 33.146680942270905,84.63758857210632 33.84047109214589,84.33964259881759 34.59207708784379,83.96720989490859 35.34368308354169,83.59477692691144 35.97965738782659,83.2223436946515 36.61563169164583,82.84991019859444 37.309421841520816,82.55196321179392 38.0032119913958,82.1795292403549 38.52355460380204,81.73260812624358 38.87044967873953,81.13671271636849 39.101713062264025,80.46632957208203 39.3907922913786,79.72145840857411 39.737687366316095,79.051073458686 39.968950749374926,78.3062002887018 39.737687366316095,77.56132606271422 39.27516059949994,76.89093835622771 38.581370449857786,76.59298799012322 37.94539614580572,76.22054979443783 37.36723768734373,75.84811133501353 36.61563169164583,75.55016037728637 35.921841541770846,75.62464813265251 35.170235545840114,75.47567261155928 34.534261241788045,75.55016037728637 33.782655246322975,75.77362361131236 33.20449678786099,76.07157444249606 32.510706638218835,76.29503745475085 31.759100642288104,76.74196319427574 31.123126338236034,77.26337607647292 30.602783725829795,77.78478844137862 30.082441113423556,78.3062002887018 29.562098501017317,78.82761161844246 29.099571734433994,79.34902243083343 28.63704496785067,79.87043272570008 28.058886509621516,80.46632957208203 27.538543897448108,80.9132517632097 27.018201284809038,81.28568663203623 26.440042826579884,81.73260812624358 25.97751605999656,82.32850286061876 25.399357601767406,82.77542346762493 24.936830835184082,83.37131701916223 24.358672376954928,83.81823673931649 23.664882226847112,84.1906695489306 23.08672376885079,83.81823673931649 22.739828693913296,83.2223436946515 22.508565310388803,82.47747643856565 22.103854389628395,81.88158187322551 21.699143469100818,81.28568663203623 21.467880085809156,80.61530367814703 21.41006423998624,79.87043272570008 21.52569593139924,79.125560717599 21.756959314923733,78.4551750071114 22.103854389628395,77.85927587974584 22.45074946479872,77.11440102022607 22.508565310388803,76.36952510435367 21.756959314923733,76.44401274330448 21.005353319225833,76.44401274330448 20.369379014940932,76.66747559735086 19.675588865065947,76.96542592154583 19.097430406836793,77.48683858191362 18.6349036404863,78.00825072493171 18.403640256961808,78.75312431715429 18.345824411371723,79.4979968535481 18.577087794430554,80.16838123346679 18.808351177955046,80.83876475773286 19.15524625289254,81.50914742681198 19.617773019475862,82.10504241444869 19.90685224835761,82.70093672623625 20.195931477705017,83.52029030147241 20.54282655240968,84.11618300818373 20.77408993593417,84.71207503887126 20.13811563164927,84.33964259881759 20.080299785826355,83.59477692691144 19.733404710888863,82.99888362869387 19.3865096361842,82.40298965474358 19.039614561013877,81.65812123706564 18.692719486309215,80.98773875815095 18.403640256961808,80.39184250321705 18.172376873902977,79.64697123423684 17.99892933643423,78.90209890896222 17.99892933643423,78.90209890896222 17.36295503214933,78.52966235060012 16.900428265333176,77.93376330751926 16.49571734503843,77.33786358882207 16.09100642404519,76.74196319427574 15.744111349107698,75.99708675045986 15.45503211999312,75.40118483506376 14.761241970118135,75.10323362407507 14.356531049357727,74.50733069481794 14.06745182001032,73.83693909156136 13.720556745538488,73.16654663294321 13.373661670368165,72.57064150716178 12.853319057961926,71.90024743252434 12.737687366548926,71.22985250275815 12.332976445555687,70.55945671739755 11.986081370385364,69.8145715080318 11.754817987559363,69.14417391666211 11.465738757979125,68.39928670064546 11.234475374920294,67.72888730355771 10.945396145805717,67.05848705064273 10.77194860810414,66.3135968776769 10.540685225045308,65.64319481892744 10.367237687576562,64.97279190464178 10.309421841753647,64.22789877461037 10.251605995930731,63.408515111135785 10.193790149874985,62.589130170294084 10.020342612406239,61.76974395121215 9.962526766816154,61.02484627935337 9.846895074937493,60.354437471949495 9.789079229347408,59.609537793381605 9.846895074937493,58.864637058693916 9.673447537468746,58.19422549434239 9.673447537468746,57.449322752829175 9.673447537468746,56.77890938258497 9.61563169164583,55.95951410138514 9.673447537468746,55.289098829904106 9.61563169164583,54.54419196920935 9.61563169164583,53.79928405233659 9.61563169164583,53.054375079169404 9.673447537468746,52.30946505011525 9.673447537468746,51.56455396430101 9.673447537468746,50.7451505503268 9.673447537468746,50.00023724650964 9.673447537468746,49.25532288663089 9.557815846055746,48.58489905967144 9.61563169164583,47.839982692850754 9.557815846055746,47.16955705935834 9.557815846055746,46.350146790384315 9.61563169164583,45.53073524305364 9.557815846055746,44.86030666268198 9.557815846055746,44.115385014389176 9.557815846055746,43.370462309918366 9.557815846055746,42.62553854903672 9.557815846055746,41.9551062611863 9.5,41.135687858390156 9.5,41.135687858390156" stroke="#4DD2FF" stroke-linecap="round" stroke-linejoin="round" stroke-width="0.5"><title>2022-04-06 4.11km</title><desc>351390808</desc></polyline></svg>