<?xml version="1.0" encoding="utf-8" ?>
<svg baseProfile="full" height="130mm" version="1.1" viewBox="0,0,100,130" width="100mm" xmlns="http://www.w3.org/2000/svg" xmlns:ev="http://www.w3.org/2001/xml-events" xmlns:xlink="http://www.w3.org/1999/xlink"><defs /><rect fill="#222222" height="130" width="100" x="0" y="0" /><text fill="#FFFFFF" style="font-size:6px; font-family:Arial; font-weight:bold;color:#0ed45e;" x="5" y="10">MY TRACKS</text><text fill="#FFFFFF" style="font-size:4px; font-family:Arial" x="5" y="121">Runner</text><text fill="#FFFFFF" style="font-size:6px; font-family:Arial" x="2" y="128">蓝皮书</text><text fill="#FFFFFF" style="font-size:4px; font-family:Arial" x="25" y="121">WORKOUTS INFO</text><text fill="#FFFFFF" style="font-size:3px; font-family:Arial" x="25" y="125">Type: Run</text><text fill="#FFFFFF" style="font-size:3px; font-family:Arial" x="22" y="129">Date: 2022-11-02</text><text fill="#FFFFFF" style="font-size:3px; font-family:Arial" x="47" y="125">Distance: 5.31 km</text><text fill="#FFFFFF" style="font-size:3px; font-family:Arial" x="47" y="129">Duration: 35:17min</text><text fill="#FFFFFF" style="font-size:3px; font-family:Arial" x="75" y="125">Pace: 6:38/km</text><text fill="#FFFFFF" style="font-size:3px; font-family:Arial" x="75" y="129">Elevation: 0m</text><polyline fill="none" points="14.732382550369948,59.05709036067128 16.091442953096703,57.831431701313704 17.450503355823457,56.60577060939977 18.741610738215968,55.29255959694274 19.82885906030424,53.979345791973174 21.052013422828168,52.66612919437466 22.682885906193405,51.878197894839104 24.381711409427226,51.17781367356656 26.284395973430946,51.528005883679725 27.84731543622911,52.05329382617492 29.478187919361517,52.753677054308355 31.177013422828168,53.10386837023543 33.011744966730475,53.016320559894666 34.506711409194395,52.40348553942749 36.001677852356806,51.528005883679725 37.428691275184974,50.4774286581669 38.78775167814456,49.5143979646964 40.35067114094272,48.901559468708 42.117449664277956,48.901559468708 43.68036912754178,49.07665624393849 45.243288590572774,49.864591117948294 46.67030201340094,50.91516938590212 48.50503355683759,50.91516938590212 50.20385906053707,50.91516938590212 52.10654362430796,50.91516938590212 53.73741610744037,50.56497682852205 55.43624161090702,50.30233228043653 57.13506711414084,50.214784072653856 59.0377516776789,50.12723585247295 60.872483221348375,49.95213937520748 62.70721476501785,49.95213937520748 64.54194630868733,49.77704284840729 66.37667785212398,49.77704284840729 68.14345637569204,50.12723585247295 70.11409395979717,50.214784072653856 71.67701342282817,50.30233228043653 73.37583892606199,50.652524986478966 75.34647651016712,50.91516938590212 77.04530201340094,51.265361744735856 78.7441275168676,51.61555390508147 80.23909395956434,52.14084177312907 81.937919463031,52.92877273703925 83.50083892629482,53.6291549722082 84.92785234889016,54.59217924851691 86.42281879205257,55.81784433708526 87.51006711390801,57.13105423236266 88.59731543599628,58.619355404458474 89.41275167791173,60.195199794485234 90.02432885882445,61.85858673218172 90.36409395956434,63.52196918957634 90.5,65.27289325121092 90.36409395956434,66.84872066223761 89.9563758391887,68.77472648135154 89.14093959704041,70.52563564968295 88.25755033525638,72.0139045396354 87.10234899329953,73.50216984277358 85.81124161067419,74.55270789709175 84.45218120794743,75.51569954369916 82.88926174491644,76.56623417278752 81.53020134218968,77.61676701478427 81.19043624168262,79.19256292673526 81.12248322134838,81.20607407420175 80.71476510050707,82.69431722426089 80.51090604043566,84.4451869270415 80.30704697966576,86.10850854660384 80.44295302010141,87.68428279063664 80.57885906030424,89.61022362840595 79.76342281862162,91.01090410153847 77.99664429505356,91.09844652574975 76.16191275184974,90.66073428129312 74.39513422828168,90.7482767549227 72.69630872481503,90.83581921632867 70.86157718114555,90.5731917952071 69.16275167791173,91.185988937621 67.9395973153878,90.13547917816322 68.00755033572204,88.38462560833432 67.73573825508356,86.63376707455609 67.66778523474932,84.7078169543529 67.9395973153878,82.9569479963393 68.0755033553578,81.29361788800452 68.14345637569204,79.54273925005691 66.64848993299529,78.92993055400439 64.94966442952864,78.8423864049837 63.11493288585916,78.75484224344837 61.21224832208827,78.6672980695148 59.377516778651625,78.40466547332471 58.01845637592487,79.36765111313434 57.95050335559063,81.1185302475933 57.88255033548921,82.78186082752654 57.474832214647904,84.62027362425579 57.54278523498215,86.37113786651753 57.74664429528639,88.12199714488816 57.61073825508356,90.13547917816322 56.72734899329953,91.01090410153847 54.960570469731465,90.7482767549227 53.261744966497645,90.5731917952071 51.49496644292958,90.83581921632867 49.79614093969576,90.5731917952071 48.09731543646194,90.48564929678105 46.26258389255963,90.48564929678105 45.85486577171832,88.82233946630731 45.7189597315155,87.07148217363283 45.99077181215398,85.23307667364134 46.126677852356806,83.39466570114018 46.26258389255963,81.46870547888102 46.05872483202256,79.80537136219209 45.37919463100843,78.2295770138735 44.29194630868733,76.65377864451148 43.340604026801884,75.25306560698664 41.641778523568064,74.46516312728636 40.75838926178403,73.58971474872669 40.28271812084131,71.83881426800508 39.60318791959435,70.26299959095195 38.923657718114555,68.77472648135154 37.83640939602628,67.46154134708922 36.613255033502355,66.32344530522823 35.25419463100843,65.44798538432224 33.75922818784602,64.74761655414477 32.06040268437937,64.30988563172286 30.429530201479793,64.22233940992737 28.66275167791173,64.30988563172286 26.82802013400942,64.3974318409455 25.265100671211258,65.01025495846989 23.770134228048846,66.06080745952204 22.479026845656335,67.19890398508869 21.32382550346665,68.24945276288781 19.82885906030424,69.03736317314906 18.197986577171832,68.68718089262256 16.838926174445078,67.72417859744746 15.140100670978427,68.42454405210447 13.645134228048846,69.56263622135157 12.693791946163401,68.16190709953662 11.742449664277956,66.7611748003983 10.79110738239251,65.27289325121092 9.839765100739896,63.8721543988795 9.975671140709892,62.471412369282916 11.266778523568064,61.50840038101887 12.625838926294819,60.632933633518405 13.91694630868733,59.58237189828651 15.20805369131267,58.619355404458474 16.363255033269525,57.21860145946266 17.654362416360527,56.080486539693084 18.673657718347386,54.67972683539847 19.760906039969996,53.36651172727579 20.984060402493924,52.31593762966804 22.479026845656335,51.528005883679725 24.313758389092982,51.002717494324315 25.94463087245822,51.265361744735856 27.4395973153878,51.70310191396857 29.206375838955864,52.31593762966804 30.905201342422515,52.57858132169349 32.73993288585916,52.92877273703925 34.16694630868733,54.3295364130754 35.86577181215398,54.59217924851691 37.49664429505356,54.41708403744269 39.19546979852021,54.15444112737896 41.09815436252393,53.6291549722082 42.66107382532209,53.19141616835259 44.223993288585916,52.66612919437466 45.78691275184974,52.05329382617492 47.553691275184974,51.70310191396857 49.11661073798314,51.3529098033905 50.8833892615512,50.91516938590212 52.51426174514927,51.528005883679725 54.21308724838309,51.878197894839104 56.04781879205257,51.79064991069026 57.678691275184974,51.70310191396857 59.44546979852021,51.528005883679725 61.21224832208827,51.3529098033905 63.11493288585916,51.265361744735856 64.88171140942723,51.3529098033905 66.51258389279246,51.440457849705126 68.21140939602628,51.528005883679725 69.97818791936152,51.70310191396857 71.812919463031,51.79064991069026 73.51174496649764,52.14084177312907 75.2105704699643,52.40348553942749 76.84144295286387,52.66612919437466 78.47231543622911,53.10386837023543 80.10318791959435,53.19141616835259 81.73406040272675,53.27896395412972 83.43288590596057,54.24198877636809 84.92785234889016,55.205012096848805 86.35486577171832,56.43067596905166 87.57802013424225,57.831431701313704 88.66526845633052,59.407278102007695 89.41275167791173,60.98312048148364 89.88842281885445,62.734051741834264 90.09228187915869,64.3974318409455 90.36409395956434,66.06080745952204 89.88842281885445,67.6366328598815 89.54865771834739,69.38754525483819 88.59731543599628,70.78827159688808 87.64597315411083,72.18899476126535 86.42281879205257,73.41462492401479 85.06375838909298,74.64025265420787 83.50083892629482,75.6032441642019 82.27768456353806,77.00395640730858 80.44295302010141,77.44167833164101 78.81208053673618,77.17904521431774 76.97734899329953,77.35413397179218 75.34647651016712,77.0915008171578 73.64765100646764,77.0915008171578 71.88087248336524,77.26658959907945 70.18204697966576,77.26658959907945 68.61912751663476,77.52922267949907 66.78439597296529,77.35413397179218 64.94966442952864,77.35413397179218 63.3187919461634,77.26658959907945 61.61996644292958,77.0915008171578 59.853187919128686,77.0915008171578 58.01845637592487,77.17904521431774 56.38758389279246,77.44167833164101 54.348993288353086,77.17904521431774 52.51426174514927,77.26658959907945 50.8833892615512,77.00395640730858 49.18456375831738,76.56623417278752 47.48573825485073,75.42815491039073 46.67030201340094,74.1149839249556 46.4664429530967,72.3640849335934 47.28187919477932,70.70072629343485 48.437080536969006,69.29999975318788 50.0,68.42454405210447 51.359060402726755,67.02381234843051 51.69882550323382,65.1853471660288 51.08724832208827,63.43442285602214 49.38842281885445,62.646505296987016 48.09731543646194,61.33330713066971 47.07802013424225,60.107652989332564 47.28187919477932,58.35671428171918 48.16526845633052,56.95595974108437 47.145973154343665,55.55520202283515 45.37919463100843,55.11746458453126 44.631711409427226,53.80425040697446 45.243288590572774,52.31593762966804 46.05872483202256,51.96574586641509" stroke="#4DD2FF" stroke-linecap="round" stroke-linejoin="round" stroke-width="0.5"><title>2022-11-02 5.31km</title><desc>363666566</desc></polyline></svg>