<?xml version="1.0" encoding="utf-8" ?>
<svg baseProfile="full" height="130mm" version="1.1" viewBox="0,0,100,130" width="100mm" xmlns="http://www.w3.org/2000/svg" xmlns:ev="http://www.w3.org/2001/xml-events" xmlns:xlink="http://www.w3.org/1999/xlink"><defs /><rect fill="#222222" height="130" width="100" x="0" y="0" /><text fill="#FFFFFF" style="font-size:6px; font-family:Arial; font-weight:bold;color:#0ed45e;" x="5" y="10">MY TRACKS</text><text fill="#FFFFFF" style="font-size:4px; font-family:Arial" x="5" y="121">Runner</text><text fill="#FFFFFF" style="font-size:6px; font-family:Arial" x="2" y="128">蓝皮书</text><text fill="#FFFFFF" style="font-size:4px; font-family:Arial" x="25" y="121">WORKOUTS INFO</text><text fill="#FFFFFF" style="font-size:3px; font-family:Arial" x="25" y="125">Type: Run</text><text fill="#FFFFFF" style="font-size:3px; font-family:Arial" x="22" y="129">Date: 2022-05-28</text><text fill="#FFFFFF" style="font-size:3px; font-family:Arial" x="47" y="125">Distance: 7.01 km</text><text fill="#FFFFFF" style="font-size:3px; font-family:Arial" x="47" y="129">Duration: 48:25min</text><text fill="#FFFFFF" style="font-size:3px; font-family:Arial" x="75" y="125">Pace: 6:54/km</text><text fill="#FFFFFF" style="font-size:3px; font-family:Arial" x="75" y="129">Elevation: 0m</text><polyline fill="none" points="19.35678807948716,54.364326379669365 20.831953642657027,53.06850209319964 22.441225165501237,52.204617704148404 23.648178807925433,50.99517750245286 25.257450331468135,50.99517750245286 26.933774834731594,50.99517750245286 28.67715231794864,50.73601143260021 30.35347682144493,50.476845252444036 32.23096026503481,50.476845252444036 33.77317880792543,50.04490137397079 35.382450331235304,49.26740162138594 36.455298013286665,50.476845252444036 38.06456953682937,49.87212373688817 39.67384105990641,49.44017942965729 41.4842715235427,49.18101269862382 43.36175496713258,49.18101269862382 44.971026490209624,49.18101269862382 46.64735099370591,48.83545688533923 48.39072847715579,48.92184585693758 50.134105960372835,49.26740162138594 52.01158940419555,49.5265683158068 53.687913907459006,49.78573490027338 55.364238410722464,49.78573490027338 57.17466887459159,49.5265683158068 58.98509933776222,49.26740162138594 60.8625827813521,49.18101269862382 62.60596026503481,49.18101269862382 64.34933774848469,49.35379053169163 66.02566225174814,49.44017942965729 67.76903973519802,49.44017942965729 69.57947019883431,49.699346050969325 71.32284768228419,50.30406773794675 73.13327814568765,50.908788824803196 74.94370860932395,51.167954821139574 76.68708609277382,51.513509311538655 78.43046357645653,51.85906360595254 80.03973509953357,52.55017160688294 81.51490066223778,52.89572531328304 83.19122516573407,53.50044382805936 84.73344370862469,54.364326379669365 86.07450331118889,55.746535914426204 87.28145695384592,56.86957885295851 88.4213576160837,58.25178270472679 89.09188741724938,59.7203708619345 89.7624172186479,61.27534270018805 90.09768211957999,62.916697557549924 90.5,64.73082146624802 90.29884105967358,66.4585535012884 90.03062913939357,68.09989439701894 89.5612582785543,69.91400287474971 88.82367549696937,71.4689486999996 87.81788079510443,73.02389055729145 86.94619205314666,74.7515990784741 85.67218543053605,76.04737725481391 84.6663907286711,77.34315267560305 83.19122516573407,78.2933862330392 81.71605960279703,79.15723363531288 80.97847682144493,80.62577140971553 80.30794702027924,82.09430564462673 79.90562913939357,83.90837246045703 79.50331125827506,85.54966635495657 79.50331125827506,87.45010639401153 79.30215231818147,89.177774013835 79.30215231818147,90.99181974306703 77.75993377505802,91.4237345965812 76.01655629160814,91.0782027381938 74.27317880792543,90.99181974306703 72.5968543048948,91.16458572115516 70.98758278181776,91.0782027381938 69.24420529813506,91.0782027381938 67.56788079463877,91.16458572115516 65.69039735104889,91.16458572115516 63.74586092727259,91.25096869183471 61.935430463869125,91.33735165046528 60.259105960140005,91.4237345965812 58.44867549696937,91.51011753058992 56.63824503310025,91.59650045249145 54.760761589510366,91.4237345965812 52.9503311261069,91.4237345965812 51.274006622610614,91.4237345965812 49.3965231787879,91.4237345965812 47.51903973519802,91.4237345965812 45.775662251748145,91.68288336216938 44.635761589510366,90.5599045829149 44.50165562937036,88.83224088168936 44.56870860932395,87.01818872388685 44.702814569696784,85.3768987848307 44.56870860932395,83.64922038884833 44.76986755011603,81.8351528015919 44.90397351025604,80.19384890224319 44.30049668881111,78.63892534084152 43.36175496713258,77.2567677332554 42.490066224941984,75.96099212864647 40.94784768228419,75.01075493433746 39.2715231787879,74.83798437612131 38.399834437295794,73.88774543028558 38.06456953682937,72.24642012472032 37.39403973519802,70.51870450051501 36.52235099347308,69.05014236853458 35.382450331235304,67.9271218793001 33.90728476806544,66.80409932037583 32.49917218578048,66.11300748609938 30.688741721911356,65.7674612752744 28.94536423846148,65.8538478462724 27.26903973519802,66.4585535012884 25.726821192074567,67.06325855612522 24.25165562937036,68.09989439701894 23.111754967132583,69.4820727747283 22.173013245221227,71.03701970219845 21.636589404195547,72.76473385689314 20.496688741724938,73.02389055729145 19.692052980186418,71.38256292499136 18.686258278321475,69.91400287474971 17.41225165594369,68.87737012008438 16.205298013286665,67.58157669694629 14.663079470163211,67.9271218793001 13.05380794685334,68.3590530816582 11.645695364335552,67.32241768174572 10.975165562704206,65.9402344050468 10.03642384102568,64.29888769215904 9.902317880885676,62.916697557549924 10.908112582750618,62.052827130886726 12.383278145687655,61.36172990803607 13.590231788344681,59.89314570656279 14.596026490209624,58.25178270472679 15.668874172493815,57.215130109805614 17.14403973519802,56.264863681572024 18.149834437295794,54.88265532278456 19.490894039859995,53.58683213847689 20.76490066223778,52.55017160688294 22.441225165501237,52.03184067964321 23.312913907459006,50.56323399144458 24.922185430303216,50.73601143260021 26.73261589417234,50.99517750245286 28.4089403974358,50.476845252444036 30.08526490093209,50.217678962275386 31.895695364335552,50.30406773794675 33.30380794708617,51.427120707405265 34.71192052983679,52.291006198269315 36.187086092540994,51.167954821139574 37.66225165571086,50.131290174263995 39.1374172186479,49.26740162138594 40.94784768228419,48.83545688533923 42.758278145687655,48.74906790157547 44.36754966923036,48.403511843353044 46.1109271524474,48.48990087641869 47.988410596270114,48.74906790157547 49.73178807948716,49.44017942965729 51.40811258298345,49.699346050969325 53.21854304638691,49.78573490027338 55.02897351025604,49.61295718967449 56.77235099347308,49.35379053169163 58.582781456876546,49.0946237637545 60.12500000023283,49.35379053169163 61.868377483449876,49.18101269862382 63.544701986713335,49.35379053169163 65.28807947016321,49.44017942965729 66.89735099370591,49.699346050969325 68.7748344372958,49.87212373688817 70.65231788088568,50.131290174263995 72.19453642400913,50.64962271810509 74.00496688787825,51.08156616805354 75.48013245034963,51.85906360595254 77.08940397342667,52.118229198036715 78.69867549696937,52.463783149491064 80.375,52.89572531328304 81.85016556316987,53.50044382805936 83.3253311261069,54.105161742598284 84.6663907286711,54.96904343692586 86.00745033146814,56.09208780841436 87.28145695384592,57.301517893443815 88.22019867552444,58.85649590409594 88.89072847715579,60.497857276932336 89.5612582785543,62.225601314159576 89.96357615920715,63.86695361189777 90.23178807995282,65.68107469176175 90.09768211957999,67.32241768174572 89.62831125850789,68.96375625033397 89.09188741724938,70.51870450051501 88.28725165594369,72.24642012472032 87.34850993403234,73.71497455373174 86.27566225174814,74.83798437612131 85.06870860932395,76.1337623684085 83.59354304638691,77.17038277874235 82.18543046386912,78.12061660527252 81.24668874172494,79.33000296913087 80.44205298041925,80.88492476718966 80.03973509953357,82.61261100019328 79.7715231787879,84.34029233484762 79.57036423869431,86.2407361457008 79.30215231818147,87.88202375813853 79.57036423869431,89.60969015333103 78.96688741724938,91.16458572115516 77.29056291421875,91.16458572115516 75.74834437132813,91.0782027381938 74.13907284801826,90.99181974306703 72.46274834428914,90.99181974306703 70.78642384102568,90.81905371550238 68.97599337762222,91.0782027381938 67.09850993403234,91.25096869183471 65.15397351025604,91.4237345965812 63.47764900699258,91.51011753058992 61.667218543123454,91.76926625927445 59.990894039859995,91.51011753058992 58.18046357645653,91.51011753058992 56.2359271524474,91.76926625927445 54.55960264895111,91.68288336216938 52.9503311261069,91.4237345965812 51.34105960279703,91.4237345965812 49.53062913916074,91.4237345965812 47.78725165594369,91.25096869183471 45.9768211923074,91.51011753058992 44.702814569696784,90.73267068364657 44.90397351025604,88.91862418293022 45.03807947016321,87.10457228223095 45.03807947016321,85.3768987848307 44.90397351025604,83.64922038884833 44.83692052983679,81.9215370946913 44.90397351025604,80.28023342811503 44.50165562937036,78.72531008720398 43.36175496713258,77.34315267560305 42.490066224941984,75.87460699054645 41.01490066223778,75.26991067978088 39.40562913916074,75.01075493433746 38.19867549696937,74.06051625777036 37.72930463566445,72.41919141774997 37.3269867550116,70.60509039793396 36.25413907296024,69.30930064892164 35.114238410722464,68.18628063733922 33.706125827971846,67.06325855612522 32.16390728508122,66.4585535012884 30.55463576177135,65.9402344050468 28.811258278321475,65.68107469176175 27.067880794638768,66.37216701597208 25.592715231934562,67.23603131866548 24.385761589510366,68.2726668654941 23.17880794708617,69.4820727747283 22.173013245221227,70.95063386572292 21.770695364335552,72.67834826529725 20.630794702097774,73.02389055729145 19.692052980186418,71.4689486999996 18.55215231818147,70.08677482913481 17.41225165594369,69.05014236853458 17.076986755011603,67.40880403236952 16.07119205291383,66.63132643530844 14.528973509790376,67.66796301089926 12.986754967132583,68.18628063733922 11.44453642400913,67.32241768174572 10.237582781352103,65.9402344050468 9.5,64.38527447165688 9.835264900466427,62.65753655816661 11.176324503263459,62.052827130886726 12.651490066200495,61.016181002545636 13.992549669230357,59.89314570656279 14.931291390676051,58.424557965947315 16.138245033100247,57.128742314118426 17.41225165594369,55.832923906215 18.619205298135057,54.53710274299374 19.89321192074567,53.50044382805936 21.435430463636294,52.463783149491064 22.91059602657333,51.686286483192816 23.71523178811185,50.217678962275386 25.32450331118889,50.82240013498813 27.00082781468518,50.908788824803196 28.67715231794864,50.476845252444036 30.487582781352103,50.131290174263995 32.23096026503481,50.217678962275386 33.57201986759901,51.34073209104827 34.846026490209624,52.204617704148404 36.187086092540994,51.08156616805354 37.66225165571086,50.131290174263995 39.1374172186479,49.26740162138594 40.7466887421906,48.74906790157547 42.35596026503481,48.23073374078376 44.03228476806544,48.48990087641869 45.775662251748145,48.48990087641869 47.653145695570856,48.74906790157547 49.2624172186479,49.26740162138594 50.938741721911356,49.699346050969325 52.74917218531482,49.87212373688817 54.55960264895111,49.699346050969325 56.30298013240099,49.61295718967449 57.97930463566445,49.18101269862382 59.65562913916074,48.83545688533923 61.53311258298345,48.83545688533923 63.276490066200495,49.26740162138594 64.81870860932395,49.5265683158068 66.56208609277382,49.44017942965729 68.1713576160837,49.26740162138594 69.84768211911432,49.61295718967449 71.45695364265703,50.131290174263995 73.2003311261069,50.390456501278095 74.87665562937036,50.99517750245286 76.62003311282024,51.34073209104827 78.49751655641012,51.513509311538655 80.24089403986,52.118229198036715 81.91721854312345,52.80933690501843 83.3253311261069,53.75960872229189 84.73344370862469,54.7962671960704 85.94039735104889,56.09208780841436 87.14735099370591,57.38790566462558 88.08609271538444,58.77010834089015 89.15894039766863,60.23869524890324 89.62831125850789,62.052827130886726 90.09768211957999,63.69417989399517 89.82947019906715,65.50830148835666 89.96357615920715,67.40880403236952 89.62831125850789,69.05014236853458 89.36009933776222,69.91400287474971" stroke="#4DD2FF" stroke-linecap="round" stroke-linejoin="round" stroke-width="0.5"><title>2022-05-28 7.01km</title><desc>354516540</desc></polyline></svg>