<?xml version="1.0" encoding="utf-8" ?>
<svg baseProfile="full" height="130mm" version="1.1" viewBox="0,0,100,130" width="100mm" xmlns="http://www.w3.org/2000/svg" xmlns:ev="http://www.w3.org/2001/xml-events" xmlns:xlink="http://www.w3.org/1999/xlink"><defs /><rect fill="#222222" height="130" width="100" x="0" y="0" /><text fill="#FFFFFF" style="font-size:6px; font-family:Arial; font-weight:bold;color:#0ed45e;" x="5" y="10">MY TRACKS</text><text fill="#FFFFFF" style="font-size:4px; font-family:Arial" x="5" y="121">Runner</text><text fill="#FFFFFF" style="font-size:6px; font-family:Arial" x="2" y="128">蓝皮书</text><text fill="#FFFFFF" style="font-size:4px; font-family:Arial" x="25" y="121">WORKOUTS INFO</text><text fill="#FFFFFF" style="font-size:3px; font-family:Arial" x="25" y="125">Type: Run</text><text fill="#FFFFFF" style="font-size:3px; font-family:Arial" x="22" y="129">Date: 2022-06-23</text><text fill="#FFFFFF" style="font-size:3px; font-family:Arial" x="47" y="125">Distance: 4.30 km</text><text fill="#FFFFFF" style="font-size:3px; font-family:Arial" x="47" y="129">Duration: 34:40min</text><text fill="#FFFFFF" style="font-size:3px; font-family:Arial" x="75" y="125">Pace: 8:03/km</text><text fill="#FFFFFF" style="font-size:3px; font-family:Arial" x="75" y="129">Elevation: 0m</text><polyline fill="none" points="11.131967763416469,35.307490945851896 10.587978509021923,35.79812627431238 10.207186030689627,36.35885176726151 9.826393552590162,36.91957662443747 10.152787105180323,37.550391328317346 9.880792477866635,38.181205227127066 9.717595701571554,38.81201832089573 9.66319677629508,39.44283060953603 9.717595701571554,40.21382231361349 9.5,40.91472281923052 9.608797850785777,41.685712227394106 9.66319677629508,42.316520848689834 9.826393552590162,42.94732866468257 9.989590329118073,43.71831490256591 9.93519140360877,44.419210438703885 10.09838817990385,45.190194380586036 10.424781732726842,45.82099852946703 10.479180658003315,46.52189108415041 10.6967763598077,47.15269353342592 10.587978509021923,47.783495178009616 10.53357958351262,48.55447387226741 10.53357958351262,49.325451364100445 10.587978509021923,50.02633894942119 10.642377434298396,50.86740274034673 10.53357958351262,51.42811113889911 10.6967763598077,52.1289957431145 10.914372061844915,52.75979103692225 11.29516453971155,53.39058552586357 12.056749496143311,53.39058552586357 12.818334452342242,53.60085017653182 13.09032907965593,54.231643592211185 12.981531228870153,54.932524221163476 12.872733378084376,55.563315937353764 12.818334452342242,56.33428249746794 12.818334452342242,57.10524785501184 12.872733378084376,57.80612440913683 12.92713230359368,58.43691245850641 13.09032907965593,59.13778712466592 13.09032907965593,59.83866079719155 13.307924781460315,60.469446252740454 13.416722632478923,61.17031803706777 13.471121557988226,61.80110179350595 13.634318334283307,62.50197168957675 13.743116185301915,63.27292742772261 14.178307588910684,63.83362175463117 14.395903290482238,64.46440211232402 15.103089321637526,64.25414208255825 15.538280725246295,63.83362175463117 16.02787105436437,63.4131010689307 16.408663532463834,62.7823193698714 17.11584956338629,62.572058624529745 17.71423774329014,62.36179778986843 18.475822699721903,62.36179778986843 19.128609805367887,62.64214554958744 19.890194761566818,62.572058624529745 20.270987239433452,63.062666891142726 20.0533915378619,63.623361456615385 19.726997985038906,64.32422876899363 19.835795836057514,65.02509508805815 20.270987239433452,65.58578742766986 20.869375419570133,65.8661333588243 21.57656145049259,65.79604689098778 22.120550704887137,66.14647913118824 22.501343183219433,66.77725653751986 23.154130288865417,66.9174291852978 23.80691739404574,66.84734286641469 24.459704499691725,67.19777436135337 24.5685023504775,67.96872277581133 24.786098052281886,68.59949785703793 25.547683008480817,68.31915347580798 26.091672263341025,67.89863660591072 26.79885829403065,67.61829182732617 27.560443250462413,67.33794688983471 28.213230355875567,66.9174291852978 28.811618535779417,66.4969111229002 29.410006715916097,66.07639270304935 29.953995970310643,65.72596041299403 30.49798522470519,65.30544133714284 31.041974479565397,64.95500850086682 31.585963733727112,64.53448876916082 32.18435191386379,64.11396867968142 32.78274009376764,63.69344823263236 33.32672934839502,63.27292742772261 33.979516454041004,62.9224931501667 34.577904633944854,62.50197168957675 35.176292813848704,62.08144987098058 35.72028206847608,61.660927694960264 36.20987239736132,61.24040516096284 35.66588314296678,61.660927694960264 35.06749496306293,62.01136286635301 35.61148421722464,61.660927694960264 35.66588314296678,62.291710825113114 35.72028206847608,63.062666891142726 35.99227669578977,63.69344823263236 36.15547347208485,64.46440211232402 36.20987239736132,65.09518166529597 36.26427132287063,65.8661333588243 36.26427132287063,66.56699749157997 36.20987239736132,67.26786063067266 36.26427132287063,67.96872277581133 36.26427132287063,68.73966998799006 36.42746809916571,69.51061599745299 36.20987239736132,70.2114749631437 36.26427132287063,70.91233293482219 36.31867024837993,71.61318991304142 36.536265949951485,72.24396034376696 37.134654129855335,72.52430249913596 37.9506380117964,72.45421697513666 38.65782404295169,72.59438801306533 39.31061114836484,72.80464449539431 39.963398253545165,73.15507176727988 40.61618535919115,73.43541340599768 41.214573539095,73.71575488548842 41.92175957025029,73.78584023067378 42.57454667543061,73.71575488548842 43.227333780843765,73.57558416557731 43.88012088648975,73.3653280112485 44.4785090663936,73.22515719180228 45.07689724629745,72.94481543407892 45.67528542643413,72.52430249913596 46.1648757555522,72.10378920650692 46.76326393522322,71.6832755561918 47.416051040869206,71.2627615481033 48.123237071791664,70.91233293482219 48.77602417720482,70.56190407340182 49.42881128261797,70.35164663699106 50.081598388031125,70.2114749631437 50.78878441872075,69.93113149609417 51.44157152459957,69.72087379163713 52.148757555289194,69.58070193885942 52.80154466070235,69.51061599745299 53.508730691624805,69.44053004638408 54.27031564805657,69.37044408536167 55.0319006042555,69.30035811435664 55.739086635177955,69.09010014138767 56.44627266610041,68.94992810979602 57.0990597717464,68.94992810979602 57.75184687692672,69.09010014138767 58.2958361315541,69.37044408536167 58.94862323696725,69.72087379163713 59.5470114168711,69.93113149609417 60.25419744779356,70.00121737769223 60.90698455320671,69.93113149609417 61.559771658619866,69.79095970315393 62.21255876426585,69.51061599745299 62.865345869679004,69.30035811435664 63.51813297509216,69.16018614219502 64.22531900601462,69.16018614219502 64.87810611142777,69.16018614219502 65.53089321660809,69.23027213322348 66.12928139674477,69.44053004638408 66.78206850215793,69.65078787031234 67.38045668252744,70.00121737769223 68.03324378770776,70.2114749631437 68.68603089312091,70.35164663699106 69.39321692404337,70.4918182711117 70.100402954733,70.56190407340182 70.75319006037898,70.6319898655347 71.46037609106861,70.6319898655347 72.1675621222239,70.6319898655347 72.87474815291353,70.6319898655347 73.58193418383598,70.6319898655347 74.18032236397266,70.77216141996905 74.83310946915299,70.98241867744946 75.4314976495225,71.2627615481033 76.08428475493565,71.40293292386923 76.68267293460667,71.61318991304142 77.33546004001983,71.75336118950509 77.9338482201565,71.82344681271934 78.64103425084613,71.96361802969477 79.23942243098281,72.10378920650692 79.8922095366288,72.17387478009914 80.54499664204195,72.45421697513666 81.25218267273158,72.59438801306533 81.85057085286826,72.73455901123816 82.55775688402355,73.01490088837454 83.26494291471317,73.29524260628386 83.91773002012633,73.50549879061873 84.51611820003018,73.78584023067378 85.06010745465755,74.13626680683228 85.6584956345614,74.4866931346769 86.14808596344665,74.97728957628715 86.90967091987841,75.25763018173166 87.39926124899648,75.95848099899013 87.94325050362386,76.58924588534865 88.37844190723263,77.14992510859156 88.65043653454632,77.85077324302983 88.97683008713648,78.34136634628521 89.30322363995947,78.97212819199194 89.62961719278246,79.53280471253674 89.84721289435402,80.09348059710464 89.95601074537262,80.72424020708422 90.11920752190053,81.49516752635827 90.28240429819562,82.1259253481403 90.39120214898139,82.82676642810111 90.5,83.45752255077241 90.39120214898139,84.22844560761587 90.33680322347209,84.9993674622383 90.28240429819562,85.70020446859417 90.11920752190053,86.40104048151989 89.90161181986332,87.10187550075352 89.62961719278246,87.73262616875581 89.35762256523594,88.4334593002277 88.97683008713648,88.92404190119123 88.54163868352771,89.5547902440594 88.16084620542824,90.18553778229398 87.83445265260525,90.81628451583674 87.34486232372001,91.30686475199764 86.85527199460194,91.79744450148428 86.36568166548386,92.21794104215223 85.9304902618751,92.70851988755749 85.44089993275702,93.19909824611386 84.78811282734387,93.47942851812695 84.18972464720719,93.75975863129133 83.64573539281264,94.11017104896018 83.21054398920387,94.74091277515981 82.99294828739949,95.37165369652212 82.7209536600858,95.93231161782751 82.44895903277211,96.56305101906764 82.44895903277211,97.19378961576149 82.3945601072628,97.894609334704 82.34016118198633,98.5954280604492 82.2857622562442,99.22616406410816 82.23136333120055,99.92698090197518 82.17696440545842,100.62779674655758 82.12256547994912,101.32861159762251 82.06816655467264,102.02942545519909 82.06816655467264,102.66015707780025 82.06816655467264,103.3609690478188 82.01376762916334,103.99169897145475 81.57857622555457,104.55234711692901 80.92578912014142,104.55234711692901 80.21860308945179,104.55234711692901 79.5114170582965,104.48226613356383 78.85862995311618,104.48226613356383 78.15144392196089,104.41218514030334 77.49865681654774,104.34210413694382 76.90026863664389,104.41218514030334 76.1930826054886,104.34210413694382 75.54029550030828,104.27202312377631 74.77871054410934,104.34210413694382 74.12592343846336,104.41218514030334 73.4187374075409,104.41218514030334 72.71155137661844,104.34210413694382 72.00436534569599,104.41218514030334 71.35157824028283,104.34210413694382 70.64439220936038,104.34210413694382 69.93720617867075,104.41218514030334 69.33881799853407,104.48226613356383 68.63163196761161,104.55234711692901 67.92444593668915,104.55234711692901 67.2172599057667,104.48226613356383 66.51007387484424,104.55234711692901 65.80288784392178,104.48226613356383 65.15010073874146,104.62242809051531 64.44291470758617,104.55234711692901 63.73572867689654,104.69250905417721 63.08294157125056,104.62242809051531 62.48455339134671,104.69250905417721 61.831766285933554,104.55234711692901 61.07018132950179,104.55234711692901 60.47179314959794,104.41218514030334 59.71020819339901,104.48226613356383 59.003022162476555,104.48226613356383 58.2958361315541,104.55234711692901 57.534251175122336,104.48226613356383 56.88146406970918,104.41218514030334 56.174278039019555,104.27202312377631 55.46709200786427,104.34210413694382 54.75990597717464,104.34210413694382 53.99832102074288,104.34210413694382 53.56312961713411,103.78145575305098 53.39993284083903,103.01056318695191 53.39993284083903,102.3097507202474 53.508730691624805,101.53885585910757 53.67192746815272,100.83804130621138 53.67192746815272,100.13722575968131 53.72632639366202,99.4364092197211 53.72632639366202,98.73559168615611 53.67192746815272,98.1048550568521 53.67192746815272,97.40403563572909 53.56312961713411,96.70321522126324 53.72632639366202,96.0724759985751 53.56312961713411,95.37165369652212 53.508730691624805,94.67083040089346 53.12793821329251,94.18025350267999 52.85594358621165,93.61959359463071 52.58394895889796,92.9888504378614 52.20315648056567,92.42818917831755 51.98556077899411,91.79744450148428 51.49597044987604,91.37694760333397 50.84318334446289,91.09661613905337 50.1903962388169,91.23678189102793 49.646406984422356,90.74620158516336 49.53760913363658,90.11545476233005 49.320013431832194,89.41462401521858 49.15681665530428,88.78387549339095 48.77602417720482,88.15312616684241 48.449630624381825,87.52237603548565 48.123237071791664,86.89162509934977 47.688045668182895,86.33095692502684 47.30725319008343,85.84037175081903 46.76326393522322,85.34978608955862 46.219274680828676,84.9292837069952 45.67528542643413,84.50878096654196 45.13129617180675,84.08827786846086 44.4785090663936,83.73785834686714 43.93451981199905,83.38743857690133 43.33613163186237,83.17718659571256 42.68334452644922,82.89685048136744 42.030557421036065,82.96693452494219 41.37777031539008,82.89685048136744 40.67058428446762,82.75668236496858 40.0177971792873,82.5464301154716 39.365010073641315,82.33617777662585 38.71222296822816,82.1259253481403 38.11383478855714,81.84558863801067 37.62424445920624,81.35499901257572 36.91705842828378,81.28491474039038 36.373069173889235,81.7755044355581 35.774680993752554,82.05584118529805 35.06749496306293,82.33617777662585 34.41470785741694,82.5464301154716 33.979516454041004,83.03701855862164 33.21793149760924,83.10710258202744 32.72834116849117,83.52760651477729 32.02115513780154,83.73785834686714 31.42276695743203,83.66777441283921 30.769979852018878,83.66777441283921 30.06279382109642,83.59769046868314 29.410006715916097,83.59769046868314 28.86601746128872,83.10710258202744 28.322028206661344,82.68659829159151 27.83243787754327,82.196009500738 27.288448623148724,81.84558863801067 26.690060443244874,81.42508327454561 26.2004701141268,80.93449323179084 25.656480859499425,80.58407147446997 24.949294828576967,80.58407147446997 24.296507722930983,80.37381830098457 23.64372061775066,80.16356503780116 23.317327065160498,79.53280471253674 22.990933512104675,78.97212819199194 22.501343183219433,78.41145103544113 22.120550704887137,77.85077324302983 21.84855607780628,77.29009481490357 21.467763599473983,76.65933082310949 21.141370047116652,76.09865104322671 20.760577568551525,75.53797062783269 20.0533915378619,75.60805571448873 19.34620550693944,76.02856602618704 18.693418401293457,76.44907598022837 18.14942914689891,76.7995006685669 18.14942914689891,76.7995006685669 17.877434519818053,76.72941575074219 17.877434519818053,76.72941575074219 17.55104096699506,76.09865104322671 17.11584956338629,75.53797062783269 16.7894560105633,74.97728957628715 16.571860308758914,74.34652263348107 16.299865681678057,73.71575488548842 16.082269979873672,73.01490088837454 15.647078576032072,72.45421697513666 15.266286097932607,71.96361802969477 14.885493619833142,71.40293292386923 14.504701141500846,70.77216141996905 14.232706514419988,70.0713032495114 13.906312961364165,69.44053004638408 13.634318334283307,68.87984207918635 13.307924781460315,68.24906735576224 13.035930154379457,67.61829182732617 12.7639355272986,67.0576017932035 12.600738750537857,66.3567383561749 12.383143048733473,65.72596041299403 12.165547346929088,65.09518166529597 12.002350570634007,64.46440211232402 11.784754868829623,63.83362175463117 11.621558092534542,63.20284059201367 11.512760241748765,62.572058624529745 11.349563465453684,61.94127585203387 11.240765614435077,61.310492274642456 11.077568837907165,60.679707892559236 11.077568837907165,60.04892270514392 11.077568837907165,59.348049330874346 10.968770986888558,58.64717496288358 10.968770986888558,58.0163871817349 10.805574210826308,57.315510925633134 10.805574210826308,56.68472144534462 10.751175285317004,55.983843300899025 10.751175285317004,55.983843300899025" stroke="#4DD2FF" stroke-linecap="round" stroke-linejoin="round" stroke-width="0.5"><title>2022-06-23 4.30km</title><desc>356092614</desc></polyline></svg>