<?xml version="1.0" encoding="utf-8" ?>
<svg baseProfile="full" height="130mm" version="1.1" viewBox="0,0,100,130" width="100mm" xmlns="http://www.w3.org/2000/svg" xmlns:ev="http://www.w3.org/2001/xml-events" xmlns:xlink="http://www.w3.org/1999/xlink"><defs /><rect fill="#222222" height="130" width="100" x="0" y="0" /><text fill="#FFFFFF" style="font-size:6px; font-family:Arial; font-weight:bold;color:#0ed45e;" x="5" y="10">MY TRACKS</text><text fill="#FFFFFF" style="font-size:4px; font-family:Arial" x="5" y="121">Runner</text><text fill="#FFFFFF" style="font-size:6px; font-family:Arial" x="2" y="128">蓝皮书</text><text fill="#FFFFFF" style="font-size:4px; font-family:Arial" x="25" y="121">WORKOUTS INFO</text><text fill="#FFFFFF" style="font-size:3px; font-family:Arial" x="25" y="125">Type: Run</text><text fill="#FFFFFF" style="font-size:3px; font-family:Arial" x="22" y="129">Date: 2022-11-07</text><text fill="#FFFFFF" style="font-size:3px; font-family:Arial" x="47" y="125">Distance: 5.35 km</text><text fill="#FFFFFF" style="font-size:3px; font-family:Arial" x="47" y="129">Duration: 36:09min</text><text fill="#FFFFFF" style="font-size:3px; font-family:Arial" x="75" y="125">Pace: 6:45/km</text><text fill="#FFFFFF" style="font-size:3px; font-family:Arial" x="75" y="129">Elevation: 0m</text><polyline fill="none" points="16.142677824245766,57.16336239135126 17.362761506112292,55.94077671301784 18.58284518821165,55.242155236017425 19.938493723748252,54.10689364542486 21.294142259284854,52.79697382589802 22.7853556482587,52.098348782456014 24.5476987445727,51.48705121997045 26.242259414168075,51.74903596407967 27.869037656811997,52.098348782456014 29.428033472504467,52.79697382589802 31.05481171514839,53.14628604991594 32.68158995802514,53.05895801237784 34.51171548105776,52.53498952742666 36.138493723701686,51.74903596407967 37.83305439306423,51.3123946620035 39.256485355552286,52.18567695649108 40.95104602491483,52.098348782456014 42.71338912122883,52.18567695649108 44.47573221754283,52.273005117836874 46.30585774057545,51.83636418718379 48.068200836656615,51.48705121997045 49.898326359922066,51.2250663646264 51.38953974889591,50.52643953892402 53.08410041825846,50.17712582880631 54.64309623418376,49.56582635932136 56.26987447706051,49.216512104612775 58.0999999998603,48.9545262833708 59.8623430961743,48.867197651881725 61.69246861943975,48.77986900758697 63.45481171528809,48.867197651881725 65.14937238488346,48.9545262833708 66.97949790791608,49.04185490286909 68.87740585766733,49.04185490286909 70.63974895398133,49.30384068697458 72.3343096235767,49.65315489214845 74.02887029293925,50.26445427478757 75.79121338925324,50.70109631953528 77.55355648556724,51.2250663646264 79.11255230149254,51.57437948038569 80.73933054390363,52.360333266551606 82.16276150639169,53.14628604991594 83.58619246864691,54.10689364542486 85.00962343090214,55.067499742785 86.2297071130015,56.20275956281694 87.44979079463519,57.42534472118132 88.53430962353013,58.822581930900924 89.61882845172659,60.394470003433526 90.36443514656276,62.05368083907524 90.5,63.80021373264026 90.36443514656276,65.6340679412242 89.95774058578536,67.29326466319617 89.27991631790064,68.95245691644959 88.60209205024876,70.4369935648865 87.65313807502389,71.92152663582237 86.63640167354606,73.31873096374329 85.55188284511678,74.62860714283306 83.99288702942431,75.50185638119001 82.23054393311031,76.20045488100732 81.21380753163248,77.51032493193634 80.80711297062226,79.16948966507334 80.67154811718501,80.82864992902614 80.73933054390363,82.5751295897644 80.53598326351494,84.49625149735948 80.33263598335907,86.24272075959016 80.33263598335907,87.98918507044436 80.53598326351494,89.7356444299221 79.7903765689116,91.13280835235491 78.09581589954905,91.22013099247124 76.4690376566723,90.95816303533502 74.57112970715389,90.95816303533502 72.80878661083989,90.7835176687804 71.18200836819597,90.43422678706702 69.4196652721148,90.43422678706702 67.6573221758008,90.43422678706702 67.6573221758008,88.6877694085124 67.79288702923805,86.94130707823206 67.92845188244246,85.10751630237792 67.79288702923805,83.44836756330915 67.99623430962674,81.61456638912205 67.99623430962674,79.86808400508016 67.11506276135333,78.99484095623484 65.35271966527216,78.82019219791982 63.59037656895816,78.73286780016497 61.76025104592554,78.47089453262743 59.93012552312575,78.38357008551247 58.0999999998603,78.64554338995367 58.0999999998603,80.47935340268305 57.96443514642306,82.4004818466492 57.896652719704434,84.05963340814924 57.693305439082906,85.98075068608159 57.625523012597114,87.81453886226518 57.693305439082906,89.7356444299221 56.74435146409087,90.87084035837324 54.91422594152391,91.13280835235491 53.219665271928534,90.87084035837324 51.660669456236064,90.69619496708037 50.03389121335931,90.6088722529239 48.339330543996766,90.6088722529239 46.509205020964146,90.6088722529239 45.492468619020656,89.7356444299221 45.695815899642184,87.90186197246658 45.695815899642184,86.06807405629661 45.28912133909762,84.40892790438375 45.56025104573928,82.48780572437681 45.56025104573928,80.65400169085478 45.492468619020656,78.82019219791982 44.61129707098007,77.24835114460438 43.79790794942528,75.76383091136813 42.44225941412151,74.80325708957389 40.67991631780751,74.3666321298806 40.544351464603096,72.70745446020737 40.13765690359287,71.04827232146636 39.459832635940984,69.56373714620713 38.51087866094895,68.16652430087561 37.29079497908242,67.03128653077874 35.93514644331299,65.89604666805826 34.51171548105776,65.022783811728 32.61380753107369,64.41149907553336 30.851464435225353,64.06219323934056 29.22468619258143,63.62556066631805 27.597907949471846,63.88754024746595 25.903347280342132,64.23684618249536 24.344351464184,64.9354574578465 23.05648535536602,66.15802528371569 22.107531380606815,67.46791668981314 20.751882845070213,68.51582780957688 19.057322175474837,69.12710847251583 17.56610878650099,68.60315365553834 16.48158995807171,67.81722059450112 14.71924686175771,68.25385019660462 13.228033472551033,69.2144342319225 12.143514644121751,67.81722059450112 11.262343096313998,66.4200037875562 10.31338912108913,64.8481310918578 9.5,63.36358097376069 10.31338912108913,61.87902727763867 11.872384937247261,61.529720005521085 13.295815899269655,60.65645095863147 14.515899581601843,59.52119934716029 15.939330544089898,58.47327292559203 17.227196652675048,57.25068984704558 18.04058577399701,55.766121418215334 19.12510460242629,54.45620512688765 20.41297071101144,53.14628604991594 21.97196652693674,52.360333266551606 23.53096234309487,51.57437948038569 25.293305439176038,51.661707728519104 26.92008368205279,52.098348782456014 28.614644351415336,52.79697382589802 30.376987447729334,53.233614074939396 32.003765690140426,53.408270088315476 33.63054393301718,53.49559807626065 35.25732217589393,53.670254015072715 36.884100418305025,53.84490990417544 38.64644351461902,54.19422153418418 40.273221757262945,53.84490990417544 41.96778242685832,53.670254015072715 43.73012552270666,53.84490990417544 45.62803347269073,54.0195657442091 47.18702928861603,53.32094208779745 48.94937238493003,53.05895801237784 50.84728033468127,52.79697382589802 52.40627615060657,52.53498952742666 54.10083681996912,52.18567695649108 55.65983263589442,51.92369239812251 57.422175732208416,51.74903596407967 59.04895397461951,51.661707728519104 60.94686192483641,51.57437948038569 62.70920502115041,51.48705121997045 64.47154811699875,51.3997229472734 66.16610878659412,51.661707728519104 67.8606694561895,51.83636418718379 69.48744769883342,51.83636418718379 71.24979079491459,52.098348782456014 73.01213389099576,52.44766140321735 74.77447698730975,52.70964573870879 76.53682008362375,53.233614074939396 78.09581589954905,53.233614074939396 79.7903765689116,53.32094208779745 81.41715481155552,53.408270088315476 83.11171548091806,54.28154941095272 84.73849372379482,55.242155236017425 86.16192468605004,56.37741473398637 87.51757322181948,57.687326939427294 88.66987447696738,59.2592179091298 89.41548117133789,60.91843180288561 89.95774058578536,62.66496791533427 90.16108786594123,64.41149907553336 90.0933054392226,66.15802528371569 89.68661087867804,67.99187247251393 89.00878661079332,69.65106284362264 88.19539748947136,71.31024874589639 87.11087866104208,72.79477971210144 86.02635983284563,73.93000686058076 84.60292887035757,75.0652319167857 83.51841004192829,76.37510438181926 82.02719665248878,76.89905258809449 80.40041841007769,77.51032493193634 78.434728033375,77.51032493193634 76.672384937061,77.68497406190727 74.910041840747,77.77229860809166 73.2832635983359,77.85962314187782 71.45313807507046,77.85962314187782 69.69079497922212,78.03427217254648 68.13179916329682,77.94694766338216 66.23389121331275,78.03427217254648 64.60711297090165,77.94694766338216 62.844769874587655,77.94694766338216 61.08242677827366,78.12159666931257 59.32008368195966,78.12159666931257 57.48995815892704,78.12159666931257 55.65983263589442,78.20892115385504 53.89748953958042,78.20892115385504 52.202928870217875,78.20892115385504 50.44058577390388,78.29624562588288 48.881589957978576,77.42300034873188 47.45815899572335,76.2877796375542 45.89916317979805,75.8511557301972 44.27238493715413,75.8511557301972 43.79790794942528,74.89058204425965 45.492468619020656,74.80325708957389 46.44142259401269,73.93000686058076 46.57698744768277,72.1835026886547 47.11924686166458,70.61164470016956 48.20376569032669,69.2144342319225 49.83054393297061,68.34117608005181 51.186192468507215,66.94396046164911 51.38953974889591,65.19743648183066 50.169456066563725,63.53823411435587 48.74602510477416,62.49031452689087 47.59372384939343,61.26773942139698 46.71255230112001,59.783180674072355 47.322594142053276,58.211291041690856 47.72928870283067,56.55206985550467 46.10251045995392,55.50413838267559 44.54351464426145,54.718188607890625 43.662343096220866,53.32094208779745 42.848953974898905,53.32094208779745" stroke="#4DD2FF" stroke-linecap="round" stroke-linejoin="round" stroke-width="0.5"><title>2022-11-07 5.35km</title><desc>363922218</desc></polyline></svg>