<?xml version="1.0" encoding="utf-8" ?>
<svg baseProfile="full" height="130mm" version="1.1" viewBox="0,0,100,130" width="100mm" xmlns="http://www.w3.org/2000/svg" xmlns:ev="http://www.w3.org/2001/xml-events" xmlns:xlink="http://www.w3.org/1999/xlink"><defs /><rect fill="#FAF9F5" height="130" width="100" x="0" y="0" /><text fill="#5A5A5A" style="font-size:6px; font-family:Arial; font-weight:bold;color:#0ed45e;" x="5" y="10">MY TRACKS</text><text fill="#5A5A5A" style="font-size:4px; font-family:Arial" x="5" y="121">Runner</text><text fill="#5A5A5A" style="font-size:6px; font-family:Arial" x="2" y="128">蓝皮书</text><text fill="#5A5A5A" style="font-size:4px; font-family:Arial" x="25" y="121">WORKOUTS INFO</text><text fill="#5A5A5A" style="font-size:3px; font-family:Arial" x="25" y="125">Type: Run</text><text fill="#5A5A5A" style="font-size:3px; font-family:Arial" x="22" y="129">Date: 2022-07-01</text><text fill="#5A5A5A" style="font-size:3px; font-family:Arial" x="47" y="125">Distance: 5.00 km</text><text fill="#5A5A5A" style="font-size:3px; font-family:Arial" x="47" y="129">Duration: 34:42min</text><text fill="#5A5A5A" style="font-size:3px; font-family:Arial" x="75" y="125">Pace: 6:56/km</text><text fill="#5A5A5A" style="font-size:3px; font-family:Arial" x="75" y="129">Elevation: 0m</text><polyline fill="none" points="9.5,61.07138580974424 10.682481751777232,62.00237748149084 12.45620437990874,62.25628404918825 13.901459854096174,61.32529277331196 15.149635036475956,60.225028484419454 16.200729927048087,58.870854268199764 17.51459854049608,57.85522159031825 18.762773722643033,56.670314615475945 19.879562043817714,55.316132335574366 20.996350364992395,54.131220320938155 22.44160583964549,52.94630595447961 23.886861313832924,52.269210974744055 25.5291970805265,52.015300159400795 27.171532846754417,52.184574048325885 28.682481752010062,52.692395427206066 30.25912408786826,53.454126685275696 31.835766423260793,53.708036888740025 33.4781021901872,53.53876343177399 35.12043795641512,52.94630595447961 36.5,51.93066319683567 37.879562043817714,50.91501871141372 39.32481751823798,50.06864698679419 40.967153284698725,49.47618606587639 42.67518248199485,48.96836195111973 44.31751824822277,48.71444973174948 45.959854014916345,48.62981230119476 47.60218978114426,49.1376367037883 49.24452554760501,49.39154874329688 50.886861314065754,49.81473523576278 52.59489051112905,50.15328421333106 54.23722627735697,50.15328421333106 55.81386861321516,50.15328421333106 57.45620437944308,49.81473523576278 59.16423357673921,49.39154874329688 60.872262774035335,49.1376367037883 62.5802919708658,49.222274062398355 64.2883211679291,49.47618606587639 65.99635036522523,49.730097961146384 67.70437956228852,49.81473523576278 69.54379562055692,49.730097961146384 71.12043795641512,50.40719582082238 72.69708029204048,50.99965581804281 74.27372262813151,51.168929994804785 75.98175182496198,51.33820412366185 77.55839416058734,51.76138923596591 79.26642335788347,52.269210974744055 80.97445255494677,52.692395427206066 82.4197080291342,53.20021637401078 84.12773722643033,53.96194698405452 85.44160583941266,54.97758628585143 86.55839416058734,56.07786024606321 87.74087591236457,57.432040797604714 88.6605839417316,58.95549024682259 89.44890510942787,60.39430004544556 89.97445255494677,62.00237748149084 90.43430656916462,63.69508589239558 90.36861313902773,65.30315443745349 90.30291970819235,67.08048831589986 90.10583941615187,68.77318232844118 89.5802919708658,70.55050587642472 88.85766423353925,72.15855595550966 88.00364963524044,73.51270003098762 86.9525547446683,74.86684103496373 85.70437956205569,76.22097896743799 84.12773722643033,77.23658040130977 82.68248175177723,78.08291360957082 81.56569343060255,79.35241117258556 80.77737226290628,80.87580468470696 80.18613138701767,82.39919430966256 79.92335766437463,83.83794760826277 79.72627737233415,85.6152263081749 79.59489051089622,87.47713165223831 79.52919708029367,89.08513613994 79.46350364969112,90.77776776417159 77.75547445262782,91.03166209411575 75.98175182496198,90.94703066267539 74.20802919729613,90.86239921930246 72.43430656916462,90.86239921930246 70.92335766437463,90.86239921930246 69.14963503670879,90.69313629704993 67.31021897820756,90.52387332654325 67.37591240857728,88.83124098257395 67.37591240857728,87.0539718567743 67.50729927024804,85.36132967512822 67.57299270085059,83.58405021956423 67.50729927024804,81.80676547304029 67.70437956228852,80.02947543561459 66.58759124088101,79.26777808560291 64.87956204405054,79.09851187601453 63.30291970795952,79.01387875305954 61.52919708029367,78.9292456182302 59.821167883463204,78.9292456182302 58.24452554737218,79.01387875305954 57.850364963524044,80.53727312909905 57.981751825194806,82.22992898779921 57.916058394359425,83.92258004721953 57.850364963524044,85.69985849515069 58.047445255331695,87.47713165223831 57.65328467171639,89.08513613994 57.58759124088101,90.69313629704993 56.27372262789868,91.37018769880524 54.69708029204048,91.20092492026743 52.857664233772084,91.03166209411575 51.018248175503686,90.94703066267539 49.24452554760501,90.86239921930246 47.53649635054171,90.94703066267539 45.894160583848134,90.69313629704993 45.56569343083538,89.08513613994 45.5,87.2232358106412 45.63138686143793,85.44596189795993 45.63138686143793,83.83794760826277 45.63138686143793,82.14529630879406 45.69708029204048,80.368007279234 45.3686131387949,78.67534614156466 44.843065693741664,77.23658040130977 44.64598540170118,75.37464311969234 46.2883211679291,74.78220731235342 46.55109489057213,73.08953033742728 47.14233576646075,71.39684856316308 48.25912408763543,70.04269968840526 49.50729927024804,68.9424514658167 51.083941605873406,68.01147061673691 51.6094890513923,66.40340936701978 51.083941605873406,64.79534378589597 49.77007299289107,63.7797211871366 48.45620437944308,62.76409686036641 47.40510948910378,61.494564022345 46.879562044050545,59.97112105292035 47.79927007318474,58.53231023414992 47.864963503787294,57.00885970517993 46.41970802936703,55.99322385946289 44.77737226290628,55.82395105046453 45.56569343083538,54.80831318866694 47.2080291970633,54.3851302365656 48.916058394359425,53.96194698405452 50.68978102202527,53.53876343177399 52.46350364969112,53.11557957920013 54.23722627735697,52.94630595447961 55.945255474653095,52.692395427206066 57.65328467171639,52.60775856056716 59.49270072998479,52.35384788905503 61.33211678848602,52.35384788905503 62.974452554946765,52.35384788905503 64.81386861321516,52.184574048325885 66.52189781027846,52.269210974744055 68.09854014636949,52.60775856056716 69.93795620463789,52.77703228156315 71.7116788320709,53.11557957920013 73.4197080291342,53.454126685275696 74.99635036522523,53.7926735993824 76.83576642349362,54.131220320938155 78.60948905115947,54.3851302365656 80.44890510942787,54.2158569713356 82.02554744528607,55.06222281616647 83.47080291970633,55.82395105046453 84.85036496352404,56.670314615475945 86.03284671530128,57.939857712714 87.0839416058734,59.29403404064942 87.74087591236457,60.98675013106549 88.39781021908857,62.34091954783071 88.72627737233415,64.03362699900754 88.7919708029367,65.55705960112391 88.59489051089622,67.24975793319754 88.26642335788347,68.85781690326985 87.74087591236457,70.38123719487339 87.0839416058734,71.90465359942755 86.1642335767392,73.51270003098762 85.04744525556453,74.52830607211217 83.66788321174681,75.6285439999192 82.156934306724,76.47487948811613 80.7116788320709,77.5751138284686 79.00364963524044,77.65974715549964 77.36131386854686,77.65974715549964 75.65328467148356,77.91364706406603 74.14233576646075,78.08291360957082 72.5,77.99828034284292 70.85766423377208,77.99828034284292 69.34671532851644,77.99828034284292 67.57299270085059,78.08291360957082 65.86496350402012,78.08291360957082 64.2883211679291,78.08291360957082 62.51459854026325,78.08291360957082 60.937956204637885,77.99828034284292 59.032846715534106,77.99828034284292 57.52189781027846,77.99828034284292 55.945255474653095,78.08291360957082 54.105839415919036,77.91364706406603 52.33211678848602,77.82901377318194 50.75547445262782,77.82901377318194 49.17883211676963,76.89804678206565 47.864963503787294,76.13634543685475 46.61678832140751,75.03610844456125 44.974452554713935,74.9514747459325 43.13503649644554,74.86684103496373 41.49270073021762,74.78220731235342 40.901459854329005,73.42806611635024 40.31021897820756,71.90465359942755 39.71897810231894,70.46587154170265 38.930656934157014,69.02708601660561 37.81386861298233,67.67293176619569 36.56569343083538,66.57267917646095 35.12043795641512,65.64169463183498 33.34671532851644,65.04924916574964 31.50729927024804,64.62607347266749 29.667883211979643,64.62607347266749 28.222627737326548,63.7797211871366 26.843065693508834,62.933367701712996 25.200729927048087,62.933367701712996 23.62408759142272,63.7797211871366 22.244525547605008,64.71070863510249 20.930656934389845,65.4724245587131 19.41970802936703,66.31877444451675 17.908759124344215,66.91121865075547 16.3978102193214,67.4190275024157 15.215328467311338,68.68854774173815 14.689781022025272,70.1273340829066 15.41240875935182,71.48148276581196 15.215328467311338,69.87343086308101 16.135036496445537,68.35000927530928 14.952554744668305,69.53489306836855 14.886861313832924,70.88904309493955" stroke="#4DD2FF" stroke-linecap="round" stroke-linejoin="round" stroke-width="0.5"><title>2022-07-01 5.00km</title><desc>356555856</desc></polyline></svg>