<?xml version="1.0" encoding="utf-8" ?>
<svg baseProfile="full" height="130mm" version="1.1" viewBox="0,0,100,130" width="100mm" xmlns="http://www.w3.org/2000/svg" xmlns:ev="http://www.w3.org/2001/xml-events" xmlns:xlink="http://www.w3.org/1999/xlink"><defs /><rect fill="#FAF9F5" height="130" width="100" x="0" y="0" /><text fill="#5A5A5A" style="font-size:6px; font-family:Arial; font-weight:bold;color:#0ed45e;" x="5" y="10">MY TRACKS</text><text fill="#5A5A5A" style="font-size:4px; font-family:Arial" x="5" y="121">Runner</text><text fill="#5A5A5A" style="font-size:6px; font-family:Arial" x="2" y="128">蓝皮书</text><text fill="#5A5A5A" style="font-size:4px; font-family:Arial" x="25" y="121">WORKOUTS INFO</text><text fill="#5A5A5A" style="font-size:3px; font-family:Arial" x="25" y="125">Type: Run</text><text fill="#5A5A5A" style="font-size:3px; font-family:Arial" x="22" y="129">Date: 2022-02-26</text><text fill="#5A5A5A" style="font-size:3px; font-family:Arial" x="47" y="125">Distance: 5.00 km</text><text fill="#5A5A5A" style="font-size:3px; font-family:Arial" x="47" y="129">Duration: 37:12min</text><text fill="#5A5A5A" style="font-size:3px; font-family:Arial" x="75" y="125">Pace: 7:26/km</text><text fill="#5A5A5A" style="font-size:3px; font-family:Arial" x="75" y="129">Elevation: 0m</text><polyline fill="none" points="9.632029339671135,61.49553274072241 10.622249388834462,61.155335115792695 12.40464547672309,61.155335115792695 13.988997555105016,60.47493928682525 15.111246943706647,59.36929441912798 15.90342298289761,57.83839816093678 16.233496332541108,56.05234758905135 16.233496332541108,54.436392489180434 17.817848410923034,53.75598903995706 19.468215158907697,53.16063538863091 21.052567237289622,52.99053423682926 22.504889975534752,51.96992631338071 24.089242053916678,51.20446923101554 25.14547677244991,50.01375627302332 26.795843520900235,50.43901117221685 28.64425427885726,50.26890924887266 30.294621027074754,49.928705256956164 32.07701711496338,50.01375627302332 33.727383863180876,50.01375627302332 35.179706601426005,49.33334780723089 36.698044009972364,49.16324557043845 37.95232273824513,49.67355213675182 39.536674816859886,48.908092124213 41.055012225173414,48.567887361044995 42.771393642993644,48.908092124213 44.6198044011835,48.823040951625444 46.27017114916816,48.993143285100814 47.85452322755009,48.993143285100814 49.63691931543872,48.993143285100814 51.35330073349178,49.07819443393964 52.93765281164087,49.07819443393964 54.72004889976233,49.24829669506289 56.370415647746995,49.24829669506289 58.152811736101285,49.07819443393964 59.80317848408595,48.908092124213 61.45354523207061,49.24829669506289 63.1699266503565,49.16324557043845 64.68826405867003,49.50344999600202 66.47066014655866,49.67355213675182 68.12102689500898,49.75860318890773 69.90342298289761,49.928705256956164 71.61980440095067,50.35396021651104 73.33618581900373,50.779214874783065 74.98655256722122,51.20446923101554 76.70293398550712,51.62972328602336 78.41931540332735,52.14002775429981 80.0036674819421,52.73538241867209 81.5220048900228,53.500837547238916 82.97432762850076,54.436392489180434 84.42665036674589,55.37194597237976 85.61491442541592,56.4775982076535 86.73716381425038,57.66829833568772 87.72738386294805,59.029095588077325 88.51955990260467,60.47493928682525 89.3117359415628,62.09087812027428 89.37775061139837,63.8769107144326 89.44376528123394,65.5778891936643 89.3117359415628,67.19381428149063 88.98166259168647,68.80973501707194 88.8496332517825,70.51069950999226 89.3117359415628,72.12661131098866 89.3117359415628,70.6807956941193 89.90586797054857,68.97983168339124 90.2359413204249,67.36391140602063 90.4339853299316,65.74798677611398 90.4339853299316,64.13205779361306 90.03789731045254,62.346025959181134 89.5757946211379,60.81513729772996 88.51955990260467,59.45434409659356 88.05745721282437,60.38988975400571 88.6515892422758,62.17592741228873 88.91564792161807,63.791861663688906 89.179706601426,65.5778891936643 89.04767726175487,67.19381428149063 88.6515892422758,68.80973501707194 87.92542787315324,70.34060327749467 87.26528117363341,71.87146763195051 86.14303178479895,73.0621372066089 85.08679706626572,74.08270924695535 83.76650366745889,75.10327955108369 82.1821515893098,75.78365878935438 80.9278728608042,76.80422619986348 80.0036674819421,78.4201210491592 79.80562347173691,80.0360115460353 79.80562347173691,81.82199071603827 79.80562347173691,83.52291831583716 79.80562347173691,85.13879506872036 79.80562347173691,86.92475904809544 79.73960880190134,88.71071771060815 79.14547677244991,90.15648987697205 77.36308068479411,90.15648987697205 75.64669926650822,90.15648987697205 73.86430317838676,90.07144455175148 72.2799511004705,90.15648987697205 70.62958435178734,90.24153518991079 68.97921760403551,90.41162577987416 67.39486552588642,90.41162577987416 67.06479217601009,88.71071771060815 67.06479217601009,87.17989632533863 66.99877750617452,85.47897909377934 66.86674816627055,83.77805703983176 66.93276283633895,82.1621766219032 66.99877750617452,80.3761984645389 66.99877750617452,78.59021499066148 65.54645476769656,78.16498004621826 63.896088019479066,77.99488598451717 62.04767726152204,77.90983893541852 60.33129584346898,77.73974480084144 58.54889975558035,77.82479187421268 56.964547677198425,78.16498004621826 57.29462102660909,79.86591801472241 57.49266503681429,81.56685116019798 57.49266503681429,83.35282577259932 57.29462102660909,85.13879506872036 57.49266503681429,86.75466746953316 57.558679706649855,88.37053551804274 57.62469437671825,90.07144455175148 55.97432762873359,90.32658049080055 54.25794621021487,90.41162577987416 52.67359413206577,90.49667105689878 51.02322738408111,90.49667105689878 49.30684596579522,90.49667105689878 47.656479217577726,90.49667105689878 45.74205378978513,90.58171632152516 45.4779951099772,88.88080873456784 45.41198044014163,87.09485057834536 45.4779951099772,85.30888710555155 45.41198044014163,83.52291831583716 45.27995110023767,81.73694420943502 45.27995110023767,80.0360115460353 45.21393643063493,78.3350740603637 44.157701711403206,77.14441495068604 43.43154034228064,75.4434692664654 42.30929095344618,74.33785198576516 40.724938875297084,74.1677568385494 40.26283618598245,72.55185053526657 39.47066014655866,71.02098791726166 37.95232273824513,70.34060327749467 36.698044009972364,68.97983168339124 35.509779951069504,67.78915400628466 34.12347188265994,66.76857125939569 32.47310513467528,66.17323052196298 30.822738386224955,65.91808431077516 29.172371638240293,65.83303554943996 27.5220048900228,66.2582792348112 26.201711491448805,67.36391140602063 25.079462102847174,68.55458992702188 24.089242053916678,69.91536248609191 23.42909535462968,71.53127589076757 23.16503667505458,73.2322326671565 23.297066014725715,75.01823209185386 23.75916870427318,76.63413175189635 24.55134474323131,78.16498004621826 24.947432762710378,79.69582443486433 24.88141809287481,81.48180461733136 25.14547677244991,83.09768686810276 25.871638141805306,84.6285186696914 26.9278728608042,86.15934656513855 28.05012224940583,87.43503349414095 29.50244498765096,88.20044434961164 31.152811736101285,88.79576322878711 32.73716381425038,89.05089971027337 34.45354523230344,88.88080873456784 35.70782396080904,89.47612693847623 36.16992665058933,91.0919876571279 35.44376528146677,92.19757406244753 33.793398533249274,91.94243891909719 32.011002445127815,91.77234876313014 30.162591686937958,91.77234876313014 28.446210269117728,91.68730366689852 27.257946210214868,90.58171632152516 26.135696821613237,89.30603608355159 25.079462102847174,88.1153987472062 24.221271393587813,86.75466746953316 23.297066014725715,85.22384109318955 22.372860635630786,83.77805703983176 21.514669926371425,82.33226950251264 20.392420538002625,80.97152510768501 19.270171149400994,79.61077762697823 18.279951100470498,78.16498004621826 17.35574572114274,76.63413175189635 16.49755501211621,75.10327955108369 15.375305623281747,73.65747110772645 14.781173594063148,71.9565155369346 14.121026895008981,70.51069950999226 13.526894865557551,69.0648799983901 12.668704156763852,67.5340084824129 11.744498777203262,66.17323052196298 10.886308068409562,64.72740055684699 9.83007334987633,63.28156710724579 9.566014669835567,61.66563148109708 10.820293398341164,61.32543395226821 12.40464547672309,61.4104833524907 13.790953545132652,60.73008781293174 14.979217603802681,59.709493056871 16.035452323034406,58.34869734774111 17.157701711636037,57.072948567103595 18.147921760333702,55.882247256988194 19.204156479332596,54.521442866302095 20.458435207838193,53.24568594631273 21.64669926650822,52.310129147314 23.363080684794113,51.54467249929439 24.947432762710378,51.119418383867014 26.59779951092787,51.37457088928204 28.182151589309797,51.884875574556645 29.83251833752729,52.65033178840531 31.61491442541592,52.90548364276765 33.33129584370181,53.24568594631273 35.11369193135761,53.41578702564584 36.76405867980793,53.67093855456915 38.48044009786099,53.92608997464413 40.19682151568122,53.84103951317957 41.91320293396711,53.33073649200378 43.629584352020174,52.90548364276765 45.21393643063493,52.310129147314 46.798288508784026,51.71477406099439 47.128361858194694,49.928705256956164 47.128361858194694,48.31273366161622 45.676039119716734,47.88747725519352 43.893643032060936,48.05757985403761 42.63936430308968,48.823040951625444 42.63936430308968,49.67355213675182" stroke="#4DD2FF" stroke-linecap="round" stroke-linejoin="round" stroke-width="0.5"><title>2022-02-26 5.00km</title><desc>349324131</desc></polyline></svg>