<?xml version="1.0" encoding="utf-8" ?>
<svg baseProfile="full" height="130mm" version="1.1" viewBox="0,0,100,130" width="100mm" xmlns="http://www.w3.org/2000/svg" xmlns:ev="http://www.w3.org/2001/xml-events" xmlns:xlink="http://www.w3.org/1999/xlink"><defs /><rect fill="#222222" height="130" width="100" x="0" y="0" /><text fill="#FFFFFF" style="font-size:6px; font-family:Arial; font-weight:bold;color:#0ed45e;" x="5" y="10">MY TRACKS</text><text fill="#FFFFFF" style="font-size:4px; font-family:Arial" x="5" y="121">Runner</text><text fill="#FFFFFF" style="font-size:6px; font-family:Arial" x="2" y="128">蓝皮书</text><text fill="#FFFFFF" style="font-size:4px; font-family:Arial" x="25" y="121">WORKOUTS INFO</text><text fill="#FFFFFF" style="font-size:3px; font-family:Arial" x="25" y="125">Type: Run</text><text fill="#FFFFFF" style="font-size:3px; font-family:Arial" x="22" y="129">Date: 2022-10-18</text><text fill="#FFFFFF" style="font-size:3px; font-family:Arial" x="47" y="125">Distance: 6.79 km</text><text fill="#FFFFFF" style="font-size:3px; font-family:Arial" x="47" y="129">Duration: 46:22min</text><text fill="#FFFFFF" style="font-size:3px; font-family:Arial" x="75" y="125">Pace: 6:49/km</text><text fill="#FFFFFF" style="font-size:3px; font-family:Arial" x="75" y="129">Elevation: 0m</text><polyline fill="none" points="23.489048020448536,56.02185230818577 24.649115417152643,57.34059252869338 26.55981465894729,56.98892874427838 27.515164279844612,55.49435543495929 27.242207245435566,53.823945708572865 26.15037910710089,52.505198009486776 24.239679865306243,52.15353148285067 24.785593934357166,50.92269706854131 26.62805391754955,51.18644750589738 28.19755686633289,51.88978145684814 29.90353833232075,52.329364771198016 31.677759056678042,52.68103119794978 33.38374052243307,52.241448133427184 35.02148272981867,51.53811458084965 36.7274641955737,50.746863381238654 38.3652064029593,50.83478023117641 39.798230834072456,51.53811458084965 41.435973041458055,51.450197830970865 43.141954507213086,51.450197830970865 44.84793597320095,51.713948043994606 46.55391743895598,51.36228106840281 48.39637742214836,51.09853070601821 49.89764111232944,50.483112757094204 51.53538331948221,50.0435281341197 53.24136478523724,49.86769419792108 54.810867733787745,49.42810913838912 56.72156697581522,49.2522750273929 58.35930918296799,48.98852376738796 60.13352990755811,49.07644086651271 61.907750632148236,49.16435795312282 63.68197135650553,49.2522750273929 65.38795282249339,49.2522750273929 67.29865206428804,49.2522750273929 69.07287278887816,49.42810913838912 70.91533277207054,49.69186021131463 72.55307497922331,50.0435281341197 74.32729570381343,50.30727894528536 76.03327716956846,50.6589465191355 77.87573715299368,51.01061389344977 79.7181971357204,51.36228106840281 81.49241786031052,51.626031318854075 83.19839932606556,52.241448133427184 84.63142375764437,53.38436345389346 85.9962089303881,54.79102557216538 87.36099410313182,56.02185230818577 88.45282224100083,57.51642434630776 89.40817186189815,59.186824125936255 90.02232518978417,60.85721940611256 90.36352148302831,62.70344053354347 90.5,64.46174125908874 90.5,66.1321223306004 90.15880370722152,68.06624216079945 89.33993260329589,69.82452768046642 88.45282224100083,71.31906645285198 87.49747262010351,72.63777414307697 86.26916596479714,73.95647902914789 84.90438079205342,74.92352749645943 83.33487784350291,75.89057445601793 81.90185341215692,76.94553305546287 81.35593934333883,78.70379340008367 81.49241786031052,80.72578663361492 81.21946082590148,82.57194861082826 81.01474304986186,84.33019300323213 81.08298230846412,86.08843241084833 80.81002527405508,88.11040156689705 81.15122156706639,89.86863025702769 79.7864363945555,90.83565391192678 78.01221566996537,90.83565391192678 76.23799494537525,90.74774273275398 74.53201347962022,90.83565391192678 72.7577927550301,90.48400912096258 71.1200505476445,90.39609789219685 69.27759056468494,90.48400912096258 67.7763268747367,89.78071894106688 67.7763268747367,88.11040156689705 67.98104465054348,86.26425607735291 68.04928390914574,84.50601716845995 67.98104465054348,82.6598609489156 68.11752316798083,80.90161182073643 68.32224094402045,79.23127053142525 66.82097725383937,78.52796759014018 65.11499578785151,78.52796759014018 63.20429654605687,78.52796759014018 61.29359730449505,78.61588050134014 59.58761583874002,78.44005466630915 58.2910699241329,79.23127053142525 58.086352148558944,81.07743695762474 58.086352148558944,82.74777327431366 57.8816343722865,84.41810509213246 57.8816343722865,86.26425607735291 57.94987363112159,87.84666683356045 57.745155855314806,89.78071894106688 56.858045493252575,91.01147623261204 55.152064027031884,90.74774273275398 53.446082561509684,90.65983154135756 51.53538331948221,90.57192033750471 49.761162594892085,90.48400912096258 47.98694187030196,90.48400912096258 46.21272114571184,90.48400912096258 45.32561078364961,89.69280761253322 45.46208930085413,87.93457842391217 45.73504633549601,86.08843241084833 45.87152485270053,84.41810509213246 46.008003370137885,82.6598609489156 45.939764111535624,80.90161182073643 45.8032855943311,79.3191833429155 45.120893007842824,77.56092474318575 44.50673967995681,76.06640101387165 43.3466722832527,74.65978715498932 41.57245155866258,74.22021966980537 40.68534119660035,73.07734274992254 40.48062342056073,71.23115250701085 39.66175231686793,69.56078517041169 38.63816343713552,68.06624216079945 37.34161752345972,66.57169554900611 36.11331086768769,65.3408897522022 34.339090143330395,64.54965616465779 32.83782645338215,63.582591519341804 31.26832350459881,63.31884635461029 29.49410278047435,63.23093127470929 27.583403538446873,63.31884635461029 25.945661331526935,63.84633657231461 24.376158382510766,64.63757105747936 22.87489469279535,65.69254880072549 21.919545071665198,67.27501205028966 20.41828138171695,68.1541565550142 18.917017692001536,68.59372834005626 17.552232519257814,67.80249890254345 16.323925863718614,67.01126845559338 14.549705139128491,67.89041333453497 12.980202190810814,68.06624216079945 11.751895535271615,66.65961015503854 10.864785172743723,65.25297495909035 9.977674810914323,63.758421567385085 9.90943555207923,62.08803410187829 11.069502948783338,61.03305022662971 12.570766638498753,60.593473082233686 14.07203032891266,59.45057104842272 15.505054760025814,58.39558268588735 16.59688289812766,56.98892874427838 17.756950294831768,55.758103927830234 18.848778433166444,54.439360341697466 19.94060657150112,52.94478088757023 21.305391744012013,51.88978145684814 22.670176916522905,50.92269706854131 24.444397641113028,50.746863381238654 23.557287279050797,52.329364771198016 22.670176916522905,53.73602928267792 22.943133951397613,55.49435543495929 24.03496208949946,56.98892874427838 25.80918281408958,57.076844709168654 27.310446503572166,55.93393619393464 27.583403538446873,54.263527651608456 26.62805391754955,52.68103119794978 24.99031171016395,52.06561481987592 24.785593934357166,50.83478023117641 26.55981465894729,50.83478023117641 28.26579612516798,51.450197830970865 29.835299073485658,52.15353148285067 31.677759056678042,52.329364771198016 33.520219039870426,52.505198009486776 35.22620050562546,52.68103119794978 37.00042123021558,53.03269742563134 38.7746419548057,53.20853046467528 40.48062342056073,52.94478088757023 42.18660488631576,52.505198009486776 43.7561078350991,53.03269742563134 45.32561078364961,53.4722799299052 46.96335299080238,53.38436345389346 48.532855939352885,53.03269742563134 50.30707666394301,52.76894777367124 51.876579612493515,52.329364771198016 53.71903959591873,51.713948043994606 55.42502106167376,51.626031318854075 57.267481044866145,51.2743642932619 59.04170176945627,51.18644750589738 60.81592249404639,51.01061389344977 62.52190396003425,51.01061389344977 64.3643639429938,51.01061389344977 66.20682392595336,51.09853070601821 67.98104465054348,51.18644750589738 69.61878685769625,51.2743642932619 71.39300758228637,51.53811458084965 73.0989890480414,51.801864756504074 75.00968828983605,52.329364771198016 76.78390901442617,52.76894777367124 78.62636899785139,52.76894777367124 80.40058972220868,52.94478088757023 82.24304970516823,53.03269742563134 83.81255265395157,54.087694912042934 85.38205560250208,55.05477436399087 86.81508003384806,56.28560057672439 87.975147430785,57.60434023645939 88.79401853401214,59.09890846029157 89.47641112073325,60.76930397725664 90.09056444861926,62.43969499482773 90.29528222442605,64.19799646816682 90.09056444861926,66.04420764942188 89.54465037956834,67.89041333453497 88.86225779284723,69.56078517041169 88.17986520659178,71.1432385489461 87.22451558569446,72.46194661280606 86.06444818922319,73.60482466680696 84.56318449880928,74.65978715498932 83.13016006792895,75.62683452572674 81.69713563635014,76.68179357395275 80.05939342919737,76.85761990747415 78.28517270460725,76.85761990747415 76.44271272141486,77.03344619134441 74.60025273798965,77.03344619134441 72.82603201363236,77.2092724252143 70.98357203043997,77.2092724252143 69.27759056468494,77.47301168233389 67.57160909846425,77.47301168233389 65.86562763294205,77.385098609142 64.09140690835193,77.385098609142 62.248946925159544,77.56092474318575 60.40648694219999,77.73675082746195 58.76874473481439,77.82466385111911 56.99452401022427,77.82466385111911 55.220303285634145,77.385098609142 53.514321819879115,77.385098609142 51.74010109552182,77.12135931430385 49.9658803709317,76.76970674708718 48.3281381635461,75.89057445601793 47.09983150823973,74.57187368290033 46.69039595639333,73.07734274992254 46.75863521522842,71.40698038612027 47.57750631868839,69.912441825727 48.80581297399476,68.41789966338547 50.30707666394301,67.71458445827011 51.67186183691956,66.48378093010979 51.808340354124084,64.81340080592781 50.7847514746245,63.40676142217126 49.41996630188078,62.263864573440515 48.19165964634158,60.85721940611256 47.16807076684199,59.27473977924092 47.78222409426235,57.60434023645939 47.9187026116997,55.84602006705245 46.48567818058655,54.878941848524846 44.711457455996424,54.351444002997596 43.68786857649684,53.73602928267792 42.93723673163913,54.70310928346589 41.29949452448636,54.9668581126607 40.07118786871433,55.84602006705245 40.548862679162994,57.60434023645939 41.57245155866258,59.186824125936255 41.845408593304455,60.68138853594428 41.36773378262296,62.43969499482773 41.98188711050898,64.11008151277201 41.70893007633276,65.69254880072549 41.91364785190672,67.36292655672878 41.57245155866258,68.94538554380415 40.48062342056073,70.35201236436842 40.07118786871433,71.93446372379549 40.27590564475395,73.78065187303582 41.98188711050898,74.22021966980537 43.61962931789458,74.39604670129484 45.3938500424847,74.13230613514315 46.48567818058655,73.34108376444783 46.62215669779107,71.4948943068157 47.44102780125104,69.912441825727 48.80581297399476,68.5058140080655 50.10235888813622,67.71458445827011 51.26242628507316,66.39586629893165 51.53538331948221,64.63757105747936 50.648272957187146,63.055101077537984 49.21524852584116,62.08803410187829 47.78222409426235,60.85721940611256 46.89511373243295,59.36265542014735 47.236310025444254,57.78017197892768 46.48567818058655,56.46143269352615 45.32561078364961,55.318523044057656 44.5749789387919,53.64811284397729 43.483150800224394,52.68103119794978 41.70893007633276,52.76894777367124 40.07118786871433,53.03269742563134 38.29696714412421,53.20853046467528 36.52274641953409,53.03269742563134 34.680286436807364,53.20853046467528 32.83782645338215,53.20853046467528 31.20008424646221,52.76894777367124 29.289385004434735,52.15353148285067 27.719882055884227,51.53811458084965 26.082139848498628,51.01061389344977 24.444397641113028,51.2743642932619 23.62552653765306,52.593114610004704 22.533698399551213,53.9997785234591 22.87489469279535,55.93393619393464 24.239679865306243,57.164760661369655 25.80918281408958,57.076844709168654 27.242207245435566,55.84602006705245 27.515164279844612,54.087694912042934 26.764532434754074,52.593114610004704 25.126790227834135,51.97769814461935 23.62552653765306,52.329364771198016 22.601937658153474,53.64811284397729 22.601937658153474,55.230606830038596 23.69376579625532,56.63726475997828 24.51263689994812,56.98892874427838" stroke="#4DD2FF" stroke-linecap="round" stroke-linejoin="round" stroke-width="0.5"><title>2022-10-18 6.79km</title><desc>362817511</desc></polyline></svg>