<?xml version="1.0" encoding="utf-8" ?>
<svg baseProfile="full" height="130mm" version="1.1" viewBox="0,0,100,130" width="100mm" xmlns="http://www.w3.org/2000/svg" xmlns:ev="http://www.w3.org/2001/xml-events" xmlns:xlink="http://www.w3.org/1999/xlink"><defs /><rect fill="#222222" height="130" width="100" x="0" y="0" /><text fill="#FFFFFF" style="font-size:6px; font-family:Arial; font-weight:bold;color:#0ed45e;" x="5" y="10">MY TRACKS</text><text fill="#FFFFFF" style="font-size:4px; font-family:Arial" x="5" y="121">Runner</text><text fill="#FFFFFF" style="font-size:6px; font-family:Arial" x="2" y="128">蓝皮书</text><text fill="#FFFFFF" style="font-size:4px; font-family:Arial" x="25" y="121">WORKOUTS INFO</text><text fill="#FFFFFF" style="font-size:3px; font-family:Arial" x="25" y="125">Type: Run</text><text fill="#FFFFFF" style="font-size:3px; font-family:Arial" x="22" y="129">Date: 2022-06-17</text><text fill="#FFFFFF" style="font-size:3px; font-family:Arial" x="47" y="125">Distance: 6.48 km</text><text fill="#FFFFFF" style="font-size:3px; font-family:Arial" x="47" y="129">Duration: 45:01min</text><text fill="#FFFFFF" style="font-size:3px; font-family:Arial" x="75" y="125">Pace: 6:56/km</text><text fill="#FFFFFF" style="font-size:3px; font-family:Arial" x="75" y="129">Elevation: 0m</text><polyline fill="none" points="9.5,53.33196606801357 10.604809763142839,52.50788124074461 11.942211055196822,52.95738221495412 13.454055994283408,53.63163295912091 14.79145728633739,53.33196606801357 14.907753051025793,54.68046574020991 16.187006460968405,54.98013186670141 17.175520459655672,55.95404560404131 18.629217516165227,56.47845994977979 19.96661880845204,55.729296439210884 20.54809763096273,54.53063261322677 20.315506101818755,52.88246541243279 20.838837042218074,51.38412713241996 21.013280689250678,50.11053625342902 22.35068198130466,50.70987352001248 23.222900215536356,51.90854601364117 24.67659727204591,52.58279809623491 25.89770279964432,53.48179953492945 27.293251974042505,53.706549655413255 28.68880114867352,53.03229900676524 29.9680545583833,52.283130610361695 31.53804737981409,51.38412713241996 32.29396984935738,53.18213255866431 32.17767408490181,54.60554918192793 32.7010050250683,56.02896197093651 32.584709260612726,57.45237092545722 32.75915290764533,58.950691998179536 32.81730078952387,60.52392455172958 33.74766690609977,61.64765922236256 35.25951184495352,62.09715242148377 36.596913137240335,62.621560670551844 37.99246231140569,62.99613767262781 39.3880114860367,63.145968399068806 40.89985642489046,62.771391503338236 42.2372577174101,62.24698340287432 43.34206748032011,61.34799687738996 44.56317300768569,60.449008822091855 45.900574300205335,59.69985094119329 47.35427135694772,59.25035570276668 48.807968413457274,58.87577604537364 50.26166547019966,58.72594410798047 51.715362526942044,58.651028123218566 53.11091170134023,58.42628010606859 54.56460875808261,58.27644804108422 55.96015793271363,58.72594410798047 57.41385498922318,59.17543979239417 58.92569992830977,59.17543979239417 60.437544867396355,58.80086008209037 61.94938980625011,58.50119612243725 63.4612347453367,58.651028123218566 64.79863603739068,59.025607940217014 66.36862885858864,59.55001923756208 67.82232591509819,59.924598417186644 69.21787508949637,60.14934579713736 70.67157214647159,60.07443001441425 72.24156496766955,60.14934579713736 73.69526202441193,60.598840270831715 75.14895908115432,61.048334362276364 76.60265613766387,61.34799687738996 78.17264895909466,61.57274365203921 79.56819813326001,61.94732139760163 81.0800430723466,62.396814341889694 82.35929648205638,62.921222293400206 83.92928930372,63.52054502943065 85.20854271342978,64.26969749352429 86.31335247657262,65.24359410896432 87.30186647502705,66.44223363313358 88.05778894457035,67.64087043813197 89.10445082560182,68.91441906441469 89.80222541280091,70.26287897024304 89.97666905960068,71.76116371853277 90.3255563529674,73.10961635981221 90.5,74.60789303632919 90.26740847108886,76.03125194413587 89.68592964834534,77.52952033682959 88.93000717880204,79.02778448135359 88.23223259137012,80.6009572611074 87.36001435737126,81.72464923647931 86.31335247657262,82.77342625742313 85.26669059577398,83.82220119721023 83.7548456566874,84.34658788621891 82.82447954034433,85.39535970351426 82.24300071783364,86.89360154652968 81.48707824852318,88.092191962176 81.42893036594614,89.51551454974106 81.25448671914637,91.08865610766225 81.31263460149057,92.81161529751262 81.13819095492363,94.16001422330737 81.196338837035,95.80805268249242 79.74264178005978,96.33242747792974 78.3470926056616,96.63206998468377 76.89339554915205,96.63206998468377 75.43969849264249,96.48224875261076 73.98600143566728,96.48224875261076 72.47415649658069,96.48224875261076 70.90416367561556,96.55715937376954 69.27602297184058,96.78189117409056 67.64788226829842,96.78189117409056 66.19418521178886,96.70698058488779 64.62419239035808,96.70698058488779 63.11234745150432,96.70698058488779 61.77494615945034,96.70698058488779 60.32124910294078,96.48224875261076 58.751256281509995,96.40733812039252 57.18126346031204,96.40733812039252 55.61127063888125,96.55715937376954 54.099425700027496,96.55715937376954 52.64572864305228,96.63206998468377 51.250179468654096,96.10769548633834 51.192031586775556,94.53456886979984 51.250179468654096,93.11125980061479 51.42462311545387,91.76285819878103 51.4827709980309,90.18971864815103 51.54091887990944,88.84130959142931 51.4827709980309,87.34307327080751 51.192031586775556,85.69500841217814 50.26166547019966,84.57132487965282 49.15685570728965,83.4476389575866 48.11019382625818,82.17412535758922 46.6564967695158,81.94938734464813 45.20279971300624,81.42499827669235 44.97020818386227,80.07656685484108 44.50502512580715,78.65321884350851 43.574659009464085,77.37969368865015 42.64429289312102,76.18107897456503 41.306891600834206,75.357029781444 39.79504666174762,74.98246154148364 38.341349605238065,74.60789303632919 36.88765254849568,74.4580655596219 35.25951184495352,74.60789303632919 33.98025843477808,75.50685700314352 32.81730078952387,76.40581944043515 31.53804737981409,76.85530008573551 30.142498205415905,77.08004026499111 28.63065326632932,77.15495363692753 27.293251974042505,76.85530008573551 26.88621679833159,75.50685700314352 25.374371859245002,75.88142487109872 24.211414213757962,76.78038667159854 22.93216080404818,77.30478034872795 22.35068198130466,75.95633841288509 21.420315864961594,74.75772047031205 20.54809763096273,73.48418592708185 20.431801866507158,72.13573424174683 20.664393395651132,70.63745055545587 22.118090452393517,70.63745055545587 23.164752332959324,69.58864944754168 24.211414213757962,68.61476084031165 25.14178033033386,67.49104098620592 26.36288585769944,66.59206338244257 27.351399856386706,65.4683392267325 28.1654702082742,64.34461268165614 29.32842785352841,63.295799083367456 30.607681263703853,62.771391503338236 31.886934673413634,61.94732139760163 33.57322325929999,61.87240586982807 35.08506819838658,62.24698340287432 36.596913137240335,62.69647609203821 38.05061019398272,62.99613767262781 39.62060301518068,63.07105304120341 41.13244795403443,62.54664523829706 42.469849246088415,61.79749033122789 43.632806891575456,60.898503040894866 44.97020818386227,60.14934579713736 46.24946159380488,59.55001923756208 47.645010768203065,59.17543979239417 49.04055994260125,59.17543979239417 50.4942569991108,58.87577604537364 51.94795405608602,58.57611212815391 53.40165111259557,58.27644804108422 54.79720028722659,58.12661593378289 56.07645369693637,58.651028123218566 57.530150753678754,59.10052387160249 58.92569992830977,58.87577604537364 60.37939698481932,58.57611212815391 61.89124192390591,58.351364078815095 63.51938262744807,58.50119612243725 64.85678391950205,58.87577604537364 66.25233309413306,59.32527160248719 67.64788226829842,59.62493509455817 69.159727207385,59.99951422092272 70.78786791092716,60.07443001441425 72.24156496766955,60.299177331035025 73.69526202441193,60.52392455172958 75.14895908115432,60.898503040894866 76.60265613766387,61.123250006872695 78.11450107675046,61.57274365203921 79.62634601583704,62.02223691478139 80.90559942577966,62.771391503338236 82.35929648205638,63.59546032361686 83.52225412800908,64.56935818179045 84.74335965537466,65.4683392267325 85.84816941828467,66.51714851293946 86.89483129931614,67.64087043813197 87.53445800417103,69.06424811267061 88.05778894457035,70.48762195324525 88.5811198852025,71.83607784449123 88.98815506114624,73.55909980868455 88.87185929645784,75.0573752107448 88.5229720028583,76.55564636469353 88.23223259137012,78.12882650445681 87.65075376885943,79.55217592837289 86.54594400594942,80.67587013391312 85.38298636022955,81.72464923647931 84.22002871474251,82.77342625742313 83.0570710694883,83.522551426664 81.89411342400126,84.2716755340225 80.38226848538034,84.42150022811256 78.98671931098215,84.49641255906317 77.41672648955137,84.49641255906317 75.84673366835341,84.34658788621891 74.39303661184385,84.42150022811256 72.76489590783603,84.57132487965282 71.31119885132648,84.72114948870149 69.68305814778432,84.64623718953226 68.28750897338614,84.42150022811256 66.89195979898795,84.49641255906317 65.49641062435694,84.42150022811256 64.04271356784739,84.49641255906317 62.5308686287608,84.57132487965282 61.01902368967421,84.64623718953226 59.50717875082046,84.64623718953226 58.111629576422274,84.34658788621891 56.65793251991272,84.04693841340486 55.14608758082613,83.97202601854224 53.80868628877215,83.37272647803184 52.58758076094091,82.39886327466229 51.831658291397616,81.0504343379871 52.00610193843022,79.55217592837289 52.70387652562931,78.20373972755624 53.75053840619512,77.08004026499111 55.14608758082613,76.40581944043515 56.01830581459217,75.2072025173693 56.01830581459217,73.70892754005035 54.97164393402636,72.43539046903607 53.69239052408375,71.68624958192231 52.820172290084884,70.48762195324525 52.06424982030876,69.28899160563014 52.413137114141136,67.79069984762464 51.59906676225364,66.59206338244257 50.610552763799205,65.54325424472336 50.20351758785546,64.19478229479864 49.21500358916819,62.99613767262781 47.99389806180261,62.47172979527386 46.42390524037182,62.47172979527386 45.08650394808501,61.87240586982807 43.632806891575456,61.64765922236256 42.29540559928864,62.32189887779532 40.89985642489046,62.84630690375343 39.3298636036925,63.145968399068806 37.759870782494545,62.99613767262781 36.36432160809636,62.47172979527386 34.910624551121145,62.02223691478139 33.39877961250022,61.72257478220854 32.64285714295693,60.374093081918545 32.87544867186807,58.87577604537364 32.64285714295693,57.37745476019336 32.75915290764533,55.8791292263777 32.81730078952387,54.38079944375204 32.41026561381295,52.95738221495412 31.945082555757836,51.53396115149371 31.01471643918194,50.634956398746 29.90990667627193,51.53396115149371 28.63065326632932,52.283130610361695 27.351399856386706,53.10721578786615 26.072146446444094,53.18213255866431 24.792893036734313,52.65771494130604 23.688083273358643,51.83362906257389 22.40882986364886,50.85970773047302 21.420315864961594,49.810867365507875 22.001794687937945,48.53727269452065 22.466977745993063,47.18875734397443 23.629935391247272,46.28974519832991 23.281048097647727,44.86630617256742 22.118090452393517,44.042208141996525 20.722541277762502,43.59269958327059 19.44328786781989,43.667617702973075 17.931442928966135,43.667617702973075 16.942928930278867,44.641552291752305 16.884781048400328,46.13990969181759 17.524407753022388,47.18875734397443 17.05922469496727,48.612190112879034 16.47774587222375,49.960701830743346 15.37293610884808,51.009541898500174 14.035534816794097,51.38412713241996 12.639985642395914,51.009541898500174 11.069992821430787,51.608878145052586" stroke="#4DD2FF" stroke-linecap="round" stroke-linejoin="round" stroke-width="0.5"><title>2022-06-17 6.48km</title><desc>355739847</desc></polyline></svg>