<?xml version="1.0" encoding="utf-8" ?>
<svg baseProfile="full" height="130mm" version="1.1" viewBox="0,0,100,130" width="100mm" xmlns="http://www.w3.org/2000/svg" xmlns:ev="http://www.w3.org/2001/xml-events" xmlns:xlink="http://www.w3.org/1999/xlink"><defs /><rect fill="#222222" height="130" width="100" x="0" y="0" /><text fill="#FFFFFF" style="font-size:6px; font-family:Arial; font-weight:bold;color:#0ed45e;" x="5" y="10">MY TRACKS</text><text fill="#FFFFFF" style="font-size:4px; font-family:Arial" x="5" y="121">Runner</text><text fill="#FFFFFF" style="font-size:6px; font-family:Arial" x="2" y="128">蓝皮书</text><text fill="#FFFFFF" style="font-size:4px; font-family:Arial" x="25" y="121">WORKOUTS INFO</text><text fill="#FFFFFF" style="font-size:3px; font-family:Arial" x="25" y="125">Type: Run</text><text fill="#FFFFFF" style="font-size:3px; font-family:Arial" x="22" y="129">Date: 2023-02-17</text><text fill="#FFFFFF" style="font-size:3px; font-family:Arial" x="47" y="125">Distance: 5.02 km</text><text fill="#FFFFFF" style="font-size:3px; font-family:Arial" x="47" y="129">Duration: 34:35min</text><text fill="#FFFFFF" style="font-size:3px; font-family:Arial" x="75" y="125">Pace: 6:53/km</text><text fill="#FFFFFF" style="font-size:3px; font-family:Arial" x="75" y="129">Elevation: 0m</text><polyline fill="none" points="13.693972179433331,57.90351509832544 13.94435857818462,59.435792802949436 14.883307573618367,60.9680663801264 15.759659969247878,62.25839882250875 17.199381762184203,61.693878738966305 18.326120556797832,60.32289906113874 19.139876352623105,58.79062374640489 20.32921174657531,57.822868789196946 21.518547140993178,56.61317277775379 21.393353941384703,55.403474193415605 21.142967542633414,54.43571347382385 22.520092735765502,53.79053874599049 23.64683153037913,52.742128252459224 24.52318392600864,51.532421435869765 25.962905718944967,50.967890707659535 27.590417311061174,51.04853798879776 29.21792890294455,51.532421435869765 30.908037094399333,51.532421435869765 32.28516228776425,50.967890707659535 33.9126738794148,50.725948795618024 35.35239567235112,51.20983251708094 36.72952086571604,52.17759872489842 38.10664605908096,52.500187094847206 39.54636785201728,52.09695160371484 40.92349304491654,52.82277528225677 42.363214837852865,53.38730416953331 44.05332302930765,53.22601025860058 45.55564142204821,53.38730416953331 47.12055641436018,53.38730416953331 48.68547140667215,52.984069306985475 50.125193199608475,52.58083415887086 51.56491499231197,52.33889293280663 53.31761978403665,52.01630447123898 54.88253477588296,51.77436300512636 56.510046367999166,51.532421435869765 58.20015455968678,51.1291852586437 59.95285935117863,50.806596110982355 61.58037094282918,50.645301468728576 63.27047913474962,50.56465413031401 64.83539412682876,50.88724341499619 66.33771251956932,50.967890707659535 68.0278207110241,51.20983251708094 69.5927357035689,51.45177422341658 71.15765069541521,51.77436300512636 58.20015455968678,51.04853798879776 59.70247295242734,50.645301468728576 61.392581143882126,50.725948795618024 63.14528593560681,50.725948795618024 64.89799072686583,50.725948795618024 66.65069551812485,50.806596110982355 68.09041731106117,50.88724341499619 69.71792890271172,51.1291852586437 71.40803709439933,51.532421435869765 72.9103554871399,51.61306863714708 74.5378670792561,52.258245834498666 75.9775888719596,52.66148121136939 77.41731066489592,53.22601025860058 78.85703245783225,53.79053874599049 80.35935085033998,54.43571347382385 81.73647604323924,55.16153416765155 82.92581143742427,56.129293652717024 84.24034003098495,57.097051491145976 85.49227202497423,58.1454539578408 86.86939721787348,59.03256222838536 87.99613601248711,60.24225309479516 88.74729520874098,61.693878738966305 89.24806800647639,63.30679177650018 89.49845440522768,64.75840960035566 89.43585780542344,66.45195904618595 89.12287480710074,68.06485859281383 88.68469860916957,69.59710892639123 88.05873261229135,71.04871069826186 88.62210200959817,72.33902027475415 88.55950540979393,70.88742179534165 89.12287480710074,69.51646427495871 89.68624420440756,67.90356884407811 90.1870170016773,66.21002371993382 90.37480680085719,64.67776426294586 90.4374034004286,63.064855112694204 89.87403400335461,61.61323296703631 88.99768160749227,60.32289906113874 87.68315301416442,59.19385449256515 87.24497681623325,59.59708495286759 87.80834621330723,61.21000393590657 88.183925811667,62.82291834562784 88.24652241147123,64.59711891412735 88.30911901104264,66.37131394888274 88.05873261229135,67.98421372415032 87.55795981478877,69.59710892639123 86.74420401873067,70.80677732691402 85.68006182392128,72.17773173790192 84.55332302954048,73.46803875325713 83.30139103578404,74.51641104836017 82.112055641599,75.6454252054682 80.86012364760973,76.6131498425384 79.92117465240881,77.8228033236228 79.48299845471047,79.35502737382194 79.67078825365752,80.88724729698151 79.60819165385328,82.5001059154165 79.60819165385328,84.11295996134868 79.73338485346176,85.64516706950963 79.67078825365752,87.33865433488972 79.54559505428188,88.87085275514983 77.98068006173708,89.27406217978569 76.29057187051512,89.19342031760607 74.78825347777456,89.43534586962778 73.34853168483824,88.95149466290604 71.84621329256333,88.38700106821489 70.21870170044713,88.38700106821489 68.59119010833092,88.46764304471435 67.1514683153946,87.82250691350782 67.40185471391305,86.20966338482685 67.52704791375436,84.75810029928107 67.58964451332577,83.14524808264105 67.65224111313,81.53239129309077 67.77743431250565,80.0001731076045 67.84003091207705,78.30666399578331 66.33771251956932,77.90344679757254 64.64760432788171,77.98409026011359 62.89489953662269,77.90344679757254 61.204791344935074,77.8228033236228 59.57727975281887,77.8228033236228 58.763523956993595,78.62923754868098 58.63833075738512,80.08081627282081 58.57573415781371,81.61303424136713 58.951313755940646,83.14524808264105 58.951313755940646,84.83874279004522 58.88871715613641,86.29030566976871 58.763523956993595,87.90314896980999 58.074961360311136,89.27406217978569 56.322256569052115,89.19342031760607 54.69474497716874,89.3547040305566 53.12982998485677,88.7095689054695 51.50231839297339,88.38700106821489 50.0,88.95149466290604 48.24729520874098,88.95149466290604 47.057959814788774,88.30635908048134 47.057959814788774,86.53223245643312 47.30834621330723,84.83874279004522 47.245749613735825,83.14524808264105 47.55873261229135,81.61303424136713 47.80911901080981,79.83888674271293 47.49613601248711,78.30666399578331 46.807573416037485,76.77443712198874 46.119010819355026,75.48413760616677 45.18006182392128,74.19383516354719 43.80293663078919,73.79061505006393 42.613601236604154,72.9035297940136 42.23802163847722,71.45193275541533 40.92349304491654,70.64548835542519 39.79675425030291,69.35517493763473 38.857805255101994,68.14550345012685 37.543276661774144,66.93582939042244 36.10355486883782,66.29066884017084 34.60123647633009,65.80679794715252 33.03632148378529,65.48421712312847 31.22102009295486,65.56486234627664 30.845440494827926,66.45195904618595 31.65919629088603,68.06485859281383 33.16151468339376,68.62937235384015 34.66383307590149,69.19388555461774 36.166151468642056,70.08097659528721 37.292890262790024,71.20999955543084 38.10664605908096,72.66159721149597 38.607418856350705,74.19383516354719 38.29443585802801,75.96800026751589 37.4180834623985,77.09701154351933 36.29134466778487,78.22602057905169 34.91421947465278,78.87116759322817 34.53863987652585,79.83888674271293 34.53863987652585,78.95181091863196 33.03632148378529,79.43567063042428 31.534003091277555,78.95181091863196 30.156877897912636,78.06473371118773 29.092735703568906,76.77443712198874 28.52936630626209,75.24220612086356 28.591962905833498,73.62932692456525 29.092735703568906,72.17773173790192 29.84389489958994,70.72613284678664 30.469860896235332,69.27453025168506 31.784389490028843,68.22614829620579 30.908037094399333,66.85518436162965 29.4057187018916,66.29066884017084 28.216383307706565,67.5003442717134 26.77666151477024,68.54872756509576 25.21174652245827,68.54872756509576 23.772024729521945,69.11324084585067 22.207109737442806,69.11324084585067 21.142967542633414,67.82292395242257 19.578052550321445,67.90356884407811 18.013137558242306,67.98421372415032 16.3856259661261,67.66163413511822 15.2588871717453,66.29066884017084 14.445131375454366,65.0003455443657 13.443585780682042,63.62937383557437 12.504636785248294,62.25839882250875 11.315301391296089,61.21000393590657 10.501545595470816,59.758377056976315 10.000772797735408,58.30674647365231 9.5,56.69381925847847 9.687789799179882,55.16153416765155 10.62673879461363,54.03247935458785 11.878670788602903,52.984069306985475 13.25579598150216,52.09695160371484 14.319938176311553,52.742128252459224 13.631375579861924,54.355066672724206 13.318392581306398,56.048647091840394 13.50618238048628,57.58092979271896 13.318392581306398,56.048647091840394 13.94435857818462,54.516360263340175 15.008500772761181,53.38730416953331 14.758114374242723,52.17759872489842 14.194744976935908,53.70989185344661 13.318392581306398,55.16153416765155 13.193199381930754,56.69381925847847 13.443585780682042,58.38739271421218 14.194744976935908,60.000315127312206 15.133693972369656,61.45194138906663 16.323029366554692,62.33904450276168 15.07109737279825,61.290649764821865 14.13214837713167,60.000315127312206 15.07109737279825,61.37129558273591" stroke="#4DD2FF" stroke-linecap="round" stroke-linejoin="round" stroke-width="0.5"><title>2023-02-17 5.02km</title><desc>367197273</desc></polyline></svg>