<?xml version="1.0" encoding="utf-8" ?>
<svg baseProfile="full" height="130mm" version="1.1" viewBox="0,0,100,130" width="100mm" xmlns="http://www.w3.org/2000/svg" xmlns:ev="http://www.w3.org/2001/xml-events" xmlns:xlink="http://www.w3.org/1999/xlink"><defs /><rect fill="#FAF9F5" height="130" width="100" x="0" y="0" /><text fill="#5A5A5A" style="font-size:6px; font-family:Arial; font-weight:bold;color:#0ed45e;" x="5" y="10">MY TRACKS</text><text fill="#5A5A5A" style="font-size:4px; font-family:Arial" x="5" y="121">Runner</text><text fill="#5A5A5A" style="font-size:6px; font-family:Arial" x="2" y="128">蓝皮书</text><text fill="#5A5A5A" style="font-size:4px; font-family:Arial" x="25" y="121">WORKOUTS INFO</text><text fill="#5A5A5A" style="font-size:3px; font-family:Arial" x="25" y="125">Type: Run</text><text fill="#5A5A5A" style="font-size:3px; font-family:Arial" x="22" y="129">Date: 2023-01-20</text><text fill="#5A5A5A" style="font-size:3px; font-family:Arial" x="47" y="125">Distance: 3.96 km</text><text fill="#5A5A5A" style="font-size:3px; font-family:Arial" x="47" y="129">Duration: 42:22min</text><text fill="#5A5A5A" style="font-size:3px; font-family:Arial" x="75" y="125">Pace: 10:41/km</text><text fill="#5A5A5A" style="font-size:3px; font-family:Arial" x="75" y="129">Elevation: 0m</text><polyline fill="none" points="13.236607142956927,53.694746206048876 13.959821428405121,53.77239291899605 13.598214285681024,54.393566227692645 13.236607142956927,55.01473883126164 12.935267857043073,55.6359107302269 13.176339285681024,56.412374613573775 13.296875,57.11119116732152 13.477678571362048,57.88765295885969 13.477678571362048,58.664113649807405 13.71875,59.4405732396408 14.140625,60.06174011918483 14.5625,60.68290629412513 14.98437499976717,61.304071764461696 15.40625,61.847590973076876 15.888392857043073,62.4687551225652 16.370535714086145,63.012273175350856 16.792410714086145,63.55579068872612 17.33482142863795,64.02166241384111 17.877232142724097,64.48753374250373 18.479910714086145,65.03104979195632 19.20312500023283,65.10869489790639 19.926339285448194,64.95340467506321 20.64955357136205,65.03104979195632 21.433035714086145,64.95340467506321 21.97544642817229,64.48753374250373 22.57812499976717,64.09930766269099 23.180803571129218,63.71108130784705 23.84375,63.32285467744805 24.50669642863795,62.93462777213426 25.10937499976717,62.54640059155645 25.71205357159488,62.2358186491183 26.375,61.76994540489977 27.03794642840512,61.45936302194605 27.700892857043073,61.071134795609396 28.363839285681024,60.760552016377915 29.08705357136205,60.37232329451945 29.74999999976717,60.06174011918483 30.41294642840512,59.673510902095586 31.136160714086145,59.362927330308594 31.799107142724097,59.05234358232701 32.46205357136205,58.74175965820905 33.18526785704307,58.43117555801291 33.84821428544819,58.12059128185501 34.45089285704307,57.88765295885969 34.69196428544819,58.50882159959292 35.354910714086145,58.1982373673236 36.07812499976717,57.96529907750664 36.74107142840512,57.73236068856204 37.40401785704307,57.42177601606818 38.066964285681024,57.18883739592275 38.729910714086145,56.87825241492828 39.453125,56.64531356381485 40.176339285681024,56.33472827472724 40.839285714086145,55.868850010912865 41.44196428544819,55.40297135076253 41.80357142840512,54.7041526173125 42.46651785704307,54.393566227692645 43.25,54.160626319411676 43.91294642840512,54.00533299223753 44.636160714086145,53.927686312410515 45.41964285704307,53.694746206048876 46.1428571427241,53.53945274685975 46.86607142840512,53.38415924384026 47.589285713853315,53.22886569640832 48.31249999976717,53.15121890627779 49.035714285681024,53.0735721050296 49.81919642817229,52.99592529301299 50.542410714086145,52.918278469878715 51.26562499976717,53.0735721050296 51.98883928544819,52.84063163562678 52.77232142840512,52.60769106715452 53.55580357112922,52.53004418889759 54.27901785681024,52.45239729975583 55.002232142491266,52.29710348852677 55.845982142491266,52.14180963282706 56.56919642840512,51.98651573329698 57.292410714086145,51.753574801492505 58.01562499976717,51.59828079183353 58.73883928521536,51.442986738169566 59.52232142840512,51.442986738169566 60.245535714318976,51.442986738169566 60.9084821427241,51.442986738169566 61.752232142491266,51.520633770443965 62.47544642863795,51.59828079183353 63.25892857112922,51.59828079183353 63.98214285704307,51.675927802105434 64.76562499953434,51.675927802105434 65.60937499976717,51.753574801492505 66.3928571427241,51.753574801492505 67.11607142817229,51.90886876703007 67.89955357112922,51.98651573329698 68.68303571408615,52.064162688620854 69.46651785704307,52.21945656614844 70.24999999976717,52.29710348852677 70.9732142854482,52.45239729975583 71.69642857112922,52.60769106715452 72.35937499976717,52.76298479054822 73.0825892854482,52.918278469878715 73.80580357112922,53.15121890627779 74.52901785681024,53.46180600085063 75.31249999976717,53.77239291899605 75.91517857112922,54.08297966141254 76.69866071408615,54.393566227692645 77.42187499976717,54.7041526173125 78.08482142840512,55.09238535707118 78.80803571408615,55.48061782174045 79.4107142854482,55.791203595057596 80.01339285657741,56.10178919235477 80.61607142817229,56.64531356381485 81.33928571408615,56.95589867676608 82.06249999976717,57.344129820296075 82.54464285681024,57.81000682938611 83.08705357112922,58.43117555801291 83.56919642840512,59.05234358232701 84.0513392854482,59.59586502582533 84.59374999976717,60.13938592968043 85.07589285681024,60.68290629412513 85.55803571408615,61.22642611927586 85.97991071408615,61.925236530194525 86.1607142854482,62.54640059155645 86.28124999976717,63.32285467744805 86.40178571408615,64.02166241384111 86.40178571408615,64.79811440827325 86.34151785704307,65.49692026205594 86.28124999976717,66.27337016520323 86.1607142854482,67.04981896746904 86.04017857112922,67.82626666873693 85.85937499976717,68.52506865892792 85.61830357112922,69.30151426914381 85.3772321427241,70.00031437701546 85.01562499976717,70.69911359332036 84.77455357112922,71.39791191800032 85.07589285681024,72.01906523603247 85.67857142817229,72.40728570189094 86.46205357112922,72.56257381115574 87.24553571385331,72.48492976196576 87.90848214249127,72.95079389191233 88.6919642854482,72.87314989796141 89.1138392854482,72.32964163064025 89.83705357089639,72.56257381115574 90.5,72.25199754833011 89.77678571408615,72.25199754833011 88.93303571362048,72.32964163064025 88.33035714249127,72.01906523603247 87.60714285681024,72.17435345525155 86.88392857136205,72.40728570189094 86.1607142854482,72.25199754833011 85.67857142817229,71.63084449473536 85.55803571408615,70.93204646720551 85.7991071427241,70.23324754810892 86.04017857112922,69.53444773744559 86.1607142854482,68.8356470350991 86.34151785704307,68.13684544112766 86.46205357112922,67.43804295558948 86.52232142840512,66.66159470390994 86.52232142840512,65.8851453512325 86.52232142840512,65.18633999268059 86.46205357112922,64.48753374250373 86.40178571408615,63.78872660093475 86.34151785704307,62.93462777213426 86.28124999976717,62.2358186491183 86.1607142854482,61.45936302194605 85.85937499976717,60.760552016377915 85.3772321427241,60.21703172888374 84.71428571385331,59.82880262180697 84.11160714249127,59.51821913826279 84.29241071408615,60.21703172888374 84.65401785681024,60.91584342805436 84.8950892854482,61.61465423548361 85.13616071385331,62.39110964228166 85.19642857089639,63.08991856733337 85.31696428568102,63.86637188261375 85.31696428568102,64.64282409742009 85.3772321427241,65.41927521117032 85.31696428568102,66.11808027268853 85.13616071385331,66.97217413660837 85.13616071385331,67.67097721673781 84.9553571427241,68.44742403744021 84.71428571385331,69.1462252351921 84.41294642840512,69.84502554120263 84.0513392854482,70.5438249555882 83.62946428521536,71.16497924207943 83.2075892854482,71.78613282419974 82.66517857112922,72.32964163064025 82.12276785681024,72.95079389191233 81.45982142817229,73.41665762558114 80.97767857112922,73.88252096285578 80.3147321427241,74.270740107866 79.71205357136205,74.73660271876724 79.16964285704307,75.12482125870883 78.50669642840512,75.51303952315357 77.90401785704307,75.90125751245068 77.42187499976717,76.44476223527454 77.06026785704307,77.06590982951457 76.81919642817229,77.76470003079157 76.81919642817229,78.54113254242111 76.81919642817229,79.31756395316916 76.81919642817229,80.09399426350137 76.75892857112922,80.8704234729521 76.9397321427241,81.56920882040868 76.87946428521536,82.34563593869098 76.87946428521536,83.04441940411925 76.9397321427241,83.74320197798079 76.99999999976717,84.59726835752372 77.12053571385331,85.37369118334027 77.06026785704307,86.15011290839175 77.12053571385331,86.92653353267815 76.99999999976717,87.78059494838817 76.45758928568102,88.24644606851507 75.6741071427241,88.24644606851507 74.89062499976717,88.24644606851507 74.10714285681024,88.24644606851507 73.32366071408615,88.32408788322937 72.54017857112922,88.32408788322937 71.8169642854482,88.40172968694242 71.0334821427241,88.40172968694242 70.31026785681024,88.40172968694242 69.46651785704307,88.40172968694242 68.74330357112922,88.40172968694242 67.95982142817229,88.40172968694242 67.17633928568102,88.47937147988705 66.45312499953434,88.47937147988705 65.72991071408615,88.47937147988705 65.30803571408615,87.85823682916816 65.30803571408615,87.08181752561359 65.36830357136205,86.22775502019795 65.30803571408615,85.45133340527536 65.1272321427241,84.75255301065044 65.24776785681024,84.0537717245752 65.24776785681024,83.2773470277316 65.24776785681024,82.50092123041395 65.24776785681024,81.80213707155781 65.18749999976717,81.0257091827225 65.18749999976717,80.32692314177984 65.1272321427241,79.55049316195073 65.18749999976717,78.77406208124012 65.18749999976717,77.91998662118567 64.82589285704307,77.2988399954047 64.10267857112922,77.22119661787292 63.198660713853315,77.22119661787292 62.47544642863795,77.2988399954047 61.752232142491266,77.14355322922347 60.96874999976717,77.14355322922347 60.18526785704307,77.14355322922347 59.401785714086145,77.14355322922347 58.67857142817229,77.14355322922347 57.895089285681024,77.14355322922347 57.171875,77.14355322922347 57.05133928544819,77.84234333160566 56.870535713853315,78.61877573316451 56.74999999976717,79.31756395316916 56.74999999976717,80.17163723404519 56.689732142491266,80.94806633342523 56.50892857136205,81.64685158187058 56.32812499953434,82.42327858996578 56.2678571427241,83.2773470277316 56.20758928544819,83.97612930444302 56.32812499953434,84.75255301065044 56.2678571427241,85.45133340527536 56.2678571427241,86.15011290839175 56.32812499953434,86.92653353267815 56.38839285681024,87.62531115370803 55.72544642840512,88.01352055813186 55.002232142491266,88.09116240590811 54.21875,88.09116240590811 53.37499999976717,88.1688042426249 52.59151785681024,88.32408788322937 51.86830357136205,88.32408788322937 51.08482142840512,88.40172968694242 50.421875,88.55701326183043 49.63839285681024,88.47937147988705 48.854910714086145,88.47937147988705 48.13169642840512,88.55701326183043 47.348214285681024,88.55701326183043 46.564732142491266,88.32408788322937 45.78125,88.24644606851507 45.60044642840512,87.4700273151393 45.60044642840512,86.69360746099846 45.54017857112922,85.9171865064418 45.479910714086145,85.14076445106184 45.479910714086145,84.36434129526606 45.41964285704307,83.58791703853058 45.35937499976717,82.81149168143747 45.35937499976717,82.03506522328826 45.35937499976717,81.33628047036473 45.29910714295693,80.5598519211635 45.29910714295693,79.86106528586242 45.35937499976717,79.08463464555098 45.35937499976717,78.30820290447446 45.23883928544819,77.53177006280748 45.17857142840512,76.75533612031722 44.8772321427241,76.13418817392085 44.51562499976717,75.43539589212742 44.09375,74.81424644868821 43.67187499976717,74.270740107866 43.1897321427241,73.7272332276334 42.46651785704307,73.33901369734667 41.74330357112922,73.33901369734667 41.140625,72.79550589266 41.08035714295693,72.01906523603247 40.77901785704307,71.32026770379161 40.53794642840512,70.6214692798676 39.995535714318976,70.23324754810892 39.21205357136205,70.23324754810892 38.66964285681024,69.76738110679435 38.24776785681024,69.1462252351921 37.76562499976717,68.52506865892792 37.34375,67.9815560769639 36.74107142840512,67.51568772020983 36.13839285704307,66.97217413660837 35.47544642863795,66.58394981804304 34.7522321427241,66.3510150949005 33.96874999976717,66.11808027268853 33.18526785704307,65.9627903358778 32.46205357136205,65.80750035546953 31.67857142840512,65.72985534853069 30.895089285448194,65.8851453512325 30.111607142724097,66.04043530975468 29.388392856810242,66.27337016520323 28.72544642840512,66.58394981804304 28.0625,66.97217413660837 27.45982142840512,67.43804295558948 26.857142857043073,67.90391137846746 26.314732142724097,68.36977940506767 25.591517856810242,68.36977940506767 24.92857142840512,68.29213476134464 24.145089285681024,68.44742403744021 23.60267857136205,68.8356470350991 23.060267857043073,69.37915876944317 22.33705357136205,69.30151426914381 21.613839285913855,69.06858070153976 21.07142857159488,68.52506865892792 20.64955357136205,67.82626666873693 19.986607142724097,67.51568772020983 19.263392857043073,67.51568772020983 18.660714285681024,67.9815560769639 17.997767857275903,68.36977940506767 17.33482142863795,68.68035786907421 16.671875,68.29213476134464 16.06919642863795,67.748621948238 15.647321428405121,67.127463786921 15.225446428405121,66.5063049212331 14.743303571129218,65.9627903358778 14.261160714086145,65.34163014939986 13.839285714318976,64.64282409742009 13.477678571362048,63.94401715375716 12.995535714318976,63.32285467744805 12.573660714086145,62.70169149705907 12.272321428637952,62.0805276116007 11.729910714086145,61.45936302194605 11.308035714318976,60.91584342805436 10.946428571362048,60.294677517260425 10.645089285448194,59.673510902095586 10.404017857275903,58.89705164224142 10.162946428405121,58.12059128185501 9.801339285448194,57.499422200839035 9.560267857275903,56.72295985853998 9.5,55.9464964158833 9.861607142724097,55.24767837591935 10.404017857275903,54.7041526173125 10.825892857275903,54.160626319411676 11.428571428637952,53.694746206048876 12.212053571362048,53.38415924384026 12.212053571362048,53.38415924384026" stroke="#4DD2FF" stroke-linecap="round" stroke-linejoin="round" stroke-width="0.5"><title>2023-01-20 3.96km</title><desc>366424974</desc></polyline></svg>