<?xml version="1.0" encoding="utf-8" ?>
<svg baseProfile="full" height="130mm" version="1.1" viewBox="0,0,100,130" width="100mm" xmlns="http://www.w3.org/2000/svg" xmlns:ev="http://www.w3.org/2001/xml-events" xmlns:xlink="http://www.w3.org/1999/xlink"><defs /><rect fill="#222222" height="130" width="100" x="0" y="0" /><text fill="#FFFFFF" style="font-size:6px; font-family:Arial; font-weight:bold;color:#0ed45e;" x="5" y="10">MY TRACKS</text><text fill="#FFFFFF" style="font-size:4px; font-family:Arial" x="5" y="121">Runner</text><text fill="#FFFFFF" style="font-size:6px; font-family:Arial" x="2" y="128">蓝皮书</text><text fill="#FFFFFF" style="font-size:4px; font-family:Arial" x="25" y="121">WORKOUTS INFO</text><text fill="#FFFFFF" style="font-size:3px; font-family:Arial" x="25" y="125">Type: Run</text><text fill="#FFFFFF" style="font-size:3px; font-family:Arial" x="22" y="129">Date: 2023-03-08</text><text fill="#FFFFFF" style="font-size:3px; font-family:Arial" x="47" y="125">Distance: 3.87 km</text><text fill="#FFFFFF" style="font-size:3px; font-family:Arial" x="47" y="129">Duration: 24:52min</text><text fill="#FFFFFF" style="font-size:3px; font-family:Arial" x="75" y="125">Pace: 6:25/km</text><text fill="#FFFFFF" style="font-size:3px; font-family:Arial" x="75" y="129">Elevation: 0m</text><polyline fill="none" points="16.670900692697614,51.161663572420366 16.4838337181136,51.884694497217424 15.673210161738098,52.20604127884144 15.049653579480946,52.607724499481265 14.67551963031292,53.33075357909547 13.989607390249148,53.89310889225453 13.677829099353403,55.17849036905682 13.428406466729939,56.0621884430293 13.49076212476939,56.86554913263535 13.366050808224827,57.82958045648411 13.615473441081122,58.71327439614106 14.11431870679371,59.35596003191313 14.301385681377724,60.07898050098447 14.737875288818032,60.721664588025305 15.423787528881803,61.4446833144757 16.047344111138955,62.24803637294099 16.733256351202726,61.92669528629631 17.232101616682485,61.20367717486806 17.793302540434524,60.641329117061105 18.354503464419395,60.159316051751375 18.72863741358742,59.43629568524193 19.22748267883435,58.47226709470851 19.663972286274657,57.82958045648411 20.536951501155272,57.508236864290666 21.409930716035888,57.10655711742584 22.15819861413911,56.704877085925546 22.532332563539967,55.98185231158277 22.844110854435712,55.25882661464857 23.40531177818775,54.61613633175148 23.966512702172622,54.05378173623467 24.652424942236394,53.33075357909547 25.400692840572447,52.84873429517029 26.336027713725343,52.52738787810085 26.959584295749664,52.04536791087594 27.396073903189972,51.161663572420366 28.081986143253744,50.92065305903088 28.767898383317515,51.24200038739946 29.57852193992585,51.24200038739946 30.451501154340804,51.40267398318974 31.199769053142518,51.24200038739946 32.135103926062584,50.92065305903088 32.88337182463147,50.8403161985334 33.943418013863266,50.59930554864695 34.69168591243215,50.51896864257287 35.689376443391666,50.8403161985334 36.250577367143705,51.40267398318974 36.87413394916803,51.96503120963462 37.372979214880615,52.44705124536995 38.18360277125612,52.36671460111393 38.99422632786445,52.20604127884144 39.24364896072075,53.00940743542742 40.178983833873644,53.25041706050979 41.11431870679371,53.33075357909547 41.987297921674326,53.17008053022437 42.79792147804983,53.25041706050979 43.4838337181136,53.089743988297414 44.294457274954766,53.089743988297414 45.16743648960255,53.25041706050979 46.1651270207949,53.089743988297414 47.225173210026696,53.089743988297414 48.09815242514014,53.089743988297414 48.908775981282815,52.7683977081324 49.6570438798517,52.52738787810085 50.654734411044046,52.20604127884144 51.52771362592466,52.04536791087594 52.40069284057245,51.96503120963462 53.27367205522023,51.724021038156934 54.021939953789115,51.48301076411735 54.8949191684369,51.48301076411735 55.64318706700578,51.40267398318974 56.57852194015868,51.32233719108626 57.3267898382619,51.24200038739946 58.075057736597955,51.24200038739946 59.135103926062584,51.161663572420366 60.07043879898265,51.00098990829429 60.943418013863266,51.00098990829429 61.75404157023877,50.92065305903088 62.689376443391666,50.8403161985334 63.56235565827228,50.92065305903088 64.43533487292007,50.679642443254124 65.30831408780068,50.75997932656901 66.18129330244847,50.92065305903088 67.11662817536853,50.92065305903088 68.05196304852143,51.081326746207196 68.9872979214415,51.24200038739946 69.86027713632211,51.32233719108626 70.67090069269761,51.48301076411735 71.5438799073454,51.48301076411735 72.4792147804983,51.56334753369447 73.41454965365119,51.80435777339153 74.28752886829898,51.96503120963462 75.2852193992585,52.20604127884144 76.15819861460477,52.52738787810085 77.09353348705918,52.7683977081324 78.02886836021207,52.92907087109052 78.77713625878096,53.33075357909547 79.46304849884473,53.57176306738984 80.27367205522023,53.97344531991985 81.14665127010085,54.375127287814394 81.95727482694201,54.77680897084065 82.8302540415898,55.17849036905682 83.57852194015868,55.740843848267104 84.26443418022245,56.46386893035378 84.88799076224677,57.34756499953801 85.63625866035,58.070588031434454 86.0727482677903,58.71327439614106 86.32217090041377,59.43629568524193 86.82101616635919,60.23965159122599 87.07043879898265,61.04300635814434 87.38221709011123,61.8463599862298 87.56928406446241,62.73004766140366 87.75635103904642,63.69406900845934 87.88106235582381,64.65808871516492 87.88106235582381,65.62210678192787 87.88106235582381,66.42545391817112 87.75635103904642,67.22879991534865 87.44457274815068,68.03214477398433 87.25750577356666,68.83548849337967 86.88337182439864,69.79949945339467 87.1327944570221,70.6028406675905 87.63163972296752,71.32584678637795 88.068129330175,72.20951967872679 89.19053117767908,72.28985350986477 90.18822170887142,72.53085493453545 90.3752886832226,71.88818424101919 89.06581986136734,71.88818424101919 88.5046189376153,71.24551281880122 88.19284064648673,70.52250659727724 87.25750577356666,70.8438428096124 86.57159353350289,71.48651468765456 85.88568129343912,72.20951967872679 85.2621247114148,72.93252374790609 84.63856812939048,73.49485960818129 83.82794457254931,74.13752847950673 83.01732101617381,74.61952965450473 82.20669745956548,75.0211969873053 81.27136258641258,75.50319741090061 80.46073902980424,75.74419746903004 79.96189376432449,76.6278634716291 79.65011547319591,77.3508619031636 79.65011547319591,78.31485837721266 79.58775981515646,79.11818751948886 79.40069284057245,80.00184826063924 79.52540415688418,80.72484238765901 79.33833718230017,81.52816811366938 79.21362586622126,82.41182509658393 79.15127020771615,83.21514843124896 79.15127020771615,84.17913492943626 79.27598152426071,85.06278777867556 79.0889145496767,85.86610735522117 78.96420323313214,86.74975757411448 79.02655889117159,87.63340641494142 79.02655889117159,88.51705387828406 78.21593533479609,88.67771690519294 77.40531177795492,88.59738539741375 76.4076212469954,88.59738539741375 75.40993071580306,88.43672234774567 74.34988452680409,88.43672234774567 73.41454965365119,88.27605925209355 72.41685912269168,88.35639080539113 71.48152424953878,88.27605925209355 70.7332563509699,88.11539611109765 69.98498845286667,88.19572768744547 68.9872979214415,87.9547329248162 68.11431870679371,88.11539611109765 67.36605080822483,88.03506452369038 67.67782909912057,87.23174802173162 67.61547344108112,86.26776671648258 67.74018475762568,85.38411574595375 67.9272517322097,84.5807954861084 67.9272517322097,83.77747408760479 68.11431870679371,82.8938192340429 68.11431870679371,82.09049544413574 67.9272517322097,81.28717051527929 67.86489607370459,80.24284640542464 67.9272517322097,79.1985203709337 67.8025404154323,78.3951913426281 67.36605080822483,77.67219424340874 66.49307159357704,77.75252730003558 65.74480369500816,77.67219424340874 64.93418013839982,77.67219424340874 63.87413394916803,77.51152809592895 63.12586605083197,77.3508619031636 62.25288683595136,77.3508619031636 61.31755196303129,77.431195005076 60.56928406446241,77.3508619031636 59.758660507854074,77.19019566482166 58.88568129343912,77.10986252850853 58.636258660582826,77.99352640140569 58.69861431885511,78.87718889635289 59.01039260975085,79.6001844581915 58.88568129343912,80.72484238765901 58.88568129343912,81.44783559220377 59.135103926062584,82.41182509658393 58.94803695124574,83.29548070189776 58.94803695124574,84.25946706352988 58.94803695124574,85.06278777867556 58.636258660582826,85.94643925019773 58.573903002310544,86.74975757411448 58.44919168576598,87.63340641494142 58.32448036968708,88.51705387828406 57.95034642028622,89.3203685581102 57.07736720563844,89.40069996326929 56.266743648797274,89.15970571310027 55.45612009242177,88.99904282268835 54.52078521926887,88.99904282268835 53.77251732116565,88.91871136031114 53.0242494228296,88.83837988669984 52.15127020771615,88.91871136031114 51.21593533502892,88.83837988669984 50.28060046187602,88.75804840173805 49.532332563307136,88.59738539741375 48.72170900693163,88.59738539741375 47.78637413401157,88.51705387828406 46.97575057763606,88.43672234774567 47.225173210026696,87.63340641494142 46.91339491913095,86.74975757411448 47.03810623544268,85.70544353104196 47.100461893714964,84.741459629382 47.162817551987246,84.01847062673187 47.34988452680409,83.13481614907505 47.47459584311582,82.33149270043941 47.59930715919472,81.28717051527929 47.59930715919472,80.16251370194368 47.41224018461071,79.27885321126087 47.28752886829898,78.3951913426281 47.100461893714964,77.67219424340874 46.601616628002375,77.02952938067028 46.22748267906718,76.1458640046767 45.915704387938604,75.34253064863151 45.354503464419395,74.53919615398627 44.98036951501854,73.8161941349972 44.35681293299422,73.25385859340895 43.608545034890994,73.33419227635022 42.73556581977755,73.33419227635022 42.486143187154084,72.53085493453545 42.42378752864897,71.72751645377139 42.23672055406496,71.00451084744418 41.363741339417174,70.6028406675905 40.55311778304167,70.6028406675905 40.11662817536853,69.96016778732883 39.617782909888774,69.39782841945998 38.99422632786445,68.59448549716035 38.24595842976123,67.71080696716672 37.68475750577636,67.06813080696156 36.93648960744031,66.66645783686545 36.31293302541599,66.26478458190104 35.43995381053537,65.94344577303855 34.56697459588759,65.78277630027151 33.63163972273469,65.62210678192787 32.88337182463147,65.54177200573031 32.135103926062584,65.46143721794942 31.2621247114148,65.54177200573031 30.513856812845916,65.863111042534 29.57852193992585,66.10411520040361 28.830254041822627,66.74679245369043 27.95727482694201,67.22879991534865 27.33371824468486,67.8714758931892 26.398383371997625,68.27314800926251 25.46304849907756,68.27314800926251 24.777136258780956,68.43381677602883 24.091224018251523,69.0764913870371 23.40531177818775,69.47816264891298 22.59468822181225,69.15682566235773 21.846420323243365,68.51415114221163 21.409930716035888,67.8714758931892 20.9110854503233,67.14846536703408 20.162817551987246,67.46980349265505 19.35219399537891,67.71080696716672 18.229792147642,67.9518103392329 17.294457274721935,67.63047248695511 16.670900692697614,67.14846536703408 16.109699768945575,66.42545391817112 15.299076212570071,65.863111042534 14.924942263402045,65.14009795343736 14.363741339417174,64.09574408526532 13.927251732209697,63.292393646377604 13.303695150185376,62.5693772775121 12.742494226200506,61.8463599862298 12.181293302681297,60.962670932523906 11.80715935328044,60.23965159122599 11.2459584295284,59.35596003191313 10.871824480593204,58.63293864048319 10.372979214880615,57.90991632617079 9.998845265712589,57.186893089383375 9.874133948935196,56.46386893035378 9.5,55.82118001411436 9.998845265712589,54.93748156429501 10.56004618969746,54.29479091707617 11.308314087800682,53.652099540806375 12.056581986136734,53.17008053022437 12.804849884705618,52.607724499481265 13.553117783041671,52.04536791087594 14.176674364833161,51.56334753369447 15.112009237986058,50.92065305903088 15.86027713608928,50.75997932656901 16.733256351202726,50.8403161985334 17.294457274721935,51.40267398318974 16.546189376618713,52.04536791087594 15.922632794361562,52.44705124536995 15.049653579480946,52.92907087109052 14.550808314001188,53.81277245323872 13.989607390249148,54.696472656854894 13.740184757392853,55.49983528268058 13.553117783041671,56.3835328554851 13.553117783041671,57.267229050339665 13.740184757392853,58.15092386689503 13.989607390249148,58.95428159489529 14.488452655728906,59.7576381842955 14.924942263402045,60.56099363451358 15.361431870376691,61.20367717486806" stroke="#4DD2FF" stroke-linecap="round" stroke-linejoin="round" stroke-width="0.5"><title>2023-03-08 3.87km</title><desc>6661678232358003870</desc></polyline></svg>