<?xml version="1.0" encoding="utf-8" ?>
<svg baseProfile="full" height="130mm" version="1.1" viewBox="0,0,100,130" width="100mm" xmlns="http://www.w3.org/2000/svg" xmlns:ev="http://www.w3.org/2001/xml-events" xmlns:xlink="http://www.w3.org/1999/xlink"><defs /><rect fill="#222222" height="130" width="100" x="0" y="0" /><text fill="#FFFFFF" style="font-size:6px; font-family:Arial; font-weight:bold;color:#0ed45e;" x="5" y="10">MY TRACKS</text><text fill="#FFFFFF" style="font-size:4px; font-family:Arial" x="5" y="121">Runner</text><text fill="#FFFFFF" style="font-size:6px; font-family:Arial" x="2" y="128">蓝皮书</text><text fill="#FFFFFF" style="font-size:4px; font-family:Arial" x="25" y="121">WORKOUTS INFO</text><text fill="#FFFFFF" style="font-size:3px; font-family:Arial" x="25" y="125">Type: Run</text><text fill="#FFFFFF" style="font-size:3px; font-family:Arial" x="22" y="129">Date: 2023-05-14</text><text fill="#FFFFFF" style="font-size:3px; font-family:Arial" x="47" y="125">Distance: 5.56 km</text><text fill="#FFFFFF" style="font-size:3px; font-family:Arial" x="47" y="129">Duration: 37:43min</text><text fill="#FFFFFF" style="font-size:3px; font-family:Arial" x="75" y="125">Pace: 6:47/km</text><text fill="#FFFFFF" style="font-size:3px; font-family:Arial" x="75" y="129">Elevation: 0m</text><polyline fill="none" points="45.59782608714886,75.02358668314992 44.088509316788986,74.21339072333649 42.579192546894774,73.5652331286692 41.69875776418485,72.5119754691259 41.132763975532725,70.89157527964562 39.3718944103457,70.24341391737107 38.36568322987296,68.94708898762474 37.422360248630866,67.56974052806618 36.10170807479881,66.6785132852965 34.592391304438934,66.27340953348903 33.020186335546896,65.70626379887108 31.385093167889863,65.9493263256154 29.75,66.27340953348903 28.177795031107962,67.0025960796047 26.982919255038723,68.2179049224942 25.47360248467885,68.86606858193409 23.964285714086145,69.02810938179027 22.580745341954753,69.51423150621122 21.385869565419853,68.37994590622839 20.56832298124209,67.0025960796047 18.996118012582883,67.16463740792824 17.298136646160856,67.48871992697241 15.851708074798808,67.16463740792824 14.845496894558892,66.03034714463865 13.902173913316801,64.65299165539909 12.770186335546896,63.356654044881 12.078416149364784,61.817249313229695 11.260869565187022,60.43988366989652 10.569099379237741,58.8194492511102 9.940217391587794,57.11798816669034 9.5,55.74061119725229 9.877329192589968,54.36323090840597 10.82065217429772,53.14789260242833 12.015527950366959,52.256642868509516 13.524844720494002,51.52743750734953 14.971273292321712,50.717208236281294 16.354813664918765,50.55516224447638 17.48680124268867,51.68948322336655 16.04037267109379,51.77050606429111 14.845496894558892,52.8238019507844 13.965062111848965,54.03914094611537 13.273291925666854,55.41652201639954 13.0846273296047,56.95594398980029 13.336180124431849,58.49536181613803 14.15372670814395,60.034775495994836 15.22282608691603,61.412142115761526 16.41770186345093,62.222356223501265 16.983695652335882,60.52090527029941 17.73835403728299,59.22455828671809 18.744565217755735,57.92820836248575 20.065217391354963,57.03696608386235 21.322981366422027,56.1457224151236 22.643633540719748,54.76834310271079 23.90139751578681,53.634028234984726 25.09627329208888,52.49971111555351 26.54270186345093,51.77050606429111 27.423136645928025,50.39311620645458 28.869565217755735,50.717208236281294 30.504658385179937,51.122323015355505 31.951086956774816,50.717208236281294 33.58618012443185,50.87925418233499 35.34704968961887,51.04130008263746 36.66770186368376,51.851528893690556 38.30279503110796,52.013574518146925 39.3718944103457,52.74277925933711 40.755434782709926,53.06686995649943 42.39052795036696,52.90482463099761 44.088509316788986,52.90482463099761 45.84937888220884,52.985847299569286 47.42158385133371,52.580733841634355 48.868012422462925,51.932551711564884 50.50310559011996,51.77050606429111 52.13819875777699,51.851528893690556 53.45885093184188,51.203345936664846 55.2197204970289,51.04130008263746 56.66614906839095,50.47413923125714 58.23835403751582,50.63618524605408 59.810559006175026,50.150047063303646 61.44565217383206,49.90697781718336 63.08074534148909,49.98800091072917 64.59006211184897,49.98800091072917 66.28804347827099,50.23107012256514 67.92313664592803,50.31209317018511 69.55822981358506,50.798231215099804 71.31909937877208,50.798231215099804 72.82841614913195,51.36539174482459 74.21195652172901,52.013574518146925 75.78416149085388,52.17562009661924 77.35636645974591,52.74277925933711 78.61413043504581,53.55300565814832 80.06055900617503,54.201185950194485 81.69565217406489,54.84936550719431 83.20496894419193,55.41652201639954 84.58850931678899,56.226744624378625 85.46894409949891,57.52309840830276 86.16071428591385,58.900471081375144 87.10403726692311,60.1968188000028 87.79580745380372,61.7362278966466 88.424689440988,63.27563284669304 88.55046583875082,64.89605463016778 88.424689440988,66.35443030670285 87.98447204986587,67.89382281701546 87.79580745380372,69.51423150621122 88.424689440988,71.05361550534144 88.92779503134079,72.5119754691259 90.5,72.67401523533044 88.86490683234297,72.18789579876466 87.98447204986587,70.81055514945183 86.91537267086096,70.48647451447323 86.09782608714886,71.86381594452541 85.21739130443893,73.24115405546036 84.14829192566685,74.4564496318344 82.95341614913195,75.34766474575736 81.5069875777699,76.15785909752594 80.437888198765,77.13009080354823 79.74611801235005,78.58843526180135 79.68322981381789,80.28983242629329 79.87189441011287,81.91020596929593 79.93478260864504,83.44955658022081 80.12344720494002,85.0699211647734 79.87189441011287,86.77129903435707 79.6203416150529,88.47267183935037 78.67701863357797,89.76895248162327 77.10481366468593,89.76895248162327 75.34394409949891,89.36386509687873 73.58307453431189,89.28284758527298 72.07375776395202,89.20183006225852 70.56444099382497,89.20183006225852 68.86645962740295,89.36386509687873 67.54580745333806,88.63470708020031 67.4200310560409,87.01435260241851 67.10559006221592,84.25973944662837 66.47670807433315,82.55835410015425 66.6024844723288,80.93798239494208 66.91692546592094,79.31760609545745 66.35093167703599,77.94028262875509 64.71583850937895,78.2643590371008 63.01785714318976,77.85926349792862 61.44565217383206,77.94028262875509 59.99922360247001,78.42639717232669 58.42701863357797,78.1833399523166 57.672360248630866,79.1555682127946 57.98680124245584,80.69492624298437 57.98680124245584,82.47733562404756 58.049689440988004,84.34075767023023 57.672360248630866,85.88010173430666 57.35791925480589,87.41944165254245 57.923913043458015,89.03979498211993 57.04347826098092,90.09302218287485 55.34549689455889,90.01200477447128 53.77329192543402,89.60691756219603 52.26397515530698,89.28284758527298 50.69177018641494,89.28284758527298 49.05667701899074,88.87775985588087 47.61024844716303,88.63470708020031 46.41537267109379,87.8245304155862 46.3524844723288,86.04213771066861 46.22670807456598,84.50279408280039 45.912267080741,82.88242789014475 46.16381987580098,81.42409438901814 46.478260869625956,79.72270060091978 46.604037267155945,78.10232085583266 45.84937888220884,76.48193651653128 45.534937888151035,74.94256713893265 46.54114906862378,73.72727259626845 47.547360248630866,72.99809463019483 47.61024844716303,71.37769581889734 48.3649068325758,70.00035321706673 49.43400621111505,68.70402773603564 50.880434782709926,67.89382281701546 52.326863354304805,67.08361674967455 52.452639751834795,65.46320116880815 51.63509316765703,64.08584431261988 50.440217391587794,63.19461163674714 49.119565217522904,62.303377571108285 48.050465838750824,60.763970002299175 47.924689441220835,59.22455828671809 49.05667701899074,57.92820836248575 48.80512422369793,56.469811182993 47.35869565233588,55.90265571908094 46.10093167703599,54.930387899978086 46.10093167703599,53.39096047030762 47.673136646160856,53.14789260242833 49.1824534162879,52.8238019507844 50.75465838517994,52.256642868509516 52.38975155283697,51.68948322336655 54.08773291949183,51.68948322336655 55.72282608714886,51.52743750734953 57.2950310560409,51.608460371091496 58.993012422462925,51.77050606429111 60.50232919258997,51.77050606429111 62.26319875800982,52.013574518146925 63.772515528136864,52.17562009661924 65.53338509332389,51.851528893690556 66.9798136644531,51.851528893690556 68.42624223604798,51.36539174482459 69.87267080764286,52.17562009661924 71.3819875777699,52.6617565563065 72.89130434766412,53.14789260242833 74.6521739133168,53.47198307001963 76.09860248467885,53.95811842678813 77.67080745357089,54.2822084351792 79.36878881999291,53.95811842678813 80.81521739135496,54.60629825940123 82.19875776395202,55.1734550097608 83.6451863355469,55.90265571908094 84.90295031061396,56.87492188392207 86.16071428591385,58.17127419740427 87.10403726692311,59.38660182035528 87.85869565210305,60.92601309961174 88.36180124245584,62.384398907539435 88.67624223604798,64.08584431261988 88.55046583875082,65.62524293374736 88.424689440988,67.24565805506427 88.04736024839804,68.70402773603564 87.29270186345093,70.16239369526738 86.60093167703599,71.86381594452541 85.72049689455889,73.16013425838901 84.33695652196184,74.4564496318344 82.95341614913195,75.18562573730014 81.5069875777699,75.91480091260746 79.99767080764286,76.80601375218248 78.17391304345801,76.56295584281906 76.60170807456598,76.72499446052825 75.02950310590677,76.88703303219518 73.3944099380169,77.2111100377515 71.63354037282988,77.37314847181551 70.06133540393785,77.37314847181551 68.42624223604798,77.04907155793626 67.54580745333806,75.67174262413755 66.03649068344384,75.75276206521085 64.33850931678899,75.83378149464261 62.76630434789695,75.9958203191054 61.19409937900491,75.75276206521085 59.55900621134788,76.40091717906762 57.923913043458015,76.40091717906762 56.28881987580098,76.48193651653128 54.8423913042061,77.04907155793626 53.33307453454472,77.04907155793626 51.82375776395202,77.13009080354823 50.062888198997825,77.13009080354823 48.616459627402946,76.31989783013705 47.1071428572759,75.50970370782306 45.47204968961887,75.34766474575736 45.72360248444602,73.88931201776722 47.35869565233588,73.8082923127804" stroke="#4DD2FF" stroke-linecap="round" stroke-linejoin="round" stroke-width="0.5"><title>2023-05-14 5.56km</title><desc>370854162</desc></polyline></svg>