<?xml version="1.0" encoding="utf-8" ?>
<svg baseProfile="full" height="130mm" version="1.1" viewBox="0,0,100,130" width="100mm" xmlns="http://www.w3.org/2000/svg" xmlns:ev="http://www.w3.org/2001/xml-events" xmlns:xlink="http://www.w3.org/1999/xlink"><defs /><rect fill="#222222" height="130" width="100" x="0" y="0" /><text fill="#FFFFFF" style="font-size:6px; font-family:Arial; font-weight:bold;color:#0ed45e;" x="5" y="10">MY TRACKS</text><text fill="#FFFFFF" style="font-size:4px; font-family:Arial" x="5" y="121">Runner</text><text fill="#FFFFFF" style="font-size:6px; font-family:Arial" x="2" y="128">蓝皮书</text><text fill="#FFFFFF" style="font-size:4px; font-family:Arial" x="25" y="121">WORKOUTS INFO</text><text fill="#FFFFFF" style="font-size:3px; font-family:Arial" x="25" y="125">Type: Run</text><text fill="#FFFFFF" style="font-size:3px; font-family:Arial" x="22" y="129">Date: 2023-08-22</text><text fill="#FFFFFF" style="font-size:3px; font-family:Arial" x="47" y="125">Distance: 3.83 km</text><text fill="#FFFFFF" style="font-size:3px; font-family:Arial" x="47" y="129">Duration: 34:28min</text><text fill="#FFFFFF" style="font-size:3px; font-family:Arial" x="75" y="125">Pace: 8:59/km</text><text fill="#FFFFFF" style="font-size:3px; font-family:Arial" x="75" y="129">Elevation: 0m</text><polyline fill="none" points="71.97476340690628,48.972794523637276 72.99684542580508,49.05509575922042 73.57176656136289,49.795806353213266 74.14668769692071,50.454214976402 74.59384858026169,51.27722470543813 75.16876971605234,51.77102998289047 76.19085173495114,51.60642827040283 76.89353312295862,51.5241273965803 77.78785488940775,51.44182651123265 78.61829652986489,51.8533308217302 79.51261829654686,52.18253405962605 80.21529968455434,52.59403784474125 80.91798107256182,52.923240662843455 81.68454258679412,53.2524432943319 82.32334384834394,53.66394632094307 83.02602523658425,54.075449056283105 83.79258675058372,54.48695149918785 84.4313880125992,54.89845365099609 85.13406940060668,55.39225584763335 85.77287066215649,56.13295835535973 86.34779179794714,56.54445934004616 87.11435331217945,57.12056022888282 87.68927444797009,57.614360535284504 88.26419558376074,58.19046036200598 88.77523659309372,58.84885946416762 89.09463722375222,59.58955756155774 89.41403785487637,60.33025471336441 89.66955835954286,61.153250440605916 89.92507886444218,61.893945597461425 90.24447949510068,62.716939107573126 90.18059936887585,63.6222306212876 90.43611987377517,64.44522168126423 90.5,65.43280941341072 90.43611987377517,66.33809669147013 90.18059936887585,67.243382558343 90.05283911665902,68.14866701309802 89.86119873821735,69.05395005596802 89.66955835954286,69.87693341565318 89.73343848553486,70.78221376339206 89.98895899043418,71.687492699828 90.37223974755034,72.3458764939569 89.92507886444218,71.687492699828 89.35015772865154,70.94681003881851 88.71135646663606,71.687492699828 88.26419558376074,72.42817441566149 87.75315457372926,73.0042595412815 87.17823343840428,73.5803440954769 86.66719242883846,74.15642807778204 86.02839116705582,74.73251148848794 85.32570977881551,75.30859432742 84.62302839104086,75.80237916315673 83.98422712925822,76.13156882027397 83.34542586747557,76.46075829060283 82.64274447900243,76.95454214606434 81.94006309122778,77.77751430525677 81.4290220818948,78.43589119263925 81.30126182967797,79.34115819376893 81.23738170322031,80.16412696964107 81.36514195566997,80.98709457897348 81.55678233434446,81.81006102164974 81.36514195566997,82.71532276103972 81.23738170322031,83.45599040703382 81.04574132501148,84.44354579853825 80.91798107256182,85.26650734146824 81.10962145100348,86.08946771756746 81.10962145100348,86.99472278397297 81.17350157722831,87.7353849702049 81.23738170322031,88.5583418465103 81.17350157722831,89.29900203784928 80.79022081987932,90.03966128424508 79.95977917965502,90.20425209961832 79.19321766518988,90.03966128424508 78.29889589874074,90.12195669766515 77.46845425851643,90.20425209961832 76.63801261829212,90.20425209961832 75.80757097783498,90.28654748992994 75.04100946383551,90.28654748992994 74.27444794913754,90.28654748992994 73.44400630914606,90.3688428682508 72.48580441623926,90.61572893365519 71.65536277601495,90.53343359037535 70.82492113555782,90.61572893365519 69.93059936887585,90.61572893365519 69.03627760265954,90.86261489411118 68.58911671908572,90.28654748992994 68.65299684507772,89.29900203784928 68.71687697153538,88.39375056454446 68.78075709729455,87.57079345494276 68.90851735020988,86.83013105869759 68.71687697153538,85.84257972729392 68.39747634064406,85.10191512602614 68.33359621441923,84.27895335003268 68.71687697153538,83.53828675393015 69.03627760265954,82.79761921294266 68.84463722375222,82.05695072707022 68.84463722375222,81.2339846342802 68.84463722375222,80.32872058503563 68.84463722375222,79.50575204222696 68.90851735020988,78.60048529796768 68.26971608796157,78.18899994750973 67.50315457396209,78.18899994750973 66.67271293350495,78.02440572564956 66.09779179794714,77.4483255817322 65.26735015772283,77.11913667124463 64.43690851749852,77.03683941462077 63.542586750816554,77.11913667124463 62.648264983901754,77.20143391622696 62.00946372235194,77.61291996686487 61.30678233457729,77.85981145704864 60.540220820112154,78.35359412239632 59.96529968455434,78.84737636812497 59.518138801213354,79.75264272768982 58.94321766542271,80.41101737500867 58.815457412973046,81.31628129613819 59.07097791787237,82.13924727210542 59.45425867498852,82.87991565297125 59.90141955832951,83.70287941244897 60.28470031521283,84.44354579853825 60.47634069388732,85.18421123956796 60.34858044167049,86.08946771756746 60.540220820112154,86.91242692730157 60.604100946569815,87.65308921824908 60.795741324778646,88.47604621143546 60.98738170322031,89.38129755645059 60.92350157722831,90.12195669766515 60.22082018945366,90.61572893365519 59.45425867498852,90.69802426564274 58.623817034764215,90.45113823498832 57.729495267849416,90.53343359037535 57.02681388007477,90.53343359037535 56.19637223985046,90.61572893365519 55.23817034694366,90.69802426564274 54.34384858049452,90.3688428682508 53.577287066029385,90.28654748992994 52.619085173355415,90.28654748992994 51.78864353313111,90.12195669766515 50.95820189244114,90.03966128424508 50.12776025221683,90.20425209961832 49.36119873798452,90.12195669766515 48.658517349977046,90.53343359037535 48.08359621441923,91.02720547636272 47.444794952636585,90.53343359037535 47.508675078861415,89.6281840421143 47.636435331078246,88.80522868188564 47.82807570998557,88.06456786073977 47.700315457070246,87.32390609441791 47.18927444773726,86.50094746815739 47.380914826411754,85.76028370705899 47.636435331078246,85.10191512602614 47.9558359622024,84.36124957998982 47.82807570998557,83.45599040703382 48.01971608842723,82.55072982277488 48.21135646686889,81.7277644299902 48.01971608842723,80.98709457897348 47.76419558352791,80.24642378313001 47.89195583597757,79.34115819376893 47.572555204853415,78.60048529796768 47.25315457419492,77.85981145704864 46.80599369062111,77.11913667124463 46.614353312179446,76.37846094038105 46.358832807745785,75.63778426451609 45.65615141950548,74.97940420388477 44.95347003126517,74.56791628652718 44.12302839104086,74.56791628652718 43.80362776014954,73.8272373007494 43.54810725571588,73.08655736985384 43.29258675058372,72.42817441566149 43.22870662459172,71.60519467294216 42.71766561525874,70.86451190698426 42.27050473168492,70.20612643263303 41.95110410102643,69.4654418817372 41.312302839010954,68.97165165591286 40.60962145100348,68.39556252839975 40.290220820112154,67.57257706858218 39.71529968432151,66.99648655269993 39.07649842277169,66.58499297697563 38.309936908539385,66.17349910974735 37.67113564675674,65.67970608372707 36.90457413252443,65.59740720532136 36.201892744516954,65.26821157464292 35.371451104059815,64.93901575735072 34.66876971605234,64.8567167739966 33.7744479496032,64.93901575735072 33.00788643537089,64.8567167739966 32.177444794913754,64.8567167739966 31.538643533131108,65.18591263773851 30.89984227111563,65.8443038056721 30.388801261782646,66.50269422703423 29.81388012645766,67.07878523296677 29.175078864209354,67.73717425385257 28.344637223752216,68.3132640348631 27.83359621441923,68.97165165591286 27.130914826411754,69.54774021176854 26.364353312412277,69.54774021176854 25.53391167195514,69.4654418817372 24.76735015749,69.63003853015834 23.87302839104086,69.87693341565318 23.106466877041385,69.95923168730224 22.403785488801077,69.54774021176854 21.892744479468092,68.8893532443326 21.445583596127108,68.06636848457856 20.61514195566997,67.57257706858218 19.784700315678492,67.65487566724187 18.890378548763692,67.73717425385257 18.187697160756215,68.14866701309802 17.67665615165606,68.72475638566539 16.973974763415754,68.47786101012025 16.33517350186594,67.98406994430115 15.888012618292123,67.32568120327778 15.313091482501477,66.66729171556653 14.802050473168492,66.00890148099279 14.291009463835508,65.18591263773851 13.716088328044862,64.52752072323347 13.205047318711877,63.9514271854423 13.205047318711877,63.1284354251693 12.821766561595723,62.387741843704134 12.246845425805077,61.64704731665552 11.67192429001443,61.153250440605916 11.160883280681446,60.577153553953394 10.713722397806123,59.83645671693375 10.394321766449139,59.01345912303077 10.138801262015477,58.27276029071072 9.755520504899323,57.449760479910765 9.56388012622483,56.626759502105415 9.5,55.72145707911113 9.883280757116154,55.06305442971643 10.4582018929068,54.48695149918785 10.905362776014954,53.74624689138727 11.5441640377976,53.2524432943319 12.246845425805077,52.923240662843455 12.885646687587723,52.511737111140974 13.716088328044862,52.01793246390298 14.482649842044339,51.688729132351 15.313091482501477,51.44182651123265 15.888012618292123,50.78341900819214 16.65457413252443,50.94802095380146 17.101735015865415,51.60642827040283 16.271293375408277,52.10023326758528 15.69637223961763,52.758639277133625 15.057570977834985,53.33474392298376 14.610410094494,54.075449056283105 14.418769716052338,54.81615324388258 14.354889589827508,55.72145707911113 14.035488959169015,56.54445934004616 14.227129337377846,57.449760479910765 14.354889589827508,58.27276029071072 14.418769716052338,59.09575893508736 14.291009463835508,59.91875641228398 14.674290220951661,60.659453144238796 15.313091482501477,61.31784944614628 16.015772870508954,61.893945597461425 16.71845425874926,61.400148931192234 17.421135646523908,60.98865138855763 17.996056782314554,60.577153553953394 18.69873817055486,60.00105609575985 19.273659306112677,59.342658300709445 19.976340693887323,58.84885946416762 20.423501577228308,58.10816042195074 20.870662460802123,57.3674604347907 21.50946372258477,56.79135979095008 22.148264984134585,56.37985898141051 22.850946372374892,55.803757357702125 23.61750788637437,55.2276551622781 24.128548895940185,54.48695149918785 24.76735015749,53.91084799700184 25.406151419738308,53.41704453981947 26.108832807512954,53.087842001987156 26.81151419552043,52.758639277133625 27.57807570975274,52.511737111140974 28.089116719085723,52.01793246390298 28.91955835931003,52.26483483990887 29.62223974755034,52.511737111140974 30.452681388007477,52.840939975809306 31.283123028231785,53.087842001987156 32.04968454246409,53.087842001987156 32.8162460566964,53.2524432943319 33.58280757092871,53.58164573914837 34.54100946383551,53.82854745007353 35.499211356276646,54.075449056283105 36.265772870508954,54.075449056283105 37.03233438474126,54.157749568112195 37.99053627764806,54.24005006835796 38.69321766565554,54.40465103392489 39.58753943210468,54.5692519529257 40.545741324778646,54.32235055696219 41.312302839010954,54.075449056283105 42.07886435324326,54.40465103392489 42.9093059937004,54.651552395080216 43.67586750793271,54.32235055696219 44.378548895707354,53.99314853246324 45.14511041017249,53.74624689138727 46.10331230261363,53.66394632094307 47.06151419552043,53.82854745007353 47.82807570998557,53.66394632094307 48.658517349977046,53.33474392298376 49.297318612225354,52.840939975809306 50.06388012622483,52.67633856664179 50.83044164022431,52.59403784474125 51.533123028231785,52.01793246390298 52.363564668921754,51.935631648637354 53.19400630891323,51.77102998289047 54.0883280755952,51.688729132351 54.98264984227717,51.5241273965803 55.749211356276646,51.19492378499126 56.45189274428412,50.94802095380146 57.34621451096609,50.70111801766325 58.36829653009772,50.61881701549282 59.07097791787237,50.78341900819214 60.09305993677117,50.78341900819214 60.92350157722831,50.61881701549282 61.753943217452615,50.371913939598016 62.584384857909754,50.289612890803255 63.35094637214206,50.289612890803255 64.11750788614154,50.289612890803255 64.94794952683151,50.371913939598016 65.71451104083098,50.454214976402 66.48107255506329,50.53651600185549 67.18375394307077,50.78341900819214 67.95031545730308,50.78341900819214 68.84463722375222,50.94802095380146 69.73895899020135,50.70111801766325 70.69716088310815,50.78341900819214 71.59148264979012,50.94802095380146 72.42192429001443,51.19492378499126 73.25236593047157,51.359525614301674 74.01892744470388,51.688729132351" stroke="#4DD2FF" stroke-linecap="round" stroke-linejoin="round" stroke-width="0.5"><title>2023-08-22 3.83km</title><desc>375840280</desc></polyline></svg>