<?xml version="1.0" encoding="utf-8" ?>
<svg baseProfile="full" height="130mm" version="1.1" viewBox="0,0,100,130" width="100mm" xmlns="http://www.w3.org/2000/svg" xmlns:ev="http://www.w3.org/2001/xml-events" xmlns:xlink="http://www.w3.org/1999/xlink"><defs /><rect fill="#222222" height="130" width="100" x="0" y="0" /><text fill="#FFFFFF" style="font-size:6px; font-family:Arial; font-weight:bold;color:#0ed45e;" x="5" y="10">MY TRACKS</text><text fill="#FFFFFF" style="font-size:4px; font-family:Arial" x="5" y="121">Runner</text><text fill="#FFFFFF" style="font-size:6px; font-family:Arial" x="2" y="128">蓝皮书</text><text fill="#FFFFFF" style="font-size:4px; font-family:Arial" x="25" y="121">WORKOUTS INFO</text><text fill="#FFFFFF" style="font-size:3px; font-family:Arial" x="25" y="125">Type: Hike</text><text fill="#FFFFFF" style="font-size:3px; font-family:Arial" x="22" y="129">Date: 2023-09-20</text><text fill="#FFFFFF" style="font-size:3px; font-family:Arial" x="47" y="125">Distance: 4.34 km</text><text fill="#FFFFFF" style="font-size:3px; font-family:Arial" x="47" y="129">Duration: 43:54min</text><text fill="#FFFFFF" style="font-size:3px; font-family:Arial" x="75" y="125">Pace: 10:07/km</text><text fill="#FFFFFF" style="font-size:3px; font-family:Arial" x="75" y="129">Elevation: 0m</text><polyline fill="none" points="38.274422734975815,88.90618673991412 38.13055062154308,89.7402525076759 37.69893428031355,90.48164340807125 37.555062166415155,91.40838085097494 37.77087033726275,92.42779052106198 37.05150976870209,92.79848455206957 36.1163410297595,92.79848455206957 35.3250444047153,92.42779052106198 34.461811722721905,92.79848455206957 33.59857904072851,92.70581106410827 32.73534635826945,92.79848455206957 31.80017761932686,92.98383148922585 30.865008880384266,92.98383148922585 30.001776198856533,92.98383148922585 29.06660745991394,92.98383148922585 28.203374777920544,93.07650493783876 27.340142095461488,93.07650493783876 26.404973356984556,93.07650493783876 25.469804618041962,92.89115802722517 24.53463587909937,92.89115802722517 23.599467140156776,92.89115802722517 22.592362344264984,93.07650493783876 21.801065719220787,92.98383148922585 21.225577264558524,92.24244342622114 20.722024866379797,91.40838085097494 20.29040852515027,90.66699100151891 19.786856127902865,89.92560031160247 19.355239786673337,89.18420878058532 18.779751332011074,88.3501423036214 18.20426287734881,87.60874898609472 17.700710479170084,86.86735482770018 17.053285967558622,86.3113086571102 16.621669626794755,85.47723851475166 16.261989342514426,84.64316730829887 15.830373001284897,83.80909503728617 15.254884547088295,83.06769657006953 14.679396092426032,82.32629726192681 14.175843694247305,81.67757217743201 13.888099466916174,80.84349612315418 14.175843694247305,80.0094190047239 14.895204262807965,79.45336700108601 15.326820603571832,78.71196359407622 15.974245115183294,78.15591048682109 16.909413854125887,77.8778837560676 16.693605683743954,76.95112713216804 16.19005328603089,76.20972088753479 15.902309058699757,75.28296189871617 15.686500887852162,74.44887768576154 15.470692717470229,73.52211620117305 15.470692717470229,72.59535340237198 15.614564830902964,71.66858928999864 14.823268205858767,71.29788327723509 14.175843694247305,70.74182386376197 13.744227353017777,70.00041057681665 13.600355239585042,69.07364278577734 13.744227353017777,68.14687368058367 14.03197158081457,67.22010326187592 14.319715808145702,66.38600876129931 14.319715808145702,65.3665584824048 13.888099466916174,64.62513909902191 13.168738898355514,64.06907400966156 12.449378330260515,63.5130084475968 12.161634102929384,62.67890921689104 11.658081705216318,61.93748678587144 11.22646536398679,61.19606351334369 10.86678507970646,60.45463939983165 10.435168738476932,59.620536267291754 10.003552397713065,58.87911036721198 9.643872113432735,58.04500522400485 9.5,57.21089901676169 9.715808170381933,56.284113093977794 10.075488454662263,55.4500046398025 10.363232681993395,54.61589512164937 10.938721136655658,53.96714253828395 11.514209591317922,53.22571022599004 12.089698045514524,52.57695626298664 12.737122557591647,51.92820165591547 13.31261101225391,51.18676703085657 13.96003552339971,50.63069051061757 14.607460035011172,50.074613517092075 15.326820603571832,49.51853605045471 16.11811722908169,49.05513780011097 16.909413854125887,48.684418963384815 17.84458259306848,48.40637969807722 18.779751332011074,48.40637969807722 19.64298401400447,48.59173922147602 20.506216695997864,48.86977840802865 21.297513321507722,49.24049713963177 22.08880994655192,49.61121566098882 22.808170514646918,50.074613517092075 23.527531083207577,50.72336996375816 24.318827708717436,50.538011044380255 25.253996447194368,50.538011044380255 26.189165186602622,50.63069051061757 27.196269982028753,50.63069051061757 28.059502664022148,50.538011044380255 28.99467140296474,50.44533156522084 29.785968028008938,50.538011044380255 30.649200710467994,50.63069051061757 31.584369448944926,50.816049403336365 32.44760213093832,51.09408764372347 33.382770869880915,51.18676703085657 34.31793960882351,51.37212576624006 35.109236234333366,51.279446405067574 35.97246891632676,51.09408764372347 36.835701598320156,50.908728829876054 37.77087033726275,50.72336996375816 38.634103019256145,50.44533156522084 39.56927175819874,50.167293048871215 40.360568383708596,49.79657484276686 41.22380106570199,49.51853605045471 42.087033747695386,49.33317678963067 42.95026642968878,49.14781747630332 43.88543516816571,48.96245811076369 44.67673179367557,48.684418963384815 45.53996447613463,48.40637969807722 46.47513321461156,48.128340314433444 47.26642984012142,48.03566049342044 48.20159857859835,47.85030081233708 49.06483126105741,47.664941078808624 49.9280639430508,47.479581292311195 50.7912966250442,47.38690137950471 51.65452930750325,47.29422145348508 52.44582593208179,47.20154151436873 53.45293072843924,47.10886156227207 54.316163409966975,47.01618159696227 55.10746003501117,47.01618159696227 56.042628773953766,46.923501618322916 56.90586145641282,46.923501618322916 57.76909413840622,46.923501618322916 58.560390763450414,46.83082162652863 59.42362344544381,46.83082162652863 60.3587921843864,46.923501618322916 61.22202486684546,47.01618159696227 62.08525754837319,47.01618159696227 62.94849023083225,47.01618159696227 63.739786855876446,47.01618159696227 64.60301953786984,47.20154151436873 65.53818827681243,47.29422145348508 66.40142095880583,47.57226119207917 67.33658969774842,47.664941078808624 68.19982238020748,47.85030081233708 68.99111900525168,48.128340314433444 69.85435168724507,48.499059466295876 70.78952042618766,48.499059466295876 71.50888099474832,49.05513780011097 72.44404973322526,49.14781747630332 73.37921847216785,49.33317678963067 74.2424511546269,49.425856426532846 75.1776198935695,49.703895258309785 75.9689165186137,49.98193397180876 76.7602131436579,50.167293048871215 77.62344582565129,50.44533156522084 78.41474245116115,50.816049403336365 79.20603907620534,51.279446405067574 80.06927175819874,51.46480511396658 80.86056838324293,51.742843078507576 81.6518650087528,52.20623942324892 82.37122557731345,52.66963543993188 83.01865008845925,53.318389311025385 83.73801065701991,53.68910551938461 84.38543516816571,54.52321622055024 84.96092362329364,55.26464706117986 86.4715808168985,55.4500046398025 86.97513321461156,56.191434429376386 87.26287744194269,57.02554193744436 87.55062166927382,57.85964838101063 87.98223801050335,58.69375376065727 88.34191829478368,59.620536267291754 88.70159857906401,60.3619613267947 89.13321491982788,61.19606351334369 89.20515097631142,62.12284247233765 89.20515097631142,63.14229780982714 89.06127886287868,63.97639644885203 88.98934280639514,64.99584889586549 88.91740674944595,65.92262246785685 88.77353463554755,66.75671755953226 88.77353463554755,67.68348863546271 88.62966252211481,68.610258397297 88.34191829478368,69.44435005966807 87.98223801050335,70.27844065788668 88.05417406745255,71.11253019195283 88.70159857906401,71.76126576063689 89.5648312610574,71.94661866175011 90.5,71.94661866175011 89.63676731754094,71.85394221771276 88.77353463554755,71.57591280667111 87.98223801050335,71.11253019195283 87.11900532850996,71.11253019195283 86.3277087030001,71.66858928999864 85.75222024833784,72.41000068513677 85.17673179367557,72.96605867956532 84.60124333901331,73.70746860321378 84.02575488435104,74.44887768576154 83.37833037273958,75.00493394606747 82.58703374769539,75.46831380185904 81.79573712218553,75.83901744958712 81.5799289518036,76.76577564975014 81.22024866752326,77.59985690668691 80.5728241559118,78.24858603766188 79.92539964430034,78.8973145246855 79.34991119010374,79.54604236793239 78.55861456459388,79.82406838936731 77.76731793954968,80.19476956740255 77.47957371221855,81.02884644939331 77.55150976870209,82.04827230458613 77.62344582565129,82.97502170235384 77.69538188260049,83.80909503728617 77.69538188260049,84.73584193934221 77.62344582565129,85.66258752724389 77.55150976870209,86.58933180157328 77.33570159832016,87.51607476209756 77.40763765526935,88.44281640916597 77.40763765526935,89.27688276808476 77.76731793954968,90.20362191903405 77.19182948488742,90.85233854298713 76.40053285937756,91.13035975612001 75.46536412043497,90.94501229375601 74.60213143844157,91.13035975612001 73.66696269949898,91.13035975612001 72.80373001750559,91.13035975612001 71.86856127856299,91.13035975612001 71.0053285965696,91.13035975612001 70.07015985716134,91.13035975612001 69.13499111868441,91.13035975612001 68.27175843669102,91.2230334674241 67.33658969774842,91.13035975612001 66.47335701575503,91.03768603142817 65.53818827681243,91.03768603142817 64.74689165176824,90.75966477912152 64.02753108320758,90.38896959135309 63.811722912825644,89.46223070338601 63.95559502625838,88.5354905014392 64.17140319710597,87.60874898609472 64.02753108320758,86.6820061566541 63.95559502625838,85.75526201387402 63.95559502625838,84.82851655705599 63.88365896977484,83.99444452306489 64.02753108320758,83.06769657006953 63.95559502625838,82.23362228932092 63.88365896977484,81.30687184026465 63.811722912825644,80.47279531287495 63.88365896977484,79.54604236793239 63.88365896977484,78.61928810889367 63.52397868549451,77.8778837560676 62.660746003035456,77.8778837560676 61.79751332150772,78.06323492282536 60.934280639048666,78.06323492282536 59.999111900571734,78.06323492282536 59.13587921811268,77.97055934608215 58.27264653611928,77.97055934608215 57.40941385412589,77.97055934608215 56.402309058234096,77.97055934608215 55.395204262342304,77.97055934608215 54.60390763729811,78.06323492282536 53.668738898821175,77.97055934608215 53.38099467102438,78.80463906587102 53.309058614540845,79.73139306204394 53.38099467102438,80.56547053524991 53.38099467102438,81.49222203536192 53.16518650064245,82.32629726192681 53.23712255759165,83.25304626580328 53.45293072843924,84.0871192459017 53.59680284187198,85.01386575354263 53.45293072843924,85.84793648740742 53.52486678445712,86.77468049892923 53.59680284187198,87.60874898609472 53.45293072843924,88.44281640916597 53.38099467102438,89.36955674219644 53.309058614540845,90.20362191903405 52.66163410292938,90.85233854298713 51.79840142093599,90.75966477912152 50.93516873847693,90.66699100151891 50.0,90.85233854298713 49.06483126105741,90.94501229375601 48.20159857859835,90.94501229375601 47.338365896604955,91.03768603142817 46.40319715766236,91.2230334674241 45.46802841871977,91.13035975612001 44.532859679777175,91.03768603142817 43.74156305473298,90.85233854298713 42.806394316256046,90.94501229375601 42.01509769074619,90.75966477912152 41.15186500875279,90.57431721128523 41.15186500875279,89.64757858618395 41.29573712218553,88.72083864692831 41.51154529303312,87.88677157863276 41.799289520364255,87.05270344612654 41.51154529303312,86.3113086571102 41.439609236083925,85.38456398877315 41.29573712218553,84.55049266398419 41.29573712218553,83.71642027475173 41.36767317960039,82.69699702115031 41.36767317960039,81.7702472290257 41.439609236083925,80.84349612315418 41.29573712218553,79.91674370371038 41.72735346341506,79.17534082202474 42.66252220189199,78.8973145246855 42.95026642968878,78.06323492282536 42.59058614540845,77.22915425739484 42.51865008845925,76.39507252746262 41.87122557684779,75.83901744958712 41.22380106570199,75.19028592784889 40.57637655409053,74.6342298251111 39.78507992904633,74.2635254940833 38.993783303536475,73.98549710772932 38.05861456459388,73.80014478438534 37.195381882600486,73.52211620117305 36.188277086708695,73.42943998047849 35.3250444047153,73.42943998047849 35.109236234333366,72.59535340237198 34.96536412043497,71.66858928999864 34.749555950053036,70.74182386376197 34.60568383615464,69.9077338569914 34.24600355233997,69.07364278577734 33.88632326805964,68.33222760685021 33.382770869880915,67.49813452531816 32.87921847216785,66.75671755953226 32.303730017505586,66.10797702462878 31.584369448944926,65.5519131969777 30.865008880384266,64.90317146643065 30.145648312289268,64.34710661362624 29.35435168724507,63.79104128770996 28.634991119150072,63.42033080779947 27.843694493640214,63.04962011764292 27.124333925079554,62.771586961927824 26.26110124308616,62.586231459106784 25.397868561092764,62.400875903782435 24.53463587909937,62.308198106475174 23.671403197105974,62.308198106475174 22.880106572061777,62.308198106475174 22.01687388960272,62.586231459106784 21.657193605788052,63.32765315496363 21.441385434940457,64.16175155749079 21.657193605788052,65.18120371521218 21.441385434940457,66.0152997529949 22.01687388960272,66.75671755953226 21.585257548373193,67.59081158688059 21.36944937799126,68.42490454996005 21.081705150660127,69.35167326102965 20.793960923328996,70.27844065788668 20.793960923328996,71.29788327723509 20.218472468666732,71.85394221771276 19.499111900106072,72.41000068513677 19.355239786673337,73.33676374645438 19.28330372972414,74.2635254940833 19.355239786673337,75.19028592784889 19.57104795705527,76.02436919487081 20.0026642982848,76.85845139774028 20.506216695997864,77.59985690668691 21.081705150660127,78.24858603766188 21.801065719220787,78.80463906587102 22.592362344264984,79.17534082202474 23.311722912825644,79.73139306204394 24.17495559481904,79.91674370371038 24.966252220328897,79.73139306204394 25.82948490185663,79.82406838936731 26.764653641264886,79.63871772168204 27.62788632279262,79.26801622810308 28.27531083440408,78.52661261090543 28.99467140296474,77.97055934608215 29.7140319715254,77.41450560826343 30.289520426187664,76.76577564975014 30.865008880384266,76.02436919487081 31.368561278562993,75.37563785683597 32.303730017505586,75.09760994341923 33.095026643015444,75.65366565185832 33.59857904072851,76.30239671398886 34.030195381492376,77.04380285390653 34.31793960882351,77.97055934608215 34.749555950053036,78.80463906587102 34.89342806395143,79.73139306204394 35.03730017738417,80.65814574423712 35.109236234333366,81.49222203536192 35.3250444047153,82.41897222149419 35.68472468852997,83.25304626580328 36.476021314039826,83.71642027475173 37.05150976870209,84.4578180066892 37.05150976870209,85.38456398877315 37.12344582565129,86.21863424946787 37.195381882600486,87.23805201199139 37.41119005298242,88.07211990788346 37.48312610993162,88.99886076670373 37.33925399649888,89.83292641612934 37.33925399649888,90.75966477912152 37.33925399649888,91.68640182755189 37.195381882600486,92.52046404842986 36.33214920060709,92.61313756293384 35.54085257509723,92.89115802722517 34.60568383615464,93.07650493783876 33.670515097212046,93.07650493783876 32.80728241521865,93.16917837352958 31.80017761932686,93.16917837352958 31.008880994282663,93.07650493783876 30.361456483136863,92.42779052106198 30.145648312289268,91.59372818190604 30.145648312289268,91.59372818190604" stroke="#4DD2FF" stroke-linecap="round" stroke-linejoin="round" stroke-width="0.5"><title>2023-09-20 4.34km</title><desc>377290909</desc></polyline></svg>