<?xml version="1.0" encoding="utf-8" ?>
<svg baseProfile="full" height="130mm" version="1.1" viewBox="0,0,100,130" width="100mm" xmlns="http://www.w3.org/2000/svg" xmlns:ev="http://www.w3.org/2001/xml-events" xmlns:xlink="http://www.w3.org/1999/xlink"><defs /><rect fill="#222222" height="130" width="100" x="0" y="0" /><text fill="#FFFFFF" style="font-size:6px; font-family:Arial; font-weight:bold;color:#0ed45e;" x="5" y="10">MY TRACKS</text><text fill="#FFFFFF" style="font-size:4px; font-family:Arial" x="5" y="121">Runner</text><text fill="#FFFFFF" style="font-size:6px; font-family:Arial" x="2" y="128">蓝皮书</text><text fill="#FFFFFF" style="font-size:4px; font-family:Arial" x="25" y="121">WORKOUTS INFO</text><text fill="#FFFFFF" style="font-size:3px; font-family:Arial" x="25" y="125">Type: Run</text><text fill="#FFFFFF" style="font-size:3px; font-family:Arial" x="22" y="129">Date: 2023-08-13</text><text fill="#FFFFFF" style="font-size:3px; font-family:Arial" x="47" y="125">Distance: 4.01 km</text><text fill="#FFFFFF" style="font-size:3px; font-family:Arial" x="47" y="129">Duration: 37:03min</text><text fill="#FFFFFF" style="font-size:3px; font-family:Arial" x="75" y="125">Pace: 9:15/km</text><text fill="#FFFFFF" style="font-size:3px; font-family:Arial" x="75" y="129">Elevation: 0m</text><polyline fill="none" points="61.91549295769073,49.25979192490922 61.535211267415434,50.32133588462602 60.58450704207644,50.811278590757865 59.69718309841119,50.89293566782726 60.58450704207644,50.89293566782726 61.28169014072046,50.729621501872316 62.105633802711964,50.729621501872316 62.992957746377215,50.56630728964228 63.880281690042466,50.811278590757865 64.70422535203397,50.647964401345234 65.46478873235174,50.4846501662978 66.35211267601699,50.4846501662978 67.11267605610192,50.56630728964228 68.06338028167374,50.56630728964228 68.950704225339,50.729621501872316 69.71126760565676,50.811278590757865 70.59859154932201,50.89293566782726 71.35915492963977,51.05624978715787 72.24647887330502,51.05624978715787 73.00704225362279,51.38287788757589 73.83098591538146,51.709505802427884 74.59154929569922,52.11779043573188 75.54225352127105,52.60773161362158 76.4295774649363,52.77104524691822 77.31690140860155,52.85270204616245 78.01408450701274,53.179329127655365 78.71126760565676,53.587612719100434 79.5352112678811,53.83258273487445 80.42253521108069,53.914239383651875 81.30985915497877,54.159209260717034 81.94366197171621,54.56749215739546 82.76760563394055,54.97577476449078 83.59154929569922,55.30240064201644 84.35211267601699,55.7923391109216 85.049295774661,56.11896452505607 85.68309859139845,56.52724603243405 86.31690140836872,57.09883965662448 86.950704225339,57.75208881829167 87.3943661970552,58.48699323972687 87.83802816900425,59.221896722970996 88.34507042262703,60.03845504944911 88.78873239434324,60.773356553167105 89.10563380271196,61.5899126798613 89.73943661968224,62.2431567478925 89.86619718302973,63.14136613154551 89.86619718302973,63.95791890111286 90.1197183097247,64.85612561035668 90.24647887307219,65.59102096717106 90.5,66.40757026372012 90.37323943641968,67.22411840292625 90.18309859139845,67.87735608057119 90.1197183097247,68.69390213594306 89.86619718302973,69.42879259597976 89.42253521131352,70.00037341663847 88.97887323913164,70.6536079456564 88.53521126741543,71.22518755082274 88.1549295776058,71.87842069088947 87.64788732398301,72.5316530900891 87.26760563394055,73.26653865358094 86.82394366175868,73.91976947820513 86.19014084502123,74.32803836767562 85.61971830995753,74.89961432653945 84.92253521131352,75.38953612558544 84.22535211243667,75.87945750768995 83.59154929569922,76.36937847331865 82.8943661970552,76.69599221873796 82.3239436619915,77.34921915427549 81.69014084525406,78.00244534894591 80.99295774637721,78.49236450874014 80.86619718302973,79.3905485526193 80.549295774661,80.28873119602213 80.35915492963977,81.02360686240718 80.48591549298726,81.84013428125763 80.80281690135598,82.65666054218309 80.92957746447064,83.47318564599846 81.05633802805096,84.37136192305479 81.37323943641968,85.18788459576899 81.62676056334749,86.00440611114027 81.62676056334749,86.82092646916863 81.49999999976717,87.71909752604552 81.43661971832626,88.61726718227146 81.18309859139845,89.35213222296443 80.86619718302973,90.16864783526398 80.16901408438571,90.49525375611847 79.34507042262703,90.41360229311977 78.5211267604027,90.65855664707487 77.69718309841119,90.49525375611847 76.87323943641968,90.49525375611847 76.11267605633475,90.65855664707487 75.28873239434324,90.57690520753385 74.33802816877142,90.74020807503257 73.57746478891931,90.57690520753385 72.75352112669498,90.49525375611847 71.80281690112315,90.41360229311977 70.91549295769073,90.57690520753385 70.15492957737297,90.41360229311977 69.2042253522668,90.33195081877057 68.63380281697027,89.67873860686086 68.38028169004247,88.69891889969585 68.06338028167374,87.9640530255856 67.93661971832626,87.14753428829135 67.49295774637721,86.33101439318852 68.06338028167374,85.5961454983917 68.50704225338995,84.77962340414524 68.63380281697027,83.88144776370609 68.25352112669498,83.06492323859129 68.0,82.41170278552454 68.06338028167374,81.51352345262421 68.0,80.77864841115661 68.12676056334749,79.96211948775453 68.25352112669498,78.98228325176751 67.49295774637721,78.73732393205864 66.60563380271196,78.8189770502504 65.8450704223942,78.90063015685882 64.95774647872895,78.8189770502504 64.26056338031776,78.57401766150724 63.37323943665251,78.41071134438971 62.67605633800849,78.65567080263281 61.91549295769073,78.49236450874014 61.091549295699224,78.57401766150724 60.26760563370772,78.41071134438971 59.57042253529653,78.90063015685882 59.82394366222434,79.79881356412079 59.88732394343242,80.53368985559791 60.01408450701274,81.43187071639113 60.077464788686484,82.16674492438324 60.26760563370772,82.90161819499917 60.26760563370772,83.63649052759865 60.521126760635525,84.37136192305479 60.521126760635525,85.10623238078551 60.521126760635525,86.16771027556388 60.33098591561429,86.90257844113512 60.45774647872895,87.71909752604552 60.647887323983014,88.4539637126145 60.58450704207644,89.35213222296443 60.45774647872895,90.16864783526398 59.76056338031776,90.57690520753385 58.87323943665251,90.57690520753385 58.11267605633475,90.49525375611847 57.352112676016986,90.49525375611847 56.52816901425831,90.57690520753385 55.76760563370772,90.57690520753385 54.880281690042466,90.49525375611847 53.92957746470347,90.57690520753385 53.23239436605945,90.74020807503257 52.47183098574169,90.74020807503257 51.71126760565676,90.65855664707487 50.76056338031776,90.41360229311977 50.0,90.25029933289625 49.11267605633475,90.33195081877057 48.28873239434324,90.33195081877057 48.035211267648265,89.5154354380793 48.035211267648265,88.61726718227146 47.97183098574169,87.88240120408591 48.035211267648265,87.06588235072559 48.41549295792356,86.16771027556388 48.41549295792356,85.26953679946018 48.73239436629228,84.5346665502293 48.605633802944794,83.63649052759865 48.54225352103822,82.8199656556244 48.28873239434324,82.08509228104958 47.97183098574169,81.26856520975707 47.84507042262703,80.53368985559791 47.84507042262703,79.63550759438658 47.6549295776058,78.73732393205864 47.33802816900425,77.92079211521195 46.95774647896178,77.26756582787493 46.577464788686484,76.53268536936957 46.38732394366525,75.71615042659687 46.07042253529653,74.98126798850717 45.37323943665251,74.49134584225249 44.48591549298726,74.57299956231145 43.66197183099575,74.7363069676212 43.091549295699224,74.24638461292489 43.02816901402548,73.4298464290332 43.02816901402548,72.44999908073805 42.7746478873305,71.79676658904646 42.521126760402694,70.89857070322614 42.394366197055206,70.08202777325641 42.14084507059306,69.26548368594376 41.44366197171621,68.77555667771958 40.74647887307219,68.20397464151029 40.11267605656758,67.71404673077632 39.478873239364475,66.97915408283006 38.908450704300776,66.3259153861436 38.147887324215844,66.08095068414696 37.32394366199151,65.75433091912419 36.563380281440914,65.42771096888464 35.73943661968224,65.42771096888464 34.91549295769073,65.26440092432313 34.21830985927954,64.93778069625841 33.45774647896178,65.01943577080965 32.76056338031776,65.34605595259927 32.0,65.75433091912419 31.366197183029726,66.08095068414696 30.732394366292283,66.65253482712433 30.225352112669498,67.22411840292625 29.591549295932055,67.7957014113781 28.894366197288036,68.28562925301958 28.323943661991507,68.77555667771958 27.690140845254064,69.18382921360899 26.92957746470347,69.26548368594376 26.105633802711964,69.51044703362277 25.281690140953287,69.59210145979887 24.647887323750183,70.08202777325641 24.14084507036023,70.81691646238323 23.380281690275297,70.81691646238323 22.746478873305023,70.40864508406958 22.11267605633475,69.8370646686526 21.66901408461854,69.26548368594376 21.41549295792356,68.53059301752364 20.591549295932055,67.95901073829737 19.830985915614292,68.36728385265451 18.81690140836872,68.77555667771958 17.992957746377215,68.61224758264143 17.295774647966027,68.93886572675547 16.535211267648265,68.8572112081456 16.281690141186118,68.12232001876691 15.838028169004247,67.55073733441532 15.267605633707717,66.73418965836754 14.823943662224337,66.08095068414696 14.253521126927808,65.42771096888464 13.556338028050959,64.85612561035668 12.98591549322009,64.1212293159333 12.54225352103822,63.467987378302496 12.161971830762923,62.73308931250358 11.718309859279543,61.998190309037454 11.274647887330502,61.18163476121845 10.95774647896178,60.446733778342605 10.450704225571826,59.79348767286865 10.133802817203104,59.05858491896652 9.880281690275297,58.160369168035686 9.563380281906575,57.4254643303575 9.5,56.69055855443003 9.816901408601552,55.95565184095176 10.197183098876849,55.22074419009732 10.95774647896178,54.89411826618016 11.845070422627032,54.485835601051804 12.66901408485137,54.077552646631375 13.366197183262557,53.669269402569626 13.936619718326256,53.097672374686226 14.57042253529653,52.362761076889 15.330985915614292,52.03613353223773 15.964788732351735,51.38287788757589 16.661971830995753,51.62784884101711 17.35915492963977,52.11779043573188 16.788732394576073,52.77104524691822 16.02816901425831,53.342642598901875 15.330985915614292,53.99589602067135 15.01408450701274,54.81246175640263 14.380281690042466,55.54736992844846 14.126760563347489,56.2822771629435 13.873239436652511,57.017183459422085 13.873239436652511,57.75208881829167 13.809859154978767,58.650305205839686 14.190140845021233,59.38520848087501 14.380281690042466,60.12011081847595 14.760563380317762,60.9366678710212 15.267605633707717,61.5899126798613 15.711267605889589,62.2431567478925 16.3450704223942,62.73308931250358 17.04225352127105,62.324812204402406 17.739436619682238,61.75322376639815 18.309859154978767,61.18163476121845 19.133802816970274,60.61004518897971 19.830985915614292,59.87514347676188 20.211267605656758,59.221896722970996 20.845070422627032,58.568649228604045 21.605633802711964,58.24202520342078 22.366197183262557,57.75208881829167 23.063380281673744,57.26215201645391 23.507042253622785,56.52724603243405 23.950704225338995,55.7923391109216 24.521126760635525,55.22074419009732 25.091549295932055,54.40417903335765 25.788732394343242,53.83258273487445 26.48591549298726,53.505956023873296 27.373239436885342,53.750926074397285 28.007042253622785,54.40417903335765 28.0704225350637,55.22074419009732 27.373239436885342,55.7106827282696 26.802816901588812,56.60890229931101 26.866197183029726,57.4254643303575 27.183098591398448,58.24202520342078 27.816901408601552,58.73196117137559 28.51408450724557,59.140240826818626 28.894366197288036,59.87514347676188 29.6549295776058,59.87514347676188 30.41549295769073,59.79348767286865 31.049295774661005,59.221896722970996 31.55633802828379,58.650305205839686 32.063380281673744,57.91540099319536 32.38028169050813,57.180495842476375 32.44366197171621,56.36393346445402 32.31690140860155,55.62902633403428 31.55633802828379,55.46571351127932 30.922535211080685,54.97577476449078 30.161971831228584,54.485835601051804 29.274647887563333,54.40417903335765 28.51408450724557,54.322522454021964 28.007042253622785,53.750926074397285 28.767605633707717,53.505956023873296 29.6549295776058,53.505956023873296 30.54225352127105,53.750926074397285 31.366197183029726,53.99589602067135 32.38028169050813,54.077552646631375 32.950704225571826,54.6491487021558 33.71126760565676,54.89411826618016 34.535211267881095,54.6491487021558 35.23239436629228,54.89411826618016 36.119718309957534,54.97577476449078 36.94366197171621,54.6491487021558 37.95774647919461,54.6491487021558 38.71830985927954,54.56749215739546 39.605633802944794,54.73080523504177 40.4295774649363,55.13908772636205 41.063380281673744,55.62902633403428 41.950704225338995,55.54736992844846 42.647887324215844,55.7106827282696 43.47183098597452,55.54736992844846 44.29577464819886,55.46571351127932 45.05633802828379,55.46571351127932 45.690140845254064,54.89411826618016 46.323943661758676,54.40417903335765 47.08450704230927,54.322522454021964 47.908450704300776,53.99589602067135 48.7957746477332,53.914239383651875 49.55633802828379,53.750926074397285 50.31690140836872,53.505956023873296 51.14084507059306,53.179329127655365 52.02816901425831,52.77104524691822 52.78873239434324,52.44441793416627 53.676056338241324,52.60773161362158 54.436619718093425,52.44441793416627 55.26056338031776,52.11779043573188 56.147887323983014,52.11779043573188 57.035211267648265,51.709505802427884 57.85915492963977,51.709505802427884 58.55633802805096,51.30122087983182 59.380281690042466,51.13790682965191 60.14084507059306,50.97459273348795 61.091549295699224,51.13790682965191 61.91549295769073,51.38287788757589 62.73943661944941,51.62784884101711 63.563380281673744,51.791162752197124 64.450704225339,51.62784884101711" stroke="#4DD2FF" stroke-linecap="round" stroke-linejoin="round" stroke-width="0.5"><title>2023-08-13 4.01km</title><desc>375402023</desc></polyline></svg>