<?xml version="1.0" encoding="utf-8" ?>
<svg baseProfile="full" height="130mm" version="1.1" viewBox="0,0,100,130" width="100mm" xmlns="http://www.w3.org/2000/svg" xmlns:ev="http://www.w3.org/2001/xml-events" xmlns:xlink="http://www.w3.org/1999/xlink"><defs /><rect fill="#222222" height="130" width="100" x="0" y="0" /><text fill="#FFFFFF" style="font-size:6px; font-family:Arial; font-weight:bold;color:#0ed45e;" x="5" y="10">MY TRACKS</text><text fill="#FFFFFF" style="font-size:4px; font-family:Arial" x="5" y="121">Runner</text><text fill="#FFFFFF" style="font-size:6px; font-family:Arial" x="2" y="128">蓝皮书</text><text fill="#FFFFFF" style="font-size:4px; font-family:Arial" x="25" y="121">WORKOUTS INFO</text><text fill="#FFFFFF" style="font-size:3px; font-family:Arial" x="25" y="125">Type: Run</text><text fill="#FFFFFF" style="font-size:3px; font-family:Arial" x="22" y="129">Date: 2023-12-15</text><text fill="#FFFFFF" style="font-size:3px; font-family:Arial" x="47" y="125">Distance: 3.67 km</text><text fill="#FFFFFF" style="font-size:3px; font-family:Arial" x="47" y="129">Duration: 25:33min</text><text fill="#FFFFFF" style="font-size:3px; font-family:Arial" x="75" y="125">Pace: 6:57/km</text><text fill="#FFFFFF" style="font-size:3px; font-family:Arial" x="75" y="129">Elevation: 0m</text><polyline fill="none" points="30.873217115644366,52.55260960734449 31.643423137953505,53.04876106430311 32.47781299497001,53.21414478938095 33.312202852685004,53.29683663439937 34.210776545107365,53.54491209931439 35.17353407293558,53.54491209931439 35.94374009501189,53.46222028933698 36.84231378766708,53.37952846765984 37.676703644916415,53.46222028933698 38.446909667225555,53.710295683529694 39.21711568930186,53.958370972191915 40.05150554678403,54.2064461557311 40.82171156886034,54.37182955263415 41.65610142610967,54.45452123339055 42.42630744841881,54.37182955263415 43.19651347072795,54.04106271179626 43.83835182222538,53.62760389724281 44.54437400936149,53.29683663439937 45.3145800314378,53.13145293254638 46.148969889152795,52.88337729196064 47.047543581575155,52.80068538850173 47.817749603884295,53.21414478938095 48.65213946113363,53.04876106430311 49.42234548344277,52.80068538850173 50.32091917586513,52.71799347316846 51.09112519817427,52.635301546019036 51.98969889059663,52.469917656912 52.75990491267294,52.387225694488734 53.5942947701551,52.30453372054035 54.42868462763727,52.13914973731153 55.2630744848866,51.89107367483666 56.03328050719574,51.560305427294225 56.9318541996181,51.312229118775576 57.83042789227329,51.312229118775576 58.664817749289796,51.064152704318985 59.306656101485714,50.65069177915575 60.2694136290811,50.65069177915575 61.16798732173629,50.73338398768101 61.9381933438126,50.89876836939948 62.772583201294765,50.65069177915575 63.542789223371074,50.567999559047166 64.37717908062041,50.567999559047166 65.21156893810257,50.73338398768101 66.17432646569796,50.89876836939948 66.9445324880071,50.98146054265089 67.7789223457221,50.65069177915575 68.48494453239255,50.48530732712243 69.38351822504774,50.319922828290146 70.15372424712405,50.40261508349795 70.92393026943319,50.65069177915575 71.6941362915095,50.89876836939948 72.46434231381863,51.064152704318985 73.29873217106797,51.312229118775576 74.13312202855013,51.6429975067731 75.0316957209725,51.80838163063163 75.8019017430488,51.80838163063163 76.57210776535794,51.72568957443582 77.34231378743425,52.221841734834015 78.11251980974339,52.387225694488734 78.94690966722555,52.30453372054035 79.78129952447489,52.55260960734449 80.55150554678403,52.88337729196064 81.38589540403336,53.04876106430311 82.1561014263425,53.37952846765984 82.99049128359184,53.875679221062455 83.76069730566815,54.45452123339055 84.59508716315031,54.70259620581055 85.3011093500536,55.116054258309305 86.07131537259556,55.6122035345179 86.64896988891996,56.025660942308605 87.16244057030417,56.6045008210931 87.6759112519212,57.3487226779107 88.18938193330541,58.01025242032483 88.70285261468962,58.671781412209384 89.1521394609008,59.41600063134683 89.47305863699876,60.160218900826294 89.92234548344277,60.98712697537849 90.11489698872901,61.73134324036073 90.24326465907507,62.64093960780883 90.17908082390204,63.467844165686984 90.30744849424809,64.46012808737578 90.5,65.36972019932 90.43581616482697,66.19662088854238 90.37163232942112,67.1889001679956 90.30744849424809,68.01579827797832 90.11489698872901,68.76000557478983 89.98652931838296,69.58690145768924 89.53724247240461,70.16572787798941 89.0879556259606,70.9099324317067 88.70285261468962,71.5714467933285 88.25356576871127,72.23296040465357 87.61172741674818,72.7290951210307 86.9698890647851,73.39060741942376 86.32805071305484,74.05211896781111 85.75039619626477,74.71362976566888 85.04437400959432,75.2097623719601 84.27416798705235,75.70589455630397 83.56814580014907,76.11933772073826 82.92630744865164,76.4500920412247 82.28446909645572,77.1942885768367 81.83518225047737,78.02117250260198 81.51426307437941,78.76536703365855 81.25752773368731,79.67493683792418 81.25752773368731,80.41912925895303 81.25752773368731,81.32869648432825 81.19334389828146,82.15557454933878 81.32171156886034,82.89976380526787 81.51426307437941,83.72663964319509 81.51426307437941,84.63620171090588 81.32171156886034,85.38038780231727 81.45007923897356,86.28994729125407 81.57844690955244,87.1995053619612 81.57844690955244,88.02637510444038 81.70681457966566,88.85324367502471 81.12916006334126,89.43205097690225 80.2947702058591,89.76279774855357 79.46038034884259,89.84548441227525 78.49762282078154,89.84548441227525 77.79160063387826,90.09354433277622 77.02139461156912,89.92817106435541 76.12282091914676,89.84548441227525 75.35261489683762,89.84548441227525 74.45404120441526,89.76279774855357 73.6196513469331,89.76279774855357 72.78526148945093,89.68011107324855 72.01505546714179,89.5974243862438 71.24484944529831,89.68011107324855 70.34627575241029,89.84548441227525 69.38351822504774,89.84548441227525 68.8058637084905,89.43205097690225 68.6133122027386,88.6051832268131 68.6774960376788,87.69562734820647 68.74167987308465,86.86875713663176 68.54912836733274,86.04188575327862 68.42076069721952,85.29770050558727 68.42076069721952,84.4708268949762 68.48494453239255,83.64395211223746 68.2923930271063,82.65170082560508 68.2923930271063,81.82482346397592 68.3565768620465,80.91525701229693 68.42076069721952,80.00568914221367 68.74167987308465,79.17880802956643 68.8700475434307,78.26923745195381 68.8700475434307,77.52504228771431 68.03565768618137,77.1942885768367 67.20126782893203,77.27697702206206 66.30269413627684,77.44235387758818 65.53248811420053,77.52504228771431 64.63391442154534,77.690419073042 63.671156893717125,77.77310744806891 62.900950871640816,77.77310744806891 61.874009508872405,77.77310744806891 61.16798732173629,77.93848416261608 60.39778129942715,78.18654914724175 59.56339144194499,78.35192574484972 59.56339144194499,79.17880802956643 59.755942947696894,79.92300108383643 59.88431061827578,80.66719318827381 60.012678288389,81.41138434340246 60.205229793908074,82.23826229118276 60.39778129942715,83.06513906666078 60.59033280517906,83.8093271626276 60.59033280517906,84.63620171090588 60.654516640119255,85.5457623602706 60.46196513483301,86.37263444712153 60.39778129942715,87.1995053619612 60.333597464254126,88.02637510444038 60.333597464254126,88.85324367502471 60.2694136290811,89.68011107324855 59.69175911229104,90.09354433277622 58.857369255274534,90.01085770438658 57.95879556238651,89.92817106435541 56.996038034558296,89.92817106435541 56.097464342135936,90.01085770438658 55.198890649480745,90.01085770438658 54.36450079246424,90.01085770438658 53.5942947701551,89.92817106435541 52.82408874807879,90.01085770438658 51.86133122025058,90.01085770438658 50.96275752782822,90.01085770438658 50.064183834940195,90.01085770438658 49.293977812863886,90.17623094975716 48.52377179078758,90.17623094975716 47.75356576847844,90.17623094975716 46.98335974640213,90.17623094975716 46.85499207605608,89.34936425474007 47.24009508732706,88.6051832268131 47.43264659261331,87.77831430482911 47.43264659261331,86.86875713663176 47.496830427553505,85.95919855026295 47.496830427553505,85.04963854554808 47.43264659261331,84.14007712254534 47.496830427553505,83.23051428137114 47.56101426295936,82.48632544692373 47.43264659261331,81.74213566328399 47.62519809836522,80.7498811414116 47.817749603884295,79.8403130134684 47.88193343882449,79.09611985384254 48.01030110917054,78.26923745195381 47.56101426295936,77.52504228771431 47.17591125192121,76.78084617410786 46.72662440571003,76.11933772073826 46.21315372432582,75.37513981369557 45.828050713054836,74.54825213667937 45.3145800314378,74.05211896781111 44.54437400936149,74.05211896781111 43.51743264659308,74.30018560489407 42.87559429462999,73.88674115104368 42.93977812980302,73.05985136382515 42.93977812980302,72.15027124446351 42.811410459456965,71.24068970629014 42.55467511853203,70.41379616799532 42.16957210795954,69.66959098132793 41.784469096921384,68.92538484511897 41.27099841530435,68.18117775931023 40.75752773368731,67.51965955254855 40.05150554678403,67.02352040534606 39.473851029993966,66.36200088559417 38.83201267849654,66.03124084457522 37.93343898584135,65.61779052915517 37.227416798705235,65.20433992083417 36.39302694122307,65.03895959549118 35.49445324880071,64.79088901949581 34.72424722649157,64.54281833802816 33.82567353406921,64.46012808737578 33.05546751176007,64.46012808737578 32.22107765451074,64.54281833802816 31.515055467607453,64.95626941532828 30.873217115644366,65.4524103209842 30.35974643426016,66.19662088854238 29.782091917702928,66.85814059566474 29.076069730566815,67.27159003156703 28.434231378603727,67.85041874973103 27.728209191700444,68.5946262574871 26.958003169856966,69.00807446276303 26.187797147547826,68.76000557478983 25.417591125238687,68.67731592204655 24.58320126775652,68.92538484511897 23.87717908085324,69.1734536626609 23.10697305877693,69.33883281570161 22.20839936635457,69.09076406853274 21.694928684737533,68.26386748254299 21.43819334404543,67.43696972401813 20.86053882725537,66.94083050632617 20.21870047552511,66.44469086645404 19.576862123562023,66.85814059566474 18.99920760700479,67.60234936961206 18.1006339143496,67.76772896811599 17.330427892273292,67.93310851982096 16.496038035023957,67.6850391748012 15.982567353639752,66.94083050632617 15.469096672022715,66.11393087223405 14.955625990405679,65.53510043094866 14.442155309021473,64.70819880394265 13.992868462810293,64.12936696759425 13.415213946253061,63.38515376247233 13.094294770155102,62.64093960780883 12.580824088538066,61.81403387791943 12.06735340738669,61.235199169430416 11.61806656094268,60.49098227149807 11.040412044385448,59.746764423907734 10.719492868287489,58.8371635429794 10.206022186903283,58.01025242032483 9.756735340924934,57.26603140734369 9.62836767011322,56.35642665781779 9.5,55.44682048924733 9.692551505519077,54.53721290244721 10.334389857714996,53.958370972191915 10.976228209212422,53.37952846765984 11.61806656094268,52.88337729196064 12.324088748311624,52.469917656912 13.030110935214907,52.13914973731153 13.73613312211819,51.80838163063163 14.18541996832937,51.14684485405451 14.891442155232653,50.65069177915575 15.533280507195741,50.15453828236787 16.30348652927205,49.823769050242845 17.009508716408163,50.23723056126619 17.137876386754215,50.98146054265089 16.4318541996181,51.560305427294225 15.790015847887844,51.97376570751658 15.212361331330612,52.469917656912 14.698890649713576,53.13145293254638 14.313787638908252,53.710295683529694 13.928684627637267,54.45452123339055 13.73613312211819,55.19874583382625 13.543581616599113,56.025660942308605 13.415213946253061,56.76988353795605 13.415213946253061,57.76217885466758 13.607765451539308,58.58909032936208 13.992868462810293,59.33330965379719 14.377971473615617,59.994837145204656 14.827258320059627,60.82174545456655 15.340729001443833,61.48327125760261 16.110935023752972,61.64865259110229 16.945324881002307,61.1525084496825 17.458795562619343,60.40829144633608 17.908082408830523,59.746764423907734 18.42155309021473,59.00254562689224 18.99920760700479,58.341017009923235 19.705229793908074,57.84487005491974 20.347068145871162,57.3487226779107 21.053090332774445,56.76988353795605 21.75911251967773,56.19104382331716 22.272583201061934,55.5295120178489 22.78605388267897,54.95067107252544 23.363708399469033,54.53721290244721 23.941362916026264,53.875679221062455 24.58320126775652,53.29683663439937 25.22503961948678,52.55260960734449 25.931061806622893,52.221841734834015 26.637083993759006,51.72568957443582 27.407290015835315,51.80838163063163 28.37004754366353,51.80838163063163 29.204437400680035,51.80838163063163 30.03882725839503,51.89107367483666 30.744849445298314,52.13914973731153 31.515055467607453,52.469917656912 32.28526148991659,52.80068538850173 32.991283676819876,53.13145293254638 33.82567353406921,53.46222028933698 32.991283676819876,53.04876106430311" stroke="#4DD2FF" stroke-linecap="round" stroke-linejoin="round" stroke-width="0.5"><title>2023-12-15 3.67km</title><desc>381373839</desc></polyline></svg>