<?xml version="1.0" encoding="utf-8" ?>
<svg baseProfile="full" height="130mm" version="1.1" viewBox="0,0,100,130" width="100mm" xmlns="http://www.w3.org/2000/svg" xmlns:ev="http://www.w3.org/2001/xml-events" xmlns:xlink="http://www.w3.org/1999/xlink"><defs /><rect fill="#FAF9F5" height="130" width="100" x="0" y="0" /><text fill="#5A5A5A" style="font-size:6px; font-family:Arial; font-weight:bold;color:#0ed45e;" x="5" y="10">MY TRACKS</text><text fill="#5A5A5A" style="font-size:4px; font-family:Arial" x="5" y="121">Runner</text><text fill="#5A5A5A" style="font-size:6px; font-family:Arial" x="2" y="128">蓝皮书</text><text fill="#5A5A5A" style="font-size:4px; font-family:Arial" x="25" y="121">WORKOUTS INFO</text><text fill="#5A5A5A" style="font-size:3px; font-family:Arial" x="25" y="125">Type: Hike</text><text fill="#5A5A5A" style="font-size:3px; font-family:Arial" x="22" y="129">Date: 2023-06-18</text><text fill="#5A5A5A" style="font-size:3px; font-family:Arial" x="47" y="125">Distance: 3.83 km</text><text fill="#5A5A5A" style="font-size:3px; font-family:Arial" x="47" y="129">Duration: 41:29min</text><text fill="#5A5A5A" style="font-size:3px; font-family:Arial" x="75" y="125">Pace: 10:49/km</text><text fill="#5A5A5A" style="font-size:3px; font-family:Arial" x="75" y="129">Elevation: 0m</text><polyline fill="none" points="56.85570469778031,50.54546239168849 58.18456375831738,49.845072858268395 58.72818791959435,50.54546239168849 59.15100671118125,51.24585103197023 59.93624161067419,51.47931371326558 60.66107382555492,51.47931371326558 61.567114093806595,51.557134584814776 62.23154362407513,51.63495544571197 63.07718120794743,51.32367193669779 63.86241610744037,51.012388251081575 64.5872483223211,51.40149283059873 65.49328859057277,51.32367193669779 65.91610738239251,51.94623877800768 66.64093959727325,52.10188037803164 67.48657718114555,52.10188037803164 68.21140939602628,52.10188037803164 68.99664429528639,52.25752193410881 69.72147650993429,52.646625630615745 70.5671140938066,52.56880491337506 71.35234899329953,52.72444633691339 71.95637583895586,53.2691909717978 72.62080536899157,53.891755606397055 73.40604026871733,54.35867861920269 74.13087248336524,54.514319534937385 74.91610738262534,54.514319534937385 75.70134228165261,54.43649908259977 76.24496644292958,54.98124201805331 76.90939597319812,55.525984413106926 77.63422818784602,55.44816410419298 78.35906040272675,55.525984413106926 78.96308724838309,56.148546488257125 79.44630872481503,56.69328772468725 79.98993288562633,57.3936685200315 80.7751677853521,57.47148855327396 81.4395973153878,57.938408520654775 82.0436241608113,58.48314798105275 82.58724832208827,58.87224726425484 83.19127516797744,59.41698579763761 83.79530201316811,60.03954345959937 84.45973154366948,60.506461242737714 84.64093959704041,61.28465666511329 85.12416107370518,62.062850984337274 85.36577181192115,62.91886346106185 85.66778523474932,63.6192363127484 85.84899328858592,64.55306539178127 86.09060402680188,65.33125507715158 86.03020134242252,66.42071878333809 86.21140939579345,67.12108716717921 86.33221476501785,67.97709175565979 85.84899328858592,68.59963970899116 85.72818791936152,69.30000531242695 85.90939597319812,70.00037002225872 85.78859060420655,70.85637012083316 85.78859060420655,71.55673284491058 85.84899328858592,72.33491260150913 85.96979865757748,73.190909059369 86.63422818807885,73.57999791717157 87.23825503350236,74.12472185480874 87.90268456377089,73.81345109950053 88.20469798683189,73.11309125478147 88.98993288585916,72.80181992572034 89.5939597315155,72.41273051640019 90.5,72.41273051640019 89.89597315434366,72.9574556123116 89.05033557047136,73.11309125478147 88.20469798683189,73.03527343919268 87.41946308710612,72.9574556123116 86.69463087222539,72.9574556123116 85.96979865757748,72.72400206589373 85.42617449676618,72.02364083123393 84.94295302033424,71.47891480871476 84.33892617444508,71.86800487997243 84.21812080545351,72.56836631341139 83.67449664417654,73.03527343919268 83.1308724831324,73.73563338298118 82.82885906053707,74.43599243363133 82.4060402684845,75.21416810830124 81.6812080538366,75.44762059551431 80.89597315434366,75.83670785365393 80.23154362407513,76.38142955180956 79.5067114091944,76.84833343431819 78.96308724838309,77.31523691973416 78.17785234912299,77.78214000776643 77.57382550323382,78.32685977523215 77.21140939602628,79.26066383376019 77.21140939602628,80.03883266879711 77.21140939602628,80.81700040085707 77.03020134218968,81.67298363195732 76.96979865781032,82.60678199806716 77.03020134218968,83.3849460897618 77.39261744963005,84.00747656880412 77.57382550323382,84.78563867497724 77.63422818784602,85.56379967776593 77.51342281885445,86.34195957781048 77.45302013424225,87.12011837447062 77.39261744963005,87.898276068212 77.39261744963005,88.83206384448567 77.39261744963005,89.61021911160788 76.84899328858592,90.15492714178981 76.12416107393801,89.92148090922274 75.39932885905728,89.61021911160788 74.61409395956434,89.45458814623998 73.88926174514927,89.22114161588252 73.04362416127697,89.37677264714148 72.13758389255963,89.37677264714148 71.35234899329953,89.37677264714148 70.5671140938066,89.45458814623998 69.72147650993429,89.53240363439545 68.81543624144979,89.37677264714148 68.09060402680188,89.29895713709993 67.30536912754178,89.29895713709993 66.58053691266105,89.45458814623998 65.73489932878874,89.53240363439545 65.37248322134838,88.90987942070933 65.55369127518497,88.05390747467754 65.49328859057277,87.35356579854852 65.2516778523568,86.57540733262431 65.01006711414084,85.79724776372313 64.64765100670047,85.09690320852678 64.64765100670047,84.24092531658243 64.5872483223211,83.30712973041227 64.46644295332953,82.5289655282395 64.70805369107984,81.82861680333735 64.88926174491644,81.05045050533954 65.07046979852021,80.35009989398532 65.2516778523568,79.64974838937633 65.37248322134838,78.94939599081408 64.70805369107984,78.48249389551347 63.98322147666477,79.02721296815434 63.19798657717183,79.02721296815434 62.41275167791173,78.87157900258899 61.627516778418794,78.7937620030716 60.78187919454649,78.7937620030716 60.057046979665756,78.48249389551347 59.21140939602628,78.48249389551347 58.48657718114555,78.40467684087344 58.06375838909298,79.02721296815434 57.33892617444508,79.26066383376019 56.91610738262534,80.03883266879711 56.91610738262534,80.81700040085707 56.85570469778031,81.59516702970723 56.91610738262534,82.45114904723596 56.97651006700471,83.30712973041227 57.21812080545351,84.08529282920063 57.33892617444508,85.01908709167037 57.45973154343665,85.79724776372313 57.822147650877014,86.57540733262431 58.00335570471361,87.35356579854852 57.94295301986858,88.20953883673064 57.580536912893876,88.9876949863974 56.97651006700471,89.53240363439545 56.19127516774461,89.68803457746981 55.224832214647904,89.76585003233049 54.5,90.07711174228461 53.775167785119265,90.15492714178981 52.86912751686759,89.92148090922274 52.14429530198686,89.92148090922274 51.298657718114555,89.76585003233049 50.57382550323382,89.61021911160788 49.848993288585916,89.45458814623998 48.942953020334244,89.45458814623998 48.15771812060848,89.45458814623998 47.432885905960575,89.76585003233049 46.70805369107984,89.9992963312543 45.80201342282817,89.76585003233049 45.50000000023283,89.14332608372206 45.6812080538366,88.20953883673064 46.043624161276966,87.50919735932257 46.104026845423505,86.73103911394719 46.224832214647904,86.03069575020345 46.224832214647904,85.25253540900303 46.164429530268535,84.55219015892362 46.043624161276966,83.61839510221034 46.224832214647904,82.91804776707431 46.46644295286387,82.06206647749059 46.3456375838723,81.28390051069437 46.164429530268535,80.50573344039731 46.104026845423505,79.7275652672397 46.224832214647904,78.94939599081408 46.285234899260104,78.1712256113533 45.86241610720754,77.47087132663 45.25838926178403,76.92615070950706 44.6543624161277,76.38142955180956 43.92953020147979,76.14797746192198 43.08389261760749,75.91452527238289 42.298657717881724,75.60325553186703 41.63422818784602,75.05853306152858 41.57382550323382,74.12472185480874 41.27181208040565,73.34654463559855 40.909395973198116,72.64618419512408 40.42617449653335,71.9458228610456 39.52013422828168,71.9458228610456 39.09731543622911,71.40109676122665 38.493288590572774,70.77855198527686 38.07046979852021,70.15600650320994 37.58724832208827,69.53346031490946 37.164429530035704,68.9109134208411 36.5604026846122,68.36618430929957 35.775167785119265,68.21054732095217 35.11073825508356,68.05491028854158 34.26510067121126,67.58799892629031 33.54026845633052,67.27672446437646 32.75503355683759,67.19890582113294 31.969798657810315,67.12108716717921 31.12416107370518,67.19890582113294 30.278523489832878,67.51018032722641 29.372483221348375,67.51018032722641 28.64765100670047,67.89927321183495 27.983221476431936,68.28836582048098 27.4395973153878,68.75527658697683 26.895973154343665,69.22218695626361 26.23154362407513,69.92255176539766 25.567114093806595,70.31164293992333 24.90268456353806,70.07818826817675 24.359060402726755,69.61127862712601 23.63422818807885,69.37782365782186 23.030201342189685,69.84473349736072 22.18456375831738,70.07818826817675 21.338926174445078,69.84473349736072 20.795302013400942,69.30000531242695 20.493288590572774,68.52182125329273 19.76845637569204,68.36618430929957 19.104026845656335,68.59963970899116 18.258389261784032,68.67745815357193 17.473154362058267,69.06655021046754 16.627516778418794,69.30000531242695 16.08389261737466,68.75527658697683 15.057046979665756,67.89927321183495 14.57382550323382,67.19890582113294 14.271812080405653,66.49853753682692 14.030201342189685,65.64253064250806 13.788590603973716,64.94216037238948 13.42617449653335,64.2417892087833 13.063758389092982,63.54141715116566 12.580536912661046,62.91886346106185 12.338926174212247,62.2184897158877 11.976510067237541,61.51811507664388 11.493288590572774,60.81773954391247 10.949664429295808,60.195182764786296 10.345637583872303,59.65044500376098 9.802013422828168,58.95006708789151 9.5,58.24968827853445 9.5,57.54930857551517 9.620805368991569,56.77110785711557 9.983221476431936,55.99290603568079 10.466442952863872,55.370343784219585 11.070469798520207,54.98124201805331 11.674496644176543,54.43649908259977 12.459731543436646,54.28085814451333 13.184563758317381,53.96957613603445 13.848993288585916,53.736114513885695 14.271812080405653,53.19137034268351 15.117449664277956,52.95790838939138 15.600671140709892,52.490984185016714 16.385906040435657,52.8800877162721 17.05033557047136,53.347011589678004 16.627516778418794,53.891755606397055 15.90268456400372,54.43649908259977 15.419463087106124,54.98124201805331 14.815436241682619,55.60380471107783 14.090604026801884,56.148546488257125 13.909395972965285,56.77110785711557 13.848993288585916,57.627128586464096 13.546979865757748,58.327508190239314 13.546979865757748,59.1835264924448 13.728187919361517,59.88390411029104 14.030201342189685,60.5842808347079 14.332214765250683,61.20683717250358 14.63422818784602,61.90721220878186 14.936241610674188,62.52976704610046 15.238255033502355,63.2301403945894 15.781879194546491,63.69705546362093 16.446308724815026,63.07450194982812 16.567114094039425,62.29630906495731 17.23154362407513,61.82939280429855 17.593959731282666,61.05119815428043 18.197986576939,60.273002400645055 18.862416107440367,59.80608441901859 19.58724832208827,59.41698579763761 20.312080536969006,59.027886900585145 20.795302013400942,58.560967859695666 21.580536912893876,58.0162284768885 22.12416107370518,57.3936685200315 22.42617449676618,56.69328772468725 22.667785234982148,55.91508579289075 23.090604026801884,55.2925234529539 23.75503355707042,54.98124201805331 24.419463087106124,54.74778082605917 25.08389261737466,54.20303765893914 25.869127516634762,53.736114513885695 26.775167785119265,53.96957613603445 27.4395973153878,54.047396654612385 28.164429530035704,54.1252171623637 28.94966442952864,54.047396654612385 29.614093959797174,54.43649908259977 30.459731543669477,54.66996040684171 31.003355704713613,55.13688275759341 31.848993288585916,55.44816410419298 32.57382550346665,55.68162499804748 33.298657717881724,55.68162499804748 34.02348993299529,55.60380471107783 34.80872483225539,55.44816410419298 35.6543624161277,55.370343784219585 36.3187919461634,55.370343784219585 37.043624161044136,55.2925234529539 37.82885906030424,55.44816410419298 38.553691275184974,55.75944527389947 39.45973154366948,55.83726553886663 40.12416107393801,56.2263666978688 40.728187919128686,56.69328772468725 41.51342281885445,56.30418689647922 42.419463087338954,55.99290603568079 43.20469798659906,55.75944527389947 43.92953020147979,55.525984413106926 44.775167785352096,55.21470311074518 45.50000000023283,54.98124201805331 46.224832214647904,54.74778082605917 46.94966442929581,54.514319534937385 47.67449664417654,54.59213997650659 48.520134228048846,54.35867861920269 49.24496644292958,53.96957613603445 49.848993288585916,53.58047337725293 50.69463087245822,53.58047337725293 51.47986577171832,53.891755606397055 52.26510067121126,53.96957613603445 52.98993288585916,53.58047337725293 53.714765100739896,53.2691909717978 54.43959731562063,53.347011589678004 55.285234899260104,53.424832196498755 56.01006711390801,53.424832196498755 56.67449664440937,53.19137034268351 57.580536912893876,52.95790838939138 58.18456375831738,52.646625630615745" stroke="#4DD2FF" stroke-linecap="round" stroke-linejoin="round" stroke-width="0.5"><title>2023-06-18 3.83km</title><desc>372642392</desc></polyline></svg>