<?xml version="1.0" encoding="utf-8" ?>
<svg baseProfile="full" height="130mm" version="1.1" viewBox="0,0,100,130" width="100mm" xmlns="http://www.w3.org/2000/svg" xmlns:ev="http://www.w3.org/2001/xml-events" xmlns:xlink="http://www.w3.org/1999/xlink"><defs /><rect fill="#FAF9F5" height="130" width="100" x="0" y="0" /><text fill="#5A5A5A" style="font-size:6px; font-family:Arial; font-weight:bold;color:#0ed45e;" x="5" y="10">MY TRACKS</text><text fill="#5A5A5A" style="font-size:4px; font-family:Arial" x="5" y="121">Runner</text><text fill="#5A5A5A" style="font-size:6px; font-family:Arial" x="2" y="128">蓝皮书</text><text fill="#5A5A5A" style="font-size:4px; font-family:Arial" x="25" y="121">WORKOUTS INFO</text><text fill="#5A5A5A" style="font-size:3px; font-family:Arial" x="25" y="125">Type: Run</text><text fill="#5A5A5A" style="font-size:3px; font-family:Arial" x="22" y="129">Date: 2024-03-02</text><text fill="#5A5A5A" style="font-size:3px; font-family:Arial" x="47" y="125">Distance: 3.67 km</text><text fill="#5A5A5A" style="font-size:3px; font-family:Arial" x="47" y="129">Duration: 29:21min</text><text fill="#5A5A5A" style="font-size:3px; font-family:Arial" x="75" y="125">Pace: 8:00/km</text><text fill="#5A5A5A" style="font-size:3px; font-family:Arial" x="75" y="129">Elevation: 0m</text><polyline fill="none" points="9.5,68.38319724908797 10.360938884317875,67.82860502914991 11.508857395965606,67.27401233708952 12.29805137263611,66.90428361383965 13.087245350237936,66.53455468051834 13.80469442019239,65.9799608879839 14.665633304044604,65.51779903355055 15.598317095078528,65.332934200007 16.45925597893074,64.96320437593386 17.248449955601245,64.5934743421385 18.18113374710083,64.22374409862095 19.185562444850802,64.03887889813632 20.118246235884726,63.57671566790668 20.97918511973694,63.29941757261986 21.911868910770863,63.11455210996792 22.629317980725318,62.55995540821459 23.418511957861483,62.09779112943215 24.279450841713697,61.82049240503693 24.925155004952103,61.2658946022857 25.570859167724848,60.52643013128545 26.360053144861013,59.694531599176116 27.077502214349806,59.324798577232286 27.93844109866768,59.04749867343344 28.655890168622136,58.58533190487651 29.37333923857659,58.03073135006707 30.162533215247095,57.75343089585658 31.16696191346273,57.47613032371737 32.09964570449665,57.19882963341661 33.032329495064914,56.73666155425599 33.9650132865645,56.45936054963386 34.82595217041671,56.45936054963386 35.686891054268926,56.27449314761907 36.61957484530285,55.81232441338943 37.480513729155064,55.71989062731154 38.4849424273707,55.71989062731154 39.48937112512067,55.71989062731154 40.42205491615459,55.71989062731154 41.28299380000681,55.535023015225306 42.14393268385902,55.35015535145067 43.004871567711234,55.16528763488168 44.009300265461206,55.072853756835684 44.94198405696079,54.98041986563476 45.874667847529054,54.98041986563476 46.73560673184693,54.79555204452481 47.7400354295969,54.610684170678724 48.529229406733066,54.5182502141688 49.46191319776699,54.333382261451334 50.32285208115354,54.5182502141688 51.32728077983484,54.70311811420834 52.2599645704031,54.70311811420834 53.19264836143702,54.79555204452481 54.053587245289236,54.70311811420834 55.05801594350487,55.16528763488168 55.847209920641035,55.35015535145067 56.77989371167496,55.62745682778768 57.71257750224322,55.81232441338943 58.717006200458854,55.90475818654522 59.57794508431107,56.08962569315918 60.43888396816328,56.36692685523303 61.515057573560625,56.36692685523303 62.44774136412889,55.997191946196835 63.38042515516281,55.62745682778768 64.16961913229898,55.535023015225306 65.03055801615119,55.71989062731154 65.8914969000034,55.62745682778768 66.60894596995786,54.88798596156994 66.82418069103733,53.963646199554205 66.75243578385562,52.94687094760593 66.82418069103733,51.930094109789934 67.54162976099178,51.375487893703394 68.18733392376453,50.72844671149505 68.54605845920742,49.89653567696223 68.61780336638913,48.972188838000875 69.47874225024134,48.51001492701471 69.0482728080824,47.77053598780185 69.12001771526411,46.93862117867684 69.19176262198016,46.01427014567889 68.97652790090069,44.997482495731674 68.25907883094624,44.35043498373125 67.97209920315072,43.426080281322356 67.97209920315072,42.40928859455744 67.97209920315072,41.48493113985751 68.33082373766229,40.56057237449568 69.26350752916187,40.46813642565394 69.69397697085515,39.72864836466033 70.62666076188907,39.35890401987126 71.63108945963904,39.63621229818091 72.49202834395692,39.26646790077211 73.20947741391137,38.711850911495276 74.07041629822925,38.80428710911656 74.93135518208146,38.80428710911656 75.86403897311538,38.89672329329187 76.86846767086536,38.619414700660855 77.94464127579704,38.711850911495276 78.7338352529332,39.17403176840162 79.59477413631976,39.17403176840162 80.45571302063763,39.821084418159444 81.24490699730814,40.46813642565394 81.89061116054654,41.20762364764232 82.39282550942153,42.039545769861434 83.11027457937598,42.594159928383306 83.18201948655769,43.61095132661285 83.03852967265993,44.627741139091086 82.82329495158046,45.45965889695799 82.89503985829651,46.47644582611974 82.82329495158046,47.308361224946566 82.96678476547822,48.232710422948 83.61248892871663,48.972188838000875 84.40168290538713,49.43436242127791 85.40611160360277,49.43436242127791 86.48228520853445,49.71166641416494 87.41496899910271,49.619231762888376 88.41939769731835,49.619231762888376 89.28033658117056,49.71166641416494 89.99778565112501,50.26627404568717 90.5,50.91331568633905 90.5,51.930094109789934 89.56731620943174,51.745225423481315 88.5628875112161,52.02252843347378 87.70194862736389,52.20739704085281 86.76926483632997,52.39226559607778 85.76483613811433,52.484699854045175 84.76040744036436,52.577134099032264 83.75597874261439,52.577134099032264 82.89503985829651,52.76200254954165 82.0341009744443,52.66956833098084 81.24490699730814,52.29983132518828 80.31222320673987,51.930094109789934 79.451284322422,52.11496274365345 78.80558015964925,52.76200254954165 78.37511071749032,53.77877808990888 78.01638618251309,54.610684170678724 77.29893711255863,55.16528763488168 76.43799822870642,55.62745682778768 75.5770593448542,55.81232441338943 75.00310008879751,56.55179423087975 74.50088573945686,57.3836967733223 73.63994685607031,57.75343089585658 74.1421612049453,58.49289851175854 73.85518157668412,59.41723185265437 73.13773250672966,60.156697581580374 73.35296722780913,61.08102856314508 73.35296722780913,62.00535823457176 73.42471213499084,63.02211935893865 73.5682019488886,63.946446278481744 74.07041629822925,64.77833938517142 74.64437555382028,65.61023143067723 75.00310008879751,66.44212241459172 75.00310008879751,67.36644448508741 75.5053144376725,68.19833322847262 75.86403897311538,68.93778899766039 76.00752878654748,69.8621075299452 76.36625332152471,70.87885640194872 76.65323294978589,71.80317218275741 76.79672276368365,72.81991802784614 77.01195748476312,73.83666228700895 77.08370239194483,74.76097387436312 77.29893711255863,75.77771510690218 77.01195748476312,76.60959311772604 76.58148804260418,77.4414700671332 75.93578387983143,78.36577654402936 75.29007971659303,78.92035980097717 74.71612046100199,79.7522338021081 73.99867139104754,80.49167646782007 73.13773250672966,81.04625791666331 72.27679362287745,81.41597862023627 71.70283436682075,82.24784943717532 70.9853852968663,82.98728927248158 70.26793622691184,83.35700887569692 69.40699734305963,83.81915808469057 68.4743135520257,84.37373670301167 67.54162976099178,84.83588519162731 66.53720106324181,85.20560374646448 65.67626217892393,85.66775164514547 64.81532329553738,86.12989921640838 63.95438441121951,86.22232869110303 63.093445527367294,86.22232869110303 62.08901682915166,86.12989921640838 61.08458813140169,86.31475815310841 60.151904340367764,86.40718760190066 59.29096545651555,86.68447586923139 58.358281665015966,86.96176401898265 57.49734278162941,87.4239106727764 56.56465899059549,87.70119850808987 55.775465013459325,88.34820299816784 54.91452612960711,88.62549044005573 53.83835252467543,88.71791956125526 52.83392382692546,88.81034866935806 51.97298494260758,88.81034866935806 50.8968113376759,88.71791956125526 50.68157661659643,89.73463902901858 50.75332152377814,90.75135691161267 50.68157661659643,91.5832158178091 50.96855624439195,92.599930817727 51.25553587265313,93.33935891254805 51.25553587265313,94.44849948264891 51.11204605875537,95.28035367210396 50.8968113376759,96.20463486004155 51.04030115157366,97.1289147377829 50.82506643049419,98.05319330532802 51.04030115157366,98.88504289591219 51.11204605875537,99.80931897374103 51.399025686550885,100.64116632385412 52.2599645704031,100.91844853787916 53.120903454720974,100.54873889277223 54.053587245289236,100.45631144882645 54.98627103678882,100.2714565214701 55.990699734538794,100.17902903823415 56.85163861839101,99.99417403247207 57.64083259552717,99.71689142502146 58.645261293277144,99.71689142502146 59.57794508431107,99.71689142502146 60.51062887534499,99.71689142502146 61.443312666378915,99.80931897374103 60.79760850360617,100.54873889277223 59.93666961975396,100.64116632385412 59.14747564261779,100.64116632385412 58.28653675829992,100.82602114637848 57.282108060549945,100.82602114637848 56.34942426951602,100.91844853787916 55.4167404784821,100.91844853787916 54.555801594629884,100.91844853787916 53.62311780359596,101.01087591663236 52.76217891974375,101.19573063432472 51.90124003589153,101.10330328182317 51.04030115157366,100.82602114637848 50.107617360539734,100.82602114637848 49.24667847668752,101.01087591663236 48.3139946856536,101.28815797367133 47.38131089461967,101.38058529939735 46.52037201076746,101.10330328182317 45.5876882201992,100.82602114637848 44.79849424306303,100.73359374183929 43.72232063813135,100.73359374183929 42.78963684709743,100.64116632385412 43.43534100987017,99.99417403247207 44.368024800904095,100.17902903823415 45.30070859193802,100.17902903823415 46.16164747579023,100.08660154190147 47.237821080721915,99.99417403247207 48.02701505785808,99.80931897374103 48.88795394171029,99.53203628800111 49.74889282556251,99.34718109859386 50.53808680269867,99.34718109859386 51.25553587265313,98.79261521581793 51.18379096593708,97.77590987249278 50.8968113376759,97.03648680902552 50.82506643049419,96.01977872737916 51.04030115157366,95.18792548129568 50.8968113376759,94.26364285201998 50.60983170988038,93.15450196748134 50.251107174903154,92.23021645547124 50.179362267721444,91.30592963361414 50.32285208115354,90.28921261598589 50.46634189598262,89.45735205872916 50.53808680269867,88.62549044005573 50.251107174903154,87.70119850808987 49.5336581049487,87.23905205057235 48.672719221096486,87.23905205057235 47.88352524396032,87.23905205057235 46.9508414529264,87.14662271988345 46.018157661892474,86.96176401898265 45.08547387085855,86.68447586923139 44.22453498700634,86.49961703742156 43.220106289256364,86.59204645978753 42.28742249775678,86.49961703742156 41.426483613904566,86.31475815310841 40.4937998233363,86.31475815310841 39.48937112512067,86.22232869110303 38.556687334086746,85.94504022708861 37.69574845023453,85.94504022708861 36.83480956638232,86.22232869110303 35.902125775348395,86.31475815310841 35.04118689149618,86.49961703742156 34.03675819328055,86.31475815310841 33.175819309428334,86.22232869110303 32.24313551839441,86.31475815310841 31.31045172782615,85.85261071298737 30.521257750689983,85.2980333523592 29.80380868073553,84.65102583542466 29.014614703599364,84.37373670301167 28.2254207264632,83.91158788703615 27.292736935429275,83.72672826889902 26.360053144861013,83.44943874352612 25.499114260543138,83.54186859854963 24.638175376690924,83.35700887569692 23.63374667847529,83.1721491003409 22.844552701804787,83.07971919275587 22.055358724668622,82.52513947361149 21.840124004054815,81.69326901051681 21.840124004054815,80.76896725094412 20.97918511973694,79.93709454714553 21.05093002691865,79.10522078187205 21.696634189691395,78.27334595524007 22.41408325964585,77.81119281519204 23.131532330065966,77.25660861458164 23.63374667847529,76.42473142914241 23.77723649283871,75.50042220077012 23.56200177129358,74.57611166167771 23.705491585657,73.55936855537584 23.77723649283871,72.45019244932337 23.418511957861483,71.71074066351866 22.772807794623077,70.9712880392326 22.48582816682756,70.04697107948596 22.988042515702546,69.12265280890279 23.418511957861483,68.4756292400998 23.418511957861483,67.55130874214228 22.629317980725318,66.90428361383965 22.055358724668622,66.25725784344831 21.768379096873105,65.332934200007 20.83569530583918,65.1480693143676 19.903011514805257,65.51779903355055 19.113817537669092,65.8875285431277 18.18113374710083,66.25725784344831 17.391939769964665,65.79509618552402 16.45925597893074,65.42536662338534 15.598317095078528,65.42536662338534 14.593888397328556,65.42536662338534 13.73294951301068,65.61023143067723 13.015500443056226,65.9799608879839 11.939326838124543,66.25725784344831 11.150132860988379,66.53455468051834 10.432683791499585,67.08914800157072 9.57174490718171,67.64374085090822" stroke="#4DD2FF" stroke-linecap="round" stroke-linejoin="round" stroke-width="0.5"><title>2024-03-02 3.67km</title><desc>383812172</desc></polyline></svg>