<?xml version="1.0" encoding="utf-8" ?>
<svg baseProfile="full" height="130mm" version="1.1" viewBox="0,0,100,130" width="100mm" xmlns="http://www.w3.org/2000/svg" xmlns:ev="http://www.w3.org/2001/xml-events" xmlns:xlink="http://www.w3.org/1999/xlink"><defs /><rect fill="#222222" height="130" width="100" x="0" y="0" /><text fill="#FFFFFF" style="font-size:6px; font-family:Arial; font-weight:bold;color:#0ed45e;" x="5" y="10">MY TRACKS</text><text fill="#FFFFFF" style="font-size:4px; font-family:Arial" x="5" y="121">Runner</text><text fill="#FFFFFF" style="font-size:6px; font-family:Arial" x="2" y="128">蓝皮书</text><text fill="#FFFFFF" style="font-size:4px; font-family:Arial" x="25" y="121">WORKOUTS INFO</text><text fill="#FFFFFF" style="font-size:3px; font-family:Arial" x="25" y="125">Type: Run</text><text fill="#FFFFFF" style="font-size:3px; font-family:Arial" x="22" y="129">Date: 2024-03-03</text><text fill="#FFFFFF" style="font-size:3px; font-family:Arial" x="47" y="125">Distance: 5.73 km</text><text fill="#FFFFFF" style="font-size:3px; font-family:Arial" x="47" y="129">Duration: 38:58min</text><text fill="#FFFFFF" style="font-size:3px; font-family:Arial" x="75" y="125">Pace: 6:47/km</text><text fill="#FFFFFF" style="font-size:3px; font-family:Arial" x="75" y="129">Elevation: 0m</text><polyline fill="none" points="21.333593749674037,66.33193078095792 22.852343749720603,65.59817735262914 24.37109374976717,65.02747959422413 25.95312499976717,64.9459512969479 26.016406249720603,66.33193078095792 24.56093749962747,67.3102672289242 24.181249999674037,68.85929653455969 25.257031249580905,70.24526658683317 25.5101562498603,71.95734262751648 26.206249999813735,73.01719667011639 27.471874999813735,74.07704875920899 28.48437499953434,75.38147941837087 29.560156249674037,77.01201358134858 30.129687499720603,78.72406947705895 30.319531250046566,80.43612027558265 31.64843749976717,81.00680274242768 33.23046874976717,81.08832876296947 34.93906249967404,81.41443272912875 36.647656249813735,82.06664010707755 38.10312499967404,82.88189828919712 39.811718749813735,83.28952694678446 41.393749999813735,83.53410400293069 43.0390625,83.69715531572001 44.62109374976717,83.37105264386628 46.456249999580905,83.45257832895732 48.10156249976717,83.69715531572001 49.620312500046566,83.94173219811637 51.202343749813735,84.18630897678668 53.100781249813735,84.18630897678668 54.80937499948777,84.26783454656834 55.88515624962747,85.24614048172953 56.01171875,86.95817186421482 56.32812499976717,88.50714824692113 56.3914062497206,90.05612045765156 56.7078124997206,91.76813752081944 56.64453124976717,93.39862522378098 56.45468749967404,95.11063233681489 56.2015624998603,96.74111056339461 57.846874999813735,96.49653912399663 59.239062499953434,95.5997762902407 60.88437499990687,94.94758425967302 62.4031249997206,94.86606020398904 63.92187499976717,94.62148796743713 65.31406249967404,95.43672835169127 64.17499999981374,96.4150152875809 62.719531249953434,96.65958676172886 61.137499999953434,96.98568189860089 59.68203124962747,97.14872939750785 57.91015624976717,97.31177685037255 56.0749999997206,97.31177685037255 54.4296875,97.47482425696217 52.7210937498603,97.71939528035 51.07578124967404,97.96396619972074 49.49374999990687,97.88244257128099 47.8484374997206,97.71939528035 46.0765624998603,97.6378716173931 46.70937499962747,96.1704437097651 48.1648437497206,95.84434811060783 49.8734374998603,95.51825232652482 51.328906249953434,94.94758425967302 52.84765624953434,94.45843975176103 54.30312499962747,94.21386734157568 55.88515624962747,94.3769156265189 56.3914062497206,92.7464306972106 56.01171875,91.03441654634662 55.37890624953434,89.40392214030726 55.18906249967404,87.85494817310246 55.18906249967404,86.14291946060257 55.2523437498603,84.51241118623875 57.0242187497206,84.18630897678668 58.7328124998603,84.34936010465026 60.504687499953434,84.59393670986174 62.14999999990687,84.1047833955381 63.79531250009313,83.94173219811637 65.3773437498603,83.20800123846857 67.02265624981374,83.12647551862756 68.47812499967404,82.31121768301819 69.93359374976717,81.90358833200298 71.32578124990687,81.16985477186972 72.5281249997206,80.19154190196423 73.41406249953434,78.72406947705895 73.9203124998603,77.17506674339529 74.93281249981374,75.78911339247134 75.62890624976717,74.32162973337108 76.07187499967404,72.77261514135171 75.75546874990687,71.14206895808456 75.1859374998603,69.75610106717795 74.48984374967404,68.37012983602472 74.4265624997206,66.65804311505053 74.046875,65.10900788014987 74.11015624948777,63.4784399670898 74.5531249998603,61.929396167281084 74.80624999967404,60.3803481948562 75.5656249995809,59.07588350737933 76.0085937497206,57.689886535168625 77.33749999967404,57.03765150974505 78.8562499997206,56.22235668794019 79.80546874995343,54.67329334159149 80.8812499998603,53.36881570814876 82.1468749998603,52.14586523914477 83.22265624976717,51.4120937094558 84.99453124962747,51.90127483336255 86.4499999997206,52.798105813039 87.84218749962747,53.287285757949576 89.2976562497206,53.12422582239378 90.5,52.471985618642066 89.04453124967404,51.90127483336255 87.2093749998603,51.90127483336255 85.6906249995809,51.65668432350503 84.171875,51.24903324252227 84.10859374981374,49.61842602811521 83.7921874995809,48.069344891933724 83.53906249976717,46.35719772835728 82.96953124995343,44.808107806311455 82.46328124962747,43.09595093235839 80.69140624976717,42.52523084136192 78.9828124998603,42.199104820901994 77.52734374976717,42.117573286930565 76.0085937497206,42.688293782412075 74.48984374967404,43.177482327853795 72.84453124948777,43.58513913088245 71.83203124976717,44.889638958789874 71.5789062497206,46.275666783738416 72.08515625004657,47.82475275208708 72.78124999976717,49.21077350212727 72.71796874981374,50.84138187224744 72.2117187497206,52.390455541200936 71.13593749981374,53.776465286442544 70.31328124995343,55.24400137568591 69.74374999990687,56.71153371990658 68.9210937495809,58.26059157541022 67.21249999967404,58.01600377022987 65.3773437498603,58.42365005414467 63.668749999953434,58.50517927628243 62.14999999990687,57.9344744788832 60.378125000046566,57.608357197314035 58.85937499976717,57.28223973081913 57.27734375,56.95612207945669 55.7585937497206,56.87459263781784 54.049999999813735,57.03765150974505 52.467968749813735,56.87459263781784 50.885937499580905,56.630004243401345 49.4304687497206,56.71153371990658 47.59531249967404,56.630004243401345 45.88671874976717,56.630004243401345 44.30468749976717,57.20071033545537 42.84921874990687,57.608357197314035 41.26718749967404,57.608357197314035 39.7484374998603,58.097533050284255 38.229687499580905,58.58670848677866 36.52109374990687,58.99435436609201 34.93906249967404,59.32047086179955 33.4203124998603,59.72811622073641 31.774999999674037,60.2172902704915 30.06640624976717,60.78799280239036 28.547656249720603,61.44022357405629 26.965624999953434,61.766338682500646 25.5101562498603,62.337039677018765 23.991406249580905,62.98926869145362 22.409374999813735,63.4784399670898 20.76406249962747,64.1306676872191 19.4351562501397,64.9459512969479 18.296093749813735,65.92429010302294 16.903906249674037,66.73957116983365 15.321874999674037,67.47332314180676 13.866406249813735,68.20707417750964 12.537499999860302,69.10387972771423 11.208593749674037,70.24526658683317 9.689843749860302,70.8974866316421 9.942968749674037,72.20192450308241 11.335156249813735,71.71276064810809 12.853906249860302,70.97901408543112 14.246093749534339,70.0006838790141 15.701562499627471,69.18540743557969 17.09374999976717,68.53318544843933 18.422656249720603,67.63637900847243 19.62499999953434,66.57651504891692 20.89062499976717,65.51664913597051 22.535937499953434,65.10900788014987 24.05468749976717,64.61983799171867 25.699999999953434,64.86442298808834 27.471874999813735,65.10900788014987 29.053906249580905,64.45678126963321 30.446093749720603,65.10900788014987 31.395312499720603,66.49498697114177 32.028124999953434,68.12554633099353 31.33203125,69.59304580179742 31.64843749976717,70.97901408543112 31.901562499813735,72.44650627457304 31.901562499813735,74.32162973337108 31.8382812498603,75.62605983758112 30.8890624998603,76.84896037302678 30.192968749906868,78.31643758312566 30.446093749720603,79.86543724237708 31.8382812498603,80.35459416272352 33.54687499953434,80.84375066682696 35.25546874990687,81.41443272912875 36.20468749967404,80.59917246678378 35.76171874976717,79.13170108158374 36.07812499976717,77.41964639967773 36.7742187497206,76.03369363839738 37.47031249967404,74.64773753663758 35.9515624998603,74.81079136900371 34.36953124962747,74.97384515526937 32.6609374997206,74.81079136900371 31.20546874962747,75.54453304270282 30.509374999674037,77.01201358134858 29.876562499674037,78.39796398516046 30.319531250046566,79.94696342456155 29.11718749976717,80.76222461182624 27.53515625,81.57748464291217 26.14296874962747,82.47426934255054 25.193750000093132,83.77868095465237 24.181249999674037,85.083089608117 23.042187499813735,86.38749530311907 21.586718749953434,86.79512147587957 19.94140624976717,86.14291946060257 18.422656249720603,85.57224209036212 16.9671874998603,84.59393670986174 16.271093749674037,83.04494978697039 15.701562499627471,81.57748464291217 15.638281249674037,80.11001575452974 16.46093749976717,78.56101675401442 17.220312499906868,77.01201358134858 17.853124999674037,75.54453304270282 19.245312500046566,74.56621060322504 20.89062499976717,74.48468365805456 22.47265624976717,75.13689889514353 23.92812499962747,75.78911339247134 25.193750000093132,76.68590711854631 26.14296874962747,78.15338474477176 27.0921874998603,79.53933239774778 27.345312499674037,81.25138076907024 26.965624999953434,82.71884674532339 26.26953124976717,84.18630897678668 25.067187499720603,85.16461505083134 23.73828125,86.38749530311907 22.78906249976717,87.69189803919289 20.57421874976717,86.46902056067483 19.118749999674037,85.81681817566277 17.41015624976717,85.40919130924158 15.764843749813735,85.083089608117 14.119531249860302,85.16461505083134 12.980468749534339,84.75698772224132 12.980468749534339,84.67546222184319 14.499218749813735,84.02325780253159 16.081249999813735,84.26783454656834 17.853124999674037,84.59393670986174 19.4351562501397,85.16461505083134 20.76406249962747,86.06139415677171 22.409374999813735,85.73529282544041 23.991406249580905,85.32766590139363" stroke="#4DD2FF" stroke-linecap="round" stroke-linejoin="round" stroke-width="0.5"><title>2024-03-03 5.73km</title><desc>383846769</desc></polyline></svg>