<?xml version="1.0" encoding="utf-8" ?>
<svg baseProfile="full" height="130mm" version="1.1" viewBox="0,0,100,130" width="100mm" xmlns="http://www.w3.org/2000/svg" xmlns:ev="http://www.w3.org/2001/xml-events" xmlns:xlink="http://www.w3.org/1999/xlink"><defs /><rect fill="#222222" height="130" width="100" x="0" y="0" /><text fill="#FFFFFF" style="font-size:6px; font-family:Arial; font-weight:bold;color:#0ed45e;" x="5" y="10">MY TRACKS</text><text fill="#FFFFFF" style="font-size:4px; font-family:Arial" x="5" y="121">Runner</text><text fill="#FFFFFF" style="font-size:6px; font-family:Arial" x="2" y="128">蓝皮书</text><text fill="#FFFFFF" style="font-size:4px; font-family:Arial" x="25" y="121">WORKOUTS INFO</text><text fill="#FFFFFF" style="font-size:3px; font-family:Arial" x="25" y="125">Type: Run</text><text fill="#FFFFFF" style="font-size:3px; font-family:Arial" x="22" y="129">Date: 2024-01-27</text><text fill="#FFFFFF" style="font-size:3px; font-family:Arial" x="47" y="125">Distance: 5.22 km</text><text fill="#FFFFFF" style="font-size:3px; font-family:Arial" x="47" y="129">Duration: 37:52min</text><text fill="#FFFFFF" style="font-size:3px; font-family:Arial" x="75" y="125">Pace: 7:15/km</text><text fill="#FFFFFF" style="font-size:3px; font-family:Arial" x="75" y="129">Elevation: 0m</text><polyline fill="none" points="78.70807926822454,87.4984682793147 78.58460365864448,85.90775150060654 78.52286585350521,84.07842162961606 78.76981707336381,82.48769515438471 78.70807926822454,80.8174275017227 78.83155487780459,79.14715487678768 79.20198170724325,77.63595155038638 80.12804878060706,76.3633561184979 81.30106707336381,75.48844508483307 82.84451219532639,74.61353268643143 84.07926829275675,73.65908124152338 85.2522865855135,72.38647678931011 86.11661585373804,70.87525525287492 86.73399390256964,70.79571716458304 87.41310975607485,72.14786313322838 88.89481707313098,72.70462817302905 90.5,72.78416599065531 88.95655487803742,72.62509034393588 87.47484756098129,72.14786313322838 86.79573170724325,70.87525525287492 86.48704268294387,69.36402964609442 87.10442073177546,67.77326145174447 87.47484756098129,66.10294999316102 87.47484756098129,64.5121725522913 87.28963414649479,62.84185138542671 86.79573170724325,61.3306041394826 85.99314024415798,59.81935282261111 85.19054878037423,58.54671697760932 83.9557926831767,57.433158245054074 82.78277439018711,56.39913744275691 81.42454268294387,55.524195275094826 79.94283536588773,54.80833248718409 78.4611280488316,54.01292831770843 77.04115853691474,53.535685274749994 75.37423780490644,53.05844182585133 73.95426829275675,52.58119797107065 72.41082317079417,52.183494448661804 70.92911585350521,51.785790644120425 69.57088414626196,51.46762739750557 68.02743902453221,51.14946397067979 66.60746951238252,51.06992308580084 65.06402439018711,50.831300363177434 63.458841463318095,50.67221849207999 61.91539634158835,50.67221849207999 60.43368902429938,50.67221849207999 58.95198170747608,50.75175943307113 57.40853658528067,50.75175943307113 55.865091463550925,50.91084128187504 54.32164634135552,51.22900484420825 52.77820121962577,51.46762739750557 51.17301829252392,51.70624984940514 49.81478658528067,52.183494448661804 48.271341463318095,52.50165728898719 46.78963414602913,52.89936058589956 45.307926829205826,53.297063601145055 43.76448170724325,53.85384734842228 42.282774390187114,54.33109012088971 40.73932926822454,54.410630543367006 39.13414634135552,54.410630543367006 37.59070121962577,54.33109012088971 35.98551829275675,54.33109012088971 34.44207317056134,54.25154968717834 32.8986280488316,54.01292831770843 31.416920731775463,53.535685274749994 29.99695121962577,52.89936058589956 28.453506097663194,52.50165728898719 26.97179878037423,52.42211659584427 25.36661585350521,52.660738641628996 24.070121951168403,53.61522580991732 22.773628048598766,54.649251743278 21.662347560748458,55.84235622140113 20.674542682943866,57.11499820096651 19.563262194860727,58.228557564958464 18.390243902336806,59.34211471915478 17.52591463411227,60.614748760010116 17.032012195093557,61.96691926539643 16.044207316823304,62.36461585276993 14.871189024299383,61.3306041394826 14.006859756074846,60.13751133310143 13.389481707010418,58.705796616035514 13.204268292756751,57.11499820096651 13.574695121729746,55.6037355287699 14.315548780374229,54.25154968717834 15.365091463318095,53.13798242888879 16.723323170794174,52.183494448661804 15.550304878037423,51.14946397067979 14.192073170561343,51.785790644120425 12.772103658411652,52.58119797107065 11.413871950935572,53.37660417018924 10.179115853505209,54.17200924188364 9.561737804906443,55.6037355287699 9.685213414486498,57.03545816196129 10.302591463550925,58.54671697760932 10.796493902336806,60.217050932347775 11.599085365887731,61.6487617927487 12.52515243878588,63.080468999396544 13.389481707010418,64.5121725522913 14.253810975467786,65.78479486593278 15.179878048598766,67.21649151819292 16.291158536681905,68.17095392307965 17.958079267991707,67.85279996867757 19.37804878037423,67.13695291103795 20.859756097663194,66.34156622033333 22.464939024299383,66.0234112283797 24.00838414626196,66.73925970657729 25.551829268224537,67.05741429270711 27.03353658528067,66.10294999316102 28.515243902336806,65.3871007031994 30.058689024299383,65.14848407014506 31.725609756074846,64.98940625827527 33.26905487780459,64.98940625827527 34.87423780467361,65.5461784019717 36.35594512196258,66.0234112283797 37.77591463411227,66.89833702222677 38.94893292686902,67.93233847408555 39.81326219509356,69.1254147044965 40.55411585373804,70.47756469843443 41.109756097663194,71.90924937545788 41.603658536681905,73.4204681267147 42.65320121939294,74.13630716712214 43.82621951214969,74.93168280727696 44.87576219486073,76.28381880820962 45.740091463085264,77.63595155038638 45.987042682943866,79.14715487678768 46.11051829252392,80.57881743123289 46.11051829252392,82.09001283103134 46.17225609743036,83.68074043362867 46.17225609743036,85.35099956253543 46.11051829252392,86.94171791977715 46.11051829252392,88.53243176685646 47.16006097570062,89.40732246061089 48.58003048761748,89.24825152714038 50.1852134144865,89.32778699946357 51.91387195093557,89.32778699946357 53.580792682943866,89.32778699946357 55.12423780490644,89.32778699946357 56.72942073177546,89.32778699946357 57.964176829205826,88.61196734127589 57.964176829205826,86.8621821089182 58.08765243878588,85.27146352623822 58.149390243925154,83.76027669548057 58.33460365864448,82.16954931837972 58.27286585350521,80.57881743123289 58.396341463318095,78.98808103409829 59.13719512172975,77.79502577637322 60.742378048598766,77.79502577637322 62.28582317056134,77.87456287257373 63.95274390256964,77.79502577637322 65.55792682920583,77.87456287257373 66.6692073168233,78.74947018543025 66.4839939023368,80.26067051256541 66.4839939023368,81.85140330169816 66.23704268294387,83.52166787633905 66.11356707289815,85.11239141982514 65.86661585373804,86.78264628705801 65.9900914633181,88.45289618172683 67.03963414626196,89.24825152714038 68.45960365864448,89.16871604317566 70.18826219509356,89.16871604317566 71.66996951214969,89.16871604317566 73.27515243901871,89.16871604317566 74.81859756098129,89.16871604317566 76.48551829275675,89.24825152714038 78.15243902429938,89.00964504177682 78.70807926822454,88.05521808640333 78.70807926822454,86.30543111794395 78.76981707336381,84.63517483044416 78.76981707336381,82.88537719612941 78.76981707336381,81.3741839385475 78.83155487780459,79.703912970901 78.76981707336381,78.11317409324693 77.78201219486073,76.92011697526323 76.05335365841165,76.84057974384632 74.38643292710185,76.92011697526323 72.71951219509356,76.68150524719385 71.05259146355093,76.68150524719385 69.4474085366819,76.60196798172547 67.90396341471933,76.52243070531404 66.29878048785031,76.60196798172547 64.69359756121412,76.68150524719385 62.96493902429938,76.68150524719385 61.23628048761748,76.60196798172547 59.69283536588773,76.68150524719385 58.08765243878588,76.68150524719385 56.48246951191686,76.7610425009625 54.87728658504784,76.84057974384632 53.21036585373804,76.7610425009625 51.66692073154263,76.84057974384632 49.99999999976717,76.44289341766853 48.518292683176696,75.80659470934188 46.913109756074846,75.09075780009152 45.24618902429938,74.77260776940966 43.76448170724325,74.05676954088267 45.36966463411227,74.29538238543319 46.97484756098129,74.21584478177829 47.2835365855135,72.70462817302905 47.53048780490644,71.19340749358525 48.518292683176696,69.92079744854709 49.629573170794174,68.72772290947614 51.11128048785031,67.93233847408555 51.975609756074846,66.42110494023655 51.66692073154263,64.98940625827527 50.6173780488316,63.79632123274496 49.32088414626196,63.0009298059158 48.20960365841165,61.72830117796548 47.6539634144865,60.29659052041825 48.33307926822454,58.864876209408976 48.45655487803742,57.433158245054074 47.09832317056134,56.558217690035235 45.5548780488316,56.16051698685624 44.814024390419945,54.88787284202408 43.39405487803742,54.49017095461022 41.850609756074846,54.72879212081898 40.30716463387944,54.96741318551358 38.88719512172975,54.649251743278 37.220274390187114,54.56971135461936 35.67682926822454,54.410630543367006 34.1951219511684,54.410630543367006 32.404725609580055,54.56971135461936 30.92301829275675,54.88787284202408 29.379573170561343,54.649251743278 28.021341463318095,53.933387838769704 26.477896341355518,54.25154968717834 25.490091463085264,55.36511473474093 25.36661585350521,56.95591811160557 26.29268292686902,58.228557564958464 27.71265243901871,58.78533641825197 29.132621950935572,58.308097435103264 29.935213414486498,57.11499820096651 29.74999999976717,55.6037355287699 28.63871951214969,54.410630543367006 27.03353658528067,54.25154968717834 25.737042682711035,55.206034148694016" stroke="#4DD2FF" stroke-linecap="round" stroke-linejoin="round" stroke-width="0.5"><title>2024-01-27 5.22km</title><desc>382812887</desc></polyline></svg>