<?xml version="1.0" encoding="utf-8" ?>
<svg baseProfile="full" height="130mm" version="1.1" viewBox="0,0,100,130" width="100mm" xmlns="http://www.w3.org/2000/svg" xmlns:ev="http://www.w3.org/2001/xml-events" xmlns:xlink="http://www.w3.org/1999/xlink"><defs /><rect fill="#222222" height="130" width="100" x="0" y="0" /><text fill="#FFFFFF" style="font-size:6px; font-family:Arial; font-weight:bold;color:#0ed45e;" x="5" y="10">弯鼻子大象</text><text fill="#FFFFFF" style="font-size:4px; font-family:Arial" x="5" y="121">Runner</text><text fill="#FFFFFF" style="font-size:6px; font-family:Arial" x="2" y="128">蓝皮书</text><text fill="#FFFFFF" style="font-size:4px; font-family:Arial" x="25" y="121">WORKOUTS INFO</text><text fill="#FFFFFF" style="font-size:3px; font-family:Arial" x="25" y="125">Type: Hike</text><text fill="#FFFFFF" style="font-size:3px; font-family:Arial" x="22" y="129">Date: 2024-11-03</text><text fill="#FFFFFF" style="font-size:3px; font-family:Arial" x="47" y="125">Distance: 4.30 km</text><text fill="#FFFFFF" style="font-size:3px; font-family:Arial" x="47" y="129">Duration: 48:20min</text><text fill="#FFFFFF" style="font-size:3px; font-family:Arial" x="75" y="125">Pace: 11:14/km</text><text fill="#FFFFFF" style="font-size:3px; font-family:Arial" x="75" y="129">Elevation: 0m</text><polyline fill="none" points="85.46373057016172,56.30266861303244 85.60362694319338,56.57302097964566 85.7435233166907,57.56431200716179 86.16321243532002,58.73583577392856 86.02331606228836,59.09630419086898 86.16321243532002,59.36665536928922 86.30310880881734,60.177708214963786 86.0932642489206,62.25039411894977 86.0932642489206,62.881210226449184 86.37305699521676,63.962607811787166 86.16321243532002,65.94516527286032 85.88341968948953,66.57597771397559 85.32383419736288,67.65736901346827 85.25388601073064,68.10794817854185 84.694300518604,68.82887417858001 84.5544041453395,69.2794525133213 84.06476683961228,69.91026164544746 83.92487046681345,70.27072372555267 83.36528497398831,70.72130103834206 83.29533678782173,70.99164727277821 82.87564766872674,71.26199339219602 82.1761658033356,72.07303106028121 80.84715025918558,72.88406769372523 80.28756476705894,73.42475820792606 80.07772020762786,73.96544826193713 78.88860103627667,74.5962527441443 78.60880829021335,74.95671216689516 78.11917098471895,75.13694180169841 78.11917098471895,75.22705660009524 77.48963730596006,75.76774512132397 77.13989637326449,76.30843318253756 76.93005181383342,77.11946441209875 76.72020725416951,77.5700368701946 76.72020725416951,78.29095213924302 76.44041450787336,79.0118665904156 76.30051813507453,80.63392111682333 76.16062176181003,80.99437711585779 76.23056994820945,81.5350607316359 75.95077720214613,82.52631283266237 76.09067357541062,83.24722248071339 76.09067357541062,84.59892586723436 76.16062176181003,84.95937961828895 76.30051813507453,85.13960641727317 76.30051813507453,85.6802865069476 76.16062176181003,85.95062637975207 76.37046632147394,86.49130577984033 76.37046632147394,87.30232401791727 76.58031088113785,87.66277623584028 76.51036269427277,88.38368005899247 76.51036269427277,89.01447023375658 76.23056994820945,89.46503426058916 75.88082901574671,89.7353725238354 74.97150259115733,89.7353725238354 74.34196891216561,89.19469588273205 72.59326424915344,88.47379297949374 71.47409326443449,88.38368005899247 70.84455958544277,87.93311526550679 69.23575129522942,87.66277623584028 68.74611398996785,87.48255015228642 67.69689119188115,87.7528892585542 66.99740932649001,88.47379297949374 66.50777202099562,88.65401878178818 65.66839378280565,88.47379297949374 64.89896373078227,88.74413166398881 64.40932642482221,88.5639058870147 63.5,88.92435738956556 63.08031088090502,88.83424453315092 62.800518134841695,88.29356712568551 63.0103626945056,86.13085289753508 62.940414507873356,85.86051310150651 63.36010362720117,84.68903932411922 63.36010362720117,84.4186989152222 63.5,84.05824485752964 63.430051813600585,83.69779059581924 63.569948186865076,83.24722248071339 63.5,82.79665404657135 63.36010362720117,82.43619906937238 63.430051813600585,81.44494682748336 63.290155440568924,80.54380708490498 63.430051813600585,80.27346491301432 63.36010362720117,79.46243770752335 63.430051813600585,78.74152376706479 63.22020725370385,77.84038019186119 63.22020725370385,77.47992240427993 63.15025906753726,76.84912078391062 62.940414507873356,76.57877704058774 62.4507772019133,76.3985478146933 61.47150259069167,76.3985478146933 60.91191709856503,76.12820387969259 58.88341968902387,76.48866243410157 53.84715025918558,76.30843318253756 53.00777202099562,76.75900621543406 52.79792746109888,78.92175232880982 51.958549222908914,81.80540236720117 51.8886010365095,82.70654032152379 51.958549222908914,83.24722248071339 51.5388601035811,84.32858542003669 51.8886010365095,84.59892586723436 51.74870466324501,84.77915276843123 51.8886010365095,85.04949302400928 51.8886010365095,86.31107936409535 52.44818652863614,87.03198472008808 52.37823834223673,87.7528892585542 52.5880829016678,88.02322824962903 52.79792746109888,89.28480868809856 52.727979274699464,90.00571067177225 52.65803108783439,90.2760487049236 52.16839378257282,90.45627399598015 51.67875647661276,90.3661613567383 50.4896373054944,89.825485252426 49.65025906730443,89.10458306461805 49.160621761810035,89.10458306461805 47.97150259069167,88.65401878178818 47.132124352268875,88.74413166398881 46.64248704700731,88.5639058870147 45.66321243532002,88.83424453315092 43.704663212178275,88.74413166398881 42.305699481628835,89.10458306461805 41.74611398950219,89.01447023375658 41.396373057039455,89.28480868809856 40.137305699288845,89.46503426058916 39.997409326490015,89.37492148083402 39.857512953691185,88.20345417986391 39.92746113985777,87.5726632005535 40.417098445585,86.40119257831248 40.34715025895275,86.13085289753508 40.48704663221724,85.77039981074631 40.48704663221724,84.86926619993756 40.55699481861666,84.4186989152222 40.48704663221724,83.8780177521403 40.69689119141549,83.15710881963605 40.48704663221724,81.98563006002223 40.55699481861666,80.90426313539501 40.48704663221724,80.09323673462495 40.48704663221724,79.7327802242362 40.69689119141549,79.64266606461024 40.69689119141549,79.55255189241143 40.48704663221724,78.74152376706479 40.20725388615392,78.65140946692554 39.92746113985777,78.11072339862585 39.857512953691185,77.11946441209875 39.71761658042669,76.48866243410157 38.80829015560448,74.776482481102 38.458549222908914,73.96544826193713 37.68911917088553,72.88406769372523 36.63989637326449,72.07303106028121 35.660621761810035,72.25326151278568 34.82124352338724,72.07303106028121 34.9611398964189,71.98291581484955 34.89119170978665,71.35210873949109 35.031088083051145,71.08176265854854 34.89119170978665,69.82014609349426 34.61139896372333,69.82014609349426 34.401554404059425,69.54979936085874 34.33160621766001,69.09922121767886 33.772020725300536,68.37829552427866 32.862694300478324,66.7562097250484 32.51295336778276,66.48586168920156 32.093264248687774,65.76493303204188 31.883419689256698,65.67481689230772 31.39378238329664,64.68353851302527 31.183937823632732,64.50330591452075 30.62435233150609,63.692258588038385 28.805699481861666,62.610860542801674 27.756476684007794,62.25039411894977 27.33678756467998,61.70969409972895 26.777202072320506,61.52946065820288 26.077720207395032,61.70969409972895 24.5388601035811,61.52946065820288 24.049222797853872,61.79981080169091 23.069948186632246,61.79981080169091 22.580310880672187,62.07016083050985 21.880829015513882,62.79109367809724 21.531088082818314,62.97132676222827 20.621761657763273,64.14284056355245 19.782383419573307,64.68353851302527 17.613989637000486,66.84632571128896 16.844559585442767,67.92771655099932 16.63471502577886,68.82887417858001 16.215025906451046,69.36956814205041 15.935233160387725,70.1806082247058 15.585492227924988,72.1631462930236 15.72538860118948,72.52360709541244 15.655440414324403,73.60498827713309 16.145077720284462,74.41602295578923 16.215025906451046,75.04682699072873 16.4948186527472,75.40728615800617 16.63471502577886,76.30843318253756 17.26424870453775,77.20957892917795 17.683937823865563,78.20083777542459 18.103626942960545,80.27346491301432 18.103626942960545,80.81414914189372 18.31347150239162,81.35483291087439 18.31347150239162,82.43619906937238 18.66321243508719,83.15710881963605 19.012953367782757,83.78790418023709 19.152849740814418,84.50881239766022 19.9222797928378,85.50005986174801 20.34196891169995,85.77039981074631 20.69170984439552,85.77039981074631 21.4611398964189,86.49130577984033 21.950777201680467,86.76164530753158 22.160621761577204,87.21221093140775 22.650259067304432,87.5726632005535 23.62953367875889,88.02322824962903 23.979274611454457,88.47379297949374 24.608808289980516,88.65401878178818 25.448186528403312,88.5639058870147 26.84715025895275,88.74413166398881 27.68652849760838,88.38368005899247 28.73575129522942,88.29356712568551 29.08549222815782,88.113341221062 28.87564766849391,87.48255015228642 28.73575129522942,87.66277623584028 28.945595854660496,88.113341221062 28.805699481861666,89.01447023375658 29.015544041292742,89.91559796826914 28.87564766849391,91.08706211409299 28.665803108597174,91.26728717569495 28.316062176134437,91.447512186307 27.82642487040721,91.26728717569495 27.616580310743302,91.71784960606601 26.217616580193862,91.71784960606601 25.93782383413054,91.89807448885404 23.559585492126644,91.26728717569495 23.069948186632246,91.53762467222987 22.790155440103263,91.447512186307 22.23056994797662,91.08706211409299 21.531088082818314,90.18593603983754 20.83160621742718,88.92435738956556 20.761658030794933,88.65401878178818 20.34196891169995,87.7528892585542 19.782383419573307,87.12209783220896 19.502590673742816,86.49130577984033 19.222797927213833,86.31107936409535 18.593264248454943,85.50005986174801 18.31347150239162,84.68903932411922 17.963730569928885,84.50881239766022 17.26424870453775,83.24722248071339 16.704663212411106,82.70654032152379 16.564766838913783,82.79665404657135 16.075129533652216,82.52631283266237 15.305699481861666,81.17460503900656 14.6062176162377,80.27346491301432 14.116580310510471,79.28220929898089 14.046632124111056,78.65140946692554 13.906735751312226,78.47118082881207 14.6062176162377,78.02060900913784 14.746113989269361,77.5700368701946 13.556994818383828,77.75026576418895 13.347150258952752,77.75026576418895 12.717616580426693,76.57877704058774 12.647668393561617,76.3985478146933 12.857512953225523,76.12820387969259 12.367875647731125,75.58751566510182 12.018134714802727,75.58751566510182 11.878238341771066,75.49740091816057 11.318652849644423,74.5061378562823 11.388601036276668,74.41602295578923 10.759067357284948,73.51487324869959 10.40932642458938,73.42475820792606 9.5,71.7125700021279 9.569948186632246,70.90153187402757 10.89896373054944,69.91026164544746 11.108808290213346,69.2794525133213 11.108808290213346,68.73875847348245 11.388601036276668,68.55852702452103 11.318652849644423,68.19806397339562 12.43782383389771,67.11667359358398 12.29792746109888,66.84632571128896 11.458549222676083,66.12539746297989 11.248704663012177,65.40446839685319 11.248704663012177,64.86377106053988 11.738341968972236,63.782375008566305 13.626943005016074,62.25039411894977 14.886010362533852,61.52946065820288 15.72538860118948,60.80852637940552 17.334196890937164,60.087591283314396 18.52331606228836,59.2765383226797 22.300518134841695,57.3840773900738 23.489637305494398,56.66313840984367 24.818652849644423,56.12243363825837 25.448186528403312,56.12243363825837 26.777202072320506,55.31137561792275 28.386010362533852,54.770669696328696 29.85492227994837,54.139845539815724 32.233160621719435,54.139845539815724 32.862694300478324,53.869492138328496 33.9119170983322,53.77937431220198 35.800518134608865,52.968313302262686 38.31865284964442,52.42760538775474 40.06735751288943,51.79677890590392 40.766839378280565,51.436306349467486 41.81606217636727,51.346188178576995 45.873056994983926,50.26476912922226 46.08290155418217,50.44500576512655 47.06217616586946,49.90429570397828 47.69170984462835,49.99441407958511 48.18134715035558,49.7240589146968 49.72020725393668,49.63394050078932 50.41968911909498,49.36358518258203 51.468911917181686,49.36358518258203 51.67875647661276,49.54382207442541 52.37823834223673,49.1833482402144 53.357512953458354,49.273466717859264 54.47668393794447,48.822874201636296 56.15544041455723,48.822874201636296 56.22538860118948,48.64263710565865 57.48445595847443,48.37228136602789 57.694300518138334,48.10192551120417 57.76424870477058,48.282162760500796 58.323834196897224,48.552518538432196 60.4222797928378,48.822874201636296 61.54145077732392,48.822874201636296 65.17875647684559,49.273466717859264 67.48704663221724,49.1833482402144 67.62694300548173,49.1833482402144 67.62694300548173,49.36358518258203 67.97668393794447,49.54382207442541 68.32642487064004,49.36358518258203 69.44559585512616,49.7240589146968 70.21502590668388,49.7240589146968 70.84455958544277,50.08453244244447 71.12435233197175,49.99441407958511 71.82383419713005,50.354887453548145 72.52331606252119,50.44500576512655 72.80310880858451,50.354887453548145 73.92227979307063,50.71536062343512 76.7901554403361,50.625242350040935 77.90932642528787,50.985715366492514 78.53886010404676,51.52642450755229 79.79792746156454,51.977015107579064 80.14766839379445,52.42760538775474 81.33678756491281,53.238667087454814 81.61658031097613,53.59913862176472 81.96632124343887,53.77937431220198 83.01554404152557,55.041022714809515 83.22538860118948,55.22125799616333 83.92487046681345,55.22125799616333 84.34455958544277,55.49161082302453 85.81347150285728,56.84337323147338 86.86269430094399,57.474194705078844 87.07253886037506,57.83466383739142 87.6321243525017,59.36665536928922 88.05181347182952,61.43934391788207 88.12176165846176,64.05272419407265 87.91191709856503,66.12539746297989 87.56217616610229,67.47713725786889 87.49222797970288,67.92771655099932 87.07253886037506,68.9189898710465 87.00259067397565,70.27072372555267 87.28238342003897,70.6311856014654 87.70207253936678,70.90153187402757 90.5,71.17187803174602 90.43005181383342,70.90153187402757 87.49222797970288,70.99164727277821 86.58290155488066,70.81141646241304 86.37305699521676,70.45095468900399 86.30310880881734,69.91026164544746 87.07253886037506,68.01783237123163 87.6321243525017,65.76493303204188 87.6321243525017,61.79981080169091 87.4222797928378,59.90735738124931 87.21243523340672,59.36665536928922 87.28238342003897,59.18642126326449 87.00259067397565,58.465484327171 86.51295336801559,57.74454657337628 86.0932642489206,57.83466383739142 85.95336787588894,58.1050155525445 86.23316062195227,58.825952897255775 86.37305699521676,59.90735738124931 86.44300518161617,59.81724041153211 86.30310880881734,59.72712342871819 86.02331606228836,59.36665536928922" stroke="#4DD2FF" stroke-linecap="round" stroke-linejoin="round" stroke-width="0.5"><title>2024-11-03 4.30km</title><desc>12810548066</desc></polyline></svg>