<?xml version="1.0" encoding="utf-8" ?>
<svg baseProfile="full" height="130mm" version="1.1" viewBox="0,0,100,130" width="100mm" xmlns="http://www.w3.org/2000/svg" xmlns:ev="http://www.w3.org/2001/xml-events" xmlns:xlink="http://www.w3.org/1999/xlink"><defs /><rect fill="#222222" height="130" width="100" x="0" y="0" /><text fill="#FFFFFF" style="font-size:6px; font-family:Arial; font-weight:bold;color:#0ed45e;" x="5" y="10">MY TRACKS</text><text fill="#FFFFFF" style="font-size:4px; font-family:Arial" x="5" y="121">Runner</text><text fill="#FFFFFF" style="font-size:6px; font-family:Arial" x="2" y="128">蓝皮书</text><text fill="#FFFFFF" style="font-size:4px; font-family:Arial" x="25" y="121">WORKOUTS INFO</text><text fill="#FFFFFF" style="font-size:3px; font-family:Arial" x="25" y="125">Type: Run</text><text fill="#FFFFFF" style="font-size:3px; font-family:Arial" x="22" y="129">Date: 2024-02-25</text><text fill="#FFFFFF" style="font-size:3px; font-family:Arial" x="47" y="125">Distance: 3.66 km</text><text fill="#FFFFFF" style="font-size:3px; font-family:Arial" x="47" y="129">Duration: 38:25min</text><text fill="#FFFFFF" style="font-size:3px; font-family:Arial" x="75" y="125">Pace: 10:29/km</text><text fill="#FFFFFF" style="font-size:3px; font-family:Arial" x="75" y="129">Elevation: 0m</text><polyline fill="none" points="74.41205533593893,64.12306256254669 75.21245059277862,63.60746836749604 74.17193675879389,63.40123058727477 73.13142292480916,63.50434948451584 72.25098814209923,62.9887548511615 71.77075098780915,62.060683589661494 72.09090909082443,61.13261114421766 72.09090909082443,60.10141814901726 71.93083003954962,59.07022369193146 72.5711462451145,58.24526707350742 72.89130434766412,57.317189759342 72.65118577051908,56.38911126105813 72.97134387353435,55.5641516019823 73.61166007863358,54.73919100651983 74.09189723292366,53.91422947589308 75.13241106690839,53.70798894728068 76.01284584961832,53.29550771362847 76.01284584961832,53.29550771362847 76.6531620551832,53.089267009694595 77.21343873534352,52.36742408393184 77.93379446631297,51.748701005999465 78.73418972315267,51.02685674990062 78.97430830029771,50.09877022501314 79.7747035571374,49.48004521703115 80.81521739112213,49.17068251565797 81.77569169923663,49.06756158609642 82.81620553368703,49.376924331416376 83.8567193672061,49.58316608815221 84.89723320119083,49.58316608815221 85.77766798436642,49.58316608815221 86.81818181788549,49.78940778656397 87.85869565233588,49.78940778656397 88.89920948585495,49.686286944837775 89.85968379443511,49.892528613854665 90.5,49.17068251565797 89.85968379443511,48.24259362241719 88.97924901172519,47.830109289323445 88.09881422901526,47.520745886315126 87.13833992090076,47.21138235175749 86.1778656123206,47.00513992225751 85.2173913042061,46.90201868559234 84.2569169960916,46.695776168315206 83.29644268751144,46.489533592539374 82.57608695607632,45.76768411655212 82.25592885352671,44.83959088107804 82.41600790480152,43.911496460903436 82.49604743067175,42.77715722814901 82.41600790480152,41.84906017623143 82.65612648194656,40.817839840543456 82.57608695607632,39.88974028843222 82.17588932765648,38.85851717507467 81.85573122510687,37.93041512276977 81.21541501954198,37.20855715213111 80.33498023683205,36.79606656136457 79.6146245058626,36.177330236823764 78.73418972315267,36.69294387707487 77.77371541457251,36.58982117869891 76.73320158105344,36.48669846501434 75.85276679787785,36.0742074646987 74.81225296435878,35.66171623097034 73.93181818164885,36.0742074646987 72.97134387353435,35.86796187754953 72.09090909082443,35.971084678545594 71.05039525637403,36.177330236823764 70.0098814223893,36.177330236823764 69.0494071142748,36.28045299422229 68.0889328061603,35.86796187754953 67.28853754885495,36.383575736836065 66.88833992090076,37.311679763079155 66.80830039503053,38.23978260491276 66.88833992090076,39.271006595983636 66.80830039503053,40.30222912464524 67.28853754885495,41.23032815020997 67.60869565187022,42.15842599165626 68.0889328061603,42.880279049510136 68.40909090917557,43.80837478581816 68.56916995998472,44.942712410062086 68.96936758887023,45.87080551421968 69.52964426856488,46.695776168315206 70.16996047412977,47.4176247229334 69.20948616601527,47.31450354476692 68.24901185790077,47.31450354476692 67.20849802345037,47.21138235175749 66.32806324074045,47.10826114413794 65.28754940675572,47.10826114413794 64.64723320165649,47.93323039461393 64.32707509864122,48.86131968302652 64.16699604736641,49.892528613854665 64.16699604736641,50.92373608314665 64.24703557277098,51.95494209008757 64.24703557277098,52.986146635434125 64.32707509864122,54.0173497183132 64.32707509864122,55.048551339423284 63.60671936767176,55.77039160422282 62.566205533687025,55.46103157859761 61.605731225106865,55.15167142107384 60.56521739112213,55.2547914882889 59.684782608412206,54.73919100651983 58.72430830029771,54.22359015973052 57.68379446584731,54.12046994629782 56.723320157732815,53.91422947589308 55.762845849618316,53.70798894728068 54.72233201563358,53.91422947589308 53.84189723292366,54.0173497183132 53.44169960450381,53.089267009694595 52.72134387306869,52.36742408393184 51.76086956495419,52.264303607458714 50.880434782709926,52.161183116433676 49.919960474129766,51.95494209008757 48.959486165549606,51.85182155540679 47.99901185743511,51.748701005999465 46.958498023450375,51.64558044192381 45.998023715335876,51.43933926947648 44.95750988135114,51.43933926947648 43.997035573236644,51.336218661570456 42.95652173925191,51.23309803882148 41.99604743067175,51.12997740163701 40.79545454541221,51.12997740163701 39.75494071142748,50.92373608314665 38.71442687744275,50.82061540230643 37.75395256886259,50.61437399615534 36.79347826028243,50.61437399615534 35.67292490089312,50.71749470656505 34.552371541038156,50.92373608314665 33.751976284664124,51.64558044192381 33.031620553229004,52.36742408393184 32.15118577051908,52.779905843373854 31.110671936534345,52.986146635434125 30.070158102549613,52.88302624685457 29.02964426809922,52.67678542522481 28.06916996045038,52.264303607458714 27.268774703145027,51.748701005999465 26.148221343755722,51.43933926947648 25.187747035641223,51.43933926947648 24.307312252931297,51.748701005999465 23.346837944351137,51.95494209008757 22.70652173878625,52.779905843373854 22.386363636236638,53.70798894728068 21.826086956541985,54.63607086642878 21.345849802251905,55.5641516019823 20.545454545412213,56.18287143390626 19.905138339847326,57.00783039157977 19.26482213428244,57.8327884132741 18.944664031732827,58.760865069460124 18.30434782570228,59.58582110295538 17.984189723152667,60.51389552257024 17.183794466312975,60.926372661895584 16.30335968360305,61.2357303633471 15.34288537548855,61.545087932783645 14.302371541503817,61.957564487704076 13.42193675879389,62.370040808513295 12.46146245021373,62.67939789569937 11.500988142099231,63.09187380713411 10.620553359389305,63.50434948451584 9.820158102549613,63.91682492860127 9.5,64.84489382134052 10.380434782244265,65.36048713937635 11.340909090824425,65.2573685052339 12.381422924809158,64.94801251438912 13.261857707519084,64.63865639222786 14.302371541503817,64.43241890409263 15.34288537548855,64.32930013816804 16.383399209473282,64.22618135757511 17.423913042992353,64.12306256254669 18.384387351572514,64.22618135757511 19.424901185091585,64.12306256254669 20.385375494137406,64.22618135757511 21.42588932812214,64.32930013816804 22.46640316210687,64.43241890409263 22.94664031593129,65.2573685052339 22.386363636236638,66.18543568759924 22.546442687511444,67.2166200572974 23.106719367671758,67.93844824616099 23.827075098641217,68.76339387061307 24.467391304206103,69.48522052448243 25.187747035641223,70.20704646164086 25.988142292480916,70.82575383828953 26.78853754932061,71.44446068810066 27.508893280290067,72.16628468118142 27.909090909175575,73.09434304828756 27.989130434580147,74.125517623208 27.82905138330534,75.15669073606841 27.188735177740455,75.98162817384582 26.30830039503053,76.60033063788433 25.427865612320602,77.115915622795 24.467391304206103,77.52838334772969 23.90711462451145,78.45643487328198 23.266798418946564,79.17825190775329 22.626482213381678,79.90006822609575 22.066205533687025,80.72500028432114 21.826086956541985,81.75616404146422 21.906126481946558,82.78732633637264 22.22628458449617,83.71537115215324 22.866600790526718,84.54029888322111 23.66699604736641,85.15899406734388 24.62747035594657,85.5714572314173 25.58794466406107,85.88080445094965 26.628458498045802,85.98392016149592 27.5889328061603,85.98392016149592 28.629446640145034,86.08703585719923 29.669960474595428,86.19015153846703 30.630434782709926,86.19015153846703 31.67094861669466,86.19015153846703 32.63142292480916,86.29326720524114 33.59189723338932,86.29326720524114 34.63241106690839,86.29326720524114 35.59288537548855,86.29326720524114 36.63339920947328,86.39638285752153 37.673913043458015,86.29326720524114 38.71442687744275,86.29326720524114 39.674901185557246,86.6026141178445 40.55533596826717,86.9119608986075 41.595849801786244,87.2213075478212 42.47628458496183,87.53065406554379 43.43675889307633,87.84000045189168 44.39723320119083,88.35557746980339 45.277667983900756,88.76803882070817 46.238142292480916,89.18049993843306 47.11857707472518,89.5929608217557 47.11857707472518,90.72722704533953 47.27865612599999,91.75837662286358 47.198616600595415,92.78952473844402 47.198616600595415,93.82067139266292 47.198616600595415,94.85181658458896 47.198616600595415,95.88296031521168 46.958498023450375,96.81098842294887 46.958498023450375,97.94524339068448 46.8784584980458,98.97638273617486 46.8784584980458,100.00752061966341 46.958498023450375,100.93554346519522 47.03853754932061,102.06979200156638 47.11857707472518,102.99781221622834 46.8784584980458,103.8227180793765 45.757905138190836,103.9258312463644 44.87747035548091,103.9258312463644 43.83695652196184,103.9258312463644 42.796442687511444,103.8227180793765 41.835968379396945,103.9258312463644 40.875494070816785,103.8227180793765 39.83498023683205,103.9258312463644 38.874505928717554,103.9258312463644 37.99407114600763,104.23517066024942 39.03458498045802,104.33828376908787 39.915019762702286,103.8227180793765 40.71541501954198,103.30715202452848 41.835968379396945,103.2040387695888 42.87648221338168,103.2040387695888 43.91699604736641,103.30715202452848 44.87747035548091,103.2040387695888 45.91798418946564,103.2040387695888 46.958498023450375,103.30715202452848 47.8389328061603,103.4102652646252 48.879446640145034,103.4102652646252 49.919960474129766,103.51337849011179 50.9604743081145,103.51337849011179 51.920948616229,103.51337849011179 52.88142292480916,103.4102652646252 53.84189723292366,103.30715202452848 54.88241106690839,103.30715202452848 54.16205533547327,103.9258312463644 53.041501976083964,103.8227180793765 52.16106719337404,103.6164917012793 51.120553359389305,103.71960489783669 50.080039525870234,103.71960489783669 49.0395256918855,103.71960489783669 47.91897233156487,103.71960489783669 47.03853754932061,103.2040387695888 47.03853754932061,102.27601881849114 47.11857707472518,101.24488415051019 47.198616600595415,100.2137480211095 47.11857707472518,99.28572425455786 47.11857707472518,98.25458534783684 47.03853754932061,97.22344497934682 47.11857707472518,96.19230314937886 46.958498023450375,95.16115985717624 46.8784584980458,94.1300151036121 46.718379446305335,93.09886888810433 46.718379446305335,92.067721210944 46.8784584980458,91.13968705170555 46.958498023450375,90.10853659710847 47.59881422901526,89.28361518116435 48.47924901172519,88.87115412211278 49.51976284570992,88.45869282959029 50.400197628419846,88.25246209528996 51.360671936068684,88.04623130278196 52.24110671924427,87.73688500456046 53.20158102782443,87.53065406554379 54.2420948613435,87.4275385744404 55.282608695328236,87.32442306826124 56.32312252977863,87.2213075478212 57.3636363632977,87.11819201288745 58.32411067187786,87.2213075478212 59.364624505862594,87.2213075478212 60.32509881397709,87.2213075478212 61.365612648427486,87.01507646293612 62.40612648194656,87.01507646293612 63.44664031639695,87.01507646293612 64.40711462451145,86.49949849495897 65.20750988088548,85.88080445094965 66.08794466406107,85.26210988045204 67.04841897217557,84.84964654117357 67.9288537548855,84.4371829679003 68.72924901125953,84.02471916074865 69.60968379443511,83.40602301160106 70.4100790512748,82.68421017244691 71.05039525637403,81.85928033659002 71.69071146240458,81.13746596267447 72.09090909082443,80.20941785769537 72.5711462451145,79.17825190775329 72.97134387353435,78.35331809573108 73.29150197608396,77.42526643851306 73.69169960496947,76.39409654162591 73.85177865577862,75.46604238456348 73.93181818164885,74.43486971029779 74.01185770751908,73.4036955742049 73.93181818164885,72.37251997622661 73.85177865577862,71.34134291613009 73.69169960496947,70.41328231210355 73.53162055276334,69.38210247497773 73.21146245067939,68.3509211751516 72.81126482179388,67.52597508305917 72.5711462451145,66.5979096108349 72.25098814209923,65.66984295460861 72.01086956495419,64.74177511414746 71.85079051367939,63.71058723580791 71.77075098780915,62.78251689526951 72.65118577051908,63.29811167536536 73.53162055276334,63.91682492860127 74.49209486180916,64.12306256254669 75.37252964405343,64.43241890409263 76.33300395216793,64.12306256254669 76.33300395216793,64.12306256254669" stroke="#4DD2FF" stroke-linecap="round" stroke-linejoin="round" stroke-width="0.5"><title>2024-02-25 3.66km</title><desc>383621301</desc></polyline></svg>