<?xml version="1.0" encoding="utf-8" ?>
<svg baseProfile="full" height="130mm" version="1.1" viewBox="0,0,100,130" width="100mm" xmlns="http://www.w3.org/2000/svg" xmlns:ev="http://www.w3.org/2001/xml-events" xmlns:xlink="http://www.w3.org/1999/xlink"><defs /><rect fill="#222222" height="130" width="100" x="0" y="0" /><text fill="#FFFFFF" style="font-size:6px; font-family:Arial; font-weight:bold;color:#0ed45e;" x="5" y="10">大象懒洋洋</text><text fill="#FFFFFF" style="font-size:4px; font-family:Arial" x="5" y="121">Runner</text><text fill="#FFFFFF" style="font-size:6px; font-family:Arial" x="2" y="128">蓝皮书</text><text fill="#FFFFFF" style="font-size:4px; font-family:Arial" x="25" y="121">WORKOUTS INFO</text><text fill="#FFFFFF" style="font-size:3px; font-family:Arial" x="25" y="125">Type: Run</text><text fill="#FFFFFF" style="font-size:3px; font-family:Arial" x="22" y="129">Date: 2024-12-15</text><text fill="#FFFFFF" style="font-size:3px; font-family:Arial" x="47" y="125">Distance: 6.13 km</text><text fill="#FFFFFF" style="font-size:3px; font-family:Arial" x="47" y="129">Duration: 41:30min</text><text fill="#FFFFFF" style="font-size:3px; font-family:Arial" x="75" y="125">Pace: 6:46/km</text><text fill="#FFFFFF" style="font-size:3px; font-family:Arial" x="75" y="129">Elevation: 0m</text><polyline fill="none" points="74.16691560856998,52.425852321553975 71.32374906656332,51.958230827585794 69.69044062728062,51.568545945570804 66.36333084385842,51.022986646567006 64.60903659462929,51.022986646567006 61.40291262138635,50.711238232499454 57.5313666916918,50.867112461302895 54.20425690803677,51.178860787302256 53.17587752034888,51.490608935884666 51.96601941739209,51.64648294408107 50.39320388366468,52.34791543363826 49.9697535475716,52.26997853448847 49.36482449574396,52.659662919468246 48.03398058260791,52.8155365959974 47.67102315160446,53.049347028078046 47.00560119492002,53.049347028078046 46.40067214309238,53.2831573606818 46.279686332913116,53.594904316123575 42.16616878262721,54.76395382464398 41.25877520535141,55.153636441449635 41.016803584760055,54.99776342778932 39.32300224038772,55.075699940091 33.2737117249053,54.841890370007604 31.640403286088258,54.45220753207104 29.16019417461939,53.51696759380866 28.010828976752236,53.205220594245475 27.40589992539026,53.2831573606818 26.982449589297175,53.439030860492494 26.861463779117912,53.67284102749545 26.861463779117912,54.29633431939874 26.80097087379545,54.5301441217307 26.014563106931746,55.075699940091 25.591112770605832,55.69919164117891 25.409634055104107,56.24474629951874 25.288648245157674,57.49172634223942 25.83308439119719,58.50489554431988 26.49850634811446,59.05044741806341 27.82935026125051,59.440126996603794 28.43427931307815,59.36219110293314 29.039208364440128,59.05044741806341 29.644137415802106,58.349023481074255 30.06758775189519,56.94617292151088 29.946601941948757,56.16680995281786 29.583644510945305,55.621255217061844 29.09970126952976,55.075699940091 28.555265123257414,54.686017268220894 27.40589992539026,54.45220753207104 26.377520537702367,54.841890370007604 25.591112770605832,55.77712805417832 25.288648245157674,56.40061895939289 25.22815533983521,57.41379017254803 25.651605675928295,58.27108743268764 26.256534727523103,58.97251146938652 27.284914114978164,59.440126996603794 28.010828976752236,59.440126996603794 28.555265123257414,59.206319282529876 29.40216579544358,58.58283155923709 29.70463032112457,58.11521530308528 29.946601941948757,57.49172634223942 30.06758775189519,56.86823667451972 29.946601941948757,56.24474629951874 29.76512322644703,55.77712805417832 29.40216579544358,55.30950941098854 29.039208364440128,54.91982690442819 28.010828976752236,54.5301441217307 27.345407020300627,54.37427093129372 27.1639283047989,54.218397696793545 27.40589992539026,53.984587761806324 27.224421210121363,53.439030860492494 27.042942494386807,53.36109411600046 26.49850634811446,53.51696759380866 26.740477968705818,53.67284102749545 26.679985063616186,53.594904316123575 26.558999253204092,53.82871441665338 25.53061986528337,53.906651094788685 25.47012696042657,54.06252441764809 24.925690814154223,54.37427093129372 24.260268857469782,54.5301441217307 23.352875279961154,55.23157293186523 22.989917849190533,55.465382336231414 21.356609410140663,57.17998159659328 20.751680358545855,58.037279221462086 20.086258401861414,58.894575509475544 19.118371919263154,59.36219110293314 18.150485436897725,60.375356857606675 16.517176997847855,61.62232753064018 15.36781179974787,62.32374729111325 15.125840179389343,62.167876310588326 14.823375653475523,61.38852074492024 13.794996266020462,59.67393461096799 13.43203883501701,58.19315137329977 13.371545929927379,57.49172634223942 13.674010455608368,56.24474629951874 14.581404032884166,54.99776342778932 15.004854368744418,54.140461062896065 16.819641523528844,52.893473417731 17.00112023903057,52.5817260647309 16.880134428618476,52.192041624337435 16.33569828234613,51.958230827585794 15.67027632589452,51.88029387325514 14.460418222472072,52.5817260647309 12.040702016558498,54.37427093129372 10.286407767096534,55.465382336231414 9.681478715268895,56.16680995281786 9.5,56.94617292151088 9.560492905089632,57.257917799579445 10.286407767096534,58.426959518226795 11.314787154784426,60.68709979089908 11.859223300823942,61.54439194657607 11.980209111236036,62.01200528605841 12.403659447329119,62.55755367927486 12.46415235241875,62.94723077135859 15.912247946253046,67.77920376736438 16.275205377023667,68.40268106025178 16.33569828234613,68.71441944176331 16.69865571311675,68.87028856592951 17.243091859621927,68.48061567218974 18.150485436897725,68.24681180343032 20.025765496771783,67.31159533368191 22.324495892506093,66.53224706021138 23.23188946978189,66.68811680335784 23.83681852114387,67.15572576754494 24.50224047806114,67.38953010033583 25.10716952965595,67.5453996002907 25.409634055104107,67.46746485569747 28.010828976752236,65.83083266939502 28.918222554260865,65.51909265294671 30.309559372719377,65.2852875245735 30.672516803489998,65.36322257842403 31.579910380998626,65.1294173837523 33.87864077673294,65.36322257842403 35.08849887968972,65.67496268328978 36.54032860370353,66.3763772729435 38.113144137430936,67.5453996002907 39.56497386097908,69.10409216972766 40.53286034357734,70.74071461107815 41.13778939517215,72.84493630490033 41.319268110673875,74.24774629290914 43.07356236013584,74.48154760961188 44.04144884226844,75.88435342139564 44.52539208345115,76.27402106713271 45.251306945458055,77.5988889966975 45.553771471371874,79.07961996324593 45.553771471371874,81.49554087291472 45.67475728178397,82.11900260997936 45.67475728178397,83.13212642457802 45.916728902142495,85.85975818434963 45.73525018664077,87.57426264934475 45.85623599705286,88.82117162918439 46.15870052296668,89.05496674816823 48.03398058260791,89.28876176750055 49.90926064224914,88.97703505307436 56.321508588502184,88.74323990085395 56.8054518296849,88.5873764109565 56.986930545186624,88.27564929844812 56.986930545186624,87.10667105286848 57.22890216601081,85.00250394677278 57.10791635536589,83.98938357876614 57.349887976190075,83.28799146128586 57.28939507086761,82.6645310499589 57.41038088127971,81.88520454132231 57.28939507086761,80.56034694152186 57.41038088127971,80.0148164134007 57.16840926068835,78.61202114151092 57.41038088127971,78.06648868019693 57.71284540719353,77.91062216326827 58.378267363645136,77.91062216326827 59.04368932032958,78.06648868019693 60.13256161333993,77.98855542729143 64.60903659462929,78.22235515300417 65.57692307699472,78.14442192198476 65.57692307699472,79.78101745003369 65.51643017167225,80.17068233381724 65.51643017167225,81.26174253906356 65.39544436126016,82.35280057881027 65.09297983557917,83.21005894849077 65.09297983557917,83.75558630580781 64.97199402539991,84.22318075265503 64.73002240457572,86.01562244747765 64.85100821475498,86.79494310088921 65.21396564575844,87.88599015964428 65.45593726658262,88.82117162918439 65.63741598208435,89.05496674816823 68.78304705000482,89.13289843220264 70.05339805805124,88.89910334663 72.23114264383912,89.21083010558505 76.2841672890354,89.28876176750055 77.19156086631119,89.13289843220264 77.49402539199218,88.89910334663 77.61501120217144,88.5873764109565 77.61501120217144,88.35358109348454 77.49402539199218,88.04185384820448 77.67550410749391,82.27486793359276 77.49402539199218,80.09274937928421 77.73599701281637,79.00168685399694 77.79648991767317,78.3782215815736 78.40141896950081,77.05335552996257 81.84951456310228,74.94914994447026 82.87789395079017,74.09187869314337 83.78528752806596,73.1566721671843 84.7531740104314,71.75385939498665 85.53958177752793,70.11723996989895 85.84204630320892,70.58484601706732 85.60007468238473,70.8186488916399 85.60007468238473,71.442122737295 85.90253920829855,72.06559587590164 86.32598954439163,72.37733218027279 86.56796116498299,73.00080425821943 86.74943988025188,73.07873821805697 87.23338312166743,72.76700231182622 88.14077669894323,73.00080425821943 89.53211351740174,73.07873821805697 90.25802837917581,73.23460610531038 90.5,73.00080425821943 90.25802837917581,72.61113429209217 89.95556385372765,72.5332002658979 89.22964899172075,72.68906830751803 86.1445108288899,72.37733218027279 85.90253920829855,72.14352996851085 85.66056758747436,70.97451741917757 85.90253920829855,69.72756795986788 86.02352501847781,69.49376462155487 86.50746825989336,67.77920376736438 86.56796116498299,66.68811680335784 86.74943988025188,66.3763772729435 86.56796116498299,65.90876764588756 86.38648244948126,64.66180669597816 86.26549663906917,63.80451940203784 86.26549663906917,63.18103689409327 86.02352501847781,61.93406975700054 85.84204630320892,61.62232753064018 85.17662434652448,60.06361374730477 84.20873786392622,58.73870355647523 83.96676624333486,58.27108743268764 83.48282300191931,57.725534785480704 80.94212098559365,55.77712805417832 79.55078416713513,54.99776342778932 79.06684092595242,54.5301441217307 78.09895444381982,54.06252441764809 77.43353248690255,53.906651094788685 76.88909634039737,53.51696759380866 75.55825242702849,52.893473417731 69.75093353237025,51.64648294408107 69.20649738609791,51.41267191519728 65.63741598208435,50.94504955946468 65.21396564575844,51.022986646567006 63.03622106043622,50.711238232499454 62.612770724343136,50.867112461302895 60.73749066446908,50.711238232499454 55.65608663181774,51.256797840760555 55.29312920104712,51.178860787302256 54.86967886472121,51.256797840760555 54.26474981335923,51.568545945570804 53.3573562358506,51.568545945570804 52.63144137407653,51.72441993141547 51.784540701890364,51.80235690786503 51.05862583988346,51.958230827585794 50.514189693843946,52.425852321553975 49.42531740106642,52.50378919870127 49.2438386855647,52.8155365959974 49.00186706474051,52.893473417731 48.57841672911309,52.893473417731 47.97348767728545,53.12728381657507 47.187079910421744,53.205220594245475 46.884615384740755,53.36109411600046 45.49327856628224,53.51696759380866 44.8883495144546,53.906651094788685 43.920463032322004,54.06252441764809 42.89208364463411,54.45220753207104 42.16616878262721,54.60808070044732 41.74271844653413,54.91982690442819 40.7748319641687,55.075699940091 41.682225541211665,55.23157293186523 42.4081404034514,54.99776342778932 42.58961911872029,54.841890370007604 43.79947722190991,55.153636441449635 44.16243465268053,55.69919164117891 44.22292755777016,56.32268263504375 44.1019417475909,56.712364146951586 44.22292755777016,56.94617292151088 44.52539208345115,57.10204538272228 44.948842419777066,57.10204538272228 46.945108289597556,57.569662501104176 47.73151605692692,58.19315137329977 47.97348767728545,58.50489554431988 47.97348767728545,58.81663953844691 47.30806572060101,59.51806287904037 46.945108289597556,60.06361374730477 46.82412247941829,61.232649499201216 46.884615384740755,61.46645635116147 48.09447348793037,62.94723077135859 50.0302464524284,64.42800120299216 50.99813293502666,65.44115762133151 50.99813293502666,66.76605165825458 50.57468259893358,67.70126905612415 49.788274832069874,68.32474643731257 48.880881254561245,68.79235400934704 47.30806572060101,70.42897737876046 46.76362957432866,71.3641885452671 46.46116504841484,72.61113429209217 46.521657953737304,73.4684078526916 46.7031366690062,74.09187869314337 46.15870052296668,74.40361384837888 45.19081404036842,74.63741509866668 44.76736370427534,75.41675188182853 44.70687079895288,75.88435342139564 44.585884988773614,75.9622869726154 44.70687079895288,75.65055270126322 45.0093353248667,75.49468549952144 46.40067214309238,75.41675188182853 47.550037341192365,75.57261910598027 48.45743091846816,75.49468549952144 49.06235997006297,75.9622869726154 50.211725167930126,76.42988804815104 51.24010455561802,76.50782152195461 53.780806571943685,76.27402106713271 56.56348020909354,76.35195456305519 57.349887976190075,76.50782152195461 62.31030619866215,76.35195456305519 66.96825989545323,76.66368843673263 67.27072442113422,76.81955530727282 69.20649738609791,76.66368843673263 69.93241224787198,76.81955530727282 76.04219566867687,76.58575498469872 77.91747572808526,76.58575498469872 78.82486930536106,76.35195456305519 79.79275578795932,75.88435342139564 81.12359970109537,74.94914994447026 82.63592232996598,73.70220950071234 84.08775205374695,72.06559587590164 85.11613144143485,70.2731086963322 85.84204630320892,69.415830153157 86.32598954439163,67.46746485569747 86.44697535480373,64.97354719869327 86.50746825989336,64.50593637838028 86.44697535480373,63.88245466601802 86.20500373397954,63.41484291758388 86.26549663906917,62.791359967784956 85.53958177752793,60.99884254770586 85.35810306225903,60.84297119133407 84.69268110510893,59.595998750359286 83.18035847647116,57.725534785480704 81.48655713209882,56.24474629951874 79.36930545163341,55.23157293186523 78.8853622104507,54.91982690442819 78.58289768500254,54.5301441217307 74.95332337566651,52.8155365959974" stroke="#4DD2FF" stroke-linecap="round" stroke-linejoin="round" stroke-width="0.5"><title>2024-12-15 6.13km</title><desc>13118197322</desc></polyline></svg>