<?xml version="1.0" encoding="utf-8" ?>
<svg baseProfile="full" height="130mm" version="1.1" viewBox="0,0,100,130" width="100mm" xmlns="http://www.w3.org/2000/svg" xmlns:ev="http://www.w3.org/2001/xml-events" xmlns:xlink="http://www.w3.org/1999/xlink"><defs /><rect fill="#FAF9F5" height="130" width="100" x="0" y="0" /><text fill="#5A5A5A" style="font-size:6px; font-family:Arial; font-weight:bold;color:#0ed45e;" x="5" y="10">14.63 大象冰淇淋</text><text fill="#5A5A5A" style="font-size:4px; font-family:Arial" x="5" y="121">Runner</text><text fill="#5A5A5A" style="font-size:6px; font-family:Arial" x="2" y="128">蓝皮书</text><text fill="#5A5A5A" style="font-size:4px; font-family:Arial" x="25" y="121">WORKOUTS INFO</text><text fill="#5A5A5A" style="font-size:3px; font-family:Arial" x="25" y="125">Type: Run</text><text fill="#5A5A5A" style="font-size:3px; font-family:Arial" x="22" y="129">Date: 2024-07-14</text><text fill="#5A5A5A" style="font-size:3px; font-family:Arial" x="47" y="125">Distance: 14.63 km</text><text fill="#5A5A5A" style="font-size:3px; font-family:Arial" x="47" y="129">Duration: 01:50:52</text><text fill="#5A5A5A" style="font-size:3px; font-family:Arial" x="75" y="125">Pace: 7:34/km</text><text fill="#5A5A5A" style="font-size:3px; font-family:Arial" x="75" y="129">Elevation: 0m</text><polyline fill="none" points="74.39187145559117,68.88586401597422 74.65217391302576,68.88586401597422 75.08090737235034,68.9450458164647 75.95368620031513,69.2606816606858 76.62741020787507,69.18177276680944 78.18922495271545,69.30013609092566 80.82287334592547,68.64913656227873 83.30340264650295,68.45186337648192 84.98771266534459,68.55050000433403 86.64139886572957,68.88586401597422 87.98884688090766,69.53686243706034 88.49413988657761,69.89195120119257 88.83100189029938,70.28649320956902 89.2750472589396,71.11502778589784 89.35160680522677,71.56874701089691 89.38223062374163,72.18027927777439 89.19848771265242,72.98907588991278 89.2750472589396,73.4822422486177 89.48941398860188,73.71896147997177 90.5,73.81759437415167 89.52003780711675,73.6400551143015 89.12192816624884,73.1468893148267 88.47882797726197,73.93595375496079 87.46824196592206,74.56720208543993 87.2232514177449,75.39571117344894 87.11606805282645,77.86148284330557 86.212665406405,77.8417568433506 85.93705103959655,77.74312680143339 85.60018903587479,77.8220308405289 85.30926275992533,77.72340078468551 84.92646502831485,77.80230483492778 84.26805293001235,77.70367476514366 84.34461247635772,75.13926841141074 83.88525519846007,74.98145724598726 82.92060491489246,74.92227801290574 82.10907372395741,75.06036285111622 81.94064272206742,77.8220308405289 81.57315689971438,77.88120884046657 81.32816635159543,77.7825788265618 80.93005671072751,77.86148284330557 80.5319470698596,77.76285281541641 80.19508506613784,77.86148284330557 79.41417769377586,77.74312680143339 79.3069943288574,77.68394874280784 79.19981096411357,77.23024945677025 79.23043478257023,75.04063645403949 78.63327032129746,74.17267221448128 78.15860113420058,74.03458649538516 78.06672967859777,73.40333574869146 77.80642722116318,72.89044240837393 77.02551984874299,72.16055247237091 76.09149338374846,71.78574263906921 75.57088846882107,71.74628891369503 74.33062381850323,72.73262869258178 73.91720226843609,72.71290196556947 73.44253308122279,72.8707157036988 73.12098298675846,72.77208213832637 72.78412098292029,72.37754717763164 71.94196597352857,72.57481479777198 71.71228733455064,72.51563454110874 71.52854442340322,72.29864005121635 70.19640831754077,70.12867654046568 70.15047258976847,69.59604396065697 70.45671077503357,69.20149999446585 71.2988657844835,68.6885911658319 71.7429111530655,68.31377198002883 71.81947069941089,68.33349933075078 71.77353497163858,68.51104536162165 72.07977315690368,68.66886386544502 72.0032136105583,68.82668219027983 71.32948960299836,69.16204553637363 71.00793950847583,69.67495261966542 71.13043478259351,70.4443096997129 71.51323251414578,71.09530082950369 71.81947069941089,71.33202412158425 71.89603024569806,70.91775809618412 72.30945179588161,70.60212601088278 72.93724007555284,69.99058680816961 73.51909262756817,69.2409544414113 74.08563327032607,68.86613674354157 74.43780718336347,68.76750033945427 74.65217391302576,69.14231830305653 75.08090737235034,69.30013609092566 75.21871455572546,69.69467977744353 75.09621928166598,70.0694952433987 74.89716446120292,70.20758489740547 74.66748582222499,70.24703905911883 74.34593572776066,70.14840363385156 74.13156899809837,69.79331552420626 74.16219281661324,69.41849931432807 74.59092627593782,69.0436820947507 74.60623818525346,68.80695490949438 74.83591682411497,68.82668219027983 74.16219281661324,68.86613674354157 73.44253308122279,69.31986330180371 72.34007561433828,70.46403674843896 71.9572778827278,70.68103409929608 71.68166351603577,71.17420863830193 71.57448015117552,71.17420863830193 71.17637051036581,70.60212601088278 71.05387523624813,70.01031392112782 71.16105860110838,69.57631678896723 71.54385633266065,68.96477307773603 71.9572778827278,68.6885911658319 72.11039697536035,68.6885911658319 72.11039697536035,68.60968194750603 71.92665406427113,68.57022732152836 71.7429111530655,68.39268136622559 71.71228733455064,68.21513518439315 71.45198487705784,68.55050000433403 70.4720226842328,69.00422759178036 70.05860113416566,69.41849931432807 69.85954631381901,69.359317715207 69.4614366729511,68.76750033945427 68.84896030242089,69.2409544414113 68.64990548201604,69.55658961442532 67.19527410209412,70.48376379434194 66.73591682419647,71.01639297604561 65.97032136103371,71.60820078669349 62.800756143638864,73.67950830271002 60.77958412101725,75.29707939783111 58.48279773152899,76.9146316897386 58.14593572774902,77.2894277083833 57.120037807151675,77.96011280134553 56.52287334587891,78.49271336647507 56.20132325135637,78.61106877082784 54.8538752362947,79.7354400913755 54.02703213610221,80.28775951797434 53.69017013226403,80.38638775631262 53.46049149334431,80.66254645180015 52.72551984869642,81.19513667415595 52.4499054820044,81.09650900897395 52.37334593565902,80.8598023273953 51.48525519843679,79.77489155168587 49.831568998110015,77.46696231226088 49.20378071832238,76.93435782112647 48.80567107745446,76.40175129148702 48.331001890357584,76.50038228406629 47.351039697474334,77.3288798621652 45.98827977309702,78.23627631175623 45.48298676748527,78.41380970765022 44.5336483931751,78.94640853644523 44.19678638945334,79.00558605823608 43.90586011344567,79.22257008959423 43.64555765589466,79.20284428251034 43.59962192812236,79.32119908282766 43.27807183365803,79.40010222719866 43.0024574669078,79.22257008959423 42.77277882792987,79.24229589379684 42.11436672968557,78.78860168856045 41.88468809070764,78.51243927415635 41.41001890361076,78.2165503649303 41.41001890361076,78.1179205886292 40.95066162571311,77.76285281541641 40.15444234397728,77.3288798621652 39.725708884652704,77.58531858903007 39.52665406430606,77.48668836535944 38.944801512290724,77.60504462535027 38.715122873312794,77.54586650796409 37.91890359169338,77.74312680143339 37.68922495277366,77.88120884046657 37.01550094515551,77.90093483492092 34.96370510396082,78.27572819708439 33.92249527410604,78.3546319342131 32.100378071831074,78.94640853644523 31.426654064212926,78.9266826902167 29.573913043481298,79.18311847267614 28.456143667222932,79.16339266001887 27.29243856330868,78.94640853644523 25.332514177716803,78.76887581998017 24.903780718392227,78.59134287713096 24.168809073686134,78.49271336647507 23.418525519839022,78.51243927415635 23.26540642720647,78.3546319342131 23.066351606801618,78.41380970765022 22.836672967823688,78.31518007123668 21.933270321402233,78.27572819708439 21.535160680534318,77.8417568433506 20.55519848765107,77.66422271756164 19.88147448009113,76.894905555484 19.115879016986582,76.5201084742439 18.47277882794151,75.98750035904231 17.783742911182344,75.69160608082893 17.4621928166016,74.56720208543993 17.20189035916701,73.42306237784214 17.018147447961383,73.34415584437374 16.62003780726809,73.34415584437374 16.436294896004256,73.46251562784892 16.053497164451983,73.38360911671771 15.762570888444316,73.52169548184611 15.425708884722553,73.4822422486177 14.644801512302365,73.56114870379679 14.093572778860107,72.83126228593756 14.047637051029596,72.49590778326092 13.572967863932718,71.84492320618301 13.266729678609408,70.4443096997129 12.684877126652282,69.39877211737621 12.256143667327706,69.02395484469889 11.781474480114412,68.05731616585399 11.567107750452124,67.16958085143415 11.107750472612679,66.14374632295221 10.602457466884516,65.8675588115002 10.051228733442258,65.33490991978033 9.898109640809707,65.37436546316894 9.744990548177157,65.23627101232705 9.5,64.5655245873204 9.591871455602814,63.87504694874224 11.000567107694224,63.756679009471554 11.153686200326774,63.677766994034755 11.21493383741472,63.04646925922134 11.138374291127548,62.29679947868863 11.061814744840376,62.29679947868863 11.168998109642416,61.88250655119191 11.046502835524734,61.40902740928868 11.107750472612679,61.13283049898746 11.26086956524523,61.034188612538856 11.93459357280517,61.11310212731769 12.807372400769964,60.8763614485797 13.23610586009454,60.8960898538935 13.373913043469656,59.85048051898775 13.23610586009454,59.1205221744749 13.404536861984525,58.96269283970469 14.399810964008793,58.8048633258295 14.935727788251825,58.82459202490281 15.272589792031795,59.00215019013558 15.686011342157144,59.51509472816542 16.053497164451983,59.61373769179045 16.834404536813963,59.317808591236826 17.048771266592667,59.1994367747393 17.217202268424444,58.92323547798151 17.569376181520056,58.8048633258295 18.9933837428689,59.04160752949247 19.697731569001917,59.21916541784594 20.126465028326493,59.61373769179045 20.524574669194408,59.65319485758664 20.509262759878766,59.949123244776274 20.968620037834626,60.8763614485797 21.3973534971592,61.58658227635897 21.62703213613713,61.64576718167518 22.20888468809426,61.56685396900866 22.407939508499112,61.64576718167518 22.499810964101925,61.7838651961938 22.484499054786284,62.198158417391824 22.683553875249345,62.55326591079938 22.637618147418834,62.671634873826406 22.423251417814754,62.75054745997477 22.20888468809426,63.10565354349092 22.20888468809426,64.01314275056939 22.33137996221194,64.74307542631868 21.734215500880964,67.6035854905931 21.550472589791752,69.73413408453052 21.68827977316687,71.33202412158425 21.504536862077657,72.96934919916384 21.550472589791752,74.74474016239401 21.45860113418894,74.82364590169163 20.126465028326493,75.02091005418333 18.870888468809426,75.29707939783111 18.62589792057406,75.45489020527748 18.426843100169208,75.90859527970315 18.304347826109733,75.94804782497522 17.737807183351833,75.5732481933519 17.38563327031443,73.6992348927015 17.17126654065214,73.42306237784214 16.91096408321755,73.34415584437374 16.34442344045965,73.50196886660706 15.59413988655433,73.44278900425707 14.874480151222087,73.54142209420388 14.614177693787497,73.44278900425707 14.21606805297779,72.96934919916384 13.603591682389379,71.88437690363207 13.327977315697353,70.4443096997129 12.516446124762297,69.28040887719544 12.501134215504862,69.08313658644329 12.057088846864644,68.66886386544502 12.057088846864644,68.51104536162165 11.796786389430054,68.11649831882096 11.475236294907518,66.81448513978103 11.138374291127548,66.24238458702166 11.628355387540068,65.70973713023704 12.057088846864644,64.8219868375163 13.481096408271696,64.21042222977849 13.8332703213091,63.69749500206672 15.088846880884375,63.460758720728336 16.359735349717084,63.04646925922134 16.773156899784226,63.066197356718476 17.14064272219548,62.92810061501223 17.84499054821208,63.04646925922134 19.008695652184542,62.770275599497836 19.284310018934775,62.82946000128868 20.23364839324495,62.73081931764318 20.708317580341827,62.474353212805 21.427977315615863,61.88250655119191 22.193572778836824,61.50766903006297 22.346691871411167,61.54712565880618 22.484499054786284,61.76413691681228 22.499810964101925,62.237614850339014 22.714177693764213,62.57299407826213 22.33137996221194,62.90837249789911 22.224196597351693,63.16483780265844 22.36200378072681,65.0784486150078 21.826086956483778,66.85394026360882 21.887334593571723,66.97230556797876 21.718903591681737,67.80085987901839 21.642344045394566,69.49740807402122 21.749527410196606,71.09530082950369 21.504536862077657,73.12716264653136 21.596408317505848,74.58692854964465 20.90737240074668,74.92227801290574 19.728355387458578,75.21817392698722 18.779017013206612,75.37598482392787 18.39621928159613,75.92832155369979 17.783742911182344,75.55352186902019 17.324385633226484,73.4822422486177 16.98752362950472,73.38360911671771 16.359735349717084,73.50196886660706 15.33383742911974,73.46251562784892 14.736672967905179,73.58087531061028 14.445746691839304,73.28497591485211 14.29262759926496,72.89044240837393 13.603591682389379,71.84492320618301 13.389224952785298,70.4443096997129 12.822684310027398,69.59604396065697 12.286767485784367,69.00422759178036 11.919281663489528,68.39268136622559 11.70491493382724,67.42603830184089 11.230245746672153,66.14374632295221 11.26086956524523,65.96619727136567 11.613043478224427,65.65055395360105 11.980529300577473,64.90089820396679 12.48582230618922,64.6641639702575" stroke="#89CFF0" stroke-linecap="round" stroke-linejoin="round" stroke-width="0.5"><title>2024-07-14 14.63km</title><desc>11881960435</desc></polyline></svg>