<?xml version="1.0" encoding="utf-8" ?>
<svg baseProfile="full" height="130mm" version="1.1" viewBox="0,0,100,130" width="100mm" xmlns="http://www.w3.org/2000/svg" xmlns:ev="http://www.w3.org/2001/xml-events" xmlns:xlink="http://www.w3.org/1999/xlink"><defs /><rect fill="#222222" height="130" width="100" x="0" y="0" /><text fill="#FFFFFF" style="font-size:6px; font-family:Arial; font-weight:bold;color:#0ed45e;" x="5" y="10">天马泰象共舞</text><text fill="#FFFFFF" style="font-size:4px; font-family:Arial" x="5" y="121">Runner</text><text fill="#FFFFFF" style="font-size:6px; font-family:Arial" x="2" y="128">蓝皮书</text><text fill="#FFFFFF" style="font-size:4px; font-family:Arial" x="25" y="121">WORKOUTS INFO</text><text fill="#FFFFFF" style="font-size:3px; font-family:Arial" x="25" y="125">Type: Run</text><text fill="#FFFFFF" style="font-size:3px; font-family:Arial" x="22" y="129">Date: 2025-06-08</text><text fill="#FFFFFF" style="font-size:3px; font-family:Arial" x="47" y="125">Distance: 15.57 km</text><text fill="#FFFFFF" style="font-size:3px; font-family:Arial" x="47" y="129">Duration: 01:49:50</text><text fill="#FFFFFF" style="font-size:3px; font-family:Arial" x="75" y="125">Pace: 7:03/km</text><text fill="#FFFFFF" style="font-size:3px; font-family:Arial" x="75" y="129">Elevation: 35m</text><polyline fill="none" points="19.637735849129967,48.931577192866825 20.1726415095618,48.570545211201534 20.503773584845476,48.66900853476545 21.318867924506776,48.636187431489816 23.38207547168713,48.242333829955896 24.324528301949613,47.94694318890106 26.133018867927603,47.815658338557114 26.26037735841237,47.651552170776995 28.858490566024557,47.52026715282409 29.062264151056297,47.61873092330643 29.240566037711687,48.01258558619884 29.49528301891405,51.03211573290173 29.800943396170624,51.32750243610644 30.183018867857754,51.425964586567716 30.666981132002547,51.130578009193414 31.762264150893316,49.752102329264744 33.3669811320724,48.60336632367398 35.55754716973752,47.35616077561281 36.42358490556944,46.568448545149295 36.652830188628286,46.535627144083264 37.3150943396613,47.15923296943947 37.3150943396613,52.2136602831888 37.79905660368968,54.34698933143227 38.07924528303556,54.839293242257554 38.66509433975443,54.97057410827256 40.88113207544666,55.13467508595204 46.128301886841655,56.31619869102724 50.20377358503174,56.54593869156088 52.2924528302392,56.44747871927393 52.699999999953434,56.54593869156088 52.80188679252751,61.4688838992879 52.67452830192633,70.16583119551069 53.031132075586356,70.36273942644766 53.56603773578536,70.42837546620285 53.6169811320724,72.39744800355402 53.846226415247656,74.30086886654317 54.48301886790432,76.43399433665036 54.865094339707866,77.32005606062012 56.97924528294243,80.56892002938548 58.176415094407275,82.734804008418 60.13773584912997,85.78669703552441 60.3669811320724,85.91796034923755 61.89528301882092,85.32727485148644 62.37924528308213,86.01640778561705 63.01603773585521,86.08203938661609 63.78018867922947,85.6882495014579 64.54433962260373,84.73658784644795 65.13018867920619,84.37561171242851 66.14905660378281,84.17871540210035 67.9320754717337,84.40842774791236 68.9254716981668,84.90066772127466 70.2245283019729,86.24611830772483 70.75943396228831,88.01816324496758 71.59999999997672,88.14942529324617 72.41509433963802,89.7573793441261 72.66981132072397,91.0371715243964 72.74622641503811,91.89036238033441 72.77169811329804,92.8419946252543 72.69528301886749,94.28584297453926 75.98113207542337,94.12176975206239 76.41415094351396,94.22021369948925 77.20377358491533,94.15458440581278 77.38207547168713,93.85925235410105 76.92358490568586,91.26687706416124 77.1783018867718,89.82300988443603 77.58584905660246,89.62611820767052 79.1396226414945,89.5276723063871 80.36226415087003,89.56048761149577 80.87169811327476,89.6917487851606 80.64245283021592,90.44649908963765 80.84622641513124,91.2996921226586 80.89716981130186,94.02332576275512 80.99905660364311,94.22021369948925 81.55943396233488,94.25302833940077 81.78867924527731,94.12176975206239 85.78773584903684,94.0561404304899 85.8896226414945,93.8920670451771 85.81320754718035,90.24960794310027 86.14433962269686,89.26514969846176 88.28396226407494,87.62437665353355 89.22641509433743,86.41019711260742 89.6594339623116,87.42748310652678 90.5,87.52592990094854 90.37264150951523,87.42748310652678 89.68490566045512,87.36185188690433 89.40471698122565,87.00087984690617 89.30283018865157,86.31174984369136 89.58301886788104,84.83503578533418 89.58301886788104,84.08026718405017 89.37924528296571,82.99733402262791 89.09905660385266,82.30819210017216 88.64056603773497,81.58623169510975 87.0358490566723,80.30638726090547 85.63490566040855,79.74850413904642 85.17641509440728,79.42033696870203 83.9283018867718,79.02653575007571 82.19622641510796,78.69836755613505 81.48301886802074,78.73118439651444 80.97358490573242,78.56710014824057 79.62358490563929,78.50146641646279 79.16509433963802,78.59991700717364 77.28018867934588,78.59991700717364 75.5226415094221,78.82963488958194 74.83490566036198,79.19061967260495 73.8924528300995,79.28906997025479 72.87358490563929,79.6500540367706 72.08396226412151,79.71568744296383 70.35188679245766,80.20793739586952 67.34622641513124,80.04385419463506 65.74150943383574,79.45315370662138 64.92641509440728,79.35470347876253 64.56981132086366,79.48597043998598 64.51886792457663,79.9125875497557 64.03490566031542,80.47047027619556 63.93301886797417,81.09398467325082 64.46792452828959,81.651864552201 64.87547169800382,81.75031380302971 65.53773584903684,81.48778237441729 65.8179245282663,81.09398467325082 65.89433962269686,80.66736974088417 65.58867924532387,80.20793739586952 65.25754716980737,79.9125875497557 64.84999999997672,79.84695419948548 64.54433962260373,79.94540421792772 64.28962264151778,80.10948748905503 63.958490566001274,80.60173660457076 64.0094339621719,81.1596176699677 64.21320754720364,81.4549659248587 64.74811320751905,81.68468097376171 65.25754716980737,81.58623169510975 65.58867924532387,81.32370008036378 65.7924528302392,80.83145250020607 65.71603773580864,80.50328686526336 65.46132075472269,80.14230412937468 64.4933962264331,79.74850413904642 64.54433962260373,79.42033696870203 65.43584905669559,79.45315370662138 66.78584905655589,79.94540421792772 69.56226415093988,80.1751207649504 70.37735849060118,80.14230412937468 71.57452830194961,79.94540421792772 71.88018867920619,80.24075402223389 71.93113207537681,80.73300285861478 72.69528301886749,80.86426903805113 73.30660377361346,81.1268011739885 73.40849056607112,81.52059881929017 73.05188679252751,82.01284493396815 72.97547169809695,82.47227369643224 73.58679245284293,83.32549612181901 74.32547169807367,83.8177383979928 74.6820754717337,84.27716357819736 74.80943396221846,84.86785175564 74.55471698113251,85.42572253919207 73.68867924530059,85.95077616604976 73.05188679252751,86.73835437325761 72.87358490563929,87.46029870926577 72.89905660378281,88.18224079367064 72.13490566029213,88.47758008833625 71.9056603773497,88.70728816805058 72.79716981120873,88.641657311382 73.84150943392888,89.10107291729946 75.3443396226503,89.46204168234544 76.74528301891405,89.5276723063871 77.35660377366003,89.65893349876569 77.9933962264331,89.56048761149577 80.92264150944538,89.65893349876569 83.03679245279636,89.5276723063871 85.60943396226503,89.1995190000016 86.29716981120873,89.00262679280422 87.85094339621719,87.95253219289589 88.53867924539372,87.23058939205657 88.94622641510796,86.47582860189141 89.40471698122565,84.539691843107 89.25188679248095,83.48957699679886 88.86981132079381,82.43945738644106 87.92735849053133,81.1924341613776 87.18867924518418,80.66736974088417 85.71132075472269,79.94540421792772 84.71792452828959,79.78132083054516 83.54622641496826,79.35470347876253 83.4188679244835,79.45315370662138 82.60377358493861,79.0921693330165 81.20283018867485,78.96090214855212 78.22264150949195,78.89526852838753 74.27452830190305,79.45315370662138 71.98207547178026,80.04385419463506 71.01415094337426,80.01103754034557 69.74056603759527,80.1751207649504 69.00188679248095,80.04385419463506 67.39716981141828,80.01103754034557 65.35943396226503,79.38752022609697 64.6716981130885,79.38752022609697 64.4933962264331,79.5187871686503 64.46792452828959,79.9125875497557 64.0094339621719,80.43765368239838 63.958490566001274,80.92990210004791 64.26415094337426,81.48778237441729 64.8245283018332,81.75031380302971 65.28301886795089,81.651864552201 65.74150943383574,81.29088360756577 65.89433962269686,81.06116816785652 65.84339622640982,80.60173660457076 65.66509433963802,80.20793739586952 65.30849056597799,79.9125875497557 64.59528301877435,79.78132083054516 64.41698113211896,79.5187871686503 64.4933962264331,79.35470347876253 64.39150943397544,79.28906997025479 63.3471698112553,79.87977087694162 63.041509433998726,80.20793739586952 62.124528301879764,81.42214947077446 61.48773584899027,82.07847767007479 60.46886792453006,83.78492227895185 59.984905660385266,83.42394466072437 59.47547169809695,82.734804008418 59.01698113209568,81.91439579473808 58.86415094335098,81.42214947077446 58.86415094335098,80.86426903805113 59.14433962269686,80.07667084419518 59.5773584904382,79.45315370662138 60.34150943392888,78.99371895163495 60.29056603775825,78.7640012321499 59.8575471699005,78.53428328469454 57.412264151033014,80.24075402223389 57.03018867922947,80.70018630209961 57.08113207551651,80.43765368239838 57.05566037737299,80.56892002938548 56.77547169814352,80.3720204809797 56.08773584919982,79.22343644312059 56.13867924537044,79.35470347876253 56.291509433998726,79.1578028973745 55.29811320756562,80.04385419463506 54.89056603773497,80.63455317501212 52.878301886841655,81.947212179075 52.26698113209568,82.57072259832057 49.05754716985393,84.96629963861778 48.726415094337426,85.06474747986067 48.344339622650295,85.45853842572251 44.80377358489204,87.91971665991878 43.27547169814352,89.03544217225863 41.594339622650295,90.34805353726551 41.33962264144793,90.41368391012657 39.964150943327695,91.36532222578535 39.17452830192633,92.0544371845026 37.773584905662574,93.13732797486591 35.12452830199618,94.90932015948056 32.73018867929932,96.81255591617082 31.25283018872142,97.73135378460574 30.59056603780482,98.28919356843107 30.13207547168713,98.38763574363838 29.92830188688822,98.32200763146102 27.584905660361983,95.49998120689997 27.43207547161728,95.1390218569868 26.41320754715707,93.8920670451771 25.801886792411096,92.8419946252543 24.146226415061392,90.97154132828291 23.43301886797417,89.65893349876569 22.516037735855207,88.70728816805058 20.885849056649022,86.50864433964307 20.529245282988995,86.18048675333557 20.427358490647748,85.91796034923755 20.09622641513124,85.65543364749465 19.892452830215916,85.22882712203136 19.026415094383992,84.30997962760739 18.56792452838272,83.39112848565856 17.217924528289586,81.78313021069334 17.166981132118963,81.42214947077446 16.42830188688822,80.86426903805113 15.231132075423375,79.1578028973745 14.41603773587849,78.20611439274217 14.21226415084675,77.77949413770693 12.072641509468667,75.12130406613869 11.435849056462757,74.20241644720954 11.283018868067302,73.77578881263616 10.850000000093132,73.38197799040063 9.52547169814352,71.44573170211515 9.627358490601182,68.26237632657285 9.5,67.08091370659531 9.601886792457663,65.50562083184195 9.5,63.07702330983011 9.601886792457663,57.79309471489978 9.831132075516507,55.889538085029926 9.856603773660026,52.87007131567225 10.060377358458936,51.16339875862468 9.90754716983065,50.83519105469168 10.060377358458936,50.277236889800406 10.748113207519054,49.98184884614602 13.01509433973115,49.71928137965733 13.77924528310541,49.55517656185839 15.333018867997453,49.48953460215125 17.82924528303556,49.16132452430611 18.134905660292134,48.997219310796936 20.019811320700683,48.80029290106904 24.375471698120236,47.94694318890106 24.6301886793226,48.01258558619884 25.52169811318163,47.91412198335456 28.603773584938608,47.42180334049044 29.036792452796362,47.454624615915236 29.31698113202583,47.881300773020484 29.546226415084675,50.703907842806075 29.520754716941155,52.18083968272549 27.839622641564347,54.248528423690004 27.126415094244294,55.4956968275219 25.878301886841655,56.77567846397869 26.43867924530059,56.217738620965974 26.87169811327476,55.922358159630676 27.381132075446658,56.184918588318396 27.712264150963165,56.57875867302937 27.68679245293606,61.43606461134914 27.839622641564347,61.9939918742748 27.91603773587849,61.92835344247578 27.76320754713379,59.368440085541806 27.89056603773497,58.67922780527442 27.712264150963165,55.626977321197046 28.043396226479672,54.839293242257554 30.794339622720145,51.22904024354648 31.049056603806093,50.57262455641467 31.53301886783447,49.94902792906214 32.857547169784084,49.16132452430611 35.73584905662574,47.25769689347362 35.8377358490834,47.06076900345215 36.24528301891405,46.83101958659245 36.347169811371714,46.568448545149295 36.52547169814352,46.50280573833152 36.27075471705757,46.4699843278504 35.88867924537044,46.89666230039438 35.30283018865157,47.323339486290934 34.13113207544666,47.91412198335456 34.00377358496189,48.14387032484228 33.850943396333605,48.14387032484228 31.940566037781537,49.45671361532004 31.125471698120236,50.211595134896925 30.488679245230742,51.03211573290173 30.081132075516507,50.86801184603246 29.826415094314143,49.78492327418644 29.648113207658753,47.48744588669797 29.699056603829376,46.7325554810086 30.208490566001274,45.15712409336993 30.259433962171897,44.23811749763263 30.437735849060118,43.54886015567172 30.76886792446021,43.319107252173126 31.125471698120236,43.64732561598066 31.405660377349705,43.680147426755866 31.53301886783447,43.64732561598066 31.685849056579173,43.286285390218836 31.73679245286621,42.89242268333328 31.3801886793226,42.30162736607599 31.201886792550795,42.203161333236494 31.02358490577899,42.36727136472473 31.074528301833197,42.79395690186357 30.896226415061392,43.220641652311315 30.896226415061392,43.74579103430733 31.100000000093132,44.303760946932016 31.431132075493224,44.5335128728766 31.73679245286621,44.566334557923255 32.09339622640982,44.336582664589514 32.37358490563929,44.369404377634055 32.7047169811558,44.27093922457425 33.06132075469941,43.844256410811795 33.95283018867485,43.64732561598066 33.876415094477125,43.450394653569674 33.46886792453006,43.51603832634282 33.03584905655589,43.089354120587814 31.431132075493224,41.97340709369746 30.92169811320491,41.87494092124689 30.616037735831924,41.612364256347064 30.310377358458936,41.84211885437253 29.648113207658753,44.50069118311512 29.138679245254025,47.19205428210262 29.291509433998726,48.47208184574265 29.266037735855207,47.94694318890106 29.011320754769258,47.52026715282409" stroke="#FFFF00" stroke-linecap="round" stroke-linejoin="round" stroke-width="0.5"><title>2025-06-08 15.57km</title><desc>14728620738</desc></polyline></svg>