<?xml version="1.0" encoding="utf-8" ?>
<svg baseProfile="full" height="130mm" version="1.1" viewBox="0,0,100,130" width="100mm" xmlns="http://www.w3.org/2000/svg" xmlns:ev="http://www.w3.org/2001/xml-events" xmlns:xlink="http://www.w3.org/1999/xlink"><defs /><rect fill="#FAF9F5" height="130" width="100" x="0" y="0" /><text fill="#5A5A5A" style="font-size:6px; font-family:Arial; font-weight:bold;color:#0ed45e;" x="5" y="10">友谊新跑道 吉象同行-官方</text><text fill="#5A5A5A" style="font-size:4px; font-family:Arial" x="5" y="121">Runner</text><text fill="#5A5A5A" style="font-size:6px; font-family:Arial" x="2" y="128">蓝皮书</text><text fill="#5A5A5A" style="font-size:4px; font-family:Arial" x="25" y="121">WORKOUTS INFO</text><text fill="#5A5A5A" style="font-size:3px; font-family:Arial" x="25" y="125">Type: Run</text><text fill="#5A5A5A" style="font-size:3px; font-family:Arial" x="22" y="129">Date: 2025-07-27</text><text fill="#5A5A5A" style="font-size:3px; font-family:Arial" x="47" y="125">Distance: 2.01 km</text><text fill="#5A5A5A" style="font-size:3px; font-family:Arial" x="47" y="129">Duration: 12:26min</text><text fill="#5A5A5A" style="font-size:3px; font-family:Arial" x="75" y="125">Pace: 6:10/km</text><text fill="#5A5A5A" style="font-size:3px; font-family:Arial" x="75" y="129">Elevation: 29m</text><polyline fill="none" points="33.307211925974116,40.59886928283959 34.14484286867082,40.239154423965374 35.18190975021571,39.51972363542882 35.74033037875779,39.3141717192193 36.53807413368486,39.3141717192193 37.375705076614395,39.10861968647805 38.492546333698556,39.10861968647805 39.729049153858796,39.416947691875976 40.766116035403684,39.879439208161784 41.80318291694857,40.59886928283959 42.40149073326029,41.164134768303484 43.07957292511128,42.089112752262736 43.47844480257481,42.80853844137164 43.71776792919263,43.42518789545284 44.07675261888653,44.86403254218749 44.355962933041155,45.06958131110878 44.75483481073752,45.06958131110878 45.3132554392796,45.22374281141674 46.58964544720948,46.97090189883602 46.8289685738273,47.48477061607991 46.90874294936657,47.99863860473852 46.8289685738273,48.46111917178496 46.8688557613641,50.054103275062516 47.10817888798192,54.0108399525343 47.26772763906047,54.73024198101484 47.46716357767582,54.83301358282915 53.76933924248442,54.83301358282915 54.287872683256865,54.73024198101484 54.407534246565774,54.473312849062495 54.36764705879614,54.16499765019398 54.527195809874684,52.93173423275584 54.44742143456824,51.80123908093083 54.606970185181126,50.46519481038558 54.527195809874684,50.15687620261451 54.287872683256865,49.59162474056939 54.287872683256865,49.48885165259708 54.12832393217832,48.87221251378651 54.527195809874684,47.99863860473852 54.846293311798945,47.84447828467819 56.082796132192016,47.94725183871924 56.36200644657947,47.79309149674373 58.19681708305143,47.84447828467819 58.47602739720605,47.7417047014751 58.914786462672055,47.79309149674373 59.31365834013559,47.690317898988724 59.99174053198658,47.7417047014751 60.11140209529549,48.05002536365646 59.95185334421694,50.31103553943103 59.87207896867767,50.87628587978543 59.75241740536876,51.13321756129153 59.8321917806752,51.69846661959309 59.55298146675341,53.394208506069845 59.592868654290214,53.599752438021824 59.8321917806752,54.06222585911746 60.031627719523385,54.78162778567639 60.31083803391084,54.88439937273506 60.55016116029583,54.78162778567639 60.988920225529,54.935785155539634 61.268130539916456,54.83301358282915 62.863618050003424,54.88439937273506 63.50181305408478,54.78162778567639 64.06023368262686,54.88439937273506 64.49899274786003,54.78162778567639 65.05741337640211,54.83301358282915 65.33662369055673,54.73024198101484 66.01470588240772,54.88439937273506 66.49335213541053,54.73024198101484 67.2512087028008,54.88439937273506 67.49053182918578,54.83301358282915 67.88940370664932,54.576084523723694 68.00906526995823,54.421927000861615 67.88940370664932,53.034506344556576 68.00906526995823,51.59569412909332 68.00906526995823,50.72212678339565 68.1287268330343,50.2596491012082 67.96917808242142,49.129145615763264 68.04895245772786,48.05002536365646 68.28827558434568,47.27922321658116 69.04613215150312,46.30287147752824 69.48489121673629,46.0459363720729 69.96353746997193,45.84038815679378 70.12308622081764,45.68622691874043 70.56184528605081,45.53206561514526 71.00060435128398,45.06958131110878 71.00060435128398,44.86403254218749 71.39947622898035,44.65848365650163 71.67868654313497,44.35016010966501 72.0775584205985,44.04183630051557 72.59609186137095,43.579350095038535 72.95507655129768,43.06547584137297 73.51349717983976,42.60298839007737 73.5932715551462,42.65437591387308 73.47360999207012,42.96270090324106 73.15451248991303,43.579350095038535 73.1146253021434,43.78489959251601 73.5932715551462,44.09322362029343 74.3511281227693,44.24738553573843 74.47078968584538,44.35016010966501 74.75,44.19599823793396 74.63033843669109,44.04183630051557 74.19157937145792,44.09322362029343 73.91236905707046,44.04183630051557 73.51349717983976,43.73351222916972 73.35394842876121,43.476575302600395 73.39383561653085,43.11686329951044 73.63315874314867,42.65437591387308 73.79270749399439,41.883562293165596 73.95225624507293,41.67801171756582 73.99214343284257,41.523848709242884 73.91236905707046,41.11274703338859 73.99214343284257,40.393317978741834 74.11180499615148,39.98221502057277 74.0320306206122,39.8280512909987 74.07191780814901,39.16000770565006 74.23146655922756,37.97808142303256 74.15169218368828,37.51558748073876 73.99214343284257,37.310034428024665 74.0320306206122,37.05309294827748 73.95225624507293,36.64198620177922 73.55338436737657,36.07671366404975 73.55338436737657,35.87115979535156 73.31406124099158,35.511440244765254 73.2342868654523,35.25449749009567 72.79552780021913,34.689222788554616 72.59609186137095,34.380890761560295 71.99778404505923,33.66144834540319 71.59891216782853,33.45589310704963 71.27981466567144,33.04478228077642 71.08037872682326,32.94200450126664 70.761281224899,32.58228204373154 70.16297340835445,32.428115166781936 69.40511684119701,31.965614142885897 68.9264705881942,31.91422510391567 67.84951651911251,31.60589071630966 67.45064464164898,31.657279799168464 66.9321112006437,31.45172342422302 66.53323932294734,31.554501626320416 65.17707493947819,31.09199948766036 64.73831587424502,31.040610324649606 63.38215149077587,30.680885980080348 62.34508460923098,30.680885980080348 62.26531023369171,30.578107530338457 61.627115229610354,30.42393980108318 60.709709911374375,30.269772006198764 60.23106365837157,30.321161278465297 59.67264302982949,30.115604145888938 58.43614020966925,30.16699343995424 58.03726833197288,30.064214844460366 57.4788477034308,30.115604145888938 57.319298952352256,30.064214844460366 56.40189363411628,30.115604145888938 55.88336019334383,30.064214844460366 54.80640612402931,30.269772006198764 54.24798549572006,30.321161278465297 54.048549556871876,30.218382726685377 52.57272361009382,30.37255054336856 52.05419016932137,30.218382726685377 51.37610797747038,30.16699343995424 50.897461724467576,30.475329051550943 50.458702659001574,30.42393980108318 49.50141015299596,30.475329051550943 49.06265108776279,30.680885980080348 48.70366639806889,30.680885980080348 48.58400483475998,31.040610324649606 48.38456889614463,31.194777791708475 47.58682514098473,31.297556066478137 47.30761482659727,31.554501626320416 46.54975825943984,31.708668874664 46.35032232082449,31.91422510391567 46.07111200643703,31.965614142885897 44.39585012081079,32.4795041330799 37.0167203869205,31.760057942796266 36.73751007253304,31.811447003943613 35.341458501061425,31.400334312260384 34.82292506028898,31.45172342422302 34.86281224829145,31.60589071630966 34.543714746134356,31.86283605758217 34.543714746134356,32.32533721244545 33.865632554516196,32.73644885493559 33.62630942789838,33.04478228077642 33.546535052359104,33.45589310704963 33.50664786458947,33.764225920895115 33.666196615668014,34.278113361098804 34.06506849313155,34.843388703651726 34.543714746134356,35.10033174973796 35.02236099913716,35.10033174973796 35.102135374676436,34.89477732748492 35.50100725213997,34.89477732748492 36.05942788068205,34.483668133063475 36.37852538283914,33.96978098442196 36.458299758378416,33.45589310704963 36.2189766317606,32.83922669268213 35.8599919420667,32.4795041330799 35.102135374676436,32.06839219923131 34.82292506028898,32.1711702265311 34.543714746134356,32.119781216577394 34.46394037059508,31.965614142885897 34.543714746134356,31.760057942796266 34.46394037059508,31.400334312260384 34.98247381160036,31.503112528967904 34.344278807519004,31.503112528967904 33.26732473820448,31.91422510391567 32.42969379527494,32.58228204373154 31.67183722811751,33.30172660184326 31.43251410149969,33.6100595468597 30.395447219954804,34.483668133063475 30.076349718030542,34.689222788554616 29.63759065279737,34.792000072600786 29.358380338409916,34.63783413570491 29.43815471394919,34.12394720542943 29.43815471394919,33.45589310704963 29.238718775333837,32.73644885493559 28.799959709867835,31.86283605758217 28.08199033048004,31.040610324649606 27.762892828322947,30.886442792165326 27.52356970193796,30.886442792165326 26.526390007929876,31.554501626320416 26.406728444620967,31.760057942796266 25.768533440772444,32.22255922917975 25.60898468992673,32.4795041330799 25.329774375539273,33.25033775228076 25.25,33.91839222953422 25.329774375539273,34.43227945105173 25.60898468992673,35.511440244765254 25.768533440772444,35.973936744383536 26.60616438346915,37.155869561916916 27.04492344893515,38.02946960245026 27.563456889474764,38.6461271866865 28.121877518016845,39.51972363542882 28.600523771252483,39.879439208161784 28.83984689763747,39.879439208161784 29.039282836485654,39.776663366676075 29.677477840567008,40.13637868445949 29.99657534249127,40.08499080382171 30.475221595494077,40.08499080382171 31.43251410149969,39.72527543504839 32.190370668657124,39.98221502057277 32.90834004827775,40.49609364531352" stroke="#4DD2FF" stroke-linecap="round" stroke-linejoin="round" stroke-width="0.5"><title>2025-07-27 3.52km</title><desc>15247106468</desc></polyline><polyline fill="none" points="48.023764258250594,114.11067104910035 48.77661596983671,113.62569373834413 51.599809885025024,114.59564822202083 52.91730038076639,113.38320503209252 54.046577947214246,113.38320503209252 53.67015209142119,113.38320503209252 54.79942965786904,112.41324986075051 55.74049429688603,110.71582698775455 57.24619771912694,109.98835952661466 58.9401140678674,108.04844478343148 60.25760456267744,103.68362856679596 61.3868821291253,102.47117764106952 63.08079847879708,101.74370667245239 66.09220532234758,101.98619702993892 67.97433460131288,102.47117764106952 70.79752851650119,101.25872585526668 72.67965779453516,99.31880121072754 72.67965779453516,96.65140123176388 73.24429657775909,94.95396271510981 74.75,93.2565225136932 74.75,92.28655592852738 74.37357414420694,91.55908062774688 73.24429657775909,90.83160501823295 68.5389733845368,89.86163705727085 65.33935361169279,86.95172987412661 63.45722433459014,85.73926708649378 63.45722433459014,84.52680343959946 62.89258555043489,82.586859815754 59.88117870781571,78.94945959071629 56.86977186240256,77.73699113016482 54.42300380207598,78.22197861829773 54.23479087371379,77.49449733516667 53.29372623562813,77.25200350547675 49.341254752129316,78.94945959071629 46.89448669180274,80.88940734020434 46.518060836941004,81.37439393461682 46.518060836941004,83.55683190259151 45.765209125354886,83.55683190259151 45.38878327049315,84.28431060700677 45.20057034213096,86.95172987412661 44.63593155890703,89.61914498137776 42.94201520830393,92.77153929008637 41.62452471535653,93.98399709234945 38.98954372666776,95.43894532031845 36.73098859284073,95.43894532031845 35.41349809896201,95.19645403465256 33.907794676721096,93.98399709234945 31.461026615463197,93.74150560074486 28.637832699343562,94.22648854972795 26.755703422240913,94.71147136075888 26.19106463994831,95.43894532031845 25.62642585579306,96.16641897009686 25.25,97.62136534193996 26.755703422240913,100.28876380831935 28.44961977098137,101.25872585526668 30.896387833170593,103.44113845063839 33.71958175022155,109.26089175557718 34.284220532514155,110.95831607258879 34.47243345994502,112.41324986075051 35.978136882185936,115.56560215575155 36.91920152120292,116.29306724516209 38.6131178708747,115.56560215575155 39.55418250989169,116.77804379840381 41.62452471535653,117.02053202455863 46.89448669180274,115.32311372400727 47.835551330819726,114.3531596523244 49.717680607922375,113.38320503209252 51.788022813387215,114.11067104910035 54.23479087371379,113.62569373834413 54.98764258529991,112.89822751504835 56.305133080109954,111.92827206931543 56.68155893590301,110.95831607258879 57.810836501419544,109.50338104646653 57.99904942885041,108.04844478343148 58.9401140678674,106.83599695202429 59.692965779453516,105.13856854371261 61.01045627333224,102.95615811413154 62.70437262300402,101.74370667245239 66.65684410557151,102.47117764106952 70.0446768058464,101.74370667245239 71.92680608388036,100.28876380831935 74.37357414420694,94.95396271510981 74.56178707163781,93.01403091894463 74.18536121584475,91.31658879248425 73.24429657775909,90.5891130801756 67.40969581715763,89.37665287114214 63.833650190383196,85.25428173062392 63.26901140715927,83.3143389322795 60.25760456267744,79.9194337411318 54.79942965786904,78.22197861829773 53.29372623562813,78.22197861829773 52.164448669180274,78.46447231026832 51.599809885025024,79.19195318000857 50.282319392077625,79.4344467347255 47.647338402457535,81.37439393461682 47.2709125475958,82.586859815754 45.765209125354886,83.79932483821176 45.765209125354886,85.01178900094237 44.82414448726922,88.89166854682844 42.56558935344219,92.52904762688559 40.87167300377041,94.22648854972795 38.98954372666776,95.43894532031845 36.73098859284073,95.68143657164183 34.09600760508329,94.71147136075888 29.76711026672274,94.71147136075888 27.508555132895708,95.43894532031845 26.567490494810045,95.92392778815702 26.19106463994831,96.89389231114183 26.002851711586118,97.8638562830165 26.19106463994831,98.83381970587652 27.6967680612579,100.77374490071088 28.826045627705753,101.50121628132183 32.02566539961845,105.866038067732 33.1549429660663,109.01840243011247 33.71958175022155,111.92827206931543 35.22528517153114,114.59564822202083 38.236692015081644,117.50550837186165 41.24809885863215,117.74799649452325 44.071292775683105,117.2630202153232 49.341254752129316,113.86818241118453 50.65874524693936,113.62569373834413 52.352661597542465,114.3531596523244 54.046577947214246,113.38320503209252 57.24619771912694,110.71582698775455 58.37547528464347,110.23084871470928 58.56368821207434,108.775913069956 60.069391635246575,105.38105841912329 60.25760456267744,103.92611864919309 61.76330798398703,102.47117764106952 62.70437262300402,102.22868735238444 64.77471482846886,102.47117764106952 66.09220532234758,101.98619702993892 67.97433460131288,102.47117764106952 70.23288973327726,102.22868735238444 72.11501901131123,99.80378257844131 73.0560836493969,97.37887436558958 74.56178707163781,94.95396271510981 74.37357414420694,93.74150560074486 74.56178707163781,92.52904762688559 74.18536121584475,91.55908062774688 72.3032319387421,91.07409692287911 70.42110266070813,91.55908062774688 68.35076045617461,90.5891130801756 64.58650190103799,85.49677442619577 62.89258555043489,84.28431060700677 62.51615969557315,83.07184592855629 61.3868821291253,81.85938038933091 61.01045627333224,80.64691399224102 57.05798479076475,78.70696596696507 54.79942965786904,78.22197861829773 50.65874524693936,78.94945959071629 48.588403042405844,80.1619271923555 47.08269961923361,81.61688717943616 45.95342205371708,84.28431060700677 45.57699619792402,86.70923738507554 44.447718631476164,90.5891130801756 42.189163498580456,93.74150560074486 40.49524714797735,94.46897997241467 39.742395436391234,94.22648854972795 39.17775665316731,94.71147136075888 36.73098859284073,95.43894532031845 33.1549429660663,94.22648854972795 32.02566539961845,94.46897997241467 28.261406843550503,96.16641897009686 27.6967680612579,95.92392778815702 26.002851711586118,97.37887436558958 26.002851711586118,98.83381970587652 26.567490494810045,99.80378257844131 28.261406843550503,101.01623539521825 29.39068441092968,102.71366789471358 32.02566539961845,104.65358868835028 32.96673003770411,108.04844478343148 33.53136882185936,111.20080512331333 34.284220532514155,111.4432941400446 34.660646388307214,113.62569373834413 36.354562737978995,116.05057891621254 38.98954372666776,117.50550837186165 42.189163498580456,117.74799649452325 47.45912547502667,115.56560215575155 49.15304182562977,113.86818241118453 50.094106463715434,113.62569373834413" stroke="#4DD2FF" stroke-linecap="round" stroke-linejoin="round" stroke-width="0.5"><title>2025-07-27 2.01km</title><desc>15246836168</desc></polyline></svg>